<?xml version="1.0" encoding="UTF-8" standalone="no"?><svg xmlns="http://www.w3.org/2000/svg" xmlns:xlink="http://www.w3.org/1999/xlink" contentScriptType="application/ecmascript" contentStyleType="text/css" height="537px" preserveAspectRatio="none" style="width:728px;height:537px;background:#FFFFFF;" version="1.1" viewBox="0 0 728 537" width="728px" zoomAndPan="magnify"><defs><filter height="300%" id="f6uaoil9nsv7y" width="300%" x="-1" y="-1"><feGaussianBlur result="blurOut" stdDeviation="2.0"/><feColorMatrix in="blurOut" result="blurOut2" type="matrix" values="0 0 0 0 0 0 0 0 0 0 0 0 0 0 0 0 0 0 .4 0"/><feOffset dx="4.0" dy="4.0" in="blurOut2" result="blurOut3"/><feBlend in="SourceGraphic" in2="blurOut3" mode="normal"/></filter></defs><g><rect fill="#FFFFFF" filter="url(#f6uaoil9nsv7y)" height="342.8672" style="stroke:#A80036;stroke-width:1.0;" width="10" x="85" y="99.6094"/><rect fill="#FFFFFF" filter="url(#f6uaoil9nsv7y)" height="30.3516" style="stroke:#A80036;stroke-width:1.0;" width="10" x="655" y="121.9609"/><rect fill="#FFFFFF" filter="url(#f6uaoil9nsv7y)" height="174.1094" style="stroke:#000000;stroke-width:2.0;" width="704" x="10" y="167.3125"/><rect fill="#FFFFFF" filter="url(#f6uaoil9nsv7y)" height="79.0547" style="stroke:#000000;stroke-width:2.0;" width="684" x="20" y="192.6641"/><rect fill="#FFFFFF" height="62.7031" style="stroke:none;stroke-width:1.0;" width="704" x="10" y="278.7188"/><rect fill="#FFFFFF" filter="url(#f6uaoil9nsv7y)" height="79.0547" style="stroke:#000000;stroke-width:2.0;" width="684" x="20" y="355.4219"/><line style="stroke:#A80036;stroke-width:1.0;stroke-dasharray:5.0,5.0;" x1="90" x2="90" y1="89.6094" y2="451.4766"/><line style="stroke:#A80036;stroke-width:1.0;stroke-dasharray:5.0,5.0;" x1="660" x2="660" y1="89.6094" y2="451.4766"/><text fill="#000000" font-family="sans-serif" font-size="14" lengthAdjust="spacing" textLength="114" x="30" y="86.5332">Unregistered User</text><ellipse cx="90" cy="15" fill="#FEFECE" filter="url(#f6uaoil9nsv7y)" rx="8" ry="8" style="stroke:#A80036;stroke-width:2.0;"/><path d="M90,23 L90,50 M77,31 L103,31 M90,50 L77,65 M90,50 L103,65 " fill="none" filter="url(#f6uaoil9nsv7y)" style="stroke:#A80036;stroke-width:2.0;"/><text fill="#000000" font-family="sans-serif" font-size="14" lengthAdjust="spacing" textLength="114" x="30" y="465.0098">Unregistered User</text><ellipse cx="90" cy="478.0859" fill="#FEFECE" filter="url(#f6uaoil9nsv7y)" rx="8" ry="8" style="stroke:#A80036;stroke-width:2.0;"/><path d="M90,486.0859 L90,513.0859 M77,494.0859 L103,494.0859 M90,513.0859 L77,528.0859 M90,513.0859 L103,528.0859 " fill="none" filter="url(#f6uaoil9nsv7y)" style="stroke:#A80036;stroke-width:2.0;"/><rect fill="#FEFECE" filter="url(#f6uaoil9nsv7y)" height="31.6094" style="stroke:#A80036;stroke-width:1.5;" width="64" x="626" y="53"/><text fill="#000000" font-family="sans-serif" font-size="14" lengthAdjust="spacing" textLength="50" x="633" y="74.5332">:System</text><rect fill="#FEFECE" filter="url(#f6uaoil9nsv7y)" height="31.6094" style="stroke:#A80036;stroke-width:1.5;" width="64" x="626" y="450.4766"/><text fill="#000000" font-family="sans-serif" font-size="14" lengthAdjust="spacing" textLength="50" x="633" y="472.0098">:System</text><rect fill="#FFFFFF" filter="url(#f6uaoil9nsv7y)" height="342.8672" style="stroke:#A80036;stroke-width:1.0;" width="10" x="85" y="99.6094"/><rect fill="#FFFFFF" filter="url(#f6uaoil9nsv7y)" height="30.3516" style="stroke:#A80036;stroke-width:1.0;" width="10" x="655" y="121.9609"/><polygon fill="#A80036" points="643,117.9609,653,121.9609,643,125.9609,647,121.9609" style="stroke:#A80036;stroke-width:1.0;"/><line style="stroke:#A80036;stroke-width:1.0;" x1="95" x2="649" y1="121.9609" y2="121.9609"/><text fill="#000000" font-family="sans-serif" font-size="13" font-weight="bold" lengthAdjust="spacing" textLength="7" x="102" y="117.1045">1</text><text fill="#000000" font-family="sans-serif" font-size="13" lengthAdjust="spacing" textLength="167" x="113" y="117.1045">starts announcement announcements</text><polygon fill="#A80036" points="106,148.3125,96,152.3125,106,156.3125,102,152.3125" style="stroke:#A80036;stroke-width:1.0;"/><line style="stroke:#A80036;stroke-width:1.0;stroke-dasharray:2.0,2.0;" x1="100" x2="659" y1="152.3125" y2="152.3125"/><text fill="#000000" font-family="sans-serif" font-size="13" font-weight="bold" lengthAdjust="spacing" textLength="7" x="112" y="147.4561">2</text><text fill="#000000" font-family="sans-serif" font-size="13" lengthAdjust="spacing" textLength="525" x="123" y="147.4561">shows available fields and requests data selection (buy/rent, type of property, no. of rooms)</text><path d="M10,167.3125 L71,167.3125 L71,175.3125 L61,185.3125 L10,185.3125 L10,167.3125 " fill="#EEEEEE" style="stroke:#000000;stroke-width:1.0;"/><rect fill="none" height="174.1094" style="stroke:#000000;stroke-width:2.0;" width="704" x="10" y="167.3125"/><text fill="#000000" font-family="sans-serif" font-size="13" font-weight="bold" lengthAdjust="spacing" textLength="16" x="25" y="181.8076">alt</text><path d="M20,192.6641 L93,192.6641 L93,200.6641 L83,210.6641 L20,210.6641 L20,192.6641 " fill="#EEEEEE" style="stroke:#000000;stroke-width:1.0;"/><rect fill="none" height="79.0547" style="stroke:#000000;stroke-width:2.0;" width="684" x="20" y="192.6641"/><text fill="#000000" font-family="sans-serif" font-size="13" font-weight="bold" lengthAdjust="spacing" textLength="28" x="35" y="207.1592">loop</text><polygon fill="#A80036" points="648,229.3672,658,233.3672,648,237.3672,652,233.3672" style="stroke:#A80036;stroke-width:1.0;"/><line style="stroke:#A80036;stroke-width:1.0;" x1="95" x2="654" y1="233.3672" y2="233.3672"/><text fill="#000000" font-family="sans-serif" font-size="13" font-weight="bold" lengthAdjust="spacing" textLength="7" x="102" y="228.5107">3</text><text fill="#000000" font-family="sans-serif" font-size="13" lengthAdjust="spacing" textLength="358" x="113" y="228.5107">selects required data (buy/rent, type of property, no. of rooms)</text><polygon fill="#A80036" points="106,259.7188,96,263.7188,106,267.7188,102,263.7188" style="stroke:#A80036;stroke-width:1.0;"/><line style="stroke:#A80036;stroke-width:1.0;stroke-dasharray:2.0,2.0;" x1="100" x2="659" y1="263.7188" y2="263.7188"/><text fill="#000000" font-family="sans-serif" font-size="13" font-weight="bold" lengthAdjust="spacing" textLength="7" x="112" y="258.8623">4</text><text fill="#000000" font-family="sans-serif" font-size="13" lengthAdjust="spacing" textLength="190" x="123" y="258.8623">shows matching announcements</text><line style="stroke:#000000;stroke-width:1.0;stroke-dasharray:2.0,2.0;" x1="10" x2="714" y1="279.7188" y2="279.7188"/><polygon fill="#A80036" points="648,299.0703,658,303.0703,648,307.0703,652,303.0703" style="stroke:#A80036;stroke-width:1.0;"/><line style="stroke:#A80036;stroke-width:1.0;" x1="95" x2="654" y1="303.0703" y2="303.0703"/><text fill="#000000" font-family="sans-serif" font-size="13" font-weight="bold" lengthAdjust="spacing" textLength="7" x="102" y="298.2139">5</text><text fill="#000000" font-family="sans-serif" font-size="13" lengthAdjust="spacing" textLength="134" x="113" y="298.2139">doesn't select any data</text><polygon fill="#A80036" points="106,329.4219,96,333.4219,106,337.4219,102,333.4219" style="stroke:#A80036;stroke-width:1.0;"/><line style="stroke:#A80036;stroke-width:1.0;stroke-dasharray:2.0,2.0;" x1="100" x2="659" y1="333.4219" y2="333.4219"/><text fill="#000000" font-family="sans-serif" font-size="13" font-weight="bold" lengthAdjust="spacing" textLength="7" x="112" y="328.5654">6</text><text fill="#000000" font-family="sans-serif" font-size="13" lengthAdjust="spacing" textLength="150" x="123" y="328.5654">shows all announcements</text><path d="M20,355.4219 L93,355.4219 L93,363.4219 L83,373.4219 L20,373.4219 L20,355.4219 " fill="#EEEEEE" style="stroke:#000000;stroke-width:1.0;"/><rect fill="none" height="79.0547" style="stroke:#000000;stroke-width:2.0;" width="684" x="20" y="355.4219"/><text fill="#000000" font-family="sans-serif" font-size="13" font-weight="bold" lengthAdjust="spacing" textLength="28" x="35" y="369.917">loop</text><polygon fill="#A80036" points="648,392.125,658,396.125,648,400.125,652,396.125" style="stroke:#A80036;stroke-width:1.0;"/><line style="stroke:#A80036;stroke-width:1.0;" x1="95" x2="654" y1="396.125" y2="396.125"/><text fill="#000000" font-family="sans-serif" font-size="13" font-weight="bold" lengthAdjust="spacing" textLength="7" x="102" y="391.2686">7</text><text fill="#000000" font-family="sans-serif" font-size="13" lengthAdjust="spacing" textLength="247" x="113" y="391.2686">selects sorting order (price and/or location)</text><polygon fill="#A80036" points="106,422.4766,96,426.4766,106,430.4766,102,426.4766" style="stroke:#A80036;stroke-width:1.0;"/><line style="stroke:#A80036;stroke-width:1.0;stroke-dasharray:2.0,2.0;" x1="100" x2="659" y1="426.4766" y2="426.4766"/><text fill="#000000" font-family="sans-serif" font-size="13" font-weight="bold" lengthAdjust="spacing" textLength="7" x="112" y="421.6201">8</text><text fill="#000000" font-family="sans-serif" font-size="13" lengthAdjust="spacing" textLength="196" x="123" y="421.6201">displays sorted data as requested</text><!--MD5=[deddf52501b71c2978646b4936f4944a]
@startuml
autonumber
actor "Unregistered User" as UR
participant ":System" as SYS
activate UR
UR -> SYS: starts announcement announcements
activate SYS
return shows available fields and requests data selection (buy/rent, type of property, no. of rooms)
deactivate SYS

alt
    loop
    UR -> SYS: selects required data (buy/rent, type of property, no. of rooms)
    UR <- - SYS: shows matching announcements
    end
else
    UR -> SYS: doesn't select any data
    UR <- - SYS: shows all announcements
end
loop
    UR -> SYS: selects sorting order (price and/or location)
    UR <- - SYS: displays sorted data as requested
end


@enduml

PlantUML version 1.2022.1(Tue Feb 01 18:19:58 GMT 2022)
(GPL source distribution)
Java Runtime: OpenJDK Runtime Environment
JVM: OpenJDK 64-Bit Server VM
Default Encoding: Cp1252
Language: en
Country: US
--></g></svg>