<?xml version="1.0" encoding="UTF-8" standalone="no"?><svg xmlns="http://www.w3.org/2000/svg" xmlns:xlink="http://www.w3.org/1999/xlink" contentStyleType="text/css" height="491px" preserveAspectRatio="none" style="width:796px;height:491px;background:#FFFFFF;" version="1.1" viewBox="0 0 796 491" width="796px" zoomAndPan="magnify"><defs/><g><!--MD5=[6d7d587a021629470fd0d5f8ef3407c9]
class Branch--><g id="elem_Branch"><rect codeLine="2" fill="#F1F1F1" height="48" id="Branch" rx="2.5" ry="2.5" style="stroke:#181818;stroke-width:0.5;" width="77" x="712.5" y="410.5"/><ellipse cx="727.5" cy="426.5" fill="#ADD1B2" rx="11" ry="11" style="stroke:#181818;stroke-width:1.0;"/><path d="M730.2656,422.375 Q730.4219,422.1563 730.6094,422.0469 Q730.7969,421.9375 731.0156,421.9375 Q731.3906,421.9375 731.625,422.1953 Q731.8594,422.4531 731.8594,423.0625 L731.8594,424.5156 Q731.8594,425.125 731.625,425.3906 Q731.3906,425.6563 731.0156,425.6563 Q730.6719,425.6563 730.4688,425.4531 Q730.2656,425.2656 730.1563,424.75 Q730.1094,424.3906 729.9219,424.2031 Q729.5938,423.8281 728.9844,423.6094 Q728.375,423.3906 727.75,423.3906 Q726.9844,423.3906 726.3516,423.7188 Q725.7188,424.0469 725.2266,424.7969 Q724.7344,425.5469 724.7344,426.5781 L724.7344,427.6719 Q724.7344,428.9063 725.625,429.7266 Q726.5156,430.5469 728.1094,430.5469 Q729.0469,430.5469 729.7031,430.2969 Q730.0938,430.1406 730.5156,429.7031 Q730.7813,429.4375 730.9297,429.3594 Q731.0781,429.2813 731.2813,429.2813 Q731.6094,429.2813 731.8672,429.5391 Q732.125,429.7969 732.125,430.1406 Q732.125,430.4844 731.7813,430.8906 Q731.2813,431.4688 730.4844,431.7969 Q729.4063,432.25 728.1094,432.25 Q726.5938,432.25 725.3906,431.625 Q724.4063,431.125 723.7188,430.0547 Q723.0313,428.9844 723.0313,427.7031 L723.0313,426.5469 Q723.0313,425.2188 723.6484,424.0703 Q724.2656,422.9219 725.3594,422.3047 Q726.4531,421.6875 727.6875,421.6875 Q728.4219,421.6875 729.0703,421.8516 Q729.7188,422.0156 730.2656,422.375 Z " fill="#000000"/><text fill="#000000" font-family="sans-serif" font-size="14" lengthAdjust="spacing" textLength="45" x="741.5" y="432.2285">Branch</text><line style="stroke:#181818;stroke-width:0.5;" x1="713.5" x2="788.5" y1="442.5" y2="442.5"/><line style="stroke:#181818;stroke-width:0.5;" x1="713.5" x2="788.5" y1="450.5" y2="450.5"/></g><!--MD5=[7421f545a0d8420c5bec41e74b387d9c]
class Employee--><g id="elem_Employee"><rect codeLine="7" fill="#F1F1F1" height="48" id="Employee" rx="2.5" ry="2.5" style="stroke:#181818;stroke-width:0.5;" width="94" x="7" y="410.5"/><ellipse cx="22" cy="426.5" fill="#ADD1B2" rx="11" ry="11" style="stroke:#181818;stroke-width:1.0;"/><path d="M24.7656,422.375 Q24.9219,422.1563 25.1094,422.0469 Q25.2969,421.9375 25.5156,421.9375 Q25.8906,421.9375 26.125,422.1953 Q26.3594,422.4531 26.3594,423.0625 L26.3594,424.5156 Q26.3594,425.125 26.125,425.3906 Q25.8906,425.6563 25.5156,425.6563 Q25.1719,425.6563 24.9688,425.4531 Q24.7656,425.2656 24.6563,424.75 Q24.6094,424.3906 24.4219,424.2031 Q24.0938,423.8281 23.4844,423.6094 Q22.875,423.3906 22.25,423.3906 Q21.4844,423.3906 20.8516,423.7188 Q20.2188,424.0469 19.7266,424.7969 Q19.2344,425.5469 19.2344,426.5781 L19.2344,427.6719 Q19.2344,428.9063 20.125,429.7266 Q21.0156,430.5469 22.6094,430.5469 Q23.5469,430.5469 24.2031,430.2969 Q24.5938,430.1406 25.0156,429.7031 Q25.2813,429.4375 25.4297,429.3594 Q25.5781,429.2813 25.7813,429.2813 Q26.1094,429.2813 26.3672,429.5391 Q26.625,429.7969 26.625,430.1406 Q26.625,430.4844 26.2813,430.8906 Q25.7813,431.4688 24.9844,431.7969 Q23.9063,432.25 22.6094,432.25 Q21.0938,432.25 19.8906,431.625 Q18.9063,431.125 18.2188,430.0547 Q17.5313,428.9844 17.5313,427.7031 L17.5313,426.5469 Q17.5313,425.2188 18.1484,424.0703 Q18.7656,422.9219 19.8594,422.3047 Q20.9531,421.6875 22.1875,421.6875 Q22.9219,421.6875 23.5703,421.8516 Q24.2188,422.0156 24.7656,422.375 Z " fill="#000000"/><text fill="#000000" font-family="sans-serif" font-size="14" lengthAdjust="spacing" textLength="62" x="36" y="432.2285">Employee</text><line style="stroke:#181818;stroke-width:0.5;" x1="8" x2="100" y1="442.5" y2="442.5"/><line style="stroke:#181818;stroke-width:0.5;" x1="8" x2="100" y1="450.5" y2="450.5"/></g><!--MD5=[bb086348203df7a999b66982746057b3]
class ListAllEmployeesUI--><g id="elem_ListAllEmployeesUI"><rect codeLine="12" fill="#F1F1F1" height="48" id="ListAllEmployeesUI" rx="2.5" ry="2.5" style="stroke:#181818;stroke-width:0.5;" width="150" x="336" y="7"/><ellipse cx="351" cy="23" fill="#ADD1B2" rx="11" ry="11" style="stroke:#181818;stroke-width:1.0;"/><path d="M353.7656,18.875 Q353.9219,18.6563 354.1094,18.5469 Q354.2969,18.4375 354.5156,18.4375 Q354.8906,18.4375 355.125,18.6953 Q355.3594,18.9531 355.3594,19.5625 L355.3594,21.0156 Q355.3594,21.625 355.125,21.8906 Q354.8906,22.1563 354.5156,22.1563 Q354.1719,22.1563 353.9688,21.9531 Q353.7656,21.7656 353.6563,21.25 Q353.6094,20.8906 353.4219,20.7031 Q353.0938,20.3281 352.4844,20.1094 Q351.875,19.8906 351.25,19.8906 Q350.4844,19.8906 349.8516,20.2188 Q349.2188,20.5469 348.7266,21.2969 Q348.2344,22.0469 348.2344,23.0781 L348.2344,24.1719 Q348.2344,25.4063 349.125,26.2266 Q350.0156,27.0469 351.6094,27.0469 Q352.5469,27.0469 353.2031,26.7969 Q353.5938,26.6406 354.0156,26.2031 Q354.2813,25.9375 354.4297,25.8594 Q354.5781,25.7813 354.7813,25.7813 Q355.1094,25.7813 355.3672,26.0391 Q355.625,26.2969 355.625,26.6406 Q355.625,26.9844 355.2813,27.3906 Q354.7813,27.9688 353.9844,28.2969 Q352.9063,28.75 351.6094,28.75 Q350.0938,28.75 348.8906,28.125 Q347.9063,27.625 347.2188,26.5547 Q346.5313,25.4844 346.5313,24.2031 L346.5313,23.0469 Q346.5313,21.7188 347.1484,20.5703 Q347.7656,19.4219 348.8594,18.8047 Q349.9531,18.1875 351.1875,18.1875 Q351.9219,18.1875 352.5703,18.3516 Q353.2188,18.5156 353.7656,18.875 Z " fill="#000000"/><text fill="#000000" font-family="sans-serif" font-size="14" lengthAdjust="spacing" textLength="118" x="365" y="28.7285">ListAllEmployeesUI</text><line style="stroke:#181818;stroke-width:0.5;" x1="337" x2="485" y1="39" y2="39"/><line style="stroke:#181818;stroke-width:0.5;" x1="337" x2="485" y1="47" y2="47"/></g><!--MD5=[7d449ab8b6a2896fd89be5b4e3c4caaf]
class ListAllEmployeesController--><g id="elem_ListAllEmployeesController"><rect codeLine="18" fill="#F1F1F1" height="48" id="ListAllEmployeesController" rx="2.5" ry="2.5" style="stroke:#181818;stroke-width:0.5;" width="200" x="311" y="115"/><ellipse cx="326" cy="131" fill="#ADD1B2" rx="11" ry="11" style="stroke:#181818;stroke-width:1.0;"/><path d="M328.7656,126.875 Q328.9219,126.6563 329.1094,126.5469 Q329.2969,126.4375 329.5156,126.4375 Q329.8906,126.4375 330.125,126.6953 Q330.3594,126.9531 330.3594,127.5625 L330.3594,129.0156 Q330.3594,129.625 330.125,129.8906 Q329.8906,130.1563 329.5156,130.1563 Q329.1719,130.1563 328.9688,129.9531 Q328.7656,129.7656 328.6563,129.25 Q328.6094,128.8906 328.4219,128.7031 Q328.0938,128.3281 327.4844,128.1094 Q326.875,127.8906 326.25,127.8906 Q325.4844,127.8906 324.8516,128.2188 Q324.2188,128.5469 323.7266,129.2969 Q323.2344,130.0469 323.2344,131.0781 L323.2344,132.1719 Q323.2344,133.4063 324.125,134.2266 Q325.0156,135.0469 326.6094,135.0469 Q327.5469,135.0469 328.2031,134.7969 Q328.5938,134.6406 329.0156,134.2031 Q329.2813,133.9375 329.4297,133.8594 Q329.5781,133.7813 329.7813,133.7813 Q330.1094,133.7813 330.3672,134.0391 Q330.625,134.2969 330.625,134.6406 Q330.625,134.9844 330.2813,135.3906 Q329.7813,135.9688 328.9844,136.2969 Q327.9063,136.75 326.6094,136.75 Q325.0938,136.75 323.8906,136.125 Q322.9063,135.625 322.2188,134.5547 Q321.5313,133.4844 321.5313,132.2031 L321.5313,131.0469 Q321.5313,129.7188 322.1484,128.5703 Q322.7656,127.4219 323.8594,126.8047 Q324.9531,126.1875 326.1875,126.1875 Q326.9219,126.1875 327.5703,126.3516 Q328.2188,126.5156 328.7656,126.875 Z " fill="#000000"/><text fill="#000000" font-family="sans-serif" font-size="14" lengthAdjust="spacing" textLength="168" x="340" y="136.7285">ListAllEmployeesController</text><line style="stroke:#181818;stroke-width:0.5;" x1="312" x2="510" y1="147" y2="147"/><line style="stroke:#181818;stroke-width:0.5;" x1="312" x2="510" y1="155" y2="155"/></g><!--MD5=[d7cd06450716df339ae06bc8cd34d632]
class BranchRepository--><g id="elem_BranchRepository"><rect codeLine="23" fill="#F1F1F1" height="100.8281" id="BranchRepository" rx="2.5" ry="2.5" style="stroke:#181818;stroke-width:0.5;" width="244" x="433" y="384"/><ellipse cx="494.25" cy="400" fill="#ADD1B2" rx="11" ry="11" style="stroke:#181818;stroke-width:1.0;"/><path d="M497.0156,395.875 Q497.1719,395.6563 497.3594,395.5469 Q497.5469,395.4375 497.7656,395.4375 Q498.1406,395.4375 498.375,395.6953 Q498.6094,395.9531 498.6094,396.5625 L498.6094,398.0156 Q498.6094,398.625 498.375,398.8906 Q498.1406,399.1563 497.7656,399.1563 Q497.4219,399.1563 497.2188,398.9531 Q497.0156,398.7656 496.9063,398.25 Q496.8594,397.8906 496.6719,397.7031 Q496.3438,397.3281 495.7344,397.1094 Q495.125,396.8906 494.5,396.8906 Q493.7344,396.8906 493.1016,397.2188 Q492.4688,397.5469 491.9766,398.2969 Q491.4844,399.0469 491.4844,400.0781 L491.4844,401.1719 Q491.4844,402.4063 492.375,403.2266 Q493.2656,404.0469 494.8594,404.0469 Q495.7969,404.0469 496.4531,403.7969 Q496.8438,403.6406 497.2656,403.2031 Q497.5313,402.9375 497.6797,402.8594 Q497.8281,402.7813 498.0313,402.7813 Q498.3594,402.7813 498.6172,403.0391 Q498.875,403.2969 498.875,403.6406 Q498.875,403.9844 498.5313,404.3906 Q498.0313,404.9688 497.2344,405.2969 Q496.1563,405.75 494.8594,405.75 Q493.3438,405.75 492.1406,405.125 Q491.1563,404.625 490.4688,403.5547 Q489.7813,402.4844 489.7813,401.2031 L489.7813,400.0469 Q489.7813,398.7188 490.3984,397.5703 Q491.0156,396.4219 492.1094,395.8047 Q493.2031,395.1875 494.4375,395.1875 Q495.1719,395.1875 495.8203,395.3516 Q496.4688,395.5156 497.0156,395.875 Z " fill="#000000"/><text fill="#000000" font-family="sans-serif" font-size="14" lengthAdjust="spacing" textLength="113" x="514.75" y="405.7285">BranchRepository</text><line style="stroke:#181818;stroke-width:0.5;" x1="434" x2="676" y1="416" y2="416"/><line style="stroke:#181818;stroke-width:0.5;" x1="434" x2="676" y1="424" y2="424"/><ellipse cx="444" cy="438.3047" fill="#84BE84" rx="3" ry="3" style="stroke:#038048;stroke-width:1.0;"/><text fill="#000000" font-family="sans-serif" font-size="14" lengthAdjust="spacing" textLength="105" x="453" y="442.5332">getAllBranches()</text><ellipse cx="444" cy="455.9141" fill="#84BE84" rx="3" ry="3" style="stroke:#038048;stroke-width:1.0;"/><text fill="#000000" font-family="sans-serif" font-size="14" lengthAdjust="spacing" textLength="218" x="453" y="460.1426">sortBranchesByListings(Branches)</text><ellipse cx="444" cy="473.5234" fill="#84BE84" rx="3" ry="3" style="stroke:#038048;stroke-width:1.0;"/><text fill="#000000" font-family="sans-serif" font-size="14" lengthAdjust="spacing" textLength="177" x="453" y="477.752">getListingTotalByBranch(ID)</text></g><!--MD5=[115c5bc9211d8cbe43c7d19dc50c6850]
class EmployeeRepository--><g id="elem_EmployeeRepository"><rect codeLine="31" fill="#F1F1F1" height="83.2188" id="EmployeeRepository" rx="2.5" ry="2.5" style="stroke:#181818;stroke-width:0.5;" width="261" x="136.5" y="393"/><ellipse cx="197.75" cy="409" fill="#ADD1B2" rx="11" ry="11" style="stroke:#181818;stroke-width:1.0;"/><path d="M200.5156,404.875 Q200.6719,404.6563 200.8594,404.5469 Q201.0469,404.4375 201.2656,404.4375 Q201.6406,404.4375 201.875,404.6953 Q202.1094,404.9531 202.1094,405.5625 L202.1094,407.0156 Q202.1094,407.625 201.875,407.8906 Q201.6406,408.1563 201.2656,408.1563 Q200.9219,408.1563 200.7188,407.9531 Q200.5156,407.7656 200.4063,407.25 Q200.3594,406.8906 200.1719,406.7031 Q199.8438,406.3281 199.2344,406.1094 Q198.625,405.8906 198,405.8906 Q197.2344,405.8906 196.6016,406.2188 Q195.9688,406.5469 195.4766,407.2969 Q194.9844,408.0469 194.9844,409.0781 L194.9844,410.1719 Q194.9844,411.4063 195.875,412.2266 Q196.7656,413.0469 198.3594,413.0469 Q199.2969,413.0469 199.9531,412.7969 Q200.3438,412.6406 200.7656,412.2031 Q201.0313,411.9375 201.1797,411.8594 Q201.3281,411.7813 201.5313,411.7813 Q201.8594,411.7813 202.1172,412.0391 Q202.375,412.2969 202.375,412.6406 Q202.375,412.9844 202.0313,413.3906 Q201.5313,413.9688 200.7344,414.2969 Q199.6563,414.75 198.3594,414.75 Q196.8438,414.75 195.6406,414.125 Q194.6563,413.625 193.9688,412.5547 Q193.2813,411.4844 193.2813,410.2031 L193.2813,409.0469 Q193.2813,407.7188 193.8984,406.5703 Q194.5156,405.4219 195.6094,404.8047 Q196.7031,404.1875 197.9375,404.1875 Q198.6719,404.1875 199.3203,404.3516 Q199.9688,404.5156 200.5156,404.875 Z " fill="#000000"/><text fill="#000000" font-family="sans-serif" font-size="14" lengthAdjust="spacing" textLength="130" x="218.25" y="414.7285">EmployeeRepository</text><line style="stroke:#181818;stroke-width:0.5;" x1="137.5" x2="396.5" y1="425" y2="425"/><line style="stroke:#181818;stroke-width:0.5;" x1="137.5" x2="396.5" y1="433" y2="433"/><ellipse cx="147.5" cy="447.3047" fill="#84BE84" rx="3" ry="3" style="stroke:#038048;stroke-width:1.0;"/><text fill="#000000" font-family="sans-serif" font-size="14" lengthAdjust="spacing" textLength="186" x="156.5" y="451.5332">getEmployeesByBranchID(ID)</text><ellipse cx="147.5" cy="464.9141" fill="#84BE84" rx="3" ry="3" style="stroke:#038048;stroke-width:1.0;"/><text fill="#000000" font-family="sans-serif" font-size="14" lengthAdjust="spacing" textLength="235" x="156.5" y="469.1426">sortEmployeesAlphabetically(Branch)</text></g><!--MD5=[35ae6afabc28cfceb76ccc01ee55d1fe]
class Repositories--><g id="elem_Repositories"><rect codeLine="39" fill="#F1F1F1" height="100.8281" id="Repositories" rx="2.5" ry="2.5" style="stroke:#181818;stroke-width:0.5;" width="186" x="318" y="223"/><ellipse cx="367.25" cy="239" fill="#ADD1B2" rx="11" ry="11" style="stroke:#181818;stroke-width:1.0;"/><path d="M370.0156,234.875 Q370.1719,234.6563 370.3594,234.5469 Q370.5469,234.4375 370.7656,234.4375 Q371.1406,234.4375 371.375,234.6953 Q371.6094,234.9531 371.6094,235.5625 L371.6094,237.0156 Q371.6094,237.625 371.375,237.8906 Q371.1406,238.1563 370.7656,238.1563 Q370.4219,238.1563 370.2188,237.9531 Q370.0156,237.7656 369.9063,237.25 Q369.8594,236.8906 369.6719,236.7031 Q369.3438,236.3281 368.7344,236.1094 Q368.125,235.8906 367.5,235.8906 Q366.7344,235.8906 366.1016,236.2188 Q365.4688,236.5469 364.9766,237.2969 Q364.4844,238.0469 364.4844,239.0781 L364.4844,240.1719 Q364.4844,241.4063 365.375,242.2266 Q366.2656,243.0469 367.8594,243.0469 Q368.7969,243.0469 369.4531,242.7969 Q369.8438,242.6406 370.2656,242.2031 Q370.5313,241.9375 370.6797,241.8594 Q370.8281,241.7813 371.0313,241.7813 Q371.3594,241.7813 371.6172,242.0391 Q371.875,242.2969 371.875,242.6406 Q371.875,242.9844 371.5313,243.3906 Q371.0313,243.9688 370.2344,244.2969 Q369.1563,244.75 367.8594,244.75 Q366.3438,244.75 365.1406,244.125 Q364.1563,243.625 363.4688,242.5547 Q362.7813,241.4844 362.7813,240.2031 L362.7813,239.0469 Q362.7813,237.7188 363.3984,236.5703 Q364.0156,235.4219 365.1094,234.8047 Q366.2031,234.1875 367.4375,234.1875 Q368.1719,234.1875 368.8203,234.3516 Q369.4688,234.5156 370.0156,234.875 Z " fill="#000000"/><text fill="#000000" font-family="sans-serif" font-size="14" lengthAdjust="spacing" textLength="79" x="387.75" y="244.7285">Repositories</text><line style="stroke:#181818;stroke-width:0.5;" x1="319" x2="503" y1="255" y2="255"/><line style="stroke:#181818;stroke-width:0.5;" x1="319" x2="503" y1="263" y2="263"/><ellipse cx="329" cy="277.3047" fill="#84BE84" rx="3" ry="3" style="stroke:#038048;stroke-width:1.0;"/><text fill="#000000" font-family="sans-serif" font-size="14" lengthAdjust="spacing" textLength="83" x="338" y="281.5332">getInstance()</text><ellipse cx="329" cy="294.9141" fill="#84BE84" rx="3" ry="3" style="stroke:#038048;stroke-width:1.0;"/><text fill="#000000" font-family="sans-serif" font-size="14" lengthAdjust="spacing" textLength="160" x="338" y="299.1426">getEmployeeRepository()</text><ellipse cx="329" cy="312.5234" fill="#84BE84" rx="3" ry="3" style="stroke:#038048;stroke-width:1.0;"/><text fill="#000000" font-family="sans-serif" font-size="14" lengthAdjust="spacing" textLength="143" x="338" y="316.752">getBranchRepository()</text></g><!--MD5=[7588bbb3cde5cc7621dae79bc0457063]
link ListAllEmployeesUI to ListAllEmployeesController--><g id="link_ListAllEmployeesUI_ListAllEmployeesController"><path codeLine="48" d="M411,55 C411,71 411,92.45 411,109.53 " fill="none" id="ListAllEmployeesUI-to-ListAllEmployeesController" style="stroke:#181818;stroke-width:1.0;stroke-dasharray:7.0,7.0;"/><polygon fill="#181818" points="411,114.68,415,105.68,411,109.68,407,105.68,411,114.68" style="stroke:#181818;stroke-width:1.0;"/></g><!--MD5=[4c99a07cf4893793aa828e52ba8793db]
link ListAllEmployeesController to Repositories--><g id="link_ListAllEmployeesController_Repositories"><path codeLine="49" d="M411,163.08 C411,178.13 411,198.43 411,217.47 " fill="none" id="ListAllEmployeesController-to-Repositories" style="stroke:#181818;stroke-width:1.0;stroke-dasharray:7.0,7.0;"/><polygon fill="#181818" points="411,222.8,415,213.8,411,217.8,407,213.8,411,222.8" style="stroke:#181818;stroke-width:1.0;"/></g><!--MD5=[fff48e9c385a875a0ec7f6b68c295159]
link Repositories to Repositories--><g id="link_Repositories_Repositories"><path codeLine="50" d="M504.2,249.12 C524.37,251.5 539,259.63 539,273.5 C539,286.18 526.78,294.06 509.27,297.14 " fill="none" id="Repositories-to-Repositories" style="stroke:#181818;stroke-width:1.0;"/><polygon fill="#181818" points="504.2,297.88,513.6871,300.5248,509.1466,297.1509,512.5205,292.6103,504.2,297.88" style="stroke:#181818;stroke-width:1.0;"/></g><!--MD5=[8d24fe9c69bd7963426d4c642c9bd288]
link Repositories to EmployeeRepository--><g id="link_Repositories_EmployeeRepository"><path codeLine="51" d="M365.83,324.37 C347.12,345.03 325.58,368.81 307.4,388.89 " fill="none" id="Repositories-to-EmployeeRepository" style="stroke:#181818;stroke-width:1.0;"/><polygon fill="#181818" points="303.81,392.85,312.8124,388.8553,307.1627,389.1406,306.8774,383.491,303.81,392.85" style="stroke:#181818;stroke-width:1.0;"/></g><!--MD5=[a7eb298d0081e33b48b65eae60dc9493]
link Repositories to BranchRepository--><g id="link_Repositories_BranchRepository"><path codeLine="52" d="M456.17,324.37 C472.12,341.98 490.12,361.86 506.34,379.77 " fill="none" id="Repositories-to-BranchRepository" style="stroke:#181818;stroke-width:1.0;"/><polygon fill="#181818" points="509.99,383.8,506.9047,374.4469,506.6302,380.0971,500.98,379.8226,509.99,383.8" style="stroke:#181818;stroke-width:1.0;"/></g><!--MD5=[bc92ccce8c1d2c5e0e1f8cf3e600db2f]
reverse link BranchRepository to Branch--><g id="link_BranchRepository_Branch"><path codeLine="57" d="M682.34,434.5 C692.34,434.5 702.33,434.5 712.33,434.5 " fill="none" id="BranchRepository-backto-Branch" style="stroke:#181818;stroke-width:1.0;"/><polygon fill="#181818" points="677.12,434.5,686.12,438.5,682.12,434.5,686.12,430.5,677.12,434.5" style="stroke:#181818;stroke-width:1.0;"/></g><!--MD5=[ce3cc05ba822a419877771f88c40cfe3]
link Employee to EmployeeRepository--><g id="link_Employee_EmployeeRepository"><path codeLine="58" d="M101.01,434.5 C111.04,434.5 121.07,434.5 131.1,434.5 " fill="none" id="Employee-to-EmployeeRepository" style="stroke:#181818;stroke-width:1.0;"/><polygon fill="#181818" points="136.35,434.5,127.35,430.5,131.35,434.5,127.35,438.5,136.35,434.5" style="stroke:#181818;stroke-width:1.0;"/></g><!--MD5=[7b836ffea55c3df74f1243f88077f3be]
@startuml

class Branch {

   
}

class Employee {


}

class ListAllEmployeesUI {

    

}

class ListAllEmployeesController {

  
}

class BranchRepository {

    +getAllBranches()
    +sortBranchesByListings(Branches)
    +getListingTotalByBranch(ID)
    
}

class EmployeeRepository {

    +getEmployeesByBranchID(ID)
    +sortEmployeesAlphabetically(Branch)

}


class Repositories {

    +getInstance()
    +getEmployeeRepository()
    +getBranchRepository()

}


ListAllEmployeesUI -[dashed]-> ListAllEmployeesController
ListAllEmployeesController-[dashed]-> Repositories
Repositories - -> Repositories
Repositories - -> EmployeeRepository
Repositories - -> BranchRepository




Branch -left-> BranchRepository
Employee -right-> EmployeeRepository


@enduml

PlantUML version 1.2022.7(Mon Aug 22 18:01:30 BST 2022)
(GPL source distribution)
Java Runtime: Java(TM) SE Runtime Environment
JVM: Java HotSpot(TM) 64-Bit Server VM
Default Encoding: Cp1252
Language: pt
Country: PT
--></g></svg>