<?xml version="1.0" encoding="UTF-8" standalone="no"?><svg xmlns="http://www.w3.org/2000/svg" xmlns:xlink="http://www.w3.org/1999/xlink" contentStyleType="text/css" height="568px" preserveAspectRatio="none" style="width:779px;height:568px;background:#FFFFFF;" version="1.1" viewBox="0 0 779 568" width="779px" zoomAndPan="magnify"><defs/><g><!--MD5=[e049a9fc6087ec9a0b5519edf8a49765]
class Visit--><g id="elem_Visit"><rect codeLine="2" fill="#F1F1F1" height="48" id="Visit" rx="2.5" ry="2.5" style="stroke:#181818;stroke-width:0.5;" width="58" x="82" y="513"/><ellipse cx="97" cy="529" fill="#ADD1B2" rx="11" ry="11" style="stroke:#181818;stroke-width:1.0;"/><path d="M99.7656,524.875 Q99.9219,524.6563 100.1094,524.5469 Q100.2969,524.4375 100.5156,524.4375 Q100.8906,524.4375 101.125,524.6953 Q101.3594,524.9531 101.3594,525.5625 L101.3594,527.0156 Q101.3594,527.625 101.125,527.8906 Q100.8906,528.1563 100.5156,528.1563 Q100.1719,528.1563 99.9688,527.9531 Q99.7656,527.7656 99.6563,527.25 Q99.6094,526.8906 99.4219,526.7031 Q99.0938,526.3281 98.4844,526.1094 Q97.875,525.8906 97.25,525.8906 Q96.4844,525.8906 95.8516,526.2188 Q95.2188,526.5469 94.7266,527.2969 Q94.2344,528.0469 94.2344,529.0781 L94.2344,530.1719 Q94.2344,531.4063 95.125,532.2266 Q96.0156,533.0469 97.6094,533.0469 Q98.5469,533.0469 99.2031,532.7969 Q99.5938,532.6406 100.0156,532.2031 Q100.2813,531.9375 100.4297,531.8594 Q100.5781,531.7813 100.7813,531.7813 Q101.1094,531.7813 101.3672,532.0391 Q101.625,532.2969 101.625,532.6406 Q101.625,532.9844 101.2813,533.3906 Q100.7813,533.9688 99.9844,534.2969 Q98.9063,534.75 97.6094,534.75 Q96.0938,534.75 94.8906,534.125 Q93.9063,533.625 93.2188,532.5547 Q92.5313,531.4844 92.5313,530.2031 L92.5313,529.0469 Q92.5313,527.7188 93.1484,526.5703 Q93.7656,525.4219 94.8594,524.8047 Q95.9531,524.1875 97.1875,524.1875 Q97.9219,524.1875 98.5703,524.3516 Q99.2188,524.5156 99.7656,524.875 Z " fill="#000000"/><text fill="#000000" font-family="sans-serif" font-size="14" lengthAdjust="spacing" textLength="26" x="111" y="534.7285">Visit</text><line style="stroke:#181818;stroke-width:0.5;" x1="83" x2="139" y1="545" y2="545"/><line style="stroke:#181818;stroke-width:0.5;" x1="83" x2="139" y1="553" y2="553"/></g><!--MD5=[50372f39bcdd64108213f4bec0f99d98]
class VisitMapper--><g id="elem_VisitMapper"><rect codeLine="6" fill="#F1F1F1" height="83.2188" id="VisitMapper" rx="2.5" ry="2.5" style="stroke:#181818;stroke-width:0.5;" width="168" x="7" y="225"/><ellipse cx="49.9" cy="241" fill="#ADD1B2" rx="11" ry="11" style="stroke:#181818;stroke-width:1.0;"/><path d="M52.6656,236.875 Q52.8219,236.6563 53.0094,236.5469 Q53.1969,236.4375 53.4156,236.4375 Q53.7906,236.4375 54.025,236.6953 Q54.2594,236.9531 54.2594,237.5625 L54.2594,239.0156 Q54.2594,239.625 54.025,239.8906 Q53.7906,240.1563 53.4156,240.1563 Q53.0719,240.1563 52.8688,239.9531 Q52.6656,239.7656 52.5563,239.25 Q52.5094,238.8906 52.3219,238.7031 Q51.9938,238.3281 51.3844,238.1094 Q50.775,237.8906 50.15,237.8906 Q49.3844,237.8906 48.7516,238.2188 Q48.1188,238.5469 47.6266,239.2969 Q47.1344,240.0469 47.1344,241.0781 L47.1344,242.1719 Q47.1344,243.4063 48.025,244.2266 Q48.9156,245.0469 50.5094,245.0469 Q51.4469,245.0469 52.1031,244.7969 Q52.4938,244.6406 52.9156,244.2031 Q53.1813,243.9375 53.3297,243.8594 Q53.4781,243.7813 53.6813,243.7813 Q54.0094,243.7813 54.2672,244.0391 Q54.525,244.2969 54.525,244.6406 Q54.525,244.9844 54.1813,245.3906 Q53.6813,245.9688 52.8844,246.2969 Q51.8063,246.75 50.5094,246.75 Q48.9938,246.75 47.7906,246.125 Q46.8063,245.625 46.1188,244.5547 Q45.4313,243.4844 45.4313,242.2031 L45.4313,241.0469 Q45.4313,239.7188 46.0484,238.5703 Q46.6656,237.4219 47.7594,236.8047 Q48.8531,236.1875 50.0875,236.1875 Q50.8219,236.1875 51.4703,236.3516 Q52.1188,236.5156 52.6656,236.875 Z " fill="#000000"/><text fill="#000000" font-family="sans-serif" font-size="14" lengthAdjust="spacing" textLength="74" x="70.1" y="246.7285">VisitMapper</text><line style="stroke:#181818;stroke-width:0.5;" x1="8" x2="174" y1="257" y2="257"/><line style="stroke:#181818;stroke-width:0.5;" x1="8" x2="174" y1="265" y2="265"/><ellipse cx="18" cy="279.3047" fill="#84BE84" rx="3" ry="3" style="stroke:#038048;stroke-width:1.0;"/><text fill="#000000" font-family="sans-serif" font-size="14" lengthAdjust="spacing" textLength="142" x="27" y="283.5332">toDTOlist(sortedVisits)</text><ellipse cx="18" cy="296.9141" fill="#84BE84" rx="3" ry="3" style="stroke:#038048;stroke-width:1.0;"/><text fill="#000000" font-family="sans-serif" font-size="14" lengthAdjust="spacing" textLength="76" x="27" y="301.1426">toDTO(visit)</text></g><!--MD5=[417b69165ddd9152f9e9e5024b88481a]
class VisitDTO--><g id="elem_VisitDTO"><rect codeLine="13" fill="#F1F1F1" height="48" id="VisitDTO" rx="2.5" ry="2.5" style="stroke:#181818;stroke-width:0.5;" width="88" x="144" y="386.5"/><ellipse cx="159" cy="402.5" fill="#ADD1B2" rx="11" ry="11" style="stroke:#181818;stroke-width:1.0;"/><path d="M161.7656,398.375 Q161.9219,398.1563 162.1094,398.0469 Q162.2969,397.9375 162.5156,397.9375 Q162.8906,397.9375 163.125,398.1953 Q163.3594,398.4531 163.3594,399.0625 L163.3594,400.5156 Q163.3594,401.125 163.125,401.3906 Q162.8906,401.6563 162.5156,401.6563 Q162.1719,401.6563 161.9688,401.4531 Q161.7656,401.2656 161.6563,400.75 Q161.6094,400.3906 161.4219,400.2031 Q161.0938,399.8281 160.4844,399.6094 Q159.875,399.3906 159.25,399.3906 Q158.4844,399.3906 157.8516,399.7188 Q157.2188,400.0469 156.7266,400.7969 Q156.2344,401.5469 156.2344,402.5781 L156.2344,403.6719 Q156.2344,404.9063 157.125,405.7266 Q158.0156,406.5469 159.6094,406.5469 Q160.5469,406.5469 161.2031,406.2969 Q161.5938,406.1406 162.0156,405.7031 Q162.2813,405.4375 162.4297,405.3594 Q162.5781,405.2813 162.7813,405.2813 Q163.1094,405.2813 163.3672,405.5391 Q163.625,405.7969 163.625,406.1406 Q163.625,406.4844 163.2813,406.8906 Q162.7813,407.4688 161.9844,407.7969 Q160.9063,408.25 159.6094,408.25 Q158.0938,408.25 156.8906,407.625 Q155.9063,407.125 155.2188,406.0547 Q154.5313,404.9844 154.5313,403.7031 L154.5313,402.5469 Q154.5313,401.2188 155.1484,400.0703 Q155.7656,398.9219 156.8594,398.3047 Q157.9531,397.6875 159.1875,397.6875 Q159.9219,397.6875 160.5703,397.8516 Q161.2188,398.0156 161.7656,398.375 Z " fill="#000000"/><text fill="#000000" font-family="sans-serif" font-size="14" lengthAdjust="spacing" textLength="56" x="173" y="408.2285">VisitDTO</text><line style="stroke:#181818;stroke-width:0.5;" x1="145" x2="231" y1="418.5" y2="418.5"/><line style="stroke:#181818;stroke-width:0.5;" x1="145" x2="231" y1="426.5" y2="426.5"/></g><!--MD5=[4608b84f4b6cec0dbf3ed9a9009c35b2]
class Util--><g id="elem_Util"><rect codeLine="17" fill="#F1F1F1" height="65.6094" id="Util" rx="2.5" ry="2.5" style="stroke:#181818;stroke-width:0.5;" width="209" x="210.5" y="233.5"/><ellipse cx="301.25" cy="249.5" fill="#ADD1B2" rx="11" ry="11" style="stroke:#181818;stroke-width:1.0;"/><path d="M304.0156,245.375 Q304.1719,245.1563 304.3594,245.0469 Q304.5469,244.9375 304.7656,244.9375 Q305.1406,244.9375 305.375,245.1953 Q305.6094,245.4531 305.6094,246.0625 L305.6094,247.5156 Q305.6094,248.125 305.375,248.3906 Q305.1406,248.6563 304.7656,248.6563 Q304.4219,248.6563 304.2188,248.4531 Q304.0156,248.2656 303.9063,247.75 Q303.8594,247.3906 303.6719,247.2031 Q303.3438,246.8281 302.7344,246.6094 Q302.125,246.3906 301.5,246.3906 Q300.7344,246.3906 300.1016,246.7188 Q299.4688,247.0469 298.9766,247.7969 Q298.4844,248.5469 298.4844,249.5781 L298.4844,250.6719 Q298.4844,251.9063 299.375,252.7266 Q300.2656,253.5469 301.8594,253.5469 Q302.7969,253.5469 303.4531,253.2969 Q303.8438,253.1406 304.2656,252.7031 Q304.5313,252.4375 304.6797,252.3594 Q304.8281,252.2813 305.0313,252.2813 Q305.3594,252.2813 305.6172,252.5391 Q305.875,252.7969 305.875,253.1406 Q305.875,253.4844 305.5313,253.8906 Q305.0313,254.4688 304.2344,254.7969 Q303.1563,255.25 301.8594,255.25 Q300.3438,255.25 299.1406,254.625 Q298.1563,254.125 297.4688,253.0547 Q296.7813,251.9844 296.7813,250.7031 L296.7813,249.5469 Q296.7813,248.2188 297.3984,247.0703 Q298.0156,245.9219 299.1094,245.3047 Q300.2031,244.6875 301.4375,244.6875 Q302.1719,244.6875 302.8203,244.8516 Q303.4688,245.0156 304.0156,245.375 Z " fill="#000000"/><text fill="#000000" font-family="sans-serif" font-size="14" lengthAdjust="spacing" textLength="19" x="321.75" y="255.2285">Util</text><line style="stroke:#181818;stroke-width:0.5;" x1="211.5" x2="418.5" y1="265.5" y2="265.5"/><line style="stroke:#181818;stroke-width:0.5;" x1="211.5" x2="418.5" y1="273.5" y2="273.5"/><ellipse cx="221.5" cy="287.8047" fill="#84BE84" rx="3" ry="3" style="stroke:#038048;stroke-width:1.0;"/><text fill="#000000" font-family="sans-serif" font-size="14" lengthAdjust="spacing" textLength="183" x="230.5" y="292.0332">getChosenSortingAlgorithm()</text></g><!--MD5=[a2c95f9a36526d18da216a36299e299a]
class ListAllBookingsRequestsToAgentUI--><g id="elem_ListAllBookingsRequestsToAgentUI"><rect codeLine="25" fill="#F1F1F1" height="48" id="ListAllBookingsRequestsToAgentUI" rx="2.5" ry="2.5" style="stroke:#181818;stroke-width:0.5;" width="253" x="267.5" y="7"/><ellipse cx="282.5" cy="23" fill="#ADD1B2" rx="11" ry="11" style="stroke:#181818;stroke-width:1.0;"/><path d="M285.2656,18.875 Q285.4219,18.6563 285.6094,18.5469 Q285.7969,18.4375 286.0156,18.4375 Q286.3906,18.4375 286.625,18.6953 Q286.8594,18.9531 286.8594,19.5625 L286.8594,21.0156 Q286.8594,21.625 286.625,21.8906 Q286.3906,22.1563 286.0156,22.1563 Q285.6719,22.1563 285.4688,21.9531 Q285.2656,21.7656 285.1563,21.25 Q285.1094,20.8906 284.9219,20.7031 Q284.5938,20.3281 283.9844,20.1094 Q283.375,19.8906 282.75,19.8906 Q281.9844,19.8906 281.3516,20.2188 Q280.7188,20.5469 280.2266,21.2969 Q279.7344,22.0469 279.7344,23.0781 L279.7344,24.1719 Q279.7344,25.4063 280.625,26.2266 Q281.5156,27.0469 283.1094,27.0469 Q284.0469,27.0469 284.7031,26.7969 Q285.0938,26.6406 285.5156,26.2031 Q285.7813,25.9375 285.9297,25.8594 Q286.0781,25.7813 286.2813,25.7813 Q286.6094,25.7813 286.8672,26.0391 Q287.125,26.2969 287.125,26.6406 Q287.125,26.9844 286.7813,27.3906 Q286.2813,27.9688 285.4844,28.2969 Q284.4063,28.75 283.1094,28.75 Q281.5938,28.75 280.3906,28.125 Q279.4063,27.625 278.7188,26.5547 Q278.0313,25.4844 278.0313,24.2031 L278.0313,23.0469 Q278.0313,21.7188 278.6484,20.5703 Q279.2656,19.4219 280.3594,18.8047 Q281.4531,18.1875 282.6875,18.1875 Q283.4219,18.1875 284.0703,18.3516 Q284.7188,18.5156 285.2656,18.875 Z " fill="#000000"/><text fill="#000000" font-family="sans-serif" font-size="14" lengthAdjust="spacing" textLength="221" x="296.5" y="28.7285">ListAllBookingsRequestsToAgentUI</text><line style="stroke:#181818;stroke-width:0.5;" x1="268.5" x2="519.5" y1="39" y2="39"/><line style="stroke:#181818;stroke-width:0.5;" x1="268.5" x2="519.5" y1="47" y2="47"/></g><!--MD5=[ab5ce4986c870ac8a6fd46468836203d]
class ListAllBookingsRequestsToAgentController--><g id="elem_ListAllBookingsRequestsToAgentController"><rect codeLine="31" fill="#F1F1F1" height="48" id="ListAllBookingsRequestsToAgentController" rx="2.5" ry="2.5" style="stroke:#181818;stroke-width:0.5;" width="303" x="242.5" y="116"/><ellipse cx="257.5" cy="132" fill="#ADD1B2" rx="11" ry="11" style="stroke:#181818;stroke-width:1.0;"/><path d="M260.2656,127.875 Q260.4219,127.6563 260.6094,127.5469 Q260.7969,127.4375 261.0156,127.4375 Q261.3906,127.4375 261.625,127.6953 Q261.8594,127.9531 261.8594,128.5625 L261.8594,130.0156 Q261.8594,130.625 261.625,130.8906 Q261.3906,131.1563 261.0156,131.1563 Q260.6719,131.1563 260.4688,130.9531 Q260.2656,130.7656 260.1563,130.25 Q260.1094,129.8906 259.9219,129.7031 Q259.5938,129.3281 258.9844,129.1094 Q258.375,128.8906 257.75,128.8906 Q256.9844,128.8906 256.3516,129.2188 Q255.7188,129.5469 255.2266,130.2969 Q254.7344,131.0469 254.7344,132.0781 L254.7344,133.1719 Q254.7344,134.4063 255.625,135.2266 Q256.5156,136.0469 258.1094,136.0469 Q259.0469,136.0469 259.7031,135.7969 Q260.0938,135.6406 260.5156,135.2031 Q260.7813,134.9375 260.9297,134.8594 Q261.0781,134.7813 261.2813,134.7813 Q261.6094,134.7813 261.8672,135.0391 Q262.125,135.2969 262.125,135.6406 Q262.125,135.9844 261.7813,136.3906 Q261.2813,136.9688 260.4844,137.2969 Q259.4063,137.75 258.1094,137.75 Q256.5938,137.75 255.3906,137.125 Q254.4063,136.625 253.7188,135.5547 Q253.0313,134.4844 253.0313,133.2031 L253.0313,132.0469 Q253.0313,130.7188 253.6484,129.5703 Q254.2656,128.4219 255.3594,127.8047 Q256.4531,127.1875 257.6875,127.1875 Q258.4219,127.1875 259.0703,127.3516 Q259.7188,127.5156 260.2656,127.875 Z " fill="#000000"/><text fill="#000000" font-family="sans-serif" font-size="14" lengthAdjust="spacing" textLength="271" x="271.5" y="137.7285">ListAllBookingsRequestsToAgentController</text><line style="stroke:#181818;stroke-width:0.5;" x1="243.5" x2="544.5" y1="148" y2="148"/><line style="stroke:#181818;stroke-width:0.5;" x1="243.5" x2="544.5" y1="156" y2="156"/></g><!--MD5=[e53a56dcbe59508aee6112e5df13d1ca]
class VisitRepository--><g id="elem_VisitRepository"><rect codeLine="36" fill="#F1F1F1" height="83.2188" id="VisitRepository" rx="2.5" ry="2.5" style="stroke:#181818;stroke-width:0.5;" width="351" x="297.5" y="369"/><ellipse cx="421.75" cy="385" fill="#ADD1B2" rx="11" ry="11" style="stroke:#181818;stroke-width:1.0;"/><path d="M424.5156,380.875 Q424.6719,380.6563 424.8594,380.5469 Q425.0469,380.4375 425.2656,380.4375 Q425.6406,380.4375 425.875,380.6953 Q426.1094,380.9531 426.1094,381.5625 L426.1094,383.0156 Q426.1094,383.625 425.875,383.8906 Q425.6406,384.1563 425.2656,384.1563 Q424.9219,384.1563 424.7188,383.9531 Q424.5156,383.7656 424.4063,383.25 Q424.3594,382.8906 424.1719,382.7031 Q423.8438,382.3281 423.2344,382.1094 Q422.625,381.8906 422,381.8906 Q421.2344,381.8906 420.6016,382.2188 Q419.9688,382.5469 419.4766,383.2969 Q418.9844,384.0469 418.9844,385.0781 L418.9844,386.1719 Q418.9844,387.4063 419.875,388.2266 Q420.7656,389.0469 422.3594,389.0469 Q423.2969,389.0469 423.9531,388.7969 Q424.3438,388.6406 424.7656,388.2031 Q425.0313,387.9375 425.1797,387.8594 Q425.3281,387.7813 425.5313,387.7813 Q425.8594,387.7813 426.1172,388.0391 Q426.375,388.2969 426.375,388.6406 Q426.375,388.9844 426.0313,389.3906 Q425.5313,389.9688 424.7344,390.2969 Q423.6563,390.75 422.3594,390.75 Q420.8438,390.75 419.6406,390.125 Q418.6563,389.625 417.9688,388.5547 Q417.2813,387.4844 417.2813,386.2031 L417.2813,385.0469 Q417.2813,383.7188 417.8984,382.5703 Q418.5156,381.4219 419.6094,380.8047 Q420.7031,380.1875 421.9375,380.1875 Q422.6719,380.1875 423.3203,380.3516 Q423.9688,380.5156 424.5156,380.875 Z " fill="#000000"/><text fill="#000000" font-family="sans-serif" font-size="14" lengthAdjust="spacing" textLength="94" x="442.25" y="390.7285">VisitRepository</text><line style="stroke:#181818;stroke-width:0.5;" x1="298.5" x2="647.5" y1="401" y2="401"/><line style="stroke:#181818;stroke-width:0.5;" x1="298.5" x2="647.5" y1="409" y2="409"/><ellipse cx="308.5" cy="423.3047" fill="#84BE84" rx="3" ry="3" style="stroke:#038048;stroke-width:1.0;"/><text fill="#000000" font-family="sans-serif" font-size="14" lengthAdjust="spacing" textLength="325" x="317.5" y="427.5332">getAllVisitsByAgentAndDateRange(Agent,start,end)</text><ellipse cx="308.5" cy="440.9141" fill="#84BE84" rx="3" ry="3" style="stroke:#038048;stroke-width:1.0;"/><text fill="#000000" font-family="sans-serif" font-size="14" lengthAdjust="spacing" textLength="164" x="317.5" y="445.1426">sortVisitsAscending(visits)</text></g><!--MD5=[35ae6afabc28cfceb76ccc01ee55d1fe]
class Repositories--><g id="elem_Repositories"><rect codeLine="46" fill="#F1F1F1" height="83.2188" id="Repositories" rx="2.5" ry="2.5" style="stroke:#181818;stroke-width:0.5;" width="150" x="526" y="225"/><ellipse cx="558.55" cy="241" fill="#ADD1B2" rx="11" ry="11" style="stroke:#181818;stroke-width:1.0;"/><path d="M561.3156,236.875 Q561.4719,236.6563 561.6594,236.5469 Q561.8469,236.4375 562.0656,236.4375 Q562.4406,236.4375 562.675,236.6953 Q562.9094,236.9531 562.9094,237.5625 L562.9094,239.0156 Q562.9094,239.625 562.675,239.8906 Q562.4406,240.1563 562.0656,240.1563 Q561.7219,240.1563 561.5188,239.9531 Q561.3156,239.7656 561.2063,239.25 Q561.1594,238.8906 560.9719,238.7031 Q560.6438,238.3281 560.0344,238.1094 Q559.425,237.8906 558.8,237.8906 Q558.0344,237.8906 557.4016,238.2188 Q556.7688,238.5469 556.2766,239.2969 Q555.7844,240.0469 555.7844,241.0781 L555.7844,242.1719 Q555.7844,243.4063 556.675,244.2266 Q557.5656,245.0469 559.1594,245.0469 Q560.0969,245.0469 560.7531,244.7969 Q561.1438,244.6406 561.5656,244.2031 Q561.8313,243.9375 561.9797,243.8594 Q562.1281,243.7813 562.3313,243.7813 Q562.6594,243.7813 562.9172,244.0391 Q563.175,244.2969 563.175,244.6406 Q563.175,244.9844 562.8313,245.3906 Q562.3313,245.9688 561.5344,246.2969 Q560.4563,246.75 559.1594,246.75 Q557.6438,246.75 556.4406,246.125 Q555.4563,245.625 554.7688,244.5547 Q554.0813,243.4844 554.0813,242.2031 L554.0813,241.0469 Q554.0813,239.7188 554.6984,238.5703 Q555.3156,237.4219 556.4094,236.8047 Q557.5031,236.1875 558.7375,236.1875 Q559.4719,236.1875 560.1203,236.3516 Q560.7688,236.5156 561.3156,236.875 Z " fill="#000000"/><text fill="#000000" font-family="sans-serif" font-size="14" lengthAdjust="spacing" textLength="79" x="576.45" y="246.7285">Repositories</text><line style="stroke:#181818;stroke-width:0.5;" x1="527" x2="675" y1="257" y2="257"/><line style="stroke:#181818;stroke-width:0.5;" x1="527" x2="675" y1="265" y2="265"/><ellipse cx="537" cy="279.3047" fill="#84BE84" rx="3" ry="3" style="stroke:#038048;stroke-width:1.0;"/><text fill="#000000" font-family="sans-serif" font-size="14" lengthAdjust="spacing" textLength="83" x="546" y="283.5332">getInstance()</text><ellipse cx="537" cy="296.9141" fill="#84BE84" rx="3" ry="3" style="stroke:#038048;stroke-width:1.0;"/><text fill="#000000" font-family="sans-serif" font-size="14" lengthAdjust="spacing" textLength="124" x="546" y="301.1426">getVisitRepository()</text></g><!--MD5=[641f4aa84dcdfd0e6df389f969742644]
link ListAllBookingsRequestsToAgentUI to ListAllBookingsRequestsToAgentController--><g id="link_ListAllBookingsRequestsToAgentUI_ListAllBookingsRequestsToAgentController"><path codeLine="54" d="M394,55.22 C394,71.48 394,93.32 394,110.62 " fill="none" id="ListAllBookingsRequestsToAgentUI-to-ListAllBookingsRequestsToAgentController" style="stroke:#181818;stroke-width:1.0;stroke-dasharray:7.0,7.0;"/><polygon fill="#181818" points="394,115.83,398,106.83,394,110.83,390,106.83,394,115.83" style="stroke:#181818;stroke-width:1.0;"/></g><!--MD5=[3866b4c0f7afc2a1e1d6fefb2b9c0670]
link ListAllBookingsRequestsToAgentController to Repositories--><g id="link_ListAllBookingsRequestsToAgentController_Repositories"><path codeLine="55" d="M443.4,164.11 C461.23,172.92 481.3,183.41 499,194 C513.21,202.51 528.04,212.32 541.86,221.9 " fill="none" id="ListAllBookingsRequestsToAgentController-to-Repositories" style="stroke:#181818;stroke-width:1.0;stroke-dasharray:7.0,7.0;"/><polygon fill="#181818" points="546.11,224.86,541.013,216.4326,542.0078,222.0013,536.4391,222.9961,546.11,224.86" style="stroke:#181818;stroke-width:1.0;"/></g><!--MD5=[2c26190e4cad77c65b7b6c497232d7e8]
link ListAllBookingsRequestsToAgentController to VisitRepository--><g id="link_ListAllBookingsRequestsToAgentController_VisitRepository"><path codeLine="56" d="M408.07,164.11 C417.52,180.56 429.56,203.48 437,225 C452.87,270.9 462.46,325.78 467.7,363.7 " fill="none" id="ListAllBookingsRequestsToAgentController-to-VisitRepository" style="stroke:#181818;stroke-width:1.0;stroke-dasharray:7.0,7.0;"/><polygon fill="#181818" points="468.38,368.7,471.1358,359.2446,467.7089,363.7452,463.2082,360.3183,468.38,368.7" style="stroke:#181818;stroke-width:1.0;"/></g><!--MD5=[049e9ae771d9ced41b79ebe2d53c8446]
link ListAllBookingsRequestsToAgentController to VisitMapper--><g id="link_ListAllBookingsRequestsToAgentController_VisitMapper"><path codeLine="57" d="M337.72,164.13 C293.45,182.31 230.94,208 179.92,228.96 " fill="none" id="ListAllBookingsRequestsToAgentController-to-VisitMapper" style="stroke:#181818;stroke-width:1.0;stroke-dasharray:7.0,7.0;"/><polygon fill="#181818" points="175.02,230.98,184.8651,231.252,179.6434,229.0763,181.8191,223.8545,175.02,230.98" style="stroke:#181818;stroke-width:1.0;"/></g><!--MD5=[5ee10169d5b8ba06ba2e6fa7959087c5]
link ListAllBookingsRequestsToAgentController to Util--><g id="link_ListAllBookingsRequestsToAgentController_Util"><path codeLine="58" d="M379.33,164.13 C367.83,182.25 351.61,207.8 338.34,228.72 " fill="none" id="ListAllBookingsRequestsToAgentController-to-Util" style="stroke:#181818;stroke-width:1.0;stroke-dasharray:7.0,7.0;"/><polygon fill="#181818" points="335.55,233.11,343.7518,227.6574,338.2307,228.8893,336.9987,223.3683,335.55,233.11" style="stroke:#181818;stroke-width:1.0;"/></g><!--MD5=[04a762631d0cd69de730e3b1a54b37a1]
link VisitMapper to VisitDTO--><g id="link_VisitMapper_VisitDTO"><path codeLine="59" d="M118.8,308.19 C135,331.91 155,361.18 169.32,382.16 " fill="none" id="VisitMapper-to-VisitDTO" style="stroke:#181818;stroke-width:1.0;stroke-dasharray:7.0,7.0;"/><polygon fill="#181818" points="172.29,386.5,170.5031,376.8146,169.464,382.3752,163.9034,381.3362,172.29,386.5" style="stroke:#181818;stroke-width:1.0;"/></g><!--MD5=[267684ca78b2dbc95ef9b295c0f5dba1]
link VisitMapper to Visit--><g id="link_VisitMapper_Visit"><path codeLine="60" d="M94.04,308.28 C98.14,363.34 105.34,460.05 108.9,507.75 " fill="none" id="VisitMapper-to-Visit" style="stroke:#181818;stroke-width:1.0;stroke-dasharray:7.0,7.0;"/><polygon fill="#181818" points="109.27,512.77,112.5903,503.4977,108.8985,507.7838,104.6124,504.092,109.27,512.77" style="stroke:#181818;stroke-width:1.0;"/></g><!--MD5=[5688b26c2fc3011a374eaf6debd74c17]
link VisitRepository to Visit--><g id="link_VisitRepository_Visit"><path codeLine="63" d="M355.22,452.01 C281.79,477.26 192.49,507.98 144.83,524.37 " fill="none" id="VisitRepository-to-Visit" style="stroke:#181818;stroke-width:1.0;"/><polygon fill="#181818" points="140.06,526,149.872,526.8512,144.7875,524.3718,147.2669,519.2873,140.06,526" style="stroke:#181818;stroke-width:1.0;"/><text fill="#000000" font-family="sans-serif" font-size="13" lengthAdjust="spacing" textLength="5" x="148.1473" y="518.6714">*</text></g><!--MD5=[fff48e9c385a875a0ec7f6b68c295159]
link Repositories to Repositories--><g id="link_Repositories_Repositories"><path codeLine="65" d="M676.06,253.12 C695.94,253.88 711,258.34 711,266.5 C711,273.96 698.42,278.32 681.08,279.6 " fill="none" id="Repositories-to-Repositories" style="stroke:#181818;stroke-width:1.0;"/><polygon fill="#181818" points="676.06,279.88,685.2641,283.3848,681.0526,279.6082,684.8292,275.3967,676.06,279.88" style="stroke:#181818;stroke-width:1.0;"/><text fill="#000000" font-family="sans-serif" font-size="13" lengthAdjust="spacing" textLength="49" x="717" y="271.9951">Instance</text></g><!--MD5=[3489d5b9bb367131835a1207e9febac8]
link Repositories to VisitRepository--><g id="link_Repositories_VisitRepository"><path codeLine="67" d="M564.32,308.19 C548.39,325.87 529.67,346.63 513.35,364.74 " fill="none" id="Repositories-to-VisitRepository" style="stroke:#181818;stroke-width:1.0;"/><polygon fill="#181818" points="509.69,368.8,518.6839,364.7862,513.0348,365.0835,512.7375,359.4345,509.69,368.8" style="stroke:#181818;stroke-width:1.0;"/><text fill="#000000" font-family="sans-serif" font-size="13" lengthAdjust="spacing" textLength="7" x="508.1871" y="358.0746">1</text></g><!--MD5=[e0007ce857f9e399f6e0f9b34cb3ef0a]
@startuml

class Visit {
  
}

class VisitMapper {
  
    +toDTOlist(sortedVisits)
    +toDTO(visit)

}

class VisitDTO {
  
}

class Util {
  
    +getChosenSortingAlgorithm()
    

}


class ListAllBookingsRequestsToAgentUI {

    

}

class ListAllBookingsRequestsToAgentController {

  
}

class VisitRepository {

    +getAllVisitsByAgentAndDateRange(Agent,start,end)
    +sortVisitsAscending(visits)

}




class Repositories {

    +getInstance()
    +getVisitRepository()

}


ListAllBookingsRequestsToAgentUI -[dashed]-> ListAllBookingsRequestsToAgentController
ListAllBookingsRequestsToAgentController-[dashed]-> Repositories
ListAllBookingsRequestsToAgentController-[dashed]-> VisitRepository
ListAllBookingsRequestsToAgentController-[dashed]-> VisitMapper
ListAllBookingsRequestsToAgentController-[dashed]-> Util
VisitMapper -[dashed]-> VisitDTO
VisitMapper -[dashed]-> Visit


VisitRepository -down-> "*" Visit

Repositories - -> Repositories: Instance

Repositories - ->"1" VisitRepository






@enduml

PlantUML version 1.2022.7(Mon Aug 22 18:01:30 BST 2022)
(GPL source distribution)
Java Runtime: Java(TM) SE Runtime Environment
JVM: Java HotSpot(TM) 64-Bit Server VM
Default Encoding: Cp1252
Language: pt
Country: PT
--></g></svg>