<?xml version="1.0" encoding="UTF-8" standalone="no"?><svg xmlns="http://www.w3.org/2000/svg" xmlns:xlink="http://www.w3.org/1999/xlink" contentStyleType="text/css" height="551px" preserveAspectRatio="none" style="width:779px;height:551px;background:#FFFFFF;" version="1.1" viewBox="0 0 779 551" width="779px" zoomAndPan="magnify"><defs/><g><!--MD5=[e049a9fc6087ec9a0b5519edf8a49765]
class Visit--><g id="elem_Visit"><rect codeLine="2" fill="#F1F1F1" height="48" id="Visit" rx="2.5" ry="2.5" style="stroke:#181818;stroke-width:0.5;" width="58" x="486" y="496"/><ellipse cx="501" cy="512" fill="#ADD1B2" rx="11" ry="11" style="stroke:#181818;stroke-width:1.0;"/><path d="M503.7656,507.875 Q503.9219,507.6563 504.1094,507.5469 Q504.2969,507.4375 504.5156,507.4375 Q504.8906,507.4375 505.125,507.6953 Q505.3594,507.9531 505.3594,508.5625 L505.3594,510.0156 Q505.3594,510.625 505.125,510.8906 Q504.8906,511.1563 504.5156,511.1563 Q504.1719,511.1563 503.9688,510.9531 Q503.7656,510.7656 503.6563,510.25 Q503.6094,509.8906 503.4219,509.7031 Q503.0938,509.3281 502.4844,509.1094 Q501.875,508.8906 501.25,508.8906 Q500.4844,508.8906 499.8516,509.2188 Q499.2188,509.5469 498.7266,510.2969 Q498.2344,511.0469 498.2344,512.0781 L498.2344,513.1719 Q498.2344,514.4063 499.125,515.2266 Q500.0156,516.0469 501.6094,516.0469 Q502.5469,516.0469 503.2031,515.7969 Q503.5938,515.6406 504.0156,515.2031 Q504.2813,514.9375 504.4297,514.8594 Q504.5781,514.7813 504.7813,514.7813 Q505.1094,514.7813 505.3672,515.0391 Q505.625,515.2969 505.625,515.6406 Q505.625,515.9844 505.2813,516.3906 Q504.7813,516.9688 503.9844,517.2969 Q502.9063,517.75 501.6094,517.75 Q500.0938,517.75 498.8906,517.125 Q497.9063,516.625 497.2188,515.5547 Q496.5313,514.4844 496.5313,513.2031 L496.5313,512.0469 Q496.5313,510.7188 497.1484,509.5703 Q497.7656,508.4219 498.8594,507.8047 Q499.9531,507.1875 501.1875,507.1875 Q501.9219,507.1875 502.5703,507.3516 Q503.2188,507.5156 503.7656,507.875 Z " fill="#000000"/><text fill="#000000" font-family="sans-serif" font-size="14" lengthAdjust="spacing" textLength="26" x="515" y="517.7285">Visit</text><line style="stroke:#181818;stroke-width:0.5;" x1="487" x2="543" y1="528" y2="528"/><line style="stroke:#181818;stroke-width:0.5;" x1="487" x2="543" y1="536" y2="536"/></g><!--MD5=[085457430d2356209d15d1291460c965]
class Mapper--><g id="elem_Mapper"><rect codeLine="6" fill="#F1F1F1" height="83.2188" id="Mapper" rx="2.5" ry="2.5" style="stroke:#181818;stroke-width:0.5;" width="168" x="7" y="225"/><ellipse cx="62.75" cy="241" fill="#ADD1B2" rx="11" ry="11" style="stroke:#181818;stroke-width:1.0;"/><path d="M65.5156,236.875 Q65.6719,236.6563 65.8594,236.5469 Q66.0469,236.4375 66.2656,236.4375 Q66.6406,236.4375 66.875,236.6953 Q67.1094,236.9531 67.1094,237.5625 L67.1094,239.0156 Q67.1094,239.625 66.875,239.8906 Q66.6406,240.1563 66.2656,240.1563 Q65.9219,240.1563 65.7188,239.9531 Q65.5156,239.7656 65.4063,239.25 Q65.3594,238.8906 65.1719,238.7031 Q64.8438,238.3281 64.2344,238.1094 Q63.625,237.8906 63,237.8906 Q62.2344,237.8906 61.6016,238.2188 Q60.9688,238.5469 60.4766,239.2969 Q59.9844,240.0469 59.9844,241.0781 L59.9844,242.1719 Q59.9844,243.4063 60.875,244.2266 Q61.7656,245.0469 63.3594,245.0469 Q64.2969,245.0469 64.9531,244.7969 Q65.3438,244.6406 65.7656,244.2031 Q66.0313,243.9375 66.1797,243.8594 Q66.3281,243.7813 66.5313,243.7813 Q66.8594,243.7813 67.1172,244.0391 Q67.375,244.2969 67.375,244.6406 Q67.375,244.9844 67.0313,245.3906 Q66.5313,245.9688 65.7344,246.2969 Q64.6563,246.75 63.3594,246.75 Q61.8438,246.75 60.6406,246.125 Q59.6563,245.625 58.9688,244.5547 Q58.2813,243.4844 58.2813,242.2031 L58.2813,241.0469 Q58.2813,239.7188 58.8984,238.5703 Q59.5156,237.4219 60.6094,236.8047 Q61.7031,236.1875 62.9375,236.1875 Q63.6719,236.1875 64.3203,236.3516 Q64.9688,236.5156 65.5156,236.875 Z " fill="#000000"/><text fill="#000000" font-family="sans-serif" font-size="14" lengthAdjust="spacing" textLength="48" x="83.25" y="246.7285">Mapper</text><line style="stroke:#181818;stroke-width:0.5;" x1="8" x2="174" y1="257" y2="257"/><line style="stroke:#181818;stroke-width:0.5;" x1="8" x2="174" y1="265" y2="265"/><ellipse cx="18" cy="279.3047" fill="#84BE84" rx="3" ry="3" style="stroke:#038048;stroke-width:1.0;"/><text fill="#000000" font-family="sans-serif" font-size="14" lengthAdjust="spacing" textLength="142" x="27" y="283.5332">toDTOlist(sortedVisits)</text><ellipse cx="18" cy="296.9141" fill="#84BE84" rx="3" ry="3" style="stroke:#038048;stroke-width:1.0;"/><text fill="#000000" font-family="sans-serif" font-size="14" lengthAdjust="spacing" textLength="76" x="27" y="301.1426">toDTO(visit)</text></g><!--MD5=[417b69165ddd9152f9e9e5024b88481a]
class VisitDTO--><g id="elem_VisitDTO"><rect codeLine="13" fill="#F1F1F1" height="48" id="VisitDTO" rx="2.5" ry="2.5" style="stroke:#181818;stroke-width:0.5;" width="88" x="47" y="378"/><ellipse cx="62" cy="394" fill="#ADD1B2" rx="11" ry="11" style="stroke:#181818;stroke-width:1.0;"/><path d="M64.7656,389.875 Q64.9219,389.6563 65.1094,389.5469 Q65.2969,389.4375 65.5156,389.4375 Q65.8906,389.4375 66.125,389.6953 Q66.3594,389.9531 66.3594,390.5625 L66.3594,392.0156 Q66.3594,392.625 66.125,392.8906 Q65.8906,393.1563 65.5156,393.1563 Q65.1719,393.1563 64.9688,392.9531 Q64.7656,392.7656 64.6563,392.25 Q64.6094,391.8906 64.4219,391.7031 Q64.0938,391.3281 63.4844,391.1094 Q62.875,390.8906 62.25,390.8906 Q61.4844,390.8906 60.8516,391.2188 Q60.2188,391.5469 59.7266,392.2969 Q59.2344,393.0469 59.2344,394.0781 L59.2344,395.1719 Q59.2344,396.4063 60.125,397.2266 Q61.0156,398.0469 62.6094,398.0469 Q63.5469,398.0469 64.2031,397.7969 Q64.5938,397.6406 65.0156,397.2031 Q65.2813,396.9375 65.4297,396.8594 Q65.5781,396.7813 65.7813,396.7813 Q66.1094,396.7813 66.3672,397.0391 Q66.625,397.2969 66.625,397.6406 Q66.625,397.9844 66.2813,398.3906 Q65.7813,398.9688 64.9844,399.2969 Q63.9063,399.75 62.6094,399.75 Q61.0938,399.75 59.8906,399.125 Q58.9063,398.625 58.2188,397.5547 Q57.5313,396.4844 57.5313,395.2031 L57.5313,394.0469 Q57.5313,392.7188 58.1484,391.5703 Q58.7656,390.4219 59.8594,389.8047 Q60.9531,389.1875 62.1875,389.1875 Q62.9219,389.1875 63.5703,389.3516 Q64.2188,389.5156 64.7656,389.875 Z " fill="#000000"/><text fill="#000000" font-family="sans-serif" font-size="14" lengthAdjust="spacing" textLength="56" x="76" y="399.7285">VisitDTO</text><line style="stroke:#181818;stroke-width:0.5;" x1="48" x2="134" y1="410" y2="410"/><line style="stroke:#181818;stroke-width:0.5;" x1="48" x2="134" y1="418" y2="418"/></g><!--MD5=[4608b84f4b6cec0dbf3ed9a9009c35b2]
class Util--><g id="elem_Util"><rect codeLine="17" fill="#F1F1F1" height="83.2188" id="Util" rx="2.5" ry="2.5" style="stroke:#181818;stroke-width:0.5;" width="209" x="210.5" y="225"/><ellipse cx="301.25" cy="241" fill="#ADD1B2" rx="11" ry="11" style="stroke:#181818;stroke-width:1.0;"/><path d="M304.0156,236.875 Q304.1719,236.6563 304.3594,236.5469 Q304.5469,236.4375 304.7656,236.4375 Q305.1406,236.4375 305.375,236.6953 Q305.6094,236.9531 305.6094,237.5625 L305.6094,239.0156 Q305.6094,239.625 305.375,239.8906 Q305.1406,240.1563 304.7656,240.1563 Q304.4219,240.1563 304.2188,239.9531 Q304.0156,239.7656 303.9063,239.25 Q303.8594,238.8906 303.6719,238.7031 Q303.3438,238.3281 302.7344,238.1094 Q302.125,237.8906 301.5,237.8906 Q300.7344,237.8906 300.1016,238.2188 Q299.4688,238.5469 298.9766,239.2969 Q298.4844,240.0469 298.4844,241.0781 L298.4844,242.1719 Q298.4844,243.4063 299.375,244.2266 Q300.2656,245.0469 301.8594,245.0469 Q302.7969,245.0469 303.4531,244.7969 Q303.8438,244.6406 304.2656,244.2031 Q304.5313,243.9375 304.6797,243.8594 Q304.8281,243.7813 305.0313,243.7813 Q305.3594,243.7813 305.6172,244.0391 Q305.875,244.2969 305.875,244.6406 Q305.875,244.9844 305.5313,245.3906 Q305.0313,245.9688 304.2344,246.2969 Q303.1563,246.75 301.8594,246.75 Q300.3438,246.75 299.1406,246.125 Q298.1563,245.625 297.4688,244.5547 Q296.7813,243.4844 296.7813,242.2031 L296.7813,241.0469 Q296.7813,239.7188 297.3984,238.5703 Q298.0156,237.4219 299.1094,236.8047 Q300.2031,236.1875 301.4375,236.1875 Q302.1719,236.1875 302.8203,236.3516 Q303.4688,236.5156 304.0156,236.875 Z " fill="#000000"/><text fill="#000000" font-family="sans-serif" font-size="14" lengthAdjust="spacing" textLength="19" x="321.75" y="246.7285">Util</text><line style="stroke:#181818;stroke-width:0.5;" x1="211.5" x2="418.5" y1="257" y2="257"/><line style="stroke:#181818;stroke-width:0.5;" x1="211.5" x2="418.5" y1="265" y2="265"/><ellipse cx="221.5" cy="279.3047" fill="#84BE84" rx="3" ry="3" style="stroke:#038048;stroke-width:1.0;"/><text fill="#000000" font-family="sans-serif" font-size="14" lengthAdjust="spacing" textLength="183" x="230.5" y="283.5332">getChosenSortingAlgorithm()</text><ellipse cx="221.5" cy="296.9141" fill="#84BE84" rx="3" ry="3" style="stroke:#038048;stroke-width:1.0;"/><text fill="#000000" font-family="sans-serif" font-size="14" lengthAdjust="spacing" textLength="133" x="230.5" y="301.1426">sortVisitsAscending()</text></g><!--MD5=[a2c95f9a36526d18da216a36299e299a]
class ListAllBookingsRequestsToAgentUI--><g id="elem_ListAllBookingsRequestsToAgentUI"><rect codeLine="25" fill="#F1F1F1" height="48" id="ListAllBookingsRequestsToAgentUI" rx="2.5" ry="2.5" style="stroke:#181818;stroke-width:0.5;" width="253" x="267.5" y="7"/><ellipse cx="282.5" cy="23" fill="#ADD1B2" rx="11" ry="11" style="stroke:#181818;stroke-width:1.0;"/><path d="M285.2656,18.875 Q285.4219,18.6563 285.6094,18.5469 Q285.7969,18.4375 286.0156,18.4375 Q286.3906,18.4375 286.625,18.6953 Q286.8594,18.9531 286.8594,19.5625 L286.8594,21.0156 Q286.8594,21.625 286.625,21.8906 Q286.3906,22.1563 286.0156,22.1563 Q285.6719,22.1563 285.4688,21.9531 Q285.2656,21.7656 285.1563,21.25 Q285.1094,20.8906 284.9219,20.7031 Q284.5938,20.3281 283.9844,20.1094 Q283.375,19.8906 282.75,19.8906 Q281.9844,19.8906 281.3516,20.2188 Q280.7188,20.5469 280.2266,21.2969 Q279.7344,22.0469 279.7344,23.0781 L279.7344,24.1719 Q279.7344,25.4063 280.625,26.2266 Q281.5156,27.0469 283.1094,27.0469 Q284.0469,27.0469 284.7031,26.7969 Q285.0938,26.6406 285.5156,26.2031 Q285.7813,25.9375 285.9297,25.8594 Q286.0781,25.7813 286.2813,25.7813 Q286.6094,25.7813 286.8672,26.0391 Q287.125,26.2969 287.125,26.6406 Q287.125,26.9844 286.7813,27.3906 Q286.2813,27.9688 285.4844,28.2969 Q284.4063,28.75 283.1094,28.75 Q281.5938,28.75 280.3906,28.125 Q279.4063,27.625 278.7188,26.5547 Q278.0313,25.4844 278.0313,24.2031 L278.0313,23.0469 Q278.0313,21.7188 278.6484,20.5703 Q279.2656,19.4219 280.3594,18.8047 Q281.4531,18.1875 282.6875,18.1875 Q283.4219,18.1875 284.0703,18.3516 Q284.7188,18.5156 285.2656,18.875 Z " fill="#000000"/><text fill="#000000" font-family="sans-serif" font-size="14" lengthAdjust="spacing" textLength="221" x="296.5" y="28.7285">ListAllBookingsRequestsToAgentUI</text><line style="stroke:#181818;stroke-width:0.5;" x1="268.5" x2="519.5" y1="39" y2="39"/><line style="stroke:#181818;stroke-width:0.5;" x1="268.5" x2="519.5" y1="47" y2="47"/></g><!--MD5=[ab5ce4986c870ac8a6fd46468836203d]
class ListAllBookingsRequestsToAgentController--><g id="elem_ListAllBookingsRequestsToAgentController"><rect codeLine="31" fill="#F1F1F1" height="48" id="ListAllBookingsRequestsToAgentController" rx="2.5" ry="2.5" style="stroke:#181818;stroke-width:0.5;" width="303" x="242.5" y="116"/><ellipse cx="257.5" cy="132" fill="#ADD1B2" rx="11" ry="11" style="stroke:#181818;stroke-width:1.0;"/><path d="M260.2656,127.875 Q260.4219,127.6563 260.6094,127.5469 Q260.7969,127.4375 261.0156,127.4375 Q261.3906,127.4375 261.625,127.6953 Q261.8594,127.9531 261.8594,128.5625 L261.8594,130.0156 Q261.8594,130.625 261.625,130.8906 Q261.3906,131.1563 261.0156,131.1563 Q260.6719,131.1563 260.4688,130.9531 Q260.2656,130.7656 260.1563,130.25 Q260.1094,129.8906 259.9219,129.7031 Q259.5938,129.3281 258.9844,129.1094 Q258.375,128.8906 257.75,128.8906 Q256.9844,128.8906 256.3516,129.2188 Q255.7188,129.5469 255.2266,130.2969 Q254.7344,131.0469 254.7344,132.0781 L254.7344,133.1719 Q254.7344,134.4063 255.625,135.2266 Q256.5156,136.0469 258.1094,136.0469 Q259.0469,136.0469 259.7031,135.7969 Q260.0938,135.6406 260.5156,135.2031 Q260.7813,134.9375 260.9297,134.8594 Q261.0781,134.7813 261.2813,134.7813 Q261.6094,134.7813 261.8672,135.0391 Q262.125,135.2969 262.125,135.6406 Q262.125,135.9844 261.7813,136.3906 Q261.2813,136.9688 260.4844,137.2969 Q259.4063,137.75 258.1094,137.75 Q256.5938,137.75 255.3906,137.125 Q254.4063,136.625 253.7188,135.5547 Q253.0313,134.4844 253.0313,133.2031 L253.0313,132.0469 Q253.0313,130.7188 253.6484,129.5703 Q254.2656,128.4219 255.3594,127.8047 Q256.4531,127.1875 257.6875,127.1875 Q258.4219,127.1875 259.0703,127.3516 Q259.7188,127.5156 260.2656,127.875 Z " fill="#000000"/><text fill="#000000" font-family="sans-serif" font-size="14" lengthAdjust="spacing" textLength="271" x="271.5" y="137.7285">ListAllBookingsRequestsToAgentController</text><line style="stroke:#181818;stroke-width:0.5;" x1="243.5" x2="544.5" y1="148" y2="148"/><line style="stroke:#181818;stroke-width:0.5;" x1="243.5" x2="544.5" y1="156" y2="156"/></g><!--MD5=[e53a56dcbe59508aee6112e5df13d1ca]
class VisitRepository--><g id="elem_VisitRepository"><rect codeLine="36" fill="#F1F1F1" height="65.6094" id="VisitRepository" rx="2.5" ry="2.5" style="stroke:#181818;stroke-width:0.5;" width="351" x="339.5" y="369"/><ellipse cx="463.75" cy="385" fill="#ADD1B2" rx="11" ry="11" style="stroke:#181818;stroke-width:1.0;"/><path d="M466.5156,380.875 Q466.6719,380.6563 466.8594,380.5469 Q467.0469,380.4375 467.2656,380.4375 Q467.6406,380.4375 467.875,380.6953 Q468.1094,380.9531 468.1094,381.5625 L468.1094,383.0156 Q468.1094,383.625 467.875,383.8906 Q467.6406,384.1563 467.2656,384.1563 Q466.9219,384.1563 466.7188,383.9531 Q466.5156,383.7656 466.4063,383.25 Q466.3594,382.8906 466.1719,382.7031 Q465.8438,382.3281 465.2344,382.1094 Q464.625,381.8906 464,381.8906 Q463.2344,381.8906 462.6016,382.2188 Q461.9688,382.5469 461.4766,383.2969 Q460.9844,384.0469 460.9844,385.0781 L460.9844,386.1719 Q460.9844,387.4063 461.875,388.2266 Q462.7656,389.0469 464.3594,389.0469 Q465.2969,389.0469 465.9531,388.7969 Q466.3438,388.6406 466.7656,388.2031 Q467.0313,387.9375 467.1797,387.8594 Q467.3281,387.7813 467.5313,387.7813 Q467.8594,387.7813 468.1172,388.0391 Q468.375,388.2969 468.375,388.6406 Q468.375,388.9844 468.0313,389.3906 Q467.5313,389.9688 466.7344,390.2969 Q465.6563,390.75 464.3594,390.75 Q462.8438,390.75 461.6406,390.125 Q460.6563,389.625 459.9688,388.5547 Q459.2813,387.4844 459.2813,386.2031 L459.2813,385.0469 Q459.2813,383.7188 459.8984,382.5703 Q460.5156,381.4219 461.6094,380.8047 Q462.7031,380.1875 463.9375,380.1875 Q464.6719,380.1875 465.3203,380.3516 Q465.9688,380.5156 466.5156,380.875 Z " fill="#000000"/><text fill="#000000" font-family="sans-serif" font-size="14" lengthAdjust="spacing" textLength="94" x="484.25" y="390.7285">VisitRepository</text><line style="stroke:#181818;stroke-width:0.5;" x1="340.5" x2="689.5" y1="401" y2="401"/><line style="stroke:#181818;stroke-width:0.5;" x1="340.5" x2="689.5" y1="409" y2="409"/><ellipse cx="350.5" cy="423.3047" fill="#84BE84" rx="3" ry="3" style="stroke:#038048;stroke-width:1.0;"/><text fill="#000000" font-family="sans-serif" font-size="14" lengthAdjust="spacing" textLength="325" x="359.5" y="427.5332">getAllVisitsByAgentAndDateRange(Agent,start,end)</text></g><!--MD5=[35ae6afabc28cfceb76ccc01ee55d1fe]
class Repositories--><g id="elem_Repositories"><rect codeLine="45" fill="#F1F1F1" height="83.2188" id="Repositories" rx="2.5" ry="2.5" style="stroke:#181818;stroke-width:0.5;" width="150" x="526" y="225"/><ellipse cx="558.55" cy="241" fill="#ADD1B2" rx="11" ry="11" style="stroke:#181818;stroke-width:1.0;"/><path d="M561.3156,236.875 Q561.4719,236.6563 561.6594,236.5469 Q561.8469,236.4375 562.0656,236.4375 Q562.4406,236.4375 562.675,236.6953 Q562.9094,236.9531 562.9094,237.5625 L562.9094,239.0156 Q562.9094,239.625 562.675,239.8906 Q562.4406,240.1563 562.0656,240.1563 Q561.7219,240.1563 561.5188,239.9531 Q561.3156,239.7656 561.2063,239.25 Q561.1594,238.8906 560.9719,238.7031 Q560.6438,238.3281 560.0344,238.1094 Q559.425,237.8906 558.8,237.8906 Q558.0344,237.8906 557.4016,238.2188 Q556.7688,238.5469 556.2766,239.2969 Q555.7844,240.0469 555.7844,241.0781 L555.7844,242.1719 Q555.7844,243.4063 556.675,244.2266 Q557.5656,245.0469 559.1594,245.0469 Q560.0969,245.0469 560.7531,244.7969 Q561.1438,244.6406 561.5656,244.2031 Q561.8313,243.9375 561.9797,243.8594 Q562.1281,243.7813 562.3313,243.7813 Q562.6594,243.7813 562.9172,244.0391 Q563.175,244.2969 563.175,244.6406 Q563.175,244.9844 562.8313,245.3906 Q562.3313,245.9688 561.5344,246.2969 Q560.4563,246.75 559.1594,246.75 Q557.6438,246.75 556.4406,246.125 Q555.4563,245.625 554.7688,244.5547 Q554.0813,243.4844 554.0813,242.2031 L554.0813,241.0469 Q554.0813,239.7188 554.6984,238.5703 Q555.3156,237.4219 556.4094,236.8047 Q557.5031,236.1875 558.7375,236.1875 Q559.4719,236.1875 560.1203,236.3516 Q560.7688,236.5156 561.3156,236.875 Z " fill="#000000"/><text fill="#000000" font-family="sans-serif" font-size="14" lengthAdjust="spacing" textLength="79" x="576.45" y="246.7285">Repositories</text><line style="stroke:#181818;stroke-width:0.5;" x1="527" x2="675" y1="257" y2="257"/><line style="stroke:#181818;stroke-width:0.5;" x1="527" x2="675" y1="265" y2="265"/><ellipse cx="537" cy="279.3047" fill="#84BE84" rx="3" ry="3" style="stroke:#038048;stroke-width:1.0;"/><text fill="#000000" font-family="sans-serif" font-size="14" lengthAdjust="spacing" textLength="83" x="546" y="283.5332">getInstance()</text><ellipse cx="537" cy="296.9141" fill="#84BE84" rx="3" ry="3" style="stroke:#038048;stroke-width:1.0;"/><text fill="#000000" font-family="sans-serif" font-size="14" lengthAdjust="spacing" textLength="124" x="546" y="301.1426">getVisitRepository()</text></g><!--MD5=[641f4aa84dcdfd0e6df389f969742644]
link ListAllBookingsRequestsToAgentUI to ListAllBookingsRequestsToAgentController--><g id="link_ListAllBookingsRequestsToAgentUI_ListAllBookingsRequestsToAgentController"><path codeLine="53" d="M394,55.22 C394,71.48 394,93.32 394,110.62 " fill="none" id="ListAllBookingsRequestsToAgentUI-to-ListAllBookingsRequestsToAgentController" style="stroke:#181818;stroke-width:1.0;stroke-dasharray:7.0,7.0;"/><polygon fill="#181818" points="394,115.83,398,106.83,394,110.83,390,106.83,394,115.83" style="stroke:#181818;stroke-width:1.0;"/></g><!--MD5=[3866b4c0f7afc2a1e1d6fefb2b9c0670]
link ListAllBookingsRequestsToAgentController to Repositories--><g id="link_ListAllBookingsRequestsToAgentController_Repositories"><path codeLine="54" d="M443.4,164.11 C461.23,172.92 481.3,183.41 499,194 C513.21,202.51 528.04,212.32 541.86,221.9 " fill="none" id="ListAllBookingsRequestsToAgentController-to-Repositories" style="stroke:#181818;stroke-width:1.0;stroke-dasharray:7.0,7.0;"/><polygon fill="#181818" points="546.11,224.86,541.013,216.4326,542.0078,222.0013,536.4391,222.9961,546.11,224.86" style="stroke:#181818;stroke-width:1.0;"/></g><!--MD5=[2c26190e4cad77c65b7b6c497232d7e8]
link ListAllBookingsRequestsToAgentController to VisitRepository--><g id="link_ListAllBookingsRequestsToAgentController_VisitRepository"><path codeLine="55" d="M406.21,164 C415.02,180.79 427.05,204.15 437,225 C459.73,272.63 484.09,328.47 499.43,364.26 " fill="none" id="ListAllBookingsRequestsToAgentController-to-VisitRepository" style="stroke:#181818;stroke-width:1.0;stroke-dasharray:7.0,7.0;"/><polygon fill="#181818" points="501.44,368.96,501.5972,359.1124,499.4825,364.3591,494.2358,362.2444,501.44,368.96" style="stroke:#181818;stroke-width:1.0;"/></g><!--MD5=[82c1b256794431da941891ce73c7a643]
link ListAllBookingsRequestsToAgentController to Mapper--><g id="link_ListAllBookingsRequestsToAgentController_Mapper"><path codeLine="56" d="M337.72,164.13 C293.45,182.31 230.94,208 179.92,228.96 " fill="none" id="ListAllBookingsRequestsToAgentController-to-Mapper" style="stroke:#181818;stroke-width:1.0;stroke-dasharray:7.0,7.0;"/><polygon fill="#181818" points="175.02,230.98,184.8651,231.252,179.6434,229.0763,181.8191,223.8545,175.02,230.98" style="stroke:#181818;stroke-width:1.0;"/></g><!--MD5=[5ee10169d5b8ba06ba2e6fa7959087c5]
link ListAllBookingsRequestsToAgentController to Util--><g id="link_ListAllBookingsRequestsToAgentController_Util"><path codeLine="57" d="M379.33,164.13 C369.29,179.95 355.65,201.44 343.52,220.56 " fill="none" id="ListAllBookingsRequestsToAgentController-to-Util" style="stroke:#181818;stroke-width:1.0;stroke-dasharray:7.0,7.0;"/><polygon fill="#181818" points="340.79,224.86,348.9786,219.3876,343.4605,220.6329,342.2152,215.1148,340.79,224.86" style="stroke:#181818;stroke-width:1.0;"/></g><!--MD5=[239b079b7f63f3b5a9c192487b998ea4]
link Mapper to VisitDTO--><g id="link_Mapper_VisitDTO"><path codeLine="58" d="M91,308.28 C91,329.17 91,354.07 91,372.81 " fill="none" id="Mapper-to-VisitDTO" style="stroke:#181818;stroke-width:1.0;stroke-dasharray:7.0,7.0;"/><polygon fill="#181818" points="91,377.92,95,368.92,91,372.92,87,368.92,91,377.92" style="stroke:#181818;stroke-width:1.0;"/></g><!--MD5=[5688b26c2fc3011a374eaf6debd74c17]
link VisitRepository to Visit--><g id="link_VisitRepository_Visit"><path codeLine="61" d="M515,435 C515,452.51 515,473.99 515,490.85 " fill="none" id="VisitRepository-to-Visit" style="stroke:#181818;stroke-width:1.0;"/><polygon fill="#181818" points="515,495.93,519,486.93,515,490.93,511,486.93,515,495.93" style="stroke:#181818;stroke-width:1.0;"/><text fill="#000000" font-family="sans-serif" font-size="13" lengthAdjust="spacing" textLength="5" x="509.3594" y="485.2522">*</text></g><!--MD5=[fff48e9c385a875a0ec7f6b68c295159]
link Repositories to Repositories--><g id="link_Repositories_Repositories"><path codeLine="63" d="M676.06,253.12 C695.94,253.88 711,258.34 711,266.5 C711,273.96 698.42,278.32 681.08,279.6 " fill="none" id="Repositories-to-Repositories" style="stroke:#181818;stroke-width:1.0;"/><polygon fill="#181818" points="676.06,279.88,685.2641,283.3848,681.0526,279.6082,684.8292,275.3967,676.06,279.88" style="stroke:#181818;stroke-width:1.0;"/><text fill="#000000" font-family="sans-serif" font-size="13" lengthAdjust="spacing" textLength="49" x="717" y="271.9951">Instance</text></g><!--MD5=[3489d5b9bb367131835a1207e9febac8]
link Repositories to VisitRepository--><g id="link_Repositories_VisitRepository"><path codeLine="65" d="M574.73,308.28 C563.16,326.23 549.68,347.16 538.46,364.58 " fill="none" id="Repositories-to-VisitRepository" style="stroke:#181818;stroke-width:1.0;"/><polygon fill="#181818" points="535.66,368.93,543.8962,363.5295,538.3674,364.7264,537.1704,359.1977,535.66,368.93" style="stroke:#181818;stroke-width:1.0;"/><text fill="#000000" font-family="sans-serif" font-size="13" lengthAdjust="spacing" textLength="7" x="532.1993" y="358.031">1</text></g><!--MD5=[80931e97170f946e962ba206b00625c2]
@startuml

class Visit {
  
}

class Mapper {
  
    +toDTOlist(sortedVisits)
    +toDTO(visit)

}

class VisitDTO {
  
}

class Util {
  
    +getChosenSortingAlgorithm()
    +sortVisitsAscending()

}


class ListAllBookingsRequestsToAgentUI {

    

}

class ListAllBookingsRequestsToAgentController {

  
}

class VisitRepository {

    +getAllVisitsByAgentAndDateRange(Agent,start,end)
    
}




class Repositories {

    +getInstance()
    +getVisitRepository()

}


ListAllBookingsRequestsToAgentUI -[dashed]-> ListAllBookingsRequestsToAgentController
ListAllBookingsRequestsToAgentController-[dashed]-> Repositories
ListAllBookingsRequestsToAgentController-[dashed]-> VisitRepository
ListAllBookingsRequestsToAgentController-[dashed]-> Mapper
ListAllBookingsRequestsToAgentController-[dashed]-> Util
Mapper -[dashed]-> VisitDTO


VisitRepository -down-> "*" Visit

Repositories - -> Repositories: Instance

Repositories - ->"1" VisitRepository






@enduml

PlantUML version 1.2022.7(Mon Aug 22 18:01:30 BST 2022)
(GPL source distribution)
Java Runtime: Java(TM) SE Runtime Environment
JVM: Java HotSpot(TM) 64-Bit Server VM
Default Encoding: Cp1252
Language: pt
Country: PT
--></g></svg>