<?xml version="1.0" encoding="UTF-8" standalone="no"?><svg xmlns="http://www.w3.org/2000/svg" xmlns:xlink="http://www.w3.org/1999/xlink" contentStyleType="text/css" height="483px" preserveAspectRatio="none" style="width:1003px;height:483px;background:#FFFFFF;" version="1.1" viewBox="0 0 1003 483" width="1003px" zoomAndPan="magnify"><defs/><g><rect fill="none" height="27.6094" id="_title" style="stroke:none;stroke-width:1.0;" width="985" x="5" y="10"/><text fill="#000000" font-family="sans-serif" font-size="14" font-weight="bold" lengthAdjust="spacing" textLength="975" x="10" y="29.5332">US018(SSD) - Analyse the deals made, based on the characteristics of the property using simple liner regression and multilinear regression</text><rect fill="#FFFFFF" height="252.6484" style="stroke:#181818;stroke-width:1.0;" width="10" x="317" y="131.2188"/><rect fill="#FFFFFF" height="30.3516" style="stroke:#181818;stroke-width:1.0;" width="10" x="687" y="153.5703"/><rect fill="#FFFFFF" height="30.3516" style="stroke:#181818;stroke-width:1.0;" width="10" x="687" y="239.625"/><rect fill="#FFFFFF" height="83.5391" style="stroke:#181818;stroke-width:1.0;" width="10" x="687" y="300.3281"/><rect fill="none" height="155.5938" style="stroke:#000000;stroke-width:1.5;" width="472" x="262" y="198.9219"/><line style="stroke:#181818;stroke-width:0.5;stroke-dasharray:5.0,5.0;" x1="322" x2="322" y1="121.2188" y2="401.8672"/><line style="stroke:#181818;stroke-width:0.5;stroke-dasharray:5.0,5.0;" x1="692" x2="692" y1="121.2188" y2="401.8672"/><text fill="#000000" font-family="sans-serif" font-size="14" lengthAdjust="spacing" textLength="94" x="272" y="118.1426">Store Manager</text><ellipse cx="322" cy="52.1094" fill="#E3E3E3" rx="8" ry="8" style="stroke:#181818;stroke-width:0.5;"/><path d="M322,60.1094 L322,87.1094 M309,68.1094 L335,68.1094 M322,87.1094 L309,102.1094 M322,87.1094 L335,102.1094 " fill="none" style="stroke:#181818;stroke-width:0.5;"/><text fill="#000000" font-family="sans-serif" font-size="14" lengthAdjust="spacing" textLength="94" x="272" y="415.4004">Store Manager</text><ellipse cx="322" cy="426.9766" fill="#E3E3E3" rx="8" ry="8" style="stroke:#181818;stroke-width:0.5;"/><path d="M322,434.9766 L322,461.9766 M309,442.9766 L335,442.9766 M322,461.9766 L309,476.9766 M322,461.9766 L335,476.9766 " fill="none" style="stroke:#181818;stroke-width:0.5;"/><rect fill="#E3E3E3" height="31.6094" rx="2.5" ry="2.5" style="stroke:#181818;stroke-width:0.5;" width="64" x="660" y="88.6094"/><text fill="#000000" font-family="sans-serif" font-size="14" lengthAdjust="spacing" textLength="50" x="667" y="110.1426">:System</text><rect fill="#E3E3E3" height="31.6094" rx="2.5" ry="2.5" style="stroke:#181818;stroke-width:0.5;" width="64" x="660" y="400.8672"/><text fill="#000000" font-family="sans-serif" font-size="14" lengthAdjust="spacing" textLength="50" x="667" y="422.4004">:System</text><rect fill="#FFFFFF" height="252.6484" style="stroke:#181818;stroke-width:1.0;" width="10" x="317" y="131.2188"/><rect fill="#FFFFFF" height="30.3516" style="stroke:#181818;stroke-width:1.0;" width="10" x="687" y="153.5703"/><rect fill="#FFFFFF" height="30.3516" style="stroke:#181818;stroke-width:1.0;" width="10" x="687" y="239.625"/><rect fill="#FFFFFF" height="83.5391" style="stroke:#181818;stroke-width:1.0;" width="10" x="687" y="300.3281"/><polygon fill="#181818" points="675,149.5703,685,153.5703,675,157.5703,679,153.5703" style="stroke:#181818;stroke-width:1.0;"/><line style="stroke:#181818;stroke-width:1.0;" x1="327" x2="681" y1="153.5703" y2="153.5703"/><text fill="#000000" font-family="sans-serif" font-size="13" font-weight="bold" lengthAdjust="spacing" textLength="7" x="334" y="148.7139">1</text><text fill="#000000" font-family="sans-serif" font-size="13" lengthAdjust="spacing" textLength="164" x="345" y="148.7139">request to analyse the deals</text><polygon fill="#181818" points="338,179.9219,328,183.9219,338,187.9219,334,183.9219" style="stroke:#181818;stroke-width:1.0;"/><line style="stroke:#181818;stroke-width:1.0;stroke-dasharray:2.0,2.0;" x1="332" x2="691" y1="183.9219" y2="183.9219"/><text fill="#000000" font-family="sans-serif" font-size="13" font-weight="bold" lengthAdjust="spacing" textLength="7" x="344" y="179.0654">2</text><text fill="#000000" font-family="sans-serif" font-size="13" lengthAdjust="spacing" textLength="325" x="355" y="179.0654">requests to select Simple linear or Multilinear regression</text><path d="M262,198.9219 L323,198.9219 L323,207.2734 L313,217.2734 L262,217.2734 L262,198.9219 " fill="#EEEEEE" style="stroke:#000000;stroke-width:1.5;"/><rect fill="none" height="155.5938" style="stroke:#000000;stroke-width:1.5;" width="472" x="262" y="198.9219"/><text fill="#000000" font-family="sans-serif" font-size="13" font-weight="bold" lengthAdjust="spacing" textLength="16" x="277" y="213.417">alt</text><text fill="#000000" font-family="sans-serif" font-size="11" font-weight="bold" lengthAdjust="spacing" textLength="145" x="338" y="212.3408">[simple linear regression]</text><polygon fill="#181818" points="675,235.625,685,239.625,675,243.625,679,239.625" style="stroke:#181818;stroke-width:1.0;"/><line style="stroke:#181818;stroke-width:1.0;" x1="327" x2="681" y1="239.625" y2="239.625"/><text fill="#000000" font-family="sans-serif" font-size="13" font-weight="bold" lengthAdjust="spacing" textLength="7" x="334" y="234.7686">3</text><text fill="#000000" font-family="sans-serif" font-size="13" lengthAdjust="spacing" textLength="183" x="345" y="234.7686">selects simple linear regression</text><polygon fill="#181818" points="338,265.9766,328,269.9766,338,273.9766,334,269.9766" style="stroke:#181818;stroke-width:1.0;"/><line style="stroke:#181818;stroke-width:1.0;" x1="332" x2="691" y1="269.9766" y2="269.9766"/><text fill="#000000" font-family="sans-serif" font-size="13" font-weight="bold" lengthAdjust="spacing" textLength="7" x="344" y="265.1201">4</text><text fill="#000000" font-family="sans-serif" font-size="13" lengthAdjust="spacing" textLength="240" x="355" y="265.1201">request to select the independent variable</text><polygon fill="#181818" points="675,296.3281,685,300.3281,675,304.3281,679,300.3281" style="stroke:#181818;stroke-width:1.0;"/><line style="stroke:#181818;stroke-width:1.0;" x1="327" x2="681" y1="300.3281" y2="300.3281"/><text fill="#000000" font-family="sans-serif" font-size="13" font-weight="bold" lengthAdjust="spacing" textLength="7" x="334" y="295.4717">5</text><text fill="#000000" font-family="sans-serif" font-size="13" lengthAdjust="spacing" textLength="185" x="345" y="295.4717">selects the independent variable</text><line style="stroke:#000000;stroke-width:1.0;stroke-dasharray:2.0,2.0;" x1="262" x2="734" y1="309.3281" y2="309.3281"/><text fill="#000000" font-family="sans-serif" font-size="11" font-weight="bold" lengthAdjust="spacing" textLength="132" x="267" y="320.7471">[multilinear regression]</text><polygon fill="#181818" points="675,342.5156,685,346.5156,675,350.5156,679,346.5156" style="stroke:#181818;stroke-width:1.0;"/><line style="stroke:#181818;stroke-width:1.0;" x1="327" x2="681" y1="346.5156" y2="346.5156"/><text fill="#000000" font-family="sans-serif" font-size="13" font-weight="bold" lengthAdjust="spacing" textLength="7" x="334" y="341.6592">6</text><text fill="#000000" font-family="sans-serif" font-size="13" lengthAdjust="spacing" textLength="169" x="345" y="341.6592">selects multilinear regression</text><polygon fill="#181818" points="333,379.8672,323,383.8672,333,387.8672,329,383.8672" style="stroke:#181818;stroke-width:1.0;"/><line style="stroke:#181818;stroke-width:1.0;stroke-dasharray:2.0,2.0;" x1="327" x2="691" y1="383.8672" y2="383.8672"/><text fill="#000000" font-family="sans-serif" font-size="13" font-weight="bold" lengthAdjust="spacing" textLength="7" x="339" y="379.0107">7</text><text fill="#000000" font-family="sans-serif" font-size="13" lengthAdjust="spacing" textLength="300" x="350" y="379.0107">shows list of analysed deals with regression chosen</text><!--MD5=[db66a2d6aec3260082f45703fa500b2e]
@startuml
skinparam monochrome true
skinparam packageStyle rectangle
skinparam shadowing false

title US018(SSD) - Analyse the deals made, based on the characteristics of the property using simple liner regression and multilinear regression

autonumber

actor "Store Manager" as storemanager
participant ":System" as System

    activate storemanager
    storemanager -> System : request to analyse the deals
    activate System
    System - -> storemanager : requests to select Simple linear or Multilinear regression
    deactivate System

alt simple linear regression

    storemanager -> System: selects simple linear regression
    activate System
    System -> storemanager: request to select the independent variable
    deactivate System
    storemanager -> System: selects the independent variable
    activate System


else multilinear regression

    storemanager -> System: selects multilinear regression

end

    
    
    System - -> storemanager : shows list of analysed deals with regression chosen 
    deactivate System

deactivate storemanager
@enduml

PlantUML version 1.2022.7(Mon Aug 22 18:01:30 BST 2022)
(GPL source distribution)
Java Runtime: Java(TM) SE Runtime Environment
JVM: Java HotSpot(TM) 64-Bit Server VM
Default Encoding: Cp1252
Language: pt
Country: PT
--></g></svg>