<?xml version="1.0" encoding="us-ascii" standalone="no"?><svg xmlns="http://www.w3.org/2000/svg" xmlns:xlink="http://www.w3.org/1999/xlink" contentStyleType="text/css" height="748px" preserveAspectRatio="none" style="width:1032px;height:748px;background:#FFFFFF;" version="1.1" viewBox="0 0 1032 748" width="1032px" zoomAndPan="magnify"><defs/><g><!--class AnnouncementRequestUI--><g id="elem_AnnouncementRequestUI"><rect codeLine="11" fill="#F1F1F1" height="48" id="AnnouncementRequestUI" rx="2.5" ry="2.5" style="stroke:#181818;stroke-width:0.5;" width="206" x="70" y="40"/><ellipse cx="85" cy="56" fill="#ADD1B2" rx="11" ry="11" style="stroke:#181818;stroke-width:1.0;"/><path d="M87.9731,61.6431 Q87.3921,61.9419 86.7529,62.0913 Q86.1138,62.2407 85.4082,62.2407 Q82.9014,62.2407 81.5815,60.5889 Q80.2617,58.937 80.2617,55.8159 Q80.2617,52.6865 81.5815,51.0347 Q82.9014,49.3828 85.4082,49.3828 Q86.1138,49.3828 86.7612,49.5322 Q87.4087,49.6816 87.9731,49.9805 L87.9731,52.7031 Q87.3423,52.1221 86.7488,51.8523 Q86.1553,51.5825 85.5244,51.5825 Q84.1797,51.5825 83.4949,52.6492 Q82.8101,53.7158 82.8101,55.8159 Q82.8101,57.9077 83.4949,58.9744 Q84.1797,60.041 85.5244,60.041 Q86.1553,60.041 86.7488,59.7712 Q87.3423,59.5015 87.9731,58.9204 Z " fill="#000000"/><text fill="#000000" font-family="sans-serif" font-size="14" lengthAdjust="spacing" textLength="174" x="99" y="61.291">AnnouncementRequestUI</text><line style="stroke:#181818;stroke-width:0.5;" x1="71" x2="275" y1="72" y2="72"/><line style="stroke:#181818;stroke-width:0.5;" x1="71" x2="275" y1="80" y2="80"/></g><!--class AnnouncementRequestController--><g id="elem_AnnouncementRequestController"><rect codeLine="14" fill="#F1F1F1" height="113.9531" id="AnnouncementRequestController" rx="2.5" ry="2.5" style="stroke:#181818;stroke-width:0.5;" width="270" x="311" y="7"/><ellipse cx="329.6" cy="23" fill="#ADD1B2" rx="11" ry="11" style="stroke:#181818;stroke-width:1.0;"/><path d="M332.5731,28.6431 Q331.9921,28.9419 331.3529,29.0913 Q330.7138,29.2407 330.0082,29.2407 Q327.5014,29.2407 326.1815,27.5889 Q324.8617,25.937 324.8617,22.8159 Q324.8617,19.6865 326.1815,18.0347 Q327.5014,16.3828 330.0082,16.3828 Q330.7138,16.3828 331.3612,16.5322 Q332.0087,16.6816 332.5731,16.9805 L332.5731,19.7031 Q331.9423,19.1221 331.3488,18.8523 Q330.7553,18.5825 330.1244,18.5825 Q328.7797,18.5825 328.0949,19.6492 Q327.4101,20.7158 327.4101,22.8159 Q327.4101,24.9077 328.0949,25.9744 Q328.7797,27.041 330.1244,27.041 Q330.7553,27.041 331.3488,26.7712 Q331.9423,26.5015 332.5731,25.9204 Z " fill="#000000"/><text fill="#000000" font-family="sans-serif" font-size="14" lengthAdjust="spacing" textLength="230" x="344.4" y="28.291">AnnouncementRequestController</text><line style="stroke:#181818;stroke-width:0.5;" x1="312" x2="580" y1="39" y2="39"/><line style="stroke:#181818;stroke-width:0.5;" x1="312" x2="580" y1="47" y2="47"/><text fill="#000000" font-family="sans-serif" font-size="14" lengthAdjust="spacing" textLength="258" x="317" y="64.5352">+AnnouncementRequestsController()</text><text fill="#000000" font-family="sans-serif" font-size="14" lengthAdjust="spacing" textLength="194" x="317" y="81.0234">-getEmployeeFromSession()</text><text fill="#000000" font-family="sans-serif" font-size="14" lengthAdjust="spacing" textLength="146" x="317" y="97.5117">-Accept(commission)</text><text fill="#000000" font-family="sans-serif" font-size="14" lengthAdjust="spacing" textLength="106" x="317" y="114">-Reject(reason)</text></g><!--class ApplicationSession--><g id="elem_ApplicationSession"><rect codeLine="22" fill="#F1F1F1" height="80.9766" id="ApplicationSession" rx="2.5" ry="2.5" style="stroke:#181818;stroke-width:0.5;" width="162" x="7" y="198"/><ellipse cx="22" cy="214" fill="#ADD1B2" rx="11" ry="11" style="stroke:#181818;stroke-width:1.0;"/><path d="M24.9731,219.6431 Q24.3921,219.9419 23.7529,220.0913 Q23.1138,220.2407 22.4082,220.2407 Q19.9014,220.2407 18.5815,218.5889 Q17.2617,216.937 17.2617,213.8159 Q17.2617,210.6865 18.5815,209.0347 Q19.9014,207.3828 22.4082,207.3828 Q23.1138,207.3828 23.7612,207.5322 Q24.4087,207.6816 24.9731,207.9805 L24.9731,210.7031 Q24.3423,210.1221 23.7488,209.8523 Q23.1553,209.5825 22.5244,209.5825 Q21.1797,209.5825 20.4949,210.6492 Q19.8101,211.7158 19.8101,213.8159 Q19.8101,215.9077 20.4949,216.9744 Q21.1797,218.041 22.5244,218.041 Q23.1553,218.041 23.7488,217.7712 Q24.3423,217.5015 24.9731,216.9204 Z " fill="#000000"/><text fill="#000000" font-family="sans-serif" font-size="14" lengthAdjust="spacing" textLength="130" x="36" y="219.291">ApplicationSession</text><line style="stroke:#181818;stroke-width:0.5;" x1="8" x2="168" y1="230" y2="230"/><line style="stroke:#181818;stroke-width:0.5;" x1="8" x2="168" y1="238" y2="238"/><text fill="#000000" font-family="sans-serif" font-size="14" lengthAdjust="spacing" textLength="140" x="13" y="255.5352">+static getInstance()</text><text fill="#000000" font-family="sans-serif" font-size="14" lengthAdjust="spacing" textLength="148" x="13" y="272.0234">+getCurrentSession()</text></g><!--class UserSession--><g id="elem_UserSession"><rect codeLine="28" fill="#F1F1F1" height="64.4883" id="UserSession" rx="2.5" ry="2.5" style="stroke:#181818;stroke-width:0.5;" width="177" x="123.5" y="372.5"/><ellipse cx="166.4" cy="388.5" fill="#ADD1B2" rx="11" ry="11" style="stroke:#181818;stroke-width:1.0;"/><path d="M169.3731,394.1431 Q168.7921,394.4419 168.1529,394.5913 Q167.5138,394.7407 166.8082,394.7407 Q164.3014,394.7407 162.9815,393.0889 Q161.6617,391.437 161.6617,388.3159 Q161.6617,385.1865 162.9815,383.5347 Q164.3014,381.8828 166.8082,381.8828 Q167.5138,381.8828 168.1612,382.0322 Q168.8087,382.1816 169.3731,382.4805 L169.3731,385.2031 Q168.7423,384.6221 168.1488,384.3523 Q167.5553,384.0825 166.9244,384.0825 Q165.5797,384.0825 164.8949,385.1492 Q164.2101,386.2158 164.2101,388.3159 Q164.2101,390.4077 164.8949,391.4744 Q165.5797,392.541 166.9244,392.541 Q167.5553,392.541 168.1488,392.2712 Q168.7423,392.0015 169.3731,391.4204 Z " fill="#000000"/><text fill="#000000" font-family="sans-serif" font-size="14" lengthAdjust="spacing" textLength="83" x="186.6" y="393.791">UserSession</text><line style="stroke:#181818;stroke-width:0.5;" x1="124.5" x2="299.5" y1="404.5" y2="404.5"/><line style="stroke:#181818;stroke-width:0.5;" x1="124.5" x2="299.5" y1="412.5" y2="412.5"/><text fill="#000000" font-family="sans-serif" font-size="14" lengthAdjust="spacing" textLength="165" x="129.5" y="430.0352">+getUserNameByEmail()</text></g><!--class Repositories--><g id="elem_Repositories"><rect codeLine="34" fill="#F1F1F1" height="97.4648" id="Repositories" rx="2.5" ry="2.5" style="stroke:#181818;stroke-width:0.5;" width="233" x="692.5" y="15.5"/><ellipse cx="762.25" cy="31.5" fill="#ADD1B2" rx="11" ry="11" style="stroke:#181818;stroke-width:1.0;"/><path d="M765.2231,37.1431 Q764.6421,37.4419 764.0029,37.5913 Q763.3638,37.7407 762.6582,37.7407 Q760.1514,37.7407 758.8315,36.0889 Q757.5117,34.437 757.5117,31.3159 Q757.5117,28.1865 758.8315,26.5347 Q760.1514,24.8828 762.6582,24.8828 Q763.3638,24.8828 764.0112,25.0322 Q764.6587,25.1816 765.2231,25.4805 L765.2231,28.2031 Q764.5923,27.6221 763.9988,27.3523 Q763.4053,27.0825 762.7744,27.0825 Q761.4297,27.0825 760.7449,28.1492 Q760.0601,29.2158 760.0601,31.3159 Q760.0601,33.4077 760.7449,34.4744 Q761.4297,35.541 762.7744,35.541 Q763.4053,35.541 763.9988,35.2712 Q764.5923,35.0015 765.2231,34.4204 Z " fill="#000000"/><text fill="#000000" font-family="sans-serif" font-size="14" lengthAdjust="spacing" textLength="85" x="782.75" y="36.791">Repositories</text><line style="stroke:#181818;stroke-width:0.5;" x1="693.5" x2="924.5" y1="47.5" y2="47.5"/><line style="stroke:#181818;stroke-width:0.5;" x1="693.5" x2="924.5" y1="55.5" y2="55.5"/><text fill="#000000" font-family="sans-serif" font-size="14" lengthAdjust="spacing" textLength="103" x="698.5" y="73.0352">-Repositories()</text><text fill="#000000" font-family="sans-serif" font-size="14" lengthAdjust="spacing" textLength="197" x="698.5" y="89.5234">+getInstance() : Repositories</text><text fill="#000000" font-family="sans-serif" font-size="14" lengthAdjust="spacing" textLength="221" x="698.5" y="106.0117">+getAnnouncementRepository()</text></g><!--class AnnouncementRepository--><g id="elem_AnnouncementRepository"><rect codeLine="40" fill="#F1F1F1" height="80.9766" id="AnnouncementRepository" rx="2.5" ry="2.5" style="stroke:#181818;stroke-width:0.5;" width="222" x="358" y="198"/><ellipse cx="378.4" cy="214" fill="#ADD1B2" rx="11" ry="11" style="stroke:#181818;stroke-width:1.0;"/><path d="M381.3731,219.6431 Q380.7921,219.9419 380.1529,220.0913 Q379.5138,220.2407 378.8082,220.2407 Q376.3014,220.2407 374.9815,218.5889 Q373.6617,216.937 373.6617,213.8159 Q373.6617,210.6865 374.9815,209.0347 Q376.3014,207.3828 378.8082,207.3828 Q379.5138,207.3828 380.1612,207.5322 Q380.8087,207.6816 381.3731,207.9805 L381.3731,210.7031 Q380.7423,210.1221 380.1488,209.8523 Q379.5553,209.5825 378.9244,209.5825 Q377.5797,209.5825 376.8949,210.6492 Q376.2101,211.7158 376.2101,213.8159 Q376.2101,215.9077 376.8949,216.9744 Q377.5797,218.041 378.9244,218.041 Q379.5553,218.041 380.1488,217.7712 Q380.7423,217.5015 381.3731,216.9204 Z " fill="#000000"/><text fill="#000000" font-family="sans-serif" font-size="14" lengthAdjust="spacing" textLength="178" x="393.6" y="219.291">AnnouncementRepository</text><line style="stroke:#181818;stroke-width:0.5;" x1="359" x2="579" y1="230" y2="230"/><line style="stroke:#181818;stroke-width:0.5;" x1="359" x2="579" y1="238" y2="238"/><text fill="#000000" font-family="sans-serif" font-size="14" lengthAdjust="spacing" textLength="148" x="364" y="255.5352">+getAnnouncement()</text><text fill="#000000" font-family="sans-serif" font-size="14" lengthAdjust="spacing" textLength="210" x="364" y="272.0234">+getAnnouncementRequests()</text></g><!--class Announcement--><g id="elem_Announcement"><rect codeLine="46" fill="#F1F1F1" height="97.4648" id="Announcement" rx="2.5" ry="2.5" style="stroke:#181818;stroke-width:0.5;" width="137" x="400.5" y="356"/><ellipse cx="415.5" cy="372" fill="#ADD1B2" rx="11" ry="11" style="stroke:#181818;stroke-width:1.0;"/><path d="M418.4731,377.6431 Q417.8921,377.9419 417.2529,378.0913 Q416.6138,378.2407 415.9082,378.2407 Q413.4014,378.2407 412.0815,376.5889 Q410.7617,374.937 410.7617,371.8159 Q410.7617,368.6865 412.0815,367.0347 Q413.4014,365.3828 415.9082,365.3828 Q416.6138,365.3828 417.2612,365.5322 Q417.9087,365.6816 418.4731,365.9805 L418.4731,368.7031 Q417.8423,368.1221 417.2488,367.8523 Q416.6553,367.5825 416.0244,367.5825 Q414.6797,367.5825 413.9949,368.6492 Q413.3101,369.7158 413.3101,371.8159 Q413.3101,373.9077 413.9949,374.9744 Q414.6797,376.041 416.0244,376.041 Q416.6553,376.041 417.2488,375.7712 Q417.8423,375.5015 418.4731,374.9204 Z " fill="#000000"/><text fill="#000000" font-family="sans-serif" font-size="14" lengthAdjust="spacing" textLength="105" x="429.5" y="377.291">Announcement</text><line style="stroke:#181818;stroke-width:0.5;" x1="401.5" x2="536.5" y1="388" y2="388"/><text fill="#000000" font-family="sans-serif" font-size="14" lengthAdjust="spacing" textLength="49" x="406.5" y="405.5352">-status</text><text fill="#000000" font-family="sans-serif" font-size="14" lengthAdjust="spacing" textLength="38" x="406.5" y="422.0234">-date</text><text fill="#000000" font-family="sans-serif" font-size="14" lengthAdjust="spacing" textLength="90" x="406.5" y="438.5117">-commission</text><line style="stroke:#181818;stroke-width:0.5;" x1="401.5" x2="536.5" y1="445.4648" y2="445.4648"/></g><!--class Property--><g id="elem_Property"><rect codeLine="52" fill="#F1F1F1" height="130.4414" id="Property" rx="2.5" ry="2.5" style="stroke:#181818;stroke-width:0.5;" width="261" x="502.5" y="578"/><ellipse cx="599.75" cy="594" fill="#ADD1B2" rx="11" ry="11" style="stroke:#181818;stroke-width:1.0;"/><path d="M602.7231,599.6431 Q602.1421,599.9419 601.5029,600.0913 Q600.8638,600.2407 600.1582,600.2407 Q597.6514,600.2407 596.3315,598.5889 Q595.0117,596.937 595.0117,593.8159 Q595.0117,590.6865 596.3315,589.0347 Q597.6514,587.3828 600.1582,587.3828 Q600.8638,587.3828 601.5112,587.5322 Q602.1587,587.6816 602.7231,587.9805 L602.7231,590.7031 Q602.0923,590.1221 601.4988,589.8523 Q600.9053,589.5825 600.2744,589.5825 Q598.9297,589.5825 598.2449,590.6492 Q597.5601,591.7158 597.5601,593.8159 Q597.5601,595.9077 598.2449,596.9744 Q598.9297,598.041 600.2744,598.041 Q600.9053,598.041 601.4988,597.7712 Q602.0923,597.5015 602.7231,596.9204 Z " fill="#000000"/><text fill="#000000" font-family="sans-serif" font-size="14" lengthAdjust="spacing" textLength="58" x="620.25" y="599.291">Property</text><line style="stroke:#181818;stroke-width:0.5;" x1="503.5" x2="762.5" y1="610" y2="610"/><text fill="#000000" font-family="sans-serif" font-size="14" lengthAdjust="spacing" textLength="112" x="508.5" y="627.5352">-String Business</text><text fill="#000000" font-family="sans-serif" font-size="14" lengthAdjust="spacing" textLength="70" x="508.5" y="644.0234">-float size</text><text fill="#000000" font-family="sans-serif" font-size="14" lengthAdjust="spacing" textLength="249" x="508.5" y="660.5117">-float distance_from_the_city_center</text><text fill="#000000" font-family="sans-serif" font-size="14" lengthAdjust="spacing" textLength="77" x="508.5" y="677">-float price</text><text fill="#000000" font-family="sans-serif" font-size="14" lengthAdjust="spacing" textLength="160" x="508.5" y="693.4883">-numberOfMonthsRent</text><line style="stroke:#181818;stroke-width:0.5;" x1="503.5" x2="762.5" y1="700.4414" y2="700.4414"/></g><!--class Agent--><g id="elem_Agent"><rect codeLine="62" fill="#F1F1F1" height="196.3945" id="Agent" rx="2.5" ry="2.5" style="stroke:#181818;stroke-width:0.5;" width="232" x="235" y="545"/><ellipse cx="326.25" cy="561" fill="#ADD1B2" rx="11" ry="11" style="stroke:#181818;stroke-width:1.0;"/><path d="M329.2231,566.6431 Q328.6421,566.9419 328.0029,567.0913 Q327.3638,567.2407 326.6582,567.2407 Q324.1514,567.2407 322.8315,565.5889 Q321.5117,563.937 321.5117,560.8159 Q321.5117,557.6865 322.8315,556.0347 Q324.1514,554.3828 326.6582,554.3828 Q327.3638,554.3828 328.0112,554.5322 Q328.6587,554.6816 329.2231,554.9805 L329.2231,557.7031 Q328.5923,557.1221 327.9988,556.8523 Q327.4053,556.5825 326.7744,556.5825 Q325.4297,556.5825 324.7449,557.6492 Q324.0601,558.7158 324.0601,560.8159 Q324.0601,562.9077 324.7449,563.9744 Q325.4297,565.041 326.7744,565.041 Q327.4053,565.041 327.9988,564.7712 Q328.5923,564.5015 329.2231,563.9204 Z " fill="#000000"/><text fill="#000000" font-family="sans-serif" font-size="14" lengthAdjust="spacing" textLength="41" x="346.75" y="566.291">Agent</text><line style="stroke:#181818;stroke-width:0.5;" x1="236" x2="466" y1="577" y2="577"/><text fill="#000000" font-family="sans-serif" font-size="14" lengthAdjust="spacing" textLength="112" x="241" y="594.5352">-string passport</text><text fill="#000000" font-family="sans-serif" font-size="14" lengthAdjust="spacing" textLength="107" x="241" y="611.0234">-int taxNumber</text><text fill="#000000" font-family="sans-serif" font-size="14" lengthAdjust="spacing" textLength="106" x="241" y="627.5117">-string address</text><text fill="#000000" font-family="sans-serif" font-size="14" lengthAdjust="spacing" textLength="129" x="241" y="644">-int phoneNumber</text><text fill="#000000" font-family="sans-serif" font-size="14" lengthAdjust="spacing" textLength="100" x="241" y="660.4883">-string agency</text><text fill="#000000" font-family="sans-serif" font-size="14" lengthAdjust="spacing" textLength="89" x="241" y="676.9766">-string email</text><line style="stroke:#181818;stroke-width:0.5;" x1="236" x2="466" y1="683.9297" y2="683.9297"/><text fill="#000000" font-family="sans-serif" font-size="14" lengthAdjust="spacing" textLength="220" x="241" y="701.4648">+ViewAnnouncementRequests()</text><text fill="#000000" font-family="sans-serif" font-size="14" lengthAdjust="spacing" textLength="67" x="241" y="717.9531">+Accept()</text><text fill="#000000" font-family="sans-serif" font-size="14" lengthAdjust="spacing" textLength="62" x="241" y="734.4414">+Reject()</text></g><!--class NotificationService--><g id="elem_NotificationService"><rect codeLine="75" fill="#F1F1F1" height="64.4883" id="NotificationService" rx="2.5" ry="2.5" style="stroke:#181818;stroke-width:0.5;" width="261" x="686.5" y="206.5"/><ellipse cx="749.25" cy="222.5" fill="#ADD1B2" rx="11" ry="11" style="stroke:#181818;stroke-width:1.0;"/><path d="M752.2231,228.1431 Q751.6421,228.4419 751.0029,228.5913 Q750.3638,228.7407 749.6582,228.7407 Q747.1514,228.7407 745.8315,227.0889 Q744.5117,225.437 744.5117,222.3159 Q744.5117,219.1865 745.8315,217.5347 Q747.1514,215.8828 749.6582,215.8828 Q750.3638,215.8828 751.0112,216.0322 Q751.6587,216.1816 752.2231,216.4805 L752.2231,219.2031 Q751.5923,218.6221 750.9988,218.3523 Q750.4053,218.0825 749.7744,218.0825 Q748.4297,218.0825 747.7449,219.1492 Q747.0601,220.2158 747.0601,222.3159 Q747.0601,224.4077 747.7449,225.4744 Q748.4297,226.541 749.7744,226.541 Q750.4053,226.541 750.9988,226.2712 Q751.5923,226.0015 752.2231,225.4204 Z " fill="#000000"/><text fill="#000000" font-family="sans-serif" font-size="14" lengthAdjust="spacing" textLength="127" x="769.75" y="227.791">NotificationService</text><line style="stroke:#181818;stroke-width:0.5;" x1="687.5" x2="946.5" y1="238.5" y2="238.5"/><line style="stroke:#181818;stroke-width:0.5;" x1="687.5" x2="946.5" y1="246.5" y2="246.5"/><text fill="#000000" font-family="sans-serif" font-size="14" lengthAdjust="spacing" textLength="249" x="692.5" y="264.0352">+SendEmailRejection(owner,reason)</text></g><!--link Repositories to Repositories--><g id="link_Repositories_Repositories"><path codeLine="83" d="M925.88,47.21 C946.3,49.45 960.5,55.05 960.5,64 C960.5,72.11 948.84,77.47 931.45,80.07 " fill="none" id="Repositories-to-Repositories" style="stroke:#181818;stroke-width:1.0;"/><polygon fill="#181818" points="926.88,80.79,936.3117,83.6261,931.8403,80.161,935.3053,75.6896,926.88,80.79" style="stroke:#181818;stroke-width:1.0;"/><text fill="#000000" font-family="sans-serif" font-size="13" lengthAdjust="spacing" textLength="53" x="966.5" y="69.0684">instance</text></g><!--link ApplicationSession to ApplicationSession--><g id="link_ApplicationSession_ApplicationSession"><path codeLine="84" d="M169.31,223.92 C189.2,225 204,229.86 204,238.5 C204,246.26 192.05,250.97 175.2,252.63 " fill="none" id="ApplicationSession-to-ApplicationSession" style="stroke:#181818;stroke-width:1.0;"/><polygon fill="#181818" points="170.31,253.08,179.5917,256.3739,175.2951,252.6943,178.9747,248.3977,170.31,253.08" style="stroke:#181818;stroke-width:1.0;"/><text fill="#000000" font-family="sans-serif" font-size="13" lengthAdjust="spacing" textLength="53" x="210" y="243.5684">instance</text></g><!--link AnnouncementRequestController to Repositories--><g id="link_AnnouncementRequestController_Repositories"><path codeLine="85" d="M581.43,64 C615.8,64 652.54,64 686.25,64 " fill="none" id="AnnouncementRequestController-to-Repositories" style="stroke:#181818;stroke-width:1.0;stroke-dasharray:7.0,7.0;"/><polygon fill="#181818" points="691.07,64,682.07,60,686.07,64,682.07,68,691.07,64" style="stroke:#181818;stroke-width:1.0;"/><text fill="#000000" font-family="sans-serif" font-size="13" lengthAdjust="spacing" textLength="75" x="599.25" y="57.5684">repositories</text></g><!--link ApplicationSession to UserSession--><g id="link_ApplicationSession_UserSession"><path codeLine="88" d="M118.02,279.2 C138.33,306.06 164.94,341.26 184.66,367.35 " fill="none" id="ApplicationSession-to-UserSession" style="stroke:#181818;stroke-width:1.0;"/><polygon fill="#181818" points="188.26,371.11,186.0216,361.5189,185.244,367.122,179.6409,366.3445,188.26,371.11" style="stroke:#181818;stroke-width:1.0;"/><text fill="#000000" font-family="sans-serif" font-size="13" lengthAdjust="spacing" textLength="75" x="151" y="322.5684">userSession</text><text fill="#000000" font-family="sans-serif" font-size="13" lengthAdjust="spacing" textLength="8" x="174.7987" y="361.8075">1</text></g><!--link AnnouncementRequestController to NotificationService--><g id="link_AnnouncementRequestController_NotificationService"><path codeLine="90" d="M581.5,119.71 C623.51,136.67 659,151 659,151 C659,151 710.3,179.09 754.44,203.25 " fill="none" id="AnnouncementRequestController-to-NotificationService" style="stroke:#181818;stroke-width:1.0;stroke-dasharray:7.0,7.0;"/><polygon fill="#181818" points="758.51,206.03,752.5351,198.2006,754.1238,203.6297,748.6946,205.2185,758.51,206.03" style="stroke:#181818;stroke-width:1.0;"/><text fill="#000000" font-family="sans-serif" font-size="13" lengthAdjust="spacing" textLength="119" x="690" y="164.5684">NotificationService</text></g><!--link AnnouncementRequestController to ApplicationSession--><g id="link_AnnouncementRequestController_ApplicationSession"><path codeLine="92" d="M328.78,121.48 C278.51,145.7 220.84,173.49 174.54,195.8 " fill="none" id="AnnouncementRequestController-to-ApplicationSession" style="stroke:#181818;stroke-width:1.0;stroke-dasharray:7.0,7.0;"/><polygon fill="#181818" points="170.24,198.36,180.084,198.0512,174.7431,196.1871,176.6073,190.8462,170.24,198.36" style="stroke:#181818;stroke-width:1.0;"/></g><!--link AnnouncementRequestController to UserSession--><g id="link_AnnouncementRequestController_UserSession"><path codeLine="93" d="M401.05,121.4 C372.16,157.65 340,198 340,198 C340,198 271.17,308.5 234.46,367.44 " fill="none" id="AnnouncementRequestController-to-UserSession" style="stroke:#181818;stroke-width:1.0;stroke-dasharray:7.0,7.0;"/><polygon fill="#181818" points="231.44,371.29,239.5936,365.7657,234.0836,367.046,232.8032,361.5359,231.44,371.29" style="stroke:#181818;stroke-width:1.0;"/></g><!--link AnnouncementRequestUI to AnnouncementRequestController--><g id="link_AnnouncementRequestUI_AnnouncementRequestController"><path codeLine="95" d="M276.27,64 C283.89,64 294.23,64 304.91,64 " fill="none" id="AnnouncementRequestUI-to-AnnouncementRequestController" style="stroke:#181818;stroke-width:1.0;stroke-dasharray:7.0,7.0;"/><polygon fill="#181818" points="309.87,64,300.87,60,304.87,64,300.87,68,309.87,64" style="stroke:#181818;stroke-width:1.0;"/></g><!--link AnnouncementRequestController to Property--><g id="link_AnnouncementRequestController_Property"><path codeLine="97" d="M554.22,121.4 C585.32,137.61 611,151 611,151 C611,151 623.76,435.82 629.85,571.6 " fill="none" id="AnnouncementRequestController-to-Property" style="stroke:#181818;stroke-width:1.0;stroke-dasharray:7.0,7.0;"/><polygon fill="#181818" points="630.11,576.56,633.6948,567.3867,629.8817,571.5652,625.7032,567.7521,630.11,576.56" style="stroke:#181818;stroke-width:1.0;"/></g><!--link AnnouncementRequestController to AnnouncementRepository--><g id="link_AnnouncementRequestController_AnnouncementRepository"><path codeLine="99" d="M444.03,121.4 C443.47,137.61 443,151 443,151 C443,151 443,168 443,168 C443,168 447.16,179.12 452.15,192.47 " fill="none" id="AnnouncementRequestController-to-AnnouncementRepository" style="stroke:#181818;stroke-width:1.0;stroke-dasharray:7.0,7.0;"/><polygon fill="#181818" points="454.18,196.88,454.7553,187.048,452.4197,192.2001,447.2675,189.8645,454.18,196.88" style="stroke:#181818;stroke-width:1.0;"/><text fill="#000000" font-family="sans-serif" font-size="13" lengthAdjust="spacing" textLength="162" x="444" y="164.5684">AnnouncementRepository</text></g><!--link AnnouncementRepository to Announcement--><g id="link_AnnouncementRepository_Announcement"><path codeLine="101" d="M469,279.2 C469,300.44 469,326.88 469,349.92 " fill="none" id="AnnouncementRepository-to-Announcement" style="stroke:#181818;stroke-width:1.0;"/><polygon fill="#181818" points="469,354.7,473,345.7,469,349.7,465,345.7,469,354.7" style="stroke:#181818;stroke-width:1.0;"/><text fill="#000000" font-family="sans-serif" font-size="13" lengthAdjust="spacing" textLength="6" x="462.5781" y="345.3403">*</text></g><!--link Announcement to Property--><g id="link_Announcement_Property"><path codeLine="103" d="M502.19,453.36 C526.02,487.73 558.51,534.57 585.14,572.98 " fill="none" id="Announcement-to-Property" style="stroke:#181818;stroke-width:1.0;"/><polygon fill="#181818" points="588.36,576.62,586.5346,566.9418,585.5177,572.5065,579.953,571.4895,588.36,576.62" style="stroke:#181818;stroke-width:1.0;"/><text fill="#000000" font-family="sans-serif" font-size="13" lengthAdjust="spacing" textLength="53" x="542" y="504.0684">property</text><text fill="#000000" font-family="sans-serif" font-size="13" lengthAdjust="spacing" textLength="8" x="498.4773" y="474.1949">1</text><text fill="#000000" font-family="sans-serif" font-size="13" lengthAdjust="spacing" textLength="8" x="575.04" y="567.21">1</text></g><!--link Announcement to Agent--><g id="link_Announcement_Agent"><path codeLine="105" d="M400.28,453.48 C377.57,469.33 358,483 358,483 C358,483 356.88,508.55 355.53,539.16 " fill="none" id="Announcement-to-Agent" style="stroke:#181818;stroke-width:1.0;"/><polygon fill="#181818" points="355.27,543.93,359.6528,535.1101,355.4847,538.9346,351.6602,534.7665,355.27,543.93" style="stroke:#181818;stroke-width:1.0;"/><text fill="#000000" font-family="sans-serif" font-size="13" lengthAdjust="spacing" textLength="126" x="366.5" y="496.5684">publishedBy/seenBy</text><text fill="#000000" font-family="sans-serif" font-size="13" lengthAdjust="spacing" textLength="141" x="359" y="511.8789">acceptedBy/rejectedBy</text></g><!--SRC=[ZLHDRzim3BthLmYz95kMVLnxAD0K7P33kY51TXeGA38JQvKbJPBNUSN- -oXPZkr6IEEJHJwIJ-IZ9kvHACCigsYbbUQbrHLGRsiWlSSm_iWEiFQD16g1UwOESWXm9Ilqar07kcVI3JrIAF2D0MgqRCA1J39ERRqcWoWkcNEttbkngpqikLPhyHVeHq8c4lQUUasjE9IU5YBG4LeH4cFehLAwLXmgK7u5lsfmVhDy9l_E-E-qybPB2PO-4uhVB8ToFMpw9iBcz03-lZ9IDm2ViMzhS0wf7Dstd8FnKwwhIaHFSgpW9vAUMc0ks0RaZ962it2Vb8jqZ9n7CmyLbmh_aLigCmkskzfQfDeJEARSEB0lSs50C3-m2XRDVSM4R2DIo0gCTi9hAy2bZin7nc7bdWsz7e5woBYP2T4CIUOHYUwB35tnayJjb98xdxkxJ6XcxTAXO1xQttvGVVWtgmrO7ydCroX8rFYYTYXS5nBCzr8pJnsgipyLekt9Te-YsFeIjbpuPikH0TWUPgpWCKhLrGxir_qNL5ZfLWYBq-WkS413DmVNCZ3eCBWqhL6WtxC_3p7D2CUAmhP44yoKMa4EY4LuCp9144RRw-y2diuqUvQ4dav9taDXFsWlzaTbszzuyVP225-3Ag88sxYWN_samBxhzYFsWf2HBEStOvbUKv64I4wNAA0prc7CsLVX_KanEnGwoPR4cbUVheRxXt7rO1jVAufLCst391dh9SaoZylhGPjN26-MeJjdyrp2hTkoY-wHVIomBtd7ovJ7W3YXjrUZi34u3h0RP4Vn6lSsHpO2srr5IBsJmfLGB9eF3a0jcX-AnIM99XkL7dx9Vm00]--></g></svg>