<?xml version="1.0" encoding="us-ascii" standalone="no"?><svg xmlns="http://www.w3.org/2000/svg" xmlns:xlink="http://www.w3.org/1999/xlink" contentStyleType="text/css" height="1928px" preserveAspectRatio="none" style="width:1855px;height:1928px;background:#FFFFFF;" version="1.1" viewBox="0 0 1855 1928" width="1855px" zoomAndPan="magnify"><defs/><g><rect fill="#FFFFFF" height="1738.0352" style="stroke:#181818;stroke-width:1.0;" width="10" x="38.5" y="91.4883"/><rect fill="#FFFFFF" height="1716.7246" style="stroke:#181818;stroke-width:1.0;" width="10" x="371.5" y="112.7988"/><rect fill="#FFFFFF" height="1696.4141" style="stroke:#181818;stroke-width:1.0;" width="10" x="608.5" y="142.1094"/><rect fill="#FFFFFF" height="29.3105" style="stroke:#181818;stroke-width:1.0;" width="10" x="985.5" y="213.7305"/><rect fill="#FFFFFF" height="29.3105" style="stroke:#181818;stroke-width:1.0;" width="10" x="1143.5" y="272.3516"/><rect fill="#FFFFFF" height="29.3105" style="stroke:#181818;stroke-width:1.0;" width="10" x="1285.5" y="330.9727"/><rect fill="#FFFFFF" height="29.3105" style="stroke:#181818;stroke-width:1.0;" width="10" x="1405" y="431.9043"/><rect fill="#FFFFFF" height="29.3105" style="stroke:#181818;stroke-width:1.0;" width="10" x="1405" y="490.5254"/><rect fill="#FFFFFF" height="29.3105" style="stroke:#181818;stroke-width:1.0;" width="10" x="1405" y="1055.4258"/><rect fill="#FFFFFF" height="29.3105" style="stroke:#181818;stroke-width:1.0;" width="10" x="1405" y="1490.418"/><rect fill="#FFFFFF" height="29.3105" style="stroke:#181818;stroke-width:1.0;" width="10" x="1564.5" y="549.1465"/><rect fill="#FFFFFF" height="29.3105" style="stroke:#181818;stroke-width:1.0;" width="10" x="1564.5" y="767.3203"/><rect fill="#FFFFFF" height="113.9316" style="stroke:#181818;stroke-width:1.0;" width="10" x="1564.5" y="1156.3574"/><rect fill="#FFFFFF" height="172.5527" style="stroke:#181818;stroke-width:1.0;" width="10" x="1564.5" y="1591.3496"/><rect fill="#FFFFFF" height="29.3105" style="stroke:#181818;stroke-width:1.0;" width="10" x="1760.5" y="1705.2813"/><rect fill="none" height="901.6504" style="stroke:#000000;stroke-width:1.5;" width="1838" x="10" y="899.5625"/><line style="stroke:#181818;stroke-width:0.5;stroke-dasharray:5.0,5.0;" x1="43" x2="43" y1="81.4883" y2="1847.5234"/><line style="stroke:#181818;stroke-width:0.5;stroke-dasharray:5.0,5.0;" x1="376" x2="376" y1="81.4883" y2="1847.5234"/><line style="stroke:#181818;stroke-width:0.5;stroke-dasharray:5.0,5.0;" x1="613" x2="613" y1="81.4883" y2="1847.5234"/><line style="stroke:#181818;stroke-width:0.5;stroke-dasharray:5.0,5.0;" x1="990.5" x2="990.5" y1="81.4883" y2="1847.5234"/><line style="stroke:#181818;stroke-width:0.5;stroke-dasharray:5.0,5.0;" x1="1148.5" x2="1148.5" y1="81.4883" y2="1847.5234"/><line style="stroke:#181818;stroke-width:0.5;stroke-dasharray:5.0,5.0;" x1="1290.5" x2="1290.5" y1="81.4883" y2="1847.5234"/><line style="stroke:#181818;stroke-width:0.5;stroke-dasharray:5.0,5.0;" x1="1409.5" x2="1409.5" y1="81.4883" y2="1847.5234"/><line style="stroke:#181818;stroke-width:0.5;stroke-dasharray:5.0,5.0;" x1="1569.5" x2="1569.5" y1="81.4883" y2="1847.5234"/><line style="stroke:#181818;stroke-width:0.5;stroke-dasharray:5.0,5.0;" x1="1765" x2="1765" y1="81.4883" y2="1847.5234"/><text fill="#000000" font-family="sans-serif" font-size="14" lengthAdjust="spacing" textLength="41" x="20" y="78.5352">Agent</text><ellipse cx="43.5" cy="13.5" fill="#E3E3E3" rx="8" ry="8" style="stroke:#181818;stroke-width:0.5;"/><path d="M43.5,21.5 L43.5,48.5 M30.5,29.5 L56.5,29.5 M43.5,48.5 L30.5,63.5 M43.5,48.5 L56.5,63.5 " fill="none" style="stroke:#181818;stroke-width:0.5;"/><text fill="#000000" font-family="sans-serif" font-size="14" lengthAdjust="spacing" textLength="41" x="20" y="1860.0586">Agent</text><ellipse cx="43.5" cy="1871.5117" fill="#E3E3E3" rx="8" ry="8" style="stroke:#181818;stroke-width:0.5;"/><path d="M43.5,1879.5117 L43.5,1906.5117 M30.5,1887.5117 L56.5,1887.5117 M43.5,1906.5117 L30.5,1921.5117 M43.5,1906.5117 L56.5,1921.5117 " fill="none" style="stroke:#181818;stroke-width:0.5;"/><rect fill="#E3E3E3" height="30.4883" rx="2.5" ry="2.5" style="stroke:#181818;stroke-width:0.5;" width="199" x="277" y="50"/><text fill="#000000" font-family="sans-serif" font-size="14" lengthAdjust="spacing" textLength="185" x="284" y="70.5352">:AnnouncementRequestsUI</text><rect fill="#E3E3E3" height="30.4883" rx="2.5" ry="2.5" style="stroke:#181818;stroke-width:0.5;" width="199" x="277" y="1846.5234"/><text fill="#000000" font-family="sans-serif" font-size="14" lengthAdjust="spacing" textLength="185" x="284" y="1867.0586">:AnnouncementRequestsUI</text><rect fill="#E3E3E3" height="30.4883" rx="2.5" ry="2.5" style="stroke:#181818;stroke-width:0.5;" width="255" x="486" y="50"/><text fill="#000000" font-family="sans-serif" font-size="14" lengthAdjust="spacing" textLength="241" x="493" y="70.5352">:AnnouncementRequestsController</text><rect fill="#E3E3E3" height="30.4883" rx="2.5" ry="2.5" style="stroke:#181818;stroke-width:0.5;" width="255" x="486" y="1846.5234"/><text fill="#000000" font-family="sans-serif" font-size="14" lengthAdjust="spacing" textLength="241" x="493" y="1867.0586">:AnnouncementRequestsController</text><rect fill="#E3E3E3" height="30.4883" rx="2.5" ry="2.5" style="stroke:#181818;stroke-width:0.5;" width="148" x="916.5" y="50"/><text fill="#000000" font-family="sans-serif" font-size="14" lengthAdjust="spacing" textLength="134" x="923.5" y="70.5352">:ApplicationSession</text><rect fill="#E3E3E3" height="30.4883" rx="2.5" ry="2.5" style="stroke:#181818;stroke-width:0.5;" width="148" x="916.5" y="1846.5234"/><text fill="#000000" font-family="sans-serif" font-size="14" lengthAdjust="spacing" textLength="134" x="923.5" y="1867.0586">:ApplicationSession</text><rect fill="#E3E3E3" height="46.9766" rx="2.5" ry="2.5" style="stroke:#181818;stroke-width:0.5;" width="148" x="1074.5" y="33.5117"/><text fill="#000000" font-family="sans-serif" font-size="14" lengthAdjust="spacing" textLength="78" x="1109.5" y="54.0469">appSession</text><text fill="#000000" font-family="sans-serif" font-size="14" lengthAdjust="spacing" textLength="134" x="1081.5" y="70.5352">:ApplicationSession</text><rect fill="#E3E3E3" height="46.9766" rx="2.5" ry="2.5" style="stroke:#181818;stroke-width:0.5;" width="148" x="1074.5" y="1846.5234"/><text fill="#000000" font-family="sans-serif" font-size="14" lengthAdjust="spacing" textLength="78" x="1109.5" y="1867.0586">appSession</text><text fill="#000000" font-family="sans-serif" font-size="14" lengthAdjust="spacing" textLength="134" x="1081.5" y="1883.5469">:ApplicationSession</text><rect fill="#E3E3E3" height="46.9766" rx="2.5" ry="2.5" style="stroke:#181818;stroke-width:0.5;" width="116" x="1232.5" y="33.5117"/><text fill="#000000" font-family="sans-serif" font-size="14" lengthAdjust="spacing" textLength="102" x="1239.5" y="54.0469">currentSession</text><text fill="#000000" font-family="sans-serif" font-size="14" lengthAdjust="spacing" textLength="87" x="1247" y="70.5352">:UserSession</text><rect fill="#E3E3E3" height="46.9766" rx="2.5" ry="2.5" style="stroke:#181818;stroke-width:0.5;" width="116" x="1232.5" y="1846.5234"/><text fill="#000000" font-family="sans-serif" font-size="14" lengthAdjust="spacing" textLength="102" x="1239.5" y="1867.0586">currentSession</text><text fill="#000000" font-family="sans-serif" font-size="14" lengthAdjust="spacing" textLength="87" x="1247" y="1883.5469">:UserSession</text><rect fill="#E3E3E3" height="46.9766" rx="2.5" ry="2.5" style="stroke:#181818;stroke-width:0.5;" width="103" x="1358.5" y="33.5117"/><text fill="#000000" font-family="sans-serif" font-size="14" lengthAdjust="spacing" textLength="82" x="1369" y="54.0469">repositories</text><text fill="#000000" font-family="sans-serif" font-size="14" lengthAdjust="spacing" textLength="89" x="1365.5" y="70.5352">:Repositories</text><rect fill="#E3E3E3" height="46.9766" rx="2.5" ry="2.5" style="stroke:#181818;stroke-width:0.5;" width="103" x="1358.5" y="1846.5234"/><text fill="#000000" font-family="sans-serif" font-size="14" lengthAdjust="spacing" textLength="82" x="1369" y="1867.0586">repositories</text><text fill="#000000" font-family="sans-serif" font-size="14" lengthAdjust="spacing" textLength="89" x="1365.5" y="1883.5469">:Repositories</text><rect fill="#E3E3E3" height="30.4883" rx="2.5" ry="2.5" style="stroke:#181818;stroke-width:0.5;" width="196" x="1471.5" y="50"/><text fill="#000000" font-family="sans-serif" font-size="14" lengthAdjust="spacing" textLength="182" x="1478.5" y="70.5352">:AnnouncementRepository</text><rect fill="#E3E3E3" height="30.4883" rx="2.5" ry="2.5" style="stroke:#181818;stroke-width:0.5;" width="196" x="1471.5" y="1846.5234"/><text fill="#000000" font-family="sans-serif" font-size="14" lengthAdjust="spacing" textLength="182" x="1478.5" y="1867.0586">:AnnouncementRepository</text><rect fill="#E3E3E3" height="46.9766" rx="2.5" ry="2.5" style="stroke:#181818;stroke-width:0.5;" width="145" x="1693" y="33.5117"/><text fill="#000000" font-family="sans-serif" font-size="14" lengthAdjust="spacing" textLength="126" x="1702.5" y="54.0469">notificationService</text><text fill="#000000" font-family="sans-serif" font-size="14" lengthAdjust="spacing" textLength="131" x="1700" y="70.5352">:NotificationService</text><rect fill="#E3E3E3" height="46.9766" rx="2.5" ry="2.5" style="stroke:#181818;stroke-width:0.5;" width="145" x="1693" y="1846.5234"/><text fill="#000000" font-family="sans-serif" font-size="14" lengthAdjust="spacing" textLength="126" x="1702.5" y="1867.0586">notificationService</text><text fill="#000000" font-family="sans-serif" font-size="14" lengthAdjust="spacing" textLength="131" x="1700" y="1883.5469">:NotificationService</text><rect fill="#FFFFFF" height="1738.0352" style="stroke:#181818;stroke-width:1.0;" width="10" x="38.5" y="91.4883"/><rect fill="#FFFFFF" height="1716.7246" style="stroke:#181818;stroke-width:1.0;" width="10" x="371.5" y="112.7988"/><rect fill="#FFFFFF" height="1696.4141" style="stroke:#181818;stroke-width:1.0;" width="10" x="608.5" y="142.1094"/><rect fill="#FFFFFF" height="29.3105" style="stroke:#181818;stroke-width:1.0;" width="10" x="985.5" y="213.7305"/><rect fill="#FFFFFF" height="29.3105" style="stroke:#181818;stroke-width:1.0;" width="10" x="1143.5" y="272.3516"/><rect fill="#FFFFFF" height="29.3105" style="stroke:#181818;stroke-width:1.0;" width="10" x="1285.5" y="330.9727"/><rect fill="#FFFFFF" height="29.3105" style="stroke:#181818;stroke-width:1.0;" width="10" x="1405" y="431.9043"/><rect fill="#FFFFFF" height="29.3105" style="stroke:#181818;stroke-width:1.0;" width="10" x="1405" y="490.5254"/><rect fill="#FFFFFF" height="29.3105" style="stroke:#181818;stroke-width:1.0;" width="10" x="1405" y="1055.4258"/><rect fill="#FFFFFF" height="29.3105" style="stroke:#181818;stroke-width:1.0;" width="10" x="1405" y="1490.418"/><rect fill="#FFFFFF" height="29.3105" style="stroke:#181818;stroke-width:1.0;" width="10" x="1564.5" y="549.1465"/><rect fill="#FFFFFF" height="29.3105" style="stroke:#181818;stroke-width:1.0;" width="10" x="1564.5" y="767.3203"/><rect fill="#FFFFFF" height="113.9316" style="stroke:#181818;stroke-width:1.0;" width="10" x="1564.5" y="1156.3574"/><rect fill="#FFFFFF" height="172.5527" style="stroke:#181818;stroke-width:1.0;" width="10" x="1564.5" y="1591.3496"/><rect fill="#FFFFFF" height="29.3105" style="stroke:#181818;stroke-width:1.0;" width="10" x="1760.5" y="1705.2813"/><polygon fill="#181818" points="359.5,108.7988,369.5,112.7988,359.5,116.7988,363.5,112.7988" style="stroke:#181818;stroke-width:1.0;"/><line style="stroke:#181818;stroke-width:1.0;" x1="48.5" x2="365.5" y1="112.7988" y2="112.7988"/><text fill="#000000" font-family="sans-serif" font-size="13" font-weight="bold" lengthAdjust="spacing" textLength="9" x="55.5" y="108.0566">1</text><text fill="#000000" font-family="sans-serif" font-size="13" lengthAdjust="spacing" textLength="250" x="68.5" y="108.0566">asks to see the announcement requests</text><polygon fill="#181818" points="596.5,138.1094,606.5,142.1094,596.5,146.1094,600.5,142.1094" style="stroke:#181818;stroke-width:1.0;"/><line style="stroke:#181818;stroke-width:1.0;" x1="381.5" x2="602.5" y1="142.1094" y2="142.1094"/><text fill="#000000" font-family="sans-serif" font-size="13" font-weight="bold" lengthAdjust="spacing" textLength="9" x="388.5" y="137.3672">2</text><text fill="#000000" font-family="sans-serif" font-size="13" lengthAdjust="spacing" textLength="180" x="401.5" y="137.3672">getAnnouncementRequests()</text><line style="stroke:#181818;stroke-width:1.0;" x1="618.5" x2="660.5" y1="171.4199" y2="171.4199"/><line style="stroke:#181818;stroke-width:1.0;" x1="660.5" x2="660.5" y1="171.4199" y2="184.4199"/><line style="stroke:#181818;stroke-width:1.0;" x1="619.5" x2="660.5" y1="184.4199" y2="184.4199"/><polygon fill="#181818" points="629.5,180.4199,619.5,184.4199,629.5,188.4199,625.5,184.4199" style="stroke:#181818;stroke-width:1.0;"/><text fill="#000000" font-family="sans-serif" font-size="13" font-weight="bold" lengthAdjust="spacing" textLength="9" x="625.5" y="166.6777">3</text><text fill="#000000" font-family="sans-serif" font-size="13" lengthAdjust="spacing" textLength="168" x="638.5" y="166.6777">getEmployeeFromSession()</text><polygon fill="#181818" points="973.5,209.7305,983.5,213.7305,973.5,217.7305,977.5,213.7305" style="stroke:#181818;stroke-width:1.0;"/><line style="stroke:#181818;stroke-width:1.0;" x1="618.5" x2="979.5" y1="213.7305" y2="213.7305"/><text fill="#000000" font-family="sans-serif" font-size="13" font-weight="bold" lengthAdjust="spacing" textLength="9" x="625.5" y="208.9883">4</text><text fill="#000000" font-family="sans-serif" font-size="13" lengthAdjust="spacing" textLength="81" x="638.5" y="208.9883">getInstance()</text><polygon fill="#181818" points="629.5,239.041,619.5,243.041,629.5,247.041,625.5,243.041" style="stroke:#181818;stroke-width:1.0;"/><line style="stroke:#181818;stroke-width:1.0;" x1="623.5" x2="989.5" y1="243.041" y2="243.041"/><text fill="#000000" font-family="sans-serif" font-size="13" font-weight="bold" lengthAdjust="spacing" textLength="9" x="635.5" y="238.2988">5</text><text fill="#000000" font-family="sans-serif" font-size="13" lengthAdjust="spacing" textLength="71" x="648.5" y="238.2988">appSession</text><polygon fill="#181818" points="1131.5,268.3516,1141.5,272.3516,1131.5,276.3516,1135.5,272.3516" style="stroke:#181818;stroke-width:1.0;"/><line style="stroke:#181818;stroke-width:1.0;" x1="618.5" x2="1137.5" y1="272.3516" y2="272.3516"/><text fill="#000000" font-family="sans-serif" font-size="13" font-weight="bold" lengthAdjust="spacing" textLength="9" x="625.5" y="267.6094">6</text><text fill="#000000" font-family="sans-serif" font-size="13" lengthAdjust="spacing" textLength="123" x="638.5" y="267.6094">getCurrentSession()</text><polygon fill="#181818" points="629.5,297.6621,619.5,301.6621,629.5,305.6621,625.5,301.6621" style="stroke:#181818;stroke-width:1.0;"/><line style="stroke:#181818;stroke-width:1.0;stroke-dasharray:2.0,2.0;" x1="623.5" x2="1147.5" y1="301.6621" y2="301.6621"/><text fill="#000000" font-family="sans-serif" font-size="13" font-weight="bold" lengthAdjust="spacing" textLength="9" x="635.5" y="296.9199">7</text><text fill="#000000" font-family="sans-serif" font-size="13" lengthAdjust="spacing" textLength="93" x="648.5" y="296.9199">currentSession</text><polygon fill="#181818" points="1273.5,326.9727,1283.5,330.9727,1273.5,334.9727,1277.5,330.9727" style="stroke:#181818;stroke-width:1.0;"/><line style="stroke:#181818;stroke-width:1.0;" x1="618.5" x2="1279.5" y1="330.9727" y2="330.9727"/><text fill="#000000" font-family="sans-serif" font-size="13" font-weight="bold" lengthAdjust="spacing" textLength="9" x="625.5" y="326.2305">8</text><text fill="#000000" font-family="sans-serif" font-size="13" lengthAdjust="spacing" textLength="229" x="638.5" y="326.2305">agentName = getUserNameByEmail()</text><polygon fill="#181818" points="629.5,356.2832,619.5,360.2832,629.5,364.2832,625.5,360.2832" style="stroke:#181818;stroke-width:1.0;"/><line style="stroke:#181818;stroke-width:1.0;stroke-dasharray:2.0,2.0;" x1="623.5" x2="1289.5" y1="360.2832" y2="360.2832"/><text fill="#000000" font-family="sans-serif" font-size="13" font-weight="bold" lengthAdjust="spacing" textLength="9" x="635.5" y="355.541">9</text><text fill="#000000" font-family="sans-serif" font-size="13" lengthAdjust="spacing" textLength="71" x="648.5" y="355.541">agentName</text><line style="stroke:#181818;stroke-width:1.0;" x1="618.5" x2="660.5" y1="389.5938" y2="389.5938"/><line style="stroke:#181818;stroke-width:1.0;" x1="660.5" x2="660.5" y1="389.5938" y2="402.5938"/><line style="stroke:#181818;stroke-width:1.0;" x1="619.5" x2="660.5" y1="402.5938" y2="402.5938"/><polygon fill="#181818" points="629.5,398.5938,619.5,402.5938,629.5,406.5938,625.5,402.5938" style="stroke:#181818;stroke-width:1.0;"/><text fill="#000000" font-family="sans-serif" font-size="13" font-weight="bold" lengthAdjust="spacing" textLength="18" x="625.5" y="384.8516">10</text><text fill="#000000" font-family="sans-serif" font-size="13" lengthAdjust="spacing" textLength="331" x="647.5" y="384.8516">getAnnouncementRequestsBAgentName(agentName)</text><polygon fill="#181818" points="1393,427.9043,1403,431.9043,1393,435.9043,1397,431.9043" style="stroke:#181818;stroke-width:1.0;"/><line style="stroke:#181818;stroke-width:1.0;" x1="618.5" x2="1399" y1="431.9043" y2="431.9043"/><text fill="#000000" font-family="sans-serif" font-size="13" font-weight="bold" lengthAdjust="spacing" textLength="18" x="625.5" y="427.1621">11</text><text fill="#000000" font-family="sans-serif" font-size="13" lengthAdjust="spacing" textLength="81" x="647.5" y="427.1621">getInstance()</text><polygon fill="#181818" points="629.5,457.2148,619.5,461.2148,629.5,465.2148,625.5,461.2148" style="stroke:#181818;stroke-width:1.0;"/><line style="stroke:#181818;stroke-width:1.0;stroke-dasharray:2.0,2.0;" x1="623.5" x2="1409" y1="461.2148" y2="461.2148"/><text fill="#000000" font-family="sans-serif" font-size="13" font-weight="bold" lengthAdjust="spacing" textLength="18" x="635.5" y="456.4727">12</text><text fill="#000000" font-family="sans-serif" font-size="13" lengthAdjust="spacing" textLength="75" x="657.5" y="456.4727">repositories</text><polygon fill="#181818" points="1393,486.5254,1403,490.5254,1393,494.5254,1397,490.5254" style="stroke:#181818;stroke-width:1.0;"/><line style="stroke:#181818;stroke-width:1.0;" x1="618.5" x2="1399" y1="490.5254" y2="490.5254"/><text fill="#000000" font-family="sans-serif" font-size="13" font-weight="bold" lengthAdjust="spacing" textLength="18" x="625.5" y="485.7832">13</text><text fill="#000000" font-family="sans-serif" font-size="13" lengthAdjust="spacing" textLength="190" x="647.5" y="485.7832">getAnnouncementRepository()</text><polygon fill="#181818" points="629.5,515.8359,619.5,519.8359,629.5,523.8359,625.5,519.8359" style="stroke:#181818;stroke-width:1.0;"/><line style="stroke:#181818;stroke-width:1.0;" x1="623.5" x2="1409" y1="519.8359" y2="519.8359"/><text fill="#000000" font-family="sans-serif" font-size="13" font-weight="bold" lengthAdjust="spacing" textLength="18" x="635.5" y="515.0938">14</text><text fill="#000000" font-family="sans-serif" font-size="13" lengthAdjust="spacing" textLength="162" x="657.5" y="515.0938">AnnouncementRepository</text><polygon fill="#181818" points="1552.5,545.1465,1562.5,549.1465,1552.5,553.1465,1556.5,549.1465" style="stroke:#181818;stroke-width:1.0;"/><line style="stroke:#181818;stroke-width:1.0;" x1="618.5" x2="1558.5" y1="549.1465" y2="549.1465"/><text fill="#000000" font-family="sans-serif" font-size="13" font-weight="bold" lengthAdjust="spacing" textLength="18" x="625.5" y="544.4043">15</text><text fill="#000000" font-family="sans-serif" font-size="13" lengthAdjust="spacing" textLength="330" x="647.5" y="544.4043">getAnnoucementRequestsByAgentName(agentName)</text><polygon fill="#181818" points="629.5,574.457,619.5,578.457,629.5,582.457,625.5,578.457" style="stroke:#181818;stroke-width:1.0;"/><line style="stroke:#181818;stroke-width:1.0;stroke-dasharray:2.0,2.0;" x1="623.5" x2="1568.5" y1="578.457" y2="578.457"/><text fill="#000000" font-family="sans-serif" font-size="13" font-weight="bold" lengthAdjust="spacing" textLength="18" x="635.5" y="573.7148">16</text><text fill="#000000" font-family="sans-serif" font-size="13" lengthAdjust="spacing" textLength="168" x="657.5" y="573.7148">AnnouncementRequetsList</text><polygon fill="#181818" points="392.5,603.7676,382.5,607.7676,392.5,611.7676,388.5,607.7676" style="stroke:#181818;stroke-width:1.0;"/><line style="stroke:#181818;stroke-width:1.0;stroke-dasharray:2.0,2.0;" x1="386.5" x2="607.5" y1="607.7676" y2="607.7676"/><text fill="#000000" font-family="sans-serif" font-size="13" font-weight="bold" lengthAdjust="spacing" textLength="18" x="398.5" y="603.0254">17</text><text fill="#000000" font-family="sans-serif" font-size="13" lengthAdjust="spacing" textLength="168" x="420.5" y="603.0254">AnnouncementRequetsList</text><polygon fill="#181818" points="59.5,633.0781,49.5,637.0781,59.5,641.0781,55.5,637.0781" style="stroke:#181818;stroke-width:1.0;"/><line style="stroke:#181818;stroke-width:1.0;stroke-dasharray:2.0,2.0;" x1="53.5" x2="370.5" y1="637.0781" y2="637.0781"/><text fill="#000000" font-family="sans-serif" font-size="13" font-weight="bold" lengthAdjust="spacing" textLength="18" x="65.5" y="632.3359">18</text><text fill="#000000" font-family="sans-serif" font-size="13" lengthAdjust="spacing" textLength="212" x="87.5" y="632.3359">show the announcement requests</text><polygon fill="#181818" points="359.5,662.3887,369.5,666.3887,359.5,670.3887,363.5,666.3887" style="stroke:#181818;stroke-width:1.0;"/><line style="stroke:#181818;stroke-width:1.0;" x1="48.5" x2="365.5" y1="666.3887" y2="666.3887"/><text fill="#000000" font-family="sans-serif" font-size="13" font-weight="bold" lengthAdjust="spacing" textLength="18" x="55.5" y="661.6465">19</text><text fill="#000000" font-family="sans-serif" font-size="13" lengthAdjust="spacing" textLength="277" x="77.5" y="661.6465">select the announcement request to analyze</text><polygon fill="#181818" points="596.5,691.6992,606.5,695.6992,596.5,699.6992,600.5,695.6992" style="stroke:#181818;stroke-width:1.0;"/><line style="stroke:#181818;stroke-width:1.0;" x1="381.5" x2="602.5" y1="695.6992" y2="695.6992"/><text fill="#000000" font-family="sans-serif" font-size="13" font-weight="bold" lengthAdjust="spacing" textLength="18" x="388.5" y="690.957">20</text><text fill="#000000" font-family="sans-serif" font-size="13" lengthAdjust="spacing" textLength="123" x="410.5" y="690.957">getAnnouncement()</text><line style="stroke:#181818;stroke-width:1.0;" x1="618.5" x2="660.5" y1="725.0098" y2="725.0098"/><line style="stroke:#181818;stroke-width:1.0;" x1="660.5" x2="660.5" y1="725.0098" y2="738.0098"/><line style="stroke:#181818;stroke-width:1.0;" x1="619.5" x2="660.5" y1="738.0098" y2="738.0098"/><polygon fill="#181818" points="629.5,734.0098,619.5,738.0098,629.5,742.0098,625.5,738.0098" style="stroke:#181818;stroke-width:1.0;"/><text fill="#000000" font-family="sans-serif" font-size="13" font-weight="bold" lengthAdjust="spacing" textLength="18" x="625.5" y="720.2676">21</text><text fill="#000000" font-family="sans-serif" font-size="13" lengthAdjust="spacing" textLength="190" x="647.5" y="720.2676">getAnnouncementRepository()</text><polygon fill="#181818" points="1552.5,763.3203,1562.5,767.3203,1552.5,771.3203,1556.5,767.3203" style="stroke:#181818;stroke-width:1.0;"/><line style="stroke:#181818;stroke-width:1.0;" x1="618.5" x2="1558.5" y1="767.3203" y2="767.3203"/><text fill="#000000" font-family="sans-serif" font-size="13" font-weight="bold" lengthAdjust="spacing" textLength="18" x="625.5" y="762.5781">22</text><text fill="#000000" font-family="sans-serif" font-size="13" lengthAdjust="spacing" textLength="123" x="647.5" y="762.5781">getAnnouncement()</text><polygon fill="#181818" points="629.5,792.6309,619.5,796.6309,629.5,800.6309,625.5,796.6309" style="stroke:#181818;stroke-width:1.0;"/><line style="stroke:#181818;stroke-width:1.0;stroke-dasharray:2.0,2.0;" x1="623.5" x2="1568.5" y1="796.6309" y2="796.6309"/><text fill="#000000" font-family="sans-serif" font-size="13" font-weight="bold" lengthAdjust="spacing" textLength="18" x="635.5" y="791.8887">23</text><text fill="#000000" font-family="sans-serif" font-size="13" lengthAdjust="spacing" textLength="95" x="657.5" y="791.8887">Announcement</text><polygon fill="#181818" points="392.5,821.9414,382.5,825.9414,392.5,829.9414,388.5,825.9414" style="stroke:#181818;stroke-width:1.0;"/><line style="stroke:#181818;stroke-width:1.0;stroke-dasharray:2.0,2.0;" x1="386.5" x2="607.5" y1="825.9414" y2="825.9414"/><text fill="#000000" font-family="sans-serif" font-size="13" font-weight="bold" lengthAdjust="spacing" textLength="18" x="398.5" y="821.1992">24</text><text fill="#000000" font-family="sans-serif" font-size="13" lengthAdjust="spacing" textLength="95" x="420.5" y="821.1992">Announcement</text><polygon fill="#181818" points="59.5,851.252,49.5,855.252,59.5,859.252,55.5,855.252" style="stroke:#181818;stroke-width:1.0;"/><line style="stroke:#181818;stroke-width:1.0;stroke-dasharray:2.0,2.0;" x1="53.5" x2="370.5" y1="855.252" y2="855.252"/><text fill="#000000" font-family="sans-serif" font-size="13" font-weight="bold" lengthAdjust="spacing" textLength="18" x="65.5" y="850.5098">25</text><text fill="#000000" font-family="sans-serif" font-size="13" lengthAdjust="spacing" textLength="168" x="87.5" y="850.5098">present the announcement</text><polygon fill="#181818" points="359.5,880.5625,369.5,884.5625,359.5,888.5625,363.5,884.5625" style="stroke:#181818;stroke-width:1.0;"/><line style="stroke:#181818;stroke-width:1.0;" x1="48.5" x2="365.5" y1="884.5625" y2="884.5625"/><text fill="#000000" font-family="sans-serif" font-size="13" font-weight="bold" lengthAdjust="spacing" textLength="18" x="55.5" y="879.8203">26</text><text fill="#000000" font-family="sans-serif" font-size="13" lengthAdjust="spacing" textLength="214" x="77.5" y="879.8203">select an option - accept or reject</text><path d="M10,899.5625 L72,899.5625 L72,906.873 L62,916.873 L10,916.873 L10,899.5625 " fill="#EEEEEE" style="stroke:#000000;stroke-width:1.5;"/><rect fill="none" height="901.6504" style="stroke:#000000;stroke-width:1.5;" width="1838" x="10" y="899.5625"/><text fill="#000000" font-family="sans-serif" font-size="13" font-weight="bold" lengthAdjust="spacing" textLength="17" x="25" y="913.1309">alt</text><text fill="#000000" font-family="sans-serif" font-size="11" font-weight="bold" lengthAdjust="spacing" textLength="45" x="87" y="912.1973">[Accept]</text><polygon fill="#181818" points="359.5,934.1836,369.5,938.1836,359.5,942.1836,363.5,938.1836" style="stroke:#181818;stroke-width:1.0;"/><line style="stroke:#181818;stroke-width:1.0;" x1="48.5" x2="365.5" y1="938.1836" y2="938.1836"/><text fill="#000000" font-family="sans-serif" font-size="13" font-weight="bold" lengthAdjust="spacing" textLength="18" x="55.5" y="933.4414">27</text><text fill="#000000" font-family="sans-serif" font-size="13" lengthAdjust="spacing" textLength="41" x="77.5" y="933.4414">accept</text><polygon fill="#181818" points="59.5,963.4941,49.5,967.4941,59.5,971.4941,55.5,967.4941" style="stroke:#181818;stroke-width:1.0;"/><line style="stroke:#181818;stroke-width:1.0;stroke-dasharray:2.0,2.0;" x1="53.5" x2="370.5" y1="967.4941" y2="967.4941"/><text fill="#000000" font-family="sans-serif" font-size="13" font-weight="bold" lengthAdjust="spacing" textLength="18" x="65.5" y="962.752">28</text><text fill="#000000" font-family="sans-serif" font-size="13" lengthAdjust="spacing" textLength="159" x="87.5" y="962.752">requests the commission</text><polygon fill="#181818" points="359.5,992.8047,369.5,996.8047,359.5,1000.8047,363.5,996.8047" style="stroke:#181818;stroke-width:1.0;"/><line style="stroke:#181818;stroke-width:1.0;" x1="48.5" x2="365.5" y1="996.8047" y2="996.8047"/><text fill="#000000" font-family="sans-serif" font-size="13" font-weight="bold" lengthAdjust="spacing" textLength="18" x="55.5" y="992.0625">29</text><text fill="#000000" font-family="sans-serif" font-size="13" lengthAdjust="spacing" textLength="124" x="77.5" y="992.0625">set the commission</text><polygon fill="#181818" points="596.5,1022.1152,606.5,1026.1152,596.5,1030.1152,600.5,1026.1152" style="stroke:#181818;stroke-width:1.0;"/><line style="stroke:#181818;stroke-width:1.0;" x1="381.5" x2="602.5" y1="1026.1152" y2="1026.1152"/><text fill="#000000" font-family="sans-serif" font-size="13" font-weight="bold" lengthAdjust="spacing" textLength="18" x="388.5" y="1021.373">30</text><text fill="#000000" font-family="sans-serif" font-size="13" lengthAdjust="spacing" textLength="128" x="410.5" y="1021.373">Accept(commission)</text><polygon fill="#181818" points="1393,1051.4258,1403,1055.4258,1393,1059.4258,1397,1055.4258" style="stroke:#181818;stroke-width:1.0;"/><line style="stroke:#181818;stroke-width:1.0;" x1="618.5" x2="1399" y1="1055.4258" y2="1055.4258"/><text fill="#000000" font-family="sans-serif" font-size="13" font-weight="bold" lengthAdjust="spacing" textLength="18" x="625.5" y="1050.6836">31</text><text fill="#000000" font-family="sans-serif" font-size="13" lengthAdjust="spacing" textLength="81" x="647.5" y="1050.6836">getInstance()</text><polygon fill="#181818" points="629.5,1080.7363,619.5,1084.7363,629.5,1088.7363,625.5,1084.7363" style="stroke:#181818;stroke-width:1.0;"/><line style="stroke:#181818;stroke-width:1.0;stroke-dasharray:2.0,2.0;" x1="623.5" x2="1409" y1="1084.7363" y2="1084.7363"/><text fill="#000000" font-family="sans-serif" font-size="13" font-weight="bold" lengthAdjust="spacing" textLength="18" x="635.5" y="1079.9941">32</text><text fill="#000000" font-family="sans-serif" font-size="13" lengthAdjust="spacing" textLength="75" x="657.5" y="1079.9941">repositories</text><line style="stroke:#181818;stroke-width:1.0;" x1="618.5" x2="660.5" y1="1114.0469" y2="1114.0469"/><line style="stroke:#181818;stroke-width:1.0;" x1="660.5" x2="660.5" y1="1114.0469" y2="1127.0469"/><line style="stroke:#181818;stroke-width:1.0;" x1="619.5" x2="660.5" y1="1127.0469" y2="1127.0469"/><polygon fill="#181818" points="629.5,1123.0469,619.5,1127.0469,629.5,1131.0469,625.5,1127.0469" style="stroke:#181818;stroke-width:1.0;"/><text fill="#000000" font-family="sans-serif" font-size="13" font-weight="bold" lengthAdjust="spacing" textLength="18" x="625.5" y="1109.3047">33</text><text fill="#000000" font-family="sans-serif" font-size="13" lengthAdjust="spacing" textLength="190" x="647.5" y="1109.3047">getAnnouncementRepository()</text><polygon fill="#181818" points="1552.5,1152.3574,1562.5,1156.3574,1552.5,1160.3574,1556.5,1156.3574" style="stroke:#181818;stroke-width:1.0;"/><line style="stroke:#181818;stroke-width:1.0;" x1="618.5" x2="1558.5" y1="1156.3574" y2="1156.3574"/><text fill="#000000" font-family="sans-serif" font-size="13" font-weight="bold" lengthAdjust="spacing" textLength="18" x="625.5" y="1151.6152">34</text><text fill="#000000" font-family="sans-serif" font-size="13" lengthAdjust="spacing" textLength="144" x="647.5" y="1151.6152">Accept(announcement)</text><line style="stroke:#181818;stroke-width:1.0;" x1="1574.5" x2="1616.5" y1="1185.668" y2="1185.668"/><line style="stroke:#181818;stroke-width:1.0;" x1="1616.5" x2="1616.5" y1="1185.668" y2="1198.668"/><line style="stroke:#181818;stroke-width:1.0;" x1="1575.5" x2="1616.5" y1="1198.668" y2="1198.668"/><polygon fill="#181818" points="1585.5,1194.668,1575.5,1198.668,1585.5,1202.668,1581.5,1198.668" style="stroke:#181818;stroke-width:1.0;"/><text fill="#000000" font-family="sans-serif" font-size="13" font-weight="bold" lengthAdjust="spacing" textLength="18" x="1581.5" y="1180.9258">35</text><text fill="#000000" font-family="sans-serif" font-size="13" lengthAdjust="spacing" textLength="150" x="1603.5" y="1180.9258">validate(announcement)</text><line style="stroke:#181818;stroke-width:1.0;" x1="1574.5" x2="1616.5" y1="1227.9785" y2="1227.9785"/><line style="stroke:#181818;stroke-width:1.0;" x1="1616.5" x2="1616.5" y1="1227.9785" y2="1240.9785"/><line style="stroke:#181818;stroke-width:1.0;" x1="1575.5" x2="1616.5" y1="1240.9785" y2="1240.9785"/><polygon fill="#181818" points="1585.5,1236.9785,1575.5,1240.9785,1585.5,1244.9785,1581.5,1240.9785" style="stroke:#181818;stroke-width:1.0;"/><text fill="#000000" font-family="sans-serif" font-size="13" font-weight="bold" lengthAdjust="spacing" textLength="18" x="1581.5" y="1223.2363">36</text><text fill="#000000" font-family="sans-serif" font-size="13" lengthAdjust="spacing" textLength="129" x="1603.5" y="1223.2363">save(announcement)</text><polygon fill="#181818" points="629.5,1266.2891,619.5,1270.2891,629.5,1274.2891,625.5,1270.2891" style="stroke:#181818;stroke-width:1.0;"/><line style="stroke:#181818;stroke-width:1.0;stroke-dasharray:2.0,2.0;" x1="623.5" x2="1568.5" y1="1270.2891" y2="1270.2891"/><text fill="#000000" font-family="sans-serif" font-size="13" font-weight="bold" lengthAdjust="spacing" textLength="18" x="635.5" y="1265.5469">37</text><text fill="#000000" font-family="sans-serif" font-size="13" lengthAdjust="spacing" textLength="43" x="657.5" y="1265.5469">Accept</text><polygon fill="#181818" points="392.5,1295.5996,382.5,1299.5996,392.5,1303.5996,388.5,1299.5996" style="stroke:#181818;stroke-width:1.0;"/><line style="stroke:#181818;stroke-width:1.0;stroke-dasharray:2.0,2.0;" x1="386.5" x2="607.5" y1="1299.5996" y2="1299.5996"/><text fill="#000000" font-family="sans-serif" font-size="13" font-weight="bold" lengthAdjust="spacing" textLength="18" x="398.5" y="1294.8574">38</text><text fill="#000000" font-family="sans-serif" font-size="13" lengthAdjust="spacing" textLength="41" x="420.5" y="1294.8574">accept</text><polygon fill="#181818" points="59.5,1324.9102,49.5,1328.9102,59.5,1332.9102,55.5,1328.9102" style="stroke:#181818;stroke-width:1.0;"/><line style="stroke:#181818;stroke-width:1.0;stroke-dasharray:2.0,2.0;" x1="53.5" x2="370.5" y1="1328.9102" y2="1328.9102"/><text fill="#000000" font-family="sans-serif" font-size="13" font-weight="bold" lengthAdjust="spacing" textLength="18" x="65.5" y="1324.168">39</text><text fill="#000000" font-family="sans-serif" font-size="13" lengthAdjust="spacing" textLength="163" x="87.5" y="1324.168">display operation success</text><line style="stroke:#000000;stroke-width:1.0;stroke-dasharray:2.0,2.0;" x1="10" x2="1848" y1="1337.9102" y2="1337.9102"/><text fill="#000000" font-family="sans-serif" font-size="11" font-weight="bold" lengthAdjust="spacing" textLength="39" x="15" y="1348.5449">[reject]</text><polygon fill="#181818" points="359.5,1369.1758,369.5,1373.1758,359.5,1377.1758,363.5,1373.1758" style="stroke:#181818;stroke-width:1.0;"/><line style="stroke:#181818;stroke-width:1.0;" x1="48.5" x2="365.5" y1="1373.1758" y2="1373.1758"/><text fill="#000000" font-family="sans-serif" font-size="13" font-weight="bold" lengthAdjust="spacing" textLength="18" x="55.5" y="1368.4336">40</text><text fill="#000000" font-family="sans-serif" font-size="13" lengthAdjust="spacing" textLength="35" x="77.5" y="1368.4336">reject</text><polygon fill="#181818" points="59.5,1398.4863,49.5,1402.4863,59.5,1406.4863,55.5,1402.4863" style="stroke:#181818;stroke-width:1.0;"/><line style="stroke:#181818;stroke-width:1.0;stroke-dasharray:2.0,2.0;" x1="53.5" x2="370.5" y1="1402.4863" y2="1402.4863"/><text fill="#000000" font-family="sans-serif" font-size="13" font-weight="bold" lengthAdjust="spacing" textLength="18" x="65.5" y="1397.7441">41</text><text fill="#000000" font-family="sans-serif" font-size="13" lengthAdjust="spacing" textLength="174" x="87.5" y="1397.7441">request the motive to reject</text><polygon fill="#181818" points="359.5,1427.7969,369.5,1431.7969,359.5,1435.7969,363.5,1431.7969" style="stroke:#181818;stroke-width:1.0;"/><line style="stroke:#181818;stroke-width:1.0;" x1="48.5" x2="365.5" y1="1431.7969" y2="1431.7969"/><text fill="#000000" font-family="sans-serif" font-size="13" font-weight="bold" lengthAdjust="spacing" textLength="18" x="55.5" y="1427.0547">42</text><text fill="#000000" font-family="sans-serif" font-size="13" lengthAdjust="spacing" textLength="154" x="77.5" y="1427.0547">type the motive to reject</text><polygon fill="#181818" points="596.5,1457.1074,606.5,1461.1074,596.5,1465.1074,600.5,1461.1074" style="stroke:#181818;stroke-width:1.0;"/><line style="stroke:#181818;stroke-width:1.0;" x1="381.5" x2="602.5" y1="1461.1074" y2="1461.1074"/><text fill="#000000" font-family="sans-serif" font-size="13" font-weight="bold" lengthAdjust="spacing" textLength="18" x="388.5" y="1456.3652">43</text><text fill="#000000" font-family="sans-serif" font-size="13" lengthAdjust="spacing" textLength="88" x="410.5" y="1456.3652">Reject(reason)</text><polygon fill="#181818" points="1393,1486.418,1403,1490.418,1393,1494.418,1397,1490.418" style="stroke:#181818;stroke-width:1.0;"/><line style="stroke:#181818;stroke-width:1.0;" x1="618.5" x2="1399" y1="1490.418" y2="1490.418"/><text fill="#000000" font-family="sans-serif" font-size="13" font-weight="bold" lengthAdjust="spacing" textLength="18" x="625.5" y="1485.6758">44</text><text fill="#000000" font-family="sans-serif" font-size="13" lengthAdjust="spacing" textLength="81" x="647.5" y="1485.6758">getInstance()</text><polygon fill="#181818" points="629.5,1515.7285,619.5,1519.7285,629.5,1523.7285,625.5,1519.7285" style="stroke:#181818;stroke-width:1.0;"/><line style="stroke:#181818;stroke-width:1.0;stroke-dasharray:2.0,2.0;" x1="623.5" x2="1409" y1="1519.7285" y2="1519.7285"/><text fill="#000000" font-family="sans-serif" font-size="13" font-weight="bold" lengthAdjust="spacing" textLength="18" x="635.5" y="1514.9863">45</text><text fill="#000000" font-family="sans-serif" font-size="13" lengthAdjust="spacing" textLength="75" x="657.5" y="1514.9863">repositories</text><line style="stroke:#181818;stroke-width:1.0;" x1="618.5" x2="660.5" y1="1549.0391" y2="1549.0391"/><line style="stroke:#181818;stroke-width:1.0;" x1="660.5" x2="660.5" y1="1549.0391" y2="1562.0391"/><line style="stroke:#181818;stroke-width:1.0;" x1="619.5" x2="660.5" y1="1562.0391" y2="1562.0391"/><polygon fill="#181818" points="629.5,1558.0391,619.5,1562.0391,629.5,1566.0391,625.5,1562.0391" style="stroke:#181818;stroke-width:1.0;"/><text fill="#000000" font-family="sans-serif" font-size="13" font-weight="bold" lengthAdjust="spacing" textLength="18" x="625.5" y="1544.2969">46</text><text fill="#000000" font-family="sans-serif" font-size="13" lengthAdjust="spacing" textLength="190" x="647.5" y="1544.2969">getAnnouncementRepository()</text><polygon fill="#181818" points="1552.5,1587.3496,1562.5,1591.3496,1552.5,1595.3496,1556.5,1591.3496" style="stroke:#181818;stroke-width:1.0;"/><line style="stroke:#181818;stroke-width:1.0;" x1="618.5" x2="1558.5" y1="1591.3496" y2="1591.3496"/><text fill="#000000" font-family="sans-serif" font-size="13" font-weight="bold" lengthAdjust="spacing" textLength="18" x="625.5" y="1586.6074">47</text><text fill="#000000" font-family="sans-serif" font-size="13" lengthAdjust="spacing" textLength="143" x="647.5" y="1586.6074">Reject(announcement))</text><line style="stroke:#181818;stroke-width:1.0;" x1="1574.5" x2="1616.5" y1="1620.6602" y2="1620.6602"/><line style="stroke:#181818;stroke-width:1.0;" x1="1616.5" x2="1616.5" y1="1620.6602" y2="1633.6602"/><line style="stroke:#181818;stroke-width:1.0;" x1="1575.5" x2="1616.5" y1="1633.6602" y2="1633.6602"/><polygon fill="#181818" points="1585.5,1629.6602,1575.5,1633.6602,1585.5,1637.6602,1581.5,1633.6602" style="stroke:#181818;stroke-width:1.0;"/><text fill="#000000" font-family="sans-serif" font-size="13" font-weight="bold" lengthAdjust="spacing" textLength="18" x="1581.5" y="1615.918">48</text><text fill="#000000" font-family="sans-serif" font-size="13" lengthAdjust="spacing" textLength="150" x="1603.5" y="1615.918">validate(announcement)</text><line style="stroke:#181818;stroke-width:1.0;" x1="1574.5" x2="1616.5" y1="1662.9707" y2="1662.9707"/><line style="stroke:#181818;stroke-width:1.0;" x1="1616.5" x2="1616.5" y1="1662.9707" y2="1675.9707"/><line style="stroke:#181818;stroke-width:1.0;" x1="1575.5" x2="1616.5" y1="1675.9707" y2="1675.9707"/><polygon fill="#181818" points="1585.5,1671.9707,1575.5,1675.9707,1585.5,1679.9707,1581.5,1675.9707" style="stroke:#181818;stroke-width:1.0;"/><text fill="#000000" font-family="sans-serif" font-size="13" font-weight="bold" lengthAdjust="spacing" textLength="18" x="1581.5" y="1658.2285">49</text><text fill="#000000" font-family="sans-serif" font-size="13" lengthAdjust="spacing" textLength="129" x="1603.5" y="1658.2285">save(announcement)</text><polygon fill="#181818" points="629.5,1701.2813,619.5,1705.2813,629.5,1709.2813,625.5,1705.2813" style="stroke:#181818;stroke-width:1.0;"/><line style="stroke:#181818;stroke-width:1.0;stroke-dasharray:2.0,2.0;" x1="623.5" x2="1563.5" y1="1705.2813" y2="1705.2813"/><text fill="#000000" font-family="sans-serif" font-size="13" font-weight="bold" lengthAdjust="spacing" textLength="18" x="635.5" y="1700.5391">50</text><text fill="#000000" font-family="sans-serif" font-size="13" lengthAdjust="spacing" textLength="38" x="657.5" y="1700.5391">Reject</text><polygon fill="#181818" points="1753.5,1730.5918,1763.5,1734.5918,1753.5,1738.5918,1757.5,1734.5918" style="stroke:#181818;stroke-width:1.0;"/><line style="stroke:#181818;stroke-width:1.0;stroke-dasharray:2.0,2.0;" x1="618.5" x2="1759.5" y1="1734.5918" y2="1734.5918"/><text fill="#000000" font-family="sans-serif" font-size="13" font-weight="bold" lengthAdjust="spacing" textLength="18" x="625.5" y="1729.8496">51</text><text fill="#000000" font-family="sans-serif" font-size="13" lengthAdjust="spacing" textLength="201" x="647.5" y="1729.8496">sendNotification(owner, reason)</text><polygon fill="#181818" points="392.5,1759.9023,382.5,1763.9023,392.5,1767.9023,388.5,1763.9023" style="stroke:#181818;stroke-width:1.0;"/><line style="stroke:#181818;stroke-width:1.0;stroke-dasharray:2.0,2.0;" x1="386.5" x2="607.5" y1="1763.9023" y2="1763.9023"/><text fill="#000000" font-family="sans-serif" font-size="13" font-weight="bold" lengthAdjust="spacing" textLength="18" x="398.5" y="1759.1602">52</text><text fill="#000000" font-family="sans-serif" font-size="13" lengthAdjust="spacing" textLength="35" x="420.5" y="1759.1602">reject</text><polygon fill="#181818" points="59.5,1789.2129,49.5,1793.2129,59.5,1797.2129,55.5,1793.2129" style="stroke:#181818;stroke-width:1.0;"/><line style="stroke:#181818;stroke-width:1.0;stroke-dasharray:2.0,2.0;" x1="53.5" x2="370.5" y1="1793.2129" y2="1793.2129"/><text fill="#000000" font-family="sans-serif" font-size="13" font-weight="bold" lengthAdjust="spacing" textLength="18" x="65.5" y="1788.4707">53</text><text fill="#000000" font-family="sans-serif" font-size="13" lengthAdjust="spacing" textLength="163" x="87.5" y="1788.4707">display operation success</text><polygon fill="#181818" points="54.5,1825.5234,44.5,1829.5234,54.5,1833.5234,50.5,1829.5234" style="stroke:#181818;stroke-width:1.0;"/><line style="stroke:#181818;stroke-width:1.0;stroke-dasharray:2.0,2.0;" x1="48.5" x2="375.5" y1="1829.5234" y2="1829.5234"/><text fill="#000000" font-family="sans-serif" font-size="13" font-weight="bold" lengthAdjust="spacing" textLength="18" x="60.5" y="1824.7813">54</text><text fill="#000000" font-family="sans-serif" font-size="13" lengthAdjust="spacing" textLength="163" x="82.5" y="1824.7813">display operation success</text><!--SRC=[hLVRRjim37ttLmXzMGgiFr1W0zmY2meKRP6qRmC6pMOJhRRaIKewx-j7ERv8ikGunVmIn28F3yL3IbPlZ5TKqfAKWeji9qK9HCiz9AfVgMZsHhUmqNK1H4AcATyMje7QqLoyCxubhxHGa2HqhmNVbpz19icd7Sk1l0gXVue_2SsqaEGYtGBN5uGgaguI1D4iOnNbcbnSfvoBFS-WH8ir_Dw3qkhbhh5zkPjXUokubg8eG3O-jy_hUz-hgWgMKSq4tu1I-DDO_aYVdbnBMbMjmNSUynevPNifaSxW-A90sXwRvMQJFhfE4YgX66uD0uKkQ-jluxDUFasctfhNHqhsak_8XMQlVHxom3B0W0_ZjmtKm-DpWWzMZHse1bEjXBHFkY9NNx4cv1ejtnJHWYX0yUo0K8i1AkPOcDwnHyDwzYyH1z5CjH1l2pfKsiNb6AEfR_VswE_WBCkg43N0DrHsMmM46Jnw5rF-nkEEArHu1bOqDsGZbE6z-Tl5nAteDUDwannSW025Zi6j8o6Vnq34Wsbuz4HS7SR9k20TbQD8CHtJg0yKXy8NmynesVoxgPSbPKMSMYjoQ_dufYT8BEmukGvcgi8XfToa7VQYZt8PGC7s89D5jr8ohJGi6izXi-t-zG6iT5o8COjmKuyvnKYrjFhT2UEDqE8C1scwCyMYwsry7TpvA7z_LjcMViohM68OMgjxflHKPduaByLkbCMGdK5bDcI5ncedtYS6NcXKAYZm18qwcIbAEItglp1lDjh3x5HlM88QEtdx4meqjuYUtSmw9lDhvvl6InYkMoL1cKttgp1HCCg9gCpnIAumyGmgJV0Y8-4NBWv1QA59sgo6pydZqeZITQ-PXb8cofAvOziXf7shi5AEH1Q3tUM71k39cNFkG3mrTcmPpnkByIdLxe5TvC0b8YRWaN938GwqO3cYH8BCmb3qCDlVBt1onh1p6oKknvofgg0rIXvaSoaaQe_6Ibc30_2gtpL0GARUYjr-_Qn35PTuypo06NjnA5rNC6tiw7xTh2qaK6LhVgRa9sG-J-8Jf-a7vNrQvctAZeBEE7N9gOdz0Tt_B_tFEKRMhXhQ9tfUcQyQ4Zj2SD7CM9xRtqGBySv1VYQ-fcAXR14qtr1ayiIIGVwpRYzdDk_GlJotM9tP-X6IzlTSA8TLyWy0]--></g></svg>