<?xml version="1.0" encoding="us-ascii" standalone="no"?><svg xmlns="http://www.w3.org/2000/svg" xmlns:xlink="http://www.w3.org/1999/xlink" contentStyleType="text/css" height="764px" preserveAspectRatio="none" style="width:576px;height:764px;background:#FFFFFF;" version="1.1" viewBox="0 0 576 764" width="576px" zoomAndPan="magnify"><defs/><g><text fill="#000000" font-family="sans-serif" font-size="14" font-weight="bold" lengthAdjust="spacing" textLength="231" x="173.75" y="28.5352">System Sequence Diagram (SSD)</text><rect fill="#FFFFFF" height="545.5449" style="stroke:#181818;stroke-width:1.0;" width="10" x="38.5" y="128.9766"/><rect fill="#FFFFFF" height="29.3105" style="stroke:#181818;stroke-width:1.0;" width="10" x="521.5" y="150.2871"/><rect fill="#FFFFFF" height="29.3105" style="stroke:#181818;stroke-width:1.0;" width="10" x="521.5" y="208.9082"/><rect fill="#FFFFFF" height="397.9922" style="stroke:#181818;stroke-width:1.0;" width="10" x="521.5" y="267.5293"/><rect fill="#FFFFFF" height="29.3105" style="stroke:#181818;stroke-width:1.0;" width="10" x="526.5" y="321.1504"/><rect fill="#FFFFFF" height="29.3105" style="stroke:#181818;stroke-width:1.0;" width="10" x="526.5" y="379.7715"/><rect fill="#FFFFFF" height="29.3105" style="stroke:#181818;stroke-width:1.0;" width="10" x="526.5" y="438.3926"/><rect fill="#FFFFFF" height="29.3105" style="stroke:#181818;stroke-width:1.0;" width="10" x="526.5" y="511.9688"/><rect fill="#FFFFFF" height="58.6211" style="stroke:#181818;stroke-width:1.0;" width="10" x="526.5" y="570.5898"/><rect fill="none" height="354.6816" style="stroke:#000000;stroke-width:1.5;" width="559.5" x="10" y="282.5293"/><line style="stroke:#181818;stroke-width:0.5;stroke-dasharray:5.0,5.0;" x1="43" x2="43" y1="118.9766" y2="683.5215"/><line style="stroke:#181818;stroke-width:0.5;stroke-dasharray:5.0,5.0;" x1="526.5" x2="526.5" y1="118.9766" y2="683.5215"/><text fill="#000000" font-family="sans-serif" font-size="14" lengthAdjust="spacing" textLength="41" x="20" y="116.0234">Agent</text><ellipse cx="43.5" cy="50.9883" fill="#E3E3E3" rx="8" ry="8" style="stroke:#181818;stroke-width:0.5;"/><path d="M43.5,58.9883 L43.5,85.9883 M30.5,66.9883 L56.5,66.9883 M43.5,85.9883 L30.5,100.9883 M43.5,85.9883 L56.5,100.9883 " fill="none" style="stroke:#181818;stroke-width:0.5;"/><text fill="#000000" font-family="sans-serif" font-size="14" lengthAdjust="spacing" textLength="41" x="20" y="696.0566">Agent</text><ellipse cx="43.5" cy="707.5098" fill="#E3E3E3" rx="8" ry="8" style="stroke:#181818;stroke-width:0.5;"/><path d="M43.5,715.5098 L43.5,742.5098 M30.5,723.5098 L56.5,723.5098 M43.5,742.5098 L30.5,757.5098 M43.5,742.5098 L56.5,757.5098 " fill="none" style="stroke:#181818;stroke-width:0.5;"/><rect fill="#E3E3E3" height="30.4883" rx="2.5" ry="2.5" style="stroke:#181818;stroke-width:0.5;" width="66" x="493.5" y="87.4883"/><text fill="#000000" font-family="sans-serif" font-size="14" lengthAdjust="spacing" textLength="52" x="500.5" y="108.0234">:System</text><rect fill="#E3E3E3" height="30.4883" rx="2.5" ry="2.5" style="stroke:#181818;stroke-width:0.5;" width="66" x="493.5" y="682.5215"/><text fill="#000000" font-family="sans-serif" font-size="14" lengthAdjust="spacing" textLength="52" x="500.5" y="703.0566">:System</text><rect fill="#FFFFFF" height="545.5449" style="stroke:#181818;stroke-width:1.0;" width="10" x="38.5" y="128.9766"/><rect fill="#FFFFFF" height="29.3105" style="stroke:#181818;stroke-width:1.0;" width="10" x="521.5" y="150.2871"/><rect fill="#FFFFFF" height="29.3105" style="stroke:#181818;stroke-width:1.0;" width="10" x="521.5" y="208.9082"/><rect fill="#FFFFFF" height="397.9922" style="stroke:#181818;stroke-width:1.0;" width="10" x="521.5" y="267.5293"/><rect fill="#FFFFFF" height="29.3105" style="stroke:#181818;stroke-width:1.0;" width="10" x="526.5" y="321.1504"/><rect fill="#FFFFFF" height="29.3105" style="stroke:#181818;stroke-width:1.0;" width="10" x="526.5" y="379.7715"/><rect fill="#FFFFFF" height="29.3105" style="stroke:#181818;stroke-width:1.0;" width="10" x="526.5" y="438.3926"/><rect fill="#FFFFFF" height="29.3105" style="stroke:#181818;stroke-width:1.0;" width="10" x="526.5" y="511.9688"/><rect fill="#FFFFFF" height="58.6211" style="stroke:#181818;stroke-width:1.0;" width="10" x="526.5" y="570.5898"/><polygon fill="#181818" points="509.5,146.2871,519.5,150.2871,509.5,154.2871,513.5,150.2871" style="stroke:#181818;stroke-width:1.0;"/><line style="stroke:#181818;stroke-width:1.0;" x1="48.5" x2="515.5" y1="150.2871" y2="150.2871"/><text fill="#000000" font-family="sans-serif" font-size="13" font-weight="bold" lengthAdjust="spacing" textLength="9" x="55.5" y="145.5449">1</text><text fill="#000000" font-family="sans-serif" font-size="13" lengthAdjust="spacing" textLength="261" x="68.5" y="145.5449">asks to see the  announcements requests</text><polygon fill="#181818" points="59.5,175.5977,49.5,179.5977,59.5,183.5977,55.5,179.5977" style="stroke:#181818;stroke-width:1.0;"/><line style="stroke:#181818;stroke-width:1.0;stroke-dasharray:2.0,2.0;" x1="53.5" x2="525.5" y1="179.5977" y2="179.5977"/><text fill="#000000" font-family="sans-serif" font-size="13" font-weight="bold" lengthAdjust="spacing" textLength="9" x="65.5" y="174.8555">2</text><text fill="#000000" font-family="sans-serif" font-size="13" lengthAdjust="spacing" textLength="219" x="78.5" y="174.8555">show the announcements requests</text><polygon fill="#181818" points="509.5,204.9082,519.5,208.9082,509.5,212.9082,513.5,208.9082" style="stroke:#181818;stroke-width:1.0;"/><line style="stroke:#181818;stroke-width:1.0;" x1="48.5" x2="515.5" y1="208.9082" y2="208.9082"/><text fill="#000000" font-family="sans-serif" font-size="13" font-weight="bold" lengthAdjust="spacing" textLength="9" x="55.5" y="204.166">3</text><text fill="#000000" font-family="sans-serif" font-size="13" lengthAdjust="spacing" textLength="281" x="68.5" y="204.166">select the announcement request  to analyse</text><polygon fill="#181818" points="59.5,234.2188,49.5,238.2188,59.5,242.2188,55.5,238.2188" style="stroke:#181818;stroke-width:1.0;"/><line style="stroke:#181818;stroke-width:1.0;stroke-dasharray:2.0,2.0;" x1="53.5" x2="525.5" y1="238.2188" y2="238.2188"/><text fill="#000000" font-family="sans-serif" font-size="13" font-weight="bold" lengthAdjust="spacing" textLength="9" x="65.5" y="233.4766">4</text><text fill="#000000" font-family="sans-serif" font-size="13" lengthAdjust="spacing" textLength="436" x="78.5" y="233.4766">present all the information about the announcement request selected</text><polygon fill="#181818" points="509.5,263.5293,519.5,267.5293,509.5,271.5293,513.5,267.5293" style="stroke:#181818;stroke-width:1.0;"/><line style="stroke:#181818;stroke-width:1.0;" x1="48.5" x2="515.5" y1="267.5293" y2="267.5293"/><text fill="#000000" font-family="sans-serif" font-size="13" font-weight="bold" lengthAdjust="spacing" textLength="9" x="55.5" y="262.7871">5</text><text fill="#000000" font-family="sans-serif" font-size="13" lengthAdjust="spacing" textLength="214" x="68.5" y="262.7871">select an option - accept or reject</text><path d="M10,282.5293 L72,282.5293 L72,289.8398 L62,299.8398 L10,299.8398 L10,282.5293 " fill="#EEEEEE" style="stroke:#000000;stroke-width:1.5;"/><rect fill="none" height="354.6816" style="stroke:#000000;stroke-width:1.5;" width="559.5" x="10" y="282.5293"/><text fill="#000000" font-family="sans-serif" font-size="13" font-weight="bold" lengthAdjust="spacing" textLength="17" x="25" y="296.0977">alt</text><text fill="#000000" font-family="sans-serif" font-size="11" font-weight="bold" lengthAdjust="spacing" textLength="43" x="87" y="295.1641">[accept]</text><polygon fill="#181818" points="514.5,317.1504,524.5,321.1504,514.5,325.1504,518.5,321.1504" style="stroke:#181818;stroke-width:1.0;"/><line style="stroke:#181818;stroke-width:1.0;" x1="48.5" x2="520.5" y1="321.1504" y2="321.1504"/><text fill="#000000" font-family="sans-serif" font-size="13" font-weight="bold" lengthAdjust="spacing" textLength="9" x="55.5" y="316.4082">6</text><text fill="#000000" font-family="sans-serif" font-size="13" lengthAdjust="spacing" textLength="213" x="68.5" y="316.4082">accept the announcement request</text><polygon fill="#181818" points="59.5,346.4609,49.5,350.4609,59.5,354.4609,55.5,350.4609" style="stroke:#181818;stroke-width:1.0;"/><line style="stroke:#181818;stroke-width:1.0;stroke-dasharray:2.0,2.0;" x1="53.5" x2="520.5" y1="350.4609" y2="350.4609"/><text fill="#000000" font-family="sans-serif" font-size="13" font-weight="bold" lengthAdjust="spacing" textLength="9" x="65.5" y="345.7188">7</text><text fill="#000000" font-family="sans-serif" font-size="13" lengthAdjust="spacing" textLength="152" x="78.5" y="345.7188">request the commission</text><polygon fill="#181818" points="514.5,375.7715,524.5,379.7715,514.5,383.7715,518.5,379.7715" style="stroke:#181818;stroke-width:1.0;"/><line style="stroke:#181818;stroke-width:1.0;" x1="48.5" x2="520.5" y1="379.7715" y2="379.7715"/><text fill="#000000" font-family="sans-serif" font-size="13" font-weight="bold" lengthAdjust="spacing" textLength="9" x="55.5" y="375.0293">8</text><text fill="#000000" font-family="sans-serif" font-size="13" lengthAdjust="spacing" textLength="124" x="68.5" y="375.0293">set the commission</text><polygon fill="#181818" points="59.5,405.082,49.5,409.082,59.5,413.082,55.5,409.082" style="stroke:#181818;stroke-width:1.0;"/><line style="stroke:#181818;stroke-width:1.0;stroke-dasharray:2.0,2.0;" x1="53.5" x2="520.5" y1="409.082" y2="409.082"/><text fill="#000000" font-family="sans-serif" font-size="13" font-weight="bold" lengthAdjust="spacing" textLength="9" x="65.5" y="404.3398">9</text><text fill="#000000" font-family="sans-serif" font-size="13" lengthAdjust="spacing" textLength="104" x="78.5" y="404.3398">validate the data</text><polygon fill="#181818" points="514.5,434.3926,524.5,438.3926,514.5,442.3926,518.5,438.3926" style="stroke:#181818;stroke-width:1.0;"/><line style="stroke:#181818;stroke-width:1.0;" x1="48.5" x2="520.5" y1="438.3926" y2="438.3926"/><text fill="#000000" font-family="sans-serif" font-size="13" font-weight="bold" lengthAdjust="spacing" textLength="18" x="55.5" y="433.6504">10</text><text fill="#000000" font-family="sans-serif" font-size="13" lengthAdjust="spacing" textLength="168" x="77.5" y="433.6504">publish the announcement</text><polygon fill="#181818" points="59.5,463.7031,49.5,467.7031,59.5,471.7031,55.5,467.7031" style="stroke:#181818;stroke-width:1.0;"/><line style="stroke:#181818;stroke-width:1.0;stroke-dasharray:2.0,2.0;" x1="53.5" x2="520.5" y1="467.7031" y2="467.7031"/><text fill="#000000" font-family="sans-serif" font-size="13" font-weight="bold" lengthAdjust="spacing" textLength="18" x="65.5" y="462.9609">11</text><text fill="#000000" font-family="sans-serif" font-size="13" lengthAdjust="spacing" textLength="163" x="87.5" y="462.9609">display operation success</text><line style="stroke:#000000;stroke-width:1.0;stroke-dasharray:2.0,2.0;" x1="10" x2="569.5" y1="476.7031" y2="476.7031"/><text fill="#000000" font-family="sans-serif" font-size="11" font-weight="bold" lengthAdjust="spacing" textLength="39" x="15" y="487.3379">[reject]</text><polygon fill="#181818" points="514.5,507.9688,524.5,511.9688,514.5,515.9688,518.5,511.9688" style="stroke:#181818;stroke-width:1.0;"/><line style="stroke:#181818;stroke-width:1.0;" x1="48.5" x2="520.5" y1="511.9688" y2="511.9688"/><text fill="#000000" font-family="sans-serif" font-size="13" font-weight="bold" lengthAdjust="spacing" textLength="18" x="55.5" y="507.2266">12</text><text fill="#000000" font-family="sans-serif" font-size="13" lengthAdjust="spacing" textLength="156" x="77.5" y="507.2266">reject the announcement</text><polygon fill="#181818" points="59.5,537.2793,49.5,541.2793,59.5,545.2793,55.5,541.2793" style="stroke:#181818;stroke-width:1.0;"/><line style="stroke:#181818;stroke-width:1.0;stroke-dasharray:2.0,2.0;" x1="53.5" x2="520.5" y1="541.2793" y2="541.2793"/><text fill="#000000" font-family="sans-serif" font-size="13" font-weight="bold" lengthAdjust="spacing" textLength="18" x="65.5" y="536.5371">13</text><text fill="#000000" font-family="sans-serif" font-size="13" lengthAdjust="spacing" textLength="118" x="87.5" y="536.5371">request the motive</text><polygon fill="#181818" points="514.5,566.5898,524.5,570.5898,514.5,574.5898,518.5,570.5898" style="stroke:#181818;stroke-width:1.0;"/><line style="stroke:#181818;stroke-width:1.0;" x1="48.5" x2="520.5" y1="570.5898" y2="570.5898"/><text fill="#000000" font-family="sans-serif" font-size="13" font-weight="bold" lengthAdjust="spacing" textLength="18" x="55.5" y="565.8477">14</text><text fill="#000000" font-family="sans-serif" font-size="13" lengthAdjust="spacing" textLength="98" x="77.5" y="565.8477">type the motive</text><polygon fill="#181818" points="514.5,595.9004,524.5,599.9004,514.5,603.9004,518.5,599.9004" style="stroke:#181818;stroke-width:1.0;"/><line style="stroke:#181818;stroke-width:1.0;" x1="48.5" x2="520.5" y1="599.9004" y2="599.9004"/><text fill="#000000" font-family="sans-serif" font-size="13" font-weight="bold" lengthAdjust="spacing" textLength="18" x="55.5" y="595.1582">15</text><text fill="#000000" font-family="sans-serif" font-size="13" lengthAdjust="spacing" textLength="49" x="77.5" y="595.1582">confirm</text><polygon fill="#181818" points="59.5,625.2109,49.5,629.2109,59.5,633.2109,55.5,629.2109" style="stroke:#181818;stroke-width:1.0;"/><line style="stroke:#181818;stroke-width:1.0;stroke-dasharray:2.0,2.0;" x1="53.5" x2="520.5" y1="629.2109" y2="629.2109"/><text fill="#000000" font-family="sans-serif" font-size="13" font-weight="bold" lengthAdjust="spacing" textLength="18" x="65.5" y="624.4688">16</text><text fill="#000000" font-family="sans-serif" font-size="13" lengthAdjust="spacing" textLength="163" x="87.5" y="624.4688">display operation success</text><polygon fill="#181818" points="59.5,661.5215,49.5,665.5215,59.5,669.5215,55.5,665.5215" style="stroke:#181818;stroke-width:1.0;"/><line style="stroke:#181818;stroke-width:1.0;stroke-dasharray:2.0,2.0;" x1="53.5" x2="525.5" y1="665.5215" y2="665.5215"/><text fill="#000000" font-family="sans-serif" font-size="13" font-weight="bold" lengthAdjust="spacing" textLength="18" x="65.5" y="660.7793">17</text><text fill="#000000" font-family="sans-serif" font-size="13" lengthAdjust="spacing" textLength="163" x="87.5" y="660.7793">display operation success</text><!--SRC=[bPHBRkCm38RtFWMHLMUH2sGnG802FO1FmDYCeqQlYdGAttxeHzACRJce5mOXaZy_aeBuQdp4X0vSyA6wfE089BLKyCCJiRfYGwLqbY1H9UWR-np05wp3j_4DdD4o5OKOqT2oOo479Nsrv2k2TuDD7_vMbkz_YW9R2Rvr9qfgLn8Ix8uDUTa1CXm_2jKMKvc8Nc1t6CK6tsWEIUQ6Gdrm0VeTFs3_zrxseA5N1Wd0f2rT202z3wsIEAt2seboiV2G-j2wYyFqJMfx5LRvW_OQlWUr3R6QLkLcU4nMPxdGkaj1ZuuURQSJ_HLYJCIz45exg1j_3icXcE01Jw7Tg3aoKPrfep_z-MKQGWyX3iNsobnH5D3T9lfKvvYNbHsSLgQqnz73M5loM27NqPIwLZ4tlliiUiagE6UOjPanPJ6IJJQcTPKjcWNE3Qsf- -1UIGtCaVoFCcU9xSaQlYm6jKgq6FeSgZOSBNQwQ4hZnU9M5y7y6exqXPXkmy_X37PohxDcnxUrI1SqXwRGF5uEIBf8JpfFjpN3CiklWZ-Rb4TzCSzNsoPVPv-3RUdrfwhu1m00]--></g></svg>