<?xml version="1.0" encoding="us-ascii" standalone="no"?><svg xmlns="http://www.w3.org/2000/svg" xmlns:xlink="http://www.w3.org/1999/xlink" contentStyleType="text/css" height="764px" preserveAspectRatio="none" style="width:710px;height:764px;background:#FFFFFF;" version="1.1" viewBox="0 0 710 764" width="710px" zoomAndPan="magnify"><defs/><g><text fill="#000000" font-family="sans-serif" font-size="14" font-weight="bold" lengthAdjust="spacing" textLength="231" x="240.5" y="28.5352">System Sequence Diagram (SSD)</text><rect fill="#FFFFFF" height="545.5449" style="stroke:#181818;stroke-width:1.0;" width="10" x="38.5" y="128.9766"/><rect fill="#FFFFFF" height="29.3105" style="stroke:#181818;stroke-width:1.0;" width="10" x="361.5" y="150.2871"/><rect fill="#FFFFFF" height="465.6133" style="stroke:#181818;stroke-width:1.0;" width="10" x="361.5" y="208.9082"/><rect fill="#FFFFFF" height="427.3027" style="stroke:#181818;stroke-width:1.0;" width="10" x="366.5" y="238.2188"/><rect fill="#FFFFFF" height="29.3105" style="stroke:#181818;stroke-width:1.0;" width="10" x="371.5" y="291.8398"/><rect fill="#FFFFFF" height="29.3105" style="stroke:#181818;stroke-width:1.0;" width="10" x="371.5" y="350.4609"/><rect fill="#FFFFFF" height="29.3105" style="stroke:#181818;stroke-width:1.0;" width="10" x="371.5" y="409.082"/><rect fill="#FFFFFF" height="29.3105" style="stroke:#181818;stroke-width:1.0;" width="10" x="371.5" y="482.6582"/><rect fill="#FFFFFF" height="87.9316" style="stroke:#181818;stroke-width:1.0;" width="10" x="371.5" y="541.2793"/><rect fill="#FFFFFF" height="74.6211" style="stroke:#181818;stroke-width:1.0;" width="10" x="662.5" y="599.9004"/><rect fill="none" height="383.9922" style="stroke:#000000;stroke-width:1.5;" width="693" x="10" y="253.2188"/><line style="stroke:#181818;stroke-width:0.5;stroke-dasharray:5.0,5.0;" x1="43" x2="43" y1="118.9766" y2="683.5215"/><line style="stroke:#181818;stroke-width:0.5;stroke-dasharray:5.0,5.0;" x1="366.5" x2="366.5" y1="118.9766" y2="683.5215"/><line style="stroke:#181818;stroke-width:0.5;stroke-dasharray:5.0,5.0;" x1="667" x2="667" y1="118.9766" y2="683.5215"/><text fill="#000000" font-family="sans-serif" font-size="14" lengthAdjust="spacing" textLength="41" x="20" y="116.0234">Agent</text><ellipse cx="43.5" cy="50.9883" fill="#E3E3E3" rx="8" ry="8" style="stroke:#181818;stroke-width:0.5;"/><path d="M43.5,58.9883 L43.5,85.9883 M30.5,66.9883 L56.5,66.9883 M43.5,85.9883 L30.5,100.9883 M43.5,85.9883 L56.5,100.9883 " fill="none" style="stroke:#181818;stroke-width:0.5;"/><text fill="#000000" font-family="sans-serif" font-size="14" lengthAdjust="spacing" textLength="41" x="20" y="696.0566">Agent</text><ellipse cx="43.5" cy="707.5098" fill="#E3E3E3" rx="8" ry="8" style="stroke:#181818;stroke-width:0.5;"/><path d="M43.5,715.5098 L43.5,742.5098 M30.5,723.5098 L56.5,723.5098 M43.5,742.5098 L30.5,757.5098 M43.5,742.5098 L56.5,757.5098 " fill="none" style="stroke:#181818;stroke-width:0.5;"/><rect fill="#E3E3E3" height="30.4883" rx="2.5" ry="2.5" style="stroke:#181818;stroke-width:0.5;" width="66" x="333.5" y="87.4883"/><text fill="#000000" font-family="sans-serif" font-size="14" lengthAdjust="spacing" textLength="52" x="340.5" y="108.0234">:System</text><rect fill="#E3E3E3" height="30.4883" rx="2.5" ry="2.5" style="stroke:#181818;stroke-width:0.5;" width="66" x="333.5" y="682.5215"/><text fill="#000000" font-family="sans-serif" font-size="14" lengthAdjust="spacing" textLength="52" x="340.5" y="703.0566">:System</text><text fill="#000000" font-family="sans-serif" font-size="14" lengthAdjust="spacing" textLength="45" x="642" y="116.0234">Owner</text><ellipse cx="667.5" cy="50.9883" fill="#E3E3E3" rx="8" ry="8" style="stroke:#181818;stroke-width:0.5;"/><path d="M667.5,58.9883 L667.5,85.9883 M654.5,66.9883 L680.5,66.9883 M667.5,85.9883 L654.5,100.9883 M667.5,85.9883 L680.5,100.9883 " fill="none" style="stroke:#181818;stroke-width:0.5;"/><text fill="#000000" font-family="sans-serif" font-size="14" lengthAdjust="spacing" textLength="45" x="642" y="696.0566">Owner</text><ellipse cx="667.5" cy="707.5098" fill="#E3E3E3" rx="8" ry="8" style="stroke:#181818;stroke-width:0.5;"/><path d="M667.5,715.5098 L667.5,742.5098 M654.5,723.5098 L680.5,723.5098 M667.5,742.5098 L654.5,757.5098 M667.5,742.5098 L680.5,757.5098 " fill="none" style="stroke:#181818;stroke-width:0.5;"/><rect fill="#FFFFFF" height="545.5449" style="stroke:#181818;stroke-width:1.0;" width="10" x="38.5" y="128.9766"/><rect fill="#FFFFFF" height="29.3105" style="stroke:#181818;stroke-width:1.0;" width="10" x="361.5" y="150.2871"/><rect fill="#FFFFFF" height="465.6133" style="stroke:#181818;stroke-width:1.0;" width="10" x="361.5" y="208.9082"/><rect fill="#FFFFFF" height="427.3027" style="stroke:#181818;stroke-width:1.0;" width="10" x="366.5" y="238.2188"/><rect fill="#FFFFFF" height="29.3105" style="stroke:#181818;stroke-width:1.0;" width="10" x="371.5" y="291.8398"/><rect fill="#FFFFFF" height="29.3105" style="stroke:#181818;stroke-width:1.0;" width="10" x="371.5" y="350.4609"/><rect fill="#FFFFFF" height="29.3105" style="stroke:#181818;stroke-width:1.0;" width="10" x="371.5" y="409.082"/><rect fill="#FFFFFF" height="29.3105" style="stroke:#181818;stroke-width:1.0;" width="10" x="371.5" y="482.6582"/><rect fill="#FFFFFF" height="87.9316" style="stroke:#181818;stroke-width:1.0;" width="10" x="371.5" y="541.2793"/><rect fill="#FFFFFF" height="74.6211" style="stroke:#181818;stroke-width:1.0;" width="10" x="662.5" y="599.9004"/><polygon fill="#181818" points="349.5,146.2871,359.5,150.2871,349.5,154.2871,353.5,150.2871" style="stroke:#181818;stroke-width:1.0;"/><line style="stroke:#181818;stroke-width:1.0;" x1="48.5" x2="355.5" y1="150.2871" y2="150.2871"/><text fill="#000000" font-family="sans-serif" font-size="13" font-weight="bold" lengthAdjust="spacing" textLength="9" x="55.5" y="145.5449">1</text><text fill="#000000" font-family="sans-serif" font-size="13" lengthAdjust="spacing" textLength="261" x="68.5" y="145.5449">asks to see the  announcements requests</text><polygon fill="#181818" points="59.5,175.5977,49.5,179.5977,59.5,183.5977,55.5,179.5977" style="stroke:#181818;stroke-width:1.0;"/><line style="stroke:#181818;stroke-width:1.0;stroke-dasharray:2.0,2.0;" x1="53.5" x2="365.5" y1="179.5977" y2="179.5977"/><text fill="#000000" font-family="sans-serif" font-size="13" font-weight="bold" lengthAdjust="spacing" textLength="9" x="65.5" y="174.8555">2</text><text fill="#000000" font-family="sans-serif" font-size="13" lengthAdjust="spacing" textLength="219" x="78.5" y="174.8555">show the announcements requests</text><polygon fill="#181818" points="349.5,204.9082,359.5,208.9082,349.5,212.9082,353.5,208.9082" style="stroke:#181818;stroke-width:1.0;"/><line style="stroke:#181818;stroke-width:1.0;" x1="48.5" x2="355.5" y1="208.9082" y2="208.9082"/><text fill="#000000" font-family="sans-serif" font-size="13" font-weight="bold" lengthAdjust="spacing" textLength="9" x="55.5" y="204.166">3</text><text fill="#000000" font-family="sans-serif" font-size="13" lengthAdjust="spacing" textLength="281" x="68.5" y="204.166">select the announcement request  to analyse</text><polygon fill="#181818" points="354.5,234.2188,364.5,238.2188,354.5,242.2188,358.5,238.2188" style="stroke:#181818;stroke-width:1.0;"/><line style="stroke:#181818;stroke-width:1.0;" x1="48.5" x2="360.5" y1="238.2188" y2="238.2188"/><text fill="#000000" font-family="sans-serif" font-size="13" font-weight="bold" lengthAdjust="spacing" textLength="9" x="55.5" y="233.4766">4</text><text fill="#000000" font-family="sans-serif" font-size="13" lengthAdjust="spacing" textLength="214" x="68.5" y="233.4766">select an option - accept or reject</text><path d="M10,253.2188 L72,253.2188 L72,260.5293 L62,270.5293 L10,270.5293 L10,253.2188 " fill="#EEEEEE" style="stroke:#000000;stroke-width:1.5;"/><rect fill="none" height="383.9922" style="stroke:#000000;stroke-width:1.5;" width="693" x="10" y="253.2188"/><text fill="#000000" font-family="sans-serif" font-size="13" font-weight="bold" lengthAdjust="spacing" textLength="17" x="25" y="266.7871">alt</text><text fill="#000000" font-family="sans-serif" font-size="11" font-weight="bold" lengthAdjust="spacing" textLength="43" x="87" y="265.8535">[accept]</text><polygon fill="#181818" points="359.5,287.8398,369.5,291.8398,359.5,295.8398,363.5,291.8398" style="stroke:#181818;stroke-width:1.0;"/><line style="stroke:#181818;stroke-width:1.0;" x1="48.5" x2="365.5" y1="291.8398" y2="291.8398"/><text fill="#000000" font-family="sans-serif" font-size="13" font-weight="bold" lengthAdjust="spacing" textLength="9" x="55.5" y="287.0977">5</text><text fill="#000000" font-family="sans-serif" font-size="13" lengthAdjust="spacing" textLength="213" x="68.5" y="287.0977">accept the announcement request</text><polygon fill="#181818" points="59.5,317.1504,49.5,321.1504,59.5,325.1504,55.5,321.1504" style="stroke:#181818;stroke-width:1.0;"/><line style="stroke:#181818;stroke-width:1.0;stroke-dasharray:2.0,2.0;" x1="53.5" x2="365.5" y1="321.1504" y2="321.1504"/><text fill="#000000" font-family="sans-serif" font-size="13" font-weight="bold" lengthAdjust="spacing" textLength="9" x="65.5" y="316.4082">6</text><text fill="#000000" font-family="sans-serif" font-size="13" lengthAdjust="spacing" textLength="152" x="78.5" y="316.4082">request the commission</text><polygon fill="#181818" points="359.5,346.4609,369.5,350.4609,359.5,354.4609,363.5,350.4609" style="stroke:#181818;stroke-width:1.0;"/><line style="stroke:#181818;stroke-width:1.0;" x1="48.5" x2="365.5" y1="350.4609" y2="350.4609"/><text fill="#000000" font-family="sans-serif" font-size="13" font-weight="bold" lengthAdjust="spacing" textLength="9" x="55.5" y="345.7188">7</text><text fill="#000000" font-family="sans-serif" font-size="13" lengthAdjust="spacing" textLength="124" x="68.5" y="345.7188">set the commission</text><polygon fill="#181818" points="59.5,375.7715,49.5,379.7715,59.5,383.7715,55.5,379.7715" style="stroke:#181818;stroke-width:1.0;"/><line style="stroke:#181818;stroke-width:1.0;stroke-dasharray:2.0,2.0;" x1="53.5" x2="365.5" y1="379.7715" y2="379.7715"/><text fill="#000000" font-family="sans-serif" font-size="13" font-weight="bold" lengthAdjust="spacing" textLength="9" x="65.5" y="375.0293">8</text><text fill="#000000" font-family="sans-serif" font-size="13" lengthAdjust="spacing" textLength="104" x="78.5" y="375.0293">validate the data</text><polygon fill="#181818" points="359.5,405.082,369.5,409.082,359.5,413.082,363.5,409.082" style="stroke:#181818;stroke-width:1.0;"/><line style="stroke:#181818;stroke-width:1.0;" x1="48.5" x2="365.5" y1="409.082" y2="409.082"/><text fill="#000000" font-family="sans-serif" font-size="13" font-weight="bold" lengthAdjust="spacing" textLength="9" x="55.5" y="404.3398">9</text><text fill="#000000" font-family="sans-serif" font-size="13" lengthAdjust="spacing" textLength="168" x="68.5" y="404.3398">publish the announcement</text><polygon fill="#181818" points="59.5,434.3926,49.5,438.3926,59.5,442.3926,55.5,438.3926" style="stroke:#181818;stroke-width:1.0;"/><line style="stroke:#181818;stroke-width:1.0;stroke-dasharray:2.0,2.0;" x1="53.5" x2="365.5" y1="438.3926" y2="438.3926"/><text fill="#000000" font-family="sans-serif" font-size="13" font-weight="bold" lengthAdjust="spacing" textLength="18" x="65.5" y="433.6504">10</text><text fill="#000000" font-family="sans-serif" font-size="13" lengthAdjust="spacing" textLength="163" x="87.5" y="433.6504">display operation success</text><line style="stroke:#000000;stroke-width:1.0;stroke-dasharray:2.0,2.0;" x1="10" x2="703" y1="447.3926" y2="447.3926"/><text fill="#000000" font-family="sans-serif" font-size="11" font-weight="bold" lengthAdjust="spacing" textLength="39" x="15" y="458.0273">[reject]</text><polygon fill="#181818" points="359.5,478.6582,369.5,482.6582,359.5,486.6582,363.5,482.6582" style="stroke:#181818;stroke-width:1.0;"/><line style="stroke:#181818;stroke-width:1.0;" x1="48.5" x2="365.5" y1="482.6582" y2="482.6582"/><text fill="#000000" font-family="sans-serif" font-size="13" font-weight="bold" lengthAdjust="spacing" textLength="18" x="55.5" y="477.916">11</text><text fill="#000000" font-family="sans-serif" font-size="13" lengthAdjust="spacing" textLength="156" x="77.5" y="477.916">reject the announcement</text><polygon fill="#181818" points="59.5,507.9688,49.5,511.9688,59.5,515.9688,55.5,511.9688" style="stroke:#181818;stroke-width:1.0;"/><line style="stroke:#181818;stroke-width:1.0;stroke-dasharray:2.0,2.0;" x1="53.5" x2="365.5" y1="511.9688" y2="511.9688"/><text fill="#000000" font-family="sans-serif" font-size="13" font-weight="bold" lengthAdjust="spacing" textLength="18" x="65.5" y="507.2266">12</text><text fill="#000000" font-family="sans-serif" font-size="13" lengthAdjust="spacing" textLength="118" x="87.5" y="507.2266">request the motive</text><polygon fill="#181818" points="359.5,537.2793,369.5,541.2793,359.5,545.2793,363.5,541.2793" style="stroke:#181818;stroke-width:1.0;"/><line style="stroke:#181818;stroke-width:1.0;" x1="48.5" x2="365.5" y1="541.2793" y2="541.2793"/><text fill="#000000" font-family="sans-serif" font-size="13" font-weight="bold" lengthAdjust="spacing" textLength="18" x="55.5" y="536.5371">13</text><text fill="#000000" font-family="sans-serif" font-size="13" lengthAdjust="spacing" textLength="98" x="77.5" y="536.5371">type the motive</text><polygon fill="#181818" points="359.5,566.5898,369.5,570.5898,359.5,574.5898,363.5,570.5898" style="stroke:#181818;stroke-width:1.0;"/><line style="stroke:#181818;stroke-width:1.0;" x1="48.5" x2="365.5" y1="570.5898" y2="570.5898"/><text fill="#000000" font-family="sans-serif" font-size="13" font-weight="bold" lengthAdjust="spacing" textLength="18" x="55.5" y="565.8477">14</text><text fill="#000000" font-family="sans-serif" font-size="13" lengthAdjust="spacing" textLength="49" x="77.5" y="565.8477">confirm</text><polygon fill="#181818" points="650.5,595.9004,660.5,599.9004,650.5,603.9004,654.5,599.9004" style="stroke:#181818;stroke-width:1.0;"/><line style="stroke:#181818;stroke-width:1.0;stroke-dasharray:2.0,2.0;" x1="381.5" x2="656.5" y1="599.9004" y2="599.9004"/><text fill="#000000" font-family="sans-serif" font-size="13" font-weight="bold" lengthAdjust="spacing" textLength="18" x="388.5" y="595.1582">15</text><text fill="#000000" font-family="sans-serif" font-size="13" lengthAdjust="spacing" textLength="240" x="410.5" y="595.1582">sends the reason to the owner(reason)</text><polygon fill="#181818" points="59.5,625.2109,49.5,629.2109,59.5,633.2109,55.5,629.2109" style="stroke:#181818;stroke-width:1.0;"/><line style="stroke:#181818;stroke-width:1.0;stroke-dasharray:2.0,2.0;" x1="53.5" x2="365.5" y1="629.2109" y2="629.2109"/><text fill="#000000" font-family="sans-serif" font-size="13" font-weight="bold" lengthAdjust="spacing" textLength="18" x="65.5" y="624.4688">16</text><text fill="#000000" font-family="sans-serif" font-size="13" lengthAdjust="spacing" textLength="163" x="87.5" y="624.4688">display operation success</text><polygon fill="#181818" points="59.5,661.5215,49.5,665.5215,59.5,669.5215,55.5,665.5215" style="stroke:#181818;stroke-width:1.0;"/><line style="stroke:#181818;stroke-width:1.0;stroke-dasharray:2.0,2.0;" x1="53.5" x2="360.5" y1="665.5215" y2="665.5215"/><text fill="#000000" font-family="sans-serif" font-size="13" font-weight="bold" lengthAdjust="spacing" textLength="18" x="65.5" y="660.7793">17</text><text fill="#000000" font-family="sans-serif" font-size="13" lengthAdjust="spacing" textLength="163" x="87.5" y="660.7793">display operation success</text><!--SRC=[dPIxRkGm34LxVGKnLLBC3qmHO804wJR0kaZDo8n7Eteuefo1_pwKx4coVkt3bIoHXrUNalXiV8iH7RZWWpx5u0XIx4ZnvqgB-emDLQct195qGj_Oxm5ymZfSZ6_W5IsJKiaa2QrwJkIWehUEl2QuDzZay9kgkhzL2hiKVETUACfOfn1XTsp8fnqWm_5H2JiPRLhq2NQ70LRMXk4rv-dYAPRvf-SV3pyBoxnZeinG8D_n4VPtLpK7YJmpf01CijCJ0Q3teHE1JegpR53aSkAI-iaQQvR9_8sqlO05Vn0BmgNGDc0rBU8cyfYiM3nZNL6GfQD7sulHwnANeUWXjCa43tl9qzGc40iZ_PB58MzrmsZJcF8rjsJkG5rJFwPEgtm7JfszxZiZTN3ECCi6XfIvenlIc9OXMuYPcdUqfix1cIG3_1iXKoLjzs8DdsOkgNysfpRSMkobgnInD9OxwG3pdsIHtDFV6ZzNEQokY5nLkTK-5oI7nj2Lsx0W9FKjpVFN9KpITV2l9YxVtV9abBFXQour8Y6BZNB9yb_8ZylDC7SxBpo-EF_PdUrJ8ufMoTlW1MVL1m00]--></g></svg>