<?xml version="1.0" encoding="us-ascii" standalone="no"?><svg xmlns="http://www.w3.org/2000/svg" xmlns:xlink="http://www.w3.org/1999/xlink" contentStyleType="text/css" height="851px" preserveAspectRatio="none" style="width:722px;height:851px;background:#FFFFFF;" version="1.1" viewBox="0 0 722 851" width="722px" zoomAndPan="magnify"><defs/><g><!--class Runnable--><g id="elem_Runnable"><rect codeLine="2" fill="#F1F1F1" height="66.6211" id="Runnable" rx="2.5" ry="2.5" style="stroke:#181818;stroke-width:0.5;" width="93" x="217.5" y="7"/><ellipse cx="232.5" cy="23" fill="#B4A7E5" rx="11" ry="11" style="stroke:#181818;stroke-width:1.0;"/><path d="M233.4531,19.6406 L233.4531,26.2969 L235.1719,26.2969 Q235.7813,26.2969 236.0469,26.5313 Q236.3125,26.7656 236.3125,27.1563 Q236.3125,27.5313 236.0469,27.7656 Q235.7813,28 235.1719,28 L230.0313,28 Q229.4219,28 229.1563,27.7656 Q228.8906,27.5313 228.8906,27.1406 Q228.8906,26.7656 229.1563,26.5313 Q229.4219,26.2969 230.0313,26.2969 L231.75,26.2969 L231.75,19.6406 L230.0313,19.6406 Q229.4219,19.6406 229.1563,19.4063 Q228.8906,19.1719 228.8906,18.7813 Q228.8906,18.4063 229.1563,18.1719 Q229.4219,17.9375 230.0313,17.9375 L235.1719,17.9375 Q235.7813,17.9375 236.0469,18.1719 Q236.3125,18.4063 236.3125,18.7813 Q236.3125,19.1719 236.0469,19.4063 Q235.7813,19.6406 235.1719,19.6406 L233.4531,19.6406 Z " fill="#000000"/><text fill="#000000" font-family="sans-serif" font-size="14" font-style="italic" lengthAdjust="spacing" textLength="61" x="246.5" y="28.7969">Runnable</text><line style="stroke:#181818;stroke-width:0.5;" x1="218.5" x2="309.5" y1="39" y2="39"/><line style="stroke:#181818;stroke-width:0.5;" x1="218.5" x2="309.5" y1="47" y2="47"/><ellipse cx="228.5" cy="61.8105" fill="#84BE84" rx="3" ry="3" style="stroke:#038048;stroke-width:1.0;"/><text fill="#000000" font-family="sans-serif" font-size="14" lengthAdjust="spacing" textLength="31" x="237.5" y="66.1074">run()</text></g><!--class ScheduleVisitUI--><g id="elem_ScheduleVisitUI"><rect codeLine="7" fill="#F1F1F1" height="66.6211" id="ScheduleVisitUI" rx="2.5" ry="2.5" style="stroke:#181818;stroke-width:0.5;" width="129" x="53.5" y="7"/><ellipse cx="68.5" cy="23" fill="#ADD1B2" rx="11" ry="11" style="stroke:#181818;stroke-width:1.0;"/><path d="M71.2656,18.875 Q71.4219,18.6563 71.6094,18.5469 Q71.7969,18.4375 72.0156,18.4375 Q72.3906,18.4375 72.625,18.7031 Q72.8594,18.9531 72.8594,19.5625 L72.8594,21.0156 Q72.8594,21.625 72.625,21.8906 Q72.3906,22.1563 72.0156,22.1563 Q71.6719,22.1563 71.4688,21.9531 Q71.2656,21.7656 71.1563,21.25 Q71.1094,20.8906 70.9219,20.7031 Q70.5938,20.3281 69.9844,20.1094 Q69.375,19.8906 68.75,19.8906 Q67.9844,19.8906 67.3438,20.2188 Q66.7188,20.5469 66.2188,21.2969 Q65.7344,22.0469 65.7344,23.0781 L65.7344,24.1719 Q65.7344,25.4063 66.625,26.2344 Q67.5156,27.0469 69.1094,27.0469 Q70.0469,27.0469 70.7031,26.7969 Q71.0938,26.6406 71.5156,26.2031 Q71.7813,25.9375 71.9219,25.8594 Q72.0781,25.7813 72.2813,25.7813 Q72.6094,25.7813 72.8594,26.0469 Q73.125,26.2969 73.125,26.6406 Q73.125,26.9844 72.7813,27.3906 Q72.2813,27.9688 71.4844,28.2969 Q70.4063,28.75 69.1094,28.75 Q67.5938,28.75 66.3906,28.125 Q65.4063,27.625 64.7188,26.5625 Q64.0313,25.4844 64.0313,24.2031 L64.0313,23.0469 Q64.0313,21.7188 64.6406,20.5781 Q65.2656,19.4219 66.3594,18.8125 Q67.4531,18.1875 68.6875,18.1875 Q69.4219,18.1875 70.0625,18.3594 Q70.7188,18.5156 71.2656,18.875 Z " fill="#000000"/><text fill="#000000" font-family="sans-serif" font-size="14" lengthAdjust="spacing" textLength="97" x="82.5" y="28.7969">ScheduleVisitUI</text><line style="stroke:#181818;stroke-width:0.5;" x1="54.5" x2="181.5" y1="39" y2="39"/><rect fill="none" height="6" style="stroke:#C82930;stroke-width:1.0;" width="6" x="61.5" y="50.8105"/><text fill="#000000" font-family="sans-serif" font-size="14" lengthAdjust="spacing" textLength="59" x="73.5" y="58.1074">controller</text><line style="stroke:#181818;stroke-width:0.5;" x1="54.5" x2="181.5" y1="65.6211" y2="65.6211"/></g><!--class ScheduleVisitController--><g id="elem_ScheduleVisitController"><rect codeLine="11" fill="#F1F1F1" height="215.5898" id="ScheduleVisitController" rx="2.5" ry="2.5" style="stroke:#181818;stroke-width:0.5;" width="188" x="24" y="134"/><ellipse cx="43.05" cy="150" fill="#ADD1B2" rx="11" ry="11" style="stroke:#181818;stroke-width:1.0;"/><path d="M45.8156,145.875 Q45.9719,145.6563 46.1594,145.5469 Q46.3469,145.4375 46.5656,145.4375 Q46.9406,145.4375 47.175,145.7031 Q47.4094,145.9531 47.4094,146.5625 L47.4094,148.0156 Q47.4094,148.625 47.175,148.8906 Q46.9406,149.1563 46.5656,149.1563 Q46.2219,149.1563 46.0188,148.9531 Q45.8156,148.7656 45.7063,148.25 Q45.6594,147.8906 45.4719,147.7031 Q45.1438,147.3281 44.5344,147.1094 Q43.925,146.8906 43.3,146.8906 Q42.5344,146.8906 41.8938,147.2188 Q41.2688,147.5469 40.7688,148.2969 Q40.2844,149.0469 40.2844,150.0781 L40.2844,151.1719 Q40.2844,152.4063 41.175,153.2344 Q42.0656,154.0469 43.6594,154.0469 Q44.5969,154.0469 45.2531,153.7969 Q45.6438,153.6406 46.0656,153.2031 Q46.3313,152.9375 46.4719,152.8594 Q46.6281,152.7813 46.8313,152.7813 Q47.1594,152.7813 47.4094,153.0469 Q47.675,153.2969 47.675,153.6406 Q47.675,153.9844 47.3313,154.3906 Q46.8313,154.9688 46.0344,155.2969 Q44.9563,155.75 43.6594,155.75 Q42.1438,155.75 40.9406,155.125 Q39.9563,154.625 39.2688,153.5625 Q38.5813,152.4844 38.5813,151.2031 L38.5813,150.0469 Q38.5813,148.7188 39.1906,147.5781 Q39.8156,146.4219 40.9094,145.8125 Q42.0031,145.1875 43.2375,145.1875 Q43.9719,145.1875 44.6125,145.3594 Q45.2688,145.5156 45.8156,145.875 Z " fill="#000000"/><text fill="#000000" font-family="sans-serif" font-size="14" lengthAdjust="spacing" textLength="147" x="57.95" y="155.7969">ScheduleVisitController</text><line style="stroke:#181818;stroke-width:0.5;" x1="25" x2="211" y1="166" y2="166"/><rect fill="none" height="6" style="stroke:#C82930;stroke-width:1.0;" width="6" x="32" y="177.8105"/><text fill="#000000" font-family="sans-serif" font-size="14" lengthAdjust="spacing" textLength="74" x="44" y="185.1074">repositories</text><rect fill="none" height="6" style="stroke:#C82930;stroke-width:1.0;" width="6" x="32" y="196.4316"/><text fill="#000000" font-family="sans-serif" font-size="14" lengthAdjust="spacing" textLength="157" x="44" y="203.7285">authenticationRepository</text><rect fill="none" height="6" style="stroke:#C82930;stroke-width:1.0;" width="6" x="32" y="215.0527"/><text fill="#000000" font-family="sans-serif" font-size="14" lengthAdjust="spacing" textLength="101" x="44" y="222.3496">clientRepository</text><rect fill="none" height="6" style="stroke:#C82930;stroke-width:1.0;" width="6" x="32" y="233.6738"/><text fill="#000000" font-family="sans-serif" font-size="14" lengthAdjust="spacing" textLength="125" x="44" y="240.9707">scheduleRepository</text><rect fill="none" height="6" style="stroke:#C82930;stroke-width:1.0;" width="6" x="32" y="252.2949"/><text fill="#000000" font-family="sans-serif" font-size="14" lengthAdjust="spacing" textLength="162" x="44" y="259.5918">announcementRepository</text><line style="stroke:#181818;stroke-width:0.5;" x1="25" x2="211" y1="267.1055" y2="267.1055"/><ellipse cx="35" cy="281.916" fill="#84BE84" rx="3" ry="3" style="stroke:#038048;stroke-width:1.0;"/><text fill="#000000" font-family="sans-serif" font-size="14" lengthAdjust="spacing" textLength="109" x="44" y="286.2129">createSchedule()</text><ellipse cx="35" cy="300.5371" fill="#84BE84" rx="3" ry="3" style="stroke:#038048;stroke-width:1.0;"/><text fill="#000000" font-family="sans-serif" font-size="14" lengthAdjust="spacing" textLength="156" x="44" y="304.834">announcementDTOList()</text><ellipse cx="35" cy="319.1582" fill="#84BE84" rx="3" ry="3" style="stroke:#038048;stroke-width:1.0;"/><text fill="#000000" font-family="sans-serif" font-size="14" lengthAdjust="spacing" textLength="155" x="44" y="323.4551">getAnnouncementDTO()</text><ellipse cx="35" cy="337.7793" fill="#84BE84" rx="3" ry="3" style="stroke:#038048;stroke-width:1.0;"/><text fill="#000000" font-family="sans-serif" font-size="14" lengthAdjust="spacing" textLength="148" x="44" y="342.0762">validateScheduleHour()</text></g><!--class Schedule--><g id="elem_Schedule"><rect codeLine="25" fill="#F1F1F1" height="196.9688" id="Schedule" rx="2.5" ry="2.5" style="stroke:#181818;stroke-width:0.5;" width="120" x="58" y="648"/><ellipse cx="86.05" cy="664" fill="#ADD1B2" rx="11" ry="11" style="stroke:#181818;stroke-width:1.0;"/><path d="M88.8156,659.875 Q88.9719,659.6563 89.1594,659.5469 Q89.3469,659.4375 89.5656,659.4375 Q89.9406,659.4375 90.175,659.7031 Q90.4094,659.9531 90.4094,660.5625 L90.4094,662.0156 Q90.4094,662.625 90.175,662.8906 Q89.9406,663.1563 89.5656,663.1563 Q89.2219,663.1563 89.0188,662.9531 Q88.8156,662.7656 88.7063,662.25 Q88.6594,661.8906 88.4719,661.7031 Q88.1438,661.3281 87.5344,661.1094 Q86.925,660.8906 86.3,660.8906 Q85.5344,660.8906 84.8938,661.2188 Q84.2688,661.5469 83.7688,662.2969 Q83.2844,663.0469 83.2844,664.0781 L83.2844,665.1719 Q83.2844,666.4063 84.175,667.2344 Q85.0656,668.0469 86.6594,668.0469 Q87.5969,668.0469 88.2531,667.7969 Q88.6438,667.6406 89.0656,667.2031 Q89.3313,666.9375 89.4719,666.8594 Q89.6281,666.7813 89.8313,666.7813 Q90.1594,666.7813 90.4094,667.0469 Q90.675,667.2969 90.675,667.6406 Q90.675,667.9844 90.3313,668.3906 Q89.8313,668.9688 89.0344,669.2969 Q87.9563,669.75 86.6594,669.75 Q85.1438,669.75 83.9406,669.125 Q82.9563,668.625 82.2688,667.5625 Q81.5813,666.4844 81.5813,665.2031 L81.5813,664.0469 Q81.5813,662.7188 82.1906,661.5781 Q82.8156,660.4219 83.9094,659.8125 Q85.0031,659.1875 86.2375,659.1875 Q86.9719,659.1875 87.6125,659.3594 Q88.2688,659.5156 88.8156,659.875 Z " fill="#000000"/><text fill="#000000" font-family="sans-serif" font-size="14" lengthAdjust="spacing" textLength="59" x="102.95" y="669.7969">Schedule</text><line style="stroke:#181818;stroke-width:0.5;" x1="59" x2="177" y1="680" y2="680"/><rect fill="none" height="6" style="stroke:#C82930;stroke-width:1.0;" width="6" x="66" y="691.8105"/><text fill="#000000" font-family="sans-serif" font-size="14" lengthAdjust="spacing" textLength="35" x="78" y="699.1074">name</text><rect fill="none" height="6" style="stroke:#C82930;stroke-width:1.0;" width="6" x="66" y="710.4316"/><text fill="#000000" font-family="sans-serif" font-size="14" lengthAdjust="spacing" textLength="89" x="78" y="717.7285">phoneNumber</text><rect fill="none" height="6" style="stroke:#C82930;stroke-width:1.0;" width="6" x="66" y="729.0527"/><text fill="#000000" font-family="sans-serif" font-size="14" lengthAdjust="spacing" textLength="94" x="78" y="736.3496">announcement</text><rect fill="none" height="6" style="stroke:#C82930;stroke-width:1.0;" width="6" x="66" y="747.6738"/><text fill="#000000" font-family="sans-serif" font-size="14" lengthAdjust="spacing" textLength="23" x="78" y="754.9707">day</text><rect fill="none" height="6" style="stroke:#C82930;stroke-width:1.0;" width="6" x="66" y="766.2949"/><text fill="#000000" font-family="sans-serif" font-size="14" lengthAdjust="spacing" textLength="57" x="78" y="773.5918">begiHour</text><rect fill="none" height="6" style="stroke:#C82930;stroke-width:1.0;" width="6" x="66" y="784.916"/><text fill="#000000" font-family="sans-serif" font-size="14" lengthAdjust="spacing" textLength="54" x="78" y="792.2129">endHour</text><rect fill="none" height="6" style="stroke:#C82930;stroke-width:1.0;" width="6" x="66" y="803.5371"/><text fill="#000000" font-family="sans-serif" font-size="14" lengthAdjust="spacing" textLength="28" x="78" y="810.834">note</text><rect fill="none" height="6" style="stroke:#C82930;stroke-width:1.0;" width="6" x="66" y="822.1582"/><text fill="#000000" font-family="sans-serif" font-size="14" lengthAdjust="spacing" textLength="38" x="78" y="829.4551">status</text><line style="stroke:#181818;stroke-width:0.5;" x1="59" x2="177" y1="836.9688" y2="836.9688"/></g><!--class Repositories--><g id="elem_Repositories"><rect codeLine="36" fill="#F1F1F1" height="66.6211" id="Repositories" rx="2.5" ry="2.5" style="stroke:#181818;stroke-width:0.5;" width="188" x="247" y="208.5"/><ellipse cx="297.25" cy="224.5" fill="#ADD1B2" rx="11" ry="11" style="stroke:#181818;stroke-width:1.0;"/><path d="M300.0156,220.375 Q300.1719,220.1563 300.3594,220.0469 Q300.5469,219.9375 300.7656,219.9375 Q301.1406,219.9375 301.375,220.2031 Q301.6094,220.4531 301.6094,221.0625 L301.6094,222.5156 Q301.6094,223.125 301.375,223.3906 Q301.1406,223.6563 300.7656,223.6563 Q300.4219,223.6563 300.2188,223.4531 Q300.0156,223.2656 299.9063,222.75 Q299.8594,222.3906 299.6719,222.2031 Q299.3438,221.8281 298.7344,221.6094 Q298.125,221.3906 297.5,221.3906 Q296.7344,221.3906 296.0938,221.7188 Q295.4688,222.0469 294.9688,222.7969 Q294.4844,223.5469 294.4844,224.5781 L294.4844,225.6719 Q294.4844,226.9063 295.375,227.7344 Q296.2656,228.5469 297.8594,228.5469 Q298.7969,228.5469 299.4531,228.2969 Q299.8438,228.1406 300.2656,227.7031 Q300.5313,227.4375 300.6719,227.3594 Q300.8281,227.2813 301.0313,227.2813 Q301.3594,227.2813 301.6094,227.5469 Q301.875,227.7969 301.875,228.1406 Q301.875,228.4844 301.5313,228.8906 Q301.0313,229.4688 300.2344,229.7969 Q299.1563,230.25 297.8594,230.25 Q296.3438,230.25 295.1406,229.625 Q294.1563,229.125 293.4688,228.0625 Q292.7813,226.9844 292.7813,225.7031 L292.7813,224.5469 Q292.7813,223.2188 293.3906,222.0781 Q294.0156,220.9219 295.1094,220.3125 Q296.2031,219.6875 297.4375,219.6875 Q298.1719,219.6875 298.8125,219.8594 Q299.4688,220.0156 300.0156,220.375 Z " fill="#000000"/><text fill="#000000" font-family="sans-serif" font-size="14" lengthAdjust="spacing" textLength="79" x="317.75" y="230.2969">Repositories</text><line style="stroke:#181818;stroke-width:0.5;" x1="248" x2="434" y1="240.5" y2="240.5"/><ellipse cx="258" cy="255.3105" fill="none" rx="3" ry="3" style="stroke:#038048;stroke-width:1.0;"/><text fill="#000000" font-family="sans-serif" font-size="14" lengthAdjust="spacing" textLength="162" x="267" y="259.6074">announcementRepository</text><line style="stroke:#181818;stroke-width:0.5;" x1="248" x2="434" y1="267.1211" y2="267.1211"/></g><!--class ScheduleRepository--><g id="elem_ScheduleRepository"><rect codeLine="41" fill="#F1F1F1" height="178.3477" id="ScheduleRepository" rx="2.5" ry="2.5" style="stroke:#181818;stroke-width:0.5;" width="222" x="7" y="410"/><ellipse cx="50.35" cy="426" fill="#ADD1B2" rx="11" ry="11" style="stroke:#181818;stroke-width:1.0;"/><path d="M53.1156,421.875 Q53.2719,421.6563 53.4594,421.5469 Q53.6469,421.4375 53.8656,421.4375 Q54.2406,421.4375 54.475,421.7031 Q54.7094,421.9531 54.7094,422.5625 L54.7094,424.0156 Q54.7094,424.625 54.475,424.8906 Q54.2406,425.1563 53.8656,425.1563 Q53.5219,425.1563 53.3188,424.9531 Q53.1156,424.7656 53.0063,424.25 Q52.9594,423.8906 52.7719,423.7031 Q52.4438,423.3281 51.8344,423.1094 Q51.225,422.8906 50.6,422.8906 Q49.8344,422.8906 49.1938,423.2188 Q48.5688,423.5469 48.0688,424.2969 Q47.5844,425.0469 47.5844,426.0781 L47.5844,427.1719 Q47.5844,428.4063 48.475,429.2344 Q49.3656,430.0469 50.9594,430.0469 Q51.8969,430.0469 52.5531,429.7969 Q52.9438,429.6406 53.3656,429.2031 Q53.6313,428.9375 53.7719,428.8594 Q53.9281,428.7813 54.1313,428.7813 Q54.4594,428.7813 54.7094,429.0469 Q54.975,429.2969 54.975,429.6406 Q54.975,429.9844 54.6313,430.3906 Q54.1313,430.9688 53.3344,431.2969 Q52.2563,431.75 50.9594,431.75 Q49.4438,431.75 48.2406,431.125 Q47.2563,430.625 46.5688,429.5625 Q45.8813,428.4844 45.8813,427.2031 L45.8813,426.0469 Q45.8813,424.7188 46.4906,423.5781 Q47.1156,422.4219 48.2094,421.8125 Q49.3031,421.1875 50.5375,421.1875 Q51.2719,421.1875 51.9125,421.3594 Q52.5688,421.5156 53.1156,421.875 Z " fill="#000000"/><text fill="#000000" font-family="sans-serif" font-size="14" lengthAdjust="spacing" textLength="127" x="70.65" y="431.7969">ScheduleRepository</text><line style="stroke:#181818;stroke-width:0.5;" x1="8" x2="228" y1="442" y2="442"/><rect fill="none" height="6" style="stroke:#C82930;stroke-width:1.0;" width="6" x="15" y="453.8105"/><text fill="#000000" font-family="sans-serif" font-size="14" lengthAdjust="spacing" textLength="81" x="27" y="461.1074">ScheduleList</text><line style="stroke:#181818;stroke-width:0.5;" x1="8" x2="228" y1="468.6211" y2="468.6211"/><ellipse cx="18" cy="483.4316" fill="#84BE84" rx="3" ry="3" style="stroke:#038048;stroke-width:1.0;"/><text fill="#000000" font-family="sans-serif" font-size="14" lengthAdjust="spacing" textLength="99" x="27" y="487.7285">saveSchedule()</text><ellipse cx="18" cy="502.0527" fill="#84BE84" rx="3" ry="3" style="stroke:#038048;stroke-width:1.0;"/><text fill="#000000" font-family="sans-serif" font-size="14" lengthAdjust="spacing" textLength="118" x="27" y="506.3496">validateSchedule()</text><ellipse cx="18" cy="520.6738" fill="#84BE84" rx="3" ry="3" style="stroke:#038048;stroke-width:1.0;"/><text fill="#000000" font-family="sans-serif" font-size="14" lengthAdjust="spacing" textLength="93" x="27" y="524.9707">addSchedule()</text><ellipse cx="18" cy="539.2949" fill="#84BE84" rx="3" ry="3" style="stroke:#038048;stroke-width:1.0;"/><text fill="#000000" font-family="sans-serif" font-size="14" lengthAdjust="spacing" textLength="111" x="27" y="543.5918">getScheduleList()</text><ellipse cx="18" cy="557.916" fill="#84BE84" rx="3" ry="3" style="stroke:#038048;stroke-width:1.0;"/><text fill="#000000" font-family="sans-serif" font-size="14" lengthAdjust="spacing" textLength="196" x="27" y="562.2129">readObjectScheduleRequest ()</text><ellipse cx="18" cy="576.5371" fill="#84BE84" rx="3" ry="3" style="stroke:#038048;stroke-width:1.0;"/><text fill="#000000" font-family="sans-serif" font-size="14" lengthAdjust="spacing" textLength="196" x="27" y="580.834">writeObjectScheduleRequest ()</text></g><!--class AnnouncementRepository--><g id="elem_AnnouncementRepository"><rect codeLine="52" fill="#F1F1F1" height="178.3477" id="AnnouncementRepository" rx="2.5" ry="2.5" style="stroke:#181818;stroke-width:0.5;" width="214" x="470" y="153"/><ellipse cx="493.55" cy="169" fill="#ADD1B2" rx="11" ry="11" style="stroke:#181818;stroke-width:1.0;"/><path d="M496.3156,164.875 Q496.4719,164.6563 496.6594,164.5469 Q496.8469,164.4375 497.0656,164.4375 Q497.4406,164.4375 497.675,164.7031 Q497.9094,164.9531 497.9094,165.5625 L497.9094,167.0156 Q497.9094,167.625 497.675,167.8906 Q497.4406,168.1563 497.0656,168.1563 Q496.7219,168.1563 496.5188,167.9531 Q496.3156,167.7656 496.2063,167.25 Q496.1594,166.8906 495.9719,166.7031 Q495.6438,166.3281 495.0344,166.1094 Q494.425,165.8906 493.8,165.8906 Q493.0344,165.8906 492.3938,166.2188 Q491.7688,166.5469 491.2688,167.2969 Q490.7844,168.0469 490.7844,169.0781 L490.7844,170.1719 Q490.7844,171.4063 491.675,172.2344 Q492.5656,173.0469 494.1594,173.0469 Q495.0969,173.0469 495.7531,172.7969 Q496.1438,172.6406 496.5656,172.2031 Q496.8313,171.9375 496.9719,171.8594 Q497.1281,171.7813 497.3313,171.7813 Q497.6594,171.7813 497.9094,172.0469 Q498.175,172.2969 498.175,172.6406 Q498.175,172.9844 497.8313,173.3906 Q497.3313,173.9688 496.5344,174.2969 Q495.4563,174.75 494.1594,174.75 Q492.6438,174.75 491.4406,174.125 Q490.4563,173.625 489.7688,172.5625 Q489.0813,171.4844 489.0813,170.2031 L489.0813,169.0469 Q489.0813,167.7188 489.6906,166.5781 Q490.3156,165.4219 491.4094,164.8125 Q492.5031,164.1875 493.7375,164.1875 Q494.4719,164.1875 495.1125,164.3594 Q495.7688,164.5156 496.3156,164.875 Z " fill="#000000"/><text fill="#000000" font-family="sans-serif" font-size="14" lengthAdjust="spacing" textLength="163" x="509.45" y="174.7969">AnnouncementRepository</text><line style="stroke:#181818;stroke-width:0.5;" x1="471" x2="683" y1="185" y2="185"/><line style="stroke:#181818;stroke-width:0.5;" x1="471" x2="683" y1="193" y2="193"/><ellipse cx="481" cy="207.8105" fill="#84BE84" rx="3" ry="3" style="stroke:#038048;stroke-width:1.0;"/><text fill="#000000" font-family="sans-serif" font-size="14" lengthAdjust="spacing" textLength="40" x="490" y="212.1074">save()</text><ellipse cx="481" cy="226.4316" fill="#84BE84" rx="3" ry="3" style="stroke:#038048;stroke-width:1.0;"/><text fill="#000000" font-family="sans-serif" font-size="14" lengthAdjust="spacing" textLength="145" x="490" y="230.7285">createAnnouncement()</text><ellipse cx="481" cy="245.0527" fill="#84BE84" rx="3" ry="3" style="stroke:#038048;stroke-width:1.0;"/><text fill="#000000" font-family="sans-serif" font-size="14" lengthAdjust="spacing" textLength="154" x="490" y="249.3496">validateAnnouncement()</text><ellipse cx="481" cy="263.6738" fill="#84BE84" rx="3" ry="3" style="stroke:#038048;stroke-width:1.0;"/><text fill="#000000" font-family="sans-serif" font-size="14" lengthAdjust="spacing" textLength="129" x="490" y="267.9707">addAnnouncement()</text><ellipse cx="481" cy="282.2949" fill="#84BE84" rx="3" ry="3" style="stroke:#038048;stroke-width:1.0;"/><text fill="#000000" font-family="sans-serif" font-size="14" lengthAdjust="spacing" textLength="188" x="490" y="286.5918">getAllVisibleAnnouncements()</text><ellipse cx="481" cy="300.916" fill="#84BE84" rx="3" ry="3" style="stroke:#038048;stroke-width:1.0;"/><text fill="#000000" font-family="sans-serif" font-size="14" lengthAdjust="spacing" textLength="125" x="490" y="305.2129">getAvailableFields()</text><ellipse cx="481" cy="319.5371" fill="#84BE84" rx="3" ry="3" style="stroke:#038048;stroke-width:1.0;"/><text fill="#000000" font-family="sans-serif" font-size="14" lengthAdjust="spacing" textLength="132" x="490" y="323.834">getAnnouncements()</text></g><!--class AnnouncementDTO--><g id="elem_AnnouncementDTO"><rect codeLine="63" fill="#F1F1F1" height="122.4844" id="AnnouncementDTO" rx="2.5" ry="2.5" style="stroke:#181818;stroke-width:0.5;" width="157" x="498.5" y="685.5"/><ellipse cx="513.5" cy="701.5" fill="#ADD1B2" rx="11" ry="11" style="stroke:#181818;stroke-width:1.0;"/><path d="M516.2656,697.375 Q516.4219,697.1563 516.6094,697.0469 Q516.7969,696.9375 517.0156,696.9375 Q517.3906,696.9375 517.625,697.2031 Q517.8594,697.4531 517.8594,698.0625 L517.8594,699.5156 Q517.8594,700.125 517.625,700.3906 Q517.3906,700.6563 517.0156,700.6563 Q516.6719,700.6563 516.4688,700.4531 Q516.2656,700.2656 516.1563,699.75 Q516.1094,699.3906 515.9219,699.2031 Q515.5938,698.8281 514.9844,698.6094 Q514.375,698.3906 513.75,698.3906 Q512.9844,698.3906 512.3438,698.7188 Q511.7188,699.0469 511.2188,699.7969 Q510.7344,700.5469 510.7344,701.5781 L510.7344,702.6719 Q510.7344,703.9063 511.625,704.7344 Q512.5156,705.5469 514.1094,705.5469 Q515.0469,705.5469 515.7031,705.2969 Q516.0938,705.1406 516.5156,704.7031 Q516.7813,704.4375 516.9219,704.3594 Q517.0781,704.2813 517.2813,704.2813 Q517.6094,704.2813 517.8594,704.5469 Q518.125,704.7969 518.125,705.1406 Q518.125,705.4844 517.7813,705.8906 Q517.2813,706.4688 516.4844,706.7969 Q515.4063,707.25 514.1094,707.25 Q512.5938,707.25 511.3906,706.625 Q510.4063,706.125 509.7188,705.0625 Q509.0313,703.9844 509.0313,702.7031 L509.0313,701.5469 Q509.0313,700.2188 509.6406,699.0781 Q510.2656,697.9219 511.3594,697.3125 Q512.4531,696.6875 513.6875,696.6875 Q514.4219,696.6875 515.0625,696.8594 Q515.7188,697.0156 516.2656,697.375 Z " fill="#000000"/><text fill="#000000" font-family="sans-serif" font-size="14" lengthAdjust="spacing" textLength="125" x="527.5" y="707.2969">AnnouncementDTO</text><line style="stroke:#181818;stroke-width:0.5;" x1="499.5" x2="654.5" y1="717.5" y2="717.5"/><rect fill="none" height="6" style="stroke:#C82930;stroke-width:1.0;" width="6" x="506.5" y="729.3105"/><text fill="#000000" font-family="sans-serif" font-size="14" lengthAdjust="spacing" textLength="31" x="518.5" y="736.6074">price</text><rect fill="none" height="6" style="stroke:#C82930;stroke-width:1.0;" width="6" x="506.5" y="747.9316"/><text fill="#000000" font-family="sans-serif" font-size="14" lengthAdjust="spacing" textLength="99" x="518.5" y="755.2285">typeOfBusiness</text><rect fill="none" height="6" style="stroke:#C82930;stroke-width:1.0;" width="6" x="506.5" y="766.5527"/><text fill="#000000" font-family="sans-serif" font-size="14" lengthAdjust="spacing" textLength="53" x="518.5" y="773.8496">property</text><rect fill="none" height="6" style="stroke:#C82930;stroke-width:1.0;" width="6" x="506.5" y="785.1738"/><text fill="#000000" font-family="sans-serif" font-size="14" lengthAdjust="spacing" textLength="36" x="518.5" y="792.4707">agent</text><line style="stroke:#181818;stroke-width:0.5;" x1="499.5" x2="654.5" y1="799.9844" y2="799.9844"/></g><!--class AnnouncementMapper--><g id="elem_AnnouncementMapper"><rect codeLine="70" fill="#F1F1F1" height="159.7266" id="AnnouncementMapper" rx="2.5" ry="2.5" style="stroke:#181818;stroke-width:0.5;" width="276" x="439" y="419"/><ellipse cx="501.25" cy="435" fill="#ADD1B2" rx="11" ry="11" style="stroke:#181818;stroke-width:1.0;"/><path d="M504.0156,430.875 Q504.1719,430.6563 504.3594,430.5469 Q504.5469,430.4375 504.7656,430.4375 Q505.1406,430.4375 505.375,430.7031 Q505.6094,430.9531 505.6094,431.5625 L505.6094,433.0156 Q505.6094,433.625 505.375,433.8906 Q505.1406,434.1563 504.7656,434.1563 Q504.4219,434.1563 504.2188,433.9531 Q504.0156,433.7656 503.9063,433.25 Q503.8594,432.8906 503.6719,432.7031 Q503.3438,432.3281 502.7344,432.1094 Q502.125,431.8906 501.5,431.8906 Q500.7344,431.8906 500.0938,432.2188 Q499.4688,432.5469 498.9688,433.2969 Q498.4844,434.0469 498.4844,435.0781 L498.4844,436.1719 Q498.4844,437.4063 499.375,438.2344 Q500.2656,439.0469 501.8594,439.0469 Q502.7969,439.0469 503.4531,438.7969 Q503.8438,438.6406 504.2656,438.2031 Q504.5313,437.9375 504.6719,437.8594 Q504.8281,437.7813 505.0313,437.7813 Q505.3594,437.7813 505.6094,438.0469 Q505.875,438.2969 505.875,438.6406 Q505.875,438.9844 505.5313,439.3906 Q505.0313,439.9688 504.2344,440.2969 Q503.1563,440.75 501.8594,440.75 Q500.3438,440.75 499.1406,440.125 Q498.1563,439.625 497.4688,438.5625 Q496.7813,437.4844 496.7813,436.2031 L496.7813,435.0469 Q496.7813,433.7188 497.3906,432.5781 Q498.0156,431.4219 499.1094,430.8125 Q500.2031,430.1875 501.4375,430.1875 Q502.1719,430.1875 502.8125,430.3594 Q503.4688,430.5156 504.0156,430.875 Z " fill="#000000"/><text fill="#000000" font-family="sans-serif" font-size="14" lengthAdjust="spacing" textLength="143" x="521.75" y="440.7969">AnnouncementMapper</text><line style="stroke:#181818;stroke-width:0.5;" x1="440" x2="714" y1="451" y2="451"/><rect fill="none" height="6" style="stroke:#C82930;stroke-width:1.0;" width="6" x="447" y="462.8105"/><text fill="#000000" font-family="sans-serif" font-size="14" lengthAdjust="spacing" textLength="146" x="459" y="470.1074">announcementDTOList</text><line style="stroke:#181818;stroke-width:0.5;" x1="440" x2="714" y1="477.6211" y2="477.6211"/><ellipse cx="450" cy="492.4316" fill="#84BE84" rx="3" ry="3" style="stroke:#038048;stroke-width:1.0;"/><text fill="#000000" font-family="sans-serif" font-size="14" lengthAdjust="spacing" textLength="57" x="459" y="496.7285">convert()</text><ellipse cx="450" cy="511.0527" fill="#84BE84" rx="3" ry="3" style="stroke:#038048;stroke-width:1.0;"/><text fill="#000000" font-family="sans-serif" font-size="14" lengthAdjust="spacing" textLength="44" x="459" y="515.3496">toDto()</text><ellipse cx="450" cy="529.6738" fill="#84BE84" rx="3" ry="3" style="stroke:#038048;stroke-width:1.0;"/><text fill="#000000" font-family="sans-serif" font-size="14" lengthAdjust="spacing" textLength="147" x="459" y="533.9707">getAllAnnouncements()</text><ellipse cx="450" cy="548.2949" fill="#84BE84" rx="3" ry="3" style="stroke:#038048;stroke-width:1.0;"/><text fill="#000000" font-family="sans-serif" font-size="14" lengthAdjust="spacing" textLength="250" x="459" y="552.5918">getAllAnnouncementsRecentToOldest()</text><ellipse cx="450" cy="566.916" fill="#84BE84" rx="3" ry="3" style="stroke:#038048;stroke-width:1.0;"/><text fill="#000000" font-family="sans-serif" font-size="14" lengthAdjust="spacing" textLength="139" x="459" y="571.2129">toDtoAnnouncement()</text></g><!--reverse link ScheduleVisitUI to Runnable--><g id="link_ScheduleVisitUI_Runnable"><path codeLine="81" d="M202.74,40.5 C207.6,40.5 212.47,40.5 217.33,40.5 " fill="none" id="ScheduleVisitUI-backto-Runnable" style="stroke:#181818;stroke-width:1.0;"/><polygon fill="none" points="202.73,47.5,182.73,40.5,202.73,33.5,202.73,47.5" style="stroke:#181818;stroke-width:1.0;"/></g><!--link ScheduleVisitUI to ScheduleVisitController--><g id="link_ScheduleVisitUI_ScheduleVisitController"><path codeLine="82" d="M118,74.44 C118,89.75 118,108.93 118,128.79 " fill="none" id="ScheduleVisitUI-to-ScheduleVisitController" style="stroke:#181818;stroke-width:1.0;stroke-dasharray:7.0,7.0;"/><polygon fill="#181818" points="118,133.85,122,124.85,118,128.85,114,124.85,118,133.85" style="stroke:#181818;stroke-width:1.0;"/></g><!--link ScheduleVisitController to Repositories--><g id="link_ScheduleVisitController_Repositories"><path codeLine="83" d="M212.08,242 C221.94,242 231.81,242 241.67,242 " fill="none" id="ScheduleVisitController-to-Repositories" style="stroke:#181818;stroke-width:1.0;stroke-dasharray:7.0,7.0;"/><polygon fill="#181818" points="246.83,242,237.83,238,241.83,242,237.83,246,246.83,242" style="stroke:#181818;stroke-width:1.0;"/></g><!--link Repositories to AnnouncementRepository--><g id="link_Repositories_AnnouncementRepository"><path codeLine="84" d="M435.03,242 C444.95,242 454.87,242 464.78,242 " fill="none" id="Repositories-to-AnnouncementRepository" style="stroke:#181818;stroke-width:1.0;stroke-dasharray:7.0,7.0;"/><polygon fill="#181818" points="469.97,242,460.97,238,464.97,242,460.97,246,469.97,242" style="stroke:#181818;stroke-width:1.0;"/></g><!--link AnnouncementRepository to AnnouncementMapper--><g id="link_AnnouncementRepository_AnnouncementMapper"><path codeLine="85" d="M577,331.11 C577,357.84 577,387.12 577,413.59 " fill="none" id="AnnouncementRepository-to-AnnouncementMapper" style="stroke:#181818;stroke-width:1.0;stroke-dasharray:7.0,7.0;"/><polygon fill="#181818" points="577,418.85,581,409.85,577,413.85,573,409.85,577,418.85" style="stroke:#181818;stroke-width:1.0;"/></g><!--link AnnouncementMapper to AnnouncementDTO--><g id="link_AnnouncementMapper_AnnouncementDTO"><path codeLine="86" d="M577,579.03 C577,611.63 577,648.95 577,679.99 " fill="none" id="AnnouncementMapper-to-AnnouncementDTO" style="stroke:#181818;stroke-width:1.0;"/><polygon fill="#181818" points="577,685.31,581,676.31,577,680.31,573,676.31,577,685.31" style="stroke:#181818;stroke-width:1.0;"/></g><!--link ScheduleVisitController to ScheduleRepository--><g id="link_ScheduleVisitController_ScheduleRepository"><path codeLine="87" d="M118,350.03 C118,368.07 118,386.66 118,404.32 " fill="none" id="ScheduleVisitController-to-ScheduleRepository" style="stroke:#181818;stroke-width:1.0;stroke-dasharray:7.0,7.0;"/><polygon fill="#181818" points="118,409.77,122,400.77,118,404.77,114,400.77,118,409.77" style="stroke:#181818;stroke-width:1.0;"/></g><!--link ScheduleRepository to Schedule--><g id="link_ScheduleRepository_Schedule"><path codeLine="88" d="M118,588.28 C118,605.88 118,624.49 118,642.53 " fill="none" id="ScheduleRepository-to-Schedule" style="stroke:#181818;stroke-width:1.0;"/><polygon fill="#181818" points="118,647.6,122,638.6,118,642.6,114,638.6,118,647.6" style="stroke:#181818;stroke-width:1.0;"/></g><!--SRC=[TLJ1RXiX4Btp5HmRHUjFiEGsgbefZIKdpHt3sAR2i871LTJctmFomc9OzhAxynx3lCSCKYFO0-D0TrvhjbT0_n52mtDFhTTVxiW78Lmnv-WpFu7m2bwba_ZxP-15sa2vqMYDKc0xt6-Pa78FrC9e0cIi13U5cCSJQ9ISeJHwbmZlQHib0zg4tRHJ0p2jZTSSpksgUyejC8HKPL1v3PTh7bwsZz9Xnew0criuGnUcf2Zo_J3U1h2rOzQlsHccp_5aD3pvypuOs9O-XGHBklPmb763wHUqAFwqmPJM8KFlGWtN4dQ5uVCHTqng2f-nMKB2eajJEiSkhQcrExFRGZInu7APDyV3UOdj_Wzmd4jwy-2GPifVAn6wd2nfioXvjYHgo3clVL8kQMGjWa7QOZmsaL9nAiAabGntGxamgU8iVfUWXEkreEl92hqv7zDe9KyzWUyZR0zVlPCQdCi4CuB5F3V7s7KV2sb_iN4iPtXXMf9jHbz2obmucWSqbGbzzHMs0nvUBsQh1BWgPsLoS8FaUsnGSC3X_xg-k4XzaQrMwzw5HNeNsShAumd3mdAkoCsGPSfonv5E8wwg5LVNoS913CEwFlP-lON6eeQ5-OvPKvXy0W00]--></g></svg>