<?xml version="1.0" encoding="us-ascii" standalone="no"?><svg xmlns="http://www.w3.org/2000/svg" xmlns:xlink="http://www.w3.org/1999/xlink" contentStyleType="text/css" height="1149px" preserveAspectRatio="none" style="width:1907px;height:1149px;background:#FFFFFF;" version="1.1" viewBox="0 0 1907 1149" width="1907px" zoomAndPan="magnify"><defs/><g><rect fill="#FFFFFF" height="955.0605" style="stroke:#181818;stroke-width:1.0;" width="10" x="21" y="93.6211"/><rect fill="#FFFFFF" height="940.7695" style="stroke:#181818;stroke-width:1.0;" width="10" x="475" y="116.9121"/><rect fill="#FFFFFF" height="803.2754" style="stroke:#181818;stroke-width:1.0;" width="10" x="672" y="254.4063"/><rect fill="#FFFFFF" height="31.291" style="stroke:#181818;stroke-width:1.0;" width="10" x="869" y="473.4434"/><rect fill="#FFFFFF" height="62.582" style="stroke:#181818;stroke-width:1.0;" width="10" x="1061" y="442.1523"/><rect fill="#FFFFFF" height="31.291" style="stroke:#181818;stroke-width:1.0;" width="10" x="1189" y="254.4063"/><rect fill="#FFFFFF" height="31.291" style="stroke:#181818;stroke-width:1.0;" width="10" x="1296" y="316.9883"/><rect fill="#FFFFFF" height="31.291" style="stroke:#181818;stroke-width:1.0;" width="10" x="1443" y="410.8613"/><rect fill="#FFFFFF" height="31.291" style="stroke:#181818;stroke-width:1.0;" width="10" x="1612" y="678.4805"/><rect fill="#FFFFFF" height="37.291" style="stroke:#181818;stroke-width:1.0;" width="10" x="1612" y="973.0996"/><rect fill="#FFFFFF" height="75.582" style="stroke:#181818;stroke-width:1.0;" width="10" x="1737" y="741.0625"/><line style="stroke:#181818;stroke-width:0.5;stroke-dasharray:5.0,5.0;" x1="26" x2="26" y1="83.6211" y2="1066.6816"/><line style="stroke:#181818;stroke-width:0.5;stroke-dasharray:5.0,5.0;" x1="479.5" x2="479.5" y1="83.6211" y2="1066.6816"/><line style="stroke:#181818;stroke-width:0.5;stroke-dasharray:5.0,5.0;" x1="676.5" x2="676.5" y1="219.3047" y2="1066.6816"/><line style="stroke:#181818;stroke-width:0.5;stroke-dasharray:5.0,5.0;" x1="873.5" x2="873.5" y1="83.6211" y2="1066.6816"/><line style="stroke:#181818;stroke-width:0.5;stroke-dasharray:5.0,5.0;" x1="1065.5" x2="1065.5" y1="83.6211" y2="1066.6816"/><line style="stroke:#181818;stroke-width:0.5;stroke-dasharray:5.0,5.0;" x1="1193.5" x2="1193.5" y1="83.6211" y2="1066.6816"/><line style="stroke:#181818;stroke-width:0.5;stroke-dasharray:5.0,5.0;" x1="1300.5" x2="1300.5" y1="83.6211" y2="1066.6816"/><line style="stroke:#181818;stroke-width:0.5;stroke-dasharray:5.0,5.0;" x1="1447.5" x2="1447.5" y1="83.6211" y2="1066.6816"/><line style="stroke:#181818;stroke-width:0.5;stroke-dasharray:5.0,5.0;" x1="1616.5" x2="1616.5" y1="83.6211" y2="1066.6816"/><line style="stroke:#181818;stroke-width:0.5;stroke-dasharray:5.0,5.0;" x1="1741.5" x2="1741.5" y1="83.6211" y2="1066.6816"/><text fill="#000000" font-family="sans-serif" font-size="14" lengthAdjust="spacing" textLength="36" x="5" y="80.1074">Client</text><ellipse cx="26" cy="13.5" fill="#E2E2F0" rx="8" ry="8" style="stroke:#181818;stroke-width:0.5;"/><path d="M26,21.5 L26,48.5 M13,29.5 L39,29.5 M26,48.5 L13,63.5 M26,48.5 L39,63.5 " fill="none" style="stroke:#181818;stroke-width:0.5;"/><text fill="#000000" font-family="sans-serif" font-size="14" lengthAdjust="spacing" textLength="36" x="5" y="1080.7891">Client</text><ellipse cx="26" cy="1092.8027" fill="#E2E2F0" rx="8" ry="8" style="stroke:#181818;stroke-width:0.5;"/><path d="M26,1100.8027 L26,1127.8027 M13,1108.8027 L39,1108.8027 M26,1127.8027 L13,1142.8027 M26,1127.8027 L39,1142.8027 " fill="none" style="stroke:#181818;stroke-width:0.5;"/><rect fill="#E2E2F0" height="32.6211" rx="2.5" ry="2.5" style="stroke:#181818;stroke-width:0.5;" width="111" x="424.5" y="50"/><text fill="#000000" font-family="sans-serif" font-size="14" lengthAdjust="spacing" textLength="97" x="431.5" y="72.1074">ScheduleVisitUI</text><rect fill="#E2E2F0" height="32.6211" rx="2.5" ry="2.5" style="stroke:#181818;stroke-width:0.5;" width="111" x="424.5" y="1065.6816"/><text fill="#000000" font-family="sans-serif" font-size="14" lengthAdjust="spacing" textLength="97" x="431.5" y="1087.7891">ScheduleVisitUI</text><rect fill="#E2E2F0" height="32.6211" rx="2.5" ry="2.5" style="stroke:#181818;stroke-width:0.5;" width="161" x="596.5" y="1065.6816"/><text fill="#000000" font-family="sans-serif" font-size="14" lengthAdjust="spacing" textLength="147" x="603.5" y="1087.7891">ScheduleVisitController</text><rect fill="#E2E2F0" height="32.6211" rx="2.5" ry="2.5" style="stroke:#181818;stroke-width:0.5;" width="157" x="795.5" y="50"/><text fill="#000000" font-family="sans-serif" font-size="14" lengthAdjust="spacing" textLength="143" x="802.5" y="72.1074">AnnouncementMapper</text><rect fill="#E2E2F0" height="32.6211" rx="2.5" ry="2.5" style="stroke:#181818;stroke-width:0.5;" width="157" x="795.5" y="1065.6816"/><text fill="#000000" font-family="sans-serif" font-size="14" lengthAdjust="spacing" textLength="143" x="802.5" y="1087.7891">AnnouncementMapper</text><rect fill="#E2E2F0" height="32.6211" rx="2.5" ry="2.5" style="stroke:#181818;stroke-width:0.5;" width="139" x="996.5" y="50"/><text fill="#000000" font-family="sans-serif" font-size="14" lengthAdjust="spacing" textLength="125" x="1003.5" y="72.1074">AnnouncementDTO</text><rect fill="#E2E2F0" height="32.6211" rx="2.5" ry="2.5" style="stroke:#181818;stroke-width:0.5;" width="139" x="996.5" y="1065.6816"/><text fill="#000000" font-family="sans-serif" font-size="14" lengthAdjust="spacing" textLength="125" x="1003.5" y="1087.7891">AnnouncementDTO</text><rect fill="#E2E2F0" height="32.6211" rx="2.5" ry="2.5" style="stroke:#181818;stroke-width:0.5;" width="97" x="1145.5" y="50"/><text fill="#000000" font-family="sans-serif" font-size="14" lengthAdjust="spacing" textLength="83" x="1152.5" y="72.1074">:Repositories</text><rect fill="#E2E2F0" height="32.6211" rx="2.5" ry="2.5" style="stroke:#181818;stroke-width:0.5;" width="97" x="1145.5" y="1065.6816"/><text fill="#000000" font-family="sans-serif" font-size="14" lengthAdjust="spacing" textLength="83" x="1152.5" y="1087.7891">:Repositories</text><rect fill="#E2E2F0" height="51.2422" rx="2.5" ry="2.5" style="stroke:#181818;stroke-width:0.5;" width="97" x="1252.5" y="31.3789"/><text fill="#000000" font-family="sans-serif" font-size="14" lengthAdjust="spacing" textLength="74" x="1264" y="53.4863">repositories</text><text fill="#000000" font-family="sans-serif" font-size="14" lengthAdjust="spacing" textLength="83" x="1259.5" y="72.1074">:Repositories</text><rect fill="#E2E2F0" height="51.2422" rx="2.5" ry="2.5" style="stroke:#181818;stroke-width:0.5;" width="97" x="1252.5" y="1065.6816"/><text fill="#000000" font-family="sans-serif" font-size="14" lengthAdjust="spacing" textLength="74" x="1264" y="1087.7891">repositories</text><text fill="#000000" font-family="sans-serif" font-size="14" lengthAdjust="spacing" textLength="83" x="1259.5" y="1106.4102">:Repositories</text><rect fill="#E2E2F0" height="32.6211" rx="2.5" ry="2.5" style="stroke:#181818;stroke-width:0.5;" width="177" x="1359.5" y="50"/><text fill="#000000" font-family="sans-serif" font-size="14" lengthAdjust="spacing" textLength="163" x="1366.5" y="72.1074">AnnouncementRepository</text><rect fill="#E2E2F0" height="32.6211" rx="2.5" ry="2.5" style="stroke:#181818;stroke-width:0.5;" width="177" x="1359.5" y="1065.6816"/><text fill="#000000" font-family="sans-serif" font-size="14" lengthAdjust="spacing" textLength="163" x="1366.5" y="1087.7891">AnnouncementRepository</text><rect fill="#E2E2F0" height="32.6211" rx="2.5" ry="2.5" style="stroke:#181818;stroke-width:0.5;" width="141" x="1546.5" y="50"/><text fill="#000000" font-family="sans-serif" font-size="14" lengthAdjust="spacing" textLength="127" x="1553.5" y="72.1074">ScheduleRepository</text><rect fill="#E2E2F0" height="32.6211" rx="2.5" ry="2.5" style="stroke:#181818;stroke-width:0.5;" width="141" x="1546.5" y="1065.6816"/><text fill="#000000" font-family="sans-serif" font-size="14" lengthAdjust="spacing" textLength="127" x="1553.5" y="1087.7891">ScheduleRepository</text><rect fill="#E2E2F0" height="32.6211" rx="2.5" ry="2.5" style="stroke:#181818;stroke-width:0.5;" width="73" x="1705.5" y="50"/><text fill="#000000" font-family="sans-serif" font-size="14" lengthAdjust="spacing" textLength="59" x="1712.5" y="72.1074">Schedule</text><rect fill="#E2E2F0" height="32.6211" rx="2.5" ry="2.5" style="stroke:#181818;stroke-width:0.5;" width="73" x="1705.5" y="1065.6816"/><text fill="#000000" font-family="sans-serif" font-size="14" lengthAdjust="spacing" textLength="59" x="1712.5" y="1087.7891">Schedule</text><rect fill="#FFFFFF" height="955.0605" style="stroke:#181818;stroke-width:1.0;" width="10" x="21" y="93.6211"/><rect fill="#FFFFFF" height="940.7695" style="stroke:#181818;stroke-width:1.0;" width="10" x="475" y="116.9121"/><rect fill="#FFFFFF" height="803.2754" style="stroke:#181818;stroke-width:1.0;" width="10" x="672" y="254.4063"/><rect fill="#FFFFFF" height="31.291" style="stroke:#181818;stroke-width:1.0;" width="10" x="869" y="473.4434"/><rect fill="#FFFFFF" height="62.582" style="stroke:#181818;stroke-width:1.0;" width="10" x="1061" y="442.1523"/><rect fill="#FFFFFF" height="31.291" style="stroke:#181818;stroke-width:1.0;" width="10" x="1189" y="254.4063"/><rect fill="#FFFFFF" height="31.291" style="stroke:#181818;stroke-width:1.0;" width="10" x="1296" y="316.9883"/><rect fill="#FFFFFF" height="31.291" style="stroke:#181818;stroke-width:1.0;" width="10" x="1443" y="410.8613"/><rect fill="#FFFFFF" height="31.291" style="stroke:#181818;stroke-width:1.0;" width="10" x="1612" y="678.4805"/><rect fill="#FFFFFF" height="37.291" style="stroke:#181818;stroke-width:1.0;" width="10" x="1612" y="973.0996"/><rect fill="#FFFFFF" height="75.582" style="stroke:#181818;stroke-width:1.0;" width="10" x="1737" y="741.0625"/><polygon fill="#181818" points="463,112.9121,473,116.9121,463,120.9121,467,116.9121" style="stroke:#181818;stroke-width:1.0;"/><line style="stroke:#181818;stroke-width:1.0;" x1="31" x2="469" y1="116.9121" y2="116.9121"/><text fill="#000000" font-family="sans-serif" font-size="13" font-weight="bold" lengthAdjust="spacing" textLength="7" x="38" y="111.6494">1</text><text fill="#000000" font-family="sans-serif" font-size="13" lengthAdjust="spacing" textLength="146" x="49" y="111.6494">starts scheduling request</text><polygon fill="#181818" points="42,144.2031,32,148.2031,42,152.2031,38,148.2031" style="stroke:#181818;stroke-width:1.0;"/><line style="stroke:#181818;stroke-width:1.0;" x1="36" x2="474" y1="148.2031" y2="148.2031"/><text fill="#000000" font-family="sans-serif" font-size="13" font-weight="bold" lengthAdjust="spacing" textLength="7" x="48" y="142.9404">2</text><text fill="#000000" font-family="sans-serif" font-size="13" lengthAdjust="spacing" textLength="409" x="59" y="142.9404">requests the property business he wants to schedule (Sell, Rent or All)</text><polygon fill="#181818" points="463,175.4941,473,179.4941,463,183.4941,467,179.4941" style="stroke:#181818;stroke-width:1.0;"/><line style="stroke:#181818;stroke-width:1.0;" x1="31" x2="469" y1="179.4941" y2="179.4941"/><text fill="#000000" font-family="sans-serif" font-size="13" font-weight="bold" lengthAdjust="spacing" textLength="7" x="38" y="174.2314">3</text><text fill="#000000" font-family="sans-serif" font-size="13" lengthAdjust="spacing" textLength="163" x="49" y="174.2314">selects the type of business</text><polygon fill="#181818" points="584.5,206.7852,594.5,210.7852,584.5,214.7852,588.5,210.7852" style="stroke:#181818;stroke-width:1.0;"/><line style="stroke:#181818;stroke-width:1.0;" x1="485" x2="590.5" y1="210.7852" y2="210.7852"/><text fill="#000000" font-family="sans-serif" font-size="13" font-weight="bold" lengthAdjust="spacing" textLength="7" x="492" y="205.5225">4</text><text fill="#000000" font-family="sans-serif" font-size="13" lengthAdjust="spacing" textLength="36" x="503" y="205.5225">create</text><rect fill="#E2E2F0" height="32.6211" rx="2.5" ry="2.5" style="stroke:#181818;stroke-width:0.5;" width="161" x="596.5" y="187.4941"/><text fill="#000000" font-family="sans-serif" font-size="14" lengthAdjust="spacing" textLength="147" x="603.5" y="209.6016">ScheduleVisitController</text><polygon fill="#181818" points="1177,250.4063,1187,254.4063,1177,258.4063,1181,254.4063" style="stroke:#181818;stroke-width:1.0;"/><line style="stroke:#181818;stroke-width:1.0;" x1="682" x2="1183" y1="254.4063" y2="254.4063"/><text fill="#000000" font-family="sans-serif" font-size="13" font-weight="bold" lengthAdjust="spacing" textLength="7" x="689" y="249.1436">5</text><text fill="#000000" font-family="sans-serif" font-size="13" lengthAdjust="spacing" textLength="75" x="700" y="249.1436">getInstance()</text><polygon fill="#181818" points="693,281.6973,683,285.6973,693,289.6973,689,285.6973" style="stroke:#181818;stroke-width:1.0;"/><line style="stroke:#181818;stroke-width:1.0;stroke-dasharray:2.0,2.0;" x1="687" x2="1193" y1="285.6973" y2="285.6973"/><text fill="#000000" font-family="sans-serif" font-size="13" font-weight="bold" lengthAdjust="spacing" textLength="7" x="699" y="280.4346">6</text><text fill="#000000" font-family="sans-serif" font-size="13" lengthAdjust="spacing" textLength="104" x="710" y="280.4346">return repositories</text><polygon fill="#181818" points="1284,312.9883,1294,316.9883,1284,320.9883,1288,316.9883" style="stroke:#181818;stroke-width:1.0;"/><line style="stroke:#181818;stroke-width:1.0;" x1="682" x2="1290" y1="316.9883" y2="316.9883"/><text fill="#000000" font-family="sans-serif" font-size="13" font-weight="bold" lengthAdjust="spacing" textLength="7" x="689" y="311.7256">7</text><text fill="#000000" font-family="sans-serif" font-size="13" lengthAdjust="spacing" textLength="175" x="700" y="311.7256">getAnnouncementRepository()</text><polygon fill="#181818" points="693,344.2793,683,348.2793,693,352.2793,689,348.2793" style="stroke:#181818;stroke-width:1.0;"/><line style="stroke:#181818;stroke-width:1.0;stroke-dasharray:2.0,2.0;" x1="687" x2="1300" y1="348.2793" y2="348.2793"/><text fill="#000000" font-family="sans-serif" font-size="13" font-weight="bold" lengthAdjust="spacing" textLength="7" x="699" y="343.0166">8</text><text fill="#000000" font-family="sans-serif" font-size="13" lengthAdjust="spacing" textLength="186" x="710" y="343.0166">return AnnouncementRepository</text><polygon fill="#181818" points="660,375.5703,670,379.5703,660,383.5703,664,379.5703" style="stroke:#181818;stroke-width:1.0;"/><line style="stroke:#181818;stroke-width:1.0;" x1="485" x2="666" y1="379.5703" y2="379.5703"/><text fill="#000000" font-family="sans-serif" font-size="13" font-weight="bold" lengthAdjust="spacing" textLength="7" x="492" y="374.3076">9</text><text fill="#000000" font-family="sans-serif" font-size="13" lengthAdjust="spacing" textLength="134" x="503" y="374.3076">getAnnouncementList()</text><polygon fill="#181818" points="1431,406.8613,1441,410.8613,1431,414.8613,1435,410.8613" style="stroke:#181818;stroke-width:1.0;"/><line style="stroke:#181818;stroke-width:1.0;" x1="682" x2="1437" y1="410.8613" y2="410.8613"/><text fill="#000000" font-family="sans-serif" font-size="13" font-weight="bold" lengthAdjust="spacing" textLength="14" x="689" y="405.5986">10</text><text fill="#000000" font-family="sans-serif" font-size="13" lengthAdjust="spacing" textLength="134" x="707" y="405.5986">getAnnouncementList()</text><polygon fill="#181818" points="1082,438.1523,1072,442.1523,1082,446.1523,1078,442.1523" style="stroke:#181818;stroke-width:1.0;"/><line style="stroke:#181818;stroke-width:1.0;" x1="1076" x2="1447" y1="442.1523" y2="442.1523"/><text fill="#000000" font-family="sans-serif" font-size="13" font-weight="bold" lengthAdjust="spacing" textLength="14" x="1088" y="436.8896">11</text><text fill="#000000" font-family="sans-serif" font-size="13" lengthAdjust="spacing" textLength="145" x="1106" y="436.8896">return AnnouncementList</text><polygon fill="#181818" points="890,469.4434,880,473.4434,890,477.4434,886,473.4434" style="stroke:#181818;stroke-width:1.0;"/><line style="stroke:#181818;stroke-width:1.0;" x1="884" x2="1060" y1="473.4434" y2="473.4434"/><text fill="#000000" font-family="sans-serif" font-size="13" font-weight="bold" lengthAdjust="spacing" textLength="14" x="896" y="468.1807">12</text><text fill="#000000" font-family="sans-serif" font-size="13" lengthAdjust="spacing" textLength="145" x="914" y="468.1807">return AnnouncementList</text><polygon fill="#181818" points="693,500.7344,683,504.7344,693,508.7344,689,504.7344" style="stroke:#181818;stroke-width:1.0;"/><line style="stroke:#181818;stroke-width:1.0;" x1="687" x2="873" y1="504.7344" y2="504.7344"/><text fill="#000000" font-family="sans-serif" font-size="13" font-weight="bold" lengthAdjust="spacing" textLength="14" x="699" y="499.4717">13</text><text fill="#000000" font-family="sans-serif" font-size="13" lengthAdjust="spacing" textLength="145" x="717" y="499.4717">return AnnouncementList</text><polygon fill="#181818" points="496,532.0254,486,536.0254,496,540.0254,492,536.0254" style="stroke:#181818;stroke-width:1.0;"/><line style="stroke:#181818;stroke-width:1.0;" x1="490" x2="671" y1="536.0254" y2="536.0254"/><text fill="#000000" font-family="sans-serif" font-size="13" font-weight="bold" lengthAdjust="spacing" textLength="14" x="502" y="530.7627">14</text><text fill="#000000" font-family="sans-serif" font-size="13" lengthAdjust="spacing" textLength="145" x="520" y="530.7627">return AnnouncementList</text><polygon fill="#181818" points="42,580.6074,32,584.6074,42,588.6074,38,584.6074" style="stroke:#181818;stroke-width:1.0;"/><line style="stroke:#181818;stroke-width:1.0;" x1="36" x2="474" y1="584.6074" y2="584.6074"/><text fill="#000000" font-family="sans-serif" font-size="13" font-weight="bold" lengthAdjust="spacing" textLength="14" x="48" y="570.6992">15</text><text fill="#000000" font-family="sans-serif" font-size="13" lengthAdjust="spacing" textLength="356" x="66" y="562.0537">shows announcement list and requests the user to select one</text><text fill="#000000" font-family="sans-serif" font-size="13" lengthAdjust="spacing" textLength="347" x="70" y="579.3447">and insert all the information (day, beginHour,endHour, note)</text><polygon fill="#181818" points="463,611.8984,473,615.8984,463,619.8984,467,615.8984" style="stroke:#181818;stroke-width:1.0;"/><line style="stroke:#181818;stroke-width:1.0;" x1="31" x2="469" y1="615.8984" y2="615.8984"/><text fill="#000000" font-family="sans-serif" font-size="13" font-weight="bold" lengthAdjust="spacing" textLength="14" x="38" y="610.6357">16</text><text fill="#000000" font-family="sans-serif" font-size="13" lengthAdjust="spacing" textLength="398" x="56" y="610.6357">selects announcement with the property and types all the information</text><polygon fill="#181818" points="660,643.1895,670,647.1895,660,651.1895,664,647.1895" style="stroke:#181818;stroke-width:1.0;"/><line style="stroke:#181818;stroke-width:1.0;" x1="485" x2="666" y1="647.1895" y2="647.1895"/><text fill="#000000" font-family="sans-serif" font-size="13" font-weight="bold" lengthAdjust="spacing" textLength="14" x="492" y="641.9268">17</text><text fill="#000000" font-family="sans-serif" font-size="13" lengthAdjust="spacing" textLength="98" x="510" y="641.9268">createSchedule()</text><polygon fill="#181818" points="1600,674.4805,1610,678.4805,1600,682.4805,1604,678.4805" style="stroke:#181818;stroke-width:1.0;"/><line style="stroke:#181818;stroke-width:1.0;" x1="682" x2="1606" y1="678.4805" y2="678.4805"/><text fill="#000000" font-family="sans-serif" font-size="13" font-weight="bold" lengthAdjust="spacing" textLength="14" x="689" y="673.2178">18</text><text fill="#000000" font-family="sans-serif" font-size="13" lengthAdjust="spacing" textLength="132" x="707" y="673.2178">validateScheduleHour()</text><polygon fill="#181818" points="693,705.7715,683,709.7715,693,713.7715,689,709.7715" style="stroke:#181818;stroke-width:1.0;"/><line style="stroke:#181818;stroke-width:1.0;" x1="687" x2="1616" y1="709.7715" y2="709.7715"/><text fill="#000000" font-family="sans-serif" font-size="13" font-weight="bold" lengthAdjust="spacing" textLength="14" x="699" y="704.5088">19</text><text fill="#000000" font-family="sans-serif" font-size="13" lengthAdjust="spacing" textLength="75" x="717" y="704.5088">return bolean</text><polygon fill="#181818" points="1725,737.0625,1735,741.0625,1725,745.0625,1729,741.0625" style="stroke:#181818;stroke-width:1.0;"/><line style="stroke:#181818;stroke-width:1.0;" x1="682" x2="1731" y1="741.0625" y2="741.0625"/><text fill="#000000" font-family="sans-serif" font-size="13" font-weight="bold" lengthAdjust="spacing" textLength="14" x="689" y="735.7998">20</text><text fill="#000000" font-family="sans-serif" font-size="13" lengthAdjust="spacing" textLength="98" x="707" y="735.7998">createSchedule()</text><line style="stroke:#181818;stroke-width:1.0;" x1="1747" x2="1789" y1="772.3535" y2="772.3535"/><line style="stroke:#181818;stroke-width:1.0;" x1="1789" x2="1789" y1="772.3535" y2="785.3535"/><line style="stroke:#181818;stroke-width:1.0;" x1="1748" x2="1789" y1="785.3535" y2="785.3535"/><polygon fill="#181818" points="1758,781.3535,1748,785.3535,1758,789.3535,1754,785.3535" style="stroke:#181818;stroke-width:1.0;"/><text fill="#000000" font-family="sans-serif" font-size="13" font-weight="bold" lengthAdjust="spacing" textLength="14" x="1754" y="767.0908">21</text><text fill="#000000" font-family="sans-serif" font-size="13" lengthAdjust="spacing" textLength="128" x="1772" y="767.0908">validates the schedule</text><polygon fill="#181818" points="693,812.6445,683,816.6445,693,820.6445,689,816.6445" style="stroke:#181818;stroke-width:1.0;"/><line style="stroke:#181818;stroke-width:1.0;" x1="687" x2="1741" y1="816.6445" y2="816.6445"/><text fill="#000000" font-family="sans-serif" font-size="13" font-weight="bold" lengthAdjust="spacing" textLength="14" x="699" y="811.3818">22</text><text fill="#000000" font-family="sans-serif" font-size="13" lengthAdjust="spacing" textLength="89" x="717" y="811.3818">return schedule</text><polygon fill="#181818" points="496,843.9355,486,847.9355,496,851.9355,492,847.9355" style="stroke:#181818;stroke-width:1.0;"/><line style="stroke:#181818;stroke-width:1.0;" x1="490" x2="671" y1="847.9355" y2="847.9355"/><text fill="#000000" font-family="sans-serif" font-size="13" font-weight="bold" lengthAdjust="spacing" textLength="14" x="502" y="842.6729">23</text><text fill="#000000" font-family="sans-serif" font-size="13" lengthAdjust="spacing" textLength="89" x="520" y="842.6729">return schedule</text><polygon fill="#181818" points="42,875.2266,32,879.2266,42,883.2266,38,879.2266" style="stroke:#181818;stroke-width:1.0;"/><line style="stroke:#181818;stroke-width:1.0;" x1="36" x2="474" y1="879.2266" y2="879.2266"/><text fill="#000000" font-family="sans-serif" font-size="13" font-weight="bold" lengthAdjust="spacing" textLength="14" x="48" y="873.9639">24</text><text fill="#000000" font-family="sans-serif" font-size="13" lengthAdjust="spacing" textLength="207" x="66" y="873.9639">shows request schedule information</text><polygon fill="#181818" points="463,906.5176,473,910.5176,463,914.5176,467,910.5176" style="stroke:#181818;stroke-width:1.0;"/><line style="stroke:#181818;stroke-width:1.0;" x1="31" x2="469" y1="910.5176" y2="910.5176"/><text fill="#000000" font-family="sans-serif" font-size="13" font-weight="bold" lengthAdjust="spacing" textLength="14" x="38" y="905.2549">25</text><text fill="#000000" font-family="sans-serif" font-size="13" lengthAdjust="spacing" textLength="100" x="56" y="905.2549">confirms the data</text><polygon fill="#181818" points="660,937.8086,670,941.8086,660,945.8086,664,941.8086" style="stroke:#181818;stroke-width:1.0;"/><line style="stroke:#181818;stroke-width:1.0;" x1="485" x2="666" y1="941.8086" y2="941.8086"/><text fill="#000000" font-family="sans-serif" font-size="13" font-weight="bold" lengthAdjust="spacing" textLength="14" x="492" y="936.5459">26</text><text fill="#000000" font-family="sans-serif" font-size="13" lengthAdjust="spacing" textLength="142" x="510" y="936.5459">saveScheduleSchedule()</text><polygon fill="#181818" points="1600,969.0996,1610,973.0996,1600,977.0996,1604,973.0996" style="stroke:#181818;stroke-width:1.0;"/><line style="stroke:#181818;stroke-width:1.0;" x1="682" x2="1606" y1="973.0996" y2="973.0996"/><text fill="#000000" font-family="sans-serif" font-size="13" font-weight="bold" lengthAdjust="spacing" textLength="14" x="689" y="967.8369">27</text><text fill="#000000" font-family="sans-serif" font-size="13" lengthAdjust="spacing" textLength="88" x="707" y="967.8369">saveSchedule()</text><line style="stroke:#181818;stroke-width:1.0;" x1="1622" x2="1664" y1="1009.3906" y2="1009.3906"/><line style="stroke:#181818;stroke-width:1.0;" x1="1664" x2="1664" y1="1009.3906" y2="1022.3906"/><line style="stroke:#181818;stroke-width:1.0;" x1="1617" x2="1664" y1="1022.3906" y2="1022.3906"/><polygon fill="#181818" points="1627,1018.3906,1617,1022.3906,1627,1026.3906,1623,1022.3906" style="stroke:#181818;stroke-width:1.0;"/><text fill="#000000" font-family="sans-serif" font-size="13" font-weight="bold" lengthAdjust="spacing" textLength="14" x="1629" y="1004.1279">28</text><text fill="#000000" font-family="sans-serif" font-size="13" lengthAdjust="spacing" textLength="83" x="1647" y="1004.1279">addSchedule()</text><polygon fill="#181818" points="37,1044.6816,27,1048.6816,37,1052.6816,33,1048.6816" style="stroke:#181818;stroke-width:1.0;"/><line style="stroke:#181818;stroke-width:1.0;" x1="31" x2="474" y1="1048.6816" y2="1048.6816"/><text fill="#000000" font-family="sans-serif" font-size="13" font-weight="bold" lengthAdjust="spacing" textLength="14" x="43" y="1043.4189">29</text><text fill="#000000" font-family="sans-serif" font-size="13" lengthAdjust="spacing" textLength="145" x="61" y="1043.4189">informs operation sucess</text><!--SRC=[ZLN9Rjim4BthAmOvsO7z0pe42D930xGe4ASzvK9BOvi0JQfSRFZlEwGsqYBJ63143MVclLd5d5NIdVUeguerLcbu4Hob1MQW2QUgOzhoXdUCfBlcXAqJ-8SRRd-_UYt7onelIbgjX40T_5aj4jrdAPMJ3Pu9vYVhkbxj74v5nM_llvAxX_eDEqLWIdCq3zx39BZjk3mAf11J4nrPVCYb0xelui_Eit7_vzfxDyEPCfvcdr-OnJ7jLV-4xHEbk0PZoTjaIs4HoRyEZOqigHJqSvnCUkDwL39WJmYTLfHPUuEzCroYCK32Az6ZQpNHWjKEXTXG5WcT6k9PYFL0PliKgA30Pd1fRns2EamUFRodx6lz-0WrD1g9MkNVlJnJcXgEQ5yb1KWPNgsZHFX-cTvoHSt8O3kW-zYjqnBYObSjVkemy2G7P1DevGiVa_IjGdz2JK0B7HF1UyCuMmky7znOGffIbtTPD9k02bIgAdzn3qNpbetAurHnG2MSh8AVukfEu97xuQ-XY3Xv6zP4_u3xeY_i8gA3PObxe3QdtNTyCVonViEqcPEw6c2H6WZI8qcRJg8pnDdFN1WbK18_PD3Yacx8G8YWn-L1wJEpd1fxrRBR1lPuvFAxSdg3iWrFaChYUh4lXY5Do5ovFQMRm6Fw6JOvoBGz-qaU5rdScSlTLyE52Tv6-fvgqfQPXRaKtKtLNWbaCYvSnil8QjndEUOpZNaPJ_iliHtZwEkMrquupYeHpLcOwwleDjTFG-VC2pefKLhsHia3r-UUBV5cQGqDkqnv-6ebOvjuysLIdwrWrYbhsnZ_yuekyj8dm81luduuZ6l2roVsD7n8_m40]--></g></svg>