<?xml version="1.0" encoding="us-ascii" standalone="no"?><svg xmlns="http://www.w3.org/2000/svg" xmlns:xlink="http://www.w3.org/1999/xlink" contentStyleType="text/css" height="751px" preserveAspectRatio="none" style="width:797px;height:751px;background:#FFFFFF;" version="1.1" viewBox="0 0 797 751" width="797px" zoomAndPan="magnify"><defs/><g><!--entity Admin--><g id="elem_Admin"><ellipse cx="72.5" cy="564.5" fill="#F1F1F1" rx="8" ry="8" style="stroke:#181818;stroke-width:0.5;"/><path d="M72.5,572.5 L72.5,599.5 M59.5,580.5 L85.5,580.5 M72.5,599.5 L59.5,614.5 M72.5,599.5 L85.5,614.5 " fill="none" style="stroke:#181818;stroke-width:0.5;"/><text fill="#000000" font-family="sans-serif" font-size="14" lengthAdjust="spacing" textLength="133" x="6" y="631.1074">System Administrator</text></g><!--entity UnregUser--><g id="elem_UnregUser"><ellipse cx="72.5" cy="332.5" fill="#F1F1F1" rx="8" ry="8" style="stroke:#181818;stroke-width:0.5;"/><path d="M72.5,340.5 L72.5,367.5 M59.5,348.5 L85.5,348.5 M72.5,367.5 L59.5,382.5 M72.5,367.5 L85.5,382.5 " fill="none" style="stroke:#181818;stroke-width:0.5;"/><text fill="#000000" font-family="sans-serif" font-size="14" lengthAdjust="spacing" textLength="114" x="15.5" y="399.1074">Unregistered User</text></g><!--entity Agent--><g id="elem_Agent"><ellipse cx="72.5" cy="172.5" fill="#F1F1F1" rx="8" ry="8" style="stroke:#181818;stroke-width:0.5;"/><path d="M72.5,180.5 L72.5,207.5 M59.5,188.5 L85.5,188.5 M72.5,207.5 L59.5,222.5 M72.5,207.5 L85.5,222.5 " fill="none" style="stroke:#181818;stroke-width:0.5;"/><text fill="#000000" font-family="sans-serif" font-size="14" lengthAdjust="spacing" textLength="37" x="54" y="239.1074">Agent</text></g><!--entity Owner--><g id="elem_Owner"><ellipse cx="72.5" cy="36.5" fill="#F1F1F1" rx="8" ry="8" style="stroke:#181818;stroke-width:0.5;"/><path d="M72.5,44.5 L72.5,71.5 M59.5,52.5 L85.5,52.5 M72.5,71.5 L59.5,86.5 M72.5,71.5 L85.5,86.5 " fill="none" style="stroke:#181818;stroke-width:0.5;"/><text fill="#000000" font-family="sans-serif" font-size="14" lengthAdjust="spacing" textLength="41" x="52" y="103.1074">Owner</text></g><g id="elem_US001: display listed properties"><ellipse cx="494.8144" cy="304.5629" fill="#F1F1F1" rx="118.3144" ry="26.0629" style="stroke:#181818;stroke-width:0.5;"/><text fill="#000000" font-family="sans-serif" font-size="14" lengthAdjust="spacing" textLength="199" x="395.3144" y="308.3598">US001: display listed properties</text></g><g id="elem_US002: publish any sale announcement on the system"><ellipse cx="495.0196" cy="203.6039" fill="#F1F1F1" rx="186.0196" ry="39.6039" style="stroke:#181818;stroke-width:0.5;"/><text fill="#000000" font-family="sans-serif" font-size="14" lengthAdjust="spacing" textLength="342" x="324.0196" y="207.4008">US002: publish any sale announcement on the system</text></g><g id="elem_US003: register a new employee"><ellipse cx="495.1059" cy="512.5212" fill="#F1F1F1" rx="120.6059" ry="26.5212" style="stroke:#181818;stroke-width:0.5;"/><text fill="#000000" font-family="sans-serif" font-size="14" lengthAdjust="spacing" textLength="204" x="393.1059" y="516.3181">US003: register a new employee</text></g><g id="elem_US004: submit a request for listing a property sale or rent, choosing the responsible agent"><ellipse cx="495.219" cy="67.6438" fill="#F1F1F1" rx="296.219" ry="61.6438" style="stroke:#181818;stroke-width:0.5;"/><text fill="#000000" font-family="sans-serif" font-size="14" lengthAdjust="spacing" textLength="567" x="211.719" y="71.4407">US004: submit a request for listing a property sale or rent, choosing the responsible agent</text></g><g id="elem_US005: register a store"><ellipse cx="494.8554" cy="595.3711" fill="#F1F1F1" rx="94.8554" ry="21.3711" style="stroke:#181818;stroke-width:0.5;"/><text fill="#000000" font-family="sans-serif" font-size="14" lengthAdjust="spacing" textLength="146" x="419.1093" y="600.1">US005: register a store</text></g><g id="elem_US006: specify districts, municipalities, and parishes in the system"><ellipse cx="495.0164" cy="698.7033" fill="#F1F1F1" rx="221.5164" ry="46.7033" style="stroke:#181818;stroke-width:0.5;"/><text fill="#000000" font-family="sans-serif" font-size="14" lengthAdjust="spacing" textLength="415" x="287.5164" y="702.5002">US006: specify districts, municipalities, and parishes in the system</text></g><g id="elem_US007: register in the system to buy, sell or rent properties"><ellipse cx="495.0772" cy="408.4154" fill="#F1F1F1" rx="200.0772" ry="42.4154" style="stroke:#181818;stroke-width:0.5;"/><text fill="#000000" font-family="sans-serif" font-size="14" lengthAdjust="spacing" textLength="371" x="309.5772" y="412.2123">US007: register in the system to buy, sell or rent properties</text></g><!--link UnregUser to US001: display listed properties--><g id="link_UnregUser_US001: display listed properties"><path d="M129.77,355.6 C195.91,346.33 307.03,330.73 389.18,319.21 " fill="none" id="UnregUser-to-US001: display listed properties" style="stroke:#181818;stroke-width:1.0;"/><polygon fill="#181818" points="394.55,318.45,385.078,315.7515,389.5994,319.1511,386.1998,323.6725,394.55,318.45" style="stroke:#181818;stroke-width:1.0;"/></g><!--link Agent to US002: publish any sale announcement on the system--><g id="link_Agent_US002: publish any sale announcement on the system"><path d="M91.03,203.5 C128.14,203.5 218.26,203.5 303.89,203.5 " fill="none" id="Agent-to-US002: publish any sale announcement on the system" style="stroke:#181818;stroke-width:1.0;"/><polygon fill="#181818" points="309,203.5,300,199.5,304,203.5,300,207.5,309,203.5" style="stroke:#181818;stroke-width:1.0;"/></g><!--link Admin to US003: register a new employee--><g id="link_Admin_US003: register a new employee"><path d="M139.09,573.04 C158.24,567.05 179.32,561 199,556.5 C258.9,542.81 326.66,532.36 382.12,525.08 " fill="none" id="Admin-to-US003: register a new employee" style="stroke:#181818;stroke-width:1.0;"/><polygon fill="#181818" points="387.1,524.43,377.6603,521.6207,382.1415,525.073,378.6892,529.5542,387.1,524.43" style="stroke:#181818;stroke-width:1.0;"/></g><!--link Owner to US004: submit a request for listing a property sale or rent, choosing the responsible agent--><g id="link_Owner_US004: submit a request for listing a property sale or rent, choosing the responsible agent"><path d="M93.22,67.5 C114.44,67.5 150.94,67.5 193.53,67.5 " fill="none" id="Owner-to-US004: submit a request for listing a property sale or rent, choosing the responsible agent" style="stroke:#181818;stroke-width:1.0;"/><polygon fill="#181818" points="198.76,67.5,189.76,63.5,193.76,67.5,189.76,71.5,198.76,67.5" style="stroke:#181818;stroke-width:1.0;"/></g><!--link Admin to US005: register a store--><g id="link_Admin_US005: register a store"><path d="M139.2,595.5 C207.69,595.5 315.83,595.5 394.74,595.5 " fill="none" id="Admin-to-US005: register a store" style="stroke:#181818;stroke-width:1.0;"/><polygon fill="#181818" points="399.89,595.5,390.89,591.5,394.89,595.5,390.89,599.5,399.89,595.5" style="stroke:#181818;stroke-width:1.0;"/></g><!--link Admin to US006: specify districts, municipalities, and parishes in the system--><g id="link_Admin_US006: specify districts, municipalities, and parishes in the system"><path d="M139.3,617.14 C158.45,623.11 179.47,629.36 199,634.5 C240.97,645.55 286.65,656.15 329.26,665.43 " fill="none" id="Admin-to-US006: specify districts, municipalities, and parishes in the system" style="stroke:#181818;stroke-width:1.0;"/><polygon fill="#181818" points="334.17,666.5,326.2195,660.6871,329.2831,665.4426,324.5276,668.5062,334.17,666.5" style="stroke:#181818;stroke-width:1.0;"/></g><!--link UnregUser to US007: register in the system to buy, sell or rent properties--><g id="link_UnregUser_US007: register in the system to buy, sell or rent properties"><path d="M129.77,369.52 C176.45,374.52 245.54,381.91 311.03,388.92 " fill="none" id="UnregUser-to-US007: register in the system to buy, sell or rent properties" style="stroke:#181818;stroke-width:1.0;"/><polygon fill="#181818" points="316.14,389.47,307.6133,384.5409,311.168,388.9414,306.7675,392.496,316.14,389.47" style="stroke:#181818;stroke-width:1.0;"/></g><!--SRC=[RP7FQiCm3CRlVWeTDqYX-my-37eVx53w04wY9eB4zYI5ahUVdBRhkkucIpzPdpxvxIoA8spQaIA9Sj347e8SCyxl8cDd1MHiOITuB2xPyd9-qs7KOqU9dFyyn1ErHCvzu5v14p1rlK9BZ8rIYixz_0AhrJlSxRRhzOCtGF8GPXZAr1OofuoiX7Blt3BYGZzwo5DjO0yXpY1XG0jYccA3Oo5J1EqHP5coz9UbBlrF7ixRGO281y0n3sb6D7PHVs6VFSXKZwH6CdvDA0hxn8jCYfrbJqfFEgp49g62faz92b6KC4fEKQWkIiiojw9UhaI9tGDleLTJax6X_LpyKgP6fO9nYjHG3WCLlohpmlmBRFwW0FtnuX_tttwDliBB-Uffha1m6CwhNPtc6m00]--></g></svg>