<?xml version="1.0" encoding="us-ascii" standalone="no"?><svg xmlns="http://www.w3.org/2000/svg" xmlns:xlink="http://www.w3.org/1999/xlink" contentStyleType="text/css" height="629px" preserveAspectRatio="none" style="width:781px;height:629px;background:#FFFFFF;" version="1.1" viewBox="0 0 781 629" width="781px" zoomAndPan="magnify"><defs/><g><!--entity Admin--><g id="elem_Admin"><ellipse cx="72.5" cy="447" fill="#F1F1F1" rx="8" ry="8" style="stroke:#181818;stroke-width:0.5;"/><path d="M72.5,455 L72.5,482 M59.5,463 L85.5,463 M72.5,482 L59.5,497 M72.5,482 L85.5,497 " fill="none" style="stroke:#181818;stroke-width:0.5;"/><text fill="#000000" font-family="sans-serif" font-size="14" lengthAdjust="spacing" textLength="133" x="6" y="513.6074">System Administrator</text></g><!--entity UnregUser--><g id="elem_UnregUser"><ellipse cx="72.5" cy="282" fill="#F1F1F1" rx="8" ry="8" style="stroke:#181818;stroke-width:0.5;"/><path d="M72.5,290 L72.5,317 M59.5,298 L85.5,298 M72.5,317 L59.5,332 M72.5,317 L85.5,332 " fill="none" style="stroke:#181818;stroke-width:0.5;"/><text fill="#000000" font-family="sans-serif" font-size="14" lengthAdjust="spacing" textLength="114" x="15.5" y="348.6074">Unregistered User</text></g><!--entity Agent--><g id="elem_Agent"><ellipse cx="72.5" cy="168" fill="#F1F1F1" rx="8" ry="8" style="stroke:#181818;stroke-width:0.5;"/><path d="M72.5,176 L72.5,203 M59.5,184 L85.5,184 M72.5,203 L59.5,218 M72.5,203 L85.5,218 " fill="none" style="stroke:#181818;stroke-width:0.5;"/><text fill="#000000" font-family="sans-serif" font-size="14" lengthAdjust="spacing" textLength="37" x="54" y="234.6074">Agent</text></g><!--entity Owner--><g id="elem_Owner"><ellipse cx="72.5" cy="35" fill="#F1F1F1" rx="8" ry="8" style="stroke:#181818;stroke-width:0.5;"/><path d="M72.5,43 L72.5,70 M59.5,51 L85.5,51 M72.5,70 L59.5,85 M72.5,70 L85.5,85 " fill="none" style="stroke:#181818;stroke-width:0.5;"/><text fill="#000000" font-family="sans-serif" font-size="14" lengthAdjust="spacing" textLength="41" x="52" y="101.6074">Owner</text></g><g id="elem_US1: display listed properties"><ellipse cx="487.5435" cy="313.1087" fill="#F1F1F1" rx="111.0435" ry="24.6087" style="stroke:#181818;stroke-width:0.5;"/><text fill="#000000" font-family="sans-serif" font-size="14" lengthAdjust="spacing" textLength="183" x="396.0435" y="316.9056">US1: display listed properties</text></g><g id="elem_US2: publish any sale announcement on the system"><ellipse cx="487.2945" cy="199.0589" fill="#F1F1F1" rx="178.2945" ry="38.0589" style="stroke:#181818;stroke-width:0.5;"/><text fill="#000000" font-family="sans-serif" font-size="14" lengthAdjust="spacing" textLength="326" x="324.2945" y="202.8558">US2: publish any sale announcement on the system</text></g><g id="elem_US3: register a new employee"><ellipse cx="487.3048" cy="398.061" fill="#F1F1F1" rx="113.3048" ry="25.061" style="stroke:#181818;stroke-width:0.5;"/><text fill="#000000" font-family="sans-serif" font-size="14" lengthAdjust="spacing" textLength="188" x="393.3048" y="401.8578">US3: register a new employee</text></g><g id="elem_US4: submit a request for listing a property sale or rent, choosing the responsible agent"><ellipse cx="487.3233" cy="66.0647" fill="#F1F1F1" rx="288.3233" ry="60.0647" style="stroke:#181818;stroke-width:0.5;"/><text fill="#000000" font-family="sans-serif" font-size="14" lengthAdjust="spacing" textLength="551" x="211.8233" y="69.8615">US4: submit a request for listing a property sale or rent, choosing the responsible agent</text></g><g id="elem_US5: register a store"><ellipse cx="487.3534" cy="478.0707" fill="#F1F1F1" rx="88.3534" ry="20.0707" style="stroke:#181818;stroke-width:0.5;"/><text fill="#000000" font-family="sans-serif" font-size="14" lengthAdjust="spacing" textLength="130" x="419.3534" y="482.8744">US5: register a store</text></g><g id="elem_US6: specify districts, municipalities, and parishes in the system"><ellipse cx="487.7069" cy="578.1414" fill="#F1F1F1" rx="213.7069" ry="45.1414" style="stroke:#181818;stroke-width:0.5;"/><text fill="#000000" font-family="sans-serif" font-size="14" lengthAdjust="spacing" textLength="399" x="288.2069" y="581.9383">US6: specify districts, municipalities, and parishes in the system</text></g><!--link UnregUser to US1: display listed properties--><g id="link_UnregUser_US1: display listed properties"><path d="M129.63,313 C191.35,313 292.22,313 371,313 " fill="none" id="UnregUser-to-US1: display listed properties" style="stroke:#181818;stroke-width:1.0;"/><polygon fill="#181818" points="376.16,313,367.16,309,371.16,313,367.16,317,376.16,313" style="stroke:#181818;stroke-width:1.0;"/></g><!--link Agent to US2: publish any sale announcement on the system--><g id="link_Agent_US2: publish any sale announcement on the system"><path d="M91.25,199 C128.6,199 218.9,199 303.78,199 " fill="none" id="Agent-to-US2: publish any sale announcement on the system" style="stroke:#181818;stroke-width:1.0;"/><polygon fill="#181818" points="308.84,199,299.84,195,303.84,199,299.84,203,308.84,199" style="stroke:#181818;stroke-width:1.0;"/></g><!--link Admin to US3: register a new employee--><g id="link_Admin_US3: register a new employee"><path d="M139.16,456.78 C158.31,451.1 179.37,445.34 199,441 C258.79,427.78 326.49,417.43 381.17,410.2 " fill="none" id="Admin-to-US3: register a new employee" style="stroke:#181818;stroke-width:1.0;"/><polygon fill="#181818" points="386.42,409.51,376.9724,406.7274,381.4634,410.1671,378.0237,414.658,386.42,409.51" style="stroke:#181818;stroke-width:1.0;"/></g><!--link Owner to US4: submit a request for listing a property sale or rent, choosing the responsible agent--><g id="link_Owner_US4: submit a request for listing a property sale or rent, choosing the responsible agent"><path d="M93.14,66 C114.4,66 151.03,66 193.65,66 " fill="none" id="Owner-to-US4: submit a request for listing a property sale or rent, choosing the responsible agent" style="stroke:#181818;stroke-width:1.0;"/><polygon fill="#181818" points="198.88,66,189.88,62,193.88,66,189.88,70,198.88,66" style="stroke:#181818;stroke-width:1.0;"/></g><!--link Admin to US5: register a store--><g id="link_Admin_US5: register a store"><path d="M139.4,478 C208.15,478 316.49,478 393.83,478 " fill="none" id="Admin-to-US5: register a store" style="stroke:#181818;stroke-width:1.0;"/><polygon fill="#181818" points="398.88,478,389.88,474,393.88,478,389.88,482,398.88,478" style="stroke:#181818;stroke-width:1.0;"/></g><!--link Admin to US6: specify districts, municipalities, and parishes in the system--><g id="link_Admin_US6: specify districts, municipalities, and parishes in the system"><path d="M139.32,499.03 C158.48,504.85 179.5,510.95 199,516 C240.21,526.66 285.06,536.96 326.82,545.99 " fill="none" id="Admin-to-US6: specify districts, municipalities, and parishes in the system" style="stroke:#181818;stroke-width:1.0;"/><polygon fill="#181818" points="331.9,547.08,323.9495,541.2671,327.0131,546.0226,322.2576,549.0862,331.9,547.08" style="stroke:#181818;stroke-width:1.0;"/></g><!--SRC=[NP4zRiCm38LtdO9Z2oH3VmSD1R8Nw13u08hDs0HiIYLf1BvzAISka6mKtwFvyJaU5pMSuD1DnAGcoR94I7hjXDYmOEy22dRGA5x5jLjV8HvwPBjEr2h4dmlVN6iLmZUU3Io3K3yOT2JO6cKEuVyhiDz_mLDpV8akQndJ0cFTsK6HN52CK9z3M1TitjS8PJwvRO342sWQqGlECxSuLLzci051rmFhT3rectwBiDq52HWlW5CPyuBepfLxSxv7qFaqaRbFy7T6DJXdMG69U-_U66yCBecltq4xvApLKIa4jMHMEbNAUiOZqCSTaFfVm4VBfvCKREcyr9HCg3NTmJGpjLJII3MbdMVWgINnN521xZFu0m00]--></g></svg>