<?xml version="1.0" encoding="UTF-8" standalone="no"?><svg xmlns="http://www.w3.org/2000/svg" xmlns:xlink="http://www.w3.org/1999/xlink" contentStyleType="text/css" height="728px" preserveAspectRatio="none" style="width:1868px;height:728px;background:#FFFFFF;" version="1.1" viewBox="0 0 1868 728" width="1868px" zoomAndPan="magnify"><defs/><g><rect height="29.0791" style="stroke:#00000000;stroke-width:1.0;fill:none;" width="182" x="842" y="10"/><text fill="#000000" font-family="sans-serif" font-size="14" font-weight="bold" lengthAdjust="spacing" textLength="172" x="847" y="30.6953">Sequence Diagram - ???</text><rect fill="#FFFFFF" height="493.1074" style="stroke:#181818;stroke-width:1.0;" width="10" x="21" y="134.1582"/><rect fill="#FFFFFF" height="75.7954" style="stroke:#181818;stroke-width:1.0;" width="10" x="474" y="157.8745"/><rect fill="#FFFFFF" height="31.7163" style="stroke:#181818;stroke-width:1.0;" width="10" x="474" y="265.3862"/><rect fill="#FFFFFF" height="31.7163" style="stroke:#181818;stroke-width:1.0;" width="10" x="474" y="595.5493"/><rect fill="#FFFFFF" height="31.7163" style="stroke:#181818;stroke-width:1.0;" width="10" x="629.5" y="297.1025"/><rect fill="#FFFFFF" height="31.7163" style="stroke:#181818;stroke-width:1.0;" width="10" x="810" y="436.9678"/><rect fill="#FFFFFF" height="31.7163" style="stroke:#181818;stroke-width:1.0;" width="10" x="810" y="563.833"/><rect fill="#FFFFFF" height="31.7163" style="stroke:#181818;stroke-width:1.0;" width="10" x="953" y="328.8188"/><rect fill="#FFFFFF" height="76.4326" style="stroke:#181818;stroke-width:1.0;" width="10" x="1086" y="360.5352"/><rect fill="#FFFFFF" height="31.7163" style="stroke:#181818;stroke-width:1.0;" width="10" x="1374" y="468.6841"/><rect fill="#FFFFFF" height="31.7163" style="stroke:#181818;stroke-width:1.0;" width="10" x="1513" y="532.1167"/><rect fill="#FFFFFF" height="31.7163" style="stroke:#181818;stroke-width:1.0;" width="10" x="1766" y="500.4004"/><line style="stroke:#181818;stroke-width:0.5;stroke-dasharray:5.0,5.0;" x1="26" x2="26" y1="124.1582" y2="645.2656"/><line style="stroke:#181818;stroke-width:0.5;stroke-dasharray:5.0,5.0;" x1="479" x2="479" y1="124.1582" y2="645.2656"/><line style="stroke:#181818;stroke-width:0.5;stroke-dasharray:5.0,5.0;" x1="634" x2="634" y1="197.9141" y2="645.2656"/><line style="stroke:#181818;stroke-width:0.5;stroke-dasharray:5.0,5.0;" x1="815" x2="815" y1="124.1582" y2="645.2656"/><line style="stroke:#181818;stroke-width:0.5;stroke-dasharray:5.0,5.0;" x1="958" x2="958" y1="124.1582" y2="645.2656"/><line style="stroke:#181818;stroke-width:0.5;stroke-dasharray:5.0,5.0;" x1="1090.5" x2="1090.5" y1="124.1582" y2="645.2656"/><line style="stroke:#181818;stroke-width:0.5;stroke-dasharray:5.0,5.0;" x1="1379" x2="1379" y1="124.1582" y2="645.2656"/><line style="stroke:#181818;stroke-width:0.5;stroke-dasharray:5.0,5.0;" x1="1518" x2="1518" y1="124.1582" y2="645.2656"/><line style="stroke:#181818;stroke-width:0.5;stroke-dasharray:5.0,5.0;" x1="1771" x2="1771" y1="124.1582" y2="645.2656"/><text fill="#000000" font-family="sans-serif" font-size="14" lengthAdjust="spacing" textLength="36" x="5" y="120.7744">Client</text><ellipse cx="26" cy="53.5791" fill="#E3E3E3" rx="8" ry="8" style="stroke:#181818;stroke-width:0.5;"/><path d="M26,61.5791 L26,88.5791 M13,69.5791 L39,69.5791 M26,88.5791 L13,103.5791 M26,88.5791 L39,103.5791 " fill="none" style="stroke:#181818;stroke-width:0.5;"/><text fill="#000000" font-family="sans-serif" font-size="14" lengthAdjust="spacing" textLength="36" x="5" y="659.9609">Client</text><ellipse cx="26" cy="671.8447" fill="#E3E3E3" rx="8" ry="8" style="stroke:#181818;stroke-width:0.5;"/><path d="M26,679.8447 L26,706.8447 M13,687.8447 L39,687.8447 M26,706.8447 L13,721.8447 M26,706.8447 L39,721.8447 " fill="none" style="stroke:#181818;stroke-width:0.5;"/><rect fill="#E3E3E3" height="33.0791" rx="2.5" ry="2.5" style="stroke:#181818;stroke-width:0.5;" width="126" x="416" y="90.0791"/><text fill="#000000" font-family="sans-serif" font-size="14" lengthAdjust="spacing" textLength="112" x="423" y="112.7744">OptimalPartitionUI</text><rect fill="#E3E3E3" height="33.0791" rx="2.5" ry="2.5" style="stroke:#181818;stroke-width:0.5;" width="126" x="416" y="644.2656"/><text fill="#000000" font-family="sans-serif" font-size="14" lengthAdjust="spacing" textLength="112" x="423" y="666.9609">OptimalPartitionUI</text><rect fill="#E3E3E3" height="33.0791" rx="2.5" ry="2.5" style="stroke:#181818;stroke-width:0.5;" width="165" x="552" y="644.2656"/><text fill="#000000" font-family="sans-serif" font-size="14" lengthAdjust="spacing" textLength="151" x="559" y="666.9609">:LegacyImportController</text><rect fill="#E3E3E3" height="33.0791" rx="2.5" ry="2.5" style="stroke:#181818;stroke-width:0.5;" width="176" x="727" y="90.0791"/><text fill="#000000" font-family="sans-serif" font-size="14" lengthAdjust="spacing" textLength="162" x="734" y="112.7744">OptimalPartitionController</text><rect fill="#E3E3E3" height="33.0791" rx="2.5" ry="2.5" style="stroke:#181818;stroke-width:0.5;" width="176" x="727" y="644.2656"/><text fill="#000000" font-family="sans-serif" font-size="14" lengthAdjust="spacing" textLength="162" x="734" y="666.9609">OptimalPartitionController</text><rect fill="#E3E3E3" height="33.0791" rx="2.5" ry="2.5" style="stroke:#181818;stroke-width:0.5;" width="90" x="913" y="90.0791"/><text fill="#000000" font-family="sans-serif" font-size="14" lengthAdjust="spacing" textLength="76" x="920" y="112.7744">:FileHandler</text><rect fill="#E3E3E3" height="33.0791" rx="2.5" ry="2.5" style="stroke:#181818;stroke-width:0.5;" width="90" x="913" y="644.2656"/><text fill="#000000" font-family="sans-serif" font-size="14" lengthAdjust="spacing" textLength="76" x="920" y="666.9609">:FileHandler</text><rect fill="#E3E3E3" height="33.0791" rx="2.5" ry="2.5" style="stroke:#181818;stroke-width:0.5;" width="91" x="1045.5" y="90.0791"/><text fill="#000000" font-family="sans-serif" font-size="14" lengthAdjust="spacing" textLength="77" x="1052.5" y="112.7744">:CsvHandler</text><rect fill="#E3E3E3" height="33.0791" rx="2.5" ry="2.5" style="stroke:#181818;stroke-width:0.5;" width="91" x="1045.5" y="644.2656"/><text fill="#000000" font-family="sans-serif" font-size="14" lengthAdjust="spacing" textLength="77" x="1052.5" y="666.9609">:CsvHandler</text><rect fill="#E3E3E3" height="33.0791" rx="2.5" ry="2.5" style="stroke:#181818;stroke-width:0.5;" width="114" x="1322" y="90.0791"/><text fill="#000000" font-family="sans-serif" font-size="14" lengthAdjust="spacing" textLength="100" x="1329" y="112.7744">OptimalPartition</text><rect fill="#E3E3E3" height="33.0791" rx="2.5" ry="2.5" style="stroke:#181818;stroke-width:0.5;" width="114" x="1322" y="644.2656"/><text fill="#000000" font-family="sans-serif" font-size="14" lengthAdjust="spacing" textLength="100" x="1329" y="666.9609">OptimalPartition</text><rect fill="#E3E3E3" height="33.0791" rx="2.5" ry="2.5" style="stroke:#181818;stroke-width:0.5;" width="144" x="1446" y="90.0791"/><text fill="#000000" font-family="sans-serif" font-size="14" lengthAdjust="spacing" textLength="130" x="1453" y="112.7744">OptimalPartitionDTO</text><rect fill="#E3E3E3" height="33.0791" rx="2.5" ry="2.5" style="stroke:#181818;stroke-width:0.5;" width="144" x="1446" y="644.2656"/><text fill="#000000" font-family="sans-serif" font-size="14" lengthAdjust="spacing" textLength="130" x="1453" y="666.9609">OptimalPartitionDTO</text><rect fill="#E3E3E3" height="33.0791" rx="2.5" ry="2.5" style="stroke:#181818;stroke-width:0.5;" width="182" x="1680" y="90.0791"/><text fill="#000000" font-family="sans-serif" font-size="14" lengthAdjust="spacing" textLength="168" x="1687" y="112.7744">OptimalPartitionRepository</text><rect fill="#E3E3E3" height="33.0791" rx="2.5" ry="2.5" style="stroke:#181818;stroke-width:0.5;" width="182" x="1680" y="644.2656"/><text fill="#000000" font-family="sans-serif" font-size="14" lengthAdjust="spacing" textLength="168" x="1687" y="666.9609">OptimalPartitionRepository</text><rect fill="#FFFFFF" height="493.1074" style="stroke:#181818;stroke-width:1.0;" width="10" x="21" y="134.1582"/><rect fill="#FFFFFF" height="75.7954" style="stroke:#181818;stroke-width:1.0;" width="10" x="474" y="157.8745"/><rect fill="#FFFFFF" height="31.7163" style="stroke:#181818;stroke-width:1.0;" width="10" x="474" y="265.3862"/><rect fill="#FFFFFF" height="31.7163" style="stroke:#181818;stroke-width:1.0;" width="10" x="474" y="595.5493"/><rect fill="#FFFFFF" height="31.7163" style="stroke:#181818;stroke-width:1.0;" width="10" x="629.5" y="297.1025"/><rect fill="#FFFFFF" height="31.7163" style="stroke:#181818;stroke-width:1.0;" width="10" x="810" y="436.9678"/><rect fill="#FFFFFF" height="31.7163" style="stroke:#181818;stroke-width:1.0;" width="10" x="810" y="563.833"/><rect fill="#FFFFFF" height="31.7163" style="stroke:#181818;stroke-width:1.0;" width="10" x="953" y="328.8188"/><rect fill="#FFFFFF" height="76.4326" style="stroke:#181818;stroke-width:1.0;" width="10" x="1086" y="360.5352"/><rect fill="#FFFFFF" height="31.7163" style="stroke:#181818;stroke-width:1.0;" width="10" x="1374" y="468.6841"/><rect fill="#FFFFFF" height="31.7163" style="stroke:#181818;stroke-width:1.0;" width="10" x="1513" y="532.1167"/><rect fill="#FFFFFF" height="31.7163" style="stroke:#181818;stroke-width:1.0;" width="10" x="1766" y="500.4004"/><polygon fill="#181818" points="462,153.8745,472,157.8745,462,161.8745,466,157.8745" style="stroke:#181818;stroke-width:1.0;"/><line style="stroke:#181818;stroke-width:1.0;" x1="31" x2="468" y1="157.8745" y2="157.8745"/><text fill="#000000" font-family="sans-serif" font-size="13" lengthAdjust="spacing" textLength="106" x="38" y="152.7324">starts the program</text><polygon fill="#181818" points="540,185.5908,550,189.5908,540,193.5908,544,189.5908" style="stroke:#181818;stroke-width:1.0;"/><line style="stroke:#181818;stroke-width:1.0;" x1="484" x2="546" y1="189.5908" y2="189.5908"/><text fill="#000000" font-family="sans-serif" font-size="13" lengthAdjust="spacing" textLength="36" x="491" y="184.4487">create</text><rect fill="#E3E3E3" height="33.0791" rx="2.5" ry="2.5" style="stroke:#181818;stroke-width:0.5;" width="165" x="552" y="165.8745"/><text fill="#000000" font-family="sans-serif" font-size="14" lengthAdjust="spacing" textLength="151" x="559" y="188.5698">:LegacyImportController</text><polygon fill="#181818" points="42,229.6699,32,233.6699,42,237.6699,38,233.6699" style="stroke:#181818;stroke-width:1.0;"/><line style="stroke:#181818;stroke-width:1.0;stroke-dasharray:2.0,2.0;" x1="36" x2="478" y1="233.6699" y2="233.6699"/><text fill="#000000" font-family="sans-serif" font-size="13" lengthAdjust="spacing" textLength="99" x="48" y="228.5278">requests file path</text><polygon fill="#181818" points="462,261.3862,472,265.3862,462,269.3862,466,265.3862" style="stroke:#181818;stroke-width:1.0;"/><line style="stroke:#181818;stroke-width:1.0;" x1="31" x2="468" y1="265.3862" y2="265.3862"/><text fill="#000000" font-family="sans-serif" font-size="13" lengthAdjust="spacing" textLength="81" x="38" y="260.2441">types file path</text><polygon fill="#181818" points="617.5,293.1025,627.5,297.1025,617.5,301.1025,621.5,297.1025" style="stroke:#181818;stroke-width:1.0;"/><line style="stroke:#181818;stroke-width:1.0;" x1="479" x2="623.5" y1="297.1025" y2="297.1025"/><text fill="#000000" font-family="sans-serif" font-size="13" lengthAdjust="spacing" textLength="108" x="486" y="291.9604">importFile(filePath)</text><polygon fill="#181818" points="941,324.8188,951,328.8188,941,332.8188,945,328.8188" style="stroke:#181818;stroke-width:1.0;"/><line style="stroke:#181818;stroke-width:1.0;" x1="634.5" x2="947" y1="328.8188" y2="328.8188"/><text fill="#000000" font-family="sans-serif" font-size="13" lengthAdjust="spacing" textLength="97" x="641.5" y="323.6768">readFile(filePath)</text><polygon fill="#181818" points="1074,356.5352,1084,360.5352,1074,364.5352,1078,360.5352" style="stroke:#181818;stroke-width:1.0;"/><line style="stroke:#181818;stroke-width:1.0;" x1="958" x2="1080" y1="360.5352" y2="360.5352"/><text fill="#000000" font-family="sans-serif" font-size="13" lengthAdjust="spacing" textLength="104" x="965" y="355.3931">parseCsv(filePath)</text><line style="stroke:#181818;stroke-width:1.0;" x1="1096" x2="1138" y1="392.2515" y2="392.2515"/><line style="stroke:#181818;stroke-width:1.0;" x1="1138" x2="1138" y1="392.2515" y2="405.2515"/><line style="stroke:#181818;stroke-width:1.0;" x1="1097" x2="1138" y1="405.2515" y2="405.2515"/><polygon fill="#181818" points="1107,401.2515,1097,405.2515,1107,409.2515,1103,405.2515" style="stroke:#181818;stroke-width:1.0;"/><text fill="#000000" font-family="sans-serif" font-size="13" lengthAdjust="spacing" textLength="264" x="1103" y="387.1094">storeCounts(storeId, storeCounts.get(storeId))</text><polygon fill="#181818" points="831,432.9678,821,436.9678,831,440.9678,827,436.9678" style="stroke:#181818;stroke-width:1.0;"/><line style="stroke:#181818;stroke-width:1.0;" x1="825" x2="1090" y1="436.9678" y2="436.9678"/><text fill="#000000" font-family="sans-serif" font-size="13" lengthAdjust="spacing" textLength="185" x="837" y="431.8257">return needed csv parsed values</text><polygon fill="#181818" points="1362,464.6841,1372,468.6841,1362,472.6841,1366,468.6841" style="stroke:#181818;stroke-width:1.0;"/><line style="stroke:#181818;stroke-width:1.0;" x1="815" x2="1368" y1="468.6841" y2="468.6841"/><text fill="#000000" font-family="sans-serif" font-size="13" lengthAdjust="spacing" textLength="235" x="822" y="463.542">optimalPartition(numStores,storeCounts)</text><polygon fill="#181818" points="1754,496.4004,1764,500.4004,1754,504.4004,1758,500.4004" style="stroke:#181818;stroke-width:1.0;"/><line style="stroke:#181818;stroke-width:1.0;" x1="1379" x2="1760" y1="500.4004" y2="500.4004"/><text fill="#000000" font-family="sans-serif" font-size="13" lengthAdjust="spacing" textLength="235" x="1386" y="495.2583">optimalPartition(numStores,storeCounts)</text><polygon fill="#181818" points="1534,528.1167,1524,532.1167,1534,536.1167,1530,532.1167" style="stroke:#181818;stroke-width:1.0;"/><line style="stroke:#181818;stroke-width:1.0;" x1="1528" x2="1770" y1="532.1167" y2="532.1167"/><text fill="#000000" font-family="sans-serif" font-size="13" lengthAdjust="spacing" textLength="224" x="1540" y="526.9746">returns the sublists and their difference</text><polygon fill="#181818" points="831,559.833,821,563.833,831,567.833,827,563.833" style="stroke:#181818;stroke-width:1.0;"/><line style="stroke:#181818;stroke-width:1.0;" x1="825" x2="1517" y1="563.833" y2="563.833"/><text fill="#000000" font-family="sans-serif" font-size="13" lengthAdjust="spacing" textLength="224" x="837" y="558.6909">returns the sublists and their difference</text><polygon fill="#181818" points="495,591.5493,485,595.5493,495,599.5493,491,595.5493" style="stroke:#181818;stroke-width:1.0;"/><line style="stroke:#181818;stroke-width:1.0;" x1="489" x2="814" y1="595.5493" y2="595.5493"/><text fill="#000000" font-family="sans-serif" font-size="13" lengthAdjust="spacing" textLength="224" x="501" y="590.4072">returns the sublists and their difference</text><polygon fill="#181818" points="37,623.2656,27,627.2656,37,631.2656,33,627.2656" style="stroke:#181818;stroke-width:1.0;"/><line style="stroke:#181818;stroke-width:1.0;" x1="31" x2="478" y1="627.2656" y2="627.2656"/><text fill="#000000" font-family="sans-serif" font-size="13" lengthAdjust="spacing" textLength="419" x="43" y="622.1235">display the best partition sublists, their difference and the execution time</text><!--MD5=[509466e346fe51085a10fd41cab461d7]
@startuml

skinparam monochrome true
skinparam packageStyle rectangle
skinparam shadowing false

title Sequence Diagram - ???

actor "Client" as client

participant "OptimalPartitionUI" as oui
participant ":LegacyImportController" as ctrl
participant "OptimalPartitionController" as ocontroller
participant ":FileHandler" as fh
participant ":CsvHandler" as csv
participant "OptimalPartition" as o
participant "OptimalPartitionDTO" as odto
participant "OptimalPartitionRepository" as orepository








activate client
client -> oui: starts the program
activate oui
oui -> ctrl**: create

return requests file path

client -> oui: types file path
activate oui

oui -> ctrl: importFile(filePath)
deactivate oui
activate ctrl
ctrl -> fh: readFile(filePath)
deactivate ctrl
activate fh
fh -> csv: parseCsv(filePath)
deactivate fh
activate csv
csv -> csv : storeCounts(storeId, storeCounts.get(storeId))
csv ->ocontroller :return needed csv parsed values
deactivate csv
activate ocontroller
ocontroller -> o : optimalPartition(numStores,storeCounts)
deactivate ocontroller
activate o
o -> orepository : optimalPartition(numStores,storeCounts)
deactivate o
activate orepository
orepository -> odto : returns the sublists and their difference
deactivate orepository
activate odto
odto -> ocontroller : returns the sublists and their difference
deactivate odto
activate ocontroller
ocontroller -> oui : returns the sublists and their difference
deactivate ocontroller
activate oui
oui -> client : display the best partition sublists, their difference and the execution time
deactivate oui
deactivate client


@enduml

PlantUML version 1.2022.4(Sat Apr 09 14:29:17 BST 2022)
(GPL source distribution)
Java Runtime: OpenJDK Runtime Environment
JVM: OpenJDK 64-Bit Server VM
Default Encoding: MS949
Language: en
Country: US
--></g></svg>