<?xml version="1.0" encoding="us-ascii" standalone="no"?><svg xmlns="http://www.w3.org/2000/svg" xmlns:xlink="http://www.w3.org/1999/xlink" contentStyleType="text/css" height="1053px" preserveAspectRatio="none" style="width:1355px;height:1053px;background:#FFFFFF;" version="1.1" viewBox="0 0 1355 1053" width="1355px" zoomAndPan="magnify"><defs/><g><!--class PublishAnnouncementUI--><g id="elem_PublishAnnouncementUI"><rect codeLine="11" fill="#F1F1F1" height="48" id="PublishAnnouncementUI" rx="2.5" ry="2.5" style="stroke:#181818;stroke-width:0.5;" width="201" x="7" y="40"/><ellipse cx="22" cy="56" fill="#ADD1B2" rx="11" ry="11" style="stroke:#181818;stroke-width:1.0;"/><path d="M24.9731,61.6431 Q24.3921,61.9419 23.7529,62.0913 Q23.1138,62.2407 22.4082,62.2407 Q19.9014,62.2407 18.5815,60.5889 Q17.2617,58.937 17.2617,55.8159 Q17.2617,52.6865 18.5815,51.0347 Q19.9014,49.3828 22.4082,49.3828 Q23.1138,49.3828 23.7612,49.5322 Q24.4087,49.6816 24.9731,49.9805 L24.9731,52.7031 Q24.3423,52.1221 23.7488,51.8523 Q23.1553,51.5825 22.5244,51.5825 Q21.1797,51.5825 20.4949,52.6492 Q19.8101,53.7158 19.8101,55.8159 Q19.8101,57.9077 20.4949,58.9744 Q21.1797,60.041 22.5244,60.041 Q23.1553,60.041 23.7488,59.7712 Q24.3423,59.5015 24.9731,58.9204 Z " fill="#000000"/><text fill="#000000" font-family="sans-serif" font-size="14" lengthAdjust="spacing" textLength="169" x="36" y="61.291">PublishAnnouncementUI</text><line style="stroke:#181818;stroke-width:0.5;" x1="8" x2="207" y1="72" y2="72"/><line style="stroke:#181818;stroke-width:0.5;" x1="8" x2="207" y1="80" y2="80"/></g><!--class PublishAnnouncementController--><g id="elem_PublishAnnouncementController"><rect codeLine="14" fill="#F1F1F1" height="113.9531" id="PublishAnnouncementController" rx="2.5" ry="2.5" style="stroke:#181818;stroke-width:0.5;" width="660" x="243.5" y="7"/><ellipse cx="456.75" cy="23" fill="#ADD1B2" rx="11" ry="11" style="stroke:#181818;stroke-width:1.0;"/><path d="M459.7231,28.6431 Q459.1421,28.9419 458.5029,29.0913 Q457.8638,29.2407 457.1582,29.2407 Q454.6514,29.2407 453.3315,27.5889 Q452.0117,25.937 452.0117,22.8159 Q452.0117,19.6865 453.3315,18.0347 Q454.6514,16.3828 457.1582,16.3828 Q457.8638,16.3828 458.5112,16.5322 Q459.1587,16.6816 459.7231,16.9805 L459.7231,19.7031 Q459.0923,19.1221 458.4988,18.8523 Q457.9053,18.5825 457.2744,18.5825 Q455.9297,18.5825 455.2449,19.6492 Q454.5601,20.7158 454.5601,22.8159 Q454.5601,24.9077 455.2449,25.9744 Q455.9297,27.041 457.2744,27.041 Q457.9053,27.041 458.4988,26.7712 Q459.0923,26.5015 459.7231,25.9204 Z " fill="#000000"/><text fill="#000000" font-family="sans-serif" font-size="14" lengthAdjust="spacing" textLength="225" x="477.25" y="28.291">PublishAnnouncementController</text><line style="stroke:#181818;stroke-width:0.5;" x1="244.5" x2="902.5" y1="39" y2="39"/><line style="stroke:#181818;stroke-width:0.5;" x1="244.5" x2="902.5" y1="47" y2="47"/><text fill="#000000" font-family="sans-serif" font-size="14" lengthAdjust="spacing" textLength="506" x="249.5" y="64.5352">+PublishAnnouncementController(date,Property,commission,agentName)</text><text fill="#000000" font-family="sans-serif" font-size="14" lengthAdjust="spacing" textLength="428" x="249.5" y="81.0234">+createAnnouncement(date,Property,commission,agentName)</text><text fill="#000000" font-family="sans-serif" font-size="14" lengthAdjust="spacing" textLength="648" x="249.5" y="97.5117">+createNotification(ownerName, ownerPhoneNumber,ID,date,agentName,agentPhoneNumber)</text><text fill="#000000" font-family="sans-serif" font-size="14" lengthAdjust="spacing" textLength="194" x="249.5" y="114">-getEmployeeFromSession()</text></g><!--class ApplicationSession--><g id="elem_ApplicationSession"><rect codeLine="22" fill="#F1F1F1" height="80.9766" id="ApplicationSession" rx="2.5" ry="2.5" style="stroke:#181818;stroke-width:0.5;" width="162" x="126.5" y="247.5"/><ellipse cx="141.5" cy="263.5" fill="#ADD1B2" rx="11" ry="11" style="stroke:#181818;stroke-width:1.0;"/><path d="M144.4731,269.1431 Q143.8921,269.4419 143.2529,269.5913 Q142.6138,269.7407 141.9082,269.7407 Q139.4014,269.7407 138.0815,268.0889 Q136.7617,266.437 136.7617,263.3159 Q136.7617,260.1865 138.0815,258.5347 Q139.4014,256.8828 141.9082,256.8828 Q142.6138,256.8828 143.2612,257.0322 Q143.9087,257.1816 144.4731,257.4805 L144.4731,260.2031 Q143.8423,259.6221 143.2488,259.3523 Q142.6553,259.0825 142.0244,259.0825 Q140.6797,259.0825 139.9949,260.1492 Q139.3101,261.2158 139.3101,263.3159 Q139.3101,265.4077 139.9949,266.4744 Q140.6797,267.541 142.0244,267.541 Q142.6553,267.541 143.2488,267.2712 Q143.8423,267.0015 144.4731,266.4204 Z " fill="#000000"/><text fill="#000000" font-family="sans-serif" font-size="14" lengthAdjust="spacing" textLength="130" x="155.5" y="268.791">ApplicationSession</text><line style="stroke:#181818;stroke-width:0.5;" x1="127.5" x2="287.5" y1="279.5" y2="279.5"/><line style="stroke:#181818;stroke-width:0.5;" x1="127.5" x2="287.5" y1="287.5" y2="287.5"/><text fill="#000000" font-family="sans-serif" font-size="14" lengthAdjust="spacing" textLength="140" x="132.5" y="305.0352">+static getInstance()</text><text fill="#000000" font-family="sans-serif" font-size="14" lengthAdjust="spacing" textLength="148" x="132.5" y="321.5234">+getCurrentSession()</text></g><!--class UserSession--><g id="elem_UserSession"><rect codeLine="28" fill="#F1F1F1" height="64.4883" id="UserSession" rx="2.5" ry="2.5" style="stroke:#181818;stroke-width:0.5;" width="177" x="158" y="502"/><ellipse cx="200.9" cy="518" fill="#ADD1B2" rx="11" ry="11" style="stroke:#181818;stroke-width:1.0;"/><path d="M203.8731,523.6431 Q203.2921,523.9419 202.6529,524.0913 Q202.0138,524.2407 201.3082,524.2407 Q198.8014,524.2407 197.4815,522.5889 Q196.1617,520.937 196.1617,517.8159 Q196.1617,514.6865 197.4815,513.0347 Q198.8014,511.3828 201.3082,511.3828 Q202.0138,511.3828 202.6612,511.5322 Q203.3087,511.6816 203.8731,511.9805 L203.8731,514.7031 Q203.2423,514.1221 202.6488,513.8523 Q202.0553,513.5825 201.4244,513.5825 Q200.0797,513.5825 199.3949,514.6492 Q198.7101,515.7158 198.7101,517.8159 Q198.7101,519.9077 199.3949,520.9744 Q200.0797,522.041 201.4244,522.041 Q202.0553,522.041 202.6488,521.7712 Q203.2423,521.5015 203.8731,520.9204 Z " fill="#000000"/><text fill="#000000" font-family="sans-serif" font-size="14" lengthAdjust="spacing" textLength="83" x="221.1" y="523.291">UserSession</text><line style="stroke:#181818;stroke-width:0.5;" x1="159" x2="334" y1="534" y2="534"/><line style="stroke:#181818;stroke-width:0.5;" x1="159" x2="334" y1="542" y2="542"/><text fill="#000000" font-family="sans-serif" font-size="14" lengthAdjust="spacing" textLength="165" x="164" y="559.5352">+getUserNameByEmail()</text></g><!--class Repositories--><g id="elem_Repositories"><rect codeLine="36" fill="#F1F1F1" height="113.9531" id="Repositories" rx="2.5" ry="2.5" style="stroke:#181818;stroke-width:0.5;" width="233" x="1015" y="7"/><ellipse cx="1084.75" cy="23" fill="#ADD1B2" rx="11" ry="11" style="stroke:#181818;stroke-width:1.0;"/><path d="M1087.7231,28.6431 Q1087.1421,28.9419 1086.5029,29.0913 Q1085.8638,29.2407 1085.1582,29.2407 Q1082.6514,29.2407 1081.3315,27.5889 Q1080.0117,25.937 1080.0117,22.8159 Q1080.0117,19.6865 1081.3315,18.0347 Q1082.6514,16.3828 1085.1582,16.3828 Q1085.8638,16.3828 1086.5112,16.5322 Q1087.1587,16.6816 1087.7231,16.9805 L1087.7231,19.7031 Q1087.0923,19.1221 1086.4988,18.8523 Q1085.9053,18.5825 1085.2744,18.5825 Q1083.9297,18.5825 1083.2449,19.6492 Q1082.5601,20.7158 1082.5601,22.8159 Q1082.5601,24.9077 1083.2449,25.9744 Q1083.9297,27.041 1085.2744,27.041 Q1085.9053,27.041 1086.4988,26.7712 Q1087.0923,26.5015 1087.7231,25.9204 Z " fill="#000000"/><text fill="#000000" font-family="sans-serif" font-size="14" lengthAdjust="spacing" textLength="85" x="1105.25" y="28.291">Repositories</text><line style="stroke:#181818;stroke-width:0.5;" x1="1016" x2="1247" y1="39" y2="39"/><line style="stroke:#181818;stroke-width:0.5;" x1="1016" x2="1247" y1="47" y2="47"/><text fill="#000000" font-family="sans-serif" font-size="14" lengthAdjust="spacing" textLength="103" x="1021" y="64.5352">-Repositories()</text><text fill="#000000" font-family="sans-serif" font-size="14" lengthAdjust="spacing" textLength="197" x="1021" y="81.0234">+getInstance() : Repositories</text><text fill="#000000" font-family="sans-serif" font-size="14" lengthAdjust="spacing" textLength="221" x="1021" y="97.5117">+getAnnouncementRepository()</text><text fill="#000000" font-family="sans-serif" font-size="14" lengthAdjust="spacing" textLength="182" x="1021" y="114">+getEmployeeRepository()</text></g><!--class AnnouncementRepository--><g id="elem_AnnouncementRepository"><rect codeLine="43" fill="#F1F1F1" height="97.4648" id="AnnouncementRepository" rx="2.5" ry="2.5" style="stroke:#181818;stroke-width:0.5;" width="210" x="477.5" y="239.5"/><ellipse cx="492.5" cy="255.5" fill="#ADD1B2" rx="11" ry="11" style="stroke:#181818;stroke-width:1.0;"/><path d="M495.4731,261.1431 Q494.8921,261.4419 494.2529,261.5913 Q493.6138,261.7407 492.9082,261.7407 Q490.4014,261.7407 489.0815,260.0889 Q487.7617,258.437 487.7617,255.3159 Q487.7617,252.1865 489.0815,250.5347 Q490.4014,248.8828 492.9082,248.8828 Q493.6138,248.8828 494.2612,249.0322 Q494.9087,249.1816 495.4731,249.4805 L495.4731,252.2031 Q494.8423,251.6221 494.2488,251.3523 Q493.6553,251.0825 493.0244,251.0825 Q491.6797,251.0825 490.9949,252.1492 Q490.3101,253.2158 490.3101,255.3159 Q490.3101,257.4077 490.9949,258.4744 Q491.6797,259.541 493.0244,259.541 Q493.6553,259.541 494.2488,259.2712 Q494.8423,259.0015 495.4731,258.4204 Z " fill="#000000"/><text fill="#000000" font-family="sans-serif" font-size="14" lengthAdjust="spacing" textLength="178" x="506.5" y="260.791">AnnouncementRepository</text><line style="stroke:#181818;stroke-width:0.5;" x1="478.5" x2="686.5" y1="271.5" y2="271.5"/><line style="stroke:#181818;stroke-width:0.5;" x1="478.5" x2="686.5" y1="279.5" y2="279.5"/><text fill="#000000" font-family="sans-serif" font-size="14" lengthAdjust="spacing" textLength="148" x="483.5" y="297.0352">+getAnnouncement()</text><text fill="#000000" font-family="sans-serif" font-size="14" lengthAdjust="spacing" textLength="179" x="483.5" y="313.5234">+validateAnnouncement()</text><text fill="#000000" font-family="sans-serif" font-size="14" lengthAdjust="spacing" textLength="152" x="483.5" y="330.0117">+addAnnouncement()</text></g><!--class EmployeeRepository--><g id="elem_EmployeeRepository"><rect codeLine="48" fill="#F1F1F1" height="64.4883" id="EmployeeRepository" rx="2.5" ry="2.5" style="stroke:#181818;stroke-width:0.5;" width="194" x="943.5" y="408"/><ellipse cx="968.85" cy="424" fill="#ADD1B2" rx="11" ry="11" style="stroke:#181818;stroke-width:1.0;"/><path d="M971.8231,429.6431 Q971.2421,429.9419 970.6029,430.0913 Q969.9638,430.2407 969.2582,430.2407 Q966.7514,430.2407 965.4315,428.5889 Q964.1117,426.937 964.1117,423.8159 Q964.1117,420.6865 965.4315,419.0347 Q966.7514,417.3828 969.2582,417.3828 Q969.9638,417.3828 970.6112,417.5322 Q971.2587,417.6816 971.8231,417.9805 L971.8231,420.7031 Q971.1923,420.1221 970.5988,419.8523 Q970.0053,419.5825 969.3744,419.5825 Q968.0297,419.5825 967.3449,420.6492 Q966.6601,421.7158 966.6601,423.8159 Q966.6601,425.9077 967.3449,426.9744 Q968.0297,428.041 969.3744,428.041 Q970.0053,428.041 970.5988,427.7712 Q971.1923,427.5015 971.8231,426.9204 Z " fill="#000000"/><text fill="#000000" font-family="sans-serif" font-size="14" lengthAdjust="spacing" textLength="139" x="985.15" y="429.291">EmployeeRepository</text><line style="stroke:#181818;stroke-width:0.5;" x1="944.5" x2="1136.5" y1="440" y2="440"/><line style="stroke:#181818;stroke-width:0.5;" x1="944.5" x2="1136.5" y1="448" y2="448"/><text fill="#000000" font-family="sans-serif" font-size="14" lengthAdjust="spacing" textLength="182" x="949.5" y="465.5352">+getAgentPhoneNumber()</text></g><!--class Announcement--><g id="elem_Announcement"><rect codeLine="53" fill="#F1F1F1" height="64.4883" id="Announcement" rx="2.5" ry="2.5" style="stroke:#181818;stroke-width:0.5;" width="398" x="372.5" y="502"/><ellipse cx="514.75" cy="518" fill="#ADD1B2" rx="11" ry="11" style="stroke:#181818;stroke-width:1.0;"/><path d="M517.7231,523.6431 Q517.1421,523.9419 516.5029,524.0913 Q515.8638,524.2407 515.1582,524.2407 Q512.6514,524.2407 511.3315,522.5889 Q510.0117,520.937 510.0117,517.8159 Q510.0117,514.6865 511.3315,513.0347 Q512.6514,511.3828 515.1582,511.3828 Q515.8638,511.3828 516.5112,511.5322 Q517.1587,511.6816 517.7231,511.9805 L517.7231,514.7031 Q517.0923,514.1221 516.4988,513.8523 Q515.9053,513.5825 515.2744,513.5825 Q513.9297,513.5825 513.2449,514.6492 Q512.5601,515.7158 512.5601,517.8159 Q512.5601,519.9077 513.2449,520.9744 Q513.9297,522.041 515.2744,522.041 Q515.9053,522.041 516.4988,521.7712 Q517.0923,521.5015 517.7231,520.9204 Z " fill="#000000"/><text fill="#000000" font-family="sans-serif" font-size="14" lengthAdjust="spacing" textLength="105" x="535.25" y="523.291">Announcement</text><line style="stroke:#181818;stroke-width:0.5;" x1="373.5" x2="769.5" y1="534" y2="534"/><line style="stroke:#181818;stroke-width:0.5;" x1="373.5" x2="769.5" y1="542" y2="542"/><text fill="#000000" font-family="sans-serif" font-size="14" lengthAdjust="spacing" textLength="386" x="378.5" y="559.5352">+Announcement(date,Property,commission,agentName)</text></g><!--class Property--><g id="elem_Property"><rect codeLine="58" fill="#F1F1F1" height="163.418" id="Property" rx="2.5" ry="2.5" style="stroke:#181818;stroke-width:0.5;" width="261" x="360" y="643"/><ellipse cx="457.25" cy="659" fill="#ADD1B2" rx="11" ry="11" style="stroke:#181818;stroke-width:1.0;"/><path d="M460.2231,664.6431 Q459.6421,664.9419 459.0029,665.0913 Q458.3638,665.2407 457.6582,665.2407 Q455.1514,665.2407 453.8315,663.5889 Q452.5117,661.937 452.5117,658.8159 Q452.5117,655.6865 453.8315,654.0347 Q455.1514,652.3828 457.6582,652.3828 Q458.3638,652.3828 459.0112,652.5322 Q459.6587,652.6816 460.2231,652.9805 L460.2231,655.7031 Q459.5923,655.1221 458.9988,654.8523 Q458.4053,654.5825 457.7744,654.5825 Q456.4297,654.5825 455.7449,655.6492 Q455.0601,656.7158 455.0601,658.8159 Q455.0601,660.9077 455.7449,661.9744 Q456.4297,663.041 457.7744,663.041 Q458.4053,663.041 458.9988,662.7712 Q459.5923,662.5015 460.2231,661.9204 Z " fill="#000000"/><text fill="#000000" font-family="sans-serif" font-size="14" lengthAdjust="spacing" textLength="58" x="477.75" y="664.291">Property</text><line style="stroke:#181818;stroke-width:0.5;" x1="361" x2="620" y1="675" y2="675"/><text fill="#000000" font-family="sans-serif" font-size="14" lengthAdjust="spacing" textLength="67" x="366" y="692.5352">-String ID</text><text fill="#000000" font-family="sans-serif" font-size="14" lengthAdjust="spacing" textLength="228" x="366" y="709.0234">-TypeOfBusiness TypeOfBusiness</text><text fill="#000000" font-family="sans-serif" font-size="14" lengthAdjust="spacing" textLength="70" x="366" y="725.5117">-float size</text><text fill="#000000" font-family="sans-serif" font-size="14" lengthAdjust="spacing" textLength="107" x="366" y="742">-string location</text><text fill="#000000" font-family="sans-serif" font-size="14" lengthAdjust="spacing" textLength="249" x="366" y="758.4883">-float distance_from_the_city_center</text><text fill="#000000" font-family="sans-serif" font-size="14" lengthAdjust="spacing" textLength="142" x="366" y="774.9766">-String photographs</text><text fill="#000000" font-family="sans-serif" font-size="14" lengthAdjust="spacing" textLength="77" x="366" y="791.4648">-float price</text><line style="stroke:#181818;stroke-width:0.5;" x1="361" x2="620" y1="798.418" y2="798.418"/></g><!--class House--><g id="elem_House"><rect codeLine="68" fill="#F1F1F1" height="163.418" id="House" rx="2.5" ry="2.5" style="stroke:#181818;stroke-width:0.5;" width="189" x="172" y="883"/><ellipse cx="240.75" cy="899" fill="#ADD1B2" rx="11" ry="11" style="stroke:#181818;stroke-width:1.0;"/><path d="M243.7231,904.6431 Q243.1421,904.9419 242.5029,905.0913 Q241.8638,905.2407 241.1582,905.2407 Q238.6514,905.2407 237.3315,903.5889 Q236.0117,901.937 236.0117,898.8159 Q236.0117,895.6865 237.3315,894.0347 Q238.6514,892.3828 241.1582,892.3828 Q241.8638,892.3828 242.5112,892.5322 Q243.1587,892.6816 243.7231,892.9805 L243.7231,895.7031 Q243.0923,895.1221 242.4988,894.8523 Q241.9053,894.5825 241.2744,894.5825 Q239.9297,894.5825 239.2449,895.6492 Q238.5601,896.7158 238.5601,898.8159 Q238.5601,900.9077 239.2449,901.9744 Q239.9297,903.041 241.2744,903.041 Q241.9053,903.041 242.4988,902.7712 Q243.0923,902.5015 243.7231,901.9204 Z " fill="#000000"/><text fill="#000000" font-family="sans-serif" font-size="14" lengthAdjust="spacing" textLength="43" x="261.25" y="904.291">House</text><line style="stroke:#181818;stroke-width:0.5;" x1="173" x2="360" y1="915" y2="915"/><text fill="#000000" font-family="sans-serif" font-size="14" lengthAdjust="spacing" textLength="147" x="178" y="932.5352">-numberOfBedrooms</text><text fill="#000000" font-family="sans-serif" font-size="14" lengthAdjust="spacing" textLength="152" x="178" y="949.0234">-numberOfBathrooms</text><text fill="#000000" font-family="sans-serif" font-size="14" lengthAdjust="spacing" textLength="149" x="178" y="965.5117">-availableEquipments</text><text fill="#000000" font-family="sans-serif" font-size="14" lengthAdjust="spacing" textLength="177" x="178" y="982">-numberOfParkingSpaces</text><text fill="#000000" font-family="sans-serif" font-size="14" lengthAdjust="spacing" textLength="98" x="178" y="998.4883">-sunExposure</text><text fill="#000000" font-family="sans-serif" font-size="14" lengthAdjust="spacing" textLength="155" x="178" y="1014.9766">-existenceOfBasement</text><text fill="#000000" font-family="sans-serif" font-size="14" lengthAdjust="spacing" textLength="111" x="178" y="1031.4648">-inhabitableLoft</text><line style="stroke:#181818;stroke-width:0.5;" x1="173" x2="360" y1="1038.418" y2="1038.418"/></g><!--class Apartment--><g id="elem_Apartment"><rect codeLine="79" fill="#F1F1F1" height="113.9531" id="Apartment" rx="2.5" ry="2.5" style="stroke:#181818;stroke-width:0.5;" width="189" x="396" y="907.5"/><ellipse cx="449.75" cy="923.5" fill="#ADD1B2" rx="11" ry="11" style="stroke:#181818;stroke-width:1.0;"/><path d="M452.7231,929.1431 Q452.1421,929.4419 451.5029,929.5913 Q450.8638,929.7407 450.1582,929.7407 Q447.6514,929.7407 446.3315,928.0889 Q445.0117,926.437 445.0117,923.3159 Q445.0117,920.1865 446.3315,918.5347 Q447.6514,916.8828 450.1582,916.8828 Q450.8638,916.8828 451.5112,917.0322 Q452.1587,917.1816 452.7231,917.4805 L452.7231,920.2031 Q452.0923,919.6221 451.4988,919.3523 Q450.9053,919.0825 450.2744,919.0825 Q448.9297,919.0825 448.2449,920.1492 Q447.5601,921.2158 447.5601,923.3159 Q447.5601,925.4077 448.2449,926.4744 Q448.9297,927.541 450.2744,927.541 Q450.9053,927.541 451.4988,927.2712 Q452.0923,927.0015 452.7231,926.4204 Z " fill="#000000"/><text fill="#000000" font-family="sans-serif" font-size="14" lengthAdjust="spacing" textLength="73" x="470.25" y="928.791">Apartment</text><line style="stroke:#181818;stroke-width:0.5;" x1="397" x2="584" y1="939.5" y2="939.5"/><text fill="#000000" font-family="sans-serif" font-size="14" lengthAdjust="spacing" textLength="147" x="402" y="957.0352">-numberOfBedrooms</text><text fill="#000000" font-family="sans-serif" font-size="14" lengthAdjust="spacing" textLength="152" x="402" y="973.5234">-numberOfBathrooms</text><text fill="#000000" font-family="sans-serif" font-size="14" lengthAdjust="spacing" textLength="149" x="402" y="990.0117">-availableEquipments</text><text fill="#000000" font-family="sans-serif" font-size="14" lengthAdjust="spacing" textLength="177" x="402" y="1006.5">-numberOfParkingSpaces</text><line style="stroke:#181818;stroke-width:0.5;" x1="397" x2="584" y1="1013.4531" y2="1013.4531"/></g><!--class Land--><g id="elem_Land"><rect codeLine="86" fill="#F1F1F1" height="48" id="Land" rx="2.5" ry="2.5" style="stroke:#181818;stroke-width:0.5;" width="65" x="620" y="940.5"/><ellipse cx="635" cy="956.5" fill="#ADD1B2" rx="11" ry="11" style="stroke:#181818;stroke-width:1.0;"/><path d="M637.9731,962.1431 Q637.3921,962.4419 636.7529,962.5913 Q636.1138,962.7407 635.4082,962.7407 Q632.9014,962.7407 631.5815,961.0889 Q630.2617,959.437 630.2617,956.3159 Q630.2617,953.1865 631.5815,951.5347 Q632.9014,949.8828 635.4082,949.8828 Q636.1138,949.8828 636.7612,950.0322 Q637.4087,950.1816 637.9731,950.4805 L637.9731,953.2031 Q637.3423,952.6221 636.7488,952.3523 Q636.1553,952.0825 635.5244,952.0825 Q634.1797,952.0825 633.4949,953.1492 Q632.8101,954.2158 632.8101,956.3159 Q632.8101,958.4077 633.4949,959.4744 Q634.1797,960.541 635.5244,960.541 Q636.1553,960.541 636.7488,960.2712 Q637.3423,960.0015 637.9731,959.4204 Z " fill="#000000"/><text fill="#000000" font-family="sans-serif" font-size="14" lengthAdjust="spacing" textLength="33" x="649" y="961.791">Land</text><line style="stroke:#181818;stroke-width:0.5;" x1="621" x2="684" y1="972.5" y2="972.5"/><line style="stroke:#181818;stroke-width:0.5;" x1="621" x2="684" y1="980.5" y2="980.5"/></g><!--class Agent--><g id="elem_Agent"><rect codeLine="92" fill="#F1F1F1" height="163.418" id="Agent" rx="2.5" ry="2.5" style="stroke:#181818;stroke-width:0.5;" width="449" x="656" y="643"/><ellipse cx="855.75" cy="659" fill="#ADD1B2" rx="11" ry="11" style="stroke:#181818;stroke-width:1.0;"/><path d="M858.7231,664.6431 Q858.1421,664.9419 857.5029,665.0913 Q856.8638,665.2407 856.1582,665.2407 Q853.6514,665.2407 852.3315,663.5889 Q851.0117,661.937 851.0117,658.8159 Q851.0117,655.6865 852.3315,654.0347 Q853.6514,652.3828 856.1582,652.3828 Q856.8638,652.3828 857.5112,652.5322 Q858.1587,652.6816 858.7231,652.9805 L858.7231,655.7031 Q858.0923,655.1221 857.4988,654.8523 Q856.9053,654.5825 856.2744,654.5825 Q854.9297,654.5825 854.2449,655.6492 Q853.5601,656.7158 853.5601,658.8159 Q853.5601,660.9077 854.2449,661.9744 Q854.9297,663.041 856.2744,663.041 Q856.9053,663.041 857.4988,662.7712 Q858.0923,662.5015 858.7231,661.9204 Z " fill="#000000"/><text fill="#000000" font-family="sans-serif" font-size="14" lengthAdjust="spacing" textLength="41" x="876.25" y="664.291">Agent</text><line style="stroke:#181818;stroke-width:0.5;" x1="657" x2="1104" y1="675" y2="675"/><text fill="#000000" font-family="sans-serif" font-size="14" lengthAdjust="spacing" textLength="86" x="662" y="692.5352">-citizenCard</text><text fill="#000000" font-family="sans-serif" font-size="14" lengthAdjust="spacing" textLength="85" x="662" y="709.0234">-taxNumber</text><text fill="#000000" font-family="sans-serif" font-size="14" lengthAdjust="spacing" textLength="62" x="662" y="725.5117">-address</text><text fill="#000000" font-family="sans-serif" font-size="14" lengthAdjust="spacing" textLength="107" x="662" y="742">-phoneNumber</text><text fill="#000000" font-family="sans-serif" font-size="14" lengthAdjust="spacing" textLength="56" x="662" y="758.4883">-agency</text><text fill="#000000" font-family="sans-serif" font-size="14" lengthAdjust="spacing" textLength="45" x="662" y="774.9766">-email</text><line style="stroke:#181818;stroke-width:0.5;" x1="657" x2="1104" y1="781.9297" y2="781.9297"/><text fill="#000000" font-family="sans-serif" font-size="14" lengthAdjust="spacing" textLength="437" x="662" y="799.4648">+publishAnnouncement(date,Property,commission,agentName)</text></g><!--class NotificationService--><g id="elem_NotificationService"><rect codeLine="101" fill="#F1F1F1" height="179.9063" id="NotificationService" rx="2.5" ry="2.5" style="stroke:#181818;stroke-width:0.5;" width="183" x="877" y="198"/><ellipse cx="902.8" cy="214" fill="#ADD1B2" rx="11" ry="11" style="stroke:#181818;stroke-width:1.0;"/><path d="M905.7731,219.6431 Q905.1921,219.9419 904.5529,220.0913 Q903.9138,220.2407 903.2082,220.2407 Q900.7014,220.2407 899.3815,218.5889 Q898.0617,216.937 898.0617,213.8159 Q898.0617,210.6865 899.3815,209.0347 Q900.7014,207.3828 903.2082,207.3828 Q903.9138,207.3828 904.5612,207.5322 Q905.2087,207.6816 905.7731,207.9805 L905.7731,210.7031 Q905.1423,210.1221 904.5488,209.8523 Q903.9553,209.5825 903.3244,209.5825 Q901.9797,209.5825 901.2949,210.6492 Q900.6101,211.7158 900.6101,213.8159 Q900.6101,215.9077 901.2949,216.9744 Q901.9797,218.041 903.3244,218.041 Q903.9553,218.041 904.5488,217.7712 Q905.1423,217.5015 905.7731,216.9204 Z " fill="#000000"/><text fill="#000000" font-family="sans-serif" font-size="14" lengthAdjust="spacing" textLength="127" x="919.2" y="219.291">NotificationService</text><line style="stroke:#181818;stroke-width:0.5;" x1="878" x2="1059" y1="230" y2="230"/><text fill="#000000" font-family="sans-serif" font-size="14" lengthAdjust="spacing" textLength="135" x="883" y="247.5352">-String ownerName</text><text fill="#000000" font-family="sans-serif" font-size="14" lengthAdjust="spacing" textLength="171" x="883" y="264.0234">-int ownerPhoneNumber</text><text fill="#000000" font-family="sans-serif" font-size="14" lengthAdjust="spacing" textLength="66" x="883" y="280.5117">-String id</text><text fill="#000000" font-family="sans-serif" font-size="14" lengthAdjust="spacing" textLength="108" x="883" y="297">-LocalDate date</text><text fill="#000000" font-family="sans-serif" font-size="14" lengthAdjust="spacing" textLength="131" x="883" y="313.4883">-String agentName</text><text fill="#000000" font-family="sans-serif" font-size="14" lengthAdjust="spacing" textLength="167" x="883" y="329.9766">-int agentPhoneNumber</text><line style="stroke:#181818;stroke-width:0.5;" x1="878" x2="1059" y1="336.9297" y2="336.9297"/><text fill="#000000" font-family="sans-serif" font-size="14" lengthAdjust="spacing" textLength="145" x="883" y="354.4648">+CreateNotification()</text><text fill="#000000" font-family="sans-serif" font-size="14" lengthAdjust="spacing" textLength="83" x="883" y="370.9531">+SendSMS()</text></g><!--link Repositories to Repositories--><g id="link_Repositories_Repositories"><path codeLine="112" d="M1248.38,47.21 C1268.8,49.45 1283,55.05 1283,64 C1283,72.11 1271.34,77.47 1253.95,80.07 " fill="none" id="Repositories-to-Repositories" style="stroke:#181818;stroke-width:1.0;"/><polygon fill="#181818" points="1249.38,80.79,1258.8117,83.6261,1254.3403,80.161,1257.8053,75.6896,1249.38,80.79" style="stroke:#181818;stroke-width:1.0;"/><text fill="#000000" font-family="sans-serif" font-size="13" lengthAdjust="spacing" textLength="53" x="1289" y="69.0684">instance</text></g><!--link ApplicationSession to ApplicationSession--><g id="link_ApplicationSession_ApplicationSession"><path codeLine="113" d="M288.81,264.28 C308.7,266.04 323.5,273.95 323.5,288 C323.5,300.63 311.55,308.29 294.7,310.99 " fill="none" id="ApplicationSession-to-ApplicationSession" style="stroke:#181818;stroke-width:1.0;"/><polygon fill="#181818" points="289.81,311.72,299.2254,314.6096,294.7738,311.1192,298.2641,306.6675,289.81,311.72" style="stroke:#181818;stroke-width:1.0;"/><text fill="#000000" font-family="sans-serif" font-size="13" lengthAdjust="spacing" textLength="53" x="329.5" y="293.0684">instance</text></g><!--link PublishAnnouncementController to Repositories--><g id="link_PublishAnnouncementController_Repositories"><path codeLine="114" d="M903.74,64 C940.95,64 976.91,64 1008.83,64 " fill="none" id="PublishAnnouncementController-to-Repositories" style="stroke:#181818;stroke-width:1.0;stroke-dasharray:7.0,7.0;"/><polygon fill="#181818" points="1013.75,64,1004.75,60,1008.75,64,1004.75,68,1013.75,64" style="stroke:#181818;stroke-width:1.0;"/><text fill="#000000" font-family="sans-serif" font-size="13" lengthAdjust="spacing" textLength="75" x="921.75" y="57.5684">repositories</text></g><!--link Repositories to EmployeeRepository--><g id="link_Repositories_EmployeeRepository"><path codeLine="116" d="M1121.78,121.32 C1106.24,211.43 1077.5,378 1077.5,378 C1077.5,378 1070.39,389.72 1062.4,402.89 " fill="none" id="Repositories-to-EmployeeRepository" style="stroke:#181818;stroke-width:1.0;"/><polygon fill="#181818" points="1059.43,406.79,1067.5263,401.182,1062.0297,402.519,1060.6927,397.0224,1059.43,406.79" style="stroke:#181818;stroke-width:1.0;"/><text fill="#000000" font-family="sans-serif" font-size="13" lengthAdjust="spacing" textLength="8" x="1055.7751" y="398.6163">1</text></g><!--link EmployeeRepository to Agent--><g id="link_EmployeeRepository_Agent"><path codeLine="118" d="M1022.77,472.31 C1000.34,511.92 960.82,581.69 929.11,637.67 " fill="none" id="EmployeeRepository-to-Agent" style="stroke:#181818;stroke-width:1.0;"/><polygon fill="#181818" points="926.26,641.7,934.1651,635.8255,928.7161,637.3448,927.1967,631.8958,926.26,641.7" style="stroke:#181818;stroke-width:1.0;"/><text fill="#000000" font-family="sans-serif" font-size="13" lengthAdjust="spacing" textLength="37" x="1007.5" y="539.0684">Agent</text><text fill="#000000" font-family="sans-serif" font-size="13" lengthAdjust="spacing" textLength="6" x="924.0683" y="632.3103">*</text></g><!--link ApplicationSession to UserSession--><g id="link_ApplicationSession_UserSession"><path codeLine="119" d="M213.85,328.75 C221.25,375.01 233.37,450.82 240.57,495.92 " fill="none" id="ApplicationSession-to-UserSession" style="stroke:#181818;stroke-width:1.0;"/><polygon fill="#181818" points="241.51,500.8,244.0432,491.2825,240.7228,495.8624,236.143,492.542,241.51,500.8" style="stroke:#181818;stroke-width:1.0;"/><text fill="#000000" font-family="sans-serif" font-size="13" lengthAdjust="spacing" textLength="75" x="237.5" y="445.0684">userSession</text><text fill="#000000" font-family="sans-serif" font-size="13" lengthAdjust="spacing" textLength="8" x="231.6558" y="491.1619">1</text></g><!--link PublishAnnouncementController to Agent--><g id="link_PublishAnnouncementController_Agent"><path codeLine="121" d="M688.93,121.4 C722.1,137.61 749.5,151 749.5,151 C749.5,151 824.12,477.1 860.72,637.07 " fill="none" id="PublishAnnouncementController-to-Agent" style="stroke:#181818;stroke-width:1.0;stroke-dasharray:7.0,7.0;"/><polygon fill="#181818" points="862.01,641.69,863.8755,632.0194,860.8815,636.819,856.082,633.825,862.01,641.69" style="stroke:#181818;stroke-width:1.0;"/><text fill="#000000" font-family="sans-serif" font-size="13" lengthAdjust="spacing" textLength="37" x="824.5" y="445.0684">Agent</text><text fill="#000000" font-family="sans-serif" font-size="13" lengthAdjust="spacing" textLength="8" x="852.007" y="632.2994">1</text></g><!--link PublishAnnouncementController to ApplicationSession--><g id="link_PublishAnnouncementController_ApplicationSession"><path codeLine="122" d="M458.73,121.4 C425.74,137.61 398.5,151 398.5,151 C398.5,151 324.12,203.96 268.19,243.79 " fill="none" id="PublishAnnouncementController-to-ApplicationSession" style="stroke:#181818;stroke-width:1.0;stroke-dasharray:7.0,7.0;"/><polygon fill="#181818" points="264.52,247.11,274.1712,245.1466,268.5925,244.2092,269.5299,238.6306,264.52,247.11" style="stroke:#181818;stroke-width:1.0;"/></g><!--link PublishAnnouncementController to UserSession--><g id="link_PublishAnnouncementController_UserSession"><path codeLine="123" d="M525.15,121.4 C494.08,157.65 459.5,198 459.5,198 C459.5,198 388.5,378 388.5,378 C388.5,378 321.5,472 321.5,472 C321.5,472 306.06,484.56 289.19,498.28 " fill="none" id="PublishAnnouncementController-to-UserSession" style="stroke:#181818;stroke-width:1.0;stroke-dasharray:7.0,7.0;"/><polygon fill="#181818" points="285.88,501.79,295.3874,499.2191,289.7606,498.637,290.3427,493.0102,285.88,501.79" style="stroke:#181818;stroke-width:1.0;"/></g><!--link PublishAnnouncementUI to PublishAnnouncementController--><g id="link_PublishAnnouncementUI_PublishAnnouncementController"><path codeLine="125" d="M208.07,64 C218.87,64 229.03,64 237.59,64 " fill="none" id="PublishAnnouncementUI-to-PublishAnnouncementController" style="stroke:#181818;stroke-width:1.0;stroke-dasharray:7.0,7.0;"/><polygon fill="#181818" points="242.25,64,233.25,60,237.25,64,233.25,68,242.25,64" style="stroke:#181818;stroke-width:1.0;"/></g><!--link PublishAnnouncementController to AnnouncementRepository--><g id="link_PublishAnnouncementController_AnnouncementRepository"><path codeLine="128" d="M575.78,121.31 C577.18,155.67 578.95,199.36 580.32,233.25 " fill="none" id="PublishAnnouncementController-to-AnnouncementRepository" style="stroke:#181818;stroke-width:1.0;stroke-dasharray:7.0,7.0;"/><polygon fill="#181818" points="580.56,238.03,584.1971,228.8773,580.3602,233.034,576.2035,229.1971,580.56,238.03" style="stroke:#181818;stroke-width:1.0;"/><text fill="#000000" font-family="sans-serif" font-size="13" lengthAdjust="spacing" textLength="162" x="578.5" y="164.5684">AnnouncementRepository</text></g><!--link AnnouncementRepository to Announcement--><g id="link_AnnouncementRepository_Announcement"><path codeLine="130" d="M580.34,336.92 C578.24,383.57 575.08,453.5 573.17,496.02 " fill="none" id="AnnouncementRepository-to-Announcement" style="stroke:#181818;stroke-width:1.0;"/><polygon fill="#181818" points="572.91,500.83,577.3168,492.0221,573.1383,495.8352,569.3252,491.6567,572.91,500.83" style="stroke:#181818;stroke-width:1.0;"/><text fill="#000000" font-family="sans-serif" font-size="13" lengthAdjust="spacing" textLength="6" x="566.5821" y="491.1981">*</text></g><!--link Announcement to Property--><g id="link_Announcement_Property"><path codeLine="132" d="M558.12,566.13 C549.73,585.65 538.47,611.87 527.54,637.29 " fill="none" id="Announcement-to-Property" style="stroke:#181818;stroke-width:1.0;"/><polygon fill="#181818" points="525.22,641.7,532.4419,635.0034,527.1896,637.1043,525.0887,631.852,525.22,641.7" style="stroke:#181818;stroke-width:1.0;"/><text fill="#000000" font-family="sans-serif" font-size="13" lengthAdjust="spacing" textLength="53" x="544.5" y="609.5684">property</text><text fill="#000000" font-family="sans-serif" font-size="13" lengthAdjust="spacing" textLength="8" x="546.5354" y="586.8537">1</text><text fill="#000000" font-family="sans-serif" font-size="13" lengthAdjust="spacing" textLength="8" x="519.956" y="632.3103">1</text></g><!--link Property to House--><g id="link_Property_House"><path codeLine="134" d="M414.35,806.41 C392.5,829.62 368.62,855 346.54,878.46 " fill="none" id="Property-to-House" style="stroke:#181818;stroke-width:1.0;"/><polygon fill="#181818" points="343.44,881.82,352.5131,877.9887,346.8592,878.1719,346.6761,872.518,343.44,881.82" style="stroke:#181818;stroke-width:1.0;"/><text fill="#000000" font-family="sans-serif" font-size="13" lengthAdjust="spacing" textLength="38" x="386.5" y="849.5684">house</text><text fill="#000000" font-family="sans-serif" font-size="13" lengthAdjust="spacing" textLength="8" x="399.2116" y="826.9367">1</text><text fill="#000000" font-family="sans-serif" font-size="13" lengthAdjust="spacing" textLength="8" x="341.072" y="872.1621">1</text></g><!--link Property to Apartment--><g id="link_Property_Apartment"><path codeLine="135" d="M490.5,806.41 C490.5,837.49 490.5,872.44 490.5,901.47 " fill="none" id="Property-to-Apartment" style="stroke:#181818;stroke-width:1.0;"/><polygon fill="#181818" points="490.5,906.2,494.5,897.2,490.5,901.2,486.5,897.2,490.5,906.2" style="stroke:#181818;stroke-width:1.0;"/><text fill="#000000" font-family="sans-serif" font-size="13" lengthAdjust="spacing" textLength="64" x="491.5" y="849.5684">apartment</text><text fill="#000000" font-family="sans-serif" font-size="13" lengthAdjust="spacing" textLength="8" x="482.1438" y="826.9367">1</text><text fill="#000000" font-family="sans-serif" font-size="13" lengthAdjust="spacing" textLength="8" x="482.0125" y="896.8926">1</text></g><!--link Property to Land--><g id="link_Property_Land"><path codeLine="136" d="M547.81,806.1 C575.37,844.85 602.5,883 602.5,883 C602.5,883 620.6,912.15 635.02,935.36 " fill="none" id="Property-to-Land" style="stroke:#181818;stroke-width:1.0;"/><polygon fill="#181818" points="638.04,939.22,636.7152,929.4607,635.4131,934.9656,629.9082,933.6636,638.04,939.22" style="stroke:#181818;stroke-width:1.0;"/><text fill="#000000" font-family="sans-serif" font-size="13" lengthAdjust="spacing" textLength="27" x="582.5" y="849.5684">land</text><text fill="#000000" font-family="sans-serif" font-size="13" lengthAdjust="spacing" textLength="8" x="544.7245" y="826.8773">1</text><text fill="#000000" font-family="sans-serif" font-size="13" lengthAdjust="spacing" textLength="8" x="625.3096" y="929.6845">1</text></g><!--link PublishAnnouncementController to NotificationService--><g id="link_PublishAnnouncementController_NotificationService"><path codeLine="137" d="M754.52,121.4 C806.54,137.61 849.5,151 849.5,151 C849.5,151 865.92,169.76 886.55,193.35 " fill="none" id="PublishAnnouncementController-to-NotificationService" style="stroke:#181818;stroke-width:1.0;"/><polygon fill="#181818" points="890.45,196.8,887.554,187.3865,887.1656,193.03,881.5221,192.6416,890.45,196.8" style="stroke:#181818;stroke-width:1.0;"/><text fill="#000000" font-family="sans-serif" font-size="13" lengthAdjust="spacing" textLength="117" x="865.5" y="164.5684">notificationService</text></g><!--link Announcement to Agent--><g id="link_Announcement_Agent"><path codeLine="139" d="M622.87,566.34 C655.84,586.45 700.33,613.59 743.06,639.66 " fill="none" id="Announcement-to-Agent" style="stroke:#181818;stroke-width:1.0;"/><polygon fill="#181818" points="747,642.67,741.392,634.5737,742.729,640.0703,737.2324,641.4073,747,642.67" style="stroke:#181818;stroke-width:1.0;"/><text fill="#000000" font-family="sans-serif" font-size="13" lengthAdjust="spacing" textLength="76" x="699.5" y="609.5684">publishedBy</text></g><!--SRC=[jLLBKzim4BxhLsYu4Dg4QQyvT8P7EiqCfKnTpenYRs8DikHACk0o_FUkBDcM7PV0eHo8lFhss_VgsDnpMJBD2beegT9SgmAerHMG_gPawJtRGM9h0LH3QfdSYHXWSfQfHovtTCk4YMy4bs3h4cYfHEq-oF74fT9MaKWh5SoOCsirtrGMrgcI2Vy3z1CXnmAsbbf5DT_bbcRSkSEL9AJHeJVLHd2JdqcfAfb20TBUhf_9oolt5qfQhOG0JPy9nR-FhwDc6RCmlz6g16thUQgAWXk3FimnHz9Uim9E0a-g0R4npRkLhvNbMvuo5-HCFKhG3ZEdpV4cLnAkgs83Uhw-d3VS7Oy_HH1FlA0xiAkY5Ae6-8hbJg1nO7P2-ZITbQK8HiCrQNDZB8fJHxAMUCQuPgt7ABkej4QhFMT7UMj0ZxbGmOcTj-Vrgc1SU0tIAls4KXbkbUPWGdKM0s5ik_U7BWUW7XANeaFKBKcKcC5bdvP9zUTEUr3fGFh01C_6NH3kM9QDn2_1qhuVaPLHNOULY_ZQDB-x0QDv2K17jKXm8776rvVkunSExe_jUMLmY14u_7I0hL3CKeE3wxwCrnNATrKFoBYlsjqMU_7Evd2NSblVfUWCwCXgcIkhTfgLUSHUQfu2wRBsJLK6Gfl89ZVe4cHQgSACfCpcaPWzOE-nZO3LxugNBayZ_0tJk9rs2Qx2q4yBKydL4rQdqk05y8IX08RYw4sJRN_1PSust3h-AxMrWpbZslQb-gzETqQlcCoU1sFMT5GxNvX-h9cyO3hp0ikUVAC5irccVOdne-pRCDmYLLg7XBY9zZrOxc_KDtLYMzbu3IQW7x3imTtG7jrgR5DkzrRa0Cz3S5VOaE8IFQ7EdG6aSwEd7AzK7zp5_gOE0vw0p9BlYTyXWsMs-39SRalAm_eY-ylNeIUaaSxhxzhfdZ4ThyUHPsZiwFFHn0eYP5_cuH-EV0yj_Sza284sUWVGZofw5Gu5SUe9VBEsbWxhJBnbXvLk3_XrktP9VPM7l2MWwHV5HJTvGSW_5BegHDT3S9ExjWZjr2rnW_eJEXjE0s2pKPSqTp_JY6w5BIbhZzD8jtUMLE3_0ubn2XC3lwHoNpWAqgcs3H9s3cJdzLy0]--></g></svg>