<?xml version="1.0" encoding="us-ascii" standalone="no"?><svg xmlns="http://www.w3.org/2000/svg" xmlns:xlink="http://www.w3.org/1999/xlink" contentStyleType="text/css" height="986px" preserveAspectRatio="none" style="width:1355px;height:986px;background:#FFFFFF;" version="1.1" viewBox="0 0 1355 986" width="1355px" zoomAndPan="magnify"><defs/><g><!--class PublishAnnouncementUI--><g id="elem_PublishAnnouncementUI"><rect codeLine="11" fill="#F1F1F1" height="48" id="PublishAnnouncementUI" rx="2.5" ry="2.5" style="stroke:#181818;stroke-width:0.5;" width="201" x="7" y="48"/><ellipse cx="22" cy="64" fill="#ADD1B2" rx="11" ry="11" style="stroke:#181818;stroke-width:1.0;"/><path d="M24.9731,69.6431 Q24.3921,69.9419 23.7529,70.0913 Q23.1138,70.2407 22.4082,70.2407 Q19.9014,70.2407 18.5815,68.5889 Q17.2617,66.937 17.2617,63.8159 Q17.2617,60.6865 18.5815,59.0347 Q19.9014,57.3828 22.4082,57.3828 Q23.1138,57.3828 23.7612,57.5322 Q24.4087,57.6816 24.9731,57.9805 L24.9731,60.7031 Q24.3423,60.1221 23.7488,59.8523 Q23.1553,59.5825 22.5244,59.5825 Q21.1797,59.5825 20.4949,60.6492 Q19.8101,61.7158 19.8101,63.8159 Q19.8101,65.9077 20.4949,66.9744 Q21.1797,68.041 22.5244,68.041 Q23.1553,68.041 23.7488,67.7712 Q24.3423,67.5015 24.9731,66.9204 Z " fill="#000000"/><text fill="#000000" font-family="sans-serif" font-size="14" lengthAdjust="spacing" textLength="169" x="36" y="69.291">PublishAnnouncementUI</text><line style="stroke:#181818;stroke-width:0.5;" x1="8" x2="207" y1="80" y2="80"/><line style="stroke:#181818;stroke-width:0.5;" x1="8" x2="207" y1="88" y2="88"/></g><!--class PublishAnnouncementController--><g id="elem_PublishAnnouncementController"><rect codeLine="14" fill="#F1F1F1" height="130.4414" id="PublishAnnouncementController" rx="2.5" ry="2.5" style="stroke:#181818;stroke-width:0.5;" width="660" x="243.5" y="7"/><ellipse cx="456.75" cy="23" fill="#ADD1B2" rx="11" ry="11" style="stroke:#181818;stroke-width:1.0;"/><path d="M459.7231,28.6431 Q459.1421,28.9419 458.5029,29.0913 Q457.8638,29.2407 457.1582,29.2407 Q454.6514,29.2407 453.3315,27.5889 Q452.0117,25.937 452.0117,22.8159 Q452.0117,19.6865 453.3315,18.0347 Q454.6514,16.3828 457.1582,16.3828 Q457.8638,16.3828 458.5112,16.5322 Q459.1587,16.6816 459.7231,16.9805 L459.7231,19.7031 Q459.0923,19.1221 458.4988,18.8523 Q457.9053,18.5825 457.2744,18.5825 Q455.9297,18.5825 455.2449,19.6492 Q454.5601,20.7158 454.5601,22.8159 Q454.5601,24.9077 455.2449,25.9744 Q455.9297,27.041 457.2744,27.041 Q457.9053,27.041 458.4988,26.7712 Q459.0923,26.5015 459.7231,25.9204 Z " fill="#000000"/><text fill="#000000" font-family="sans-serif" font-size="14" lengthAdjust="spacing" textLength="225" x="477.25" y="28.291">PublishAnnouncementController</text><line style="stroke:#181818;stroke-width:0.5;" x1="244.5" x2="902.5" y1="39" y2="39"/><line style="stroke:#181818;stroke-width:0.5;" x1="244.5" x2="902.5" y1="47" y2="47"/><text fill="#000000" font-family="sans-serif" font-size="14" lengthAdjust="spacing" textLength="506" x="249.5" y="64.5352">+PublishAnnouncementController(date,Property,commission,agentName)</text><text fill="#000000" font-family="sans-serif" font-size="14" lengthAdjust="spacing" textLength="428" x="249.5" y="81.0234">+createAnnouncement(date,Property,commission,agentName)</text><text fill="#000000" font-family="sans-serif" font-size="14" lengthAdjust="spacing" textLength="648" x="249.5" y="97.5117">+createNotification(ownerName, ownerPhoneNumber,ID,date,agentName,agentPhoneNumber)</text><text fill="#000000" font-family="sans-serif" font-size="14" lengthAdjust="spacing" textLength="194" x="249.5" y="114">-getEmployeeFromSession()</text><text fill="#000000" font-family="sans-serif" font-size="14" lengthAdjust="spacing" textLength="89" x="249.5" y="130.4883">-getCityList()</text></g><!--class ApplicationSession--><g id="elem_ApplicationSession"><rect codeLine="23" fill="#F1F1F1" height="80.9766" id="ApplicationSession" rx="2.5" ry="2.5" style="stroke:#181818;stroke-width:0.5;" width="162" x="211.5" y="222"/><ellipse cx="226.5" cy="238" fill="#ADD1B2" rx="11" ry="11" style="stroke:#181818;stroke-width:1.0;"/><path d="M229.4731,243.6431 Q228.8921,243.9419 228.2529,244.0913 Q227.6138,244.2407 226.9082,244.2407 Q224.4014,244.2407 223.0815,242.5889 Q221.7617,240.937 221.7617,237.8159 Q221.7617,234.6865 223.0815,233.0347 Q224.4014,231.3828 226.9082,231.3828 Q227.6138,231.3828 228.2612,231.5322 Q228.9087,231.6816 229.4731,231.9805 L229.4731,234.7031 Q228.8423,234.1221 228.2488,233.8523 Q227.6553,233.5825 227.0244,233.5825 Q225.6797,233.5825 224.9949,234.6492 Q224.3101,235.7158 224.3101,237.8159 Q224.3101,239.9077 224.9949,240.9744 Q225.6797,242.041 227.0244,242.041 Q227.6553,242.041 228.2488,241.7712 Q228.8423,241.5015 229.4731,240.9204 Z " fill="#000000"/><text fill="#000000" font-family="sans-serif" font-size="14" lengthAdjust="spacing" textLength="130" x="240.5" y="243.291">ApplicationSession</text><line style="stroke:#181818;stroke-width:0.5;" x1="212.5" x2="372.5" y1="254" y2="254"/><line style="stroke:#181818;stroke-width:0.5;" x1="212.5" x2="372.5" y1="262" y2="262"/><text fill="#000000" font-family="sans-serif" font-size="14" lengthAdjust="spacing" textLength="140" x="217.5" y="279.5352">+static getInstance()</text><text fill="#000000" font-family="sans-serif" font-size="14" lengthAdjust="spacing" textLength="148" x="217.5" y="296.0234">+getCurrentSession()</text></g><!--class UserSession--><g id="elem_UserSession"><rect codeLine="29" fill="#F1F1F1" height="64.4883" id="UserSession" rx="2.5" ry="2.5" style="stroke:#181818;stroke-width:0.5;" width="177" x="204" y="435"/><ellipse cx="246.9" cy="451" fill="#ADD1B2" rx="11" ry="11" style="stroke:#181818;stroke-width:1.0;"/><path d="M249.8731,456.6431 Q249.2921,456.9419 248.6529,457.0913 Q248.0138,457.2407 247.3082,457.2407 Q244.8014,457.2407 243.4815,455.5889 Q242.1617,453.937 242.1617,450.8159 Q242.1617,447.6865 243.4815,446.0347 Q244.8014,444.3828 247.3082,444.3828 Q248.0138,444.3828 248.6612,444.5322 Q249.3087,444.6816 249.8731,444.9805 L249.8731,447.7031 Q249.2423,447.1221 248.6488,446.8523 Q248.0553,446.5825 247.4244,446.5825 Q246.0797,446.5825 245.3949,447.6492 Q244.7101,448.7158 244.7101,450.8159 Q244.7101,452.9077 245.3949,453.9744 Q246.0797,455.041 247.4244,455.041 Q248.0553,455.041 248.6488,454.7712 Q249.2423,454.5015 249.8731,453.9204 Z " fill="#000000"/><text fill="#000000" font-family="sans-serif" font-size="14" lengthAdjust="spacing" textLength="83" x="267.1" y="456.291">UserSession</text><line style="stroke:#181818;stroke-width:0.5;" x1="205" x2="380" y1="467" y2="467"/><line style="stroke:#181818;stroke-width:0.5;" x1="205" x2="380" y1="475" y2="475"/><text fill="#000000" font-family="sans-serif" font-size="14" lengthAdjust="spacing" textLength="165" x="210" y="492.5352">+getUserNameByEmail()</text></g><!--class Repositories--><g id="elem_Repositories"><rect codeLine="37" fill="#F1F1F1" height="113.9531" id="Repositories" rx="2.5" ry="2.5" style="stroke:#181818;stroke-width:0.5;" width="233" x="1015" y="15"/><ellipse cx="1084.75" cy="31" fill="#ADD1B2" rx="11" ry="11" style="stroke:#181818;stroke-width:1.0;"/><path d="M1087.7231,36.6431 Q1087.1421,36.9419 1086.5029,37.0913 Q1085.8638,37.2407 1085.1582,37.2407 Q1082.6514,37.2407 1081.3315,35.5889 Q1080.0117,33.937 1080.0117,30.8159 Q1080.0117,27.6865 1081.3315,26.0347 Q1082.6514,24.3828 1085.1582,24.3828 Q1085.8638,24.3828 1086.5112,24.5322 Q1087.1587,24.6816 1087.7231,24.9805 L1087.7231,27.7031 Q1087.0923,27.1221 1086.4988,26.8523 Q1085.9053,26.5825 1085.2744,26.5825 Q1083.9297,26.5825 1083.2449,27.6492 Q1082.5601,28.7158 1082.5601,30.8159 Q1082.5601,32.9077 1083.2449,33.9744 Q1083.9297,35.041 1085.2744,35.041 Q1085.9053,35.041 1086.4988,34.7712 Q1087.0923,34.5015 1087.7231,33.9204 Z " fill="#000000"/><text fill="#000000" font-family="sans-serif" font-size="14" lengthAdjust="spacing" textLength="85" x="1105.25" y="36.291">Repositories</text><line style="stroke:#181818;stroke-width:0.5;" x1="1016" x2="1247" y1="47" y2="47"/><line style="stroke:#181818;stroke-width:0.5;" x1="1016" x2="1247" y1="55" y2="55"/><text fill="#000000" font-family="sans-serif" font-size="14" lengthAdjust="spacing" textLength="103" x="1021" y="72.5352">-Repositories()</text><text fill="#000000" font-family="sans-serif" font-size="14" lengthAdjust="spacing" textLength="197" x="1021" y="89.0234">+getInstance() : Repositories</text><text fill="#000000" font-family="sans-serif" font-size="14" lengthAdjust="spacing" textLength="221" x="1021" y="105.5117">+getAnnouncementRepository()</text><text fill="#000000" font-family="sans-serif" font-size="14" lengthAdjust="spacing" textLength="182" x="1021" y="122">+getEmployeeRepository()</text></g><!--class AnnouncementRepository--><g id="elem_AnnouncementRepository"><rect codeLine="44" fill="#F1F1F1" height="97.4648" id="AnnouncementRepository" rx="2.5" ry="2.5" style="stroke:#181818;stroke-width:0.5;" width="210" x="562.5" y="214"/><ellipse cx="577.5" cy="230" fill="#ADD1B2" rx="11" ry="11" style="stroke:#181818;stroke-width:1.0;"/><path d="M580.4731,235.6431 Q579.8921,235.9419 579.2529,236.0913 Q578.6138,236.2407 577.9082,236.2407 Q575.4014,236.2407 574.0815,234.5889 Q572.7617,232.937 572.7617,229.8159 Q572.7617,226.6865 574.0815,225.0347 Q575.4014,223.3828 577.9082,223.3828 Q578.6138,223.3828 579.2612,223.5322 Q579.9087,223.6816 580.4731,223.9805 L580.4731,226.7031 Q579.8423,226.1221 579.2488,225.8523 Q578.6553,225.5825 578.0244,225.5825 Q576.6797,225.5825 575.9949,226.6492 Q575.3101,227.7158 575.3101,229.8159 Q575.3101,231.9077 575.9949,232.9744 Q576.6797,234.041 578.0244,234.041 Q578.6553,234.041 579.2488,233.7712 Q579.8423,233.5015 580.4731,232.9204 Z " fill="#000000"/><text fill="#000000" font-family="sans-serif" font-size="14" lengthAdjust="spacing" textLength="178" x="591.5" y="235.291">AnnouncementRepository</text><line style="stroke:#181818;stroke-width:0.5;" x1="563.5" x2="771.5" y1="246" y2="246"/><line style="stroke:#181818;stroke-width:0.5;" x1="563.5" x2="771.5" y1="254" y2="254"/><text fill="#000000" font-family="sans-serif" font-size="14" lengthAdjust="spacing" textLength="148" x="568.5" y="271.5352">+getAnnouncement()</text><text fill="#000000" font-family="sans-serif" font-size="14" lengthAdjust="spacing" textLength="179" x="568.5" y="288.0234">+validateAnnouncement()</text><text fill="#000000" font-family="sans-serif" font-size="14" lengthAdjust="spacing" textLength="152" x="568.5" y="304.5117">+addAnnouncement()</text></g><!--class CityRepository--><g id="elem_CityRepository"><rect codeLine="50" fill="#F1F1F1" height="64.4883" id="CityRepository" rx="2.5" ry="2.5" style="stroke:#181818;stroke-width:0.5;" width="131" x="968" y="230.5"/><ellipse cx="983" cy="246.5" fill="#ADD1B2" rx="11" ry="11" style="stroke:#181818;stroke-width:1.0;"/><path d="M985.9731,252.1431 Q985.3921,252.4419 984.7529,252.5913 Q984.1138,252.7407 983.4082,252.7407 Q980.9014,252.7407 979.5815,251.0889 Q978.2617,249.437 978.2617,246.3159 Q978.2617,243.1865 979.5815,241.5347 Q980.9014,239.8828 983.4082,239.8828 Q984.1138,239.8828 984.7612,240.0322 Q985.4087,240.1816 985.9731,240.4805 L985.9731,243.2031 Q985.3423,242.6221 984.7488,242.3523 Q984.1553,242.0825 983.5244,242.0825 Q982.1797,242.0825 981.4949,243.1492 Q980.8101,244.2158 980.8101,246.3159 Q980.8101,248.4077 981.4949,249.4744 Q982.1797,250.541 983.5244,250.541 Q984.1553,250.541 984.7488,250.2712 Q985.3423,250.0015 985.9731,249.4204 Z " fill="#000000"/><text fill="#000000" font-family="sans-serif" font-size="14" lengthAdjust="spacing" textLength="99" x="997" y="251.791">CityRepository</text><line style="stroke:#181818;stroke-width:0.5;" x1="969" x2="1098" y1="262.5" y2="262.5"/><line style="stroke:#181818;stroke-width:0.5;" x1="969" x2="1098" y1="270.5" y2="270.5"/><text fill="#000000" font-family="sans-serif" font-size="14" lengthAdjust="spacing" textLength="92" x="974" y="288.0352">+getCityList()</text></g><!--class EmployeeRepository--><g id="elem_EmployeeRepository"><rect codeLine="54" fill="#F1F1F1" height="64.4883" id="EmployeeRepository" rx="2.5" ry="2.5" style="stroke:#181818;stroke-width:0.5;" width="194" x="1006.5" y="341"/><ellipse cx="1031.85" cy="357" fill="#ADD1B2" rx="11" ry="11" style="stroke:#181818;stroke-width:1.0;"/><path d="M1034.8231,362.6431 Q1034.2421,362.9419 1033.6029,363.0913 Q1032.9638,363.2407 1032.2582,363.2407 Q1029.7514,363.2407 1028.4315,361.5889 Q1027.1117,359.937 1027.1117,356.8159 Q1027.1117,353.6865 1028.4315,352.0347 Q1029.7514,350.3828 1032.2582,350.3828 Q1032.9638,350.3828 1033.6112,350.5322 Q1034.2587,350.6816 1034.8231,350.9805 L1034.8231,353.7031 Q1034.1923,353.1221 1033.5988,352.8523 Q1033.0053,352.5825 1032.3744,352.5825 Q1031.0297,352.5825 1030.3449,353.6492 Q1029.6601,354.7158 1029.6601,356.8159 Q1029.6601,358.9077 1030.3449,359.9744 Q1031.0297,361.041 1032.3744,361.041 Q1033.0053,361.041 1033.5988,360.7712 Q1034.1923,360.5015 1034.8231,359.9204 Z " fill="#000000"/><text fill="#000000" font-family="sans-serif" font-size="14" lengthAdjust="spacing" textLength="139" x="1048.15" y="362.291">EmployeeRepository</text><line style="stroke:#181818;stroke-width:0.5;" x1="1007.5" x2="1199.5" y1="373" y2="373"/><line style="stroke:#181818;stroke-width:0.5;" x1="1007.5" x2="1199.5" y1="381" y2="381"/><text fill="#000000" font-family="sans-serif" font-size="14" lengthAdjust="spacing" textLength="182" x="1012.5" y="398.5352">+getAgentPhoneNumber()</text></g><!--class Announcement--><g id="elem_Announcement"><rect codeLine="59" fill="#F1F1F1" height="64.4883" id="Announcement" rx="2.5" ry="2.5" style="stroke:#181818;stroke-width:0.5;" width="445" x="416" y="435"/><ellipse cx="581.75" cy="451" fill="#ADD1B2" rx="11" ry="11" style="stroke:#181818;stroke-width:1.0;"/><path d="M584.7231,456.6431 Q584.1421,456.9419 583.5029,457.0913 Q582.8638,457.2407 582.1582,457.2407 Q579.6514,457.2407 578.3315,455.5889 Q577.0117,453.937 577.0117,450.8159 Q577.0117,447.6865 578.3315,446.0347 Q579.6514,444.3828 582.1582,444.3828 Q582.8638,444.3828 583.5112,444.5322 Q584.1587,444.6816 584.7231,444.9805 L584.7231,447.7031 Q584.0923,447.1221 583.4988,446.8523 Q582.9053,446.5825 582.2744,446.5825 Q580.9297,446.5825 580.2449,447.6492 Q579.5601,448.7158 579.5601,450.8159 Q579.5601,452.9077 580.2449,453.9744 Q580.9297,455.041 582.2744,455.041 Q582.9053,455.041 583.4988,454.7712 Q584.0923,454.5015 584.7231,453.9204 Z " fill="#000000"/><text fill="#000000" font-family="sans-serif" font-size="14" lengthAdjust="spacing" textLength="105" x="602.25" y="456.291">Announcement</text><line style="stroke:#181818;stroke-width:0.5;" x1="417" x2="860" y1="467" y2="467"/><line style="stroke:#181818;stroke-width:0.5;" x1="417" x2="860" y1="475" y2="475"/><text fill="#000000" font-family="sans-serif" font-size="14" lengthAdjust="spacing" textLength="433" x="422" y="492.5352">+Announcement(date,Property,commission,agentName,owner)</text></g><!--class Property--><g id="elem_Property"><rect codeLine="64" fill="#F1F1F1" height="163.418" id="Property" rx="2.5" ry="2.5" style="stroke:#181818;stroke-width:0.5;" width="261" x="489" y="576"/><ellipse cx="586.25" cy="592" fill="#ADD1B2" rx="11" ry="11" style="stroke:#181818;stroke-width:1.0;"/><path d="M589.2231,597.6431 Q588.6421,597.9419 588.0029,598.0913 Q587.3638,598.2407 586.6582,598.2407 Q584.1514,598.2407 582.8315,596.5889 Q581.5117,594.937 581.5117,591.8159 Q581.5117,588.6865 582.8315,587.0347 Q584.1514,585.3828 586.6582,585.3828 Q587.3638,585.3828 588.0112,585.5322 Q588.6587,585.6816 589.2231,585.9805 L589.2231,588.7031 Q588.5923,588.1221 587.9988,587.8523 Q587.4053,587.5825 586.7744,587.5825 Q585.4297,587.5825 584.7449,588.6492 Q584.0601,589.7158 584.0601,591.8159 Q584.0601,593.9077 584.7449,594.9744 Q585.4297,596.041 586.7744,596.041 Q587.4053,596.041 587.9988,595.7712 Q588.5923,595.5015 589.2231,594.9204 Z " fill="#000000"/><text fill="#000000" font-family="sans-serif" font-size="14" lengthAdjust="spacing" textLength="58" x="606.75" y="597.291">Property</text><line style="stroke:#181818;stroke-width:0.5;" x1="490" x2="749" y1="608" y2="608"/><text fill="#000000" font-family="sans-serif" font-size="14" lengthAdjust="spacing" textLength="228" x="495" y="625.5352">-TypeOfBusiness TypeOfBusiness</text><text fill="#000000" font-family="sans-serif" font-size="14" lengthAdjust="spacing" textLength="70" x="495" y="642.0234">-float size</text><text fill="#000000" font-family="sans-serif" font-size="14" lengthAdjust="spacing" textLength="107" x="495" y="658.5117">-string location</text><text fill="#000000" font-family="sans-serif" font-size="14" lengthAdjust="spacing" textLength="249" x="495" y="675">-float distance_from_the_city_center</text><text fill="#000000" font-family="sans-serif" font-size="14" lengthAdjust="spacing" textLength="142" x="495" y="691.4883">-String photographs</text><text fill="#000000" font-family="sans-serif" font-size="14" lengthAdjust="spacing" textLength="77" x="495" y="707.9766">-float price</text><text fill="#000000" font-family="sans-serif" font-size="14" lengthAdjust="spacing" textLength="182" x="495" y="724.4648">-int numberOfMonthsRent</text><line style="stroke:#181818;stroke-width:0.5;" x1="490" x2="749" y1="731.418" y2="731.418"/></g><!--class House--><g id="elem_House"><rect codeLine="74" fill="#F1F1F1" height="163.418" id="House" rx="2.5" ry="2.5" style="stroke:#181818;stroke-width:0.5;" width="189" x="301" y="816"/><ellipse cx="369.75" cy="832" fill="#ADD1B2" rx="11" ry="11" style="stroke:#181818;stroke-width:1.0;"/><path d="M372.7231,837.6431 Q372.1421,837.9419 371.5029,838.0913 Q370.8638,838.2407 370.1582,838.2407 Q367.6514,838.2407 366.3315,836.5889 Q365.0117,834.937 365.0117,831.8159 Q365.0117,828.6865 366.3315,827.0347 Q367.6514,825.3828 370.1582,825.3828 Q370.8638,825.3828 371.5112,825.5322 Q372.1587,825.6816 372.7231,825.9805 L372.7231,828.7031 Q372.0923,828.1221 371.4988,827.8523 Q370.9053,827.5825 370.2744,827.5825 Q368.9297,827.5825 368.2449,828.6492 Q367.5601,829.7158 367.5601,831.8159 Q367.5601,833.9077 368.2449,834.9744 Q368.9297,836.041 370.2744,836.041 Q370.9053,836.041 371.4988,835.7712 Q372.0923,835.5015 372.7231,834.9204 Z " fill="#000000"/><text fill="#000000" font-family="sans-serif" font-size="14" lengthAdjust="spacing" textLength="43" x="390.25" y="837.291">House</text><line style="stroke:#181818;stroke-width:0.5;" x1="302" x2="489" y1="848" y2="848"/><text fill="#000000" font-family="sans-serif" font-size="14" lengthAdjust="spacing" textLength="147" x="307" y="865.5352">-numberOfBedrooms</text><text fill="#000000" font-family="sans-serif" font-size="14" lengthAdjust="spacing" textLength="152" x="307" y="882.0234">-numberOfBathrooms</text><text fill="#000000" font-family="sans-serif" font-size="14" lengthAdjust="spacing" textLength="149" x="307" y="898.5117">-availableEquipments</text><text fill="#000000" font-family="sans-serif" font-size="14" lengthAdjust="spacing" textLength="177" x="307" y="915">-numberOfParkingSpaces</text><text fill="#000000" font-family="sans-serif" font-size="14" lengthAdjust="spacing" textLength="98" x="307" y="931.4883">-sunExposure</text><text fill="#000000" font-family="sans-serif" font-size="14" lengthAdjust="spacing" textLength="155" x="307" y="947.9766">-existenceOfBasement</text><text fill="#000000" font-family="sans-serif" font-size="14" lengthAdjust="spacing" textLength="111" x="307" y="964.4648">-inhabitableLoft</text><line style="stroke:#181818;stroke-width:0.5;" x1="302" x2="489" y1="971.418" y2="971.418"/></g><!--class Apartment--><g id="elem_Apartment"><rect codeLine="85" fill="#F1F1F1" height="113.9531" id="Apartment" rx="2.5" ry="2.5" style="stroke:#181818;stroke-width:0.5;" width="189" x="525" y="840.5"/><ellipse cx="578.75" cy="856.5" fill="#ADD1B2" rx="11" ry="11" style="stroke:#181818;stroke-width:1.0;"/><path d="M581.7231,862.1431 Q581.1421,862.4419 580.5029,862.5913 Q579.8638,862.7407 579.1582,862.7407 Q576.6514,862.7407 575.3315,861.0889 Q574.0117,859.437 574.0117,856.3159 Q574.0117,853.1865 575.3315,851.5347 Q576.6514,849.8828 579.1582,849.8828 Q579.8638,849.8828 580.5112,850.0322 Q581.1587,850.1816 581.7231,850.4805 L581.7231,853.2031 Q581.0923,852.6221 580.4988,852.3523 Q579.9053,852.0825 579.2744,852.0825 Q577.9297,852.0825 577.2449,853.1492 Q576.5601,854.2158 576.5601,856.3159 Q576.5601,858.4077 577.2449,859.4744 Q577.9297,860.541 579.2744,860.541 Q579.9053,860.541 580.4988,860.2712 Q581.0923,860.0015 581.7231,859.4204 Z " fill="#000000"/><text fill="#000000" font-family="sans-serif" font-size="14" lengthAdjust="spacing" textLength="73" x="599.25" y="861.791">Apartment</text><line style="stroke:#181818;stroke-width:0.5;" x1="526" x2="713" y1="872.5" y2="872.5"/><text fill="#000000" font-family="sans-serif" font-size="14" lengthAdjust="spacing" textLength="147" x="531" y="890.0352">-numberOfBedrooms</text><text fill="#000000" font-family="sans-serif" font-size="14" lengthAdjust="spacing" textLength="152" x="531" y="906.5234">-numberOfBathrooms</text><text fill="#000000" font-family="sans-serif" font-size="14" lengthAdjust="spacing" textLength="149" x="531" y="923.0117">-availableEquipments</text><text fill="#000000" font-family="sans-serif" font-size="14" lengthAdjust="spacing" textLength="177" x="531" y="939.5">-numberOfParkingSpaces</text><line style="stroke:#181818;stroke-width:0.5;" x1="526" x2="713" y1="946.4531" y2="946.4531"/></g><!--class Land--><g id="elem_Land"><rect codeLine="92" fill="#F1F1F1" height="48" id="Land" rx="2.5" ry="2.5" style="stroke:#181818;stroke-width:0.5;" width="65" x="749" y="873.5"/><ellipse cx="764" cy="889.5" fill="#ADD1B2" rx="11" ry="11" style="stroke:#181818;stroke-width:1.0;"/><path d="M766.9731,895.1431 Q766.3921,895.4419 765.7529,895.5913 Q765.1138,895.7407 764.4082,895.7407 Q761.9014,895.7407 760.5815,894.0889 Q759.2617,892.437 759.2617,889.3159 Q759.2617,886.1865 760.5815,884.5347 Q761.9014,882.8828 764.4082,882.8828 Q765.1138,882.8828 765.7612,883.0322 Q766.4087,883.1816 766.9731,883.4805 L766.9731,886.2031 Q766.3423,885.6221 765.7488,885.3523 Q765.1553,885.0825 764.5244,885.0825 Q763.1797,885.0825 762.4949,886.1492 Q761.8101,887.2158 761.8101,889.3159 Q761.8101,891.4077 762.4949,892.4744 Q763.1797,893.541 764.5244,893.541 Q765.1553,893.541 765.7488,893.2712 Q766.3423,893.0015 766.9731,892.4204 Z " fill="#000000"/><text fill="#000000" font-family="sans-serif" font-size="14" lengthAdjust="spacing" textLength="33" x="778" y="894.791">Land</text><line style="stroke:#181818;stroke-width:0.5;" x1="750" x2="813" y1="905.5" y2="905.5"/><line style="stroke:#181818;stroke-width:0.5;" x1="750" x2="813" y1="913.5" y2="913.5"/></g><!--class Agent--><g id="elem_Agent"><rect codeLine="98" fill="#F1F1F1" height="163.418" id="Agent" rx="2.5" ry="2.5" style="stroke:#181818;stroke-width:0.5;" width="449" x="785" y="576"/><ellipse cx="984.75" cy="592" fill="#ADD1B2" rx="11" ry="11" style="stroke:#181818;stroke-width:1.0;"/><path d="M987.7231,597.6431 Q987.1421,597.9419 986.5029,598.0913 Q985.8638,598.2407 985.1582,598.2407 Q982.6514,598.2407 981.3315,596.5889 Q980.0117,594.937 980.0117,591.8159 Q980.0117,588.6865 981.3315,587.0347 Q982.6514,585.3828 985.1582,585.3828 Q985.8638,585.3828 986.5112,585.5322 Q987.1587,585.6816 987.7231,585.9805 L987.7231,588.7031 Q987.0923,588.1221 986.4988,587.8523 Q985.9053,587.5825 985.2744,587.5825 Q983.9297,587.5825 983.2449,588.6492 Q982.5601,589.7158 982.5601,591.8159 Q982.5601,593.9077 983.2449,594.9744 Q983.9297,596.041 985.2744,596.041 Q985.9053,596.041 986.4988,595.7712 Q987.0923,595.5015 987.7231,594.9204 Z " fill="#000000"/><text fill="#000000" font-family="sans-serif" font-size="14" lengthAdjust="spacing" textLength="41" x="1005.25" y="597.291">Agent</text><line style="stroke:#181818;stroke-width:0.5;" x1="786" x2="1233" y1="608" y2="608"/><text fill="#000000" font-family="sans-serif" font-size="14" lengthAdjust="spacing" textLength="86" x="791" y="625.5352">-citizenCard</text><text fill="#000000" font-family="sans-serif" font-size="14" lengthAdjust="spacing" textLength="85" x="791" y="642.0234">-taxNumber</text><text fill="#000000" font-family="sans-serif" font-size="14" lengthAdjust="spacing" textLength="62" x="791" y="658.5117">-address</text><text fill="#000000" font-family="sans-serif" font-size="14" lengthAdjust="spacing" textLength="107" x="791" y="675">-phoneNumber</text><text fill="#000000" font-family="sans-serif" font-size="14" lengthAdjust="spacing" textLength="56" x="791" y="691.4883">-agency</text><text fill="#000000" font-family="sans-serif" font-size="14" lengthAdjust="spacing" textLength="45" x="791" y="707.9766">-email</text><line style="stroke:#181818;stroke-width:0.5;" x1="786" x2="1233" y1="714.9297" y2="714.9297"/><text fill="#000000" font-family="sans-serif" font-size="14" lengthAdjust="spacing" textLength="437" x="791" y="732.4648">+publishAnnouncement(date,Property,commission,agentName)</text></g><!--class NotificationService--><g id="elem_NotificationService"><rect codeLine="107" fill="#F1F1F1" height="80.9766" id="NotificationService" rx="2.5" ry="2.5" style="stroke:#181818;stroke-width:0.5;" width="159" x="17" y="222"/><ellipse cx="32" cy="238" fill="#ADD1B2" rx="11" ry="11" style="stroke:#181818;stroke-width:1.0;"/><path d="M34.9731,243.6431 Q34.3921,243.9419 33.7529,244.0913 Q33.1138,244.2407 32.4082,244.2407 Q29.9014,244.2407 28.5815,242.5889 Q27.2617,240.937 27.2617,237.8159 Q27.2617,234.6865 28.5815,233.0347 Q29.9014,231.3828 32.4082,231.3828 Q33.1138,231.3828 33.7612,231.5322 Q34.4087,231.6816 34.9731,231.9805 L34.9731,234.7031 Q34.3423,234.1221 33.7488,233.8523 Q33.1553,233.5825 32.5244,233.5825 Q31.1797,233.5825 30.4949,234.6492 Q29.8101,235.7158 29.8101,237.8159 Q29.8101,239.9077 30.4949,240.9744 Q31.1797,242.041 32.5244,242.041 Q33.1553,242.041 33.7488,241.7712 Q34.3423,241.5015 34.9731,240.9204 Z " fill="#000000"/><text fill="#000000" font-family="sans-serif" font-size="14" lengthAdjust="spacing" textLength="127" x="46" y="243.291">NotificationService</text><line style="stroke:#181818;stroke-width:0.5;" x1="18" x2="175" y1="254" y2="254"/><line style="stroke:#181818;stroke-width:0.5;" x1="18" x2="175" y1="262" y2="262"/><text fill="#000000" font-family="sans-serif" font-size="14" lengthAdjust="spacing" textLength="145" x="23" y="279.5352">+CreateNotification()</text><text fill="#000000" font-family="sans-serif" font-size="14" lengthAdjust="spacing" textLength="83" x="23" y="296.0234">+SendSMS()</text></g><!--link Repositories to Repositories--><g id="link_Repositories_Repositories"><path codeLine="113" d="M1248.38,53.81 C1268.8,56.23 1283,62.3 1283,72 C1283,80.79 1271.34,86.6 1253.95,89.42 " fill="none" id="Repositories-to-Repositories" style="stroke:#181818;stroke-width:1.0;"/><polygon fill="#181818" points="1249.38,90.19,1258.8443,92.9153,1254.3326,89.5029,1257.745,84.9912,1249.38,90.19" style="stroke:#181818;stroke-width:1.0;"/><text fill="#000000" font-family="sans-serif" font-size="13" lengthAdjust="spacing" textLength="53" x="1289" y="77.0684">instance</text></g><!--link ApplicationSession to ApplicationSession--><g id="link_ApplicationSession_ApplicationSession"><path codeLine="114" d="M373.81,246.44 C393.7,247.63 408.5,252.98 408.5,262.5 C408.5,271.05 396.55,276.24 379.7,278.07 " fill="none" id="ApplicationSession-to-ApplicationSession" style="stroke:#181818;stroke-width:1.0;"/><polygon fill="#181818" points="374.81,278.56,384.1195,281.7745,379.7916,278.1318,383.4344,273.8039,374.81,278.56" style="stroke:#181818;stroke-width:1.0;"/><text fill="#000000" font-family="sans-serif" font-size="13" lengthAdjust="spacing" textLength="53" x="414.5" y="267.5684">instance</text></g><!--link PublishAnnouncementController to Repositories--><g id="link_PublishAnnouncementController_Repositories"><path codeLine="115" d="M903.74,72 C940.95,72 976.91,72 1008.83,72 " fill="none" id="PublishAnnouncementController-to-Repositories" style="stroke:#181818;stroke-width:1.0;stroke-dasharray:7.0,7.0;"/><polygon fill="#181818" points="1013.75,72,1004.75,68,1008.75,72,1004.75,76,1013.75,72" style="stroke:#181818;stroke-width:1.0;"/><text fill="#000000" font-family="sans-serif" font-size="13" lengthAdjust="spacing" textLength="75" x="921.75" y="65.5684">repositories</text></g><!--link Repositories to EmployeeRepository--><g id="link_Repositories_EmployeeRepository"><path codeLine="117" d="M1127.95,129.4 C1123.51,199.78 1116.5,311 1116.5,311 C1116.5,311 1114.09,322.31 1111.34,335.2 " fill="none" id="Repositories-to-EmployeeRepository" style="stroke:#181818;stroke-width:1.0;"/><polygon fill="#181818" points="1110.15,339.79,1115.9359,331.8198,1111.1908,334.8995,1108.1111,330.1545,1110.15,339.79" style="stroke:#181818;stroke-width:1.0;"/><text fill="#000000" font-family="sans-serif" font-size="13" lengthAdjust="spacing" textLength="8" x="1102.6966" y="330.1498">1</text></g><!--link Repositories to CityRepository--><g id="link_Repositories_CityRepository"><path codeLine="118" d="M1105.04,129.48 C1092.2,156.9 1079.5,184 1079.5,184 C1079.5,184 1066.96,205.13 1054.97,225.32 " fill="none" id="Repositories-to-CityRepository" style="stroke:#181818;stroke-width:1.0;"/><polygon fill="#181818" points="1051.94,229.42,1059.9782,223.729,1054.4957,225.1225,1053.1022,219.64,1051.94,229.42" style="stroke:#181818;stroke-width:1.0;"/><text fill="#000000" font-family="sans-serif" font-size="13" lengthAdjust="spacing" textLength="8" x="1046.9183" y="219.8067">1</text></g><!--link EmployeeRepository to Agent--><g id="link_EmployeeRepository_Agent"><path codeLine="121" d="M1093.08,405.31 C1079.93,444.84 1056.78,514.41 1038.17,570.33 " fill="none" id="EmployeeRepository-to-Agent" style="stroke:#181818;stroke-width:1.0;"/><polygon fill="#181818" points="1036.39,574.7,1043.0374,567.4328,1037.9754,569.958,1035.4502,564.8961,1036.39,574.7" style="stroke:#181818;stroke-width:1.0;"/><text fill="#000000" font-family="sans-serif" font-size="13" lengthAdjust="spacing" textLength="37" x="1083.5" y="472.0684">Agent</text><text fill="#000000" font-family="sans-serif" font-size="13" lengthAdjust="spacing" textLength="6" x="1032.5177" y="565.3103">*</text></g><!--link ApplicationSession to UserSession--><g id="link_ApplicationSession_UserSession"><path codeLine="122" d="M292.5,303.02 C292.5,339.52 292.5,393.3 292.5,428.98 " fill="none" id="ApplicationSession-to-UserSession" style="stroke:#181818;stroke-width:1.0;"/><polygon fill="#181818" points="292.5,433.54,296.5,424.54,292.5,428.54,288.5,424.54,292.5,433.54" style="stroke:#181818;stroke-width:1.0;"/><text fill="#000000" font-family="sans-serif" font-size="13" lengthAdjust="spacing" textLength="75" x="293.5" y="378.0684">userSession</text><text fill="#000000" font-family="sans-serif" font-size="13" lengthAdjust="spacing" textLength="8" x="283.7125" y="424.2237">1</text></g><!--link PublishAnnouncementController to Agent--><g id="link_PublishAnnouncementController_Agent"><path codeLine="124" d="M727.62,137.39 C767.02,153.85 798.5,167 798.5,167 C798.5,167 911.8,429.83 972.35,570.31 " fill="none" id="PublishAnnouncementController-to-Agent" style="stroke:#181818;stroke-width:1.0;stroke-dasharray:7.0,7.0;"/><polygon fill="#181818" points="974.66,574.67,974.7655,564.8217,972.6784,570.0795,967.4206,567.9923,974.66,574.67" style="stroke:#181818;stroke-width:1.0;"/><text fill="#000000" font-family="sans-serif" font-size="13" lengthAdjust="spacing" textLength="37" x="899.5" y="378.0684">Agent</text><text fill="#000000" font-family="sans-serif" font-size="13" lengthAdjust="spacing" textLength="8" x="963.2008" y="565.2776">1</text></g><!--link PublishAnnouncementController to ApplicationSession--><g id="link_PublishAnnouncementController_ApplicationSession"><path codeLine="125" d="M477.58,137.34 C437.72,164.09 392.51,194.41 356.75,218.4 " fill="none" id="PublishAnnouncementController-to-ApplicationSession" style="stroke:#181818;stroke-width:1.0;stroke-dasharray:7.0,7.0;"/><polygon fill="#181818" points="352.99,221.59,362.6933,219.9028,357.1437,218.8066,358.2399,213.257,352.99,221.59" style="stroke:#181818;stroke-width:1.0;"/></g><!--link PublishAnnouncementController to UserSession--><g id="link_PublishAnnouncementController_UserSession"><path codeLine="126" d="M546.44,137.41 C516.82,207.89 473.5,311 473.5,311 C473.5,311 377.5,405 377.5,405 C377.5,405 359.7,417.77 340.4,431.63 " fill="none" id="PublishAnnouncementController-to-UserSession" style="stroke:#181818;stroke-width:1.0;stroke-dasharray:7.0,7.0;"/><polygon fill="#181818" points="337,434.79,346.6433,432.7881,341.0609,431.873,341.9761,426.2907,337,434.79" style="stroke:#181818;stroke-width:1.0;"/></g><!--link PublishAnnouncementUI to PublishAnnouncementController--><g id="link_PublishAnnouncementUI_PublishAnnouncementController"><path codeLine="128" d="M208.07,72 C218.87,72 229.03,72 237.59,72 " fill="none" id="PublishAnnouncementUI-to-PublishAnnouncementController" style="stroke:#181818;stroke-width:1.0;stroke-dasharray:7.0,7.0;"/><polygon fill="#181818" points="242.25,72,233.25,68,237.25,72,233.25,76,242.25,72" style="stroke:#181818;stroke-width:1.0;"/></g><!--link PublishAnnouncementController to AnnouncementRepository--><g id="link_PublishAnnouncementController_AnnouncementRepository"><path codeLine="131" d="M605.59,137.34 C617.11,160.45 629.96,186.23 640.96,208.28 " fill="none" id="PublishAnnouncementController-to-AnnouncementRepository" style="stroke:#181818;stroke-width:1.0;stroke-dasharray:7.0,7.0;"/><polygon fill="#181818" points="643.57,212.51,643.1354,202.6707,641.3397,208.035,635.9754,206.2393,643.57,212.51" style="stroke:#181818;stroke-width:1.0;"/><text fill="#000000" font-family="sans-serif" font-size="13" lengthAdjust="spacing" textLength="162" x="627.5" y="180.5684">AnnouncementRepository</text></g><!--link PublishAnnouncementController to CityRepository--><g id="link_PublishAnnouncementController_CityRepository"><path codeLine="133" d="M823.76,137.45 C887.57,153.88 938.5,167 938.5,167 C938.5,167 970.96,199.29 997.93,226.12 " fill="none" id="PublishAnnouncementController-to-CityRepository" style="stroke:#181818;stroke-width:1.0;stroke-dasharray:7.0,7.0;"/><polygon fill="#181818" points="1000.87,229.03,997.3159,219.8448,997.3273,225.5016,991.6705,225.513,1000.87,229.03" style="stroke:#181818;stroke-width:1.0;"/><text fill="#000000" font-family="sans-serif" font-size="13" lengthAdjust="spacing" textLength="92" x="954.5" y="180.5684">CityRepository</text></g><!--link AnnouncementRepository to Announcement--><g id="link_AnnouncementRepository_Announcement"><path codeLine="135" d="M660.63,311.49 C655.47,347.53 648.5,396.16 643.77,429.17 " fill="none" id="AnnouncementRepository-to-Announcement" style="stroke:#181818;stroke-width:1.0;"/><polygon fill="#181818" points="642.98,433.74,648.2227,425.4025,643.6931,428.7911,640.3045,424.2615,642.98,433.74" style="stroke:#181818;stroke-width:1.0;"/><text fill="#000000" font-family="sans-serif" font-size="13" lengthAdjust="spacing" textLength="6" x="637.2853" y="424.0895">*</text></g><!--link Announcement to Property--><g id="link_Announcement_Property"><path codeLine="137" d="M635.36,499.13 C633.4,518.57 630.77,544.65 628.22,569.97 " fill="none" id="Announcement-to-Property" style="stroke:#181818;stroke-width:1.0;"/><polygon fill="#181818" points="627.64,574.7,632.5424,566.1579,628.153,569.7264,624.5846,565.3371,627.64,574.7" style="stroke:#181818;stroke-width:1.0;"/><text fill="#000000" font-family="sans-serif" font-size="13" lengthAdjust="spacing" textLength="53" x="633.5" y="542.5684">property</text><text fill="#000000" font-family="sans-serif" font-size="13" lengthAdjust="spacing" textLength="8" x="625.8874" y="519.8537">1</text><text fill="#000000" font-family="sans-serif" font-size="13" lengthAdjust="spacing" textLength="8" x="620.0087" y="565.3103">1</text></g><!--link Property to House--><g id="link_Property_House"><path codeLine="139" d="M543.35,739.41 C521.5,762.62 497.62,788 475.54,811.46 " fill="none" id="Property-to-House" style="stroke:#181818;stroke-width:1.0;"/><polygon fill="#181818" points="472.44,814.82,481.5131,810.9887,475.8592,811.1719,475.6761,805.518,472.44,814.82" style="stroke:#181818;stroke-width:1.0;"/><text fill="#000000" font-family="sans-serif" font-size="13" lengthAdjust="spacing" textLength="38" x="515.5" y="782.5684">house</text><text fill="#000000" font-family="sans-serif" font-size="13" lengthAdjust="spacing" textLength="8" x="528.2116" y="759.9367">1</text><text fill="#000000" font-family="sans-serif" font-size="13" lengthAdjust="spacing" textLength="8" x="470.072" y="805.1621">1</text></g><!--link Property to Apartment--><g id="link_Property_Apartment"><path codeLine="140" d="M619.5,739.41 C619.5,770.49 619.5,805.44 619.5,834.47 " fill="none" id="Property-to-Apartment" style="stroke:#181818;stroke-width:1.0;"/><polygon fill="#181818" points="619.5,839.2,623.5,830.2,619.5,834.2,615.5,830.2,619.5,839.2" style="stroke:#181818;stroke-width:1.0;"/><text fill="#000000" font-family="sans-serif" font-size="13" lengthAdjust="spacing" textLength="64" x="620.5" y="782.5684">apartment</text><text fill="#000000" font-family="sans-serif" font-size="13" lengthAdjust="spacing" textLength="8" x="611.1438" y="759.9367">1</text><text fill="#000000" font-family="sans-serif" font-size="13" lengthAdjust="spacing" textLength="8" x="611.0125" y="829.8926">1</text></g><!--link Property to Land--><g id="link_Property_Land"><path codeLine="141" d="M676.81,739.1 C704.37,777.85 731.5,816 731.5,816 C731.5,816 749.6,845.15 764.02,868.36 " fill="none" id="Property-to-Land" style="stroke:#181818;stroke-width:1.0;"/><polygon fill="#181818" points="767.04,872.22,765.7152,862.4607,764.4131,867.9656,758.9082,866.6636,767.04,872.22" style="stroke:#181818;stroke-width:1.0;"/><text fill="#000000" font-family="sans-serif" font-size="13" lengthAdjust="spacing" textLength="27" x="711.5" y="782.5684">land</text><text fill="#000000" font-family="sans-serif" font-size="13" lengthAdjust="spacing" textLength="8" x="673.7245" y="759.8773">1</text><text fill="#000000" font-family="sans-serif" font-size="13" lengthAdjust="spacing" textLength="8" x="754.3096" y="862.6845">1</text></g><!--link PublishAnnouncementController to NotificationService--><g id="link_PublishAnnouncementController_NotificationService"><path codeLine="142" d="M378.97,137.39 C329.23,153.85 289.5,167 289.5,167 C289.5,167 193.5,214 193.5,214 C193.5,214 188.67,216.37 181.16,220.04 " fill="none" id="PublishAnnouncementController-to-NotificationService" style="stroke:#181818;stroke-width:1.0;"/><polygon fill="#181818" points="177.16,222.49,187.0018,222.1183,181.6492,220.2883,183.4791,214.9356,177.16,222.49" style="stroke:#181818;stroke-width:1.0;"/><text fill="#000000" font-family="sans-serif" font-size="13" lengthAdjust="spacing" textLength="117" x="290.5" y="180.5684">notificationService</text></g><!--link Announcement to Agent--><g id="link_Announcement_Agent"><path codeLine="144" d="M700.18,499.34 C739.92,519.53 793.62,546.81 845.11,572.98 " fill="none" id="Announcement-to-Agent" style="stroke:#181818;stroke-width:1.0;"/><polygon fill="#181818" points="849.41,575.67,843.188,568.0354,844.9494,573.4111,839.5737,575.1725,849.41,575.67" style="stroke:#181818;stroke-width:1.0;"/><text fill="#000000" font-family="sans-serif" font-size="13" lengthAdjust="spacing" textLength="76" x="791.5" y="542.5684">publishedBy</text></g><!--SRC=[jLLDRzim3BtxLmYzDDkIOhlwCA39CYn0Fu9wEGUApSH2PScJvBPUiVy-olA7x7X9UrWFZKq-Fb8azNof7vd8gQ8PoQIGSQfa1iIe0eBEazFuaHuWCYK7eY0sL1ou3z0fJUGp4mUofrpx7iu4c387aajUsfVWSiGfbP615nLpglMrCOhj2WEhM8g8_GRoEGWkEUmDCP8eTaWDIPWjXqaH15KCMHSxpdHwBOGiH0mP2BDPlGP_JlWNKXWbEGT5NWE2VvzEeoO9DJ1TAvc3CkKqbbd6jCOQfjWZOUve1XzgdbW1OdsQTmVVISFsBARsa1FvB41Pp9HKZ-jK2hWhiXsewUhRjE9kUToJ1t74Ct80iynoBak0xpZk2Ae29fvxmKnvmxH1MzUwwppdTI5rID3qIniqnpPo9V0PppffJc7P2gMmaYvFIxdHe8PS663DzWJpSfbHnbr4q0GzG2urCr8nqFN4PZsZdxkhXuGzK0VnnzCYoeR4QrRFsRLbDForZUvDloPzefmbmyseVJH91kOsbHtBM0flN6X1l8CVr-rLDTYD_gIz_CrOthd4qse_VT86RWbdF_7Mt-_dXKO5G5__rGBsN593DDvw-wPH2L1Sk7Jhrm4IviQxtUCYRqqAsnXxiOsn2b0M5hd8F9L67XJDKuyzLookw9amH5HjkD_VuZrFzGCI16qZVyX2Gxrf3MuEYP8oqmChDQbdfa-uldJ7OVchOBbjtG2_fWf5xn2XmjOhETE5MBxWm0e5pW0lU4Z0GrfwNGt0EPX8wOuPotyZzwPtLQaotVJ-Qz5jqXigajVUJQsMhBcYE1YSfbXGbJY3eIzkz-gqIQBSyF4bxpQpzY9LNDODiQBWrZ8_5ketAMmpMLzT8r1Fk11LkOvzSQp0zIMDG2JHRUGkPq-GPb_x0XKILajGS2oW5ZrYzM9EVw-kZf8fN-86bM6oYoyN8x8mZkkh3GxrED1XFrwuIOVkP_ISDQSd-5XiuSd_kPDUEGAtKascyp4Z7wtpGPipTMrMjlCdUOAt76Zyqs5FD-fu2sL_Q4WrdE8_ShQ3zDnzSDN-PexDzGfHHDqJ5bS_zO2LT8OajJ_ZY5QhGaARnt6a5PYGSFn_fX4sOEHcXqGS6mU7jA7DZjNY0icy_0i0]--></g></svg>