<?xml version="1.0" encoding="us-ascii" standalone="no"?><svg xmlns="http://www.w3.org/2000/svg" xmlns:xlink="http://www.w3.org/1999/xlink" contentStyleType="text/css" height="749px" preserveAspectRatio="none" style="width:505px;height:749px;background:#FFFFFF;" version="1.1" viewBox="0 0 505 749" width="505px" zoomAndPan="magnify"><defs/><g><rect fill="#FFFFFF" height="555.2383" style="stroke:#181818;stroke-width:1.0;" width="10" x="59" y="93.6211"/><rect fill="#FFFFFF" height="31.291" style="stroke:#181818;stroke-width:1.0;" width="10" x="459" y="116.9121"/><rect fill="#FFFFFF" height="31.291" style="stroke:#181818;stroke-width:1.0;" width="10" x="459" y="179.4941"/><rect fill="#FFFFFF" height="31.291" style="stroke:#181818;stroke-width:1.0;" width="10" x="459" y="242.0762"/><rect fill="#FFFFFF" height="31.291" style="stroke:#181818;stroke-width:1.0;" width="10" x="459" y="304.6582"/><rect fill="#FFFFFF" height="31.291" style="stroke:#181818;stroke-width:1.0;" width="10" x="459" y="367.2402"/><rect fill="#FFFFFF" height="31.291" style="stroke:#181818;stroke-width:1.0;" width="10" x="459" y="429.8223"/><rect fill="#FFFFFF" height="31.291" style="stroke:#181818;stroke-width:1.0;" width="10" x="459" y="492.4043"/><rect fill="#FFFFFF" height="31.291" style="stroke:#181818;stroke-width:1.0;" width="10" x="459" y="554.9863"/><rect fill="#FFFFFF" height="31.291" style="stroke:#181818;stroke-width:1.0;" width="10" x="459" y="617.5684"/><line style="stroke:#181818;stroke-width:0.5;stroke-dasharray:5.0,5.0;" x1="64" x2="64" y1="83.6211" y2="666.8594"/><line style="stroke:#181818;stroke-width:0.5;stroke-dasharray:5.0,5.0;" x1="464" x2="464" y1="83.6211" y2="666.8594"/><text fill="#000000" font-family="sans-serif" font-size="14" lengthAdjust="spacing" textLength="112" x="5" y="80.1074">ADMINISTRATOR</text><ellipse cx="64" cy="13.5" fill="#E2E2F0" rx="8" ry="8" style="stroke:#181818;stroke-width:0.5;"/><path d="M64,21.5 L64,48.5 M51,29.5 L77,29.5 M64,48.5 L51,63.5 M64,48.5 L77,63.5 " fill="none" style="stroke:#181818;stroke-width:0.5;"/><text fill="#000000" font-family="sans-serif" font-size="14" lengthAdjust="spacing" textLength="112" x="5" y="680.9668">ADMINISTRATOR</text><ellipse cx="64" cy="692.9805" fill="#E2E2F0" rx="8" ry="8" style="stroke:#181818;stroke-width:0.5;"/><path d="M64,700.9805 L64,727.9805 M51,708.9805 L77,708.9805 M64,727.9805 L51,742.9805 M64,727.9805 L77,742.9805 " fill="none" style="stroke:#181818;stroke-width:0.5;"/><rect fill="#E2E2F0" height="32.6211" rx="2.5" ry="2.5" style="stroke:#181818;stroke-width:0.5;" width="70" x="429" y="50"/><text fill="#000000" font-family="sans-serif" font-size="14" lengthAdjust="spacing" textLength="56" x="436" y="72.1074">SYSTEM</text><rect fill="#E2E2F0" height="32.6211" rx="2.5" ry="2.5" style="stroke:#181818;stroke-width:0.5;" width="70" x="429" y="665.8594"/><text fill="#000000" font-family="sans-serif" font-size="14" lengthAdjust="spacing" textLength="56" x="436" y="687.9668">SYSTEM</text><rect fill="#FFFFFF" height="555.2383" style="stroke:#181818;stroke-width:1.0;" width="10" x="59" y="93.6211"/><rect fill="#FFFFFF" height="31.291" style="stroke:#181818;stroke-width:1.0;" width="10" x="459" y="116.9121"/><rect fill="#FFFFFF" height="31.291" style="stroke:#181818;stroke-width:1.0;" width="10" x="459" y="179.4941"/><rect fill="#FFFFFF" height="31.291" style="stroke:#181818;stroke-width:1.0;" width="10" x="459" y="242.0762"/><rect fill="#FFFFFF" height="31.291" style="stroke:#181818;stroke-width:1.0;" width="10" x="459" y="304.6582"/><rect fill="#FFFFFF" height="31.291" style="stroke:#181818;stroke-width:1.0;" width="10" x="459" y="367.2402"/><rect fill="#FFFFFF" height="31.291" style="stroke:#181818;stroke-width:1.0;" width="10" x="459" y="429.8223"/><rect fill="#FFFFFF" height="31.291" style="stroke:#181818;stroke-width:1.0;" width="10" x="459" y="492.4043"/><rect fill="#FFFFFF" height="31.291" style="stroke:#181818;stroke-width:1.0;" width="10" x="459" y="554.9863"/><rect fill="#FFFFFF" height="31.291" style="stroke:#181818;stroke-width:1.0;" width="10" x="459" y="617.5684"/><polygon fill="#181818" points="447,112.9121,457,116.9121,447,120.9121,451,116.9121" style="stroke:#181818;stroke-width:1.0;"/><line style="stroke:#181818;stroke-width:1.0;" x1="69" x2="453" y1="116.9121" y2="116.9121"/><text fill="#000000" font-family="sans-serif" font-size="13" font-weight="bold" lengthAdjust="spacing" textLength="7" x="76" y="111.6494">1</text><text fill="#000000" font-family="sans-serif" font-size="13" lengthAdjust="spacing" textLength="195" x="87" y="111.6494">starts registering a new employee</text><polygon fill="#181818" points="80,144.2031,70,148.2031,80,152.2031,76,148.2031" style="stroke:#181818;stroke-width:1.0;"/><line style="stroke:#181818;stroke-width:1.0;" x1="74" x2="463" y1="148.2031" y2="148.2031"/><text fill="#000000" font-family="sans-serif" font-size="13" font-weight="bold" lengthAdjust="spacing" textLength="7" x="86" y="142.9404">2</text><text fill="#000000" font-family="sans-serif" font-size="13" lengthAdjust="spacing" textLength="146" x="97" y="142.9404">requests employee name</text><polygon fill="#181818" points="447,175.4941,457,179.4941,447,183.4941,451,179.4941" style="stroke:#181818;stroke-width:1.0;"/><line style="stroke:#181818;stroke-width:1.0;" x1="69" x2="453" y1="179.4941" y2="179.4941"/><text fill="#000000" font-family="sans-serif" font-size="13" font-weight="bold" lengthAdjust="spacing" textLength="7" x="76" y="174.2314">3</text><text fill="#000000" font-family="sans-serif" font-size="13" lengthAdjust="spacing" textLength="128" x="87" y="174.2314">types employee name</text><polygon fill="#181818" points="80,206.7852,70,210.7852,80,214.7852,76,210.7852" style="stroke:#181818;stroke-width:1.0;"/><line style="stroke:#181818;stroke-width:1.0;" x1="74" x2="463" y1="210.7852" y2="210.7852"/><text fill="#000000" font-family="sans-serif" font-size="13" font-weight="bold" lengthAdjust="spacing" textLength="7" x="86" y="205.5225">4</text><text fill="#000000" font-family="sans-serif" font-size="13" lengthAdjust="spacing" textLength="237" x="97" y="205.5225">requests employee citizen's card number</text><polygon fill="#181818" points="447,238.0762,457,242.0762,447,246.0762,451,242.0762" style="stroke:#181818;stroke-width:1.0;"/><line style="stroke:#181818;stroke-width:1.0;" x1="69" x2="453" y1="242.0762" y2="242.0762"/><text fill="#000000" font-family="sans-serif" font-size="13" font-weight="bold" lengthAdjust="spacing" textLength="7" x="76" y="236.8135">5</text><text fill="#000000" font-family="sans-serif" font-size="13" lengthAdjust="spacing" textLength="159" x="87" y="236.8135">types citizen's card number</text><polygon fill="#181818" points="80,269.3672,70,273.3672,80,277.3672,76,273.3672" style="stroke:#181818;stroke-width:1.0;"/><line style="stroke:#181818;stroke-width:1.0;" x1="74" x2="463" y1="273.3672" y2="273.3672"/><text fill="#000000" font-family="sans-serif" font-size="13" font-weight="bold" lengthAdjust="spacing" textLength="7" x="86" y="268.1045">6</text><text fill="#000000" font-family="sans-serif" font-size="13" lengthAdjust="spacing" textLength="179" x="97" y="268.1045">requests employee tax number</text><polygon fill="#181818" points="447,300.6582,457,304.6582,447,308.6582,451,304.6582" style="stroke:#181818;stroke-width:1.0;"/><line style="stroke:#181818;stroke-width:1.0;" x1="69" x2="453" y1="304.6582" y2="304.6582"/><text fill="#000000" font-family="sans-serif" font-size="13" font-weight="bold" lengthAdjust="spacing" textLength="7" x="76" y="299.3955">7</text><text fill="#000000" font-family="sans-serif" font-size="13" lengthAdjust="spacing" textLength="101" x="87" y="299.3955">types tax number</text><polygon fill="#181818" points="80,331.9492,70,335.9492,80,339.9492,76,335.9492" style="stroke:#181818;stroke-width:1.0;"/><line style="stroke:#181818;stroke-width:1.0;" x1="74" x2="463" y1="335.9492" y2="335.9492"/><text fill="#000000" font-family="sans-serif" font-size="13" font-weight="bold" lengthAdjust="spacing" textLength="7" x="86" y="330.6865">8</text><text fill="#000000" font-family="sans-serif" font-size="13" lengthAdjust="spacing" textLength="199" x="97" y="330.6865">requests employee e-mail address</text><polygon fill="#181818" points="447,363.2402,457,367.2402,447,371.2402,451,367.2402" style="stroke:#181818;stroke-width:1.0;"/><line style="stroke:#181818;stroke-width:1.0;" x1="69" x2="453" y1="367.2402" y2="367.2402"/><text fill="#000000" font-family="sans-serif" font-size="13" font-weight="bold" lengthAdjust="spacing" textLength="7" x="76" y="361.9775">9</text><text fill="#000000" font-family="sans-serif" font-size="13" lengthAdjust="spacing" textLength="121" x="87" y="361.9775">types e-mail address</text><polygon fill="#181818" points="80,394.5313,70,398.5313,80,402.5313,76,398.5313" style="stroke:#181818;stroke-width:1.0;"/><line style="stroke:#181818;stroke-width:1.0;" x1="74" x2="463" y1="398.5313" y2="398.5313"/><text fill="#000000" font-family="sans-serif" font-size="13" font-weight="bold" lengthAdjust="spacing" textLength="14" x="86" y="393.2686">10</text><text fill="#000000" font-family="sans-serif" font-size="13" lengthAdjust="spacing" textLength="217" x="104" y="393.2686">requests employee telephone number</text><polygon fill="#181818" points="447,425.8223,457,429.8223,447,433.8223,451,429.8223" style="stroke:#181818;stroke-width:1.0;"/><line style="stroke:#181818;stroke-width:1.0;" x1="69" x2="453" y1="429.8223" y2="429.8223"/><text fill="#000000" font-family="sans-serif" font-size="13" font-weight="bold" lengthAdjust="spacing" textLength="14" x="76" y="424.5596">11</text><text fill="#000000" font-family="sans-serif" font-size="13" lengthAdjust="spacing" textLength="139" x="94" y="424.5596">types telephone number</text><polygon fill="#181818" points="80,457.1133,70,461.1133,80,465.1133,76,461.1133" style="stroke:#181818;stroke-width:1.0;"/><line style="stroke:#181818;stroke-width:1.0;" x1="74" x2="463" y1="461.1133" y2="461.1133"/><text fill="#000000" font-family="sans-serif" font-size="13" font-weight="bold" lengthAdjust="spacing" textLength="14" x="86" y="455.8506">12</text><text fill="#000000" font-family="sans-serif" font-size="13" lengthAdjust="spacing" textLength="324" x="104" y="455.8506">shows a list of roles and requests the user to select one</text><polygon fill="#181818" points="447,488.4043,457,492.4043,447,496.4043,451,492.4043" style="stroke:#181818;stroke-width:1.0;"/><line style="stroke:#181818;stroke-width:1.0;" x1="69" x2="453" y1="492.4043" y2="492.4043"/><text fill="#000000" font-family="sans-serif" font-size="13" font-weight="bold" lengthAdjust="spacing" textLength="14" x="76" y="487.1416">13</text><text fill="#000000" font-family="sans-serif" font-size="13" lengthAdjust="spacing" textLength="127" x="94" y="487.1416">choose employee role</text><polygon fill="#181818" points="80,519.6953,70,523.6953,80,527.6953,76,523.6953" style="stroke:#181818;stroke-width:1.0;"/><line style="stroke:#181818;stroke-width:1.0;" x1="74" x2="463" y1="523.6953" y2="523.6953"/><text fill="#000000" font-family="sans-serif" font-size="13" font-weight="bold" lengthAdjust="spacing" textLength="14" x="86" y="518.4326">14</text><text fill="#000000" font-family="sans-serif" font-size="13" lengthAdjust="spacing" textLength="348" x="104" y="518.4326">shows a list of agencies and requests the user to select one</text><polygon fill="#181818" points="447,550.9863,457,554.9863,447,558.9863,451,554.9863" style="stroke:#181818;stroke-width:1.0;"/><line style="stroke:#181818;stroke-width:1.0;" x1="69" x2="453" y1="554.9863" y2="554.9863"/><text fill="#000000" font-family="sans-serif" font-size="13" font-weight="bold" lengthAdjust="spacing" textLength="14" x="76" y="549.7236">15</text><text fill="#000000" font-family="sans-serif" font-size="13" lengthAdjust="spacing" textLength="148" x="94" y="549.7236">choose employee agency</text><polygon fill="#181818" points="80,582.2773,70,586.2773,80,590.2773,76,586.2773" style="stroke:#181818;stroke-width:1.0;"/><line style="stroke:#181818;stroke-width:1.0;" x1="74" x2="463" y1="586.2773" y2="586.2773"/><text fill="#000000" font-family="sans-serif" font-size="13" font-weight="bold" lengthAdjust="spacing" textLength="14" x="86" y="581.0146">16</text><text fill="#000000" font-family="sans-serif" font-size="13" lengthAdjust="spacing" textLength="319" x="104" y="581.0146">shows the data for the employee and asks confirmation</text><polygon fill="#181818" points="447,613.5684,457,617.5684,447,621.5684,451,617.5684" style="stroke:#181818;stroke-width:1.0;"/><line style="stroke:#181818;stroke-width:1.0;" x1="69" x2="453" y1="617.5684" y2="617.5684"/><text fill="#000000" font-family="sans-serif" font-size="13" font-weight="bold" lengthAdjust="spacing" textLength="14" x="76" y="612.3057">17</text><text fill="#000000" font-family="sans-serif" font-size="13" lengthAdjust="spacing" textLength="100" x="94" y="612.3057">confirms the data</text><polygon fill="#181818" points="75,644.8594,65,648.8594,75,652.8594,71,648.8594" style="stroke:#181818;stroke-width:1.0;"/><line style="stroke:#181818;stroke-width:1.0;" x1="69" x2="463" y1="648.8594" y2="648.8594"/><text fill="#000000" font-family="sans-serif" font-size="13" font-weight="bold" lengthAdjust="spacing" textLength="14" x="81" y="643.5967">18</text><text fill="#000000" font-family="sans-serif" font-size="13" lengthAdjust="spacing" textLength="145" x="99" y="643.5967">informs operation sucess</text><!--SRC=[hPJ1JiD034Jl-GhVEFK744Ag18SU2XBjXQFPk8r5iWvhXrA-7YTGfRHgkqXSeaIPDpDEd60mIJ2zcyyUPelbqtJv-0IeW6LJj9YC0xSO3HRFY-NzlB_JSL5WPnAxveMIdmVZTpGQaC8FCBbrqJMeEQ-GQCrgb3Yk0I7I1gXfQzaIxR63gQCtam5DzDQHEhoJGiJ6zIKT4JzXjctfI9vl7zZua-ALGi1KmcwsItadiFnSmu_ii7rjVW9D6kJQNqwPI3NZ4Hxe_p0BrTHM4Yb_eYFYL9fMil6bXDfN2MG5IMhdCPPZ3wkSKafW0kh6mONnxCw4IaHf7A0tpQ-0Qug1_x_5uBkzrAFFAT4GLlxrzXSZxtLGNtqb9QuuDMWiyMo1RzteUJgReyUvKbfAWoze5mxNglyF_4xx0W00]--></g></svg>