<?xml version="1.0" encoding="UTF-8" standalone="no"?><svg xmlns="http://www.w3.org/2000/svg" xmlns:xlink="http://www.w3.org/1999/xlink" contentStyleType="text/css" height="339px" preserveAspectRatio="none" style="width:482px;height:339px;background:#FFFFFF;" version="1.1" viewBox="0 0 482 339" width="482px" zoomAndPan="magnify"><defs/><g><!--class Employee--><g id="elem_Employee"><rect codeLine="19" fill="#F1F1F1" height="111.1055" id="Employee" rx="2.5" ry="2.5" style="stroke:#181818;stroke-width:0.5;" width="68" x="7" y="221"/><text fill="#000000" font-family="sans-serif" font-size="14" lengthAdjust="spacing" textLength="62" x="10" y="241.1074">Employee</text><line style="stroke:#181818;stroke-width:0.5;" x1="8" x2="74" y1="249.6211" y2="249.6211"/><text fill="#000000" font-family="sans-serif" font-size="14" lengthAdjust="spacing" textLength="35" x="13" y="268.7285">name</text><text fill="#000000" font-family="sans-serif" font-size="14" lengthAdjust="spacing" textLength="33" x="13" y="287.3496">email</text><text fill="#000000" font-family="sans-serif" font-size="14" lengthAdjust="spacing" textLength="49" x="13" y="305.9707">position</text><text fill="#000000" font-family="sans-serif" font-size="14" lengthAdjust="spacing" textLength="40" x="13" y="324.5918">phone</text></g><!--class House--><g id="elem_House"><rect fill="#F1F1F1" height="36.6211" id="House" rx="2.5" ry="2.5" style="stroke:#181818;stroke-width:0.5;" width="46" x="206" y="7"/><text fill="#000000" font-family="sans-serif" font-size="14" lengthAdjust="spacing" textLength="40" x="209" y="27.1074">House</text><line style="stroke:#181818;stroke-width:0.5;" x1="207" x2="251" y1="35.6211" y2="35.6211"/></g><!--class Property--><g id="elem_Property"><rect fill="#F1F1F1" height="36.6211" id="Property" rx="2.5" ry="2.5" style="stroke:#181818;stroke-width:0.5;" width="60" x="293" y="105"/><text fill="#000000" font-family="sans-serif" font-size="14" lengthAdjust="spacing" textLength="54" x="296" y="125.1074">Property</text><line style="stroke:#181818;stroke-width:0.5;" x1="294" x2="352" y1="133.6211" y2="133.6211"/></g><!--class Apartment--><g id="elem_Apartment"><rect fill="#F1F1F1" height="36.6211" id="Apartment" rx="2.5" ry="2.5" style="stroke:#181818;stroke-width:0.5;" width="71" x="287.5" y="7"/><text fill="#000000" font-family="sans-serif" font-size="14" lengthAdjust="spacing" textLength="65" x="290.5" y="27.1074">Apartment</text><line style="stroke:#181818;stroke-width:0.5;" x1="288.5" x2="357.5" y1="35.6211" y2="35.6211"/></g><!--class Land--><g id="elem_Land"><rect fill="#F1F1F1" height="36.6211" id="Land" rx="2.5" ry="2.5" style="stroke:#181818;stroke-width:0.5;" width="38" x="394" y="7"/><text fill="#000000" font-family="sans-serif" font-size="14" lengthAdjust="spacing" textLength="32" x="397" y="27.1074">Land</text><line style="stroke:#181818;stroke-width:0.5;" x1="395" x2="431" y1="35.6211" y2="35.6211"/></g><!--class Listing--><g id="elem_Listing"><rect fill="#F1F1F1" height="36.6211" id="Listing" rx="2.5" ry="2.5" style="stroke:#181818;stroke-width:0.5;" width="47" x="237.5" y="258"/><text fill="#000000" font-family="sans-serif" font-size="14" lengthAdjust="spacing" textLength="41" x="240.5" y="278.1074">Listing</text><line style="stroke:#181818;stroke-width:0.5;" x1="238.5" x2="283.5" y1="286.6211" y2="286.6211"/></g><!--class Agent--><g id="elem_Agent"><rect fill="#F1F1F1" height="36.6211" id="Agent" rx="2.5" ry="2.5" style="stroke:#181818;stroke-width:0.5;" width="43" x="47.5" y="105"/><text fill="#000000" font-family="sans-serif" font-size="14" lengthAdjust="spacing" textLength="37" x="50.5" y="125.1074">Agent</text><line style="stroke:#181818;stroke-width:0.5;" x1="48.5" x2="89.5" y1="133.6211" y2="133.6211"/></g><!--class Client--><g id="elem_Client"><rect fill="#F1F1F1" height="36.6211" id="Client" rx="2.5" ry="2.5" style="stroke:#181818;stroke-width:0.5;" width="42" x="433" y="105"/><text fill="#000000" font-family="sans-serif" font-size="14" lengthAdjust="spacing" textLength="36" x="436" y="125.1074">Client</text><line style="stroke:#181818;stroke-width:0.5;" x1="434" x2="474" y1="133.6211" y2="133.6211"/></g><!--class Unregistered User--><g id="elem_Unregistered User"><rect fill="#F1F1F1" height="36.6211" id="Unregistered User" rx="2.5" ry="2.5" style="stroke:#181818;stroke-width:0.5;" width="120" x="138" y="105"/><text fill="#000000" font-family="sans-serif" font-size="14" lengthAdjust="spacing" textLength="114" x="141" y="125.1074">Unregistered User</text><line style="stroke:#181818;stroke-width:0.5;" x1="139" x2="257" y1="133.6211" y2="133.6211"/></g><!--link House to Property--><g id="link_House_Property"><path codeLine="66" d="M246.24,44.11 C258.88,57.02 276.4,74.91 291.51,90.34 " fill="none" id="House-to-Property" style="stroke:#181818;stroke-width:1.0;"/><polygon fill="none" points="296.56,85.49,305.55,104.68,286.56,95.29,296.56,85.49" style="stroke:#181818;stroke-width:1.0;"/><text fill="#000000" font-family="sans-serif" font-size="13" lengthAdjust="spacing" textLength="7" x="242.9326" y="65.5142">1</text><text fill="#000000" font-family="sans-serif" font-size="13" lengthAdjust="spacing" textLength="7" x="292.3959" y="93.7815">1</text></g><!--link Apartment to Property--><g id="link_Apartment_Property"><path codeLine="67" d="M323,44.11 C323,55.4 323,70.52 323,84.45 " fill="none" id="Apartment-to-Property" style="stroke:#181818;stroke-width:1.0;"/><polygon fill="none" points="330,84.68,323,104.68,316,84.68,330,84.68" style="stroke:#181818;stroke-width:1.0;"/><text fill="#000000" font-family="sans-serif" font-size="13" lengthAdjust="spacing" textLength="7" x="315.0594" y="65.5142">1</text><text fill="#000000" font-family="sans-serif" font-size="13" lengthAdjust="spacing" textLength="7" x="314.9719" y="93.7815">1</text></g><!--link Land to Property--><g id="link_Land_Property"><path codeLine="68" d="M396.49,44.11 C384.52,56.88 367.96,74.54 353.6,89.86 " fill="none" id="Land-to-Property" style="stroke:#181818;stroke-width:1.0;"/><polygon fill="none" points="358.49,94.88,339.71,104.68,348.28,85.3,358.49,94.88" style="stroke:#181818;stroke-width:1.0;"/><text fill="#000000" font-family="sans-serif" font-size="13" lengthAdjust="spacing" textLength="7" x="384.1123" y="65.5142">1</text><text fill="#000000" font-family="sans-serif" font-size="13" lengthAdjust="spacing" textLength="7" x="336.5904" y="93.7815">1</text></g><!--link Listing to Property--><g id="link_Listing_Property"><path codeLine="69" d="M268.19,258 C280.1,228.97 303.82,171.21 315.77,142.12 " fill="none" id="Listing-Property" style="stroke:#181818;stroke-width:1.0;"/><polygon fill="#000000" points="309.8991,177.0202,303.7449,184.2712,309.1822,186.5037,309.8991,177.0202" style="stroke:#000000;stroke-width:1.0;"/><text fill="#000000" font-family="sans-serif" font-size="13" lengthAdjust="spacing" textLength="48" x="317" y="187.0283">includes</text><text fill="#000000" font-family="sans-serif" font-size="13" lengthAdjust="spacing" textLength="7" x="262.3201" y="246.8622">1</text><text fill="#000000" font-family="sans-serif" font-size="13" lengthAdjust="spacing" textLength="7" x="305.8863" y="163.5268">1</text></g><!--link Agent to Employee--><g id="link_Agent_Employee"><path codeLine="71" d="M65.73,142.12 C63.01,156.83 58.92,178.87 54.85,200.82 " fill="none" id="Agent-to-Employee" style="stroke:#181818;stroke-width:1.0;"/><polygon fill="none" points="61.68,202.35,51.15,220.74,47.92,199.8,61.68,202.35" style="stroke:#181818;stroke-width:1.0;"/><text fill="#000000" font-family="sans-serif" font-size="13" lengthAdjust="spacing" textLength="7" x="56.9106" y="163.5268">1</text><text fill="#000000" font-family="sans-serif" font-size="13" lengthAdjust="spacing" textLength="7" x="45.002" y="209.5469">1</text></g><!--link Agent to Listing--><g id="link_Agent_Listing"><path codeLine="73" d="M88.27,142.21 C103.4,155.9 125.14,175.13 145,191 C176.14,215.89 213.67,242.67 237.44,259.26 " fill="none" id="Agent-Listing" style="stroke:#181818;stroke-width:1.0;"/><polygon fill="#000000" points="153.9336,184.7321,148.6319,176.8363,145.0034,181.4605,153.9336,184.7321" style="stroke:#000000;stroke-width:1.0;"/><text fill="#000000" font-family="sans-serif" font-size="13" lengthAdjust="spacing" textLength="50" x="159" y="187.0283">validates</text><text fill="#000000" font-family="sans-serif" font-size="13" lengthAdjust="spacing" textLength="7" x="85.5082" y="163.641">1</text><text fill="#000000" font-family="sans-serif" font-size="13" lengthAdjust="spacing" textLength="5" x="224.4591" y="248.508">*</text></g><!--link Property to Client--><g id="link_Property_Client"><path codeLine="75" d="M353.05,123.5 C377.38,123.5 411.03,123.5 432.66,123.5 " fill="none" id="Property-Client" style="stroke:#181818;stroke-width:1.0;"/><polygon fill="#000000" points="370.5,111.1455,379.5451,114.0844,379.5451,108.2066,370.5,111.1455" style="stroke:#000000;stroke-width:1.0;"/><text fill="#000000" font-family="sans-serif" font-size="13" lengthAdjust="spacing" textLength="30" x="384.5" y="116.5283">owns</text><text fill="#000000" font-family="sans-serif" font-size="13" lengthAdjust="spacing" textLength="5" x="360.9841" y="118.5381">*</text><text fill="#000000" font-family="sans-serif" font-size="13" lengthAdjust="spacing" textLength="22" x="403.1814" y="139.5714">0..1</text></g><!--link Client to Listing--><g id="link_Client_Listing"><path codeLine="77" d="M433.52,142.02 C417.5,155.6 394.56,174.78 374,191 C343.61,214.97 307.69,241.54 284.64,258.37 " fill="none" id="Client-Listing" style="stroke:#181818;stroke-width:1.0;"/><polygon fill="#000000" points="397.0604,184.7243,405.9969,181.4703,402.3775,176.839,397.0604,184.7243" style="stroke:#000000;stroke-width:1.0;"/><text fill="#000000" font-family="sans-serif" font-size="13" lengthAdjust="spacing" textLength="43" x="410" y="187.0283">creates</text><text fill="#000000" font-family="sans-serif" font-size="13" lengthAdjust="spacing" textLength="22" x="403.0597" y="163.4">0..1</text><text fill="#000000" font-family="sans-serif" font-size="13" lengthAdjust="spacing" textLength="5" x="292.6454" y="247.3455">*</text></g><!--link Unregistered User to Listing--><g id="link_Unregistered User_Listing"><path codeLine="79" d="M205.02,142.04 C210.43,155.46 218.11,174.43 225,191 C234.62,214.12 245.98,240.66 253.33,257.73 " fill="none" id="Unregistered User-Listing" style="stroke:#181818;stroke-width:1.0;"/><polygon fill="#000000" points="231.9267,186.2594,231.1533,176.7803,225.7293,179.0453,231.9267,186.2594" style="stroke:#000000;stroke-width:1.0;"/><text fill="#000000" font-family="sans-serif" font-size="13" lengthAdjust="spacing" textLength="48" x="239" y="187.0283">browses</text><text fill="#000000" font-family="sans-serif" font-size="13" lengthAdjust="spacing" textLength="7" x="199.01" y="163.7675">1</text><text fill="#000000" font-family="sans-serif" font-size="13" lengthAdjust="spacing" textLength="5" x="245.3426" y="246.8462">*</text></g><!--SRC=[TL7RQjmm47tNLmn-CHGsILz32InjeOKM2Y4Ve4YpzX19OwJPBjlBlrUIvTtrDl7JUCvbpcZI2uL9H-t1Ss0pHlO84lUeqWcPj7dH0pxAqI54DAB3u2u9QTIM3nG6s6cNKAdUuKv0628Deu2beY8Ewa9ad4vfAnBfUI_urN1uf5y8TqgDP14CHPE7rDgZZ6nJzXMIdE4JUqq1lhD5bvlL2NuuBJkE7dwh7c1ZCPb8KvtQ_rLApQpFVd9yHCmio5_G7ck1sT7LQk94LLL_HWweYhnDUKeOvmbDt9_LjPmowy3Hrg6tJRKTC4YM5QUMDlA4KOwhvXVU9rnrjlcjn5-Bl-bWLusFZlxZK99oaSjUznGY3Xd0YBQkqbMylyqBpiExznriDdyUQh64LESOh-Crq1jGop6ZA-mUA1YtpvU21wNcDrgPBCTI_Ubi1Ih1LtJetdNBmlVmKpkoMgfhtrwckxkvATJAFC_dGoYiqp4Akbd8JTfO7yvUXTGIrYXNCwxYc8XBcDVUVzvWvVSsRUty7FcGglC_]--></g></svg>