<?xml version="1.0" encoding="UTF-8" standalone="no"?><svg xmlns="http://www.w3.org/2000/svg" xmlns:xlink="http://www.w3.org/1999/xlink" contentStyleType="text/css" height="511px" preserveAspectRatio="none" style="width:507px;height:511px;background:#FFFFFF;" version="1.1" viewBox="0 0 507 511" width="507px" zoomAndPan="magnify"><defs/><g><!--MD5=[bfbfb4951075b729643e18bca3059702]
class CreateLocationUI--><g id="elem_CreateLocationUI"><rect codeLine="11" fill="#F1F1F1" height="48" id="CreateLocationUI" rx="2.5" ry="2.5" style="stroke:#181818;stroke-width:0.5;" width="141" x="7" y="24.5"/><ellipse cx="22" cy="40.5" fill="#ADD1B2" rx="11" ry="11" style="stroke:#181818;stroke-width:1.0;"/><path d="M25.6875,41.7031 Q25.4375,45.1875 24.2656,46.3594 Q23.2344,47.0781 21.8594,47.0781 Q20.4844,47.0781 19.4531,46.3594 Q17.6719,44.5781 17.6719,40.9063 Q17.6719,36.6563 19.5469,34.75 Q20.5938,33.7344 21.9219,33.7344 Q23.3281,33.7344 24.1719,34.5469 Q25.6563,36.0625 25.5781,38.9375 L23.4531,38.9375 Q23.375,36.6094 22.7344,35.9688 Q22.4531,35.6719 21.9219,35.6719 Q21.4688,35.6719 21.1094,36.0469 Q19.875,37.2656 19.875,40.7813 Q19.875,43.8281 20.9219,44.8438 Q21.3438,45.2813 21.8594,45.2813 Q22.3125,45.2813 22.75,44.8438 Q23.3125,44.2969 23.3906,41.7031 L25.6875,41.7031 Z " fill="#000000"/><text fill="#000000" font-family="sans-serif" font-size="14" lengthAdjust="spacing" textLength="109" x="36" y="46.2285">CreateLocationUI</text><line style="stroke:#181818;stroke-width:0.5;" x1="8" x2="147" y1="56.5" y2="56.5"/><line style="stroke:#181818;stroke-width:0.5;" x1="8" x2="147" y1="64.5" y2="64.5"/></g><!--MD5=[450a4be6d92bad89c45f5bfee721809d]
class CreateLocationController--><g id="elem_CreateLocationController"><rect codeLine="14" fill="#F1F1F1" height="83.2188" id="CreateLocationController" rx="2.5" ry="2.5" style="stroke:#181818;stroke-width:0.5;" width="317" x="183" y="7"/><ellipse cx="257.75" cy="23" fill="#ADD1B2" rx="11" ry="11" style="stroke:#181818;stroke-width:1.0;"/><path d="M261.4375,24.2031 Q261.1875,27.6875 260.0156,28.8594 Q258.9844,29.5781 257.6094,29.5781 Q256.2344,29.5781 255.2031,28.8594 Q253.4219,27.0781 253.4219,23.4063 Q253.4219,19.1563 255.2969,17.25 Q256.3438,16.2344 257.6719,16.2344 Q259.0781,16.2344 259.9219,17.0469 Q261.4063,18.5625 261.3281,21.4375 L259.2031,21.4375 Q259.125,19.1094 258.4844,18.4688 Q258.2031,18.1719 257.6719,18.1719 Q257.2188,18.1719 256.8594,18.5469 Q255.625,19.7656 255.625,23.2813 Q255.625,26.3281 256.6719,27.3438 Q257.0938,27.7813 257.6094,27.7813 Q258.0625,27.7813 258.5,27.3438 Q259.0625,26.7969 259.1406,24.2031 L261.4375,24.2031 Z " fill="#000000"/><text fill="#000000" font-family="sans-serif" font-size="14" lengthAdjust="spacing" textLength="159" x="278.25" y="28.7285">CreateLocationController</text><line style="stroke:#181818;stroke-width:0.5;" x1="184" x2="499" y1="39" y2="39"/><line style="stroke:#181818;stroke-width:0.5;" x1="184" x2="499" y1="47" y2="47"/><text fill="#000000" font-family="sans-serif" font-size="14" lengthAdjust="spacing" textLength="305" x="189" y="65.5332">+createLocation(street,city,district,state,zipcode)</text><text fill="#000000" font-family="sans-serif" font-size="14" lengthAdjust="spacing" textLength="67" x="189" y="83.1426">+validate()</text></g><!--MD5=[c05f8d4c5007184b0fb1ea93cdb8d9fe]
class Repository--><g id="elem_Repository"><rect codeLine="23" fill="#F1F1F1" height="83.2188" id="Repository" rx="2.5" ry="2.5" style="stroke:#181818;stroke-width:0.5;" width="104" x="289.5" y="168"/><ellipse cx="306.3" cy="184" fill="#ADD1B2" rx="11" ry="11" style="stroke:#181818;stroke-width:1.0;"/><path d="M309.9875,185.2031 Q309.7375,188.6875 308.5656,189.8594 Q307.5344,190.5781 306.1594,190.5781 Q304.7844,190.5781 303.7531,189.8594 Q301.9719,188.0781 301.9719,184.4063 Q301.9719,180.1563 303.8469,178.25 Q304.8938,177.2344 306.2219,177.2344 Q307.6281,177.2344 308.4719,178.0469 Q309.9563,179.5625 309.8781,182.4375 L307.7531,182.4375 Q307.675,180.1094 307.0344,179.4688 Q306.7531,179.1719 306.2219,179.1719 Q305.7688,179.1719 305.4094,179.5469 Q304.175,180.7656 304.175,184.2813 Q304.175,187.3281 305.2219,188.3438 Q305.6438,188.7813 306.1594,188.7813 Q306.6125,188.7813 307.05,188.3438 Q307.6125,187.7969 307.6906,185.2031 L309.9875,185.2031 Z " fill="#000000"/><text fill="#000000" font-family="sans-serif" font-size="14" lengthAdjust="spacing" textLength="68" x="320.7" y="189.7285">Repository</text><line style="stroke:#181818;stroke-width:0.5;" x1="290.5" x2="392.5" y1="200" y2="200"/><line style="stroke:#181818;stroke-width:0.5;" x1="290.5" x2="392.5" y1="208" y2="208"/><text fill="#000000" font-family="sans-serif" font-size="14" lengthAdjust="spacing" textLength="92" x="295.5" y="226.5332">+getLocation()</text><text fill="#000000" font-family="sans-serif" font-size="14" lengthAdjust="spacing" textLength="48" x="295.5" y="244.1426">+save()</text></g><!--MD5=[4f1f3706c1a355a8488e154afcaed5df]
class Location--><g id="elem_Location"><rect codeLine="28" fill="#F1F1F1" height="65.6094" id="Location" rx="2.5" ry="2.5" style="stroke:#181818;stroke-width:0.5;" width="277" x="203" y="312"/><ellipse cx="310.25" cy="328" fill="#ADD1B2" rx="11" ry="11" style="stroke:#181818;stroke-width:1.0;"/><path d="M313.9375,329.2031 Q313.6875,332.6875 312.5156,333.8594 Q311.4844,334.5781 310.1094,334.5781 Q308.7344,334.5781 307.7031,333.8594 Q305.9219,332.0781 305.9219,328.4063 Q305.9219,324.1563 307.7969,322.25 Q308.8438,321.2344 310.1719,321.2344 Q311.5781,321.2344 312.4219,322.0469 Q313.9063,323.5625 313.8281,326.4375 L311.7031,326.4375 Q311.625,324.1094 310.9844,323.4688 Q310.7031,323.1719 310.1719,323.1719 Q309.7188,323.1719 309.3594,323.5469 Q308.125,324.7656 308.125,328.2813 Q308.125,331.3281 309.1719,332.3438 Q309.5938,332.7813 310.1094,332.7813 Q310.5625,332.7813 311,332.3438 Q311.5625,331.7969 311.6406,329.2031 L313.9375,329.2031 Z " fill="#000000"/><text fill="#000000" font-family="sans-serif" font-size="14" lengthAdjust="spacing" textLength="54" x="330.75" y="333.7285">Location</text><line style="stroke:#181818;stroke-width:0.5;" x1="204" x2="479" y1="344" y2="344"/><line style="stroke:#181818;stroke-width:0.5;" x1="204" x2="479" y1="352" y2="352"/><text fill="#000000" font-family="sans-serif" font-size="14" lengthAdjust="spacing" textLength="265" x="209" y="370.5332">+Location(street,city,district,state,zipcode)</text></g><!--MD5=[1807546699bed71a5b7fb0b74ae84899]
class Admnistrator--><g id="elem_Admnistrator"><rect codeLine="35" fill="#F1F1F1" height="48" id="Admnistrator" rx="2.5" ry="2.5" style="stroke:#181818;stroke-width:0.5;" width="112" x="285.5" y="456"/><ellipse cx="300.5" cy="472" fill="#ADD1B2" rx="11" ry="11" style="stroke:#181818;stroke-width:1.0;"/><path d="M304.1875,473.2031 Q303.9375,476.6875 302.7656,477.8594 Q301.7344,478.5781 300.3594,478.5781 Q298.9844,478.5781 297.9531,477.8594 Q296.1719,476.0781 296.1719,472.4063 Q296.1719,468.1563 298.0469,466.25 Q299.0938,465.2344 300.4219,465.2344 Q301.8281,465.2344 302.6719,466.0469 Q304.1563,467.5625 304.0781,470.4375 L301.9531,470.4375 Q301.875,468.1094 301.2344,467.4688 Q300.9531,467.1719 300.4219,467.1719 Q299.9688,467.1719 299.6094,467.5469 Q298.375,468.7656 298.375,472.2813 Q298.375,475.3281 299.4219,476.3438 Q299.8438,476.7813 300.3594,476.7813 Q300.8125,476.7813 301.25,476.3438 Q301.8125,475.7969 301.8906,473.2031 L304.1875,473.2031 Z " fill="#000000"/><text fill="#000000" font-family="sans-serif" font-size="14" lengthAdjust="spacing" textLength="80" x="314.5" y="477.7285">Admnistrator</text><line style="stroke:#181818;stroke-width:0.5;" x1="286.5" x2="396.5" y1="488" y2="488"/><line style="stroke:#181818;stroke-width:0.5;" x1="286.5" x2="396.5" y1="496" y2="496"/></g><!--MD5=[fc25d6258a15781ea130496ea14b2b8a]
link CreateLocationUI to CreateLocationController--><g id="link_CreateLocationUI_CreateLocationController"><path codeLine="44" d="M148.11,48.5 C158.34,48.5 165.5,48.5 165.5,48.5 C165.5,48.5 170.22,48.5 177.48,48.5 " fill="none" id="CreateLocationUI-to-CreateLocationController" style="stroke:#181818;stroke-width:1.0;stroke-dasharray:7.0,7.0;"/><polygon fill="#181818" points="182.89,48.5,173.89,44.5,177.89,48.5,173.89,52.5,182.89,48.5" style="stroke:#181818;stroke-width:1.0;"/></g><!--MD5=[e6fb515dc46719ca97ad926b93cd7425]
link CreateLocationController to Repository--><g id="link_CreateLocationController_Repository"><path codeLine="46" d="M341.5,90.03 C341.5,112.19 341.5,139.71 341.5,162.64 " fill="none" id="CreateLocationController-to-Repository" style="stroke:#181818;stroke-width:1.0;stroke-dasharray:7.0,7.0;"/><polygon fill="#181818" points="341.5,167.76,345.5,158.76,341.5,162.76,337.5,158.76,341.5,167.76" style="stroke:#181818;stroke-width:1.0;"/><text fill="#000000" font-family="sans-serif" font-size="13" lengthAdjust="spacing" textLength="111" x="342.5" y="134.4951">LocationRepository</text></g><!--MD5=[78bd882fa0aefe015c84399e05dd9d6f]
link Repository to Location--><g id="link_Repository_Location"><path codeLine="48" d="M341.5,251.28 C341.5,268.93 341.5,289.45 341.5,306.69 " fill="none" id="Repository-to-Location" style="stroke:#181818;stroke-width:1.0;"/><polygon fill="#181818" points="341.5,311.93,345.5,302.93,341.5,306.93,337.5,302.93,341.5,311.93" style="stroke:#181818;stroke-width:1.0;"/><text fill="#000000" font-family="sans-serif" font-size="13" lengthAdjust="spacing" textLength="5" x="335.9844" y="301.031">*</text></g><!--MD5=[7b7a32466e5d5eb3da9d22343fac873b]
link Location to Admnistrator--><g id="link_Location_Admnistrator"><path codeLine="50" d="M341.5,378.2 C341.5,400.31 341.5,429.39 341.5,450.63 " fill="none" id="Location-to-Admnistrator" style="stroke:#181818;stroke-width:1.0;"/><polygon fill="#181818" points="341.5,455.85,345.5,446.85,341.5,450.85,337.5,446.85,341.5,455.85" style="stroke:#181818;stroke-width:1.0;"/><text fill="#000000" font-family="sans-serif" font-size="13" lengthAdjust="spacing" textLength="52" x="342.5" y="422.4951">createBy</text></g><!--MD5=[c3756b10df0bf2687e370f9577819907]
@startuml
'skinparam monochrome true
skinparam packageStyle rectangle
skinparam shadowing false
skinparam linetype polyline
'skinparam linetype orto

skinparam classAttributeIconSize 0

'left to right direction

class CreateLocationUI{
}

class CreateLocationController {
    + createLocation(street,city,district,state,zipcode)
    +validate()

}




class Repository{
    +getLocation()
    +save()
}

class Location{
    + Location(street,city,district,state,zipcode)

}



Class Admnistrator{
}







CreateLocationUI .> CreateLocationController

CreateLocationController ..> Repository : LocationRepository

Repository - -> "*" Location

Location - -> Admnistrator : createBy
@enduml

@startuml
skinparam packageStyle rectangle
skinparam shadowing false
skinparam linetype polyline

skinparam classAttributeIconSize 0


class CreateLocationUI{
}

class CreateLocationController {
    + createLocation(street,city,district,state,zipcode)
    +validate()

}




class Repository{
    +getLocation()
    +save()
}

class Location{
    + Location(street,city,district,state,zipcode)

}



Class Admnistrator{
}







CreateLocationUI .> CreateLocationController

CreateLocationController ..> Repository : LocationRepository

Repository - -> "*" Location

Location - -> Admnistrator : createBy
@enduml

PlantUML version 1.2022.4(Sat Apr 09 14:29:17 BST 2022)
(GPL source distribution)
Java Runtime: OpenJDK Runtime Environment
JVM: OpenJDK 64-Bit Server VM
Default Encoding: MS932
Language: en
Country: US
--></g></svg>