<?xml version="1.0" encoding="us-ascii" standalone="no"?><svg xmlns="http://www.w3.org/2000/svg" xmlns:xlink="http://www.w3.org/1999/xlink" contentStyleType="text/css" height="687px" preserveAspectRatio="none" style="width:448px;height:687px;background:#FFFFFF;" version="1.1" viewBox="0 0 448 687" width="448px" zoomAndPan="magnify"><defs/><g><line style="stroke:#181818;stroke-width:0.5;stroke-dasharray:5.0,5.0;" x1="64" x2="64" y1="83.6211" y2="604.2773"/><line style="stroke:#181818;stroke-width:0.5;stroke-dasharray:5.0,5.0;" x1="407" x2="407" y1="83.6211" y2="604.2773"/><text fill="#000000" font-family="sans-serif" font-size="14" lengthAdjust="spacing" textLength="112" x="5" y="80.1074">ADMINISTRATOR</text><ellipse cx="64" cy="13.5" fill="#E2E2F0" rx="8" ry="8" style="stroke:#181818;stroke-width:0.5;"/><path d="M64,21.5 L64,48.5 M51,29.5 L77,29.5 M64,48.5 L51,63.5 M64,48.5 L77,63.5 " fill="none" style="stroke:#181818;stroke-width:0.5;"/><text fill="#000000" font-family="sans-serif" font-size="14" lengthAdjust="spacing" textLength="112" x="5" y="618.3848">ADMINISTRATOR</text><ellipse cx="64" cy="630.3984" fill="#E2E2F0" rx="8" ry="8" style="stroke:#181818;stroke-width:0.5;"/><path d="M64,638.3984 L64,665.3984 M51,646.3984 L77,646.3984 M64,665.3984 L51,680.3984 M64,665.3984 L77,680.3984 " fill="none" style="stroke:#181818;stroke-width:0.5;"/><rect fill="#E2E2F0" height="32.6211" rx="2.5" ry="2.5" style="stroke:#181818;stroke-width:0.5;" width="70" x="372" y="50"/><text fill="#000000" font-family="sans-serif" font-size="14" lengthAdjust="spacing" textLength="56" x="379" y="72.1074">SYSTEM</text><rect fill="#E2E2F0" height="32.6211" rx="2.5" ry="2.5" style="stroke:#181818;stroke-width:0.5;" width="70" x="372" y="603.2773"/><text fill="#000000" font-family="sans-serif" font-size="14" lengthAdjust="spacing" textLength="56" x="379" y="625.3848">SYSTEM</text><polygon fill="#181818" points="395,112.9121,405,116.9121,395,120.9121,399,116.9121" style="stroke:#181818;stroke-width:1.0;"/><line style="stroke:#181818;stroke-width:1.0;" x1="64" x2="401" y1="116.9121" y2="116.9121"/><text fill="#000000" font-family="sans-serif" font-size="13" lengthAdjust="spacing" textLength="195" x="71" y="111.6494">starts registering a new employee</text><polygon fill="#181818" points="75,144.2031,65,148.2031,75,152.2031,71,148.2031" style="stroke:#181818;stroke-width:1.0;"/><line style="stroke:#181818;stroke-width:1.0;" x1="69" x2="406" y1="148.2031" y2="148.2031"/><text fill="#000000" font-family="sans-serif" font-size="13" lengthAdjust="spacing" textLength="146" x="81" y="142.9404">requests employee name</text><polygon fill="#181818" points="395,175.4941,405,179.4941,395,183.4941,399,179.4941" style="stroke:#181818;stroke-width:1.0;"/><line style="stroke:#181818;stroke-width:1.0;" x1="64" x2="401" y1="179.4941" y2="179.4941"/><text fill="#000000" font-family="sans-serif" font-size="13" lengthAdjust="spacing" textLength="128" x="71" y="174.2314">types employee name</text><polygon fill="#181818" points="75,206.7852,65,210.7852,75,214.7852,71,210.7852" style="stroke:#181818;stroke-width:1.0;"/><line style="stroke:#181818;stroke-width:1.0;" x1="69" x2="406" y1="210.7852" y2="210.7852"/><text fill="#000000" font-family="sans-serif" font-size="13" lengthAdjust="spacing" textLength="237" x="81" y="205.5225">requests employee citizen's card number</text><polygon fill="#181818" points="395,238.0762,405,242.0762,395,246.0762,399,242.0762" style="stroke:#181818;stroke-width:1.0;"/><line style="stroke:#181818;stroke-width:1.0;" x1="64" x2="401" y1="242.0762" y2="242.0762"/><text fill="#000000" font-family="sans-serif" font-size="13" lengthAdjust="spacing" textLength="159" x="71" y="236.8135">types citizen's card number</text><polygon fill="#181818" points="75,269.3672,65,273.3672,75,277.3672,71,273.3672" style="stroke:#181818;stroke-width:1.0;"/><line style="stroke:#181818;stroke-width:1.0;" x1="69" x2="406" y1="273.3672" y2="273.3672"/><text fill="#000000" font-family="sans-serif" font-size="13" lengthAdjust="spacing" textLength="179" x="81" y="268.1045">requests employee tax number</text><polygon fill="#181818" points="395,300.6582,405,304.6582,395,308.6582,399,304.6582" style="stroke:#181818;stroke-width:1.0;"/><line style="stroke:#181818;stroke-width:1.0;" x1="64" x2="401" y1="304.6582" y2="304.6582"/><text fill="#000000" font-family="sans-serif" font-size="13" lengthAdjust="spacing" textLength="101" x="71" y="299.3955">types tax number</text><polygon fill="#181818" points="75,331.9492,65,335.9492,75,339.9492,71,335.9492" style="stroke:#181818;stroke-width:1.0;"/><line style="stroke:#181818;stroke-width:1.0;" x1="69" x2="406" y1="335.9492" y2="335.9492"/><text fill="#000000" font-family="sans-serif" font-size="13" lengthAdjust="spacing" textLength="199" x="81" y="330.6865">requests employee e-mail address</text><polygon fill="#181818" points="395,363.2402,405,367.2402,395,371.2402,399,367.2402" style="stroke:#181818;stroke-width:1.0;"/><line style="stroke:#181818;stroke-width:1.0;" x1="64" x2="401" y1="367.2402" y2="367.2402"/><text fill="#000000" font-family="sans-serif" font-size="13" lengthAdjust="spacing" textLength="121" x="71" y="361.9775">types e-mail address</text><polygon fill="#181818" points="75,394.5313,65,398.5313,75,402.5313,71,398.5313" style="stroke:#181818;stroke-width:1.0;"/><line style="stroke:#181818;stroke-width:1.0;" x1="69" x2="406" y1="398.5313" y2="398.5313"/><text fill="#000000" font-family="sans-serif" font-size="13" lengthAdjust="spacing" textLength="217" x="81" y="393.2686">requests employee telephone number</text><polygon fill="#181818" points="395,425.8223,405,429.8223,395,433.8223,399,429.8223" style="stroke:#181818;stroke-width:1.0;"/><line style="stroke:#181818;stroke-width:1.0;" x1="64" x2="401" y1="429.8223" y2="429.8223"/><text fill="#000000" font-family="sans-serif" font-size="13" lengthAdjust="spacing" textLength="139" x="71" y="424.5596">types telephone number</text><polygon fill="#181818" points="75,457.1133,65,461.1133,75,465.1133,71,461.1133" style="stroke:#181818;stroke-width:1.0;"/><line style="stroke:#181818;stroke-width:1.0;" x1="69" x2="406" y1="461.1133" y2="461.1133"/><text fill="#000000" font-family="sans-serif" font-size="13" lengthAdjust="spacing" textLength="156" x="81" y="455.8506">requests employee agency</text><polygon fill="#181818" points="395,488.4043,405,492.4043,395,496.4043,399,492.4043" style="stroke:#181818;stroke-width:1.0;"/><line style="stroke:#181818;stroke-width:1.0;" x1="64" x2="401" y1="492.4043" y2="492.4043"/><text fill="#000000" font-family="sans-serif" font-size="13" lengthAdjust="spacing" textLength="138" x="71" y="487.1416">types employee agency</text><polygon fill="#181818" points="75,519.6953,65,523.6953,75,527.6953,71,523.6953" style="stroke:#181818;stroke-width:1.0;"/><line style="stroke:#181818;stroke-width:1.0;" x1="69" x2="406" y1="523.6953" y2="523.6953"/><text fill="#000000" font-family="sans-serif" font-size="13" lengthAdjust="spacing" textLength="319" x="81" y="518.4326">shows the data for the employee and asks confirmation</text><polygon fill="#181818" points="395,550.9863,405,554.9863,395,558.9863,399,554.9863" style="stroke:#181818;stroke-width:1.0;"/><line style="stroke:#181818;stroke-width:1.0;" x1="64" x2="401" y1="554.9863" y2="554.9863"/><text fill="#000000" font-family="sans-serif" font-size="13" lengthAdjust="spacing" textLength="100" x="71" y="549.7236">confirms the data</text><polygon fill="#181818" points="75,582.2773,65,586.2773,75,590.2773,71,586.2773" style="stroke:#181818;stroke-width:1.0;"/><line style="stroke:#181818;stroke-width:1.0;" x1="69" x2="406" y1="586.2773" y2="586.2773"/><text fill="#000000" font-family="sans-serif" font-size="13" lengthAdjust="spacing" textLength="145" x="81" y="581.0146">informs operation sucess</text><!--SRC=[VPB1JiCm38RlVGhVEFK544AQ18ST1jBQ2qSlzLgBnicIL5jvUjmnD8gQtXBzNpudZj4a5s3pijk-RQjwlwdVzu0HiB65nv3Oi4T9K7rKzUjkIWOkYa9ZA9zr_GWnAHOXKCinKM1f0K7e36HzxqQY7_gflDA1JWD5vNzJ4BGq4wRHqsAULHXE_4No4C5WQ406Uw2mu5pXikw4bxpmVvYrK6cHU-rg4oZ6fUSk0FaxKK- -Sq8hDrj4iaPiISouzWr_YPicTkwibJg21XF2KUTesjoFIAC3ywdTTdBaO36narcDMt2NpFmigjJGUGhNin07CtNd6m00]--></g></svg>