<?xml version="1.0" encoding="UTF-8" standalone="no"?><svg xmlns="http://www.w3.org/2000/svg" xmlns:xlink="http://www.w3.org/1999/xlink" contentStyleType="text/css" height="506px" preserveAspectRatio="none" style="width:388px;height:506px;background:#FFFFFF;" version="1.1" viewBox="0 0 388 506" width="388px" zoomAndPan="magnify"><defs/><g><!--MD5=[6d7d587a021629470fd0d5f8ef3407c9]
class Branch--><g id="elem_Branch"><rect codeLine="2" fill="#F1F1F1" height="206.4844" id="Branch" rx="2.5" ry="2.5" style="stroke:#181818;stroke-width:0.5;" width="194" x="7" y="293"/><ellipse cx="77.25" cy="309" fill="#ADD1B2" rx="11" ry="11" style="stroke:#181818;stroke-width:1.0;"/><path d="M80.0156,304.875 Q80.1719,304.6563 80.3594,304.5469 Q80.5469,304.4375 80.7656,304.4375 Q81.1406,304.4375 81.375,304.6953 Q81.6094,304.9531 81.6094,305.5625 L81.6094,307.0156 Q81.6094,307.625 81.375,307.8906 Q81.1406,308.1563 80.7656,308.1563 Q80.4219,308.1563 80.2188,307.9531 Q80.0156,307.7656 79.9063,307.25 Q79.8594,306.8906 79.6719,306.7031 Q79.3438,306.3281 78.7344,306.1094 Q78.125,305.8906 77.5,305.8906 Q76.7344,305.8906 76.1016,306.2188 Q75.4688,306.5469 74.9766,307.2969 Q74.4844,308.0469 74.4844,309.0781 L74.4844,310.1719 Q74.4844,311.4063 75.375,312.2266 Q76.2656,313.0469 77.8594,313.0469 Q78.7969,313.0469 79.4531,312.7969 Q79.8438,312.6406 80.2656,312.2031 Q80.5313,311.9375 80.6797,311.8594 Q80.8281,311.7813 81.0313,311.7813 Q81.3594,311.7813 81.6172,312.0391 Q81.875,312.2969 81.875,312.6406 Q81.875,312.9844 81.5313,313.3906 Q81.0313,313.9688 80.2344,314.2969 Q79.1563,314.75 77.8594,314.75 Q76.3438,314.75 75.1406,314.125 Q74.1563,313.625 73.4688,312.5547 Q72.7813,311.4844 72.7813,310.2031 L72.7813,309.0469 Q72.7813,307.7188 73.3984,306.5703 Q74.0156,305.4219 75.1094,304.8047 Q76.2031,304.1875 77.4375,304.1875 Q78.1719,304.1875 78.8203,304.3516 Q79.4688,304.5156 80.0156,304.875 Z " fill="#000000"/><text fill="#000000" font-family="sans-serif" font-size="14" lengthAdjust="spacing" textLength="45" x="97.75" y="314.7285">Branch</text><line style="stroke:#181818;stroke-width:0.5;" x1="8" x2="200" y1="325" y2="325"/><rect fill="none" height="6" style="stroke:#C82930;stroke-width:1.0;" width="6" x="15" y="336.3047"/><text fill="#000000" font-family="sans-serif" font-size="14" lengthAdjust="spacing" textLength="32" x="27" y="343.5332">int ID</text><rect fill="none" height="6" style="stroke:#C82930;stroke-width:1.0;" width="6" x="15" y="353.9141"/><text fill="#000000" font-family="sans-serif" font-size="14" lengthAdjust="spacing" textLength="76" x="27" y="361.1426">String name</text><rect fill="none" height="6" style="stroke:#C82930;stroke-width:1.0;" width="6" x="15" y="371.5234"/><text fill="#000000" font-family="sans-serif" font-size="14" lengthAdjust="spacing" textLength="90" x="27" y="378.752">String location</text><rect fill="none" height="6" style="stroke:#C82930;stroke-width:1.0;" width="6" x="15" y="389.1328"/><text fill="#000000" font-family="sans-serif" font-size="14" lengthAdjust="spacing" textLength="108" x="27" y="396.3613">int phoneNumber</text><rect fill="none" height="6" style="stroke:#C82930;stroke-width:1.0;" width="6" x="15" y="406.7422"/><text fill="#000000" font-family="sans-serif" font-size="14" lengthAdjust="spacing" textLength="74" x="27" y="413.9707">String email</text><line style="stroke:#181818;stroke-width:0.5;" x1="8" x2="200" y1="421.0469" y2="421.0469"/><ellipse cx="18" cy="435.3516" fill="#84BE84" rx="3" ry="3" style="stroke:#038048;stroke-width:1.0;"/><text fill="#000000" font-family="sans-serif" font-size="14" lengthAdjust="spacing" textLength="117" x="27" y="439.5801">checkIfDataIsNull()</text><ellipse cx="18" cy="452.9609" fill="#84BE84" rx="3" ry="3" style="stroke:#038048;stroke-width:1.0;"/><text fill="#000000" font-family="sans-serif" font-size="14" lengthAdjust="spacing" textLength="127" x="27" y="457.1895">checkNameLength()</text><ellipse cx="18" cy="470.5703" fill="#84BE84" rx="3" ry="3" style="stroke:#038048;stroke-width:1.0;"/><text fill="#000000" font-family="sans-serif" font-size="14" lengthAdjust="spacing" textLength="112" x="27" y="474.7988">checkValidEmail()</text><ellipse cx="18" cy="488.1797" fill="#84BE84" rx="3" ry="3" style="stroke:#038048;stroke-width:1.0;"/><text fill="#000000" font-family="sans-serif" font-size="14" lengthAdjust="spacing" textLength="168" x="27" y="492.4082">checkValidPhoneNumber()</text></g><!--MD5=[573d97bd10418ae9b9c764c7635b85fd]
class RegisterBranchUI--><g id="elem_RegisterBranchUI"><rect codeLine="20" fill="#F1F1F1" height="83.2188" id="RegisterBranchUI" rx="2.5" ry="2.5" style="stroke:#181818;stroke-width:0.5;" width="142" x="33" y="7"/><ellipse cx="48" cy="23" fill="#ADD1B2" rx="11" ry="11" style="stroke:#181818;stroke-width:1.0;"/><path d="M50.7656,18.875 Q50.9219,18.6563 51.1094,18.5469 Q51.2969,18.4375 51.5156,18.4375 Q51.8906,18.4375 52.125,18.6953 Q52.3594,18.9531 52.3594,19.5625 L52.3594,21.0156 Q52.3594,21.625 52.125,21.8906 Q51.8906,22.1563 51.5156,22.1563 Q51.1719,22.1563 50.9688,21.9531 Q50.7656,21.7656 50.6563,21.25 Q50.6094,20.8906 50.4219,20.7031 Q50.0938,20.3281 49.4844,20.1094 Q48.875,19.8906 48.25,19.8906 Q47.4844,19.8906 46.8516,20.2188 Q46.2188,20.5469 45.7266,21.2969 Q45.2344,22.0469 45.2344,23.0781 L45.2344,24.1719 Q45.2344,25.4063 46.125,26.2266 Q47.0156,27.0469 48.6094,27.0469 Q49.5469,27.0469 50.2031,26.7969 Q50.5938,26.6406 51.0156,26.2031 Q51.2813,25.9375 51.4297,25.8594 Q51.5781,25.7813 51.7813,25.7813 Q52.1094,25.7813 52.3672,26.0391 Q52.625,26.2969 52.625,26.6406 Q52.625,26.9844 52.2813,27.3906 Q51.7813,27.9688 50.9844,28.2969 Q49.9063,28.75 48.6094,28.75 Q47.0938,28.75 45.8906,28.125 Q44.9063,27.625 44.2188,26.5547 Q43.5313,25.4844 43.5313,24.2031 L43.5313,23.0469 Q43.5313,21.7188 44.1484,20.5703 Q44.7656,19.4219 45.8594,18.8047 Q46.9531,18.1875 48.1875,18.1875 Q48.9219,18.1875 49.5703,18.3516 Q50.2188,18.5156 50.7656,18.875 Z " fill="#000000"/><text fill="#000000" font-family="sans-serif" font-size="14" lengthAdjust="spacing" textLength="110" x="62" y="28.7285">RegisterBranchUI</text><line style="stroke:#181818;stroke-width:0.5;" x1="34" x2="174" y1="39" y2="39"/><rect fill="none" height="6" style="stroke:#C82930;stroke-width:1.0;" width="6" x="41" y="50.3047"/><text fill="#000000" font-family="sans-serif" font-size="14" lengthAdjust="spacing" textLength="59" x="53" y="57.5332">controller</text><line style="stroke:#181818;stroke-width:0.5;" x1="34" x2="174" y1="64.6094" y2="64.6094"/><ellipse cx="44" cy="78.9141" fill="#84BE84" rx="3" ry="3" style="stroke:#038048;stroke-width:1.0;"/><text fill="#000000" font-family="sans-serif" font-size="14" lengthAdjust="spacing" textLength="103" x="53" y="83.1426">registerBranch()</text></g><!--MD5=[66a1a26088825eeccf8833cb28e1be92]
class RegisterBranchController--><g id="elem_RegisterBranchController"><rect codeLine="27" fill="#F1F1F1" height="83.2188" id="RegisterBranchController" rx="2.5" ry="2.5" style="stroke:#181818;stroke-width:0.5;" width="192" x="8" y="150"/><ellipse cx="23" cy="166" fill="#ADD1B2" rx="11" ry="11" style="stroke:#181818;stroke-width:1.0;"/><path d="M25.7656,161.875 Q25.9219,161.6563 26.1094,161.5469 Q26.2969,161.4375 26.5156,161.4375 Q26.8906,161.4375 27.125,161.6953 Q27.3594,161.9531 27.3594,162.5625 L27.3594,164.0156 Q27.3594,164.625 27.125,164.8906 Q26.8906,165.1563 26.5156,165.1563 Q26.1719,165.1563 25.9688,164.9531 Q25.7656,164.7656 25.6563,164.25 Q25.6094,163.8906 25.4219,163.7031 Q25.0938,163.3281 24.4844,163.1094 Q23.875,162.8906 23.25,162.8906 Q22.4844,162.8906 21.8516,163.2188 Q21.2188,163.5469 20.7266,164.2969 Q20.2344,165.0469 20.2344,166.0781 L20.2344,167.1719 Q20.2344,168.4063 21.125,169.2266 Q22.0156,170.0469 23.6094,170.0469 Q24.5469,170.0469 25.2031,169.7969 Q25.5938,169.6406 26.0156,169.2031 Q26.2813,168.9375 26.4297,168.8594 Q26.5781,168.7813 26.7813,168.7813 Q27.1094,168.7813 27.3672,169.0391 Q27.625,169.2969 27.625,169.6406 Q27.625,169.9844 27.2813,170.3906 Q26.7813,170.9688 25.9844,171.2969 Q24.9063,171.75 23.6094,171.75 Q22.0938,171.75 20.8906,171.125 Q19.9063,170.625 19.2188,169.5547 Q18.5313,168.4844 18.5313,167.2031 L18.5313,166.0469 Q18.5313,164.7188 19.1484,163.5703 Q19.7656,162.4219 20.8594,161.8047 Q21.9531,161.1875 23.1875,161.1875 Q23.9219,161.1875 24.5703,161.3516 Q25.2188,161.5156 25.7656,161.875 Z " fill="#000000"/><text fill="#000000" font-family="sans-serif" font-size="14" lengthAdjust="spacing" textLength="160" x="37" y="171.7285">RegisterBranchController</text><line style="stroke:#181818;stroke-width:0.5;" x1="9" x2="199" y1="182" y2="182"/><rect fill="none" height="6" style="stroke:#C82930;stroke-width:1.0;" width="6" x="16" y="193.3047"/><text fill="#000000" font-family="sans-serif" font-size="14" lengthAdjust="spacing" textLength="112" x="28" y="200.5332">branchRepository</text><line style="stroke:#181818;stroke-width:0.5;" x1="9" x2="199" y1="207.6094" y2="207.6094"/><ellipse cx="19" cy="221.9141" fill="#84BE84" rx="3" ry="3" style="stroke:#038048;stroke-width:1.0;"/><text fill="#000000" font-family="sans-serif" font-size="14" lengthAdjust="spacing" textLength="95" x="28" y="226.1426">createBranch()</text></g><!--MD5=[d7cd06450716df339ae06bc8cd34d632]
class BranchRepository--><g id="elem_BranchRepository"><rect codeLine="33" fill="#F1F1F1" height="65.6094" id="BranchRepository" rx="2.5" ry="2.5" style="stroke:#181818;stroke-width:0.5;" width="145" x="236.5" y="363"/><ellipse cx="251.5" cy="379" fill="#ADD1B2" rx="11" ry="11" style="stroke:#181818;stroke-width:1.0;"/><path d="M254.2656,374.875 Q254.4219,374.6563 254.6094,374.5469 Q254.7969,374.4375 255.0156,374.4375 Q255.3906,374.4375 255.625,374.6953 Q255.8594,374.9531 255.8594,375.5625 L255.8594,377.0156 Q255.8594,377.625 255.625,377.8906 Q255.3906,378.1563 255.0156,378.1563 Q254.6719,378.1563 254.4688,377.9531 Q254.2656,377.7656 254.1563,377.25 Q254.1094,376.8906 253.9219,376.7031 Q253.5938,376.3281 252.9844,376.1094 Q252.375,375.8906 251.75,375.8906 Q250.9844,375.8906 250.3516,376.2188 Q249.7188,376.5469 249.2266,377.2969 Q248.7344,378.0469 248.7344,379.0781 L248.7344,380.1719 Q248.7344,381.4063 249.625,382.2266 Q250.5156,383.0469 252.1094,383.0469 Q253.0469,383.0469 253.7031,382.7969 Q254.0938,382.6406 254.5156,382.2031 Q254.7813,381.9375 254.9297,381.8594 Q255.0781,381.7813 255.2813,381.7813 Q255.6094,381.7813 255.8672,382.0391 Q256.125,382.2969 256.125,382.6406 Q256.125,382.9844 255.7813,383.3906 Q255.2813,383.9688 254.4844,384.2969 Q253.4063,384.75 252.1094,384.75 Q250.5938,384.75 249.3906,384.125 Q248.4063,383.625 247.7188,382.5547 Q247.0313,381.4844 247.0313,380.2031 L247.0313,379.0469 Q247.0313,377.7188 247.6484,376.5703 Q248.2656,375.4219 249.3594,374.8047 Q250.4531,374.1875 251.6875,374.1875 Q252.4219,374.1875 253.0703,374.3516 Q253.7188,374.5156 254.2656,374.875 Z " fill="#000000"/><text fill="#000000" font-family="sans-serif" font-size="14" lengthAdjust="spacing" textLength="113" x="265.5" y="384.7285">BranchRepository</text><line style="stroke:#181818;stroke-width:0.5;" x1="237.5" x2="380.5" y1="395" y2="395"/><line style="stroke:#181818;stroke-width:0.5;" x1="237.5" x2="380.5" y1="403" y2="403"/><ellipse cx="247.5" cy="417.3047" fill="#84BE84" rx="3" ry="3" style="stroke:#038048;stroke-width:1.0;"/><text fill="#000000" font-family="sans-serif" font-size="14" lengthAdjust="spacing" textLength="85" x="256.5" y="421.5332">saveBranch()</text></g><!--MD5=[53ae8b34bebe44116eb8626f99f3fe78]
class Runnable--><g id="elem_Runnable"><rect codeLine="41" fill="#F1F1F1" height="65.6094" id="Runnable" rx="2.5" ry="2.5" style="stroke:#181818;stroke-width:0.5;" width="93" x="210.5" y="15.5"/><ellipse cx="225.5" cy="31.5" fill="#B4A7E5" rx="11" ry="11" style="stroke:#181818;stroke-width:1.0;"/><path d="M226.4531,28.1406 L226.4531,34.7969 L228.1719,34.7969 Q228.7813,34.7969 229.0469,35.0313 Q229.3125,35.2656 229.3125,35.6563 Q229.3125,36.0313 229.0469,36.2656 Q228.7813,36.5 228.1719,36.5 L223.0313,36.5 Q222.4219,36.5 222.1563,36.2656 Q221.8906,36.0313 221.8906,35.6406 Q221.8906,35.2656 222.1563,35.0313 Q222.4219,34.7969 223.0313,34.7969 L224.75,34.7969 L224.75,28.1406 L223.0313,28.1406 Q222.4219,28.1406 222.1563,27.9063 Q221.8906,27.6719 221.8906,27.2813 Q221.8906,26.9063 222.1563,26.6719 Q222.4219,26.4375 223.0313,26.4375 L228.1719,26.4375 Q228.7813,26.4375 229.0469,26.6719 Q229.3125,26.9063 229.3125,27.2813 Q229.3125,27.6719 229.0469,27.9063 Q228.7813,28.1406 228.1719,28.1406 L226.4531,28.1406 Z " fill="#000000"/><text fill="#000000" font-family="sans-serif" font-size="14" font-style="italic" lengthAdjust="spacing" textLength="61" x="239.5" y="37.2285">Runnable</text><line style="stroke:#181818;stroke-width:0.5;" x1="211.5" x2="302.5" y1="47.5" y2="47.5"/><line style="stroke:#181818;stroke-width:0.5;" x1="211.5" x2="302.5" y1="55.5" y2="55.5"/><ellipse cx="221.5" cy="69.8047" fill="#84BE84" rx="3" ry="3" style="stroke:#038048;stroke-width:1.0;"/><text fill="#000000" font-family="sans-serif" font-size="14" lengthAdjust="spacing" textLength="31" x="230.5" y="74.0332">run()</text></g><!--MD5=[112dfd65bfeb960ec13940c4adddaa45]
reverse link RegisterBranchUI to Runnable--><g id="link_RegisterBranchUI_Runnable"><path codeLine="45" d="M195.19,48.5 C200.23,48.5 205.26,48.5 210.3,48.5 " fill="none" id="RegisterBranchUI-backto-Runnable" style="stroke:#181818;stroke-width:1.0;"/><polygon fill="none" points="195.12,55.5,175.12,48.5,195.12,41.5,195.12,55.5" style="stroke:#181818;stroke-width:1.0;"/></g><!--MD5=[7757b8a23bd3a4a42db7512d976d301b]
link RegisterBranchUI to RegisterBranchController--><g id="link_RegisterBranchUI_RegisterBranchController"><path codeLine="46" d="M104,90.28 C104,107.24 104,127 104,144.47 " fill="none" id="RegisterBranchUI-to-RegisterBranchController" style="stroke:#181818;stroke-width:1.0;"/><polygon fill="#181818" points="104,149.81,108,140.81,104,144.81,100,140.81,104,149.81" style="stroke:#181818;stroke-width:1.0;"/></g><!--MD5=[2a0c4dd630c4309f8c44fc29d60610f0]
link RegisterBranchController to Branch--><g id="link_RegisterBranchController_Branch"><path codeLine="47" d="M104,233.48 C104,249.32 104,268.27 104,287.51 " fill="none" id="RegisterBranchController-to-Branch" style="stroke:#181818;stroke-width:1.0;"/><polygon fill="#181818" points="104,292.94,108,283.94,104,287.94,100,283.94,104,292.94" style="stroke:#181818;stroke-width:1.0;"/></g><!--MD5=[20eedede0986e0757602d72f93252a6a]
link Branch to BranchRepository--><g id="link_Branch_BranchRepository"><path codeLine="48" d="M201.29,396 C211.21,396 221.12,396 231.03,396 " fill="none" id="Branch-to-BranchRepository" style="stroke:#181818;stroke-width:1.0;"/><polygon fill="#181818" points="236.21,396,227.21,392,231.21,396,227.21,400,236.21,396" style="stroke:#181818;stroke-width:1.0;"/></g><!--MD5=[328e1f15a4716f4a8a29d1234458c7d5]
@startuml

class Branch {

    - int ID
    - String name
    - String location
    - int phoneNumber
    - String email


    + checkIfDataIsNull()
    + checkNameLength()
    + checkValidEmail()
    + checkValidPhoneNumber()



}

class RegisterBranchUI {

    - controller
    + registerBranch()

}

class RegisterBranchController {

    - branchRepository
    + createBranch()
}

class BranchRepository {

    + saveBranch()
}




Interface Runnable {
    + run()
}

Runnable -left-|> RegisterBranchUI
RegisterBranchUI - -> RegisterBranchController
RegisterBranchController - -> Branch
Branch -right-> BranchRepository


@enduml

PlantUML version 1.2022.7(Mon Aug 22 18:01:30 BST 2022)
(GPL source distribution)
Java Runtime: Java(TM) SE Runtime Environment
JVM: Java HotSpot(TM) 64-Bit Server VM
Default Encoding: Cp1252
Language: pt
Country: PT
--></g></svg>