<?xml version="1.0" encoding="UTF-8" standalone="no"?><svg xmlns="http://www.w3.org/2000/svg" xmlns:xlink="http://www.w3.org/1999/xlink" contentStyleType="text/css" height="636px" preserveAspectRatio="none" style="width:507px;height:636px;background:#FFFFFF;" version="1.1" viewBox="0 0 507 636" width="507px" zoomAndPan="magnify"><defs/><g><rect height="27.6094" style="stroke:#00000000;stroke-width:1.0;fill:none;" width="157" x="168.185" y="5"/><text fill="#000000" font-family="sans-serif" font-size="14" font-weight="bold" lengthAdjust="spacing" textLength="147" x="173.185" y="24.5332">US014 Domain Model</text><g id="elem_Client"><rect fill="#F1F1F1" height="37.6094" style="stroke:#181818;stroke-width:0.5;" width="50" x="65.87" y="46.9658"/><text fill="#000000" font-family="sans-serif" font-size="14" lengthAdjust="spacing" textLength="36" x="72.87" y="63.499">Client</text><line style="stroke:#181818;stroke-width:0.5;" x1="66.87" x2="114.87" y1="68.5752" y2="68.5752"/></g><g id="elem_AppointmentRequest"><rect fill="#F1F1F1" height="37.6094" style="stroke:#181818;stroke-width:0.5;" width="146" x="223.87" y="46.9658"/><text fill="#000000" font-family="sans-serif" font-size="14" lengthAdjust="spacing" textLength="132" x="230.87" y="63.499">AppointmentRequest</text><line style="stroke:#181818;stroke-width:0.5;" x1="224.87" x2="368.87" y1="68.5752" y2="68.5752"/></g><g id="elem_Property"><rect fill="#F1F1F1" height="37.6094" style="stroke:#181818;stroke-width:0.5;" width="68" x="299.87" y="394.9658"/><text fill="#000000" font-family="sans-serif" font-size="14" lengthAdjust="spacing" textLength="54" x="306.87" y="411.499">Property</text><line style="stroke:#181818;stroke-width:0.5;" x1="300.87" x2="366.87" y1="416.5752" y2="416.5752"/></g><g id="elem_House"><rect fill="#F1F1F1" height="37.6094" style="stroke:#181818;stroke-width:0.5;" width="54" x="332.87" y="493.9658"/><text fill="#000000" font-family="sans-serif" font-size="14" lengthAdjust="spacing" textLength="40" x="339.87" y="510.499">House</text><line style="stroke:#181818;stroke-width:0.5;" x1="333.87" x2="385.87" y1="515.5752" y2="515.5752"/></g><g id="elem_Apartment"><rect fill="#F1F1F1" height="37.6094" style="stroke:#181818;stroke-width:0.5;" width="79" x="422.37" y="493.9658"/><text fill="#000000" font-family="sans-serif" font-size="14" lengthAdjust="spacing" textLength="65" x="429.37" y="510.499">Apartment</text><line style="stroke:#181818;stroke-width:0.5;" x1="423.37" x2="500.37" y1="515.5752" y2="515.5752"/></g><g id="elem_Land"><rect fill="#F1F1F1" height="37.6094" style="stroke:#181818;stroke-width:0.5;" width="46" x="251.87" y="493.9658"/><text fill="#000000" font-family="sans-serif" font-size="14" lengthAdjust="spacing" textLength="32" x="258.87" y="510.499">Land</text><line style="stroke:#181818;stroke-width:0.5;" x1="252.87" x2="296.87" y1="515.5752" y2="515.5752"/></g><g id="elem_Agent"><rect fill="#F1F1F1" height="37.6094" style="stroke:#181818;stroke-width:0.5;" width="51" x="195.37" y="162.9658"/><text fill="#000000" font-family="sans-serif" font-size="14" lengthAdjust="spacing" textLength="37" x="202.37" y="179.499">Agent</text><line style="stroke:#181818;stroke-width:0.5;" x1="196.37" x2="245.37" y1="184.5752" y2="184.5752"/></g><g id="elem_Visit"><rect fill="#F1F1F1" height="37.6094" style="stroke:#181818;stroke-width:0.5;" width="40" x="64.87" y="278.9658"/><text fill="#000000" font-family="sans-serif" font-size="14" lengthAdjust="spacing" textLength="26" x="71.87" y="295.499">Visit</text><line style="stroke:#181818;stroke-width:0.5;" x1="65.87" x2="103.87" y1="300.5752" y2="300.5752"/></g><g id="elem_Announcement"><rect fill="#F1F1F1" height="37.6094" style="stroke:#181818;stroke-width:0.5;" width="109" x="140.37" y="278.9658"/><text fill="#000000" font-family="sans-serif" font-size="14" lengthAdjust="spacing" textLength="95" x="147.37" y="295.499">Announcement</text><line style="stroke:#181818;stroke-width:0.5;" x1="141.37" x2="248.37" y1="300.5752" y2="300.5752"/></g><g id="elem_Commission"><rect fill="#F1F1F1" height="37.6094" style="stroke:#181818;stroke-width:0.5;" width="90" x="126.87" y="493.9658"/><text fill="#000000" font-family="sans-serif" font-size="14" lengthAdjust="spacing" textLength="76" x="133.87" y="510.499">Commission</text><line style="stroke:#181818;stroke-width:0.5;" x1="127.87" x2="215.87" y1="515.5752" y2="515.5752"/></g><g id="elem_FixedCommission"><rect fill="#F1F1F1" height="37.6094" style="stroke:#181818;stroke-width:0.5;" width="124" x="20.87" y="592.9658"/><text fill="#000000" font-family="sans-serif" font-size="14" lengthAdjust="spacing" textLength="110" x="27.87" y="609.499">FixedCommission</text><line style="stroke:#181818;stroke-width:0.5;" x1="21.87" x2="143.87" y1="614.5752" y2="614.5752"/></g><g id="elem_PercentageCommission"><rect fill="#F1F1F1" height="37.6094" style="stroke:#181818;stroke-width:0.5;" width="163" x="180.37" y="592.9658"/><text fill="#000000" font-family="sans-serif" font-size="14" lengthAdjust="spacing" textLength="149" x="187.37" y="609.499">PercentageCommission</text><line style="stroke:#181818;stroke-width:0.5;" x1="181.37" x2="342.37" y1="614.5752" y2="614.5752"/></g><g id="elem_Response"><rect fill="#F1F1F1" height="37.6094" style="stroke:#181818;stroke-width:0.5;" width="78" x="284.87" y="278.9658"/><text fill="#000000" font-family="sans-serif" font-size="14" lengthAdjust="spacing" textLength="64" x="291.87" y="295.499">Response</text><line style="stroke:#181818;stroke-width:0.5;" x1="285.87" x2="361.87" y1="300.5752" y2="300.5752"/></g><!--MD5=[e0414d649a3c55668dad8e7a55899505]
link Client to AppointmentRequest--><g id="link_Client_AppointmentRequest"><path codeLine="53" d="M116.13,65.9658 C141.53,65.9658 181.99,65.9658 218.21,65.9658 " fill="none" id="Client-to-AppointmentRequest" style="stroke:#181818;stroke-width:1.0;"/><polygon fill="#181818" points="223.52,65.9658,214.52,61.9658,218.52,65.9658,214.52,69.9658,223.52,65.9658" style="stroke:#181818;stroke-width:1.0;"/><text fill="#000000" font-family="sans-serif" font-size="13" lengthAdjust="spacing" textLength="43" x="148.37" y="59.4609">creates</text></g><!--MD5=[744e2e0baadd2550e0cca601b5006160]
link AppointmentRequest to Property--><g id="link_AppointmentRequest_Property"><path codeLine="54" d="M310.57,85.3458 C316.96,94.1658 324.53,104.9558 330.87,114.9658 C343.96,135.6458 349.38,140.0058 357.87,162.9658 C376.09,212.2658 375.73,226.6558 380.87,278.9658 C382.52,295.7758 384.68,300.5158 380.87,316.9658 C374.17,345.8958 357.49,376.1558 345.91,394.7958 " fill="none" id="AppointmentRequest-Property" style="stroke:#181818;stroke-width:1.0;"/><polygon fill="#000000" points="383.4373,245.1093,385.331,235.7892,379.4911,236.4561,383.4373,245.1093" style="stroke:#000000;stroke-width:1.0;"/><text fill="#000000" font-family="sans-serif" font-size="13" lengthAdjust="spacing" textLength="60" x="391.87" y="245.4609">belongs to</text><text fill="#000000" font-family="sans-serif" font-size="13" lengthAdjust="spacing" textLength="7" x="306.1838" y="105.9522">1</text><text fill="#000000" font-family="sans-serif" font-size="13" lengthAdjust="spacing" textLength="7" x="341.5254" y="384.0838">1</text></g><!--MD5=[850071a18dc7ad6c377b2032da142e97]
reverse link Property to House--><g id="link_Property_House"><path codeLine="55" d="M344.05,452.9458 C347.82,467.0058 351.92,482.3058 355,493.8058 " fill="none" id="Property-backto-House" style="stroke:#181818;stroke-width:1.0;"/><polygon fill="none" points="337.18,454.3458,338.76,433.2058,350.7,450.7158,337.18,454.3458" style="stroke:#181818;stroke-width:1.0;"/></g><!--MD5=[71833479a25abe5b48a215f80abb6d80]
reverse link Property to Apartment--><g id="link_Property_Apartment"><path codeLine="56" d="M373.74,445.1758 C394.72,461.0858 419.77,480.0658 437.79,493.7158 " fill="none" id="Property-backto-Apartment" style="stroke:#181818;stroke-width:1.0;"/><polygon fill="none" points="369.36,450.6458,357.65,432.9858,377.81,439.4858,369.36,450.6458" style="stroke:#181818;stroke-width:1.0;"/></g><!--MD5=[1df9c5af9dc88862e781d75dcf66ac89]
reverse link Property to Land--><g id="link_Property_Land"><path codeLine="57" d="M312.27,450.4758 C303.32,465.1958 293.32,481.6258 285.92,493.8058 " fill="none" id="Property-backto-Land" style="stroke:#181818;stroke-width:1.0;"/><polygon fill="none" points="306.4,446.6558,322.77,433.2058,318.36,453.9358,306.4,446.6558" style="stroke:#181818;stroke-width:1.0;"/></g><!--MD5=[9649b8797272edd640db52d444015bc7]
link AppointmentRequest to Agent--><g id="link_AppointmentRequest_Agent"><path codeLine="58" d="M250.06,84.9758 C237.35,92.2758 225.11,102.0958 217.87,114.9658 C210.62,127.8558 211.43,144.4958 214.02,157.8358 " fill="none" id="AppointmentRequest-to-Agent" style="stroke:#181818;stroke-width:1.0;"/><polygon fill="#181818" points="215.14,162.9658,217.1462,153.3235,214.0826,158.0789,209.3271,155.0153,215.14,162.9658" style="stroke:#181818;stroke-width:1.0;"/><polygon fill="#000000" points="220.6531,128.6233,227.2977,121.8189,222.0292,119.2128,220.6531,128.6233" style="stroke:#000000;stroke-width:1.0;"/><text fill="#000000" font-family="sans-serif" font-size="13" lengthAdjust="spacing" textLength="67" x="231.87" y="129.4609">assigned to</text></g><!--MD5=[3a8b1008c60232832cfabf708a22e85c]
link Client to Response--><g id="link_Client_Response"><path codeLine="60" d="M71.57,85.1858 C45.77,111.8258 6,162.4058 30.87,200.9658 C90.74,293.8058 160.3,249.8858 266.87,278.9658 C271.04,280.1058 275.37,281.3458 279.69,282.6358 " fill="none" id="Client-to-Response" style="stroke:#181818;stroke-width:1.0;"/><polygon fill="#181818" points="284.74,284.1658,277.2777,277.7382,279.9528,282.7225,274.9685,285.3976,284.74,284.1658" style="stroke:#181818;stroke-width:1.0;"/><text fill="#000000" font-family="sans-serif" font-size="13" lengthAdjust="spacing" textLength="47" x="31.87" y="187.4609">receives</text></g><!--MD5=[d6c0a9db8862587c6e7fecab77d6854e]
link AppointmentRequest to Response--><g id="link_AppointmentRequest_Response"><path codeLine="61" d="M299.68,85.1758 C301.02,94.1358 302.61,105.1058 303.87,114.9658 C311.14,171.8358 318.09,238.9058 321.57,273.5758 " fill="none" id="AppointmentRequest-to-Response" style="stroke:#181818;stroke-width:1.0;"/><polygon fill="#181818" points="322.09,278.8558,325.1693,269.5007,321.5897,273.8809,317.2094,270.3013,322.09,278.8558" style="stroke:#181818;stroke-width:1.0;"/><polygon fill="#000000" points="319.4471,187.1082,321.3224,177.7844,315.4839,178.4627,319.4471,187.1082" style="stroke:#000000;stroke-width:1.0;"/><text fill="#000000" font-family="sans-serif" font-size="13" lengthAdjust="spacing" textLength="21" x="327.87" y="187.4609">has</text></g><!--MD5=[c40e99726b8888f3e466af52d884fa00]
link Agent to Response--><g id="link_Agent_Response"><path codeLine="62" d="M226.01,201.0258 C230.73,215.2358 238.84,234.9058 250.87,248.9658 C259.92,259.5358 271.85,268.6958 283.45,276.0958 " fill="none" id="Agent-to-Response" style="stroke:#181818;stroke-width:1.0;"/><polygon fill="#181818" points="287.7,278.7458,282.1757,270.5922,283.456,276.1023,277.9459,277.3826,287.7,278.7458" style="stroke:#181818;stroke-width:1.0;"/><text fill="#000000" font-family="sans-serif" font-size="13" lengthAdjust="spacing" textLength="47" x="251.87" y="245.4609">provides</text></g><!--MD5=[e030c33ac4ae24fb59db8442034a0731]
link Client to Visit--><g id="link_Client_Visit"><path codeLine="64" d="M90.4,85.0158 C89.32,126.3158 86.68,227.6558 85.48,273.6258 " fill="none" id="Client-to-Visit" style="stroke:#181818;stroke-width:1.0;"/><polygon fill="#181818" points="85.35,278.6858,89.6054,269.8037,85.4928,273.6879,81.6087,269.5753,85.35,278.6858" style="stroke:#181818;stroke-width:1.0;"/><text fill="#000000" font-family="sans-serif" font-size="13" lengthAdjust="spacing" textLength="50" x="89.87" y="187.4609">requests</text></g><!--MD5=[4cc8c4297a19adfebf71fce5efe4a72b]
link Visit to Property--><g id="link_Visit_Property"><path codeLine="65" d="M105.06,312.6658 C126.8,327.0058 162.74,349.5458 195.87,364.9658 C228.13,379.9758 266.47,392.9458 294.54,401.6058 " fill="none" id="Visit-to-Property" style="stroke:#181818;stroke-width:1.0;"/><polygon fill="#181818" points="299.66,403.1758,292.233,396.7075,294.8808,401.7064,289.8819,404.3542,299.66,403.1758" style="stroke:#181818;stroke-width:1.0;"/><polygon fill="#000000" points="205.3962,358.2661,198.457,351.7624,195.9595,357.0832,205.3962,358.2661" style="stroke:#000000;stroke-width:1.0;"/><text fill="#000000" font-family="sans-serif" font-size="13" lengthAdjust="spacing" textLength="37" x="209.87" y="361.4609">to visit</text></g><!--MD5=[48d208335141bf83390adc9fb08c984f]
link Agent to Visit--><g id="link_Agent_Visit"><path codeLine="66" d="M199.32,201.0258 C174.72,221.6458 134.59,255.2958 108.97,276.7658 " fill="none" id="Agent-to-Visit" style="stroke:#181818;stroke-width:1.0;"/><polygon fill="#181818" points="104.99,280.1058,114.4608,277.4032,108.8264,276.8993,109.3303,271.2649,104.99,280.1058" style="stroke:#181818;stroke-width:1.0;"/><polygon fill="#000000" points="163.0383,243.3537,171.858,239.7952,168.0819,235.2907,163.0383,243.3537" style="stroke:#000000;stroke-width:1.0;"/><text fill="#000000" font-family="sans-serif" font-size="13" lengthAdjust="spacing" textLength="50" x="175.87" y="245.4609">validates</text></g><!--MD5=[a363a729a326534fa72ee010b5a18559]
link Announcement to Property--><g id="link_Announcement_Property"><path codeLine="68" d="M216.89,317.0258 C242.77,338.2458 285.46,373.2658 311.49,394.6058 " fill="none" id="Announcement-Property" style="stroke:#181818;stroke-width:1.0;"/><polygon fill="#000000" points="280.7362,359.3122,275.6058,351.3041,271.8786,355.849,280.7362,359.3122" style="stroke:#000000;stroke-width:1.0;"/><text fill="#000000" font-family="sans-serif" font-size="13" lengthAdjust="spacing" textLength="49" x="285.87" y="361.4609">contains</text><text fill="#000000" font-family="sans-serif" font-size="13" lengthAdjust="spacing" textLength="7" x="215.0988" y="338.2359">1</text><text fill="#000000" font-family="sans-serif" font-size="13" lengthAdjust="spacing" textLength="7" x="296.8878" y="384.1729">1</text></g><!--MD5=[a39ed1df5cccef5e67f222af5f38964f]
link Announcement to Commission--><g id="link_Announcement_Commission"><path codeLine="69" d="M192.91,317.1258 C188.74,355.7158 179.01,445.8458 174.39,488.6258 " fill="none" id="Announcement-to-Commission" style="stroke:#181818;stroke-width:1.0;"/><polygon fill="#181818" points="173.83,493.8558,178.7591,485.3292,174.3586,488.8838,170.804,484.4834,173.83,493.8558" style="stroke:#181818;stroke-width:1.0;"/><polygon fill="#000000" points="189.3332,419.1127,193.2262,410.4354,187.3824,409.8044,189.3332,419.1127" style="stroke:#000000;stroke-width:1.0;"/><text fill="#000000" font-family="sans-serif" font-size="13" lengthAdjust="spacing" textLength="32" x="198.87" y="419.4609">has a</text><text fill="#000000" font-family="sans-serif" font-size="13" lengthAdjust="spacing" textLength="7" x="184.4426" y="338.0199">1</text><text fill="#000000" font-family="sans-serif" font-size="13" lengthAdjust="spacing" textLength="7" x="166.3584" y="483.1621">1</text></g><!--MD5=[700255553749c290e03ddfad1db43c97]
reverse link Commission to FixedCommission--><g id="link_Commission_FixedCommission"><path codeLine="71" d="M141.52,547.0458 C127.47,562.3558 111.33,579.9558 99.54,592.8058 " fill="none" id="Commission-backto-FixedCommission" style="stroke:#181818;stroke-width:1.0;"/><polygon fill="none" points="136.45,542.2158,155.13,532.2058,146.77,551.6758,136.45,542.2158" style="stroke:#181818;stroke-width:1.0;"/></g><!--MD5=[ef3ad7b3db23a8f3947b39ed967078b8]
reverse link Commission to PercentageCommission--><g id="link_Commission_PercentageCommission"><path codeLine="72" d="M202.56,547.0458 C216.76,562.3558 233.09,579.9558 245.02,592.8058 " fill="none" id="Commission-backto-PercentageCommission" style="stroke:#181818;stroke-width:1.0;"/><polygon fill="none" points="197.27,551.6358,188.8,532.2058,207.53,542.1158,197.27,551.6358" style="stroke:#181818;stroke-width:1.0;"/></g><!--MD5=[ad1b5ee25296f1ad3088fa2ff569ed0c]
@startuml
skinparam monochrome true
        skinparam packageStyle rectangle
        skinparam shadowing false

        'left to right direction

        skinparam classAttributeIconSize 0

        hide circle
        hide methods

        title US014 Domain Model

        object Client {
        }

        object AppointmentRequest {
        }

        object Property {
        }

        object House {
        }

        object Apartment {
        }

        object Land {
        }

        object Agent {
        }

        object Visit {
        }

        object Announcement {
        }

        object Commission {
        }

        object FixedCommission {
        }

        object PercentageCommission {
        }

        object Response {
        }

        Client -> AppointmentRequest: creates
        AppointmentRequest "1" - - "1" Property: belongs to >
        Property <|- - House
        Property <|- - Apartment
        Property <|- - Land
        AppointmentRequest - -> Agent: assigned to >

        Client - -> Response: receives
        AppointmentRequest - -> Response: has >
        Agent - -> Response: provides

        Client -> Visit: requests
        Visit - -> Property: to visit >
        Agent - -> Visit: validates >

        Announcement "1" - - "1" Property: contains >
        Announcement "1" - - -> "1" Commission: has a >

        Commission <|- - FixedCommission
        Commission <|- - PercentageCommission

@enduml

@startuml
skinparam monochrome true
        skinparam packageStyle rectangle
        skinparam shadowing false


        skinparam classAttributeIconSize 0

        hide circle
        hide methods

        title US014 Domain Model

        object Client {
        }

        object AppointmentRequest {
        }

        object Property {
        }

        object House {
        }

        object Apartment {
        }

        object Land {
        }

        object Agent {
        }

        object Visit {
        }

        object Announcement {
        }

        object Commission {
        }

        object FixedCommission {
        }

        object PercentageCommission {
        }

        object Response {
        }

        Client -> AppointmentRequest: creates
        AppointmentRequest "1" - - "1" Property: belongs to >
        Property <|- - House
        Property <|- - Apartment
        Property <|- - Land
        AppointmentRequest - -> Agent: assigned to >

        Client - -> Response: receives
        AppointmentRequest - -> Response: has >
        Agent - -> Response: provides

        Client -> Visit: requests
        Visit - -> Property: to visit >
        Agent - -> Visit: validates >

        Announcement "1" - - "1" Property: contains >
        Announcement "1" - - -> "1" Commission: has a >

        Commission <|- - FixedCommission
        Commission <|- - PercentageCommission

@enduml

PlantUML version 1.2022.4(Sat Apr 09 14:29:17 BST 2022)
(GPL source distribution)
Java Runtime: OpenJDK Runtime Environment
JVM: OpenJDK 64-Bit Server VM
Default Encoding: MS932
Language: en
Country: US
--></g></svg>