<?xml version="1.0" encoding="UTF-8" standalone="no"?><svg xmlns="http://www.w3.org/2000/svg" xmlns:xlink="http://www.w3.org/1999/xlink" contentStyleType="text/css" height="666px" preserveAspectRatio="none" style="width:884px;height:666px;background:#FFFFFF;" version="1.1" viewBox="0 0 884 666" width="884px" zoomAndPan="magnify"><defs/><g><rect height="29.0791" style="stroke:#00000000;stroke-width:1.0;fill:none;" width="157" x="356.615" y="5"/><text fill="#000000" font-family="sans-serif" font-size="14" font-weight="bold" lengthAdjust="spacing" textLength="147" x="361.615" y="25.6953">US014 Domain Model</text><g id="elem_Client"><rect fill="#F1F1F1" height="39.0791" style="stroke:#181818;stroke-width:0.5;" width="50" x="92.23" y="49.2212"/><text fill="#000000" font-family="sans-serif" font-size="14" lengthAdjust="spacing" textLength="36" x="99.23" y="66.9165">Client</text><line style="stroke:#181818;stroke-width:0.5;" x1="93.23" x2="141.23" y1="72.3003" y2="72.3003"/></g><g id="elem_AgentPhoneNumber"><rect fill="#F1F1F1" height="39.0791" style="stroke:#181818;stroke-width:0.5;" width="141" x="170.73" y="167.2212"/><text fill="#000000" font-family="sans-serif" font-size="14" lengthAdjust="spacing" textLength="127" x="177.73" y="184.9165">AgentPhoneNumber</text><line style="stroke:#181818;stroke-width:0.5;" x1="171.73" x2="310.73" y1="190.3003" y2="190.3003"/></g><g id="elem_AgentName"><rect fill="#F1F1F1" height="39.0791" style="stroke:#181818;stroke-width:0.5;" width="87" x="346.73" y="167.2212"/><text fill="#000000" font-family="sans-serif" font-size="14" lengthAdjust="spacing" textLength="73" x="353.73" y="184.9165">AgentName</text><line style="stroke:#181818;stroke-width:0.5;" x1="347.73" x2="432.73" y1="190.3003" y2="190.3003"/></g><g id="elem_AppointmentRequest"><rect fill="#F1F1F1" height="39.0791" style="stroke:#181818;stroke-width:0.5;" width="146" x="401.23" y="49.2212"/><text fill="#000000" font-family="sans-serif" font-size="14" lengthAdjust="spacing" textLength="132" x="408.23" y="66.9165">AppointmentRequest</text><line style="stroke:#181818;stroke-width:0.5;" x1="402.23" x2="546.23" y1="72.3003" y2="72.3003"/></g><g id="elem_Property"><rect fill="#F1F1F1" height="39.0791" style="stroke:#181818;stroke-width:0.5;" width="68" x="398.23" y="521.2212"/><text fill="#000000" font-family="sans-serif" font-size="14" lengthAdjust="spacing" textLength="54" x="405.23" y="538.9165">Property</text><line style="stroke:#181818;stroke-width:0.5;" x1="399.23" x2="465.23" y1="544.3003" y2="544.3003"/></g><g id="elem_House"><rect fill="#F1F1F1" height="39.0791" style="stroke:#181818;stroke-width:0.5;" width="54" x="303.23" y="621.2212"/><text fill="#000000" font-family="sans-serif" font-size="14" lengthAdjust="spacing" textLength="40" x="310.23" y="638.9165">House</text><line style="stroke:#181818;stroke-width:0.5;" x1="304.23" x2="356.23" y1="644.3003" y2="644.3003"/></g><g id="elem_Apartment"><rect fill="#F1F1F1" height="39.0791" style="stroke:#181818;stroke-width:0.5;" width="79" x="392.73" y="621.2212"/><text fill="#000000" font-family="sans-serif" font-size="14" lengthAdjust="spacing" textLength="65" x="399.73" y="638.9165">Apartment</text><line style="stroke:#181818;stroke-width:0.5;" x1="393.73" x2="470.73" y1="644.3003" y2="644.3003"/></g><g id="elem_Land"><rect fill="#F1F1F1" height="39.0791" style="stroke:#181818;stroke-width:0.5;" width="46" x="507.23" y="621.2212"/><text fill="#000000" font-family="sans-serif" font-size="14" lengthAdjust="spacing" textLength="32" x="514.23" y="638.9165">Land</text><line style="stroke:#181818;stroke-width:0.5;" x1="508.23" x2="552.23" y1="644.3003" y2="644.3003"/></g><g id="elem_Agent"><rect fill="#F1F1F1" height="39.0791" style="stroke:#181818;stroke-width:0.5;" width="51" x="364.73" y="285.2212"/><text fill="#000000" font-family="sans-serif" font-size="14" lengthAdjust="spacing" textLength="37" x="371.73" y="302.9165">Agent</text><line style="stroke:#181818;stroke-width:0.5;" x1="365.73" x2="414.73" y1="308.3003" y2="308.3003"/></g><g id="elem_Visit"><rect fill="#F1F1F1" height="39.0791" style="stroke:#181818;stroke-width:0.5;" width="40" x="318.23" y="403.2212"/><text fill="#000000" font-family="sans-serif" font-size="14" lengthAdjust="spacing" textLength="26" x="325.23" y="420.9165">Visit</text><line style="stroke:#181818;stroke-width:0.5;" x1="319.23" x2="357.23" y1="426.3003" y2="426.3003"/></g><g id="elem_Announcement"><rect fill="#F1F1F1" height="39.0791" style="stroke:#181818;stroke-width:0.5;" width="109" x="692.73" y="167.2212"/><text fill="#000000" font-family="sans-serif" font-size="14" lengthAdjust="spacing" textLength="95" x="699.73" y="184.9165">Announcement</text><line style="stroke:#181818;stroke-width:0.5;" x1="693.73" x2="800.73" y1="190.3003" y2="190.3003"/></g><g id="elem_Commission"><rect fill="#F1F1F1" height="39.0791" style="stroke:#181818;stroke-width:0.5;" width="90" x="682.23" y="403.2212"/><text fill="#000000" font-family="sans-serif" font-size="14" lengthAdjust="spacing" textLength="76" x="689.23" y="420.9165">Commission</text><line style="stroke:#181818;stroke-width:0.5;" x1="683.23" x2="771.23" y1="426.3003" y2="426.3003"/></g><g id="elem_FixedCommission"><rect fill="#F1F1F1" height="39.0791" style="stroke:#181818;stroke-width:0.5;" width="124" x="716.23" y="521.2212"/><text fill="#000000" font-family="sans-serif" font-size="14" lengthAdjust="spacing" textLength="110" x="723.23" y="538.9165">FixedCommission</text><line style="stroke:#181818;stroke-width:0.5;" x1="717.23" x2="839.23" y1="544.3003" y2="544.3003"/></g><g id="elem_PercentageCommission"><rect fill="#F1F1F1" height="39.0791" style="stroke:#181818;stroke-width:0.5;" width="163" x="517.73" y="521.2212"/><text fill="#000000" font-family="sans-serif" font-size="14" lengthAdjust="spacing" textLength="149" x="524.73" y="538.9165">PercentageCommission</text><line style="stroke:#181818;stroke-width:0.5;" x1="518.73" x2="679.73" y1="544.3003" y2="544.3003"/></g><g id="elem_Response"><rect fill="#F1F1F1" height="39.0791" style="stroke:#181818;stroke-width:0.5;" width="78" x="404.23" y="403.2212"/><text fill="#000000" font-family="sans-serif" font-size="14" lengthAdjust="spacing" textLength="64" x="411.23" y="420.9165">Response</text><line style="stroke:#181818;stroke-width:0.5;" x1="405.23" x2="481.23" y1="426.3003" y2="426.3003"/></g><!--MD5=[e0414d649a3c55668dad8e7a55899505]
link Client to AppointmentRequest--><g id="link_Client_AppointmentRequest"><path codeLine="61" d="M142.33,68.7212 C194.21,68.7212 315.09,68.7212 395.75,68.7212 " fill="none" id="Client-to-AppointmentRequest" style="stroke:#181818;stroke-width:1.0;"/><polygon fill="#181818" points="401,68.7212,392,64.7212,396,68.7212,392,72.7212,401,68.7212" style="stroke:#181818;stroke-width:1.0;"/><text fill="#000000" font-family="sans-serif" font-size="13" lengthAdjust="spacing" textLength="43" x="250.23" y="62.2954">creates</text></g><!--MD5=[aea1389efdb83ffcfbcee92a5e402b14]
link AppointmentRequest to Announcement--><g id="link_AppointmentRequest_Announcement"><path codeLine="62" d="M547.66,80.5412 C584.35,87.8612 628.6,99.6712 665.23,118.2212 C689.91,130.7112 713.82,151.7412 729.39,167.0112 " fill="none" id="AppointmentRequest-Announcement" style="stroke:#181818;stroke-width:1.0;"/><polygon fill="#000000" points="703.745,130.2276,696.8401,123.6875,694.3146,128.9952,703.745,130.2276" style="stroke:#000000;stroke-width:1.0;"/><text fill="#000000" font-family="sans-serif" font-size="13" lengthAdjust="spacing" textLength="60" x="708.23" y="133.7954">belongs to</text><text fill="#000000" font-family="sans-serif" font-size="13" lengthAdjust="spacing" textLength="7" x="555.2328" y="78.4736">1</text><text fill="#000000" font-family="sans-serif" font-size="13" lengthAdjust="spacing" textLength="7" x="715.8546" y="156.0437">1</text></g><!--MD5=[850071a18dc7ad6c377b2032da142e97]
reverse link Property to House--><g id="link_Property_House"><path codeLine="63" d="M398.08,574.5312 C381.9,590.0812 363.17,608.0812 349.49,621.2112 " fill="none" id="Property-backto-House" style="stroke:#181818;stroke-width:1.0;"/><polygon fill="none" points="393.29,569.4212,412.56,560.6212,402.99,579.5212,393.29,569.4212" style="stroke:#181818;stroke-width:1.0;"/></g><!--MD5=[71833479a25abe5b48a215f80abb6d80]
reverse link Property to Apartment--><g id="link_Property_Apartment"><path codeLine="64" d="M432.23,580.9012 C432.23,594.8212 432.23,609.8412 432.23,621.2112 " fill="none" id="Property-backto-Apartment" style="stroke:#181818;stroke-width:1.0;"/><polygon fill="none" points="425.23,580.6212,432.23,560.6212,439.23,580.6212,425.23,580.6212" style="stroke:#181818;stroke-width:1.0;"/></g><!--MD5=[1df9c5af9dc88862e781d75dcf66ac89]
reverse link Property to Land--><g id="link_Property_Land"><path codeLine="65" d="M465.53,575.0112 C480.96,590.4512 498.72,608.2112 511.73,621.2112 " fill="none" id="Property-backto-Land" style="stroke:#181818;stroke-width:1.0;"/><polygon fill="none" points="460.32,579.7112,451.13,560.6212,470.22,569.8112,460.32,579.7112" style="stroke:#181818;stroke-width:1.0;"/></g><!--MD5=[9649b8797272edd640db52d444015bc7]
link AppointmentRequest to Agent--><g id="link_AppointmentRequest_Agent"><path codeLine="66" d="M480.07,88.3212 C490.03,123.8512 506.2,202.5312 473.23,255.2212 C461.42,274.1012 439.37,286.4812 420.96,294.0012 " fill="none" id="AppointmentRequest-to-Agent" style="stroke:#181818;stroke-width:1.0;"/><polygon fill="#181818" points="415.88,295.9912,425.7193,296.4252,420.5341,294.1638,422.7955,288.9786,415.88,295.9912" style="stroke:#181818;stroke-width:1.0;"/><polygon fill="#000000" points="496.849,191.8848,502.1719,184.0034,496.5227,182.3799,496.849,191.8848" style="stroke:#000000;stroke-width:1.0;"/><text fill="#000000" font-family="sans-serif" font-size="13" lengthAdjust="spacing" textLength="67" x="507.23" y="192.7954">assigned to</text></g><!--MD5=[3a8b1008c60232832cfabf708a22e85c]
link Client to Response--><g id="link_Client_Response"><path codeLine="68" d="M119.01,88.5812 C122.28,116.0912 131.08,168.0712 153.23,206.2212 C206.42,297.8112 234.66,315.1512 323.23,373.2212 C346.57,388.5212 375.49,400.3912 399.1,408.5512 " fill="none" id="Client-to-Response" style="stroke:#181818;stroke-width:1.0;"/><polygon fill="#181818" points="404.05,410.2412,396.825,403.548,399.3181,408.6258,394.2403,411.1189,404.05,410.2412" style="stroke:#181818;stroke-width:1.0;"/><text fill="#000000" font-family="sans-serif" font-size="13" lengthAdjust="spacing" textLength="47" x="185.23" y="251.7954">receives</text></g><!--MD5=[d6c0a9db8862587c6e7fecab77d6854e]
link AppointmentRequest to Response--><g id="link_AppointmentRequest_Response"><path codeLine="69" d="M507.08,88.3112 C533.17,105.1412 567.74,132.5712 583.23,167.2212 C590.31,183.0412 588.07,189.5812 583.23,206.2212 C560.23,285.3812 497.5,362.5312 464.37,399.3412 " fill="none" id="AppointmentRequest-to-Response" style="stroke:#181818;stroke-width:1.0;"/><polygon fill="#181818" points="460.87,403.2012,469.88,399.2238,464.2298,399.4983,463.9553,393.8481,460.87,403.2012" style="stroke:#181818;stroke-width:1.0;"/><polygon fill="#000000" points="576.5498,251.0329,580.6919,242.4717,574.8687,241.6721,576.5498,251.0329" style="stroke:#000000;stroke-width:1.0;"/><text fill="#000000" font-family="sans-serif" font-size="13" lengthAdjust="spacing" textLength="21" x="586.23" y="251.7954">has</text></g><!--MD5=[c40e99726b8888f3e466af52d884fa00]
link Agent to Response--><g id="link_Agent_Response"><path codeLine="70" d="M398.75,324.3612 C407.94,344.4812 422.61,376.5812 432.56,398.3712 " fill="none" id="Agent-to-Response" style="stroke:#181818;stroke-width:1.0;"/><polygon fill="#181818" points="434.74,403.1312,434.62,393.2831,432.6538,398.5872,427.3496,396.621,434.74,403.1312" style="stroke:#181818;stroke-width:1.0;"/><text fill="#000000" font-family="sans-serif" font-size="13" lengthAdjust="spacing" textLength="47" x="421.23" y="369.7954">provides</text></g><!--MD5=[246fb8b6f5a7045e40c02e82d5942cf9]
link AppointmentRequest to AgentName--><g id="link_AppointmentRequest_AgentName"><path codeLine="71" d="M460.74,88.3612 C446.04,108.6512 422.53,141.1212 406.74,162.9212 " fill="none" id="AppointmentRequest-to-AgentName" style="stroke:#181818;stroke-width:1.0;"/><polygon fill="#181818" points="403.69,167.1312,412.2206,162.2088,406.6326,163.0887,405.7526,157.5007,403.69,167.1312" style="stroke:#181818;stroke-width:1.0;"/><polygon fill="#000000" points="440.2972,132.1288,447.983,126.5271,443.2225,123.0794,440.2972,132.1288" style="stroke:#000000;stroke-width:1.0;"/><text fill="#000000" font-family="sans-serif" font-size="13" lengthAdjust="spacing" textLength="21" x="452.23" y="133.7954">has</text></g><!--MD5=[888952641843e7ff861d084c4a78d9f4]
link AppointmentRequest to AgentPhoneNumber--><g id="link_AppointmentRequest_AgentPhoneNumber"><path codeLine="72" d="M437.05,88.2312 C395.15,109.0912 327.18,142.9312 283.35,164.7512 " fill="none" id="AppointmentRequest-to-AgentPhoneNumber" style="stroke:#181818;stroke-width:1.0;"/><polygon fill="#181818" points="278.66,167.0912,288.4993,166.6566,283.135,164.8608,284.9307,159.4966,278.66,167.0912" style="stroke:#181818;stroke-width:1.0;"/><polygon fill="#000000" points="372.754,130.3077,382.1609,128.9075,379.5413,123.6456,372.754,130.3077" style="stroke:#000000;stroke-width:1.0;"/><text fill="#000000" font-family="sans-serif" font-size="13" lengthAdjust="spacing" textLength="21" x="386.23" y="133.7954">has</text></g><!--MD5=[76fbbfe27aa72f8ecc22471ea7b37974]
link AgentName to Agent--><g id="link_AgentName_Agent"><path codeLine="73" d="M390.23,206.3612 C390.23,228.0012 390.23,263.5012 390.23,285.1312 " fill="none" id="AgentName-Agent" style="stroke:#181818;stroke-width:1.0;"/><polygon fill="#000000" points="395.23,251.0793,398.1689,242.0343,392.2911,242.0343,395.23,251.0793" style="stroke:#000000;stroke-width:1.0;"/><text fill="#000000" font-family="sans-serif" font-size="13" lengthAdjust="spacing" textLength="60" x="404.23" y="251.7954">belongs to</text><text fill="#000000" font-family="sans-serif" font-size="13" lengthAdjust="spacing" textLength="7" x="382.2456" y="228.9394">1</text><text fill="#000000" font-family="sans-serif" font-size="13" lengthAdjust="spacing" textLength="7" x="382.1581" y="274.2004">1</text></g><!--MD5=[d72446f07b53243c804bddce4f1ff977]
link AgentPhoneNumber to Agent--><g id="link_AgentPhoneNumber_Agent"><path codeLine="74" d="M256.87,206.2412 C269.55,220.6112 288.37,240.5012 307.23,255.2212 C325.12,269.1912 347.43,282.0012 364.41,290.9512 " fill="none" id="AgentPhoneNumber-Agent" style="stroke:#181818;stroke-width:1.0;"/><polygon fill="#000000" points="316.1578,249.1733,310.8709,241.2676,307.2338,245.885,316.1578,249.1733" style="stroke:#000000;stroke-width:1.0;"/><text fill="#000000" font-family="sans-serif" font-size="13" lengthAdjust="spacing" textLength="60" x="321.23" y="251.7954">belongs to</text><text fill="#000000" font-family="sans-serif" font-size="13" lengthAdjust="spacing" textLength="7" x="253.2844" y="228.7856">1</text><text fill="#000000" font-family="sans-serif" font-size="13" lengthAdjust="spacing" textLength="7" x="349.8968" y="282.9004">1</text></g><!--MD5=[e030c33ac4ae24fb59db8442034a0731]
link Client to Visit--><g id="link_Client_Visit"><path codeLine="76" d="M102.27,88.2512 C79.68,117.5712 37.84,177.3512 22.23,236.2212 C6,297.4012 70.76,358.6712 91.23,373.2212 C126.86,398.5412 257.63,413.9012 313.1,419.4112 " fill="none" id="Client-to-Visit" style="stroke:#181818;stroke-width:1.0;"/><polygon fill="#181818" points="318.22,419.9112,309.6503,415.0574,313.2436,419.4264,308.8746,423.0197,318.22,419.9112" style="stroke:#181818;stroke-width:1.0;"/><text fill="#000000" font-family="sans-serif" font-size="13" lengthAdjust="spacing" textLength="50" x="23.23" y="251.7954">requests</text></g><!--MD5=[4cc8c4297a19adfebf71fce5efe4a72b]
link Visit to Property--><g id="link_Visit_Property"><path codeLine="77" d="M353.33,442.3612 C369.85,462.7412 396.31,495.3912 413.97,517.1912 " fill="none" id="Visit-to-Property" style="stroke:#181818;stroke-width:1.0;"/><polygon fill="#181818" points="417.17,521.1312,414.5991,511.6238,414.017,517.2506,408.3902,516.6685,417.17,521.1312" style="stroke:#181818;stroke-width:1.0;"/><polygon fill="#000000" points="399.378,485.964,395.9666,477.0863,391.3999,480.787,399.378,485.964" style="stroke:#000000;stroke-width:1.0;"/><text fill="#000000" font-family="sans-serif" font-size="13" lengthAdjust="spacing" textLength="37" x="405.23" y="487.7954">to visit</text></g><!--MD5=[48d208335141bf83390adc9fb08c984f]
link Agent to Visit--><g id="link_Agent_Visit"><path codeLine="78" d="M364.62,321.0812 C353.38,329.3512 341.36,340.6412 335.23,354.2212 C329.1,367.8112 329.79,384.5512 332.05,397.9612 " fill="none" id="Agent-to-Visit" style="stroke:#181818;stroke-width:1.0;"/><polygon fill="#181818" points="333.02,403.1112,335.2743,393.5238,332.089,398.1986,327.4142,395.0133,333.02,403.1112" style="stroke:#181818;stroke-width:1.0;"/><polygon fill="#000000" points="338.2796,368.6832,344.514,361.5011,339.1018,359.2083,338.2796,368.6832" style="stroke:#000000;stroke-width:1.0;"/><text fill="#000000" font-family="sans-serif" font-size="13" lengthAdjust="spacing" textLength="50" x="349.23" y="369.7954">validates</text></g><!--MD5=[a363a729a326534fa72ee010b5a18559]
link Announcement to Property--><g id="link_Announcement_Property"><path codeLine="80" d="M759.02,206.3912 C786.14,251.9712 846.51,370.4712 790.23,442.2212 C790.23,442.2212 555.6,506.1212 466.23,530.4612 " fill="none" id="Announcement-Property" style="stroke:#181818;stroke-width:1.0;"/><polygon fill="#000000" points="814.8781,367.7894,823.1225,363.0481,818.7611,359.1076,814.8781,367.7894" style="stroke:#000000;stroke-width:1.0;"/><text fill="#000000" font-family="sans-serif" font-size="13" lengthAdjust="spacing" textLength="49" x="827.23" y="369.7954">contains</text><text fill="#000000" font-family="sans-serif" font-size="13" lengthAdjust="spacing" textLength="7" x="754.3516" y="228.9778">1</text><text fill="#000000" font-family="sans-serif" font-size="13" lengthAdjust="spacing" textLength="7" x="474.4331" y="524.0014">1</text></g><!--MD5=[a39ed1df5cccef5e67f222af5f38964f]
link Announcement to Commission--><g id="link_Announcement_Commission"><path codeLine="81" d="M745.63,206.4712 C742.01,248.7712 733.23,351.5012 729.25,398.0712 " fill="none" id="Announcement-to-Commission" style="stroke:#181818;stroke-width:1.0;"/><polygon fill="#181818" points="728.81,403.2012,733.5682,394.578,729.2394,398.2197,725.5978,393.8909,728.81,403.2012" style="stroke:#181818;stroke-width:1.0;"/><polygon fill="#000000" points="742.8041,310.0612,746.5028,301.2993,740.6463,300.7986,742.8041,310.0612" style="stroke:#000000;stroke-width:1.0;"/><text fill="#000000" font-family="sans-serif" font-size="13" lengthAdjust="spacing" textLength="32" x="752.23" y="310.7954">has a</text><text fill="#000000" font-family="sans-serif" font-size="13" lengthAdjust="spacing" textLength="7" x="737.2594" y="228.7232">1</text><text fill="#000000" font-family="sans-serif" font-size="13" lengthAdjust="spacing" textLength="7" x="721.198" y="391.9456">1</text></g><!--MD5=[700255553749c290e03ddfad1db43c97]
reverse link Commission to FixedCommission--><g id="link_Commission_FixedCommission"><path codeLine="83" d="M743.51,460.7612 C752.36,480.8912 762.93,504.9112 770.06,521.1312 " fill="none" id="Commission-backto-FixedCommission" style="stroke:#181818;stroke-width:1.0;"/><polygon fill="none" points="737.07,463.4812,735.43,442.3612,749.88,457.8512,737.07,463.4812" style="stroke:#181818;stroke-width:1.0;"/></g><!--MD5=[ef3ad7b3db23a8f3947b39ed967078b8]
reverse link Commission to PercentageCommission--><g id="link_Commission_PercentageCommission"><path codeLine="84" d="M691.82,455.8112 C668.63,476.8312 639.14,503.5612 619.75,521.1312 " fill="none" id="Commission-backto-PercentageCommission" style="stroke:#181818;stroke-width:1.0;"/><polygon fill="none" points="687.15,450.6012,706.67,442.3612,696.55,460.9712,687.15,450.6012" style="stroke:#181818;stroke-width:1.0;"/></g><!--MD5=[22fd0391aa0acb80ca5d845138f76916]
@startuml
skinparam monochrome true
        skinparam packageStyle rectangle
        skinparam shadowing false

        'left to right direction

        skinparam classAttributeIconSize 0

        hide circle
        hide methods

        title US014 Domain Model

        object Client {
        }

        object AgentPhoneNumber{

        }

        object AgentName{

        }

        object AppointmentRequest {
        }

        object Property {
        }

        object House {
        }

        object Apartment {
        }

        object Land {
        }

        object Agent {
        }

        object Visit {
        }

        object Announcement {
        }

        object Commission {
        }

        object FixedCommission {
        }

        object PercentageCommission {
        }

        object Response {
        }

        Client -> AppointmentRequest: creates
        AppointmentRequest "1" - - "1" Announcement: belongs to >
        Property <|- - House
        Property <|- - Apartment
        Property <|- - Land
        AppointmentRequest - -> Agent: assigned to >

        Client - -> Response: receives
        AppointmentRequest - -> Response: has >
        Agent - -> Response: provides
        AppointmentRequest - -> AgentName: has >
        AppointmentRequest - -> AgentPhoneNumber: has >
        AgentName "1" - - "1" Agent: belongs to >
        AgentPhoneNumber "1" - - "1" Agent: belongs to >

        Client -> Visit: requests
        Visit - -> Property: to visit >
        Agent - -> Visit: validates >

        Announcement "1" - - "1" Property: contains >
        Announcement "1" - - -> "1" Commission: has a >

        Commission <|- - FixedCommission
        Commission <|- - PercentageCommission

@enduml

@startuml
skinparam monochrome true
        skinparam packageStyle rectangle
        skinparam shadowing false


        skinparam classAttributeIconSize 0

        hide circle
        hide methods

        title US014 Domain Model

        object Client {
        }

        object AgentPhoneNumber{

        }

        object AgentName{

        }

        object AppointmentRequest {
        }

        object Property {
        }

        object House {
        }

        object Apartment {
        }

        object Land {
        }

        object Agent {
        }

        object Visit {
        }

        object Announcement {
        }

        object Commission {
        }

        object FixedCommission {
        }

        object PercentageCommission {
        }

        object Response {
        }

        Client -> AppointmentRequest: creates
        AppointmentRequest "1" - - "1" Announcement: belongs to >
        Property <|- - House
        Property <|- - Apartment
        Property <|- - Land
        AppointmentRequest - -> Agent: assigned to >

        Client - -> Response: receives
        AppointmentRequest - -> Response: has >
        Agent - -> Response: provides
        AppointmentRequest - -> AgentName: has >
        AppointmentRequest - -> AgentPhoneNumber: has >
        AgentName "1" - - "1" Agent: belongs to >
        AgentPhoneNumber "1" - - "1" Agent: belongs to >

        Client -> Visit: requests
        Visit - -> Property: to visit >
        Agent - -> Visit: validates >

        Announcement "1" - - "1" Property: contains >
        Announcement "1" - - -> "1" Commission: has a >

        Commission <|- - FixedCommission
        Commission <|- - PercentageCommission

@enduml

PlantUML version 1.2022.4(Sat Apr 09 14:29:17 BST 2022)
(GPL source distribution)
Java Runtime: OpenJDK Runtime Environment
JVM: OpenJDK 64-Bit Server VM
Default Encoding: MS949
Language: en
Country: US
--></g></svg>