<?xml version="1.0" encoding="us-ascii" standalone="no"?><svg xmlns="http://www.w3.org/2000/svg" xmlns:xlink="http://www.w3.org/1999/xlink" contentStyleType="text/css" height="1014px" preserveAspectRatio="none" style="width:1306px;height:1014px;background:#FFFFFF;" version="1.1" viewBox="0 0 1306 1014" width="1306px" zoomAndPan="magnify"><defs/><g><rect fill="#FFFFFF" height="819.6445" style="stroke:#181818;stroke-width:1.0;" width="10" x="23.5" y="93.6211"/><rect fill="#FFFFFF" height="796.3535" style="stroke:#181818;stroke-width:1.0;" width="10" x="288.5" y="116.9121"/><rect fill="#FFFFFF" height="627.5684" style="stroke:#181818;stroke-width:1.0;" width="10" x="460.5" y="254.4063"/><rect fill="#FFFFFF" height="31.291" style="stroke:#181818;stroke-width:1.0;" width="10" x="612.5" y="285.6973"/><rect fill="#FFFFFF" height="31.291" style="stroke:#181818;stroke-width:1.0;" width="10" x="719.5" y="348.2793"/><rect fill="#FFFFFF" height="31.291" style="stroke:#181818;stroke-width:1.0;" width="10" x="878.5" y="410.8613"/><rect fill="#FFFFFF" height="213.7852" style="stroke:#181818;stroke-width:1.0;" width="10" x="1059" y="629.8984"/><rect fill="#FFFFFF" height="130.873" style="stroke:#181818;stroke-width:1.0;" width="10" x="1064" y="712.8105"/><rect fill="#FFFFFF" height="42.291" style="stroke:#181818;stroke-width:1.0;" width="10" x="1069" y="757.1016"/><line style="stroke:#181818;stroke-width:0.5;stroke-dasharray:5.0,5.0;" x1="28" x2="28" y1="83.6211" y2="931.2656"/><line style="stroke:#181818;stroke-width:0.5;stroke-dasharray:5.0,5.0;" x1="293" x2="293" y1="83.6211" y2="931.2656"/><line style="stroke:#181818;stroke-width:0.5;stroke-dasharray:5.0,5.0;" x1="465" x2="465" y1="219.3047" y2="931.2656"/><line style="stroke:#181818;stroke-width:0.5;stroke-dasharray:5.0,5.0;" x1="617" x2="617" y1="83.6211" y2="931.2656"/><line style="stroke:#181818;stroke-width:0.5;stroke-dasharray:5.0,5.0;" x1="724" x2="724" y1="83.6211" y2="931.2656"/><line style="stroke:#181818;stroke-width:0.5;stroke-dasharray:5.0,5.0;" x1="883" x2="883" y1="83.6211" y2="931.2656"/><line style="stroke:#181818;stroke-width:0.5;stroke-dasharray:5.0,5.0;" x1="1064" x2="1064" y1="83.6211" y2="931.2656"/><line style="stroke:#181818;stroke-width:0.5;stroke-dasharray:5.0,5.0;" x1="1264" x2="1264" y1="669.709" y2="931.2656"/><text fill="#000000" font-family="sans-serif" font-size="14" lengthAdjust="spacing" textLength="41" x="5" y="80.1074">Owner</text><ellipse cx="28.5" cy="13.5" fill="#E3E3E3" rx="8" ry="8" style="stroke:#181818;stroke-width:0.5;"/><path d="M28.5,21.5 L28.5,48.5 M15.5,29.5 L41.5,29.5 M28.5,48.5 L15.5,63.5 M28.5,48.5 L41.5,63.5 " fill="none" style="stroke:#181818;stroke-width:0.5;"/><text fill="#000000" font-family="sans-serif" font-size="14" lengthAdjust="spacing" textLength="41" x="5" y="945.373">Owner</text><ellipse cx="28.5" cy="957.3867" fill="#E3E3E3" rx="8" ry="8" style="stroke:#181818;stroke-width:0.5;"/><path d="M28.5,965.3867 L28.5,992.3867 M15.5,973.3867 L41.5,973.3867 M28.5,992.3867 L15.5,1007.3867 M28.5,992.3867 L41.5,1007.3867 " fill="none" style="stroke:#181818;stroke-width:0.5;"/><rect fill="#E3E3E3" height="32.6211" rx="2.5" ry="2.5" style="stroke:#181818;stroke-width:0.5;" width="137" x="225" y="50"/><text fill="#000000" font-family="sans-serif" font-size="14" lengthAdjust="spacing" textLength="123" x="232" y="72.1074">:RegisterPropertyUI</text><rect fill="#E3E3E3" height="32.6211" rx="2.5" ry="2.5" style="stroke:#181818;stroke-width:0.5;" width="137" x="225" y="930.2656"/><text fill="#000000" font-family="sans-serif" font-size="14" lengthAdjust="spacing" textLength="123" x="232" y="952.373">:RegisterPropertyUI</text><rect fill="#E3E3E3" height="32.6211" rx="2.5" ry="2.5" style="stroke:#181818;stroke-width:0.5;" width="187" x="372" y="930.2656"/><text fill="#000000" font-family="sans-serif" font-size="14" lengthAdjust="spacing" textLength="173" x="379" y="952.373">:RegisterPropertyController</text><rect fill="#E3E3E3" height="32.6211" rx="2.5" ry="2.5" style="stroke:#181818;stroke-width:0.5;" width="97" x="569" y="50"/><text fill="#000000" font-family="sans-serif" font-size="14" lengthAdjust="spacing" textLength="83" x="576" y="72.1074">:Repositories</text><rect fill="#E3E3E3" height="32.6211" rx="2.5" ry="2.5" style="stroke:#181818;stroke-width:0.5;" width="97" x="569" y="930.2656"/><text fill="#000000" font-family="sans-serif" font-size="14" lengthAdjust="spacing" textLength="83" x="576" y="952.373">:Repositories</text><rect fill="#E3E3E3" height="51.2422" rx="2.5" ry="2.5" style="stroke:#181818;stroke-width:0.5;" width="97" x="676" y="31.3789"/><text fill="#000000" font-family="sans-serif" font-size="14" lengthAdjust="spacing" textLength="74" x="687.5" y="53.4863">repositories</text><text fill="#000000" font-family="sans-serif" font-size="14" lengthAdjust="spacing" textLength="83" x="683" y="72.1074">:Repositories</text><rect fill="#E3E3E3" height="51.2422" rx="2.5" ry="2.5" style="stroke:#181818;stroke-width:0.5;" width="97" x="676" y="930.2656"/><text fill="#000000" font-family="sans-serif" font-size="14" lengthAdjust="spacing" textLength="74" x="687.5" y="952.373">repositories</text><text fill="#000000" font-family="sans-serif" font-size="14" lengthAdjust="spacing" textLength="83" x="683" y="970.9941">:Repositories</text><rect fill="#E3E3E3" height="32.6211" rx="2.5" ry="2.5" style="stroke:#181818;stroke-width:0.5;" width="201" x="783" y="50"/><text fill="#000000" font-family="sans-serif" font-size="14" lengthAdjust="spacing" textLength="187" x="790" y="72.1074">:RegisterEmployeeRepository</text><rect fill="#E3E3E3" height="32.6211" rx="2.5" ry="2.5" style="stroke:#181818;stroke-width:0.5;" width="201" x="783" y="930.2656"/><text fill="#000000" font-family="sans-serif" font-size="14" lengthAdjust="spacing" textLength="187" x="790" y="952.373">:RegisterEmployeeRepository</text><rect fill="#E3E3E3" height="32.6211" rx="2.5" ry="2.5" style="stroke:#181818;stroke-width:0.5;" width="140" x="994" y="50"/><text fill="#000000" font-family="sans-serif" font-size="14" lengthAdjust="spacing" textLength="126" x="1001" y="72.1074">:PropertyRepository</text><rect fill="#E3E3E3" height="32.6211" rx="2.5" ry="2.5" style="stroke:#181818;stroke-width:0.5;" width="140" x="994" y="930.2656"/><text fill="#000000" font-family="sans-serif" font-size="14" lengthAdjust="spacing" textLength="126" x="1001" y="952.373">:PropertyRepository</text><rect fill="#E3E3E3" height="32.6211" rx="2.5" ry="2.5" style="stroke:#181818;stroke-width:0.5;" width="72" x="1228" y="930.2656"/><text fill="#000000" font-family="sans-serif" font-size="14" lengthAdjust="spacing" textLength="58" x="1235" y="952.373">:Property</text><rect fill="#FFFFFF" height="819.6445" style="stroke:#181818;stroke-width:1.0;" width="10" x="23.5" y="93.6211"/><rect fill="#FFFFFF" height="796.3535" style="stroke:#181818;stroke-width:1.0;" width="10" x="288.5" y="116.9121"/><rect fill="#FFFFFF" height="627.5684" style="stroke:#181818;stroke-width:1.0;" width="10" x="460.5" y="254.4063"/><rect fill="#FFFFFF" height="31.291" style="stroke:#181818;stroke-width:1.0;" width="10" x="612.5" y="285.6973"/><rect fill="#FFFFFF" height="31.291" style="stroke:#181818;stroke-width:1.0;" width="10" x="719.5" y="348.2793"/><rect fill="#FFFFFF" height="31.291" style="stroke:#181818;stroke-width:1.0;" width="10" x="878.5" y="410.8613"/><rect fill="#FFFFFF" height="213.7852" style="stroke:#181818;stroke-width:1.0;" width="10" x="1059" y="629.8984"/><rect fill="#FFFFFF" height="130.873" style="stroke:#181818;stroke-width:1.0;" width="10" x="1064" y="712.8105"/><rect fill="#FFFFFF" height="42.291" style="stroke:#181818;stroke-width:1.0;" width="10" x="1069" y="757.1016"/><polygon fill="#181818" points="276.5,112.9121,286.5,116.9121,276.5,120.9121,280.5,116.9121" style="stroke:#181818;stroke-width:1.0;"/><line style="stroke:#181818;stroke-width:1.0;" x1="33.5" x2="282.5" y1="116.9121" y2="116.9121"/><text fill="#000000" font-family="sans-serif" font-size="13" font-weight="bold" lengthAdjust="spacing" textLength="7" x="40.5" y="111.6494">1</text><text fill="#000000" font-family="sans-serif" font-size="13" lengthAdjust="spacing" textLength="220" x="51.5" y="111.6494">starts the request for listing a property</text><polygon fill="#181818" points="44.5,144.2031,34.5,148.2031,44.5,152.2031,40.5,148.2031" style="stroke:#181818;stroke-width:1.0;"/><line style="stroke:#181818;stroke-width:1.0;stroke-dasharray:2.0,2.0;" x1="38.5" x2="287.5" y1="148.2031" y2="148.2031"/><text fill="#000000" font-family="sans-serif" font-size="13" font-weight="bold" lengthAdjust="spacing" textLength="7" x="50.5" y="142.9404">2</text><text fill="#000000" font-family="sans-serif" font-size="13" lengthAdjust="spacing" textLength="220" x="61.5" y="142.9404">requests to select the type of property</text><polygon fill="#181818" points="276.5,175.4941,286.5,179.4941,276.5,183.4941,280.5,179.4941" style="stroke:#181818;stroke-width:1.0;"/><line style="stroke:#181818;stroke-width:1.0;" x1="33.5" x2="282.5" y1="179.4941" y2="179.4941"/><text fill="#000000" font-family="sans-serif" font-size="13" font-weight="bold" lengthAdjust="spacing" textLength="7" x="40.5" y="174.2314">3</text><text fill="#000000" font-family="sans-serif" font-size="13" lengthAdjust="spacing" textLength="158" x="51.5" y="174.2314">selects the type of property</text><polygon fill="#181818" points="360,206.7852,370,210.7852,360,214.7852,364,210.7852" style="stroke:#181818;stroke-width:1.0;"/><line style="stroke:#181818;stroke-width:1.0;" x1="298.5" x2="366" y1="210.7852" y2="210.7852"/><text fill="#000000" font-family="sans-serif" font-size="13" font-weight="bold" lengthAdjust="spacing" textLength="7" x="305.5" y="205.5225">4</text><text fill="#000000" font-family="sans-serif" font-size="13" lengthAdjust="spacing" textLength="36" x="316.5" y="205.5225">create</text><rect fill="#E3E3E3" height="32.6211" rx="2.5" ry="2.5" style="stroke:#181818;stroke-width:0.5;" width="187" x="372" y="187.4941"/><text fill="#000000" font-family="sans-serif" font-size="14" lengthAdjust="spacing" textLength="173" x="379" y="209.6016">:RegisterPropertyController</text><polygon fill="#181818" points="448.5,250.4063,458.5,254.4063,448.5,258.4063,452.5,254.4063" style="stroke:#181818;stroke-width:1.0;"/><line style="stroke:#181818;stroke-width:1.0;" x1="298.5" x2="454.5" y1="254.4063" y2="254.4063"/><text fill="#000000" font-family="sans-serif" font-size="13" font-weight="bold" lengthAdjust="spacing" textLength="7" x="305.5" y="249.1436">5</text><text fill="#000000" font-family="sans-serif" font-size="13" lengthAdjust="spacing" textLength="60" x="316.5" y="249.1436">getAgent()</text><polygon fill="#181818" points="600.5,281.6973,610.5,285.6973,600.5,289.6973,604.5,285.6973" style="stroke:#181818;stroke-width:1.0;"/><line style="stroke:#181818;stroke-width:1.0;" x1="470.5" x2="606.5" y1="285.6973" y2="285.6973"/><text fill="#000000" font-family="sans-serif" font-size="13" font-weight="bold" lengthAdjust="spacing" textLength="7" x="477.5" y="280.4346">6</text><text fill="#000000" font-family="sans-serif" font-size="13" lengthAdjust="spacing" textLength="75" x="488.5" y="280.4346">getInstance()</text><polygon fill="#181818" points="481.5,312.9883,471.5,316.9883,481.5,320.9883,477.5,316.9883" style="stroke:#181818;stroke-width:1.0;"/><line style="stroke:#181818;stroke-width:1.0;stroke-dasharray:2.0,2.0;" x1="475.5" x2="616.5" y1="316.9883" y2="316.9883"/><text fill="#000000" font-family="sans-serif" font-size="13" font-weight="bold" lengthAdjust="spacing" textLength="7" x="487.5" y="311.7256">7</text><text fill="#000000" font-family="sans-serif" font-size="13" lengthAdjust="spacing" textLength="67" x="498.5" y="311.7256">repositories</text><polygon fill="#181818" points="707.5,344.2793,717.5,348.2793,707.5,352.2793,711.5,348.2793" style="stroke:#181818;stroke-width:1.0;"/><line style="stroke:#181818;stroke-width:1.0;" x1="470.5" x2="713.5" y1="348.2793" y2="348.2793"/><text fill="#000000" font-family="sans-serif" font-size="13" font-weight="bold" lengthAdjust="spacing" textLength="7" x="477.5" y="343.0166">8</text><text fill="#000000" font-family="sans-serif" font-size="13" lengthAdjust="spacing" textLength="146" x="488.5" y="343.0166">getEmployeeRepository()</text><polygon fill="#181818" points="481.5,375.5703,471.5,379.5703,481.5,383.5703,477.5,379.5703" style="stroke:#181818;stroke-width:1.0;"/><line style="stroke:#181818;stroke-width:1.0;stroke-dasharray:2.0,2.0;" x1="475.5" x2="723.5" y1="379.5703" y2="379.5703"/><text fill="#000000" font-family="sans-serif" font-size="13" font-weight="bold" lengthAdjust="spacing" textLength="7" x="487.5" y="374.3076">9</text><text fill="#000000" font-family="sans-serif" font-size="13" lengthAdjust="spacing" textLength="168" x="498.5" y="374.3076">RegisterEmployeeRepository</text><polygon fill="#181818" points="866.5,406.8613,876.5,410.8613,866.5,414.8613,870.5,410.8613" style="stroke:#181818;stroke-width:1.0;"/><line style="stroke:#181818;stroke-width:1.0;" x1="470.5" x2="872.5" y1="410.8613" y2="410.8613"/><text fill="#000000" font-family="sans-serif" font-size="13" font-weight="bold" lengthAdjust="spacing" textLength="14" x="477.5" y="405.5986">10</text><text fill="#000000" font-family="sans-serif" font-size="13" lengthAdjust="spacing" textLength="67" x="495.5" y="405.5986">getAgents()</text><polygon fill="#181818" points="481.5,438.1523,471.5,442.1523,481.5,446.1523,477.5,442.1523" style="stroke:#181818;stroke-width:1.0;"/><line style="stroke:#181818;stroke-width:1.0;" x1="475.5" x2="882.5" y1="442.1523" y2="442.1523"/><text fill="#000000" font-family="sans-serif" font-size="13" font-weight="bold" lengthAdjust="spacing" textLength="14" x="487.5" y="436.8896">11</text><text fill="#000000" font-family="sans-serif" font-size="13" lengthAdjust="spacing" textLength="60" x="505.5" y="436.8896">agentsList</text><polygon fill="#181818" points="309.5,469.4434,299.5,473.4434,309.5,477.4434,305.5,473.4434" style="stroke:#181818;stroke-width:1.0;"/><line style="stroke:#181818;stroke-width:1.0;" x1="303.5" x2="459.5" y1="473.4434" y2="473.4434"/><text fill="#000000" font-family="sans-serif" font-size="13" font-weight="bold" lengthAdjust="spacing" textLength="14" x="315.5" y="468.1807">12</text><text fill="#000000" font-family="sans-serif" font-size="13" lengthAdjust="spacing" textLength="60" x="333.5" y="468.1807">agentsList</text><polygon fill="#181818" points="44.5,500.7344,34.5,504.7344,44.5,508.7344,40.5,504.7344" style="stroke:#181818;stroke-width:1.0;"/><line style="stroke:#181818;stroke-width:1.0;stroke-dasharray:2.0,2.0;" x1="38.5" x2="287.5" y1="504.7344" y2="504.7344"/><text fill="#000000" font-family="sans-serif" font-size="13" font-weight="bold" lengthAdjust="spacing" textLength="14" x="50.5" y="499.4717">13</text><text fill="#000000" font-family="sans-serif" font-size="13" lengthAdjust="spacing" textLength="193" x="68.5" y="499.4717">requests listing and property data</text><polygon fill="#181818" points="276.5,532.0254,286.5,536.0254,276.5,540.0254,280.5,536.0254" style="stroke:#181818;stroke-width:1.0;"/><line style="stroke:#181818;stroke-width:1.0;" x1="33.5" x2="282.5" y1="536.0254" y2="536.0254"/><text fill="#000000" font-family="sans-serif" font-size="13" font-weight="bold" lengthAdjust="spacing" textLength="14" x="40.5" y="530.7627">14</text><text fill="#000000" font-family="sans-serif" font-size="13" lengthAdjust="spacing" textLength="141" x="58.5" y="530.7627">inserts the property data</text><polygon fill="#181818" points="44.5,563.3164,34.5,567.3164,44.5,571.3164,40.5,567.3164" style="stroke:#181818;stroke-width:1.0;"/><line style="stroke:#181818;stroke-width:1.0;" x1="38.5" x2="287.5" y1="567.3164" y2="567.3164"/><text fill="#000000" font-family="sans-serif" font-size="13" font-weight="bold" lengthAdjust="spacing" textLength="14" x="50.5" y="562.0537">15</text><text fill="#000000" font-family="sans-serif" font-size="13" lengthAdjust="spacing" textLength="79" x="68.5" y="562.0537">validates data</text><polygon fill="#181818" points="448.5,594.6074,458.5,598.6074,448.5,602.6074,452.5,598.6074" style="stroke:#181818;stroke-width:1.0;"/><line style="stroke:#181818;stroke-width:1.0;" x1="298.5" x2="454.5" y1="598.6074" y2="598.6074"/><text fill="#000000" font-family="sans-serif" font-size="13" font-weight="bold" lengthAdjust="spacing" textLength="14" x="305.5" y="593.3447">16</text><text fill="#000000" font-family="sans-serif" font-size="13" lengthAdjust="spacing" textLength="93" x="323.5" y="593.3447">createProperty()</text><polygon fill="#181818" points="1047,625.8984,1057,629.8984,1047,633.8984,1051,629.8984" style="stroke:#181818;stroke-width:1.0;"/><line style="stroke:#181818;stroke-width:1.0;" x1="470.5" x2="1053" y1="629.8984" y2="629.8984"/><text fill="#000000" font-family="sans-serif" font-size="13" font-weight="bold" lengthAdjust="spacing" textLength="14" x="477.5" y="624.6357">17</text><text fill="#000000" font-family="sans-serif" font-size="13" lengthAdjust="spacing" textLength="93" x="495.5" y="624.6357">createProperty()</text><polygon fill="#181818" points="1216,657.1895,1226,661.1895,1216,665.1895,1220,661.1895" style="stroke:#181818;stroke-width:1.0;"/><line style="stroke:#181818;stroke-width:1.0;" x1="1069" x2="1222" y1="661.1895" y2="661.1895"/><text fill="#000000" font-family="sans-serif" font-size="13" font-weight="bold" lengthAdjust="spacing" textLength="14" x="1076" y="655.9268">18</text><text fill="#000000" font-family="sans-serif" font-size="13" lengthAdjust="spacing" textLength="4" x="1094" y="655.9268">&#160;</text><rect fill="#E3E3E3" height="32.6211" rx="2.5" ry="2.5" style="stroke:#181818;stroke-width:0.5;" width="72" x="1228" y="637.8984"/><text fill="#000000" font-family="sans-serif" font-size="14" lengthAdjust="spacing" textLength="58" x="1235" y="660.0059">:Property</text><line style="stroke:#181818;stroke-width:1.0;" x1="1069" x2="1116" y1="699.8105" y2="699.8105"/><line style="stroke:#181818;stroke-width:1.0;" x1="1116" x2="1116" y1="699.8105" y2="712.8105"/><line style="stroke:#181818;stroke-width:1.0;" x1="1075" x2="1116" y1="712.8105" y2="712.8105"/><polygon fill="#181818" points="1085,708.8105,1075,712.8105,1085,716.8105,1081,712.8105" style="stroke:#181818;stroke-width:1.0;"/><text fill="#000000" font-family="sans-serif" font-size="13" font-weight="bold" lengthAdjust="spacing" textLength="14" x="1081" y="694.5479">19</text><text fill="#000000" font-family="sans-serif" font-size="13" lengthAdjust="spacing" textLength="131" x="1099" y="694.5479">addProperty (Property)</text><line style="stroke:#181818;stroke-width:1.0;" x1="1074" x2="1121" y1="744.1016" y2="744.1016"/><line style="stroke:#181818;stroke-width:1.0;" x1="1121" x2="1121" y1="744.1016" y2="757.1016"/><line style="stroke:#181818;stroke-width:1.0;" x1="1080" x2="1121" y1="757.1016" y2="757.1016"/><polygon fill="#181818" points="1090,753.1016,1080,757.1016,1090,761.1016,1086,757.1016" style="stroke:#181818;stroke-width:1.0;"/><text fill="#000000" font-family="sans-serif" font-size="13" font-weight="bold" lengthAdjust="spacing" textLength="14" x="1086" y="738.8389">20</text><text fill="#000000" font-family="sans-serif" font-size="13" lengthAdjust="spacing" textLength="153" x="1104" y="738.8389">validateProperty(Property))</text><line style="stroke:#181818;stroke-width:1.0;stroke-dasharray:2.0,2.0;" x1="1079" x2="1121" y1="798.3926" y2="798.3926"/><line style="stroke:#181818;stroke-width:1.0;stroke-dasharray:2.0,2.0;" x1="1121" x2="1121" y1="798.3926" y2="811.3926"/><line style="stroke:#181818;stroke-width:1.0;stroke-dasharray:2.0,2.0;" x1="1074" x2="1121" y1="811.3926" y2="811.3926"/><polygon fill="#181818" points="1084,807.3926,1074,811.3926,1084,815.3926,1080,811.3926" style="stroke:#181818;stroke-width:1.0;"/><text fill="#000000" font-family="sans-serif" font-size="13" font-weight="bold" lengthAdjust="spacing" textLength="14" x="1086" y="793.1299">21</text><text fill="#000000" font-family="sans-serif" font-size="13" lengthAdjust="spacing" textLength="4" x="1104" y="793.1299">&#160;</text><line style="stroke:#181818;stroke-width:1.0;stroke-dasharray:2.0,2.0;" x1="1074" x2="1116" y1="842.6836" y2="842.6836"/><line style="stroke:#181818;stroke-width:1.0;stroke-dasharray:2.0,2.0;" x1="1116" x2="1116" y1="842.6836" y2="855.6836"/><line style="stroke:#181818;stroke-width:1.0;stroke-dasharray:2.0,2.0;" x1="1069" x2="1116" y1="855.6836" y2="855.6836"/><polygon fill="#181818" points="1079,851.6836,1069,855.6836,1079,859.6836,1075,855.6836" style="stroke:#181818;stroke-width:1.0;"/><text fill="#000000" font-family="sans-serif" font-size="13" font-weight="bold" lengthAdjust="spacing" textLength="14" x="1081" y="837.4209">22</text><text fill="#000000" font-family="sans-serif" font-size="13" lengthAdjust="spacing" textLength="4" x="1099" y="837.4209">&#160;</text><polygon fill="#181818" points="309.5,877.9746,299.5,881.9746,309.5,885.9746,305.5,881.9746" style="stroke:#181818;stroke-width:1.0;"/><line style="stroke:#181818;stroke-width:1.0;stroke-dasharray:2.0,2.0;" x1="303.5" x2="464.5" y1="881.9746" y2="881.9746"/><text fill="#000000" font-family="sans-serif" font-size="13" font-weight="bold" lengthAdjust="spacing" textLength="14" x="315.5" y="876.7119">23</text><text fill="#000000" font-family="sans-serif" font-size="13" lengthAdjust="spacing" textLength="87" x="333.5" y="876.7119">Announcement</text><polygon fill="#181818" points="39.5,909.2656,29.5,913.2656,39.5,917.2656,35.5,913.2656" style="stroke:#181818;stroke-width:1.0;"/><line style="stroke:#181818;stroke-width:1.0;stroke-dasharray:2.0,2.0;" x1="33.5" x2="292.5" y1="913.2656" y2="913.2656"/><text fill="#000000" font-family="sans-serif" font-size="13" font-weight="bold" lengthAdjust="spacing" textLength="14" x="45.5" y="908.0029">24</text><text fill="#000000" font-family="sans-serif" font-size="13" lengthAdjust="spacing" textLength="152" x="63.5" y="908.0029">informs operation success</text><!--SRC=[xLPDKzim4BtxL-nmQPAPC902dVhGAGNQWOOXGu1UUb7iJQB1bbnzXERVT-N4Zepjq0itvsHfTzy-hPvsev-vo9XYAQHIo6YfP8fWbCL0bvQCHSziWLEpJX0KHeQ9HU8xw2MBvGiN2vYpH6CGC6kaiEaCLH1yMF8OOIwbcSc_0OkCL73t8b01qo3THq0eXaSyOyB0GNYF2wuDgecI6IgpVhm-SAwMl-5t8OLHCabGvVwHKKaj8fEQ4m6EElSfDzPJxiv4hAiXoeluBUe0P6zXTPLcYLmZxb8K0MHv5LESeExhB2tEkKksNGIki7p536vB6i3sbozX-8Ng1o5eGrWQpD9Tv1-Bsj3DA4Y8ihi-vW4M02KmNK2vQVcG83VOOG55k18q9gIGF8DPPqHdte3faGgt4VgD4A9F_kvI1mDA6IaaJXL26si82pJd2nIcrsyuHAwASjkj76o33dASQq454n4IL0sfIJk5KuCDXYL1NrHbI8nxaMkK2IIdMDTP4rcdqsAJldTSskNQnCp1l6QoKVIkxBeblvEzHu6MKB9WUU2OcBHaTS6Ln5ljU84LfJI9inIvY4jzGSmCQtiiN6WiNajBG2wxF2g45KiuML7NV7O7tSYsUC9UfRnhTTOzddvPylRWLzLjE9YIxc0GGfD3cOV5SP44UiNNdcpW_PhmYYgKp4lCVYLsBt05V8TUyQaAf9rRGtX3w7_PTXUrbT-v4D9IVqX9XKq8URVnetrjEe5Hyqrf2bA1cE7K9BID8jIDNS6rNs-vRVCU-bSKiKsfk-btd-dT5E-cU3V5kodUJV5kYdTJ_7sc-2IXIV5uEuOLAkrGZmz7HwEFXwFUr0huZZCOdS7Hvt1q6fvyWbzN3-3C_Q3tOp86BQsA469wB8hFh6FL3sxOYi6z5OQd6C9TXkBcycUn0LTYnPKKUH5kdcvt3cSdms_Sm1GLCO6ds-0IvymcXY8Y6TDR3E4YEnwTZe8n_Ocmz9X3o4nmGJKrQXt2vE4V]--></g></svg>