<?xml version="1.0" encoding="us-ascii" standalone="no"?><svg xmlns="http://www.w3.org/2000/svg" xmlns:xlink="http://www.w3.org/1999/xlink" contentStyleType="text/css" height="720px" preserveAspectRatio="none" style="width:1140px;height:720px;background:#FFFFFF;" version="1.1" viewBox="0 0 1140 720" width="1140px" zoomAndPan="magnify"><defs/><g><!--class Repositories--><g id="elem_Repositories"><rect codeLine="5" fill="#F1F1F1" height="48" id="Repositories" rx="2.5" ry="2.5" style="stroke:#181818;stroke-width:0.5;" width="111" x="583" y="399"/><ellipse cx="598" cy="415" fill="#ADD1B2" rx="11" ry="11" style="stroke:#181818;stroke-width:1.0;"/><path d="M600.7656,410.875 Q600.9219,410.6563 601.1094,410.5469 Q601.2969,410.4375 601.5156,410.4375 Q601.8906,410.4375 602.125,410.7031 Q602.3594,410.9531 602.3594,411.5625 L602.3594,413.0156 Q602.3594,413.625 602.125,413.8906 Q601.8906,414.1563 601.5156,414.1563 Q601.1719,414.1563 600.9688,413.9531 Q600.7656,413.7656 600.6563,413.25 Q600.6094,412.8906 600.4219,412.7031 Q600.0938,412.3281 599.4844,412.1094 Q598.875,411.8906 598.25,411.8906 Q597.4844,411.8906 596.8438,412.2188 Q596.2188,412.5469 595.7188,413.2969 Q595.2344,414.0469 595.2344,415.0781 L595.2344,416.1719 Q595.2344,417.4063 596.125,418.2344 Q597.0156,419.0469 598.6094,419.0469 Q599.5469,419.0469 600.2031,418.7969 Q600.5938,418.6406 601.0156,418.2031 Q601.2813,417.9375 601.4219,417.8594 Q601.5781,417.7813 601.7813,417.7813 Q602.1094,417.7813 602.3594,418.0469 Q602.625,418.2969 602.625,418.6406 Q602.625,418.9844 602.2813,419.3906 Q601.7813,419.9688 600.9844,420.2969 Q599.9063,420.75 598.6094,420.75 Q597.0938,420.75 595.8906,420.125 Q594.9063,419.625 594.2188,418.5625 Q593.5313,417.4844 593.5313,416.2031 L593.5313,415.0469 Q593.5313,413.7188 594.1406,412.5781 Q594.7656,411.4219 595.8594,410.8125 Q596.9531,410.1875 598.1875,410.1875 Q598.9219,410.1875 599.5625,410.3594 Q600.2188,410.5156 600.7656,410.875 Z " fill="#000000"/><text fill="#000000" font-family="sans-serif" font-size="14" lengthAdjust="spacing" textLength="79" x="612" y="420.7969">Repositories</text><line style="stroke:#181818;stroke-width:0.5;" x1="584" x2="693" y1="431" y2="431"/><line style="stroke:#181818;stroke-width:0.5;" x1="584" x2="693" y1="439" y2="439"/></g><!--class RegisterEmployeeRepository--><g id="elem_RegisterEmployeeRepository"><rect codeLine="7" fill="#F1F1F1" height="48" id="RegisterEmployeeRepository" rx="2.5" ry="2.5" style="stroke:#181818;stroke-width:0.5;" width="215" x="729" y="399"/><ellipse cx="744" cy="415" fill="#ADD1B2" rx="11" ry="11" style="stroke:#181818;stroke-width:1.0;"/><path d="M746.7656,410.875 Q746.9219,410.6563 747.1094,410.5469 Q747.2969,410.4375 747.5156,410.4375 Q747.8906,410.4375 748.125,410.7031 Q748.3594,410.9531 748.3594,411.5625 L748.3594,413.0156 Q748.3594,413.625 748.125,413.8906 Q747.8906,414.1563 747.5156,414.1563 Q747.1719,414.1563 746.9688,413.9531 Q746.7656,413.7656 746.6563,413.25 Q746.6094,412.8906 746.4219,412.7031 Q746.0938,412.3281 745.4844,412.1094 Q744.875,411.8906 744.25,411.8906 Q743.4844,411.8906 742.8438,412.2188 Q742.2188,412.5469 741.7188,413.2969 Q741.2344,414.0469 741.2344,415.0781 L741.2344,416.1719 Q741.2344,417.4063 742.125,418.2344 Q743.0156,419.0469 744.6094,419.0469 Q745.5469,419.0469 746.2031,418.7969 Q746.5938,418.6406 747.0156,418.2031 Q747.2813,417.9375 747.4219,417.8594 Q747.5781,417.7813 747.7813,417.7813 Q748.1094,417.7813 748.3594,418.0469 Q748.625,418.2969 748.625,418.6406 Q748.625,418.9844 748.2813,419.3906 Q747.7813,419.9688 746.9844,420.2969 Q745.9063,420.75 744.6094,420.75 Q743.0938,420.75 741.8906,420.125 Q740.9063,419.625 740.2188,418.5625 Q739.5313,417.4844 739.5313,416.2031 L739.5313,415.0469 Q739.5313,413.7188 740.1406,412.5781 Q740.7656,411.4219 741.8594,410.8125 Q742.9531,410.1875 744.1875,410.1875 Q744.9219,410.1875 745.5625,410.3594 Q746.2188,410.5156 746.7656,410.875 Z " fill="#000000"/><text fill="#000000" font-family="sans-serif" font-size="14" lengthAdjust="spacing" textLength="183" x="758" y="420.7969">RegisterEmployeeRepository</text><line style="stroke:#181818;stroke-width:0.5;" x1="730" x2="943" y1="431" y2="431"/><line style="stroke:#181818;stroke-width:0.5;" x1="730" x2="943" y1="439" y2="439"/></g><!--class Property--><g id="elem_Property"><rect codeLine="9" fill="#F1F1F1" height="141.1055" id="Property" rx="2.5" ry="2.5" style="stroke:#181818;stroke-width:0.5;" width="214" x="323.5" y="572"/><ellipse cx="399.25" cy="588" fill="#ADD1B2" rx="11" ry="11" style="stroke:#181818;stroke-width:1.0;"/><path d="M402.0156,583.875 Q402.1719,583.6563 402.3594,583.5469 Q402.5469,583.4375 402.7656,583.4375 Q403.1406,583.4375 403.375,583.7031 Q403.6094,583.9531 403.6094,584.5625 L403.6094,586.0156 Q403.6094,586.625 403.375,586.8906 Q403.1406,587.1563 402.7656,587.1563 Q402.4219,587.1563 402.2188,586.9531 Q402.0156,586.7656 401.9063,586.25 Q401.8594,585.8906 401.6719,585.7031 Q401.3438,585.3281 400.7344,585.1094 Q400.125,584.8906 399.5,584.8906 Q398.7344,584.8906 398.0938,585.2188 Q397.4688,585.5469 396.9688,586.2969 Q396.4844,587.0469 396.4844,588.0781 L396.4844,589.1719 Q396.4844,590.4063 397.375,591.2344 Q398.2656,592.0469 399.8594,592.0469 Q400.7969,592.0469 401.4531,591.7969 Q401.8438,591.6406 402.2656,591.2031 Q402.5313,590.9375 402.6719,590.8594 Q402.8281,590.7813 403.0313,590.7813 Q403.3594,590.7813 403.6094,591.0469 Q403.875,591.2969 403.875,591.6406 Q403.875,591.9844 403.5313,592.3906 Q403.0313,592.9688 402.2344,593.2969 Q401.1563,593.75 399.8594,593.75 Q398.3438,593.75 397.1406,593.125 Q396.1563,592.625 395.4688,591.5625 Q394.7813,590.4844 394.7813,589.2031 L394.7813,588.0469 Q394.7813,586.7188 395.3906,585.5781 Q396.0156,584.4219 397.1094,583.8125 Q398.2031,583.1875 399.4375,583.1875 Q400.1719,583.1875 400.8125,583.3594 Q401.4688,583.5156 402.0156,583.875 Z " fill="#000000"/><text fill="#000000" font-family="sans-serif" font-size="14" lengthAdjust="spacing" textLength="54" x="419.75" y="593.7969">Property</text><line style="stroke:#181818;stroke-width:0.5;" x1="324.5" x2="536.5" y1="604" y2="604"/><rect fill="none" height="6" style="stroke:#C82930;stroke-width:1.0;" width="6" x="331.5" y="615.8105"/><text fill="#000000" font-family="sans-serif" font-size="14" lengthAdjust="spacing" textLength="85" x="343.5" y="623.1074">int propertyID</text><rect fill="none" height="6" style="stroke:#C82930;stroke-width:1.0;" width="6" x="331.5" y="634.4316"/><text fill="#000000" font-family="sans-serif" font-size="14" lengthAdjust="spacing" textLength="60" x="343.5" y="641.7285">float area</text><rect fill="none" height="6" style="stroke:#C82930;stroke-width:1.0;" width="6" x="331.5" y="653.0527"/><text fill="#000000" font-family="sans-serif" font-size="14" lengthAdjust="spacing" textLength="92" x="343.5" y="660.3496">String address</text><rect fill="none" height="6" style="stroke:#C82930;stroke-width:1.0;" width="6" x="331.5" y="671.6738"/><text fill="#000000" font-family="sans-serif" font-size="14" lengthAdjust="spacing" textLength="150" x="343.5" y="678.9707">float cityCentreDistance</text><rect fill="none" height="6" style="stroke:#C82930;stroke-width:1.0;" width="6" x="331.5" y="690.2949"/><text fill="#000000" font-family="sans-serif" font-size="14" lengthAdjust="spacing" textLength="188" x="343.5" y="697.5918">Arraylist&lt;String&gt; photographs</text><line style="stroke:#181818;stroke-width:0.5;" x1="324.5" x2="536.5" y1="705.1055" y2="705.1055"/></g><!--class House--><g id="elem_House"><rect codeLine="16" fill="#F1F1F1" height="178.3477" id="House" rx="2.5" ry="2.5" style="stroke:#181818;stroke-width:0.5;" width="203" x="7" y="334"/><ellipse cx="84.25" cy="350" fill="#ADD1B2" rx="11" ry="11" style="stroke:#181818;stroke-width:1.0;"/><path d="M87.0156,345.875 Q87.1719,345.6563 87.3594,345.5469 Q87.5469,345.4375 87.7656,345.4375 Q88.1406,345.4375 88.375,345.7031 Q88.6094,345.9531 88.6094,346.5625 L88.6094,348.0156 Q88.6094,348.625 88.375,348.8906 Q88.1406,349.1563 87.7656,349.1563 Q87.4219,349.1563 87.2188,348.9531 Q87.0156,348.7656 86.9063,348.25 Q86.8594,347.8906 86.6719,347.7031 Q86.3438,347.3281 85.7344,347.1094 Q85.125,346.8906 84.5,346.8906 Q83.7344,346.8906 83.0938,347.2188 Q82.4688,347.5469 81.9688,348.2969 Q81.4844,349.0469 81.4844,350.0781 L81.4844,351.1719 Q81.4844,352.4063 82.375,353.2344 Q83.2656,354.0469 84.8594,354.0469 Q85.7969,354.0469 86.4531,353.7969 Q86.8438,353.6406 87.2656,353.2031 Q87.5313,352.9375 87.6719,352.8594 Q87.8281,352.7813 88.0313,352.7813 Q88.3594,352.7813 88.6094,353.0469 Q88.875,353.2969 88.875,353.6406 Q88.875,353.9844 88.5313,354.3906 Q88.0313,354.9688 87.2344,355.2969 Q86.1563,355.75 84.8594,355.75 Q83.3438,355.75 82.1406,355.125 Q81.1563,354.625 80.4688,353.5625 Q79.7813,352.4844 79.7813,351.2031 L79.7813,350.0469 Q79.7813,348.7188 80.3906,347.5781 Q81.0156,346.4219 82.1094,345.8125 Q83.2031,345.1875 84.4375,345.1875 Q85.1719,345.1875 85.8125,345.3594 Q86.4688,345.5156 87.0156,345.875 Z " fill="#000000"/><text fill="#000000" font-family="sans-serif" font-size="14" lengthAdjust="spacing" textLength="40" x="104.75" y="355.7969">House</text><line style="stroke:#181818;stroke-width:0.5;" x1="8" x2="209" y1="366" y2="366"/><rect fill="none" height="6" style="stroke:#C82930;stroke-width:1.0;" width="6" x="15" y="377.8105"/><text fill="#000000" font-family="sans-serif" font-size="14" lengthAdjust="spacing" textLength="146" x="27" y="385.1074">int numberOfBedrooms</text><rect fill="none" height="6" style="stroke:#C82930;stroke-width:1.0;" width="6" x="15" y="396.4316"/><text fill="#000000" font-family="sans-serif" font-size="14" lengthAdjust="spacing" textLength="150" x="27" y="403.7285">int numberOfBathrooms</text><rect fill="none" height="6" style="stroke:#C82930;stroke-width:1.0;" width="6" x="15" y="415.0527"/><text fill="#000000" font-family="sans-serif" font-size="14" lengthAdjust="spacing" textLength="177" x="27" y="422.3496">int numberOfParkingSpaces</text><rect fill="none" height="6" style="stroke:#C82930;stroke-width:1.0;" width="6" x="15" y="433.6738"/><text fill="#000000" font-family="sans-serif" font-size="14" lengthAdjust="spacing" textLength="174" x="27" y="440.9707">Arraylist&lt;String&gt; equipment</text><rect fill="none" height="6" style="stroke:#C82930;stroke-width:1.0;" width="6" x="15" y="452.2949"/><text fill="#000000" font-family="sans-serif" font-size="14" lengthAdjust="spacing" textLength="141" x="27" y="459.5918">boolean hasBasement</text><rect fill="none" height="6" style="stroke:#C82930;stroke-width:1.0;" width="6" x="15" y="470.916"/><text fill="#000000" font-family="sans-serif" font-size="14" lengthAdjust="spacing" textLength="171" x="27" y="478.2129">boolean hasInhabitableLoft</text><rect fill="none" height="6" style="stroke:#C82930;stroke-width:1.0;" width="6" x="15" y="489.5371"/><text fill="#000000" font-family="sans-serif" font-size="14" lengthAdjust="spacing" textLength="170" x="27" y="496.834">SunExposure sunExposure</text><line style="stroke:#181818;stroke-width:0.5;" x1="8" x2="209" y1="504.3477" y2="504.3477"/></g><!--class Apartment--><g id="elem_Apartment"><rect codeLine="25" fill="#F1F1F1" height="122.4844" id="Apartment" rx="2.5" ry="2.5" style="stroke:#181818;stroke-width:0.5;" width="203" x="245" y="362"/><ellipse cx="309.75" cy="378" fill="#ADD1B2" rx="11" ry="11" style="stroke:#181818;stroke-width:1.0;"/><path d="M312.5156,373.875 Q312.6719,373.6563 312.8594,373.5469 Q313.0469,373.4375 313.2656,373.4375 Q313.6406,373.4375 313.875,373.7031 Q314.1094,373.9531 314.1094,374.5625 L314.1094,376.0156 Q314.1094,376.625 313.875,376.8906 Q313.6406,377.1563 313.2656,377.1563 Q312.9219,377.1563 312.7188,376.9531 Q312.5156,376.7656 312.4063,376.25 Q312.3594,375.8906 312.1719,375.7031 Q311.8438,375.3281 311.2344,375.1094 Q310.625,374.8906 310,374.8906 Q309.2344,374.8906 308.5938,375.2188 Q307.9688,375.5469 307.4688,376.2969 Q306.9844,377.0469 306.9844,378.0781 L306.9844,379.1719 Q306.9844,380.4063 307.875,381.2344 Q308.7656,382.0469 310.3594,382.0469 Q311.2969,382.0469 311.9531,381.7969 Q312.3438,381.6406 312.7656,381.2031 Q313.0313,380.9375 313.1719,380.8594 Q313.3281,380.7813 313.5313,380.7813 Q313.8594,380.7813 314.1094,381.0469 Q314.375,381.2969 314.375,381.6406 Q314.375,381.9844 314.0313,382.3906 Q313.5313,382.9688 312.7344,383.2969 Q311.6563,383.75 310.3594,383.75 Q308.8438,383.75 307.6406,383.125 Q306.6563,382.625 305.9688,381.5625 Q305.2813,380.4844 305.2813,379.2031 L305.2813,378.0469 Q305.2813,376.7188 305.8906,375.5781 Q306.5156,374.4219 307.6094,373.8125 Q308.7031,373.1875 309.9375,373.1875 Q310.6719,373.1875 311.3125,373.3594 Q311.9688,373.5156 312.5156,373.875 Z " fill="#000000"/><text fill="#000000" font-family="sans-serif" font-size="14" lengthAdjust="spacing" textLength="65" x="330.25" y="383.7969">Apartment</text><line style="stroke:#181818;stroke-width:0.5;" x1="246" x2="447" y1="394" y2="394"/><rect fill="none" height="6" style="stroke:#C82930;stroke-width:1.0;" width="6" x="253" y="405.8105"/><text fill="#000000" font-family="sans-serif" font-size="14" lengthAdjust="spacing" textLength="146" x="265" y="413.1074">int numberOfBedrooms</text><rect fill="none" height="6" style="stroke:#C82930;stroke-width:1.0;" width="6" x="253" y="424.4316"/><text fill="#000000" font-family="sans-serif" font-size="14" lengthAdjust="spacing" textLength="150" x="265" y="431.7285">int numberOfBathrooms</text><rect fill="none" height="6" style="stroke:#C82930;stroke-width:1.0;" width="6" x="253" y="443.0527"/><text fill="#000000" font-family="sans-serif" font-size="14" lengthAdjust="spacing" textLength="177" x="265" y="450.3496">int numberOfParkingSpaces</text><rect fill="none" height="6" style="stroke:#C82930;stroke-width:1.0;" width="6" x="253" y="461.6738"/><text fill="#000000" font-family="sans-serif" font-size="14" lengthAdjust="spacing" textLength="174" x="265" y="468.9707">Arraylist&lt;String&gt; equipment</text><line style="stroke:#181818;stroke-width:0.5;" x1="246" x2="447" y1="476.4844" y2="476.4844"/></g><!--class Land--><g id="elem_Land"><rect codeLine="31" fill="#F1F1F1" height="48" id="Land" rx="2.5" ry="2.5" style="stroke:#181818;stroke-width:0.5;" width="64" x="483.5" y="399"/><ellipse cx="498.5" cy="415" fill="#ADD1B2" rx="11" ry="11" style="stroke:#181818;stroke-width:1.0;"/><path d="M501.2656,410.875 Q501.4219,410.6563 501.6094,410.5469 Q501.7969,410.4375 502.0156,410.4375 Q502.3906,410.4375 502.625,410.7031 Q502.8594,410.9531 502.8594,411.5625 L502.8594,413.0156 Q502.8594,413.625 502.625,413.8906 Q502.3906,414.1563 502.0156,414.1563 Q501.6719,414.1563 501.4688,413.9531 Q501.2656,413.7656 501.1563,413.25 Q501.1094,412.8906 500.9219,412.7031 Q500.5938,412.3281 499.9844,412.1094 Q499.375,411.8906 498.75,411.8906 Q497.9844,411.8906 497.3438,412.2188 Q496.7188,412.5469 496.2188,413.2969 Q495.7344,414.0469 495.7344,415.0781 L495.7344,416.1719 Q495.7344,417.4063 496.625,418.2344 Q497.5156,419.0469 499.1094,419.0469 Q500.0469,419.0469 500.7031,418.7969 Q501.0938,418.6406 501.5156,418.2031 Q501.7813,417.9375 501.9219,417.8594 Q502.0781,417.7813 502.2813,417.7813 Q502.6094,417.7813 502.8594,418.0469 Q503.125,418.2969 503.125,418.6406 Q503.125,418.9844 502.7813,419.3906 Q502.2813,419.9688 501.4844,420.2969 Q500.4063,420.75 499.1094,420.75 Q497.5938,420.75 496.3906,420.125 Q495.4063,419.625 494.7188,418.5625 Q494.0313,417.4844 494.0313,416.2031 L494.0313,415.0469 Q494.0313,413.7188 494.6406,412.5781 Q495.2656,411.4219 496.3594,410.8125 Q497.4531,410.1875 498.6875,410.1875 Q499.4219,410.1875 500.0625,410.3594 Q500.7188,410.5156 501.2656,410.875 Z " fill="#000000"/><text fill="#000000" font-family="sans-serif" font-size="14" lengthAdjust="spacing" textLength="32" x="512.5" y="420.7969">Land</text><line style="stroke:#181818;stroke-width:0.5;" x1="484.5" x2="546.5" y1="431" y2="431"/><line style="stroke:#181818;stroke-width:0.5;" x1="484.5" x2="546.5" y1="439" y2="439"/></g><!--class RegisterPropertyUI--><g id="elem_RegisterPropertyUI"><rect codeLine="34" fill="#F1F1F1" height="85.2422" id="RegisterPropertyUI" rx="2.5" ry="2.5" style="stroke:#181818;stroke-width:0.5;" width="151" x="761" y="7"/><ellipse cx="776" cy="23" fill="#ADD1B2" rx="11" ry="11" style="stroke:#181818;stroke-width:1.0;"/><path d="M778.7656,18.875 Q778.9219,18.6563 779.1094,18.5469 Q779.2969,18.4375 779.5156,18.4375 Q779.8906,18.4375 780.125,18.7031 Q780.3594,18.9531 780.3594,19.5625 L780.3594,21.0156 Q780.3594,21.625 780.125,21.8906 Q779.8906,22.1563 779.5156,22.1563 Q779.1719,22.1563 778.9688,21.9531 Q778.7656,21.7656 778.6563,21.25 Q778.6094,20.8906 778.4219,20.7031 Q778.0938,20.3281 777.4844,20.1094 Q776.875,19.8906 776.25,19.8906 Q775.4844,19.8906 774.8438,20.2188 Q774.2188,20.5469 773.7188,21.2969 Q773.2344,22.0469 773.2344,23.0781 L773.2344,24.1719 Q773.2344,25.4063 774.125,26.2344 Q775.0156,27.0469 776.6094,27.0469 Q777.5469,27.0469 778.2031,26.7969 Q778.5938,26.6406 779.0156,26.2031 Q779.2813,25.9375 779.4219,25.8594 Q779.5781,25.7813 779.7813,25.7813 Q780.1094,25.7813 780.3594,26.0469 Q780.625,26.2969 780.625,26.6406 Q780.625,26.9844 780.2813,27.3906 Q779.7813,27.9688 778.9844,28.2969 Q777.9063,28.75 776.6094,28.75 Q775.0938,28.75 773.8906,28.125 Q772.9063,27.625 772.2188,26.5625 Q771.5313,25.4844 771.5313,24.2031 L771.5313,23.0469 Q771.5313,21.7188 772.1406,20.5781 Q772.7656,19.4219 773.8594,18.8125 Q774.9531,18.1875 776.1875,18.1875 Q776.9219,18.1875 777.5625,18.3594 Q778.2188,18.5156 778.7656,18.875 Z " fill="#000000"/><text fill="#000000" font-family="sans-serif" font-size="14" lengthAdjust="spacing" textLength="119" x="790" y="28.7969">RegisterPropertyUI</text><line style="stroke:#181818;stroke-width:0.5;" x1="762" x2="911" y1="39" y2="39"/><line style="stroke:#181818;stroke-width:0.5;" x1="762" x2="911" y1="47" y2="47"/><ellipse cx="772" cy="61.8105" fill="#84BE84" rx="3" ry="3" style="stroke:#038048;stroke-width:1.0;"/><text fill="#000000" font-family="sans-serif" font-size="14" lengthAdjust="spacing" textLength="67" x="781" y="66.1074">getAgent()</text><ellipse cx="772" cy="80.4316" fill="#84BE84" rx="3" ry="3" style="stroke:#038048;stroke-width:1.0;"/><text fill="#000000" font-family="sans-serif" font-size="14" lengthAdjust="spacing" textLength="104" x="781" y="84.7285">createProperty()</text></g><!--class RegisterPropertyController--><g id="elem_RegisterPropertyController"><rect codeLine="40" fill="#F1F1F1" height="122.4844" id="RegisterPropertyController" rx="2.5" ry="2.5" style="stroke:#181818;stroke-width:0.5;" width="201" x="736" y="152"/><ellipse cx="751" cy="168" fill="#ADD1B2" rx="11" ry="11" style="stroke:#181818;stroke-width:1.0;"/><path d="M753.7656,163.875 Q753.9219,163.6563 754.1094,163.5469 Q754.2969,163.4375 754.5156,163.4375 Q754.8906,163.4375 755.125,163.7031 Q755.3594,163.9531 755.3594,164.5625 L755.3594,166.0156 Q755.3594,166.625 755.125,166.8906 Q754.8906,167.1563 754.5156,167.1563 Q754.1719,167.1563 753.9688,166.9531 Q753.7656,166.7656 753.6563,166.25 Q753.6094,165.8906 753.4219,165.7031 Q753.0938,165.3281 752.4844,165.1094 Q751.875,164.8906 751.25,164.8906 Q750.4844,164.8906 749.8438,165.2188 Q749.2188,165.5469 748.7188,166.2969 Q748.2344,167.0469 748.2344,168.0781 L748.2344,169.1719 Q748.2344,170.4063 749.125,171.2344 Q750.0156,172.0469 751.6094,172.0469 Q752.5469,172.0469 753.2031,171.7969 Q753.5938,171.6406 754.0156,171.2031 Q754.2813,170.9375 754.4219,170.8594 Q754.5781,170.7813 754.7813,170.7813 Q755.1094,170.7813 755.3594,171.0469 Q755.625,171.2969 755.625,171.6406 Q755.625,171.9844 755.2813,172.3906 Q754.7813,172.9688 753.9844,173.2969 Q752.9063,173.75 751.6094,173.75 Q750.0938,173.75 748.8906,173.125 Q747.9063,172.625 747.2188,171.5625 Q746.5313,170.4844 746.5313,169.2031 L746.5313,168.0469 Q746.5313,166.7188 747.1406,165.5781 Q747.7656,164.4219 748.8594,163.8125 Q749.9531,163.1875 751.1875,163.1875 Q751.9219,163.1875 752.5625,163.3594 Q753.2188,163.5156 753.7656,163.875 Z " fill="#000000"/><text fill="#000000" font-family="sans-serif" font-size="14" lengthAdjust="spacing" textLength="169" x="765" y="173.7969">RegisterPropertyController</text><line style="stroke:#181818;stroke-width:0.5;" x1="737" x2="936" y1="184" y2="184"/><line style="stroke:#181818;stroke-width:0.5;" x1="737" x2="936" y1="192" y2="192"/><ellipse cx="747" cy="206.8105" fill="#84BE84" rx="3" ry="3" style="stroke:#038048;stroke-width:1.0;"/><text fill="#000000" font-family="sans-serif" font-size="14" lengthAdjust="spacing" textLength="83" x="756" y="211.1074">getInstance()</text><ellipse cx="747" cy="225.4316" fill="#84BE84" rx="3" ry="3" style="stroke:#038048;stroke-width:1.0;"/><text fill="#000000" font-family="sans-serif" font-size="14" lengthAdjust="spacing" textLength="160" x="756" y="229.7285">getEmployeeRepository()</text><ellipse cx="747" cy="244.0527" fill="#84BE84" rx="3" ry="3" style="stroke:#038048;stroke-width:1.0;"/><text fill="#000000" font-family="sans-serif" font-size="14" lengthAdjust="spacing" textLength="74" x="756" y="248.3496">getAgents()</text><ellipse cx="747" cy="262.6738" fill="#84BE84" rx="3" ry="3" style="stroke:#038048;stroke-width:1.0;"/><text fill="#000000" font-family="sans-serif" font-size="14" lengthAdjust="spacing" textLength="104" x="756" y="266.9707">createProperty()</text></g><!--class PropertyRepository--><g id="elem_PropertyRepository"><rect codeLine="47" fill="#F1F1F1" height="85.2422" id="PropertyRepository" rx="2.5" ry="2.5" style="stroke:#181818;stroke-width:0.5;" width="154" x="979.5" y="380.5"/><ellipse cx="994.5" cy="396.5" fill="#ADD1B2" rx="11" ry="11" style="stroke:#181818;stroke-width:1.0;"/><path d="M997.2656,392.375 Q997.4219,392.1563 997.6094,392.0469 Q997.7969,391.9375 998.0156,391.9375 Q998.3906,391.9375 998.625,392.2031 Q998.8594,392.4531 998.8594,393.0625 L998.8594,394.5156 Q998.8594,395.125 998.625,395.3906 Q998.3906,395.6563 998.0156,395.6563 Q997.6719,395.6563 997.4688,395.4531 Q997.2656,395.2656 997.1563,394.75 Q997.1094,394.3906 996.9219,394.2031 Q996.5938,393.8281 995.9844,393.6094 Q995.375,393.3906 994.75,393.3906 Q993.9844,393.3906 993.3438,393.7188 Q992.7188,394.0469 992.2188,394.7969 Q991.7344,395.5469 991.7344,396.5781 L991.7344,397.6719 Q991.7344,398.9063 992.625,399.7344 Q993.5156,400.5469 995.1094,400.5469 Q996.0469,400.5469 996.7031,400.2969 Q997.0938,400.1406 997.5156,399.7031 Q997.7813,399.4375 997.9219,399.3594 Q998.0781,399.2813 998.2813,399.2813 Q998.6094,399.2813 998.8594,399.5469 Q999.125,399.7969 999.125,400.1406 Q999.125,400.4844 998.7813,400.8906 Q998.2813,401.4688 997.4844,401.7969 Q996.4063,402.25 995.1094,402.25 Q993.5938,402.25 992.3906,401.625 Q991.4063,401.125 990.7188,400.0625 Q990.0313,398.9844 990.0313,397.7031 L990.0313,396.5469 Q990.0313,395.2188 990.6406,394.0781 Q991.2656,392.9219 992.3594,392.3125 Q993.4531,391.6875 994.6875,391.6875 Q995.4219,391.6875 996.0625,391.8594 Q996.7188,392.0156 997.2656,392.375 Z " fill="#000000"/><text fill="#000000" font-family="sans-serif" font-size="14" lengthAdjust="spacing" textLength="122" x="1008.5" y="402.2969">PropertyRepository</text><line style="stroke:#181818;stroke-width:0.5;" x1="980.5" x2="1132.5" y1="412.5" y2="412.5"/><line style="stroke:#181818;stroke-width:0.5;" x1="980.5" x2="1132.5" y1="420.5" y2="420.5"/><ellipse cx="990.5" cy="435.3105" fill="#84BE84" rx="3" ry="3" style="stroke:#038048;stroke-width:1.0;"/><text fill="#000000" font-family="sans-serif" font-size="14" lengthAdjust="spacing" textLength="88" x="999.5" y="439.6074">addProperty()</text><ellipse cx="990.5" cy="453.9316" fill="#84BE84" rx="3" ry="3" style="stroke:#038048;stroke-width:1.0;"/><text fill="#000000" font-family="sans-serif" font-size="14" lengthAdjust="spacing" textLength="113" x="999.5" y="458.2285">validateProperty()</text></g><!--link RegisterPropertyUI to RegisterPropertyController--><g id="link_RegisterPropertyUI_RegisterPropertyController"><path codeLine="53" d="M836.5,92.09 C836.5,108.75 836.5,128.34 836.5,146.81 " fill="none" id="RegisterPropertyUI-to-RegisterPropertyController" style="stroke:#181818;stroke-width:1.0;"/><polygon fill="#181818" points="836.5,151.98,840.5,142.98,836.5,146.98,832.5,142.98,836.5,151.98" style="stroke:#181818;stroke-width:1.0;"/></g><!--link RegisterPropertyController to Repositories--><g id="link_RegisterPropertyController_Repositories"><path codeLine="54" d="M771.21,274 C751.56,292.77 730.25,313.84 711.5,334 C693.15,353.73 673.74,377.28 659.55,395.05 " fill="none" id="RegisterPropertyController-to-Repositories" style="stroke:#181818;stroke-width:1.0;"/><polygon fill="#181818" points="656.42,398.97,665.1536,394.4176,659.533,395.0573,658.8933,389.4367,656.42,398.97" style="stroke:#181818;stroke-width:1.0;"/></g><!--link RegisterPropertyController to RegisterEmployeeRepository--><g id="link_RegisterPropertyController_RegisterEmployeeRepository"><path codeLine="55" d="M836.5,274.16 C836.5,313.52 836.5,363.13 836.5,393.7 " fill="none" id="RegisterPropertyController-to-RegisterEmployeeRepository" style="stroke:#181818;stroke-width:1.0;"/><polygon fill="#181818" points="836.5,398.81,840.5,389.81,836.5,393.81,832.5,389.81,836.5,398.81" style="stroke:#181818;stroke-width:1.0;"/></g><!--link RegisterPropertyController to PropertyRepository--><g id="link_RegisterPropertyController_PropertyRepository"><path codeLine="56" d="M900.13,274.16 C934.77,306.91 976.9,346.75 1008.71,376.81 " fill="none" id="RegisterPropertyController-to-PropertyRepository" style="stroke:#181818;stroke-width:1.0;"/><polygon fill="#181818" points="1012.53,380.43,1008.7177,371.3489,1008.889,377.0032,1003.2347,377.1745,1012.53,380.43" style="stroke:#181818;stroke-width:1.0;"/></g><!--link PropertyRepository to Property--><g id="link_PropertyRepository_Property"><path codeLine="57" d="M1020.3,465.8 C1003.89,482.4 983.28,500.29 961.5,512 C828.11,583.7 654.67,616.33 542.95,630.74 " fill="none" id="PropertyRepository-to-Property" style="stroke:#181818;stroke-width:1.0;"/><polygon fill="#181818" points="537.68,631.41,547.1117,634.2461,542.6403,630.781,546.1053,626.3096,537.68,631.41" style="stroke:#181818;stroke-width:1.0;"/></g><!--link House to Property--><g id="link_House_Property"><path codeLine="58" d="M210.08,499.83 C215.95,503.99 221.78,508.07 227.5,512 C256.8,532.15 289.05,553.2 319.04,572.34 " fill="none" id="House-to-Property" style="stroke:#181818;stroke-width:1.0;"/><polygon fill="#181818" points="323.45,575.15,318.0099,566.9399,319.2335,572.4628,313.7105,573.6864,323.45,575.15" style="stroke:#181818;stroke-width:1.0;"/></g><!--link Apartment to Property--><g id="link_Apartment_Property"><path codeLine="59" d="M369.68,484.01 C379.59,509.68 391.27,539.93 401.73,567.01 " fill="none" id="Apartment-to-Property" style="stroke:#181818;stroke-width:1.0;"/><polygon fill="#181818" points="403.54,571.68,404.0365,561.8437,401.7422,567.0144,396.5715,564.7201,403.54,571.68" style="stroke:#181818;stroke-width:1.0;"/></g><!--link Land to Property--><g id="link_Land_Property"><path codeLine="60" d="M506.4,447.28 C495.31,475.66 476.02,525.03 459.66,566.9 " fill="none" id="Land-to-Property" style="stroke:#181818;stroke-width:1.0;"/><polygon fill="#181818" points="457.78,571.7,464.7741,564.7659,459.595,567.0411,457.3198,561.8619,457.78,571.7" style="stroke:#181818;stroke-width:1.0;"/></g><!--SRC=[nPDDQiCm48NtFeMMBIKtA87yGGs1X8OUO6nFR55PKcVaKXDwzohnFxQJPRqotxmPlH5FiG9cyOxMi7I69F8b-0tYcgQI7T8kjygKYAsgx3H7CXR9UIByjn1IEs5h5cvhU5O6d012gC79aTIfW2GXP1weOkdA3Mf7kFM7WuwnBg-8e5IUlLRTIs4puqnAO3Dk_RoPWh5lHXTvX7Guhp4XOtAUAe7Bvcf7e4z_sCb2Z3ph1ByAQNFlkbP4nYW4BJBWDJ1ELqATGIGTH0htvjm8JeNU_VXxBWW5T__jWYiBvAu3_t79niiUT789HdbfCl4HYihaYqZHhLBV-lHSWzY7mM6ZzDXFcHcpCJuDHYca_hXGL-be9tes3cg_UZF0ymvQ0mthnhG7-yJsEYhs3Kecer71n6qi5iixsmLt5gywkqVwM3ltT1zrZfSF9kwZhmnkRsw8sfGEyJKmG_87]--></g></svg>