<?xml version="1.0" encoding="us-ascii" standalone="no"?><svg xmlns="http://www.w3.org/2000/svg" xmlns:xlink="http://www.w3.org/1999/xlink" contentStyleType="text/css" height="588px" preserveAspectRatio="none" style="width:440px;height:588px;background:#FFFFFF;" version="1.1" viewBox="0 0 440 588" width="440px" zoomAndPan="magnify"><defs/><g><text fill="#000000" font-family="sans-serif" font-size="14" font-weight="bold" lengthAdjust="spacing" textLength="231" x="105.75" y="28.5352">System Sequence Diagram (SSD)</text><rect fill="#FFFFFF" height="369.6816" style="stroke:#181818;stroke-width:1.0;" width="10" x="38.5" y="128.9766"/><rect fill="#FFFFFF" height="29.3105" style="stroke:#181818;stroke-width:1.0;" width="10" x="385.5" y="150.2871"/><rect fill="#FFFFFF" height="29.3105" style="stroke:#181818;stroke-width:1.0;" width="10" x="385.5" y="208.9082"/><rect fill="#FFFFFF" height="29.3105" style="stroke:#181818;stroke-width:1.0;" width="10" x="385.5" y="267.5293"/><rect fill="#FFFFFF" height="29.3105" style="stroke:#181818;stroke-width:1.0;" width="10" x="385.5" y="326.1504"/><rect fill="#FFFFFF" height="97.8867" style="stroke:#181818;stroke-width:1.0;" width="10" x="385.5" y="384.7715"/><rect fill="none" height="90.8867" style="stroke:#000000;stroke-width:1.5;" width="423.5" x="10" y="399.7715"/><line style="stroke:#181818;stroke-width:0.5;stroke-dasharray:5.0,5.0;" x1="43" x2="43" y1="118.9766" y2="507.6582"/><line style="stroke:#181818;stroke-width:0.5;stroke-dasharray:5.0,5.0;" x1="390.5" x2="390.5" y1="118.9766" y2="507.6582"/><text fill="#000000" font-family="sans-serif" font-size="14" lengthAdjust="spacing" textLength="41" x="20" y="116.0234">Agent</text><ellipse cx="43.5" cy="50.9883" fill="#E3E3E3" rx="8" ry="8" style="stroke:#181818;stroke-width:0.5;"/><path d="M43.5,58.9883 L43.5,85.9883 M30.5,66.9883 L56.5,66.9883 M43.5,85.9883 L30.5,100.9883 M43.5,85.9883 L56.5,100.9883 " fill="none" style="stroke:#181818;stroke-width:0.5;"/><text fill="#000000" font-family="sans-serif" font-size="14" lengthAdjust="spacing" textLength="41" x="20" y="520.1934">Agent</text><ellipse cx="43.5" cy="531.6465" fill="#E3E3E3" rx="8" ry="8" style="stroke:#181818;stroke-width:0.5;"/><path d="M43.5,539.6465 L43.5,566.6465 M30.5,547.6465 L56.5,547.6465 M43.5,566.6465 L30.5,581.6465 M43.5,566.6465 L56.5,581.6465 " fill="none" style="stroke:#181818;stroke-width:0.5;"/><rect fill="#E3E3E3" height="30.4883" rx="2.5" ry="2.5" style="stroke:#181818;stroke-width:0.5;" width="66" x="357.5" y="87.4883"/><text fill="#000000" font-family="sans-serif" font-size="14" lengthAdjust="spacing" textLength="52" x="364.5" y="108.0234">:System</text><rect fill="#E3E3E3" height="30.4883" rx="2.5" ry="2.5" style="stroke:#181818;stroke-width:0.5;" width="66" x="357.5" y="506.6582"/><text fill="#000000" font-family="sans-serif" font-size="14" lengthAdjust="spacing" textLength="52" x="364.5" y="527.1934">:System</text><rect fill="#FFFFFF" height="369.6816" style="stroke:#181818;stroke-width:1.0;" width="10" x="38.5" y="128.9766"/><rect fill="#FFFFFF" height="29.3105" style="stroke:#181818;stroke-width:1.0;" width="10" x="385.5" y="150.2871"/><rect fill="#FFFFFF" height="29.3105" style="stroke:#181818;stroke-width:1.0;" width="10" x="385.5" y="208.9082"/><rect fill="#FFFFFF" height="29.3105" style="stroke:#181818;stroke-width:1.0;" width="10" x="385.5" y="267.5293"/><rect fill="#FFFFFF" height="29.3105" style="stroke:#181818;stroke-width:1.0;" width="10" x="385.5" y="326.1504"/><rect fill="#FFFFFF" height="97.8867" style="stroke:#181818;stroke-width:1.0;" width="10" x="385.5" y="384.7715"/><polygon fill="#181818" points="373.5,146.2871,383.5,150.2871,373.5,154.2871,377.5,150.2871" style="stroke:#181818;stroke-width:1.0;"/><line style="stroke:#181818;stroke-width:1.0;" x1="48.5" x2="379.5" y1="150.2871" y2="150.2871"/><text fill="#000000" font-family="sans-serif" font-size="13" font-weight="bold" lengthAdjust="spacing" textLength="9" x="55.5" y="145.5449">1</text><text fill="#000000" font-family="sans-serif" font-size="13" lengthAdjust="spacing" textLength="140" x="68.5" y="145.5449">asks to register a visit</text><polygon fill="#181818" points="59.5,175.5977,49.5,179.5977,59.5,183.5977,55.5,179.5977" style="stroke:#181818;stroke-width:1.0;"/><line style="stroke:#181818;stroke-width:1.0;stroke-dasharray:2.0,2.0;" x1="53.5" x2="389.5" y1="179.5977" y2="179.5977"/><text fill="#000000" font-family="sans-serif" font-size="13" font-weight="bold" lengthAdjust="spacing" textLength="9" x="65.5" y="174.8555">2</text><text fill="#000000" font-family="sans-serif" font-size="13" lengthAdjust="spacing" textLength="211" x="78.5" y="174.8555">shows the list of scheduled visits</text><polygon fill="#181818" points="373.5,204.9082,383.5,208.9082,373.5,212.9082,377.5,208.9082" style="stroke:#181818;stroke-width:1.0;"/><line style="stroke:#181818;stroke-width:1.0;" x1="48.5" x2="379.5" y1="208.9082" y2="208.9082"/><text fill="#000000" font-family="sans-serif" font-size="13" font-weight="bold" lengthAdjust="spacing" textLength="9" x="55.5" y="204.166">3</text><text fill="#000000" font-family="sans-serif" font-size="13" lengthAdjust="spacing" textLength="121" x="68.5" y="204.166">select specific visit</text><polygon fill="#181818" points="59.5,234.2188,49.5,238.2188,59.5,242.2188,55.5,238.2188" style="stroke:#181818;stroke-width:1.0;"/><line style="stroke:#181818;stroke-width:1.0;stroke-dasharray:2.0,2.0;" x1="53.5" x2="389.5" y1="238.2188" y2="238.2188"/><text fill="#000000" font-family="sans-serif" font-size="13" font-weight="bold" lengthAdjust="spacing" textLength="9" x="65.5" y="233.4766">4</text><text fill="#000000" font-family="sans-serif" font-size="13" lengthAdjust="spacing" textLength="122" x="78.5" y="233.4766">display visit details</text><polygon fill="#181818" points="373.5,263.5293,383.5,267.5293,373.5,271.5293,377.5,267.5293" style="stroke:#181818;stroke-width:1.0;"/><line style="stroke:#181818;stroke-width:1.0;" x1="48.5" x2="379.5" y1="267.5293" y2="267.5293"/><text fill="#000000" font-family="sans-serif" font-size="13" font-weight="bold" lengthAdjust="spacing" textLength="9" x="55.5" y="262.7871">5</text><text fill="#000000" font-family="sans-serif" font-size="13" lengthAdjust="spacing" textLength="222" x="68.5" y="262.7871">Provide opinion about the business</text><polygon fill="#181818" points="59.5,292.8398,49.5,296.8398,59.5,300.8398,55.5,296.8398" style="stroke:#181818;stroke-width:1.0;"/><line style="stroke:#181818;stroke-width:1.0;stroke-dasharray:2.0,2.0;" x1="53.5" x2="389.5" y1="296.8398" y2="296.8398"/><text fill="#000000" font-family="sans-serif" font-size="13" font-weight="bold" lengthAdjust="spacing" textLength="9" x="65.5" y="292.0977">6</text><text fill="#000000" font-family="sans-serif" font-size="13" lengthAdjust="spacing" textLength="300" x="78.5" y="292.0977">Validate opinion (alphanumeric, 200 characters)</text><polygon fill="#181818" points="373.5,322.1504,383.5,326.1504,373.5,330.1504,377.5,326.1504" style="stroke:#181818;stroke-width:1.0;"/><line style="stroke:#181818;stroke-width:1.0;" x1="48.5" x2="379.5" y1="326.1504" y2="326.1504"/><text fill="#000000" font-family="sans-serif" font-size="13" font-weight="bold" lengthAdjust="spacing" textLength="9" x="55.5" y="321.4082">7</text><text fill="#000000" font-family="sans-serif" font-size="13" lengthAdjust="spacing" textLength="200" x="68.5" y="321.4082">Select classification from 1 to 5</text><polygon fill="#181818" points="59.5,351.4609,49.5,355.4609,59.5,359.4609,55.5,355.4609" style="stroke:#181818;stroke-width:1.0;"/><line style="stroke:#181818;stroke-width:1.0;stroke-dasharray:2.0,2.0;" x1="53.5" x2="389.5" y1="355.4609" y2="355.4609"/><text fill="#000000" font-family="sans-serif" font-size="13" font-weight="bold" lengthAdjust="spacing" textLength="9" x="65.5" y="350.7188">8</text><text fill="#000000" font-family="sans-serif" font-size="13" lengthAdjust="spacing" textLength="171" x="78.5" y="350.7188">Display classification scale</text><polygon fill="#181818" points="373.5,380.7715,383.5,384.7715,373.5,388.7715,377.5,384.7715" style="stroke:#181818;stroke-width:1.0;"/><line style="stroke:#181818;stroke-width:1.0;" x1="48.5" x2="379.5" y1="384.7715" y2="384.7715"/><text fill="#000000" font-family="sans-serif" font-size="13" font-weight="bold" lengthAdjust="spacing" textLength="9" x="55.5" y="380.0293">9</text><text fill="#000000" font-family="sans-serif" font-size="13" lengthAdjust="spacing" textLength="82" x="68.5" y="380.0293">Register visit</text><path d="M10,399.7715 L72,399.7715 L72,407.082 L62,417.082 L10,417.082 L10,399.7715 " fill="#EEEEEE" style="stroke:#000000;stroke-width:1.5;"/><rect fill="none" height="90.8867" style="stroke:#000000;stroke-width:1.5;" width="423.5" x="10" y="399.7715"/><text fill="#000000" font-family="sans-serif" font-size="13" font-weight="bold" lengthAdjust="spacing" textLength="17" x="25" y="413.3398">alt</text><text fill="#000000" font-family="sans-serif" font-size="11" font-weight="bold" lengthAdjust="spacing" textLength="94" x="87" y="412.4063">[Duplicate Entry]</text><polygon fill="#181818" points="59.5,434.3926,49.5,438.3926,59.5,442.3926,55.5,438.3926" style="stroke:#181818;stroke-width:1.0;"/><line style="stroke:#181818;stroke-width:1.0;stroke-dasharray:2.0,2.0;" x1="53.5" x2="384.5" y1="438.3926" y2="438.3926"/><text fill="#000000" font-family="sans-serif" font-size="13" font-weight="bold" lengthAdjust="spacing" textLength="18" x="65.5" y="433.6504">10</text><text fill="#000000" font-family="sans-serif" font-size="13" lengthAdjust="spacing" textLength="219" x="87.5" y="433.6504">Error - Duplicate entry for the visit</text><line style="stroke:#000000;stroke-width:1.0;stroke-dasharray:2.0,2.0;" x1="10" x2="433.5" y1="447.3926" y2="447.3926"/><text fill="#000000" font-family="sans-serif" font-size="11" font-weight="bold" lengthAdjust="spacing" textLength="70" x="15" y="458.0273">[Valid Entry]</text><polygon fill="#181818" points="59.5,478.6582,49.5,482.6582,59.5,486.6582,55.5,482.6582" style="stroke:#181818;stroke-width:1.0;"/><line style="stroke:#181818;stroke-width:1.0;stroke-dasharray:2.0,2.0;" x1="53.5" x2="389.5" y1="482.6582" y2="482.6582"/><text fill="#000000" font-family="sans-serif" font-size="13" font-weight="bold" lengthAdjust="spacing" textLength="18" x="65.5" y="477.916">11</text><text fill="#000000" font-family="sans-serif" font-size="13" lengthAdjust="spacing" textLength="161" x="87.5" y="477.916">Success - Visit registered</text><!--SRC=[dLDDRzim3BtxLn0vjS02T0DsyM50W1Iz3ZFGEoFJDX5PSaKfHVxzA3lMsYx3ikbaItmVugFao6x2W2ECtdap13yIn92ead8oeJbYJqqyMu909gBhxTi26R3rh-nwwD0ALLNagANDMIADqD1B8cS8zenzBhzhclrzLM6AtgNnG46_JVG1DhkUNDm02koUAkMER7X25s5JBsJpsV8vW_Y4aN9n1RfsJx3zjihMMdeKY5ujzwnR0H1EB1pdsW9UsU2oBl2jCYbVhPVphqep45Xb0T-1c87QPAbTw6I6jdILyOCb8Qlz0vd8SCVcV_oqB9F5ym9LsOXiRxPGm_VWJzmI-8aTUmTuy2dErpiaOKSY_s2dXcUqtEQwbUyExJIWvag1pIVuyl00Pj0fCHg0t1UQFtWjVbUxpT8mOr4aTmnZ5kbqJE5pplPhWTtgU7_ftmTACQWpVQkzqiuVwspzIlAQcR9l8-pJPBCgmQEBuLpEhdXz346VnVODX384EjtDaRqNpQlya3x49Ps_opJ960rUXPxdeLeV3BNlKBytfOYvjle9]--></g></svg>