<?xml version="1.0" encoding="us-ascii" standalone="no"?><svg xmlns="http://www.w3.org/2000/svg" xmlns:xlink="http://www.w3.org/1999/xlink" contentStyleType="text/css" height="1101px" preserveAspectRatio="none" style="width:1654px;height:1101px;background:#FFFFFF;" version="1.1" viewBox="0 0 1654 1101" width="1654px" zoomAndPan="magnify"><defs/><g><rect fill="#FFFFFF" height="911.4258" style="stroke:#181818;stroke-width:1.0;" width="10" x="23.5" y="91.4883"/><rect fill="#FFFFFF" height="890.1152" style="stroke:#181818;stroke-width:1.0;" width="10" x="393.5" y="112.7988"/><rect fill="#FFFFFF" height="731.3848" style="stroke:#181818;stroke-width:1.0;" width="10" x="678.5" y="242.2188"/><rect fill="#FFFFFF" height="29.3105" style="stroke:#181818;stroke-width:1.0;" width="10" x="861.5" y="271.5293"/><rect fill="#FFFFFF" height="29.3105" style="stroke:#181818;stroke-width:1.0;" width="10" x="974.5" y="330.1504"/><rect fill="#FFFFFF" height="258.4844" style="stroke:#181818;stroke-width:1.0;" width="10" x="1134" y="685.8086"/><rect fill="#FFFFFF" height="124.9316" style="stroke:#181818;stroke-width:1.0;" width="10" x="1139" y="783.0508"/><rect fill="#FFFFFF" height="40.3105" style="stroke:#181818;stroke-width:1.0;" width="10" x="1144" y="825.3613"/><rect fill="#FFFFFF" height="29.3105" style="stroke:#181818;stroke-width:1.0;" width="10" x="1436" y="388.7715"/><line style="stroke:#181818;stroke-width:0.5;stroke-dasharray:5.0,5.0;" x1="28" x2="28" y1="81.4883" y2="1020.9141"/><line style="stroke:#181818;stroke-width:0.5;stroke-dasharray:5.0,5.0;" x1="398" x2="398" y1="81.4883" y2="1020.9141"/><line style="stroke:#181818;stroke-width:0.5;stroke-dasharray:5.0,5.0;" x1="683" x2="683" y1="210.1641" y2="1020.9141"/><line style="stroke:#181818;stroke-width:0.5;stroke-dasharray:5.0,5.0;" x1="866" x2="866" y1="81.4883" y2="1020.9141"/><line style="stroke:#181818;stroke-width:0.5;stroke-dasharray:5.0,5.0;" x1="979" x2="979" y1="81.4883" y2="1020.9141"/><line style="stroke:#181818;stroke-width:0.5;stroke-dasharray:5.0,5.0;" x1="1139" x2="1139" y1="81.4883" y2="1020.9141"/><line style="stroke:#181818;stroke-width:0.5;stroke-dasharray:5.0,5.0;" x1="1440.5" x2="1440.5" y1="81.4883" y2="1020.9141"/><line style="stroke:#181818;stroke-width:0.5;stroke-dasharray:5.0,5.0;" x1="1586.5" x2="1586.5" y1="733.7744" y2="1020.9141"/><text fill="#000000" font-family="sans-serif" font-size="14" lengthAdjust="spacing" textLength="41" x="5" y="78.5352">Agent</text><ellipse cx="28.5" cy="13.5" fill="#E3E3E3" rx="8" ry="8" style="stroke:#181818;stroke-width:0.5;"/><path d="M28.5,21.5 L28.5,48.5 M15.5,29.5 L41.5,29.5 M28.5,48.5 L15.5,63.5 M28.5,48.5 L41.5,63.5 " fill="none" style="stroke:#181818;stroke-width:0.5;"/><text fill="#000000" font-family="sans-serif" font-size="14" lengthAdjust="spacing" textLength="41" x="5" y="1033.4492">Agent</text><ellipse cx="28.5" cy="1044.9023" fill="#E3E3E3" rx="8" ry="8" style="stroke:#181818;stroke-width:0.5;"/><path d="M28.5,1052.9023 L28.5,1079.9023 M15.5,1060.9023 L41.5,1060.9023 M28.5,1079.9023 L15.5,1094.9023 M28.5,1079.9023 L41.5,1094.9023 " fill="none" style="stroke:#181818;stroke-width:0.5;"/><rect fill="#E3E3E3" height="30.4883" rx="2.5" ry="2.5" style="stroke:#181818;stroke-width:0.5;" width="187" x="305" y="50"/><text fill="#000000" font-family="sans-serif" font-size="14" lengthAdjust="spacing" textLength="173" x="312" y="70.5352">:PublishAnnouncementUI</text><rect fill="#E3E3E3" height="30.4883" rx="2.5" ry="2.5" style="stroke:#181818;stroke-width:0.5;" width="187" x="305" y="1019.9141"/><text fill="#000000" font-family="sans-serif" font-size="14" lengthAdjust="spacing" textLength="173" x="312" y="1040.4492">:PublishAnnouncementUI</text><rect fill="#E3E3E3" height="30.4883" rx="2.5" ry="2.5" style="stroke:#181818;stroke-width:0.5;" width="243" x="562" y="1019.9141"/><text fill="#000000" font-family="sans-serif" font-size="14" lengthAdjust="spacing" textLength="229" x="569" y="1040.4492">:PublishAnnouncementController</text><rect fill="#E3E3E3" height="30.4883" rx="2.5" ry="2.5" style="stroke:#181818;stroke-width:0.5;" width="103" x="815" y="50"/><text fill="#000000" font-family="sans-serif" font-size="14" lengthAdjust="spacing" textLength="89" x="822" y="70.5352">:Repositories</text><rect fill="#E3E3E3" height="30.4883" rx="2.5" ry="2.5" style="stroke:#181818;stroke-width:0.5;" width="103" x="815" y="1019.9141"/><text fill="#000000" font-family="sans-serif" font-size="14" lengthAdjust="spacing" textLength="89" x="822" y="1040.4492">:Repositories</text><rect fill="#E3E3E3" height="46.9766" rx="2.5" ry="2.5" style="stroke:#181818;stroke-width:0.5;" width="103" x="928" y="33.5117"/><text fill="#000000" font-family="sans-serif" font-size="14" lengthAdjust="spacing" textLength="82" x="938.5" y="54.0469">repositories</text><text fill="#000000" font-family="sans-serif" font-size="14" lengthAdjust="spacing" textLength="89" x="935" y="70.5352">:Repositories</text><rect fill="#E3E3E3" height="46.9766" rx="2.5" ry="2.5" style="stroke:#181818;stroke-width:0.5;" width="103" x="928" y="1019.9141"/><text fill="#000000" font-family="sans-serif" font-size="14" lengthAdjust="spacing" textLength="82" x="938.5" y="1040.4492">repositories</text><text fill="#000000" font-family="sans-serif" font-size="14" lengthAdjust="spacing" textLength="89" x="935" y="1056.9375">:Repositories</text><rect fill="#E3E3E3" height="30.4883" rx="2.5" ry="2.5" style="stroke:#181818;stroke-width:0.5;" width="196" x="1041" y="50"/><text fill="#000000" font-family="sans-serif" font-size="14" lengthAdjust="spacing" textLength="182" x="1048" y="70.5352">:AnnouncementRepository</text><rect fill="#E3E3E3" height="30.4883" rx="2.5" ry="2.5" style="stroke:#181818;stroke-width:0.5;" width="196" x="1041" y="1019.9141"/><text fill="#000000" font-family="sans-serif" font-size="14" lengthAdjust="spacing" textLength="182" x="1048" y="1040.4492">:AnnouncementRepository</text><rect fill="#E3E3E3" height="30.4883" rx="2.5" ry="2.5" style="stroke:#181818;stroke-width:0.5;" width="149" x="1366.5" y="50"/><text fill="#000000" font-family="sans-serif" font-size="14" lengthAdjust="spacing" textLength="135" x="1373.5" y="70.5352">:PropertyRepository</text><rect fill="#E3E3E3" height="30.4883" rx="2.5" ry="2.5" style="stroke:#181818;stroke-width:0.5;" width="149" x="1366.5" y="1019.9141"/><text fill="#000000" font-family="sans-serif" font-size="14" lengthAdjust="spacing" textLength="135" x="1373.5" y="1040.4492">:PropertyRepository</text><rect fill="#E3E3E3" height="30.4883" rx="2.5" ry="2.5" style="stroke:#181818;stroke-width:0.5;" width="123" x="1525.5" y="1019.9141"/><text fill="#000000" font-family="sans-serif" font-size="14" lengthAdjust="spacing" textLength="109" x="1532.5" y="1040.4492">:Announcement</text><rect fill="#FFFFFF" height="911.4258" style="stroke:#181818;stroke-width:1.0;" width="10" x="23.5" y="91.4883"/><rect fill="#FFFFFF" height="890.1152" style="stroke:#181818;stroke-width:1.0;" width="10" x="393.5" y="112.7988"/><rect fill="#FFFFFF" height="731.3848" style="stroke:#181818;stroke-width:1.0;" width="10" x="678.5" y="242.2188"/><rect fill="#FFFFFF" height="29.3105" style="stroke:#181818;stroke-width:1.0;" width="10" x="861.5" y="271.5293"/><rect fill="#FFFFFF" height="29.3105" style="stroke:#181818;stroke-width:1.0;" width="10" x="974.5" y="330.1504"/><rect fill="#FFFFFF" height="258.4844" style="stroke:#181818;stroke-width:1.0;" width="10" x="1134" y="685.8086"/><rect fill="#FFFFFF" height="124.9316" style="stroke:#181818;stroke-width:1.0;" width="10" x="1139" y="783.0508"/><rect fill="#FFFFFF" height="40.3105" style="stroke:#181818;stroke-width:1.0;" width="10" x="1144" y="825.3613"/><rect fill="#FFFFFF" height="29.3105" style="stroke:#181818;stroke-width:1.0;" width="10" x="1436" y="388.7715"/><polygon fill="#181818" points="381.5,108.7988,391.5,112.7988,381.5,116.7988,385.5,112.7988" style="stroke:#181818;stroke-width:1.0;"/><line style="stroke:#181818;stroke-width:1.0;" x1="33.5" x2="387.5" y1="112.7988" y2="112.7988"/><text fill="#000000" font-family="sans-serif" font-size="13" font-weight="bold" lengthAdjust="spacing" textLength="9" x="40.5" y="108.0566">1</text><text fill="#000000" font-family="sans-serif" font-size="13" lengthAdjust="spacing" textLength="213" x="53.5" y="108.0566">asks to publish an announcement</text><polygon fill="#181818" points="44.5,138.1094,34.5,142.1094,44.5,146.1094,40.5,142.1094" style="stroke:#181818;stroke-width:1.0;"/><line style="stroke:#181818;stroke-width:1.0;stroke-dasharray:2.0,2.0;" x1="38.5" x2="392.5" y1="142.1094" y2="142.1094"/><text fill="#000000" font-family="sans-serif" font-size="13" font-weight="bold" lengthAdjust="spacing" textLength="9" x="50.5" y="137.3672">2</text><text fill="#000000" font-family="sans-serif" font-size="13" lengthAdjust="spacing" textLength="78" x="63.5" y="137.3672">request data</text><polygon fill="#181818" points="381.5,167.4199,391.5,171.4199,381.5,175.4199,385.5,171.4199" style="stroke:#181818;stroke-width:1.0;"/><line style="stroke:#181818;stroke-width:1.0;" x1="33.5" x2="387.5" y1="171.4199" y2="171.4199"/><text fill="#000000" font-family="sans-serif" font-size="13" font-weight="bold" lengthAdjust="spacing" textLength="9" x="40.5" y="166.6777">3</text><text fill="#000000" font-family="sans-serif" font-size="13" lengthAdjust="spacing" textLength="149" x="53.5" y="166.6777">select the property type</text><polygon fill="#181818" points="550,196.7305,560,200.7305,550,204.7305,554,200.7305" style="stroke:#181818;stroke-width:1.0;"/><line style="stroke:#181818;stroke-width:1.0;" x1="403.5" x2="556" y1="200.7305" y2="200.7305"/><text fill="#000000" font-family="sans-serif" font-size="13" font-weight="bold" lengthAdjust="spacing" textLength="9" x="410.5" y="195.9883">4</text><text fill="#000000" font-family="sans-serif" font-size="13" lengthAdjust="spacing" textLength="38" x="423.5" y="195.9883">create</text><rect fill="#E3E3E3" height="30.4883" rx="2.5" ry="2.5" style="stroke:#181818;stroke-width:0.5;" width="243" x="562" y="179.4199"/><text fill="#000000" font-family="sans-serif" font-size="14" lengthAdjust="spacing" textLength="229" x="569" y="199.9551">:PublishAnnouncementController</text><polygon fill="#181818" points="666.5,238.2188,676.5,242.2188,666.5,246.2188,670.5,242.2188" style="stroke:#181818;stroke-width:1.0;"/><line style="stroke:#181818;stroke-width:1.0;" x1="403.5" x2="672.5" y1="242.2188" y2="242.2188"/><text fill="#000000" font-family="sans-serif" font-size="13" font-weight="bold" lengthAdjust="spacing" textLength="9" x="410.5" y="237.4766">5</text><text fill="#000000" font-family="sans-serif" font-size="13" lengthAdjust="spacing" textLength="80" x="423.5" y="237.4766">getProperty()</text><polygon fill="#181818" points="849.5,267.5293,859.5,271.5293,849.5,275.5293,853.5,271.5293" style="stroke:#181818;stroke-width:1.0;"/><line style="stroke:#181818;stroke-width:1.0;" x1="688.5" x2="855.5" y1="271.5293" y2="271.5293"/><text fill="#000000" font-family="sans-serif" font-size="13" font-weight="bold" lengthAdjust="spacing" textLength="9" x="695.5" y="266.7871">6</text><text fill="#000000" font-family="sans-serif" font-size="13" lengthAdjust="spacing" textLength="81" x="708.5" y="266.7871">getInstance()</text><polygon fill="#181818" points="699.5,296.8398,689.5,300.8398,699.5,304.8398,695.5,300.8398" style="stroke:#181818;stroke-width:1.0;"/><line style="stroke:#181818;stroke-width:1.0;stroke-dasharray:2.0,2.0;" x1="693.5" x2="865.5" y1="300.8398" y2="300.8398"/><text fill="#000000" font-family="sans-serif" font-size="13" font-weight="bold" lengthAdjust="spacing" textLength="9" x="705.5" y="296.0977">7</text><text fill="#000000" font-family="sans-serif" font-size="13" lengthAdjust="spacing" textLength="75" x="718.5" y="296.0977">repositories</text><polygon fill="#181818" points="962.5,326.1504,972.5,330.1504,962.5,334.1504,966.5,330.1504" style="stroke:#181818;stroke-width:1.0;"/><line style="stroke:#181818;stroke-width:1.0;" x1="688.5" x2="968.5" y1="330.1504" y2="330.1504"/><text fill="#000000" font-family="sans-serif" font-size="13" font-weight="bold" lengthAdjust="spacing" textLength="9" x="695.5" y="325.4082">8</text><text fill="#000000" font-family="sans-serif" font-size="13" lengthAdjust="spacing" textLength="147" x="708.5" y="325.4082">getPropertyRepository()</text><polygon fill="#181818" points="699.5,355.4609,689.5,359.4609,699.5,363.4609,695.5,359.4609" style="stroke:#181818;stroke-width:1.0;"/><line style="stroke:#181818;stroke-width:1.0;stroke-dasharray:2.0,2.0;" x1="693.5" x2="978.5" y1="359.4609" y2="359.4609"/><text fill="#000000" font-family="sans-serif" font-size="13" font-weight="bold" lengthAdjust="spacing" textLength="9" x="705.5" y="354.7188">9</text><text fill="#000000" font-family="sans-serif" font-size="13" lengthAdjust="spacing" textLength="119" x="718.5" y="354.7188">PropertyRepository</text><polygon fill="#181818" points="1424,384.7715,1434,388.7715,1424,392.7715,1428,388.7715" style="stroke:#181818;stroke-width:1.0;"/><line style="stroke:#181818;stroke-width:1.0;" x1="688.5" x2="1430" y1="388.7715" y2="388.7715"/><text fill="#000000" font-family="sans-serif" font-size="13" font-weight="bold" lengthAdjust="spacing" textLength="18" x="695.5" y="384.0293">10</text><text fill="#000000" font-family="sans-serif" font-size="13" lengthAdjust="spacing" textLength="199" x="717.5" y="384.0293">getPropertyPropertyRepository()</text><polygon fill="#181818" points="699.5,414.082,689.5,418.082,699.5,422.082,695.5,418.082" style="stroke:#181818;stroke-width:1.0;"/><line style="stroke:#181818;stroke-width:1.0;stroke-dasharray:2.0,2.0;" x1="693.5" x2="1440" y1="418.082" y2="418.082"/><text fill="#000000" font-family="sans-serif" font-size="13" font-weight="bold" lengthAdjust="spacing" textLength="18" x="705.5" y="413.3398">11</text><text fill="#000000" font-family="sans-serif" font-size="13" lengthAdjust="spacing" textLength="52" x="727.5" y="413.3398">Property</text><polygon fill="#181818" points="414.5,443.3926,404.5,447.3926,414.5,451.3926,410.5,447.3926" style="stroke:#181818;stroke-width:1.0;"/><line style="stroke:#181818;stroke-width:1.0;stroke-dasharray:2.0,2.0;" x1="408.5" x2="677.5" y1="447.3926" y2="447.3926"/><text fill="#000000" font-family="sans-serif" font-size="13" font-weight="bold" lengthAdjust="spacing" textLength="18" x="420.5" y="442.6504">12</text><text fill="#000000" font-family="sans-serif" font-size="13" lengthAdjust="spacing" textLength="52" x="442.5" y="442.6504">Property</text><polygon fill="#181818" points="44.5,488.0137,34.5,492.0137,44.5,496.0137,40.5,492.0137" style="stroke:#181818;stroke-width:1.0;"/><line style="stroke:#181818;stroke-width:1.0;stroke-dasharray:2.0,2.0;" x1="38.5" x2="392.5" y1="492.0137" y2="492.0137"/><text fill="#000000" font-family="sans-serif" font-size="13" font-weight="bold" lengthAdjust="spacing" textLength="18" x="50.5" y="479.6162">13</text><text fill="#000000" font-family="sans-serif" font-size="13" lengthAdjust="spacing" textLength="145" x="72.5" y="471.9609">presents the data to be</text><text fill="#000000" font-family="sans-serif" font-size="13" lengthAdjust="spacing" textLength="196" x="76.5" y="487.2715">filled in by the type of porperty</text><polygon fill="#181818" points="381.5,532.6348,391.5,536.6348,381.5,540.6348,385.5,536.6348" style="stroke:#181818;stroke-width:1.0;"/><line style="stroke:#181818;stroke-width:1.0;" x1="33.5" x2="387.5" y1="536.6348" y2="536.6348"/><text fill="#000000" font-family="sans-serif" font-size="13" font-weight="bold" lengthAdjust="spacing" textLength="18" x="40.5" y="524.2373">14</text><text fill="#000000" font-family="sans-serif" font-size="13" lengthAdjust="spacing" textLength="310" x="62.5" y="516.582">insert the requested data (size, location, distance</text><text fill="#000000" font-family="sans-serif" font-size="13" lengthAdjust="spacing" textLength="252" x="62.5" y="531.8926">from the city center, price, commission)</text><polygon fill="#181818" points="44.5,561.9453,34.5,565.9453,44.5,569.9453,40.5,565.9453" style="stroke:#181818;stroke-width:1.0;"/><line style="stroke:#181818;stroke-width:1.0;stroke-dasharray:2.0,2.0;" x1="38.5" x2="392.5" y1="565.9453" y2="565.9453"/><text fill="#000000" font-family="sans-serif" font-size="13" font-weight="bold" lengthAdjust="spacing" textLength="18" x="50.5" y="561.2031">15</text><text fill="#000000" font-family="sans-serif" font-size="13" lengthAdjust="spacing" textLength="80" x="72.5" y="561.2031">validate data</text><polygon fill="#181818" points="666.5,621.877,676.5,625.877,666.5,629.877,670.5,625.877" style="stroke:#181818;stroke-width:1.0;"/><line style="stroke:#181818;stroke-width:1.0;" x1="403.5" x2="672.5" y1="625.877" y2="625.877"/><text fill="#000000" font-family="sans-serif" font-size="13" font-weight="bold" lengthAdjust="spacing" textLength="18" x="410.5" y="605.8242">16</text><text fill="#000000" font-family="sans-serif" font-size="13" lengthAdjust="spacing" textLength="229" x="432.5" y="590.5137">createAnnouncement (size, location,</text><text fill="#000000" font-family="sans-serif" font-size="13" lengthAdjust="spacing" textLength="138" x="436.5" y="605.8242">distance from the city</text><text fill="#000000" font-family="sans-serif" font-size="13" lengthAdjust="spacing" textLength="167" x="436.5" y="621.1348">center, price, commission)</text><polygon fill="#181818" points="1122,681.8086,1132,685.8086,1122,689.8086,1126,685.8086" style="stroke:#181818;stroke-width:1.0;"/><line style="stroke:#181818;stroke-width:1.0;" x1="688.5" x2="1128" y1="685.8086" y2="685.8086"/><text fill="#000000" font-family="sans-serif" font-size="13" font-weight="bold" lengthAdjust="spacing" textLength="18" x="695.5" y="665.7559">17</text><text fill="#000000" font-family="sans-serif" font-size="13" lengthAdjust="spacing" textLength="225" x="717.5" y="650.4453">createAnnouncement(size, location,</text><text fill="#000000" font-family="sans-serif" font-size="13" lengthAdjust="spacing" textLength="138" x="721.5" y="665.7559">distance from the city</text><text fill="#000000" font-family="sans-serif" font-size="13" lengthAdjust="spacing" textLength="167" x="721.5" y="681.0664">center, price, commission)</text><polygon fill="#181818" points="1513.5,741.7402,1523.5,745.7402,1513.5,749.7402,1517.5,745.7402" style="stroke:#181818;stroke-width:1.0;"/><line style="stroke:#181818;stroke-width:1.0;" x1="1144" x2="1519.5" y1="745.7402" y2="745.7402"/><text fill="#000000" font-family="sans-serif" font-size="13" font-weight="bold" lengthAdjust="spacing" textLength="18" x="1151" y="725.6875">18</text><text fill="#000000" font-family="sans-serif" font-size="13" lengthAdjust="spacing" textLength="130" x="1173" y="710.377">create(size, location,</text><text fill="#000000" font-family="sans-serif" font-size="13" lengthAdjust="spacing" textLength="138" x="1177" y="725.6875">distance from the city</text><text fill="#000000" font-family="sans-serif" font-size="13" lengthAdjust="spacing" textLength="167" x="1177" y="740.998">center, price, commission)</text><rect fill="#E3E3E3" height="30.4883" rx="2.5" ry="2.5" style="stroke:#181818;stroke-width:0.5;" width="123" x="1525.5" y="712.252"/><text fill="#000000" font-family="sans-serif" font-size="14" lengthAdjust="spacing" textLength="109" x="1532.5" y="732.7871">:Announcement</text><line style="stroke:#181818;stroke-width:1.0;" x1="1144" x2="1191" y1="770.0508" y2="770.0508"/><line style="stroke:#181818;stroke-width:1.0;" x1="1191" x2="1191" y1="770.0508" y2="783.0508"/><line style="stroke:#181818;stroke-width:1.0;" x1="1150" x2="1191" y1="783.0508" y2="783.0508"/><polygon fill="#181818" points="1160,779.0508,1150,783.0508,1160,787.0508,1156,783.0508" style="stroke:#181818;stroke-width:1.0;"/><text fill="#000000" font-family="sans-serif" font-size="13" font-weight="bold" lengthAdjust="spacing" textLength="18" x="1156" y="765.3086">19</text><text fill="#000000" font-family="sans-serif" font-size="13" lengthAdjust="spacing" textLength="225" x="1178" y="765.3086">addAnnouncement (Announcement)</text><line style="stroke:#181818;stroke-width:1.0;" x1="1149" x2="1196" y1="812.3613" y2="812.3613"/><line style="stroke:#181818;stroke-width:1.0;" x1="1196" x2="1196" y1="812.3613" y2="825.3613"/><line style="stroke:#181818;stroke-width:1.0;" x1="1155" x2="1196" y1="825.3613" y2="825.3613"/><polygon fill="#181818" points="1165,821.3613,1155,825.3613,1165,829.3613,1161,825.3613" style="stroke:#181818;stroke-width:1.0;"/><text fill="#000000" font-family="sans-serif" font-size="13" font-weight="bold" lengthAdjust="spacing" textLength="18" x="1161" y="807.6191">20</text><text fill="#000000" font-family="sans-serif" font-size="13" lengthAdjust="spacing" textLength="251" x="1183" y="807.6191">validateAnnouncement(Announcement))</text><line style="stroke:#181818;stroke-width:1.0;stroke-dasharray:2.0,2.0;" x1="1154" x2="1196" y1="864.6719" y2="864.6719"/><line style="stroke:#181818;stroke-width:1.0;stroke-dasharray:2.0,2.0;" x1="1196" x2="1196" y1="864.6719" y2="877.6719"/><line style="stroke:#181818;stroke-width:1.0;stroke-dasharray:2.0,2.0;" x1="1149" x2="1196" y1="877.6719" y2="877.6719"/><polygon fill="#181818" points="1159,873.6719,1149,877.6719,1159,881.6719,1155,877.6719" style="stroke:#181818;stroke-width:1.0;"/><text fill="#000000" font-family="sans-serif" font-size="13" font-weight="bold" lengthAdjust="spacing" textLength="18" x="1161" y="859.9297">21</text><text fill="#000000" font-family="sans-serif" font-size="13" lengthAdjust="spacing" textLength="4" x="1183" y="859.9297">&#160;</text><line style="stroke:#181818;stroke-width:1.0;stroke-dasharray:2.0,2.0;" x1="1149" x2="1191" y1="906.9824" y2="906.9824"/><line style="stroke:#181818;stroke-width:1.0;stroke-dasharray:2.0,2.0;" x1="1191" x2="1191" y1="906.9824" y2="919.9824"/><line style="stroke:#181818;stroke-width:1.0;stroke-dasharray:2.0,2.0;" x1="1144" x2="1191" y1="919.9824" y2="919.9824"/><polygon fill="#181818" points="1154,915.9824,1144,919.9824,1154,923.9824,1150,919.9824" style="stroke:#181818;stroke-width:1.0;"/><text fill="#000000" font-family="sans-serif" font-size="13" font-weight="bold" lengthAdjust="spacing" textLength="18" x="1156" y="902.2402">22</text><text fill="#000000" font-family="sans-serif" font-size="13" lengthAdjust="spacing" textLength="4" x="1178" y="902.2402">&#160;</text><polygon fill="#181818" points="699.5,940.293,689.5,944.293,699.5,948.293,695.5,944.293" style="stroke:#181818;stroke-width:1.0;"/><line style="stroke:#181818;stroke-width:1.0;stroke-dasharray:2.0,2.0;" x1="693.5" x2="1138" y1="944.293" y2="944.293"/><text fill="#000000" font-family="sans-serif" font-size="13" font-weight="bold" lengthAdjust="spacing" textLength="18" x="705.5" y="939.5508">23</text><text fill="#000000" font-family="sans-serif" font-size="13" lengthAdjust="spacing" textLength="27" x="727.5" y="939.5508">task</text><polygon fill="#181818" points="414.5,969.6035,404.5,973.6035,414.5,977.6035,410.5,973.6035" style="stroke:#181818;stroke-width:1.0;"/><line style="stroke:#181818;stroke-width:1.0;stroke-dasharray:2.0,2.0;" x1="408.5" x2="682.5" y1="973.6035" y2="973.6035"/><text fill="#000000" font-family="sans-serif" font-size="13" font-weight="bold" lengthAdjust="spacing" textLength="18" x="420.5" y="968.8613">24</text><text fill="#000000" font-family="sans-serif" font-size="13" lengthAdjust="spacing" textLength="95" x="442.5" y="968.8613">Announcement</text><polygon fill="#181818" points="39.5,998.9141,29.5,1002.9141,39.5,1006.9141,35.5,1002.9141" style="stroke:#181818;stroke-width:1.0;"/><line style="stroke:#181818;stroke-width:1.0;stroke-dasharray:2.0,2.0;" x1="33.5" x2="397.5" y1="1002.9141" y2="1002.9141"/><text fill="#000000" font-family="sans-serif" font-size="13" font-weight="bold" lengthAdjust="spacing" textLength="18" x="45.5" y="998.1719">25</text><text fill="#000000" font-family="sans-serif" font-size="13" lengthAdjust="spacing" textLength="170" x="67.5" y="998.1719">displays operation success</text><!--SRC=[xLTDSzf03BtxLsXoAMH29gLfslgGAKq8avHCcG3f9PV55h0JUzVTNTFINr_PWF4dXBQvcU62Ltfwqkh9GZzp4J35VF2baCvSIH_1g10jdPm4p7bcCnoQfOUWq35CpBoqWPupL_xaOWPJvccqB1OQAK9_WigotiovYp2LqapaBuivHYeuwinGc2DW6ZezYq0CTtZ0X84ZUn1EFAxd7I5aA1pqoN1y6vkER_URNabXbFGyLB7BrUYXdtDwm41gJYmuwjWcUR0SyYWnefvrKIcF9r42q1taOgGPRU5N-QQF2eu39GDKPfbpIXxlZ5J0jw9oymKp69NPWlMdquFM9LKJR79urc0a1AjA0XFqJG5iN18SkeFa8I6q28ZWR6gB7o5g0ouph3IIHeyw1ymS8LXd0sOPuDOuXNePNzpnCVav2Ydk3YkocQ7PLAZHB9YcsCVjK3nVuH1UIIkiu6-5fgvtaE2X6hwiaqhiowAqrjb4bTosLucpYuU6ssRN7MIBjGKepIkN7FLUbL4ClKsXY5_fc4reLuXK8YavP1Cw9B5SUcc9xNQ1JFnYrlkyCobdmbPVtaP5IOmoqxGU0uMQ1AnZmKMYZ5G-mIS1KqxJqGKkOBACJoCLWfn285KrTah9N6WoYrtNgYUuE4H3yzzu0fvqcE5Id83BLxA19p6bDqliut1IlaFSK9qGJUwGXoDzdsjDFiszcIsOnzseTDbHKpKRLlCZFHKBDAae2T4iJJevXEccFtCplep4_-9GsilvTqo1QCuWp_duU4FvDMY-W41SDEQwsMjB_sgMgAKo_p8DleJ1fjKo5vTXKJvT3Y9IIgR8njepIFRU-T_6EIH66VvQXuPMZOBz8S7s-bPCJJkx4hrmBiURmYxRP2JPaI82ZoqrHBCvrWdeq75GwtsNHjlKGINffKl-6OKR-fwLMiHVQuUlj_PwQw-tzdfhhxVsUcklj_PwQw-tzdfhhxVsVzlQ1nxjWkFxFYnGHNA3jwVji_QxqtPZ60gumGcqB-3iazr-Rvz_WE_T4KJ7JQlH6_H1or2Hc2DLApu9JIpNExPWy10AmtsquLk0ukxww-O1TCM2AodYSjuztcyDBivRNxY18IfY0e_trZLEMUWPyd2aIpkA3UFHJUkZrQV_327zYQ3tbB6kw7ACMjBBRVG7]--></g></svg>