<?xml version="1.0" encoding="us-ascii" standalone="no"?><svg xmlns="http://www.w3.org/2000/svg" xmlns:xlink="http://www.w3.org/1999/xlink" contentStyleType="text/css" height="1622px" preserveAspectRatio="none" style="width:2562px;height:1622px;background:#FFFFFF;" version="1.1" viewBox="0 0 2562 1622" width="2562px" zoomAndPan="magnify"><defs/><g><rect fill="#FFFFFF" height="1431.7949" style="stroke:#181818;stroke-width:1.0;" width="10" x="23.5" y="91.4883"/><rect fill="#FFFFFF" height="1410.4844" style="stroke:#181818;stroke-width:1.0;" width="10" x="384.5" y="112.7988"/><rect fill="#FFFFFF" height="1035.959" style="stroke:#181818;stroke-width:1.0;" width="10" x="714.5" y="458.0137"/><rect fill="#FFFFFF" height="90.2871" style="stroke:#181818;stroke-width:1.0;" width="10" x="918.5" y="986.293"/><rect fill="#FFFFFF" height="29.3105" style="stroke:#181818;stroke-width:1.0;" width="10" x="1125.5" y="492.3242"/><rect fill="#FFFFFF" height="29.3105" style="stroke:#181818;stroke-width:1.0;" width="10" x="1283.5" y="550.9453"/><rect fill="#FFFFFF" height="29.3105" style="stroke:#181818;stroke-width:1.0;" width="10" x="1425.5" y="609.5664"/><rect fill="#FFFFFF" height="29.3105" style="stroke:#181818;stroke-width:1.0;" width="10" x="1545" y="668.1875"/><rect fill="#FFFFFF" height="318.1504" style="stroke:#181818;stroke-width:1.0;" width="10" x="1704.5" y="1146.5117"/><rect fill="#FFFFFF" height="162.2422" style="stroke:#181818;stroke-width:1.0;" width="10" x="1709.5" y="1266.1094"/><rect fill="#FFFFFF" height="82.6211" style="stroke:#181818;stroke-width:1.0;" width="10" x="1714.5" y="1303.4199"/><rect fill="#FFFFFF" height="90.2871" style="stroke:#181818;stroke-width:1.0;" width="10" x="2006.5" y="1175.8223"/><rect fill="#FFFFFF" height="119.2422" style="stroke:#181818;stroke-width:1.0;" width="10" x="2299.5" y="726.8086"/><rect fill="#FFFFFF" height="29.3105" style="stroke:#181818;stroke-width:1.0;" width="10" x="2509.5" y="780.4297"/><rect fill="#FFFFFF" height="29.3105" style="stroke:#181818;stroke-width:1.0;" width="10" x="2509.5" y="875.3613"/><rect fill="none" height="75.9316" style="stroke:#000000;stroke-width:1.5;" width="330.5" x="2226" y="741.8086"/><line style="stroke:#181818;stroke-width:0.5;stroke-dasharray:5.0,5.0;" x1="28" x2="28" y1="81.4883" y2="1541.2832"/><line style="stroke:#181818;stroke-width:0.5;stroke-dasharray:5.0,5.0;" x1="389" x2="389" y1="81.4883" y2="1541.2832"/><line style="stroke:#181818;stroke-width:0.5;stroke-dasharray:5.0,5.0;" x1="719" x2="719" y1="358.0273" y2="1541.2832"/><line style="stroke:#181818;stroke-width:0.5;stroke-dasharray:5.0,5.0;" x1="923.5" x2="923.5" y1="993.9707" y2="1541.2832"/><line style="stroke:#181818;stroke-width:0.5;stroke-dasharray:5.0,5.0;" x1="1130.5" x2="1130.5" y1="81.4883" y2="1541.2832"/><line style="stroke:#181818;stroke-width:0.5;stroke-dasharray:5.0,5.0;" x1="1288.5" x2="1288.5" y1="81.4883" y2="1541.2832"/><line style="stroke:#181818;stroke-width:0.5;stroke-dasharray:5.0,5.0;" x1="1430.5" x2="1430.5" y1="81.4883" y2="1541.2832"/><line style="stroke:#181818;stroke-width:0.5;stroke-dasharray:5.0,5.0;" x1="1549.5" x2="1549.5" y1="81.4883" y2="1541.2832"/><line style="stroke:#181818;stroke-width:0.5;stroke-dasharray:5.0,5.0;" x1="1709.5" x2="1709.5" y1="1124.5459" y2="1541.2832"/><line style="stroke:#181818;stroke-width:0.5;stroke-dasharray:5.0,5.0;" x1="2011" x2="2011" y1="1183.5" y2="1541.2832"/><line style="stroke:#181818;stroke-width:0.5;stroke-dasharray:5.0,5.0;" x1="2304" x2="2304" y1="81.4883" y2="1541.2832"/><line style="stroke:#181818;stroke-width:0.5;stroke-dasharray:5.0,5.0;" x1="2514.5" x2="2514.5" y1="81.4883" y2="1541.2832"/><text fill="#000000" font-family="sans-serif" font-size="14" lengthAdjust="spacing" textLength="41" x="5" y="78.5352">Agent</text><ellipse cx="28.5" cy="13.5" fill="#E3E3E3" rx="8" ry="8" style="stroke:#181818;stroke-width:0.5;"/><path d="M28.5,21.5 L28.5,48.5 M15.5,29.5 L41.5,29.5 M28.5,48.5 L15.5,63.5 M28.5,48.5 L41.5,63.5 " fill="none" style="stroke:#181818;stroke-width:0.5;"/><text fill="#000000" font-family="sans-serif" font-size="14" lengthAdjust="spacing" textLength="41" x="5" y="1553.8184">Agent</text><ellipse cx="28.5" cy="1565.2715" fill="#E3E3E3" rx="8" ry="8" style="stroke:#181818;stroke-width:0.5;"/><path d="M28.5,1573.2715 L28.5,1600.2715 M15.5,1581.2715 L41.5,1581.2715 M28.5,1600.2715 L15.5,1615.2715 M28.5,1600.2715 L41.5,1615.2715 " fill="none" style="stroke:#181818;stroke-width:0.5;"/><rect fill="#E3E3E3" height="30.4883" rx="2.5" ry="2.5" style="stroke:#181818;stroke-width:0.5;" width="187" x="296" y="50"/><text fill="#000000" font-family="sans-serif" font-size="14" lengthAdjust="spacing" textLength="173" x="303" y="70.5352">:PublishAnnouncementUI</text><rect fill="#E3E3E3" height="30.4883" rx="2.5" ry="2.5" style="stroke:#181818;stroke-width:0.5;" width="187" x="296" y="1540.2832"/><text fill="#000000" font-family="sans-serif" font-size="14" lengthAdjust="spacing" textLength="173" x="303" y="1560.8184">:PublishAnnouncementUI</text><rect fill="#E3E3E3" height="30.4883" rx="2.5" ry="2.5" style="stroke:#181818;stroke-width:0.5;" width="243" x="598" y="1540.2832"/><text fill="#000000" font-family="sans-serif" font-size="14" lengthAdjust="spacing" textLength="229" x="605" y="1560.8184">:PublishAnnouncementController</text><rect fill="#E3E3E3" height="46.9766" rx="2.5" ry="2.5" style="stroke:#181818;stroke-width:0.5;" width="104" x="871.5" y="1540.2832"/><text fill="#000000" font-family="sans-serif" font-size="14" lengthAdjust="spacing" textLength="90" x="878.5" y="1560.8184">new Property</text><text fill="#000000" font-family="sans-serif" font-size="14" lengthAdjust="spacing" textLength="62" x="892.5" y="1577.3066">:Property</text><rect fill="#E3E3E3" height="30.4883" rx="2.5" ry="2.5" style="stroke:#181818;stroke-width:0.5;" width="148" x="1056.5" y="50"/><text fill="#000000" font-family="sans-serif" font-size="14" lengthAdjust="spacing" textLength="134" x="1063.5" y="70.5352">:ApplicationSession</text><rect fill="#E3E3E3" height="30.4883" rx="2.5" ry="2.5" style="stroke:#181818;stroke-width:0.5;" width="148" x="1056.5" y="1540.2832"/><text fill="#000000" font-family="sans-serif" font-size="14" lengthAdjust="spacing" textLength="134" x="1063.5" y="1560.8184">:ApplicationSession</text><rect fill="#E3E3E3" height="46.9766" rx="2.5" ry="2.5" style="stroke:#181818;stroke-width:0.5;" width="148" x="1214.5" y="33.5117"/><text fill="#000000" font-family="sans-serif" font-size="14" lengthAdjust="spacing" textLength="78" x="1249.5" y="54.0469">appSession</text><text fill="#000000" font-family="sans-serif" font-size="14" lengthAdjust="spacing" textLength="134" x="1221.5" y="70.5352">:ApplicationSession</text><rect fill="#E3E3E3" height="46.9766" rx="2.5" ry="2.5" style="stroke:#181818;stroke-width:0.5;" width="148" x="1214.5" y="1540.2832"/><text fill="#000000" font-family="sans-serif" font-size="14" lengthAdjust="spacing" textLength="78" x="1249.5" y="1560.8184">appSession</text><text fill="#000000" font-family="sans-serif" font-size="14" lengthAdjust="spacing" textLength="134" x="1221.5" y="1577.3066">:ApplicationSession</text><rect fill="#E3E3E3" height="46.9766" rx="2.5" ry="2.5" style="stroke:#181818;stroke-width:0.5;" width="116" x="1372.5" y="33.5117"/><text fill="#000000" font-family="sans-serif" font-size="14" lengthAdjust="spacing" textLength="102" x="1379.5" y="54.0469">currentSession</text><text fill="#000000" font-family="sans-serif" font-size="14" lengthAdjust="spacing" textLength="87" x="1387" y="70.5352">:UserSession</text><rect fill="#E3E3E3" height="46.9766" rx="2.5" ry="2.5" style="stroke:#181818;stroke-width:0.5;" width="116" x="1372.5" y="1540.2832"/><text fill="#000000" font-family="sans-serif" font-size="14" lengthAdjust="spacing" textLength="102" x="1379.5" y="1560.8184">currentSession</text><text fill="#000000" font-family="sans-serif" font-size="14" lengthAdjust="spacing" textLength="87" x="1387" y="1577.3066">:UserSession</text><rect fill="#E3E3E3" height="46.9766" rx="2.5" ry="2.5" style="stroke:#181818;stroke-width:0.5;" width="103" x="1498.5" y="33.5117"/><text fill="#000000" font-family="sans-serif" font-size="14" lengthAdjust="spacing" textLength="82" x="1509" y="54.0469">repositories</text><text fill="#000000" font-family="sans-serif" font-size="14" lengthAdjust="spacing" textLength="89" x="1505.5" y="70.5352">:Repositories</text><rect fill="#E3E3E3" height="46.9766" rx="2.5" ry="2.5" style="stroke:#181818;stroke-width:0.5;" width="103" x="1498.5" y="1540.2832"/><text fill="#000000" font-family="sans-serif" font-size="14" lengthAdjust="spacing" textLength="82" x="1509" y="1560.8184">repositories</text><text fill="#000000" font-family="sans-serif" font-size="14" lengthAdjust="spacing" textLength="89" x="1505.5" y="1577.3066">:Repositories</text><rect fill="#E3E3E3" height="30.4883" rx="2.5" ry="2.5" style="stroke:#181818;stroke-width:0.5;" width="196" x="1611.5" y="1540.2832"/><text fill="#000000" font-family="sans-serif" font-size="14" lengthAdjust="spacing" textLength="182" x="1618.5" y="1560.8184">:AnnouncementRepository</text><rect fill="#E3E3E3" height="46.9766" rx="2.5" ry="2.5" style="stroke:#181818;stroke-width:0.5;" width="151" x="1936" y="1540.2832"/><text fill="#000000" font-family="sans-serif" font-size="14" lengthAdjust="spacing" textLength="137" x="1943" y="1560.8184">new Announcement</text><text fill="#000000" font-family="sans-serif" font-size="14" lengthAdjust="spacing" textLength="109" x="1957" y="1577.3066">:Announcement</text><rect fill="#E3E3E3" height="30.4883" rx="2.5" ry="2.5" style="stroke:#181818;stroke-width:0.5;" width="137" x="2236" y="50"/><text fill="#000000" font-family="sans-serif" font-size="14" lengthAdjust="spacing" textLength="123" x="2243" y="70.5352">AgencyRepository</text><rect fill="#E3E3E3" height="30.4883" rx="2.5" ry="2.5" style="stroke:#181818;stroke-width:0.5;" width="137" x="2236" y="1540.2832"/><text fill="#000000" font-family="sans-serif" font-size="14" lengthAdjust="spacing" textLength="123" x="2243" y="1560.8184">AgencyRepository</text><rect fill="#E3E3E3" height="30.4883" rx="2.5" ry="2.5" style="stroke:#181818;stroke-width:0.5;" width="64" x="2482.5" y="50"/><text fill="#000000" font-family="sans-serif" font-size="14" lengthAdjust="spacing" textLength="50" x="2489.5" y="70.5352">Agency</text><rect fill="#E3E3E3" height="30.4883" rx="2.5" ry="2.5" style="stroke:#181818;stroke-width:0.5;" width="64" x="2482.5" y="1540.2832"/><text fill="#000000" font-family="sans-serif" font-size="14" lengthAdjust="spacing" textLength="50" x="2489.5" y="1560.8184">Agency</text><rect fill="#FFFFFF" height="1431.7949" style="stroke:#181818;stroke-width:1.0;" width="10" x="23.5" y="91.4883"/><rect fill="#FFFFFF" height="1410.4844" style="stroke:#181818;stroke-width:1.0;" width="10" x="384.5" y="112.7988"/><rect fill="#FFFFFF" height="1035.959" style="stroke:#181818;stroke-width:1.0;" width="10" x="714.5" y="458.0137"/><rect fill="#FFFFFF" height="90.2871" style="stroke:#181818;stroke-width:1.0;" width="10" x="918.5" y="986.293"/><rect fill="#FFFFFF" height="29.3105" style="stroke:#181818;stroke-width:1.0;" width="10" x="1125.5" y="492.3242"/><rect fill="#FFFFFF" height="29.3105" style="stroke:#181818;stroke-width:1.0;" width="10" x="1283.5" y="550.9453"/><rect fill="#FFFFFF" height="29.3105" style="stroke:#181818;stroke-width:1.0;" width="10" x="1425.5" y="609.5664"/><rect fill="#FFFFFF" height="29.3105" style="stroke:#181818;stroke-width:1.0;" width="10" x="1545" y="668.1875"/><rect fill="#FFFFFF" height="318.1504" style="stroke:#181818;stroke-width:1.0;" width="10" x="1704.5" y="1146.5117"/><rect fill="#FFFFFF" height="162.2422" style="stroke:#181818;stroke-width:1.0;" width="10" x="1709.5" y="1266.1094"/><rect fill="#FFFFFF" height="82.6211" style="stroke:#181818;stroke-width:1.0;" width="10" x="1714.5" y="1303.4199"/><rect fill="#FFFFFF" height="90.2871" style="stroke:#181818;stroke-width:1.0;" width="10" x="2006.5" y="1175.8223"/><rect fill="#FFFFFF" height="119.2422" style="stroke:#181818;stroke-width:1.0;" width="10" x="2299.5" y="726.8086"/><rect fill="#FFFFFF" height="29.3105" style="stroke:#181818;stroke-width:1.0;" width="10" x="2509.5" y="780.4297"/><rect fill="#FFFFFF" height="29.3105" style="stroke:#181818;stroke-width:1.0;" width="10" x="2509.5" y="875.3613"/><polygon fill="#181818" points="372.5,108.7988,382.5,112.7988,372.5,116.7988,376.5,112.7988" style="stroke:#181818;stroke-width:1.0;"/><line style="stroke:#181818;stroke-width:1.0;" x1="33.5" x2="378.5" y1="112.7988" y2="112.7988"/><text fill="#000000" font-family="sans-serif" font-size="13" font-weight="bold" lengthAdjust="spacing" textLength="9" x="40.5" y="108.0566">1</text><text fill="#000000" font-family="sans-serif" font-size="13" lengthAdjust="spacing" textLength="213" x="53.5" y="108.0566">asks to publish an announcement</text><polygon fill="#181818" points="44.5,138.1094,34.5,142.1094,44.5,146.1094,40.5,142.1094" style="stroke:#181818;stroke-width:1.0;"/><line style="stroke:#181818;stroke-width:1.0;stroke-dasharray:2.0,2.0;" x1="38.5" x2="383.5" y1="142.1094" y2="142.1094"/><text fill="#000000" font-family="sans-serif" font-size="13" font-weight="bold" lengthAdjust="spacing" textLength="9" x="50.5" y="137.3672">2</text><text fill="#000000" font-family="sans-serif" font-size="13" lengthAdjust="spacing" textLength="78" x="63.5" y="137.3672">request data</text><polygon fill="#181818" points="372.5,167.4199,382.5,171.4199,372.5,175.4199,376.5,171.4199" style="stroke:#181818;stroke-width:1.0;"/><line style="stroke:#181818;stroke-width:1.0;" x1="33.5" x2="378.5" y1="171.4199" y2="171.4199"/><text fill="#000000" font-family="sans-serif" font-size="13" font-weight="bold" lengthAdjust="spacing" textLength="9" x="40.5" y="166.6777">3</text><text fill="#000000" font-family="sans-serif" font-size="13" lengthAdjust="spacing" textLength="149" x="53.5" y="166.6777">select the property type</text><polygon fill="#181818" points="44.5,212.041,34.5,216.041,44.5,220.041,40.5,216.041" style="stroke:#181818;stroke-width:1.0;"/><line style="stroke:#181818;stroke-width:1.0;stroke-dasharray:2.0,2.0;" x1="38.5" x2="383.5" y1="216.041" y2="216.041"/><text fill="#000000" font-family="sans-serif" font-size="13" font-weight="bold" lengthAdjust="spacing" textLength="9" x="50.5" y="203.6436">4</text><text fill="#000000" font-family="sans-serif" font-size="13" lengthAdjust="spacing" textLength="145" x="63.5" y="195.9883">presents the data to be</text><text fill="#000000" font-family="sans-serif" font-size="13" lengthAdjust="spacing" textLength="196" x="67.5" y="211.2988">filled in by the type of porperty</text><polygon fill="#181818" points="372.5,256.6621,382.5,260.6621,372.5,264.6621,376.5,260.6621" style="stroke:#181818;stroke-width:1.0;"/><line style="stroke:#181818;stroke-width:1.0;" x1="33.5" x2="378.5" y1="260.6621" y2="260.6621"/><text fill="#000000" font-family="sans-serif" font-size="13" font-weight="bold" lengthAdjust="spacing" textLength="9" x="40.5" y="248.2646">5</text><text fill="#000000" font-family="sans-serif" font-size="13" lengthAdjust="spacing" textLength="310" x="53.5" y="240.6094">insert the requested data (size, location, distance</text><text fill="#000000" font-family="sans-serif" font-size="13" lengthAdjust="spacing" textLength="252" x="53.5" y="255.9199">from the city center, price, commission)</text><polygon fill="#181818" points="44.5,285.9727,34.5,289.9727,44.5,293.9727,40.5,289.9727" style="stroke:#181818;stroke-width:1.0;"/><line style="stroke:#181818;stroke-width:1.0;stroke-dasharray:2.0,2.0;" x1="38.5" x2="383.5" y1="289.9727" y2="289.9727"/><text fill="#000000" font-family="sans-serif" font-size="13" font-weight="bold" lengthAdjust="spacing" textLength="9" x="50.5" y="285.2305">6</text><text fill="#000000" font-family="sans-serif" font-size="13" lengthAdjust="spacing" textLength="80" x="63.5" y="285.2305">validate data</text><polygon fill="#181818" points="372.5,315.2832,382.5,319.2832,372.5,323.2832,376.5,319.2832" style="stroke:#181818;stroke-width:1.0;"/><line style="stroke:#181818;stroke-width:1.0;" x1="33.5" x2="378.5" y1="319.2832" y2="319.2832"/><text fill="#000000" font-family="sans-serif" font-size="13" font-weight="bold" lengthAdjust="spacing" textLength="9" x="40.5" y="314.541">7</text><text fill="#000000" font-family="sans-serif" font-size="13" lengthAdjust="spacing" textLength="82" x="53.5" y="314.541">submits data</text><polygon fill="#181818" points="586,344.5938,596,348.5938,586,352.5938,590,348.5938" style="stroke:#181818;stroke-width:1.0;"/><line style="stroke:#181818;stroke-width:1.0;" x1="394.5" x2="592" y1="348.5938" y2="348.5938"/><text fill="#000000" font-family="sans-serif" font-size="13" font-weight="bold" lengthAdjust="spacing" textLength="9" x="401.5" y="343.8516">8</text><text fill="#000000" font-family="sans-serif" font-size="13" lengthAdjust="spacing" textLength="38" x="414.5" y="343.8516">create</text><rect fill="#E3E3E3" height="30.4883" rx="2.5" ry="2.5" style="stroke:#181818;stroke-width:0.5;" width="243" x="598" y="327.2832"/><text fill="#000000" font-family="sans-serif" font-size="14" lengthAdjust="spacing" textLength="229" x="605" y="347.8184">:PublishAnnouncementController</text><polygon fill="#181818" points="707.5,416.7031,717.5,420.7031,707.5,424.7031,711.5,420.7031" style="stroke:#181818;stroke-width:1.0;"/><line style="stroke:#181818;stroke-width:1.0;" x1="394.5" x2="713.5" y1="420.7031" y2="420.7031"/><text fill="#000000" font-family="sans-serif" font-size="13" font-weight="bold" lengthAdjust="spacing" textLength="9" x="401.5" y="400.6504">9</text><text fill="#000000" font-family="sans-serif" font-size="13" lengthAdjust="spacing" textLength="288" x="414.5" y="385.3398">createAnnouncement((Business,size, location,</text><text fill="#000000" font-family="sans-serif" font-size="13" lengthAdjust="spacing" textLength="138" x="418.5" y="400.6504">distance from the city</text><text fill="#000000" font-family="sans-serif" font-size="13" lengthAdjust="spacing" textLength="171" x="418.5" y="415.9609">center, price, commission))</text><line style="stroke:#181818;stroke-width:1.0;" x1="719.5" x2="766.5" y1="445.0137" y2="445.0137"/><line style="stroke:#181818;stroke-width:1.0;" x1="766.5" x2="766.5" y1="445.0137" y2="458.0137"/><line style="stroke:#181818;stroke-width:1.0;" x1="725.5" x2="766.5" y1="458.0137" y2="458.0137"/><polygon fill="#181818" points="735.5,454.0137,725.5,458.0137,735.5,462.0137,731.5,458.0137" style="stroke:#181818;stroke-width:1.0;"/><text fill="#000000" font-family="sans-serif" font-size="13" font-weight="bold" lengthAdjust="spacing" textLength="18" x="731.5" y="440.2715">10</text><text fill="#000000" font-family="sans-serif" font-size="13" lengthAdjust="spacing" textLength="168" x="753.5" y="440.2715">getEmployeeFromSession()</text><polygon fill="#181818" points="1113.5,488.3242,1123.5,492.3242,1113.5,496.3242,1117.5,492.3242" style="stroke:#181818;stroke-width:1.0;"/><line style="stroke:#181818;stroke-width:1.0;" x1="724.5" x2="1119.5" y1="492.3242" y2="492.3242"/><text fill="#000000" font-family="sans-serif" font-size="13" font-weight="bold" lengthAdjust="spacing" textLength="18" x="731.5" y="487.582">11</text><text fill="#000000" font-family="sans-serif" font-size="13" lengthAdjust="spacing" textLength="81" x="753.5" y="487.582">getInstance()</text><polygon fill="#181818" points="735.5,517.6348,725.5,521.6348,735.5,525.6348,731.5,521.6348" style="stroke:#181818;stroke-width:1.0;"/><line style="stroke:#181818;stroke-width:1.0;" x1="729.5" x2="1129.5" y1="521.6348" y2="521.6348"/><text fill="#000000" font-family="sans-serif" font-size="13" font-weight="bold" lengthAdjust="spacing" textLength="18" x="741.5" y="516.8926">12</text><text fill="#000000" font-family="sans-serif" font-size="13" lengthAdjust="spacing" textLength="71" x="763.5" y="516.8926">appSession</text><polygon fill="#181818" points="1271.5,546.9453,1281.5,550.9453,1271.5,554.9453,1275.5,550.9453" style="stroke:#181818;stroke-width:1.0;"/><line style="stroke:#181818;stroke-width:1.0;" x1="724.5" x2="1277.5" y1="550.9453" y2="550.9453"/><text fill="#000000" font-family="sans-serif" font-size="13" font-weight="bold" lengthAdjust="spacing" textLength="18" x="731.5" y="546.2031">13</text><text fill="#000000" font-family="sans-serif" font-size="13" lengthAdjust="spacing" textLength="123" x="753.5" y="546.2031">getCurrentSession()</text><polygon fill="#181818" points="735.5,576.2559,725.5,580.2559,735.5,584.2559,731.5,580.2559" style="stroke:#181818;stroke-width:1.0;"/><line style="stroke:#181818;stroke-width:1.0;stroke-dasharray:2.0,2.0;" x1="729.5" x2="1287.5" y1="580.2559" y2="580.2559"/><text fill="#000000" font-family="sans-serif" font-size="13" font-weight="bold" lengthAdjust="spacing" textLength="18" x="741.5" y="575.5137">14</text><text fill="#000000" font-family="sans-serif" font-size="13" lengthAdjust="spacing" textLength="93" x="763.5" y="575.5137">currentSession</text><polygon fill="#181818" points="1413.5,605.5664,1423.5,609.5664,1413.5,613.5664,1417.5,609.5664" style="stroke:#181818;stroke-width:1.0;"/><line style="stroke:#181818;stroke-width:1.0;" x1="724.5" x2="1419.5" y1="609.5664" y2="609.5664"/><text fill="#000000" font-family="sans-serif" font-size="13" font-weight="bold" lengthAdjust="spacing" textLength="18" x="731.5" y="604.8242">15</text><text fill="#000000" font-family="sans-serif" font-size="13" lengthAdjust="spacing" textLength="142" x="753.5" y="604.8242">email = getUserEmail()</text><polygon fill="#181818" points="735.5,634.877,725.5,638.877,735.5,642.877,731.5,638.877" style="stroke:#181818;stroke-width:1.0;"/><line style="stroke:#181818;stroke-width:1.0;stroke-dasharray:2.0,2.0;" x1="729.5" x2="1429.5" y1="638.877" y2="638.877"/><text fill="#000000" font-family="sans-serif" font-size="13" font-weight="bold" lengthAdjust="spacing" textLength="18" x="741.5" y="634.1348">16</text><text fill="#000000" font-family="sans-serif" font-size="13" lengthAdjust="spacing" textLength="34" x="763.5" y="634.1348">email</text><polygon fill="#181818" points="1533,664.1875,1543,668.1875,1533,672.1875,1537,668.1875" style="stroke:#181818;stroke-width:1.0;"/><line style="stroke:#181818;stroke-width:1.0;" x1="724.5" x2="1539" y1="668.1875" y2="668.1875"/><text fill="#000000" font-family="sans-serif" font-size="13" font-weight="bold" lengthAdjust="spacing" textLength="18" x="731.5" y="663.4453">17</text><text fill="#000000" font-family="sans-serif" font-size="13" lengthAdjust="spacing" textLength="175" x="753.5" y="663.4453">getAgencyRepository(email)</text><polygon fill="#181818" points="735.5,693.498,725.5,697.498,735.5,701.498,731.5,697.498" style="stroke:#181818;stroke-width:1.0;"/><line style="stroke:#181818;stroke-width:1.0;stroke-dasharray:2.0,2.0;" x1="729.5" x2="1549" y1="697.498" y2="697.498"/><text fill="#000000" font-family="sans-serif" font-size="13" font-weight="bold" lengthAdjust="spacing" textLength="18" x="741.5" y="692.7559">18</text><text fill="#000000" font-family="sans-serif" font-size="13" lengthAdjust="spacing" textLength="113" x="763.5" y="692.7559">AgencyRepository</text><polygon fill="#181818" points="2287.5,722.8086,2297.5,726.8086,2287.5,730.8086,2291.5,726.8086" style="stroke:#181818;stroke-width:1.0;"/><line style="stroke:#181818;stroke-width:1.0;" x1="724.5" x2="2293.5" y1="726.8086" y2="726.8086"/><text fill="#000000" font-family="sans-serif" font-size="13" font-weight="bold" lengthAdjust="spacing" textLength="18" x="731.5" y="722.0664">19</text><text fill="#000000" font-family="sans-serif" font-size="13" lengthAdjust="spacing" textLength="193" x="753.5" y="722.0664">getAgencyByAgentEmail(email)</text><path d="M2226,741.8086 L2300,741.8086 L2300,749.1191 L2290,759.1191 L2226,759.1191 L2226,741.8086 " fill="#EEEEEE" style="stroke:#000000;stroke-width:1.5;"/><rect fill="none" height="75.9316" style="stroke:#000000;stroke-width:1.5;" width="330.5" x="2226" y="741.8086"/><text fill="#000000" font-family="sans-serif" font-size="13" font-weight="bold" lengthAdjust="spacing" textLength="29" x="2241" y="755.377">loop</text><text fill="#000000" font-family="sans-serif" font-size="11" font-weight="bold" lengthAdjust="spacing" textLength="102" x="2315" y="754.4434">[[for each Agency]</text><polygon fill="#181818" points="2497.5,776.4297,2507.5,780.4297,2497.5,784.4297,2501.5,780.4297" style="stroke:#181818;stroke-width:1.0;"/><line style="stroke:#181818;stroke-width:1.0;" x1="2309.5" x2="2503.5" y1="780.4297" y2="780.4297"/><text fill="#000000" font-family="sans-serif" font-size="13" font-weight="bold" lengthAdjust="spacing" textLength="18" x="2316.5" y="775.6875">20</text><text fill="#000000" font-family="sans-serif" font-size="13" lengthAdjust="spacing" textLength="159" x="2338.5" y="775.6875">anyAgentHasEmail(email)</text><polygon fill="#181818" points="2320.5,805.7402,2310.5,809.7402,2320.5,813.7402,2316.5,809.7402" style="stroke:#181818;stroke-width:1.0;"/><line style="stroke:#181818;stroke-width:1.0;stroke-dasharray:2.0,2.0;" x1="2314.5" x2="2513.5" y1="809.7402" y2="809.7402"/><text fill="#000000" font-family="sans-serif" font-size="13" font-weight="bold" lengthAdjust="spacing" textLength="18" x="2326.5" y="804.998">21</text><text fill="#000000" font-family="sans-serif" font-size="13" lengthAdjust="spacing" textLength="62" x="2348.5" y="804.998">true/false</text><polygon fill="#181818" points="735.5,842.0508,725.5,846.0508,735.5,850.0508,731.5,846.0508" style="stroke:#181818;stroke-width:1.0;"/><line style="stroke:#181818;stroke-width:1.0;stroke-dasharray:2.0,2.0;" x1="729.5" x2="2303.5" y1="846.0508" y2="846.0508"/><text fill="#000000" font-family="sans-serif" font-size="13" font-weight="bold" lengthAdjust="spacing" textLength="18" x="741.5" y="841.3086">22</text><text fill="#000000" font-family="sans-serif" font-size="13" lengthAdjust="spacing" textLength="46" x="763.5" y="841.3086">Agency</text><polygon fill="#181818" points="2497.5,871.3613,2507.5,875.3613,2497.5,879.3613,2501.5,875.3613" style="stroke:#181818;stroke-width:1.0;"/><line style="stroke:#181818;stroke-width:1.0;" x1="724.5" x2="2503.5" y1="875.3613" y2="875.3613"/><text fill="#000000" font-family="sans-serif" font-size="13" font-weight="bold" lengthAdjust="spacing" textLength="18" x="731.5" y="870.6191">23</text><text fill="#000000" font-family="sans-serif" font-size="13" lengthAdjust="spacing" textLength="156" x="753.5" y="870.6191">getAgencyByEmail(email)</text><polygon fill="#181818" points="735.5,900.6719,725.5,904.6719,735.5,908.6719,731.5,904.6719" style="stroke:#181818;stroke-width:1.0;"/><line style="stroke:#181818;stroke-width:1.0;stroke-dasharray:2.0,2.0;" x1="729.5" x2="2513.5" y1="904.6719" y2="904.6719"/><text fill="#000000" font-family="sans-serif" font-size="13" font-weight="bold" lengthAdjust="spacing" textLength="18" x="741.5" y="899.9297">24</text><text fill="#000000" font-family="sans-serif" font-size="13" lengthAdjust="spacing" textLength="37" x="763.5" y="899.9297">Agent</text><line style="stroke:#181818;stroke-width:1.0;stroke-dasharray:2.0,2.0;" x1="724.5" x2="766.5" y1="933.9824" y2="933.9824"/><line style="stroke:#181818;stroke-width:1.0;stroke-dasharray:2.0,2.0;" x1="766.5" x2="766.5" y1="933.9824" y2="946.9824"/><line style="stroke:#181818;stroke-width:1.0;stroke-dasharray:2.0,2.0;" x1="725.5" x2="766.5" y1="946.9824" y2="946.9824"/><polygon fill="#181818" points="735.5,942.9824,725.5,946.9824,735.5,950.9824,731.5,946.9824" style="stroke:#181818;stroke-width:1.0;"/><text fill="#000000" font-family="sans-serif" font-size="13" font-weight="bold" lengthAdjust="spacing" textLength="18" x="731.5" y="929.2402">25</text><text fill="#000000" font-family="sans-serif" font-size="13" lengthAdjust="spacing" textLength="37" x="753.5" y="929.2402">Agent</text><polygon fill="#181818" points="859.5,972.293,869.5,976.293,859.5,980.293,863.5,976.293" style="stroke:#181818;stroke-width:1.0;"/><line style="stroke:#181818;stroke-width:1.0;" x1="724.5" x2="865.5" y1="976.293" y2="976.293"/><text fill="#000000" font-family="sans-serif" font-size="13" font-weight="bold" lengthAdjust="spacing" textLength="18" x="731.5" y="971.5508">26</text><text fill="#000000" font-family="sans-serif" font-size="13" lengthAdjust="spacing" textLength="38" x="753.5" y="971.5508">create</text><rect fill="#E3E3E3" height="46.9766" rx="2.5" ry="2.5" style="stroke:#181818;stroke-width:0.5;" width="104" x="871.5" y="954.9824"/><text fill="#000000" font-family="sans-serif" font-size="14" lengthAdjust="spacing" textLength="90" x="878.5" y="975.5176">new Property</text><text fill="#000000" font-family="sans-serif" font-size="14" lengthAdjust="spacing" textLength="62" x="892.5" y="992.0059">:Property</text><line style="stroke:#181818;stroke-width:1.0;" x1="928.5" x2="970.5" y1="1034.2695" y2="1034.2695"/><line style="stroke:#181818;stroke-width:1.0;" x1="970.5" x2="970.5" y1="1034.2695" y2="1047.2695"/><line style="stroke:#181818;stroke-width:1.0;" x1="929.5" x2="970.5" y1="1047.2695" y2="1047.2695"/><polygon fill="#181818" points="939.5,1043.2695,929.5,1047.2695,939.5,1051.2695,935.5,1047.2695" style="stroke:#181818;stroke-width:1.0;"/><text fill="#000000" font-family="sans-serif" font-size="13" font-weight="bold" lengthAdjust="spacing" textLength="18" x="935.5" y="1029.5273">27</text><text fill="#000000" font-family="sans-serif" font-size="13" lengthAdjust="spacing" textLength="161" x="957.5" y="1029.5273">validateProperty(Property)</text><polygon fill="#181818" points="735.5,1072.5801,725.5,1076.5801,735.5,1080.5801,731.5,1076.5801" style="stroke:#181818;stroke-width:1.0;"/><line style="stroke:#181818;stroke-width:1.0;" x1="729.5" x2="922.5" y1="1076.5801" y2="1076.5801"/><text fill="#000000" font-family="sans-serif" font-size="13" font-weight="bold" lengthAdjust="spacing" textLength="18" x="741.5" y="1071.8379">28</text><text fill="#000000" font-family="sans-serif" font-size="13" lengthAdjust="spacing" textLength="52" x="763.5" y="1071.8379">Property</text><polygon fill="#181818" points="1599.5,1132.5117,1609.5,1136.5117,1599.5,1140.5117,1603.5,1136.5117" style="stroke:#181818;stroke-width:1.0;"/><line style="stroke:#181818;stroke-width:1.0;" x1="724.5" x2="1605.5" y1="1136.5117" y2="1136.5117"/><text fill="#000000" font-family="sans-serif" font-size="13" font-weight="bold" lengthAdjust="spacing" textLength="18" x="731.5" y="1116.459">29</text><text fill="#000000" font-family="sans-serif" font-size="13" lengthAdjust="spacing" textLength="284" x="753.5" y="1101.1484">createAnnouncement(Business,size, location,</text><text fill="#000000" font-family="sans-serif" font-size="13" lengthAdjust="spacing" textLength="138" x="757.5" y="1116.459">distance from the city</text><text fill="#000000" font-family="sans-serif" font-size="13" lengthAdjust="spacing" textLength="270" x="757.5" y="1131.7695">center, price, commission, Agent, Agency))</text><rect fill="#E3E3E3" height="30.4883" rx="2.5" ry="2.5" style="stroke:#181818;stroke-width:0.5;" width="196" x="1611.5" y="1103.0234"/><text fill="#000000" font-family="sans-serif" font-size="14" lengthAdjust="spacing" textLength="182" x="1618.5" y="1123.5586">:AnnouncementRepository</text><polygon fill="#181818" points="1924,1161.8223,1934,1165.8223,1924,1169.8223,1928,1165.8223" style="stroke:#181818;stroke-width:1.0;"/><line style="stroke:#181818;stroke-width:1.0;" x1="1714.5" x2="1930" y1="1165.8223" y2="1165.8223"/><text fill="#000000" font-family="sans-serif" font-size="13" font-weight="bold" lengthAdjust="spacing" textLength="18" x="1721.5" y="1161.0801">30</text><text fill="#000000" font-family="sans-serif" font-size="13" lengthAdjust="spacing" textLength="141" x="1743.5" y="1161.0801">create(Announcement)</text><rect fill="#E3E3E3" height="46.9766" rx="2.5" ry="2.5" style="stroke:#181818;stroke-width:0.5;" width="151" x="1936" y="1144.5117"/><text fill="#000000" font-family="sans-serif" font-size="14" lengthAdjust="spacing" textLength="137" x="1943" y="1165.0469">new Announcement</text><text fill="#000000" font-family="sans-serif" font-size="14" lengthAdjust="spacing" textLength="109" x="1957" y="1181.5352">:Announcement</text><line style="stroke:#181818;stroke-width:1.0;" x1="2016.5" x2="2058.5" y1="1223.7988" y2="1223.7988"/><line style="stroke:#181818;stroke-width:1.0;" x1="2058.5" x2="2058.5" y1="1223.7988" y2="1236.7988"/><line style="stroke:#181818;stroke-width:1.0;" x1="2017.5" x2="2058.5" y1="1236.7988" y2="1236.7988"/><polygon fill="#181818" points="2027.5,1232.7988,2017.5,1236.7988,2027.5,1240.7988,2023.5,1236.7988" style="stroke:#181818;stroke-width:1.0;"/><text fill="#000000" font-family="sans-serif" font-size="13" font-weight="bold" lengthAdjust="spacing" textLength="18" x="2023.5" y="1219.0566">31</text><text fill="#000000" font-family="sans-serif" font-size="13" lengthAdjust="spacing" textLength="247" x="2045.5" y="1219.0566">validateAnnouncement(Announcement)</text><polygon fill="#181818" points="1730.5,1262.1094,1720.5,1266.1094,1730.5,1270.1094,1726.5,1266.1094" style="stroke:#181818;stroke-width:1.0;"/><line style="stroke:#181818;stroke-width:1.0;" x1="1724.5" x2="2010.5" y1="1266.1094" y2="1266.1094"/><text fill="#000000" font-family="sans-serif" font-size="13" font-weight="bold" lengthAdjust="spacing" textLength="18" x="1736.5" y="1261.3672">32</text><text fill="#000000" font-family="sans-serif" font-size="13" lengthAdjust="spacing" textLength="198" x="1758.5" y="1261.3672">Announcement(Announcement)</text><line style="stroke:#181818;stroke-width:1.0;" x1="1719.5" x2="1766.5" y1="1290.4199" y2="1290.4199"/><line style="stroke:#181818;stroke-width:1.0;" x1="1766.5" x2="1766.5" y1="1290.4199" y2="1303.4199"/><line style="stroke:#181818;stroke-width:1.0;" x1="1725.5" x2="1766.5" y1="1303.4199" y2="1303.4199"/><polygon fill="#181818" points="1735.5,1299.4199,1725.5,1303.4199,1735.5,1307.4199,1731.5,1303.4199" style="stroke:#181818;stroke-width:1.0;"/><text fill="#000000" font-family="sans-serif" font-size="13" font-weight="bold" lengthAdjust="spacing" textLength="18" x="1731.5" y="1285.6777">33</text><text fill="#000000" font-family="sans-serif" font-size="13" lengthAdjust="spacing" textLength="251" x="1753.5" y="1285.6777">validateAnnouncement(Announcement))</text><line style="stroke:#181818;stroke-width:1.0;" x1="1724.5" x2="1766.5" y1="1337.7305" y2="1337.7305"/><line style="stroke:#181818;stroke-width:1.0;" x1="1766.5" x2="1766.5" y1="1337.7305" y2="1350.7305"/><line style="stroke:#181818;stroke-width:1.0;" x1="1725.5" x2="1766.5" y1="1350.7305" y2="1350.7305"/><polygon fill="#181818" points="1735.5,1346.7305,1725.5,1350.7305,1735.5,1354.7305,1731.5,1350.7305" style="stroke:#181818;stroke-width:1.0;"/><text fill="#000000" font-family="sans-serif" font-size="13" font-weight="bold" lengthAdjust="spacing" textLength="18" x="1731.5" y="1332.9883">34</text><text fill="#000000" font-family="sans-serif" font-size="13" lengthAdjust="spacing" textLength="225" x="1753.5" y="1332.9883">addAnnouncement (Announcement)</text><line style="stroke:#181818;stroke-width:1.0;stroke-dasharray:2.0,2.0;" x1="1724.5" x2="1766.5" y1="1385.041" y2="1385.041"/><line style="stroke:#181818;stroke-width:1.0;stroke-dasharray:2.0,2.0;" x1="1766.5" x2="1766.5" y1="1385.041" y2="1398.041"/><line style="stroke:#181818;stroke-width:1.0;stroke-dasharray:2.0,2.0;" x1="1719.5" x2="1766.5" y1="1398.041" y2="1398.041"/><polygon fill="#181818" points="1729.5,1394.041,1719.5,1398.041,1729.5,1402.041,1725.5,1398.041" style="stroke:#181818;stroke-width:1.0;"/><text fill="#000000" font-family="sans-serif" font-size="13" font-weight="bold" lengthAdjust="spacing" textLength="18" x="1731.5" y="1380.2988">35</text><text fill="#000000" font-family="sans-serif" font-size="13" lengthAdjust="spacing" textLength="4" x="1753.5" y="1380.2988">&#160;</text><line style="stroke:#181818;stroke-width:1.0;stroke-dasharray:2.0,2.0;" x1="1719.5" x2="1761.5" y1="1427.3516" y2="1427.3516"/><line style="stroke:#181818;stroke-width:1.0;stroke-dasharray:2.0,2.0;" x1="1761.5" x2="1761.5" y1="1427.3516" y2="1440.3516"/><line style="stroke:#181818;stroke-width:1.0;stroke-dasharray:2.0,2.0;" x1="1714.5" x2="1761.5" y1="1440.3516" y2="1440.3516"/><polygon fill="#181818" points="1724.5,1436.3516,1714.5,1440.3516,1724.5,1444.3516,1720.5,1440.3516" style="stroke:#181818;stroke-width:1.0;"/><text fill="#000000" font-family="sans-serif" font-size="13" font-weight="bold" lengthAdjust="spacing" textLength="18" x="1726.5" y="1422.6094">36</text><text fill="#000000" font-family="sans-serif" font-size="13" lengthAdjust="spacing" textLength="4" x="1748.5" y="1422.6094">&#160;</text><polygon fill="#181818" points="735.5,1460.6621,725.5,1464.6621,735.5,1468.6621,731.5,1464.6621" style="stroke:#181818;stroke-width:1.0;"/><line style="stroke:#181818;stroke-width:1.0;stroke-dasharray:2.0,2.0;" x1="729.5" x2="1708.5" y1="1464.6621" y2="1464.6621"/><text fill="#000000" font-family="sans-serif" font-size="13" font-weight="bold" lengthAdjust="spacing" textLength="18" x="741.5" y="1459.9199">37</text><text fill="#000000" font-family="sans-serif" font-size="13" lengthAdjust="spacing" textLength="95" x="763.5" y="1459.9199">Announcement</text><polygon fill="#181818" points="405.5,1489.9727,395.5,1493.9727,405.5,1497.9727,401.5,1493.9727" style="stroke:#181818;stroke-width:1.0;"/><line style="stroke:#181818;stroke-width:1.0;stroke-dasharray:2.0,2.0;" x1="399.5" x2="718.5" y1="1493.9727" y2="1493.9727"/><text fill="#000000" font-family="sans-serif" font-size="13" font-weight="bold" lengthAdjust="spacing" textLength="18" x="411.5" y="1489.2305">38</text><text fill="#000000" font-family="sans-serif" font-size="13" lengthAdjust="spacing" textLength="95" x="433.5" y="1489.2305">Announcement</text><polygon fill="#181818" points="39.5,1519.2832,29.5,1523.2832,39.5,1527.2832,35.5,1523.2832" style="stroke:#181818;stroke-width:1.0;"/><line style="stroke:#181818;stroke-width:1.0;stroke-dasharray:2.0,2.0;" x1="33.5" x2="388.5" y1="1523.2832" y2="1523.2832"/><text fill="#000000" font-family="sans-serif" font-size="13" font-weight="bold" lengthAdjust="spacing" textLength="18" x="45.5" y="1518.541">39</text><text fill="#000000" font-family="sans-serif" font-size="13" lengthAdjust="spacing" textLength="170" x="67.5" y="1518.541">displays operation success</text><!--SRC=[xLXHRzis47xdhpZaPNRWT5tMTPk05NDI9qkMe4OSTmyBCD0oRHEHI8saqdc_VYVAaYXPbgLsUnaa18WbtjrttztnH9r-vYAYYeOGIY7zZP8X0wDYHdI-4b7_cQxPp6m31ehvXefru0he3LtAJroiOKK3pGYXiP4Y3XTC4VBLXYyPhAGq2_aNeRwH2ax6QoRC2L0Dusk2HWptUKI5WHDl6Yy2hZTZ8MGiV1QYuFp6YivlZejUIc6K30AchChbuyDTMKcmJp1LCcBAR9-4b_sqqjbD1MOSHG7tgU5Ip9ZM-CzA_p6UJikID8fs0cZvWDQUaXyhXOuNYdFDbAincyncumzb9SKYgJc6aZEDAW_EhTLvc4oh99mWvU8fxT9ILJ69bokGC7DkzmmGakIOlr33ajmIs5tZQpXxXoa43pMUDHW9KPe-e0B_70kPIcu74vy_H0jdQ0ZDULYBVyPC6rXIGskHD0kmNC5i64Ixt8BPHgpUNAIOHdnjvHERYPCBzYHWnR6Ybi05BBPsDJ42SWMHL6d5rA5pWPbCqNUUeWrhTw3vtsm4WKphOmHBhd5N-GoUn0gteDNnENhheqDCZT0txgE6ByEGsz8OrdDueG5V9Z4x79Du4N8acGha4ewjTtRRd9wYiAyO6ckGocNS6XWCBcBD1TRmg48KOvbJBHF5bSDSXtiUMEp2XpKpap0Av9QnApIxspw3OLNDlVBoiasYIT85J7QznRiHAOzca1AGxHXm_4haCdAuNVAkSantoSfGhKbbd2vBlQW3CulMWfabbZChjxuExDh0PTpIzka12oaFuAU4Pj9X9ybj1uQxBjo6P2hgyBJG7UXbM6qfOjEswKlUglwswEu32zoUOzBysn14kO9T5RG3JulNkaOhE0xZYwqzJwGfxSXvp_qs0GYaZE3t5PvaaCncPwEDejq35SI2NF9k52cNNwZkGkS0BT9Mpt4iVPTKVVJieV3hz7pNqfwxOLj7Y8ab-QmW5Y-3Tc1xtdMeWN9DbYhn2ugGa6v9SkYQpcnRSkm0GqZzPiw2bPskcmuMfQZan_4QeMpDDLoSVh8dW-p7a1mpadRg9aWdXBaOELWPvJFrwMdjEUdVFIQDqXoDTXaUxjTVKGEL8tz9ih9OfLDm6RYFAo6kXJgCKmKfSbaAM0DWapNxWcnhoDqgvG-Rjj6isxRDCRKE7cSyRDmlBTnevGTTBal1R0hMOSFxbicnnjHKb5-2qmMZpdxM0GzMykSGsUkpyviAHCj-RZzVccJpxqClwIfHGBSQalvbUmr-3_e-jg1ZoN6_mUieNvVsny_u6e_3W3X3elzgljHFbFg9KZzHwYTA_KIfdoZr4wL-ejHFbFg9KZzHwYTA_KIfdoZr4wL-ejHFbFvV4wLfG8MPtz_12rD9Zu9lNfs_Fl_srVbW5WkuOWiuVmklV_JEl_FUV0-_JHuXMHwImVNq3hIC5NR0f1KgleYD_UozfIyK7c9XUCWy-10nSVl-r-m1JCGBLrBO-Dr-l2y4thuvk-06PaoX9_3ndhndAne71ZLykUHYxS7yyUhi1t97nJgcQxGT6NA9sJ39MNFw-0y0]--></g></svg>