<?xml version="1.0" encoding="us-ascii" standalone="no"?><svg xmlns="http://www.w3.org/2000/svg" xmlns:xlink="http://www.w3.org/1999/xlink" contentStyleType="text/css" height="667px" preserveAspectRatio="none" style="width:901px;height:667px;background:#FFFFFF;" version="1.1" viewBox="0 0 901 667" width="901px" zoomAndPan="magnify"><defs/><g><!--class PublishAnnouncementUI--><g id="elem_PublishAnnouncementUI"><rect codeLine="11" fill="#F1F1F1" height="48" id="PublishAnnouncementUI" rx="2.5" ry="2.5" style="stroke:#181818;stroke-width:0.5;" width="201" x="121.5" y="31.5"/><ellipse cx="136.5" cy="47.5" fill="#ADD1B2" rx="11" ry="11" style="stroke:#181818;stroke-width:1.0;"/><path d="M139.4731,53.1431 Q138.8921,53.4419 138.2529,53.5913 Q137.6138,53.7407 136.9082,53.7407 Q134.4014,53.7407 133.0815,52.0889 Q131.7617,50.437 131.7617,47.3159 Q131.7617,44.1865 133.0815,42.5347 Q134.4014,40.8828 136.9082,40.8828 Q137.6138,40.8828 138.2612,41.0322 Q138.9087,41.1816 139.4731,41.4805 L139.4731,44.2031 Q138.8423,43.6221 138.2488,43.3523 Q137.6553,43.0825 137.0244,43.0825 Q135.6797,43.0825 134.9949,44.1492 Q134.3101,45.2158 134.3101,47.3159 Q134.3101,49.4077 134.9949,50.4744 Q135.6797,51.541 137.0244,51.541 Q137.6553,51.541 138.2488,51.2712 Q138.8423,51.0015 139.4731,50.4204 Z " fill="#000000"/><text fill="#000000" font-family="sans-serif" font-size="14" lengthAdjust="spacing" textLength="169" x="150.5" y="52.791">PublishAnnouncementUI</text><line style="stroke:#181818;stroke-width:0.5;" x1="122.5" x2="321.5" y1="63.5" y2="63.5"/><line style="stroke:#181818;stroke-width:0.5;" x1="122.5" x2="321.5" y1="71.5" y2="71.5"/></g><!--class PublishAnnouncementController--><g id="elem_PublishAnnouncementController"><rect codeLine="14" fill="#F1F1F1" height="97.4648" id="PublishAnnouncementController" rx="2.5" ry="2.5" style="stroke:#181818;stroke-width:0.5;" width="537" x="357.5" y="7"/><ellipse cx="509.25" cy="23" fill="#ADD1B2" rx="11" ry="11" style="stroke:#181818;stroke-width:1.0;"/><path d="M512.2231,28.6431 Q511.6421,28.9419 511.0029,29.0913 Q510.3638,29.2407 509.6582,29.2407 Q507.1514,29.2407 505.8315,27.5889 Q504.5117,25.937 504.5117,22.8159 Q504.5117,19.6865 505.8315,18.0347 Q507.1514,16.3828 509.6582,16.3828 Q510.3638,16.3828 511.0112,16.5322 Q511.6587,16.6816 512.2231,16.9805 L512.2231,19.7031 Q511.5923,19.1221 510.9988,18.8523 Q510.4053,18.5825 509.7744,18.5825 Q508.4297,18.5825 507.7449,19.6492 Q507.0601,20.7158 507.0601,22.8159 Q507.0601,24.9077 507.7449,25.9744 Q508.4297,27.041 509.7744,27.041 Q510.4053,27.041 510.9988,26.7712 Q511.5923,26.5015 512.2231,25.9204 Z " fill="#000000"/><text fill="#000000" font-family="sans-serif" font-size="14" lengthAdjust="spacing" textLength="225" x="529.75" y="28.291">PublishAnnouncementController</text><line style="stroke:#181818;stroke-width:0.5;" x1="358.5" x2="893.5" y1="39" y2="39"/><line style="stroke:#181818;stroke-width:0.5;" x1="358.5" x2="893.5" y1="47" y2="47"/><text fill="#000000" font-family="sans-serif" font-size="14" lengthAdjust="spacing" textLength="304" x="363.5" y="64.5352">+PublishAnnouncementController(Property)</text><text fill="#000000" font-family="sans-serif" font-size="14" lengthAdjust="spacing" textLength="525" x="363.5" y="81.0234">+createAnnouncment(Bussiness,size,location,distance_from_the_city_center,</text><text fill="#000000" font-family="sans-serif" font-size="14" lengthAdjust="spacing" textLength="125" x="363.5" y="97.5117">price,commission)</text></g><!--class AnnouncementRepository--><g id="elem_AnnouncementRepository"><rect codeLine="23" fill="#F1F1F1" height="97.4648" id="AnnouncementRepository" rx="2.5" ry="2.5" style="stroke:#181818;stroke-width:0.5;" width="210" x="391" y="181"/><ellipse cx="406" cy="197" fill="#ADD1B2" rx="11" ry="11" style="stroke:#181818;stroke-width:1.0;"/><path d="M408.9731,202.6431 Q408.3921,202.9419 407.7529,203.0913 Q407.1138,203.2407 406.4082,203.2407 Q403.9014,203.2407 402.5815,201.5889 Q401.2617,199.937 401.2617,196.8159 Q401.2617,193.6865 402.5815,192.0347 Q403.9014,190.3828 406.4082,190.3828 Q407.1138,190.3828 407.7612,190.5322 Q408.4087,190.6816 408.9731,190.9805 L408.9731,193.7031 Q408.3423,193.1221 407.7488,192.8523 Q407.1553,192.5825 406.5244,192.5825 Q405.1797,192.5825 404.4949,193.6492 Q403.8101,194.7158 403.8101,196.8159 Q403.8101,198.9077 404.4949,199.9744 Q405.1797,201.041 406.5244,201.041 Q407.1553,201.041 407.7488,200.7712 Q408.3423,200.5015 408.9731,199.9204 Z " fill="#000000"/><text fill="#000000" font-family="sans-serif" font-size="14" lengthAdjust="spacing" textLength="178" x="420" y="202.291">AnnouncementRepository</text><line style="stroke:#181818;stroke-width:0.5;" x1="392" x2="600" y1="213" y2="213"/><line style="stroke:#181818;stroke-width:0.5;" x1="392" x2="600" y1="221" y2="221"/><text fill="#000000" font-family="sans-serif" font-size="14" lengthAdjust="spacing" textLength="148" x="397" y="238.5352">+getAnnouncement()</text><text fill="#000000" font-family="sans-serif" font-size="14" lengthAdjust="spacing" textLength="179" x="397" y="255.0234">+validateAnnouncement()</text><text fill="#000000" font-family="sans-serif" font-size="14" lengthAdjust="spacing" textLength="152" x="397" y="271.5117">+addAnnouncement()</text></g><!--class Announcement--><g id="elem_Announcement"><rect codeLine="29" fill="#F1F1F1" height="80.9766" id="Announcement" rx="2.5" ry="2.5" style="stroke:#181818;stroke-width:0.5;" width="503" x="170.5" y="339"/><ellipse cx="365.25" cy="355" fill="#ADD1B2" rx="11" ry="11" style="stroke:#181818;stroke-width:1.0;"/><path d="M368.2231,360.6431 Q367.6421,360.9419 367.0029,361.0913 Q366.3638,361.2407 365.6582,361.2407 Q363.1514,361.2407 361.8315,359.5889 Q360.5117,357.937 360.5117,354.8159 Q360.5117,351.6865 361.8315,350.0347 Q363.1514,348.3828 365.6582,348.3828 Q366.3638,348.3828 367.0112,348.5322 Q367.6587,348.6816 368.2231,348.9805 L368.2231,351.7031 Q367.5923,351.1221 366.9988,350.8523 Q366.4053,350.5825 365.7744,350.5825 Q364.4297,350.5825 363.7449,351.6492 Q363.0601,352.7158 363.0601,354.8159 Q363.0601,356.9077 363.7449,357.9744 Q364.4297,359.041 365.7744,359.041 Q366.4053,359.041 366.9988,358.7712 Q367.5923,358.5015 368.2231,357.9204 Z " fill="#000000"/><text fill="#000000" font-family="sans-serif" font-size="14" lengthAdjust="spacing" textLength="105" x="385.75" y="360.291">Announcement</text><line style="stroke:#181818;stroke-width:0.5;" x1="171.5" x2="672.5" y1="371" y2="371"/><line style="stroke:#181818;stroke-width:0.5;" x1="171.5" x2="672.5" y1="379" y2="379"/><text fill="#000000" font-family="sans-serif" font-size="14" lengthAdjust="spacing" textLength="491" x="176.5" y="396.5352">+Announcement(Bussiness,size,location,distance_from_the_city_center,</text><text fill="#000000" font-family="sans-serif" font-size="14" lengthAdjust="spacing" textLength="125" x="176.5" y="413.0234">price,commission)</text></g><!--class Property--><g id="elem_Property"><rect codeLine="34" fill="#F1F1F1" height="130.4414" id="Property" rx="2.5" ry="2.5" style="stroke:#181818;stroke-width:0.5;" width="261" x="596.5" y="513.5"/><ellipse cx="693.75" cy="529.5" fill="#ADD1B2" rx="11" ry="11" style="stroke:#181818;stroke-width:1.0;"/><path d="M696.7231,535.1431 Q696.1421,535.4419 695.5029,535.5913 Q694.8638,535.7407 694.1582,535.7407 Q691.6514,535.7407 690.3315,534.0889 Q689.0117,532.437 689.0117,529.3159 Q689.0117,526.1865 690.3315,524.5347 Q691.6514,522.8828 694.1582,522.8828 Q694.8638,522.8828 695.5112,523.0322 Q696.1587,523.1816 696.7231,523.4805 L696.7231,526.2031 Q696.0923,525.6221 695.4988,525.3523 Q694.9053,525.0825 694.2744,525.0825 Q692.9297,525.0825 692.2449,526.1492 Q691.5601,527.2158 691.5601,529.3159 Q691.5601,531.4077 692.2449,532.4744 Q692.9297,533.541 694.2744,533.541 Q694.9053,533.541 695.4988,533.2712 Q696.0923,533.0015 696.7231,532.4204 Z " fill="#000000"/><text fill="#000000" font-family="sans-serif" font-size="14" lengthAdjust="spacing" textLength="58" x="714.25" y="534.791">Property</text><line style="stroke:#181818;stroke-width:0.5;" x1="597.5" x2="856.5" y1="545.5" y2="545.5"/><text fill="#000000" font-family="sans-serif" font-size="14" lengthAdjust="spacing" textLength="119" x="602.5" y="563.0352">-String Bussiness</text><text fill="#000000" font-family="sans-serif" font-size="14" lengthAdjust="spacing" textLength="70" x="602.5" y="579.5234">-float size</text><text fill="#000000" font-family="sans-serif" font-size="14" lengthAdjust="spacing" textLength="107" x="602.5" y="596.0117">-string location</text><text fill="#000000" font-family="sans-serif" font-size="14" lengthAdjust="spacing" textLength="249" x="602.5" y="612.5">-float distance_from_the_city_center</text><text fill="#000000" font-family="sans-serif" font-size="14" lengthAdjust="spacing" textLength="77" x="602.5" y="628.9883">-float price</text><line style="stroke:#181818;stroke-width:0.5;" x1="597.5" x2="856.5" y1="635.9414" y2="635.9414"/></g><!--class Agent--><g id="elem_Agent"><rect codeLine="44" fill="#F1F1F1" height="163.418" id="Agent" rx="2.5" ry="2.5" style="stroke:#181818;stroke-width:0.5;" width="554" x="7" y="497"/><ellipse cx="259.25" cy="513" fill="#ADD1B2" rx="11" ry="11" style="stroke:#181818;stroke-width:1.0;"/><path d="M262.2231,518.6431 Q261.6421,518.9419 261.0029,519.0913 Q260.3638,519.2407 259.6582,519.2407 Q257.1514,519.2407 255.8315,517.5889 Q254.5117,515.937 254.5117,512.8159 Q254.5117,509.6865 255.8315,508.0347 Q257.1514,506.3828 259.6582,506.3828 Q260.3638,506.3828 261.0112,506.5322 Q261.6587,506.6816 262.2231,506.9805 L262.2231,509.7031 Q261.5923,509.1221 260.9988,508.8523 Q260.4053,508.5825 259.7744,508.5825 Q258.4297,508.5825 257.7449,509.6492 Q257.0601,510.7158 257.0601,512.8159 Q257.0601,514.9077 257.7449,515.9744 Q258.4297,517.041 259.7744,517.041 Q260.4053,517.041 260.9988,516.7712 Q261.5923,516.5015 262.2231,515.9204 Z " fill="#000000"/><text fill="#000000" font-family="sans-serif" font-size="14" lengthAdjust="spacing" textLength="41" x="279.75" y="518.291">Agent</text><line style="stroke:#181818;stroke-width:0.5;" x1="8" x2="560" y1="529" y2="529"/><text fill="#000000" font-family="sans-serif" font-size="14" lengthAdjust="spacing" textLength="86" x="13" y="546.5352">-citizenCard</text><text fill="#000000" font-family="sans-serif" font-size="14" lengthAdjust="spacing" textLength="85" x="13" y="563.0234">-taxNumber</text><text fill="#000000" font-family="sans-serif" font-size="14" lengthAdjust="spacing" textLength="62" x="13" y="579.5117">-address</text><text fill="#000000" font-family="sans-serif" font-size="14" lengthAdjust="spacing" textLength="107" x="13" y="596">-phoneNumber</text><text fill="#000000" font-family="sans-serif" font-size="14" lengthAdjust="spacing" textLength="56" x="13" y="612.4883">-agency</text><line style="stroke:#181818;stroke-width:0.5;" x1="8" x2="560" y1="619.4414" y2="619.4414"/><text fill="#000000" font-family="sans-serif" font-size="14" lengthAdjust="spacing" textLength="542" x="13" y="636.9766">+publishAnnouncement(Bussiness,size,location,distance_from_the_city_center,</text><text fill="#000000" font-family="sans-serif" font-size="14" lengthAdjust="spacing" textLength="125" x="13" y="653.4648">price,commission)</text></g><!--link PublishAnnouncementUI to PublishAnnouncementController--><g id="link_PublishAnnouncementUI_PublishAnnouncementController"><path codeLine="56" d="M322.68,55.5 C334.86,55.5 345.09,55.5 351.15,55.5 " fill="none" id="PublishAnnouncementUI-to-PublishAnnouncementController" style="stroke:#181818;stroke-width:1.0;stroke-dasharray:7.0,7.0;"/><polygon fill="#181818" points="356.05,55.5,347.05,51.5,351.05,55.5,347.05,59.5,356.05,55.5" style="stroke:#181818;stroke-width:1.0;"/></g><!--link PublishAnnouncementController to Property--><g id="link_PublishAnnouncementController_Property"><path codeLine="58" d="M674.68,104.26 C690.94,120.21 705,134 705,134 C705,134 717.31,382.07 723.51,507.15 " fill="none" id="PublishAnnouncementController-to-Property" style="stroke:#181818;stroke-width:1.0;stroke-dasharray:7.0,7.0;"/><polygon fill="#181818" points="723.8,512.01,727.3574,502.826,723.5567,507.0159,719.3669,503.2153,723.8,512.01" style="stroke:#181818;stroke-width:1.0;"/></g><!--link PublishAnnouncementController to AnnouncementRepository--><g id="link_PublishAnnouncementController_AnnouncementRepository"><path codeLine="60" d="M570.9,104.48 C552.69,120.33 537,134 537,134 C537,134 528.42,153.77 519.12,175.22 " fill="none" id="PublishAnnouncementController-to-AnnouncementRepository" style="stroke:#181818;stroke-width:1.0;stroke-dasharray:7.0,7.0;"/><polygon fill="#181818" points="516.74,179.7,523.9968,173.0413,518.7336,175.1146,516.6603,169.8515,516.74,179.7" style="stroke:#181818;stroke-width:1.0;"/><text fill="#000000" font-family="sans-serif" font-size="13" lengthAdjust="spacing" textLength="162" x="538" y="147.5684">AnnouncementRepository</text></g><!--link AnnouncementRepository to Announcement--><g id="link_AnnouncementRepository_Announcement"><path codeLine="62" d="M472.18,278.14 C463.3,295.91 453.25,316.01 444.49,333.53 " fill="none" id="AnnouncementRepository-to-Announcement" style="stroke:#181818;stroke-width:1.0;"/><polygon fill="#181818" points="441.81,337.88,449.4206,331.6287,444.0518,333.4107,442.2698,328.0419,441.81,337.88" style="stroke:#181818;stroke-width:1.0;"/><text fill="#000000" font-family="sans-serif" font-size="13" lengthAdjust="spacing" textLength="6" x="438.6992" y="328.2064">*</text></g><!--link Announcement to Property--><g id="link_Announcement_Property"><path codeLine="64" d="M483.72,420.37 C523.44,446.02 576.08,480.02 622.23,509.83 " fill="none" id="Announcement-to-Property" style="stroke:#181818;stroke-width:1.0;"/><polygon fill="#181818" points="626.25,513.07,620.8622,504.8255,622.0506,510.3561,616.52,511.5445,626.25,513.07" style="stroke:#181818;stroke-width:1.0;"/><text fill="#000000" font-family="sans-serif" font-size="13" lengthAdjust="spacing" textLength="53" x="548" y="463.5684">property</text><text fill="#000000" font-family="sans-serif" font-size="13" lengthAdjust="spacing" textLength="8" x="484.9191" y="440.6739">1</text><text fill="#000000" font-family="sans-serif" font-size="13" lengthAdjust="spacing" textLength="8" x="607.9023" y="502.6545">1</text></g><!--link Announcement to Agent--><g id="link_Announcement_Agent"><path codeLine="66" d="M394.07,420.37 C379.62,441.01 361.38,467.04 343.92,491.96 " fill="none" id="Announcement-to-Agent" style="stroke:#181818;stroke-width:1.0;"/><polygon fill="#181818" points="340.67,495.6,349.0974,490.503,343.5287,491.4978,342.5339,485.9291,340.67,495.6" style="stroke:#181818;stroke-width:1.0;"/><text fill="#000000" font-family="sans-serif" font-size="13" lengthAdjust="spacing" textLength="76" x="371" y="463.5684">publishedBy</text></g><!--SRC=[hLF1Rjim3BthAuHSacvEiLvxAD3srCjGDDXjGA38Z2rK5Ws9xkOL_VTIaRpOhHlqq5mCwZsIZu_CCZmQrogl6jcWGrrxR42Ixq0SaLRfHrN1XdeBqeCcvIex9eHQbVZ7k4hkbGrZn1e7rBSWMxHz3CHo1aHFA4PPsgeGhecysNK4TnhTnlm3-KE8fOKzIKBfJLMJB4sKOz09SSYHzztEcb1VEuUTqz20erztp-Bb17wBZZnQ2ru-2yc_xwTPgtkFBNZgpp9RUr04cHovgvik19ujX2AmxiAYLb5aKPh0tcdOxjdcBTMmrORwhUOSyCLlrtgZeT3OD8OBe3iJKRaOn8_rF42BmH3wFekkWCRuAgjxKjQKHtaJJ9Nbc-UNkLQ3AnFkruwObvEDZGtN6zu-7zJ_Fl5jRr6HZ0rZ519ZQ7qadDHmf1sa98Fpq1KpyX6iEONxk5lbo_H0wk_FhjaTAd38vlaaYuEsHWSJb4lfFXdNlh-cBxGl7SZitSlpgzEdF9it-Z-Snm9vAP_XpX-elFm04EA3XFNwIYw-BIPfKx9SN2mIZR-3n4jUwI1sGex4j5ocf2cWlEbV0G00]--></g></svg>