<?xml version="1.0" encoding="us-ascii" standalone="no"?><svg xmlns="http://www.w3.org/2000/svg" xmlns:xlink="http://www.w3.org/1999/xlink" contentStyleType="text/css" height="749px" preserveAspectRatio="none" style="width:1220px;height:749px;background:#FFFFFF;" version="1.1" viewBox="0 0 1220 749" width="1220px" zoomAndPan="magnify"><defs/><g><!--class PublishAnnouncementUI--><g id="elem_PublishAnnouncementUI"><rect codeLine="11" fill="#F1F1F1" height="48" id="PublishAnnouncementUI" rx="2.5" ry="2.5" style="stroke:#181818;stroke-width:0.5;" width="201" x="7" y="40"/><ellipse cx="22" cy="56" fill="#ADD1B2" rx="11" ry="11" style="stroke:#181818;stroke-width:1.0;"/><path d="M24.9731,61.6431 Q24.3921,61.9419 23.7529,62.0913 Q23.1138,62.2407 22.4082,62.2407 Q19.9014,62.2407 18.5815,60.5889 Q17.2617,58.937 17.2617,55.8159 Q17.2617,52.6865 18.5815,51.0347 Q19.9014,49.3828 22.4082,49.3828 Q23.1138,49.3828 23.7612,49.5322 Q24.4087,49.6816 24.9731,49.9805 L24.9731,52.7031 Q24.3423,52.1221 23.7488,51.8523 Q23.1553,51.5825 22.5244,51.5825 Q21.1797,51.5825 20.4949,52.6492 Q19.8101,53.7158 19.8101,55.8159 Q19.8101,57.9077 20.4949,58.9744 Q21.1797,60.041 22.5244,60.041 Q23.1553,60.041 23.7488,59.7712 Q24.3423,59.5015 24.9731,58.9204 Z " fill="#000000"/><text fill="#000000" font-family="sans-serif" font-size="14" lengthAdjust="spacing" textLength="169" x="36" y="61.291">PublishAnnouncementUI</text><line style="stroke:#181818;stroke-width:0.5;" x1="8" x2="207" y1="72" y2="72"/><line style="stroke:#181818;stroke-width:0.5;" x1="8" x2="207" y1="80" y2="80"/></g><!--class PublishAnnouncementController--><g id="elem_PublishAnnouncementController"><rect codeLine="14" fill="#F1F1F1" height="113.9531" id="PublishAnnouncementController" rx="2.5" ry="2.5" style="stroke:#181818;stroke-width:0.5;" width="537" x="243" y="7"/><ellipse cx="394.75" cy="23" fill="#ADD1B2" rx="11" ry="11" style="stroke:#181818;stroke-width:1.0;"/><path d="M397.7231,28.6431 Q397.1421,28.9419 396.5029,29.0913 Q395.8638,29.2407 395.1582,29.2407 Q392.6514,29.2407 391.3315,27.5889 Q390.0117,25.937 390.0117,22.8159 Q390.0117,19.6865 391.3315,18.0347 Q392.6514,16.3828 395.1582,16.3828 Q395.8638,16.3828 396.5112,16.5322 Q397.1587,16.6816 397.7231,16.9805 L397.7231,19.7031 Q397.0923,19.1221 396.4988,18.8523 Q395.9053,18.5825 395.2744,18.5825 Q393.9297,18.5825 393.2449,19.6492 Q392.5601,20.7158 392.5601,22.8159 Q392.5601,24.9077 393.2449,25.9744 Q393.9297,27.041 395.2744,27.041 Q395.9053,27.041 396.4988,26.7712 Q397.0923,26.5015 397.7231,25.9204 Z " fill="#000000"/><text fill="#000000" font-family="sans-serif" font-size="14" lengthAdjust="spacing" textLength="225" x="415.25" y="28.291">PublishAnnouncementController</text><line style="stroke:#181818;stroke-width:0.5;" x1="244" x2="779" y1="39" y2="39"/><line style="stroke:#181818;stroke-width:0.5;" x1="244" x2="779" y1="47" y2="47"/><text fill="#000000" font-family="sans-serif" font-size="14" lengthAdjust="spacing" textLength="304" x="249" y="64.5352">+PublishAnnouncementController(Property)</text><text fill="#000000" font-family="sans-serif" font-size="14" lengthAdjust="spacing" textLength="525" x="249" y="81.0234">+createAnnouncment(Bussiness,size,location,distance_from_the_city_center,</text><text fill="#000000" font-family="sans-serif" font-size="14" lengthAdjust="spacing" textLength="232" x="249" y="97.5117">price,commission, Agency, Agent)</text><text fill="#000000" font-family="sans-serif" font-size="14" lengthAdjust="spacing" textLength="169" x="249" y="114">-getAgentFromSession()</text></g><!--class ApplicationSession--><g id="elem_ApplicationSession"><rect codeLine="21" fill="#F1F1F1" height="80.9766" id="ApplicationSession" rx="2.5" ry="2.5" style="stroke:#181818;stroke-width:0.5;" width="162" x="206.5" y="206"/><ellipse cx="221.5" cy="222" fill="#ADD1B2" rx="11" ry="11" style="stroke:#181818;stroke-width:1.0;"/><path d="M224.4731,227.6431 Q223.8921,227.9419 223.2529,228.0913 Q222.6138,228.2407 221.9082,228.2407 Q219.4014,228.2407 218.0815,226.5889 Q216.7617,224.937 216.7617,221.8159 Q216.7617,218.6865 218.0815,217.0347 Q219.4014,215.3828 221.9082,215.3828 Q222.6138,215.3828 223.2612,215.5322 Q223.9087,215.6816 224.4731,215.9805 L224.4731,218.7031 Q223.8423,218.1221 223.2488,217.8523 Q222.6553,217.5825 222.0244,217.5825 Q220.6797,217.5825 219.9949,218.6492 Q219.3101,219.7158 219.3101,221.8159 Q219.3101,223.9077 219.9949,224.9744 Q220.6797,226.041 222.0244,226.041 Q222.6553,226.041 223.2488,225.7712 Q223.8423,225.5015 224.4731,224.9204 Z " fill="#000000"/><text fill="#000000" font-family="sans-serif" font-size="14" lengthAdjust="spacing" textLength="130" x="235.5" y="227.291">ApplicationSession</text><line style="stroke:#181818;stroke-width:0.5;" x1="207.5" x2="367.5" y1="238" y2="238"/><line style="stroke:#181818;stroke-width:0.5;" x1="207.5" x2="367.5" y1="246" y2="246"/><text fill="#000000" font-family="sans-serif" font-size="14" lengthAdjust="spacing" textLength="140" x="212.5" y="263.5352">+static getInstance()</text><text fill="#000000" font-family="sans-serif" font-size="14" lengthAdjust="spacing" textLength="148" x="212.5" y="280.0234">+getCurrentSession()</text></g><!--class UserSession--><g id="elem_UserSession"><rect codeLine="27" fill="#F1F1F1" height="64.4883" id="UserSession" rx="2.5" ry="2.5" style="stroke:#181818;stroke-width:0.5;" width="123" x="227" y="397"/><ellipse cx="245.6" cy="413" fill="#ADD1B2" rx="11" ry="11" style="stroke:#181818;stroke-width:1.0;"/><path d="M248.5731,418.6431 Q247.9921,418.9419 247.3529,419.0913 Q246.7138,419.2407 246.0082,419.2407 Q243.5014,419.2407 242.1815,417.5889 Q240.8617,415.937 240.8617,412.8159 Q240.8617,409.6865 242.1815,408.0347 Q243.5014,406.3828 246.0082,406.3828 Q246.7138,406.3828 247.3612,406.5322 Q248.0087,406.6816 248.5731,406.9805 L248.5731,409.7031 Q247.9423,409.1221 247.3488,408.8523 Q246.7553,408.5825 246.1244,408.5825 Q244.7797,408.5825 244.0949,409.6492 Q243.4101,410.7158 243.4101,412.8159 Q243.4101,414.9077 244.0949,415.9744 Q244.7797,417.041 246.1244,417.041 Q246.7553,417.041 247.3488,416.7712 Q247.9423,416.5015 248.5731,415.9204 Z " fill="#000000"/><text fill="#000000" font-family="sans-serif" font-size="14" lengthAdjust="spacing" textLength="83" x="260.4" y="418.291">UserSession</text><line style="stroke:#181818;stroke-width:0.5;" x1="228" x2="349" y1="429" y2="429"/><line style="stroke:#181818;stroke-width:0.5;" x1="228" x2="349" y1="437" y2="437"/><text fill="#000000" font-family="sans-serif" font-size="14" lengthAdjust="spacing" textLength="111" x="233" y="454.5352">+getUserEmail()</text></g><!--class AgencyRepository--><g id="elem_AgencyRepository"><rect codeLine="33" fill="#F1F1F1" height="64.4883" id="AgencyRepository" rx="2.5" ry="2.5" style="stroke:#181818;stroke-width:0.5;" width="235" x="921" y="214.5"/><ellipse cx="972.75" cy="230.5" fill="#ADD1B2" rx="11" ry="11" style="stroke:#181818;stroke-width:1.0;"/><path d="M975.7231,236.1431 Q975.1421,236.4419 974.5029,236.5913 Q973.8638,236.7407 973.1582,236.7407 Q970.6514,236.7407 969.3315,235.0889 Q968.0117,233.437 968.0117,230.3159 Q968.0117,227.1865 969.3315,225.5347 Q970.6514,223.8828 973.1582,223.8828 Q973.8638,223.8828 974.5112,224.0322 Q975.1587,224.1816 975.7231,224.4805 L975.7231,227.2031 Q975.0923,226.6221 974.4988,226.3523 Q973.9053,226.0825 973.2744,226.0825 Q971.9297,226.0825 971.2449,227.1492 Q970.5601,228.2158 970.5601,230.3159 Q970.5601,232.4077 971.2449,233.4744 Q971.9297,234.541 973.2744,234.541 Q973.9053,234.541 974.4988,234.2712 Q975.0923,234.0015 975.7231,233.4204 Z " fill="#000000"/><text fill="#000000" font-family="sans-serif" font-size="14" lengthAdjust="spacing" textLength="123" x="993.25" y="235.791">AgencyRepository</text><line style="stroke:#181818;stroke-width:0.5;" x1="922" x2="1155" y1="246.5" y2="246.5"/><line style="stroke:#181818;stroke-width:0.5;" x1="922" x2="1155" y1="254.5" y2="254.5"/><text fill="#000000" font-family="sans-serif" font-size="14" lengthAdjust="spacing" textLength="223" x="927" y="272.0352">+getAgencyByAgentEmail(email)</text></g><!--class Agency--><g id="elem_Agency"><rect codeLine="37" fill="#F1F1F1" height="113.9531" id="Agency" rx="2.5" ry="2.5" style="stroke:#181818;stroke-width:0.5;" width="222" x="925.5" y="372"/><ellipse cx="1007.25" cy="388" fill="#ADD1B2" rx="11" ry="11" style="stroke:#181818;stroke-width:1.0;"/><path d="M1010.2231,393.6431 Q1009.6421,393.9419 1009.0029,394.0913 Q1008.3638,394.2407 1007.6582,394.2407 Q1005.1514,394.2407 1003.8315,392.5889 Q1002.5117,390.937 1002.5117,387.8159 Q1002.5117,384.6865 1003.8315,383.0347 Q1005.1514,381.3828 1007.6582,381.3828 Q1008.3638,381.3828 1009.0112,381.5322 Q1009.6587,381.6816 1010.2231,381.9805 L1010.2231,384.7031 Q1009.5923,384.1221 1008.9988,383.8523 Q1008.4053,383.5825 1007.7744,383.5825 Q1006.4297,383.5825 1005.7449,384.6492 Q1005.0601,385.7158 1005.0601,387.8159 Q1005.0601,389.9077 1005.7449,390.9744 Q1006.4297,392.041 1007.7744,392.041 Q1008.4053,392.041 1008.9988,391.7712 Q1009.5923,391.5015 1010.2231,390.9204 Z " fill="#000000"/><text fill="#000000" font-family="sans-serif" font-size="14" lengthAdjust="spacing" textLength="50" x="1027.75" y="393.291">Agency</text><line style="stroke:#181818;stroke-width:0.5;" x1="926.5" x2="1146.5" y1="404" y2="404"/><text fill="#000000" font-family="sans-serif" font-size="14" lengthAdjust="spacing" textLength="91" x="931.5" y="421.5352">-String name</text><line style="stroke:#181818;stroke-width:0.5;" x1="926.5" x2="1146.5" y1="428.4883" y2="428.4883"/><text fill="#000000" font-family="sans-serif" font-size="14" lengthAdjust="spacing" textLength="210" x="931.5" y="446.0234">+anyEmployeeHasEmail(email)</text><text fill="#000000" font-family="sans-serif" font-size="14" lengthAdjust="spacing" textLength="109" x="931.5" y="462.5117">+Agency(name)</text><text fill="#000000" font-family="sans-serif" font-size="14" lengthAdjust="spacing" textLength="170" x="931.5" y="479">-getAgentByEmail(email)</text></g><!--class Repositories--><g id="elem_Repositories"><rect codeLine="44" fill="#F1F1F1" height="97.4648" id="Repositories" rx="2.5" ry="2.5" style="stroke:#181818;stroke-width:0.5;" width="209" x="904" y="15.5"/><ellipse cx="961.75" cy="31.5" fill="#ADD1B2" rx="11" ry="11" style="stroke:#181818;stroke-width:1.0;"/><path d="M964.7231,37.1431 Q964.1421,37.4419 963.5029,37.5913 Q962.8638,37.7407 962.1582,37.7407 Q959.6514,37.7407 958.3315,36.0889 Q957.0117,34.437 957.0117,31.3159 Q957.0117,28.1865 958.3315,26.5347 Q959.6514,24.8828 962.1582,24.8828 Q962.8638,24.8828 963.5112,25.0322 Q964.1587,25.1816 964.7231,25.4805 L964.7231,28.2031 Q964.0923,27.6221 963.4988,27.3523 Q962.9053,27.0825 962.2744,27.0825 Q960.9297,27.0825 960.2449,28.1492 Q959.5601,29.2158 959.5601,31.3159 Q959.5601,33.4077 960.2449,34.4744 Q960.9297,35.541 962.2744,35.541 Q962.9053,35.541 963.4988,35.2712 Q964.0923,35.0015 964.7231,34.4204 Z " fill="#000000"/><text fill="#000000" font-family="sans-serif" font-size="14" lengthAdjust="spacing" textLength="85" x="982.25" y="36.791">Repositories</text><line style="stroke:#181818;stroke-width:0.5;" x1="905" x2="1112" y1="47.5" y2="47.5"/><line style="stroke:#181818;stroke-width:0.5;" x1="905" x2="1112" y1="55.5" y2="55.5"/><text fill="#000000" font-family="sans-serif" font-size="14" lengthAdjust="spacing" textLength="103" x="910" y="73.0352">-Repositories()</text><text fill="#000000" font-family="sans-serif" font-size="14" lengthAdjust="spacing" textLength="197" x="910" y="89.5234">+getInstance() : Repositories</text><text fill="#000000" font-family="sans-serif" font-size="14" lengthAdjust="spacing" textLength="166" x="910" y="106.0117">+getAgencyRepository()</text></g><!--class AnnouncementRepository--><g id="elem_AnnouncementRepository"><rect codeLine="50" fill="#F1F1F1" height="97.4648" id="AnnouncementRepository" rx="2.5" ry="2.5" style="stroke:#181818;stroke-width:0.5;" width="210" x="557.5" y="198"/><ellipse cx="572.5" cy="214" fill="#ADD1B2" rx="11" ry="11" style="stroke:#181818;stroke-width:1.0;"/><path d="M575.4731,219.6431 Q574.8921,219.9419 574.2529,220.0913 Q573.6138,220.2407 572.9082,220.2407 Q570.4014,220.2407 569.0815,218.5889 Q567.7617,216.937 567.7617,213.8159 Q567.7617,210.6865 569.0815,209.0347 Q570.4014,207.3828 572.9082,207.3828 Q573.6138,207.3828 574.2612,207.5322 Q574.9087,207.6816 575.4731,207.9805 L575.4731,210.7031 Q574.8423,210.1221 574.2488,209.8523 Q573.6553,209.5825 573.0244,209.5825 Q571.6797,209.5825 570.9949,210.6492 Q570.3101,211.7158 570.3101,213.8159 Q570.3101,215.9077 570.9949,216.9744 Q571.6797,218.041 573.0244,218.041 Q573.6553,218.041 574.2488,217.7712 Q574.8423,217.5015 575.4731,216.9204 Z " fill="#000000"/><text fill="#000000" font-family="sans-serif" font-size="14" lengthAdjust="spacing" textLength="178" x="586.5" y="219.291">AnnouncementRepository</text><line style="stroke:#181818;stroke-width:0.5;" x1="558.5" x2="766.5" y1="230" y2="230"/><line style="stroke:#181818;stroke-width:0.5;" x1="558.5" x2="766.5" y1="238" y2="238"/><text fill="#000000" font-family="sans-serif" font-size="14" lengthAdjust="spacing" textLength="148" x="563.5" y="255.5352">+getAnnouncement()</text><text fill="#000000" font-family="sans-serif" font-size="14" lengthAdjust="spacing" textLength="179" x="563.5" y="272.0234">+validateAnnouncement()</text><text fill="#000000" font-family="sans-serif" font-size="14" lengthAdjust="spacing" textLength="152" x="563.5" y="288.5117">+addAnnouncement()</text></g><!--class Announcement--><g id="elem_Announcement"><rect codeLine="56" fill="#F1F1F1" height="80.9766" id="Announcement" rx="2.5" ry="2.5" style="stroke:#181818;stroke-width:0.5;" width="496" x="391.5" y="388.5"/><ellipse cx="582.75" cy="404.5" fill="#ADD1B2" rx="11" ry="11" style="stroke:#181818;stroke-width:1.0;"/><path d="M585.7231,410.1431 Q585.1421,410.4419 584.5029,410.5913 Q583.8638,410.7407 583.1582,410.7407 Q580.6514,410.7407 579.3315,409.0889 Q578.0117,407.437 578.0117,404.3159 Q578.0117,401.1865 579.3315,399.5347 Q580.6514,397.8828 583.1582,397.8828 Q583.8638,397.8828 584.5112,398.0322 Q585.1587,398.1816 585.7231,398.4805 L585.7231,401.2031 Q585.0923,400.6221 584.4988,400.3523 Q583.9053,400.0825 583.2744,400.0825 Q581.9297,400.0825 581.2449,401.1492 Q580.5601,402.2158 580.5601,404.3159 Q580.5601,406.4077 581.2449,407.4744 Q581.9297,408.541 583.2744,408.541 Q583.9053,408.541 584.4988,408.2712 Q585.0923,408.0015 585.7231,407.4204 Z " fill="#000000"/><text fill="#000000" font-family="sans-serif" font-size="14" lengthAdjust="spacing" textLength="105" x="603.25" y="409.791">Announcement</text><line style="stroke:#181818;stroke-width:0.5;" x1="392.5" x2="886.5" y1="420.5" y2="420.5"/><line style="stroke:#181818;stroke-width:0.5;" x1="392.5" x2="886.5" y1="428.5" y2="428.5"/><text fill="#000000" font-family="sans-serif" font-size="14" lengthAdjust="spacing" textLength="484" x="397.5" y="446.0352">+Announcement(Business,size,location,distance_from_the_city_center,</text><text fill="#000000" font-family="sans-serif" font-size="14" lengthAdjust="spacing" textLength="125" x="397.5" y="462.5234">price,commission)</text></g><!--class Property--><g id="elem_Property"><rect codeLine="61" fill="#F1F1F1" height="130.4414" id="Property" rx="2.5" ry="2.5" style="stroke:#181818;stroke-width:0.5;" width="261" x="50" y="588"/><ellipse cx="147.25" cy="604" fill="#ADD1B2" rx="11" ry="11" style="stroke:#181818;stroke-width:1.0;"/><path d="M150.2231,609.6431 Q149.6421,609.9419 149.0029,610.0913 Q148.3638,610.2407 147.6582,610.2407 Q145.1514,610.2407 143.8315,608.5889 Q142.5117,606.937 142.5117,603.8159 Q142.5117,600.6865 143.8315,599.0347 Q145.1514,597.3828 147.6582,597.3828 Q148.3638,597.3828 149.0112,597.5322 Q149.6587,597.6816 150.2231,597.9805 L150.2231,600.7031 Q149.5923,600.1221 148.9988,599.8523 Q148.4053,599.5825 147.7744,599.5825 Q146.4297,599.5825 145.7449,600.6492 Q145.0601,601.7158 145.0601,603.8159 Q145.0601,605.9077 145.7449,606.9744 Q146.4297,608.041 147.7744,608.041 Q148.4053,608.041 148.9988,607.7712 Q149.5923,607.5015 150.2231,606.9204 Z " fill="#000000"/><text fill="#000000" font-family="sans-serif" font-size="14" lengthAdjust="spacing" textLength="58" x="167.75" y="609.291">Property</text><line style="stroke:#181818;stroke-width:0.5;" x1="51" x2="310" y1="620" y2="620"/><text fill="#000000" font-family="sans-serif" font-size="14" lengthAdjust="spacing" textLength="112" x="56" y="637.5352">-String Business</text><text fill="#000000" font-family="sans-serif" font-size="14" lengthAdjust="spacing" textLength="70" x="56" y="654.0234">-float size</text><text fill="#000000" font-family="sans-serif" font-size="14" lengthAdjust="spacing" textLength="107" x="56" y="670.5117">-string location</text><text fill="#000000" font-family="sans-serif" font-size="14" lengthAdjust="spacing" textLength="249" x="56" y="687">-float distance_from_the_city_center</text><text fill="#000000" font-family="sans-serif" font-size="14" lengthAdjust="spacing" textLength="77" x="56" y="703.4883">-float price</text><line style="stroke:#181818;stroke-width:0.5;" x1="51" x2="310" y1="710.4414" y2="710.4414"/></g><!--class Agent--><g id="elem_Agent"><rect codeLine="71" fill="#F1F1F1" height="179.9063" id="Agent" rx="2.5" ry="2.5" style="stroke:#181818;stroke-width:0.5;" width="547" x="366" y="563"/><ellipse cx="614.75" cy="579" fill="#ADD1B2" rx="11" ry="11" style="stroke:#181818;stroke-width:1.0;"/><path d="M617.7231,584.6431 Q617.1421,584.9419 616.5029,585.0913 Q615.8638,585.2407 615.1582,585.2407 Q612.6514,585.2407 611.3315,583.5889 Q610.0117,581.937 610.0117,578.8159 Q610.0117,575.6865 611.3315,574.0347 Q612.6514,572.3828 615.1582,572.3828 Q615.8638,572.3828 616.5112,572.5322 Q617.1587,572.6816 617.7231,572.9805 L617.7231,575.7031 Q617.0923,575.1221 616.4988,574.8523 Q615.9053,574.5825 615.2744,574.5825 Q613.9297,574.5825 613.2449,575.6492 Q612.5601,576.7158 612.5601,578.8159 Q612.5601,580.9077 613.2449,581.9744 Q613.9297,583.041 615.2744,583.041 Q615.9053,583.041 616.4988,582.7712 Q617.0923,582.5015 617.7231,581.9204 Z " fill="#000000"/><text fill="#000000" font-family="sans-serif" font-size="14" lengthAdjust="spacing" textLength="41" x="635.25" y="584.291">Agent</text><line style="stroke:#181818;stroke-width:0.5;" x1="367" x2="912" y1="595" y2="595"/><text fill="#000000" font-family="sans-serif" font-size="14" lengthAdjust="spacing" textLength="86" x="372" y="612.5352">-citizenCard</text><text fill="#000000" font-family="sans-serif" font-size="14" lengthAdjust="spacing" textLength="85" x="372" y="629.0234">-taxNumber</text><text fill="#000000" font-family="sans-serif" font-size="14" lengthAdjust="spacing" textLength="62" x="372" y="645.5117">-address</text><text fill="#000000" font-family="sans-serif" font-size="14" lengthAdjust="spacing" textLength="107" x="372" y="662">-phoneNumber</text><text fill="#000000" font-family="sans-serif" font-size="14" lengthAdjust="spacing" textLength="56" x="372" y="678.4883">-agency</text><text fill="#000000" font-family="sans-serif" font-size="14" lengthAdjust="spacing" textLength="45" x="372" y="694.9766">-email</text><line style="stroke:#181818;stroke-width:0.5;" x1="367" x2="912" y1="701.9297" y2="701.9297"/><text fill="#000000" font-family="sans-serif" font-size="14" lengthAdjust="spacing" textLength="535" x="372" y="719.4648">+publishAnnouncement(Business,size,location,distance_from_the_city_center,</text><text fill="#000000" font-family="sans-serif" font-size="14" lengthAdjust="spacing" textLength="125" x="372" y="735.9531">price,commission)</text></g><!--link Repositories to Repositories--><g id="link_Repositories_Repositories"><path codeLine="83" d="M1113.44,46.92 C1133.67,48.93 1148,54.63 1148,64 C1148,72.49 1136.23,77.97 1118.97,80.42 " fill="none" id="Repositories-to-Repositories" style="stroke:#181818;stroke-width:1.0;"/><polygon fill="#181818" points="1114.44,81.08,1123.8472,83.9963,1119.4055,80.4933,1122.9085,76.0516,1114.44,81.08" style="stroke:#181818;stroke-width:1.0;"/><text fill="#000000" font-family="sans-serif" font-size="13" lengthAdjust="spacing" textLength="53" x="1154" y="69.0684">instance</text></g><!--link ApplicationSession to ApplicationSession--><g id="link_ApplicationSession_ApplicationSession"><path codeLine="84" d="M368.81,230.44 C388.7,231.63 403.5,236.98 403.5,246.5 C403.5,255.05 391.55,260.24 374.7,262.07 " fill="none" id="ApplicationSession-to-ApplicationSession" style="stroke:#181818;stroke-width:1.0;"/><polygon fill="#181818" points="369.81,262.56,379.1195,265.7745,374.7916,262.1318,378.4344,257.8039,369.81,262.56" style="stroke:#181818;stroke-width:1.0;"/><text fill="#000000" font-family="sans-serif" font-size="13" lengthAdjust="spacing" textLength="53" x="409.5" y="251.5684">instance</text></g><!--link PublishAnnouncementController to Repositories--><g id="link_PublishAnnouncementController_Repositories"><path codeLine="85" d="M780.36,64 C821.94,64 862.75,64 898.1,64 " fill="none" id="PublishAnnouncementController-to-Repositories" style="stroke:#181818;stroke-width:1.0;stroke-dasharray:7.0,7.0;"/><polygon fill="#181818" points="902.72,64,893.72,60,897.72,64,893.72,68,902.72,64" style="stroke:#181818;stroke-width:1.0;"/><text fill="#000000" font-family="sans-serif" font-size="13" lengthAdjust="spacing" textLength="75" x="804.5" y="57.5684">repositories</text></g><!--link Repositories to AgencyRepository--><g id="link_Repositories_AgencyRepository"><path codeLine="87" d="M1016.46,112.9 C1021.44,142.83 1027.75,180.8 1032.34,208.44 " fill="none" id="Repositories-to-AgencyRepository" style="stroke:#181818;stroke-width:1.0;"/><polygon fill="#181818" points="1033.29,213.17,1035.7694,203.6383,1032.475,208.2369,1027.8764,204.9424,1033.29,213.17" style="stroke:#181818;stroke-width:1.0;"/><text fill="#000000" font-family="sans-serif" font-size="13" lengthAdjust="spacing" textLength="8" x="1023.4768" y="203.8793">1</text></g><!--link AgencyRepository to Agency--><g id="link_AgencyRepository_Agency"><path codeLine="89" d="M1038.15,278.94 C1037.89,302.9 1037.51,336.65 1037.19,365.98 " fill="none" id="AgencyRepository-to-Agency" style="stroke:#181818;stroke-width:1.0;"/><polygon fill="#181818" points="1037.12,370.78,1041.2226,361.8263,1037.1771,365.7803,1033.2231,361.7349,1037.12,370.78" style="stroke:#181818;stroke-width:1.0;"/><text fill="#000000" font-family="sans-serif" font-size="13" lengthAdjust="spacing" textLength="6" x="1030.8151" y="361.079">*</text></g><!--link ApplicationSession to UserSession--><g id="link_ApplicationSession_UserSession"><path codeLine="90" d="M287.72,287.11 C287.89,317.95 288.13,360.46 288.29,390.7 " fill="none" id="ApplicationSession-to-UserSession" style="stroke:#181818;stroke-width:1.0;"/><polygon fill="#181818" points="288.33,395.57,292.2785,386.5473,288.3014,390.5701,284.2786,386.593,288.33,395.57" style="stroke:#181818;stroke-width:1.0;"/><text fill="#000000" font-family="sans-serif" font-size="13" lengthAdjust="spacing" textLength="75" x="289.5" y="338.5684">userSession</text><text fill="#000000" font-family="sans-serif" font-size="13" lengthAdjust="spacing" textLength="8" x="279.509" y="386.2596">1</text></g><!--link PublishAnnouncementController to Agency--><g id="link_PublishAnnouncementController_Agency"><path codeLine="92" d="M679.4,121.4 C727.65,137.61 767.5,151 767.5,151 C767.5,151 855.5,295 855.5,295 C855.5,295 907.03,332.86 955.1,368.19 " fill="none" id="PublishAnnouncementController-to-Agency" style="stroke:#181818;stroke-width:1.0;stroke-dasharray:7.0,7.0;"/><polygon fill="#181818" points="958.74,371.6,953.8714,363.0386,954.7162,368.6321,949.1227,369.4768,958.74,371.6" style="stroke:#181818;stroke-width:1.0;"/><text fill="#000000" font-family="sans-serif" font-size="13" lengthAdjust="spacing" textLength="46" x="856.5" y="251.5684">Agency</text><text fill="#000000" font-family="sans-serif" font-size="13" lengthAdjust="spacing" textLength="8" x="941.8974" y="361.2805">1</text></g><!--link PublishAnnouncementController to ApplicationSession--><g id="link_PublishAnnouncementController_ApplicationSession"><path codeLine="93" d="M441.55,121.37 C409.25,147.4 371.49,177.82 341.44,202.04 " fill="none" id="PublishAnnouncementController-to-ApplicationSession" style="stroke:#181818;stroke-width:1.0;stroke-dasharray:7.0,7.0;"/><polygon fill="#181818" points="338.06,205.56,347.5832,203.0485,341.9602,202.4313,342.5773,196.8082,338.06,205.56" style="stroke:#181818;stroke-width:1.0;"/></g><!--link PublishAnnouncementController to UserSession--><g id="link_PublishAnnouncementController_UserSession"><path codeLine="94" d="M500.98,121.26 C488.25,189.36 468.5,295 468.5,295 C468.5,295 388.79,353.9 335.46,393.3 " fill="none" id="PublishAnnouncementController-to-UserSession" style="stroke:#181818;stroke-width:1.0;stroke-dasharray:7.0,7.0;"/><polygon fill="#181818" points="331.7,396.82,341.3137,394.6805,335.7188,393.8452,336.554,388.2504,331.7,396.82" style="stroke:#181818;stroke-width:1.0;"/></g><!--link PublishAnnouncementUI to PublishAnnouncementController--><g id="link_PublishAnnouncementUI_PublishAnnouncementController"><path codeLine="96" d="M208.18,64 C220.36,64 230.59,64 236.65,64 " fill="none" id="PublishAnnouncementUI-to-PublishAnnouncementController" style="stroke:#181818;stroke-width:1.0;stroke-dasharray:7.0,7.0;"/><polygon fill="#181818" points="241.55,64,232.55,60,236.55,64,232.55,68,241.55,64" style="stroke:#181818;stroke-width:1.0;"/></g><!--link PublishAnnouncementController to Property--><g id="link_PublishAnnouncementController_Property"><path codeLine="98" d="M374.52,121.4 C286.49,157.65 188.5,198 188.5,198 C188.5,198 183.98,454.56 181.73,581.95 " fill="none" id="PublishAnnouncementController-to-Property" style="stroke:#181818;stroke-width:1.0;stroke-dasharray:7.0,7.0;"/><polygon fill="#181818" points="181.63,586.92,185.7837,577.9899,181.7157,581.9207,177.7849,577.8528,181.63,586.92" style="stroke:#181818;stroke-width:1.0;"/></g><!--link PublishAnnouncementController to AnnouncementRepository--><g id="link_PublishAnnouncementController_AnnouncementRepository"><path codeLine="100" d="M558.45,121.12 C577.69,144.12 599.82,170.58 618.72,193.16 " fill="none" id="PublishAnnouncementController-to-AnnouncementRepository" style="stroke:#181818;stroke-width:1.0;stroke-dasharray:7.0,7.0;"/><polygon fill="#181818" points="622.45,196.63,619.7439,187.1602,619.2421,192.7947,613.6075,192.2929,622.45,196.63" style="stroke:#181818;stroke-width:1.0;"/><text fill="#000000" font-family="sans-serif" font-size="13" lengthAdjust="spacing" textLength="162" x="596.5" y="164.5684">AnnouncementRepository</text></g><!--link AnnouncementRepository to Announcement--><g id="link_AnnouncementRepository_Announcement"><path codeLine="102" d="M656.4,295.4 C652.97,322.29 648.72,355.68 645.33,382.22 " fill="none" id="AnnouncementRepository-to-Announcement" style="stroke:#181818;stroke-width:1.0;"/><polygon fill="#181818" points="644.58,387.12,649.6804,378.6947,645.209,382.1597,641.7439,377.6883,644.58,387.12" style="stroke:#181818;stroke-width:1.0;"/><text fill="#000000" font-family="sans-serif" font-size="13" lengthAdjust="spacing" textLength="6" x="638.9245" y="377.7031">*</text></g><!--link Announcement to Property--><g id="link_Announcement_Property"><path codeLine="104" d="M552.19,469.9 C466.47,509.08 348.5,563 348.5,563 C348.5,563 331,572.27 307.3,584.83 " fill="none" id="Announcement-to-Property" style="stroke:#181818;stroke-width:1.0;"/><polygon fill="#181818" points="303.15,587.56,312.9749,586.8739,307.5665,585.216,309.2245,579.8075,303.15,587.56" style="stroke:#181818;stroke-width:1.0;"/><text fill="#000000" font-family="sans-serif" font-size="13" lengthAdjust="spacing" textLength="53" x="452.5" y="529.5684">property</text><text fill="#000000" font-family="sans-serif" font-size="13" lengthAdjust="spacing" textLength="8" x="530.2082" y="489.9052">1</text><text fill="#000000" font-family="sans-serif" font-size="13" lengthAdjust="spacing" textLength="8" x="307.018" y="577.1434">1</text></g><!--link Announcement to Agent--><g id="link_Announcement_Agent"><path codeLine="106" d="M639.5,469.95 C639.5,494.27 639.5,526.45 639.5,556.99 " fill="none" id="Announcement-to-Agent" style="stroke:#181818;stroke-width:1.0;"/><polygon fill="#181818" points="639.5,561.67,643.5,552.67,639.5,556.67,635.5,552.67,639.5,561.67" style="stroke:#181818;stroke-width:1.0;"/><text fill="#000000" font-family="sans-serif" font-size="13" lengthAdjust="spacing" textLength="76" x="640.5" y="529.5684">publishedBy</text></g><!--SRC=[hLJ1Zjem4BtxAwozmBQmQgySAW7QgbogLH6tIiZh3CHQnuvifsswwhztRCV4WGZsi1m0UzwRzsOyziI-25KpmofQQQLvQNG5r9a6I1-f6NzXHzYwLW8rm1rJHva3RCaA_Lke8pqmQVE850fSMmEjjMpzWan6WjeuJJ8MbypQfND6F3SEDbohhVWBz1CX4ma7HvscHXnBHmlXxGYj20aS-jGyIs7BfLAwKHmgK6wtUIN_hiJNMZcZfGH3Nmd5pyVhgEcJqJKOrzvtQ6w0EUZ07ZjTDTPYRTREBFgUISsPDpahXCNUSTWViCrxLyAU2zVkENB0p7wgsWWECwwhIc029D3b4HHluw-BWdDw11VMNp7B5W9oUa_w8fTrBKMKxC8aLORwJd2VOQEYbsag0_VMZJ6OjyzvIhcpOCvp8S5lFrPCo8XD-i7q3wYr5KwRbcQC65kreO181V-TQKL8HvhJBOu1JfPY5NHfc6eVgrhg5k0RiuCa4H0pJ3tbl6UhTbpqv5Q0FKddctcV-jxHnG1qNcVVWxoP-LprYAv9dfl5a-ml9aNHZzaWnehYR7jKAft208kZ-XwJcezVkXzURzwTNfBnMmUfcQDUpwzi12Jb7d3LGWyBJiBmPUFZqX4Y1NNKcfaYRZZsvtjJFOSCkCJMcMWB5tMf5GoYuH3Z_p0miOFrvVFmVdqCbGocSVvbE9qBAhhv8vSttQD7TZFEzIVmuKBCvFDzvWp5xZxVNLnuGYwUW03zaA2ZnhjasLE3watsyDoo_f2xGMwdTPiryc3U9krkEDjjV3ElvdbBHUaslGKx_h3uJem6y9Z62QV3oi93S6XqEh5aSO6NCPaTW3qmNak4n2gWMBN_0G00]--></g></svg>