<?xml version="1.0" encoding="us-ascii" standalone="no"?><svg xmlns="http://www.w3.org/2000/svg" xmlns:xlink="http://www.w3.org/1999/xlink" contentStyleType="text/css" height="1077px" preserveAspectRatio="none" style="width:1641px;height:1077px;background:#FFFFFF;" version="1.1" viewBox="0 0 1641 1077" width="1641px" zoomAndPan="magnify"><defs/><g><rect fill="#FFFFFF" height="887.0723" style="stroke:#181818;stroke-width:1.0;" width="10" x="23.5" y="91.4883"/><rect fill="#FFFFFF" height="865.7617" style="stroke:#181818;stroke-width:1.0;" width="10" x="384.5" y="112.7988"/><rect fill="#FFFFFF" height="528.5469" style="stroke:#181818;stroke-width:1.0;" width="10" x="655.5" y="420.7031"/><rect fill="#FFFFFF" height="90.2871" style="stroke:#181818;stroke-width:1.0;" width="10" x="839" y="460.0137"/><rect fill="#FFFFFF" height="330.3281" style="stroke:#181818;stroke-width:1.0;" width="10" x="1046" y="589.6113"/><rect fill="#FFFFFF" height="162.2422" style="stroke:#181818;stroke-width:1.0;" width="10" x="1051" y="721.3867"/><rect fill="#FFFFFF" height="82.6211" style="stroke:#181818;stroke-width:1.0;" width="10" x="1056" y="758.6973"/><rect fill="#FFFFFF" height="90.2871" style="stroke:#181818;stroke-width:1.0;" width="10" x="1348" y="631.0996"/><line style="stroke:#181818;stroke-width:0.5;stroke-dasharray:5.0,5.0;" x1="28" x2="28" y1="81.4883" y2="996.5605"/><line style="stroke:#181818;stroke-width:0.5;stroke-dasharray:5.0,5.0;" x1="389" x2="389" y1="81.4883" y2="996.5605"/><line style="stroke:#181818;stroke-width:0.5;stroke-dasharray:5.0,5.0;" x1="660" x2="660" y1="358.0273" y2="996.5605"/><line style="stroke:#181818;stroke-width:0.5;stroke-dasharray:5.0,5.0;" x1="844" x2="844" y1="467.6914" y2="996.5605"/><line style="stroke:#181818;stroke-width:0.5;stroke-dasharray:5.0,5.0;" x1="1051" x2="1051" y1="589.0449" y2="996.5605"/><line style="stroke:#181818;stroke-width:0.5;stroke-dasharray:5.0,5.0;" x1="1352.5" x2="1352.5" y1="638.7773" y2="996.5605"/><text fill="#000000" font-family="sans-serif" font-size="14" lengthAdjust="spacing" textLength="41" x="5" y="78.5352">Agent</text><ellipse cx="28.5" cy="13.5" fill="#E3E3E3" rx="8" ry="8" style="stroke:#181818;stroke-width:0.5;"/><path d="M28.5,21.5 L28.5,48.5 M15.5,29.5 L41.5,29.5 M28.5,48.5 L15.5,63.5 M28.5,48.5 L41.5,63.5 " fill="none" style="stroke:#181818;stroke-width:0.5;"/><text fill="#000000" font-family="sans-serif" font-size="14" lengthAdjust="spacing" textLength="41" x="5" y="1009.0957">Agent</text><ellipse cx="28.5" cy="1020.5488" fill="#E3E3E3" rx="8" ry="8" style="stroke:#181818;stroke-width:0.5;"/><path d="M28.5,1028.5488 L28.5,1055.5488 M15.5,1036.5488 L41.5,1036.5488 M28.5,1055.5488 L15.5,1070.5488 M28.5,1055.5488 L41.5,1070.5488 " fill="none" style="stroke:#181818;stroke-width:0.5;"/><rect fill="#E3E3E3" height="30.4883" rx="2.5" ry="2.5" style="stroke:#181818;stroke-width:0.5;" width="187" x="296" y="50"/><text fill="#000000" font-family="sans-serif" font-size="14" lengthAdjust="spacing" textLength="173" x="303" y="70.5352">:PublishAnnouncementUI</text><rect fill="#E3E3E3" height="30.4883" rx="2.5" ry="2.5" style="stroke:#181818;stroke-width:0.5;" width="187" x="296" y="995.5605"/><text fill="#000000" font-family="sans-serif" font-size="14" lengthAdjust="spacing" textLength="173" x="303" y="1016.0957">:PublishAnnouncementUI</text><rect fill="#E3E3E3" height="30.4883" rx="2.5" ry="2.5" style="stroke:#181818;stroke-width:0.5;" width="243" x="539" y="995.5605"/><text fill="#000000" font-family="sans-serif" font-size="14" lengthAdjust="spacing" textLength="229" x="546" y="1016.0957">:PublishAnnouncementController</text><rect fill="#E3E3E3" height="46.9766" rx="2.5" ry="2.5" style="stroke:#181818;stroke-width:0.5;" width="104" x="792" y="995.5605"/><text fill="#000000" font-family="sans-serif" font-size="14" lengthAdjust="spacing" textLength="90" x="799" y="1016.0957">new Property</text><text fill="#000000" font-family="sans-serif" font-size="14" lengthAdjust="spacing" textLength="62" x="813" y="1032.584">:Property</text><rect fill="#E3E3E3" height="30.4883" rx="2.5" ry="2.5" style="stroke:#181818;stroke-width:0.5;" width="196" x="953" y="995.5605"/><text fill="#000000" font-family="sans-serif" font-size="14" lengthAdjust="spacing" textLength="182" x="960" y="1016.0957">:AnnouncementRepository</text><rect fill="#E3E3E3" height="46.9766" rx="2.5" ry="2.5" style="stroke:#181818;stroke-width:0.5;" width="151" x="1277.5" y="995.5605"/><text fill="#000000" font-family="sans-serif" font-size="14" lengthAdjust="spacing" textLength="137" x="1284.5" y="1016.0957">new Announcement</text><text fill="#000000" font-family="sans-serif" font-size="14" lengthAdjust="spacing" textLength="109" x="1298.5" y="1032.584">:Announcement</text><rect fill="#FFFFFF" height="887.0723" style="stroke:#181818;stroke-width:1.0;" width="10" x="23.5" y="91.4883"/><rect fill="#FFFFFF" height="865.7617" style="stroke:#181818;stroke-width:1.0;" width="10" x="384.5" y="112.7988"/><rect fill="#FFFFFF" height="528.5469" style="stroke:#181818;stroke-width:1.0;" width="10" x="655.5" y="420.7031"/><rect fill="#FFFFFF" height="90.2871" style="stroke:#181818;stroke-width:1.0;" width="10" x="839" y="460.0137"/><rect fill="#FFFFFF" height="330.3281" style="stroke:#181818;stroke-width:1.0;" width="10" x="1046" y="589.6113"/><rect fill="#FFFFFF" height="162.2422" style="stroke:#181818;stroke-width:1.0;" width="10" x="1051" y="721.3867"/><rect fill="#FFFFFF" height="82.6211" style="stroke:#181818;stroke-width:1.0;" width="10" x="1056" y="758.6973"/><rect fill="#FFFFFF" height="90.2871" style="stroke:#181818;stroke-width:1.0;" width="10" x="1348" y="631.0996"/><polygon fill="#181818" points="372.5,108.7988,382.5,112.7988,372.5,116.7988,376.5,112.7988" style="stroke:#181818;stroke-width:1.0;"/><line style="stroke:#181818;stroke-width:1.0;" x1="33.5" x2="378.5" y1="112.7988" y2="112.7988"/><text fill="#000000" font-family="sans-serif" font-size="13" font-weight="bold" lengthAdjust="spacing" textLength="9" x="40.5" y="108.0566">1</text><text fill="#000000" font-family="sans-serif" font-size="13" lengthAdjust="spacing" textLength="213" x="53.5" y="108.0566">asks to publish an announcement</text><polygon fill="#181818" points="44.5,138.1094,34.5,142.1094,44.5,146.1094,40.5,142.1094" style="stroke:#181818;stroke-width:1.0;"/><line style="stroke:#181818;stroke-width:1.0;stroke-dasharray:2.0,2.0;" x1="38.5" x2="383.5" y1="142.1094" y2="142.1094"/><text fill="#000000" font-family="sans-serif" font-size="13" font-weight="bold" lengthAdjust="spacing" textLength="9" x="50.5" y="137.3672">2</text><text fill="#000000" font-family="sans-serif" font-size="13" lengthAdjust="spacing" textLength="78" x="63.5" y="137.3672">request data</text><polygon fill="#181818" points="372.5,167.4199,382.5,171.4199,372.5,175.4199,376.5,171.4199" style="stroke:#181818;stroke-width:1.0;"/><line style="stroke:#181818;stroke-width:1.0;" x1="33.5" x2="378.5" y1="171.4199" y2="171.4199"/><text fill="#000000" font-family="sans-serif" font-size="13" font-weight="bold" lengthAdjust="spacing" textLength="9" x="40.5" y="166.6777">3</text><text fill="#000000" font-family="sans-serif" font-size="13" lengthAdjust="spacing" textLength="149" x="53.5" y="166.6777">select the property type</text><polygon fill="#181818" points="44.5,212.041,34.5,216.041,44.5,220.041,40.5,216.041" style="stroke:#181818;stroke-width:1.0;"/><line style="stroke:#181818;stroke-width:1.0;stroke-dasharray:2.0,2.0;" x1="38.5" x2="383.5" y1="216.041" y2="216.041"/><text fill="#000000" font-family="sans-serif" font-size="13" font-weight="bold" lengthAdjust="spacing" textLength="9" x="50.5" y="203.6436">4</text><text fill="#000000" font-family="sans-serif" font-size="13" lengthAdjust="spacing" textLength="145" x="63.5" y="195.9883">presents the data to be</text><text fill="#000000" font-family="sans-serif" font-size="13" lengthAdjust="spacing" textLength="196" x="67.5" y="211.2988">filled in by the type of porperty</text><polygon fill="#181818" points="372.5,256.6621,382.5,260.6621,372.5,264.6621,376.5,260.6621" style="stroke:#181818;stroke-width:1.0;"/><line style="stroke:#181818;stroke-width:1.0;" x1="33.5" x2="378.5" y1="260.6621" y2="260.6621"/><text fill="#000000" font-family="sans-serif" font-size="13" font-weight="bold" lengthAdjust="spacing" textLength="9" x="40.5" y="248.2646">5</text><text fill="#000000" font-family="sans-serif" font-size="13" lengthAdjust="spacing" textLength="310" x="53.5" y="240.6094">insert the requested data (size, location, distance</text><text fill="#000000" font-family="sans-serif" font-size="13" lengthAdjust="spacing" textLength="252" x="53.5" y="255.9199">from the city center, price, commission)</text><polygon fill="#181818" points="44.5,285.9727,34.5,289.9727,44.5,293.9727,40.5,289.9727" style="stroke:#181818;stroke-width:1.0;"/><line style="stroke:#181818;stroke-width:1.0;stroke-dasharray:2.0,2.0;" x1="38.5" x2="383.5" y1="289.9727" y2="289.9727"/><text fill="#000000" font-family="sans-serif" font-size="13" font-weight="bold" lengthAdjust="spacing" textLength="9" x="50.5" y="285.2305">6</text><text fill="#000000" font-family="sans-serif" font-size="13" lengthAdjust="spacing" textLength="80" x="63.5" y="285.2305">validate data</text><polygon fill="#181818" points="372.5,315.2832,382.5,319.2832,372.5,323.2832,376.5,319.2832" style="stroke:#181818;stroke-width:1.0;"/><line style="stroke:#181818;stroke-width:1.0;" x1="33.5" x2="378.5" y1="319.2832" y2="319.2832"/><text fill="#000000" font-family="sans-serif" font-size="13" font-weight="bold" lengthAdjust="spacing" textLength="9" x="40.5" y="314.541">7</text><text fill="#000000" font-family="sans-serif" font-size="13" lengthAdjust="spacing" textLength="82" x="53.5" y="314.541">submits data</text><polygon fill="#181818" points="527,344.5938,537,348.5938,527,352.5938,531,348.5938" style="stroke:#181818;stroke-width:1.0;"/><line style="stroke:#181818;stroke-width:1.0;" x1="394.5" x2="533" y1="348.5938" y2="348.5938"/><text fill="#000000" font-family="sans-serif" font-size="13" font-weight="bold" lengthAdjust="spacing" textLength="9" x="401.5" y="343.8516">8</text><text fill="#000000" font-family="sans-serif" font-size="13" lengthAdjust="spacing" textLength="38" x="414.5" y="343.8516">create</text><rect fill="#E3E3E3" height="30.4883" rx="2.5" ry="2.5" style="stroke:#181818;stroke-width:0.5;" width="243" x="539" y="327.2832"/><text fill="#000000" font-family="sans-serif" font-size="14" lengthAdjust="spacing" textLength="229" x="546" y="347.8184">:PublishAnnouncementController</text><polygon fill="#181818" points="643.5,416.7031,653.5,420.7031,643.5,424.7031,647.5,420.7031" style="stroke:#181818;stroke-width:1.0;"/><line style="stroke:#181818;stroke-width:1.0;" x1="394.5" x2="649.5" y1="420.7031" y2="420.7031"/><text fill="#000000" font-family="sans-serif" font-size="13" font-weight="bold" lengthAdjust="spacing" textLength="9" x="401.5" y="400.6504">9</text><text fill="#000000" font-family="sans-serif" font-size="13" lengthAdjust="spacing" textLength="229" x="414.5" y="385.3398">createAnnouncement((size, location,</text><text fill="#000000" font-family="sans-serif" font-size="13" lengthAdjust="spacing" textLength="138" x="418.5" y="400.6504">distance from the city</text><text fill="#000000" font-family="sans-serif" font-size="13" lengthAdjust="spacing" textLength="171" x="418.5" y="415.9609">center, price, commission))</text><polygon fill="#181818" points="780,446.0137,790,450.0137,780,454.0137,784,450.0137" style="stroke:#181818;stroke-width:1.0;"/><line style="stroke:#181818;stroke-width:1.0;" x1="665.5" x2="786" y1="450.0137" y2="450.0137"/><text fill="#000000" font-family="sans-serif" font-size="13" font-weight="bold" lengthAdjust="spacing" textLength="18" x="672.5" y="445.2715">10</text><text fill="#000000" font-family="sans-serif" font-size="13" lengthAdjust="spacing" textLength="38" x="694.5" y="445.2715">create</text><rect fill="#E3E3E3" height="46.9766" rx="2.5" ry="2.5" style="stroke:#181818;stroke-width:0.5;" width="104" x="792" y="428.7031"/><text fill="#000000" font-family="sans-serif" font-size="14" lengthAdjust="spacing" textLength="90" x="799" y="449.2383">new Property</text><text fill="#000000" font-family="sans-serif" font-size="14" lengthAdjust="spacing" textLength="62" x="813" y="465.7266">:Property</text><line style="stroke:#181818;stroke-width:1.0;" x1="849" x2="891" y1="507.9902" y2="507.9902"/><line style="stroke:#181818;stroke-width:1.0;" x1="891" x2="891" y1="507.9902" y2="520.9902"/><line style="stroke:#181818;stroke-width:1.0;" x1="850" x2="891" y1="520.9902" y2="520.9902"/><polygon fill="#181818" points="860,516.9902,850,520.9902,860,524.9902,856,520.9902" style="stroke:#181818;stroke-width:1.0;"/><text fill="#000000" font-family="sans-serif" font-size="13" font-weight="bold" lengthAdjust="spacing" textLength="18" x="856" y="503.248">11</text><text fill="#000000" font-family="sans-serif" font-size="13" lengthAdjust="spacing" textLength="161" x="878" y="503.248">validateProperty(Property)</text><polygon fill="#181818" points="676.5,546.3008,666.5,550.3008,676.5,554.3008,672.5,550.3008" style="stroke:#181818;stroke-width:1.0;"/><line style="stroke:#181818;stroke-width:1.0;" x1="670.5" x2="843" y1="550.3008" y2="550.3008"/><text fill="#000000" font-family="sans-serif" font-size="13" font-weight="bold" lengthAdjust="spacing" textLength="18" x="682.5" y="545.5586">12</text><text fill="#000000" font-family="sans-serif" font-size="13" lengthAdjust="spacing" textLength="52" x="704.5" y="545.5586">Property</text><polygon fill="#181818" points="941,575.6113,951,579.6113,941,583.6113,945,579.6113" style="stroke:#181818;stroke-width:1.0;"/><line style="stroke:#181818;stroke-width:1.0;" x1="665.5" x2="947" y1="579.6113" y2="579.6113"/><text fill="#000000" font-family="sans-serif" font-size="13" font-weight="bold" lengthAdjust="spacing" textLength="18" x="672.5" y="574.8691">13</text><text fill="#000000" font-family="sans-serif" font-size="13" lengthAdjust="spacing" textLength="240" x="694.5" y="574.8691">createAnnouncement(Announcement))</text><rect fill="#E3E3E3" height="30.4883" rx="2.5" ry="2.5" style="stroke:#181818;stroke-width:0.5;" width="196" x="953" y="558.3008"/><text fill="#000000" font-family="sans-serif" font-size="14" lengthAdjust="spacing" textLength="182" x="960" y="578.8359">:AnnouncementRepository</text><polygon fill="#181818" points="1265.5,617.0996,1275.5,621.0996,1265.5,625.0996,1269.5,621.0996" style="stroke:#181818;stroke-width:1.0;"/><line style="stroke:#181818;stroke-width:1.0;" x1="1056" x2="1271.5" y1="621.0996" y2="621.0996"/><text fill="#000000" font-family="sans-serif" font-size="13" font-weight="bold" lengthAdjust="spacing" textLength="18" x="1063" y="616.3574">14</text><text fill="#000000" font-family="sans-serif" font-size="13" lengthAdjust="spacing" textLength="141" x="1085" y="616.3574">create(Announcement)</text><rect fill="#E3E3E3" height="46.9766" rx="2.5" ry="2.5" style="stroke:#181818;stroke-width:0.5;" width="151" x="1277.5" y="599.7891"/><text fill="#000000" font-family="sans-serif" font-size="14" lengthAdjust="spacing" textLength="137" x="1284.5" y="620.3242">new Announcement</text><text fill="#000000" font-family="sans-serif" font-size="14" lengthAdjust="spacing" textLength="109" x="1298.5" y="636.8125">:Announcement</text><line style="stroke:#181818;stroke-width:1.0;" x1="1358" x2="1400" y1="679.0762" y2="679.0762"/><line style="stroke:#181818;stroke-width:1.0;" x1="1400" x2="1400" y1="679.0762" y2="692.0762"/><line style="stroke:#181818;stroke-width:1.0;" x1="1359" x2="1400" y1="692.0762" y2="692.0762"/><polygon fill="#181818" points="1369,688.0762,1359,692.0762,1369,696.0762,1365,692.0762" style="stroke:#181818;stroke-width:1.0;"/><text fill="#000000" font-family="sans-serif" font-size="13" font-weight="bold" lengthAdjust="spacing" textLength="18" x="1365" y="674.334">15</text><text fill="#000000" font-family="sans-serif" font-size="13" lengthAdjust="spacing" textLength="247" x="1387" y="674.334">validateAnnouncement(Announcement)</text><polygon fill="#181818" points="1072,717.3867,1062,721.3867,1072,725.3867,1068,721.3867" style="stroke:#181818;stroke-width:1.0;"/><line style="stroke:#181818;stroke-width:1.0;" x1="1066" x2="1352" y1="721.3867" y2="721.3867"/><text fill="#000000" font-family="sans-serif" font-size="13" font-weight="bold" lengthAdjust="spacing" textLength="18" x="1078" y="716.6445">16</text><text fill="#000000" font-family="sans-serif" font-size="13" lengthAdjust="spacing" textLength="198" x="1100" y="716.6445">Announcement(Announcement)</text><line style="stroke:#181818;stroke-width:1.0;" x1="1061" x2="1108" y1="745.6973" y2="745.6973"/><line style="stroke:#181818;stroke-width:1.0;" x1="1108" x2="1108" y1="745.6973" y2="758.6973"/><line style="stroke:#181818;stroke-width:1.0;" x1="1067" x2="1108" y1="758.6973" y2="758.6973"/><polygon fill="#181818" points="1077,754.6973,1067,758.6973,1077,762.6973,1073,758.6973" style="stroke:#181818;stroke-width:1.0;"/><text fill="#000000" font-family="sans-serif" font-size="13" font-weight="bold" lengthAdjust="spacing" textLength="18" x="1073" y="740.9551">17</text><text fill="#000000" font-family="sans-serif" font-size="13" lengthAdjust="spacing" textLength="251" x="1095" y="740.9551">validateAnnouncement(Announcement))</text><line style="stroke:#181818;stroke-width:1.0;" x1="1066" x2="1108" y1="793.0078" y2="793.0078"/><line style="stroke:#181818;stroke-width:1.0;" x1="1108" x2="1108" y1="793.0078" y2="806.0078"/><line style="stroke:#181818;stroke-width:1.0;" x1="1067" x2="1108" y1="806.0078" y2="806.0078"/><polygon fill="#181818" points="1077,802.0078,1067,806.0078,1077,810.0078,1073,806.0078" style="stroke:#181818;stroke-width:1.0;"/><text fill="#000000" font-family="sans-serif" font-size="13" font-weight="bold" lengthAdjust="spacing" textLength="18" x="1073" y="788.2656">18</text><text fill="#000000" font-family="sans-serif" font-size="13" lengthAdjust="spacing" textLength="225" x="1095" y="788.2656">addAnnouncement (Announcement)</text><line style="stroke:#181818;stroke-width:1.0;stroke-dasharray:2.0,2.0;" x1="1066" x2="1108" y1="840.3184" y2="840.3184"/><line style="stroke:#181818;stroke-width:1.0;stroke-dasharray:2.0,2.0;" x1="1108" x2="1108" y1="840.3184" y2="853.3184"/><line style="stroke:#181818;stroke-width:1.0;stroke-dasharray:2.0,2.0;" x1="1061" x2="1108" y1="853.3184" y2="853.3184"/><polygon fill="#181818" points="1071,849.3184,1061,853.3184,1071,857.3184,1067,853.3184" style="stroke:#181818;stroke-width:1.0;"/><text fill="#000000" font-family="sans-serif" font-size="13" font-weight="bold" lengthAdjust="spacing" textLength="18" x="1073" y="835.5762">19</text><text fill="#000000" font-family="sans-serif" font-size="13" lengthAdjust="spacing" textLength="4" x="1095" y="835.5762">&#160;</text><line style="stroke:#181818;stroke-width:1.0;stroke-dasharray:2.0,2.0;" x1="1061" x2="1103" y1="882.6289" y2="882.6289"/><line style="stroke:#181818;stroke-width:1.0;stroke-dasharray:2.0,2.0;" x1="1103" x2="1103" y1="882.6289" y2="895.6289"/><line style="stroke:#181818;stroke-width:1.0;stroke-dasharray:2.0,2.0;" x1="1056" x2="1103" y1="895.6289" y2="895.6289"/><polygon fill="#181818" points="1066,891.6289,1056,895.6289,1066,899.6289,1062,895.6289" style="stroke:#181818;stroke-width:1.0;"/><text fill="#000000" font-family="sans-serif" font-size="13" font-weight="bold" lengthAdjust="spacing" textLength="18" x="1068" y="877.8867">20</text><text fill="#000000" font-family="sans-serif" font-size="13" lengthAdjust="spacing" textLength="4" x="1090" y="877.8867">&#160;</text><polygon fill="#181818" points="676.5,915.9395,666.5,919.9395,676.5,923.9395,672.5,919.9395" style="stroke:#181818;stroke-width:1.0;"/><line style="stroke:#181818;stroke-width:1.0;stroke-dasharray:2.0,2.0;" x1="670.5" x2="1050" y1="919.9395" y2="919.9395"/><text fill="#000000" font-family="sans-serif" font-size="13" font-weight="bold" lengthAdjust="spacing" textLength="18" x="682.5" y="915.1973">21</text><text fill="#000000" font-family="sans-serif" font-size="13" lengthAdjust="spacing" textLength="95" x="704.5" y="915.1973">Announcement</text><polygon fill="#181818" points="405.5,945.25,395.5,949.25,405.5,953.25,401.5,949.25" style="stroke:#181818;stroke-width:1.0;"/><line style="stroke:#181818;stroke-width:1.0;stroke-dasharray:2.0,2.0;" x1="399.5" x2="659.5" y1="949.25" y2="949.25"/><text fill="#000000" font-family="sans-serif" font-size="13" font-weight="bold" lengthAdjust="spacing" textLength="18" x="411.5" y="944.5078">22</text><text fill="#000000" font-family="sans-serif" font-size="13" lengthAdjust="spacing" textLength="95" x="433.5" y="944.5078">Announcement</text><polygon fill="#181818" points="39.5,974.5605,29.5,978.5605,39.5,982.5605,35.5,978.5605" style="stroke:#181818;stroke-width:1.0;"/><line style="stroke:#181818;stroke-width:1.0;stroke-dasharray:2.0,2.0;" x1="33.5" x2="388.5" y1="978.5605" y2="978.5605"/><text fill="#000000" font-family="sans-serif" font-size="13" font-weight="bold" lengthAdjust="spacing" textLength="18" x="45.5" y="973.8184">23</text><text fill="#000000" font-family="sans-serif" font-size="13" lengthAdjust="spacing" textLength="170" x="67.5" y="973.8184">displays operation success</text><!--SRC=[xLPDSzem4BthL-paKc129gLfslgGASq7qvHCcGJIIox2Na0JMt8bcPJ- -guD6DlOGDFfpGm7sxlxtkwJj5hpB6J8DGyWK5AvCwq21AiZP2QrXDnzvbDyi0iVGQDhkPpwMGSpuvvw4N8A4-uRP8n7Liae6ADcxCrCU0WJfUnO_MBSjKh3KNUAqXu1Dz3jCGAnmXKXbnQEd44qzeMPTQLKaNGn8CVHryHrz7M_wwMILYlVHvs4N0xl-_aWYIymq2f4RHTFqba_9jxhbm9D5lyUGsK4rR2Co9ck1zjKMGUYoxvk0J0MooFct68i2uFLhzk3zWLL3mv5F1km2i9bvS0b_JC8wv0KXpHBFn92cu08pg5b_1cXiU1noqkP3Fgqqc1d2E5A5h2B4ClXGes6-4tY7sF6IOxnIS94q69u82IC5uar1W4rWL3ffTXbx48QiYN-gqm98y5j6F4RZy5NBhT2oMFmXA4DwI8yoGdjtYJ65PIjImcXFgRSX4iHhWe2OGp5DCjhc7DVUB5crPf4uq1GaKk7r2E3TP7ik5QBd5sD1BR3A_N9xe56iJwICAqmNnzPgajiRX5dDaLoAhRji4oBqbiVX5s5v13JarFYjBPbWJTghxyqrWzDjWyapjBPIUdXTcQigjZ26MwrIjSb-qBgLYfHx0WvpuAnoBwXpjFbGKgfgdcA91lfg-ix78sgSE1GeCoo5FhUeMgMhFKUJPC4zrVStBcz3qZZe3ouv-N4t2LMDV0sScbWXTfRc_9VUFw6emn_rGUhT_9h2iaVyAHv5oXsHMNOaZwvopUzFfouIOS-NnY8sqtIkkcwS5qqPj_YPA_eif9xkVFn6QKN1JxBZ5__QtAhPxLwLgjdjNfMgsUrUbQhPxLwLgjdjTVEQWEVXepHNH_cgEEM3szFEgUTToUTnaCauGR7q3c7qqzEvxrpzW5-N0yXDZTPepVeWr6HfWiblbcq64SskHLl-Pp3VIIj2D21xo7AswjlwmzmBUT2AvdeT_jujt4uFsj_4HOUK5Ccy7Z7hd328zzIXAiycWCT60rlsXzPdoR5Y4P76XSikwJLi9ekWi7m3m00]--></g></svg>