<?xml version="1.0" encoding="us-ascii" standalone="no"?><svg xmlns="http://www.w3.org/2000/svg" xmlns:xlink="http://www.w3.org/1999/xlink" contentStyleType="text/css" height="437px" preserveAspectRatio="none" style="width:514px;height:437px;background:#FFFFFF;" version="1.1" viewBox="0 0 514 437" width="514px" zoomAndPan="magnify"><defs/><g><line style="stroke:#181818;stroke-width:0.5;stroke-dasharray:5.0,5.0;" x1="26" x2="26" y1="83.6211" y2="353.9492"/><line style="stroke:#181818;stroke-width:0.5;stroke-dasharray:5.0,5.0;" x1="478" x2="478" y1="83.6211" y2="353.9492"/><text fill="#000000" font-family="sans-serif" font-size="14" lengthAdjust="spacing" textLength="36" x="5" y="80.1074">Client</text><ellipse cx="26" cy="13.5" fill="#E2E2F0" rx="8" ry="8" style="stroke:#181818;stroke-width:0.5;"/><path d="M26,21.5 L26,48.5 M13,29.5 L39,29.5 M26,48.5 L13,63.5 M26,48.5 L39,63.5 " fill="none" style="stroke:#181818;stroke-width:0.5;"/><text fill="#000000" font-family="sans-serif" font-size="14" lengthAdjust="spacing" textLength="36" x="5" y="368.0566">Client</text><ellipse cx="26" cy="380.0703" fill="#E2E2F0" rx="8" ry="8" style="stroke:#181818;stroke-width:0.5;"/><path d="M26,388.0703 L26,415.0703 M13,396.0703 L39,396.0703 M26,415.0703 L13,430.0703 M26,415.0703 L39,430.0703 " fill="none" style="stroke:#181818;stroke-width:0.5;"/><rect fill="#E2E2F0" height="32.6211" rx="2.5" ry="2.5" style="stroke:#181818;stroke-width:0.5;" width="60" x="448" y="50"/><text fill="#000000" font-family="sans-serif" font-size="14" lengthAdjust="spacing" textLength="46" x="455" y="72.1074">System</text><rect fill="#E2E2F0" height="32.6211" rx="2.5" ry="2.5" style="stroke:#181818;stroke-width:0.5;" width="60" x="448" y="352.9492"/><text fill="#000000" font-family="sans-serif" font-size="14" lengthAdjust="spacing" textLength="46" x="455" y="375.0566">System</text><polygon fill="#181818" points="466,112.9121,476,116.9121,466,120.9121,470,116.9121" style="stroke:#181818;stroke-width:1.0;"/><line style="stroke:#181818;stroke-width:1.0;" x1="26" x2="472" y1="116.9121" y2="116.9121"/><text fill="#000000" font-family="sans-serif" font-size="13" font-weight="bold" lengthAdjust="spacing" textLength="7" x="33" y="111.6494">1</text><text fill="#000000" font-family="sans-serif" font-size="13" lengthAdjust="spacing" textLength="274" x="44" y="111.6494">starts placing an order to purchase the property</text><polygon fill="#181818" points="37,144.2031,27,148.2031,37,152.2031,33,148.2031" style="stroke:#181818;stroke-width:1.0;"/><line style="stroke:#181818;stroke-width:1.0;" x1="31" x2="477" y1="148.2031" y2="148.2031"/><text fill="#000000" font-family="sans-serif" font-size="13" font-weight="bold" lengthAdjust="spacing" textLength="7" x="43" y="142.9404">2</text><text fill="#000000" font-family="sans-serif" font-size="13" lengthAdjust="spacing" textLength="318" x="54" y="142.9404">shows property list and requests the user to select one</text><polygon fill="#181818" points="466,175.4941,476,179.4941,466,183.4941,470,179.4941" style="stroke:#181818;stroke-width:1.0;"/><line style="stroke:#181818;stroke-width:1.0;" x1="26" x2="472" y1="179.4941" y2="179.4941"/><text fill="#000000" font-family="sans-serif" font-size="13" font-weight="bold" lengthAdjust="spacing" textLength="7" x="33" y="174.2314">3</text><text fill="#000000" font-family="sans-serif" font-size="13" lengthAdjust="spacing" textLength="93" x="44" y="174.2314">selects property</text><polygon fill="#181818" points="37,206.7852,27,210.7852,37,214.7852,33,210.7852" style="stroke:#181818;stroke-width:1.0;"/><line style="stroke:#181818;stroke-width:1.0;" x1="31" x2="477" y1="210.7852" y2="210.7852"/><text fill="#000000" font-family="sans-serif" font-size="13" font-weight="bold" lengthAdjust="spacing" textLength="7" x="43" y="205.5225">4</text><text fill="#000000" font-family="sans-serif" font-size="13" lengthAdjust="spacing" textLength="130" x="54" y="205.5225">requests order amount</text><polygon fill="#181818" points="466,238.0762,476,242.0762,466,246.0762,470,242.0762" style="stroke:#181818;stroke-width:1.0;"/><line style="stroke:#181818;stroke-width:1.0;" x1="26" x2="472" y1="242.0762" y2="242.0762"/><text fill="#000000" font-family="sans-serif" font-size="13" font-weight="bold" lengthAdjust="spacing" textLength="7" x="33" y="236.8135">5</text><text fill="#000000" font-family="sans-serif" font-size="13" lengthAdjust="spacing" textLength="112" x="44" y="236.8135">types order amount</text><polygon fill="#181818" points="37,269.3672,27,273.3672,37,277.3672,33,273.3672" style="stroke:#181818;stroke-width:1.0;"/><line style="stroke:#181818;stroke-width:1.0;" x1="31" x2="477" y1="273.3672" y2="273.3672"/><text fill="#000000" font-family="sans-serif" font-size="13" font-weight="bold" lengthAdjust="spacing" textLength="7" x="43" y="268.1045">6</text><text fill="#000000" font-family="sans-serif" font-size="13" lengthAdjust="spacing" textLength="417" x="54" y="268.1045">shows selected property and the order amount and asks for confirmation</text><polygon fill="#181818" points="466,300.6582,476,304.6582,466,308.6582,470,304.6582" style="stroke:#181818;stroke-width:1.0;"/><line style="stroke:#181818;stroke-width:1.0;" x1="26" x2="472" y1="304.6582" y2="304.6582"/><text fill="#000000" font-family="sans-serif" font-size="13" font-weight="bold" lengthAdjust="spacing" textLength="7" x="33" y="299.3955">7</text><text fill="#000000" font-family="sans-serif" font-size="13" lengthAdjust="spacing" textLength="100" x="44" y="299.3955">confirms the data</text><polygon fill="#181818" points="37,331.9492,27,335.9492,37,339.9492,33,335.9492" style="stroke:#181818;stroke-width:1.0;"/><line style="stroke:#181818;stroke-width:1.0;" x1="31" x2="477" y1="335.9492" y2="335.9492"/><text fill="#000000" font-family="sans-serif" font-size="13" font-weight="bold" lengthAdjust="spacing" textLength="7" x="43" y="330.6865">8</text><text fill="#000000" font-family="sans-serif" font-size="13" lengthAdjust="spacing" textLength="145" x="54" y="330.6865">informs operation sucess</text><!--SRC=[TP5BKiGm34JtFeKkm0LOi9aZS0ADeo4g4ij8SatbziWnDPy0EvTRtVraOtPHE2rCnG4DydvA5TKvSyMuVT_CQUrYuvImkPIsdabJ6iFmyXRAAvY7oQ0kcBby01OGdKZ11MhJFACH-4nGLIgfRoarxjwH4lvPhdPJOM4BeZA1qbSZY-HkRZOIZHRA3bBe5yQksByrjxX1XwkqMFWGubkbuyHVjAECfZjs9-wWZzxz4ktJu1AFdQLSM5TqbdBi_T76hXCw7ckvH4JelMrF06kPp9u_vXi0]--></g></svg>