<?xml version="1.0" encoding="us-ascii" standalone="no"?><svg xmlns="http://www.w3.org/2000/svg" xmlns:xlink="http://www.w3.org/1999/xlink" contentStyleType="text/css" height="1392px" preserveAspectRatio="none" style="width:657px;height:1392px;background:#FFFFFF;" version="1.1" viewBox="0 0 657 1392" width="657.5px" zoomAndPan="magnify"><defs/><g><!--entity Admin--><g id="elem_Admin"><ellipse cx="36.25" cy="1275.5" fill="#F1F1F1" rx="4" ry="4" style="stroke:#181818;stroke-width:0.25;"/><path d="M36.25,1279.5 L36.25,1293 M29.75,1283.5 L42.75,1283.5 M36.25,1293 L29.75,1300.5 M36.25,1293 L42.75,1300.5 " fill="none" style="stroke:#181818;stroke-width:0.25;"/><text fill="#000000" font-family="sans-serif" font-size="7" lengthAdjust="spacing" textLength="66.5" x="3" y="1308.8037">System Administrator</text></g><!--entity UnregUser--><g id="elem_UnregUser"><ellipse cx="36.25" cy="1130.5" fill="#F1F1F1" rx="4" ry="4" style="stroke:#181818;stroke-width:0.25;"/><path d="M36.25,1134.5 L36.25,1148 M29.75,1138.5 L42.75,1138.5 M36.25,1148 L29.75,1155.5 M36.25,1148 L42.75,1155.5 " fill="none" style="stroke:#181818;stroke-width:0.25;"/><text fill="#000000" font-family="sans-serif" font-size="7" lengthAdjust="spacing" textLength="57" x="7.75" y="1163.8037">Unregistered User</text></g><!--entity Agent--><g id="elem_Agent"><ellipse cx="36.25" cy="850.5" fill="#F1F1F1" rx="4" ry="4" style="stroke:#181818;stroke-width:0.25;"/><path d="M36.25,854.5 L36.25,868 M29.75,858.5 L42.75,858.5 M36.25,868 L29.75,875.5 M36.25,868 L42.75,875.5 " fill="none" style="stroke:#181818;stroke-width:0.25;"/><text fill="#000000" font-family="sans-serif" font-size="7" lengthAdjust="spacing" textLength="18.5" x="27" y="883.8037">Agent</text></g><!--entity Owner--><g id="elem_Owner"><ellipse cx="36.25" cy="575.5" fill="#F1F1F1" rx="4" ry="4" style="stroke:#181818;stroke-width:0.25;"/><path d="M36.25,579.5 L36.25,593 M29.75,583.5 L42.75,583.5 M36.25,593 L29.75,600.5 M36.25,593 L42.75,600.5 " fill="none" style="stroke:#181818;stroke-width:0.25;"/><text fill="#000000" font-family="sans-serif" font-size="7" lengthAdjust="spacing" textLength="20.5" x="26" y="608.8037">Owner</text></g><g id="elem_US001: display listed properties"><ellipse cx="377.1572" cy="1120.0314" fill="#F1F1F1" rx="59.1572" ry="13.0314" style="stroke:#181818;stroke-width:0.25;"/><text fill="#000000" font-family="sans-serif" font-size="7" lengthAdjust="spacing" textLength="99.5" x="327.4072" y="1121.9299">US001: display listed properties</text></g><g id="elem_US002: publish any sale announcement on the system"><ellipse cx="377.2598" cy="659.052" fill="#F1F1F1" rx="93.0098" ry="19.802" style="stroke:#181818;stroke-width:0.25;"/><text fill="#000000" font-family="sans-serif" font-size="7" lengthAdjust="spacing" textLength="171" x="291.7598" y="660.9504">US002: publish any sale announcement on the system</text></g><g id="elem_US003: register a new employee"><ellipse cx="377.303" cy="1224.0106" fill="#F1F1F1" rx="60.303" ry="13.2606" style="stroke:#181818;stroke-width:0.25;"/><text fill="#000000" font-family="sans-serif" font-size="7" lengthAdjust="spacing" textLength="102" x="326.303" y="1225.909">US003: register a new employee</text></g><g id="elem_US004: submit a request for listing a property sale or rent, choosing the responsible agent"><ellipse cx="377.3595" cy="591.0719" fill="#F1F1F1" rx="148.1095" ry="30.8219" style="stroke:#181818;stroke-width:0.25;"/><text fill="#000000" font-family="sans-serif" font-size="7" lengthAdjust="spacing" textLength="283.5" x="235.6095" y="592.9703">US004: submit a request for listing a property sale or rent, choosing the responsible agent</text></g><g id="elem_US005: register a store"><ellipse cx="377.1777" cy="1265.4355" fill="#F1F1F1" rx="47.4277" ry="10.6855" style="stroke:#181818;stroke-width:0.25;"/><text fill="#000000" font-family="sans-serif" font-size="7" lengthAdjust="spacing" textLength="73" x="339.3047" y="1267.8">US005: register a store</text></g><g id="elem_US006: specify districts, municipalities, and parishes in the system"><ellipse cx="377.2582" cy="1317.1016" fill="#F1F1F1" rx="110.7582" ry="23.3516" style="stroke:#181818;stroke-width:0.25;"/><text fill="#000000" font-family="sans-serif" font-size="7" lengthAdjust="spacing" textLength="207.5" x="273.5082" y="1319.0001">US006: specify districts, municipalities, and parishes in the system</text></g><g id="elem_US007: register in the system to buy, sell or rent properties"><ellipse cx="377.2886" cy="1171.9577" fill="#F1F1F1" rx="100.0386" ry="21.2077" style="stroke:#181818;stroke-width:0.25;"/><text fill="#000000" font-family="sans-serif" font-size="7" lengthAdjust="spacing" textLength="185.5" x="284.5386" y="1173.8562">US007: register in the system to buy, sell or rent properties</text></g><g id="elem_US008: see the list of property announcement request made to myself"><ellipse cx="377.3724" cy="721.0745" fill="#F1F1F1" rx="116.8724" ry="24.5745" style="stroke:#181818;stroke-width:0.25;"/><text fill="#000000" font-family="sans-serif" font-size="7" lengthAdjust="spacing" textLength="220" x="267.3724" y="722.9729">US008: see the list of property announcement request made to myself</text></g><!--entity Client--><g id="elem_Client"><ellipse cx="36.25" cy="393.5" fill="#F1F1F1" rx="4" ry="4" style="stroke:#181818;stroke-width:0.25;"/><path d="M36.25,397.5 L36.25,411 M29.75,401.5 L42.75,401.5 M36.25,411 L29.75,418.5 M36.25,411 L42.75,418.5 " fill="none" style="stroke:#181818;stroke-width:0.25;"/><text fill="#000000" font-family="sans-serif" font-size="7" lengthAdjust="spacing" textLength="18" x="27.25" y="426.8037">Client</text></g><g id="elem_US009: leave a message to the agent to schedule a visit to a  property of my interest"><ellipse cx="377.2275" cy="299.0955" fill="#F1F1F1" rx="139.4775" ry="29.0955" style="stroke:#181818;stroke-width:0.25;"/><text fill="#000000" font-family="sans-serif" font-size="7" lengthAdjust="spacing" textLength="266" x="244.2275" y="300.9939">US009: leave a message to the agent to schedule a visit to a  property of my interest</text></g><g id="elem_US010: I place an order to purchase the property, submitting the order amount."><ellipse cx="377.3573" cy="372.9215" fill="#F1F1F1" rx="131.1073" ry="27.4215" style="stroke:#181818;stroke-width:0.25;"/><text fill="#000000" font-family="sans-serif" font-size="7" lengthAdjust="spacing" textLength="249" x="252.8573" y="374.8199">US010: I place an order to purchase the property, submitting the order amount.</text></g><g id="elem_US011: list real estate purchase orders to accept or decline a purchase order for a property. After accepting or declining, an email notification should be sent to the customer"><ellipse cx="377.2324" cy="819.9965" fill="#F1F1F1" rx="277.7324" ry="56.7465" style="stroke:#181818;stroke-width:0.25;"/><text fill="#000000" font-family="sans-serif" font-size="7" lengthAdjust="spacing" textLength="544.5" x="104.9824" y="821.8949">US011: list real estate purchase orders to accept or decline a purchase order for a property. After accepting or declining, an email notification should be sent to the customer</text></g><g id="elem_US012: Import data from a legacy system"><ellipse cx="377.1506" cy="1373.5301" fill="#F1F1F1" rx="72.9006" ry="15.7801" style="stroke:#181818;stroke-width:0.25;"/><text fill="#000000" font-family="sans-serif" font-size="7" lengthAdjust="spacing" textLength="129" x="312.6506" y="1375.4285">US012: Import data from a legacy system</text></g><!--entity NetworkManager--><g id="elem_NetworkManager"><ellipse cx="36.25" cy="109" fill="#F1F1F1" rx="4" ry="4" style="stroke:#181818;stroke-width:0.25;"/><path d="M36.25,113 L36.25,126.5 M29.75,117 L42.75,117 M36.25,126.5 L29.75,134 M36.25,126.5 L42.75,134 " fill="none" style="stroke:#181818;stroke-width:0.25;"/><text fill="#000000" font-family="sans-serif" font-size="7" lengthAdjust="spacing" textLength="53" x="9.75" y="142.3037">NetworkManager</text></g><g id="elem_US013: list all employees working in every store of the network"><ellipse cx="377.1474" cy="73.4795" fill="#F1F1F1" rx="105.1474" ry="22.2295" style="stroke:#181818;stroke-width:0.25;"/><text fill="#000000" font-family="sans-serif" font-size="7" lengthAdjust="spacing" textLength="196" x="279.1474" y="75.3779">US013: list all employees working in every store of the network</text></g><g id="elem_US014: read the response for the appointment requests, to accept or reject it"><ellipse cx="377.1614" cy="445.0323" fill="#F1F1F1" rx="127.9114" ry="26.7823" style="stroke:#181818;stroke-width:0.25;"/><text fill="#000000" font-family="sans-serif" font-size="7" lengthAdjust="spacing" textLength="242.5" x="255.9114" y="446.9307">US014: read the response for the appointment requests, to accept or reject it</text></g><g id="elem_US015: list all booking requests for properties"><ellipse cx="377.2902" cy="911.408" fill="#F1F1F1" rx="79.7902" ry="17.158" style="stroke:#181818;stroke-width:0.25;"/><text fill="#000000" font-family="sans-serif" font-size="7" lengthAdjust="spacing" textLength="143.5" x="305.5402" y="913.3065">US015: list all booking requests for properties</text></g><g id="elem_US016: when viewing a booking request, I want to respond to the user that scheduled the visit"><ellipse cx="377.2952" cy="978.109" fill="#F1F1F1" rx="153.2952" ry="31.859" style="stroke:#181818;stroke-width:0.25;"/><text fill="#000000" font-family="sans-serif" font-size="7" lengthAdjust="spacing" textLength="294" x="230.2952" y="980.0075">US016: when viewing a booking request, I want to respond to the user that scheduled the visit</text></g><g id="elem_US017: list all deals made"><ellipse cx="377.3404" cy="124.6181" fill="#F1F1F1" rx="50.8404" ry="11.3681" style="stroke:#181818;stroke-width:0.25;"/><text fill="#000000" font-family="sans-serif" font-size="7" lengthAdjust="spacing" textLength="81" x="336.5302" y="126.6325">US017: list all deals made</text></g><!--entity StoreManager--><g id="elem_StoreManager"><ellipse cx="36.25" cy="7" fill="#F1F1F1" rx="4" ry="4" style="stroke:#181818;stroke-width:0.25;"/><path d="M36.25,11 L36.25,24.5 M29.75,15 L42.75,15 M36.25,24.5 L29.75,32 M36.25,24.5 L42.75,32 " fill="none" style="stroke:#181818;stroke-width:0.25;"/><text fill="#000000" font-family="sans-serif" font-size="7" lengthAdjust="spacing" textLength="45" x="13.75" y="40.3037">StoreManager</text></g><g id="elem_US018: analyse the deals"><ellipse cx="377.372" cy="22.5744" fill="#F1F1F1" rx="50.622" ry="11.3244" style="stroke:#181818;stroke-width:0.25;"/><text fill="#000000" font-family="sans-serif" font-size="7" lengthAdjust="spacing" textLength="80.5" x="336.7497" y="24.6112">US018: analyse the deals</text></g><g id="elem_US019: divide the set of all stores into two subsets, so that the total number of properties of the stores between the two subsets is the closest possible"><ellipse cx="377.1331" cy="202.9266" fill="#F1F1F1" rx="241.1331" ry="49.4266" style="stroke:#181818;stroke-width:0.25;"/><text fill="#000000" font-family="sans-serif" font-size="7" lengthAdjust="spacing" textLength="471" x="141.6331" y="204.8251">US019: divide the set of all stores into two subsets, so that the total number of properties of the stores between the two subsets is the closest possible</text></g><g id="elem_US020: read the response for the appointment request, to accept or reject it"><ellipse cx="377.1918" cy="515.9384" fill="#F1F1F1" rx="126.1918" ry="26.4384" style="stroke:#181818;stroke-width:0.25;"/><text fill="#000000" font-family="sans-serif" font-size="7" lengthAdjust="spacing" textLength="239" x="257.6918" y="517.8368">US020: read the response for the appointment request, to accept or reject it</text></g><g id="elem_US021: at the end of the visit, I want to register the visit and the opinion about the business"><ellipse cx="377.3438" cy="1058.5688" fill="#F1F1F1" rx="149.3438" ry="31.0688" style="stroke:#181818;stroke-width:0.25;"/><text fill="#000000" font-family="sans-serif" font-size="7" lengthAdjust="spacing" textLength="286" x="234.3438" y="1060.4672">US021: at the end of the visit, I want to register the visit and the opinion about the business</text></g><!--link UnregUser to US001: display listed properties--><g id="link_UnregUser_US001: display listed properties"><path d="M64.865,1143.85 C120.29,1139.61 244.68,1130.1 318.53,1124.45 " fill="none" id="UnregUser-to-US001: display listed properties" style="stroke:#181818;stroke-width:0.5;"/><polygon fill="#181818" points="321.135,1124.255,316.4989,1122.5948,318.6419,1124.4407,316.796,1126.5838,321.135,1124.255" style="stroke:#181818;stroke-width:0.5;"/></g><!--link Agent to US002: publish any sale announcement on the system--><g id="link_Agent_US002: publish any sale announcement on the system"><path d="M37.25,846.23 C39.375,808.66 49.79,727.225 99.5,688 C156.085,643.35 240.67,640.84 301.525,646.545 " fill="none" id="Agent-to-US002: publish any sale announcement on the system" style="stroke:#181818;stroke-width:0.5;"/><polygon fill="#181818" points="304.04,646.785,299.7483,644.3703,301.5511,646.5497,299.3717,648.3525,304.04,646.785" style="stroke:#181818;stroke-width:0.5;"/></g><!--link Admin to US003: register a new employee--><g id="link_Admin_US003: register a new employee"><path d="M58.13,1271.19 C69.535,1261.845 84.33,1251.55 99.5,1246 C171.16,1219.79 259.995,1217.555 317.495,1219.685 " fill="none" id="Admin-to-US003: register a new employee" style="stroke:#181818;stroke-width:0.5;"/><polygon fill="#181818" points="320.04,1219.78,315.6235,1217.6017,317.542,1219.6801,315.4637,1221.5985,320.04,1219.78" style="stroke:#181818;stroke-width:0.5;"/></g><!--link Owner to US004: submit a request for listing a property sale or rent, choosing the responsible agent--><g id="link_Owner_US004: submit a request for listing a property sale or rent, choosing the responsible agent"><path d="M46.56,591 C73.7,591 152.695,591 226.605,591 " fill="none" id="Owner-to-US004: submit a request for listing a property sale or rent, choosing the responsible agent" style="stroke:#181818;stroke-width:0.5;"/><polygon fill="#181818" points="229.235,591,224.735,589,226.735,591,224.735,593,229.235,591" style="stroke:#181818;stroke-width:0.5;"/></g><!--link Admin to US005: register a store--><g id="link_Admin_US005: register a store"><path d="M69.63,1287.7 C79.25,1286.775 89.795,1285.805 99.5,1285 C179.855,1278.335 273.43,1272.06 328.735,1268.51 " fill="none" id="Admin-to-US005: register a store" style="stroke:#181818;stroke-width:0.5;"/><polygon fill="#181818" points="331.34,1268.345,326.7231,1266.6321,328.845,1268.5023,326.9747,1270.6241,331.34,1268.345" style="stroke:#181818;stroke-width:0.5;"/></g><!--link Admin to US006: specify districts, municipalities, and parishes in the system--><g id="link_Admin_US006: specify districts, municipalities, and parishes in the system"><path d="M69.505,1293.505 C115.43,1297.015 201.105,1303.57 270.335,1308.86 " fill="none" id="Admin-to-US006: specify districts, municipalities, and parishes in the system" style="stroke:#181818;stroke-width:0.5;"/><polygon fill="#181818" points="273,1309.065,268.661,1306.7362,270.5069,1308.8793,268.3639,1310.7252,273,1309.065" style="stroke:#181818;stroke-width:0.5;"/></g><!--link UnregUser to US007: register in the system to buy, sell or rent properties--><g id="link_UnregUser_US007: register in the system to buy, sell or rent properties"><path d="M64.865,1148.15 C111.56,1151.72 207.22,1159.035 280.355,1164.63 " fill="none" id="UnregUser-to-US007: register in the system to buy, sell or rent properties" style="stroke:#181818;stroke-width:0.5;"/><polygon fill="#181818" points="282.945,1164.825,278.6127,1162.4839,280.4524,1164.6322,278.3041,1166.4719,282.945,1164.825" style="stroke:#181818;stroke-width:0.5;"/></g><!--link Agent to US008: see the list of property announcement request made to myself--><g id="link_Agent_US008: see the list of property announcement request made to myself"><path d="M41.915,846.065 C49.725,820.275 67.185,776.1 99.5,754.5 C147.91,722.145 211.91,712.77 266.225,711.94 " fill="none" id="Agent-to-US008: see the list of property announcement request made to myself" style="stroke:#181818;stroke-width:0.5;"/><polygon fill="#181818" points="268.805,711.91,264.2824,709.9616,266.3052,711.9386,264.3281,713.9613,268.805,711.91" style="stroke:#181818;stroke-width:0.5;"/></g><!--link Client to US009: leave a message to the agent to schedule a visit to a  property of my interest--><g id="link_Client_US009: leave a message to the agent to schedule a visit to a  property of my interest"><path d="M45.3,393.865 C55.74,376.945 75.06,350.195 99.5,337 C140.46,314.885 189.6,304 235.055,299.04 " fill="none" id="Client-to-US009: leave a message to the agent to schedule a visit to a  property of my interest" style="stroke:#181818;stroke-width:0.5;"/><polygon fill="#181818" points="237.625,298.765,232.9388,297.252,235.139,299.0293,233.3617,301.2296,237.625,298.765" style="stroke:#181818;stroke-width:0.5;"/></g><!--link Client to US010: I place an order to purchase the property, submitting the order amount.--><g id="link_Client_US010: I place an order to purchase the property, submitting the order amount."><path d="M45.325,408.09 C74.825,404.97 174.87,394.375 257.395,385.64 " fill="none" id="Client-to-US010: I place an order to purchase the property, submitting the order amount." style="stroke:#181818;stroke-width:0.5;"/><polygon fill="#181818" points="260.075,385.355,255.3888,383.842,257.589,385.6193,255.8117,387.8196,260.075,385.355" style="stroke:#181818;stroke-width:0.5;"/></g><!--link Agent to US011: list real estate purchase orders to accept or decline a purchase order for a property. After accepting or declining, an email notification should be sent to the customer--><g id="link_Agent_US011: list real estate purchase orders to accept or decline a purchase order for a property. After accepting or declining, an email notification should be sent to the customer"><path d="M45.67,864.795 C62.02,862.58 99.16,857.555 142.895,851.64 " fill="none" id="Agent-to-US011: list real estate purchase orders to accept or decline a purchase order for a property. After accepting or declining, an email notification should be sent to the customer" style="stroke:#181818;stroke-width:0.5;"/><polygon fill="#181818" points="145.385,851.305,140.6573,849.9271,142.9076,851.6406,141.1942,853.8909,145.385,851.305" style="stroke:#181818;stroke-width:0.5;"/></g><!--link Admin to US012: Import data from a legacy system--><g id="link_Admin_US012: Import data from a legacy system"><path d="M52.03,1310.75 C63.525,1324.03 80.51,1340.585 99.5,1349 C165.505,1378.245 248.9,1381.7 306.905,1379.505 " fill="none" id="Admin-to-US012: Import data from a legacy system" style="stroke:#181818;stroke-width:0.5;"/><polygon fill="#181818" points="309.475,1379.405,304.8987,1377.5865,306.977,1379.5049,305.0585,1381.5833,309.475,1379.405" style="stroke:#181818;stroke-width:0.5;"/></g><!--link NetworkManager to US013: list all employees working in every store of the network--><g id="link_NetworkManager_US013: list all employees working in every store of the network"><path d="M62.85,114.91 C74.005,111.145 87.255,107.11 99.5,104.5 C156.565,92.34 221.315,84.76 273.88,80.14 " fill="none" id="NetworkManager-to-US013: list all employees working in every store of the network" style="stroke:#181818;stroke-width:0.5;"/><polygon fill="#181818" points="276.375,79.925,271.7202,78.3177,273.8842,80.1391,272.0628,82.303,276.375,79.925" style="stroke:#181818;stroke-width:0.5;"/></g><!--link Client to US014: read the response for the appointment requests, to accept or reject it--><g id="link_Client_US014: read the response for the appointment requests, to accept or reject it"><path d="M45.325,409.91 C75.16,413.065 177.125,423.865 260.17,432.655 " fill="none" id="Client-to-US014: read the response for the appointment requests, to accept or reject it" style="stroke:#181818;stroke-width:0.5;"/><polygon fill="#181818" points="262.865,432.94,258.5947,430.4876,260.3783,432.6828,258.1831,434.4663,262.865,432.94" style="stroke:#181818;stroke-width:0.5;"/></g><!--link Agent to US015: list all booking requests for properties--><g id="link_Agent_US015: list all booking requests for properties"><path d="M45.535,869.37 C57.535,873.82 79.81,881.56 99.5,885.5 C164.89,898.58 240.305,905.11 295.955,908.355 " fill="none" id="Agent-to-US015: list all booking requests for properties" style="stroke:#181818;stroke-width:0.5;"/><polygon fill="#181818" points="298.59,908.51,294.2118,906.2558,296.0941,908.367,293.9829,910.2493,298.59,908.51" style="stroke:#181818;stroke-width:0.5;"/></g><!--link Agent to US016: when viewing a booking request, I want to respond to the user that scheduled the visit--><g id="link_Agent_US016: when viewing a booking request, I want to respond to the user that scheduled the visit"><path d="M45.535,881.295 C56.06,898.075 75.34,924.37 99.5,937.5 C136.585,957.655 180.385,968.8 222.085,974.725 " fill="none" id="Agent-to-US016: when viewing a booking request, I want to respond to the user that scheduled the visit" style="stroke:#181818;stroke-width:0.5;"/><polygon fill="#181818" points="224.575,975.075,220.3989,972.4654,222.0996,974.7254,219.8396,976.4261,224.575,975.075" style="stroke:#181818;stroke-width:0.5;"/></g><!--link NetworkManager to US017: list all deals made--><g id="link_NetworkManager_US017: list all deals made"><path d="M62.865,124.5 C118.535,124.5 249.815,124.5 323.755,124.5 " fill="none" id="NetworkManager-to-US017: list all deals made" style="stroke:#181818;stroke-width:0.5;"/><polygon fill="#181818" points="326.36,124.5,321.86,122.5,323.86,124.5,321.86,126.5,326.36,124.5" style="stroke:#181818;stroke-width:0.5;"/></g><!--link StoreManager to US018: analyse the deals--><g id="link_StoreManager_US018: analyse the deals"><path d="M58.795,22.5 C111.915,22.5 248.175,22.5 323.94,22.5 " fill="none" id="StoreManager-to-US018: analyse the deals" style="stroke:#181818;stroke-width:0.5;"/><polygon fill="#181818" points="326.61,22.5,322.11,20.5,324.11,22.5,322.11,24.5,326.61,22.5" style="stroke:#181818;stroke-width:0.5;"/></g><!--link NetworkManager to US019: divide the set of all stores into two subsets, so that the total number of properties of the stores between the two subsets is the closest possible--><g id="link_NetworkManager_US019: divide the set of all stores into two subsets, so that the total number of properties of the stores between the two subsets is the closest possible"><path d="M62.835,133.46 C74.045,137.145 87.34,141.29 99.5,144.5 C131.6,152.98 166.045,161.055 199.37,168.345 " fill="none" id="NetworkManager-to-US019: divide the set of all stores into two subsets, so that the total number of properties of the stores between the two subsets is the closest possible" style="stroke:#181818;stroke-width:0.5;"/><polygon fill="#181818" points="201.97,168.915,198.0029,165.9975,199.528,168.3795,197.146,169.9046,201.97,168.915" style="stroke:#181818;stroke-width:0.5;"/></g><!--link Client to US020: read the response for the appointment request, to accept or reject it--><g id="link_Client_US020: read the response for the appointment request, to accept or reject it"><path d="M45.305,424.07 C55.75,440.905 75.075,467.505 99.5,480.5 C144.745,504.57 199.845,514.82 248.965,518.56 " fill="none" id="Client-to-US020: read the response for the appointment request, to accept or reject it" style="stroke:#181818;stroke-width:0.5;"/><polygon fill="#181818" points="251.6,518.755,247.261,516.4262,249.1069,518.5693,246.9639,520.4152,251.6,518.755" style="stroke:#181818;stroke-width:0.5;"/></g><!--link Agent to US021: at the end of the visit, I want to register the visit and the opinion about the business--><g id="link_Agent_US021: at the end of the visit, I want to register the visit and the opinion about the business"><path d="M38.73,885.825 C43.175,919.035 57.155,985.51 99.5,1018.5 C135.835,1046.805 183.23,1059.645 228.53,1064.585 " fill="none" id="Agent-to-US021: at the end of the visit, I want to register the visit and the opinion about the business" style="stroke:#181818;stroke-width:0.5;"/><polygon fill="#181818" points="231.1,1064.855,226.8367,1062.3904,228.614,1064.5907,226.4138,1066.368,231.1,1064.855" style="stroke:#181818;stroke-width:0.5;"/></g><!--SRC=[bLLDRzim3BtxL_2u0ccHz6DRVHXGx5HW7uUYFq2swLYRB7cYdC3_VgHant5T1Dijbfx8nyT79dyPA60BJrMhhQRWLN0-1qNf9CjVhSSzNw372bu9qsKybQyiVzgZ3Uc5_ChodqSxekAlBCk-OHqWEF1wtmIejCSoQ6VvvXG7hg-_m8VNb-rsbpE2EgC6C9AtWiwx3dtGI5TP5fFCwDiSkhvWO0FA3a3A8F-mhhSbje9q5aA3GB5CUIzbpU_lSfZg0mKMZu1jPzo0oDZ8VyRUvq1zqUh0I8z_UgG0jVEHfhPxFXsPZZpuoZE53PIDSoG8OUAHEcT95y9KYbcJUbYG8ku8ha4VcKs7fQu7qIjuNGRQGDjRNUfE6IrwRLWBrazvrWS9z1ijtb7_qrdg1LpwL_J31WYDcKgxs9hFJ10nXX25mDMpFeiMJLgsga99qmwSe-Q0NurUH7pCmQ0wi6xG8X6h9t1948MK3oeRh7gH5WwQT3nJC2Tc4kt0bOcVAQnpxBOvF0ExhnGVSPqL2y4nkjwNZQ9KpXHjC_eXJBrDSDLoRU5cfSYEhHsLyAWCS7eLS0uStrBaMvRO1T6umj9eAyKiOT5sizrkuAcENeaFXSpfBN-82TZLIXkmBkXQbqgc3wXnlQcWu0wFuaa9PSz-Qz6l3BVZKNjkE-TvWbLGK7lNCWU3UrKEiwT-O3Ww__kxijoJsLYxkx5snUwPHen0eCANy-01_P3CBbqIBZR5UgTBzs9JLPqF54PHeXcwpd67pxt5ax0GrkClta6Wmxf93sT42-SYlIbAJ771ypiUocE3bhs7nxGIteJOiBkEAicTY5UJyhqCOcXKE9aurHTzV47PJsU4AtOMnK7Y1o-YvGhEOyb7PXYz75zSYFuew_YWguGcZ7CigMAdPAS8_QEJKU1R5ffSgaBmmGMskktRWcFE2u2rcteyXYauFM9QE6VHG5DofN4aAw9p53VdsXAts_-qn3yxufR7TYm7kLiZxzYLPJV7jNcwZSitheME1v4dJXMkJu6AdlyFU8LTPNy1]--></g></svg>