<?xml version="1.0" encoding="us-ascii" standalone="no"?><svg xmlns="http://www.w3.org/2000/svg" xmlns:xlink="http://www.w3.org/1999/xlink" contentStyleType="text/css" height="405px" preserveAspectRatio="none" style="width:430px;height:405px;background:#FFFFFF;" version="1.1" viewBox="0 0 430 405" width="430px" zoomAndPan="magnify"><defs/><g><rect fill="#FFFFFF" height="220.0371" style="stroke:#181818;stroke-width:1.0;" width="10" x="21" y="93.6211"/><rect fill="#FFFFFF" height="220.0371" style="stroke:#181818;stroke-width:1.0;" width="10" x="384" y="93.6211"/><line style="stroke:#181818;stroke-width:0.5;stroke-dasharray:5.0,5.0;" x1="26" x2="26" y1="83.6211" y2="322.6582"/><line style="stroke:#181818;stroke-width:0.5;stroke-dasharray:5.0,5.0;" x1="389" x2="389" y1="83.6211" y2="322.6582"/><text fill="#000000" font-family="sans-serif" font-size="14" lengthAdjust="spacing" textLength="36" x="5" y="80.1074">Client</text><ellipse cx="26" cy="13.5" fill="#E2E2F0" rx="8" ry="8" style="stroke:#181818;stroke-width:0.5;"/><path d="M26,21.5 L26,48.5 M13,29.5 L39,29.5 M26,48.5 L13,63.5 M26,48.5 L39,63.5 " fill="none" style="stroke:#181818;stroke-width:0.5;"/><text fill="#000000" font-family="sans-serif" font-size="14" lengthAdjust="spacing" textLength="36" x="5" y="336.7656">Client</text><ellipse cx="26" cy="348.7793" fill="#E2E2F0" rx="8" ry="8" style="stroke:#181818;stroke-width:0.5;"/><path d="M26,356.7793 L26,383.7793 M13,364.7793 L39,364.7793 M26,383.7793 L13,398.7793 M26,383.7793 L39,398.7793 " fill="none" style="stroke:#181818;stroke-width:0.5;"/><rect fill="#E2E2F0" height="32.6211" rx="2.5" ry="2.5" style="stroke:#181818;stroke-width:0.5;" width="70" x="354" y="50"/><text fill="#000000" font-family="sans-serif" font-size="14" lengthAdjust="spacing" textLength="56" x="361" y="72.1074">SYSTEM</text><rect fill="#E2E2F0" height="32.6211" rx="2.5" ry="2.5" style="stroke:#181818;stroke-width:0.5;" width="70" x="354" y="321.6582"/><text fill="#000000" font-family="sans-serif" font-size="14" lengthAdjust="spacing" textLength="56" x="361" y="343.7656">SYSTEM</text><rect fill="#FFFFFF" height="220.0371" style="stroke:#181818;stroke-width:1.0;" width="10" x="21" y="93.6211"/><rect fill="#FFFFFF" height="220.0371" style="stroke:#181818;stroke-width:1.0;" width="10" x="384" y="93.6211"/><polygon fill="#181818" points="372,112.9121,382,116.9121,372,120.9121,376,116.9121" style="stroke:#181818;stroke-width:1.0;"/><line style="stroke:#181818;stroke-width:1.0;" x1="31" x2="378" y1="116.9121" y2="116.9121"/><text fill="#000000" font-family="sans-serif" font-size="13" font-weight="bold" lengthAdjust="spacing" textLength="7" x="38" y="111.6494">1</text><text fill="#000000" font-family="sans-serif" font-size="13" lengthAdjust="spacing" textLength="318" x="49" y="111.6494">starts to read the response for the appointment request</text><polygon fill="#181818" points="42,144.2031,32,148.2031,42,152.2031,38,148.2031" style="stroke:#181818;stroke-width:1.0;"/><line style="stroke:#181818;stroke-width:1.0;" x1="36" x2="383" y1="148.2031" y2="148.2031"/><text fill="#000000" font-family="sans-serif" font-size="13" font-weight="bold" lengthAdjust="spacing" textLength="7" x="48" y="142.9404">2</text><text fill="#000000" font-family="sans-serif" font-size="13" lengthAdjust="spacing" textLength="159" x="59" y="142.9404">shows appointment request</text><polygon fill="#181818" points="42,175.4941,32,179.4941,42,183.4941,38,179.4941" style="stroke:#181818;stroke-width:1.0;"/><line style="stroke:#181818;stroke-width:1.0;" x1="36" x2="383" y1="179.4941" y2="179.4941"/><text fill="#000000" font-family="sans-serif" font-size="13" font-weight="bold" lengthAdjust="spacing" textLength="7" x="48" y="174.2314">3</text><text fill="#000000" font-family="sans-serif" font-size="13" lengthAdjust="spacing" textLength="137" x="59" y="174.2314">asks the user to accept</text><polygon fill="#181818" points="372,206.7852,382,210.7852,372,214.7852,376,210.7852" style="stroke:#181818;stroke-width:1.0;"/><line style="stroke:#181818;stroke-width:1.0;" x1="31" x2="378" y1="210.7852" y2="210.7852"/><text fill="#000000" font-family="sans-serif" font-size="13" font-weight="bold" lengthAdjust="spacing" textLength="7" x="38" y="205.5225">4</text><text fill="#000000" font-family="sans-serif" font-size="13" lengthAdjust="spacing" textLength="115" x="49" y="205.5225">accepts the request</text><polygon fill="#181818" points="42,238.0762,32,242.0762,42,246.0762,38,242.0762" style="stroke:#181818;stroke-width:1.0;"/><line style="stroke:#181818;stroke-width:1.0;" x1="36" x2="383" y1="242.0762" y2="242.0762"/><text fill="#000000" font-family="sans-serif" font-size="13" font-weight="bold" lengthAdjust="spacing" textLength="7" x="48" y="236.8135">5</text><text fill="#000000" font-family="sans-serif" font-size="13" lengthAdjust="spacing" textLength="102" x="59" y="236.8135">asks confirmation</text><polygon fill="#181818" points="372,269.3672,382,273.3672,372,277.3672,376,273.3672" style="stroke:#181818;stroke-width:1.0;"/><line style="stroke:#181818;stroke-width:1.0;" x1="31" x2="378" y1="273.3672" y2="273.3672"/><text fill="#000000" font-family="sans-serif" font-size="13" font-weight="bold" lengthAdjust="spacing" textLength="7" x="38" y="268.1045">6</text><text fill="#000000" font-family="sans-serif" font-size="13" lengthAdjust="spacing" textLength="49" x="49" y="268.1045">confirms</text><polygon fill="#181818" points="42,300.6582,32,304.6582,42,308.6582,38,304.6582" style="stroke:#181818;stroke-width:1.0;"/><line style="stroke:#181818;stroke-width:1.0;" x1="36" x2="383" y1="304.6582" y2="304.6582"/><text fill="#000000" font-family="sans-serif" font-size="13" font-weight="bold" lengthAdjust="spacing" textLength="7" x="48" y="299.3955">7</text><text fill="#000000" font-family="sans-serif" font-size="13" lengthAdjust="spacing" textLength="174" x="59" y="299.3955">informs the operation success</text><!--SRC=[ZOyn3i8m34NtdC8Nu08CB8YHgIoC9hYg1Or3xC3rSTh2K0c9pVxsV_x6Q59WVsTA1gWGfofaBCQHCxhQdRlJuTY6bKF0QfBgUA7YTJH-ej77zUtRugp1PkVT5jISg602XV0ADf0NcYKfGUy9ce0v2oSRcwtGev9Q29KROeOvPf2N_hE8UjC9MfLAEuinKhPrh5dL9SzlKfJKSndHMDAQiSnqRUJaZuqpMpALoGnQ_QHgU0C0]--></g></svg>