<?xml version="1.0" encoding="UTF-8" standalone="no"?><svg xmlns="http://www.w3.org/2000/svg" xmlns:xlink="http://www.w3.org/1999/xlink" contentStyleType="text/css" height="568px" preserveAspectRatio="none" style="width:478px;height:568px;background:#FFFFFF;" version="1.1" viewBox="0 0 478 568" width="478px" zoomAndPan="magnify"><defs/><g><!--MD5=[914bd796d202231af0340e41533f4c36]
class AnalyseDealsUI--><g id="elem_AnalyseDealsUI"><rect codeLine="2" fill="#F1F1F1" height="48" id="AnalyseDealsUI" rx="2.5" ry="2.5" style="stroke:#181818;stroke-width:0.5;" width="130" x="55.5" y="7"/><ellipse cx="70.5" cy="23" fill="#ADD1B2" rx="11" ry="11" style="stroke:#181818;stroke-width:1.0;"/><path d="M73.2656,18.875 Q73.4219,18.6563 73.6094,18.5469 Q73.7969,18.4375 74.0156,18.4375 Q74.3906,18.4375 74.625,18.6953 Q74.8594,18.9531 74.8594,19.5625 L74.8594,21.0156 Q74.8594,21.625 74.625,21.8906 Q74.3906,22.1563 74.0156,22.1563 Q73.6719,22.1563 73.4688,21.9531 Q73.2656,21.7656 73.1563,21.25 Q73.1094,20.8906 72.9219,20.7031 Q72.5938,20.3281 71.9844,20.1094 Q71.375,19.8906 70.75,19.8906 Q69.9844,19.8906 69.3516,20.2188 Q68.7188,20.5469 68.2266,21.2969 Q67.7344,22.0469 67.7344,23.0781 L67.7344,24.1719 Q67.7344,25.4063 68.625,26.2266 Q69.5156,27.0469 71.1094,27.0469 Q72.0469,27.0469 72.7031,26.7969 Q73.0938,26.6406 73.5156,26.2031 Q73.7813,25.9375 73.9297,25.8594 Q74.0781,25.7813 74.2813,25.7813 Q74.6094,25.7813 74.8672,26.0391 Q75.125,26.2969 75.125,26.6406 Q75.125,26.9844 74.7813,27.3906 Q74.2813,27.9688 73.4844,28.2969 Q72.4063,28.75 71.1094,28.75 Q69.5938,28.75 68.3906,28.125 Q67.4063,27.625 66.7188,26.5547 Q66.0313,25.4844 66.0313,24.2031 L66.0313,23.0469 Q66.0313,21.7188 66.6484,20.5703 Q67.2656,19.4219 68.3594,18.8047 Q69.4531,18.1875 70.6875,18.1875 Q71.4219,18.1875 72.0703,18.3516 Q72.7188,18.5156 73.2656,18.875 Z " fill="#000000"/><text fill="#000000" font-family="sans-serif" font-size="14" lengthAdjust="spacing" textLength="98" x="84.5" y="28.7285">AnalyseDealsUI</text><line style="stroke:#181818;stroke-width:0.5;" x1="56.5" x2="184.5" y1="39" y2="39"/><line style="stroke:#181818;stroke-width:0.5;" x1="56.5" x2="184.5" y1="47" y2="47"/></g><!--MD5=[2b335adeb09d2d9e4b9042333cf035a2]
class AnalyseDealsController--><g id="elem_AnalyseDealsController"><rect codeLine="5" fill="#F1F1F1" height="48" id="AnalyseDealsController" rx="2.5" ry="2.5" style="stroke:#181818;stroke-width:0.5;" width="180" x="30.5" y="116"/><ellipse cx="45.5" cy="132" fill="#ADD1B2" rx="11" ry="11" style="stroke:#181818;stroke-width:1.0;"/><path d="M48.2656,127.875 Q48.4219,127.6563 48.6094,127.5469 Q48.7969,127.4375 49.0156,127.4375 Q49.3906,127.4375 49.625,127.6953 Q49.8594,127.9531 49.8594,128.5625 L49.8594,130.0156 Q49.8594,130.625 49.625,130.8906 Q49.3906,131.1563 49.0156,131.1563 Q48.6719,131.1563 48.4688,130.9531 Q48.2656,130.7656 48.1563,130.25 Q48.1094,129.8906 47.9219,129.7031 Q47.5938,129.3281 46.9844,129.1094 Q46.375,128.8906 45.75,128.8906 Q44.9844,128.8906 44.3516,129.2188 Q43.7188,129.5469 43.2266,130.2969 Q42.7344,131.0469 42.7344,132.0781 L42.7344,133.1719 Q42.7344,134.4063 43.625,135.2266 Q44.5156,136.0469 46.1094,136.0469 Q47.0469,136.0469 47.7031,135.7969 Q48.0938,135.6406 48.5156,135.2031 Q48.7813,134.9375 48.9297,134.8594 Q49.0781,134.7813 49.2813,134.7813 Q49.6094,134.7813 49.8672,135.0391 Q50.125,135.2969 50.125,135.6406 Q50.125,135.9844 49.7813,136.3906 Q49.2813,136.9688 48.4844,137.2969 Q47.4063,137.75 46.1094,137.75 Q44.5938,137.75 43.3906,137.125 Q42.4063,136.625 41.7188,135.5547 Q41.0313,134.4844 41.0313,133.2031 L41.0313,132.0469 Q41.0313,130.7188 41.6484,129.5703 Q42.2656,128.4219 43.3594,127.8047 Q44.4531,127.1875 45.6875,127.1875 Q46.4219,127.1875 47.0703,127.3516 Q47.7188,127.5156 48.2656,127.875 Z " fill="#000000"/><text fill="#000000" font-family="sans-serif" font-size="14" lengthAdjust="spacing" textLength="148" x="59.5" y="137.7285">AnalyseDealsController</text><line style="stroke:#181818;stroke-width:0.5;" x1="31.5" x2="209.5" y1="148" y2="148"/><line style="stroke:#181818;stroke-width:0.5;" x1="31.5" x2="209.5" y1="156" y2="156"/></g><!--MD5=[c268dc6319443988b42847da8754f660]
class PurchaseOrderRepository--><g id="elem_PurchaseOrderRepository"><rect codeLine="8" fill="#F1F1F1" height="83.2188" id="PurchaseOrderRepository" rx="2.5" ry="2.5" style="stroke:#181818;stroke-width:0.5;" width="227" x="7" y="369"/><ellipse cx="35.5" cy="385" fill="#ADD1B2" rx="11" ry="11" style="stroke:#181818;stroke-width:1.0;"/><path d="M38.2656,380.875 Q38.4219,380.6563 38.6094,380.5469 Q38.7969,380.4375 39.0156,380.4375 Q39.3906,380.4375 39.625,380.6953 Q39.8594,380.9531 39.8594,381.5625 L39.8594,383.0156 Q39.8594,383.625 39.625,383.8906 Q39.3906,384.1563 39.0156,384.1563 Q38.6719,384.1563 38.4688,383.9531 Q38.2656,383.7656 38.1563,383.25 Q38.1094,382.8906 37.9219,382.7031 Q37.5938,382.3281 36.9844,382.1094 Q36.375,381.8906 35.75,381.8906 Q34.9844,381.8906 34.3516,382.2188 Q33.7188,382.5469 33.2266,383.2969 Q32.7344,384.0469 32.7344,385.0781 L32.7344,386.1719 Q32.7344,387.4063 33.625,388.2266 Q34.5156,389.0469 36.1094,389.0469 Q37.0469,389.0469 37.7031,388.7969 Q38.0938,388.6406 38.5156,388.2031 Q38.7813,387.9375 38.9297,387.8594 Q39.0781,387.7813 39.2813,387.7813 Q39.6094,387.7813 39.8672,388.0391 Q40.125,388.2969 40.125,388.6406 Q40.125,388.9844 39.7813,389.3906 Q39.2813,389.9688 38.4844,390.2969 Q37.4063,390.75 36.1094,390.75 Q34.5938,390.75 33.3906,390.125 Q32.4063,389.625 31.7188,388.5547 Q31.0313,387.4844 31.0313,386.2031 L31.0313,385.0469 Q31.0313,383.7188 31.6484,382.5703 Q32.2656,381.4219 33.3594,380.8047 Q34.4531,380.1875 35.6875,380.1875 Q36.4219,380.1875 37.0703,380.3516 Q37.7188,380.5156 38.2656,380.875 Z " fill="#000000"/><text fill="#000000" font-family="sans-serif" font-size="14" lengthAdjust="spacing" textLength="165" x="52.5" y="390.7285">PurchaseOrderRepository</text><line style="stroke:#181818;stroke-width:0.5;" x1="8" x2="233" y1="401" y2="401"/><line style="stroke:#181818;stroke-width:0.5;" x1="8" x2="233" y1="409" y2="409"/><ellipse cx="18" cy="423.3047" fill="#84BE84" rx="3" ry="3" style="stroke:#038048;stroke-width:1.0;"/><text fill="#000000" font-family="sans-serif" font-size="14" lengthAdjust="spacing" textLength="201" x="27" y="427.5332">getAllPurchaseOrderAccepted()</text><ellipse cx="18" cy="440.9141" fill="#84BE84" rx="3" ry="3" style="stroke:#038048;stroke-width:1.0;"/><text fill="#000000" font-family="sans-serif" font-size="14" lengthAdjust="spacing" textLength="181" x="27" y="445.1426">getPurchaseOrderProperty()</text></g><!--MD5=[35ae6afabc28cfceb76ccc01ee55d1fe]
class Repositories--><g id="elem_Repositories"><rect codeLine="15" fill="#F1F1F1" height="83.2188" id="Repositories" rx="2.5" ry="2.5" style="stroke:#181818;stroke-width:0.5;" width="221" x="154" y="225"/><ellipse cx="220.75" cy="241" fill="#ADD1B2" rx="11" ry="11" style="stroke:#181818;stroke-width:1.0;"/><path d="M223.5156,236.875 Q223.6719,236.6563 223.8594,236.5469 Q224.0469,236.4375 224.2656,236.4375 Q224.6406,236.4375 224.875,236.6953 Q225.1094,236.9531 225.1094,237.5625 L225.1094,239.0156 Q225.1094,239.625 224.875,239.8906 Q224.6406,240.1563 224.2656,240.1563 Q223.9219,240.1563 223.7188,239.9531 Q223.5156,239.7656 223.4063,239.25 Q223.3594,238.8906 223.1719,238.7031 Q222.8438,238.3281 222.2344,238.1094 Q221.625,237.8906 221,237.8906 Q220.2344,237.8906 219.6016,238.2188 Q218.9688,238.5469 218.4766,239.2969 Q217.9844,240.0469 217.9844,241.0781 L217.9844,242.1719 Q217.9844,243.4063 218.875,244.2266 Q219.7656,245.0469 221.3594,245.0469 Q222.2969,245.0469 222.9531,244.7969 Q223.3438,244.6406 223.7656,244.2031 Q224.0313,243.9375 224.1797,243.8594 Q224.3281,243.7813 224.5313,243.7813 Q224.8594,243.7813 225.1172,244.0391 Q225.375,244.2969 225.375,244.6406 Q225.375,244.9844 225.0313,245.3906 Q224.5313,245.9688 223.7344,246.2969 Q222.6563,246.75 221.3594,246.75 Q219.8438,246.75 218.6406,246.125 Q217.6563,245.625 216.9688,244.5547 Q216.2813,243.4844 216.2813,242.2031 L216.2813,241.0469 Q216.2813,239.7188 216.8984,238.5703 Q217.5156,237.4219 218.6094,236.8047 Q219.7031,236.1875 220.9375,236.1875 Q221.6719,236.1875 222.3203,236.3516 Q222.9688,236.5156 223.5156,236.875 Z " fill="#000000"/><text fill="#000000" font-family="sans-serif" font-size="14" lengthAdjust="spacing" textLength="79" x="241.25" y="246.7285">Repositories</text><line style="stroke:#181818;stroke-width:0.5;" x1="155" x2="374" y1="257" y2="257"/><line style="stroke:#181818;stroke-width:0.5;" x1="155" x2="374" y1="265" y2="265"/><ellipse cx="165" cy="279.3047" fill="#84BE84" rx="3" ry="3" style="stroke:#038048;stroke-width:1.0;"/><text fill="#000000" font-family="sans-serif" font-size="14" lengthAdjust="spacing" textLength="83" x="174" y="283.5332">getInstance()</text><ellipse cx="165" cy="296.9141" fill="#84BE84" rx="3" ry="3" style="stroke:#038048;stroke-width:1.0;"/><text fill="#000000" font-family="sans-serif" font-size="14" lengthAdjust="spacing" textLength="195" x="174" y="301.1426">getPurchaseOrderRepository()</text></g><!--MD5=[549d34367604135a7ff1c085621651e8]
class PurchaseOrder--><g id="elem_PurchaseOrder"><rect fill="#F1F1F1" height="48" id="PurchaseOrder" rx="2.5" ry="2.5" style="stroke:#181818;stroke-width:0.5;" width="129" x="56" y="513"/><ellipse cx="71" cy="529" fill="#ADD1B2" rx="11" ry="11" style="stroke:#181818;stroke-width:1.0;"/><path d="M73.7656,524.875 Q73.9219,524.6563 74.1094,524.5469 Q74.2969,524.4375 74.5156,524.4375 Q74.8906,524.4375 75.125,524.6953 Q75.3594,524.9531 75.3594,525.5625 L75.3594,527.0156 Q75.3594,527.625 75.125,527.8906 Q74.8906,528.1563 74.5156,528.1563 Q74.1719,528.1563 73.9688,527.9531 Q73.7656,527.7656 73.6563,527.25 Q73.6094,526.8906 73.4219,526.7031 Q73.0938,526.3281 72.4844,526.1094 Q71.875,525.8906 71.25,525.8906 Q70.4844,525.8906 69.8516,526.2188 Q69.2188,526.5469 68.7266,527.2969 Q68.2344,528.0469 68.2344,529.0781 L68.2344,530.1719 Q68.2344,531.4063 69.125,532.2266 Q70.0156,533.0469 71.6094,533.0469 Q72.5469,533.0469 73.2031,532.7969 Q73.5938,532.6406 74.0156,532.2031 Q74.2813,531.9375 74.4297,531.8594 Q74.5781,531.7813 74.7813,531.7813 Q75.1094,531.7813 75.3672,532.0391 Q75.625,532.2969 75.625,532.6406 Q75.625,532.9844 75.2813,533.3906 Q74.7813,533.9688 73.9844,534.2969 Q72.9063,534.75 71.6094,534.75 Q70.0938,534.75 68.8906,534.125 Q67.9063,533.625 67.2188,532.5547 Q66.5313,531.4844 66.5313,530.2031 L66.5313,529.0469 Q66.5313,527.7188 67.1484,526.5703 Q67.7656,525.4219 68.8594,524.8047 Q69.9531,524.1875 71.1875,524.1875 Q71.9219,524.1875 72.5703,524.3516 Q73.2188,524.5156 73.7656,524.875 Z " fill="#000000"/><text fill="#000000" font-family="sans-serif" font-size="14" lengthAdjust="spacing" textLength="97" x="85" y="534.7285">PurchaseOrder</text><line style="stroke:#181818;stroke-width:0.5;" x1="57" x2="184" y1="545" y2="545"/><line style="stroke:#181818;stroke-width:0.5;" x1="57" x2="184" y1="553" y2="553"/></g><!--MD5=[be194e9d1af3c04aa737d52feb041d23]
link AnalyseDealsUI to AnalyseDealsController--><g id="link_AnalyseDealsUI_AnalyseDealsController"><path codeLine="23" d="M120.5,55.22 C120.5,71.48 120.5,93.32 120.5,110.62 " fill="none" id="AnalyseDealsUI-to-AnalyseDealsController" style="stroke:#181818;stroke-width:1.0;stroke-dasharray:7.0,7.0;"/><polygon fill="#181818" points="120.5,115.83,124.5,106.83,120.5,110.83,116.5,106.83,120.5,115.83" style="stroke:#181818;stroke-width:1.0;"/></g><!--MD5=[6d0a159bd1e23ee1f91c3d51a3e203d3]
link AnalyseDealsController to Repositories--><g id="link_AnalyseDealsController_Repositories"><path codeLine="24" d="M147.25,164.13 C165.85,180.21 191.24,202.16 213.64,221.52 " fill="none" id="AnalyseDealsController-to-Repositories" style="stroke:#181818;stroke-width:1.0;stroke-dasharray:7.0,7.0;"/><polygon fill="#181818" points="217.49,224.86,213.2957,215.9489,213.7068,221.5908,208.065,222.0019,217.49,224.86" style="stroke:#181818;stroke-width:1.0;"/></g><!--MD5=[50112be496dd367dac3026cb68a6c4a7]
link AnalyseDealsController to PurchaseOrderRepository--><g id="link_AnalyseDealsController_PurchaseOrderRepository"><path codeLine="25" d="M120.5,164.36 C120.5,208.7 120.5,305.78 120.5,363.58 " fill="none" id="AnalyseDealsController-to-PurchaseOrderRepository" style="stroke:#181818;stroke-width:1.0;stroke-dasharray:7.0,7.0;"/><polygon fill="#181818" points="120.5,368.7,124.5,359.7,120.5,363.7,116.5,359.7,120.5,368.7" style="stroke:#181818;stroke-width:1.0;"/></g><!--MD5=[4372940f46610de4b8f7dafeb3ec45d3]
link PurchaseOrderRepository to PurchaseOrder--><g id="link_PurchaseOrderRepository_PurchaseOrder"><path codeLine="27" d="M120.5,452.27 C120.5,470.36 120.5,491.22 120.5,507.59 " fill="none" id="PurchaseOrderRepository-to-PurchaseOrder" style="stroke:#181818;stroke-width:1.0;"/><polygon fill="#181818" points="120.5,512.96,124.5,503.96,120.5,507.96,116.5,503.96,120.5,512.96" style="stroke:#181818;stroke-width:1.0;"/><text fill="#000000" font-family="sans-serif" font-size="13" lengthAdjust="spacing" textLength="5" x="114.8594" y="502.2899">*</text></g><!--MD5=[fff48e9c385a875a0ec7f6b68c295159]
link Repositories to Repositories--><g id="link_Repositories_Repositories"><path codeLine="29" d="M375.21,253.72 C395.64,255.31 410,259.57 410,266.5 C410,272.83 398,276.93 380.34,278.81 " fill="none" id="Repositories-to-Repositories" style="stroke:#181818;stroke-width:1.0;"/><polygon fill="#181818" points="375.21,279.28,384.5376,282.4415,380.1891,278.8235,383.8072,274.4749,375.21,279.28" style="stroke:#181818;stroke-width:1.0;"/><text fill="#000000" font-family="sans-serif" font-size="13" lengthAdjust="spacing" textLength="49" x="416" y="271.9951">Instance</text></g><!--MD5=[9859b664c0e1abc1d820379829e1648e]
link Repositories to PurchaseOrderRepository--><g id="link_Repositories_PurchaseOrderRepository"><path codeLine="31" d="M223.24,308.19 C205.16,326.02 183.9,346.98 165.43,365.2 " fill="none" id="Repositories-to-PurchaseOrderRepository" style="stroke:#181818;stroke-width:1.0;"/><polygon fill="#181818" points="161.77,368.8,170.9836,365.3202,165.3269,365.286,165.3612,359.6292,161.77,368.8" style="stroke:#181818;stroke-width:1.0;"/><text fill="#000000" font-family="sans-serif" font-size="13" lengthAdjust="spacing" textLength="7" x="161.0257" y="358.0746">1</text></g><!--MD5=[737bc1173708aaa0cee9cb7821d37a84]
@startuml

class AnalyseDealsUI {
}

class AnalyseDealsController {
}

class PurchaseOrderRepository {

    +getAllPurchaseOrderAccepted()
    +getPurchaseOrderProperty()

}

class Repositories {

    +getInstance()
    +getPurchaseOrderRepository()

}


AnalyseDealsUI -[dashed]-> AnalyseDealsController
AnalyseDealsController-[dashed]-> Repositories
AnalyseDealsController-[dashed]-> PurchaseOrderRepository

PurchaseOrderRepository -down-> "*" PurchaseOrder

Repositories - -> Repositories: Instance

Repositories - ->"1" PurchaseOrderRepository

@enduml

PlantUML version 1.2022.7(Mon Aug 22 18:01:30 BST 2022)
(GPL source distribution)
Java Runtime: Java(TM) SE Runtime Environment
JVM: Java HotSpot(TM) 64-Bit Server VM
Default Encoding: Cp1252
Language: pt
Country: PT
--></g></svg>