<?xml version="1.0" encoding="us-ascii" standalone="no"?><svg xmlns="http://www.w3.org/2000/svg" xmlns:xlink="http://www.w3.org/1999/xlink" contentStyleType="text/css" height="683px" preserveAspectRatio="none" style="width:571px;height:683px;background:#FFFFFF;" version="1.1" viewBox="0 0 571 683" width="571px" zoomAndPan="magnify"><defs/><g><!--class Runnable--><g id="elem_Runnable"><rect codeLine="1" fill="#F1F1F1" height="66.6211" id="Runnable" rx="2.5" ry="2.5" style="stroke:#181818;stroke-width:0.5;" width="93" x="319" y="16"/><ellipse cx="334" cy="32" fill="#B4A7E5" rx="11" ry="11" style="stroke:#181818;stroke-width:1.0;"/><path d="M334.9531,28.6406 L334.9531,35.2969 L336.6719,35.2969 Q337.2813,35.2969 337.5469,35.5313 Q337.8125,35.7656 337.8125,36.1563 Q337.8125,36.5313 337.5469,36.7656 Q337.2813,37 336.6719,37 L331.5313,37 Q330.9219,37 330.6563,36.7656 Q330.3906,36.5313 330.3906,36.1406 Q330.3906,35.7656 330.6563,35.5313 Q330.9219,35.2969 331.5313,35.2969 L333.25,35.2969 L333.25,28.6406 L331.5313,28.6406 Q330.9219,28.6406 330.6563,28.4063 Q330.3906,28.1719 330.3906,27.7813 Q330.3906,27.4063 330.6563,27.1719 Q330.9219,26.9375 331.5313,26.9375 L336.6719,26.9375 Q337.2813,26.9375 337.5469,27.1719 Q337.8125,27.4063 337.8125,27.7813 Q337.8125,28.1719 337.5469,28.4063 Q337.2813,28.6406 336.6719,28.6406 L334.9531,28.6406 Z " fill="#000000"/><text fill="#000000" font-family="sans-serif" font-size="14" font-style="italic" lengthAdjust="spacing" textLength="61" x="348" y="37.7969">Runnable</text><line style="stroke:#181818;stroke-width:0.5;" x1="320" x2="411" y1="48" y2="48"/><line style="stroke:#181818;stroke-width:0.5;" x1="320" x2="411" y1="56" y2="56"/><ellipse cx="330" cy="70.8105" fill="#84BE84" rx="3" ry="3" style="stroke:#038048;stroke-width:1.0;"/><text fill="#000000" font-family="sans-serif" font-size="14" lengthAdjust="spacing" textLength="31" x="339" y="75.1074">run()</text></g><!--class AnalyseDealsGUI--><g id="elem_AnalyseDealsGUI"><rect codeLine="5" fill="#F1F1F1" height="85.2422" id="AnalyseDealsGUI" rx="2.5" ry="2.5" style="stroke:#181818;stroke-width:0.5;" width="141" x="143" y="7"/><ellipse cx="158" cy="23" fill="#ADD1B2" rx="11" ry="11" style="stroke:#181818;stroke-width:1.0;"/><path d="M160.7656,18.875 Q160.9219,18.6563 161.1094,18.5469 Q161.2969,18.4375 161.5156,18.4375 Q161.8906,18.4375 162.125,18.7031 Q162.3594,18.9531 162.3594,19.5625 L162.3594,21.0156 Q162.3594,21.625 162.125,21.8906 Q161.8906,22.1563 161.5156,22.1563 Q161.1719,22.1563 160.9688,21.9531 Q160.7656,21.7656 160.6563,21.25 Q160.6094,20.8906 160.4219,20.7031 Q160.0938,20.3281 159.4844,20.1094 Q158.875,19.8906 158.25,19.8906 Q157.4844,19.8906 156.8438,20.2188 Q156.2188,20.5469 155.7188,21.2969 Q155.2344,22.0469 155.2344,23.0781 L155.2344,24.1719 Q155.2344,25.4063 156.125,26.2344 Q157.0156,27.0469 158.6094,27.0469 Q159.5469,27.0469 160.2031,26.7969 Q160.5938,26.6406 161.0156,26.2031 Q161.2813,25.9375 161.4219,25.8594 Q161.5781,25.7813 161.7813,25.7813 Q162.1094,25.7813 162.3594,26.0469 Q162.625,26.2969 162.625,26.6406 Q162.625,26.9844 162.2813,27.3906 Q161.7813,27.9688 160.9844,28.2969 Q159.9063,28.75 158.6094,28.75 Q157.0938,28.75 155.8906,28.125 Q154.9063,27.625 154.2188,26.5625 Q153.5313,25.4844 153.5313,24.2031 L153.5313,23.0469 Q153.5313,21.7188 154.1406,20.5781 Q154.7656,19.4219 155.8594,18.8125 Q156.9531,18.1875 158.1875,18.1875 Q158.9219,18.1875 159.5625,18.3594 Q160.2188,18.5156 160.7656,18.875 Z " fill="#000000"/><text fill="#000000" font-family="sans-serif" font-size="14" lengthAdjust="spacing" textLength="109" x="172" y="28.7969">AnalyseDealsGUI</text><line style="stroke:#181818;stroke-width:0.5;" x1="144" x2="283" y1="39" y2="39"/><line style="stroke:#181818;stroke-width:0.5;" x1="144" x2="283" y1="47" y2="47"/><ellipse cx="154" cy="61.8105" fill="#84BE84" rx="3" ry="3" style="stroke:#038048;stroke-width:1.0;"/><text fill="#000000" font-family="sans-serif" font-size="14" lengthAdjust="spacing" textLength="38" x="163" y="66.1074">start()</text><ellipse cx="154" cy="80.4316" fill="#84BE84" rx="3" ry="3" style="stroke:#038048;stroke-width:1.0;"/><text fill="#000000" font-family="sans-serif" font-size="14" lengthAdjust="spacing" textLength="40" x="163" y="84.7285">main()</text></g><!--class AnalyseDealsController--><g id="elem_AnalyseDealsController"><rect codeLine="10" fill="#F1F1F1" height="122.4844" id="AnalyseDealsController" rx="2.5" ry="2.5" style="stroke:#181818;stroke-width:0.5;" width="200" x="113.5" y="153"/><ellipse cx="137.5" cy="169" fill="#ADD1B2" rx="11" ry="11" style="stroke:#181818;stroke-width:1.0;"/><path d="M140.2656,164.875 Q140.4219,164.6563 140.6094,164.5469 Q140.7969,164.4375 141.0156,164.4375 Q141.3906,164.4375 141.625,164.7031 Q141.8594,164.9531 141.8594,165.5625 L141.8594,167.0156 Q141.8594,167.625 141.625,167.8906 Q141.3906,168.1563 141.0156,168.1563 Q140.6719,168.1563 140.4688,167.9531 Q140.2656,167.7656 140.1563,167.25 Q140.1094,166.8906 139.9219,166.7031 Q139.5938,166.3281 138.9844,166.1094 Q138.375,165.8906 137.75,165.8906 Q136.9844,165.8906 136.3438,166.2188 Q135.7188,166.5469 135.2188,167.2969 Q134.7344,168.0469 134.7344,169.0781 L134.7344,170.1719 Q134.7344,171.4063 135.625,172.2344 Q136.5156,173.0469 138.1094,173.0469 Q139.0469,173.0469 139.7031,172.7969 Q140.0938,172.6406 140.5156,172.2031 Q140.7813,171.9375 140.9219,171.8594 Q141.0781,171.7813 141.2813,171.7813 Q141.6094,171.7813 141.8594,172.0469 Q142.125,172.2969 142.125,172.6406 Q142.125,172.9844 141.7813,173.3906 Q141.2813,173.9688 140.4844,174.2969 Q139.4063,174.75 138.1094,174.75 Q136.5938,174.75 135.3906,174.125 Q134.4063,173.625 133.7188,172.5625 Q133.0313,171.4844 133.0313,170.2031 L133.0313,169.0469 Q133.0313,167.7188 133.6406,166.5781 Q134.2656,165.4219 135.3594,164.8125 Q136.4531,164.1875 137.6875,164.1875 Q138.4219,164.1875 139.0625,164.3594 Q139.7188,164.5156 140.2656,164.875 Z " fill="#000000"/><text fill="#000000" font-family="sans-serif" font-size="14" lengthAdjust="spacing" textLength="148" x="153.5" y="174.7969">AnalyseDealsController</text><line style="stroke:#181818;stroke-width:0.5;" x1="114.5" x2="312.5" y1="185" y2="185"/><rect fill="none" height="6" style="stroke:#C82930;stroke-width:1.0;" width="6" x="121.5" y="196.8105"/><text fill="#000000" font-family="sans-serif" font-size="14" lengthAdjust="spacing" textLength="165" x="133.5" y="204.1074">housesAndApartmentsList</text><line style="stroke:#181818;stroke-width:0.5;" x1="114.5" x2="312.5" y1="211.6211" y2="211.6211"/><ellipse cx="124.5" cy="226.4316" fill="#84BE84" rx="3" ry="3" style="stroke:#038048;stroke-width:1.0;"/><text fill="#000000" font-family="sans-serif" font-size="14" lengthAdjust="spacing" textLength="174" x="133.5" y="230.7285">getApartmentsAndHouses()</text><ellipse cx="124.5" cy="245.0527" fill="#84BE84" rx="3" ry="3" style="stroke:#038048;stroke-width:1.0;"/><text fill="#000000" font-family="sans-serif" font-size="14" lengthAdjust="spacing" textLength="162" x="133.5" y="249.3496">simpleLinearRegression()</text><ellipse cx="124.5" cy="263.6738" fill="#84BE84" rx="3" ry="3" style="stroke:#038048;stroke-width:1.0;"/><text fill="#000000" font-family="sans-serif" font-size="14" lengthAdjust="spacing" textLength="151" x="133.5" y="267.9707">multiLinearRegression()</text></g><!--class PurchaseOrderRepository--><g id="elem_PurchaseOrderRepository"><rect codeLine="17" fill="#F1F1F1" height="85.2422" id="PurchaseOrderRepository" rx="2.5" ry="2.5" style="stroke:#181818;stroke-width:0.5;" width="227" x="100" y="482"/><ellipse cx="128.5" cy="498" fill="#ADD1B2" rx="11" ry="11" style="stroke:#181818;stroke-width:1.0;"/><path d="M131.2656,493.875 Q131.4219,493.6563 131.6094,493.5469 Q131.7969,493.4375 132.0156,493.4375 Q132.3906,493.4375 132.625,493.7031 Q132.8594,493.9531 132.8594,494.5625 L132.8594,496.0156 Q132.8594,496.625 132.625,496.8906 Q132.3906,497.1563 132.0156,497.1563 Q131.6719,497.1563 131.4688,496.9531 Q131.2656,496.7656 131.1563,496.25 Q131.1094,495.8906 130.9219,495.7031 Q130.5938,495.3281 129.9844,495.1094 Q129.375,494.8906 128.75,494.8906 Q127.9844,494.8906 127.3438,495.2188 Q126.7188,495.5469 126.2188,496.2969 Q125.7344,497.0469 125.7344,498.0781 L125.7344,499.1719 Q125.7344,500.4063 126.625,501.2344 Q127.5156,502.0469 129.1094,502.0469 Q130.0469,502.0469 130.7031,501.7969 Q131.0938,501.6406 131.5156,501.2031 Q131.7813,500.9375 131.9219,500.8594 Q132.0781,500.7813 132.2813,500.7813 Q132.6094,500.7813 132.8594,501.0469 Q133.125,501.2969 133.125,501.6406 Q133.125,501.9844 132.7813,502.3906 Q132.2813,502.9688 131.4844,503.2969 Q130.4063,503.75 129.1094,503.75 Q127.5938,503.75 126.3906,503.125 Q125.4063,502.625 124.7188,501.5625 Q124.0313,500.4844 124.0313,499.2031 L124.0313,498.0469 Q124.0313,496.7188 124.6406,495.5781 Q125.2656,494.4219 126.3594,493.8125 Q127.4531,493.1875 128.6875,493.1875 Q129.4219,493.1875 130.0625,493.3594 Q130.7188,493.5156 131.2656,493.875 Z " fill="#000000"/><text fill="#000000" font-family="sans-serif" font-size="14" lengthAdjust="spacing" textLength="165" x="145.5" y="503.7969">PurchaseOrderRepository</text><line style="stroke:#181818;stroke-width:0.5;" x1="101" x2="326" y1="514" y2="514"/><line style="stroke:#181818;stroke-width:0.5;" x1="101" x2="326" y1="522" y2="522"/><ellipse cx="111" cy="536.8105" fill="#84BE84" rx="3" ry="3" style="stroke:#038048;stroke-width:1.0;"/><text fill="#000000" font-family="sans-serif" font-size="14" lengthAdjust="spacing" textLength="201" x="120" y="541.1074">getAllPurchaseOrderAccepted()</text><ellipse cx="111" cy="555.4316" fill="#84BE84" rx="3" ry="3" style="stroke:#038048;stroke-width:1.0;"/><text fill="#000000" font-family="sans-serif" font-size="14" lengthAdjust="spacing" textLength="181" x="120" y="559.7285">getPurchaseOrderProperty()</text></g><!--class Repositories--><g id="elem_Repositories"><rect codeLine="24" fill="#F1F1F1" height="85.2422" id="Repositories" rx="2.5" ry="2.5" style="stroke:#181818;stroke-width:0.5;" width="221" x="247" y="336"/><ellipse cx="313.75" cy="352" fill="#ADD1B2" rx="11" ry="11" style="stroke:#181818;stroke-width:1.0;"/><path d="M316.5156,347.875 Q316.6719,347.6563 316.8594,347.5469 Q317.0469,347.4375 317.2656,347.4375 Q317.6406,347.4375 317.875,347.7031 Q318.1094,347.9531 318.1094,348.5625 L318.1094,350.0156 Q318.1094,350.625 317.875,350.8906 Q317.6406,351.1563 317.2656,351.1563 Q316.9219,351.1563 316.7188,350.9531 Q316.5156,350.7656 316.4063,350.25 Q316.3594,349.8906 316.1719,349.7031 Q315.8438,349.3281 315.2344,349.1094 Q314.625,348.8906 314,348.8906 Q313.2344,348.8906 312.5938,349.2188 Q311.9688,349.5469 311.4688,350.2969 Q310.9844,351.0469 310.9844,352.0781 L310.9844,353.1719 Q310.9844,354.4063 311.875,355.2344 Q312.7656,356.0469 314.3594,356.0469 Q315.2969,356.0469 315.9531,355.7969 Q316.3438,355.6406 316.7656,355.2031 Q317.0313,354.9375 317.1719,354.8594 Q317.3281,354.7813 317.5313,354.7813 Q317.8594,354.7813 318.1094,355.0469 Q318.375,355.2969 318.375,355.6406 Q318.375,355.9844 318.0313,356.3906 Q317.5313,356.9688 316.7344,357.2969 Q315.6563,357.75 314.3594,357.75 Q312.8438,357.75 311.6406,357.125 Q310.6563,356.625 309.9688,355.5625 Q309.2813,354.4844 309.2813,353.2031 L309.2813,352.0469 Q309.2813,350.7188 309.8906,349.5781 Q310.5156,348.4219 311.6094,347.8125 Q312.7031,347.1875 313.9375,347.1875 Q314.6719,347.1875 315.3125,347.3594 Q315.9688,347.5156 316.5156,347.875 Z " fill="#000000"/><text fill="#000000" font-family="sans-serif" font-size="14" lengthAdjust="spacing" textLength="79" x="334.25" y="357.7969">Repositories</text><line style="stroke:#181818;stroke-width:0.5;" x1="248" x2="467" y1="368" y2="368"/><line style="stroke:#181818;stroke-width:0.5;" x1="248" x2="467" y1="376" y2="376"/><ellipse cx="258" cy="390.8105" fill="#84BE84" rx="3" ry="3" style="stroke:#038048;stroke-width:1.0;"/><text fill="#000000" font-family="sans-serif" font-size="14" lengthAdjust="spacing" textLength="83" x="267" y="395.1074">getInstance()</text><ellipse cx="258" cy="409.4316" fill="#84BE84" rx="3" ry="3" style="stroke:#038048;stroke-width:1.0;"/><text fill="#000000" font-family="sans-serif" font-size="14" lengthAdjust="spacing" textLength="195" x="267" y="413.7285">getPurchaseOrderRepository()</text></g><!--class Application--><g id="elem_Application"><rect fill="#F1F1F1" height="48" id="Application" rx="2.5" ry="2.5" style="stroke:#181818;stroke-width:0.5;" width="101" x="7" y="25.5"/><ellipse cx="22" cy="41.5" fill="#ADD1B2" rx="11" ry="11" style="stroke:#181818;stroke-width:1.0;"/><path d="M24.7656,37.375 Q24.9219,37.1563 25.1094,37.0469 Q25.2969,36.9375 25.5156,36.9375 Q25.8906,36.9375 26.125,37.2031 Q26.3594,37.4531 26.3594,38.0625 L26.3594,39.5156 Q26.3594,40.125 26.125,40.3906 Q25.8906,40.6563 25.5156,40.6563 Q25.1719,40.6563 24.9688,40.4531 Q24.7656,40.2656 24.6563,39.75 Q24.6094,39.3906 24.4219,39.2031 Q24.0938,38.8281 23.4844,38.6094 Q22.875,38.3906 22.25,38.3906 Q21.4844,38.3906 20.8438,38.7188 Q20.2188,39.0469 19.7188,39.7969 Q19.2344,40.5469 19.2344,41.5781 L19.2344,42.6719 Q19.2344,43.9063 20.125,44.7344 Q21.0156,45.5469 22.6094,45.5469 Q23.5469,45.5469 24.2031,45.2969 Q24.5938,45.1406 25.0156,44.7031 Q25.2813,44.4375 25.4219,44.3594 Q25.5781,44.2813 25.7813,44.2813 Q26.1094,44.2813 26.3594,44.5469 Q26.625,44.7969 26.625,45.1406 Q26.625,45.4844 26.2813,45.8906 Q25.7813,46.4688 24.9844,46.7969 Q23.9063,47.25 22.6094,47.25 Q21.0938,47.25 19.8906,46.625 Q18.9063,46.125 18.2188,45.0625 Q17.5313,43.9844 17.5313,42.7031 L17.5313,41.5469 Q17.5313,40.2188 18.1406,39.0781 Q18.7656,37.9219 19.8594,37.3125 Q20.9531,36.6875 22.1875,36.6875 Q22.9219,36.6875 23.5625,36.8594 Q24.2188,37.0156 24.7656,37.375 Z " fill="#000000"/><text fill="#000000" font-family="sans-serif" font-size="14" lengthAdjust="spacing" textLength="69" x="36" y="47.2969">Application</text><line style="stroke:#181818;stroke-width:0.5;" x1="8" x2="107" y1="57.5" y2="57.5"/><line style="stroke:#181818;stroke-width:0.5;" x1="8" x2="107" y1="65.5" y2="65.5"/></g><!--class PurchaseOrder--><g id="elem_PurchaseOrder"><rect fill="#F1F1F1" height="48" id="PurchaseOrder" rx="2.5" ry="2.5" style="stroke:#181818;stroke-width:0.5;" width="129" x="149" y="628"/><ellipse cx="164" cy="644" fill="#ADD1B2" rx="11" ry="11" style="stroke:#181818;stroke-width:1.0;"/><path d="M166.7656,639.875 Q166.9219,639.6563 167.1094,639.5469 Q167.2969,639.4375 167.5156,639.4375 Q167.8906,639.4375 168.125,639.7031 Q168.3594,639.9531 168.3594,640.5625 L168.3594,642.0156 Q168.3594,642.625 168.125,642.8906 Q167.8906,643.1563 167.5156,643.1563 Q167.1719,643.1563 166.9688,642.9531 Q166.7656,642.7656 166.6563,642.25 Q166.6094,641.8906 166.4219,641.7031 Q166.0938,641.3281 165.4844,641.1094 Q164.875,640.8906 164.25,640.8906 Q163.4844,640.8906 162.8438,641.2188 Q162.2188,641.5469 161.7188,642.2969 Q161.2344,643.0469 161.2344,644.0781 L161.2344,645.1719 Q161.2344,646.4063 162.125,647.2344 Q163.0156,648.0469 164.6094,648.0469 Q165.5469,648.0469 166.2031,647.7969 Q166.5938,647.6406 167.0156,647.2031 Q167.2813,646.9375 167.4219,646.8594 Q167.5781,646.7813 167.7813,646.7813 Q168.1094,646.7813 168.3594,647.0469 Q168.625,647.2969 168.625,647.6406 Q168.625,647.9844 168.2813,648.3906 Q167.7813,648.9688 166.9844,649.2969 Q165.9063,649.75 164.6094,649.75 Q163.0938,649.75 161.8906,649.125 Q160.9063,648.625 160.2188,647.5625 Q159.5313,646.4844 159.5313,645.2031 L159.5313,644.0469 Q159.5313,642.7188 160.1406,641.5781 Q160.7656,640.4219 161.8594,639.8125 Q162.9531,639.1875 164.1875,639.1875 Q164.9219,639.1875 165.5625,639.3594 Q166.2188,639.5156 166.7656,639.875 Z " fill="#000000"/><text fill="#000000" font-family="sans-serif" font-size="14" lengthAdjust="spacing" textLength="97" x="178" y="649.7969">PurchaseOrder</text><line style="stroke:#181818;stroke-width:0.5;" x1="150" x2="277" y1="660" y2="660"/><line style="stroke:#181818;stroke-width:0.5;" x1="150" x2="277" y1="668" y2="668"/></g><!--link Application to AnalyseDealsGUI--><g id="link_Application_AnalyseDealsGUI"><path codeLine="31" d="M108.08,49.5 C112.85,49.5 117.63,49.5 122.4,49.5 " fill="none" id="Application-to-AnalyseDealsGUI" style="stroke:#181818;stroke-width:1.0;"/><polygon fill="none" points="122.67,42.5,142.67,49.5,122.67,56.5,122.67,42.5" style="stroke:#181818;stroke-width:1.0;"/></g><!--reverse link AnalyseDealsGUI to Runnable--><g id="link_AnalyseDealsGUI_Runnable"><path codeLine="32" d="M304.18,49.5 C309.05,49.5 313.92,49.5 318.79,49.5 " fill="none" id="AnalyseDealsGUI-backto-Runnable" style="stroke:#181818;stroke-width:1.0;"/><polygon fill="none" points="304.16,56.5,284.16,49.5,304.16,42.5,304.16,56.5" style="stroke:#181818;stroke-width:1.0;"/></g><!--link AnalyseDealsGUI to AnalyseDealsController--><g id="link_AnalyseDealsGUI_AnalyseDealsController"><path codeLine="33" d="M213.5,92.35 C213.5,109.2 213.5,129.03 213.5,147.69 " fill="none" id="AnalyseDealsGUI-to-AnalyseDealsController" style="stroke:#181818;stroke-width:1.0;stroke-dasharray:7.0,7.0;"/><polygon fill="#181818" points="213.5,152.92,217.5,143.92,213.5,147.92,209.5,143.92,213.5,152.92" style="stroke:#181818;stroke-width:1.0;"/></g><!--link AnalyseDealsController to Repositories--><g id="link_AnalyseDealsController_Repositories"><path codeLine="34" d="M266.71,275.05 C283.4,293.88 301.53,314.34 317.17,331.99 " fill="none" id="AnalyseDealsController-to-Repositories" style="stroke:#181818;stroke-width:1.0;stroke-dasharray:7.0,7.0;"/><polygon fill="#181818" points="320.67,335.94,317.6982,326.5502,317.3553,332.1967,311.7088,331.8538,320.67,335.94" style="stroke:#181818;stroke-width:1.0;"/></g><!--link AnalyseDealsController to PurchaseOrderRepository--><g id="link_AnalyseDealsController_PurchaseOrderRepository"><path codeLine="35" d="M213.5,275.21 C213.5,334.16 213.5,422.73 213.5,476.62 " fill="none" id="AnalyseDealsController-to-PurchaseOrderRepository" style="stroke:#181818;stroke-width:1.0;stroke-dasharray:7.0,7.0;"/><polygon fill="#181818" points="213.5,481.72,217.5,472.72,213.5,476.72,209.5,472.72,213.5,481.72" style="stroke:#181818;stroke-width:1.0;"/></g><!--link PurchaseOrderRepository to PurchaseOrder--><g id="link_PurchaseOrderRepository_PurchaseOrder"><path codeLine="37" d="M213.5,567.29 C213.5,585.36 213.5,606.04 213.5,622.33 " fill="none" id="PurchaseOrderRepository-to-PurchaseOrder" style="stroke:#181818;stroke-width:1.0;"/><polygon fill="#181818" points="213.5,627.67,217.5,618.67,213.5,622.67,209.5,618.67,213.5,627.67" style="stroke:#181818;stroke-width:1.0;"/><text fill="#000000" font-family="sans-serif" font-size="13" lengthAdjust="spacing" textLength="5" x="207.8906" y="616.7315">*</text></g><!--link Repositories to Repositories--><g id="link_Repositories_Repositories"><path codeLine="39" d="M468.21,365.72 C488.64,367.31 503,371.57 503,378.5 C503,384.83 491,388.93 473.34,390.81 " fill="none" id="Repositories-to-Repositories" style="stroke:#181818;stroke-width:1.0;"/><polygon fill="#181818" points="468.21,391.28,477.5376,394.4415,473.1891,390.8235,476.8072,386.4749,468.21,391.28" style="stroke:#181818;stroke-width:1.0;"/><text fill="#000000" font-family="sans-serif" font-size="13" lengthAdjust="spacing" textLength="49" x="509" y="384.0283">Instance</text></g><!--link Repositories to PurchaseOrderRepository--><g id="link_Repositories_PurchaseOrderRepository"><path codeLine="41" d="M315.85,421.15 C297.94,439.06 276.96,460.04 258.68,478.32 " fill="none" id="Repositories-to-PurchaseOrderRepository" style="stroke:#181818;stroke-width:1.0;"/><polygon fill="#181818" points="255.06,481.94,264.2524,478.4045,258.5955,478.4045,258.5955,472.7476,255.06,481.94" style="stroke:#181818;stroke-width:1.0;"/><text fill="#000000" font-family="sans-serif" font-size="13" lengthAdjust="spacing" textLength="7" x="254.1258" y="470.8345">1</text></g><!--SRC=[ZP5DImCn48Rl-HLXJtwGWrSFXKL12mLBmPDuYDbfDv2TX9bPfAZ_tMZR_R8BxcqppxppphmU1MXh7UXDYsZV0kWFfVDthQd5YqlrfPGBbbcNQCEUuHviu8VdPOUnM98C7luQwsUxxY8AnH20Zir6rx5bu1AhCcML1b1uvLcEOZkG_Zr3ZxzqDujzamAiF8Ab3Um8c7t4taeRn9-fTjxMBRdQCZnH1Hb9aRr4scTp1uMVyI6CgD8vI0BLQKX6HlKrnGGa-rplvtJI7dWeliHyEtGm9zPREigLAGNlhEGzj26_gyLyBgR1g2v84s1xbfX6QLugopLKhsOn4vWw_pni76xv3tncKwNcKZ5LVCVSM5mLusQbHWSs4o-t-dJdls1nKymQ-GO0]--></g></svg>