<?xml version="1.0" encoding="us-ascii" standalone="no"?><svg xmlns="http://www.w3.org/2000/svg" xmlns:xlink="http://www.w3.org/1999/xlink" contentStyleType="text/css" height="970px" preserveAspectRatio="none" style="width:1044px;height:970px;background:#FFFFFF;" version="1.1" viewBox="0 0 1044 970" width="1044px" zoomAndPan="magnify"><defs/><g><rect fill="#FFFFFF" height="784.2852" style="stroke:#181818;stroke-width:1.0;" width="10" x="65" y="93.6211"/><rect fill="#FFFFFF" height="760.9941" style="stroke:#181818;stroke-width:1.0;" width="10" x="328" y="116.9121"/><rect fill="#FFFFFF" height="455.7441" style="stroke:#181818;stroke-width:1.0;" width="10" x="487" y="381.8711"/><rect fill="#FFFFFF" height="31.291" style="stroke:#181818;stroke-width:1.0;" width="10" x="675" y="415.4922"/><rect fill="#FFFFFF" height="31.291" style="stroke:#181818;stroke-width:1.0;" width="10" x="782" y="478.0742"/><rect fill="#FFFFFF" height="31.291" style="stroke:#181818;stroke-width:1.0;" width="10" x="932" y="540.6563"/><rect fill="#FFFFFF" height="31.291" style="stroke:#181818;stroke-width:1.0;" width="10" x="932" y="629.5293"/><rect fill="none" height="161.0859" style="stroke:#000000;stroke-width:1.5;" width="396.5" x="10" y="180.4941"/><rect fill="none" height="220.377" style="stroke:#000000;stroke-width:1.5;" width="649.5" x="389" y="586.9473"/><rect fill="none" height="124.5039" style="stroke:#000000;stroke-width:1.5;" width="281" x="399" y="675.8203"/><line style="stroke:#181818;stroke-width:0.5;stroke-dasharray:5.0,5.0;" x1="70" x2="70" y1="83.6211" y2="886.9063"/><line style="stroke:#181818;stroke-width:0.5;stroke-dasharray:5.0,5.0;" x1="332.5" x2="332.5" y1="83.6211" y2="886.9063"/><line style="stroke:#181818;stroke-width:0.5;stroke-dasharray:5.0,5.0;" x1="492" x2="492" y1="380.3906" y2="886.9063"/><line style="stroke:#181818;stroke-width:0.5;stroke-dasharray:5.0,5.0;" x1="679.5" x2="679.5" y1="83.6211" y2="886.9063"/><line style="stroke:#181818;stroke-width:0.5;stroke-dasharray:5.0,5.0;" x1="786.5" x2="786.5" y1="83.6211" y2="886.9063"/><line style="stroke:#181818;stroke-width:0.5;stroke-dasharray:5.0,5.0;" x1="936.5" x2="936.5" y1="83.6211" y2="886.9063"/><text fill="#000000" font-family="sans-serif" font-size="14" lengthAdjust="spacing" textLength="94" x="20" y="80.1074">Store Manager</text><ellipse cx="70" cy="13.5" fill="#E3E3E3" rx="8" ry="8" style="stroke:#181818;stroke-width:0.5;"/><path d="M70,21.5 L70,48.5 M57,29.5 L83,29.5 M70,48.5 L57,63.5 M70,48.5 L83,63.5 " fill="none" style="stroke:#181818;stroke-width:0.5;"/><text fill="#000000" font-family="sans-serif" font-size="14" lengthAdjust="spacing" textLength="94" x="20" y="901.0137">Store Manager</text><ellipse cx="70" cy="913.0273" fill="#E3E3E3" rx="8" ry="8" style="stroke:#181818;stroke-width:0.5;"/><path d="M70,921.0273 L70,948.0273 M57,929.0273 L83,929.0273 M70,948.0273 L57,963.0273 M70,948.0273 L83,963.0273 " fill="none" style="stroke:#181818;stroke-width:0.5;"/><rect fill="#E3E3E3" height="32.6211" rx="2.5" ry="2.5" style="stroke:#181818;stroke-width:0.5;" width="127" x="269.5" y="50"/><text fill="#000000" font-family="sans-serif" font-size="14" lengthAdjust="spacing" textLength="113" x="276.5" y="72.1074">:AnalyseDealsGUI</text><rect fill="#E3E3E3" height="32.6211" rx="2.5" ry="2.5" style="stroke:#181818;stroke-width:0.5;" width="127" x="269.5" y="885.9063"/><text fill="#000000" font-family="sans-serif" font-size="14" lengthAdjust="spacing" textLength="113" x="276.5" y="908.0137">:AnalyseDealsGUI</text><rect fill="#E3E3E3" height="32.6211" rx="2.5" ry="2.5" style="stroke:#181818;stroke-width:0.5;" width="166" x="409" y="885.9063"/><text fill="#000000" font-family="sans-serif" font-size="14" lengthAdjust="spacing" textLength="152" x="416" y="908.0137">:AnalyseDealsController</text><rect fill="#E3E3E3" height="32.6211" rx="2.5" ry="2.5" style="stroke:#181818;stroke-width:0.5;" width="97" x="631.5" y="50"/><text fill="#000000" font-family="sans-serif" font-size="14" lengthAdjust="spacing" textLength="83" x="638.5" y="72.1074">:Repositories</text><rect fill="#E3E3E3" height="32.6211" rx="2.5" ry="2.5" style="stroke:#181818;stroke-width:0.5;" width="97" x="631.5" y="885.9063"/><text fill="#000000" font-family="sans-serif" font-size="14" lengthAdjust="spacing" textLength="83" x="638.5" y="908.0137">:Repositories</text><rect fill="#E3E3E3" height="51.2422" rx="2.5" ry="2.5" style="stroke:#181818;stroke-width:0.5;" width="97" x="738.5" y="31.3789"/><text fill="#000000" font-family="sans-serif" font-size="14" lengthAdjust="spacing" textLength="74" x="750" y="53.4863">repositories</text><text fill="#000000" font-family="sans-serif" font-size="14" lengthAdjust="spacing" textLength="83" x="745.5" y="72.1074">:Repositories</text><rect fill="#E3E3E3" height="51.2422" rx="2.5" ry="2.5" style="stroke:#181818;stroke-width:0.5;" width="97" x="738.5" y="885.9063"/><text fill="#000000" font-family="sans-serif" font-size="14" lengthAdjust="spacing" textLength="74" x="750" y="908.0137">repositories</text><text fill="#000000" font-family="sans-serif" font-size="14" lengthAdjust="spacing" textLength="83" x="745.5" y="926.6348">:Repositories</text><rect fill="#E3E3E3" height="51.2422" rx="2.5" ry="2.5" style="stroke:#181818;stroke-width:0.5;" width="183" x="845.5" y="31.3789"/><text fill="#000000" font-family="sans-serif" font-size="14" lengthAdjust="spacing" textLength="161" x="856.5" y="53.4863">purchaseorderRepository</text><text fill="#000000" font-family="sans-serif" font-size="14" lengthAdjust="spacing" textLength="169" x="852.5" y="72.1074">:PurchaseOrderRepository</text><rect fill="#E3E3E3" height="51.2422" rx="2.5" ry="2.5" style="stroke:#181818;stroke-width:0.5;" width="183" x="845.5" y="885.9063"/><text fill="#000000" font-family="sans-serif" font-size="14" lengthAdjust="spacing" textLength="161" x="856.5" y="908.0137">purchaseorderRepository</text><text fill="#000000" font-family="sans-serif" font-size="14" lengthAdjust="spacing" textLength="169" x="852.5" y="926.6348">:PurchaseOrderRepository</text><rect fill="#FFFFFF" height="784.2852" style="stroke:#181818;stroke-width:1.0;" width="10" x="65" y="93.6211"/><rect fill="#FFFFFF" height="760.9941" style="stroke:#181818;stroke-width:1.0;" width="10" x="328" y="116.9121"/><rect fill="#FFFFFF" height="455.7441" style="stroke:#181818;stroke-width:1.0;" width="10" x="487" y="381.8711"/><rect fill="#FFFFFF" height="31.291" style="stroke:#181818;stroke-width:1.0;" width="10" x="675" y="415.4922"/><rect fill="#FFFFFF" height="31.291" style="stroke:#181818;stroke-width:1.0;" width="10" x="782" y="478.0742"/><rect fill="#FFFFFF" height="31.291" style="stroke:#181818;stroke-width:1.0;" width="10" x="932" y="540.6563"/><rect fill="#FFFFFF" height="31.291" style="stroke:#181818;stroke-width:1.0;" width="10" x="932" y="629.5293"/><polygon fill="#181818" points="316,112.9121,326,116.9121,316,120.9121,320,116.9121" style="stroke:#181818;stroke-width:1.0;"/><line style="stroke:#181818;stroke-width:1.0;" x1="75" x2="322" y1="116.9121" y2="116.9121"/><text fill="#000000" font-family="sans-serif" font-size="13" font-weight="bold" lengthAdjust="spacing" textLength="7" x="82" y="111.6494">1</text><text fill="#000000" font-family="sans-serif" font-size="13" lengthAdjust="spacing" textLength="134" x="93" y="111.6494">requests analyse deals</text><polygon fill="#181818" points="86,161.4941,76,165.4941,86,169.4941,82,165.4941" style="stroke:#181818;stroke-width:1.0;"/><line style="stroke:#181818;stroke-width:1.0;" x1="80" x2="327" y1="165.4941" y2="165.4941"/><text fill="#000000" font-family="sans-serif" font-size="13" font-weight="bold" lengthAdjust="spacing" textLength="7" x="92" y="151.5859">2</text><text fill="#000000" font-family="sans-serif" font-size="13" lengthAdjust="spacing" textLength="174" x="103" y="142.9404">request to select simple linear</text><text fill="#000000" font-family="sans-serif" font-size="13" lengthAdjust="spacing" textLength="202" x="103" y="160.2314">regression or multilinear regression</text><path d="M10,180.4941 L71,180.4941 L71,189.7852 L61,199.7852 L10,199.7852 L10,180.4941 " fill="#EEEEEE" style="stroke:#000000;stroke-width:1.5;"/><rect fill="none" height="161.0859" style="stroke:#000000;stroke-width:1.5;" width="396.5" x="10" y="180.4941"/><text fill="#000000" font-family="sans-serif" font-size="13" font-weight="bold" lengthAdjust="spacing" textLength="16" x="25" y="195.5225">alt</text><text fill="#000000" font-family="sans-serif" font-size="11" font-weight="bold" lengthAdjust="spacing" textLength="145" x="86" y="194.3643">[simple linear regression]</text><polygon fill="#181818" points="316,219.0762,326,223.0762,316,227.0762,320,223.0762" style="stroke:#181818;stroke-width:1.0;"/><line style="stroke:#181818;stroke-width:1.0;" x1="75" x2="322" y1="223.0762" y2="223.0762"/><text fill="#000000" font-family="sans-serif" font-size="13" font-weight="bold" lengthAdjust="spacing" textLength="7" x="82" y="217.8135">3</text><text fill="#000000" font-family="sans-serif" font-size="13" lengthAdjust="spacing" textLength="183" x="93" y="217.8135">selects simple linear regression</text><polygon fill="#181818" points="86,250.3672,76,254.3672,86,258.3672,82,254.3672" style="stroke:#181818;stroke-width:1.0;"/><line style="stroke:#181818;stroke-width:1.0;" x1="80" x2="327" y1="254.3672" y2="254.3672"/><text fill="#000000" font-family="sans-serif" font-size="13" font-weight="bold" lengthAdjust="spacing" textLength="7" x="92" y="249.1045">4</text><text fill="#000000" font-family="sans-serif" font-size="13" lengthAdjust="spacing" textLength="218" x="103" y="249.1045">request to select independent variable</text><polygon fill="#181818" points="316,281.6582,326,285.6582,316,289.6582,320,285.6582" style="stroke:#181818;stroke-width:1.0;"/><line style="stroke:#181818;stroke-width:1.0;" x1="75" x2="322" y1="285.6582" y2="285.6582"/><text fill="#000000" font-family="sans-serif" font-size="13" font-weight="bold" lengthAdjust="spacing" textLength="7" x="82" y="280.3955">5</text><text fill="#000000" font-family="sans-serif" font-size="13" lengthAdjust="spacing" textLength="163" x="93" y="280.3955">selects independent variable</text><line style="stroke:#000000;stroke-width:1.0;stroke-dasharray:2.0,2.0;" x1="10" x2="406.5" y1="294.6582" y2="294.6582"/><text fill="#000000" font-family="sans-serif" font-size="11" font-weight="bold" lengthAdjust="spacing" textLength="132" x="15" y="306.5283">[multilinear regression]</text><polygon fill="#181818" points="316,329.5801,326,333.5801,316,337.5801,320,333.5801" style="stroke:#181818;stroke-width:1.0;"/><line style="stroke:#181818;stroke-width:1.0;" x1="75" x2="322" y1="333.5801" y2="333.5801"/><text fill="#000000" font-family="sans-serif" font-size="13" font-weight="bold" lengthAdjust="spacing" textLength="7" x="82" y="328.3174">6</text><text fill="#000000" font-family="sans-serif" font-size="13" lengthAdjust="spacing" textLength="169" x="93" y="328.3174">selects multilinear regression</text><polygon fill="#181818" points="397,367.8711,407,371.8711,397,375.8711,401,371.8711" style="stroke:#181818;stroke-width:1.0;"/><line style="stroke:#181818;stroke-width:1.0;" x1="338" x2="403" y1="371.8711" y2="371.8711"/><text fill="#000000" font-family="sans-serif" font-size="13" font-weight="bold" lengthAdjust="spacing" textLength="7" x="345" y="366.6084">7</text><text fill="#000000" font-family="sans-serif" font-size="13" lengthAdjust="spacing" textLength="36" x="356" y="366.6084">create</text><rect fill="#E3E3E3" height="32.6211" rx="2.5" ry="2.5" style="stroke:#181818;stroke-width:0.5;" width="166" x="409" y="348.5801"/><text fill="#000000" font-family="sans-serif" font-size="14" lengthAdjust="spacing" textLength="152" x="416" y="370.6875">:AnalyseDealsController</text><polygon fill="#181818" points="663,411.4922,673,415.4922,663,419.4922,667,415.4922" style="stroke:#181818;stroke-width:1.0;"/><line style="stroke:#181818;stroke-width:1.0;" x1="497" x2="669" y1="415.4922" y2="415.4922"/><text fill="#000000" font-family="sans-serif" font-size="13" font-weight="bold" lengthAdjust="spacing" textLength="7" x="504" y="410.2295">8</text><text fill="#000000" font-family="sans-serif" font-size="13" lengthAdjust="spacing" textLength="75" x="515" y="410.2295">getInstance()</text><polygon fill="#181818" points="508,442.7832,498,446.7832,508,450.7832,504,446.7832" style="stroke:#181818;stroke-width:1.0;"/><line style="stroke:#181818;stroke-width:1.0;stroke-dasharray:2.0,2.0;" x1="502" x2="679" y1="446.7832" y2="446.7832"/><text fill="#000000" font-family="sans-serif" font-size="13" font-weight="bold" lengthAdjust="spacing" textLength="7" x="514" y="441.5205">9</text><text fill="#000000" font-family="sans-serif" font-size="13" lengthAdjust="spacing" textLength="67" x="525" y="441.5205">repositories</text><polygon fill="#181818" points="770,474.0742,780,478.0742,770,482.0742,774,478.0742" style="stroke:#181818;stroke-width:1.0;"/><line style="stroke:#181818;stroke-width:1.0;" x1="497" x2="776" y1="478.0742" y2="478.0742"/><text fill="#000000" font-family="sans-serif" font-size="13" font-weight="bold" lengthAdjust="spacing" textLength="14" x="504" y="472.8115">10</text><text fill="#000000" font-family="sans-serif" font-size="13" lengthAdjust="spacing" textLength="175" x="522" y="472.8115">getPurchaseOrderRepository()</text><polygon fill="#181818" points="508,505.3652,498,509.3652,508,513.3652,504,509.3652" style="stroke:#181818;stroke-width:1.0;"/><line style="stroke:#181818;stroke-width:1.0;stroke-dasharray:2.0,2.0;" x1="502" x2="786" y1="509.3652" y2="509.3652"/><text fill="#000000" font-family="sans-serif" font-size="13" font-weight="bold" lengthAdjust="spacing" textLength="14" x="514" y="504.1025">11</text><text fill="#000000" font-family="sans-serif" font-size="13" lengthAdjust="spacing" textLength="147" x="532" y="504.1025">purchaseOrderRepository</text><polygon fill="#181818" points="920,536.6563,930,540.6563,920,544.6563,924,540.6563" style="stroke:#181818;stroke-width:1.0;"/><line style="stroke:#181818;stroke-width:1.0;" x1="497" x2="926" y1="540.6563" y2="540.6563"/><text fill="#000000" font-family="sans-serif" font-size="13" font-weight="bold" lengthAdjust="spacing" textLength="14" x="504" y="535.3936">12</text><text fill="#000000" font-family="sans-serif" font-size="13" lengthAdjust="spacing" textLength="183" x="522" y="535.3936">getAllPurchaseOrderAccepted()</text><polygon fill="#181818" points="508,567.9473,498,571.9473,508,575.9473,504,571.9473" style="stroke:#181818;stroke-width:1.0;"/><line style="stroke:#181818;stroke-width:1.0;stroke-dasharray:2.0,2.0;" x1="502" x2="936" y1="571.9473" y2="571.9473"/><text fill="#000000" font-family="sans-serif" font-size="13" font-weight="bold" lengthAdjust="spacing" textLength="14" x="514" y="566.6846">13</text><text fill="#000000" font-family="sans-serif" font-size="13" lengthAdjust="spacing" textLength="155" x="532" y="566.6846">allPurchaseOrderAccepted</text><path d="M389,586.9473 L462,586.9473 L462,596.2383 L452,606.2383 L389,606.2383 L389,586.9473 " fill="#EEEEEE" style="stroke:#000000;stroke-width:1.5;"/><rect fill="none" height="220.377" style="stroke:#000000;stroke-width:1.5;" width="649.5" x="389" y="586.9473"/><text fill="#000000" font-family="sans-serif" font-size="13" font-weight="bold" lengthAdjust="spacing" textLength="28" x="404" y="601.9756">loop</text><text fill="#000000" font-family="sans-serif" font-size="11" font-weight="bold" lengthAdjust="spacing" textLength="195" x="477" y="600.8174">[for each accepted purchase order]</text><polygon fill="#181818" points="920,625.5293,930,629.5293,920,633.5293,924,629.5293" style="stroke:#181818;stroke-width:1.0;"/><line style="stroke:#181818;stroke-width:1.0;" x1="497" x2="926" y1="629.5293" y2="629.5293"/><text fill="#000000" font-family="sans-serif" font-size="13" font-weight="bold" lengthAdjust="spacing" textLength="14" x="504" y="624.2666">14</text><text fill="#000000" font-family="sans-serif" font-size="13" lengthAdjust="spacing" textLength="162" x="522" y="624.2666">getPurchaseOrderProperty()</text><polygon fill="#181818" points="508,656.8203,498,660.8203,508,664.8203,504,660.8203" style="stroke:#181818;stroke-width:1.0;"/><line style="stroke:#181818;stroke-width:1.0;stroke-dasharray:2.0,2.0;" x1="502" x2="936" y1="660.8203" y2="660.8203"/><text fill="#000000" font-family="sans-serif" font-size="13" font-weight="bold" lengthAdjust="spacing" textLength="14" x="514" y="655.5576">15</text><text fill="#000000" font-family="sans-serif" font-size="13" lengthAdjust="spacing" textLength="47" x="532" y="655.5576">property</text><path d="M399,675.8203 L460,675.8203 L460,685.1113 L450,695.1113 L399,695.1113 L399,675.8203 " fill="#EEEEEE" style="stroke:#000000;stroke-width:1.5;"/><rect fill="none" height="124.5039" style="stroke:#000000;stroke-width:1.5;" width="281" x="399" y="675.8203"/><text fill="#000000" font-family="sans-serif" font-size="13" font-weight="bold" lengthAdjust="spacing" textLength="16" x="414" y="690.8486">alt</text><text fill="#000000" font-family="sans-serif" font-size="11" font-weight="bold" lengthAdjust="spacing" textLength="145" x="475" y="689.6904">[simple linear regression]</text><line style="stroke:#181818;stroke-width:1.0;" x1="497" x2="539" y1="718.4023" y2="718.4023"/><line style="stroke:#181818;stroke-width:1.0;" x1="539" x2="539" y1="718.4023" y2="731.4023"/><line style="stroke:#181818;stroke-width:1.0;" x1="498" x2="539" y1="731.4023" y2="731.4023"/><polygon fill="#181818" points="508,727.4023,498,731.4023,508,735.4023,504,731.4023" style="stroke:#181818;stroke-width:1.0;"/><text fill="#000000" font-family="sans-serif" font-size="13" font-weight="bold" lengthAdjust="spacing" textLength="14" x="504" y="713.1396">16</text><text fill="#000000" font-family="sans-serif" font-size="13" lengthAdjust="spacing" textLength="146" x="522" y="713.1396">simpleLinearRegression()</text><line style="stroke:#000000;stroke-width:1.0;stroke-dasharray:2.0,2.0;" x1="399" x2="680" y1="740.4023" y2="740.4023"/><text fill="#000000" font-family="sans-serif" font-size="11" font-weight="bold" lengthAdjust="spacing" textLength="132" x="404" y="752.2725">[multilinear regression]</text><line style="stroke:#181818;stroke-width:1.0;" x1="497" x2="539" y1="779.3242" y2="779.3242"/><line style="stroke:#181818;stroke-width:1.0;" x1="539" x2="539" y1="779.3242" y2="792.3242"/><line style="stroke:#181818;stroke-width:1.0;" x1="498" x2="539" y1="792.3242" y2="792.3242"/><polygon fill="#181818" points="508,788.3242,498,792.3242,508,796.3242,504,792.3242" style="stroke:#181818;stroke-width:1.0;"/><text fill="#000000" font-family="sans-serif" font-size="13" font-weight="bold" lengthAdjust="spacing" textLength="14" x="504" y="774.0615">17</text><text fill="#000000" font-family="sans-serif" font-size="13" lengthAdjust="spacing" textLength="132" x="522" y="774.0615">multilinearRegression()</text><polygon fill="#181818" points="349,833.6152,339,837.6152,349,841.6152,345,837.6152" style="stroke:#181818;stroke-width:1.0;"/><line style="stroke:#181818;stroke-width:1.0;stroke-dasharray:2.0,2.0;" x1="343" x2="491" y1="837.6152" y2="837.6152"/><text fill="#000000" font-family="sans-serif" font-size="13" font-weight="bold" lengthAdjust="spacing" textLength="14" x="355" y="832.3525">18</text><text fill="#000000" font-family="sans-serif" font-size="13" lengthAdjust="spacing" textLength="106" x="373" y="832.3525">analysedDealsList</text><polygon fill="#181818" points="86,864.9063,76,868.9063,86,872.9063,82,868.9063" style="stroke:#181818;stroke-width:1.0;"/><line style="stroke:#181818;stroke-width:1.0;" x1="80" x2="327" y1="868.9063" y2="868.9063"/><text fill="#000000" font-family="sans-serif" font-size="13" font-weight="bold" lengthAdjust="spacing" textLength="14" x="92" y="863.6436">19</text><text fill="#000000" font-family="sans-serif" font-size="13" lengthAdjust="spacing" textLength="128" x="110" y="863.6436">shows analysed deals</text><!--SRC=[XLHDRzim3BthLn2vh2tGvUx3W603XW8TLcJOhHTLPcrXigHHT8ly-r6A4iTPd1emOuYFZnzwpAUUEQPclOvEUnu7zzc4OPtmxuZUu7rhTKTwK2hziJvg-OGX-61w2WC2quWddjJhDhnRty6hTWcL7ZduSNX1KaeR3WIhNs8HVcYlEwGLw0JouLa90LjZezG0gsRZjTib_8P2y_ttGy5rexs2-XeyKt2kaXecfzGPVein92i5M4m5HVbW3g8JpBDV2Aa7yyWuakbrma0jqZ5k9oHFrVDpxYbyCMnLVcGyzaqprd4K2_TVSjUD99NRI2opsdSCRMvvYicZaJVZI-0n0ZX0GeU68TaXEWHdFMg2Pq_O4QPaWmUvbs5qRAjlyaXPxZnovfrLkK-Khk0_gj7w5YEA4TOtJLQ_E5pASXcB8hlbPYuIBQ65ErzChJaBwkwk0KCe4vz6NuIMJGOLSJJG8J_un5hsv-PsWkxLHiWZ-RcEvWJrjF0iI4TeptWFL9K-NevJKoeHNicmSMwMP6CCHiRsvXQc57kLLcwz4A6K2o72gyW9jUb1r_DZCL1Mu_yIPcnF528IxqudLz8VEgl-ZxHvI99_cufxBB3j4PN7U5KnSv8Jr1b7baenXn7jzxGjVqsFDl6vzbCVte_htDPz_WS0]--></g></svg>