<?xml version="1.0" encoding="UTF-8" standalone="no"?><svg xmlns="http://www.w3.org/2000/svg" xmlns:xlink="http://www.w3.org/1999/xlink" contentStyleType="text/css" height="453px" preserveAspectRatio="none" style="width:357px;height:453px;background:#FFFFFF;" version="1.1" viewBox="0 0 357 453" width="357px" zoomAndPan="magnify"><defs/><g><!--MD5=[6d7d587a021629470fd0d5f8ef3407c9]
class Branch--><g id="elem_Branch"><rect codeLine="2" fill="#F1F1F1" height="153.6563" id="Branch" rx="2.5" ry="2.5" style="stroke:#181818;stroke-width:0.5;" width="134" x="36" y="293"/><ellipse cx="76.65" cy="309" fill="#ADD1B2" rx="11" ry="11" style="stroke:#181818;stroke-width:1.0;"/><path d="M79.4156,304.875 Q79.5719,304.6563 79.7594,304.5469 Q79.9469,304.4375 80.1656,304.4375 Q80.5406,304.4375 80.775,304.6953 Q81.0094,304.9531 81.0094,305.5625 L81.0094,307.0156 Q81.0094,307.625 80.775,307.8906 Q80.5406,308.1563 80.1656,308.1563 Q79.8219,308.1563 79.6188,307.9531 Q79.4156,307.7656 79.3063,307.25 Q79.2594,306.8906 79.0719,306.7031 Q78.7438,306.3281 78.1344,306.1094 Q77.525,305.8906 76.9,305.8906 Q76.1344,305.8906 75.5016,306.2188 Q74.8688,306.5469 74.3766,307.2969 Q73.8844,308.0469 73.8844,309.0781 L73.8844,310.1719 Q73.8844,311.4063 74.775,312.2266 Q75.6656,313.0469 77.2594,313.0469 Q78.1969,313.0469 78.8531,312.7969 Q79.2438,312.6406 79.6656,312.2031 Q79.9313,311.9375 80.0797,311.8594 Q80.2281,311.7813 80.4313,311.7813 Q80.7594,311.7813 81.0172,312.0391 Q81.275,312.2969 81.275,312.6406 Q81.275,312.9844 80.9313,313.3906 Q80.4313,313.9688 79.6344,314.2969 Q78.5563,314.75 77.2594,314.75 Q75.7438,314.75 74.5406,314.125 Q73.5563,313.625 72.8688,312.5547 Q72.1813,311.4844 72.1813,310.2031 L72.1813,309.0469 Q72.1813,307.7188 72.7984,306.5703 Q73.4156,305.4219 74.5094,304.8047 Q75.6031,304.1875 76.8375,304.1875 Q77.5719,304.1875 78.2203,304.3516 Q78.8688,304.5156 79.4156,304.875 Z " fill="#000000"/><text fill="#000000" font-family="sans-serif" font-size="14" lengthAdjust="spacing" textLength="45" x="96.35" y="314.7285">Branch</text><line style="stroke:#181818;stroke-width:0.5;" x1="37" x2="169" y1="325" y2="325"/><rect fill="none" height="6" style="stroke:#C82930;stroke-width:1.0;" width="6" x="44" y="336.3047"/><text fill="#000000" font-family="sans-serif" font-size="14" lengthAdjust="spacing" textLength="32" x="56" y="343.5332">int ID</text><rect fill="none" height="6" style="stroke:#C82930;stroke-width:1.0;" width="6" x="44" y="353.9141"/><text fill="#000000" font-family="sans-serif" font-size="14" lengthAdjust="spacing" textLength="76" x="56" y="361.1426">String name</text><rect fill="none" height="6" style="stroke:#C82930;stroke-width:1.0;" width="6" x="44" y="371.5234"/><text fill="#000000" font-family="sans-serif" font-size="14" lengthAdjust="spacing" textLength="90" x="56" y="378.752">String location</text><rect fill="none" height="6" style="stroke:#C82930;stroke-width:1.0;" width="6" x="44" y="389.1328"/><text fill="#000000" font-family="sans-serif" font-size="14" lengthAdjust="spacing" textLength="108" x="56" y="396.3613">int phoneNumber</text><rect fill="none" height="6" style="stroke:#C82930;stroke-width:1.0;" width="6" x="44" y="406.7422"/><text fill="#000000" font-family="sans-serif" font-size="14" lengthAdjust="spacing" textLength="74" x="56" y="413.9707">String email</text><line style="stroke:#181818;stroke-width:0.5;" x1="37" x2="169" y1="421.0469" y2="421.0469"/><ellipse cx="47" cy="435.3516" fill="#84BE84" rx="3" ry="3" style="stroke:#038048;stroke-width:1.0;"/><text fill="#000000" font-family="sans-serif" font-size="14" lengthAdjust="spacing" textLength="85" x="56" y="439.5801">saveBranch()</text></g><!--MD5=[573d97bd10418ae9b9c764c7635b85fd]
class RegisterBranchUI--><g id="elem_RegisterBranchUI"><rect codeLine="14" fill="#F1F1F1" height="83.2188" id="RegisterBranchUI" rx="2.5" ry="2.5" style="stroke:#181818;stroke-width:0.5;" width="142" x="32" y="7"/><ellipse cx="47" cy="23" fill="#ADD1B2" rx="11" ry="11" style="stroke:#181818;stroke-width:1.0;"/><path d="M49.7656,18.875 Q49.9219,18.6563 50.1094,18.5469 Q50.2969,18.4375 50.5156,18.4375 Q50.8906,18.4375 51.125,18.6953 Q51.3594,18.9531 51.3594,19.5625 L51.3594,21.0156 Q51.3594,21.625 51.125,21.8906 Q50.8906,22.1563 50.5156,22.1563 Q50.1719,22.1563 49.9688,21.9531 Q49.7656,21.7656 49.6563,21.25 Q49.6094,20.8906 49.4219,20.7031 Q49.0938,20.3281 48.4844,20.1094 Q47.875,19.8906 47.25,19.8906 Q46.4844,19.8906 45.8516,20.2188 Q45.2188,20.5469 44.7266,21.2969 Q44.2344,22.0469 44.2344,23.0781 L44.2344,24.1719 Q44.2344,25.4063 45.125,26.2266 Q46.0156,27.0469 47.6094,27.0469 Q48.5469,27.0469 49.2031,26.7969 Q49.5938,26.6406 50.0156,26.2031 Q50.2813,25.9375 50.4297,25.8594 Q50.5781,25.7813 50.7813,25.7813 Q51.1094,25.7813 51.3672,26.0391 Q51.625,26.2969 51.625,26.6406 Q51.625,26.9844 51.2813,27.3906 Q50.7813,27.9688 49.9844,28.2969 Q48.9063,28.75 47.6094,28.75 Q46.0938,28.75 44.8906,28.125 Q43.9063,27.625 43.2188,26.5547 Q42.5313,25.4844 42.5313,24.2031 L42.5313,23.0469 Q42.5313,21.7188 43.1484,20.5703 Q43.7656,19.4219 44.8594,18.8047 Q45.9531,18.1875 47.1875,18.1875 Q47.9219,18.1875 48.5703,18.3516 Q49.2188,18.5156 49.7656,18.875 Z " fill="#000000"/><text fill="#000000" font-family="sans-serif" font-size="14" lengthAdjust="spacing" textLength="110" x="61" y="28.7285">RegisterBranchUI</text><line style="stroke:#181818;stroke-width:0.5;" x1="33" x2="173" y1="39" y2="39"/><rect fill="none" height="6" style="stroke:#C82930;stroke-width:1.0;" width="6" x="40" y="50.3047"/><text fill="#000000" font-family="sans-serif" font-size="14" lengthAdjust="spacing" textLength="59" x="52" y="57.5332">controller</text><line style="stroke:#181818;stroke-width:0.5;" x1="33" x2="173" y1="64.6094" y2="64.6094"/><ellipse cx="43" cy="78.9141" fill="#84BE84" rx="3" ry="3" style="stroke:#038048;stroke-width:1.0;"/><text fill="#000000" font-family="sans-serif" font-size="14" lengthAdjust="spacing" textLength="103" x="52" y="83.1426">registerBranch()</text></g><!--MD5=[66a1a26088825eeccf8833cb28e1be92]
class RegisterBranchController--><g id="elem_RegisterBranchController"><rect codeLine="21" fill="#F1F1F1" height="83.2188" id="RegisterBranchController" rx="2.5" ry="2.5" style="stroke:#181818;stroke-width:0.5;" width="192" x="7" y="150"/><ellipse cx="22" cy="166" fill="#ADD1B2" rx="11" ry="11" style="stroke:#181818;stroke-width:1.0;"/><path d="M24.7656,161.875 Q24.9219,161.6563 25.1094,161.5469 Q25.2969,161.4375 25.5156,161.4375 Q25.8906,161.4375 26.125,161.6953 Q26.3594,161.9531 26.3594,162.5625 L26.3594,164.0156 Q26.3594,164.625 26.125,164.8906 Q25.8906,165.1563 25.5156,165.1563 Q25.1719,165.1563 24.9688,164.9531 Q24.7656,164.7656 24.6563,164.25 Q24.6094,163.8906 24.4219,163.7031 Q24.0938,163.3281 23.4844,163.1094 Q22.875,162.8906 22.25,162.8906 Q21.4844,162.8906 20.8516,163.2188 Q20.2188,163.5469 19.7266,164.2969 Q19.2344,165.0469 19.2344,166.0781 L19.2344,167.1719 Q19.2344,168.4063 20.125,169.2266 Q21.0156,170.0469 22.6094,170.0469 Q23.5469,170.0469 24.2031,169.7969 Q24.5938,169.6406 25.0156,169.2031 Q25.2813,168.9375 25.4297,168.8594 Q25.5781,168.7813 25.7813,168.7813 Q26.1094,168.7813 26.3672,169.0391 Q26.625,169.2969 26.625,169.6406 Q26.625,169.9844 26.2813,170.3906 Q25.7813,170.9688 24.9844,171.2969 Q23.9063,171.75 22.6094,171.75 Q21.0938,171.75 19.8906,171.125 Q18.9063,170.625 18.2188,169.5547 Q17.5313,168.4844 17.5313,167.2031 L17.5313,166.0469 Q17.5313,164.7188 18.1484,163.5703 Q18.7656,162.4219 19.8594,161.8047 Q20.9531,161.1875 22.1875,161.1875 Q22.9219,161.1875 23.5703,161.3516 Q24.2188,161.5156 24.7656,161.875 Z " fill="#000000"/><text fill="#000000" font-family="sans-serif" font-size="14" lengthAdjust="spacing" textLength="160" x="36" y="171.7285">RegisterBranchController</text><line style="stroke:#181818;stroke-width:0.5;" x1="8" x2="198" y1="182" y2="182"/><rect fill="none" height="6" style="stroke:#C82930;stroke-width:1.0;" width="6" x="15" y="193.3047"/><text fill="#000000" font-family="sans-serif" font-size="14" lengthAdjust="spacing" textLength="112" x="27" y="200.5332">branchRepository</text><line style="stroke:#181818;stroke-width:0.5;" x1="8" x2="198" y1="207.6094" y2="207.6094"/><ellipse cx="18" cy="221.9141" fill="#84BE84" rx="3" ry="3" style="stroke:#038048;stroke-width:1.0;"/><text fill="#000000" font-family="sans-serif" font-size="14" lengthAdjust="spacing" textLength="95" x="27" y="226.1426">createBranch()</text></g><!--MD5=[d7cd06450716df339ae06bc8cd34d632]
class BranchRepository--><g id="elem_BranchRepository"><rect codeLine="27" fill="#F1F1F1" height="48" id="BranchRepository" rx="2.5" ry="2.5" style="stroke:#181818;stroke-width:0.5;" width="145" x="205.5" y="346"/><ellipse cx="220.5" cy="362" fill="#ADD1B2" rx="11" ry="11" style="stroke:#181818;stroke-width:1.0;"/><path d="M223.2656,357.875 Q223.4219,357.6563 223.6094,357.5469 Q223.7969,357.4375 224.0156,357.4375 Q224.3906,357.4375 224.625,357.6953 Q224.8594,357.9531 224.8594,358.5625 L224.8594,360.0156 Q224.8594,360.625 224.625,360.8906 Q224.3906,361.1563 224.0156,361.1563 Q223.6719,361.1563 223.4688,360.9531 Q223.2656,360.7656 223.1563,360.25 Q223.1094,359.8906 222.9219,359.7031 Q222.5938,359.3281 221.9844,359.1094 Q221.375,358.8906 220.75,358.8906 Q219.9844,358.8906 219.3516,359.2188 Q218.7188,359.5469 218.2266,360.2969 Q217.7344,361.0469 217.7344,362.0781 L217.7344,363.1719 Q217.7344,364.4063 218.625,365.2266 Q219.5156,366.0469 221.1094,366.0469 Q222.0469,366.0469 222.7031,365.7969 Q223.0938,365.6406 223.5156,365.2031 Q223.7813,364.9375 223.9297,364.8594 Q224.0781,364.7813 224.2813,364.7813 Q224.6094,364.7813 224.8672,365.0391 Q225.125,365.2969 225.125,365.6406 Q225.125,365.9844 224.7813,366.3906 Q224.2813,366.9688 223.4844,367.2969 Q222.4063,367.75 221.1094,367.75 Q219.5938,367.75 218.3906,367.125 Q217.4063,366.625 216.7188,365.5547 Q216.0313,364.4844 216.0313,363.2031 L216.0313,362.0469 Q216.0313,360.7188 216.6484,359.5703 Q217.2656,358.4219 218.3594,357.8047 Q219.4531,357.1875 220.6875,357.1875 Q221.4219,357.1875 222.0703,357.3516 Q222.7188,357.5156 223.2656,357.875 Z " fill="#000000"/><text fill="#000000" font-family="sans-serif" font-size="14" lengthAdjust="spacing" textLength="113" x="234.5" y="367.7285">BranchRepository</text><line style="stroke:#181818;stroke-width:0.5;" x1="206.5" x2="349.5" y1="378" y2="378"/><line style="stroke:#181818;stroke-width:0.5;" x1="206.5" x2="349.5" y1="386" y2="386"/></g><!--MD5=[53ae8b34bebe44116eb8626f99f3fe78]
class Runnable--><g id="elem_Runnable"><rect codeLine="35" fill="#F1F1F1" height="65.6094" id="Runnable" rx="2.5" ry="2.5" style="stroke:#181818;stroke-width:0.5;" width="93" x="209.5" y="15.5"/><ellipse cx="224.5" cy="31.5" fill="#B4A7E5" rx="11" ry="11" style="stroke:#181818;stroke-width:1.0;"/><path d="M225.4531,28.1406 L225.4531,34.7969 L227.1719,34.7969 Q227.7813,34.7969 228.0469,35.0313 Q228.3125,35.2656 228.3125,35.6563 Q228.3125,36.0313 228.0469,36.2656 Q227.7813,36.5 227.1719,36.5 L222.0313,36.5 Q221.4219,36.5 221.1563,36.2656 Q220.8906,36.0313 220.8906,35.6406 Q220.8906,35.2656 221.1563,35.0313 Q221.4219,34.7969 222.0313,34.7969 L223.75,34.7969 L223.75,28.1406 L222.0313,28.1406 Q221.4219,28.1406 221.1563,27.9063 Q220.8906,27.6719 220.8906,27.2813 Q220.8906,26.9063 221.1563,26.6719 Q221.4219,26.4375 222.0313,26.4375 L227.1719,26.4375 Q227.7813,26.4375 228.0469,26.6719 Q228.3125,26.9063 228.3125,27.2813 Q228.3125,27.6719 228.0469,27.9063 Q227.7813,28.1406 227.1719,28.1406 L225.4531,28.1406 Z " fill="#000000"/><text fill="#000000" font-family="sans-serif" font-size="14" font-style="italic" lengthAdjust="spacing" textLength="61" x="238.5" y="37.2285">Runnable</text><line style="stroke:#181818;stroke-width:0.5;" x1="210.5" x2="301.5" y1="47.5" y2="47.5"/><line style="stroke:#181818;stroke-width:0.5;" x1="210.5" x2="301.5" y1="55.5" y2="55.5"/><ellipse cx="220.5" cy="69.8047" fill="#84BE84" rx="3" ry="3" style="stroke:#038048;stroke-width:1.0;"/><text fill="#000000" font-family="sans-serif" font-size="14" lengthAdjust="spacing" textLength="31" x="229.5" y="74.0332">run()</text></g><!--MD5=[112dfd65bfeb960ec13940c4adddaa45]
reverse link RegisterBranchUI to Runnable--><g id="link_RegisterBranchUI_Runnable"><path codeLine="39" d="M194.19,48.5 C199.23,48.5 204.26,48.5 209.3,48.5 " fill="none" id="RegisterBranchUI-backto-Runnable" style="stroke:#181818;stroke-width:1.0;"/><polygon fill="none" points="194.12,55.5,174.12,48.5,194.12,41.5,194.12,55.5" style="stroke:#181818;stroke-width:1.0;"/></g><!--MD5=[7757b8a23bd3a4a42db7512d976d301b]
link RegisterBranchUI to RegisterBranchController--><g id="link_RegisterBranchUI_RegisterBranchController"><path codeLine="40" d="M103,90.28 C103,107.24 103,127 103,144.47 " fill="none" id="RegisterBranchUI-to-RegisterBranchController" style="stroke:#181818;stroke-width:1.0;"/><polygon fill="#181818" points="103,149.81,107,140.81,103,144.81,99,140.81,103,149.81" style="stroke:#181818;stroke-width:1.0;"/></g><!--MD5=[2a0c4dd630c4309f8c44fc29d60610f0]
link RegisterBranchController to Branch--><g id="link_RegisterBranchController_Branch"><path codeLine="41" d="M103,233.44 C103,249.63 103,268.85 103,287.64 " fill="none" id="RegisterBranchController-to-Branch" style="stroke:#181818;stroke-width:1.0;"/><polygon fill="#181818" points="103,292.93,107,283.93,103,287.93,99,283.93,103,292.93" style="stroke:#181818;stroke-width:1.0;"/></g><!--MD5=[20eedede0986e0757602d72f93252a6a]
link Branch to BranchRepository--><g id="link_Branch_BranchRepository"><path codeLine="42" d="M170.33,370 C180.24,370 190.15,370 200.06,370 " fill="none" id="Branch-to-BranchRepository" style="stroke:#181818;stroke-width:1.0;"/><polygon fill="#181818" points="205.24,370,196.24,366,200.24,370,196.24,374,205.24,370" style="stroke:#181818;stroke-width:1.0;"/></g><!--MD5=[11016a7137dbf3fecfbbdf916b86fa89]
@startuml

class Branch {

    - int ID
    - String name
    - String location
    - int phoneNumber
    - String email

    + saveBranch()

}

class RegisterBranchUI {

    - controller
    + registerBranch()

}

class RegisterBranchController {

    - branchRepository
    + createBranch()
}

class BranchRepository {


}




Interface Runnable {
    + run()
}

Runnable -left-|> RegisterBranchUI
RegisterBranchUI - -> RegisterBranchController
RegisterBranchController - -> Branch
Branch -right-> BranchRepository


@enduml

PlantUML version 1.2022.7(Mon Aug 22 18:01:30 BST 2022)
(GPL source distribution)
Java Runtime: Java(TM) SE Runtime Environment
JVM: Java HotSpot(TM) 64-Bit Server VM
Default Encoding: Cp1252
Language: pt
Country: PT
--></g></svg>