<?xml version="1.0" encoding="us-ascii" standalone="no"?><svg xmlns="http://www.w3.org/2000/svg" xmlns:xlink="http://www.w3.org/1999/xlink" contentStyleType="text/css" height="519.4px" preserveAspectRatio="none" style="width:643px;height:519px;background:#FFFFFF;" version="1.1" viewBox="0 0 643 519" width="644px" zoomAndPan="magnify"><defs/><g><text fill="#000000" font-family="sans-serif" font-size="9.8" font-weight="bold" lengthAdjust="spacing" textLength="102.2" x="266" y="17.5752">Class Diagram US010</text><!--class Runnable--><g id="elem_Runnable"><rect codeLine="4" fill="#F1F1F1" height="46.6348" id="Runnable" rx="1.75" ry="1.75" style="stroke:#181818;stroke-width:0.3499999999999999;" width="65.1" x="390.25" y="32.6348"/><ellipse cx="400.75" cy="43.8348" fill="#B4A7E5" rx="7.7" ry="7.7" style="stroke:#181818;stroke-width:0.6999999999999998;"/><path d="M401.4172,41.4832 L401.4172,46.1426 L402.6203,46.1426 Q403.0469,46.1426 403.2328,46.3066 Q403.4187,46.4707 403.4187,46.7441 Q403.4187,47.0066 403.2328,47.1707 Q403.0469,47.3348 402.6203,47.3348 L399.0219,47.3348 Q398.5953,47.3348 398.4094,47.1707 Q398.2234,47.0066 398.2234,46.7332 Q398.2234,46.4707 398.4094,46.3066 Q398.5953,46.1426 399.0219,46.1426 L400.225,46.1426 L400.225,41.4832 L399.0219,41.4832 Q398.5953,41.4832 398.4094,41.3191 Q398.2234,41.1551 398.2234,40.8816 Q398.2234,40.6191 398.4094,40.4551 Q398.5953,40.291 399.0219,40.291 L402.6203,40.291 Q403.0469,40.291 403.2328,40.4551 Q403.4187,40.6191 403.4187,40.8816 Q403.4187,41.1551 403.2328,41.3191 Q403.0469,41.4832 402.6203,41.4832 L401.4172,41.4832 Z " fill="#000000"/><text fill="#000000" font-family="sans-serif" font-size="9.8" font-style="italic" lengthAdjust="spacing" textLength="42.7" x="410.55" y="47.8926">Runnable</text><line style="stroke:#181818;stroke-width:0.3499999999999999;" x1="390.95" x2="454.65" y1="55.0348" y2="55.0348"/><line style="stroke:#181818;stroke-width:0.3499999999999999;" x1="390.95" x2="454.65" y1="60.6348" y2="60.6348"/><ellipse cx="397.95" cy="71.0021" fill="#84BE84" rx="2.1" ry="2.1" style="stroke:#038048;stroke-width:0.6999999999999998;"/><text fill="#000000" font-family="sans-serif" font-size="9.8" lengthAdjust="spacing" textLength="21.7" x="404.25" y="74.01">run()</text></g><!--class PlaceOrderToBuyPropertyUI--><g id="elem_PlaceOrderToBuyPropertyUI"><rect codeLine="9" fill="#F1F1F1" height="46.6348" id="PlaceOrderToBuyPropertyUI" rx="1.75" ry="1.75" style="stroke:#181818;stroke-width:0.3499999999999999;" width="147.7" x="218.05" y="32.6348"/><ellipse cx="228.55" cy="43.8348" fill="#ADD1B2" rx="7.7" ry="7.7" style="stroke:#181818;stroke-width:0.6999999999999998;"/><path d="M230.4859,40.9473 Q230.5953,40.7941 230.7266,40.7176 Q230.8578,40.641 231.0109,40.641 Q231.2734,40.641 231.4375,40.827 Q231.6016,41.002 231.6016,41.4285 L231.6016,42.4457 Q231.6016,42.8723 231.4375,43.0582 Q231.2734,43.2441 231.0109,43.2441 Q230.7703,43.2441 230.6281,43.102 Q230.4859,42.9707 230.4094,42.6098 Q230.3766,42.3582 230.2453,42.227 Q230.0156,41.9645 229.5891,41.8113 Q229.1625,41.6582 228.725,41.6582 Q228.1891,41.6582 227.7406,41.8879 Q227.3031,42.1176 226.9531,42.6426 Q226.6141,43.1676 226.6141,43.8895 L226.6141,44.6551 Q226.6141,45.5191 227.2375,46.0988 Q227.8609,46.6676 228.9766,46.6676 Q229.6328,46.6676 230.0922,46.4926 Q230.3656,46.3832 230.6609,46.077 Q230.8469,45.891 230.9453,45.8363 Q231.0547,45.7816 231.1969,45.7816 Q231.4266,45.7816 231.6016,45.9676 Q231.7875,46.1426 231.7875,46.3832 Q231.7875,46.6238 231.5469,46.9082 Q231.1969,47.3129 230.6391,47.5426 Q229.8844,47.8598 228.9766,47.8598 Q227.9156,47.8598 227.0734,47.4223 Q226.3844,47.0723 225.9031,46.3285 Q225.4219,45.5738 225.4219,44.677 L225.4219,43.8676 Q225.4219,42.9379 225.8484,42.1395 Q226.2859,41.3301 227.0516,40.9035 Q227.8172,40.466 228.6812,40.466 Q229.1953,40.466 229.6437,40.5863 Q230.1031,40.6957 230.4859,40.9473 Z " fill="#000000"/><text fill="#000000" font-family="sans-serif" font-size="9.8" lengthAdjust="spacing" textLength="125.3" x="238.35" y="47.8926">PlaceOrderToBuyPropertyUI</text><line style="stroke:#181818;stroke-width:0.3499999999999999;" x1="218.75" x2="365.05" y1="55.0348" y2="55.0348"/><rect fill="none" height="4.2" style="stroke:#C82930;stroke-width:0.6999999999999998;" width="4.2" x="223.65" y="63.3021"/><text fill="#000000" font-family="sans-serif" font-size="9.8" lengthAdjust="spacing" textLength="41.3" x="232.05" y="68.41">controller</text><line style="stroke:#181818;stroke-width:0.3499999999999999;" x1="218.75" x2="365.05" y1="73.6695" y2="73.6695"/></g><!--class PlaceOrderToBuyPropertyController--><g id="elem_PlaceOrderToBuyPropertyController"><rect codeLine="14" fill="#F1F1F1" height="72.7043" id="PlaceOrderToBuyPropertyController" rx="1.75" ry="1.75" style="stroke:#181818;stroke-width:0.3499999999999999;" width="182.7" x="200.55" y="121.5348"/><ellipse cx="211.05" cy="132.7348" fill="#ADD1B2" rx="7.7" ry="7.7" style="stroke:#181818;stroke-width:0.6999999999999998;"/><path d="M212.9859,129.8473 Q213.0953,129.6941 213.2266,129.6176 Q213.3578,129.541 213.5109,129.541 Q213.7734,129.541 213.9375,129.727 Q214.1016,129.902 214.1016,130.3285 L214.1016,131.3457 Q214.1016,131.7723 213.9375,131.9582 Q213.7734,132.1441 213.5109,132.1441 Q213.2703,132.1441 213.1281,132.002 Q212.9859,131.8707 212.9094,131.5098 Q212.8766,131.2582 212.7453,131.127 Q212.5156,130.8645 212.0891,130.7113 Q211.6625,130.5582 211.225,130.5582 Q210.6891,130.5582 210.2406,130.7879 Q209.8031,131.0176 209.4531,131.5426 Q209.1141,132.0676 209.1141,132.7895 L209.1141,133.5551 Q209.1141,134.4191 209.7375,134.9988 Q210.3609,135.5676 211.4766,135.5676 Q212.1328,135.5676 212.5922,135.3926 Q212.8656,135.2832 213.1609,134.977 Q213.3469,134.791 213.4453,134.7363 Q213.5547,134.6816 213.6969,134.6816 Q213.9266,134.6816 214.1016,134.8676 Q214.2875,135.0426 214.2875,135.2832 Q214.2875,135.5238 214.0469,135.8082 Q213.6969,136.2129 213.1391,136.4426 Q212.3844,136.7598 211.4766,136.7598 Q210.4156,136.7598 209.5734,136.3223 Q208.8844,135.9723 208.4031,135.2285 Q207.9219,134.4738 207.9219,133.577 L207.9219,132.7676 Q207.9219,131.8379 208.3484,131.0395 Q208.7859,130.2301 209.5516,129.8035 Q210.3172,129.366 211.1812,129.366 Q211.6953,129.366 212.1437,129.4863 Q212.6031,129.5957 212.9859,129.8473 Z " fill="#000000"/><text fill="#000000" font-family="sans-serif" font-size="9.8" lengthAdjust="spacing" textLength="160.3" x="220.85" y="136.7926">PlaceOrderToBuyPropertyController</text><line style="stroke:#181818;stroke-width:0.3499999999999999;" x1="201.25" x2="382.55" y1="143.9348" y2="143.9348"/><rect fill="none" height="4.2" style="stroke:#C82930;stroke-width:0.6999999999999998;" width="4.2" x="206.15" y="152.2021"/><text fill="#000000" font-family="sans-serif" font-size="9.8" lengthAdjust="spacing" textLength="71.4" x="214.55" y="157.31">orderRepository</text><line style="stroke:#181818;stroke-width:0.3499999999999999;" x1="201.25" x2="382.55" y1="162.5695" y2="162.5695"/><ellipse cx="208.25" cy="172.9369" fill="#84BE84" rx="2.1" ry="2.1" style="stroke:#038048;stroke-width:0.6999999999999998;"/><text fill="#000000" font-family="sans-serif" font-size="9.8" lengthAdjust="spacing" textLength="60.9" x="214.55" y="175.9447">createOrder()</text><ellipse cx="208.25" cy="185.9717" fill="#84BE84" rx="2.1" ry="2.1" style="stroke:#038048;stroke-width:0.6999999999999998;"/><text fill="#000000" font-family="sans-serif" font-size="9.8" lengthAdjust="spacing" textLength="102.9" x="214.55" y="188.9795">getAnnouncementList()</text></g><!--class Order--><g id="elem_Order"><rect codeLine="21" fill="#F1F1F1" height="85.7391" id="Order" rx="1.75" ry="1.75" style="stroke:#181818;stroke-width:0.3499999999999999;" width="84" x="385" y="255.9348"/><ellipse cx="411.565" cy="267.1348" fill="#ADD1B2" rx="7.7" ry="7.7" style="stroke:#181818;stroke-width:0.6999999999999998;"/><path d="M413.5009,264.2473 Q413.6103,264.0941 413.7416,264.0176 Q413.8728,263.941 414.0259,263.941 Q414.2884,263.941 414.4525,264.127 Q414.6166,264.302 414.6166,264.7285 L414.6166,265.7457 Q414.6166,266.1723 414.4525,266.3582 Q414.2884,266.5441 414.0259,266.5441 Q413.7853,266.5441 413.6431,266.402 Q413.5009,266.2707 413.4244,265.9098 Q413.3916,265.6582 413.2603,265.527 Q413.0306,265.2645 412.6041,265.1113 Q412.1775,264.9582 411.74,264.9582 Q411.2041,264.9582 410.7556,265.1879 Q410.3181,265.4176 409.9681,265.9426 Q409.6291,266.4676 409.6291,267.1895 L409.6291,267.9551 Q409.6291,268.8191 410.2525,269.3988 Q410.8759,269.9676 411.9916,269.9676 Q412.6478,269.9676 413.1072,269.7926 Q413.3806,269.6832 413.6759,269.377 Q413.8619,269.191 413.9603,269.1363 Q414.0697,269.0816 414.2119,269.0816 Q414.4416,269.0816 414.6166,269.2676 Q414.8025,269.4426 414.8025,269.6832 Q414.8025,269.9238 414.5619,270.2082 Q414.2119,270.6129 413.6541,270.8426 Q412.8994,271.1598 411.9916,271.1598 Q410.9306,271.1598 410.0884,270.7223 Q409.3994,270.3723 408.9181,269.6285 Q408.4369,268.8738 408.4369,267.977 L408.4369,267.1676 Q408.4369,266.2379 408.8634,265.4395 Q409.3009,264.6301 410.0666,264.2035 Q410.8322,263.766 411.6962,263.766 Q412.2103,263.766 412.6587,263.8863 Q413.1181,263.9957 413.5009,264.2473 Z " fill="#000000"/><text fill="#000000" font-family="sans-serif" font-size="9.8" lengthAdjust="spacing" textLength="25.9" x="424.935" y="271.1926">Order</text><line style="stroke:#181818;stroke-width:0.3499999999999999;" x1="385.7" x2="468.3" y1="278.3348" y2="278.3348"/><rect fill="none" height="4.2" style="stroke:#C82930;stroke-width:0.6999999999999998;" width="4.2" x="390.6" y="286.6021"/><text fill="#000000" font-family="sans-serif" font-size="9.8" lengthAdjust="spacing" textLength="23.1" x="399" y="291.71">client</text><rect fill="none" height="4.2" style="stroke:#C82930;stroke-width:0.6999999999999998;" width="4.2" x="390.6" y="299.6369"/><text fill="#000000" font-family="sans-serif" font-size="9.8" lengthAdjust="spacing" textLength="57.4" x="399" y="304.7447">orderAmount</text><rect fill="none" height="4.2" style="stroke:#C82930;stroke-width:0.6999999999999998;" width="4.2" x="390.6" y="312.6717"/><text fill="#000000" font-family="sans-serif" font-size="9.8" lengthAdjust="spacing" textLength="65.8" x="399" y="317.7795">announcement</text><rect fill="none" height="4.2" style="stroke:#C82930;stroke-width:0.6999999999999998;" width="4.2" x="390.6" y="325.7064"/><text fill="#000000" font-family="sans-serif" font-size="9.8" lengthAdjust="spacing" textLength="26.6" x="399" y="330.8143">status</text><line style="stroke:#181818;stroke-width:0.3499999999999999;" x1="385.7" x2="468.3" y1="336.0738" y2="336.0738"/></g><!--class PlaceOrderToBuyPropertyRepository--><g id="elem_PlaceOrderToBuyPropertyRepository"><rect codeLine="29" fill="#F1F1F1" height="111.8086" id="PlaceOrderToBuyPropertyRepository" rx="1.75" ry="1.75" style="stroke:#181818;stroke-width:0.3499999999999999;" width="186.9" x="254.45" y="402.9348"/><ellipse cx="264.95" cy="414.1348" fill="#ADD1B2" rx="7.7" ry="7.7" style="stroke:#181818;stroke-width:0.6999999999999998;"/><path d="M266.8859,411.2473 Q266.9953,411.0941 267.1266,411.0176 Q267.2578,410.941 267.4109,410.941 Q267.6734,410.941 267.8375,411.127 Q268.0016,411.302 268.0016,411.7285 L268.0016,412.7457 Q268.0016,413.1723 267.8375,413.3582 Q267.6734,413.5441 267.4109,413.5441 Q267.1703,413.5441 267.0281,413.402 Q266.8859,413.2707 266.8094,412.9098 Q266.7766,412.6582 266.6453,412.527 Q266.4156,412.2645 265.9891,412.1113 Q265.5625,411.9582 265.125,411.9582 Q264.5891,411.9582 264.1406,412.1879 Q263.7031,412.4176 263.3531,412.9426 Q263.0141,413.4676 263.0141,414.1895 L263.0141,414.9551 Q263.0141,415.8191 263.6375,416.3988 Q264.2609,416.9676 265.3766,416.9676 Q266.0328,416.9676 266.4922,416.7926 Q266.7656,416.6832 267.0609,416.377 Q267.2469,416.191 267.3453,416.1363 Q267.4547,416.0816 267.5969,416.0816 Q267.8266,416.0816 268.0016,416.2676 Q268.1875,416.4426 268.1875,416.6832 Q268.1875,416.9238 267.9469,417.2082 Q267.5969,417.6129 267.0391,417.8426 Q266.2844,418.1598 265.3766,418.1598 Q264.3156,418.1598 263.4734,417.7223 Q262.7844,417.3723 262.3031,416.6285 Q261.8219,415.8738 261.8219,414.977 L261.8219,414.1676 Q261.8219,413.2379 262.2484,412.4395 Q262.6859,411.6301 263.4516,411.2035 Q264.2172,410.766 265.0812,410.766 Q265.5953,410.766 266.0437,410.8863 Q266.5031,410.9957 266.8859,411.2473 Z " fill="#000000"/><text fill="#000000" font-family="sans-serif" font-size="9.8" lengthAdjust="spacing" textLength="164.5" x="274.75" y="418.1926">PlaceOrderToBuyPropertyRepository</text><line style="stroke:#181818;stroke-width:0.3499999999999999;" x1="255.15" x2="440.65" y1="425.3348" y2="425.3348"/><rect fill="none" height="4.2" style="stroke:#C82930;stroke-width:0.6999999999999998;" width="4.2" x="260.05" y="433.6021"/><text fill="#000000" font-family="sans-serif" font-size="9.8" lengthAdjust="spacing" textLength="39.2" x="268.45" y="438.71">orderList</text><line style="stroke:#181818;stroke-width:0.3499999999999999;" x1="255.15" x2="440.65" y1="443.9695" y2="443.9695"/><ellipse cx="262.15" cy="454.3369" fill="#84BE84" rx="2.1" ry="2.1" style="stroke:#038048;stroke-width:0.6999999999999998;"/><text fill="#000000" font-family="sans-serif" font-size="9.8" lengthAdjust="spacing" textLength="53.9" x="268.45" y="457.3447">seveOrder()</text><ellipse cx="262.15" cy="467.3717" fill="#84BE84" rx="2.1" ry="2.1" style="stroke:#038048;stroke-width:0.6999999999999998;"/><text fill="#000000" font-family="sans-serif" font-size="9.8" lengthAdjust="spacing" textLength="67.2" x="268.45" y="470.3795">validateOrder()</text><ellipse cx="262.15" cy="480.4064" fill="#84BE84" rx="2.1" ry="2.1" style="stroke:#038048;stroke-width:0.6999999999999998;"/><text fill="#000000" font-family="sans-serif" font-size="9.8" lengthAdjust="spacing" textLength="49.7" x="268.45" y="483.4143">addOrder()</text><ellipse cx="262.15" cy="493.4412" fill="#84BE84" rx="2.1" ry="2.1" style="stroke:#038048;stroke-width:0.6999999999999998;"/><text fill="#000000" font-family="sans-serif" font-size="9.8" lengthAdjust="spacing" textLength="62.3" x="268.45" y="496.449">getOrderList()</text><ellipse cx="262.15" cy="506.476" fill="#84BE84" rx="2.1" ry="2.1" style="stroke:#038048;stroke-width:0.6999999999999998;"/><text fill="#000000" font-family="sans-serif" font-size="9.8" lengthAdjust="spacing" textLength="104.3" x="268.45" y="509.4838">getOrdersListAsString()</text></g><!--class AnnouncementRepository--><g id="elem_AnnouncementRepository"><rect codeLine="39" fill="#F1F1F1" height="124.8434" id="AnnouncementRepository" rx="1.75" ry="1.75" style="stroke:#181818;stroke-width:0.3499999999999999;" width="149.8" x="161" y="236.3348"/><ellipse cx="177.485" cy="247.5348" fill="#ADD1B2" rx="7.7" ry="7.7" style="stroke:#181818;stroke-width:0.6999999999999998;"/><path d="M179.4209,244.6473 Q179.5303,244.4941 179.6616,244.4176 Q179.7928,244.341 179.9459,244.341 Q180.2084,244.341 180.3725,244.527 Q180.5366,244.702 180.5366,245.1285 L180.5366,246.1457 Q180.5366,246.5723 180.3725,246.7582 Q180.2084,246.9441 179.9459,246.9441 Q179.7053,246.9441 179.5631,246.802 Q179.4209,246.6707 179.3444,246.3098 Q179.3116,246.0582 179.1803,245.927 Q178.9506,245.6645 178.5241,245.5113 Q178.0975,245.3582 177.66,245.3582 Q177.1241,245.3582 176.6756,245.5879 Q176.2381,245.8176 175.8881,246.3426 Q175.5491,246.8676 175.5491,247.5895 L175.5491,248.3551 Q175.5491,249.2191 176.1725,249.7988 Q176.7959,250.3676 177.9116,250.3676 Q178.5678,250.3676 179.0272,250.1926 Q179.3006,250.0832 179.5959,249.777 Q179.7819,249.591 179.8803,249.5363 Q179.9897,249.4816 180.1319,249.4816 Q180.3616,249.4816 180.5366,249.6676 Q180.7225,249.8426 180.7225,250.0832 Q180.7225,250.3238 180.4819,250.6082 Q180.1319,251.0129 179.5741,251.2426 Q178.8194,251.5598 177.9116,251.5598 Q176.8506,251.5598 176.0084,251.1223 Q175.3194,250.7723 174.8381,250.0285 Q174.3569,249.2738 174.3569,248.377 L174.3569,247.5676 Q174.3569,246.6379 174.7834,245.8395 Q175.2209,245.0301 175.9866,244.6035 Q176.7522,244.166 177.6162,244.166 Q178.1303,244.166 178.5787,244.2863 Q179.0381,244.3957 179.4209,244.6473 Z " fill="#000000"/><text fill="#000000" font-family="sans-serif" font-size="9.8" lengthAdjust="spacing" textLength="114.1" x="188.615" y="251.5926">AnnouncementRepository</text><line style="stroke:#181818;stroke-width:0.3499999999999999;" x1="161.7" x2="310.1" y1="258.7348" y2="258.7348"/><line style="stroke:#181818;stroke-width:0.3499999999999999;" x1="161.7" x2="310.1" y1="264.3348" y2="264.3348"/><ellipse cx="168.7" cy="274.7021" fill="#84BE84" rx="2.1" ry="2.1" style="stroke:#038048;stroke-width:0.6999999999999998;"/><text fill="#000000" font-family="sans-serif" font-size="9.8" lengthAdjust="spacing" textLength="28" x="175" y="277.71">save()</text><ellipse cx="168.7" cy="287.7369" fill="#84BE84" rx="2.1" ry="2.1" style="stroke:#038048;stroke-width:0.6999999999999998;"/><text fill="#000000" font-family="sans-serif" font-size="9.8" lengthAdjust="spacing" textLength="101.5" x="175" y="290.7447">createAnnouncement()</text><ellipse cx="168.7" cy="300.7717" fill="#84BE84" rx="2.1" ry="2.1" style="stroke:#038048;stroke-width:0.6999999999999998;"/><text fill="#000000" font-family="sans-serif" font-size="9.8" lengthAdjust="spacing" textLength="107.8" x="175" y="303.7795">validateAnnouncement()</text><ellipse cx="168.7" cy="313.8064" fill="#84BE84" rx="2.1" ry="2.1" style="stroke:#038048;stroke-width:0.6999999999999998;"/><text fill="#000000" font-family="sans-serif" font-size="9.8" lengthAdjust="spacing" textLength="90.3" x="175" y="316.8143">addAnnouncement()</text><ellipse cx="168.7" cy="326.8412" fill="#84BE84" rx="2.1" ry="2.1" style="stroke:#038048;stroke-width:0.6999999999999998;"/><text fill="#000000" font-family="sans-serif" font-size="9.8" lengthAdjust="spacing" textLength="131.6" x="175" y="329.849">getAllVisibleAnnouncements()</text><ellipse cx="168.7" cy="339.876" fill="#84BE84" rx="2.1" ry="2.1" style="stroke:#038048;stroke-width:0.6999999999999998;"/><text fill="#000000" font-family="sans-serif" font-size="9.8" lengthAdjust="spacing" textLength="87.5" x="175" y="342.8838">getAvailableFields()</text><ellipse cx="168.7" cy="352.9107" fill="#84BE84" rx="2.1" ry="2.1" style="stroke:#038048;stroke-width:0.6999999999999998;"/><text fill="#000000" font-family="sans-serif" font-size="9.8" lengthAdjust="spacing" textLength="92.4" x="175" y="355.9186">getAnnouncements()</text></g><!--class AnnouncementDTO--><g id="elem_AnnouncementDTO"><rect codeLine="50" fill="#F1F1F1" height="85.7391" id="AnnouncementDTO" rx="1.75" ry="1.75" style="stroke:#181818;stroke-width:0.3499999999999999;" width="109.9" x="511.35" y="416.2348"/><ellipse cx="521.85" cy="427.4348" fill="#ADD1B2" rx="7.7" ry="7.7" style="stroke:#181818;stroke-width:0.6999999999999998;"/><path d="M523.7859,424.5473 Q523.8953,424.3941 524.0266,424.3176 Q524.1578,424.241 524.3109,424.241 Q524.5734,424.241 524.7375,424.427 Q524.9016,424.602 524.9016,425.0285 L524.9016,426.0457 Q524.9016,426.4723 524.7375,426.6582 Q524.5734,426.8441 524.3109,426.8441 Q524.0703,426.8441 523.9281,426.702 Q523.7859,426.5707 523.7094,426.2098 Q523.6766,425.9582 523.5453,425.827 Q523.3156,425.5645 522.8891,425.4113 Q522.4625,425.2582 522.025,425.2582 Q521.4891,425.2582 521.0406,425.4879 Q520.6031,425.7176 520.2531,426.2426 Q519.9141,426.7676 519.9141,427.4895 L519.9141,428.2551 Q519.9141,429.1191 520.5375,429.6988 Q521.1609,430.2676 522.2766,430.2676 Q522.9328,430.2676 523.3922,430.0926 Q523.6656,429.9832 523.9609,429.677 Q524.1469,429.491 524.2453,429.4363 Q524.3547,429.3816 524.4969,429.3816 Q524.7266,429.3816 524.9016,429.5676 Q525.0875,429.7426 525.0875,429.9832 Q525.0875,430.2238 524.8469,430.5082 Q524.4969,430.9129 523.9391,431.1426 Q523.1844,431.4598 522.2766,431.4598 Q521.2156,431.4598 520.3734,431.0223 Q519.6844,430.6723 519.2031,429.9285 Q518.7219,429.1738 518.7219,428.277 L518.7219,427.4676 Q518.7219,426.5379 519.1484,425.7395 Q519.5859,424.9301 520.3516,424.5035 Q521.1172,424.066 521.9812,424.066 Q522.4953,424.066 522.9437,424.1863 Q523.4031,424.2957 523.7859,424.5473 Z " fill="#000000"/><text fill="#000000" font-family="sans-serif" font-size="9.8" lengthAdjust="spacing" textLength="87.5" x="531.65" y="431.4926">AnnouncementDTO</text><line style="stroke:#181818;stroke-width:0.3499999999999999;" x1="512.05" x2="620.55" y1="438.6348" y2="438.6348"/><rect fill="none" height="4.2" style="stroke:#C82930;stroke-width:0.6999999999999998;" width="4.2" x="516.95" y="446.9021"/><text fill="#000000" font-family="sans-serif" font-size="9.8" lengthAdjust="spacing" textLength="21.7" x="525.35" y="452.01">price</text><rect fill="none" height="4.2" style="stroke:#C82930;stroke-width:0.6999999999999998;" width="4.2" x="516.95" y="459.9369"/><text fill="#000000" font-family="sans-serif" font-size="9.8" lengthAdjust="spacing" textLength="69.3" x="525.35" y="465.0447">typeOfBusiness</text><rect fill="none" height="4.2" style="stroke:#C82930;stroke-width:0.6999999999999998;" width="4.2" x="516.95" y="472.9717"/><text fill="#000000" font-family="sans-serif" font-size="9.8" lengthAdjust="spacing" textLength="37.1" x="525.35" y="478.0795">property</text><rect fill="none" height="4.2" style="stroke:#C82930;stroke-width:0.6999999999999998;" width="4.2" x="516.95" y="486.0064"/><text fill="#000000" font-family="sans-serif" font-size="9.8" lengthAdjust="spacing" textLength="25.2" x="525.35" y="491.1143">agent</text><line style="stroke:#181818;stroke-width:0.3499999999999999;" x1="512.05" x2="620.55" y1="496.3738" y2="496.3738"/></g><!--class AnnouncementMapper--><g id="elem_AnnouncementMapper"><rect codeLine="58" fill="#F1F1F1" height="111.8086" id="AnnouncementMapper" rx="1.75" ry="1.75" style="stroke:#181818;stroke-width:0.3499999999999999;" width="145.6" x="493.5" y="242.6348"/><ellipse cx="514.395" cy="253.8348" fill="#ADD1B2" rx="7.7" ry="7.7" style="stroke:#181818;stroke-width:0.6999999999999998;"/><path d="M516.3309,250.9473 Q516.4403,250.7941 516.5716,250.7176 Q516.7028,250.641 516.8559,250.641 Q517.1184,250.641 517.2825,250.827 Q517.4466,251.002 517.4466,251.4285 L517.4466,252.4457 Q517.4466,252.8723 517.2825,253.0582 Q517.1184,253.2441 516.8559,253.2441 Q516.6153,253.2441 516.4731,253.102 Q516.3309,252.9707 516.2544,252.6098 Q516.2216,252.3582 516.0903,252.227 Q515.8606,251.9645 515.4341,251.8113 Q515.0075,251.6582 514.57,251.6582 Q514.0341,251.6582 513.5856,251.8879 Q513.1481,252.1176 512.7981,252.6426 Q512.4591,253.1676 512.4591,253.8895 L512.4591,254.6551 Q512.4591,255.5191 513.0825,256.0988 Q513.7059,256.6676 514.8216,256.6676 Q515.4778,256.6676 515.9372,256.4926 Q516.2106,256.3832 516.5059,256.077 Q516.6919,255.891 516.7903,255.8363 Q516.8997,255.7816 517.0419,255.7816 Q517.2716,255.7816 517.4466,255.9676 Q517.6325,256.1426 517.6325,256.3832 Q517.6325,256.6238 517.3919,256.9082 Q517.0419,257.3129 516.4841,257.5426 Q515.7294,257.8598 514.8216,257.8598 Q513.7606,257.8598 512.9184,257.4223 Q512.2294,257.0723 511.7481,256.3285 Q511.2669,255.5738 511.2669,254.677 L511.2669,253.8676 Q511.2669,252.9379 511.6934,252.1395 Q512.1309,251.3301 512.8966,250.9035 Q513.6622,250.466 514.5262,250.466 Q515.0403,250.466 515.4887,250.5863 Q515.9481,250.6957 516.3309,250.9473 Z " fill="#000000"/><text fill="#000000" font-family="sans-serif" font-size="9.8" lengthAdjust="spacing" textLength="100.1" x="526.505" y="257.8926">AnnouncementMapper</text><line style="stroke:#181818;stroke-width:0.3499999999999999;" x1="494.2" x2="638.4" y1="265.0348" y2="265.0348"/><rect fill="none" height="4.2" style="stroke:#C82930;stroke-width:0.6999999999999998;" width="4.2" x="499.1" y="273.3021"/><text fill="#000000" font-family="sans-serif" font-size="9.8" lengthAdjust="spacing" textLength="102.2" x="507.5" y="278.41">announcementDTOList</text><line style="stroke:#181818;stroke-width:0.3499999999999999;" x1="494.2" x2="638.4" y1="283.6695" y2="283.6695"/><ellipse cx="501.2" cy="294.0369" fill="#84BE84" rx="2.1" ry="2.1" style="stroke:#038048;stroke-width:0.6999999999999998;"/><text fill="#000000" font-family="sans-serif" font-size="9.8" lengthAdjust="spacing" textLength="39.9" x="507.5" y="297.0447">convert()</text><ellipse cx="501.2" cy="307.0717" fill="#84BE84" rx="2.1" ry="2.1" style="stroke:#038048;stroke-width:0.6999999999999998;"/><text fill="#000000" font-family="sans-serif" font-size="9.8" lengthAdjust="spacing" textLength="30.8" x="507.5" y="310.0795">toDto()</text><ellipse cx="501.2" cy="320.1064" fill="#84BE84" rx="2.1" ry="2.1" style="stroke:#038048;stroke-width:0.6999999999999998;"/><text fill="#000000" font-family="sans-serif" font-size="9.8" lengthAdjust="spacing" textLength="102.9" x="507.5" y="323.1143">getAllAnnouncements()</text><ellipse cx="501.2" cy="333.1412" fill="#84BE84" rx="2.1" ry="2.1" style="stroke:#038048;stroke-width:0.6999999999999998;"/><text fill="#000000" font-family="sans-serif" font-size="9.8" lengthAdjust="spacing" textLength="127.4" x="507.5" y="336.149">getAnnouncementDTOById()</text><ellipse cx="501.2" cy="346.176" fill="#84BE84" rx="2.1" ry="2.1" style="stroke:#038048;stroke-width:0.6999999999999998;"/><text fill="#000000" font-family="sans-serif" font-size="9.8" lengthAdjust="spacing" textLength="97.3" x="507.5" y="349.1838">toDtoAnnouncement()</text></g><!--class Repositories--><g id="elem_Repositories"><rect codeLine="68" fill="#F1F1F1" height="46.6348" id="Repositories" rx="1.75" ry="1.75" style="stroke:#181818;stroke-width:0.3499999999999999;" width="131.6" x="4.9" y="275.1848"/><ellipse cx="40.075" cy="286.3848" fill="#ADD1B2" rx="7.7" ry="7.7" style="stroke:#181818;stroke-width:0.6999999999999998;"/><path d="M42.0109,283.4973 Q42.1203,283.3441 42.2516,283.2676 Q42.3828,283.191 42.5359,283.191 Q42.7984,283.191 42.9625,283.377 Q43.1266,283.552 43.1266,283.9785 L43.1266,284.9957 Q43.1266,285.4223 42.9625,285.6082 Q42.7984,285.7941 42.5359,285.7941 Q42.2953,285.7941 42.1531,285.652 Q42.0109,285.5207 41.9344,285.1598 Q41.9016,284.9082 41.7703,284.777 Q41.5406,284.5145 41.1141,284.3613 Q40.6875,284.2082 40.25,284.2082 Q39.7141,284.2082 39.2656,284.4379 Q38.8281,284.6676 38.4781,285.1926 Q38.1391,285.7176 38.1391,286.4395 L38.1391,287.2051 Q38.1391,288.0691 38.7625,288.6488 Q39.3859,289.2176 40.5016,289.2176 Q41.1578,289.2176 41.6172,289.0426 Q41.8906,288.9332 42.1859,288.627 Q42.3719,288.441 42.4703,288.3863 Q42.5797,288.3316 42.7219,288.3316 Q42.9516,288.3316 43.1266,288.5176 Q43.3125,288.6926 43.3125,288.9332 Q43.3125,289.1738 43.0719,289.4582 Q42.7219,289.8629 42.1641,290.0926 Q41.4094,290.4098 40.5016,290.4098 Q39.4406,290.4098 38.5984,289.9723 Q37.9094,289.6223 37.4281,288.8785 Q36.9469,288.1238 36.9469,287.227 L36.9469,286.4176 Q36.9469,285.4879 37.3734,284.6895 Q37.8109,283.8801 38.5766,283.4535 Q39.3422,283.016 40.2062,283.016 Q40.7203,283.016 41.1687,283.1363 Q41.6281,283.2457 42.0109,283.4973 Z " fill="#000000"/><text fill="#000000" font-family="sans-serif" font-size="9.8" lengthAdjust="spacing" textLength="55.3" x="54.425" y="290.4426">Repositories</text><line style="stroke:#181818;stroke-width:0.3499999999999999;" x1="5.6" x2="135.8" y1="297.5848" y2="297.5848"/><ellipse cx="12.6" cy="307.9521" fill="none" rx="2.1" ry="2.1" style="stroke:#038048;stroke-width:0.6999999999999998;"/><text fill="#000000" font-family="sans-serif" font-size="9.8" lengthAdjust="spacing" textLength="113.4" x="18.9" y="310.96">announcementRepository</text><line style="stroke:#181818;stroke-width:0.3499999999999999;" x1="5.6" x2="135.8" y1="316.2195" y2="316.2195"/></g><!--reverse link PlaceOrderToBuyPropertyUI to Runnable--><g id="link_PlaceOrderToBuyPropertyUI_Runnable"><path codeLine="74" d="M379.82,56.0848 C383.236,56.0848 386.645,56.0848 390.061,56.0848 " fill="none" id="PlaceOrderToBuyPropertyUI-backto-Runnable" style="stroke:#181818;stroke-width:0.6999999999999998;"/><polygon fill="none" points="379.785,60.9848,365.785,56.0848,379.785,51.1848,379.785,60.9848" style="stroke:#181818;stroke-width:0.6999999999999998;"/></g><!--link PlaceOrderToBuyPropertyUI to PlaceOrderToBuyPropertyController--><g id="link_PlaceOrderToBuyPropertyUI_PlaceOrderToBuyPropertyController"><path codeLine="75" d="M291.9,79.5768 C291.9,90.9028 291.9,104.9098 291.9,117.8948 " fill="none" id="PlaceOrderToBuyPropertyUI-to-PlaceOrderToBuyPropertyController" style="stroke:#181818;stroke-width:0.6999999999999998;stroke-dasharray:7.0,7.0;"/><polygon fill="#181818" points="291.9,121.5278,294.7,115.2278,291.9,118.0278,289.1,115.2278,291.9,121.5278" style="stroke:#181818;stroke-width:0.6999999999999998;"/></g><!--link PlaceOrderToBuyPropertyController to Repositories--><g id="link_PlaceOrderToBuyPropertyController_Repositories"><path codeLine="76" d="M220.038,194.3908 C196.686,206.8368 170.982,221.4318 148.4,236.3348 C131.698,247.3598 114.142,261.0728 99.953,272.7628 " fill="none" id="PlaceOrderToBuyPropertyController-to-Repositories" style="stroke:#181818;stroke-width:0.6999999999999998;stroke-dasharray:7.0,7.0;"/><polygon fill="#181818" points="97.16,275.0658,103.8005,273.2127,99.8586,272.8369,100.2344,268.895,97.16,275.0658" style="stroke:#181818;stroke-width:0.6999999999999998;"/></g><!--link PlaceOrderToBuyPropertyController to AnnouncementRepository--><g id="link_PlaceOrderToBuyPropertyController_AnnouncementRepository"><path codeLine="77" d="M277.48,194.5098 C272.755,206.2488 267.358,219.6818 262.045,232.8908 " fill="none" id="PlaceOrderToBuyPropertyController-to-AnnouncementRepository" style="stroke:#181818;stroke-width:0.6999999999999998;stroke-dasharray:7.0,7.0;"/><polygon fill="#181818" points="260.701,236.2438,265.6405,231.4343,262.0009,232.9941,260.441,229.3545,260.701,236.2438" style="stroke:#181818;stroke-width:0.6999999999999998;"/></g><!--link Repositories to AnnouncementRepository--><g id="link_Repositories_AnnouncementRepository"><path codeLine="78" d="M136.521,298.6348 C143.465,298.6348 150.409,298.6348 157.346,298.6348 " fill="none" id="Repositories-to-AnnouncementRepository" style="stroke:#181818;stroke-width:0.6999999999999998;"/><polygon fill="#181818" points="160.979,298.6348,154.679,295.8348,157.479,298.6348,154.679,301.4348,160.979,298.6348" style="stroke:#181818;stroke-width:0.6999999999999998;"/></g><!--link Repositories to PlaceOrderToBuyPropertyRepository--><g id="link_Repositories_PlaceOrderToBuyPropertyRepository"><path codeLine="79" d="M96.614,322.2108 C111.237,334.5098 130.193,349.4688 148.4,360.9348 C180.621,381.2278 217.686,400.3518 251.062,416.1858 " fill="none" id="Repositories-to-PlaceOrderToBuyPropertyRepository" style="stroke:#181818;stroke-width:0.6999999999999998;"/><polygon fill="#181818" points="254.282,417.7048,249.785,412.4792,251.1183,416.2078,247.3897,417.5411,254.282,417.7048" style="stroke:#181818;stroke-width:0.6999999999999998;"/></g><!--link PlaceOrderToBuyPropertyController to AnnouncementMapper--><g id="link_PlaceOrderToBuyPropertyController_AnnouncementMapper"><path codeLine="80" d="M383.474,191.0028 C415.31,203.5888 450.751,219.1288 481.6,236.3348 C484.456,237.9308 487.333,239.6038 490.203,241.3398 " fill="none" id="PlaceOrderToBuyPropertyController-to-AnnouncementMapper" style="stroke:#181818;stroke-width:0.6999999999999998;stroke-dasharray:7.0,7.0;"/><polygon fill="#181818" points="493.325,243.2438,489.4078,237.5705,490.338,241.4195,486.489,242.3497,493.325,243.2438" style="stroke:#181818;stroke-width:0.6999999999999998;"/></g><!--link PlaceOrderToBuyPropertyController to PlaceOrderToBuyPropertyRepository--><g id="link_PlaceOrderToBuyPropertyController_PlaceOrderToBuyPropertyRepository"><path codeLine="81" d="M308.35,194.3488 C313.705,207.3198 319.179,222.2578 322.7,236.3348 C336.252,290.4798 342.531,353.8928 345.429,399.0358 " fill="none" id="PlaceOrderToBuyPropertyController-to-PlaceOrderToBuyPropertyRepository" style="stroke:#181818;stroke-width:0.6999999999999998;stroke-dasharray:7.0,7.0;"/><polygon fill="#181818" points="345.667,402.8018,348.0651,396.3381,345.4468,399.3087,342.4762,396.6904,345.667,402.8018" style="stroke:#181818;stroke-width:0.6999999999999998;"/></g><!--link AnnouncementMapper to AnnouncementDTO--><g id="link_AnnouncementMapper_AnnouncementDTO"><path codeLine="82" d="M566.3,354.6838 C566.3,373.5838 566.3,394.4788 566.3,412.5318 " fill="none" id="AnnouncementMapper-to-AnnouncementDTO" style="stroke:#181818;stroke-width:0.6999999999999998;"/><polygon fill="#181818" points="566.3,416.1018,569.1,409.8018,566.3,412.6018,563.5,409.8018,566.3,416.1018" style="stroke:#181818;stroke-width:0.6999999999999998;"/></g><!--link Order to PlaceOrderToBuyPropertyRepository--><g id="link_Order_PlaceOrderToBuyPropertyRepository"><path codeLine="83" d="M406.007,341.5028 C397.187,359.2338 386.764,380.1638 377.202,399.3718 " fill="none" id="Order-to-PlaceOrderToBuyPropertyRepository" style="stroke:#181818;stroke-width:0.6999999999999998;"/><polygon fill="#181818" points="375.55,402.6898,380.8662,398.3003,377.1112,399.5573,375.8542,395.8023,375.55,402.6898" style="stroke:#181818;stroke-width:0.6999999999999998;"/></g><!--SRC=[dLJPQiCm47pNL_YnfJYaFn38GI7Guf2ZxwgzCG95CjgrmRJzzyhn4Vd2fduAcvdnp1ucGHAyhUI8taxmsF2RTpajNvUC2KLWhZm4xvWgnRyixfinppuldadLqpFxPIoyCm_ImW8JWJdhJPeVZ4x0K7xPrmpV2xKYewK4CqdRDj07NHUe8oGQ1McJLpP20vnA1MkdhCL0QwLqgaAuWQ9tWUHQlOCTMr9OaFkIzSrowmftbAeI4gSK9qCyl7P258OggmXPntp6fOXwaNWKzJ86jLQlY4LrZISoGiLkTBSjVNlM3i-WKIjRwr9w9WV_j5u7wyLOfFmKAEmYkGXiGJ8kPB5gRm9aX6D3nR5OktFmQ7TYH0ZLRyeJ2AwR58K2n0PGpgeUTbnCUL3tWoU9kpQy_KvdfdRFCwlPE2Uz8ztfmdZyjkmctqTjeKvh6w_DE0NWOw1ySE05YpKdxKkual-p6hzXDdxTYyLg-eZPz9aNEcw4cPJXXMQjPlWpOVvg-fB_OQjSd9d4QGC3E-bt4jgzOUL7RbwcFm00]--></g></svg>