<?xml version="1.0" encoding="us-ascii" standalone="no"?><svg xmlns="http://www.w3.org/2000/svg" xmlns:xlink="http://www.w3.org/1999/xlink" contentStyleType="text/css" height="576px" preserveAspectRatio="none" style="width:794px;height:576px;background:#FFFFFF;" version="1.1" viewBox="0 0 794 576" width="794.4px" zoomAndPan="magnify"><defs/><g><!--class Runnable--><g id="elem_Runnable"><rect codeLine="2" fill="#F1F1F1" height="53.2969" id="Runnable" rx="2" ry="2" style="stroke:#181818;stroke-width:0.4000000000000001;" width="74.4" x="224.8" y="5.6"/><ellipse cx="236.8" cy="18.4" fill="#B4A7E5" rx="8.8" ry="8.8" style="stroke:#181818;stroke-width:0.8000000000000002;"/><path d="M237.5625,15.7125 L237.5625,21.0375 L238.9375,21.0375 Q239.425,21.0375 239.6375,21.225 Q239.85,21.4125 239.85,21.725 Q239.85,22.025 239.6375,22.2125 Q239.425,22.4 238.9375,22.4 L234.825,22.4 Q234.3375,22.4 234.125,22.2125 Q233.9125,22.025 233.9125,21.7125 Q233.9125,21.4125 234.125,21.225 Q234.3375,21.0375 234.825,21.0375 L236.2,21.0375 L236.2,15.7125 L234.825,15.7125 Q234.3375,15.7125 234.125,15.525 Q233.9125,15.3375 233.9125,15.025 Q233.9125,14.725 234.125,14.5375 Q234.3375,14.35 234.825,14.35 L238.9375,14.35 Q239.425,14.35 239.6375,14.5375 Q239.85,14.725 239.85,15.025 Q239.85,15.3375 239.6375,15.525 Q239.425,15.7125 238.9375,15.7125 L237.5625,15.7125 Z " fill="#000000"/><text fill="#000000" font-family="sans-serif" font-size="11.2" font-style="italic" lengthAdjust="spacing" textLength="48.8" x="248" y="23.0375">Runnable</text><line style="stroke:#181818;stroke-width:0.4000000000000001;" x1="225.6" x2="298.4" y1="31.2" y2="31.2"/><line style="stroke:#181818;stroke-width:0.4000000000000001;" x1="225.6" x2="298.4" y1="37.6" y2="37.6"/><ellipse cx="233.6" cy="49.4484" fill="#84BE84" rx="2.4" ry="2.4" style="stroke:#038048;stroke-width:0.8000000000000002;"/><text fill="#000000" font-family="sans-serif" font-size="11.2" lengthAdjust="spacing" textLength="24.8" x="240.8" y="52.8859">run()</text></g><!--class PlaceOrderToBuyPropertyUI--><g id="elem_PlaceOrderToBuyPropertyUI"><rect codeLine="7" fill="#F1F1F1" height="53.2969" id="PlaceOrderToBuyPropertyUI" rx="2" ry="2" style="stroke:#181818;stroke-width:0.4000000000000001;" width="168.8" x="28" y="5.6"/><ellipse cx="40" cy="18.4" fill="#ADD1B2" rx="8.8" ry="8.8" style="stroke:#181818;stroke-width:0.8000000000000002;"/><path d="M42.2125,15.1 Q42.3375,14.925 42.4875,14.8375 Q42.6375,14.75 42.8125,14.75 Q43.1125,14.75 43.3,14.9625 Q43.4875,15.1625 43.4875,15.65 L43.4875,16.8125 Q43.4875,17.3 43.3,17.5125 Q43.1125,17.725 42.8125,17.725 Q42.5375,17.725 42.375,17.5625 Q42.2125,17.4125 42.125,17 Q42.0875,16.7125 41.9375,16.5625 Q41.675,16.2625 41.1875,16.0875 Q40.7,15.9125 40.2,15.9125 Q39.5875,15.9125 39.075,16.175 Q38.575,16.4375 38.175,17.0375 Q37.7875,17.6375 37.7875,18.4625 L37.7875,19.3375 Q37.7875,20.325 38.5,20.9875 Q39.2125,21.6375 40.4875,21.6375 Q41.2375,21.6375 41.7625,21.4375 Q42.075,21.3125 42.4125,20.9625 Q42.625,20.75 42.7375,20.6875 Q42.8625,20.625 43.025,20.625 Q43.2875,20.625 43.4875,20.8375 Q43.7,21.0375 43.7,21.3125 Q43.7,21.5875 43.425,21.9125 Q43.025,22.375 42.3875,22.6375 Q41.525,23 40.4875,23 Q39.275,23 38.3125,22.5 Q37.525,22.1 36.975,21.25 Q36.425,20.3875 36.425,19.3625 L36.425,18.4375 Q36.425,17.375 36.9125,16.4625 Q37.4125,15.5375 38.2875,15.05 Q39.1625,14.55 40.15,14.55 Q40.7375,14.55 41.25,14.6875 Q41.775,14.8125 42.2125,15.1 Z " fill="#000000"/><text fill="#000000" font-family="sans-serif" font-size="11.2" lengthAdjust="spacing" textLength="143.2" x="51.2" y="23.0375">PlaceOrderToBuyPropertyUI</text><line style="stroke:#181818;stroke-width:0.4000000000000001;" x1="28.8" x2="196" y1="31.2" y2="31.2"/><rect fill="none" height="4.8" style="stroke:#C82930;stroke-width:0.8000000000000002;" width="4.8" x="34.4" y="40.6484"/><text fill="#000000" font-family="sans-serif" font-size="11.2" lengthAdjust="spacing" textLength="47.2" x="44" y="46.4859">controller</text><line style="stroke:#181818;stroke-width:0.4000000000000001;" x1="28.8" x2="196" y1="52.4969" y2="52.4969"/></g><!--class PlaceOrderToBuyPropertyController--><g id="elem_PlaceOrderToBuyPropertyController"><rect codeLine="12" fill="#F1F1F1" height="83.0906" id="PlaceOrderToBuyPropertyController" rx="2" ry="2" style="stroke:#181818;stroke-width:0.4000000000000001;" width="208.8" x="8" y="136.8"/><ellipse cx="20" cy="149.6" fill="#ADD1B2" rx="8.8" ry="8.8" style="stroke:#181818;stroke-width:0.8000000000000002;"/><path d="M22.2125,146.3 Q22.3375,146.125 22.4875,146.0375 Q22.6375,145.95 22.8125,145.95 Q23.1125,145.95 23.3,146.1625 Q23.4875,146.3625 23.4875,146.85 L23.4875,148.0125 Q23.4875,148.5 23.3,148.7125 Q23.1125,148.925 22.8125,148.925 Q22.5375,148.925 22.375,148.7625 Q22.2125,148.6125 22.125,148.2 Q22.0875,147.9125 21.9375,147.7625 Q21.675,147.4625 21.1875,147.2875 Q20.7,147.1125 20.2,147.1125 Q19.5875,147.1125 19.075,147.375 Q18.575,147.6375 18.175,148.2375 Q17.7875,148.8375 17.7875,149.6625 L17.7875,150.5375 Q17.7875,151.525 18.5,152.1875 Q19.2125,152.8375 20.4875,152.8375 Q21.2375,152.8375 21.7625,152.6375 Q22.075,152.5125 22.4125,152.1625 Q22.625,151.95 22.7375,151.8875 Q22.8625,151.825 23.025,151.825 Q23.2875,151.825 23.4875,152.0375 Q23.7,152.2375 23.7,152.5125 Q23.7,152.7875 23.425,153.1125 Q23.025,153.575 22.3875,153.8375 Q21.525,154.2 20.4875,154.2 Q19.275,154.2 18.3125,153.7 Q17.525,153.3 16.975,152.45 Q16.425,151.5875 16.425,150.5625 L16.425,149.6375 Q16.425,148.575 16.9125,147.6625 Q17.4125,146.7375 18.2875,146.25 Q19.1625,145.75 20.15,145.75 Q20.7375,145.75 21.25,145.8875 Q21.775,146.0125 22.2125,146.3 Z " fill="#000000"/><text fill="#000000" font-family="sans-serif" font-size="11.2" lengthAdjust="spacing" textLength="183.2" x="31.2" y="154.2375">PlaceOrderToBuyPropertyController</text><line style="stroke:#181818;stroke-width:0.4000000000000001;" x1="8.8" x2="216" y1="162.4" y2="162.4"/><rect fill="none" height="4.8" style="stroke:#C82930;stroke-width:0.8000000000000002;" width="4.8" x="14.4" y="171.8484"/><text fill="#000000" font-family="sans-serif" font-size="11.2" lengthAdjust="spacing" textLength="81.6" x="24" y="177.6859">orderRepository</text><line style="stroke:#181818;stroke-width:0.4000000000000001;" x1="8.8" x2="216" y1="183.6969" y2="183.6969"/><ellipse cx="16.8" cy="195.5453" fill="#84BE84" rx="2.4" ry="2.4" style="stroke:#038048;stroke-width:0.8000000000000002;"/><text fill="#000000" font-family="sans-serif" font-size="11.2" lengthAdjust="spacing" textLength="69.6" x="24" y="198.9828">createOrder()</text><ellipse cx="16.8" cy="210.4422" fill="#84BE84" rx="2.4" ry="2.4" style="stroke:#038048;stroke-width:0.8000000000000002;"/><text fill="#000000" font-family="sans-serif" font-size="11.2" lengthAdjust="spacing" textLength="117.6" x="24" y="213.8797">getAnnouncementList()</text></g><!--class Order--><g id="elem_Order"><rect codeLine="19" fill="#F1F1F1" height="97.9875" id="Order" rx="2" ry="2" style="stroke:#181818;stroke-width:0.4000000000000001;" width="96" x="64.4" y="297.6"/><ellipse cx="94.76" cy="310.4" fill="#ADD1B2" rx="8.8" ry="8.8" style="stroke:#181818;stroke-width:0.8000000000000002;"/><path d="M96.9725,307.1 Q97.0975,306.925 97.2475,306.8375 Q97.3975,306.75 97.5725,306.75 Q97.8725,306.75 98.06,306.9625 Q98.2475,307.1625 98.2475,307.65 L98.2475,308.8125 Q98.2475,309.3 98.06,309.5125 Q97.8725,309.725 97.5725,309.725 Q97.2975,309.725 97.135,309.5625 Q96.9725,309.4125 96.885,309 Q96.8475,308.7125 96.6975,308.5625 Q96.435,308.2625 95.9475,308.0875 Q95.46,307.9125 94.96,307.9125 Q94.3475,307.9125 93.835,308.175 Q93.335,308.4375 92.935,309.0375 Q92.5475,309.6375 92.5475,310.4625 L92.5475,311.3375 Q92.5475,312.325 93.26,312.9875 Q93.9725,313.6375 95.2475,313.6375 Q95.9975,313.6375 96.5225,313.4375 Q96.835,313.3125 97.1725,312.9625 Q97.385,312.75 97.4975,312.6875 Q97.6225,312.625 97.785,312.625 Q98.0475,312.625 98.2475,312.8375 Q98.46,313.0375 98.46,313.3125 Q98.46,313.5875 98.185,313.9125 Q97.785,314.375 97.1475,314.6375 Q96.285,315 95.2475,315 Q94.035,315 93.0725,314.5 Q92.285,314.1 91.735,313.25 Q91.185,312.3875 91.185,311.3625 L91.185,310.4375 Q91.185,309.375 91.6725,308.4625 Q92.1725,307.5375 93.0475,307.05 Q93.9225,306.55 94.91,306.55 Q95.4975,306.55 96.01,306.6875 Q96.535,306.8125 96.9725,307.1 Z " fill="#000000"/><text fill="#000000" font-family="sans-serif" font-size="11.2" lengthAdjust="spacing" textLength="29.6" x="110.04" y="315.0375">Order</text><line style="stroke:#181818;stroke-width:0.4000000000000001;" x1="65.2" x2="159.6" y1="323.2" y2="323.2"/><rect fill="none" height="4.8" style="stroke:#C82930;stroke-width:0.8000000000000002;" width="4.8" x="70.8" y="332.6484"/><text fill="#000000" font-family="sans-serif" font-size="11.2" lengthAdjust="spacing" textLength="26.4" x="80.4" y="338.4859">client</text><rect fill="none" height="4.8" style="stroke:#C82930;stroke-width:0.8000000000000002;" width="4.8" x="70.8" y="347.5453"/><text fill="#000000" font-family="sans-serif" font-size="11.2" lengthAdjust="spacing" textLength="65.6" x="80.4" y="353.3828">orderAmount</text><rect fill="none" height="4.8" style="stroke:#C82930;stroke-width:0.8000000000000002;" width="4.8" x="70.8" y="362.4422"/><text fill="#000000" font-family="sans-serif" font-size="11.2" lengthAdjust="spacing" textLength="75.2" x="80.4" y="368.2797">announcement</text><rect fill="none" height="4.8" style="stroke:#C82930;stroke-width:0.8000000000000002;" width="4.8" x="70.8" y="377.3391"/><text fill="#000000" font-family="sans-serif" font-size="11.2" lengthAdjust="spacing" textLength="30.4" x="80.4" y="383.1766">status</text><line style="stroke:#181818;stroke-width:0.4000000000000001;" x1="65.2" x2="159.6" y1="389.1875" y2="389.1875"/></g><!--class PlaceOrderToBuyPropertyRepository--><g id="elem_PlaceOrderToBuyPropertyRepository"><rect codeLine="27" fill="#F1F1F1" height="127.7813" id="PlaceOrderToBuyPropertyRepository" rx="2" ry="2" style="stroke:#181818;stroke-width:0.4000000000000001;" width="213.6" x="5.6" y="443.2"/><ellipse cx="17.6" cy="456" fill="#ADD1B2" rx="8.8" ry="8.8" style="stroke:#181818;stroke-width:0.8000000000000002;"/><path d="M19.8125,452.7 Q19.9375,452.525 20.0875,452.4375 Q20.2375,452.35 20.4125,452.35 Q20.7125,452.35 20.9,452.5625 Q21.0875,452.7625 21.0875,453.25 L21.0875,454.4125 Q21.0875,454.9 20.9,455.1125 Q20.7125,455.325 20.4125,455.325 Q20.1375,455.325 19.975,455.1625 Q19.8125,455.0125 19.725,454.6 Q19.6875,454.3125 19.5375,454.1625 Q19.275,453.8625 18.7875,453.6875 Q18.3,453.5125 17.8,453.5125 Q17.1875,453.5125 16.675,453.775 Q16.175,454.0375 15.775,454.6375 Q15.3875,455.2375 15.3875,456.0625 L15.3875,456.9375 Q15.3875,457.925 16.1,458.5875 Q16.8125,459.2375 18.0875,459.2375 Q18.8375,459.2375 19.3625,459.0375 Q19.675,458.9125 20.0125,458.5625 Q20.225,458.35 20.3375,458.2875 Q20.4625,458.225 20.625,458.225 Q20.8875,458.225 21.0875,458.4375 Q21.3,458.6375 21.3,458.9125 Q21.3,459.1875 21.025,459.5125 Q20.625,459.975 19.9875,460.2375 Q19.125,460.6 18.0875,460.6 Q16.875,460.6 15.9125,460.1 Q15.125,459.7 14.575,458.85 Q14.025,457.9875 14.025,456.9625 L14.025,456.0375 Q14.025,454.975 14.5125,454.0625 Q15.0125,453.1375 15.8875,452.65 Q16.7625,452.15 17.75,452.15 Q18.3375,452.15 18.85,452.2875 Q19.375,452.4125 19.8125,452.7 Z " fill="#000000"/><text fill="#000000" font-family="sans-serif" font-size="11.2" lengthAdjust="spacing" textLength="188" x="28.8" y="460.6375">PlaceOrderToBuyPropertyRepository</text><line style="stroke:#181818;stroke-width:0.4000000000000001;" x1="6.4" x2="218.4" y1="468.8" y2="468.8"/><rect fill="none" height="4.8" style="stroke:#C82930;stroke-width:0.8000000000000002;" width="4.8" x="12" y="478.2484"/><text fill="#000000" font-family="sans-serif" font-size="11.2" lengthAdjust="spacing" textLength="44.8" x="21.6" y="484.0859">orderList</text><line style="stroke:#181818;stroke-width:0.4000000000000001;" x1="6.4" x2="218.4" y1="490.0969" y2="490.0969"/><ellipse cx="14.4" cy="501.9453" fill="#84BE84" rx="2.4" ry="2.4" style="stroke:#038048;stroke-width:0.8000000000000002;"/><text fill="#000000" font-family="sans-serif" font-size="11.2" lengthAdjust="spacing" textLength="61.6" x="21.6" y="505.3828">seveOrder()</text><ellipse cx="14.4" cy="516.8422" fill="#84BE84" rx="2.4" ry="2.4" style="stroke:#038048;stroke-width:0.8000000000000002;"/><text fill="#000000" font-family="sans-serif" font-size="11.2" lengthAdjust="spacing" textLength="76.8" x="21.6" y="520.2797">validateOrder()</text><ellipse cx="14.4" cy="531.7391" fill="#84BE84" rx="2.4" ry="2.4" style="stroke:#038048;stroke-width:0.8000000000000002;"/><text fill="#000000" font-family="sans-serif" font-size="11.2" lengthAdjust="spacing" textLength="56.8" x="21.6" y="535.1766">addOrder()</text><ellipse cx="14.4" cy="546.6359" fill="#84BE84" rx="2.4" ry="2.4" style="stroke:#038048;stroke-width:0.8000000000000002;"/><text fill="#000000" font-family="sans-serif" font-size="11.2" lengthAdjust="spacing" textLength="71.2" x="21.6" y="550.0734">getOrderList()</text><ellipse cx="14.4" cy="561.5328" fill="#84BE84" rx="2.4" ry="2.4" style="stroke:#038048;stroke-width:0.8000000000000002;"/><text fill="#000000" font-family="sans-serif" font-size="11.2" lengthAdjust="spacing" textLength="119.2" x="21.6" y="564.9703">getOrdersListAsString()</text></g><!--class AnnouncementRepository--><g id="elem_AnnouncementRepository"><rect codeLine="37" fill="#F1F1F1" height="142.6781" id="AnnouncementRepository" rx="2" ry="2" style="stroke:#181818;stroke-width:0.4000000000000001;" width="171.2" x="423.6" y="107.2"/><ellipse cx="442.44" cy="120" fill="#ADD1B2" rx="8.8" ry="8.8" style="stroke:#181818;stroke-width:0.8000000000000002;"/><path d="M444.6525,116.7 Q444.7775,116.525 444.9275,116.4375 Q445.0775,116.35 445.2525,116.35 Q445.5525,116.35 445.74,116.5625 Q445.9275,116.7625 445.9275,117.25 L445.9275,118.4125 Q445.9275,118.9 445.74,119.1125 Q445.5525,119.325 445.2525,119.325 Q444.9775,119.325 444.815,119.1625 Q444.6525,119.0125 444.565,118.6 Q444.5275,118.3125 444.3775,118.1625 Q444.115,117.8625 443.6275,117.6875 Q443.14,117.5125 442.64,117.5125 Q442.0275,117.5125 441.515,117.775 Q441.015,118.0375 440.615,118.6375 Q440.2275,119.2375 440.2275,120.0625 L440.2275,120.9375 Q440.2275,121.925 440.94,122.5875 Q441.6525,123.2375 442.9275,123.2375 Q443.6775,123.2375 444.2025,123.0375 Q444.515,122.9125 444.8525,122.5625 Q445.065,122.35 445.1775,122.2875 Q445.3025,122.225 445.465,122.225 Q445.7275,122.225 445.9275,122.4375 Q446.14,122.6375 446.14,122.9125 Q446.14,123.1875 445.865,123.5125 Q445.465,123.975 444.8275,124.2375 Q443.965,124.6 442.9275,124.6 Q441.715,124.6 440.7525,124.1 Q439.965,123.7 439.415,122.85 Q438.865,121.9875 438.865,120.9625 L438.865,120.0375 Q438.865,118.975 439.3525,118.0625 Q439.8525,117.1375 440.7275,116.65 Q441.6025,116.15 442.59,116.15 Q443.1775,116.15 443.69,116.2875 Q444.215,116.4125 444.6525,116.7 Z " fill="#000000"/><text fill="#000000" font-family="sans-serif" font-size="11.2" lengthAdjust="spacing" textLength="130.4" x="455.16" y="124.6375">AnnouncementRepository</text><line style="stroke:#181818;stroke-width:0.4000000000000001;" x1="424.4" x2="594" y1="132.8" y2="132.8"/><line style="stroke:#181818;stroke-width:0.4000000000000001;" x1="424.4" x2="594" y1="139.2" y2="139.2"/><ellipse cx="432.4" cy="151.0484" fill="#84BE84" rx="2.4" ry="2.4" style="stroke:#038048;stroke-width:0.8000000000000002;"/><text fill="#000000" font-family="sans-serif" font-size="11.2" lengthAdjust="spacing" textLength="32" x="439.6" y="154.4859">save()</text><ellipse cx="432.4" cy="165.9453" fill="#84BE84" rx="2.4" ry="2.4" style="stroke:#038048;stroke-width:0.8000000000000002;"/><text fill="#000000" font-family="sans-serif" font-size="11.2" lengthAdjust="spacing" textLength="116" x="439.6" y="169.3828">createAnnouncement()</text><ellipse cx="432.4" cy="180.8422" fill="#84BE84" rx="2.4" ry="2.4" style="stroke:#038048;stroke-width:0.8000000000000002;"/><text fill="#000000" font-family="sans-serif" font-size="11.2" lengthAdjust="spacing" textLength="123.2" x="439.6" y="184.2797">validateAnnouncement()</text><ellipse cx="432.4" cy="195.7391" fill="#84BE84" rx="2.4" ry="2.4" style="stroke:#038048;stroke-width:0.8000000000000002;"/><text fill="#000000" font-family="sans-serif" font-size="11.2" lengthAdjust="spacing" textLength="103.2" x="439.6" y="199.1766">addAnnouncement()</text><ellipse cx="432.4" cy="210.6359" fill="#84BE84" rx="2.4" ry="2.4" style="stroke:#038048;stroke-width:0.8000000000000002;"/><text fill="#000000" font-family="sans-serif" font-size="11.2" lengthAdjust="spacing" textLength="150.4" x="439.6" y="214.0734">getAllVisibleAnnouncements()</text><ellipse cx="432.4" cy="225.5328" fill="#84BE84" rx="2.4" ry="2.4" style="stroke:#038048;stroke-width:0.8000000000000002;"/><text fill="#000000" font-family="sans-serif" font-size="11.2" lengthAdjust="spacing" textLength="100" x="439.6" y="228.9703">getAvailableFields()</text><ellipse cx="432.4" cy="240.4297" fill="#84BE84" rx="2.4" ry="2.4" style="stroke:#038048;stroke-width:0.8000000000000002;"/><text fill="#000000" font-family="sans-serif" font-size="11.2" lengthAdjust="spacing" textLength="105.6" x="439.6" y="243.8672">getAnnouncements()</text></g><!--class AnnouncementDTO--><g id="elem_AnnouncementDTO"><rect codeLine="48" fill="#F1F1F1" height="97.9875" id="AnnouncementDTO" rx="2" ry="2" style="stroke:#181818;stroke-width:0.4000000000000001;" width="125.6" x="643.2" y="297.6"/><ellipse cx="655.2" cy="310.4" fill="#ADD1B2" rx="8.8" ry="8.8" style="stroke:#181818;stroke-width:0.8000000000000002;"/><path d="M657.4125,307.1 Q657.5375,306.925 657.6875,306.8375 Q657.8375,306.75 658.0125,306.75 Q658.3125,306.75 658.5,306.9625 Q658.6875,307.1625 658.6875,307.65 L658.6875,308.8125 Q658.6875,309.3 658.5,309.5125 Q658.3125,309.725 658.0125,309.725 Q657.7375,309.725 657.575,309.5625 Q657.4125,309.4125 657.325,309 Q657.2875,308.7125 657.1375,308.5625 Q656.875,308.2625 656.3875,308.0875 Q655.9,307.9125 655.4,307.9125 Q654.7875,307.9125 654.275,308.175 Q653.775,308.4375 653.375,309.0375 Q652.9875,309.6375 652.9875,310.4625 L652.9875,311.3375 Q652.9875,312.325 653.7,312.9875 Q654.4125,313.6375 655.6875,313.6375 Q656.4375,313.6375 656.9625,313.4375 Q657.275,313.3125 657.6125,312.9625 Q657.825,312.75 657.9375,312.6875 Q658.0625,312.625 658.225,312.625 Q658.4875,312.625 658.6875,312.8375 Q658.9,313.0375 658.9,313.3125 Q658.9,313.5875 658.625,313.9125 Q658.225,314.375 657.5875,314.6375 Q656.725,315 655.6875,315 Q654.475,315 653.5125,314.5 Q652.725,314.1 652.175,313.25 Q651.625,312.3875 651.625,311.3625 L651.625,310.4375 Q651.625,309.375 652.1125,308.4625 Q652.6125,307.5375 653.4875,307.05 Q654.3625,306.55 655.35,306.55 Q655.9375,306.55 656.45,306.6875 Q656.975,306.8125 657.4125,307.1 Z " fill="#000000"/><text fill="#000000" font-family="sans-serif" font-size="11.2" lengthAdjust="spacing" textLength="100" x="666.4" y="315.0375">AnnouncementDTO</text><line style="stroke:#181818;stroke-width:0.4000000000000001;" x1="644" x2="768" y1="323.2" y2="323.2"/><rect fill="none" height="4.8" style="stroke:#C82930;stroke-width:0.8000000000000002;" width="4.8" x="649.6" y="332.6484"/><text fill="#000000" font-family="sans-serif" font-size="11.2" lengthAdjust="spacing" textLength="24.8" x="659.2" y="338.4859">price</text><rect fill="none" height="4.8" style="stroke:#C82930;stroke-width:0.8000000000000002;" width="4.8" x="649.6" y="347.5453"/><text fill="#000000" font-family="sans-serif" font-size="11.2" lengthAdjust="spacing" textLength="79.2" x="659.2" y="353.3828">typeOfBusiness</text><rect fill="none" height="4.8" style="stroke:#C82930;stroke-width:0.8000000000000002;" width="4.8" x="649.6" y="362.4422"/><text fill="#000000" font-family="sans-serif" font-size="11.2" lengthAdjust="spacing" textLength="42.4" x="659.2" y="368.2797">property</text><rect fill="none" height="4.8" style="stroke:#C82930;stroke-width:0.8000000000000002;" width="4.8" x="649.6" y="377.3391"/><text fill="#000000" font-family="sans-serif" font-size="11.2" lengthAdjust="spacing" textLength="28.8" x="659.2" y="383.1766">agent</text><line style="stroke:#181818;stroke-width:0.4000000000000001;" x1="644" x2="768" y1="389.1875" y2="389.1875"/></g><!--class AnnouncementMapper--><g id="elem_AnnouncementMapper"><rect codeLine="56" fill="#F1F1F1" height="127.7813" id="AnnouncementMapper" rx="2" ry="2" style="stroke:#181818;stroke-width:0.4000000000000001;" width="166.4" x="622.8" y="114.4"/><ellipse cx="646.68" cy="127.2" fill="#ADD1B2" rx="8.8" ry="8.8" style="stroke:#181818;stroke-width:0.8000000000000002;"/><path d="M648.8925,123.9 Q649.0175,123.725 649.1675,123.6375 Q649.3175,123.55 649.4925,123.55 Q649.7925,123.55 649.98,123.7625 Q650.1675,123.9625 650.1675,124.45 L650.1675,125.6125 Q650.1675,126.1 649.98,126.3125 Q649.7925,126.525 649.4925,126.525 Q649.2175,126.525 649.055,126.3625 Q648.8925,126.2125 648.805,125.8 Q648.7675,125.5125 648.6175,125.3625 Q648.355,125.0625 647.8675,124.8875 Q647.38,124.7125 646.88,124.7125 Q646.2675,124.7125 645.755,124.975 Q645.255,125.2375 644.855,125.8375 Q644.4675,126.4375 644.4675,127.2625 L644.4675,128.1375 Q644.4675,129.125 645.18,129.7875 Q645.8925,130.4375 647.1675,130.4375 Q647.9175,130.4375 648.4425,130.2375 Q648.755,130.1125 649.0925,129.7625 Q649.305,129.55 649.4175,129.4875 Q649.5425,129.425 649.705,129.425 Q649.9675,129.425 650.1675,129.6375 Q650.38,129.8375 650.38,130.1125 Q650.38,130.3875 650.105,130.7125 Q649.705,131.175 649.0675,131.4375 Q648.205,131.8 647.1675,131.8 Q645.955,131.8 644.9925,131.3 Q644.205,130.9 643.655,130.05 Q643.105,129.1875 643.105,128.1625 L643.105,127.2375 Q643.105,126.175 643.5925,125.2625 Q644.0925,124.3375 644.9675,123.85 Q645.8425,123.35 646.83,123.35 Q647.4175,123.35 647.93,123.4875 Q648.455,123.6125 648.8925,123.9 Z " fill="#000000"/><text fill="#000000" font-family="sans-serif" font-size="11.2" lengthAdjust="spacing" textLength="114.4" x="660.52" y="131.8375">AnnouncementMapper</text><line style="stroke:#181818;stroke-width:0.4000000000000001;" x1="623.6" x2="788.4" y1="140" y2="140"/><rect fill="none" height="4.8" style="stroke:#C82930;stroke-width:0.8000000000000002;" width="4.8" x="629.2" y="149.4484"/><text fill="#000000" font-family="sans-serif" font-size="11.2" lengthAdjust="spacing" textLength="116.8" x="638.8" y="155.2859">announcementDTOList</text><line style="stroke:#181818;stroke-width:0.4000000000000001;" x1="623.6" x2="788.4" y1="161.2969" y2="161.2969"/><ellipse cx="631.6" cy="173.1453" fill="#84BE84" rx="2.4" ry="2.4" style="stroke:#038048;stroke-width:0.8000000000000002;"/><text fill="#000000" font-family="sans-serif" font-size="11.2" lengthAdjust="spacing" textLength="45.6" x="638.8" y="176.5828">convert()</text><ellipse cx="631.6" cy="188.0422" fill="#84BE84" rx="2.4" ry="2.4" style="stroke:#038048;stroke-width:0.8000000000000002;"/><text fill="#000000" font-family="sans-serif" font-size="11.2" lengthAdjust="spacing" textLength="35.2" x="638.8" y="191.4797">toDto()</text><ellipse cx="631.6" cy="202.9391" fill="#84BE84" rx="2.4" ry="2.4" style="stroke:#038048;stroke-width:0.8000000000000002;"/><text fill="#000000" font-family="sans-serif" font-size="11.2" lengthAdjust="spacing" textLength="117.6" x="638.8" y="206.3766">getAllAnnouncements()</text><ellipse cx="631.6" cy="217.8359" fill="#84BE84" rx="2.4" ry="2.4" style="stroke:#038048;stroke-width:0.8000000000000002;"/><text fill="#000000" font-family="sans-serif" font-size="11.2" lengthAdjust="spacing" textLength="145.6" x="638.8" y="221.2734">getAnnouncementDTOById()</text><ellipse cx="631.6" cy="232.7328" fill="#84BE84" rx="2.4" ry="2.4" style="stroke:#038048;stroke-width:0.8000000000000002;"/><text fill="#000000" font-family="sans-serif" font-size="11.2" lengthAdjust="spacing" textLength="111.2" x="638.8" y="236.1703">toDtoAnnouncement()</text></g><!--class Repositories--><g id="elem_Repositories"><rect codeLine="66" fill="#F1F1F1" height="53.2969" id="Repositories" rx="2" ry="2" style="stroke:#181818;stroke-width:0.4000000000000001;" width="150.4" x="245.2" y="151.6"/><ellipse cx="285.4" cy="164.4" fill="#ADD1B2" rx="8.8" ry="8.8" style="stroke:#181818;stroke-width:0.8000000000000002;"/><path d="M287.6125,161.1 Q287.7375,160.925 287.8875,160.8375 Q288.0375,160.75 288.2125,160.75 Q288.5125,160.75 288.7,160.9625 Q288.8875,161.1625 288.8875,161.65 L288.8875,162.8125 Q288.8875,163.3 288.7,163.5125 Q288.5125,163.725 288.2125,163.725 Q287.9375,163.725 287.775,163.5625 Q287.6125,163.4125 287.525,163 Q287.4875,162.7125 287.3375,162.5625 Q287.075,162.2625 286.5875,162.0875 Q286.1,161.9125 285.6,161.9125 Q284.9875,161.9125 284.475,162.175 Q283.975,162.4375 283.575,163.0375 Q283.1875,163.6375 283.1875,164.4625 L283.1875,165.3375 Q283.1875,166.325 283.9,166.9875 Q284.6125,167.6375 285.8875,167.6375 Q286.6375,167.6375 287.1625,167.4375 Q287.475,167.3125 287.8125,166.9625 Q288.025,166.75 288.1375,166.6875 Q288.2625,166.625 288.425,166.625 Q288.6875,166.625 288.8875,166.8375 Q289.1,167.0375 289.1,167.3125 Q289.1,167.5875 288.825,167.9125 Q288.425,168.375 287.7875,168.6375 Q286.925,169 285.8875,169 Q284.675,169 283.7125,168.5 Q282.925,168.1 282.375,167.25 Q281.825,166.3875 281.825,165.3625 L281.825,164.4375 Q281.825,163.375 282.3125,162.4625 Q282.8125,161.5375 283.6875,161.05 Q284.5625,160.55 285.55,160.55 Q286.1375,160.55 286.65,160.6875 Q287.175,160.8125 287.6125,161.1 Z " fill="#000000"/><text fill="#000000" font-family="sans-serif" font-size="11.2" lengthAdjust="spacing" textLength="63.2" x="301.8" y="169.0375">Repositories</text><line style="stroke:#181818;stroke-width:0.4000000000000001;" x1="246" x2="394.8" y1="177.2" y2="177.2"/><ellipse cx="254" cy="189.0484" fill="none" rx="2.4" ry="2.4" style="stroke:#038048;stroke-width:0.8000000000000002;"/><text fill="#000000" font-family="sans-serif" font-size="11.2" lengthAdjust="spacing" textLength="129.6" x="261.2" y="192.4859">announcementRepository</text><line style="stroke:#181818;stroke-width:0.4000000000000001;" x1="246" x2="394.8" y1="198.4969" y2="198.4969"/></g><!--reverse link PlaceOrderToBuyPropertyUI to Runnable--><g id="link_PlaceOrderToBuyPropertyUI_Runnable"><path codeLine="73" d="M212.88,32.4 C216.784,32.4 220.68,32.4 224.584,32.4 " fill="none" id="PlaceOrderToBuyPropertyUI-backto-Runnable" style="stroke:#181818;stroke-width:0.8000000000000002;"/><polygon fill="none" points="212.84,38,196.84,32.4,212.84,26.8,212.84,38" style="stroke:#181818;stroke-width:0.8000000000000002;"/></g><!--link PlaceOrderToBuyPropertyUI to PlaceOrderToBuyPropertyController--><g id="link_PlaceOrderToBuyPropertyUI_PlaceOrderToBuyPropertyController"><path codeLine="74" d="M112.4,59.352 C112.4,79.712 112.4,108.456 112.4,132.504 " fill="none" id="PlaceOrderToBuyPropertyUI-to-PlaceOrderToBuyPropertyController" style="stroke:#181818;stroke-width:0.8000000000000002;stroke-dasharray:7.0,7.0;"/><polygon fill="#181818" points="112.4,136.632,115.6,129.432,112.4,132.632,109.2,129.432,112.4,136.632" style="stroke:#181818;stroke-width:0.8000000000000002;"/></g><!--link PlaceOrderToBuyPropertyController to Repositories--><g id="link_PlaceOrderToBuyPropertyController_Repositories"><path codeLine="75" d="M216.808,178.4 C224.848,178.4 232.888,178.4 240.928,178.4 " fill="none" id="PlaceOrderToBuyPropertyController-to-Repositories" style="stroke:#181818;stroke-width:0.8000000000000002;"/><polygon fill="#181818" points="245.136,178.4,237.936,175.2,241.136,178.4,237.936,181.6,245.136,178.4" style="stroke:#181818;stroke-width:0.8000000000000002;"/></g><!--link Repositories to AnnouncementRepository--><g id="link_Repositories_AnnouncementRepository"><path codeLine="76" d="M395.624,178.4 C403.56,178.4 411.496,178.4 419.424,178.4 " fill="none" id="Repositories-to-AnnouncementRepository" style="stroke:#181818;stroke-width:0.8000000000000002;"/><polygon fill="#181818" points="423.576,178.4,416.376,175.2,419.576,178.4,416.376,181.6,423.576,178.4" style="stroke:#181818;stroke-width:0.8000000000000002;"/></g><!--link AnnouncementRepository to AnnouncementMapper--><g id="link_AnnouncementRepository_AnnouncementMapper"><path codeLine="77" d="M594.912,178.4 C602.8,178.4 610.68,178.4 618.568,178.4 " fill="none" id="AnnouncementRepository-to-AnnouncementMapper" style="stroke:#181818;stroke-width:0.8000000000000002;"/><polygon fill="#181818" points="622.688,178.4,615.488,175.2,618.688,178.4,615.488,181.6,622.688,178.4" style="stroke:#181818;stroke-width:0.8000000000000002;"/></g><!--link AnnouncementMapper to AnnouncementDTO--><g id="link_AnnouncementMapper_AnnouncementDTO"><path codeLine="78" d="M706,242.584 C706,259.344 706,277.256 706,293.352 " fill="none" id="AnnouncementMapper-to-AnnouncementDTO" style="stroke:#181818;stroke-width:0.8000000000000002;"/><polygon fill="#181818" points="706,297.408,709.2,290.208,706,293.408,702.8,290.208,706,297.408" style="stroke:#181818;stroke-width:0.8000000000000002;"/></g><!--link PlaceOrderToBuyPropertyController to Order--><g id="link_PlaceOrderToBuyPropertyController_Order"><path codeLine="79" d="M112.4,220.12 C112.4,242.224 112.4,269.752 112.4,293.384 " fill="none" id="PlaceOrderToBuyPropertyController-to-Order" style="stroke:#181818;stroke-width:0.8000000000000002;stroke-dasharray:7.0,7.0;"/><polygon fill="#181818" points="112.4,297.448,115.6,290.248,112.4,293.448,109.2,290.248,112.4,297.448" style="stroke:#181818;stroke-width:0.8000000000000002;"/></g><!--link Order to PlaceOrderToBuyPropertyRepository--><g id="link_Order_PlaceOrderToBuyPropertyRepository"><path codeLine="80" d="M112.4,395.4 C112.4,409.12 112.4,424.32 112.4,438.96 " fill="none" id="Order-to-PlaceOrderToBuyPropertyRepository" style="stroke:#181818;stroke-width:0.8000000000000002;"/><polygon fill="#181818" points="112.4,443.072,115.6,435.872,112.4,439.072,109.2,435.872,112.4,443.072" style="stroke:#181818;stroke-width:0.8000000000000002;"/></g><!--SRC=[ZLJBQiCm4BphAtniASud69A6Gg358KrxL-rD42YIqQuDfks_LufjMNxXvXJMi-EPdLqBHM0kF8FeL2h5loH4tun5zlSKcL8zFB9VnZB94QEZjB3Kv63EUbVMHwCBC5H_7BgEECgq8gEb1BFQzkoXVRjsg1CK6WLfKxSoCWES6WOhfwbTWRPAwL9bS0D5hm8fb7e71xAaiA3m9TkRxUqgF61gIqYSIbmrqMiTcN22Mga8rKXynQN89vPudayyfXtNf8YkkiLtCa9TG-lXMARoh1nUWMThHXksJ4JEFhHQP-ik5Ya_1GgxI2421v2A2-bMxKM0p74fL5oojJ-d_RWB8p9e_rDTG7hPbIWK87f0arKNzjMbFClxneiYN1i-V6UGgTtpod9wvQJtf4TJMBO_fDtLXtn8D1gjr-hZ581ze7msSDV5cB_fMCA5ufza-OZPydblDidw5RFrEu-JWGKsy6CVpgykMzZeKKCJ7fl9CnuXxSp_8TQPlWDOyp5nBAjV0VO7]--></g></svg>