<?xml version="1.0" encoding="us-ascii" standalone="no"?><svg xmlns="http://www.w3.org/2000/svg" xmlns:xlink="http://www.w3.org/1999/xlink" contentStyleType="text/css" height="465.5px" preserveAspectRatio="none" style="width:958px;height:465px;background:#FFFFFF;" version="1.1" viewBox="0 0 958 465" width="958px" zoomAndPan="magnify"><defs/><g><rect fill="#FFFFFF" height="368.5117" style="stroke:#181818;stroke-width:0.5;" width="5" x="10.5" y="46.8105"/><rect fill="#FFFFFF" height="37.4561" style="stroke:#181818;stroke-width:0.5;" width="5" x="245" y="58.4561"/><rect fill="#FFFFFF" height="78.2275" style="stroke:#181818;stroke-width:0.5;" width="5" x="245" y="189.7852"/><rect fill="#FFFFFF" height="46.9365" style="stroke:#181818;stroke-width:0.5;" width="5" x="245" y="337.0947"/><rect fill="#FFFFFF" height="20.1455" style="stroke:#181818;stroke-width:0.5;" width="5" x="245" y="399.6768"/><rect fill="#FFFFFF" height="15.6455" style="stroke:#181818;stroke-width:0.5;" width="5" x="359" y="95.9121"/><rect fill="#FFFFFF" height="15.6455" style="stroke:#181818;stroke-width:0.5;" width="5" x="359" y="174.1396"/><rect fill="#FFFFFF" height="15.6455" style="stroke:#181818;stroke-width:0.5;" width="5" x="359" y="268.0127"/><rect fill="#FFFFFF" height="15.6455" style="stroke:#181818;stroke-width:0.5;" width="5" x="359" y="321.4492"/><rect fill="#FFFFFF" height="35.791" style="stroke:#181818;stroke-width:0.5;" width="5" x="359" y="384.0313"/><rect fill="#FFFFFF" height="15.6455" style="stroke:#181818;stroke-width:0.5;" width="5" x="464" y="158.4941"/><rect fill="#FFFFFF" height="15.6455" style="stroke:#181818;stroke-width:0.5;" width="5" x="556.5" y="142.8486"/><rect fill="#FFFFFF" height="15.6455" style="stroke:#181818;stroke-width:0.5;" width="5" x="649" y="127.2031"/><rect fill="#FFFFFF" height="15.6455" style="stroke:#181818;stroke-width:0.5;" width="5" x="741.5" y="111.5576"/><rect fill="#FFFFFF" height="20.1455" style="stroke:#181818;stroke-width:0.5;" width="5" x="832" y="399.6768"/><rect fill="#FFFFFF" height="37.791" style="stroke:#181818;stroke-width:0.5;" width="5" x="912" y="283.6582"/><line style="stroke:#181818;stroke-width:0.25;stroke-dasharray:5.0,5.0;" x1="13" x2="13" y1="41.8105" y2="424.3223"/><line style="stroke:#181818;stroke-width:0.25;stroke-dasharray:5.0,5.0;" x1="247.25" x2="247.25" y1="41.8105" y2="424.3223"/><line style="stroke:#181818;stroke-width:0.25;stroke-dasharray:5.0,5.0;" x1="361.25" x2="361.25" y1="78.3613" y2="424.3223"/><line style="stroke:#181818;stroke-width:0.25;stroke-dasharray:5.0,5.0;" x1="466.25" x2="466.25" y1="41.8105" y2="424.3223"/><line style="stroke:#181818;stroke-width:0.25;stroke-dasharray:5.0,5.0;" x1="558.75" x2="558.75" y1="41.8105" y2="424.3223"/><line style="stroke:#181818;stroke-width:0.25;stroke-dasharray:5.0,5.0;" x1="651.25" x2="651.25" y1="41.8105" y2="424.3223"/><line style="stroke:#181818;stroke-width:0.25;stroke-dasharray:5.0,5.0;" x1="743.75" x2="743.75" y1="41.8105" y2="424.3223"/><line style="stroke:#181818;stroke-width:0.25;stroke-dasharray:5.0,5.0;" x1="834.25" x2="834.25" y1="41.8105" y2="424.3223"/><line style="stroke:#181818;stroke-width:0.25;stroke-dasharray:5.0,5.0;" x1="914.25" x2="914.25" y1="41.8105" y2="424.3223"/><text fill="#000000" font-family="sans-serif" font-size="7" lengthAdjust="spacing" textLength="18" x="2.5" y="40.0537">Client</text><ellipse cx="13" cy="6.75" fill="#E2E2F0" rx="4" ry="4" style="stroke:#181818;stroke-width:0.25;"/><path d="M13,10.75 L13,24.25 M6.5,14.75 L19.5,14.75 M13,24.25 L6.5,31.75 M13,24.25 L19.5,31.75 " fill="none" style="stroke:#181818;stroke-width:0.25;"/><text fill="#000000" font-family="sans-serif" font-size="7" lengthAdjust="spacing" textLength="18" x="2.5" y="431.376">Client</text><ellipse cx="13" cy="437.3828" fill="#E2E2F0" rx="4" ry="4" style="stroke:#181818;stroke-width:0.25;"/><path d="M13,441.3828 L13,454.8828 M6.5,445.3828 L19.5,445.3828 M13,454.8828 L6.5,462.3828 M13,454.8828 L19.5,462.3828 " fill="none" style="stroke:#181818;stroke-width:0.25;"/><rect fill="#E2E2F0" height="16.3105" rx="1.25" ry="1.25" style="stroke:#181818;stroke-width:0.25;" width="96.5" x="199.25" y="25"/><text fill="#000000" font-family="sans-serif" font-size="7" lengthAdjust="spacing" textLength="89.5" x="202.75" y="36.0537">PlaceOrderToBuyPropertyUI</text><rect fill="#E2E2F0" height="16.3105" rx="1.25" ry="1.25" style="stroke:#181818;stroke-width:0.25;" width="96.5" x="199.25" y="423.8223"/><text fill="#000000" font-family="sans-serif" font-size="7" lengthAdjust="spacing" textLength="89.5" x="202.75" y="434.876">PlaceOrderToBuyPropertyUI</text><rect fill="#E2E2F0" height="16.3105" rx="1.25" ry="1.25" style="stroke:#181818;stroke-width:0.25;" width="121.5" x="300.75" y="423.8223"/><text fill="#000000" font-family="sans-serif" font-size="7" lengthAdjust="spacing" textLength="114.5" x="304.25" y="434.876">PlaceOrderToBuyPropertyController</text><rect fill="#E2E2F0" height="16.3105" rx="1.25" ry="1.25" style="stroke:#181818;stroke-width:0.25;" width="78.5" x="427.25" y="25"/><text fill="#000000" font-family="sans-serif" font-size="7" lengthAdjust="spacing" textLength="71.5" x="430.75" y="36.0537">AnnouncementMapper</text><rect fill="#E2E2F0" height="16.3105" rx="1.25" ry="1.25" style="stroke:#181818;stroke-width:0.25;" width="78.5" x="427.25" y="423.8223"/><text fill="#000000" font-family="sans-serif" font-size="7" lengthAdjust="spacing" textLength="71.5" x="430.75" y="434.876">AnnouncementMapper</text><rect fill="#E2E2F0" height="16.3105" rx="1.25" ry="1.25" style="stroke:#181818;stroke-width:0.25;" width="69.5" x="524.25" y="25"/><text fill="#000000" font-family="sans-serif" font-size="7" lengthAdjust="spacing" textLength="62.5" x="527.75" y="36.0537">AnnouncementDTO</text><rect fill="#E2E2F0" height="16.3105" rx="1.25" ry="1.25" style="stroke:#181818;stroke-width:0.25;" width="69.5" x="524.25" y="423.8223"/><text fill="#000000" font-family="sans-serif" font-size="7" lengthAdjust="spacing" textLength="62.5" x="527.75" y="434.876">AnnouncementDTO</text><rect fill="#E2E2F0" height="16.3105" rx="1.25" ry="1.25" style="stroke:#181818;stroke-width:0.25;" width="88.5" x="607.25" y="25"/><text fill="#000000" font-family="sans-serif" font-size="7" lengthAdjust="spacing" textLength="81.5" x="610.75" y="36.0537">AnnouncementRepository</text><rect fill="#E2E2F0" height="16.3105" rx="1.25" ry="1.25" style="stroke:#181818;stroke-width:0.25;" width="88.5" x="607.25" y="423.8223"/><text fill="#000000" font-family="sans-serif" font-size="7" lengthAdjust="spacing" textLength="81.5" x="610.75" y="434.876">AnnouncementRepository</text><rect fill="#E2E2F0" height="16.3105" rx="1.25" ry="1.25" style="stroke:#181818;stroke-width:0.25;" width="46.5" x="720.75" y="25"/><text fill="#000000" font-family="sans-serif" font-size="7" lengthAdjust="spacing" textLength="39.5" x="724.25" y="36.0537">Repositories</text><rect fill="#E2E2F0" height="16.3105" rx="1.25" ry="1.25" style="stroke:#181818;stroke-width:0.25;" width="46.5" x="720.75" y="423.8223"/><text fill="#000000" font-family="sans-serif" font-size="7" lengthAdjust="spacing" textLength="39.5" x="724.25" y="434.876">Repositories</text><rect fill="#E2E2F0" height="16.3105" rx="1.25" ry="1.25" style="stroke:#181818;stroke-width:0.25;" width="124.5" x="772.25" y="25"/><text fill="#000000" font-family="sans-serif" font-size="7" lengthAdjust="spacing" textLength="117.5" x="775.75" y="36.0537">PlaceOrderToBuyPropertyRepository</text><rect fill="#E2E2F0" height="16.3105" rx="1.25" ry="1.25" style="stroke:#181818;stroke-width:0.25;" width="124.5" x="772.25" y="423.8223"/><text fill="#000000" font-family="sans-serif" font-size="7" lengthAdjust="spacing" textLength="117.5" x="775.75" y="434.876">PlaceOrderToBuyPropertyRepository</text><rect fill="#E2E2F0" height="16.3105" rx="1.25" ry="1.25" style="stroke:#181818;stroke-width:0.25;" width="25.5" x="901.75" y="25"/><text fill="#000000" font-family="sans-serif" font-size="7" lengthAdjust="spacing" textLength="18.5" x="905.25" y="36.0537">Order</text><rect fill="#E2E2F0" height="16.3105" rx="1.25" ry="1.25" style="stroke:#181818;stroke-width:0.25;" width="25.5" x="901.75" y="423.8223"/><text fill="#000000" font-family="sans-serif" font-size="7" lengthAdjust="spacing" textLength="18.5" x="905.25" y="434.876">Order</text><rect fill="#FFFFFF" height="368.5117" style="stroke:#181818;stroke-width:0.5;" width="5" x="10.5" y="46.8105"/><rect fill="#FFFFFF" height="37.4561" style="stroke:#181818;stroke-width:0.5;" width="5" x="245" y="58.4561"/><rect fill="#FFFFFF" height="78.2275" style="stroke:#181818;stroke-width:0.5;" width="5" x="245" y="189.7852"/><rect fill="#FFFFFF" height="46.9365" style="stroke:#181818;stroke-width:0.5;" width="5" x="245" y="337.0947"/><rect fill="#FFFFFF" height="20.1455" style="stroke:#181818;stroke-width:0.5;" width="5" x="245" y="399.6768"/><rect fill="#FFFFFF" height="15.6455" style="stroke:#181818;stroke-width:0.5;" width="5" x="359" y="95.9121"/><rect fill="#FFFFFF" height="15.6455" style="stroke:#181818;stroke-width:0.5;" width="5" x="359" y="174.1396"/><rect fill="#FFFFFF" height="15.6455" style="stroke:#181818;stroke-width:0.5;" width="5" x="359" y="268.0127"/><rect fill="#FFFFFF" height="15.6455" style="stroke:#181818;stroke-width:0.5;" width="5" x="359" y="321.4492"/><rect fill="#FFFFFF" height="35.791" style="stroke:#181818;stroke-width:0.5;" width="5" x="359" y="384.0313"/><rect fill="#FFFFFF" height="15.6455" style="stroke:#181818;stroke-width:0.5;" width="5" x="464" y="158.4941"/><rect fill="#FFFFFF" height="15.6455" style="stroke:#181818;stroke-width:0.5;" width="5" x="556.5" y="142.8486"/><rect fill="#FFFFFF" height="15.6455" style="stroke:#181818;stroke-width:0.5;" width="5" x="649" y="127.2031"/><rect fill="#FFFFFF" height="15.6455" style="stroke:#181818;stroke-width:0.5;" width="5" x="741.5" y="111.5576"/><rect fill="#FFFFFF" height="20.1455" style="stroke:#181818;stroke-width:0.5;" width="5" x="832" y="399.6768"/><rect fill="#FFFFFF" height="37.791" style="stroke:#181818;stroke-width:0.5;" width="5" x="912" y="283.6582"/><polygon fill="#181818" points="239,56.4561,244,58.4561,239,60.4561,241,58.4561" style="stroke:#181818;stroke-width:0.5;"/><line style="stroke:#181818;stroke-width:0.5;" x1="15.5" x2="242" y1="58.4561" y2="58.4561"/><text fill="#000000" font-family="sans-serif" font-size="6.5" font-weight="bold" lengthAdjust="spacing" textLength="3.5" x="19" y="55.8247">1</text><text fill="#000000" font-family="sans-serif" font-size="6.5" lengthAdjust="spacing" textLength="137" x="24.5" y="55.8247">starts placing an order to purchase the property</text><polygon fill="#181818" points="294.75,72.1016,299.75,74.1016,294.75,76.1016,296.75,74.1016" style="stroke:#181818;stroke-width:0.5;"/><line style="stroke:#181818;stroke-width:0.5;" x1="250" x2="297.75" y1="74.1016" y2="74.1016"/><text fill="#000000" font-family="sans-serif" font-size="6.5" font-weight="bold" lengthAdjust="spacing" textLength="3.5" x="253.5" y="71.4702">2</text><text fill="#000000" font-family="sans-serif" font-size="6.5" lengthAdjust="spacing" textLength="18" x="259" y="71.4702">create</text><rect fill="#E2E2F0" height="16.3105" rx="1.25" ry="1.25" style="stroke:#181818;stroke-width:0.25;" width="121.5" x="300.75" y="62.4561"/><text fill="#000000" font-family="sans-serif" font-size="7" lengthAdjust="spacing" textLength="114.5" x="304.25" y="73.5098">PlaceOrderToBuyPropertyController</text><polygon fill="#181818" points="353,93.9121,358,95.9121,353,97.9121,355,95.9121" style="stroke:#181818;stroke-width:0.5;"/><line style="stroke:#181818;stroke-width:0.5;" x1="247.5" x2="356" y1="95.9121" y2="95.9121"/><text fill="#000000" font-family="sans-serif" font-size="6.5" font-weight="bold" lengthAdjust="spacing" textLength="3.5" x="251" y="93.2808">3</text><text fill="#000000" font-family="sans-serif" font-size="6.5" lengthAdjust="spacing" textLength="67" x="256.5" y="93.2808">getAnnouncementList()</text><polygon fill="#181818" points="735.5,109.5576,740.5,111.5576,735.5,113.5576,737.5,111.5576" style="stroke:#181818;stroke-width:0.5;"/><line style="stroke:#181818;stroke-width:0.5;" x1="361.5" x2="738.5" y1="111.5576" y2="111.5576"/><text fill="#000000" font-family="sans-serif" font-size="6.5" font-weight="bold" lengthAdjust="spacing" textLength="3.5" x="365" y="108.9263">4</text><text fill="#000000" font-family="sans-serif" font-size="6.5" lengthAdjust="spacing" textLength="67" x="370.5" y="108.9263">getAnnouncementList()</text><polygon fill="#181818" points="659.5,125.2031,654.5,127.2031,659.5,129.2031,657.5,127.2031" style="stroke:#181818;stroke-width:0.5;"/><line style="stroke:#181818;stroke-width:0.5;" x1="656.5" x2="743.5" y1="127.2031" y2="127.2031"/><text fill="#000000" font-family="sans-serif" font-size="6.5" font-weight="bold" lengthAdjust="spacing" textLength="3.5" x="662.5" y="124.5718">5</text><text fill="#000000" font-family="sans-serif" font-size="6.5" lengthAdjust="spacing" textLength="72.5" x="668" y="124.5718">return AnnouncementList</text><polygon fill="#181818" points="567,140.8486,562,142.8486,567,144.8486,565,142.8486" style="stroke:#181818;stroke-width:0.5;"/><line style="stroke:#181818;stroke-width:0.5;" x1="564" x2="651" y1="142.8486" y2="142.8486"/><text fill="#000000" font-family="sans-serif" font-size="6.5" font-weight="bold" lengthAdjust="spacing" textLength="3.5" x="570" y="140.2173">6</text><text fill="#000000" font-family="sans-serif" font-size="6.5" lengthAdjust="spacing" textLength="72.5" x="575.5" y="140.2173">return AnnouncementList</text><polygon fill="#181818" points="474.5,156.4941,469.5,158.4941,474.5,160.4941,472.5,158.4941" style="stroke:#181818;stroke-width:0.5;"/><line style="stroke:#181818;stroke-width:0.5;" x1="471.5" x2="558.5" y1="158.4941" y2="158.4941"/><text fill="#000000" font-family="sans-serif" font-size="6.5" font-weight="bold" lengthAdjust="spacing" textLength="3.5" x="477.5" y="155.8628">7</text><text fill="#000000" font-family="sans-serif" font-size="6.5" lengthAdjust="spacing" textLength="72.5" x="483" y="155.8628">return AnnouncementList</text><polygon fill="#181818" points="369.5,172.1396,364.5,174.1396,369.5,176.1396,367.5,174.1396" style="stroke:#181818;stroke-width:0.5;"/><line style="stroke:#181818;stroke-width:0.5;" x1="366.5" x2="466" y1="174.1396" y2="174.1396"/><text fill="#000000" font-family="sans-serif" font-size="6.5" font-weight="bold" lengthAdjust="spacing" textLength="3.5" x="372.5" y="171.5083">8</text><text fill="#000000" font-family="sans-serif" font-size="6.5" lengthAdjust="spacing" textLength="72.5" x="378" y="171.5083">return AnnouncementList</text><polygon fill="#181818" points="255.5,187.7852,250.5,189.7852,255.5,191.7852,253.5,189.7852" style="stroke:#181818;stroke-width:0.5;"/><line style="stroke:#181818;stroke-width:0.5;" x1="252.5" x2="361" y1="189.7852" y2="189.7852"/><text fill="#000000" font-family="sans-serif" font-size="6.5" font-weight="bold" lengthAdjust="spacing" textLength="3.5" x="258.5" y="187.1538">9</text><text fill="#000000" font-family="sans-serif" font-size="6.5" lengthAdjust="spacing" textLength="72.5" x="264" y="187.1538">return AnnouncementList</text><polygon fill="#181818" points="21,203.4307,16,205.4307,21,207.4307,19,205.4307" style="stroke:#181818;stroke-width:0.5;"/><line style="stroke:#181818;stroke-width:0.5;" x1="18" x2="244.5" y1="205.4307" y2="205.4307"/><text fill="#000000" font-family="sans-serif" font-size="6.5" font-weight="bold" lengthAdjust="spacing" textLength="7" x="24" y="202.7993">10</text><text fill="#000000" font-family="sans-serif" font-size="6.5" lengthAdjust="spacing" textLength="179" x="33" y="202.7993">shows Announcement list and requests the user to select one</text><polygon fill="#181818" points="239,219.0762,244,221.0762,239,223.0762,241,221.0762" style="stroke:#181818;stroke-width:0.5;"/><line style="stroke:#181818;stroke-width:0.5;" x1="15.5" x2="242" y1="221.0762" y2="221.0762"/><text fill="#000000" font-family="sans-serif" font-size="6.5" font-weight="bold" lengthAdjust="spacing" textLength="7" x="19" y="218.4448">11</text><text fill="#000000" font-family="sans-serif" font-size="6.5" lengthAdjust="spacing" textLength="116.5" x="28" y="218.4448">selects Announcement with the property</text><polygon fill="#181818" points="21,234.7217,16,236.7217,21,238.7217,19,236.7217" style="stroke:#181818;stroke-width:0.5;"/><line style="stroke:#181818;stroke-width:0.5;" x1="18" x2="244.5" y1="236.7217" y2="236.7217"/><text fill="#000000" font-family="sans-serif" font-size="6.5" font-weight="bold" lengthAdjust="spacing" textLength="7" x="24" y="234.0903">12</text><text fill="#000000" font-family="sans-serif" font-size="6.5" lengthAdjust="spacing" textLength="65" x="33" y="234.0903">requests order amount</text><polygon fill="#181818" points="239,250.3672,244,252.3672,239,254.3672,241,252.3672" style="stroke:#181818;stroke-width:0.5;"/><line style="stroke:#181818;stroke-width:0.5;" x1="15.5" x2="242" y1="252.3672" y2="252.3672"/><text fill="#000000" font-family="sans-serif" font-size="6.5" font-weight="bold" lengthAdjust="spacing" textLength="7" x="19" y="249.7358">13</text><text fill="#000000" font-family="sans-serif" font-size="6.5" lengthAdjust="spacing" textLength="56" x="28" y="249.7358">types order amount</text><polygon fill="#181818" points="353,266.0127,358,268.0127,353,270.0127,355,268.0127" style="stroke:#181818;stroke-width:0.5;"/><line style="stroke:#181818;stroke-width:0.5;" x1="247.5" x2="356" y1="268.0127" y2="268.0127"/><text fill="#000000" font-family="sans-serif" font-size="6.5" font-weight="bold" lengthAdjust="spacing" textLength="7" x="251" y="265.3813">14</text><text fill="#000000" font-family="sans-serif" font-size="6.5" lengthAdjust="spacing" textLength="38" x="260" y="265.3813">createOrder()</text><polygon fill="#181818" points="906,281.6582,911,283.6582,906,285.6582,908,283.6582" style="stroke:#181818;stroke-width:0.5;"/><line style="stroke:#181818;stroke-width:0.5;" x1="361.5" x2="909" y1="283.6582" y2="283.6582"/><text fill="#000000" font-family="sans-serif" font-size="6.5" font-weight="bold" lengthAdjust="spacing" textLength="7" x="365" y="281.0269">15</text><text fill="#000000" font-family="sans-serif" font-size="6.5" lengthAdjust="spacing" textLength="38" x="374" y="281.0269">createOrder()</text><line style="stroke:#181818;stroke-width:0.5;" x1="917" x2="938" y1="299.3037" y2="299.3037"/><line style="stroke:#181818;stroke-width:0.5;" x1="938" x2="938" y1="299.3037" y2="305.8037"/><line style="stroke:#181818;stroke-width:0.5;" x1="917.5" x2="938" y1="305.8037" y2="305.8037"/><polygon fill="#181818" points="922.5,303.8037,917.5,305.8037,922.5,307.8037,920.5,305.8037" style="stroke:#181818;stroke-width:0.5;"/><text fill="#000000" font-family="sans-serif" font-size="6.5" font-weight="bold" lengthAdjust="spacing" textLength="7" x="920.5" y="296.6724">16</text><text fill="#000000" font-family="sans-serif" font-size="6.5" lengthAdjust="spacing" textLength="25" x="929.5" y="296.6724">validates</text><polygon fill="#181818" points="369.5,319.4492,364.5,321.4492,369.5,323.4492,367.5,321.4492" style="stroke:#181818;stroke-width:0.5;"/><line style="stroke:#181818;stroke-width:0.5;" x1="366.5" x2="914" y1="321.4492" y2="321.4492"/><text fill="#000000" font-family="sans-serif" font-size="6.5" font-weight="bold" lengthAdjust="spacing" textLength="7" x="372.5" y="318.8179">17</text><text fill="#000000" font-family="sans-serif" font-size="6.5" lengthAdjust="spacing" textLength="56.5" x="381.5" y="318.8179">return created order</text><polygon fill="#181818" points="255.5,335.0947,250.5,337.0947,255.5,339.0947,253.5,337.0947" style="stroke:#181818;stroke-width:0.5;"/><line style="stroke:#181818;stroke-width:0.5;" x1="252.5" x2="361" y1="337.0947" y2="337.0947"/><text fill="#000000" font-family="sans-serif" font-size="6.5" font-weight="bold" lengthAdjust="spacing" textLength="7" x="258.5" y="334.4634">18</text><text fill="#000000" font-family="sans-serif" font-size="6.5" lengthAdjust="spacing" textLength="56.5" x="267.5" y="334.4634">return created order</text><polygon fill="#181818" points="21,350.7402,16,352.7402,21,354.7402,19,352.7402" style="stroke:#181818;stroke-width:0.5;"/><line style="stroke:#181818;stroke-width:0.5;" x1="18" x2="244.5" y1="352.7402" y2="352.7402"/><text fill="#000000" font-family="sans-serif" font-size="6.5" font-weight="bold" lengthAdjust="spacing" textLength="7" x="24" y="350.1089">19</text><text fill="#000000" font-family="sans-serif" font-size="6.5" lengthAdjust="spacing" textLength="208.5" x="33" y="350.1089">shows selected property and the order amount and asks for confirmation</text><polygon fill="#181818" points="239,366.3857,244,368.3857,239,370.3857,241,368.3857" style="stroke:#181818;stroke-width:0.5;"/><line style="stroke:#181818;stroke-width:0.5;" x1="15.5" x2="242" y1="368.3857" y2="368.3857"/><text fill="#000000" font-family="sans-serif" font-size="6.5" font-weight="bold" lengthAdjust="spacing" textLength="7" x="19" y="365.7544">20</text><text fill="#000000" font-family="sans-serif" font-size="6.5" lengthAdjust="spacing" textLength="50" x="28" y="365.7544">confirms the data</text><polygon fill="#181818" points="353,382.0313,358,384.0313,353,386.0313,355,384.0313" style="stroke:#181818;stroke-width:0.5;"/><line style="stroke:#181818;stroke-width:0.5;" x1="247.5" x2="356" y1="384.0313" y2="384.0313"/><text fill="#000000" font-family="sans-serif" font-size="6.5" font-weight="bold" lengthAdjust="spacing" textLength="7" x="251" y="381.3999">21</text><text fill="#000000" font-family="sans-serif" font-size="6.5" lengthAdjust="spacing" textLength="33" x="260" y="381.3999">saveOrder()</text><polygon fill="#181818" points="826,397.6768,831,399.6768,826,401.6768,828,399.6768" style="stroke:#181818;stroke-width:0.5;"/><line style="stroke:#181818;stroke-width:0.5;" x1="364" x2="829" y1="399.6768" y2="399.6768"/><text fill="#000000" font-family="sans-serif" font-size="6.5" font-weight="bold" lengthAdjust="spacing" textLength="7" x="367.5" y="397.0454">22</text><text fill="#000000" font-family="sans-serif" font-size="6.5" lengthAdjust="spacing" textLength="33" x="376.5" y="397.0454">saveOrder()</text><polygon fill="#181818" points="18.5,413.3223,13.5,415.3223,18.5,417.3223,16.5,415.3223" style="stroke:#181818;stroke-width:0.5;"/><line style="stroke:#181818;stroke-width:0.5;" x1="15.5" x2="244.5" y1="415.3223" y2="415.3223"/><text fill="#000000" font-family="sans-serif" font-size="6.5" font-weight="bold" lengthAdjust="spacing" textLength="7" x="21.5" y="412.6909">23</text><text fill="#000000" font-family="sans-serif" font-size="6.5" lengthAdjust="spacing" textLength="72.5" x="30.5" y="412.6909">informs operation sucess</text><!--SRC=[bLNDRXmX3Bxp53wsaVe2UwZKffTAhH9LwGDGnicYpWB5iD6-VGtCJe2ToSvUviV6dyrdVo1Zi2OU_g0NGgfWFToF6aq0IQ3obt3I1wsqasnz7AN21p-WVx9Vu-dHMuS-d7v_J-kZthBstfhWxJYYppc2RuA-66EZKNZWp3-buuXLzxUdXrNVBtIMD6_dr2oPpHffIwqhC7bXgjwc3oQk9L4VPS0pUwAyuTDdvcS751Y7m74-RLv0ce81mOABNkqb8OGzWfigg02PNX5r0cBIxkvW1yeZEohh3bumr3pyq1G-V1HYm1hchKPcN_0ZXTVSRC59iVDFGwoe_nBqScTsu354Rw1FrAHfa6VhIg_5ihslWITdM_ALD8l-D8wYC_I9oqJVdZjXBpecYOXBspmHDoURC1U798tm5hncEAh1pLfW5UpjApK8C384os5W-7yHYJMIP12fQ8DmH1N06hmGLFPqOAywx3iPjGNCIOhwv85ZBxGQJWxx5PNKYlhoMR1HOXdglS26jkbmAVdVeezor0FxgNBbUgQ-5FJX75wX5ykrlgx7RsfgwGV7dwdFJKszg8dCHab_2Pxvob7MF6j_a45RqpTXyfLnu7tBfWSaZpTruEevtq7E8DSlY7UOqOPtoLj8CNcJG54XKSjkkI_-0m00]--></g></svg>