<?xml version="1.0" encoding="us-ascii" standalone="no"?><svg xmlns="http://www.w3.org/2000/svg" xmlns:xlink="http://www.w3.org/1999/xlink" contentStyleType="text/css" height="602.4px" preserveAspectRatio="none" style="width:1158px;height:602px;background:#FFFFFF;" version="1.1" viewBox="0 0 1158 602" width="1158.6px" zoomAndPan="magnify"><defs/><g><text fill="#000000" font-family="sans-serif" font-size="8.4" font-weight="bold" lengthAdjust="spacing" textLength="107.4" x="526.8" y="18.0645">Sequence Diagram US010</text><rect fill="#FFFFFF" height="462.1887" style="stroke:#181818;stroke-width:0.6;" width="6" x="21.6" y="79.9453"/><rect fill="#FFFFFF" height="44.9473" style="stroke:#181818;stroke-width:0.6;" width="6" x="303" y="93.9199"/><rect fill="#FFFFFF" height="113.8477" style="stroke:#181818;stroke-width:0.6;" width="6" x="303" y="251.5148"/><rect fill="#FFFFFF" height="99.273" style="stroke:#181818;stroke-width:0.6;" width="6" x="303" y="448.2609"/><rect fill="#FFFFFF" height="18.7746" style="stroke:#181818;stroke-width:0.6;" width="6" x="439.8" y="138.8672"/><rect fill="#FFFFFF" height="18.7746" style="stroke:#181818;stroke-width:0.6;" width="6" x="439.8" y="232.7402"/><rect fill="#FFFFFF" height="18.7746" style="stroke:#181818;stroke-width:0.6;" width="6" x="439.8" y="365.3625"/><rect fill="#FFFFFF" height="18.7746" style="stroke:#181818;stroke-width:0.6;" width="6" x="439.8" y="429.4863"/><rect fill="#FFFFFF" height="18.7746" style="stroke:#181818;stroke-width:0.6;" width="6" x="439.8" y="504.5848"/><rect fill="#FFFFFF" height="18.7746" style="stroke:#181818;stroke-width:0.6;" width="6" x="565.8" y="213.9656"/><rect fill="#FFFFFF" height="18.7746" style="stroke:#181818;stroke-width:0.6;" width="6" x="676.8" y="195.191"/><rect fill="#FFFFFF" height="18.7746" style="stroke:#181818;stroke-width:0.6;" width="6" x="787.8" y="176.4164"/><rect fill="#FFFFFF" height="18.7746" style="stroke:#181818;stroke-width:0.6;" width="6" x="898.8" y="157.6418"/><rect fill="#FFFFFF" height="24.1746" style="stroke:#181818;stroke-width:0.6;" width="6" x="1007.4" y="523.3594"/><rect fill="#FFFFFF" height="45.3492" style="stroke:#181818;stroke-width:0.6;" width="6" x="1103.4" y="384.1371"/><rect fill="none" height="49.1238" style="stroke:#000000;stroke-width:0.8999999999999999;" width="363.9" x="6" y="298.0641"/><line style="stroke:#181818;stroke-width:0.3;stroke-dasharray:5.0,5.0;" x1="24.6" x2="24.6" y1="73.9453" y2="552.934"/><line style="stroke:#181818;stroke-width:0.3;stroke-dasharray:5.0,5.0;" x1="305.7" x2="305.7" y1="73.9453" y2="552.934"/><line style="stroke:#181818;stroke-width:0.3;stroke-dasharray:5.0,5.0;" x1="442.5" x2="442.5" y1="117.8062" y2="552.934"/><line style="stroke:#181818;stroke-width:0.3;stroke-dasharray:5.0,5.0;" x1="568.5" x2="568.5" y1="73.9453" y2="552.934"/><line style="stroke:#181818;stroke-width:0.3;stroke-dasharray:5.0,5.0;" x1="679.5" x2="679.5" y1="73.9453" y2="552.934"/><line style="stroke:#181818;stroke-width:0.3;stroke-dasharray:5.0,5.0;" x1="790.5" x2="790.5" y1="73.9453" y2="552.934"/><line style="stroke:#181818;stroke-width:0.3;stroke-dasharray:5.0,5.0;" x1="901.5" x2="901.5" y1="73.9453" y2="552.934"/><line style="stroke:#181818;stroke-width:0.3;stroke-dasharray:5.0,5.0;" x1="1010.1" x2="1010.1" y1="73.9453" y2="552.934"/><line style="stroke:#181818;stroke-width:0.3;stroke-dasharray:5.0,5.0;" x1="1106.1" x2="1106.1" y1="73.9453" y2="552.934"/><text fill="#000000" font-family="sans-serif" font-size="8.4" lengthAdjust="spacing" textLength="21.6" x="12" y="71.8371">Client</text><ellipse cx="24.6" cy="31.8727" fill="#E2E2F0" rx="4.8" ry="4.8" style="stroke:#181818;stroke-width:0.3;"/><path d="M24.6,36.6727 L24.6,52.8727 M16.8,41.4727 L32.4,41.4727 M24.6,52.8727 L16.8,61.8727 M24.6,52.8727 L32.4,61.8727 " fill="none" style="stroke:#181818;stroke-width:0.3;"/><text fill="#000000" font-family="sans-serif" font-size="8.4" lengthAdjust="spacing" textLength="21.6" x="12" y="561.3984">Client</text><ellipse cx="24.6" cy="568.6066" fill="#E2E2F0" rx="4.8" ry="4.8" style="stroke:#181818;stroke-width:0.3;"/><path d="M24.6,573.4066 L24.6,589.6066 M16.8,578.2066 L32.4,578.2066 M24.6,589.6066 L16.8,598.6066 M24.6,589.6066 L32.4,598.6066 " fill="none" style="stroke:#181818;stroke-width:0.3;"/><rect fill="#E2E2F0" height="19.5727" rx="1.5" ry="1.5" style="stroke:#181818;stroke-width:0.3;" width="115.8" x="248.1" y="53.7727"/><text fill="#000000" font-family="sans-serif" font-size="8.4" lengthAdjust="spacing" textLength="107.4" x="252.3" y="67.0371">PlaceOrderToBuyPropertyUI</text><rect fill="#E2E2F0" height="19.5727" rx="1.5" ry="1.5" style="stroke:#181818;stroke-width:0.3;" width="115.8" x="248.1" y="552.334"/><text fill="#000000" font-family="sans-serif" font-size="8.4" lengthAdjust="spacing" textLength="107.4" x="252.3" y="565.5984">PlaceOrderToBuyPropertyUI</text><rect fill="#E2E2F0" height="19.5727" rx="1.5" ry="1.5" style="stroke:#181818;stroke-width:0.3;" width="145.8" x="369.9" y="552.334"/><text fill="#000000" font-family="sans-serif" font-size="8.4" lengthAdjust="spacing" textLength="137.4" x="374.1" y="565.5984">PlaceOrderToBuyPropertyController</text><rect fill="#E2E2F0" height="19.5727" rx="1.5" ry="1.5" style="stroke:#181818;stroke-width:0.3;" width="94.2" x="521.7" y="53.7727"/><text fill="#000000" font-family="sans-serif" font-size="8.4" lengthAdjust="spacing" textLength="85.8" x="525.9" y="67.0371">AnnouncementMapper</text><rect fill="#E2E2F0" height="19.5727" rx="1.5" ry="1.5" style="stroke:#181818;stroke-width:0.3;" width="94.2" x="521.7" y="552.334"/><text fill="#000000" font-family="sans-serif" font-size="8.4" lengthAdjust="spacing" textLength="85.8" x="525.9" y="565.5984">AnnouncementMapper</text><rect fill="#E2E2F0" height="19.5727" rx="1.5" ry="1.5" style="stroke:#181818;stroke-width:0.3;" width="83.4" x="638.1" y="53.7727"/><text fill="#000000" font-family="sans-serif" font-size="8.4" lengthAdjust="spacing" textLength="75" x="642.3" y="67.0371">AnnouncementDTO</text><rect fill="#E2E2F0" height="19.5727" rx="1.5" ry="1.5" style="stroke:#181818;stroke-width:0.3;" width="83.4" x="638.1" y="552.334"/><text fill="#000000" font-family="sans-serif" font-size="8.4" lengthAdjust="spacing" textLength="75" x="642.3" y="565.5984">AnnouncementDTO</text><rect fill="#E2E2F0" height="19.5727" rx="1.5" ry="1.5" style="stroke:#181818;stroke-width:0.3;" width="106.2" x="737.7" y="53.7727"/><text fill="#000000" font-family="sans-serif" font-size="8.4" lengthAdjust="spacing" textLength="97.8" x="741.9" y="67.0371">AnnouncementRepository</text><rect fill="#E2E2F0" height="19.5727" rx="1.5" ry="1.5" style="stroke:#181818;stroke-width:0.3;" width="106.2" x="737.7" y="552.334"/><text fill="#000000" font-family="sans-serif" font-size="8.4" lengthAdjust="spacing" textLength="97.8" x="741.9" y="565.5984">AnnouncementRepository</text><rect fill="#E2E2F0" height="19.5727" rx="1.5" ry="1.5" style="stroke:#181818;stroke-width:0.3;" width="55.8" x="873.9" y="53.7727"/><text fill="#000000" font-family="sans-serif" font-size="8.4" lengthAdjust="spacing" textLength="47.4" x="878.1" y="67.0371">Repositories</text><rect fill="#E2E2F0" height="19.5727" rx="1.5" ry="1.5" style="stroke:#181818;stroke-width:0.3;" width="55.8" x="873.9" y="552.334"/><text fill="#000000" font-family="sans-serif" font-size="8.4" lengthAdjust="spacing" textLength="47.4" x="878.1" y="565.5984">Repositories</text><rect fill="#E2E2F0" height="19.5727" rx="1.5" ry="1.5" style="stroke:#181818;stroke-width:0.3;" width="149.4" x="935.7" y="53.7727"/><text fill="#000000" font-family="sans-serif" font-size="8.4" lengthAdjust="spacing" textLength="141" x="939.9" y="67.0371">PlaceOrderToBuyPropertyRepository</text><rect fill="#E2E2F0" height="19.5727" rx="1.5" ry="1.5" style="stroke:#181818;stroke-width:0.3;" width="149.4" x="935.7" y="552.334"/><text fill="#000000" font-family="sans-serif" font-size="8.4" lengthAdjust="spacing" textLength="141" x="939.9" y="565.5984">PlaceOrderToBuyPropertyRepository</text><rect fill="#E2E2F0" height="19.5727" rx="1.5" ry="1.5" style="stroke:#181818;stroke-width:0.3;" width="30.6" x="1091.1" y="53.7727"/><text fill="#000000" font-family="sans-serif" font-size="8.4" lengthAdjust="spacing" textLength="22.2" x="1095.3" y="67.0371">Order</text><rect fill="#E2E2F0" height="19.5727" rx="1.5" ry="1.5" style="stroke:#181818;stroke-width:0.3;" width="30.6" x="1091.1" y="552.334"/><text fill="#000000" font-family="sans-serif" font-size="8.4" lengthAdjust="spacing" textLength="22.2" x="1095.3" y="565.5984">Order</text><rect fill="#FFFFFF" height="462.1887" style="stroke:#181818;stroke-width:0.6;" width="6" x="21.6" y="79.9453"/><rect fill="#FFFFFF" height="44.9473" style="stroke:#181818;stroke-width:0.6;" width="6" x="303" y="93.9199"/><rect fill="#FFFFFF" height="113.8477" style="stroke:#181818;stroke-width:0.6;" width="6" x="303" y="251.5148"/><rect fill="#FFFFFF" height="99.273" style="stroke:#181818;stroke-width:0.6;" width="6" x="303" y="448.2609"/><rect fill="#FFFFFF" height="18.7746" style="stroke:#181818;stroke-width:0.6;" width="6" x="439.8" y="138.8672"/><rect fill="#FFFFFF" height="18.7746" style="stroke:#181818;stroke-width:0.6;" width="6" x="439.8" y="232.7402"/><rect fill="#FFFFFF" height="18.7746" style="stroke:#181818;stroke-width:0.6;" width="6" x="439.8" y="365.3625"/><rect fill="#FFFFFF" height="18.7746" style="stroke:#181818;stroke-width:0.6;" width="6" x="439.8" y="429.4863"/><rect fill="#FFFFFF" height="18.7746" style="stroke:#181818;stroke-width:0.6;" width="6" x="439.8" y="504.5848"/><rect fill="#FFFFFF" height="18.7746" style="stroke:#181818;stroke-width:0.6;" width="6" x="565.8" y="213.9656"/><rect fill="#FFFFFF" height="18.7746" style="stroke:#181818;stroke-width:0.6;" width="6" x="676.8" y="195.191"/><rect fill="#FFFFFF" height="18.7746" style="stroke:#181818;stroke-width:0.6;" width="6" x="787.8" y="176.4164"/><rect fill="#FFFFFF" height="18.7746" style="stroke:#181818;stroke-width:0.6;" width="6" x="898.8" y="157.6418"/><rect fill="#FFFFFF" height="24.1746" style="stroke:#181818;stroke-width:0.6;" width="6" x="1007.4" y="523.3594"/><rect fill="#FFFFFF" height="45.3492" style="stroke:#181818;stroke-width:0.6;" width="6" x="1103.4" y="384.1371"/><polygon fill="#181818" points="295.8,91.5199,301.8,93.9199,295.8,96.3199,298.2,93.9199" style="stroke:#181818;stroke-width:0.6;"/><line style="stroke:#181818;stroke-width:0.6;" x1="27.6" x2="299.4" y1="93.9199" y2="93.9199"/><text fill="#000000" font-family="sans-serif" font-size="7.8" font-weight="bold" lengthAdjust="spacing" textLength="4.2" x="31.8" y="90.7623">1</text><text fill="#000000" font-family="sans-serif" font-size="7.8" lengthAdjust="spacing" textLength="164.4" x="38.4" y="90.7623">starts placing an order to purchase the property</text><polygon fill="#181818" points="362.7,110.2945,368.7,112.6945,362.7,115.0945,365.1,112.6945" style="stroke:#181818;stroke-width:0.6;"/><line style="stroke:#181818;stroke-width:0.6;" x1="309" x2="366.3" y1="112.6945" y2="112.6945"/><text fill="#000000" font-family="sans-serif" font-size="7.8" font-weight="bold" lengthAdjust="spacing" textLength="4.2" x="313.2" y="109.5369">2</text><text fill="#000000" font-family="sans-serif" font-size="7.8" lengthAdjust="spacing" textLength="21.6" x="319.8" y="109.5369">create</text><rect fill="#E2E2F0" height="19.5727" rx="1.5" ry="1.5" style="stroke:#181818;stroke-width:0.3;" width="145.8" x="369.9" y="98.7199"/><text fill="#000000" font-family="sans-serif" font-size="8.4" lengthAdjust="spacing" textLength="137.4" x="374.1" y="111.9844">PlaceOrderToBuyPropertyController</text><polygon fill="#181818" points="432.6,136.4672,438.6,138.8672,432.6,141.2672,435,138.8672" style="stroke:#181818;stroke-width:0.6;"/><line style="stroke:#181818;stroke-width:0.6;" x1="306" x2="436.2" y1="138.8672" y2="138.8672"/><text fill="#000000" font-family="sans-serif" font-size="7.8" font-weight="bold" lengthAdjust="spacing" textLength="4.2" x="310.2" y="135.7096">3</text><text fill="#000000" font-family="sans-serif" font-size="7.8" lengthAdjust="spacing" textLength="80.4" x="316.8" y="135.7096">getAnnouncementList()</text><polygon fill="#181818" points="891.6,155.2418,897.6,157.6418,891.6,160.0418,894,157.6418" style="stroke:#181818;stroke-width:0.6;"/><line style="stroke:#181818;stroke-width:0.6;" x1="442.8" x2="895.2" y1="157.6418" y2="157.6418"/><text fill="#000000" font-family="sans-serif" font-size="7.8" font-weight="bold" lengthAdjust="spacing" textLength="4.2" x="447" y="154.4842">4</text><text fill="#000000" font-family="sans-serif" font-size="7.8" lengthAdjust="spacing" textLength="80.4" x="453.6" y="154.4842">getAnnouncementList()</text><polygon fill="#181818" points="800.4,174.0164,794.4,176.4164,800.4,178.8164,798,176.4164" style="stroke:#181818;stroke-width:0.6;"/><line style="stroke:#181818;stroke-width:0.6;" x1="796.8" x2="901.2" y1="176.4164" y2="176.4164"/><text fill="#000000" font-family="sans-serif" font-size="7.8" font-weight="bold" lengthAdjust="spacing" textLength="4.2" x="804" y="173.2588">5</text><text fill="#000000" font-family="sans-serif" font-size="7.8" lengthAdjust="spacing" textLength="87" x="810.6" y="173.2588">return AnnouncementList</text><polygon fill="#181818" points="689.4,192.791,683.4,195.191,689.4,197.591,687,195.191" style="stroke:#181818;stroke-width:0.6;"/><line style="stroke:#181818;stroke-width:0.6;" x1="685.8" x2="790.2" y1="195.191" y2="195.191"/><text fill="#000000" font-family="sans-serif" font-size="7.8" font-weight="bold" lengthAdjust="spacing" textLength="4.2" x="693" y="192.0334">6</text><text fill="#000000" font-family="sans-serif" font-size="7.8" lengthAdjust="spacing" textLength="87" x="699.6" y="192.0334">return AnnouncementList</text><polygon fill="#181818" points="578.4,211.5656,572.4,213.9656,578.4,216.3656,576,213.9656" style="stroke:#181818;stroke-width:0.6;"/><line style="stroke:#181818;stroke-width:0.6;" x1="574.8" x2="679.2" y1="213.9656" y2="213.9656"/><text fill="#000000" font-family="sans-serif" font-size="7.8" font-weight="bold" lengthAdjust="spacing" textLength="4.2" x="582" y="210.808">7</text><text fill="#000000" font-family="sans-serif" font-size="7.8" lengthAdjust="spacing" textLength="87" x="588.6" y="210.808">return AnnouncementList</text><polygon fill="#181818" points="452.4,230.3402,446.4,232.7402,452.4,235.1402,450,232.7402" style="stroke:#181818;stroke-width:0.6;"/><line style="stroke:#181818;stroke-width:0.6;" x1="448.8" x2="568.2" y1="232.7402" y2="232.7402"/><text fill="#000000" font-family="sans-serif" font-size="7.8" font-weight="bold" lengthAdjust="spacing" textLength="4.2" x="456" y="229.5826">8</text><text fill="#000000" font-family="sans-serif" font-size="7.8" lengthAdjust="spacing" textLength="87" x="462.6" y="229.5826">return AnnouncementList</text><polygon fill="#181818" points="315.6,249.1148,309.6,251.5148,315.6,253.9148,313.2,251.5148" style="stroke:#181818;stroke-width:0.6;"/><line style="stroke:#181818;stroke-width:0.6;" x1="312" x2="442.2" y1="251.5148" y2="251.5148"/><text fill="#000000" font-family="sans-serif" font-size="7.8" font-weight="bold" lengthAdjust="spacing" textLength="4.2" x="319.2" y="248.3572">9</text><text fill="#000000" font-family="sans-serif" font-size="7.8" lengthAdjust="spacing" textLength="87" x="325.8" y="248.3572">return AnnouncementList</text><polygon fill="#181818" points="34.2,267.8895,28.2,270.2895,34.2,272.6895,31.8,270.2895" style="stroke:#181818;stroke-width:0.6;"/><line style="stroke:#181818;stroke-width:0.6;" x1="30.6" x2="302.4" y1="270.2895" y2="270.2895"/><text fill="#000000" font-family="sans-serif" font-size="7.8" font-weight="bold" lengthAdjust="spacing" textLength="8.4" x="37.8" y="267.1318">10</text><text fill="#000000" font-family="sans-serif" font-size="7.8" lengthAdjust="spacing" textLength="214.8" x="48.6" y="267.1318">shows Announcement list and requests the user to select one</text><polygon fill="#181818" points="295.8,286.6641,301.8,289.0641,295.8,291.4641,298.2,289.0641" style="stroke:#181818;stroke-width:0.6;"/><line style="stroke:#181818;stroke-width:0.6;" x1="27.6" x2="299.4" y1="289.0641" y2="289.0641"/><text fill="#000000" font-family="sans-serif" font-size="7.8" font-weight="bold" lengthAdjust="spacing" textLength="8.4" x="31.8" y="285.9064">11</text><text fill="#000000" font-family="sans-serif" font-size="7.8" lengthAdjust="spacing" textLength="139.8" x="42.6" y="285.9064">selects Announcement with the property</text><path d="M6,298.0641 L49.8,298.0641 L49.8,303.6387 L43.8,309.6387 L6,309.6387 L6,298.0641 " fill="#EEEEEE" style="stroke:#000000;stroke-width:0.8999999999999999;"/><rect fill="none" height="49.1238" style="stroke:#000000;stroke-width:0.8999999999999999;" width="363.9" x="6" y="298.0641"/><text fill="#000000" font-family="sans-serif" font-size="7.8" font-weight="bold" lengthAdjust="spacing" textLength="16.8" x="15" y="307.0811">loop</text><text fill="#000000" font-family="sans-serif" font-size="6.6" font-weight="bold" lengthAdjust="spacing" textLength="244.8" x="58.8" y="306.3861">[(when order amount is not equal or lower than the price of the property)]</text><polygon fill="#181818" points="34.2,321.2133,28.2,323.6133,34.2,326.0133,31.8,323.6133" style="stroke:#181818;stroke-width:0.6;"/><line style="stroke:#181818;stroke-width:0.6;" x1="30.6" x2="302.4" y1="323.6133" y2="323.6133"/><text fill="#000000" font-family="sans-serif" font-size="7.8" font-weight="bold" lengthAdjust="spacing" textLength="8.4" x="37.8" y="320.4557">12</text><text fill="#000000" font-family="sans-serif" font-size="7.8" lengthAdjust="spacing" textLength="78" x="48.6" y="320.4557">requests order amount</text><polygon fill="#181818" points="295.8,339.9879,301.8,342.3879,295.8,344.7879,298.2,342.3879" style="stroke:#181818;stroke-width:0.6;"/><line style="stroke:#181818;stroke-width:0.6;" x1="27.6" x2="299.4" y1="342.3879" y2="342.3879"/><text fill="#000000" font-family="sans-serif" font-size="7.8" font-weight="bold" lengthAdjust="spacing" textLength="8.4" x="31.8" y="339.2303">13</text><text fill="#000000" font-family="sans-serif" font-size="7.8" lengthAdjust="spacing" textLength="67.2" x="42.6" y="339.2303">types order amount</text><polygon fill="#181818" points="432.6,362.9625,438.6,365.3625,432.6,367.7625,435,365.3625" style="stroke:#181818;stroke-width:0.6;"/><line style="stroke:#181818;stroke-width:0.6;" x1="306" x2="436.2" y1="365.3625" y2="365.3625"/><text fill="#000000" font-family="sans-serif" font-size="7.8" font-weight="bold" lengthAdjust="spacing" textLength="8.4" x="310.2" y="362.2049">14</text><text fill="#000000" font-family="sans-serif" font-size="7.8" lengthAdjust="spacing" textLength="45.6" x="321" y="362.2049">createOrder()</text><polygon fill="#181818" points="1096.2,381.7371,1102.2,384.1371,1096.2,386.5371,1098.6,384.1371" style="stroke:#181818;stroke-width:0.6;"/><line style="stroke:#181818;stroke-width:0.6;" x1="442.8" x2="1099.8" y1="384.1371" y2="384.1371"/><text fill="#000000" font-family="sans-serif" font-size="7.8" font-weight="bold" lengthAdjust="spacing" textLength="8.4" x="447" y="380.9795">15</text><text fill="#000000" font-family="sans-serif" font-size="7.8" lengthAdjust="spacing" textLength="45.6" x="457.8" y="380.9795">createOrder()</text><line style="stroke:#181818;stroke-width:0.6;" x1="1109.4" x2="1134.6" y1="402.9117" y2="402.9117"/><line style="stroke:#181818;stroke-width:0.6;" x1="1134.6" x2="1134.6" y1="402.9117" y2="410.7117"/><line style="stroke:#181818;stroke-width:0.6;" x1="1110" x2="1134.6" y1="410.7117" y2="410.7117"/><polygon fill="#181818" points="1116,408.3117,1110,410.7117,1116,413.1117,1113.6,410.7117" style="stroke:#181818;stroke-width:0.6;"/><text fill="#000000" font-family="sans-serif" font-size="7.8" font-weight="bold" lengthAdjust="spacing" textLength="8.4" x="1113.6" y="399.7541">16</text><text fill="#000000" font-family="sans-serif" font-size="7.8" lengthAdjust="spacing" textLength="30" x="1124.4" y="399.7541">validates</text><polygon fill="#181818" points="452.4,427.0863,446.4,429.4863,452.4,431.8863,450,429.4863" style="stroke:#181818;stroke-width:0.6;"/><line style="stroke:#181818;stroke-width:0.6;" x1="448.8" x2="1105.8" y1="429.4863" y2="429.4863"/><text fill="#000000" font-family="sans-serif" font-size="7.8" font-weight="bold" lengthAdjust="spacing" textLength="8.4" x="456" y="426.3287">17</text><text fill="#000000" font-family="sans-serif" font-size="7.8" lengthAdjust="spacing" textLength="67.8" x="466.8" y="426.3287">return created order</text><polygon fill="#181818" points="315.6,445.8609,309.6,448.2609,315.6,450.6609,313.2,448.2609" style="stroke:#181818;stroke-width:0.6;"/><line style="stroke:#181818;stroke-width:0.6;" x1="312" x2="442.2" y1="448.2609" y2="448.2609"/><text fill="#000000" font-family="sans-serif" font-size="7.8" font-weight="bold" lengthAdjust="spacing" textLength="8.4" x="319.2" y="445.1033">18</text><text fill="#000000" font-family="sans-serif" font-size="7.8" lengthAdjust="spacing" textLength="67.8" x="330" y="445.1033">return created order</text><polygon fill="#181818" points="34.2,464.6355,28.2,467.0355,34.2,469.4355,31.8,467.0355" style="stroke:#181818;stroke-width:0.6;"/><line style="stroke:#181818;stroke-width:0.6;" x1="30.6" x2="302.4" y1="467.0355" y2="467.0355"/><text fill="#000000" font-family="sans-serif" font-size="7.8" font-weight="bold" lengthAdjust="spacing" textLength="8.4" x="37.8" y="463.8779">19</text><text fill="#000000" font-family="sans-serif" font-size="7.8" lengthAdjust="spacing" textLength="250.2" x="48.6" y="463.8779">shows selected property and the order amount and asks for confirmation</text><polygon fill="#181818" points="295.8,483.4102,301.8,485.8102,295.8,488.2102,298.2,485.8102" style="stroke:#181818;stroke-width:0.6;"/><line style="stroke:#181818;stroke-width:0.6;" x1="27.6" x2="299.4" y1="485.8102" y2="485.8102"/><text fill="#000000" font-family="sans-serif" font-size="7.8" font-weight="bold" lengthAdjust="spacing" textLength="8.4" x="31.8" y="482.6525">20</text><text fill="#000000" font-family="sans-serif" font-size="7.8" lengthAdjust="spacing" textLength="60" x="42.6" y="482.6525">confirms the data</text><polygon fill="#181818" points="432.6,502.1848,438.6,504.5848,432.6,506.9848,435,504.5848" style="stroke:#181818;stroke-width:0.6;"/><line style="stroke:#181818;stroke-width:0.6;" x1="309" x2="436.2" y1="504.5848" y2="504.5848"/><text fill="#000000" font-family="sans-serif" font-size="7.8" font-weight="bold" lengthAdjust="spacing" textLength="8.4" x="313.2" y="501.4271">21</text><text fill="#000000" font-family="sans-serif" font-size="7.8" lengthAdjust="spacing" textLength="39.6" x="324" y="501.4271">saveOrder()</text><polygon fill="#181818" points="1000.2,520.9594,1006.2,523.3594,1000.2,525.7594,1002.6,523.3594" style="stroke:#181818;stroke-width:0.6;"/><line style="stroke:#181818;stroke-width:0.6;" x1="442.8" x2="1003.8" y1="523.3594" y2="523.3594"/><text fill="#000000" font-family="sans-serif" font-size="7.8" font-weight="bold" lengthAdjust="spacing" textLength="8.4" x="447" y="520.2018">22</text><text fill="#000000" font-family="sans-serif" font-size="7.8" lengthAdjust="spacing" textLength="39.6" x="457.8" y="520.2018">saveOrder()</text><polygon fill="#181818" points="31.2,539.734,25.2,542.134,31.2,544.534,28.8,542.134" style="stroke:#181818;stroke-width:0.6;"/><line style="stroke:#181818;stroke-width:0.6;" x1="27.6" x2="302.4" y1="542.134" y2="542.134"/><text fill="#000000" font-family="sans-serif" font-size="7.8" font-weight="bold" lengthAdjust="spacing" textLength="8.4" x="34.8" y="538.9764">23</text><text fill="#000000" font-family="sans-serif" font-size="7.8" lengthAdjust="spacing" textLength="87" x="45.6" y="538.9764">informs operation sucess</text><!--SRC=[bLLBRjim4Dtp5BDC0nH8jruKQ9DDWHO9ckG0B3MsY52aIWvj-FOTah8jAbAjU25BytdpVIHfCWZF-3UYLGWFMkwyxE3r-UxBdH1IaVDmRpHQ0Xb0vJVHIqzQwLwozCb8XO- -GV_YliVZatSzUZg-_aZsKQ-nlNUMl3C6VOv1ldBwPgsBd5l7aN_9dZqMrGylZukwtzYxeBcSOsLo5ciCQt9TWCc6ANkNNhXnaPoDtP_yhaZl9U6fUwBym-Ult9yD16AS03t7qtO7qXOC80TzzAgL0O5QX7x8O0J8xHLH9o1kskqjR41vPCL8ke4TqhWFFtMWcqz2D3Y6kUJ8tHVyIExZtgp1IRxdZwgnOloLeESdim6F5Bs5QQ0gJ8LybYxCMipBfpdmvgmBlX1cLf_MKKm4qy1bepyUEs7FAWQAYFUoyqPyEDY0ERiaQONNu5NBCLhSp0LcGUiEeK80mn1CXuRX-NGAp954WnWADm8QL0JEuZj2PSq4xA2fdT38EDV3pQ754-Dan_O4Ee1r11nK6jQ0SOSKicLc5W3D1wNRLcXC1E1VNTCvxp5yjgiJfcEF4oE1jgbON8YTZvcLxCru_tEi9ZASMoM9Y_TU6jsmFenKEPzXv0MzERcFq8lasiei-w_Qbp9gzZ_D8UzB6amrqIIKuIt0biUfdDrgtqdIpavNPz2LJUEwPJM38FUNHivMTlNIc80irNlzyfcqGrikZVDEThao255X27M8Sl_y0m00]--></g></svg>