<?xml version="1.0" encoding="us-ascii" standalone="no"?><svg xmlns="http://www.w3.org/2000/svg" xmlns:xlink="http://www.w3.org/1999/xlink" contentStyleType="text/css" height="702px" preserveAspectRatio="none" style="width:1087px;height:702px;background:#FFFFFF;" version="1.1" viewBox="0 0 1087 702" width="1087px" zoomAndPan="magnify"><defs/><g><!--class Repositories--><g id="elem_Repositories"><rect codeLine="5" fill="#F1F1F1" height="48" id="Repositories" rx="2.5" ry="2.5" style="stroke:#181818;stroke-width:0.5;" width="111" x="489" y="446"/><ellipse cx="504" cy="462" fill="#ADD1B2" rx="11" ry="11" style="stroke:#181818;stroke-width:1.0;"/><path d="M506.7656,457.875 Q506.9219,457.6563 507.1094,457.5469 Q507.2969,457.4375 507.5156,457.4375 Q507.8906,457.4375 508.125,457.7031 Q508.3594,457.9531 508.3594,458.5625 L508.3594,460.0156 Q508.3594,460.625 508.125,460.8906 Q507.8906,461.1563 507.5156,461.1563 Q507.1719,461.1563 506.9688,460.9531 Q506.7656,460.7656 506.6563,460.25 Q506.6094,459.8906 506.4219,459.7031 Q506.0938,459.3281 505.4844,459.1094 Q504.875,458.8906 504.25,458.8906 Q503.4844,458.8906 502.8438,459.2188 Q502.2188,459.5469 501.7188,460.2969 Q501.2344,461.0469 501.2344,462.0781 L501.2344,463.1719 Q501.2344,464.4063 502.125,465.2344 Q503.0156,466.0469 504.6094,466.0469 Q505.5469,466.0469 506.2031,465.7969 Q506.5938,465.6406 507.0156,465.2031 Q507.2813,464.9375 507.4219,464.8594 Q507.5781,464.7813 507.7813,464.7813 Q508.1094,464.7813 508.3594,465.0469 Q508.625,465.2969 508.625,465.6406 Q508.625,465.9844 508.2813,466.3906 Q507.7813,466.9688 506.9844,467.2969 Q505.9063,467.75 504.6094,467.75 Q503.0938,467.75 501.8906,467.125 Q500.9063,466.625 500.2188,465.5625 Q499.5313,464.4844 499.5313,463.2031 L499.5313,462.0469 Q499.5313,460.7188 500.1406,459.5781 Q500.7656,458.4219 501.8594,457.8125 Q502.9531,457.1875 504.1875,457.1875 Q504.9219,457.1875 505.5625,457.3594 Q506.2188,457.5156 506.7656,457.875 Z " fill="#000000"/><text fill="#000000" font-family="sans-serif" font-size="14" lengthAdjust="spacing" textLength="79" x="518" y="467.7969">Repositories</text><line style="stroke:#181818;stroke-width:0.5;" x1="490" x2="599" y1="478" y2="478"/><line style="stroke:#181818;stroke-width:0.5;" x1="490" x2="599" y1="486" y2="486"/></g><!--class RegisterEmployeeRepository--><g id="elem_RegisterEmployeeRepository"><rect codeLine="7" fill="#F1F1F1" height="48" id="RegisterEmployeeRepository" rx="2.5" ry="2.5" style="stroke:#181818;stroke-width:0.5;" width="215" x="635" y="446"/><ellipse cx="650" cy="462" fill="#ADD1B2" rx="11" ry="11" style="stroke:#181818;stroke-width:1.0;"/><path d="M652.7656,457.875 Q652.9219,457.6563 653.1094,457.5469 Q653.2969,457.4375 653.5156,457.4375 Q653.8906,457.4375 654.125,457.7031 Q654.3594,457.9531 654.3594,458.5625 L654.3594,460.0156 Q654.3594,460.625 654.125,460.8906 Q653.8906,461.1563 653.5156,461.1563 Q653.1719,461.1563 652.9688,460.9531 Q652.7656,460.7656 652.6563,460.25 Q652.6094,459.8906 652.4219,459.7031 Q652.0938,459.3281 651.4844,459.1094 Q650.875,458.8906 650.25,458.8906 Q649.4844,458.8906 648.8438,459.2188 Q648.2188,459.5469 647.7188,460.2969 Q647.2344,461.0469 647.2344,462.0781 L647.2344,463.1719 Q647.2344,464.4063 648.125,465.2344 Q649.0156,466.0469 650.6094,466.0469 Q651.5469,466.0469 652.2031,465.7969 Q652.5938,465.6406 653.0156,465.2031 Q653.2813,464.9375 653.4219,464.8594 Q653.5781,464.7813 653.7813,464.7813 Q654.1094,464.7813 654.3594,465.0469 Q654.625,465.2969 654.625,465.6406 Q654.625,465.9844 654.2813,466.3906 Q653.7813,466.9688 652.9844,467.2969 Q651.9063,467.75 650.6094,467.75 Q649.0938,467.75 647.8906,467.125 Q646.9063,466.625 646.2188,465.5625 Q645.5313,464.4844 645.5313,463.2031 L645.5313,462.0469 Q645.5313,460.7188 646.1406,459.5781 Q646.7656,458.4219 647.8594,457.8125 Q648.9531,457.1875 650.1875,457.1875 Q650.9219,457.1875 651.5625,457.3594 Q652.2188,457.5156 652.7656,457.875 Z " fill="#000000"/><text fill="#000000" font-family="sans-serif" font-size="14" lengthAdjust="spacing" textLength="183" x="664" y="467.7969">RegisterEmployeeRepository</text><line style="stroke:#181818;stroke-width:0.5;" x1="636" x2="849" y1="478" y2="478"/><line style="stroke:#181818;stroke-width:0.5;" x1="636" x2="849" y1="486" y2="486"/></g><!--class Announcement--><g id="elem_Announcement"><rect codeLine="9" fill="#F1F1F1" height="85.2422" id="Announcement" rx="2.5" ry="2.5" style="stroke:#181818;stroke-width:0.5;" width="180" x="892.5" y="610"/><ellipse cx="931.35" cy="626" fill="#ADD1B2" rx="11" ry="11" style="stroke:#181818;stroke-width:1.0;"/><path d="M934.1156,621.875 Q934.2719,621.6563 934.4594,621.5469 Q934.6469,621.4375 934.8656,621.4375 Q935.2406,621.4375 935.475,621.7031 Q935.7094,621.9531 935.7094,622.5625 L935.7094,624.0156 Q935.7094,624.625 935.475,624.8906 Q935.2406,625.1563 934.8656,625.1563 Q934.5219,625.1563 934.3188,624.9531 Q934.1156,624.7656 934.0063,624.25 Q933.9594,623.8906 933.7719,623.7031 Q933.4438,623.3281 932.8344,623.1094 Q932.225,622.8906 931.6,622.8906 Q930.8344,622.8906 930.1938,623.2188 Q929.5688,623.5469 929.0688,624.2969 Q928.5844,625.0469 928.5844,626.0781 L928.5844,627.1719 Q928.5844,628.4063 929.475,629.2344 Q930.3656,630.0469 931.9594,630.0469 Q932.8969,630.0469 933.5531,629.7969 Q933.9438,629.6406 934.3656,629.2031 Q934.6313,628.9375 934.7719,628.8594 Q934.9281,628.7813 935.1313,628.7813 Q935.4594,628.7813 935.7094,629.0469 Q935.975,629.2969 935.975,629.6406 Q935.975,629.9844 935.6313,630.3906 Q935.1313,630.9688 934.3344,631.2969 Q933.2563,631.75 931.9594,631.75 Q930.4438,631.75 929.2406,631.125 Q928.2563,630.625 927.5688,629.5625 Q926.8813,628.4844 926.8813,627.2031 L926.8813,626.0469 Q926.8813,624.7188 927.4906,623.5781 Q928.1156,622.4219 929.2094,621.8125 Q930.3031,621.1875 931.5375,621.1875 Q932.2719,621.1875 932.9125,621.3594 Q933.5688,621.5156 934.1156,621.875 Z " fill="#000000"/><text fill="#000000" font-family="sans-serif" font-size="14" lengthAdjust="spacing" textLength="95" x="950.65" y="631.7969">Announcement</text><line style="stroke:#181818;stroke-width:0.5;" x1="893.5" x2="1071.5" y1="642" y2="642"/><line style="stroke:#181818;stroke-width:0.5;" x1="893.5" x2="1071.5" y1="650" y2="650"/><ellipse cx="903.5" cy="664.8105" fill="#84BE84" rx="3" ry="3" style="stroke:#038048;stroke-width:1.0;"/><text fill="#000000" font-family="sans-serif" font-size="14" lengthAdjust="spacing" textLength="154" x="912.5" y="669.1074">validateAnnouncement()</text><ellipse cx="903.5" cy="683.4316" fill="#84BE84" rx="3" ry="3" style="stroke:#038048;stroke-width:1.0;"/><text fill="#000000" font-family="sans-serif" font-size="14" lengthAdjust="spacing" textLength="129" x="912.5" y="687.7285">addAnnouncement()</text></g><!--class Property--><g id="elem_Property"><rect codeLine="13" fill="#F1F1F1" height="159.7266" id="Property" rx="2.5" ry="2.5" style="stroke:#181818;stroke-width:0.5;" width="214" x="239.5" y="390"/><ellipse cx="315.25" cy="406" fill="#ADD1B2" rx="11" ry="11" style="stroke:#181818;stroke-width:1.0;"/><path d="M318.0156,401.875 Q318.1719,401.6563 318.3594,401.5469 Q318.5469,401.4375 318.7656,401.4375 Q319.1406,401.4375 319.375,401.7031 Q319.6094,401.9531 319.6094,402.5625 L319.6094,404.0156 Q319.6094,404.625 319.375,404.8906 Q319.1406,405.1563 318.7656,405.1563 Q318.4219,405.1563 318.2188,404.9531 Q318.0156,404.7656 317.9063,404.25 Q317.8594,403.8906 317.6719,403.7031 Q317.3438,403.3281 316.7344,403.1094 Q316.125,402.8906 315.5,402.8906 Q314.7344,402.8906 314.0938,403.2188 Q313.4688,403.5469 312.9688,404.2969 Q312.4844,405.0469 312.4844,406.0781 L312.4844,407.1719 Q312.4844,408.4063 313.375,409.2344 Q314.2656,410.0469 315.8594,410.0469 Q316.7969,410.0469 317.4531,409.7969 Q317.8438,409.6406 318.2656,409.2031 Q318.5313,408.9375 318.6719,408.8594 Q318.8281,408.7813 319.0313,408.7813 Q319.3594,408.7813 319.6094,409.0469 Q319.875,409.2969 319.875,409.6406 Q319.875,409.9844 319.5313,410.3906 Q319.0313,410.9688 318.2344,411.2969 Q317.1563,411.75 315.8594,411.75 Q314.3438,411.75 313.1406,411.125 Q312.1563,410.625 311.4688,409.5625 Q310.7813,408.4844 310.7813,407.2031 L310.7813,406.0469 Q310.7813,404.7188 311.3906,403.5781 Q312.0156,402.4219 313.1094,401.8125 Q314.2031,401.1875 315.4375,401.1875 Q316.1719,401.1875 316.8125,401.3594 Q317.4688,401.5156 318.0156,401.875 Z " fill="#000000"/><text fill="#000000" font-family="sans-serif" font-size="14" lengthAdjust="spacing" textLength="54" x="335.75" y="411.7969">Property</text><line style="stroke:#181818;stroke-width:0.5;" x1="240.5" x2="452.5" y1="422" y2="422"/><rect fill="none" height="6" style="stroke:#C82930;stroke-width:1.0;" width="6" x="247.5" y="433.8105"/><text fill="#000000" font-family="sans-serif" font-size="14" lengthAdjust="spacing" textLength="85" x="259.5" y="441.1074">int propertyID</text><rect fill="none" height="6" style="stroke:#C82930;stroke-width:1.0;" width="6" x="247.5" y="452.4316"/><text fill="#000000" font-family="sans-serif" font-size="14" lengthAdjust="spacing" textLength="60" x="259.5" y="459.7285">float area</text><rect fill="none" height="6" style="stroke:#C82930;stroke-width:1.0;" width="6" x="247.5" y="471.0527"/><text fill="#000000" font-family="sans-serif" font-size="14" lengthAdjust="spacing" textLength="92" x="259.5" y="478.3496">String address</text><rect fill="none" height="6" style="stroke:#C82930;stroke-width:1.0;" width="6" x="247.5" y="489.6738"/><text fill="#000000" font-family="sans-serif" font-size="14" lengthAdjust="spacing" textLength="150" x="259.5" y="496.9707">float cityCentreDistance</text><rect fill="none" height="6" style="stroke:#C82930;stroke-width:1.0;" width="6" x="247.5" y="508.2949"/><text fill="#000000" font-family="sans-serif" font-size="14" lengthAdjust="spacing" textLength="188" x="259.5" y="515.5918">Arraylist&lt;String&gt; photographs</text><line style="stroke:#181818;stroke-width:0.5;" x1="240.5" x2="452.5" y1="523.1055" y2="523.1055"/><ellipse cx="250.5" cy="537.916" fill="#84BE84" rx="3" ry="3" style="stroke:#038048;stroke-width:1.0;"/><text fill="#000000" font-family="sans-serif" font-size="14" lengthAdjust="spacing" textLength="113" x="259.5" y="542.2129">validateProperty()</text></g><!--class House--><g id="elem_House"><rect codeLine="21" fill="#F1F1F1" height="178.3477" id="House" rx="2.5" ry="2.5" style="stroke:#181818;stroke-width:0.5;" width="203" x="7" y="152"/><ellipse cx="84.25" cy="168" fill="#ADD1B2" rx="11" ry="11" style="stroke:#181818;stroke-width:1.0;"/><path d="M87.0156,163.875 Q87.1719,163.6563 87.3594,163.5469 Q87.5469,163.4375 87.7656,163.4375 Q88.1406,163.4375 88.375,163.7031 Q88.6094,163.9531 88.6094,164.5625 L88.6094,166.0156 Q88.6094,166.625 88.375,166.8906 Q88.1406,167.1563 87.7656,167.1563 Q87.4219,167.1563 87.2188,166.9531 Q87.0156,166.7656 86.9063,166.25 Q86.8594,165.8906 86.6719,165.7031 Q86.3438,165.3281 85.7344,165.1094 Q85.125,164.8906 84.5,164.8906 Q83.7344,164.8906 83.0938,165.2188 Q82.4688,165.5469 81.9688,166.2969 Q81.4844,167.0469 81.4844,168.0781 L81.4844,169.1719 Q81.4844,170.4063 82.375,171.2344 Q83.2656,172.0469 84.8594,172.0469 Q85.7969,172.0469 86.4531,171.7969 Q86.8438,171.6406 87.2656,171.2031 Q87.5313,170.9375 87.6719,170.8594 Q87.8281,170.7813 88.0313,170.7813 Q88.3594,170.7813 88.6094,171.0469 Q88.875,171.2969 88.875,171.6406 Q88.875,171.9844 88.5313,172.3906 Q88.0313,172.9688 87.2344,173.2969 Q86.1563,173.75 84.8594,173.75 Q83.3438,173.75 82.1406,173.125 Q81.1563,172.625 80.4688,171.5625 Q79.7813,170.4844 79.7813,169.2031 L79.7813,168.0469 Q79.7813,166.7188 80.3906,165.5781 Q81.0156,164.4219 82.1094,163.8125 Q83.2031,163.1875 84.4375,163.1875 Q85.1719,163.1875 85.8125,163.3594 Q86.4688,163.5156 87.0156,163.875 Z " fill="#000000"/><text fill="#000000" font-family="sans-serif" font-size="14" lengthAdjust="spacing" textLength="40" x="104.75" y="173.7969">House</text><line style="stroke:#181818;stroke-width:0.5;" x1="8" x2="209" y1="184" y2="184"/><rect fill="none" height="6" style="stroke:#C82930;stroke-width:1.0;" width="6" x="15" y="195.8105"/><text fill="#000000" font-family="sans-serif" font-size="14" lengthAdjust="spacing" textLength="146" x="27" y="203.1074">int numberOfBedrooms</text><rect fill="none" height="6" style="stroke:#C82930;stroke-width:1.0;" width="6" x="15" y="214.4316"/><text fill="#000000" font-family="sans-serif" font-size="14" lengthAdjust="spacing" textLength="150" x="27" y="221.7285">int numberOfBathrooms</text><rect fill="none" height="6" style="stroke:#C82930;stroke-width:1.0;" width="6" x="15" y="233.0527"/><text fill="#000000" font-family="sans-serif" font-size="14" lengthAdjust="spacing" textLength="177" x="27" y="240.3496">int numberOfParkingSpaces</text><rect fill="none" height="6" style="stroke:#C82930;stroke-width:1.0;" width="6" x="15" y="251.6738"/><text fill="#000000" font-family="sans-serif" font-size="14" lengthAdjust="spacing" textLength="174" x="27" y="258.9707">Arraylist&lt;String&gt; equipment</text><rect fill="none" height="6" style="stroke:#C82930;stroke-width:1.0;" width="6" x="15" y="270.2949"/><text fill="#000000" font-family="sans-serif" font-size="14" lengthAdjust="spacing" textLength="141" x="27" y="277.5918">boolean hasBasement</text><rect fill="none" height="6" style="stroke:#C82930;stroke-width:1.0;" width="6" x="15" y="288.916"/><text fill="#000000" font-family="sans-serif" font-size="14" lengthAdjust="spacing" textLength="171" x="27" y="296.2129">boolean hasInhabitableLoft</text><rect fill="none" height="6" style="stroke:#C82930;stroke-width:1.0;" width="6" x="15" y="307.5371"/><text fill="#000000" font-family="sans-serif" font-size="14" lengthAdjust="spacing" textLength="170" x="27" y="314.834">SunExposure sunExposure</text><line style="stroke:#181818;stroke-width:0.5;" x1="8" x2="209" y1="322.3477" y2="322.3477"/></g><!--class Apartment--><g id="elem_Apartment"><rect codeLine="30" fill="#F1F1F1" height="122.4844" id="Apartment" rx="2.5" ry="2.5" style="stroke:#181818;stroke-width:0.5;" width="203" x="245" y="180"/><ellipse cx="309.75" cy="196" fill="#ADD1B2" rx="11" ry="11" style="stroke:#181818;stroke-width:1.0;"/><path d="M312.5156,191.875 Q312.6719,191.6563 312.8594,191.5469 Q313.0469,191.4375 313.2656,191.4375 Q313.6406,191.4375 313.875,191.7031 Q314.1094,191.9531 314.1094,192.5625 L314.1094,194.0156 Q314.1094,194.625 313.875,194.8906 Q313.6406,195.1563 313.2656,195.1563 Q312.9219,195.1563 312.7188,194.9531 Q312.5156,194.7656 312.4063,194.25 Q312.3594,193.8906 312.1719,193.7031 Q311.8438,193.3281 311.2344,193.1094 Q310.625,192.8906 310,192.8906 Q309.2344,192.8906 308.5938,193.2188 Q307.9688,193.5469 307.4688,194.2969 Q306.9844,195.0469 306.9844,196.0781 L306.9844,197.1719 Q306.9844,198.4063 307.875,199.2344 Q308.7656,200.0469 310.3594,200.0469 Q311.2969,200.0469 311.9531,199.7969 Q312.3438,199.6406 312.7656,199.2031 Q313.0313,198.9375 313.1719,198.8594 Q313.3281,198.7813 313.5313,198.7813 Q313.8594,198.7813 314.1094,199.0469 Q314.375,199.2969 314.375,199.6406 Q314.375,199.9844 314.0313,200.3906 Q313.5313,200.9688 312.7344,201.2969 Q311.6563,201.75 310.3594,201.75 Q308.8438,201.75 307.6406,201.125 Q306.6563,200.625 305.9688,199.5625 Q305.2813,198.4844 305.2813,197.2031 L305.2813,196.0469 Q305.2813,194.7188 305.8906,193.5781 Q306.5156,192.4219 307.6094,191.8125 Q308.7031,191.1875 309.9375,191.1875 Q310.6719,191.1875 311.3125,191.3594 Q311.9688,191.5156 312.5156,191.875 Z " fill="#000000"/><text fill="#000000" font-family="sans-serif" font-size="14" lengthAdjust="spacing" textLength="65" x="330.25" y="201.7969">Apartment</text><line style="stroke:#181818;stroke-width:0.5;" x1="246" x2="447" y1="212" y2="212"/><rect fill="none" height="6" style="stroke:#C82930;stroke-width:1.0;" width="6" x="253" y="223.8105"/><text fill="#000000" font-family="sans-serif" font-size="14" lengthAdjust="spacing" textLength="146" x="265" y="231.1074">int numberOfBedrooms</text><rect fill="none" height="6" style="stroke:#C82930;stroke-width:1.0;" width="6" x="253" y="242.4316"/><text fill="#000000" font-family="sans-serif" font-size="14" lengthAdjust="spacing" textLength="150" x="265" y="249.7285">int numberOfBathrooms</text><rect fill="none" height="6" style="stroke:#C82930;stroke-width:1.0;" width="6" x="253" y="261.0527"/><text fill="#000000" font-family="sans-serif" font-size="14" lengthAdjust="spacing" textLength="177" x="265" y="268.3496">int numberOfParkingSpaces</text><rect fill="none" height="6" style="stroke:#C82930;stroke-width:1.0;" width="6" x="253" y="279.6738"/><text fill="#000000" font-family="sans-serif" font-size="14" lengthAdjust="spacing" textLength="174" x="265" y="286.9707">Arraylist&lt;String&gt; equipment</text><line style="stroke:#181818;stroke-width:0.5;" x1="246" x2="447" y1="294.4844" y2="294.4844"/></g><!--class Land--><g id="elem_Land"><rect codeLine="36" fill="#F1F1F1" height="48" id="Land" rx="2.5" ry="2.5" style="stroke:#181818;stroke-width:0.5;" width="64" x="483.5" y="217"/><ellipse cx="498.5" cy="233" fill="#ADD1B2" rx="11" ry="11" style="stroke:#181818;stroke-width:1.0;"/><path d="M501.2656,228.875 Q501.4219,228.6563 501.6094,228.5469 Q501.7969,228.4375 502.0156,228.4375 Q502.3906,228.4375 502.625,228.7031 Q502.8594,228.9531 502.8594,229.5625 L502.8594,231.0156 Q502.8594,231.625 502.625,231.8906 Q502.3906,232.1563 502.0156,232.1563 Q501.6719,232.1563 501.4688,231.9531 Q501.2656,231.7656 501.1563,231.25 Q501.1094,230.8906 500.9219,230.7031 Q500.5938,230.3281 499.9844,230.1094 Q499.375,229.8906 498.75,229.8906 Q497.9844,229.8906 497.3438,230.2188 Q496.7188,230.5469 496.2188,231.2969 Q495.7344,232.0469 495.7344,233.0781 L495.7344,234.1719 Q495.7344,235.4063 496.625,236.2344 Q497.5156,237.0469 499.1094,237.0469 Q500.0469,237.0469 500.7031,236.7969 Q501.0938,236.6406 501.5156,236.2031 Q501.7813,235.9375 501.9219,235.8594 Q502.0781,235.7813 502.2813,235.7813 Q502.6094,235.7813 502.8594,236.0469 Q503.125,236.2969 503.125,236.6406 Q503.125,236.9844 502.7813,237.3906 Q502.2813,237.9688 501.4844,238.2969 Q500.4063,238.75 499.1094,238.75 Q497.5938,238.75 496.3906,238.125 Q495.4063,237.625 494.7188,236.5625 Q494.0313,235.4844 494.0313,234.2031 L494.0313,233.0469 Q494.0313,231.7188 494.6406,230.5781 Q495.2656,229.4219 496.3594,228.8125 Q497.4531,228.1875 498.6875,228.1875 Q499.4219,228.1875 500.0625,228.3594 Q500.7188,228.5156 501.2656,228.875 Z " fill="#000000"/><text fill="#000000" font-family="sans-serif" font-size="14" lengthAdjust="spacing" textLength="32" x="512.5" y="238.7969">Land</text><line style="stroke:#181818;stroke-width:0.5;" x1="484.5" x2="546.5" y1="249" y2="249"/><line style="stroke:#181818;stroke-width:0.5;" x1="484.5" x2="546.5" y1="257" y2="257"/></g><!--class RegisterPropertyUI--><g id="elem_RegisterPropertyUI"><rect codeLine="39" fill="#F1F1F1" height="85.2422" id="RegisterPropertyUI" rx="2.5" ry="2.5" style="stroke:#181818;stroke-width:0.5;" width="171" x="628" y="7"/><ellipse cx="652" cy="23" fill="#ADD1B2" rx="11" ry="11" style="stroke:#181818;stroke-width:1.0;"/><path d="M654.7656,18.875 Q654.9219,18.6563 655.1094,18.5469 Q655.2969,18.4375 655.5156,18.4375 Q655.8906,18.4375 656.125,18.7031 Q656.3594,18.9531 656.3594,19.5625 L656.3594,21.0156 Q656.3594,21.625 656.125,21.8906 Q655.8906,22.1563 655.5156,22.1563 Q655.1719,22.1563 654.9688,21.9531 Q654.7656,21.7656 654.6563,21.25 Q654.6094,20.8906 654.4219,20.7031 Q654.0938,20.3281 653.4844,20.1094 Q652.875,19.8906 652.25,19.8906 Q651.4844,19.8906 650.8438,20.2188 Q650.2188,20.5469 649.7188,21.2969 Q649.2344,22.0469 649.2344,23.0781 L649.2344,24.1719 Q649.2344,25.4063 650.125,26.2344 Q651.0156,27.0469 652.6094,27.0469 Q653.5469,27.0469 654.2031,26.7969 Q654.5938,26.6406 655.0156,26.2031 Q655.2813,25.9375 655.4219,25.8594 Q655.5781,25.7813 655.7813,25.7813 Q656.1094,25.7813 656.3594,26.0469 Q656.625,26.2969 656.625,26.6406 Q656.625,26.9844 656.2813,27.3906 Q655.7813,27.9688 654.9844,28.2969 Q653.9063,28.75 652.6094,28.75 Q651.0938,28.75 649.8906,28.125 Q648.9063,27.625 648.2188,26.5625 Q647.5313,25.4844 647.5313,24.2031 L647.5313,23.0469 Q647.5313,21.7188 648.1406,20.5781 Q648.7656,19.4219 649.8594,18.8125 Q650.9531,18.1875 652.1875,18.1875 Q652.9219,18.1875 653.5625,18.3594 Q654.2188,18.5156 654.7656,18.875 Z " fill="#000000"/><text fill="#000000" font-family="sans-serif" font-size="14" lengthAdjust="spacing" textLength="119" x="668" y="28.7969">RegisterPropertyUI</text><line style="stroke:#181818;stroke-width:0.5;" x1="629" x2="798" y1="39" y2="39"/><line style="stroke:#181818;stroke-width:0.5;" x1="629" x2="798" y1="47" y2="47"/><ellipse cx="639" cy="61.8105" fill="#84BE84" rx="3" ry="3" style="stroke:#038048;stroke-width:1.0;"/><text fill="#000000" font-family="sans-serif" font-size="14" lengthAdjust="spacing" textLength="67" x="648" y="66.1074">getAgent()</text><ellipse cx="639" cy="80.4316" fill="#84BE84" rx="3" ry="3" style="stroke:#038048;stroke-width:1.0;"/><text fill="#000000" font-family="sans-serif" font-size="14" lengthAdjust="spacing" textLength="145" x="648" y="84.7285">createAnnouncement()</text></g><!--class RegisterPropertyController--><g id="elem_RegisterPropertyController"><rect codeLine="45" fill="#F1F1F1" height="141.1055" id="RegisterPropertyController" rx="2.5" ry="2.5" style="stroke:#181818;stroke-width:0.5;" width="201" x="613" y="170.5"/><ellipse cx="628" cy="186.5" fill="#ADD1B2" rx="11" ry="11" style="stroke:#181818;stroke-width:1.0;"/><path d="M630.7656,182.375 Q630.9219,182.1563 631.1094,182.0469 Q631.2969,181.9375 631.5156,181.9375 Q631.8906,181.9375 632.125,182.2031 Q632.3594,182.4531 632.3594,183.0625 L632.3594,184.5156 Q632.3594,185.125 632.125,185.3906 Q631.8906,185.6563 631.5156,185.6563 Q631.1719,185.6563 630.9688,185.4531 Q630.7656,185.2656 630.6563,184.75 Q630.6094,184.3906 630.4219,184.2031 Q630.0938,183.8281 629.4844,183.6094 Q628.875,183.3906 628.25,183.3906 Q627.4844,183.3906 626.8438,183.7188 Q626.2188,184.0469 625.7188,184.7969 Q625.2344,185.5469 625.2344,186.5781 L625.2344,187.6719 Q625.2344,188.9063 626.125,189.7344 Q627.0156,190.5469 628.6094,190.5469 Q629.5469,190.5469 630.2031,190.2969 Q630.5938,190.1406 631.0156,189.7031 Q631.2813,189.4375 631.4219,189.3594 Q631.5781,189.2813 631.7813,189.2813 Q632.1094,189.2813 632.3594,189.5469 Q632.625,189.7969 632.625,190.1406 Q632.625,190.4844 632.2813,190.8906 Q631.7813,191.4688 630.9844,191.7969 Q629.9063,192.25 628.6094,192.25 Q627.0938,192.25 625.8906,191.625 Q624.9063,191.125 624.2188,190.0625 Q623.5313,188.9844 623.5313,187.7031 L623.5313,186.5469 Q623.5313,185.2188 624.1406,184.0781 Q624.7656,182.9219 625.8594,182.3125 Q626.9531,181.6875 628.1875,181.6875 Q628.9219,181.6875 629.5625,181.8594 Q630.2188,182.0156 630.7656,182.375 Z " fill="#000000"/><text fill="#000000" font-family="sans-serif" font-size="14" lengthAdjust="spacing" textLength="169" x="642" y="192.2969">RegisterPropertyController</text><line style="stroke:#181818;stroke-width:0.5;" x1="614" x2="813" y1="202.5" y2="202.5"/><line style="stroke:#181818;stroke-width:0.5;" x1="614" x2="813" y1="210.5" y2="210.5"/><ellipse cx="624" cy="225.3105" fill="#84BE84" rx="3" ry="3" style="stroke:#038048;stroke-width:1.0;"/><text fill="#000000" font-family="sans-serif" font-size="14" lengthAdjust="spacing" textLength="83" x="633" y="229.6074">getInstance()</text><ellipse cx="624" cy="243.9316" fill="#84BE84" rx="3" ry="3" style="stroke:#038048;stroke-width:1.0;"/><text fill="#000000" font-family="sans-serif" font-size="14" lengthAdjust="spacing" textLength="160" x="633" y="248.2285">getEmployeeRepository()</text><ellipse cx="624" cy="262.5527" fill="#84BE84" rx="3" ry="3" style="stroke:#038048;stroke-width:1.0;"/><text fill="#000000" font-family="sans-serif" font-size="14" lengthAdjust="spacing" textLength="74" x="633" y="266.8496">getAgents()</text><ellipse cx="624" cy="281.1738" fill="#84BE84" rx="3" ry="3" style="stroke:#038048;stroke-width:1.0;"/><text fill="#000000" font-family="sans-serif" font-size="14" lengthAdjust="spacing" textLength="104" x="633" y="285.4707">createProperty()</text><ellipse cx="624" cy="299.7949" fill="#84BE84" rx="3" ry="3" style="stroke:#038048;stroke-width:1.0;"/><text fill="#000000" font-family="sans-serif" font-size="14" lengthAdjust="spacing" textLength="145" x="633" y="304.0918">createAnnouncement()</text></g><!--class AnnouncementRepository--><g id="elem_AnnouncementRepository"><rect codeLine="53" fill="#F1F1F1" height="66.6211" id="AnnouncementRepository" rx="2.5" ry="2.5" style="stroke:#181818;stroke-width:0.5;" width="195" x="885" y="436.5"/><ellipse cx="900" cy="452.5" fill="#ADD1B2" rx="11" ry="11" style="stroke:#181818;stroke-width:1.0;"/><path d="M902.7656,448.375 Q902.9219,448.1563 903.1094,448.0469 Q903.2969,447.9375 903.5156,447.9375 Q903.8906,447.9375 904.125,448.2031 Q904.3594,448.4531 904.3594,449.0625 L904.3594,450.5156 Q904.3594,451.125 904.125,451.3906 Q903.8906,451.6563 903.5156,451.6563 Q903.1719,451.6563 902.9688,451.4531 Q902.7656,451.2656 902.6563,450.75 Q902.6094,450.3906 902.4219,450.2031 Q902.0938,449.8281 901.4844,449.6094 Q900.875,449.3906 900.25,449.3906 Q899.4844,449.3906 898.8438,449.7188 Q898.2188,450.0469 897.7188,450.7969 Q897.2344,451.5469 897.2344,452.5781 L897.2344,453.6719 Q897.2344,454.9063 898.125,455.7344 Q899.0156,456.5469 900.6094,456.5469 Q901.5469,456.5469 902.2031,456.2969 Q902.5938,456.1406 903.0156,455.7031 Q903.2813,455.4375 903.4219,455.3594 Q903.5781,455.2813 903.7813,455.2813 Q904.1094,455.2813 904.3594,455.5469 Q904.625,455.7969 904.625,456.1406 Q904.625,456.4844 904.2813,456.8906 Q903.7813,457.4688 902.9844,457.7969 Q901.9063,458.25 900.6094,458.25 Q899.0938,458.25 897.8906,457.625 Q896.9063,457.125 896.2188,456.0625 Q895.5313,454.9844 895.5313,453.7031 L895.5313,452.5469 Q895.5313,451.2188 896.1406,450.0781 Q896.7656,448.9219 897.8594,448.3125 Q898.9531,447.6875 900.1875,447.6875 Q900.9219,447.6875 901.5625,447.8594 Q902.2188,448.0156 902.7656,448.375 Z " fill="#000000"/><text fill="#000000" font-family="sans-serif" font-size="14" lengthAdjust="spacing" textLength="163" x="914" y="458.2969">AnnouncementRepository</text><line style="stroke:#181818;stroke-width:0.5;" x1="886" x2="1079" y1="468.5" y2="468.5"/><line style="stroke:#181818;stroke-width:0.5;" x1="886" x2="1079" y1="476.5" y2="476.5"/><ellipse cx="896" cy="491.3105" fill="#84BE84" rx="3" ry="3" style="stroke:#038048;stroke-width:1.0;"/><text fill="#000000" font-family="sans-serif" font-size="14" lengthAdjust="spacing" textLength="145" x="905" y="495.6074">createAnnouncement()</text></g><!--link RegisterPropertyUI to RegisterPropertyController--><g id="link_RegisterPropertyUI_RegisterPropertyController"><path codeLine="58" d="M713.5,92.09 C713.5,113.45 713.5,140.14 713.5,164.94 " fill="none" id="RegisterPropertyUI-to-RegisterPropertyController" style="stroke:#181818;stroke-width:1.0;"/><polygon fill="#181818" points="713.5,170.2,717.5,161.2,713.5,165.2,709.5,161.2,713.5,170.2" style="stroke:#181818;stroke-width:1.0;"/></g><!--link RegisterPropertyController to Repositories--><g id="link_RegisterPropertyController_Repositories"><path codeLine="59" d="M661.65,311.65 C628.96,355.55 588.57,409.8 564.77,441.78 " fill="none" id="RegisterPropertyController-to-Repositories" style="stroke:#181818;stroke-width:1.0;"/><polygon fill="#181818" points="561.66,445.95,570.249,441.1303,564.6508,441.9431,563.838,436.345,561.66,445.95" style="stroke:#181818;stroke-width:1.0;"/></g><!--link RegisterPropertyController to RegisterEmployeeRepository--><g id="link_RegisterPropertyController_RegisterEmployeeRepository"><path codeLine="60" d="M722.4,311.65 C727.94,355.02 734.77,408.48 738.87,440.59 " fill="none" id="RegisterPropertyController-to-RegisterEmployeeRepository" style="stroke:#181818;stroke-width:1.0;"/><polygon fill="#181818" points="739.55,445.95,742.3593,436.5103,738.907,440.9915,734.4258,437.5392,739.55,445.95" style="stroke:#181818;stroke-width:1.0;"/></g><!--link RegisterPropertyController to AnnouncementRepository--><g id="link_RegisterPropertyController_AnnouncementRepository"><path codeLine="61" d="M796.04,311.65 C843.42,351.64 900.98,400.21 939.5,432.71 " fill="none" id="RegisterPropertyController-to-AnnouncementRepository" style="stroke:#181818;stroke-width:1.0;"/><polygon fill="#181818" points="943.63,436.2,939.3448,427.3323,939.8136,432.9696,934.1762,433.4385,943.63,436.2" style="stroke:#181818;stroke-width:1.0;"/></g><!--link RegisterPropertyController to Property--><g id="link_RegisterPropertyController_Property"><path codeLine="62" d="M612.92,303.06 C569.35,329.62 517.82,361.2 471.5,390 C467.17,392.69 462.75,395.45 458.3,398.23 " fill="none" id="RegisterPropertyController-to-Property" style="stroke:#181818;stroke-width:1.0;"/><polygon fill="#181818" points="453.83,401.03,463.5807,399.6432,458.0676,398.3762,459.3346,392.863,453.83,401.03" style="stroke:#181818;stroke-width:1.0;"/></g><!--link House to Property--><g id="link_House_Property"><path codeLine="64" d="M200.86,330.09 C220.21,348.55 240.56,367.95 259.7,386.21 " fill="none" id="House-to-Property" style="stroke:#181818;stroke-width:1.0;"/><polygon fill="#181818" points="263.51,389.85,259.7523,380.7462,259.8897,386.4014,254.2345,386.5387,263.51,389.85" style="stroke:#181818;stroke-width:1.0;"/></g><!--link Apartment to Property--><g id="link_Apartment_Property"><path codeLine="65" d="M346.5,302.24 C346.5,327.46 346.5,357.22 346.5,384.57 " fill="none" id="Apartment-to-Property" style="stroke:#181818;stroke-width:1.0;"/><polygon fill="#181818" points="346.5,389.65,350.5,380.65,346.5,384.65,342.5,380.65,346.5,389.65" style="stroke:#181818;stroke-width:1.0;"/></g><!--link Land to Property--><g id="link_Land_Property"><path codeLine="66" d="M503.91,265.15 C494.44,283.34 480.25,309.01 465.5,330 C452.34,348.73 437.17,367.93 422.15,385.85 " fill="none" id="Land-to-Property" style="stroke:#181818;stroke-width:1.0;"/><polygon fill="#181818" points="418.74,389.89,427.5984,385.5854,421.962,386.0666,421.4808,380.4302,418.74,389.89" style="stroke:#181818;stroke-width:1.0;"/></g><!--link AnnouncementRepository to Announcement--><g id="link_AnnouncementRepository_Announcement"><path codeLine="67" d="M982.5,503.69 C982.5,531.94 982.5,573.12 982.5,604.84 " fill="none" id="AnnouncementRepository-to-Announcement" style="stroke:#181818;stroke-width:1.0;"/><polygon fill="#181818" points="982.5,609.84,986.5,600.84,982.5,604.84,978.5,600.84,982.5,609.84" style="stroke:#181818;stroke-width:1.0;"/></g><!--SRC=[nLJRQiCm37ttL_XnO_GFHg6NmGg5bPLzW9AeYPbZUR8p5ih-VMvpRPgqZyjJE4UIZwHZnngSa-zeoIbFhD0TnQ-8QpHLpYE_v5PJYTX6bLtCmXWgJ8mv6dyKCdnFyXkqIi1Zdtjuh4b8aW7UbDenMMHVLcLcKXalROrjrZLuq0HU0YFKmDwpCkcfBADp5r6nykKgdC6u3dr0EB6c5ynGwe0zLzbpQJFob3BOp0sQQ5JrXBvIuR2lqXHvXFnsM6B2HBaRey1dKzmE-3Ees5k8qKrAnAz2sTF8weY8I2COcO5RWiDnPcCoY9I7IEEM3at0lZ0lFs6N1QDqtN-tL0likut-IvEDbYsOv2YkFDcivMCZ6zkbw1TftsfnSCcL2qEbYL8h2bOXhP7x9JUciavRDM3N5wBFdaMuWOgUZMw8QxNryUwKLjTKiXWPpsmslz6gk365AhDx6Ux7JhqNzpB7sxsNrS12d6_a9TPw-18-sMaGE3xgeIpn1m00]--></g></svg>