<?xml version="1.0" encoding="us-ascii" standalone="no"?><svg xmlns="http://www.w3.org/2000/svg" xmlns:xlink="http://www.w3.org/1999/xlink" contentStyleType="text/css" height="1206px" preserveAspectRatio="none" style="width:1785px;height:1206px;background:#FFFFFF;" version="1.1" viewBox="0 0 1785 1206" width="1785px" zoomAndPan="magnify"><defs/><g><rect fill="#FFFFFF" height="1011.3809" style="stroke:#181818;stroke-width:1.0;" width="10" x="23.5" y="93.6211"/><rect fill="#FFFFFF" height="988.0898" style="stroke:#181818;stroke-width:1.0;" width="10" x="288.5" y="116.9121"/><rect fill="#FFFFFF" height="819.3047" style="stroke:#181818;stroke-width:1.0;" width="10" x="471.5" y="254.4063"/><rect fill="#FFFFFF" height="31.291" style="stroke:#181818;stroke-width:1.0;" width="10" x="623.5" y="285.6973"/><rect fill="#FFFFFF" height="31.291" style="stroke:#181818;stroke-width:1.0;" width="10" x="730.5" y="348.2793"/><rect fill="#FFFFFF" height="31.291" style="stroke:#181818;stroke-width:1.0;" width="10" x="889.5" y="410.8613"/><rect fill="#FFFFFF" height="127.8242" style="stroke:#181818;stroke-width:1.0;" width="10" x="1090.5" y="639.8984"/><rect fill="#FFFFFF" height="243.4063" style="stroke:#181818;stroke-width:1.0;" width="10" x="1090.5" y="799.0137"/><rect fill="#FFFFFF" height="28" style="stroke:#181818;stroke-width:1.0;" width="10" x="1095.5" y="976.1289"/><rect fill="#FFFFFF" height="36.291" style="stroke:#181818;stroke-width:1.0;" width="10" x="1337.5" y="700.1406"/><rect fill="#FFFFFF" height="36.291" style="stroke:#181818;stroke-width:1.0;" width="10" x="1518.5" y="900.5469"/><line style="stroke:#181818;stroke-width:0.5;stroke-dasharray:5.0,5.0;" x1="28" x2="28" y1="83.6211" y2="1123.002"/><line style="stroke:#181818;stroke-width:0.5;stroke-dasharray:5.0,5.0;" x1="293" x2="293" y1="83.6211" y2="1123.002"/><line style="stroke:#181818;stroke-width:0.5;stroke-dasharray:5.0,5.0;" x1="476" x2="476" y1="219.3047" y2="1123.002"/><line style="stroke:#181818;stroke-width:0.5;stroke-dasharray:5.0,5.0;" x1="628" x2="628" y1="83.6211" y2="1123.002"/><line style="stroke:#181818;stroke-width:0.5;stroke-dasharray:5.0,5.0;" x1="735" x2="735" y1="83.6211" y2="1123.002"/><line style="stroke:#181818;stroke-width:0.5;stroke-dasharray:5.0,5.0;" x1="894" x2="894" y1="83.6211" y2="1123.002"/><line style="stroke:#181818;stroke-width:0.5;stroke-dasharray:5.0,5.0;" x1="1095" x2="1095" y1="83.6211" y2="1123.002"/><line style="stroke:#181818;stroke-width:0.5;stroke-dasharray:5.0,5.0;" x1="1342" x2="1342" y1="647.7285" y2="1123.002"/><line style="stroke:#181818;stroke-width:0.5;stroke-dasharray:5.0,5.0;" x1="1523.5" x2="1523.5" y1="848.1348" y2="1123.002"/><text fill="#000000" font-family="sans-serif" font-size="14" lengthAdjust="spacing" textLength="41" x="5" y="80.1074">Owner</text><ellipse cx="28.5" cy="13.5" fill="#E3E3E3" rx="8" ry="8" style="stroke:#181818;stroke-width:0.5;"/><path d="M28.5,21.5 L28.5,48.5 M15.5,29.5 L41.5,29.5 M28.5,48.5 L15.5,63.5 M28.5,48.5 L41.5,63.5 " fill="none" style="stroke:#181818;stroke-width:0.5;"/><text fill="#000000" font-family="sans-serif" font-size="14" lengthAdjust="spacing" textLength="41" x="5" y="1137.1094">Owner</text><ellipse cx="28.5" cy="1149.123" fill="#E3E3E3" rx="8" ry="8" style="stroke:#181818;stroke-width:0.5;"/><path d="M28.5,1157.123 L28.5,1184.123 M15.5,1165.123 L41.5,1165.123 M28.5,1184.123 L15.5,1199.123 M28.5,1184.123 L41.5,1199.123 " fill="none" style="stroke:#181818;stroke-width:0.5;"/><rect fill="#E3E3E3" height="32.6211" rx="2.5" ry="2.5" style="stroke:#181818;stroke-width:0.5;" width="137" x="225" y="50"/><text fill="#000000" font-family="sans-serif" font-size="14" lengthAdjust="spacing" textLength="123" x="232" y="72.1074">:RegisterPropertyUI</text><rect fill="#E3E3E3" height="32.6211" rx="2.5" ry="2.5" style="stroke:#181818;stroke-width:0.5;" width="137" x="225" y="1122.002"/><text fill="#000000" font-family="sans-serif" font-size="14" lengthAdjust="spacing" textLength="123" x="232" y="1144.1094">:RegisterPropertyUI</text><rect fill="#E3E3E3" height="32.6211" rx="2.5" ry="2.5" style="stroke:#181818;stroke-width:0.5;" width="187" x="383" y="1122.002"/><text fill="#000000" font-family="sans-serif" font-size="14" lengthAdjust="spacing" textLength="173" x="390" y="1144.1094">:RegisterPropertyController</text><rect fill="#E3E3E3" height="32.6211" rx="2.5" ry="2.5" style="stroke:#181818;stroke-width:0.5;" width="97" x="580" y="50"/><text fill="#000000" font-family="sans-serif" font-size="14" lengthAdjust="spacing" textLength="83" x="587" y="72.1074">:Repositories</text><rect fill="#E3E3E3" height="32.6211" rx="2.5" ry="2.5" style="stroke:#181818;stroke-width:0.5;" width="97" x="580" y="1122.002"/><text fill="#000000" font-family="sans-serif" font-size="14" lengthAdjust="spacing" textLength="83" x="587" y="1144.1094">:Repositories</text><rect fill="#E3E3E3" height="51.2422" rx="2.5" ry="2.5" style="stroke:#181818;stroke-width:0.5;" width="97" x="687" y="31.3789"/><text fill="#000000" font-family="sans-serif" font-size="14" lengthAdjust="spacing" textLength="74" x="698.5" y="53.4863">repositories</text><text fill="#000000" font-family="sans-serif" font-size="14" lengthAdjust="spacing" textLength="83" x="694" y="72.1074">:Repositories</text><rect fill="#E3E3E3" height="51.2422" rx="2.5" ry="2.5" style="stroke:#181818;stroke-width:0.5;" width="97" x="687" y="1122.002"/><text fill="#000000" font-family="sans-serif" font-size="14" lengthAdjust="spacing" textLength="74" x="698.5" y="1144.1094">repositories</text><text fill="#000000" font-family="sans-serif" font-size="14" lengthAdjust="spacing" textLength="83" x="694" y="1162.7305">:Repositories</text><rect fill="#E3E3E3" height="32.6211" rx="2.5" ry="2.5" style="stroke:#181818;stroke-width:0.5;" width="201" x="794" y="50"/><text fill="#000000" font-family="sans-serif" font-size="14" lengthAdjust="spacing" textLength="187" x="801" y="72.1074">:RegisterEmployeeRepository</text><rect fill="#E3E3E3" height="32.6211" rx="2.5" ry="2.5" style="stroke:#181818;stroke-width:0.5;" width="201" x="794" y="1122.002"/><text fill="#000000" font-family="sans-serif" font-size="14" lengthAdjust="spacing" textLength="187" x="801" y="1144.1094">:RegisterEmployeeRepository</text><rect fill="#E3E3E3" height="32.6211" rx="2.5" ry="2.5" style="stroke:#181818;stroke-width:0.5;" width="181" x="1005" y="50"/><text fill="#000000" font-family="sans-serif" font-size="14" lengthAdjust="spacing" textLength="167" x="1012" y="72.1074">:AnnouncementRepository</text><rect fill="#E3E3E3" height="32.6211" rx="2.5" ry="2.5" style="stroke:#181818;stroke-width:0.5;" width="181" x="1005" y="1122.002"/><text fill="#000000" font-family="sans-serif" font-size="14" lengthAdjust="spacing" textLength="167" x="1012" y="1144.1094">:AnnouncementRepository</text><rect fill="#E3E3E3" height="51.2422" rx="2.5" ry="2.5" style="stroke:#181818;stroke-width:0.5;" width="93" x="1296" y="1122.002"/><text fill="#000000" font-family="sans-serif" font-size="14" lengthAdjust="spacing" textLength="79" x="1303" y="1144.1094">newProperty</text><text fill="#000000" font-family="sans-serif" font-size="14" lengthAdjust="spacing" textLength="58" x="1313.5" y="1162.7305">:Property</text><rect fill="#E3E3E3" height="51.2422" rx="2.5" ry="2.5" style="stroke:#181818;stroke-width:0.5;" width="134" x="1456.5" y="1122.002"/><text fill="#000000" font-family="sans-serif" font-size="14" lengthAdjust="spacing" textLength="120" x="1463.5" y="1144.1094">newAnnouncement</text><text fill="#000000" font-family="sans-serif" font-size="14" lengthAdjust="spacing" textLength="99" x="1474" y="1162.7305">:Announcement</text><rect fill="#FFFFFF" height="1011.3809" style="stroke:#181818;stroke-width:1.0;" width="10" x="23.5" y="93.6211"/><rect fill="#FFFFFF" height="988.0898" style="stroke:#181818;stroke-width:1.0;" width="10" x="288.5" y="116.9121"/><rect fill="#FFFFFF" height="819.3047" style="stroke:#181818;stroke-width:1.0;" width="10" x="471.5" y="254.4063"/><rect fill="#FFFFFF" height="31.291" style="stroke:#181818;stroke-width:1.0;" width="10" x="623.5" y="285.6973"/><rect fill="#FFFFFF" height="31.291" style="stroke:#181818;stroke-width:1.0;" width="10" x="730.5" y="348.2793"/><rect fill="#FFFFFF" height="31.291" style="stroke:#181818;stroke-width:1.0;" width="10" x="889.5" y="410.8613"/><rect fill="#FFFFFF" height="127.8242" style="stroke:#181818;stroke-width:1.0;" width="10" x="1090.5" y="639.8984"/><rect fill="#FFFFFF" height="243.4063" style="stroke:#181818;stroke-width:1.0;" width="10" x="1090.5" y="799.0137"/><rect fill="#FFFFFF" height="28" style="stroke:#181818;stroke-width:1.0;" width="10" x="1095.5" y="976.1289"/><rect fill="#FFFFFF" height="36.291" style="stroke:#181818;stroke-width:1.0;" width="10" x="1337.5" y="700.1406"/><rect fill="#FFFFFF" height="36.291" style="stroke:#181818;stroke-width:1.0;" width="10" x="1518.5" y="900.5469"/><polygon fill="#181818" points="276.5,112.9121,286.5,116.9121,276.5,120.9121,280.5,116.9121" style="stroke:#181818;stroke-width:1.0;"/><line style="stroke:#181818;stroke-width:1.0;" x1="33.5" x2="282.5" y1="116.9121" y2="116.9121"/><text fill="#000000" font-family="sans-serif" font-size="13" font-weight="bold" lengthAdjust="spacing" textLength="7" x="40.5" y="111.6494">1</text><text fill="#000000" font-family="sans-serif" font-size="13" lengthAdjust="spacing" textLength="220" x="51.5" y="111.6494">starts the request for listing a property</text><polygon fill="#181818" points="44.5,144.2031,34.5,148.2031,44.5,152.2031,40.5,148.2031" style="stroke:#181818;stroke-width:1.0;"/><line style="stroke:#181818;stroke-width:1.0;stroke-dasharray:2.0,2.0;" x1="38.5" x2="287.5" y1="148.2031" y2="148.2031"/><text fill="#000000" font-family="sans-serif" font-size="13" font-weight="bold" lengthAdjust="spacing" textLength="7" x="50.5" y="142.9404">2</text><text fill="#000000" font-family="sans-serif" font-size="13" lengthAdjust="spacing" textLength="220" x="61.5" y="142.9404">requests to select the type of property</text><polygon fill="#181818" points="276.5,175.4941,286.5,179.4941,276.5,183.4941,280.5,179.4941" style="stroke:#181818;stroke-width:1.0;"/><line style="stroke:#181818;stroke-width:1.0;" x1="33.5" x2="282.5" y1="179.4941" y2="179.4941"/><text fill="#000000" font-family="sans-serif" font-size="13" font-weight="bold" lengthAdjust="spacing" textLength="7" x="40.5" y="174.2314">3</text><text fill="#000000" font-family="sans-serif" font-size="13" lengthAdjust="spacing" textLength="158" x="51.5" y="174.2314">selects the type of property</text><polygon fill="#181818" points="371,206.7852,381,210.7852,371,214.7852,375,210.7852" style="stroke:#181818;stroke-width:1.0;"/><line style="stroke:#181818;stroke-width:1.0;" x1="298.5" x2="377" y1="210.7852" y2="210.7852"/><text fill="#000000" font-family="sans-serif" font-size="13" font-weight="bold" lengthAdjust="spacing" textLength="7" x="305.5" y="205.5225">4</text><text fill="#000000" font-family="sans-serif" font-size="13" lengthAdjust="spacing" textLength="36" x="316.5" y="205.5225">create</text><rect fill="#E3E3E3" height="32.6211" rx="2.5" ry="2.5" style="stroke:#181818;stroke-width:0.5;" width="187" x="383" y="187.4941"/><text fill="#000000" font-family="sans-serif" font-size="14" lengthAdjust="spacing" textLength="173" x="390" y="209.6016">:RegisterPropertyController</text><polygon fill="#181818" points="459.5,250.4063,469.5,254.4063,459.5,258.4063,463.5,254.4063" style="stroke:#181818;stroke-width:1.0;"/><line style="stroke:#181818;stroke-width:1.0;" x1="298.5" x2="465.5" y1="254.4063" y2="254.4063"/><text fill="#000000" font-family="sans-serif" font-size="13" font-weight="bold" lengthAdjust="spacing" textLength="7" x="305.5" y="249.1436">5</text><text fill="#000000" font-family="sans-serif" font-size="13" lengthAdjust="spacing" textLength="60" x="316.5" y="249.1436">getAgent()</text><polygon fill="#181818" points="611.5,281.6973,621.5,285.6973,611.5,289.6973,615.5,285.6973" style="stroke:#181818;stroke-width:1.0;"/><line style="stroke:#181818;stroke-width:1.0;" x1="481.5" x2="617.5" y1="285.6973" y2="285.6973"/><text fill="#000000" font-family="sans-serif" font-size="13" font-weight="bold" lengthAdjust="spacing" textLength="7" x="488.5" y="280.4346">6</text><text fill="#000000" font-family="sans-serif" font-size="13" lengthAdjust="spacing" textLength="75" x="499.5" y="280.4346">getInstance()</text><polygon fill="#181818" points="492.5,312.9883,482.5,316.9883,492.5,320.9883,488.5,316.9883" style="stroke:#181818;stroke-width:1.0;"/><line style="stroke:#181818;stroke-width:1.0;stroke-dasharray:2.0,2.0;" x1="486.5" x2="627.5" y1="316.9883" y2="316.9883"/><text fill="#000000" font-family="sans-serif" font-size="13" font-weight="bold" lengthAdjust="spacing" textLength="7" x="498.5" y="311.7256">7</text><text fill="#000000" font-family="sans-serif" font-size="13" lengthAdjust="spacing" textLength="67" x="509.5" y="311.7256">repositories</text><polygon fill="#181818" points="718.5,344.2793,728.5,348.2793,718.5,352.2793,722.5,348.2793" style="stroke:#181818;stroke-width:1.0;"/><line style="stroke:#181818;stroke-width:1.0;" x1="481.5" x2="724.5" y1="348.2793" y2="348.2793"/><text fill="#000000" font-family="sans-serif" font-size="13" font-weight="bold" lengthAdjust="spacing" textLength="7" x="488.5" y="343.0166">8</text><text fill="#000000" font-family="sans-serif" font-size="13" lengthAdjust="spacing" textLength="146" x="499.5" y="343.0166">getEmployeeRepository()</text><polygon fill="#181818" points="492.5,375.5703,482.5,379.5703,492.5,383.5703,488.5,379.5703" style="stroke:#181818;stroke-width:1.0;"/><line style="stroke:#181818;stroke-width:1.0;stroke-dasharray:2.0,2.0;" x1="486.5" x2="734.5" y1="379.5703" y2="379.5703"/><text fill="#000000" font-family="sans-serif" font-size="13" font-weight="bold" lengthAdjust="spacing" textLength="7" x="498.5" y="374.3076">9</text><text fill="#000000" font-family="sans-serif" font-size="13" lengthAdjust="spacing" textLength="168" x="509.5" y="374.3076">RegisterEmployeeRepository</text><polygon fill="#181818" points="877.5,406.8613,887.5,410.8613,877.5,414.8613,881.5,410.8613" style="stroke:#181818;stroke-width:1.0;"/><line style="stroke:#181818;stroke-width:1.0;" x1="481.5" x2="883.5" y1="410.8613" y2="410.8613"/><text fill="#000000" font-family="sans-serif" font-size="13" font-weight="bold" lengthAdjust="spacing" textLength="14" x="488.5" y="405.5986">10</text><text fill="#000000" font-family="sans-serif" font-size="13" lengthAdjust="spacing" textLength="67" x="506.5" y="405.5986">getAgents()</text><polygon fill="#181818" points="492.5,438.1523,482.5,442.1523,492.5,446.1523,488.5,442.1523" style="stroke:#181818;stroke-width:1.0;"/><line style="stroke:#181818;stroke-width:1.0;" x1="486.5" x2="893.5" y1="442.1523" y2="442.1523"/><text fill="#000000" font-family="sans-serif" font-size="13" font-weight="bold" lengthAdjust="spacing" textLength="14" x="498.5" y="436.8896">11</text><text fill="#000000" font-family="sans-serif" font-size="13" lengthAdjust="spacing" textLength="60" x="516.5" y="436.8896">agentsList</text><polygon fill="#181818" points="309.5,469.4434,299.5,473.4434,309.5,477.4434,305.5,473.4434" style="stroke:#181818;stroke-width:1.0;"/><line style="stroke:#181818;stroke-width:1.0;" x1="303.5" x2="470.5" y1="473.4434" y2="473.4434"/><text fill="#000000" font-family="sans-serif" font-size="13" font-weight="bold" lengthAdjust="spacing" textLength="14" x="315.5" y="468.1807">12</text><text fill="#000000" font-family="sans-serif" font-size="13" lengthAdjust="spacing" textLength="60" x="333.5" y="468.1807">agentsList</text><polygon fill="#181818" points="44.5,500.7344,34.5,504.7344,44.5,508.7344,40.5,504.7344" style="stroke:#181818;stroke-width:1.0;"/><line style="stroke:#181818;stroke-width:1.0;stroke-dasharray:2.0,2.0;" x1="38.5" x2="287.5" y1="504.7344" y2="504.7344"/><text fill="#000000" font-family="sans-serif" font-size="13" font-weight="bold" lengthAdjust="spacing" textLength="14" x="50.5" y="499.4717">13</text><text fill="#000000" font-family="sans-serif" font-size="13" lengthAdjust="spacing" textLength="193" x="68.5" y="499.4717">requests listing and property data</text><polygon fill="#181818" points="276.5,532.0254,286.5,536.0254,276.5,540.0254,280.5,536.0254" style="stroke:#181818;stroke-width:1.0;"/><line style="stroke:#181818;stroke-width:1.0;" x1="33.5" x2="282.5" y1="536.0254" y2="536.0254"/><text fill="#000000" font-family="sans-serif" font-size="13" font-weight="bold" lengthAdjust="spacing" textLength="14" x="40.5" y="530.7627">14</text><text fill="#000000" font-family="sans-serif" font-size="13" lengthAdjust="spacing" textLength="141" x="58.5" y="530.7627">inserts the property data</text><polygon fill="#181818" points="44.5,563.3164,34.5,567.3164,44.5,571.3164,40.5,567.3164" style="stroke:#181818;stroke-width:1.0;"/><line style="stroke:#181818;stroke-width:1.0;" x1="38.5" x2="287.5" y1="567.3164" y2="567.3164"/><text fill="#000000" font-family="sans-serif" font-size="13" font-weight="bold" lengthAdjust="spacing" textLength="14" x="50.5" y="562.0537">15</text><text fill="#000000" font-family="sans-serif" font-size="13" lengthAdjust="spacing" textLength="79" x="68.5" y="562.0537">validates data</text><polygon fill="#181818" points="459.5,594.6074,469.5,598.6074,459.5,602.6074,463.5,598.6074" style="stroke:#181818;stroke-width:1.0;"/><line style="stroke:#181818;stroke-width:1.0;" x1="298.5" x2="465.5" y1="598.6074" y2="598.6074"/><text fill="#000000" font-family="sans-serif" font-size="13" font-weight="bold" lengthAdjust="spacing" textLength="14" x="305.5" y="593.3447">16</text><text fill="#000000" font-family="sans-serif" font-size="13" lengthAdjust="spacing" textLength="131" x="323.5" y="593.3447">createAnnouncement()</text><polygon fill="#181818" points="1284,625.8984,1294,629.8984,1284,633.8984,1288,629.8984" style="stroke:#181818;stroke-width:1.0;"/><line style="stroke:#181818;stroke-width:1.0;" x1="481.5" x2="1290" y1="629.8984" y2="629.8984"/><text fill="#000000" font-family="sans-serif" font-size="13" font-weight="bold" lengthAdjust="spacing" textLength="14" x="488.5" y="624.6357">17</text><text fill="#000000" font-family="sans-serif" font-size="13" lengthAdjust="spacing" textLength="36" x="506.5" y="624.6357">create</text><rect fill="#E3E3E3" height="51.2422" rx="2.5" ry="2.5" style="stroke:#181818;stroke-width:0.5;" width="93" x="1296" y="606.6074"/><text fill="#000000" font-family="sans-serif" font-size="14" lengthAdjust="spacing" textLength="79" x="1303" y="628.7148">newProperty</text><text fill="#000000" font-family="sans-serif" font-size="14" lengthAdjust="spacing" textLength="58" x="1313.5" y="647.3359">:Property</text><line style="stroke:#181818;stroke-width:1.0;" x1="1342.5" x2="1389.5" y1="687.1406" y2="687.1406"/><line style="stroke:#181818;stroke-width:1.0;" x1="1389.5" x2="1389.5" y1="687.1406" y2="700.1406"/><line style="stroke:#181818;stroke-width:1.0;" x1="1348.5" x2="1389.5" y1="700.1406" y2="700.1406"/><polygon fill="#181818" points="1358.5,696.1406,1348.5,700.1406,1358.5,704.1406,1354.5,700.1406" style="stroke:#181818;stroke-width:1.0;"/><text fill="#000000" font-family="sans-serif" font-size="13" font-weight="bold" lengthAdjust="spacing" textLength="14" x="1354.5" y="681.8779">18</text><text fill="#000000" font-family="sans-serif" font-size="13" lengthAdjust="spacing" textLength="149" x="1372.5" y="681.8779">validateProperty(Property)</text><polygon fill="#181818" points="1111.5,732.4316,1101.5,736.4316,1111.5,740.4316,1107.5,736.4316" style="stroke:#181818;stroke-width:1.0;"/><line style="stroke:#181818;stroke-width:1.0;" x1="1105.5" x2="1341.5" y1="736.4316" y2="736.4316"/><text fill="#000000" font-family="sans-serif" font-size="13" font-weight="bold" lengthAdjust="spacing" textLength="14" x="1117.5" y="731.1689">19</text><text fill="#000000" font-family="sans-serif" font-size="13" lengthAdjust="spacing" textLength="49" x="1135.5" y="731.1689">Property</text><polygon fill="#181818" points="492.5,763.7227,482.5,767.7227,492.5,771.7227,488.5,767.7227" style="stroke:#181818;stroke-width:1.0;"/><line style="stroke:#181818;stroke-width:1.0;" x1="486.5" x2="1094.5" y1="767.7227" y2="767.7227"/><text fill="#000000" font-family="sans-serif" font-size="13" font-weight="bold" lengthAdjust="spacing" textLength="14" x="498.5" y="762.46">20</text><text fill="#000000" font-family="sans-serif" font-size="13" lengthAdjust="spacing" textLength="49" x="516.5" y="762.46">Property</text><polygon fill="#181818" points="1078.5,795.0137,1088.5,799.0137,1078.5,803.0137,1082.5,799.0137" style="stroke:#181818;stroke-width:1.0;"/><line style="stroke:#181818;stroke-width:1.0;" x1="481.5" x2="1084.5" y1="799.0137" y2="799.0137"/><text fill="#000000" font-family="sans-serif" font-size="13" font-weight="bold" lengthAdjust="spacing" textLength="14" x="488.5" y="793.751">21</text><text fill="#000000" font-family="sans-serif" font-size="13" lengthAdjust="spacing" textLength="131" x="506.5" y="793.751">createAnnouncement()</text><polygon fill="#181818" points="1444.5,826.3047,1454.5,830.3047,1444.5,834.3047,1448.5,830.3047" style="stroke:#181818;stroke-width:1.0;"/><line style="stroke:#181818;stroke-width:1.0;" x1="1100.5" x2="1450.5" y1="830.3047" y2="830.3047"/><text fill="#000000" font-family="sans-serif" font-size="13" font-weight="bold" lengthAdjust="spacing" textLength="14" x="1107.5" y="825.042">22</text><text fill="#000000" font-family="sans-serif" font-size="13" lengthAdjust="spacing" textLength="36" x="1125.5" y="825.042">create</text><rect fill="#E3E3E3" height="51.2422" rx="2.5" ry="2.5" style="stroke:#181818;stroke-width:0.5;" width="134" x="1456.5" y="807.0137"/><text fill="#000000" font-family="sans-serif" font-size="14" lengthAdjust="spacing" textLength="120" x="1463.5" y="829.1211">newAnnouncement</text><text fill="#000000" font-family="sans-serif" font-size="14" lengthAdjust="spacing" textLength="99" x="1474" y="847.7422">:Announcement</text><line style="stroke:#181818;stroke-width:1.0;" x1="1523.5" x2="1570.5" y1="887.5469" y2="887.5469"/><line style="stroke:#181818;stroke-width:1.0;" x1="1570.5" x2="1570.5" y1="887.5469" y2="900.5469"/><line style="stroke:#181818;stroke-width:1.0;" x1="1529.5" x2="1570.5" y1="900.5469" y2="900.5469"/><polygon fill="#181818" points="1539.5,896.5469,1529.5,900.5469,1539.5,904.5469,1535.5,900.5469" style="stroke:#181818;stroke-width:1.0;"/><text fill="#000000" font-family="sans-serif" font-size="13" font-weight="bold" lengthAdjust="spacing" textLength="14" x="1535.5" y="882.2842">23</text><text fill="#000000" font-family="sans-serif" font-size="13" lengthAdjust="spacing" textLength="225" x="1553.5" y="882.2842">validateAnnouncement(Announcement)</text><polygon fill="#181818" points="1111.5,932.8379,1101.5,936.8379,1111.5,940.8379,1107.5,936.8379" style="stroke:#181818;stroke-width:1.0;"/><line style="stroke:#181818;stroke-width:1.0;" x1="1105.5" x2="1522.5" y1="936.8379" y2="936.8379"/><text fill="#000000" font-family="sans-serif" font-size="13" font-weight="bold" lengthAdjust="spacing" textLength="14" x="1117.5" y="931.5752">24</text><text fill="#000000" font-family="sans-serif" font-size="13" lengthAdjust="spacing" textLength="87" x="1135.5" y="931.5752">Announcement</text><line style="stroke:#181818;stroke-width:1.0;" x1="1105.5" x2="1147.5" y1="968.1289" y2="968.1289"/><line style="stroke:#181818;stroke-width:1.0;" x1="1147.5" x2="1147.5" y1="968.1289" y2="981.1289"/><line style="stroke:#181818;stroke-width:1.0;" x1="1106.5" x2="1147.5" y1="981.1289" y2="981.1289"/><polygon fill="#181818" points="1116.5,977.1289,1106.5,981.1289,1116.5,985.1289,1112.5,981.1289" style="stroke:#181818;stroke-width:1.0;"/><text fill="#000000" font-family="sans-serif" font-size="13" font-weight="bold" lengthAdjust="spacing" textLength="14" x="1112.5" y="962.8662">25</text><text fill="#000000" font-family="sans-serif" font-size="13" lengthAdjust="spacing" textLength="205" x="1130.5" y="962.8662">AddAnnouncement(Announcement)</text><polygon fill="#181818" points="492.5,1038.4199,482.5,1042.4199,492.5,1046.4199,488.5,1042.4199" style="stroke:#181818;stroke-width:1.0;"/><line style="stroke:#181818;stroke-width:1.0;" x1="486.5" x2="1094.5" y1="1042.4199" y2="1042.4199"/><text fill="#000000" font-family="sans-serif" font-size="13" font-weight="bold" lengthAdjust="spacing" textLength="14" x="498.5" y="1037.1572">26</text><text fill="#000000" font-family="sans-serif" font-size="13" lengthAdjust="spacing" textLength="87" x="516.5" y="1037.1572">Announcement</text><polygon fill="#181818" points="309.5,1069.7109,299.5,1073.7109,309.5,1077.7109,305.5,1073.7109" style="stroke:#181818;stroke-width:1.0;"/><line style="stroke:#181818;stroke-width:1.0;stroke-dasharray:2.0,2.0;" x1="303.5" x2="475.5" y1="1073.7109" y2="1073.7109"/><text fill="#000000" font-family="sans-serif" font-size="13" font-weight="bold" lengthAdjust="spacing" textLength="14" x="315.5" y="1068.4482">27</text><text fill="#000000" font-family="sans-serif" font-size="13" lengthAdjust="spacing" textLength="87" x="333.5" y="1068.4482">Announcement</text><polygon fill="#181818" points="39.5,1101.002,29.5,1105.002,39.5,1109.002,35.5,1105.002" style="stroke:#181818;stroke-width:1.0;"/><line style="stroke:#181818;stroke-width:1.0;stroke-dasharray:2.0,2.0;" x1="33.5" x2="292.5" y1="1105.002" y2="1105.002"/><text fill="#000000" font-family="sans-serif" font-size="13" font-weight="bold" lengthAdjust="spacing" textLength="14" x="45.5" y="1099.7393">28</text><text fill="#000000" font-family="sans-serif" font-size="13" lengthAdjust="spacing" textLength="152" x="63.5" y="1099.7393">informs operation success</text><!--SRC=[xLPDKzim4BtxL-nmAMGc3AH0fpvqcWBjGCEGuQkNNXHxIJJOaYl9eVdtNJcnh60bQG-zEQT8slVsQNUrNlt2HS4Koo6NGYOp9NC4eqgCj3ifMFB2fdXl5Xc2miGmCSry0prZgNpbOWhFBDCOHQmqKfJv15KKlPln5E5PIZEHloEM6AdWzbMW0gP1sZyHiHYUy8890tln7KwvDgZ6IXQepEBnQi-Qbdo7tRaKHiaiGrNP9qPbBKGXDIS177LbupOMzzpUYLIlGvI7-2dQ17I-GTLbNcHoWTYug05qyWOp54AM8i4SXMdR3wl3TOZ0r_hQ9Al-Mo6ArQ85yBqGo5zMGEPjH3PHVCuChb8KmUfNBQ7_YV81CMX3JZIOcIsCNoLgGvbMa548R3cmHeqZSCIKKBTPyZvHBhdZcefu9MZCgE8g3sPHa9pd0ASdAbuXz0u8oITxMoIz7hbC59AcDK7BqnYcQ8PJYid-GU0ILPMvRRkoj86wgdYk10MCGanKBQPGBTP6WJFeEu5-aJf8YbkPMvA9f9BOhjkGM5ltzIRzRxHiBl-GCalpLidoXJHXrnlyssVaIQ0bE1Mi0ev8oGQl5hpcU5Kx7d2jKaB5wOfSfAw-86M6RNeiN6YiNyi6G5Ls5Ig6ESiudQ9ksJGNNPQj_vIzQDMfhNtrUgxEGm5TzPdwo2dq61fHTSlPh_y4akGUNOZIEOnX_DREorMBm-5S3BR1szVQUkWzXbhSrWXleV9r-fqrb0Jl6DwODn5Va-0l0dBMMdd8JVNCwYiEGzPUd89i3hyUhs6Q_elG9cv_bo3VwpBxkyG7F3IPNhtwNHnLa_VHVakmxvg-UJaDCrI6p73gpRfC4jJ1Pco_UjvozNNrs3-ZICkSFYhwluzctJ3M3MFTCDODOzqmrWrZtJ3M3MFTCBPn61jdzEL-l1d179MshCU7WwF1-yF1_dqfu2jEO706Hn_ZmMbyyW5-N3w0FJw8zh-DHw1bgHA4b7gKufFIgZg8hjcSmLqf3CynXji2nVN5zte3BiMSAocg85m_tJG6PoVzBzp0FIfI0aytqGK-ip8pX4XaIYqmXlFYU70wY4Oq2vRKGsCeJ7HECJMAUiRuuGy0]--></g></svg>