<?xml version="1.0" encoding="us-ascii" standalone="no"?><svg xmlns="http://www.w3.org/2000/svg" xmlns:xlink="http://www.w3.org/1999/xlink" contentStyleType="text/css" height="414px" preserveAspectRatio="none" style="width:1030px;height:414px;background:#FFFFFF;" version="1.1" viewBox="0 0 1030 414" width="1030px" zoomAndPan="magnify"><defs/><g><!--class Client--><g id="elem_Client"><rect codeLine="18" fill="#F1F1F1" height="36.6211" id="Client" rx="2.5" ry="2.5" style="stroke:#181818;stroke-width:0.5;" width="42" x="211" y="305.57"/><text fill="#000000" font-family="sans-serif" font-size="14" lengthAdjust="spacing" textLength="36" x="214" y="325.6774">Client</text><line style="stroke:#181818;stroke-width:0.5;" x1="212" x2="252" y1="334.1911" y2="334.1911"/></g><!--class Seller--><g id="elem_Seller"><rect codeLine="22" fill="#F1F1F1" height="36.6211" id="Seller" rx="2.5" ry="2.5" style="stroke:#181818;stroke-width:0.5;" width="42" x="7" y="105.57"/><text fill="#000000" font-family="sans-serif" font-size="14" lengthAdjust="spacing" textLength="36" x="10" y="125.6774">Seller</text><line style="stroke:#181818;stroke-width:0.5;" x1="8" x2="48" y1="134.1911" y2="134.1911"/></g><!--class Buyer--><g id="elem_Buyer"><rect codeLine="26" fill="#F1F1F1" height="36.6211" id="Buyer" rx="2.5" ry="2.5" style="stroke:#181818;stroke-width:0.5;" width="43" x="499.5" y="105.57"/><text fill="#000000" font-family="sans-serif" font-size="14" lengthAdjust="spacing" textLength="37" x="502.5" y="125.6774">Buyer</text><line style="stroke:#181818;stroke-width:0.5;" x1="500.5" x2="541.5" y1="134.1911" y2="134.1911"/></g><!--class Visit--><g id="elem_Visit"><rect codeLine="28" fill="#F1F1F1" height="36.6211" id="Visit" rx="2.5" ry="2.5" style="stroke:#181818;stroke-width:0.5;" width="32" x="84" y="105.57"/><text fill="#000000" font-family="sans-serif" font-size="14" lengthAdjust="spacing" textLength="26" x="87" y="125.6774">Visit</text><line style="stroke:#181818;stroke-width:0.5;" x1="85" x2="115" y1="134.1911" y2="134.1911"/></g><!--class Agent--><g id="elem_Agent"><rect codeLine="31" fill="#F1F1F1" height="36.6211" id="Agent" rx="2.5" ry="2.5" style="stroke:#181818;stroke-width:0.5;" width="43" x="242.5" y="105.57"/><text fill="#000000" font-family="sans-serif" font-size="14" lengthAdjust="spacing" textLength="37" x="245.5" y="125.6774">Agent</text><line style="stroke:#181818;stroke-width:0.5;" x1="243.5" x2="284.5" y1="134.1911" y2="134.1911"/></g><!--class Listing--><g id="elem_Listing"><rect codeLine="35" fill="#F1F1F1" height="92.4844" id="Listing" rx="2.5" ry="2.5" style="stroke:#181818;stroke-width:0.5;" width="79" x="385.5" y="78.07"/><text fill="#000000" font-family="sans-serif" font-size="14" lengthAdjust="spacing" textLength="41" x="404.5" y="98.1774">Listing</text><line style="stroke:#181818;stroke-width:0.5;" x1="386.5" x2="463.5" y1="106.6911" y2="106.6911"/><text fill="#000000" font-family="sans-serif" font-size="14" lengthAdjust="spacing" textLength="66" x="391.5" y="125.7985">propertyID</text><text fill="#000000" font-family="sans-serif" font-size="14" lengthAdjust="spacing" textLength="31" x="391.5" y="144.4196">price</text><text fill="#000000" font-family="sans-serif" font-size="14" lengthAdjust="spacing" textLength="67" x="391.5" y="163.0407">sellOrRent</text></g><!--class Property--><g id="elem_Property"><rect codeLine="41" fill="#F1F1F1" height="111.1055" id="Property" rx="2.5" ry="2.5" style="stroke:#181818;stroke-width:0.5;" width="165" x="622.5" y="68.57"/><text fill="#000000" font-family="sans-serif" font-size="14" lengthAdjust="spacing" textLength="54" x="678" y="88.6774">Property</text><line style="stroke:#181818;stroke-width:0.5;" x1="623.5" x2="786.5" y1="97.1911" y2="97.1911"/><text fill="#000000" font-family="sans-serif" font-size="14" lengthAdjust="spacing" textLength="60" x="628.5" y="116.2985">float area</text><text fill="#000000" font-family="sans-serif" font-size="14" lengthAdjust="spacing" textLength="49" x="628.5" y="134.9196">City city</text><text fill="#000000" font-family="sans-serif" font-size="14" lengthAdjust="spacing" textLength="150" x="628.5" y="153.5407">float cityCenterDistance</text><text fill="#000000" font-family="sans-serif" font-size="14" lengthAdjust="spacing" textLength="153" x="628.5" y="172.1618">List&lt;Image&gt; photograph</text></g><!--class House--><g id="elem_House"><rect codeLine="47" fill="#F1F1F1" height="166.9688" id="House" rx="2.5" ry="2.5" style="stroke:#181818;stroke-width:0.5;" width="189" x="610.5" y="240.57"/><text fill="#000000" font-family="sans-serif" font-size="14" lengthAdjust="spacing" textLength="40" x="685" y="260.6774">House</text><line style="stroke:#181818;stroke-width:0.5;" x1="611.5" x2="798.5" y1="269.1911" y2="269.1911"/><text fill="#000000" font-family="sans-serif" font-size="14" lengthAdjust="spacing" textLength="146" x="616.5" y="288.2985">int numberOfBedrooms</text><text fill="#000000" font-family="sans-serif" font-size="14" lengthAdjust="spacing" textLength="150" x="616.5" y="306.9196">int numberOfBathrooms</text><text fill="#000000" font-family="sans-serif" font-size="14" lengthAdjust="spacing" textLength="177" x="616.5" y="325.5407">int numberOfParkingSpaces</text><text fill="#000000" font-family="sans-serif" font-size="14" lengthAdjust="spacing" textLength="145" x="616.5" y="344.1618">List&lt;String&gt; equipment</text><text fill="#000000" font-family="sans-serif" font-size="14" lengthAdjust="spacing" textLength="117" x="616.5" y="362.7829">bool hasBasement</text><text fill="#000000" font-family="sans-serif" font-size="14" lengthAdjust="spacing" textLength="147" x="616.5" y="381.404">bool hasInhabitableLoft</text><text fill="#000000" font-family="sans-serif" font-size="14" lengthAdjust="spacing" textLength="170" x="616.5" y="400.0251">SunExposure sunExposure</text></g><!--class Apartment--><g id="elem_Apartment"><rect codeLine="57" fill="#F1F1F1" height="111.1055" id="Apartment" rx="2.5" ry="2.5" style="stroke:#181818;stroke-width:0.5;" width="189" x="834.5" y="268.57"/><text fill="#000000" font-family="sans-serif" font-size="14" lengthAdjust="spacing" textLength="65" x="896.5" y="288.6774">Apartment</text><line style="stroke:#181818;stroke-width:0.5;" x1="835.5" x2="1022.5" y1="297.1911" y2="297.1911"/><text fill="#000000" font-family="sans-serif" font-size="14" lengthAdjust="spacing" textLength="146" x="840.5" y="316.2985">int numberOfBedrooms</text><text fill="#000000" font-family="sans-serif" font-size="14" lengthAdjust="spacing" textLength="150" x="840.5" y="334.9196">int numberOfBathrooms</text><text fill="#000000" font-family="sans-serif" font-size="14" lengthAdjust="spacing" textLength="177" x="840.5" y="353.5407">int numberOfParkingSpaces</text><text fill="#000000" font-family="sans-serif" font-size="14" lengthAdjust="spacing" textLength="145" x="840.5" y="372.1618">List&lt;String&gt; equipment</text></g><!--class Land--><g id="elem_Land"><rect codeLine="63" fill="#F1F1F1" height="129.7266" id="Land" rx="2.5" ry="2.5" style="stroke:#181818;stroke-width:0.5;" width="219" x="356.5" y="259.07"/><text fill="#000000" font-family="sans-serif" font-size="14" lengthAdjust="spacing" textLength="32" x="450" y="279.1774">Land</text><line style="stroke:#181818;stroke-width:0.5;" x1="357.5" x2="574.5" y1="287.6911" y2="287.6911"/><text fill="#000000" font-family="sans-serif" font-size="14" lengthAdjust="spacing" textLength="68" x="362.5" y="306.7985">int listingID</text><text fill="#000000" font-family="sans-serif" font-size="14" lengthAdjust="spacing" textLength="70" x="362.5" y="325.4196">bool visible</text><text fill="#000000" font-family="sans-serif" font-size="14" lengthAdjust="spacing" textLength="62" x="362.5" y="344.0407">float price</text><text fill="#000000" font-family="sans-serif" font-size="14" lengthAdjust="spacing" textLength="104" x="362.5" y="362.6618">float commission</text><text fill="#000000" font-family="sans-serif" font-size="14" lengthAdjust="spacing" textLength="207" x="362.5" y="381.2829">TypeOfBusiness typeOfBusiness</text></g><!--link Buyer to Client--><g id="link_Buyer_Client"><path codeLine="72" d="M511.76,142.73 C504.88,154.47 494.52,169.52 482,179.57 C428.12,222.83 398.62,205.64 339,240.57 C313.54,255.49 287.27,275.66 267.13,292.33 " fill="none" id="Buyer-to-Client" style="stroke:#181818;stroke-width:1.0;"/><polygon fill="none" points="271.59,297.72,251.81,305.31,262.54,287.04,271.59,297.72" style="stroke:#181818;stroke-width:1.0;"/></g><!--link Seller to Client--><g id="link_Seller_Client"><path codeLine="73" d="M38.62,142.58 C45.73,153.69 55.65,168.09 66,179.57 C106.03,224 159.39,267.9 194.67,295.21 " fill="none" id="Seller-to-Client" style="stroke:#181818;stroke-width:1.0;"/><polygon fill="none" points="199.2,289.86,210.86,307.56,190.71,300.99,199.2,289.86" style="stroke:#181818;stroke-width:1.0;"/></g><!--link Buyer to Property--><g id="link_Buyer_Property"><path codeLine="75" d="M542.83,124.07 C562.63,124.07 593.11,124.07 622.32,124.07 " fill="none" id="Buyer-Property" style="stroke:#181818;stroke-width:1.0;"/><polygon fill="#000000" points="570,111.7155,560.9549,108.7766,560.9549,114.6544,570,111.7155" style="stroke:#000000;stroke-width:1.0;"/><text fill="#000000" font-family="sans-serif" font-size="13" lengthAdjust="spacing" textLength="30" x="574" y="117.0983">Buys</text><text fill="#000000" font-family="sans-serif" font-size="13" lengthAdjust="spacing" textLength="7" x="550.5873" y="118.5978">1</text><text fill="#000000" font-family="sans-serif" font-size="13" lengthAdjust="spacing" textLength="5" x="609.4675" y="120.3233">*</text></g><!--link Visit to Buyer--><g id="link_Visit_Buyer"><path codeLine="76" d="M116.18,105.29 C136.37,83.43 173.2,48.55 213.5,34.57 C283.76,10.2 438.7,41.31 482,68.57 C495.85,77.29 506.16,92.9 512.69,105.35 " fill="none" id="Visit-Buyer" style="stroke:#181818;stroke-width:1.0;"/><polygon fill="#000000" points="213.5,29.2148,222.5446,32.155,222.5455,26.2772,213.5,29.2148" style="stroke:#000000;stroke-width:1.0;"/><text fill="#000000" font-family="sans-serif" font-size="13" lengthAdjust="spacing" textLength="50" x="227.5" y="34.5983">requests</text><text fill="#000000" font-family="sans-serif" font-size="13" lengthAdjust="spacing" textLength="7" x="112.9048" y="94.4032">1</text><text fill="#000000" font-family="sans-serif" font-size="13" lengthAdjust="spacing" textLength="7" x="502.0732" y="94.1448">1</text></g><!--link Visit to Agent--><g id="link_Visit_Agent"><path codeLine="77" d="M116.02,124.07 C145.6,124.07 208.81,124.07 242.23,124.07 " fill="none" id="Visit-Agent" style="stroke:#181818;stroke-width:1.0;"/><polygon fill="#000000" points="143.25,111.7155,134.2049,108.7766,134.2049,114.6544,143.25,111.7155" style="stroke:#000000;stroke-width:1.0;"/><text fill="#000000" font-family="sans-serif" font-size="13" lengthAdjust="spacing" textLength="77" x="147.25" y="117.0983">scheduled by</text><text fill="#000000" font-family="sans-serif" font-size="13" lengthAdjust="spacing" textLength="7" x="124.072" y="117.7302">1</text><text fill="#000000" font-family="sans-serif" font-size="13" lengthAdjust="spacing" textLength="7" x="227.4911" y="118.5978">1</text></g><!--link Seller to Property--><g id="link_Seller_Property"><path codeLine="78" d="M35.5,105.54 C41.68,92.84 51.76,76.84 66,68.57 C154.35,17.25 425.03,11.26 524.5,34.57 C558.04,42.43 592.5,57.49 622.19,73.05 " fill="none" id="Seller-Property" style="stroke:#181818;stroke-width:1.0;"/><polygon fill="#000000" points="489.4924,28.939,480.2986,26.5047,480.6236,32.3736,489.4924,28.939" style="stroke:#000000;stroke-width:1.0;"/><text fill="#000000" font-family="sans-serif" font-size="13" lengthAdjust="spacing" textLength="30" x="493.5" y="34.5983">owns</text><text fill="#000000" font-family="sans-serif" font-size="13" lengthAdjust="spacing" textLength="7" x="29.725" y="94.393">1</text><text fill="#000000" font-family="sans-serif" font-size="13" lengthAdjust="spacing" textLength="5" x="609.5921" y="64.7856">*</text></g><!--link Seller to Listing--><g id="link_Seller_Listing"><path codeLine="79" d="M26.51,105.49 C25.98,84.52 28.84,51.15 50,34.57 C86.44,6 148.59,20.84 303,68.57 C331.46,77.37 361.96,91.24 385.34,102.92 " fill="none" id="Seller-Listing" style="stroke:#181818;stroke-width:1.0;"/><polygon fill="#000000" points="59.9999,29.1797,50.934,26.3056,50.9761,32.1833,59.9999,29.1797" style="stroke:#000000;stroke-width:1.0;"/><text fill="#000000" font-family="sans-serif" font-size="13" lengthAdjust="spacing" textLength="43" x="64" y="34.5983">creates</text><text fill="#000000" font-family="sans-serif" font-size="13" lengthAdjust="spacing" textLength="7" x="17.9818" y="94.3277">1</text><text fill="#000000" font-family="sans-serif" font-size="13" lengthAdjust="spacing" textLength="5" x="372.5667" y="94.4638">*</text></g><!--link Agent to Listing--><g id="link_Agent_Listing"><path codeLine="80" d="M285.71,124.07 C311.21,124.07 353.99,124.07 385.43,124.07 " fill="none" id="Agent-Listing" style="stroke:#181818;stroke-width:1.0;"/><polygon fill="#000000" points="313,111.7155,303.9549,108.7766,303.9549,114.6544,313,111.7155" style="stroke:#000000;stroke-width:1.0;"/><text fill="#000000" font-family="sans-serif" font-size="13" lengthAdjust="spacing" textLength="50" x="317" y="117.0983">validates</text><text fill="#000000" font-family="sans-serif" font-size="13" lengthAdjust="spacing" textLength="7" x="293.4306" y="118.5978">1</text><text fill="#000000" font-family="sans-serif" font-size="13" lengthAdjust="spacing" textLength="5" x="372.4104" y="119.4596">*</text></g><!--reverse link Property to House--><g id="link_Property_House"><path codeLine="82" d="M705,199.86 C705,213.11 705,226.97 705,240.42 " fill="none" id="Property-backto-House" style="stroke:#181818;stroke-width:1.0;"/><polygon fill="none" points="698,199.7,705,179.7,712,199.7,698,199.7" style="stroke:#181818;stroke-width:1.0;"/></g><!--reverse link Property to Apartment--><g id="link_Property_Apartment"><path codeLine="83" d="M781.86,193.01 C809.65,217.58 840.66,244.98 867.01,268.28 " fill="none" id="Property-backto-Apartment" style="stroke:#181818;stroke-width:1.0;"/><polygon fill="none" points="777.15,198.19,766.8,179.7,786.42,187.7,777.15,198.19" style="stroke:#181818;stroke-width:1.0;"/></g><!--reverse link Property to Land--><g id="link_Property_Land"><path codeLine="84" d="M623.37,192.69 C597.56,214.08 569.11,237.65 543.58,258.8 " fill="none" id="Property-backto-Land" style="stroke:#181818;stroke-width:1.0;"/><polygon fill="none" points="619.19,187.07,639.06,179.7,628.12,197.85,619.19,187.07" style="stroke:#181818;stroke-width:1.0;"/></g><!--SRC=[lLDDRzim3BthLn2v11WGOBi6GO1y35Y030sMONV5fcsX-d15kbtMvh-FbjKaRRFhV314yf5F51_ftlXMH-t01H-A9WQ7mB53HUT8gujxNUEUZnOXOi7Qr_OQG8qkmvFnDLJQ4YerjbWnS81eweQXD7sM2LvT9HLM4osOepbqZ9iY-BtvW_1PgSQK28M9XP2aiqDkGabIbmtB7TR1QUFXUoZHYZDLWftLN8Neu5cD0IObKX5DcrZ79wK6qCeQz2mGTNRjqLgCRrpBxfWyfsp_CcGu0GPxKKkHwuIj8PRsdnN8ryRGOkJZPfrDKs0waJ3TnH-IUocros0OSYiRD8EEg9EvCX8fv7SLxCsLrC2u5bRjS_7-2hEDapdDeMq2XphgjZdpV0iTOIO18q_WEtV0U5SjiOmXEBeHqTpy8xJJKUPOxqKPcCE9Vo_JzFKSyA4phUiRJR5321OQJKjD-D6xyOq-6DO7YzjGvU2-yrz_ju6wY42Ny-N95w8YTiCm_tTJhu-wrRxCz7qXEwWWppsrzoZAaRwkndUHGnvdSCuGzJBjdJ-FBSejEp8UXO7Vc7ttCbZPXYJFGQQJoSiywrfbBL-xJXas-ZA22Om-ZSwIc_Ow9vYh9EzNWFnJmbGs_Q53OeBP1qHQW2bGqM3PMIpXS9GwcVqMKtZoT0kH5sSAXKYUiSUashSWZzgQCeFKUMzcBvF9eEvtlhD0tldxeQc_]--></g></svg>