<?xml version="1.0" encoding="us-ascii" standalone="no"?><svg xmlns="http://www.w3.org/2000/svg" xmlns:xlink="http://www.w3.org/1999/xlink" contentStyleType="text/css" height="411px" preserveAspectRatio="none" style="width:608px;height:411px;background:#FFFFFF;" version="1.1" viewBox="0 0 608 411" width="608px" zoomAndPan="magnify"><defs/><g><text fill="#000000" font-family="sans-serif" font-size="14" font-weight="bold" lengthAdjust="spacing" textLength="147" x="223.75" y="25.1074">Domain Model US020</text><g id="elem_Client"><rect fill="#F1F1F1" height="38.6211" style="stroke:#181818;stroke-width:0.5;" width="50" x="7" y="48.8838"/><text fill="#000000" font-family="sans-serif" font-size="14" lengthAdjust="spacing" textLength="36" x="14" y="65.9912">Client</text><line style="stroke:#181818;stroke-width:0.5;" x1="8" x2="56" y1="71.5049" y2="71.5049"/></g><g id="elem_Schedule"><rect fill="#F1F1F1" height="38.6211" style="stroke:#181818;stroke-width:0.5;" width="73" x="197.5" y="48.8838"/><text fill="#000000" font-family="sans-serif" font-size="14" lengthAdjust="spacing" textLength="59" x="204.5" y="65.9912">Schedule</text><line style="stroke:#181818;stroke-width:0.5;" x1="198.5" x2="269.5" y1="71.5049" y2="71.5049"/></g><g id="elem_Announcement"><rect fill="#F1F1F1" height="38.6211" style="stroke:#181818;stroke-width:0.5;" width="109" x="339.5" y="48.8838"/><text fill="#000000" font-family="sans-serif" font-size="14" lengthAdjust="spacing" textLength="95" x="346.5" y="65.9912">Announcement</text><line style="stroke:#181818;stroke-width:0.5;" x1="340.5" x2="447.5" y1="71.5049" y2="71.5049"/></g><g id="elem_Property"><rect fill="#F1F1F1" height="38.6211" style="stroke:#181818;stroke-width:0.5;" width="68" x="200" y="166.8838"/><text fill="#000000" font-family="sans-serif" font-size="14" lengthAdjust="spacing" textLength="54" x="207" y="183.9912">Property</text><line style="stroke:#181818;stroke-width:0.5;" x1="201" x2="267" y1="189.5049" y2="189.5049"/></g><g id="elem_House"><rect fill="#F1F1F1" height="38.6211" style="stroke:#181818;stroke-width:0.5;" width="54" x="102" y="266.8838"/><text fill="#000000" font-family="sans-serif" font-size="14" lengthAdjust="spacing" textLength="40" x="109" y="283.9912">House</text><line style="stroke:#181818;stroke-width:0.5;" x1="103" x2="155" y1="289.5049" y2="289.5049"/></g><g id="elem_Apartment"><rect fill="#F1F1F1" height="38.6211" style="stroke:#181818;stroke-width:0.5;" width="79" x="191.5" y="266.8838"/><text fill="#000000" font-family="sans-serif" font-size="14" lengthAdjust="spacing" textLength="65" x="198.5" y="283.9912">Apartment</text><line style="stroke:#181818;stroke-width:0.5;" x1="192.5" x2="269.5" y1="289.5049" y2="289.5049"/></g><g id="elem_Land"><rect fill="#F1F1F1" height="38.6211" style="stroke:#181818;stroke-width:0.5;" width="46" x="306" y="266.8838"/><text fill="#000000" font-family="sans-serif" font-size="14" lengthAdjust="spacing" textLength="32" x="313" y="283.9912">Land</text><line style="stroke:#181818;stroke-width:0.5;" x1="307" x2="351" y1="289.5049" y2="289.5049"/></g><g id="elem_Commission"><rect fill="#F1F1F1" height="38.6211" style="stroke:#181818;stroke-width:0.5;" width="90" x="387" y="266.8838"/><text fill="#000000" font-family="sans-serif" font-size="14" lengthAdjust="spacing" textLength="76" x="394" y="283.9912">Commission</text><line style="stroke:#181818;stroke-width:0.5;" x1="388" x2="476" y1="289.5049" y2="289.5049"/></g><g id="elem_FixedCommission"><rect fill="#F1F1F1" height="38.6211" style="stroke:#181818;stroke-width:0.5;" width="124" x="280" y="366.8838"/><text fill="#000000" font-family="sans-serif" font-size="14" lengthAdjust="spacing" textLength="110" x="287" y="383.9912">FixedCommission</text><line style="stroke:#181818;stroke-width:0.5;" x1="281" x2="403" y1="389.5049" y2="389.5049"/></g><g id="elem_PercentageCommission"><rect fill="#F1F1F1" height="38.6211" style="stroke:#181818;stroke-width:0.5;" width="163" x="439.5" y="366.8838"/><text fill="#000000" font-family="sans-serif" font-size="14" lengthAdjust="spacing" textLength="149" x="446.5" y="383.9912">PercentageCommission</text><line style="stroke:#181818;stroke-width:0.5;" x1="440.5" x2="601.5" y1="389.5049" y2="389.5049"/></g><!--link Client to Schedule--><g id="link_Client_Schedule"><path codeLine="45" d="M57.18,68.3838 C90.88,68.3838 151.13,68.3838 191.83,68.3838 " fill="none" id="Client-to-Schedule" style="stroke:#181818;stroke-width:1.0;"/><polygon fill="#181818" points="197.19,68.3838,188.19,64.3838,192.19,68.3838,188.19,72.3838,197.19,68.3838" style="stroke:#181818;stroke-width:1.0;"/><text fill="#000000" font-family="sans-serif" font-size="13" lengthAdjust="spacing" textLength="104" x="75.25" y="61.4121">read the response</text></g><!--link Announcement to Property--><g id="link_Announcement_Property"><path codeLine="47" d="M368.29,88.0238 C338.44,109.6638 289.47,145.1638 259.64,166.7938 " fill="none" id="Announcement-Property" style="stroke:#181818;stroke-width:1.0;"/><polygon fill="#000000" points="324.9519,130.4641,334,127.5344,330.5499,122.7756,324.9519,130.4641" style="stroke:#000000;stroke-width:1.0;"/><text fill="#000000" font-family="sans-serif" font-size="13" lengthAdjust="spacing" textLength="49" x="338" y="132.9121">contains</text><text fill="#000000" font-family="sans-serif" font-size="13" lengthAdjust="spacing" textLength="7" x="353.4398" y="109.7048">1</text><text fill="#000000" font-family="sans-serif" font-size="13" lengthAdjust="spacing" textLength="7" x="259.1436" y="155.6691">1</text></g><!--link Announcement to Commission--><g id="link_Announcement_Commission"><path codeLine="48" d="M397.31,88.1738 C404.23,127.5238 420.24,218.5338 427.84,261.7638 " fill="none" id="Announcement-to-Commission" style="stroke:#181818;stroke-width:1.0;"/><polygon fill="#181818" points="428.73,266.7938,431.1019,257.2348,427.8594,261.8702,423.2241,258.6277,428.73,266.7938" style="stroke:#181818;stroke-width:1.0;"/><polygon fill="#000000" points="424.8661,191.4537,426.1938,182.0363,420.4048,183.0544,424.8661,191.4537" style="stroke:#000000;stroke-width:1.0;"/><text fill="#000000" font-family="sans-serif" font-size="13" lengthAdjust="spacing" textLength="32" x="433" y="191.9121">has a</text><text fill="#000000" font-family="sans-serif" font-size="13" lengthAdjust="spacing" textLength="7" x="390.2613" y="109.5373">1</text><text fill="#000000" font-family="sans-serif" font-size="13" lengthAdjust="spacing" textLength="7" x="419.7413" y="255.6691">1</text></g><!--reverse link Property to House--><g id="link_Property_House"><path codeLine="50" d="M199.1,219.9538 C182.39,235.5538 162.98,253.6738 148.83,266.8738 " fill="none" id="Property-backto-House" style="stroke:#181818;stroke-width:1.0;"/><polygon fill="none" points="194.36,214.8038,213.75,206.2838,203.91,225.0438,194.36,214.8038" style="stroke:#181818;stroke-width:1.0;"/></g><!--reverse link Property to Apartment--><g id="link_Property_Apartment"><path codeLine="51" d="M232.8,226.5638 C232.37,240.4838 231.91,255.5038 231.57,266.8738 " fill="none" id="Property-backto-Apartment" style="stroke:#181818;stroke-width:1.0;"/><polygon fill="none" points="225.81,226.0538,233.42,206.2838,239.81,226.4838,225.81,226.0538" style="stroke:#181818;stroke-width:1.0;"/></g><!--reverse link Property to Land--><g id="link_Property_Land"><path codeLine="52" d="M266.27,220.6738 C281.24,236.1138 298.46,253.8738 311.06,266.8738 " fill="none" id="Property-backto-Land" style="stroke:#181818;stroke-width:1.0;"/><polygon fill="none" points="261.21,225.5138,252.32,206.2838,271.26,215.7638,261.21,225.5138" style="stroke:#181818;stroke-width:1.0;"/></g><!--reverse link Commission to FixedCommission--><g id="link_Commission_FixedCommission"><path codeLine="54" d="M400.98,321.1638 C386.91,336.4838 370.81,354.0138 358.99,366.8738 " fill="none" id="Commission-backto-FixedCommission" style="stroke:#181818;stroke-width:1.0;"/><polygon fill="none" points="395.96,316.2738,414.65,306.2838,406.27,325.7438,395.96,316.2738" style="stroke:#181818;stroke-width:1.0;"/></g><!--reverse link Commission to PercentageCommission--><g id="link_Commission_PercentageCommission"><path codeLine="55" d="M462.67,321.1638 C476.59,336.4838 492.51,354.0138 504.19,366.8738 " fill="none" id="Commission-backto-PercentageCommission" style="stroke:#181818;stroke-width:1.0;"/><polygon fill="none" points="457.42,325.7938,449.16,306.2838,467.79,316.3738,457.42,325.7938" style="stroke:#181818;stroke-width:1.0;"/></g><!--link Schedule to Property--><g id="link_Schedule_Property"><path codeLine="57" d="M234,88.0238 C234,108.0638 234,139.9738 234,161.7638 " fill="none" id="Schedule-to-Property" style="stroke:#181818;stroke-width:1.0;"/><polygon fill="#181818" points="234,166.7938,238,157.7938,234,161.7938,230,157.7938,234,166.7938" style="stroke:#181818;stroke-width:1.0;"/><polygon fill="#000000" points="239,132.5293,241.9389,123.4842,236.0611,123.4842,239,132.5293" style="stroke:#000000;stroke-width:1.0;"/><text fill="#000000" font-family="sans-serif" font-size="13" lengthAdjust="spacing" textLength="37" x="248" y="132.9121">to visit</text></g><!--SRC=[TP71IiGm48RlynJ3tWkhno8BiY8U51OM7o0cWusqcP9CPHVrtPqMJKsxdXA-cVmp_n_nqXBUSMTym2TsrEBpSNkz1U2NDxA2-zPJ4Fm0-ChiQ1joWxuhw6q8F0HBtQh_4BcdAEUIFl2G9ec_6hs9iXPuDC6LPCzTvrFo74f-xq_a_YiUA5hLDg-qwlYnMUsokHeZ6OVIa5vIpo4HGE5nSxN1gfgENuSrMjO1FYJSNMfM_V4oZw-nCGcDTaDEwUPJLQTq5Yodi-1ZF6fXzZJHHHIh-gKq0FBVZhlEjeJntISlkkWt]--></g></svg>