<?xml version="1.0" encoding="us-ascii" standalone="no"?><svg xmlns="http://www.w3.org/2000/svg" xmlns:xlink="http://www.w3.org/1999/xlink" contentStyleType="text/css" height="411px" preserveAspectRatio="none" style="width:592px;height:411px;background:#FFFFFF;" version="1.1" viewBox="0 0 592 411" width="592px" zoomAndPan="magnify"><defs/><g><text fill="#000000" font-family="sans-serif" font-size="14" font-weight="bold" lengthAdjust="spacing" textLength="147" x="215.75" y="25.1074">Domain Model US020</text><g id="elem_Client"><rect fill="#F1F1F1" height="38.6211" style="stroke:#181818;stroke-width:0.5;" width="50" x="7" y="48.8838"/><text fill="#000000" font-family="sans-serif" font-size="14" lengthAdjust="spacing" textLength="36" x="14" y="65.9912">Client</text><line style="stroke:#181818;stroke-width:0.5;" x1="8" x2="56" y1="71.5049" y2="71.5049"/></g><g id="elem_Visit"><rect fill="#F1F1F1" height="38.6211" style="stroke:#181818;stroke-width:0.5;" width="40" x="198" y="48.8838"/><text fill="#000000" font-family="sans-serif" font-size="14" lengthAdjust="spacing" textLength="26" x="205" y="65.9912">Visit</text><line style="stroke:#181818;stroke-width:0.5;" x1="199" x2="237" y1="71.5049" y2="71.5049"/></g><g id="elem_Announcement"><rect fill="#F1F1F1" height="38.6211" style="stroke:#181818;stroke-width:0.5;" width="109" x="315.5" y="48.8838"/><text fill="#000000" font-family="sans-serif" font-size="14" lengthAdjust="spacing" textLength="95" x="322.5" y="65.9912">Announcement</text><line style="stroke:#181818;stroke-width:0.5;" x1="316.5" x2="423.5" y1="71.5049" y2="71.5049"/></g><g id="elem_Property"><rect fill="#F1F1F1" height="38.6211" style="stroke:#181818;stroke-width:0.5;" width="68" x="184" y="166.8838"/><text fill="#000000" font-family="sans-serif" font-size="14" lengthAdjust="spacing" textLength="54" x="191" y="183.9912">Property</text><line style="stroke:#181818;stroke-width:0.5;" x1="185" x2="251" y1="189.5049" y2="189.5049"/></g><g id="elem_House"><rect fill="#F1F1F1" height="38.6211" style="stroke:#181818;stroke-width:0.5;" width="54" x="86" y="266.8838"/><text fill="#000000" font-family="sans-serif" font-size="14" lengthAdjust="spacing" textLength="40" x="93" y="283.9912">House</text><line style="stroke:#181818;stroke-width:0.5;" x1="87" x2="139" y1="289.5049" y2="289.5049"/></g><g id="elem_Apartment"><rect fill="#F1F1F1" height="38.6211" style="stroke:#181818;stroke-width:0.5;" width="79" x="175.5" y="266.8838"/><text fill="#000000" font-family="sans-serif" font-size="14" lengthAdjust="spacing" textLength="65" x="182.5" y="283.9912">Apartment</text><line style="stroke:#181818;stroke-width:0.5;" x1="176.5" x2="253.5" y1="289.5049" y2="289.5049"/></g><g id="elem_Land"><rect fill="#F1F1F1" height="38.6211" style="stroke:#181818;stroke-width:0.5;" width="46" x="290" y="266.8838"/><text fill="#000000" font-family="sans-serif" font-size="14" lengthAdjust="spacing" textLength="32" x="297" y="283.9912">Land</text><line style="stroke:#181818;stroke-width:0.5;" x1="291" x2="335" y1="289.5049" y2="289.5049"/></g><g id="elem_Commission"><rect fill="#F1F1F1" height="38.6211" style="stroke:#181818;stroke-width:0.5;" width="90" x="371" y="266.8838"/><text fill="#000000" font-family="sans-serif" font-size="14" lengthAdjust="spacing" textLength="76" x="378" y="283.9912">Commission</text><line style="stroke:#181818;stroke-width:0.5;" x1="372" x2="460" y1="289.5049" y2="289.5049"/></g><g id="elem_FixedCommission"><rect fill="#F1F1F1" height="38.6211" style="stroke:#181818;stroke-width:0.5;" width="124" x="264" y="366.8838"/><text fill="#000000" font-family="sans-serif" font-size="14" lengthAdjust="spacing" textLength="110" x="271" y="383.9912">FixedCommission</text><line style="stroke:#181818;stroke-width:0.5;" x1="265" x2="387" y1="389.5049" y2="389.5049"/></g><g id="elem_PercentageCommission"><rect fill="#F1F1F1" height="38.6211" style="stroke:#181818;stroke-width:0.5;" width="163" x="423.5" y="366.8838"/><text fill="#000000" font-family="sans-serif" font-size="14" lengthAdjust="spacing" textLength="149" x="430.5" y="383.9912">PercentageCommission</text><line style="stroke:#181818;stroke-width:0.5;" x1="424.5" x2="585.5" y1="389.5049" y2="389.5049"/></g><!--link Client to Visit--><g id="link_Client_Visit"><path codeLine="45" d="M57.08,68.3838 C92.62,68.3838 157.25,68.3838 192.83,68.3838 " fill="none" id="Client-to-Visit" style="stroke:#181818;stroke-width:1.0;"/><polygon fill="#181818" points="197.86,68.3838,188.86,64.3838,192.86,68.3838,188.86,72.3838,197.86,68.3838" style="stroke:#181818;stroke-width:1.0;"/><text fill="#000000" font-family="sans-serif" font-size="13" lengthAdjust="spacing" textLength="104" x="75.5" y="61.4121">read the response</text></g><!--link Announcement to Property--><g id="link_Announcement_Property"><path codeLine="47" d="M345.58,88.0238 C317.21,109.6638 270.7,145.1638 242.36,166.7938 " fill="none" id="Announcement-Property" style="stroke:#181818;stroke-width:1.0;"/><polygon fill="#000000" points="305.0252,130.5626,313.9986,127.4117,310.4328,122.739,305.0252,130.5626" style="stroke:#000000;stroke-width:1.0;"/><text fill="#000000" font-family="sans-serif" font-size="13" lengthAdjust="spacing" textLength="49" x="318" y="132.9121">contains</text><text fill="#000000" font-family="sans-serif" font-size="13" lengthAdjust="spacing" textLength="7" x="331.0765" y="109.7048">1</text><text fill="#000000" font-family="sans-serif" font-size="13" lengthAdjust="spacing" textLength="7" x="241.4876" y="155.6691">1</text></g><!--link Announcement to Commission--><g id="link_Announcement_Commission"><path codeLine="48" d="M374,88.1738 C382.38,127.5238 401.76,218.5338 410.97,261.7638 " fill="none" id="Announcement-to-Commission" style="stroke:#181818;stroke-width:1.0;"/><polygon fill="#181818" points="412.04,266.7938,414.0731,257.1571,410.9963,261.9039,406.2494,258.8271,412.04,266.7938" style="stroke:#181818;stroke-width:1.0;"/><polygon fill="#000000" points="406.0415,191.4196,407.0319,181.9608,401.2829,183.1851,406.0415,191.4196" style="stroke:#000000;stroke-width:1.0;"/><text fill="#000000" font-family="sans-serif" font-size="13" lengthAdjust="spacing" textLength="32" x="414" y="191.9121">has a</text><text fill="#000000" font-family="sans-serif" font-size="13" lengthAdjust="spacing" textLength="7" x="367.1281" y="109.5373">1</text><text fill="#000000" font-family="sans-serif" font-size="13" lengthAdjust="spacing" textLength="7" x="402.8486" y="255.6691">1</text></g><!--reverse link Property to House--><g id="link_Property_House"><path codeLine="50" d="M183.1,219.9538 C166.39,235.5538 146.98,253.6738 132.83,266.8738 " fill="none" id="Property-backto-House" style="stroke:#181818;stroke-width:1.0;"/><polygon fill="none" points="178.36,214.8038,197.75,206.2838,187.91,225.0438,178.36,214.8038" style="stroke:#181818;stroke-width:1.0;"/></g><!--reverse link Property to Apartment--><g id="link_Property_Apartment"><path codeLine="51" d="M216.8,226.5638 C216.37,240.4838 215.91,255.5038 215.57,266.8738 " fill="none" id="Property-backto-Apartment" style="stroke:#181818;stroke-width:1.0;"/><polygon fill="none" points="209.81,226.0538,217.42,206.2838,223.81,226.4838,209.81,226.0538" style="stroke:#181818;stroke-width:1.0;"/></g><!--reverse link Property to Land--><g id="link_Property_Land"><path codeLine="52" d="M250.27,220.6738 C265.24,236.1138 282.46,253.8738 295.06,266.8738 " fill="none" id="Property-backto-Land" style="stroke:#181818;stroke-width:1.0;"/><polygon fill="none" points="245.21,225.5138,236.32,206.2838,255.26,215.7638,245.21,225.5138" style="stroke:#181818;stroke-width:1.0;"/></g><!--reverse link Commission to FixedCommission--><g id="link_Commission_FixedCommission"><path codeLine="54" d="M384.98,321.1638 C370.91,336.4838 354.81,354.0138 342.99,366.8738 " fill="none" id="Commission-backto-FixedCommission" style="stroke:#181818;stroke-width:1.0;"/><polygon fill="none" points="379.96,316.2738,398.65,306.2838,390.27,325.7438,379.96,316.2738" style="stroke:#181818;stroke-width:1.0;"/></g><!--reverse link Commission to PercentageCommission--><g id="link_Commission_PercentageCommission"><path codeLine="55" d="M446.67,321.1638 C460.59,336.4838 476.51,354.0138 488.19,366.8738 " fill="none" id="Commission-backto-PercentageCommission" style="stroke:#181818;stroke-width:1.0;"/><polygon fill="none" points="441.42,325.7938,433.16,306.2838,451.79,316.3738,441.42,325.7938" style="stroke:#181818;stroke-width:1.0;"/></g><!--link Visit to Property--><g id="link_Visit_Property"><path codeLine="57" d="M218,88.0238 C218,108.0638 218,139.9738 218,161.7638 " fill="none" id="Visit-to-Property" style="stroke:#181818;stroke-width:1.0;"/><polygon fill="#181818" points="218,166.7938,222,157.7938,218,161.7938,214,157.7938,218,166.7938" style="stroke:#181818;stroke-width:1.0;"/><polygon fill="#000000" points="223,132.5293,225.9389,123.4842,220.0611,123.4842,223,132.5293" style="stroke:#000000;stroke-width:1.0;"/><text fill="#000000" font-family="sans-serif" font-size="13" lengthAdjust="spacing" textLength="37" x="232" y="132.9121">to visit</text></g><!--SRC=[RP51Qy9048Nlyoi6xm7ROoW1iKWFBGXIxsiow4Wo4tRNKb7_kvkeYTbuskMRnzjvRptxal1JAyE2FrfGYR-hwViKG3TxoZtEIoRnU0AuT6pDZYCq4z63v5IDn4khDLb_7D8lFJXgqBD7RQmV6tmRAOPahbN5ph7A02_uduf-5gr1DW_MPaiZnJrYajs2fMZ95EXt52wkLd44CCWtUPjWahJ78rsAkGPt5eVPAt4mRoxzsodkZ4CJrD0rz74Ehcqp4UkQYNXJJTY_3zJIg8VH_5KL0BTFRHRjCtd5lnPdS0K0]--></g></svg>