<?xml version="1.0" encoding="us-ascii" standalone="no"?><svg xmlns="http://www.w3.org/2000/svg" xmlns:xlink="http://www.w3.org/1999/xlink" contentStyleType="text/css" height="758px" preserveAspectRatio="none" style="width:618px;height:758px;background:#FFFFFF;" version="1.1" viewBox="0 0 618 758" width="618px" zoomAndPan="magnify"><defs/><g><!--class Employee--><g id="elem_Employee"><rect codeLine="2" fill="#F1F1F1" height="196.9688" id="Employee" rx="2.5" ry="2.5" style="stroke:#181818;stroke-width:0.5;" width="164" x="250" y="316"/><ellipse cx="296.75" cy="332" fill="#ADD1B2" rx="11" ry="11" style="stroke:#181818;stroke-width:1.0;"/><path d="M299.5156,327.875 Q299.6719,327.6563 299.8594,327.5469 Q300.0469,327.4375 300.2656,327.4375 Q300.6406,327.4375 300.875,327.7031 Q301.1094,327.9531 301.1094,328.5625 L301.1094,330.0156 Q301.1094,330.625 300.875,330.8906 Q300.6406,331.1563 300.2656,331.1563 Q299.9219,331.1563 299.7188,330.9531 Q299.5156,330.7656 299.4063,330.25 Q299.3594,329.8906 299.1719,329.7031 Q298.8438,329.3281 298.2344,329.1094 Q297.625,328.8906 297,328.8906 Q296.2344,328.8906 295.5938,329.2188 Q294.9688,329.5469 294.4688,330.2969 Q293.9844,331.0469 293.9844,332.0781 L293.9844,333.1719 Q293.9844,334.4063 294.875,335.2344 Q295.7656,336.0469 297.3594,336.0469 Q298.2969,336.0469 298.9531,335.7969 Q299.3438,335.6406 299.7656,335.2031 Q300.0313,334.9375 300.1719,334.8594 Q300.3281,334.7813 300.5313,334.7813 Q300.8594,334.7813 301.1094,335.0469 Q301.375,335.2969 301.375,335.6406 Q301.375,335.9844 301.0313,336.3906 Q300.5313,336.9688 299.7344,337.2969 Q298.6563,337.75 297.3594,337.75 Q295.8438,337.75 294.6406,337.125 Q293.6563,336.625 292.9688,335.5625 Q292.2813,334.4844 292.2813,333.2031 L292.2813,332.0469 Q292.2813,330.7188 292.8906,329.5781 Q293.5156,328.4219 294.6094,327.8125 Q295.7031,327.1875 296.9375,327.1875 Q297.6719,327.1875 298.3125,327.3594 Q298.9688,327.5156 299.5156,327.875 Z " fill="#000000"/><text fill="#000000" font-family="sans-serif" font-size="14" lengthAdjust="spacing" textLength="62" x="317.25" y="337.7969">Employee</text><line style="stroke:#181818;stroke-width:0.5;" x1="251" x2="413" y1="348" y2="348"/><rect fill="none" height="6" style="stroke:#C82930;stroke-width:1.0;" width="6" x="258" y="359.8105"/><text fill="#000000" font-family="sans-serif" font-size="14" lengthAdjust="spacing" textLength="76" x="270" y="367.1074">String name</text><rect fill="none" height="6" style="stroke:#C82930;stroke-width:1.0;" width="6" x="258" y="378.4316"/><text fill="#000000" font-family="sans-serif" font-size="14" lengthAdjust="spacing" textLength="138" x="270" y="385.7285">int citizenCardNumber</text><rect fill="none" height="6" style="stroke:#C82930;stroke-width:1.0;" width="6" x="258" y="397.0527"/><text fill="#000000" font-family="sans-serif" font-size="14" lengthAdjust="spacing" textLength="86" x="270" y="404.3496">int taxNumber</text><rect fill="none" height="6" style="stroke:#C82930;stroke-width:1.0;" width="6" x="258" y="415.6738"/><text fill="#000000" font-family="sans-serif" font-size="14" lengthAdjust="spacing" textLength="92" x="270" y="422.9707">String address</text><rect fill="none" height="6" style="stroke:#C82930;stroke-width:1.0;" width="6" x="258" y="434.2949"/><text fill="#000000" font-family="sans-serif" font-size="14" lengthAdjust="spacing" textLength="126" x="270" y="441.5918">String emailAddress</text><rect fill="none" height="6" style="stroke:#C82930;stroke-width:1.0;" width="6" x="258" y="452.916"/><text fill="#000000" font-family="sans-serif" font-size="14" lengthAdjust="spacing" textLength="131" x="270" y="460.2129">int telephoneNumber</text><rect fill="none" height="6" style="stroke:#C82930;stroke-width:1.0;" width="6" x="258" y="471.5371"/><text fill="#000000" font-family="sans-serif" font-size="14" lengthAdjust="spacing" textLength="57" x="270" y="478.834">Role role</text><rect fill="none" height="6" style="stroke:#C82930;stroke-width:1.0;" width="6" x="258" y="490.1582"/><text fill="#000000" font-family="sans-serif" font-size="14" lengthAdjust="spacing" textLength="97" x="270" y="497.4551">Agency agency</text><line style="stroke:#181818;stroke-width:0.5;" x1="251" x2="413" y1="504.9688" y2="504.9688"/></g><!--class RegeisterEmployeeUI--><g id="elem_RegeisterEmployeeUI"><rect codeLine="16" fill="#F1F1F1" height="66.6211" id="RegeisterEmployeeUI" rx="2.5" ry="2.5" style="stroke:#181818;stroke-width:0.5;" width="167" x="248.5" y="7"/><ellipse cx="263.5" cy="23" fill="#ADD1B2" rx="11" ry="11" style="stroke:#181818;stroke-width:1.0;"/><path d="M266.2656,18.875 Q266.4219,18.6563 266.6094,18.5469 Q266.7969,18.4375 267.0156,18.4375 Q267.3906,18.4375 267.625,18.7031 Q267.8594,18.9531 267.8594,19.5625 L267.8594,21.0156 Q267.8594,21.625 267.625,21.8906 Q267.3906,22.1563 267.0156,22.1563 Q266.6719,22.1563 266.4688,21.9531 Q266.2656,21.7656 266.1563,21.25 Q266.1094,20.8906 265.9219,20.7031 Q265.5938,20.3281 264.9844,20.1094 Q264.375,19.8906 263.75,19.8906 Q262.9844,19.8906 262.3438,20.2188 Q261.7188,20.5469 261.2188,21.2969 Q260.7344,22.0469 260.7344,23.0781 L260.7344,24.1719 Q260.7344,25.4063 261.625,26.2344 Q262.5156,27.0469 264.1094,27.0469 Q265.0469,27.0469 265.7031,26.7969 Q266.0938,26.6406 266.5156,26.2031 Q266.7813,25.9375 266.9219,25.8594 Q267.0781,25.7813 267.2813,25.7813 Q267.6094,25.7813 267.8594,26.0469 Q268.125,26.2969 268.125,26.6406 Q268.125,26.9844 267.7813,27.3906 Q267.2813,27.9688 266.4844,28.2969 Q265.4063,28.75 264.1094,28.75 Q262.5938,28.75 261.3906,28.125 Q260.4063,27.625 259.7188,26.5625 Q259.0313,25.4844 259.0313,24.2031 L259.0313,23.0469 Q259.0313,21.7188 259.6406,20.5781 Q260.2656,19.4219 261.3594,18.8125 Q262.4531,18.1875 263.6875,18.1875 Q264.4219,18.1875 265.0625,18.3594 Q265.7188,18.5156 266.2656,18.875 Z " fill="#000000"/><text fill="#000000" font-family="sans-serif" font-size="14" lengthAdjust="spacing" textLength="135" x="277.5" y="28.7969">RegeisterEmployeeUI</text><line style="stroke:#181818;stroke-width:0.5;" x1="249.5" x2="414.5" y1="39" y2="39"/><rect fill="none" height="6" style="stroke:#C82930;stroke-width:1.0;" width="6" x="256.5" y="50.8105"/><text fill="#000000" font-family="sans-serif" font-size="14" lengthAdjust="spacing" textLength="59" x="268.5" y="58.1074">controller</text><line style="stroke:#181818;stroke-width:0.5;" x1="249.5" x2="414.5" y1="65.6211" y2="65.6211"/></g><!--class RegeisterEmployeeController--><g id="elem_RegeisterEmployeeController"><rect codeLine="23" fill="#F1F1F1" height="122.4844" id="RegeisterEmployeeController" rx="2.5" ry="2.5" style="stroke:#181818;stroke-width:0.5;" width="217" x="223.5" y="134"/><ellipse cx="238.5" cy="150" fill="#ADD1B2" rx="11" ry="11" style="stroke:#181818;stroke-width:1.0;"/><path d="M241.2656,145.875 Q241.4219,145.6563 241.6094,145.5469 Q241.7969,145.4375 242.0156,145.4375 Q242.3906,145.4375 242.625,145.7031 Q242.8594,145.9531 242.8594,146.5625 L242.8594,148.0156 Q242.8594,148.625 242.625,148.8906 Q242.3906,149.1563 242.0156,149.1563 Q241.6719,149.1563 241.4688,148.9531 Q241.2656,148.7656 241.1563,148.25 Q241.1094,147.8906 240.9219,147.7031 Q240.5938,147.3281 239.9844,147.1094 Q239.375,146.8906 238.75,146.8906 Q237.9844,146.8906 237.3438,147.2188 Q236.7188,147.5469 236.2188,148.2969 Q235.7344,149.0469 235.7344,150.0781 L235.7344,151.1719 Q235.7344,152.4063 236.625,153.2344 Q237.5156,154.0469 239.1094,154.0469 Q240.0469,154.0469 240.7031,153.7969 Q241.0938,153.6406 241.5156,153.2031 Q241.7813,152.9375 241.9219,152.8594 Q242.0781,152.7813 242.2813,152.7813 Q242.6094,152.7813 242.8594,153.0469 Q243.125,153.2969 243.125,153.6406 Q243.125,153.9844 242.7813,154.3906 Q242.2813,154.9688 241.4844,155.2969 Q240.4063,155.75 239.1094,155.75 Q237.5938,155.75 236.3906,155.125 Q235.4063,154.625 234.7188,153.5625 Q234.0313,152.4844 234.0313,151.2031 L234.0313,150.0469 Q234.0313,148.7188 234.6406,147.5781 Q235.2656,146.4219 236.3594,145.8125 Q237.4531,145.1875 238.6875,145.1875 Q239.4219,145.1875 240.0625,145.3594 Q240.7188,145.5156 241.2656,145.875 Z " fill="#000000"/><text fill="#000000" font-family="sans-serif" font-size="14" lengthAdjust="spacing" textLength="185" x="252.5" y="155.7969">RegeisterEmployeeController</text><line style="stroke:#181818;stroke-width:0.5;" x1="224.5" x2="439.5" y1="166" y2="166"/><rect fill="none" height="6" style="stroke:#C82930;stroke-width:1.0;" width="6" x="231.5" y="177.8105"/><text fill="#000000" font-family="sans-serif" font-size="14" lengthAdjust="spacing" textLength="129" x="243.5" y="185.1074">employeeRepository</text><line style="stroke:#181818;stroke-width:0.5;" x1="224.5" x2="439.5" y1="192.6211" y2="192.6211"/><ellipse cx="234.5" cy="207.4316" fill="#84BE84" rx="3" ry="3" style="stroke:#038048;stroke-width:1.0;"/><text fill="#000000" font-family="sans-serif" font-size="14" lengthAdjust="spacing" textLength="104" x="243.5" y="211.7285">getRolesAsList()</text><ellipse cx="234.5" cy="226.0527" fill="#84BE84" rx="3" ry="3" style="stroke:#038048;stroke-width:1.0;"/><text fill="#000000" font-family="sans-serif" font-size="14" lengthAdjust="spacing" textLength="77" x="243.5" y="230.3496">getAgency()</text><ellipse cx="234.5" cy="244.6738" fill="#84BE84" rx="3" ry="3" style="stroke:#038048;stroke-width:1.0;"/><text fill="#000000" font-family="sans-serif" font-size="14" lengthAdjust="spacing" textLength="112" x="243.5" y="248.9707">createEmployee()</text></g><!--class EmployeeRepository--><g id="elem_EmployeeRepository"><rect codeLine="31" fill="#F1F1F1" height="178.3477" id="EmployeeRepository" rx="2.5" ry="2.5" style="stroke:#181818;stroke-width:0.5;" width="208" x="7" y="573"/><ellipse cx="42.7" cy="589" fill="#ADD1B2" rx="11" ry="11" style="stroke:#181818;stroke-width:1.0;"/><path d="M45.4656,584.875 Q45.6219,584.6563 45.8094,584.5469 Q45.9969,584.4375 46.2156,584.4375 Q46.5906,584.4375 46.825,584.7031 Q47.0594,584.9531 47.0594,585.5625 L47.0594,587.0156 Q47.0594,587.625 46.825,587.8906 Q46.5906,588.1563 46.2156,588.1563 Q45.8719,588.1563 45.6688,587.9531 Q45.4656,587.7656 45.3563,587.25 Q45.3094,586.8906 45.1219,586.7031 Q44.7938,586.3281 44.1844,586.1094 Q43.575,585.8906 42.95,585.8906 Q42.1844,585.8906 41.5438,586.2188 Q40.9188,586.5469 40.4188,587.2969 Q39.9344,588.0469 39.9344,589.0781 L39.9344,590.1719 Q39.9344,591.4063 40.825,592.2344 Q41.7156,593.0469 43.3094,593.0469 Q44.2469,593.0469 44.9031,592.7969 Q45.2938,592.6406 45.7156,592.2031 Q45.9813,591.9375 46.1219,591.8594 Q46.2781,591.7813 46.4813,591.7813 Q46.8094,591.7813 47.0594,592.0469 Q47.325,592.2969 47.325,592.6406 Q47.325,592.9844 46.9813,593.3906 Q46.4813,593.9688 45.6844,594.2969 Q44.6063,594.75 43.3094,594.75 Q41.7938,594.75 40.5906,594.125 Q39.6063,593.625 38.9188,592.5625 Q38.2313,591.4844 38.2313,590.2031 L38.2313,589.0469 Q38.2313,587.7188 38.8406,586.5781 Q39.4656,585.4219 40.5594,584.8125 Q41.6531,584.1875 42.8875,584.1875 Q43.6219,584.1875 44.2625,584.3594 Q44.9188,584.5156 45.4656,584.875 Z " fill="#000000"/><text fill="#000000" font-family="sans-serif" font-size="14" lengthAdjust="spacing" textLength="130" x="61.3" y="594.7969">EmployeeRepository</text><line style="stroke:#181818;stroke-width:0.5;" x1="8" x2="214" y1="605" y2="605"/><ellipse cx="18" cy="619.8105" fill="none" rx="3" ry="3" style="stroke:#038048;stroke-width:1.0;"/><text fill="#000000" font-family="sans-serif" font-size="14" lengthAdjust="spacing" textLength="83" x="27" y="624.1074">employeeList</text><line style="stroke:#181818;stroke-width:0.5;" x1="8" x2="214" y1="631.6211" y2="631.6211"/><ellipse cx="18" cy="646.4316" fill="#84BE84" rx="3" ry="3" style="stroke:#038048;stroke-width:1.0;"/><text fill="#000000" font-family="sans-serif" font-size="14" lengthAdjust="spacing" textLength="157" x="27" y="650.7285">addEmployee(employee)</text><ellipse cx="18" cy="665.0527" fill="#84BE84" rx="3" ry="3" style="stroke:#038048;stroke-width:1.0;"/><text fill="#000000" font-family="sans-serif" font-size="14" lengthAdjust="spacing" textLength="182" x="27" y="669.3496">validateEmployee(employee)</text><ellipse cx="18" cy="683.6738" fill="#84BE84" rx="3" ry="3" style="stroke:#038048;stroke-width:1.0;"/><text fill="#000000" font-family="sans-serif" font-size="14" lengthAdjust="spacing" textLength="114" x="27" y="687.9707">getEmployeeList()</text><ellipse cx="18" cy="702.2949" fill="#84BE84" rx="3" ry="3" style="stroke:#038048;stroke-width:1.0;"/><text fill="#000000" font-family="sans-serif" font-size="14" lengthAdjust="spacing" textLength="166" x="27" y="706.5918">getEmployee(employeeID)</text><ellipse cx="18" cy="720.916" fill="#84BE84" rx="3" ry="3" style="stroke:#038048;stroke-width:1.0;"/><text fill="#000000" font-family="sans-serif" font-size="14" lengthAdjust="spacing" textLength="167" x="27" y="725.2129">getEmployeeListAsString()</text><ellipse cx="18" cy="739.5371" fill="#84BE84" rx="3" ry="3" style="stroke:#038048;stroke-width:1.0;"/><text fill="#000000" font-family="sans-serif" font-size="14" lengthAdjust="spacing" textLength="104" x="27" y="743.834">showEmployee()</text></g><!--class Role--><g id="elem_Role"><rect codeLine="42" fill="#F1F1F1" height="159.7266" id="Role" rx="2.5" ry="2.5" style="stroke:#181818;stroke-width:0.5;" width="163" x="250.5" y="582"/><ellipse cx="313.25" cy="598" fill="#EB937F" rx="11" ry="11" style="stroke:#181818;stroke-width:1.0;"/><path d="M312.1094,598.7969 L312.1094,601.2969 L316.4375,601.2969 L316.4375,600.375 Q316.4375,599.7656 316.6719,599.5 Q316.9219,599.2344 317.2969,599.2344 Q317.6719,599.2344 317.9063,599.5 Q318.1406,599.7656 318.1406,600.375 L318.1406,603 L310.1406,603 Q309.5156,603 309.25,602.7656 Q309,602.5313 309,602.1406 Q309,601.7656 309.2656,601.5313 Q309.5313,601.2969 310.1406,601.2969 L310.4063,601.2969 L310.4063,594.6406 L310.1406,594.6406 Q309.5156,594.6406 309.25,594.4063 Q309,594.1719 309,593.7813 Q309,593.4063 309.25,593.1719 Q309.5156,592.9375 310.1406,592.9375 L317.7656,592.9375 L317.7656,595.5313 Q317.7656,596.1406 317.5313,596.4063 Q317.3125,596.6563 316.9219,596.6563 Q316.5469,596.6563 316.3125,596.4063 Q316.0781,596.1406 316.0781,595.5313 L316.0781,594.6406 L312.1094,594.6406 L312.1094,597.0938 L313.5938,597.0938 Q313.5938,596.4375 313.7188,596.25 Q313.9844,595.8438 314.4531,595.8438 Q314.8281,595.8438 315.0625,596.1094 Q315.2969,596.3594 315.2969,596.9688 L315.2969,598.9375 Q315.2969,599.4844 315.1719,599.6719 Q314.9063,600.0625 314.4531,600.0625 Q313.9844,600.0625 313.7188,599.6563 Q313.5938,599.4688 313.5938,598.7969 L312.1094,598.7969 Z " fill="#000000"/><text fill="#000000" font-family="sans-serif" font-size="14" lengthAdjust="spacing" textLength="29" x="333.75" y="603.7969">Role</text><line style="stroke:#181818;stroke-width:0.5;" x1="251.5" x2="412.5" y1="614" y2="614"/><text fill="#000000" font-family="sans-serif" font-size="14" lengthAdjust="spacing" textLength="112" x="256.5" y="633.1074">ADMINISTRATOR</text><text fill="#000000" font-family="sans-serif" font-size="14" lengthAdjust="spacing" textLength="68" x="256.5" y="651.7285">MANAGER</text><text fill="#000000" font-family="sans-serif" font-size="14" lengthAdjust="spacing" textLength="47" x="256.5" y="670.3496">AGENT</text><line style="stroke:#181818;stroke-width:0.5;" x1="251.5" x2="412.5" y1="677.8633" y2="677.8633"/><ellipse cx="261.5" cy="692.6738" fill="#84BE84" rx="3" ry="3" style="stroke:#038048;stroke-width:1.0;"/><text fill="#000000" font-family="sans-serif" font-size="14" lengthAdjust="spacing" textLength="62" x="270.5" y="696.9707">asString()</text><ellipse cx="261.5" cy="711.2949" fill="#84BE84" rx="3" ry="3" style="stroke:#038048;stroke-width:1.0;"/><text fill="#000000" font-family="sans-serif" font-size="14" lengthAdjust="spacing" textLength="104" x="270.5" y="715.5918">getRolesAsList()</text><ellipse cx="261.5" cy="729.916" fill="#84BE84" rx="3" ry="3" style="stroke:#038048;stroke-width:1.0;"/><text fill="#000000" font-family="sans-serif" font-size="14" lengthAdjust="spacing" textLength="137" x="270.5" y="734.2129">getRoleByID(position)</text></g><!--class Agency--><g id="elem_Agency"><rect codeLine="52" fill="#F1F1F1" height="159.7266" id="Agency" rx="2.5" ry="2.5" style="stroke:#181818;stroke-width:0.5;" width="162" x="449" y="582"/><ellipse cx="502.25" cy="598" fill="#EB937F" rx="11" ry="11" style="stroke:#181818;stroke-width:1.0;"/><path d="M501.1094,598.7969 L501.1094,601.2969 L505.4375,601.2969 L505.4375,600.375 Q505.4375,599.7656 505.6719,599.5 Q505.9219,599.2344 506.2969,599.2344 Q506.6719,599.2344 506.9063,599.5 Q507.1406,599.7656 507.1406,600.375 L507.1406,603 L499.1406,603 Q498.5156,603 498.25,602.7656 Q498,602.5313 498,602.1406 Q498,601.7656 498.2656,601.5313 Q498.5313,601.2969 499.1406,601.2969 L499.4063,601.2969 L499.4063,594.6406 L499.1406,594.6406 Q498.5156,594.6406 498.25,594.4063 Q498,594.1719 498,593.7813 Q498,593.4063 498.25,593.1719 Q498.5156,592.9375 499.1406,592.9375 L506.7656,592.9375 L506.7656,595.5313 Q506.7656,596.1406 506.5313,596.4063 Q506.3125,596.6563 505.9219,596.6563 Q505.5469,596.6563 505.3125,596.4063 Q505.0781,596.1406 505.0781,595.5313 L505.0781,594.6406 L501.1094,594.6406 L501.1094,597.0938 L502.5938,597.0938 Q502.5938,596.4375 502.7188,596.25 Q502.9844,595.8438 503.4531,595.8438 Q503.8281,595.8438 504.0625,596.1094 Q504.2969,596.3594 504.2969,596.9688 L504.2969,598.9375 Q504.2969,599.4844 504.1719,599.6719 Q503.9063,600.0625 503.4531,600.0625 Q502.9844,600.0625 502.7188,599.6563 Q502.5938,599.4688 502.5938,598.7969 L501.1094,598.7969 Z " fill="#000000"/><text fill="#000000" font-family="sans-serif" font-size="14" lengthAdjust="spacing" textLength="47" x="522.75" y="603.7969">Agency</text><line style="stroke:#181818;stroke-width:0.5;" x1="450" x2="610" y1="614" y2="614"/><text fill="#000000" font-family="sans-serif" font-size="14" lengthAdjust="spacing" textLength="65" x="455" y="633.1074">AGENCY1</text><text fill="#000000" font-family="sans-serif" font-size="14" lengthAdjust="spacing" textLength="65" x="455" y="651.7285">AGENCY2</text><text fill="#000000" font-family="sans-serif" font-size="14" lengthAdjust="spacing" textLength="65" x="455" y="670.3496">AGENCY3</text><line style="stroke:#181818;stroke-width:0.5;" x1="450" x2="610" y1="677.8633" y2="677.8633"/><ellipse cx="460" cy="692.6738" fill="#84BE84" rx="3" ry="3" style="stroke:#038048;stroke-width:1.0;"/><text fill="#000000" font-family="sans-serif" font-size="14" lengthAdjust="spacing" textLength="62" x="469" y="696.9707">asString()</text><ellipse cx="460" cy="711.2949" fill="#84BE84" rx="3" ry="3" style="stroke:#038048;stroke-width:1.0;"/><text fill="#000000" font-family="sans-serif" font-size="14" lengthAdjust="spacing" textLength="115" x="469" y="715.5918">getAgencyAsList()</text><ellipse cx="460" cy="729.916" fill="#84BE84" rx="3" ry="3" style="stroke:#038048;stroke-width:1.0;"/><text fill="#000000" font-family="sans-serif" font-size="14" lengthAdjust="spacing" textLength="136" x="469" y="734.2129">getRolebyID(position)</text></g><!--class Runnable--><g id="elem_Runnable"><rect codeLine="62" fill="#F1F1F1" height="66.6211" id="Runnable" rx="2.5" ry="2.5" style="stroke:#181818;stroke-width:0.5;" width="93" x="450.5" y="7"/><ellipse cx="465.5" cy="23" fill="#B4A7E5" rx="11" ry="11" style="stroke:#181818;stroke-width:1.0;"/><path d="M466.4531,19.6406 L466.4531,26.2969 L468.1719,26.2969 Q468.7813,26.2969 469.0469,26.5313 Q469.3125,26.7656 469.3125,27.1563 Q469.3125,27.5313 469.0469,27.7656 Q468.7813,28 468.1719,28 L463.0313,28 Q462.4219,28 462.1563,27.7656 Q461.8906,27.5313 461.8906,27.1406 Q461.8906,26.7656 462.1563,26.5313 Q462.4219,26.2969 463.0313,26.2969 L464.75,26.2969 L464.75,19.6406 L463.0313,19.6406 Q462.4219,19.6406 462.1563,19.4063 Q461.8906,19.1719 461.8906,18.7813 Q461.8906,18.4063 462.1563,18.1719 Q462.4219,17.9375 463.0313,17.9375 L468.1719,17.9375 Q468.7813,17.9375 469.0469,18.1719 Q469.3125,18.4063 469.3125,18.7813 Q469.3125,19.1719 469.0469,19.4063 Q468.7813,19.6406 468.1719,19.6406 L466.4531,19.6406 Z " fill="#000000"/><text fill="#000000" font-family="sans-serif" font-size="14" font-style="italic" lengthAdjust="spacing" textLength="61" x="479.5" y="28.7969">Runnable</text><line style="stroke:#181818;stroke-width:0.5;" x1="451.5" x2="542.5" y1="39" y2="39"/><line style="stroke:#181818;stroke-width:0.5;" x1="451.5" x2="542.5" y1="47" y2="47"/><ellipse cx="461.5" cy="61.8105" fill="#84BE84" rx="3" ry="3" style="stroke:#038048;stroke-width:1.0;"/><text fill="#000000" font-family="sans-serif" font-size="14" lengthAdjust="spacing" textLength="31" x="470.5" y="66.1074">run()</text></g><!--reverse link RegeisterEmployeeUI to Runnable--><g id="link_RegeisterEmployeeUI_Runnable"><path codeLine="66" d="M436.05,40.5 C440.82,40.5 445.59,40.5 450.37,40.5 " fill="none" id="RegeisterEmployeeUI-backto-Runnable" style="stroke:#181818;stroke-width:1.0;"/><polygon fill="none" points="435.79,47.5,415.79,40.5,435.79,33.5,435.79,47.5" style="stroke:#181818;stroke-width:1.0;"/></g><!--link RegeisterEmployeeUI to RegeisterEmployeeController--><g id="link_RegeisterEmployeeUI_RegeisterEmployeeController"><path codeLine="67" d="M332,74.22 C332,90.13 332,109.86 332,128.68 " fill="none" id="RegeisterEmployeeUI-to-RegeisterEmployeeController" style="stroke:#181818;stroke-width:1.0;stroke-dasharray:7.0,7.0;"/><polygon fill="#181818" points="332,133.96,336,124.96,332,128.96,328,124.96,332,133.96" style="stroke:#181818;stroke-width:1.0;"/></g><!--link RegeisterEmployeeController to Employee--><g id="link_RegeisterEmployeeController_Employee"><path codeLine="68" d="M332,256.01 C332,272.9 332,291.78 332,310.43 " fill="none" id="RegeisterEmployeeController-to-Employee" style="stroke:#181818;stroke-width:1.0;stroke-dasharray:7.0,7.0;"/><polygon fill="#181818" points="332,315.68,336,306.68,332,310.68,328,306.68,332,315.68" style="stroke:#181818;stroke-width:1.0;"/></g><!--link Employee to Role--><g id="link_Employee_Role"><path codeLine="69" d="M332,513.23 C332,531.53 332,550.59 332,568.71 " fill="none" id="Employee-to-Role" style="stroke:#181818;stroke-width:1.0;"/><polygon fill="#181818" points="332,581.71,336,575.71,332,569.71,328,575.71,332,581.71" style="stroke:#181818;stroke-width:1.0;"/></g><!--link Employee to Agency--><g id="link_Employee_Agency"><path codeLine="70" d="M410.82,513.23 C426.29,532.41 442.45,552.44 457.69,571.34 " fill="none" id="Employee-to-Agency" style="stroke:#181818;stroke-width:1.0;"/><polygon fill="#181818" points="466.05,581.71,465.4019,574.5281,458.5232,572.3641,459.1713,579.546,466.05,581.71" style="stroke:#181818;stroke-width:1.0;"/></g><!--link Employee to EmployeeRepository--><g id="link_Employee_EmployeeRepository"><path codeLine="71" d="M249.71,506.92 C231.45,527.19 212.1,548.69 193.82,568.99 " fill="none" id="Employee-to-EmployeeRepository" style="stroke:#181818;stroke-width:1.0;"/><polygon fill="#181818" points="190.43,572.77,199.4239,568.7562,193.7748,569.0535,193.4775,563.4045,190.43,572.77" style="stroke:#181818;stroke-width:1.0;"/></g><!--SRC=[VLFBReCm4BpxAtnCMn6fxJqIJL25r529f8SU7TWGIyQERDEMFlwznc074W87M6RPcPtraZ6Y58xA8nCr0Fv129ihm1ijAIym9oLq2EKQPrJJR-1B8lEaAdSWUpbDlWPOnq3oN89IGn1AGbauo5WAO70y20u3ebGmmDBSklUm09xLcDW7GkWFeSowIA40gZH8P-SjFXdA1DU6X1dQgPAb_-nK2bqkXQDGL0jPsyGTBa0tpQbGlHYIsSq9RdlqI2Q1Q70Q1lODH1VSJlVEwpRa7MIcwLbSseby44Rplipv1wQlg4Sv6y5zJRowKXMgzWnzjJg8pw6pY5TbUsgTbN2rZfDuiqt3xMjgaNMOXCzH6viWsJf_v-pNHzp0JtMycjd1KS5Fsjs6E7N3lto_xyKFlVXnGhdb6PVUNKZ7tEpHdcI0qufpihF-snfPyNOqFXCmsElWTp6sj6XiaUVpnTIsegbDRceTZFo_7WItzfI6IEkvZor6bXIXVm00]--></g></svg>