<?xml version="1.0" encoding="us-ascii" standalone="no"?><svg xmlns="http://www.w3.org/2000/svg" xmlns:xlink="http://www.w3.org/1999/xlink" contentStyleType="text/css" height="472px" preserveAspectRatio="none" style="width:432px;height:472px;background:#FFFFFF;" version="1.1" viewBox="0 0 432 472" width="432px" zoomAndPan="magnify"><defs/><g><text fill="#000000" font-family="sans-serif" font-size="14" font-weight="bold" lengthAdjust="spacing" textLength="228" x="103.75" y="29.5332">System Sequence Diagram (SSD)</text><rect fill="#FFFFFF" height="249.8125" style="stroke:#181818;stroke-width:1.0;" width="10" x="106.5" y="131.2188"/><rect fill="#FFFFFF" height="30.3516" style="stroke:#181818;stroke-width:1.0;" width="10" x="359.5" y="153.5703"/><rect fill="#FFFFFF" height="30.3516" style="stroke:#181818;stroke-width:1.0;" width="10" x="359.5" y="320.6797"/><rect fill="none" height="174.1094" style="stroke:#000000;stroke-width:1.5;" width="416.5" x="10" y="198.9219"/><rect fill="none" height="141.7578" style="stroke:#000000;stroke-width:1.5;" width="396.5" x="20" y="224.2734"/><rect fill="none" height="79.0547" style="stroke:#000000;stroke-width:1.5;" width="376.5" x="30" y="279.9766"/><line style="stroke:#181818;stroke-width:0.5;stroke-dasharray:5.0,5.0;" x1="111" x2="111" y1="121.2188" y2="390.0313"/><line style="stroke:#181818;stroke-width:0.5;stroke-dasharray:5.0,5.0;" x1="364.5" x2="364.5" y1="121.2188" y2="390.0313"/><text fill="#000000" font-family="sans-serif" font-size="14" lengthAdjust="spacing" textLength="137" x="40" y="118.1426">Network Administrator</text><ellipse cx="111.5" cy="52.1094" fill="#E3E3E3" rx="8" ry="8" style="stroke:#181818;stroke-width:0.5;"/><path d="M111.5,60.1094 L111.5,87.1094 M98.5,68.1094 L124.5,68.1094 M111.5,87.1094 L98.5,102.1094 M111.5,87.1094 L124.5,102.1094 " fill="none" style="stroke:#181818;stroke-width:0.5;"/><text fill="#000000" font-family="sans-serif" font-size="14" lengthAdjust="spacing" textLength="137" x="40" y="403.5645">Network Administrator</text><ellipse cx="111.5" cy="415.1406" fill="#E3E3E3" rx="8" ry="8" style="stroke:#181818;stroke-width:0.5;"/><path d="M111.5,423.1406 L111.5,450.1406 M98.5,431.1406 L124.5,431.1406 M111.5,450.1406 L98.5,465.1406 M111.5,450.1406 L124.5,465.1406 " fill="none" style="stroke:#181818;stroke-width:0.5;"/><rect fill="#E3E3E3" height="31.6094" rx="2.5" ry="2.5" style="stroke:#181818;stroke-width:0.5;" width="64" x="332.5" y="88.6094"/><text fill="#000000" font-family="sans-serif" font-size="14" lengthAdjust="spacing" textLength="50" x="339.5" y="110.1426">:System</text><rect fill="#E3E3E3" height="31.6094" rx="2.5" ry="2.5" style="stroke:#181818;stroke-width:0.5;" width="64" x="332.5" y="389.0313"/><text fill="#000000" font-family="sans-serif" font-size="14" lengthAdjust="spacing" textLength="50" x="339.5" y="410.5645">:System</text><rect fill="#FFFFFF" height="249.8125" style="stroke:#181818;stroke-width:1.0;" width="10" x="106.5" y="131.2188"/><rect fill="#FFFFFF" height="30.3516" style="stroke:#181818;stroke-width:1.0;" width="10" x="359.5" y="153.5703"/><rect fill="#FFFFFF" height="30.3516" style="stroke:#181818;stroke-width:1.0;" width="10" x="359.5" y="320.6797"/><polygon fill="#181818" points="347.5,149.5703,357.5,153.5703,347.5,157.5703,351.5,153.5703" style="stroke:#181818;stroke-width:1.0;"/><line style="stroke:#181818;stroke-width:1.0;" x1="116.5" x2="353.5" y1="153.5703" y2="153.5703"/><text fill="#000000" font-family="sans-serif" font-size="13" font-weight="bold" lengthAdjust="spacing" textLength="7" x="123.5" y="148.7139">1</text><text fill="#000000" font-family="sans-serif" font-size="13" lengthAdjust="spacing" textLength="152" x="134.5" y="148.7139">asks to list all deals made</text><polygon fill="#181818" points="127.5,179.9219,117.5,183.9219,127.5,187.9219,123.5,183.9219" style="stroke:#181818;stroke-width:1.0;"/><line style="stroke:#181818;stroke-width:1.0;stroke-dasharray:2.0,2.0;" x1="121.5" x2="363.5" y1="183.9219" y2="183.9219"/><text fill="#000000" font-family="sans-serif" font-size="13" font-weight="bold" lengthAdjust="spacing" textLength="7" x="133.5" y="179.0654">2</text><text fill="#000000" font-family="sans-serif" font-size="13" lengthAdjust="spacing" textLength="208" x="144.5" y="179.0654">displays data sorted by most recent</text><path d="M10,198.9219 L75,198.9219 L75,207.2734 L65,217.2734 L10,217.2734 L10,198.9219 " fill="#EEEEEE" style="stroke:#000000;stroke-width:1.5;"/><rect fill="none" height="174.1094" style="stroke:#000000;stroke-width:1.5;" width="416.5" x="10" y="198.9219"/><text fill="#000000" font-family="sans-serif" font-size="13" font-weight="bold" lengthAdjust="spacing" textLength="20" x="25" y="213.417">opt</text><path d="M20,224.2734 L93,224.2734 L93,232.625 L83,242.625 L20,242.625 L20,224.2734 " fill="#EEEEEE" style="stroke:#000000;stroke-width:1.5;"/><rect fill="none" height="141.7578" style="stroke:#000000;stroke-width:1.5;" width="396.5" x="20" y="224.2734"/><text fill="#000000" font-family="sans-serif" font-size="13" font-weight="bold" lengthAdjust="spacing" textLength="28" x="35" y="238.7686">loop</text><polygon fill="#181818" points="352.5,260.9766,362.5,264.9766,352.5,268.9766,356.5,264.9766" style="stroke:#181818;stroke-width:1.0;"/><line style="stroke:#181818;stroke-width:1.0;" x1="116.5" x2="358.5" y1="264.9766" y2="264.9766"/><text fill="#000000" font-family="sans-serif" font-size="13" font-weight="bold" lengthAdjust="spacing" textLength="7" x="123.5" y="260.1201">3</text><text fill="#000000" font-family="sans-serif" font-size="13" lengthAdjust="spacing" textLength="142" x="134.5" y="260.1201">selects sorting algorithm</text><path d="M30,279.9766 L103,279.9766 L103,288.3281 L93,298.3281 L30,298.3281 L30,279.9766 " fill="#EEEEEE" style="stroke:#000000;stroke-width:1.5;"/><rect fill="none" height="79.0547" style="stroke:#000000;stroke-width:1.5;" width="376.5" x="30" y="279.9766"/><text fill="#000000" font-family="sans-serif" font-size="13" font-weight="bold" lengthAdjust="spacing" textLength="28" x="45" y="294.4717">loop</text><polygon fill="#181818" points="347.5,316.6797,357.5,320.6797,347.5,324.6797,351.5,320.6797" style="stroke:#181818;stroke-width:1.0;"/><line style="stroke:#181818;stroke-width:1.0;" x1="116.5" x2="353.5" y1="320.6797" y2="320.6797"/><text fill="#000000" font-family="sans-serif" font-size="13" font-weight="bold" lengthAdjust="spacing" textLength="7" x="123.5" y="315.8232">4</text><text fill="#000000" font-family="sans-serif" font-size="13" lengthAdjust="spacing" textLength="208" x="134.5" y="315.8232">selects ascending/descending order</text><polygon fill="#181818" points="127.5,347.0313,117.5,351.0313,127.5,355.0313,123.5,351.0313" style="stroke:#181818;stroke-width:1.0;"/><line style="stroke:#181818;stroke-width:1.0;stroke-dasharray:2.0,2.0;" x1="121.5" x2="363.5" y1="351.0313" y2="351.0313"/><text fill="#000000" font-family="sans-serif" font-size="13" font-weight="bold" lengthAdjust="spacing" textLength="7" x="133.5" y="346.1748">5</text><text fill="#000000" font-family="sans-serif" font-size="13" lengthAdjust="spacing" textLength="147" x="144.5" y="346.1748">shows sorted list of deals</text><!--SRC=[dP7FJiCm3CRlUGfhby41STy12MbSkVG9lCPheoPnYLsclZrU_u60IOX8bTpM_hxFlqWNSey54oJENBU54u6MWPniVtgiEsoeqZ4I5AeLSnE_DaYBdYyXDt36AEIS1hNMQXIb11Mz3PHhWcF0vjf-LrN7U-TmKCv3Eb6nkbOki7iblN3fuDcda8DeGVky0nHuINtaaSYPeuOwz9WLTeVPOkgOoqaglAFIvuW3E-iRF3ojmGusrWaeGpGlm1Z1aoq02JrDGvlMAWxBMHGUJ6mJFe0FqaSS1JmgWd1Hyd0Q3Qt96pZAEYcOopTXxjL5vlvsLA5ev6LIlPB6s709sgPfPFzxqltDgDBonLOt053Rc6cD2uNiDoop9t2UQUn_vlvRPXHRtLlgHqzh2LoytVm_AC_H5xfJPZxF5tS3hXbkpmS0]--></g></svg>