<?xml version="1.0" encoding="us-ascii" standalone="no"?><svg xmlns="http://www.w3.org/2000/svg" xmlns:xlink="http://www.w3.org/1999/xlink" contentStyleType="text/css" height="416px" preserveAspectRatio="none" style="width:392px;height:416px;background:#FFFFFF;" version="1.1" viewBox="0 0 392 416" width="392px" zoomAndPan="magnify"><defs/><g><text fill="#000000" font-family="sans-serif" font-size="14" font-weight="bold" lengthAdjust="spacing" textLength="228" x="83.75" y="30.1074">System Sequence Diagram (SSD)</text><rect fill="#FFFFFF" height="190.7461" style="stroke:#181818;stroke-width:1.0;" width="10" x="86.5" y="133.2422"/><rect fill="#FFFFFF" height="31.291" style="stroke:#181818;stroke-width:1.0;" width="10" x="339.5" y="156.5332"/><rect fill="#FFFFFF" height="31.291" style="stroke:#181818;stroke-width:1.0;" width="10" x="339.5" y="276.6973"/><rect fill="none" height="113.1641" style="stroke:#000000;stroke-width:1.5;" width="376.5" x="10" y="202.8242"/><line style="stroke:#181818;stroke-width:0.5;stroke-dasharray:5.0,5.0;" x1="91" x2="91" y1="123.2422" y2="332.9883"/><line style="stroke:#181818;stroke-width:0.5;stroke-dasharray:5.0,5.0;" x1="344.5" x2="344.5" y1="123.2422" y2="332.9883"/><text fill="#000000" font-family="sans-serif" font-size="14" lengthAdjust="spacing" textLength="137" x="20" y="119.7285">Network Administrator</text><ellipse cx="91.5" cy="53.1211" fill="#E3E3E3" rx="8" ry="8" style="stroke:#181818;stroke-width:0.5;"/><path d="M91.5,61.1211 L91.5,88.1211 M78.5,69.1211 L104.5,69.1211 M91.5,88.1211 L78.5,103.1211 M91.5,88.1211 L104.5,103.1211 " fill="none" style="stroke:#181818;stroke-width:0.5;"/><text fill="#000000" font-family="sans-serif" font-size="14" lengthAdjust="spacing" textLength="137" x="20" y="347.0957">Network Administrator</text><ellipse cx="91.5" cy="359.1094" fill="#E3E3E3" rx="8" ry="8" style="stroke:#181818;stroke-width:0.5;"/><path d="M91.5,367.1094 L91.5,394.1094 M78.5,375.1094 L104.5,375.1094 M91.5,394.1094 L78.5,409.1094 M91.5,394.1094 L104.5,409.1094 " fill="none" style="stroke:#181818;stroke-width:0.5;"/><rect fill="#E3E3E3" height="32.6211" rx="2.5" ry="2.5" style="stroke:#181818;stroke-width:0.5;" width="64" x="312.5" y="89.6211"/><text fill="#000000" font-family="sans-serif" font-size="14" lengthAdjust="spacing" textLength="50" x="319.5" y="111.7285">:System</text><rect fill="#E3E3E3" height="32.6211" rx="2.5" ry="2.5" style="stroke:#181818;stroke-width:0.5;" width="64" x="312.5" y="331.9883"/><text fill="#000000" font-family="sans-serif" font-size="14" lengthAdjust="spacing" textLength="50" x="319.5" y="354.0957">:System</text><rect fill="#FFFFFF" height="190.7461" style="stroke:#181818;stroke-width:1.0;" width="10" x="86.5" y="133.2422"/><rect fill="#FFFFFF" height="31.291" style="stroke:#181818;stroke-width:1.0;" width="10" x="339.5" y="156.5332"/><rect fill="#FFFFFF" height="31.291" style="stroke:#181818;stroke-width:1.0;" width="10" x="339.5" y="276.6973"/><polygon fill="#181818" points="327.5,152.5332,337.5,156.5332,327.5,160.5332,331.5,156.5332" style="stroke:#181818;stroke-width:1.0;"/><line style="stroke:#181818;stroke-width:1.0;" x1="96.5" x2="333.5" y1="156.5332" y2="156.5332"/><text fill="#000000" font-family="sans-serif" font-size="13" font-weight="bold" lengthAdjust="spacing" textLength="7" x="103.5" y="151.2705">1</text><text fill="#000000" font-family="sans-serif" font-size="13" lengthAdjust="spacing" textLength="152" x="114.5" y="151.2705">asks to list all deals made</text><polygon fill="#181818" points="107.5,183.8242,97.5,187.8242,107.5,191.8242,103.5,187.8242" style="stroke:#181818;stroke-width:1.0;"/><line style="stroke:#181818;stroke-width:1.0;stroke-dasharray:2.0,2.0;" x1="101.5" x2="343.5" y1="187.8242" y2="187.8242"/><text fill="#000000" font-family="sans-serif" font-size="13" font-weight="bold" lengthAdjust="spacing" textLength="7" x="113.5" y="182.5615">2</text><text fill="#000000" font-family="sans-serif" font-size="13" lengthAdjust="spacing" textLength="208" x="124.5" y="182.5615">displays data sorted by most recent</text><path d="M10,202.8242 L75,202.8242 L75,212.1152 L65,222.1152 L10,222.1152 L10,202.8242 " fill="#EEEEEE" style="stroke:#000000;stroke-width:1.5;"/><rect fill="none" height="113.1641" style="stroke:#000000;stroke-width:1.5;" width="376.5" x="10" y="202.8242"/><text fill="#000000" font-family="sans-serif" font-size="13" font-weight="bold" lengthAdjust="spacing" textLength="20" x="25" y="217.8525">opt</text><polygon fill="#181818" points="332.5,241.4063,342.5,245.4063,332.5,249.4063,336.5,245.4063" style="stroke:#181818;stroke-width:1.0;"/><line style="stroke:#181818;stroke-width:1.0;" x1="96.5" x2="338.5" y1="245.4063" y2="245.4063"/><text fill="#000000" font-family="sans-serif" font-size="13" font-weight="bold" lengthAdjust="spacing" textLength="7" x="103.5" y="240.1436">3</text><text fill="#000000" font-family="sans-serif" font-size="13" lengthAdjust="spacing" textLength="142" x="114.5" y="240.1436">selects sorting algorithm</text><polygon fill="#181818" points="327.5,272.6973,337.5,276.6973,327.5,280.6973,331.5,276.6973" style="stroke:#181818;stroke-width:1.0;"/><line style="stroke:#181818;stroke-width:1.0;" x1="96.5" x2="333.5" y1="276.6973" y2="276.6973"/><text fill="#000000" font-family="sans-serif" font-size="13" font-weight="bold" lengthAdjust="spacing" textLength="7" x="103.5" y="271.4346">4</text><text fill="#000000" font-family="sans-serif" font-size="13" lengthAdjust="spacing" textLength="208" x="114.5" y="271.4346">selects ascending/descending order</text><polygon fill="#181818" points="107.5,303.9883,97.5,307.9883,107.5,311.9883,103.5,307.9883" style="stroke:#181818;stroke-width:1.0;"/><line style="stroke:#181818;stroke-width:1.0;stroke-dasharray:2.0,2.0;" x1="101.5" x2="343.5" y1="307.9883" y2="307.9883"/><text fill="#000000" font-family="sans-serif" font-size="13" font-weight="bold" lengthAdjust="spacing" textLength="7" x="113.5" y="302.7256">5</text><text fill="#000000" font-family="sans-serif" font-size="13" lengthAdjust="spacing" textLength="147" x="124.5" y="302.7256">shows sorted list of deals</text><!--SRC=[dP7FJiCm3CRlUGfhby5Xuhu34jAuSkaJU8tNHalY4hjCVNky_WC10ucStDJ-VP-_o3da3WicI9ovRWid0YqzELd_T5YViQ5AXqXGg5RCJVpS82rwleJSm0cZa7CQr5ghGPGILFJQKwu93W6RQ_jTLHtkdSDUEVVfICNgMhd0veNqmkKCJpw574GBslK6KE0vTP478cUA6khGOLROx2U9iMCgHrHuGwMF4GTsbY_OFIx6zZPs5b26Q5g0CO8dMm0IUXg7LjO2X_dCX9t1Ll0UV90kuY3WKH64YvA7us3H6jw2ewmZmLI-WBdJNsmAHKjTHk8rPOmDbw1j6aUsFxhStdGfBLziQziTQfior307aFsQo2G9dASWjjyj_sqNnJRsPlZ1qr825syF_ezm9zjpgADVFatlTIDJvqpIlGC0]--></g></svg>