<?xml version="1.0" encoding="UTF-8" standalone="no"?><svg xmlns="http://www.w3.org/2000/svg" xmlns:xlink="http://www.w3.org/1999/xlink" contentStyleType="text/css" height="690px" preserveAspectRatio="none" style="width:714px;height:690px;background:#FFFFFF;" version="1.1" viewBox="0 0 714 690" width="714px" zoomAndPan="magnify"><defs/><g><!--MD5=[53ae8b34bebe44116eb8626f99f3fe78]
class Runnable--><g id="elem_Runnable"><rect codeLine="2" fill="#F1F1F1" height="67.0791" id="Runnable" rx="2.5" ry="2.5" style="stroke:#181818;stroke-width:0.5;" width="93" x="306.5" y="7"/><ellipse cx="321.5" cy="23" fill="#B4A7E5" rx="11" ry="11" style="stroke:#181818;stroke-width:1.0;"/><path d="M322.1875,29.5 L320.5,29.5 L320.5,16.8125 L322.1875,16.8125 L322.1875,29.5 Z " fill="#000000"/><text fill="#000000" font-family="sans-serif" font-size="14" font-style="italic" lengthAdjust="spacing" textLength="61" x="335.5" y="29.1558">Runnable</text><line style="stroke:#181818;stroke-width:0.5;" x1="307.5" x2="398.5" y1="39" y2="39"/><line style="stroke:#181818;stroke-width:0.5;" x1="307.5" x2="398.5" y1="47" y2="47"/><ellipse cx="317.5" cy="58" fill="#84BE84" rx="3" ry="3" style="stroke:#038048;stroke-width:1.0;"/><text fill="#000000" font-family="sans-serif" font-size="14" lengthAdjust="spacing" textLength="31" x="326.5" y="66.6953">run()</text></g><!--MD5=[131d08b96a4cacba901d7a5543c735f9]
class AppointmentRequestUI--><g id="elem_AppointmentRequestUI"><rect codeLine="7" fill="#F1F1F1" height="67.0791" id="AppointmentRequestUI" rx="2.5" ry="2.5" style="stroke:#181818;stroke-width:0.5;" width="176" x="95" y="7"/><ellipse cx="110" cy="23" fill="#ADD1B2" rx="11" ry="11" style="stroke:#181818;stroke-width:1.0;"/><path d="M113.4375,28.0781 Q111.8594,29.25 109.7656,29.25 Q107.0625,29.25 105.4063,27.5313 Q103.75,25.8125 103.75,23.125 Q103.75,20.2813 105.5625,18.4219 Q107.3906,16.5625 110.25,16.5625 Q112.0938,16.5625 113.4375,17.75 L113.4375,19.5781 Q111.625,18.25 110.0781,18.25 Q107.9531,18.25 106.6875,19.5938 Q105.4375,20.9375 105.4375,23.0469 Q105.4375,25.0781 106.6094,26.3281 Q107.7813,27.5625 109.7656,27.5625 Q111.5781,27.5625 113.4375,26.2344 L113.4375,28.0781 Z " fill="#000000"/><text fill="#000000" font-family="sans-serif" font-size="14" lengthAdjust="spacing" textLength="144" x="124" y="29.1558">AppointmentRequestUI</text><line style="stroke:#181818;stroke-width:0.5;" x1="96" x2="270" y1="39" y2="39"/><rect fill="none" height="6" style="stroke:#C82930;stroke-width:1.0;" width="6" x="103" y="47"/><text fill="#000000" font-family="sans-serif" font-size="14" lengthAdjust="spacing" textLength="59" x="115" y="58.6953">controller</text><line style="stroke:#181818;stroke-width:0.5;" x1="96" x2="270" y1="66.0791" y2="66.0791"/></g><!--MD5=[8575c6b2abf0c33285913111cdd2dcca]
class AppointmentRequestController--><g id="elem_AppointmentRequestController"><rect codeLine="11" fill="#F1F1F1" height="143.3955" id="AppointmentRequestController" rx="2.5" ry="2.5" style="stroke:#181818;stroke-width:0.5;" width="352" x="7" y="143.5"/><ellipse cx="81.75" cy="159.5" fill="#ADD1B2" rx="11" ry="11" style="stroke:#181818;stroke-width:1.0;"/><path d="M85.1875,164.5781 Q83.6094,165.75 81.5156,165.75 Q78.8125,165.75 77.1563,164.0313 Q75.5,162.3125 75.5,159.625 Q75.5,156.7813 77.3125,154.9219 Q79.1406,153.0625 82,153.0625 Q83.8438,153.0625 85.1875,154.25 L85.1875,156.0781 Q83.375,154.75 81.8281,154.75 Q79.7031,154.75 78.4375,156.0938 Q77.1875,157.4375 77.1875,159.5469 Q77.1875,161.5781 78.3594,162.8281 Q79.5313,164.0625 81.5156,164.0625 Q83.3281,164.0625 85.1875,162.7344 L85.1875,164.5781 Z " fill="#000000"/><text fill="#000000" font-family="sans-serif" font-size="14" lengthAdjust="spacing" textLength="194" x="102.25" y="165.6558">AppointmentRequestController</text><line style="stroke:#181818;stroke-width:0.5;" x1="8" x2="358" y1="175.5" y2="175.5"/><rect fill="none" height="6" style="stroke:#C82930;stroke-width:1.0;" width="6" x="15" y="183.5"/><text fill="#000000" font-family="sans-serif" font-size="14" lengthAdjust="spacing" textLength="200" x="27" y="195.1953">AppointmentRequestRepository</text><line style="stroke:#181818;stroke-width:0.5;" x1="8" x2="358" y1="202.5791" y2="202.5791"/><ellipse cx="18" cy="213.5791" fill="#84BE84" rx="3" ry="3" style="stroke:#038048;stroke-width:1.0;"/><text fill="#000000" font-family="sans-serif" font-size="14" lengthAdjust="spacing" textLength="326" x="27" y="222.2744">rescheduleAppointment(time,date,announcementId)</text><ellipse cx="18" cy="232.6582" fill="#84BE84" rx="3" ry="3" style="stroke:#038048;stroke-width:1.0;"/><text fill="#000000" font-family="sans-serif" font-size="14" lengthAdjust="spacing" textLength="184" x="27" y="241.3535">getAppointmentRequestList()</text><ellipse cx="18" cy="251.7373" fill="#84BE84" rx="3" ry="3" style="stroke:#038048;stroke-width:1.0;"/><text fill="#000000" font-family="sans-serif" font-size="14" lengthAdjust="spacing" textLength="273" x="27" y="260.4326">acceptAppointment(appointmentRequestId)</text><ellipse cx="18" cy="270.8164" fill="#84BE84" rx="3" ry="3" style="stroke:#038048;stroke-width:1.0;"/><text fill="#000000" font-family="sans-serif" font-size="14" lengthAdjust="spacing" textLength="266" x="27" y="279.5117">rejectAppointment(appointmentRequestId)</text></g><!--MD5=[34136ba0c956eae0aa1ffac09db432da]
class AppointmentRequest--><g id="elem_AppointmentRequest"><rect codeLine="22" fill="#F1F1F1" height="124.3164" id="AppointmentRequest" rx="2.5" ry="2.5" style="stroke:#181818;stroke-width:0.5;" width="164" x="178" y="356"/><ellipse cx="193" cy="372" fill="#ADD1B2" rx="11" ry="11" style="stroke:#181818;stroke-width:1.0;"/><path d="M196.4375,377.0781 Q194.8594,378.25 192.7656,378.25 Q190.0625,378.25 188.4063,376.5313 Q186.75,374.8125 186.75,372.125 Q186.75,369.2813 188.5625,367.4219 Q190.3906,365.5625 193.25,365.5625 Q195.0938,365.5625 196.4375,366.75 L196.4375,368.5781 Q194.625,367.25 193.0781,367.25 Q190.9531,367.25 189.6875,368.5938 Q188.4375,369.9375 188.4375,372.0469 Q188.4375,374.0781 189.6094,375.3281 Q190.7813,376.5625 192.7656,376.5625 Q194.5781,376.5625 196.4375,375.2344 L196.4375,377.0781 Z " fill="#000000"/><text fill="#000000" font-family="sans-serif" font-size="14" lengthAdjust="spacing" textLength="132" x="207" y="378.1558">AppointmentRequest</text><line style="stroke:#181818;stroke-width:0.5;" x1="179" x2="341" y1="388" y2="388"/><rect fill="none" height="6" style="stroke:#C82930;stroke-width:1.0;" width="6" x="186" y="396"/><text fill="#000000" font-family="sans-serif" font-size="14" lengthAdjust="spacing" textLength="28" x="198" y="407.6953">date</text><rect fill="none" height="6" style="stroke:#C82930;stroke-width:1.0;" width="6" x="186" y="415.0791"/><text fill="#000000" font-family="sans-serif" font-size="14" lengthAdjust="spacing" textLength="26" x="198" y="426.7744">time</text><rect fill="none" height="6" style="stroke:#C82930;stroke-width:1.0;" width="6" x="186" y="434.1582"/><text fill="#000000" font-family="sans-serif" font-size="14" lengthAdjust="spacing" textLength="105" x="198" y="445.8535">announcementId</text><rect fill="none" height="6" style="stroke:#C82930;stroke-width:1.0;" width="6" x="186" y="453.2373"/><text fill="#000000" font-family="sans-serif" font-size="14" lengthAdjust="spacing" textLength="36" x="198" y="464.9326">agent</text><line style="stroke:#181818;stroke-width:0.5;" x1="179" x2="341" y1="472.3164" y2="472.3164"/></g><!--MD5=[9c3c4bd03a63f9ab5339dc3fe68082f3]
class AppointmentRequestRepository--><g id="elem_AppointmentRequestRepository"><rect codeLine="31" fill="#F1F1F1" height="143.3955" id="AppointmentRequestRepository" rx="2.5" ry="2.5" style="stroke:#181818;stroke-width:0.5;" width="352" x="191" y="540"/><ellipse cx="262.75" cy="556" fill="#ADD1B2" rx="11" ry="11" style="stroke:#181818;stroke-width:1.0;"/><path d="M266.1875,561.0781 Q264.6094,562.25 262.5156,562.25 Q259.8125,562.25 258.1563,560.5313 Q256.5,558.8125 256.5,556.125 Q256.5,553.2813 258.3125,551.4219 Q260.1406,549.5625 263,549.5625 Q264.8438,549.5625 266.1875,550.75 L266.1875,552.5781 Q264.375,551.25 262.8281,551.25 Q260.7031,551.25 259.4375,552.5938 Q258.1875,553.9375 258.1875,556.0469 Q258.1875,558.0781 259.3594,559.3281 Q260.5313,560.5625 262.5156,560.5625 Q264.3281,560.5625 266.1875,559.2344 L266.1875,561.0781 Z " fill="#000000"/><text fill="#000000" font-family="sans-serif" font-size="14" lengthAdjust="spacing" textLength="200" x="283.25" y="562.1558">AppointmentRequestRepository</text><line style="stroke:#181818;stroke-width:0.5;" x1="192" x2="542" y1="572" y2="572"/><line style="stroke:#181818;stroke-width:0.5;" x1="192" x2="542" y1="580" y2="580"/><ellipse cx="202" cy="591" fill="#84BE84" rx="3" ry="3" style="stroke:#038048;stroke-width:1.0;"/><text fill="#000000" font-family="sans-serif" font-size="14" lengthAdjust="spacing" textLength="40" x="211" y="599.6953">save()</text><ellipse cx="202" cy="610.0791" fill="#84BE84" rx="3" ry="3" style="stroke:#038048;stroke-width:1.0;"/><text fill="#000000" font-family="sans-serif" font-size="14" lengthAdjust="spacing" textLength="326" x="211" y="618.7744">rescheduleAppointment(time,date,announcementId)</text><ellipse cx="202" cy="629.1582" fill="#84BE84" rx="3" ry="3" style="stroke:#038048;stroke-width:1.0;"/><text fill="#000000" font-family="sans-serif" font-size="14" lengthAdjust="spacing" textLength="166" x="211" y="637.8535">addAppointmentRequest()</text><ellipse cx="202" cy="648.2373" fill="#84BE84" rx="3" ry="3" style="stroke:#038048;stroke-width:1.0;"/><text fill="#000000" font-family="sans-serif" font-size="14" lengthAdjust="spacing" textLength="225" x="211" y="656.9326">getAllVisibleAppointmentRequests()</text><ellipse cx="202" cy="667.3164" fill="#84BE84" rx="3" ry="3" style="stroke:#038048;stroke-width:1.0;"/><text fill="#000000" font-family="sans-serif" font-size="14" lengthAdjust="spacing" textLength="169" x="211" y="676.0117">getAppointmentRequests()</text></g><!--MD5=[5966f99d0843d3be8ba4c1fbbe043157]
class AppointmentRequestDTO--><g id="elem_AppointmentRequestDTO"><rect codeLine="40" fill="#F1F1F1" height="124.3164" id="AppointmentRequestDTO" rx="2.5" ry="2.5" style="stroke:#181818;stroke-width:0.5;" width="194" x="415" y="356"/><ellipse cx="430" cy="372" fill="#ADD1B2" rx="11" ry="11" style="stroke:#181818;stroke-width:1.0;"/><path d="M433.4375,377.0781 Q431.8594,378.25 429.7656,378.25 Q427.0625,378.25 425.4063,376.5313 Q423.75,374.8125 423.75,372.125 Q423.75,369.2813 425.5625,367.4219 Q427.3906,365.5625 430.25,365.5625 Q432.0938,365.5625 433.4375,366.75 L433.4375,368.5781 Q431.625,367.25 430.0781,367.25 Q427.9531,367.25 426.6875,368.5938 Q425.4375,369.9375 425.4375,372.0469 Q425.4375,374.0781 426.6094,375.3281 Q427.7813,376.5625 429.7656,376.5625 Q431.5781,376.5625 433.4375,375.2344 L433.4375,377.0781 Z " fill="#000000"/><text fill="#000000" font-family="sans-serif" font-size="14" lengthAdjust="spacing" textLength="162" x="444" y="378.1558">AppointmentRequestDTO</text><line style="stroke:#181818;stroke-width:0.5;" x1="416" x2="608" y1="388" y2="388"/><rect fill="none" height="6" style="stroke:#C82930;stroke-width:1.0;" width="6" x="423" y="396"/><text fill="#000000" font-family="sans-serif" font-size="14" lengthAdjust="spacing" textLength="26" x="435" y="407.6953">time</text><rect fill="none" height="6" style="stroke:#C82930;stroke-width:1.0;" width="6" x="423" y="415.0791"/><text fill="#000000" font-family="sans-serif" font-size="14" lengthAdjust="spacing" textLength="28" x="435" y="426.7744">date</text><rect fill="none" height="6" style="stroke:#C82930;stroke-width:1.0;" width="6" x="423" y="434.1582"/><text fill="#000000" font-family="sans-serif" font-size="14" lengthAdjust="spacing" textLength="105" x="435" y="445.8535">announcementId</text><rect fill="none" height="6" style="stroke:#C82930;stroke-width:1.0;" width="6" x="423" y="453.2373"/><text fill="#000000" font-family="sans-serif" font-size="14" lengthAdjust="spacing" textLength="36" x="435" y="464.9326">agent</text><line style="stroke:#181818;stroke-width:0.5;" x1="416" x2="608" y1="472.3164" y2="472.3164"/></g><!--MD5=[efffae88d9c9cbad64a0f0f47ceed7a4]
class AppointmentRequestMapper--><g id="elem_AppointmentRequestMapper"><rect codeLine="47" fill="#F1F1F1" height="162.4746" id="AppointmentRequestMapper" rx="2.5" ry="2.5" style="stroke:#181818;stroke-width:0.5;" width="313" x="394.5" y="134"/><ellipse cx="456.75" cy="150" fill="#ADD1B2" rx="11" ry="11" style="stroke:#181818;stroke-width:1.0;"/><path d="M460.1875,155.0781 Q458.6094,156.25 456.5156,156.25 Q453.8125,156.25 452.1563,154.5313 Q450.5,152.8125 450.5,150.125 Q450.5,147.2813 452.3125,145.4219 Q454.1406,143.5625 457,143.5625 Q458.8438,143.5625 460.1875,144.75 L460.1875,146.5781 Q458.375,145.25 456.8281,145.25 Q454.7031,145.25 453.4375,146.5938 Q452.1875,147.9375 452.1875,150.0469 Q452.1875,152.0781 453.3594,153.3281 Q454.5313,154.5625 456.5156,154.5625 Q458.3281,154.5625 460.1875,153.2344 L460.1875,155.0781 Z " fill="#000000"/><text fill="#000000" font-family="sans-serif" font-size="14" lengthAdjust="spacing" textLength="180" x="477.25" y="156.1558">AppointmentRequestMapper</text><line style="stroke:#181818;stroke-width:0.5;" x1="395.5" x2="706.5" y1="166" y2="166"/><rect fill="none" height="6" style="stroke:#C82930;stroke-width:1.0;" width="6" x="402.5" y="174"/><text fill="#000000" font-family="sans-serif" font-size="14" lengthAdjust="spacing" textLength="183" x="414.5" y="185.6953">appointmentRequestDTOList</text><line style="stroke:#181818;stroke-width:0.5;" x1="395.5" x2="706.5" y1="193.0791" y2="193.0791"/><ellipse cx="405.5" cy="204.0791" fill="#84BE84" rx="3" ry="3" style="stroke:#038048;stroke-width:1.0;"/><text fill="#000000" font-family="sans-serif" font-size="14" lengthAdjust="spacing" textLength="57" x="414.5" y="212.7744">convert()</text><ellipse cx="405.5" cy="223.1582" fill="#84BE84" rx="3" ry="3" style="stroke:#038048;stroke-width:1.0;"/><text fill="#000000" font-family="sans-serif" font-size="14" lengthAdjust="spacing" textLength="44" x="414.5" y="231.8535">toDto()</text><ellipse cx="405.5" cy="242.2373" fill="#84BE84" rx="3" ry="3" style="stroke:#038048;stroke-width:1.0;"/><text fill="#000000" font-family="sans-serif" font-size="14" lengthAdjust="spacing" textLength="184" x="414.5" y="250.9326">getAllAppointmentRequests()</text><ellipse cx="405.5" cy="261.3164" fill="#84BE84" rx="3" ry="3" style="stroke:#038048;stroke-width:1.0;"/><text fill="#000000" font-family="sans-serif" font-size="14" lengthAdjust="spacing" textLength="287" x="414.5" y="270.0117">getAllAppointmentRequestsRecentToOldest()</text><ellipse cx="405.5" cy="280.3955" fill="#84BE84" rx="3" ry="3" style="stroke:#038048;stroke-width:1.0;"/><text fill="#000000" font-family="sans-serif" font-size="14" lengthAdjust="spacing" textLength="176" x="414.5" y="289.0908">toDtoAppointmentRequest()</text></g><!--MD5=[31fe267ec04c2cce1fe625cd6bfe09fb]
reverse link AppointmentRequestUI to Runnable--><g id="link_AppointmentRequestUI_Runnable"><path codeLine="58" d="M291.34,40.5 C296.36,40.5 301.39,40.5 306.42,40.5 " fill="none" id="AppointmentRequestUI-backto-Runnable" style="stroke:#181818;stroke-width:1.0;"/><polygon fill="none" points="291.32,47.5,271.32,40.5,291.32,33.5,291.32,47.5" style="stroke:#181818;stroke-width:1.0;"/></g><!--MD5=[5892c890908416b2198b388dd199042e]
link AppointmentRequestUI to AppointmentRequestController--><g id="link_AppointmentRequestUI_AppointmentRequestController"><path codeLine="59" d="M183,74.35 C183,92.53 183,115.92 183,138.34 " fill="none" id="AppointmentRequestUI-to-AppointmentRequestController" style="stroke:#181818;stroke-width:1.0;stroke-dasharray:7.0,7.0;"/><polygon fill="#181818" points="183,143.41,187,134.41,183,138.41,179,134.41,183,143.41" style="stroke:#181818;stroke-width:1.0;"/></g><!--MD5=[42255ac46ce89db1f746ca568a7f542f]
link AppointmentRequestController to AppointmentRequestMapper--><g id="link_AppointmentRequestController_AppointmentRequestMapper"><path codeLine="60" d="M359.09,215 C369.09,215 379.1,215 389.1,215 " fill="none" id="AppointmentRequestController-to-AppointmentRequestMapper" style="stroke:#181818;stroke-width:1.0;"/><polygon fill="#181818" points="394.33,215,385.33,211,389.33,215,385.33,219,394.33,215" style="stroke:#181818;stroke-width:1.0;"/></g><!--MD5=[ea476fe94de7f636414849a9af538e4a]
link AppointmentRequestMapper to AppointmentRequestDTO--><g id="link_AppointmentRequestMapper_AppointmentRequestDTO"><path codeLine="61" d="M535.47,296.02 C531.97,314.07 528.29,333.05 524.91,350.49 " fill="none" id="AppointmentRequestMapper-to-AppointmentRequestDTO" style="stroke:#181818;stroke-width:1.0;"/><polygon fill="#181818" points="523.87,355.84,529.5168,347.7707,524.8259,350.9322,521.6644,346.2413,523.87,355.84" style="stroke:#181818;stroke-width:1.0;"/></g><!--MD5=[a1f3081c5c753661ca2c0ebfddbc8f69]
link AppointmentRequestDTO to AppointmentRequestRepository--><g id="link_AppointmentRequestDTO_AppointmentRequestRepository"><path codeLine="62" d="M465.72,480.12 C452.32,497.83 437.52,517.36 423.56,535.8 " fill="none" id="AppointmentRequestDTO-to-AppointmentRequestRepository" style="stroke:#181818;stroke-width:1.0;"/><polygon fill="#181818" points="420.41,539.96,429.0291,535.1945,423.426,535.972,422.6484,530.3689,420.41,539.96" style="stroke:#181818;stroke-width:1.0;"/></g><!--MD5=[a368ee8ae5368c319b86859498dd2c88]
link AppointmentRequestController to AppointmentRequest--><g id="link_AppointmentRequestController_AppointmentRequest"><path codeLine="63" d="M210.04,286.58 C218.06,307.53 226.82,330.38 234.72,351.02 " fill="none" id="AppointmentRequestController-to-AppointmentRequest" style="stroke:#181818;stroke-width:1.0;stroke-dasharray:7.0,7.0;"/><polygon fill="#181818" points="236.61,355.94,237.0964,346.1032,234.8074,351.2762,229.6344,348.9873,236.61,355.94" style="stroke:#181818;stroke-width:1.0;"/></g><!--MD5=[0c0f41cdbe5bc3baec6f39425b889486]
link AppointmentRequest to AppointmentRequestRepository--><g id="link_AppointmentRequest_AppointmentRequestRepository"><path codeLine="64" d="M294.15,480.12 C303.96,497.68 314.77,517.03 325,535.33 " fill="none" id="AppointmentRequest-to-AppointmentRequestRepository" style="stroke:#181818;stroke-width:1.0;"/><polygon fill="#181818" points="327.59,539.96,326.6777,530.1535,325.1448,535.5987,319.6996,534.0658,327.59,539.96" style="stroke:#181818;stroke-width:1.0;"/></g><!--MD5=[47a5ecc41a24a21c8b83f87bf457a38a]
@startuml

interface Runnable {

    + run()
}

class AppointmentRequestUI {
    - controller
}

class AppointmentRequestController {

    - AppointmentRequestRepository
    + rescheduleAppointment(time,date,announcementId)
    + getAppointmentRequestList()
    + acceptAppointment(appointmentRequestId)
    + rejectAppointment(appointmentRequestId)


}

class AppointmentRequest {

    -date
    -time
    -announcementId
    -agent
}


class AppointmentRequestRepository {

    + save()
    + rescheduleAppointment(time,date,announcementId)
    + addAppointmentRequest()
    + getAllVisibleAppointmentRequests()
    + getAppointmentRequests()
}

class AppointmentRequestDTO {

    - time
    - date
    - announcementId
    - agent
}
class AppointmentRequestMapper {

    - appointmentRequestDTOList
    + convert()
    + toDto()
    + getAllAppointmentRequests()
    + getAllAppointmentRequestsRecentToOldest()
    + toDtoAppointmentRequest()
}


Runnable -left-|> AppointmentRequestUI
AppointmentRequestUI ..> AppointmentRequestController
AppointmentRequestController -> AppointmentRequestMapper
AppointmentRequestMapper -> AppointmentRequestDTO
AppointmentRequestDTO -> AppointmentRequestRepository
AppointmentRequestController ..> AppointmentRequest
AppointmentRequest - -> AppointmentRequestRepository

@enduml

PlantUML version 1.2022.4(Sat Apr 09 14:29:17 BST 2022)
(GPL source distribution)
Java Runtime: OpenJDK Runtime Environment
JVM: OpenJDK 64-Bit Server VM
Default Encoding: MS949
Language: en
Country: US
--></g></svg>