<?xml version="1.0" encoding="UTF-8" standalone="no"?><svg xmlns="http://www.w3.org/2000/svg" xmlns:xlink="http://www.w3.org/1999/xlink" contentStyleType="text/css" height="1832px" preserveAspectRatio="none" style="width:1821px;height:1832px;background:#FFFFFF;" version="1.1" viewBox="0 0 1821 1832" width="1821px" zoomAndPan="magnify"><defs/><g><rect height="29.0791" style="stroke:#00000000;stroke-width:1.0;fill:none;" width="359" x="732" y="10"/><text fill="#000000" font-family="sans-serif" font-size="14" font-weight="bold" lengthAdjust="spacing" textLength="349" x="737" y="30.6953">Sequence Diagram - Read Appointment Response</text><rect fill="#FFFFFF" height="1606.0806" style="stroke:#181818;stroke-width:1.0;" width="10" x="46" y="134.1582"/><rect fill="#FFFFFF" height="31.7163" style="stroke:#181818;stroke-width:1.0;" width="10" x="409" y="157.8745"/><rect fill="#FFFFFF" height="31.7163" style="stroke:#181818;stroke-width:1.0;" width="10" x="409" y="379.8887"/><rect fill="#FFFFFF" height="31.7163" style="stroke:#181818;stroke-width:1.0;" width="10" x="409" y="443.3213"/><rect fill="#FFFFFF" height="31.7163" style="stroke:#181818;stroke-width:1.0;" width="10" x="409" y="665.3354"/><rect fill="#FFFFFF" height="31.7163" style="stroke:#181818;stroke-width:1.0;" width="10" x="409" y="755.4844"/><rect fill="#FFFFFF" height="31.7163" style="stroke:#181818;stroke-width:1.0;" width="10" x="409" y="990.4985"/><rect fill="#FFFFFF" height="31.7163" style="stroke:#181818;stroke-width:1.0;" width="10" x="409" y="1070.9219"/><rect fill="#FFFFFF" height="31.7163" style="stroke:#181818;stroke-width:1.0;" width="10" x="409" y="1161.0708"/><rect fill="#FFFFFF" height="31.7163" style="stroke:#181818;stroke-width:1.0;" width="10" x="409" y="1224.5034"/><rect fill="#FFFFFF" height="31.7163" style="stroke:#181818;stroke-width:1.0;" width="10" x="409" y="1414.8013"/><rect fill="#FFFFFF" height="31.7163" style="stroke:#181818;stroke-width:1.0;" width="10" x="409" y="1495.2246"/><rect fill="#FFFFFF" height="31.7163" style="stroke:#181818;stroke-width:1.0;" width="10" x="409" y="1685.5225"/><rect fill="#FFFFFF" height="31.7163" style="stroke:#181818;stroke-width:1.0;" width="10" x="735" y="189.5908"/><rect fill="#FFFFFF" height="31.7163" style="stroke:#181818;stroke-width:1.0;" width="10" x="735" y="348.1724"/><rect fill="#FFFFFF" height="31.7163" style="stroke:#181818;stroke-width:1.0;" width="10" x="735" y="475.0376"/><rect fill="#FFFFFF" height="31.7163" style="stroke:#181818;stroke-width:1.0;" width="10" x="735" y="633.6191"/><rect fill="#FFFFFF" height="31.7163" style="stroke:#181818;stroke-width:1.0;" width="10" x="735" y="787.2007"/><rect fill="#FFFFFF" height="31.7163" style="stroke:#181818;stroke-width:1.0;" width="10" x="735" y="958.7822"/><rect fill="#FFFFFF" height="31.7163" style="stroke:#181818;stroke-width:1.0;" width="10" x="735" y="1256.2197"/><rect fill="#FFFFFF" height="31.7163" style="stroke:#181818;stroke-width:1.0;" width="10" x="735" y="1383.085"/><rect fill="#FFFFFF" height="31.7163" style="stroke:#181818;stroke-width:1.0;" width="10" x="735" y="1526.9409"/><rect fill="#FFFFFF" height="31.7163" style="stroke:#181818;stroke-width:1.0;" width="10" x="735" y="1653.8062"/><rect fill="#FFFFFF" height="31.7163" style="stroke:#181818;stroke-width:1.0;" width="10" x="961" y="316.4561"/><rect fill="#FFFFFF" height="31.7163" style="stroke:#181818;stroke-width:1.0;" width="10" x="961" y="601.9028"/><rect fill="#FFFFFF" height="31.7163" style="stroke:#181818;stroke-width:1.0;" width="10" x="1187" y="221.3071"/><rect fill="#FFFFFF" height="31.7163" style="stroke:#181818;stroke-width:1.0;" width="10" x="1187" y="284.7397"/><rect fill="#FFFFFF" height="31.7163" style="stroke:#181818;stroke-width:1.0;" width="10" x="1187" y="506.7539"/><rect fill="#FFFFFF" height="31.7163" style="stroke:#181818;stroke-width:1.0;" width="10" x="1187" y="570.1865"/><rect fill="#FFFFFF" height="31.7163" style="stroke:#181818;stroke-width:1.0;" width="10" x="1187" y="818.917"/><rect fill="#FFFFFF" height="31.7163" style="stroke:#181818;stroke-width:1.0;" width="10" x="1187" y="927.0659"/><rect fill="#FFFFFF" height="31.7163" style="stroke:#181818;stroke-width:1.0;" width="10" x="1187" y="1287.936"/><rect fill="#FFFFFF" height="31.7163" style="stroke:#181818;stroke-width:1.0;" width="10" x="1187" y="1351.3687"/><rect fill="#FFFFFF" height="31.7163" style="stroke:#181818;stroke-width:1.0;" width="10" x="1187" y="1558.6572"/><rect fill="#FFFFFF" height="31.7163" style="stroke:#181818;stroke-width:1.0;" width="10" x="1187" y="1622.0898"/><rect fill="#FFFFFF" height="31.7163" style="stroke:#181818;stroke-width:1.0;" width="10" x="1513" y="253.0234"/><rect fill="#FFFFFF" height="31.7163" style="stroke:#181818;stroke-width:1.0;" width="10" x="1513" y="538.4702"/><rect fill="#FFFFFF" height="76.4326" style="stroke:#181818;stroke-width:1.0;" width="10" x="1513" y="850.6333"/><rect fill="#FFFFFF" height="31.7163" style="stroke:#181818;stroke-width:1.0;" width="10" x="1513" y="1319.6523"/><rect fill="#FFFFFF" height="31.7163" style="stroke:#181818;stroke-width:1.0;" width="10" x="1513" y="1590.3735"/><rect height="1020.187" style="stroke:#000000;stroke-width:1.5;fill:none;" width="1804" x="10" y="712.0518"/><rect height="607.6006" style="stroke:#000000;stroke-width:1.5;fill:none;" width="1615" x="20" y="1117.6382"/><line style="stroke:#181818;stroke-width:0.5;fill:none;stroke-dasharray:5.0,5.0;" x1="51" x2="51" y1="124.1582" y2="1749.2388"/><line style="stroke:#181818;stroke-width:0.5;fill:none;stroke-dasharray:5.0,5.0;" x1="414" x2="414" y1="124.1582" y2="1749.2388"/><line style="stroke:#181818;stroke-width:0.5;fill:none;stroke-dasharray:5.0,5.0;" x1="739.5" x2="739.5" y1="124.1582" y2="1749.2388"/><line style="stroke:#181818;stroke-width:0.5;fill:none;stroke-dasharray:5.0,5.0;" x1="966" x2="966" y1="124.1582" y2="1749.2388"/><line style="stroke:#181818;stroke-width:0.5;fill:none;stroke-dasharray:5.0,5.0;" x1="1192" x2="1192" y1="124.1582" y2="1749.2388"/><line style="stroke:#181818;stroke-width:0.5;fill:none;stroke-dasharray:5.0,5.0;" x1="1518" x2="1518" y1="124.1582" y2="1749.2388"/><text fill="#000000" font-family="sans-serif" font-size="14" lengthAdjust="spacing" textLength="36" x="30" y="120.7744">Client</text><ellipse cx="51" cy="53.5791" fill="#E3E3E3" rx="8" ry="8" style="stroke:#181818;stroke-width:0.5;"/><path d="M51,61.5791 L51,88.5791 M38,69.5791 L64,69.5791 M51,88.5791 L38,103.5791 M51,88.5791 L64,103.5791 " fill="none" style="stroke:#181818;stroke-width:0.5;"/><text fill="#000000" font-family="sans-serif" font-size="14" lengthAdjust="spacing" textLength="36" x="30" y="1763.9341">Client</text><ellipse cx="51" cy="1775.8179" fill="#E3E3E3" rx="8" ry="8" style="stroke:#181818;stroke-width:0.5;"/><path d="M51,1783.8179 L51,1810.8179 M38,1791.8179 L64,1791.8179 M51,1810.8179 L38,1825.8179 M51,1810.8179 L64,1825.8179 " fill="none" style="stroke:#181818;stroke-width:0.5;"/><rect fill="#E3E3E3" height="33.0791" rx="2.5" ry="2.5" style="stroke:#181818;stroke-width:0.5;" width="158" x="335" y="90.0791"/><text fill="#000000" font-family="sans-serif" font-size="14" lengthAdjust="spacing" textLength="144" x="342" y="112.7744">AppointmentRequestUI</text><rect fill="#E3E3E3" height="33.0791" rx="2.5" ry="2.5" style="stroke:#181818;stroke-width:0.5;" width="158" x="335" y="1748.2388"/><text fill="#000000" font-family="sans-serif" font-size="14" lengthAdjust="spacing" textLength="144" x="342" y="1770.9341">AppointmentRequestUI</text><rect fill="#E3E3E3" height="33.0791" rx="2.5" ry="2.5" style="stroke:#181818;stroke-width:0.5;" width="215" x="632.5" y="90.0791"/><text fill="#000000" font-family="sans-serif" font-size="14" lengthAdjust="spacing" textLength="201" x="639.5" y="112.7744">AppointmentResquestController</text><rect fill="#E3E3E3" height="33.0791" rx="2.5" ry="2.5" style="stroke:#181818;stroke-width:0.5;" width="215" x="632.5" y="1748.2388"/><text fill="#000000" font-family="sans-serif" font-size="14" lengthAdjust="spacing" textLength="201" x="639.5" y="1770.9341">AppointmentResquestController</text><rect fill="#E3E3E3" height="33.0791" rx="2.5" ry="2.5" style="stroke:#181818;stroke-width:0.5;" width="194" x="869" y="90.0791"/><text fill="#000000" font-family="sans-serif" font-size="14" lengthAdjust="spacing" textLength="180" x="876" y="112.7744">AppointmentRequestMapper</text><rect fill="#E3E3E3" height="33.0791" rx="2.5" ry="2.5" style="stroke:#181818;stroke-width:0.5;" width="194" x="869" y="1748.2388"/><text fill="#000000" font-family="sans-serif" font-size="14" lengthAdjust="spacing" textLength="180" x="876" y="1770.9341">AppointmentRequestMapper</text><rect fill="#E3E3E3" height="33.0791" rx="2.5" ry="2.5" style="stroke:#181818;stroke-width:0.5;" width="176" x="1104" y="90.0791"/><text fill="#000000" font-family="sans-serif" font-size="14" lengthAdjust="spacing" textLength="162" x="1111" y="112.7744">AppointmentRequestDTO</text><rect fill="#E3E3E3" height="33.0791" rx="2.5" ry="2.5" style="stroke:#181818;stroke-width:0.5;" width="176" x="1104" y="1748.2388"/><text fill="#000000" font-family="sans-serif" font-size="14" lengthAdjust="spacing" textLength="162" x="1111" y="1770.9341">AppointmentRequestDTO</text><rect fill="#E3E3E3" height="33.0791" rx="2.5" ry="2.5" style="stroke:#181818;stroke-width:0.5;" width="214" x="1411" y="90.0791"/><text fill="#000000" font-family="sans-serif" font-size="14" lengthAdjust="spacing" textLength="200" x="1418" y="112.7744">AppointmentRequestRepository</text><rect fill="#E3E3E3" height="33.0791" rx="2.5" ry="2.5" style="stroke:#181818;stroke-width:0.5;" width="214" x="1411" y="1748.2388"/><text fill="#000000" font-family="sans-serif" font-size="14" lengthAdjust="spacing" textLength="200" x="1418" y="1770.9341">AppointmentRequestRepository</text><rect fill="#FFFFFF" height="1606.0806" style="stroke:#181818;stroke-width:1.0;" width="10" x="46" y="134.1582"/><rect fill="#FFFFFF" height="31.7163" style="stroke:#181818;stroke-width:1.0;" width="10" x="409" y="157.8745"/><rect fill="#FFFFFF" height="31.7163" style="stroke:#181818;stroke-width:1.0;" width="10" x="409" y="379.8887"/><rect fill="#FFFFFF" height="31.7163" style="stroke:#181818;stroke-width:1.0;" width="10" x="409" y="443.3213"/><rect fill="#FFFFFF" height="31.7163" style="stroke:#181818;stroke-width:1.0;" width="10" x="409" y="665.3354"/><rect fill="#FFFFFF" height="31.7163" style="stroke:#181818;stroke-width:1.0;" width="10" x="409" y="755.4844"/><rect fill="#FFFFFF" height="31.7163" style="stroke:#181818;stroke-width:1.0;" width="10" x="409" y="990.4985"/><rect fill="#FFFFFF" height="31.7163" style="stroke:#181818;stroke-width:1.0;" width="10" x="409" y="1070.9219"/><rect fill="#FFFFFF" height="31.7163" style="stroke:#181818;stroke-width:1.0;" width="10" x="409" y="1161.0708"/><rect fill="#FFFFFF" height="31.7163" style="stroke:#181818;stroke-width:1.0;" width="10" x="409" y="1224.5034"/><rect fill="#FFFFFF" height="31.7163" style="stroke:#181818;stroke-width:1.0;" width="10" x="409" y="1414.8013"/><rect fill="#FFFFFF" height="31.7163" style="stroke:#181818;stroke-width:1.0;" width="10" x="409" y="1495.2246"/><rect fill="#FFFFFF" height="31.7163" style="stroke:#181818;stroke-width:1.0;" width="10" x="409" y="1685.5225"/><rect fill="#FFFFFF" height="31.7163" style="stroke:#181818;stroke-width:1.0;" width="10" x="735" y="189.5908"/><rect fill="#FFFFFF" height="31.7163" style="stroke:#181818;stroke-width:1.0;" width="10" x="735" y="348.1724"/><rect fill="#FFFFFF" height="31.7163" style="stroke:#181818;stroke-width:1.0;" width="10" x="735" y="475.0376"/><rect fill="#FFFFFF" height="31.7163" style="stroke:#181818;stroke-width:1.0;" width="10" x="735" y="633.6191"/><rect fill="#FFFFFF" height="31.7163" style="stroke:#181818;stroke-width:1.0;" width="10" x="735" y="787.2007"/><rect fill="#FFFFFF" height="31.7163" style="stroke:#181818;stroke-width:1.0;" width="10" x="735" y="958.7822"/><rect fill="#FFFFFF" height="31.7163" style="stroke:#181818;stroke-width:1.0;" width="10" x="735" y="1256.2197"/><rect fill="#FFFFFF" height="31.7163" style="stroke:#181818;stroke-width:1.0;" width="10" x="735" y="1383.085"/><rect fill="#FFFFFF" height="31.7163" style="stroke:#181818;stroke-width:1.0;" width="10" x="735" y="1526.9409"/><rect fill="#FFFFFF" height="31.7163" style="stroke:#181818;stroke-width:1.0;" width="10" x="735" y="1653.8062"/><rect fill="#FFFFFF" height="31.7163" style="stroke:#181818;stroke-width:1.0;" width="10" x="961" y="316.4561"/><rect fill="#FFFFFF" height="31.7163" style="stroke:#181818;stroke-width:1.0;" width="10" x="961" y="601.9028"/><rect fill="#FFFFFF" height="31.7163" style="stroke:#181818;stroke-width:1.0;" width="10" x="1187" y="221.3071"/><rect fill="#FFFFFF" height="31.7163" style="stroke:#181818;stroke-width:1.0;" width="10" x="1187" y="284.7397"/><rect fill="#FFFFFF" height="31.7163" style="stroke:#181818;stroke-width:1.0;" width="10" x="1187" y="506.7539"/><rect fill="#FFFFFF" height="31.7163" style="stroke:#181818;stroke-width:1.0;" width="10" x="1187" y="570.1865"/><rect fill="#FFFFFF" height="31.7163" style="stroke:#181818;stroke-width:1.0;" width="10" x="1187" y="818.917"/><rect fill="#FFFFFF" height="31.7163" style="stroke:#181818;stroke-width:1.0;" width="10" x="1187" y="927.0659"/><rect fill="#FFFFFF" height="31.7163" style="stroke:#181818;stroke-width:1.0;" width="10" x="1187" y="1287.936"/><rect fill="#FFFFFF" height="31.7163" style="stroke:#181818;stroke-width:1.0;" width="10" x="1187" y="1351.3687"/><rect fill="#FFFFFF" height="31.7163" style="stroke:#181818;stroke-width:1.0;" width="10" x="1187" y="1558.6572"/><rect fill="#FFFFFF" height="31.7163" style="stroke:#181818;stroke-width:1.0;" width="10" x="1187" y="1622.0898"/><rect fill="#FFFFFF" height="31.7163" style="stroke:#181818;stroke-width:1.0;" width="10" x="1513" y="253.0234"/><rect fill="#FFFFFF" height="31.7163" style="stroke:#181818;stroke-width:1.0;" width="10" x="1513" y="538.4702"/><rect fill="#FFFFFF" height="76.4326" style="stroke:#181818;stroke-width:1.0;" width="10" x="1513" y="850.6333"/><rect fill="#FFFFFF" height="31.7163" style="stroke:#181818;stroke-width:1.0;" width="10" x="1513" y="1319.6523"/><rect fill="#FFFFFF" height="31.7163" style="stroke:#181818;stroke-width:1.0;" width="10" x="1513" y="1590.3735"/><polygon fill="#181818" points="397,153.8745,407,157.8745,397,161.8745,401,157.8745" style="stroke:#181818;stroke-width:1.0;"/><line style="stroke:#181818;stroke-width:1.0;" x1="56" x2="403" y1="157.8745" y2="157.8745"/><text fill="#000000" font-family="sans-serif" font-size="13" lengthAdjust="spacing" textLength="287" x="63" y="152.7324">check the responses to the appointment requests</text><polygon fill="#181818" points="723,185.5908,733,189.5908,723,193.5908,727,189.5908" style="stroke:#181818;stroke-width:1.0;"/><line style="stroke:#181818;stroke-width:1.0;" x1="414" x2="729" y1="189.5908" y2="189.5908"/><text fill="#000000" font-family="sans-serif" font-size="13" lengthAdjust="spacing" textLength="168" x="421" y="184.4487">getAppointmentRequestList()</text><polygon fill="#181818" points="1175,217.3071,1185,221.3071,1175,225.3071,1179,221.3071" style="stroke:#181818;stroke-width:1.0;"/><line style="stroke:#181818;stroke-width:1.0;" x1="740" x2="1181" y1="221.3071" y2="221.3071"/><text fill="#000000" font-family="sans-serif" font-size="13" lengthAdjust="spacing" textLength="168" x="747" y="216.165">getAppointmentRequestList()</text><polygon fill="#181818" points="1501,249.0234,1511,253.0234,1501,257.0234,1505,253.0234" style="stroke:#181818;stroke-width:1.0;"/><line style="stroke:#181818;stroke-width:1.0;" x1="1192" x2="1507" y1="253.0234" y2="253.0234"/><text fill="#000000" font-family="sans-serif" font-size="13" lengthAdjust="spacing" textLength="168" x="1199" y="247.8813">getAppointmentRequestList()</text><polygon fill="#181818" points="1208,280.7397,1198,284.7397,1208,288.7397,1204,284.7397" style="stroke:#181818;stroke-width:1.0;"/><line style="stroke:#181818;stroke-width:1.0;" x1="1202" x2="1517" y1="284.7397" y2="284.7397"/><text fill="#000000" font-family="sans-serif" font-size="13" lengthAdjust="spacing" textLength="197" x="1214" y="279.5977">return getAppointmentRequestList</text><polygon fill="#181818" points="982,312.4561,972,316.4561,982,320.4561,978,316.4561" style="stroke:#181818;stroke-width:1.0;"/><line style="stroke:#181818;stroke-width:1.0;" x1="976" x2="1191" y1="316.4561" y2="316.4561"/><text fill="#000000" font-family="sans-serif" font-size="13" lengthAdjust="spacing" textLength="197" x="988" y="311.314">return getAppointmentRequestList</text><polygon fill="#181818" points="756,344.1724,746,348.1724,756,352.1724,752,348.1724" style="stroke:#181818;stroke-width:1.0;"/><line style="stroke:#181818;stroke-width:1.0;" x1="750" x2="965" y1="348.1724" y2="348.1724"/><text fill="#000000" font-family="sans-serif" font-size="13" lengthAdjust="spacing" textLength="197" x="762" y="343.0303">return getAppointmentRequestList</text><polygon fill="#181818" points="430,375.8887,420,379.8887,430,383.8887,426,379.8887" style="stroke:#181818;stroke-width:1.0;"/><line style="stroke:#181818;stroke-width:1.0;" x1="424" x2="739" y1="379.8887" y2="379.8887"/><text fill="#000000" font-family="sans-serif" font-size="13" lengthAdjust="spacing" textLength="197" x="436" y="374.7466">return getAppointmentRequestList</text><polygon fill="#181818" points="67,407.605,57,411.605,67,415.605,63,411.605" style="stroke:#181818;stroke-width:1.0;"/><line style="stroke:#181818;stroke-width:1.0;" x1="61" x2="413" y1="411.605" y2="411.605"/><text fill="#000000" font-family="sans-serif" font-size="13" lengthAdjust="spacing" textLength="263" x="73" y="406.4629">shows the sorted list of appointment requests</text><polygon fill="#181818" points="397,439.3213,407,443.3213,397,447.3213,401,443.3213" style="stroke:#181818;stroke-width:1.0;"/><line style="stroke:#181818;stroke-width:1.0;" x1="56" x2="403" y1="443.3213" y2="443.3213"/><text fill="#000000" font-family="sans-serif" font-size="13" lengthAdjust="spacing" textLength="232" x="63" y="438.1792">selects one of the appointment requests</text><polygon fill="#181818" points="723,471.0376,733,475.0376,723,479.0376,727,475.0376" style="stroke:#181818;stroke-width:1.0;"/><line style="stroke:#181818;stroke-width:1.0;" x1="414" x2="729" y1="475.0376" y2="475.0376"/><text fill="#000000" font-family="sans-serif" font-size="13" lengthAdjust="spacing" textLength="276" x="421" y="469.8955">getAppointmentRequest(appointmentRequestId)</text><polygon fill="#181818" points="1175,502.7539,1185,506.7539,1175,510.7539,1179,506.7539" style="stroke:#181818;stroke-width:1.0;"/><line style="stroke:#181818;stroke-width:1.0;" x1="740" x2="1181" y1="506.7539" y2="506.7539"/><text fill="#000000" font-family="sans-serif" font-size="13" lengthAdjust="spacing" textLength="276" x="747" y="501.6118">getAppointmentRequest(appointmentRequestId)</text><polygon fill="#181818" points="1501,534.4702,1511,538.4702,1501,542.4702,1505,538.4702" style="stroke:#181818;stroke-width:1.0;"/><line style="stroke:#181818;stroke-width:1.0;" x1="1192" x2="1507" y1="538.4702" y2="538.4702"/><text fill="#000000" font-family="sans-serif" font-size="13" lengthAdjust="spacing" textLength="276" x="1199" y="533.3281">getAppointmentRequest(appointmentRequestId)</text><polygon fill="#181818" points="1208,566.1865,1198,570.1865,1208,574.1865,1204,570.1865" style="stroke:#181818;stroke-width:1.0;"/><line style="stroke:#181818;stroke-width:1.0;" x1="1202" x2="1517" y1="570.1865" y2="570.1865"/><text fill="#000000" font-family="sans-serif" font-size="13" lengthAdjust="spacing" textLength="176" x="1214" y="565.0444">return getAppointmentRequest</text><polygon fill="#181818" points="982,597.9028,972,601.9028,982,605.9028,978,601.9028" style="stroke:#181818;stroke-width:1.0;"/><line style="stroke:#181818;stroke-width:1.0;" x1="976" x2="1191" y1="601.9028" y2="601.9028"/><text fill="#000000" font-family="sans-serif" font-size="13" lengthAdjust="spacing" textLength="176" x="988" y="596.7607">return getAppointmentRequest</text><polygon fill="#181818" points="756,629.6191,746,633.6191,756,637.6191,752,633.6191" style="stroke:#181818;stroke-width:1.0;"/><line style="stroke:#181818;stroke-width:1.0;" x1="750" x2="965" y1="633.6191" y2="633.6191"/><text fill="#000000" font-family="sans-serif" font-size="13" lengthAdjust="spacing" textLength="176" x="762" y="628.4771">return getAppointmentRequest</text><polygon fill="#181818" points="430,661.3354,420,665.3354,430,669.3354,426,665.3354" style="stroke:#181818;stroke-width:1.0;"/><line style="stroke:#181818;stroke-width:1.0;" x1="424" x2="739" y1="665.3354" y2="665.3354"/><text fill="#000000" font-family="sans-serif" font-size="13" lengthAdjust="spacing" textLength="260" x="436" y="660.1934">return getAppointmentRequest with response</text><polygon fill="#181818" points="67,693.0518,57,697.0518,67,701.0518,63,697.0518" style="stroke:#181818;stroke-width:1.0;"/><line style="stroke:#181818;stroke-width:1.0;" x1="61" x2="413" y1="697.0518" y2="697.0518"/><text fill="#000000" font-family="sans-serif" font-size="13" lengthAdjust="spacing" textLength="326" x="73" y="691.9097">display the response along with the appointment request</text><path d="M10,712.0518 L71,712.0518 L71,721.7681 L61,731.7681 L10,731.7681 L10,712.0518 " fill="#EEEEEE" style="stroke:#000000;stroke-width:1.5;"/><rect fill="none" height="1020.187" style="stroke:#000000;stroke-width:1.5;" width="1804" x="10" y="712.0518"/><text fill="#000000" font-family="sans-serif" font-size="13" font-weight="bold" lengthAdjust="spacing" textLength="16" x="25" y="727.626">alt</text><text fill="#000000" font-family="sans-serif" font-size="11" font-weight="bold" lengthAdjust="spacing" textLength="205" x="86" y="726.3838">[if the user accepts the appointment]</text><polygon fill="#181818" points="397,751.4844,407,755.4844,397,759.4844,401,755.4844" style="stroke:#181818;stroke-width:1.0;"/><line style="stroke:#181818;stroke-width:1.0;" x1="56" x2="403" y1="755.4844" y2="755.4844"/><text fill="#000000" font-family="sans-serif" font-size="13" lengthAdjust="spacing" textLength="143" x="63" y="750.3423">accepts the appointment</text><polygon fill="#181818" points="723,783.2007,733,787.2007,723,791.2007,727,787.2007" style="stroke:#181818;stroke-width:1.0;"/><line style="stroke:#181818;stroke-width:1.0;" x1="414" x2="729" y1="787.2007" y2="787.2007"/><text fill="#000000" font-family="sans-serif" font-size="13" lengthAdjust="spacing" textLength="249" x="421" y="782.0586">acceptAppointment(appointmentRequestId)</text><polygon fill="#181818" points="1175,814.917,1185,818.917,1175,822.917,1179,818.917" style="stroke:#181818;stroke-width:1.0;"/><line style="stroke:#181818;stroke-width:1.0;" x1="740" x2="1181" y1="818.917" y2="818.917"/><text fill="#000000" font-family="sans-serif" font-size="13" lengthAdjust="spacing" textLength="249" x="747" y="813.7749">acceptAppointment(appointmentRequestId)</text><polygon fill="#181818" points="1501,846.6333,1511,850.6333,1501,854.6333,1505,850.6333" style="stroke:#181818;stroke-width:1.0;"/><line style="stroke:#181818;stroke-width:1.0;" x1="1192" x2="1507" y1="850.6333" y2="850.6333"/><text fill="#000000" font-family="sans-serif" font-size="13" lengthAdjust="spacing" textLength="249" x="1199" y="845.4912">acceptAppointment(appointmentRequestId)</text><line style="stroke:#181818;stroke-width:1.0;" x1="1523" x2="1565" y1="882.3496" y2="882.3496"/><line style="stroke:#181818;stroke-width:1.0;" x1="1565" x2="1565" y1="882.3496" y2="895.3496"/><line style="stroke:#181818;stroke-width:1.0;" x1="1524" x2="1565" y1="895.3496" y2="895.3496"/><polygon fill="#181818" points="1534,891.3496,1524,895.3496,1534,899.3496,1530,895.3496" style="stroke:#181818;stroke-width:1.0;"/><text fill="#000000" font-family="sans-serif" font-size="13" lengthAdjust="spacing" textLength="272" x="1530" y="877.2075">deleteOtherRequests(ClientId,announcementId)</text><polygon fill="#181818" points="1208,923.0659,1198,927.0659,1208,931.0659,1204,927.0659" style="stroke:#181818;stroke-width:1.0;"/><line style="stroke:#181818;stroke-width:1.0;" x1="1202" x2="1517" y1="927.0659" y2="927.0659"/><text fill="#000000" font-family="sans-serif" font-size="13" lengthAdjust="spacing" textLength="149" x="1214" y="921.9238">return acceptAppointment</text><polygon fill="#181818" points="756,954.7822,746,958.7822,756,962.7822,752,958.7822" style="stroke:#181818;stroke-width:1.0;"/><line style="stroke:#181818;stroke-width:1.0;" x1="750" x2="1191" y1="958.7822" y2="958.7822"/><text fill="#000000" font-family="sans-serif" font-size="13" lengthAdjust="spacing" textLength="149" x="762" y="953.6401">return acceptAppointment</text><polygon fill="#181818" points="430,986.4985,420,990.4985,430,994.4985,426,990.4985" style="stroke:#181818;stroke-width:1.0;"/><line style="stroke:#181818;stroke-width:1.0;" x1="424" x2="739" y1="990.4985" y2="990.4985"/><text fill="#000000" font-family="sans-serif" font-size="13" lengthAdjust="spacing" textLength="149" x="436" y="985.3564">return acceptAppointment</text><polygon fill="#181818" points="67,1018.2148,57,1022.2148,67,1026.2148,63,1022.2148" style="stroke:#181818;stroke-width:1.0;"/><line style="stroke:#181818;stroke-width:1.0;" x1="61" x2="413" y1="1022.2148" y2="1022.2148"/><text fill="#000000" font-family="sans-serif" font-size="13" lengthAdjust="spacing" textLength="152" x="73" y="1017.0728">informs operation success</text><line style="stroke:#000000;stroke-width:1.0;stroke-dasharray:2.0,2.0;" x1="10" x2="1814" y1="1031.2148" y2="1031.2148"/><text fill="#000000" font-family="sans-serif" font-size="11" font-weight="bold" lengthAdjust="spacing" textLength="201" x="15" y="1043.5469">[if the user rejects the appointment]</text><polygon fill="#181818" points="397,1066.9219,407,1070.9219,397,1074.9219,401,1070.9219" style="stroke:#181818;stroke-width:1.0;"/><line style="stroke:#181818;stroke-width:1.0;" x1="56" x2="403" y1="1070.9219" y2="1070.9219"/><text fill="#000000" font-family="sans-serif" font-size="13" lengthAdjust="spacing" textLength="129" x="63" y="1065.7798">reject the appointment</text><polygon fill="#181818" points="67,1098.6382,57,1102.6382,67,1106.6382,63,1102.6382" style="stroke:#181818;stroke-width:1.0;"/><line style="stroke:#181818;stroke-width:1.0;" x1="61" x2="413" y1="1102.6382" y2="1102.6382"/><text fill="#000000" font-family="sans-serif" font-size="13" lengthAdjust="spacing" textLength="209" x="73" y="1097.4961">asks if the user wants to reschedule</text><path d="M20,1117.6382 L81,1117.6382 L81,1127.3545 L71,1137.3545 L20,1137.3545 L20,1117.6382 " fill="#EEEEEE" style="stroke:#000000;stroke-width:1.5;"/><rect fill="none" height="607.6006" style="stroke:#000000;stroke-width:1.5;" width="1615" x="20" y="1117.6382"/><text fill="#000000" font-family="sans-serif" font-size="13" font-weight="bold" lengthAdjust="spacing" textLength="16" x="35" y="1133.2124">alt</text><text fill="#000000" font-family="sans-serif" font-size="11" font-weight="bold" lengthAdjust="spacing" textLength="192" x="96" y="1131.9702">[if if the user wants to reschedule]</text><polygon fill="#181818" points="397,1157.0708,407,1161.0708,397,1165.0708,401,1161.0708" style="stroke:#181818;stroke-width:1.0;"/><line style="stroke:#181818;stroke-width:1.0;" x1="56" x2="403" y1="1161.0708" y2="1161.0708"/><text fill="#000000" font-family="sans-serif" font-size="13" lengthAdjust="spacing" textLength="116" x="63" y="1155.9287">wants to reschedule</text><polygon fill="#181818" points="67,1188.7871,57,1192.7871,67,1196.7871,63,1192.7871" style="stroke:#181818;stroke-width:1.0;"/><line style="stroke:#181818;stroke-width:1.0;" x1="61" x2="413" y1="1192.7871" y2="1192.7871"/><text fill="#000000" font-family="sans-serif" font-size="13" lengthAdjust="spacing" textLength="329" x="73" y="1187.645">asks for a new time and date for the appointment request</text><polygon fill="#181818" points="397,1220.5034,407,1224.5034,397,1228.5034,401,1224.5034" style="stroke:#181818;stroke-width:1.0;"/><line style="stroke:#181818;stroke-width:1.0;" x1="56" x2="403" y1="1224.5034" y2="1224.5034"/><text fill="#000000" font-family="sans-serif" font-size="13" lengthAdjust="spacing" textLength="169" x="63" y="1219.3613">types the relevant information</text><polygon fill="#181818" points="723,1252.2197,733,1256.2197,723,1260.2197,727,1256.2197" style="stroke:#181818;stroke-width:1.0;"/><line style="stroke:#181818;stroke-width:1.0;" x1="414" x2="729" y1="1256.2197" y2="1256.2197"/><text fill="#000000" font-family="sans-serif" font-size="13" lengthAdjust="spacing" textLength="297" x="421" y="1251.0776">rescheduleAppointment(time,date,announcementId)</text><polygon fill="#181818" points="1175,1283.936,1185,1287.936,1175,1291.936,1179,1287.936" style="stroke:#181818;stroke-width:1.0;"/><line style="stroke:#181818;stroke-width:1.0;" x1="740" x2="1181" y1="1287.936" y2="1287.936"/><text fill="#000000" font-family="sans-serif" font-size="13" lengthAdjust="spacing" textLength="297" x="747" y="1282.7939">rescheduleAppointment(time,date,announcementId)</text><polygon fill="#181818" points="1501,1315.6523,1511,1319.6523,1501,1323.6523,1505,1319.6523" style="stroke:#181818;stroke-width:1.0;"/><line style="stroke:#181818;stroke-width:1.0;" x1="1192" x2="1507" y1="1319.6523" y2="1319.6523"/><text fill="#000000" font-family="sans-serif" font-size="13" lengthAdjust="spacing" textLength="297" x="1199" y="1314.5103">rescheduleAppointment(time,date,announcementId)</text><polygon fill="#181818" points="1208,1347.3687,1198,1351.3687,1208,1355.3687,1204,1351.3687" style="stroke:#181818;stroke-width:1.0;"/><line style="stroke:#181818;stroke-width:1.0;" x1="1202" x2="1517" y1="1351.3687" y2="1351.3687"/><text fill="#000000" font-family="sans-serif" font-size="13" lengthAdjust="spacing" textLength="171" x="1214" y="1346.2266">return rescheduleappointment</text><polygon fill="#181818" points="756,1379.085,746,1383.085,756,1387.085,752,1383.085" style="stroke:#181818;stroke-width:1.0;"/><line style="stroke:#181818;stroke-width:1.0;" x1="750" x2="1191" y1="1383.085" y2="1383.085"/><text fill="#000000" font-family="sans-serif" font-size="13" lengthAdjust="spacing" textLength="171" x="762" y="1377.9429">return rescheduleappointment</text><polygon fill="#181818" points="430,1410.8013,420,1414.8013,430,1418.8013,426,1414.8013" style="stroke:#181818;stroke-width:1.0;"/><line style="stroke:#181818;stroke-width:1.0;" x1="424" x2="739" y1="1414.8013" y2="1414.8013"/><text fill="#000000" font-family="sans-serif" font-size="13" lengthAdjust="spacing" textLength="171" x="436" y="1409.6592">return rescheduleappointment</text><polygon fill="#181818" points="67,1442.5176,57,1446.5176,67,1450.5176,63,1446.5176" style="stroke:#181818;stroke-width:1.0;"/><line style="stroke:#181818;stroke-width:1.0;" x1="61" x2="413" y1="1446.5176" y2="1446.5176"/><text fill="#000000" font-family="sans-serif" font-size="13" lengthAdjust="spacing" textLength="152" x="73" y="1441.3755">informs operation success</text><line style="stroke:#000000;stroke-width:1.0;stroke-dasharray:2.0,2.0;" x1="20" x2="1635" y1="1455.5176" y2="1455.5176"/><text fill="#000000" font-family="sans-serif" font-size="11" font-weight="bold" lengthAdjust="spacing" textLength="227" x="25" y="1467.8496">[if the user does not want to reschedule]</text><polygon fill="#181818" points="397,1491.2246,407,1495.2246,397,1499.2246,401,1495.2246" style="stroke:#181818;stroke-width:1.0;"/><line style="stroke:#181818;stroke-width:1.0;" x1="56" x2="403" y1="1495.2246" y2="1495.2246"/><text fill="#000000" font-family="sans-serif" font-size="13" lengthAdjust="spacing" textLength="147" x="63" y="1490.0825">declines the rescheduling</text><polygon fill="#181818" points="723,1522.9409,733,1526.9409,723,1530.9409,727,1526.9409" style="stroke:#181818;stroke-width:1.0;"/><line style="stroke:#181818;stroke-width:1.0;" x1="414" x2="729" y1="1526.9409" y2="1526.9409"/><text fill="#000000" font-family="sans-serif" font-size="13" lengthAdjust="spacing" textLength="242" x="421" y="1521.7988">rejectAppointment(appointmentRequestId)</text><polygon fill="#181818" points="1175,1554.6572,1185,1558.6572,1175,1562.6572,1179,1558.6572" style="stroke:#181818;stroke-width:1.0;"/><line style="stroke:#181818;stroke-width:1.0;" x1="740" x2="1181" y1="1558.6572" y2="1558.6572"/><text fill="#000000" font-family="sans-serif" font-size="13" lengthAdjust="spacing" textLength="242" x="747" y="1553.5151">rejectAppointment(appointmentRequestId)</text><polygon fill="#181818" points="1501,1586.3735,1511,1590.3735,1501,1594.3735,1505,1590.3735" style="stroke:#181818;stroke-width:1.0;"/><line style="stroke:#181818;stroke-width:1.0;" x1="1192" x2="1507" y1="1590.3735" y2="1590.3735"/><text fill="#000000" font-family="sans-serif" font-size="13" lengthAdjust="spacing" textLength="242" x="1199" y="1585.2314">rejectAppointment(appointmentRequestId)</text><polygon fill="#181818" points="1208,1618.0898,1198,1622.0898,1208,1626.0898,1204,1622.0898" style="stroke:#181818;stroke-width:1.0;"/><line style="stroke:#181818;stroke-width:1.0;" x1="1202" x2="1517" y1="1622.0898" y2="1622.0898"/><text fill="#000000" font-family="sans-serif" font-size="13" lengthAdjust="spacing" textLength="142" x="1214" y="1616.9478">return rejectAppointment</text><polygon fill="#181818" points="756,1649.8062,746,1653.8062,756,1657.8062,752,1653.8062" style="stroke:#181818;stroke-width:1.0;"/><line style="stroke:#181818;stroke-width:1.0;" x1="750" x2="1191" y1="1653.8062" y2="1653.8062"/><text fill="#000000" font-family="sans-serif" font-size="13" lengthAdjust="spacing" textLength="142" x="762" y="1648.6641">return rejectAppointment</text><polygon fill="#181818" points="430,1681.5225,420,1685.5225,430,1689.5225,426,1685.5225" style="stroke:#181818;stroke-width:1.0;"/><line style="stroke:#181818;stroke-width:1.0;" x1="424" x2="739" y1="1685.5225" y2="1685.5225"/><text fill="#000000" font-family="sans-serif" font-size="13" lengthAdjust="spacing" textLength="142" x="436" y="1680.3804">return rejectAppointment</text><polygon fill="#181818" points="67,1713.2388,57,1717.2388,67,1721.2388,63,1717.2388" style="stroke:#181818;stroke-width:1.0;"/><line style="stroke:#181818;stroke-width:1.0;" x1="61" x2="413" y1="1717.2388" y2="1717.2388"/><text fill="#000000" font-family="sans-serif" font-size="13" lengthAdjust="spacing" textLength="152" x="73" y="1712.0967">informs operation success</text><!--MD5=[3fc511990629f4e75f94f63dfc972601]
@startuml
skinparam monochrome true
skinparam packageStyle rectangle
skinparam shadowing false

title Sequence Diagram - Read Appointment Response

actor "Client" as client

participant "AppointmentRequestUI" as ui
participant "AppointmentResquestController" as controller
participant "AppointmentRequestMapper" as mapper
participant "AppointmentRequestDTO" as dto
participant "AppointmentRequestRepository" as repository

activate client

client -> ui : check the responses to the appointment requests
activate ui
ui -> controller : getAppointmentRequestList()
deactivate ui
activate controller
controller -> dto : getAppointmentRequestList()
deactivate controller
activate dto
dto -> repository : getAppointmentRequestList()
deactivate dto
activate repository
repository -> dto : return getAppointmentRequestList
deactivate repository
activate dto
dto -> mapper : return getAppointmentRequestList
deactivate dto
activate mapper

mapper -> controller : return getAppointmentRequestList
deactivate mapper
activate controller
controller -> ui : return getAppointmentRequestList
deactivate controller
activate ui
ui -> client : shows the sorted list of appointment requests
deactivate ui
client -> ui : selects one of the appointment requests
activate ui
ui -> controller : getAppointmentRequest(appointmentRequestId)
deactivate ui
activate controller
controller -> dto : getAppointmentRequest(appointmentRequestId)
deactivate controller
activate dto
dto -> repository : getAppointmentRequest(appointmentRequestId)
deactivate dto
activate repository
repository -> dto : return getAppointmentRequest
deactivate repository
activate dto
dto -> mapper : return getAppointmentRequest
deactivate dto
activate mapper
mapper -> controller : return getAppointmentRequest
deactivate mapper
activate controller
controller -> ui : return getAppointmentRequest with response
deactivate controller
activate ui
ui -> client : display the response along with the appointment request
deactivate ui
alt if the user accepts the appointment
    client -> ui : accepts the appointment
    activate ui
    ui -> controller : acceptAppointment(appointmentRequestId)
    deactivate ui
    activate controller
    controller -> dto : acceptAppointment(appointmentRequestId)
    deactivate controller
    activate dto
    dto -> repository : acceptAppointment(appointmentRequestId)
    deactivate dto
    activate repository
    repository -> repository : deleteOtherRequests(ClientId,announcementId)
    repository -> dto : return acceptAppointment
            deactivate repository
            activate dto
            dto -> controller : return acceptAppointment
            deactivate dto
            activate controller
            controller -> ui : return acceptAppointment
            deactivate controller
            activate ui
            ui -> client : informs operation success
            deactivate ui
    else if the user rejects the appointment



    client -> ui : reject the appointment
    activate ui
    ui -> client : asks if the user wants to reschedule
    deactivate ui
    alt if if the user wants to reschedule
    client -> ui : wants to reschedule
    activate ui
        ui -> client : asks for a new time and date for the appointment request
        deactivate ui
        client -> ui : types the relevant information
        activate ui
        ui -> controller : rescheduleAppointment(time,date,announcementId)
        deactivate ui
        activate controller
        controller -> dto : rescheduleAppointment(time,date,announcementId)
        deactivate controller
        activate dto
        dto -> repository : rescheduleAppointment(time,date,announcementId)
        deactivate dto
        activate repository
        repository -> dto : return rescheduleappointment
        deactivate repository
        activate dto
        dto -> controller : return rescheduleappointment
        deactivate dto
        activate controller
        controller -> ui : return rescheduleappointment
        deactivate controller
        activate ui
        ui -> client : informs operation success
        deactivate ui


    else if the user does not want to reschedule
    client -> ui : declines the rescheduling
    activate ui
    ui -> controller : rejectAppointment(appointmentRequestId)
    deactivate ui
    activate controller
    controller -> dto : rejectAppointment(appointmentRequestId)
    deactivate controller
    activate dto
    dto -> repository : rejectAppointment(appointmentRequestId)
    deactivate dto
    activate repository
     repository -> dto : return rejectAppointment
            deactivate repository
            activate dto
            dto -> controller : return rejectAppointment
            deactivate dto
            activate controller
            controller -> ui : return rejectAppointment
            deactivate controller
            activate ui
            ui -> client : informs operation success
            deactivate ui

    end alt
    end alt


@enduml

PlantUML version 1.2022.4(Sat Apr 09 14:29:17 BST 2022)
(GPL source distribution)
Java Runtime: OpenJDK Runtime Environment
JVM: OpenJDK 64-Bit Server VM
Default Encoding: MS949
Language: en
Country: US
--></g></svg>