<?xml version="1.0" encoding="UTF-8" standalone="no"?><svg xmlns="http://www.w3.org/2000/svg" xmlns:xlink="http://www.w3.org/1999/xlink" contentStyleType="text/css" height="604px" preserveAspectRatio="none" style="width:578px;height:604px;background:#FFFFFF;" version="1.1" viewBox="0 0 578 604" width="578px" zoomAndPan="magnify"><defs/><g><!--MD5=[6d7d587a021629470fd0d5f8ef3407c9]
class Branch--><g id="elem_Branch"><rect codeLine="2" fill="#F1F1F1" height="48" id="Branch" rx="2.5" ry="2.5" style="stroke:#181818;stroke-width:0.5;" width="77" x="181.5" y="549"/><ellipse cx="196.5" cy="565" fill="#ADD1B2" rx="11" ry="11" style="stroke:#181818;stroke-width:1.0;"/><path d="M199.2656,560.875 Q199.4219,560.6563 199.6094,560.5469 Q199.7969,560.4375 200.0156,560.4375 Q200.3906,560.4375 200.625,560.6953 Q200.8594,560.9531 200.8594,561.5625 L200.8594,563.0156 Q200.8594,563.625 200.625,563.8906 Q200.3906,564.1563 200.0156,564.1563 Q199.6719,564.1563 199.4688,563.9531 Q199.2656,563.7656 199.1563,563.25 Q199.1094,562.8906 198.9219,562.7031 Q198.5938,562.3281 197.9844,562.1094 Q197.375,561.8906 196.75,561.8906 Q195.9844,561.8906 195.3516,562.2188 Q194.7188,562.5469 194.2266,563.2969 Q193.7344,564.0469 193.7344,565.0781 L193.7344,566.1719 Q193.7344,567.4063 194.625,568.2266 Q195.5156,569.0469 197.1094,569.0469 Q198.0469,569.0469 198.7031,568.7969 Q199.0938,568.6406 199.5156,568.2031 Q199.7813,567.9375 199.9297,567.8594 Q200.0781,567.7813 200.2813,567.7813 Q200.6094,567.7813 200.8672,568.0391 Q201.125,568.2969 201.125,568.6406 Q201.125,568.9844 200.7813,569.3906 Q200.2813,569.9688 199.4844,570.2969 Q198.4063,570.75 197.1094,570.75 Q195.5938,570.75 194.3906,570.125 Q193.4063,569.625 192.7188,568.5547 Q192.0313,567.4844 192.0313,566.2031 L192.0313,565.0469 Q192.0313,563.7188 192.6484,562.5703 Q193.2656,561.4219 194.3594,560.8047 Q195.4531,560.1875 196.6875,560.1875 Q197.4219,560.1875 198.0703,560.3516 Q198.7188,560.5156 199.2656,560.875 Z " fill="#000000"/><text fill="#000000" font-family="sans-serif" font-size="14" lengthAdjust="spacing" textLength="45" x="210.5" y="570.7285">Branch</text><line style="stroke:#181818;stroke-width:0.5;" x1="182.5" x2="257.5" y1="581" y2="581"/><line style="stroke:#181818;stroke-width:0.5;" x1="182.5" x2="257.5" y1="589" y2="589"/></g><!--MD5=[7421f545a0d8420c5bec41e74b387d9c]
class Employee--><g id="elem_Employee"><rect codeLine="7" fill="#F1F1F1" height="48" id="Employee" rx="2.5" ry="2.5" style="stroke:#181818;stroke-width:0.5;" width="94" x="366" y="549"/><ellipse cx="381" cy="565" fill="#ADD1B2" rx="11" ry="11" style="stroke:#181818;stroke-width:1.0;"/><path d="M383.7656,560.875 Q383.9219,560.6563 384.1094,560.5469 Q384.2969,560.4375 384.5156,560.4375 Q384.8906,560.4375 385.125,560.6953 Q385.3594,560.9531 385.3594,561.5625 L385.3594,563.0156 Q385.3594,563.625 385.125,563.8906 Q384.8906,564.1563 384.5156,564.1563 Q384.1719,564.1563 383.9688,563.9531 Q383.7656,563.7656 383.6563,563.25 Q383.6094,562.8906 383.4219,562.7031 Q383.0938,562.3281 382.4844,562.1094 Q381.875,561.8906 381.25,561.8906 Q380.4844,561.8906 379.8516,562.2188 Q379.2188,562.5469 378.7266,563.2969 Q378.2344,564.0469 378.2344,565.0781 L378.2344,566.1719 Q378.2344,567.4063 379.125,568.2266 Q380.0156,569.0469 381.6094,569.0469 Q382.5469,569.0469 383.2031,568.7969 Q383.5938,568.6406 384.0156,568.2031 Q384.2813,567.9375 384.4297,567.8594 Q384.5781,567.7813 384.7813,567.7813 Q385.1094,567.7813 385.3672,568.0391 Q385.625,568.2969 385.625,568.6406 Q385.625,568.9844 385.2813,569.3906 Q384.7813,569.9688 383.9844,570.2969 Q382.9063,570.75 381.6094,570.75 Q380.0938,570.75 378.8906,570.125 Q377.9063,569.625 377.2188,568.5547 Q376.5313,567.4844 376.5313,566.2031 L376.5313,565.0469 Q376.5313,563.7188 377.1484,562.5703 Q377.7656,561.4219 378.8594,560.8047 Q379.9531,560.1875 381.1875,560.1875 Q381.9219,560.1875 382.5703,560.3516 Q383.2188,560.5156 383.7656,560.875 Z " fill="#000000"/><text fill="#000000" font-family="sans-serif" font-size="14" lengthAdjust="spacing" textLength="62" x="395" y="570.7285">Employee</text><line style="stroke:#181818;stroke-width:0.5;" x1="367" x2="459" y1="581" y2="581"/><line style="stroke:#181818;stroke-width:0.5;" x1="367" x2="459" y1="589" y2="589"/></g><!--MD5=[bb086348203df7a999b66982746057b3]
class ListAllEmployeesUI--><g id="elem_ListAllEmployeesUI"><rect codeLine="12" fill="#F1F1F1" height="48" id="ListAllEmployeesUI" rx="2.5" ry="2.5" style="stroke:#181818;stroke-width:0.5;" width="150" x="164" y="7"/><ellipse cx="179" cy="23" fill="#ADD1B2" rx="11" ry="11" style="stroke:#181818;stroke-width:1.0;"/><path d="M181.7656,18.875 Q181.9219,18.6563 182.1094,18.5469 Q182.2969,18.4375 182.5156,18.4375 Q182.8906,18.4375 183.125,18.6953 Q183.3594,18.9531 183.3594,19.5625 L183.3594,21.0156 Q183.3594,21.625 183.125,21.8906 Q182.8906,22.1563 182.5156,22.1563 Q182.1719,22.1563 181.9688,21.9531 Q181.7656,21.7656 181.6563,21.25 Q181.6094,20.8906 181.4219,20.7031 Q181.0938,20.3281 180.4844,20.1094 Q179.875,19.8906 179.25,19.8906 Q178.4844,19.8906 177.8516,20.2188 Q177.2188,20.5469 176.7266,21.2969 Q176.2344,22.0469 176.2344,23.0781 L176.2344,24.1719 Q176.2344,25.4063 177.125,26.2266 Q178.0156,27.0469 179.6094,27.0469 Q180.5469,27.0469 181.2031,26.7969 Q181.5938,26.6406 182.0156,26.2031 Q182.2813,25.9375 182.4297,25.8594 Q182.5781,25.7813 182.7813,25.7813 Q183.1094,25.7813 183.3672,26.0391 Q183.625,26.2969 183.625,26.6406 Q183.625,26.9844 183.2813,27.3906 Q182.7813,27.9688 181.9844,28.2969 Q180.9063,28.75 179.6094,28.75 Q178.0938,28.75 176.8906,28.125 Q175.9063,27.625 175.2188,26.5547 Q174.5313,25.4844 174.5313,24.2031 L174.5313,23.0469 Q174.5313,21.7188 175.1484,20.5703 Q175.7656,19.4219 176.8594,18.8047 Q177.9531,18.1875 179.1875,18.1875 Q179.9219,18.1875 180.5703,18.3516 Q181.2188,18.5156 181.7656,18.875 Z " fill="#000000"/><text fill="#000000" font-family="sans-serif" font-size="14" lengthAdjust="spacing" textLength="118" x="193" y="28.7285">ListAllEmployeesUI</text><line style="stroke:#181818;stroke-width:0.5;" x1="165" x2="313" y1="39" y2="39"/><line style="stroke:#181818;stroke-width:0.5;" x1="165" x2="313" y1="47" y2="47"/></g><!--MD5=[7d449ab8b6a2896fd89be5b4e3c4caaf]
class ListAllEmployeesController--><g id="elem_ListAllEmployeesController"><rect codeLine="18" fill="#F1F1F1" height="48" id="ListAllEmployeesController" rx="2.5" ry="2.5" style="stroke:#181818;stroke-width:0.5;" width="200" x="139" y="116"/><ellipse cx="154" cy="132" fill="#ADD1B2" rx="11" ry="11" style="stroke:#181818;stroke-width:1.0;"/><path d="M156.7656,127.875 Q156.9219,127.6563 157.1094,127.5469 Q157.2969,127.4375 157.5156,127.4375 Q157.8906,127.4375 158.125,127.6953 Q158.3594,127.9531 158.3594,128.5625 L158.3594,130.0156 Q158.3594,130.625 158.125,130.8906 Q157.8906,131.1563 157.5156,131.1563 Q157.1719,131.1563 156.9688,130.9531 Q156.7656,130.7656 156.6563,130.25 Q156.6094,129.8906 156.4219,129.7031 Q156.0938,129.3281 155.4844,129.1094 Q154.875,128.8906 154.25,128.8906 Q153.4844,128.8906 152.8516,129.2188 Q152.2188,129.5469 151.7266,130.2969 Q151.2344,131.0469 151.2344,132.0781 L151.2344,133.1719 Q151.2344,134.4063 152.125,135.2266 Q153.0156,136.0469 154.6094,136.0469 Q155.5469,136.0469 156.2031,135.7969 Q156.5938,135.6406 157.0156,135.2031 Q157.2813,134.9375 157.4297,134.8594 Q157.5781,134.7813 157.7813,134.7813 Q158.1094,134.7813 158.3672,135.0391 Q158.625,135.2969 158.625,135.6406 Q158.625,135.9844 158.2813,136.3906 Q157.7813,136.9688 156.9844,137.2969 Q155.9063,137.75 154.6094,137.75 Q153.0938,137.75 151.8906,137.125 Q150.9063,136.625 150.2188,135.5547 Q149.5313,134.4844 149.5313,133.2031 L149.5313,132.0469 Q149.5313,130.7188 150.1484,129.5703 Q150.7656,128.4219 151.8594,127.8047 Q152.9531,127.1875 154.1875,127.1875 Q154.9219,127.1875 155.5703,127.3516 Q156.2188,127.5156 156.7656,127.875 Z " fill="#000000"/><text fill="#000000" font-family="sans-serif" font-size="14" lengthAdjust="spacing" textLength="168" x="168" y="137.7285">ListAllEmployeesController</text><line style="stroke:#181818;stroke-width:0.5;" x1="140" x2="338" y1="148" y2="148"/><line style="stroke:#181818;stroke-width:0.5;" x1="140" x2="338" y1="156" y2="156"/></g><!--MD5=[d7cd06450716df339ae06bc8cd34d632]
class BranchRepository--><g id="elem_BranchRepository"><rect codeLine="23" fill="#F1F1F1" height="100.8281" id="BranchRepository" rx="2.5" ry="2.5" style="stroke:#181818;stroke-width:0.5;" width="244" x="7" y="387"/><ellipse cx="68.25" cy="403" fill="#ADD1B2" rx="11" ry="11" style="stroke:#181818;stroke-width:1.0;"/><path d="M71.0156,398.875 Q71.1719,398.6563 71.3594,398.5469 Q71.5469,398.4375 71.7656,398.4375 Q72.1406,398.4375 72.375,398.6953 Q72.6094,398.9531 72.6094,399.5625 L72.6094,401.0156 Q72.6094,401.625 72.375,401.8906 Q72.1406,402.1563 71.7656,402.1563 Q71.4219,402.1563 71.2188,401.9531 Q71.0156,401.7656 70.9063,401.25 Q70.8594,400.8906 70.6719,400.7031 Q70.3438,400.3281 69.7344,400.1094 Q69.125,399.8906 68.5,399.8906 Q67.7344,399.8906 67.1016,400.2188 Q66.4688,400.5469 65.9766,401.2969 Q65.4844,402.0469 65.4844,403.0781 L65.4844,404.1719 Q65.4844,405.4063 66.375,406.2266 Q67.2656,407.0469 68.8594,407.0469 Q69.7969,407.0469 70.4531,406.7969 Q70.8438,406.6406 71.2656,406.2031 Q71.5313,405.9375 71.6797,405.8594 Q71.8281,405.7813 72.0313,405.7813 Q72.3594,405.7813 72.6172,406.0391 Q72.875,406.2969 72.875,406.6406 Q72.875,406.9844 72.5313,407.3906 Q72.0313,407.9688 71.2344,408.2969 Q70.1563,408.75 68.8594,408.75 Q67.3438,408.75 66.1406,408.125 Q65.1563,407.625 64.4688,406.5547 Q63.7813,405.4844 63.7813,404.2031 L63.7813,403.0469 Q63.7813,401.7188 64.3984,400.5703 Q65.0156,399.4219 66.1094,398.8047 Q67.2031,398.1875 68.4375,398.1875 Q69.1719,398.1875 69.8203,398.3516 Q70.4688,398.5156 71.0156,398.875 Z " fill="#000000"/><text fill="#000000" font-family="sans-serif" font-size="14" lengthAdjust="spacing" textLength="113" x="88.75" y="408.7285">BranchRepository</text><line style="stroke:#181818;stroke-width:0.5;" x1="8" x2="250" y1="419" y2="419"/><line style="stroke:#181818;stroke-width:0.5;" x1="8" x2="250" y1="427" y2="427"/><ellipse cx="18" cy="441.3047" fill="#84BE84" rx="3" ry="3" style="stroke:#038048;stroke-width:1.0;"/><text fill="#000000" font-family="sans-serif" font-size="14" lengthAdjust="spacing" textLength="105" x="27" y="445.5332">getAllBranches()</text><ellipse cx="18" cy="458.9141" fill="#84BE84" rx="3" ry="3" style="stroke:#038048;stroke-width:1.0;"/><text fill="#000000" font-family="sans-serif" font-size="14" lengthAdjust="spacing" textLength="218" x="27" y="463.1426">sortBranchesByListings(Branches)</text><ellipse cx="18" cy="476.5234" fill="#84BE84" rx="3" ry="3" style="stroke:#038048;stroke-width:1.0;"/><text fill="#000000" font-family="sans-serif" font-size="14" lengthAdjust="spacing" textLength="177" x="27" y="480.752">getListingTotalByBranch(ID)</text></g><!--MD5=[115c5bc9211d8cbe43c7d19dc50c6850]
class EmployeeRepository--><g id="elem_EmployeeRepository"><rect codeLine="31" fill="#F1F1F1" height="83.2188" id="EmployeeRepository" rx="2.5" ry="2.5" style="stroke:#181818;stroke-width:0.5;" width="285" x="286.5" y="396"/><ellipse cx="359.75" cy="412" fill="#ADD1B2" rx="11" ry="11" style="stroke:#181818;stroke-width:1.0;"/><path d="M362.5156,407.875 Q362.6719,407.6563 362.8594,407.5469 Q363.0469,407.4375 363.2656,407.4375 Q363.6406,407.4375 363.875,407.6953 Q364.1094,407.9531 364.1094,408.5625 L364.1094,410.0156 Q364.1094,410.625 363.875,410.8906 Q363.6406,411.1563 363.2656,411.1563 Q362.9219,411.1563 362.7188,410.9531 Q362.5156,410.7656 362.4063,410.25 Q362.3594,409.8906 362.1719,409.7031 Q361.8438,409.3281 361.2344,409.1094 Q360.625,408.8906 360,408.8906 Q359.2344,408.8906 358.6016,409.2188 Q357.9688,409.5469 357.4766,410.2969 Q356.9844,411.0469 356.9844,412.0781 L356.9844,413.1719 Q356.9844,414.4063 357.875,415.2266 Q358.7656,416.0469 360.3594,416.0469 Q361.2969,416.0469 361.9531,415.7969 Q362.3438,415.6406 362.7656,415.2031 Q363.0313,414.9375 363.1797,414.8594 Q363.3281,414.7813 363.5313,414.7813 Q363.8594,414.7813 364.1172,415.0391 Q364.375,415.2969 364.375,415.6406 Q364.375,415.9844 364.0313,416.3906 Q363.5313,416.9688 362.7344,417.2969 Q361.6563,417.75 360.3594,417.75 Q358.8438,417.75 357.6406,417.125 Q356.6563,416.625 355.9688,415.5547 Q355.2813,414.4844 355.2813,413.2031 L355.2813,412.0469 Q355.2813,410.7188 355.8984,409.5703 Q356.5156,408.4219 357.6094,407.8047 Q358.7031,407.1875 359.9375,407.1875 Q360.6719,407.1875 361.3203,407.3516 Q361.9688,407.5156 362.5156,407.875 Z " fill="#000000"/><text fill="#000000" font-family="sans-serif" font-size="14" lengthAdjust="spacing" textLength="130" x="380.25" y="417.7285">EmployeeRepository</text><line style="stroke:#181818;stroke-width:0.5;" x1="287.5" x2="570.5" y1="428" y2="428"/><line style="stroke:#181818;stroke-width:0.5;" x1="287.5" x2="570.5" y1="436" y2="436"/><ellipse cx="297.5" cy="450.3047" fill="#84BE84" rx="3" ry="3" style="stroke:#038048;stroke-width:1.0;"/><text fill="#000000" font-family="sans-serif" font-size="14" lengthAdjust="spacing" textLength="186" x="306.5" y="454.5332">getEmployeesByBranchID(ID)</text><ellipse cx="297.5" cy="467.9141" fill="#84BE84" rx="3" ry="3" style="stroke:#038048;stroke-width:1.0;"/><text fill="#000000" font-family="sans-serif" font-size="14" lengthAdjust="spacing" textLength="259" x="306.5" y="472.1426">sortEmployeesAlphabetically(Employees)</text></g><!--MD5=[35ae6afabc28cfceb76ccc01ee55d1fe]
class Repositories--><g id="elem_Repositories"><rect codeLine="39" fill="#F1F1F1" height="100.8281" id="Repositories" rx="2.5" ry="2.5" style="stroke:#181818;stroke-width:0.5;" width="186" x="146" y="225"/><ellipse cx="195.25" cy="241" fill="#ADD1B2" rx="11" ry="11" style="stroke:#181818;stroke-width:1.0;"/><path d="M198.0156,236.875 Q198.1719,236.6563 198.3594,236.5469 Q198.5469,236.4375 198.7656,236.4375 Q199.1406,236.4375 199.375,236.6953 Q199.6094,236.9531 199.6094,237.5625 L199.6094,239.0156 Q199.6094,239.625 199.375,239.8906 Q199.1406,240.1563 198.7656,240.1563 Q198.4219,240.1563 198.2188,239.9531 Q198.0156,239.7656 197.9063,239.25 Q197.8594,238.8906 197.6719,238.7031 Q197.3438,238.3281 196.7344,238.1094 Q196.125,237.8906 195.5,237.8906 Q194.7344,237.8906 194.1016,238.2188 Q193.4688,238.5469 192.9766,239.2969 Q192.4844,240.0469 192.4844,241.0781 L192.4844,242.1719 Q192.4844,243.4063 193.375,244.2266 Q194.2656,245.0469 195.8594,245.0469 Q196.7969,245.0469 197.4531,244.7969 Q197.8438,244.6406 198.2656,244.2031 Q198.5313,243.9375 198.6797,243.8594 Q198.8281,243.7813 199.0313,243.7813 Q199.3594,243.7813 199.6172,244.0391 Q199.875,244.2969 199.875,244.6406 Q199.875,244.9844 199.5313,245.3906 Q199.0313,245.9688 198.2344,246.2969 Q197.1563,246.75 195.8594,246.75 Q194.3438,246.75 193.1406,246.125 Q192.1563,245.625 191.4688,244.5547 Q190.7813,243.4844 190.7813,242.2031 L190.7813,241.0469 Q190.7813,239.7188 191.3984,238.5703 Q192.0156,237.4219 193.1094,236.8047 Q194.2031,236.1875 195.4375,236.1875 Q196.1719,236.1875 196.8203,236.3516 Q197.4688,236.5156 198.0156,236.875 Z " fill="#000000"/><text fill="#000000" font-family="sans-serif" font-size="14" lengthAdjust="spacing" textLength="79" x="215.75" y="246.7285">Repositories</text><line style="stroke:#181818;stroke-width:0.5;" x1="147" x2="331" y1="257" y2="257"/><line style="stroke:#181818;stroke-width:0.5;" x1="147" x2="331" y1="265" y2="265"/><ellipse cx="157" cy="279.3047" fill="#84BE84" rx="3" ry="3" style="stroke:#038048;stroke-width:1.0;"/><text fill="#000000" font-family="sans-serif" font-size="14" lengthAdjust="spacing" textLength="83" x="166" y="283.5332">getInstance()</text><ellipse cx="157" cy="296.9141" fill="#84BE84" rx="3" ry="3" style="stroke:#038048;stroke-width:1.0;"/><text fill="#000000" font-family="sans-serif" font-size="14" lengthAdjust="spacing" textLength="160" x="166" y="301.1426">getEmployeeRepository()</text><ellipse cx="157" cy="314.5234" fill="#84BE84" rx="3" ry="3" style="stroke:#038048;stroke-width:1.0;"/><text fill="#000000" font-family="sans-serif" font-size="14" lengthAdjust="spacing" textLength="143" x="166" y="318.752">getBranchRepository()</text></g><!--MD5=[7588bbb3cde5cc7621dae79bc0457063]
link ListAllEmployeesUI to ListAllEmployeesController--><g id="link_ListAllEmployeesUI_ListAllEmployeesController"><path codeLine="48" d="M239,55.22 C239,71.48 239,93.32 239,110.62 " fill="none" id="ListAllEmployeesUI-to-ListAllEmployeesController" style="stroke:#181818;stroke-width:1.0;stroke-dasharray:7.0,7.0;"/><polygon fill="#181818" points="239,115.83,243,106.83,239,110.83,235,106.83,239,115.83" style="stroke:#181818;stroke-width:1.0;"/></g><!--MD5=[4c99a07cf4893793aa828e52ba8793db]
link ListAllEmployeesController to Repositories--><g id="link_ListAllEmployeesController_Repositories"><path codeLine="49" d="M239,164.25 C239,179.55 239,200.24 239,219.57 " fill="none" id="ListAllEmployeesController-to-Repositories" style="stroke:#181818;stroke-width:1.0;stroke-dasharray:7.0,7.0;"/><polygon fill="#181818" points="239,224.98,243,215.98,239,219.98,235,215.98,239,224.98" style="stroke:#181818;stroke-width:1.0;"/></g><!--MD5=[570d30551b032a4ed7c443b40510d79f]
link ListAllEmployeesController to BranchRepository--><g id="link_ListAllEmployeesController_BranchRepository"><path codeLine="50" d="M190.68,164.08 C167.17,178.12 141.18,198.49 128,225 C103.75,273.75 107.93,336.99 115.74,381.57 " fill="none" id="ListAllEmployeesController-to-BranchRepository" style="stroke:#181818;stroke-width:1.0;stroke-dasharray:7.0,7.0;"/><polygon fill="#181818" points="116.66,386.64,119.0002,377.0732,115.7731,381.7193,111.1271,378.4922,116.66,386.64" style="stroke:#181818;stroke-width:1.0;"/></g><!--MD5=[c63b23d1f273b04bf6452b13b7400904]
link ListAllEmployeesController to EmployeeRepository--><g id="link_ListAllEmployeesController_EmployeeRepository"><path codeLine="51" d="M339.26,161.61 C373.67,174 408.63,193.72 429,225 C461.19,274.43 452.98,345.11 442.4,390.9 " fill="none" id="ListAllEmployeesController-to-EmployeeRepository" style="stroke:#181818;stroke-width:1.0;stroke-dasharray:7.0,7.0;"/><polygon fill="#181818" points="441.23,395.81,447.2068,387.982,442.3887,390.9461,439.4246,386.128,441.23,395.81" style="stroke:#181818;stroke-width:1.0;"/></g><!--MD5=[fff48e9c385a875a0ec7f6b68c295159]
link Repositories to Repositories--><g id="link_Repositories_Repositories"><path codeLine="54" d="M332.2,260.94 C352.37,262.37 367,267.22 367,275.5 C367,283.07 354.78,287.77 337.27,289.61 " fill="none" id="Repositories-to-Repositories" style="stroke:#181818;stroke-width:1.0;"/><polygon fill="#181818" points="332.2,290.06,341.5186,293.248,337.1804,289.6176,340.8108,285.2794,332.2,290.06" style="stroke:#181818;stroke-width:1.0;"/><text fill="#000000" font-family="sans-serif" font-size="13" lengthAdjust="spacing" textLength="49" x="373" y="280.9951">Instance</text></g><!--MD5=[8d24fe9c69bd7963426d4c642c9bd288]
link Repositories to EmployeeRepository--><g id="link_Repositories_EmployeeRepository"><path codeLine="55" d="M297.82,326.03 C323.06,347.29 352.31,371.92 376.77,392.52 " fill="none" id="Repositories-to-EmployeeRepository" style="stroke:#181818;stroke-width:1.0;"/><polygon fill="#181818" points="380.66,395.79,376.3391,386.9396,376.8306,392.575,371.1952,393.0666,380.66,395.79" style="stroke:#181818;stroke-width:1.0;"/><text fill="#000000" font-family="sans-serif" font-size="13" lengthAdjust="spacing" textLength="7" x="365.074" y="385.0629">1</text></g><!--MD5=[a7eb298d0081e33b48b65eae60dc9493]
link Repositories to BranchRepository--><g id="link_Repositories_BranchRepository"><path codeLine="56" d="M204.8,326.25 C192.59,344.01 178.78,364.1 166.32,382.22 " fill="none" id="Repositories-to-BranchRepository" style="stroke:#181818;stroke-width:1.0;"/><polygon fill="#181818" points="163.18,386.78,171.5666,381.6162,166.006,382.6552,164.9669,377.0946,163.18,386.78" style="stroke:#181818;stroke-width:1.0;"/><text fill="#000000" font-family="sans-serif" font-size="13" lengthAdjust="spacing" textLength="7" x="160.4944" y="376.0544">1</text></g><!--MD5=[a6a58f0aa51126e5edbb6a9af8bb9eb6]
link BranchRepository to Branch--><g id="link_BranchRepository_Branch"><path codeLine="61" d="M162.89,488.21 C175.82,507.18 190.09,528.13 201.14,544.33 " fill="none" id="BranchRepository-to-Branch" style="stroke:#181818;stroke-width:1.0;"/><polygon fill="#181818" points="204.16,548.77,202.3959,539.0804,201.3438,544.6386,195.7856,543.5864,204.16,548.77" style="stroke:#181818;stroke-width:1.0;"/><text fill="#000000" font-family="sans-serif" font-size="13" lengthAdjust="spacing" textLength="5" x="194.4604" y="538.0512">*</text></g><!--MD5=[0e552dc1d2e8925ba0d9f15969827feb]
link EmployeeRepository to Employee--><g id="link_EmployeeRepository_Employee"><path codeLine="62" d="M424.11,479.28 C421.61,500.17 418.62,525.07 416.38,543.81 " fill="none" id="EmployeeRepository-to-Employee" style="stroke:#181818;stroke-width:1.0;"/><polygon fill="#181818" points="415.77,548.92,420.8196,540.4641,416.3691,543.956,412.8772,539.5056,415.77,548.92" style="stroke:#181818;stroke-width:1.0;"/><text fill="#000000" font-family="sans-serif" font-size="13" lengthAdjust="spacing" textLength="5" x="410.8392" y="538.2397">*</text></g><!--MD5=[4aadc2bdd2b25bc802a693fd30104ac2]
link Branch to Employee--><g id="link_Branch_Employee"><path codeLine="64" d="M258.59,573 C287.93,573 328.61,573 360.85,573 " fill="none" id="Branch-to-Employee" style="stroke:#181818;stroke-width:1.0;"/><polygon fill="#181818" points="365.95,573,356.95,569,360.95,573,356.95,577,365.95,573" style="stroke:#181818;stroke-width:1.0;"/><text fill="#000000" font-family="sans-serif" font-size="13" lengthAdjust="spacing" textLength="56" x="284.25" y="566.4951">employes</text><text fill="#000000" font-family="sans-serif" font-size="13" lengthAdjust="spacing" textLength="7" x="266.6134" y="569.0036">1</text><text fill="#000000" font-family="sans-serif" font-size="13" lengthAdjust="spacing" textLength="5" x="353.053" y="569.2481">*</text></g><!--MD5=[7bf44b79ee06316ac558472c21a4c863]
@startuml

class Branch {

   
}

class Employee {


}

class ListAllEmployeesUI {

    

}

class ListAllEmployeesController {

  
}

class BranchRepository {

    +getAllBranches()
    +sortBranchesByListings(Branches)
    +getListingTotalByBranch(ID)
    
}

class EmployeeRepository {

    +getEmployeesByBranchID(ID)
    +sortEmployeesAlphabetically(Employees)

}


class Repositories {

    +getInstance()
    +getEmployeeRepository()
    +getBranchRepository()

}


ListAllEmployeesUI -[dashed]-> ListAllEmployeesController
ListAllEmployeesController-[dashed]-> Repositories
ListAllEmployeesController-[dashed]-> BranchRepository
ListAllEmployeesController-[dashed]-> EmployeeRepository


Repositories -> Repositories : Instance
Repositories - -> "1" EmployeeRepository
Repositories - -> "1" BranchRepository




BranchRepository -down-> "*" Branch
EmployeeRepository -down-> "*" Employee

Branch "1" -right-> "*" Employee : employes


@enduml

PlantUML version 1.2022.7(Mon Aug 22 18:01:30 BST 2022)
(GPL source distribution)
Java Runtime: Java(TM) SE Runtime Environment
JVM: Java HotSpot(TM) 64-Bit Server VM
Default Encoding: Cp1252
Language: pt
Country: PT
--></g></svg>