<?xml version="1.0" encoding="us-ascii" standalone="no"?><svg xmlns="http://www.w3.org/2000/svg" xmlns:xlink="http://www.w3.org/1999/xlink" contentStyleType="text/css" height="371px" preserveAspectRatio="none" style="width:539px;height:371px;background:#FFFFFF;" version="1.1" viewBox="0 0 539 371" width="539px" zoomAndPan="magnify"><defs/><g><g id="elem_Client"><rect fill="#F1F1F1" height="38.6211" style="stroke:#181818;stroke-width:0.5;" width="50" x="7" y="9.2627"/><text fill="#000000" font-family="sans-serif" font-size="14" lengthAdjust="spacing" textLength="36" x="14" y="26.3701">Client</text><line style="stroke:#181818;stroke-width:0.5;" x1="8" x2="56" y1="31.8838" y2="31.8838"/></g><g id="elem_Order"><rect fill="#F1F1F1" height="38.6211" style="stroke:#181818;stroke-width:0.5;" width="51" x="139.5" y="9.2627"/><text fill="#000000" font-family="sans-serif" font-size="14" lengthAdjust="spacing" textLength="37" x="146.5" y="26.3701">Order</text><line style="stroke:#181818;stroke-width:0.5;" x1="140.5" x2="189.5" y1="31.8838" y2="31.8838"/></g><g id="elem_Announcement"><rect fill="#F1F1F1" height="38.6211" style="stroke:#181818;stroke-width:0.5;" width="109" x="265.5" y="9.2627"/><text fill="#000000" font-family="sans-serif" font-size="14" lengthAdjust="spacing" textLength="95" x="272.5" y="26.3701">Announcement</text><line style="stroke:#181818;stroke-width:0.5;" x1="266.5" x2="373.5" y1="31.8838" y2="31.8838"/></g><g id="elem_Property"><rect fill="#F1F1F1" height="38.6211" style="stroke:#181818;stroke-width:0.5;" width="68" x="131" y="127.2627"/><text fill="#000000" font-family="sans-serif" font-size="14" lengthAdjust="spacing" textLength="54" x="138" y="144.3701">Property</text><line style="stroke:#181818;stroke-width:0.5;" x1="132" x2="198" y1="149.8838" y2="149.8838"/></g><g id="elem_House"><rect fill="#F1F1F1" height="38.6211" style="stroke:#181818;stroke-width:0.5;" width="54" x="33" y="227.2627"/><text fill="#000000" font-family="sans-serif" font-size="14" lengthAdjust="spacing" textLength="40" x="40" y="244.3701">House</text><line style="stroke:#181818;stroke-width:0.5;" x1="34" x2="86" y1="249.8838" y2="249.8838"/></g><g id="elem_Apartment"><rect fill="#F1F1F1" height="38.6211" style="stroke:#181818;stroke-width:0.5;" width="79" x="122.5" y="227.2627"/><text fill="#000000" font-family="sans-serif" font-size="14" lengthAdjust="spacing" textLength="65" x="129.5" y="244.3701">Apartment</text><line style="stroke:#181818;stroke-width:0.5;" x1="123.5" x2="200.5" y1="249.8838" y2="249.8838"/></g><g id="elem_Land"><rect fill="#F1F1F1" height="38.6211" style="stroke:#181818;stroke-width:0.5;" width="46" x="237" y="227.2627"/><text fill="#000000" font-family="sans-serif" font-size="14" lengthAdjust="spacing" textLength="32" x="244" y="244.3701">Land</text><line style="stroke:#181818;stroke-width:0.5;" x1="238" x2="282" y1="249.8838" y2="249.8838"/></g><g id="elem_Commission"><rect fill="#F1F1F1" height="38.6211" style="stroke:#181818;stroke-width:0.5;" width="90" x="318" y="227.2627"/><text fill="#000000" font-family="sans-serif" font-size="14" lengthAdjust="spacing" textLength="76" x="325" y="244.3701">Commission</text><line style="stroke:#181818;stroke-width:0.5;" x1="319" x2="407" y1="249.8838" y2="249.8838"/></g><g id="elem_FixedCommission"><rect fill="#F1F1F1" height="38.6211" style="stroke:#181818;stroke-width:0.5;" width="124" x="211" y="327.2627"/><text fill="#000000" font-family="sans-serif" font-size="14" lengthAdjust="spacing" textLength="110" x="218" y="344.3701">FixedCommission</text><line style="stroke:#181818;stroke-width:0.5;" x1="212" x2="334" y1="349.8838" y2="349.8838"/></g><g id="elem_PercentageCommission"><rect fill="#F1F1F1" height="38.6211" style="stroke:#181818;stroke-width:0.5;" width="163" x="370.5" y="327.2627"/><text fill="#000000" font-family="sans-serif" font-size="14" lengthAdjust="spacing" textLength="149" x="377.5" y="344.3701">PercentageCommission</text><line style="stroke:#181818;stroke-width:0.5;" x1="371.5" x2="532.5" y1="349.8838" y2="349.8838"/></g><!--link Client to Order--><g id="link_Client_Order"><path codeLine="43" d="M57.02,28.7627 C78.84,28.7627 110.6,28.7627 134.02,28.7627 " fill="none" id="Client-to-Order" style="stroke:#181818;stroke-width:1.0;"/><polygon fill="#181818" points="139.19,28.7627,130.19,24.7627,134.19,28.7627,130.19,32.7627,139.19,28.7627" style="stroke:#181818;stroke-width:1.0;"/><text fill="#000000" font-family="sans-serif" font-size="13" lengthAdjust="spacing" textLength="46" x="75.25" y="21.791">submits</text></g><!--link Announcement to Property--><g id="link_Announcement_Property"><path codeLine="45" d="M295.1,48.4027 C266.17,70.0427 218.74,105.5427 189.84,127.1727 " fill="none" id="Announcement-Property" style="stroke:#181818;stroke-width:1.0;"/><polygon fill="#000000" points="252.9968,90.9039,261.9995,87.8376,258.4778,83.1316,252.9968,90.9039" style="stroke:#000000;stroke-width:1.0;"/><text fill="#000000" font-family="sans-serif" font-size="13" lengthAdjust="spacing" textLength="49" x="266" y="93.291">contains</text><text fill="#000000" font-family="sans-serif" font-size="13" lengthAdjust="spacing" textLength="7" x="280.4675" y="70.0837">1</text><text fill="#000000" font-family="sans-serif" font-size="13" lengthAdjust="spacing" textLength="7" x="189.1086" y="116.048">1</text></g><!--link Announcement to Commission--><g id="link_Announcement_Commission"><path codeLine="46" d="M323.74,48.5527 C331.57,87.9027 349.69,178.9127 358.3,222.1427 " fill="none" id="Announcement-to-Commission" style="stroke:#181818;stroke-width:1.0;"/><polygon fill="#181818" points="359.3,227.1727,361.4734,217.5666,358.3277,222.2681,353.6262,219.1224,359.3,227.1727" style="stroke:#181818;stroke-width:1.0;"/><polygon fill="#000000" points="353.9763,151.812,355.0925,142.3671,349.3278,143.5148,353.9763,151.812" style="stroke:#000000;stroke-width:1.0;"/><text fill="#000000" font-family="sans-serif" font-size="13" lengthAdjust="spacing" textLength="32" x="362" y="152.291">has a</text><text fill="#000000" font-family="sans-serif" font-size="13" lengthAdjust="spacing" textLength="7" x="316.8015" y="69.9162">1</text><text fill="#000000" font-family="sans-serif" font-size="13" lengthAdjust="spacing" textLength="7" x="350.185" y="216.048">1</text></g><!--reverse link Property to House--><g id="link_Property_House"><path codeLine="48" d="M130.1,180.3327 C113.39,195.9327 93.98,214.0527 79.83,227.2527 " fill="none" id="Property-backto-House" style="stroke:#181818;stroke-width:1.0;"/><polygon fill="none" points="125.36,175.1827,144.75,166.6627,134.91,185.4227,125.36,175.1827" style="stroke:#181818;stroke-width:1.0;"/></g><!--reverse link Property to Apartment--><g id="link_Property_Apartment"><path codeLine="49" d="M163.8,186.9427 C163.37,200.8627 162.91,215.8827 162.57,227.2527 " fill="none" id="Property-backto-Apartment" style="stroke:#181818;stroke-width:1.0;"/><polygon fill="none" points="156.81,186.4327,164.42,166.6627,170.81,186.8627,156.81,186.4327" style="stroke:#181818;stroke-width:1.0;"/></g><!--reverse link Property to Land--><g id="link_Property_Land"><path codeLine="50" d="M197.27,181.0527 C212.24,196.4927 229.46,214.2527 242.06,227.2527 " fill="none" id="Property-backto-Land" style="stroke:#181818;stroke-width:1.0;"/><polygon fill="none" points="192.21,185.8927,183.32,166.6627,202.26,176.1427,192.21,185.8927" style="stroke:#181818;stroke-width:1.0;"/></g><!--reverse link Commission to FixedCommission--><g id="link_Commission_FixedCommission"><path codeLine="52" d="M331.98,281.5427 C317.91,296.8627 301.81,314.3927 289.99,327.2527 " fill="none" id="Commission-backto-FixedCommission" style="stroke:#181818;stroke-width:1.0;"/><polygon fill="none" points="326.96,276.6527,345.65,266.6627,337.27,286.1227,326.96,276.6527" style="stroke:#181818;stroke-width:1.0;"/></g><!--reverse link Commission to PercentageCommission--><g id="link_Commission_PercentageCommission"><path codeLine="53" d="M393.67,281.5427 C407.59,296.8627 423.51,314.3927 435.19,327.2527 " fill="none" id="Commission-backto-PercentageCommission" style="stroke:#181818;stroke-width:1.0;"/><polygon fill="none" points="388.42,286.1727,380.16,266.6627,398.79,276.7527,388.42,286.1727" style="stroke:#181818;stroke-width:1.0;"/></g><!--link Order to Property--><g id="link_Order_Property"><path codeLine="55" d="M165,48.4027 C165,68.4427 165,100.3527 165,122.1427 " fill="none" id="Order-to-Property" style="stroke:#181818;stroke-width:1.0;"/><polygon fill="#181818" points="165,127.1727,169,118.1727,165,122.1727,161,118.1727,165,127.1727" style="stroke:#181818;stroke-width:1.0;"/><polygon fill="#000000" points="170,92.9082,172.9389,83.8631,167.0611,83.8631,170,92.9082" style="stroke:#000000;stroke-width:1.0;"/><text fill="#000000" font-family="sans-serif" font-size="13" lengthAdjust="spacing" textLength="36" x="179" y="93.291">to buy</text></g><!--SRC=[RP712i8m44Jl-nLBxpruBLAGWdWGz1VITj68pPOa1OlwxwQjDYRjAU7jCfcPS7cZoc9nbwGiFW7U03onawv9XsYd57UgecQnVDRSahPzI0_S6HhGlqOhj5qA78MgGr9mqqXZ9Ai0x-M3QZ-BR92kdBIuq6BZ6p7Dfs0Pcgvif3K0GQfaas2QZiSlKuOLEqsf3EPhoqvokFWNCxmAWy9jmzpBzkLKnpuYDlSHyQ4Gvzh766cKVZ5VAm1W-ih1gCza6SkkTnu_]--></g></svg>