<?xml version="1.0" encoding="UTF-8" standalone="no"?><svg xmlns="http://www.w3.org/2000/svg" xmlns:xlink="http://www.w3.org/1999/xlink" contentScriptType="application/ecmascript" contentStyleType="text/css" height="854px" preserveAspectRatio="none" style="width:802px;height:854px;background:#FFFFFF;" version="1.1" viewBox="0 0 802 854" width="802px" zoomAndPan="magnify"><defs><filter height="300%" id="f1gju7ou946kvl" width="300%" x="-1" y="-1"><feGaussianBlur result="blurOut" stdDeviation="2.0"/><feColorMatrix in="blurOut" result="blurOut2" type="matrix" values="0 0 0 0 0 0 0 0 0 0 0 0 0 0 0 0 0 0 .4 0"/><feOffset dx="4.0" dy="4.0" in="blurOut2" result="blurOut3"/><feBlend in="SourceGraphic" in2="blurOut3" mode="normal"/></filter></defs><g><!--MD5=[97ab183161fd5d1db7fba7485cf76add]
entity Admin--><ellipse cx="72.5" cy="614.5" fill="#FEFECE" filter="url(#f1gju7ou946kvl)" rx="8" ry="8" style="stroke:#A80036;stroke-width:1.5;"/><path d="M72.5,622.5 L72.5,649.5 M59.5,630.5 L85.5,630.5 M72.5,649.5 L59.5,664.5 M72.5,649.5 L85.5,664.5 " fill="none" filter="url(#f1gju7ou946kvl)" style="stroke:#A80036;stroke-width:1.5;"/><text fill="#000000" font-family="sans-serif" font-size="14" lengthAdjust="spacing" textLength="133" x="6" y="684.5332">System Administrator</text><!--MD5=[a9feaec54e7289d63ef0106ea744f0cd]
entity UnregUser--><ellipse cx="72.5" cy="333.5" fill="#FEFECE" filter="url(#f1gju7ou946kvl)" rx="8" ry="8" style="stroke:#A80036;stroke-width:1.5;"/><path d="M72.5,341.5 L72.5,368.5 M59.5,349.5 L85.5,349.5 M72.5,368.5 L59.5,383.5 M72.5,368.5 L85.5,383.5 " fill="none" filter="url(#f1gju7ou946kvl)" style="stroke:#A80036;stroke-width:1.5;"/><text fill="#000000" font-family="sans-serif" font-size="14" lengthAdjust="spacing" textLength="114" x="15.5" y="403.5332">Unregistered User</text><!--MD5=[9cb65aab968679016cabe6121c7526ca]
entity Agent--><ellipse cx="72.5" cy="171.5" fill="#FEFECE" filter="url(#f1gju7ou946kvl)" rx="8" ry="8" style="stroke:#A80036;stroke-width:1.5;"/><path d="M72.5,179.5 L72.5,206.5 M59.5,187.5 L85.5,187.5 M72.5,206.5 L59.5,221.5 M72.5,206.5 L85.5,221.5 " fill="none" filter="url(#f1gju7ou946kvl)" style="stroke:#A80036;stroke-width:1.5;"/><text fill="#000000" font-family="sans-serif" font-size="14" lengthAdjust="spacing" textLength="37" x="54" y="241.5332">Agent</text><!--MD5=[443a25782ed9d9100e54cbf2ea68ee04]
entity Owner--><ellipse cx="72.5" cy="35.5" fill="#FEFECE" filter="url(#f1gju7ou946kvl)" rx="8" ry="8" style="stroke:#A80036;stroke-width:1.5;"/><path d="M72.5,43.5 L72.5,70.5 M59.5,51.5 L85.5,51.5 M72.5,70.5 L59.5,85.5 M72.5,70.5 L85.5,85.5 " fill="none" filter="url(#f1gju7ou946kvl)" style="stroke:#A80036;stroke-width:1.5;"/><text fill="#000000" font-family="sans-serif" font-size="14" lengthAdjust="spacing" textLength="41" x="52" y="105.5332">Owner</text><ellipse cx="494.8167" cy="304.3633" fill="#FEFECE" filter="url(#f1gju7ou946kvl)" rx="117.3167" ry="25.8633" style="stroke:#A80036;stroke-width:1.5;"/><text fill="#000000" font-family="sans-serif" font-size="14" lengthAdjust="spacing" textLength="199" x="395.3167" y="308.0919">US001: display listed properties</text><ellipse cx="494.8926" cy="203.4785" fill="#FEFECE" filter="url(#f1gju7ou946kvl)" rx="185.3926" ry="39.4785" style="stroke:#A80036;stroke-width:1.5;"/><text fill="#000000" font-family="sans-serif" font-size="14" lengthAdjust="spacing" textLength="342" x="323.8926" y="207.207">US002: publish any sale announcement on the system</text><ellipse cx="495.1279" cy="512.3256" fill="#FEFECE" filter="url(#f1gju7ou946kvl)" rx="119.6279" ry="26.3256" style="stroke:#A80036;stroke-width:1.5;"/><text fill="#000000" font-family="sans-serif" font-size="14" lengthAdjust="spacing" textLength="204" x="393.1279" y="516.0541">US003: register a new employee</text><ellipse cx="494.8281" cy="67.5656" fill="#FEFECE" filter="url(#f1gju7ou946kvl)" rx="295.8281" ry="61.5656" style="stroke:#A80036;stroke-width:1.5;"/><text fill="#000000" font-family="sans-serif" font-size="14" lengthAdjust="spacing" textLength="567" x="211.3281" y="71.2941">US004: submit a request for listing a property sale or rent, choosing the responsible agent</text><ellipse cx="494.9382" cy="595.5876" fill="#FEFECE" filter="url(#f1gju7ou946kvl)" rx="93.4382" ry="21.0876" style="stroke:#A80036;stroke-width:1.5;"/><text fill="#000000" font-family="sans-serif" font-size="14" lengthAdjust="spacing" textLength="146" x="421.9382" y="599.3162">US005: register a store</text><ellipse cx="494.9915" cy="698.5983" fill="#FEFECE" filter="url(#f1gju7ou946kvl)" rx="220.9915" ry="46.5983" style="stroke:#A80036;stroke-width:1.5;"/><text fill="#000000" font-family="sans-serif" font-size="14" lengthAdjust="spacing" textLength="415" x="287.4915" y="702.3268">US006: specify districts, municipalities, and parishes in the system</text><ellipse cx="494.9951" cy="408.299" fill="#FEFECE" filter="url(#f1gju7ou946kvl)" rx="199.4951" ry="42.299" style="stroke:#A80036;stroke-width:1.5;"/><text fill="#000000" font-family="sans-serif" font-size="14" lengthAdjust="spacing" textLength="371" x="309.4951" y="412.0275">US007: register in the system to buy, sell or rent properties</text><ellipse cx="494.9967" cy="811.3993" fill="#FEFECE" filter="url(#f1gju7ou946kvl)" rx="144.9967" ry="31.3993" style="stroke:#A80036;stroke-width:1.5;"/><text fill="#000000" font-family="sans-serif" font-size="14" lengthAdjust="spacing" textLength="258" x="365.9967" y="815.1279">US012: Import data from a legacy system</text><!--MD5=[79323471697a6aa45d466d0fe7ad5581]
link UnregUser to US001: display listed properties--><path d="M129.77,357.34 C196.35,347.68 308.51,331.41 390.81,319.47 " fill="none" id="UnregUser-to-US001: display listed properties" style="stroke:#A80036;stroke-width:1.0;"/><polygon fill="#A80036" points="396.19,318.69,386.7115,316.0145,391.2411,319.4031,387.8525,323.9327,396.19,318.69" style="stroke:#A80036;stroke-width:1.0;"/><!--MD5=[54cb277370632ed399c58e0c4f615c14]
link Agent to US002: publish any sale announcement on the system--><path d="M91.03,203.5 C128.18,203.5 218.45,203.5 304.15,203.5 " fill="none" id="Agent-to-US002: publish any sale announcement on the system" style="stroke:#A80036;stroke-width:1.0;"/><polygon fill="#A80036" points="309.27,203.5,300.27,199.5,304.27,203.5,300.27,207.5,309.27,203.5" style="stroke:#A80036;stroke-width:1.0;"/><!--MD5=[5e09b273577955ce4ee6daf9f7edba78]
link Admin to US003: register a new employee--><path d="M121.03,604.8 C143.28,587.48 171.02,568.81 199,557.5 C253.56,535.45 317.78,524.11 372.34,518.31 " fill="none" id="Admin-to-US003: register a new employee" style="stroke:#A80036;stroke-width:1.0;"/><polygon fill="#A80036" points="377.59,517.77,368.2262,514.7173,372.6165,518.2845,369.0494,522.6749,377.59,517.77" style="stroke:#A80036;stroke-width:1.0;"/><!--MD5=[800e59c66ac41e55a44d4122d9be370f]
link Owner to US004: submit a request for listing a property sale or rent, choosing the responsible agent--><path d="M93.22,67.5 C114.44,67.5 150.94,67.5 193.53,67.5 " fill="none" id="Owner-to-US004: submit a request for listing a property sale or rent, choosing the responsible agent" style="stroke:#A80036;stroke-width:1.0;"/><polygon fill="#A80036" points="198.76,67.5,189.76,63.5,193.76,67.5,189.76,71.5,198.76,67.5" style="stroke:#A80036;stroke-width:1.0;"/><!--MD5=[40ad3ccc9411b17089dfa85077f8b7fa]
link Admin to US005: register a store--><path d="M139.2,638.53 C211.31,629.79 327.36,615.71 406.98,606.05 " fill="none" id="Admin-to-US005: register a store" style="stroke:#A80036;stroke-width:1.0;"/><polygon fill="#A80036" points="412.18,605.42,402.7646,602.5304,407.2162,606.0208,403.7259,610.4725,412.18,605.42" style="stroke:#A80036;stroke-width:1.0;"/><!--MD5=[ecf9ba9317000684d83929fdf9e914ea]
link Admin to US006: specify districts, municipalities, and parishes in the system--><path d="M139.2,654.62 C182.37,659.96 241.28,667.25 298.7,674.35 " fill="none" id="Admin-to-US006: specify districts, municipalities, and parishes in the system" style="stroke:#A80036;stroke-width:1.0;"/><polygon fill="#A80036" points="303.9,674.99,295.4602,669.9136,298.938,674.3751,294.4764,677.8528,303.9,674.99" style="stroke:#A80036;stroke-width:1.0;"/><!--MD5=[8748d05ab8a71f45cecc8c47bd1eef7a]
link UnregUser to US007: register in the system to buy, sell or rent properties--><path d="M129.77,371.25 C176.12,375.99 244.57,382.99 309.66,389.65 " fill="none" id="UnregUser-to-US007: register in the system to buy, sell or rent properties" style="stroke:#A80036;stroke-width:1.0;"/><polygon fill="#A80036" points="314.73,390.17,306.1894,385.2651,309.7565,389.6555,305.3662,393.2227,314.73,390.17" style="stroke:#A80036;stroke-width:1.0;"/><!--MD5=[f7ef8fdf80cbc89ee264e62240de1a0c]
link Admin to US012: Import data from a legacy system--><path d="M107.26,688.23 C130.34,713.82 163.16,744.95 199,762.5 C244.76,784.9 298.78,797.33 348.01,804.14 " fill="none" id="Admin-to-US012: Import data from a legacy system" style="stroke:#A80036;stroke-width:1.0;"/><polygon fill="#A80036" points="353.06,804.82,344.6783,799.6482,348.1052,804.1489,343.6046,807.5758,353.06,804.82" style="stroke:#A80036;stroke-width:1.0;"/><!--MD5=[4ade574f71a435eff940010865696971]
@startuml

:System Administrator: as Admin
:Unregistered User: as UnregUser
:Agent: as Agent
:Owner: as Owner

Left to right direction

UnregUser - -> (US001: display listed properties)

Agent - -> (US002: publish any sale announcement on the system)

Admin - -> (US003: register a new employee)

Owner - -> (US004: submit a request for listing a property sale or rent, choosing the responsible agent)

Admin - -> (US005: register a store)

Admin - -> (US006: specify districts, municipalities, and parishes in the system)

UnregUser - -> (US007: register in the system to buy, sell or rent properties)

Admin - -> (US012: Import data from a legacy system)

@enduml

PlantUML version 1.2022.1(Tue Feb 01 18:19:58 GMT 2022)
(GPL source distribution)
Java Runtime: OpenJDK Runtime Environment
JVM: OpenJDK 64-Bit Server VM
Default Encoding: Cp1252
Language: en
Country: US
--></g></svg>