<?xml version="1.0" encoding="us-ascii" standalone="no"?><svg xmlns="http://www.w3.org/2000/svg" xmlns:xlink="http://www.w3.org/1999/xlink" contentStyleType="text/css" height="1808px" preserveAspectRatio="none" style="width:1315px;height:1808px;background:#FFFFFF;" version="1.1" viewBox="0 0 1315 1808" width="1315px" zoomAndPan="magnify"><defs/><g><!--entity Admin--><g id="elem_Admin"><ellipse cx="72.5" cy="1574.5" fill="#F1F1F1" rx="8" ry="8" style="stroke:#181818;stroke-width:0.5;"/><path d="M72.5,1582.5 L72.5,1609.5 M59.5,1590.5 L85.5,1590.5 M72.5,1609.5 L59.5,1624.5 M72.5,1609.5 L85.5,1624.5 " fill="none" style="stroke:#181818;stroke-width:0.5;"/><text fill="#000000" font-family="sans-serif" font-size="14" lengthAdjust="spacing" textLength="133" x="6" y="1641.1074">System Administrator</text></g><!--entity UnregUser--><g id="elem_UnregUser"><ellipse cx="72.5" cy="1284.5" fill="#F1F1F1" rx="8" ry="8" style="stroke:#181818;stroke-width:0.5;"/><path d="M72.5,1292.5 L72.5,1319.5 M59.5,1300.5 L85.5,1300.5 M72.5,1319.5 L59.5,1334.5 M72.5,1319.5 L85.5,1334.5 " fill="none" style="stroke:#181818;stroke-width:0.5;"/><text fill="#000000" font-family="sans-serif" font-size="14" lengthAdjust="spacing" textLength="114" x="15.5" y="1351.1074">Unregistered User</text></g><!--entity Agent--><g id="elem_Agent"><ellipse cx="72.5" cy="859.5" fill="#F1F1F1" rx="8" ry="8" style="stroke:#181818;stroke-width:0.5;"/><path d="M72.5,867.5 L72.5,894.5 M59.5,875.5 L85.5,875.5 M72.5,894.5 L59.5,909.5 M72.5,894.5 L85.5,909.5 " fill="none" style="stroke:#181818;stroke-width:0.5;"/><text fill="#000000" font-family="sans-serif" font-size="14" lengthAdjust="spacing" textLength="37" x="54" y="926.1074">Agent</text></g><!--entity Owner--><g id="elem_Owner"><ellipse cx="72.5" cy="599.5" fill="#F1F1F1" rx="8" ry="8" style="stroke:#181818;stroke-width:0.5;"/><path d="M72.5,607.5 L72.5,634.5 M59.5,615.5 L85.5,615.5 M72.5,634.5 L59.5,649.5 M72.5,634.5 L85.5,649.5 " fill="none" style="stroke:#181818;stroke-width:0.5;"/><text fill="#000000" font-family="sans-serif" font-size="14" lengthAdjust="spacing" textLength="41" x="52" y="666.1074">Owner</text></g><g id="elem_US001: display listed properties"><ellipse cx="754.3144" cy="1263.5629" fill="#F1F1F1" rx="118.3144" ry="26.0629" style="stroke:#181818;stroke-width:0.5;"/><text fill="#000000" font-family="sans-serif" font-size="14" lengthAdjust="spacing" textLength="199" x="654.8144" y="1267.3598">US001: display listed properties</text></g><g id="elem_US002: publish any sale announcement on the system"><ellipse cx="754.5196" cy="766.6039" fill="#F1F1F1" rx="186.0196" ry="39.6039" style="stroke:#181818;stroke-width:0.5;"/><text fill="#000000" font-family="sans-serif" font-size="14" lengthAdjust="spacing" textLength="342" x="583.5196" y="770.4008">US002: publish any sale announcement on the system</text></g><g id="elem_US003: register a new employee"><ellipse cx="754.6059" cy="1471.5212" fill="#F1F1F1" rx="120.6059" ry="26.5212" style="stroke:#181818;stroke-width:0.5;"/><text fill="#000000" font-family="sans-serif" font-size="14" lengthAdjust="spacing" textLength="204" x="652.6059" y="1475.3181">US003: register a new employee</text></g><g id="elem_US004: submit a request for listing a property sale or rent, choosing the responsible agent"><ellipse cx="754.719" cy="630.6438" fill="#F1F1F1" rx="296.219" ry="61.6438" style="stroke:#181818;stroke-width:0.5;"/><text fill="#000000" font-family="sans-serif" font-size="14" lengthAdjust="spacing" textLength="567" x="471.219" y="634.4407">US004: submit a request for listing a property sale or rent, choosing the responsible agent</text></g><g id="elem_US005: register a store"><ellipse cx="754.3554" cy="1554.3711" fill="#F1F1F1" rx="94.8554" ry="21.3711" style="stroke:#181818;stroke-width:0.5;"/><text fill="#000000" font-family="sans-serif" font-size="14" lengthAdjust="spacing" textLength="146" x="678.6093" y="1559.1">US005: register a store</text></g><g id="elem_US006: specify districts, municipalities, and parishes in the system"><ellipse cx="754.5164" cy="1657.7033" fill="#F1F1F1" rx="221.5164" ry="46.7033" style="stroke:#181818;stroke-width:0.5;"/><text fill="#000000" font-family="sans-serif" font-size="14" lengthAdjust="spacing" textLength="415" x="547.0164" y="1661.5002">US006: specify districts, municipalities, and parishes in the system</text></g><g id="elem_US007: register in the system to buy, sell or rent properties"><ellipse cx="754.5772" cy="1367.4154" fill="#F1F1F1" rx="200.0772" ry="42.4154" style="stroke:#181818;stroke-width:0.5;"/><text fill="#000000" font-family="sans-serif" font-size="14" lengthAdjust="spacing" textLength="371" x="569.0772" y="1371.2123">US007: register in the system to buy, sell or rent properties</text></g><g id="elem_US008: see the list of property announcement request made to myself"><ellipse cx="754.7448" cy="890.649" fill="#F1F1F1" rx="233.7448" ry="49.149" style="stroke:#181818;stroke-width:0.5;"/><text fill="#000000" font-family="sans-serif" font-size="14" lengthAdjust="spacing" textLength="440" x="534.7448" y="894.4458">US008: see the list of property announcement request made to myself</text></g><!--entity Client--><g id="elem_Client"><ellipse cx="72.5" cy="305.5" fill="#F1F1F1" rx="8" ry="8" style="stroke:#181818;stroke-width:0.5;"/><path d="M72.5,313.5 L72.5,340.5 M59.5,321.5 L85.5,321.5 M72.5,340.5 L59.5,355.5 M72.5,340.5 L85.5,355.5 " fill="none" style="stroke:#181818;stroke-width:0.5;"/><text fill="#000000" font-family="sans-serif" font-size="14" lengthAdjust="spacing" textLength="36" x="54.5" y="372.1074">Client</text></g><g id="elem_US009: leave a message to the agent to schedule a visit to a  property of my interest"><ellipse cx="754.455" cy="188.691" fill="#F1F1F1" rx="278.955" ry="58.191" style="stroke:#181818;stroke-width:0.5;"/><text fill="#000000" font-family="sans-serif" font-size="14" lengthAdjust="spacing" textLength="532" x="488.455" y="192.4879">US009: leave a message to the agent to schedule a visit to a  property of my interest</text></g><g id="elem_US010: I place an order to purchase the property, submitting the order amount."><ellipse cx="754.7145" cy="336.3429" fill="#F1F1F1" rx="262.2145" ry="54.8429" style="stroke:#181818;stroke-width:0.5;"/><text fill="#000000" font-family="sans-serif" font-size="14" lengthAdjust="spacing" textLength="498" x="505.7145" y="340.1398">US010: I place an order to purchase the property, submitting the order amount.</text></g><g id="elem_US011: list real estate purchase orders to accept or decline a purchase order for a property. After accepting or declining, an email notification should be sent to the customer"><ellipse cx="754.4648" cy="1088.493" fill="#F1F1F1" rx="555.4648" ry="113.493" style="stroke:#181818;stroke-width:0.5;"/><text fill="#000000" font-family="sans-serif" font-size="14" lengthAdjust="spacing" textLength="1089" x="209.9648" y="1092.2898">US011: list real estate purchase orders to accept or decline a purchase order for a property. After accepting or declining, an email notification should be sent to the customer</text></g><g id="elem_US012: Import data from a legacy system"><ellipse cx="754.3011" cy="1770.5602" fill="#F1F1F1" rx="145.8011" ry="31.5602" style="stroke:#181818;stroke-width:0.5;"/><text fill="#000000" font-family="sans-serif" font-size="14" lengthAdjust="spacing" textLength="258" x="625.3011" y="1774.3571">US012: Import data from a legacy system</text></g><!--entity NetworkManager--><g id="elem_NetworkManager"><ellipse cx="72.5" cy="19.5" fill="#F1F1F1" rx="8" ry="8" style="stroke:#181818;stroke-width:0.5;"/><path d="M72.5,27.5 L72.5,54.5 M59.5,35.5 L85.5,35.5 M72.5,54.5 L59.5,69.5 M72.5,54.5 L85.5,69.5 " fill="none" style="stroke:#181818;stroke-width:0.5;"/><text fill="#000000" font-family="sans-serif" font-size="14" lengthAdjust="spacing" textLength="106" x="19.5" y="86.1074">NetworkManager</text></g><g id="elem_US013: list all employees working in every store of the network"><ellipse cx="754.2949" cy="50.459" fill="#F1F1F1" rx="210.2949" ry="44.459" style="stroke:#181818;stroke-width:0.5;"/><text fill="#000000" font-family="sans-serif" font-size="14" lengthAdjust="spacing" textLength="392" x="558.2949" y="54.2558">US013: list all employees working in every store of the network</text></g><g id="elem_US014: read the response for the appointment requests, to accept or reject it"><ellipse cx="754.3229" cy="480.5646" fill="#F1F1F1" rx="255.8229" ry="53.5646" style="stroke:#181818;stroke-width:0.5;"/><text fill="#000000" font-family="sans-serif" font-size="14" lengthAdjust="spacing" textLength="485" x="511.8229" y="484.3615">US014: read the response for the appointment requests, to accept or reject it</text></g><!--link UnregUser to US001: display listed properties--><g id="link_UnregUser_US001: display listed properties"><path d="M129.73,1311.2 C240.58,1302.72 489.36,1283.7 637.06,1272.4 " fill="none" id="UnregUser-to-US001: display listed properties" style="stroke:#181818;stroke-width:1.0;"/><polygon fill="#181818" points="642.27,1272.01,632.9977,1268.6897,637.2838,1272.3815,633.592,1276.6676,642.27,1272.01" style="stroke:#181818;stroke-width:1.0;"/></g><!--link Agent to US002: publish any sale announcement on the system--><g id="link_Agent_US002: publish any sale announcement on the system"><path d="M91.26,878.35 C114.76,862.95 158.01,836.92 199,824.5 C316.97,788.76 454.8,774.22 563.53,768.64 " fill="none" id="Agent-to-US002: publish any sale announcement on the system" style="stroke:#181818;stroke-width:1.0;"/><polygon fill="#181818" points="568.68,768.38,559.496,764.8226,563.6859,768.6233,559.8853,772.8131,568.68,768.38" style="stroke:#181818;stroke-width:1.0;"/></g><!--link Admin to US003: register a new employee--><g id="link_Admin_US003: register a new employee"><path d="M116.26,1565.88 C139.07,1547.19 168.66,1526.6 199,1515.5 C342.32,1463.08 519.99,1458.61 634.99,1462.87 " fill="none" id="Admin-to-US003: register a new employee" style="stroke:#181818;stroke-width:1.0;"/><polygon fill="#181818" points="640.08,1463.06,631.2471,1458.7035,635.084,1462.8602,630.9273,1466.6971,640.08,1463.06" style="stroke:#181818;stroke-width:1.0;"/></g><!--link Owner to US004: submit a request for listing a property sale or rent, choosing the responsible agent--><g id="link_Owner_US004: submit a request for listing a property sale or rent, choosing the responsible agent"><path d="M93.12,630.5 C147.4,630.5 305.39,630.5 453.21,630.5 " fill="none" id="Owner-to-US004: submit a request for listing a property sale or rent, choosing the responsible agent" style="stroke:#181818;stroke-width:1.0;"/><polygon fill="#181818" points="458.47,630.5,449.47,626.5,453.47,630.5,449.47,634.5,458.47,630.5" style="stroke:#181818;stroke-width:1.0;"/></g><!--link Admin to US005: register a store--><g id="link_Admin_US005: register a store"><path d="M139.26,1598.9 C158.5,1597.05 179.59,1595.11 199,1593.5 C359.71,1580.17 546.86,1567.62 657.47,1560.52 " fill="none" id="Admin-to-US005: register a store" style="stroke:#181818;stroke-width:1.0;"/><polygon fill="#181818" points="662.68,1560.19,653.4462,1556.7641,657.6899,1560.5046,653.9495,1564.7483,662.68,1560.19" style="stroke:#181818;stroke-width:1.0;"/></g><!--link Admin to US006: specify districts, municipalities, and parishes in the system--><g id="link_Admin_US006: specify districts, municipalities, and parishes in the system"><path d="M139.01,1610.51 C230.86,1617.53 402.21,1630.64 540.67,1641.22 " fill="none" id="Admin-to-US006: specify districts, municipalities, and parishes in the system" style="stroke:#181818;stroke-width:1.0;"/><polygon fill="#181818" points="546,1641.63,537.322,1636.9724,541.0138,1641.2585,536.7277,1644.9503,546,1641.63" style="stroke:#181818;stroke-width:1.0;"/></g><!--link UnregUser to US007: register in the system to buy, sell or rent properties--><g id="link_UnregUser_US007: register in the system to buy, sell or rent properties"><path d="M129.73,1319.8 C223.12,1326.94 414.44,1341.57 560.71,1352.76 " fill="none" id="UnregUser-to-US007: register in the system to buy, sell or rent properties" style="stroke:#181818;stroke-width:1.0;"/><polygon fill="#181818" points="565.89,1353.15,557.2253,1348.4677,560.9049,1352.7643,556.6083,1356.4439,565.89,1353.15" style="stroke:#181818;stroke-width:1.0;"/></g><!--link Agent to US008: see the list of property announcement request made to myself--><g id="link_Agent_US008: see the list of property announcement request made to myself"><path d="M91.34,890.5 C151.3,890.5 351.06,890.5 515.63,890.5 " fill="none" id="Agent-to-US008: see the list of property announcement request made to myself" style="stroke:#181818;stroke-width:1.0;"/><polygon fill="#181818" points="520.98,890.5,511.98,886.5,515.98,890.5,511.98,894.5,520.98,890.5" style="stroke:#181818;stroke-width:1.0;"/></g><!--link Client to US009: leave a message to the agent to schedule a visit to a  property of my interest--><g id="link_Client_US009: leave a message to the agent to schedule a visit to a  property of my interest"><path d="M90.75,323.7 C114.02,307.12 157.39,278.68 199,264.5 C288.14,234.11 389.26,215.84 480.51,204.87 " fill="none" id="Client-to-US009: leave a message to the agent to schedule a visit to a  property of my interest" style="stroke:#181818;stroke-width:1.0;"/><polygon fill="#181818" points="485.67,204.25,476.2546,201.3604,480.7062,204.8508,477.2159,209.3025,485.67,204.25" style="stroke:#181818;stroke-width:1.0;"/></g><!--link Client to US010: I place an order to purchase the property, submitting the order amount.--><g id="link_Client_US010: I place an order to purchase the property, submitting the order amount."><path d="M90.65,336.5 C146.39,336.5 328.04,336.5 487.1,336.5 " fill="none" id="Client-to-US010: I place an order to purchase the property, submitting the order amount." style="stroke:#181818;stroke-width:1.0;"/><polygon fill="#181818" points="492.28,336.5,483.28,332.5,487.28,336.5,483.28,340.5,492.28,336.5" style="stroke:#181818;stroke-width:1.0;"/></g><!--link Agent to US011: list real estate purchase orders to accept or decline a purchase order for a property. After accepting or declining, an email notification should be sent to the customer--><g id="link_Agent_US011: list real estate purchase orders to accept or decline a purchase order for a property. After accepting or declining, an email notification should be sent to the customer"><path d="M91.1,901.79 C114.77,916.53 158.57,942.23 199,957.5 C248.42,976.17 301.34,992.75 354.17,1007.3 " fill="none" id="Agent-to-US011: list real estate purchase orders to accept or decline a purchase order for a property. After accepting or declining, an email notification should be sent to the customer" style="stroke:#181818;stroke-width:1.0;"/><polygon fill="#181818" points="359.28,1008.7,351.6512,1002.471,354.4565,1007.3832,349.5443,1010.1886,359.28,1008.7" style="stroke:#181818;stroke-width:1.0;"/></g><!--link Admin to US012: Import data from a legacy system--><g id="link_Admin_US012: Import data from a legacy system"><path d="M104.06,1645 C127.05,1671.56 161.02,1704.67 199,1721.5 C331.01,1779.99 497.8,1786.9 613.81,1782.51 " fill="none" id="Admin-to-US012: Import data from a legacy system" style="stroke:#181818;stroke-width:1.0;"/><polygon fill="#181818" points="618.95,1782.31,609.7973,1778.6729,613.954,1782.5098,610.1171,1786.6665,618.95,1782.31" style="stroke:#181818;stroke-width:1.0;"/></g><!--link NetworkManager to US013: list all employees working in every store of the network--><g id="link_NetworkManager_US013: list all employees working in every store of the network"><path d="M125.73,50.5 C213.09,50.5 393.57,50.5 538.69,50.5 " fill="none" id="NetworkManager-to-US013: list all employees working in every store of the network" style="stroke:#181818;stroke-width:1.0;"/><polygon fill="#181818" points="543.84,50.5,534.84,46.5,538.84,50.5,534.84,54.5,543.84,50.5" style="stroke:#181818;stroke-width:1.0;"/></g><!--link Client to US014: read the response for the appointment requests, to accept or reject it--><g id="link_Client_US014: read the response for the appointment requests, to accept or reject it"><path d="M90.7,349.54 C113.92,366.42 157.23,395.33 199,409.5 C293.92,441.7 402.5,459.48 498.27,469.23 " fill="none" id="Client-to-US014: read the response for the appointment requests, to accept or reject it" style="stroke:#181818;stroke-width:1.0;"/><polygon fill="#181818" points="503.4,469.74,494.8455,464.8594,498.4251,469.2397,494.0449,472.8193,503.4,469.74" style="stroke:#181818;stroke-width:1.0;"/></g><!--SRC=[VLJBZjim3BpxAtXiWUmYwMvVFXG8UbgWZyCY7w38TAnMhufo0lzzITbUnysYDqiQaiFXqFNpG1aTx1jdlA6SL0wf1aNZJLKVVC8JFs321Ww4usEvbLDLxq_eynWXNrNzy-8dLFcggkeRjXboW6HENOR69DJP1CylBtdWxkuBl3ayRxUxcX4KhHh0Ijq6OWeHKpP8Rwkg55dGxsg8_P617IW_02cB_E53xpKwGGOFkKEWqgR4IrjB_4CDSt-WmEC5q4KR1aJ65luBzh46we_EP4Oc_DCZPMX3AZIDF_7jn7JYmK-9AMn0To6G88H9Geh1apaAKsdcbjJx5IdYYU0jw0EpYQXDEuXUEHcTQGEkzqQRgAmHlJQi1Ukd4kk31EOVBLvH_-DLwHLSvdViXmqGMZktzj_HV6A2Y2M5A0IXNVHPZMZMqga6fOmRk4RB2RzQiyhukGQBwiowWKCYLa_WKg08AGVI7JQzI0jdGwRSALWACmatS6VYPygtDNRR6fw0tQV5Hzndmq9mZjWdtIaQsvcpRIO_v7cs8rmvxYtVtoYoOsiN9H8g2rnUPLmIbrWgVBN6c4NZ1hKrNffPmuhj5hlTmxujNYc1GkObbWzY0dQrCXPyoAOrMids0NMXjmqSUSAJUDA2xjbl3jEDuNQyQaykXiGRhBA2DWN772oUb1uMJ_t0V0dfztVbUIQBiNOFK- -AtJEl6850XI_NmJEcOJIxJ4cu-37NArDw59kgvdgXi8XIp11Zu0bVUuitOILimb_y3mB33lWB]--></g></svg>