<?xml version="1.0" encoding="us-ascii" standalone="no"?><svg xmlns="http://www.w3.org/2000/svg" xmlns:xlink="http://www.w3.org/1999/xlink" contentStyleType="text/css" height="337px" preserveAspectRatio="none" style="width:428px;height:337px;background:#FFFFFF;" version="1.1" viewBox="0 0 428 337" width="428px" zoomAndPan="magnify"><defs/><g><!--class Employee--><g id="elem_Employee"><rect codeLine="2" fill="#F1F1F1" height="196.9688" id="Employee" rx="2.5" ry="2.5" style="stroke:#181818;stroke-width:0.5;" width="164" x="33.5" y="7"/><ellipse cx="80.25" cy="23" fill="#ADD1B2" rx="11" ry="11" style="stroke:#181818;stroke-width:1.0;"/><path d="M83.0156,18.875 Q83.1719,18.6563 83.3594,18.5469 Q83.5469,18.4375 83.7656,18.4375 Q84.1406,18.4375 84.375,18.7031 Q84.6094,18.9531 84.6094,19.5625 L84.6094,21.0156 Q84.6094,21.625 84.375,21.8906 Q84.1406,22.1563 83.7656,22.1563 Q83.4219,22.1563 83.2188,21.9531 Q83.0156,21.7656 82.9063,21.25 Q82.8594,20.8906 82.6719,20.7031 Q82.3438,20.3281 81.7344,20.1094 Q81.125,19.8906 80.5,19.8906 Q79.7344,19.8906 79.0938,20.2188 Q78.4688,20.5469 77.9688,21.2969 Q77.4844,22.0469 77.4844,23.0781 L77.4844,24.1719 Q77.4844,25.4063 78.375,26.2344 Q79.2656,27.0469 80.8594,27.0469 Q81.7969,27.0469 82.4531,26.7969 Q82.8438,26.6406 83.2656,26.2031 Q83.5313,25.9375 83.6719,25.8594 Q83.8281,25.7813 84.0313,25.7813 Q84.3594,25.7813 84.6094,26.0469 Q84.875,26.2969 84.875,26.6406 Q84.875,26.9844 84.5313,27.3906 Q84.0313,27.9688 83.2344,28.2969 Q82.1563,28.75 80.8594,28.75 Q79.3438,28.75 78.1406,28.125 Q77.1563,27.625 76.4688,26.5625 Q75.7813,25.4844 75.7813,24.2031 L75.7813,23.0469 Q75.7813,21.7188 76.3906,20.5781 Q77.0156,19.4219 78.1094,18.8125 Q79.2031,18.1875 80.4375,18.1875 Q81.1719,18.1875 81.8125,18.3594 Q82.4688,18.5156 83.0156,18.875 Z " fill="#000000"/><text fill="#000000" font-family="sans-serif" font-size="14" lengthAdjust="spacing" textLength="62" x="100.75" y="28.7969">Employee</text><line style="stroke:#181818;stroke-width:0.5;" x1="34.5" x2="196.5" y1="39" y2="39"/><rect fill="none" height="6" style="stroke:#C82930;stroke-width:1.0;" width="6" x="41.5" y="50.8105"/><text fill="#000000" font-family="sans-serif" font-size="14" lengthAdjust="spacing" textLength="76" x="53.5" y="58.1074">String name</text><rect fill="none" height="6" style="stroke:#C82930;stroke-width:1.0;" width="6" x="41.5" y="69.4316"/><text fill="#000000" font-family="sans-serif" font-size="14" lengthAdjust="spacing" textLength="138" x="53.5" y="76.7285">int citizenCardNumber</text><rect fill="none" height="6" style="stroke:#C82930;stroke-width:1.0;" width="6" x="41.5" y="88.0527"/><text fill="#000000" font-family="sans-serif" font-size="14" lengthAdjust="spacing" textLength="86" x="53.5" y="95.3496">int taxNumber</text><rect fill="none" height="6" style="stroke:#C82930;stroke-width:1.0;" width="6" x="41.5" y="106.6738"/><text fill="#000000" font-family="sans-serif" font-size="14" lengthAdjust="spacing" textLength="92" x="53.5" y="113.9707">String address</text><rect fill="none" height="6" style="stroke:#C82930;stroke-width:1.0;" width="6" x="41.5" y="125.2949"/><text fill="#000000" font-family="sans-serif" font-size="14" lengthAdjust="spacing" textLength="126" x="53.5" y="132.5918">String emailAddress</text><rect fill="none" height="6" style="stroke:#C82930;stroke-width:1.0;" width="6" x="41.5" y="143.916"/><text fill="#000000" font-family="sans-serif" font-size="14" lengthAdjust="spacing" textLength="131" x="53.5" y="151.2129">int telephoneNumber</text><rect fill="none" height="6" style="stroke:#C82930;stroke-width:1.0;" width="6" x="41.5" y="162.5371"/><text fill="#000000" font-family="sans-serif" font-size="14" lengthAdjust="spacing" textLength="87" x="53.5" y="169.834">String agency</text><line style="stroke:#181818;stroke-width:0.5;" x1="34.5" x2="196.5" y1="177.3477" y2="177.3477"/><ellipse cx="44.5" cy="192.1582" fill="#84BE84" rx="3" ry="3" style="stroke:#038048;stroke-width:1.0;"/><text fill="#000000" font-family="sans-serif" font-size="14" lengthAdjust="spacing" textLength="102" x="53.5" y="196.4551">saveEmployee()</text></g><!--class RegeisterEmployeeUI--><g id="elem_RegeisterEmployeeUI"><rect codeLine="15" fill="#F1F1F1" height="66.6211" id="RegeisterEmployeeUI" rx="2.5" ry="2.5" style="stroke:#181818;stroke-width:0.5;" width="167" x="233" y="72"/><ellipse cx="248" cy="88" fill="#ADD1B2" rx="11" ry="11" style="stroke:#181818;stroke-width:1.0;"/><path d="M250.7656,83.875 Q250.9219,83.6563 251.1094,83.5469 Q251.2969,83.4375 251.5156,83.4375 Q251.8906,83.4375 252.125,83.7031 Q252.3594,83.9531 252.3594,84.5625 L252.3594,86.0156 Q252.3594,86.625 252.125,86.8906 Q251.8906,87.1563 251.5156,87.1563 Q251.1719,87.1563 250.9688,86.9531 Q250.7656,86.7656 250.6563,86.25 Q250.6094,85.8906 250.4219,85.7031 Q250.0938,85.3281 249.4844,85.1094 Q248.875,84.8906 248.25,84.8906 Q247.4844,84.8906 246.8438,85.2188 Q246.2188,85.5469 245.7188,86.2969 Q245.2344,87.0469 245.2344,88.0781 L245.2344,89.1719 Q245.2344,90.4063 246.125,91.2344 Q247.0156,92.0469 248.6094,92.0469 Q249.5469,92.0469 250.2031,91.7969 Q250.5938,91.6406 251.0156,91.2031 Q251.2813,90.9375 251.4219,90.8594 Q251.5781,90.7813 251.7813,90.7813 Q252.1094,90.7813 252.3594,91.0469 Q252.625,91.2969 252.625,91.6406 Q252.625,91.9844 252.2813,92.3906 Q251.7813,92.9688 250.9844,93.2969 Q249.9063,93.75 248.6094,93.75 Q247.0938,93.75 245.8906,93.125 Q244.9063,92.625 244.2188,91.5625 Q243.5313,90.4844 243.5313,89.2031 L243.5313,88.0469 Q243.5313,86.7188 244.1406,85.5781 Q244.7656,84.4219 245.8594,83.8125 Q246.9531,83.1875 248.1875,83.1875 Q248.9219,83.1875 249.5625,83.3594 Q250.2188,83.5156 250.7656,83.875 Z " fill="#000000"/><text fill="#000000" font-family="sans-serif" font-size="14" lengthAdjust="spacing" textLength="135" x="262" y="93.7969">RegeisterEmployeeUI</text><line style="stroke:#181818;stroke-width:0.5;" x1="234" x2="399" y1="104" y2="104"/><line style="stroke:#181818;stroke-width:0.5;" x1="234" x2="399" y1="112" y2="112"/><ellipse cx="244" cy="126.8105" fill="#84BE84" rx="3" ry="3" style="stroke:#038048;stroke-width:1.0;"/><text fill="#000000" font-family="sans-serif" font-size="14" lengthAdjust="spacing" textLength="120" x="253" y="131.1074">registerEmployee()</text></g><!--class RegeisterEmployeeController--><g id="elem_RegeisterEmployeeController"><rect codeLine="20" fill="#F1F1F1" height="66.6211" id="RegeisterEmployeeController" rx="2.5" ry="2.5" style="stroke:#181818;stroke-width:0.5;" width="217" x="7" y="264"/><ellipse cx="22" cy="280" fill="#ADD1B2" rx="11" ry="11" style="stroke:#181818;stroke-width:1.0;"/><path d="M24.7656,275.875 Q24.9219,275.6563 25.1094,275.5469 Q25.2969,275.4375 25.5156,275.4375 Q25.8906,275.4375 26.125,275.7031 Q26.3594,275.9531 26.3594,276.5625 L26.3594,278.0156 Q26.3594,278.625 26.125,278.8906 Q25.8906,279.1563 25.5156,279.1563 Q25.1719,279.1563 24.9688,278.9531 Q24.7656,278.7656 24.6563,278.25 Q24.6094,277.8906 24.4219,277.7031 Q24.0938,277.3281 23.4844,277.1094 Q22.875,276.8906 22.25,276.8906 Q21.4844,276.8906 20.8438,277.2188 Q20.2188,277.5469 19.7188,278.2969 Q19.2344,279.0469 19.2344,280.0781 L19.2344,281.1719 Q19.2344,282.4063 20.125,283.2344 Q21.0156,284.0469 22.6094,284.0469 Q23.5469,284.0469 24.2031,283.7969 Q24.5938,283.6406 25.0156,283.2031 Q25.2813,282.9375 25.4219,282.8594 Q25.5781,282.7813 25.7813,282.7813 Q26.1094,282.7813 26.3594,283.0469 Q26.625,283.2969 26.625,283.6406 Q26.625,283.9844 26.2813,284.3906 Q25.7813,284.9688 24.9844,285.2969 Q23.9063,285.75 22.6094,285.75 Q21.0938,285.75 19.8906,285.125 Q18.9063,284.625 18.2188,283.5625 Q17.5313,282.4844 17.5313,281.2031 L17.5313,280.0469 Q17.5313,278.7188 18.1406,277.5781 Q18.7656,276.4219 19.8594,275.8125 Q20.9531,275.1875 22.1875,275.1875 Q22.9219,275.1875 23.5625,275.3594 Q24.2188,275.5156 24.7656,275.875 Z " fill="#000000"/><text fill="#000000" font-family="sans-serif" font-size="14" lengthAdjust="spacing" textLength="185" x="36" y="285.7969">RegeisterEmployeeController</text><line style="stroke:#181818;stroke-width:0.5;" x1="8" x2="223" y1="296" y2="296"/><line style="stroke:#181818;stroke-width:0.5;" x1="8" x2="223" y1="304" y2="304"/><ellipse cx="18" cy="318.8105" fill="#84BE84" rx="3" ry="3" style="stroke:#038048;stroke-width:1.0;"/><text fill="#000000" font-family="sans-serif" font-size="14" lengthAdjust="spacing" textLength="112" x="27" y="323.1074">createEmployee()</text></g><!--class EmployeeRepository--><g id="elem_EmployeeRepository"><rect codeLine="24" fill="#F1F1F1" height="66.6211" id="EmployeeRepository" rx="2.5" ry="2.5" style="stroke:#181818;stroke-width:0.5;" width="162" x="259.5" y="264"/><ellipse cx="274.5" cy="280" fill="#ADD1B2" rx="11" ry="11" style="stroke:#181818;stroke-width:1.0;"/><path d="M277.2656,275.875 Q277.4219,275.6563 277.6094,275.5469 Q277.7969,275.4375 278.0156,275.4375 Q278.3906,275.4375 278.625,275.7031 Q278.8594,275.9531 278.8594,276.5625 L278.8594,278.0156 Q278.8594,278.625 278.625,278.8906 Q278.3906,279.1563 278.0156,279.1563 Q277.6719,279.1563 277.4688,278.9531 Q277.2656,278.7656 277.1563,278.25 Q277.1094,277.8906 276.9219,277.7031 Q276.5938,277.3281 275.9844,277.1094 Q275.375,276.8906 274.75,276.8906 Q273.9844,276.8906 273.3438,277.2188 Q272.7188,277.5469 272.2188,278.2969 Q271.7344,279.0469 271.7344,280.0781 L271.7344,281.1719 Q271.7344,282.4063 272.625,283.2344 Q273.5156,284.0469 275.1094,284.0469 Q276.0469,284.0469 276.7031,283.7969 Q277.0938,283.6406 277.5156,283.2031 Q277.7813,282.9375 277.9219,282.8594 Q278.0781,282.7813 278.2813,282.7813 Q278.6094,282.7813 278.8594,283.0469 Q279.125,283.2969 279.125,283.6406 Q279.125,283.9844 278.7813,284.3906 Q278.2813,284.9688 277.4844,285.2969 Q276.4063,285.75 275.1094,285.75 Q273.5938,285.75 272.3906,285.125 Q271.4063,284.625 270.7188,283.5625 Q270.0313,282.4844 270.0313,281.2031 L270.0313,280.0469 Q270.0313,278.7188 270.6406,277.5781 Q271.2656,276.4219 272.3594,275.8125 Q273.4531,275.1875 274.6875,275.1875 Q275.4219,275.1875 276.0625,275.3594 Q276.7188,275.5156 277.2656,275.875 Z " fill="#000000"/><text fill="#000000" font-family="sans-serif" font-size="14" lengthAdjust="spacing" textLength="130" x="288.5" y="285.7969">EmployeeRepository</text><line style="stroke:#181818;stroke-width:0.5;" x1="260.5" x2="420.5" y1="296" y2="296"/><line style="stroke:#181818;stroke-width:0.5;" x1="260.5" x2="420.5" y1="304" y2="304"/><ellipse cx="270.5" cy="318.8105" fill="#84BE84" rx="3" ry="3" style="stroke:#038048;stroke-width:1.0;"/><text fill="#000000" font-family="sans-serif" font-size="14" lengthAdjust="spacing" textLength="104" x="279.5" y="323.1074">showEmployee()</text></g><!--SRC=[VO_D2i8m48JlUOeSbU93IF7WnKF51uZfa0RoKtRZJnNVNGbjQKJSmnw-OMPtj5FCSkTx5mT0FeNyp4OU4zbWP50U8x4XIMsJVI3KYjh3nPz12osfUy761DMs1EOImYlhjeMI8-3GTp7WPv11q4DcULMIrHNJuwkr42yXT6xJmC1o0atgQJyMgoJ15D9_Onr3ekWSQ0xG19MMTsVtn1hqaMsADCmcxkBjww9u0m00]--></g></svg>