<?xml version="1.0" encoding="us-ascii" standalone="no"?><svg xmlns="http://www.w3.org/2000/svg" xmlns:xlink="http://www.w3.org/1999/xlink" contentStyleType="text/css" height="646px" preserveAspectRatio="none" style="width:719px;height:646px;background:#FFFFFF;" version="1.1" viewBox="0 0 719 646" width="719px" zoomAndPan="magnify"><defs/><g><!--class Runnable--><g id="elem_Runnable"><rect codeLine="2" fill="#F1F1F1" height="66.6211" id="Runnable" rx="2.5" ry="2.5" style="stroke:#181818;stroke-width:0.5;" width="93" x="281" y="7"/><ellipse cx="296" cy="23" fill="#B4A7E5" rx="11" ry="11" style="stroke:#181818;stroke-width:1.0;"/><path d="M296.9531,19.6406 L296.9531,26.2969 L298.6719,26.2969 Q299.2813,26.2969 299.5469,26.5313 Q299.8125,26.7656 299.8125,27.1563 Q299.8125,27.5313 299.5469,27.7656 Q299.2813,28 298.6719,28 L293.5313,28 Q292.9219,28 292.6563,27.7656 Q292.3906,27.5313 292.3906,27.1406 Q292.3906,26.7656 292.6563,26.5313 Q292.9219,26.2969 293.5313,26.2969 L295.25,26.2969 L295.25,19.6406 L293.5313,19.6406 Q292.9219,19.6406 292.6563,19.4063 Q292.3906,19.1719 292.3906,18.7813 Q292.3906,18.4063 292.6563,18.1719 Q292.9219,17.9375 293.5313,17.9375 L298.6719,17.9375 Q299.2813,17.9375 299.5469,18.1719 Q299.8125,18.4063 299.8125,18.7813 Q299.8125,19.1719 299.5469,19.4063 Q299.2813,19.6406 298.6719,19.6406 L296.9531,19.6406 Z " fill="#000000"/><text fill="#000000" font-family="sans-serif" font-size="14" font-style="italic" lengthAdjust="spacing" textLength="61" x="310" y="28.7969">Runnable</text><line style="stroke:#181818;stroke-width:0.5;" x1="282" x2="373" y1="39" y2="39"/><line style="stroke:#181818;stroke-width:0.5;" x1="282" x2="373" y1="47" y2="47"/><ellipse cx="292" cy="61.8105" fill="#84BE84" rx="3" ry="3" style="stroke:#038048;stroke-width:1.0;"/><text fill="#000000" font-family="sans-serif" font-size="14" lengthAdjust="spacing" textLength="31" x="301" y="66.1074">run()</text></g><!--class PlaceOrderToBuyPropertyUI--><g id="elem_PlaceOrderToBuyPropertyUI"><rect codeLine="7" fill="#F1F1F1" height="66.6211" id="PlaceOrderToBuyPropertyUI" rx="2.5" ry="2.5" style="stroke:#181818;stroke-width:0.5;" width="211" x="35" y="7"/><ellipse cx="50" cy="23" fill="#ADD1B2" rx="11" ry="11" style="stroke:#181818;stroke-width:1.0;"/><path d="M52.7656,18.875 Q52.9219,18.6563 53.1094,18.5469 Q53.2969,18.4375 53.5156,18.4375 Q53.8906,18.4375 54.125,18.7031 Q54.3594,18.9531 54.3594,19.5625 L54.3594,21.0156 Q54.3594,21.625 54.125,21.8906 Q53.8906,22.1563 53.5156,22.1563 Q53.1719,22.1563 52.9688,21.9531 Q52.7656,21.7656 52.6563,21.25 Q52.6094,20.8906 52.4219,20.7031 Q52.0938,20.3281 51.4844,20.1094 Q50.875,19.8906 50.25,19.8906 Q49.4844,19.8906 48.8438,20.2188 Q48.2188,20.5469 47.7188,21.2969 Q47.2344,22.0469 47.2344,23.0781 L47.2344,24.1719 Q47.2344,25.4063 48.125,26.2344 Q49.0156,27.0469 50.6094,27.0469 Q51.5469,27.0469 52.2031,26.7969 Q52.5938,26.6406 53.0156,26.2031 Q53.2813,25.9375 53.4219,25.8594 Q53.5781,25.7813 53.7813,25.7813 Q54.1094,25.7813 54.3594,26.0469 Q54.625,26.2969 54.625,26.6406 Q54.625,26.9844 54.2813,27.3906 Q53.7813,27.9688 52.9844,28.2969 Q51.9063,28.75 50.6094,28.75 Q49.0938,28.75 47.8906,28.125 Q46.9063,27.625 46.2188,26.5625 Q45.5313,25.4844 45.5313,24.2031 L45.5313,23.0469 Q45.5313,21.7188 46.1406,20.5781 Q46.7656,19.4219 47.8594,18.8125 Q48.9531,18.1875 50.1875,18.1875 Q50.9219,18.1875 51.5625,18.3594 Q52.2188,18.5156 52.7656,18.875 Z " fill="#000000"/><text fill="#000000" font-family="sans-serif" font-size="14" lengthAdjust="spacing" textLength="179" x="64" y="28.7969">PlaceOrderToBuyPropertyUI</text><line style="stroke:#181818;stroke-width:0.5;" x1="36" x2="245" y1="39" y2="39"/><rect fill="none" height="6" style="stroke:#C82930;stroke-width:1.0;" width="6" x="43" y="50.8105"/><text fill="#000000" font-family="sans-serif" font-size="14" lengthAdjust="spacing" textLength="59" x="55" y="58.1074">controller</text><line style="stroke:#181818;stroke-width:0.5;" x1="36" x2="245" y1="65.6211" y2="65.6211"/></g><!--class PlaceOrderToBuyPropertyController--><g id="elem_PlaceOrderToBuyPropertyController"><rect codeLine="12" fill="#F1F1F1" height="103.8633" id="PlaceOrderToBuyPropertyController" rx="2.5" ry="2.5" style="stroke:#181818;stroke-width:0.5;" width="261" x="10" y="171"/><ellipse cx="25" cy="187" fill="#ADD1B2" rx="11" ry="11" style="stroke:#181818;stroke-width:1.0;"/><path d="M27.7656,182.875 Q27.9219,182.6563 28.1094,182.5469 Q28.2969,182.4375 28.5156,182.4375 Q28.8906,182.4375 29.125,182.7031 Q29.3594,182.9531 29.3594,183.5625 L29.3594,185.0156 Q29.3594,185.625 29.125,185.8906 Q28.8906,186.1563 28.5156,186.1563 Q28.1719,186.1563 27.9688,185.9531 Q27.7656,185.7656 27.6563,185.25 Q27.6094,184.8906 27.4219,184.7031 Q27.0938,184.3281 26.4844,184.1094 Q25.875,183.8906 25.25,183.8906 Q24.4844,183.8906 23.8438,184.2188 Q23.2188,184.5469 22.7188,185.2969 Q22.2344,186.0469 22.2344,187.0781 L22.2344,188.1719 Q22.2344,189.4063 23.125,190.2344 Q24.0156,191.0469 25.6094,191.0469 Q26.5469,191.0469 27.2031,190.7969 Q27.5938,190.6406 28.0156,190.2031 Q28.2813,189.9375 28.4219,189.8594 Q28.5781,189.7813 28.7813,189.7813 Q29.1094,189.7813 29.3594,190.0469 Q29.625,190.2969 29.625,190.6406 Q29.625,190.9844 29.2813,191.3906 Q28.7813,191.9688 27.9844,192.2969 Q26.9063,192.75 25.6094,192.75 Q24.0938,192.75 22.8906,192.125 Q21.9063,191.625 21.2188,190.5625 Q20.5313,189.4844 20.5313,188.2031 L20.5313,187.0469 Q20.5313,185.7188 21.1406,184.5781 Q21.7656,183.4219 22.8594,182.8125 Q23.9531,182.1875 25.1875,182.1875 Q25.9219,182.1875 26.5625,182.3594 Q27.2188,182.5156 27.7656,182.875 Z " fill="#000000"/><text fill="#000000" font-family="sans-serif" font-size="14" lengthAdjust="spacing" textLength="229" x="39" y="192.7969">PlaceOrderToBuyPropertyController</text><line style="stroke:#181818;stroke-width:0.5;" x1="11" x2="270" y1="203" y2="203"/><rect fill="none" height="6" style="stroke:#C82930;stroke-width:1.0;" width="6" x="18" y="214.8105"/><text fill="#000000" font-family="sans-serif" font-size="14" lengthAdjust="spacing" textLength="102" x="30" y="222.1074">orderRepository</text><line style="stroke:#181818;stroke-width:0.5;" x1="11" x2="270" y1="229.6211" y2="229.6211"/><ellipse cx="21" cy="244.4316" fill="#84BE84" rx="3" ry="3" style="stroke:#038048;stroke-width:1.0;"/><text fill="#000000" font-family="sans-serif" font-size="14" lengthAdjust="spacing" textLength="87" x="30" y="248.7285">createOrder()</text><ellipse cx="21" cy="263.0527" fill="#84BE84" rx="3" ry="3" style="stroke:#038048;stroke-width:1.0;"/><text fill="#000000" font-family="sans-serif" font-size="14" lengthAdjust="spacing" textLength="147" x="30" y="267.3496">getAnnouncementList()</text></g><!--class Order--><g id="elem_Order"><rect codeLine="19" fill="#F1F1F1" height="103.8633" id="Order" rx="2.5" ry="2.5" style="stroke:#181818;stroke-width:0.5;" width="120" x="80.5" y="372"/><ellipse cx="118.45" cy="388" fill="#ADD1B2" rx="11" ry="11" style="stroke:#181818;stroke-width:1.0;"/><path d="M121.2156,383.875 Q121.3719,383.6563 121.5594,383.5469 Q121.7469,383.4375 121.9656,383.4375 Q122.3406,383.4375 122.575,383.7031 Q122.8094,383.9531 122.8094,384.5625 L122.8094,386.0156 Q122.8094,386.625 122.575,386.8906 Q122.3406,387.1563 121.9656,387.1563 Q121.6219,387.1563 121.4188,386.9531 Q121.2156,386.7656 121.1063,386.25 Q121.0594,385.8906 120.8719,385.7031 Q120.5438,385.3281 119.9344,385.1094 Q119.325,384.8906 118.7,384.8906 Q117.9344,384.8906 117.2938,385.2188 Q116.6688,385.5469 116.1688,386.2969 Q115.6844,387.0469 115.6844,388.0781 L115.6844,389.1719 Q115.6844,390.4063 116.575,391.2344 Q117.4656,392.0469 119.0594,392.0469 Q119.9969,392.0469 120.6531,391.7969 Q121.0438,391.6406 121.4656,391.2031 Q121.7313,390.9375 121.8719,390.8594 Q122.0281,390.7813 122.2313,390.7813 Q122.5594,390.7813 122.8094,391.0469 Q123.075,391.2969 123.075,391.6406 Q123.075,391.9844 122.7313,392.3906 Q122.2313,392.9688 121.4344,393.2969 Q120.3563,393.75 119.0594,393.75 Q117.5438,393.75 116.3406,393.125 Q115.3563,392.625 114.6688,391.5625 Q113.9813,390.4844 113.9813,389.2031 L113.9813,388.0469 Q113.9813,386.7188 114.5906,385.5781 Q115.2156,384.4219 116.3094,383.8125 Q117.4031,383.1875 118.6375,383.1875 Q119.3719,383.1875 120.0125,383.3594 Q120.6688,383.5156 121.2156,383.875 Z " fill="#000000"/><text fill="#000000" font-family="sans-serif" font-size="14" lengthAdjust="spacing" textLength="37" x="137.55" y="393.7969">Order</text><line style="stroke:#181818;stroke-width:0.5;" x1="81.5" x2="199.5" y1="404" y2="404"/><rect fill="none" height="6" style="stroke:#C82930;stroke-width:1.0;" width="6" x="88.5" y="415.8105"/><text fill="#000000" font-family="sans-serif" font-size="14" lengthAdjust="spacing" textLength="82" x="100.5" y="423.1074">orderAmount</text><rect fill="none" height="6" style="stroke:#C82930;stroke-width:1.0;" width="6" x="88.5" y="434.4316"/><text fill="#000000" font-family="sans-serif" font-size="14" lengthAdjust="spacing" textLength="94" x="100.5" y="441.7285">announcement</text><rect fill="none" height="6" style="stroke:#C82930;stroke-width:1.0;" width="6" x="88.5" y="453.0527"/><text fill="#000000" font-family="sans-serif" font-size="14" lengthAdjust="spacing" textLength="38" x="100.5" y="460.3496">status</text><line style="stroke:#181818;stroke-width:0.5;" x1="81.5" x2="199.5" y1="467.8633" y2="467.8633"/></g><!--class PlaceOrderToBuyPropertyRepository--><g id="elem_PlaceOrderToBuyPropertyRepository"><rect codeLine="26" fill="#F1F1F1" height="103.8633" id="PlaceOrderToBuyPropertyRepository" rx="2.5" ry="2.5" style="stroke:#181818;stroke-width:0.5;" width="267" x="7" y="536"/><ellipse cx="22" cy="552" fill="#ADD1B2" rx="11" ry="11" style="stroke:#181818;stroke-width:1.0;"/><path d="M24.7656,547.875 Q24.9219,547.6563 25.1094,547.5469 Q25.2969,547.4375 25.5156,547.4375 Q25.8906,547.4375 26.125,547.7031 Q26.3594,547.9531 26.3594,548.5625 L26.3594,550.0156 Q26.3594,550.625 26.125,550.8906 Q25.8906,551.1563 25.5156,551.1563 Q25.1719,551.1563 24.9688,550.9531 Q24.7656,550.7656 24.6563,550.25 Q24.6094,549.8906 24.4219,549.7031 Q24.0938,549.3281 23.4844,549.1094 Q22.875,548.8906 22.25,548.8906 Q21.4844,548.8906 20.8438,549.2188 Q20.2188,549.5469 19.7188,550.2969 Q19.2344,551.0469 19.2344,552.0781 L19.2344,553.1719 Q19.2344,554.4063 20.125,555.2344 Q21.0156,556.0469 22.6094,556.0469 Q23.5469,556.0469 24.2031,555.7969 Q24.5938,555.6406 25.0156,555.2031 Q25.2813,554.9375 25.4219,554.8594 Q25.5781,554.7813 25.7813,554.7813 Q26.1094,554.7813 26.3594,555.0469 Q26.625,555.2969 26.625,555.6406 Q26.625,555.9844 26.2813,556.3906 Q25.7813,556.9688 24.9844,557.2969 Q23.9063,557.75 22.6094,557.75 Q21.0938,557.75 19.8906,557.125 Q18.9063,556.625 18.2188,555.5625 Q17.5313,554.4844 17.5313,553.2031 L17.5313,552.0469 Q17.5313,550.7188 18.1406,549.5781 Q18.7656,548.4219 19.8594,547.8125 Q20.9531,547.1875 22.1875,547.1875 Q22.9219,547.1875 23.5625,547.3594 Q24.2188,547.5156 24.7656,547.875 Z " fill="#000000"/><text fill="#000000" font-family="sans-serif" font-size="14" lengthAdjust="spacing" textLength="235" x="36" y="557.7969">PlaceOrderToBuyPropertyRepository</text><line style="stroke:#181818;stroke-width:0.5;" x1="8" x2="273" y1="568" y2="568"/><rect fill="none" height="6" style="stroke:#C82930;stroke-width:1.0;" width="6" x="15" y="579.8105"/><text fill="#000000" font-family="sans-serif" font-size="14" lengthAdjust="spacing" textLength="56" x="27" y="587.1074">orderList</text><line style="stroke:#181818;stroke-width:0.5;" x1="8" x2="273" y1="594.6211" y2="594.6211"/><ellipse cx="18" cy="609.4316" fill="#84BE84" rx="3" ry="3" style="stroke:#038048;stroke-width:1.0;"/><text fill="#000000" font-family="sans-serif" font-size="14" lengthAdjust="spacing" textLength="77" x="27" y="613.7285">seveOrder()</text><ellipse cx="18" cy="628.0527" fill="#84BE84" rx="3" ry="3" style="stroke:#038048;stroke-width:1.0;"/><text fill="#000000" font-family="sans-serif" font-size="14" lengthAdjust="spacing" textLength="96" x="27" y="632.3496">validateOrder()</text></g><!--class AnnouncementRepository--><g id="elem_AnnouncementRepository"><rect codeLine="33" fill="#F1F1F1" height="178.3477" id="AnnouncementRepository" rx="2.5" ry="2.5" style="stroke:#181818;stroke-width:0.5;" width="214" x="498.5" y="134"/><ellipse cx="522.05" cy="150" fill="#ADD1B2" rx="11" ry="11" style="stroke:#181818;stroke-width:1.0;"/><path d="M524.8156,145.875 Q524.9719,145.6563 525.1594,145.5469 Q525.3469,145.4375 525.5656,145.4375 Q525.9406,145.4375 526.175,145.7031 Q526.4094,145.9531 526.4094,146.5625 L526.4094,148.0156 Q526.4094,148.625 526.175,148.8906 Q525.9406,149.1563 525.5656,149.1563 Q525.2219,149.1563 525.0188,148.9531 Q524.8156,148.7656 524.7063,148.25 Q524.6594,147.8906 524.4719,147.7031 Q524.1438,147.3281 523.5344,147.1094 Q522.925,146.8906 522.3,146.8906 Q521.5344,146.8906 520.8938,147.2188 Q520.2688,147.5469 519.7688,148.2969 Q519.2844,149.0469 519.2844,150.0781 L519.2844,151.1719 Q519.2844,152.4063 520.175,153.2344 Q521.0656,154.0469 522.6594,154.0469 Q523.5969,154.0469 524.2531,153.7969 Q524.6438,153.6406 525.0656,153.2031 Q525.3313,152.9375 525.4719,152.8594 Q525.6281,152.7813 525.8313,152.7813 Q526.1594,152.7813 526.4094,153.0469 Q526.675,153.2969 526.675,153.6406 Q526.675,153.9844 526.3313,154.3906 Q525.8313,154.9688 525.0344,155.2969 Q523.9563,155.75 522.6594,155.75 Q521.1438,155.75 519.9406,155.125 Q518.9563,154.625 518.2688,153.5625 Q517.5813,152.4844 517.5813,151.2031 L517.5813,150.0469 Q517.5813,148.7188 518.1906,147.5781 Q518.8156,146.4219 519.9094,145.8125 Q521.0031,145.1875 522.2375,145.1875 Q522.9719,145.1875 523.6125,145.3594 Q524.2688,145.5156 524.8156,145.875 Z " fill="#000000"/><text fill="#000000" font-family="sans-serif" font-size="14" lengthAdjust="spacing" textLength="163" x="537.95" y="155.7969">AnnouncementRepository</text><line style="stroke:#181818;stroke-width:0.5;" x1="499.5" x2="711.5" y1="166" y2="166"/><line style="stroke:#181818;stroke-width:0.5;" x1="499.5" x2="711.5" y1="174" y2="174"/><ellipse cx="509.5" cy="188.8105" fill="#84BE84" rx="3" ry="3" style="stroke:#038048;stroke-width:1.0;"/><text fill="#000000" font-family="sans-serif" font-size="14" lengthAdjust="spacing" textLength="40" x="518.5" y="193.1074">save()</text><ellipse cx="509.5" cy="207.4316" fill="#84BE84" rx="3" ry="3" style="stroke:#038048;stroke-width:1.0;"/><text fill="#000000" font-family="sans-serif" font-size="14" lengthAdjust="spacing" textLength="145" x="518.5" y="211.7285">createAnnouncement()</text><ellipse cx="509.5" cy="226.0527" fill="#84BE84" rx="3" ry="3" style="stroke:#038048;stroke-width:1.0;"/><text fill="#000000" font-family="sans-serif" font-size="14" lengthAdjust="spacing" textLength="154" x="518.5" y="230.3496">validateAnnouncement()</text><ellipse cx="509.5" cy="244.6738" fill="#84BE84" rx="3" ry="3" style="stroke:#038048;stroke-width:1.0;"/><text fill="#000000" font-family="sans-serif" font-size="14" lengthAdjust="spacing" textLength="129" x="518.5" y="248.9707">addAnnouncement()</text><ellipse cx="509.5" cy="263.2949" fill="#84BE84" rx="3" ry="3" style="stroke:#038048;stroke-width:1.0;"/><text fill="#000000" font-family="sans-serif" font-size="14" lengthAdjust="spacing" textLength="188" x="518.5" y="267.5918">getAllVisibleAnnouncements()</text><ellipse cx="509.5" cy="281.916" fill="#84BE84" rx="3" ry="3" style="stroke:#038048;stroke-width:1.0;"/><text fill="#000000" font-family="sans-serif" font-size="14" lengthAdjust="spacing" textLength="125" x="518.5" y="286.2129">getAvailableFields()</text><ellipse cx="509.5" cy="300.5371" fill="#84BE84" rx="3" ry="3" style="stroke:#038048;stroke-width:1.0;"/><text fill="#000000" font-family="sans-serif" font-size="14" lengthAdjust="spacing" textLength="132" x="518.5" y="304.834">getAnnouncements()</text></g><!--class AnnouncementDTO--><g id="elem_AnnouncementDTO"><rect codeLine="44" fill="#F1F1F1" height="122.4844" id="AnnouncementDTO" rx="2.5" ry="2.5" style="stroke:#181818;stroke-width:0.5;" width="157" x="306" y="162"/><ellipse cx="321" cy="178" fill="#ADD1B2" rx="11" ry="11" style="stroke:#181818;stroke-width:1.0;"/><path d="M323.7656,173.875 Q323.9219,173.6563 324.1094,173.5469 Q324.2969,173.4375 324.5156,173.4375 Q324.8906,173.4375 325.125,173.7031 Q325.3594,173.9531 325.3594,174.5625 L325.3594,176.0156 Q325.3594,176.625 325.125,176.8906 Q324.8906,177.1563 324.5156,177.1563 Q324.1719,177.1563 323.9688,176.9531 Q323.7656,176.7656 323.6563,176.25 Q323.6094,175.8906 323.4219,175.7031 Q323.0938,175.3281 322.4844,175.1094 Q321.875,174.8906 321.25,174.8906 Q320.4844,174.8906 319.8438,175.2188 Q319.2188,175.5469 318.7188,176.2969 Q318.2344,177.0469 318.2344,178.0781 L318.2344,179.1719 Q318.2344,180.4063 319.125,181.2344 Q320.0156,182.0469 321.6094,182.0469 Q322.5469,182.0469 323.2031,181.7969 Q323.5938,181.6406 324.0156,181.2031 Q324.2813,180.9375 324.4219,180.8594 Q324.5781,180.7813 324.7813,180.7813 Q325.1094,180.7813 325.3594,181.0469 Q325.625,181.2969 325.625,181.6406 Q325.625,181.9844 325.2813,182.3906 Q324.7813,182.9688 323.9844,183.2969 Q322.9063,183.75 321.6094,183.75 Q320.0938,183.75 318.8906,183.125 Q317.9063,182.625 317.2188,181.5625 Q316.5313,180.4844 316.5313,179.2031 L316.5313,178.0469 Q316.5313,176.7188 317.1406,175.5781 Q317.7656,174.4219 318.8594,173.8125 Q319.9531,173.1875 321.1875,173.1875 Q321.9219,173.1875 322.5625,173.3594 Q323.2188,173.5156 323.7656,173.875 Z " fill="#000000"/><text fill="#000000" font-family="sans-serif" font-size="14" lengthAdjust="spacing" textLength="125" x="335" y="183.7969">AnnouncementDTO</text><line style="stroke:#181818;stroke-width:0.5;" x1="307" x2="462" y1="194" y2="194"/><rect fill="none" height="6" style="stroke:#C82930;stroke-width:1.0;" width="6" x="314" y="205.8105"/><text fill="#000000" font-family="sans-serif" font-size="14" lengthAdjust="spacing" textLength="31" x="326" y="213.1074">price</text><rect fill="none" height="6" style="stroke:#C82930;stroke-width:1.0;" width="6" x="314" y="224.4316"/><text fill="#000000" font-family="sans-serif" font-size="14" lengthAdjust="spacing" textLength="99" x="326" y="231.7285">typeOfBusiness</text><rect fill="none" height="6" style="stroke:#C82930;stroke-width:1.0;" width="6" x="314" y="243.0527"/><text fill="#000000" font-family="sans-serif" font-size="14" lengthAdjust="spacing" textLength="53" x="326" y="250.3496">property</text><rect fill="none" height="6" style="stroke:#C82930;stroke-width:1.0;" width="6" x="314" y="261.6738"/><text fill="#000000" font-family="sans-serif" font-size="14" lengthAdjust="spacing" textLength="36" x="326" y="268.9707">agent</text><line style="stroke:#181818;stroke-width:0.5;" x1="307" x2="462" y1="276.4844" y2="276.4844"/></g><!--reverse link PlaceOrderToBuyPropertyUI to Runnable--><g id="link_PlaceOrderToBuyPropertyUI_Runnable"><path codeLine="54" d="M266.1,40.5 C270.98,40.5 275.85,40.5 280.73,40.5 " fill="none" id="PlaceOrderToBuyPropertyUI-backto-Runnable" style="stroke:#181818;stroke-width:1.0;"/><polygon fill="none" points="266.05,47.5,246.05,40.5,266.05,33.5,266.05,47.5" style="stroke:#181818;stroke-width:1.0;"/></g><!--link PlaceOrderToBuyPropertyUI to PlaceOrderToBuyPropertyController--><g id="link_PlaceOrderToBuyPropertyUI_PlaceOrderToBuyPropertyController"><path codeLine="55" d="M140.5,74.19 C140.5,99.64 140.5,135.57 140.5,165.63 " fill="none" id="PlaceOrderToBuyPropertyUI-to-PlaceOrderToBuyPropertyController" style="stroke:#181818;stroke-width:1.0;stroke-dasharray:7.0,7.0;"/><polygon fill="#181818" points="140.5,170.79,144.5,161.79,140.5,165.79,136.5,161.79,140.5,170.79" style="stroke:#181818;stroke-width:1.0;"/></g><!--link PlaceOrderToBuyPropertyController to AnnouncementDTO--><g id="link_PlaceOrderToBuyPropertyController_AnnouncementDTO"><path codeLine="56" d="M271.08,223 C280.89,223 290.7,223 300.51,223 " fill="none" id="PlaceOrderToBuyPropertyController-to-AnnouncementDTO" style="stroke:#181818;stroke-width:1.0;"/><polygon fill="#181818" points="305.64,223,296.64,219,300.64,223,296.64,227,305.64,223" style="stroke:#181818;stroke-width:1.0;"/></g><!--link AnnouncementDTO to AnnouncementRepository--><g id="link_AnnouncementDTO_AnnouncementRepository"><path codeLine="57" d="M463.06,223 C473.09,223 483.12,223 493.15,223 " fill="none" id="AnnouncementDTO-to-AnnouncementRepository" style="stroke:#181818;stroke-width:1.0;"/><polygon fill="#181818" points="498.39,223,489.39,219,493.39,223,489.39,227,498.39,223" style="stroke:#181818;stroke-width:1.0;"/></g><!--link PlaceOrderToBuyPropertyController to Order--><g id="link_PlaceOrderToBuyPropertyController_Order"><path codeLine="58" d="M140.5,275.25 C140.5,303.22 140.5,337.9 140.5,366.63 " fill="none" id="PlaceOrderToBuyPropertyController-to-Order" style="stroke:#181818;stroke-width:1.0;stroke-dasharray:7.0,7.0;"/><polygon fill="#181818" points="140.5,371.93,144.5,362.93,140.5,366.93,136.5,362.93,140.5,371.93" style="stroke:#181818;stroke-width:1.0;"/></g><!--link Order to PlaceOrderToBuyPropertyRepository--><g id="link_Order_PlaceOrderToBuyPropertyRepository"><path codeLine="59" d="M140.5,476.26 C140.5,493.48 140.5,512.78 140.5,530.39 " fill="none" id="Order-to-PlaceOrderToBuyPropertyRepository" style="stroke:#181818;stroke-width:1.0;"/><polygon fill="#181818" points="140.5,535.8,144.5,526.8,140.5,530.8,136.5,526.8,140.5,535.8" style="stroke:#181818;stroke-width:1.0;"/></g><!--SRC=[XL91QiCm4Bph5Jgs5ES9XgIbK2WuXBHtLLu7WI8PxSfWslwzKkpOgX9ZdSHgPZIxEyeGk4P8u0TlZFZImByPu-4ySUVDmoFxPKngWSZtEi0gLuCxsftlzywsuAZ_UBio2Ywj8MUr1hTAUvwWCzr6r05QYugiwqSRqe6WGI7O6MedeAqnrXi9Pp3qhf1IgnTmfhiz1pYD5P6GnnAI88-hlcTxcNxqCBf3w3A_dT2gJhgOVacxk9KEKgA3IMMOH4gv-U3kewZhk_KuHQq_5QgmznI1_o2TK3ecurM1hd5f1xZKrikncaVLEYLXl5FVGjNiF2e3Y1DWcFDrKQUueQ3Bs1JGGaD3nK-vd4YsdDNDfboF95iFRL7cJRAywGoI17jTFjgy0DYGvQ8ernF9_W00]--></g></svg>