<?xml version="1.0" encoding="us-ascii" standalone="no"?><svg xmlns="http://www.w3.org/2000/svg" xmlns:xlink="http://www.w3.org/1999/xlink" contentStyleType="text/css" height="630px" preserveAspectRatio="none" style="width:1105px;height:629px;background:#FFFFFF;" version="1.1" viewBox="0 0 1105 629" width="1105.3px" zoomAndPan="magnify"><defs/><g><rect fill="#FFFFFF" height="494.0127" style="stroke:#181818;stroke-width:0.6999999999999998;" width="7" x="14.7" y="65.5348"/><rect fill="#FFFFFF" height="52.4385" style="stroke:#181818;stroke-width:0.6999999999999998;" width="7" x="343" y="81.8385"/><rect fill="#FFFFFF" height="109.5186" style="stroke:#181818;stroke-width:0.6999999999999998;" width="7" x="343" y="243.7955"/><rect fill="#FFFFFF" height="65.7111" style="stroke:#181818;stroke-width:0.6999999999999998;" width="7" x="343" y="450.0289"/><rect fill="#FFFFFF" height="28.2037" style="stroke:#181818;stroke-width:0.6999999999999998;" width="7" x="343" y="537.6437"/><rect fill="#FFFFFF" height="21.9037" style="stroke:#181818;stroke-width:0.6999999999999998;" width="7" x="502.6" y="134.277"/><rect fill="#FFFFFF" height="21.9037" style="stroke:#181818;stroke-width:0.6999999999999998;" width="7" x="502.6" y="221.8918"/><rect fill="#FFFFFF" height="21.9037" style="stroke:#181818;stroke-width:0.6999999999999998;" width="7" x="502.6" y="353.3141"/><rect fill="#FFFFFF" height="21.9037" style="stroke:#181818;stroke-width:0.6999999999999998;" width="7" x="502.6" y="428.1252"/><rect fill="#FFFFFF" height="50.1074" style="stroke:#181818;stroke-width:0.6999999999999998;" width="7" x="502.6" y="515.74"/><rect fill="#FFFFFF" height="21.9037" style="stroke:#181818;stroke-width:0.6999999999999998;" width="7" x="643.3" y="156.1807"/><rect fill="#FFFFFF" height="21.9037" style="stroke:#181818;stroke-width:0.6999999999999998;" width="7" x="643.3" y="199.9881"/><rect fill="#FFFFFF" height="21.9037" style="stroke:#181818;stroke-width:0.6999999999999998;" width="7" x="772.8" y="178.0844"/><rect fill="#FFFFFF" height="28.2037" style="stroke:#181818;stroke-width:0.6999999999999998;" width="7" x="928.9" y="537.6437"/><rect fill="#FFFFFF" height="52.9074" style="stroke:#181818;stroke-width:0.6999999999999998;" width="7" x="1040.9" y="375.2178"/><line style="stroke:#181818;stroke-width:0.3499999999999999;stroke-dasharray:5.0,5.0;" x1="18.2" x2="18.2" y1="58.5348" y2="572.1475"/><line style="stroke:#181818;stroke-width:0.3499999999999999;stroke-dasharray:5.0,5.0;" x1="346.15" x2="346.15" y1="58.5348" y2="572.1475"/><line style="stroke:#181818;stroke-width:0.3499999999999999;stroke-dasharray:5.0,5.0;" x1="505.75" x2="505.75" y1="109.7059" y2="572.1475"/><line style="stroke:#181818;stroke-width:0.3499999999999999;stroke-dasharray:5.0,5.0;" x1="646.45" x2="646.45" y1="58.5348" y2="572.1475"/><line style="stroke:#181818;stroke-width:0.3499999999999999;stroke-dasharray:5.0,5.0;" x1="775.95" x2="775.95" y1="58.5348" y2="572.1475"/><line style="stroke:#181818;stroke-width:0.3499999999999999;stroke-dasharray:5.0,5.0;" x1="932.05" x2="932.05" y1="58.5348" y2="572.1475"/><line style="stroke:#181818;stroke-width:0.3499999999999999;stroke-dasharray:5.0,5.0;" x1="1044.05" x2="1044.05" y1="58.5348" y2="572.1475"/><text fill="#000000" font-family="sans-serif" font-size="9.8" lengthAdjust="spacing" textLength="25.2" x="3.5" y="56.0752">Client</text><ellipse cx="18.2" cy="9.45" fill="#E2E2F0" rx="5.6" ry="5.6" style="stroke:#181818;stroke-width:0.3499999999999999;"/><path d="M18.2,15.05 L18.2,33.95 M9.1,20.65 L27.3,20.65 M18.2,33.95 L9.1,44.45 M18.2,33.95 L27.3,44.45 " fill="none" style="stroke:#181818;stroke-width:0.3499999999999999;"/><text fill="#000000" font-family="sans-serif" font-size="9.8" lengthAdjust="spacing" textLength="25.2" x="3.5" y="582.0227">Client</text><ellipse cx="18.2" cy="590.4322" fill="#E2E2F0" rx="5.6" ry="5.6" style="stroke:#181818;stroke-width:0.3499999999999999;"/><path d="M18.2,596.0322 L18.2,614.9322 M9.1,601.6322 L27.3,601.6322 M18.2,614.9322 L9.1,625.4322 M18.2,614.9322 L27.3,625.4322 " fill="none" style="stroke:#181818;stroke-width:0.3499999999999999;"/><rect fill="#E2E2F0" height="22.8348" rx="1.75" ry="1.75" style="stroke:#181818;stroke-width:0.3499999999999999;" width="135.1" x="278.95" y="35"/><text fill="#000000" font-family="sans-serif" font-size="9.8" lengthAdjust="spacing" textLength="125.3" x="283.85" y="50.4752">PlaceOrderToBuyPropertyUI</text><rect fill="#E2E2F0" height="22.8348" rx="1.75" ry="1.75" style="stroke:#181818;stroke-width:0.3499999999999999;" width="135.1" x="278.95" y="571.4475"/><text fill="#000000" font-family="sans-serif" font-size="9.8" lengthAdjust="spacing" textLength="125.3" x="283.85" y="586.9227">PlaceOrderToBuyPropertyUI</text><rect fill="#E2E2F0" height="22.8348" rx="1.75" ry="1.75" style="stroke:#181818;stroke-width:0.3499999999999999;" width="170.1" x="421.05" y="571.4475"/><text fill="#000000" font-family="sans-serif" font-size="9.8" lengthAdjust="spacing" textLength="160.3" x="425.95" y="586.9227">PlaceOrderToBuyPropertyController</text><rect fill="#E2E2F0" height="22.8348" rx="1.75" ry="1.75" style="stroke:#181818;stroke-width:0.3499999999999999;" width="97.3" x="598.15" y="35"/><text fill="#000000" font-family="sans-serif" font-size="9.8" lengthAdjust="spacing" textLength="87.5" x="603.05" y="50.4752">AnnouncementDTO</text><rect fill="#E2E2F0" height="22.8348" rx="1.75" ry="1.75" style="stroke:#181818;stroke-width:0.3499999999999999;" width="97.3" x="598.15" y="571.4475"/><text fill="#000000" font-family="sans-serif" font-size="9.8" lengthAdjust="spacing" textLength="87.5" x="603.05" y="586.9227">AnnouncementDTO</text><rect fill="#E2E2F0" height="22.8348" rx="1.75" ry="1.75" style="stroke:#181818;stroke-width:0.3499999999999999;" width="123.9" x="714.35" y="35"/><text fill="#000000" font-family="sans-serif" font-size="9.8" lengthAdjust="spacing" textLength="114.1" x="719.25" y="50.4752">AnnouncementRepository</text><rect fill="#E2E2F0" height="22.8348" rx="1.75" ry="1.75" style="stroke:#181818;stroke-width:0.3499999999999999;" width="123.9" x="714.35" y="571.4475"/><text fill="#000000" font-family="sans-serif" font-size="9.8" lengthAdjust="spacing" textLength="114.1" x="719.25" y="586.9227">AnnouncementRepository</text><rect fill="#E2E2F0" height="22.8348" rx="1.75" ry="1.75" style="stroke:#181818;stroke-width:0.3499999999999999;" width="174.3" x="845.25" y="35"/><text fill="#000000" font-family="sans-serif" font-size="9.8" lengthAdjust="spacing" textLength="164.5" x="850.15" y="50.4752">PlaceOrderToBuyPropertyRepository</text><rect fill="#E2E2F0" height="22.8348" rx="1.75" ry="1.75" style="stroke:#181818;stroke-width:0.3499999999999999;" width="174.3" x="845.25" y="571.4475"/><text fill="#000000" font-family="sans-serif" font-size="9.8" lengthAdjust="spacing" textLength="164.5" x="850.15" y="586.9227">PlaceOrderToBuyPropertyRepository</text><rect fill="#E2E2F0" height="22.8348" rx="1.75" ry="1.75" style="stroke:#181818;stroke-width:0.3499999999999999;" width="35.7" x="1026.55" y="35"/><text fill="#000000" font-family="sans-serif" font-size="9.8" lengthAdjust="spacing" textLength="25.9" x="1031.45" y="50.4752">Order</text><rect fill="#E2E2F0" height="22.8348" rx="1.75" ry="1.75" style="stroke:#181818;stroke-width:0.3499999999999999;" width="35.7" x="1026.55" y="571.4475"/><text fill="#000000" font-family="sans-serif" font-size="9.8" lengthAdjust="spacing" textLength="25.9" x="1031.45" y="586.9227">Order</text><rect fill="#FFFFFF" height="494.0127" style="stroke:#181818;stroke-width:0.6999999999999998;" width="7" x="14.7" y="65.5348"/><rect fill="#FFFFFF" height="52.4385" style="stroke:#181818;stroke-width:0.6999999999999998;" width="7" x="343" y="81.8385"/><rect fill="#FFFFFF" height="109.5186" style="stroke:#181818;stroke-width:0.6999999999999998;" width="7" x="343" y="243.7955"/><rect fill="#FFFFFF" height="65.7111" style="stroke:#181818;stroke-width:0.6999999999999998;" width="7" x="343" y="450.0289"/><rect fill="#FFFFFF" height="28.2037" style="stroke:#181818;stroke-width:0.6999999999999998;" width="7" x="343" y="537.6437"/><rect fill="#FFFFFF" height="21.9037" style="stroke:#181818;stroke-width:0.6999999999999998;" width="7" x="502.6" y="134.277"/><rect fill="#FFFFFF" height="21.9037" style="stroke:#181818;stroke-width:0.6999999999999998;" width="7" x="502.6" y="221.8918"/><rect fill="#FFFFFF" height="21.9037" style="stroke:#181818;stroke-width:0.6999999999999998;" width="7" x="502.6" y="353.3141"/><rect fill="#FFFFFF" height="21.9037" style="stroke:#181818;stroke-width:0.6999999999999998;" width="7" x="502.6" y="428.1252"/><rect fill="#FFFFFF" height="50.1074" style="stroke:#181818;stroke-width:0.6999999999999998;" width="7" x="502.6" y="515.74"/><rect fill="#FFFFFF" height="21.9037" style="stroke:#181818;stroke-width:0.6999999999999998;" width="7" x="643.3" y="156.1807"/><rect fill="#FFFFFF" height="21.9037" style="stroke:#181818;stroke-width:0.6999999999999998;" width="7" x="643.3" y="199.9881"/><rect fill="#FFFFFF" height="21.9037" style="stroke:#181818;stroke-width:0.6999999999999998;" width="7" x="772.8" y="178.0844"/><rect fill="#FFFFFF" height="28.2037" style="stroke:#181818;stroke-width:0.6999999999999998;" width="7" x="928.9" y="537.6437"/><rect fill="#FFFFFF" height="52.9074" style="stroke:#181818;stroke-width:0.6999999999999998;" width="7" x="1040.9" y="375.2178"/><polygon fill="#181818" points="334.6,79.0385,341.6,81.8385,334.6,84.6385,337.4,81.8385" style="stroke:#181818;stroke-width:0.6999999999999998;"/><line style="stroke:#181818;stroke-width:0.6999999999999998;" x1="21.7" x2="338.8" y1="81.8385" y2="81.8385"/><text fill="#000000" font-family="sans-serif" font-size="9.1" font-weight="bold" lengthAdjust="spacing" textLength="4.9" x="26.6" y="78.1546">1</text><text fill="#000000" font-family="sans-serif" font-size="9.1" lengthAdjust="spacing" textLength="191.8" x="34.3" y="78.1546">starts placing an order to purchase the property</text><polygon fill="#181818" points="412.65,100.9422,419.65,103.7422,412.65,106.5422,415.45,103.7422" style="stroke:#181818;stroke-width:0.6999999999999998;"/><line style="stroke:#181818;stroke-width:0.6999999999999998;" x1="350" x2="416.85" y1="103.7422" y2="103.7422"/><text fill="#000000" font-family="sans-serif" font-size="9.1" font-weight="bold" lengthAdjust="spacing" textLength="4.9" x="354.9" y="100.0583">2</text><text fill="#000000" font-family="sans-serif" font-size="9.1" lengthAdjust="spacing" textLength="25.2" x="362.6" y="100.0583">create</text><rect fill="#E2E2F0" height="22.8348" rx="1.75" ry="1.75" style="stroke:#181818;stroke-width:0.3499999999999999;" width="170.1" x="421.05" y="87.4385"/><text fill="#000000" font-family="sans-serif" font-size="9.8" lengthAdjust="spacing" textLength="160.3" x="425.95" y="102.9137">PlaceOrderToBuyPropertyController</text><polygon fill="#181818" points="494.2,131.477,501.2,134.277,494.2,137.077,497,134.277" style="stroke:#181818;stroke-width:0.6999999999999998;"/><line style="stroke:#181818;stroke-width:0.6999999999999998;" x1="346.5" x2="498.4" y1="134.277" y2="134.277"/><text fill="#000000" font-family="sans-serif" font-size="9.1" font-weight="bold" lengthAdjust="spacing" textLength="4.9" x="351.4" y="130.5931">3</text><text fill="#000000" font-family="sans-serif" font-size="9.1" lengthAdjust="spacing" textLength="93.8" x="359.1" y="130.5931">getAnnouncementList()</text><polygon fill="#181818" points="634.9,153.3807,641.9,156.1807,634.9,158.9807,637.7,156.1807" style="stroke:#181818;stroke-width:0.6999999999999998;"/><line style="stroke:#181818;stroke-width:0.6999999999999998;" x1="506.1" x2="639.1" y1="156.1807" y2="156.1807"/><text fill="#000000" font-family="sans-serif" font-size="9.1" font-weight="bold" lengthAdjust="spacing" textLength="4.9" x="511" y="152.4968">4</text><text fill="#000000" font-family="sans-serif" font-size="9.1" lengthAdjust="spacing" textLength="93.8" x="518.7" y="152.4968">getAnnouncementList()</text><polygon fill="#181818" points="764.4,175.2844,771.4,178.0844,764.4,180.8844,767.2,178.0844" style="stroke:#181818;stroke-width:0.6999999999999998;"/><line style="stroke:#181818;stroke-width:0.6999999999999998;" x1="646.8" x2="768.6" y1="178.0844" y2="178.0844"/><text fill="#000000" font-family="sans-serif" font-size="9.1" font-weight="bold" lengthAdjust="spacing" textLength="4.9" x="651.7" y="174.4005">5</text><text fill="#000000" font-family="sans-serif" font-size="9.1" lengthAdjust="spacing" textLength="93.8" x="659.4" y="174.4005">getAnnouncementList()</text><polygon fill="#181818" points="658,197.1881,651,199.9881,658,202.7881,655.2,199.9881" style="stroke:#181818;stroke-width:0.6999999999999998;"/><line style="stroke:#181818;stroke-width:0.6999999999999998;" x1="653.8" x2="775.6" y1="199.9881" y2="199.9881"/><text fill="#000000" font-family="sans-serif" font-size="9.1" font-weight="bold" lengthAdjust="spacing" textLength="4.9" x="662.2" y="196.3042">6</text><text fill="#000000" font-family="sans-serif" font-size="9.1" lengthAdjust="spacing" textLength="101.5" x="669.9" y="196.3042">return AnnouncementList</text><polygon fill="#181818" points="517.3,219.0918,510.3,221.8918,517.3,224.6918,514.5,221.8918" style="stroke:#181818;stroke-width:0.6999999999999998;"/><line style="stroke:#181818;stroke-width:0.6999999999999998;" x1="513.1" x2="646.1" y1="221.8918" y2="221.8918"/><text fill="#000000" font-family="sans-serif" font-size="9.1" font-weight="bold" lengthAdjust="spacing" textLength="4.9" x="521.5" y="218.2079">7</text><text fill="#000000" font-family="sans-serif" font-size="9.1" lengthAdjust="spacing" textLength="101.5" x="529.2" y="218.2079">return AnnouncementList</text><polygon fill="#181818" points="357.7,240.9955,350.7,243.7955,357.7,246.5955,354.9,243.7955" style="stroke:#181818;stroke-width:0.6999999999999998;"/><line style="stroke:#181818;stroke-width:0.6999999999999998;" x1="353.5" x2="505.4" y1="243.7955" y2="243.7955"/><text fill="#000000" font-family="sans-serif" font-size="9.1" font-weight="bold" lengthAdjust="spacing" textLength="4.9" x="361.9" y="240.1116">8</text><text fill="#000000" font-family="sans-serif" font-size="9.1" lengthAdjust="spacing" textLength="101.5" x="369.6" y="240.1116">return AnnouncementList</text><polygon fill="#181818" points="29.4,262.8992,22.4,265.6992,29.4,268.4992,26.6,265.6992" style="stroke:#181818;stroke-width:0.6999999999999998;"/><line style="stroke:#181818;stroke-width:0.6999999999999998;" x1="25.2" x2="342.3" y1="265.6992" y2="265.6992"/><text fill="#000000" font-family="sans-serif" font-size="9.1" font-weight="bold" lengthAdjust="spacing" textLength="4.9" x="33.6" y="262.0153">9</text><text fill="#000000" font-family="sans-serif" font-size="9.1" lengthAdjust="spacing" textLength="250.6" x="41.3" y="262.0153">shows Announcement list and requests the user to select one</text><polygon fill="#181818" points="334.6,284.8029,341.6,287.6029,334.6,290.4029,337.4,287.6029" style="stroke:#181818;stroke-width:0.6999999999999998;"/><line style="stroke:#181818;stroke-width:0.6999999999999998;" x1="21.7" x2="338.8" y1="287.6029" y2="287.6029"/><text fill="#000000" font-family="sans-serif" font-size="9.1" font-weight="bold" lengthAdjust="spacing" textLength="9.8" x="26.6" y="283.919">10</text><text fill="#000000" font-family="sans-serif" font-size="9.1" lengthAdjust="spacing" textLength="163.1" x="39.2" y="283.919">selects Announcement with the property</text><polygon fill="#181818" points="29.4,306.7066,22.4,309.5066,29.4,312.3066,26.6,309.5066" style="stroke:#181818;stroke-width:0.6999999999999998;"/><line style="stroke:#181818;stroke-width:0.6999999999999998;" x1="25.2" x2="342.3" y1="309.5066" y2="309.5066"/><text fill="#000000" font-family="sans-serif" font-size="9.1" font-weight="bold" lengthAdjust="spacing" textLength="9.8" x="33.6" y="305.8228">11</text><text fill="#000000" font-family="sans-serif" font-size="9.1" lengthAdjust="spacing" textLength="91" x="46.2" y="305.8228">requests order amount</text><polygon fill="#181818" points="334.6,328.6104,341.6,331.4104,334.6,334.2104,337.4,331.4104" style="stroke:#181818;stroke-width:0.6999999999999998;"/><line style="stroke:#181818;stroke-width:0.6999999999999998;" x1="21.7" x2="338.8" y1="331.4104" y2="331.4104"/><text fill="#000000" font-family="sans-serif" font-size="9.1" font-weight="bold" lengthAdjust="spacing" textLength="9.8" x="26.6" y="327.7265">12</text><text fill="#000000" font-family="sans-serif" font-size="9.1" lengthAdjust="spacing" textLength="78.4" x="39.2" y="327.7265">types order amount</text><polygon fill="#181818" points="494.2,350.5141,501.2,353.3141,494.2,356.1141,497,353.3141" style="stroke:#181818;stroke-width:0.6999999999999998;"/><line style="stroke:#181818;stroke-width:0.6999999999999998;" x1="346.5" x2="498.4" y1="353.3141" y2="353.3141"/><text fill="#000000" font-family="sans-serif" font-size="9.1" font-weight="bold" lengthAdjust="spacing" textLength="9.8" x="351.4" y="349.6302">13</text><text fill="#000000" font-family="sans-serif" font-size="9.1" lengthAdjust="spacing" textLength="53.2" x="364" y="349.6302">createOrder()</text><polygon fill="#181818" points="1032.5,372.4178,1039.5,375.2178,1032.5,378.0178,1035.3,375.2178" style="stroke:#181818;stroke-width:0.6999999999999998;"/><line style="stroke:#181818;stroke-width:0.6999999999999998;" x1="506.1" x2="1036.7" y1="375.2178" y2="375.2178"/><text fill="#000000" font-family="sans-serif" font-size="9.1" font-weight="bold" lengthAdjust="spacing" textLength="9.8" x="511" y="371.5339">14</text><text fill="#000000" font-family="sans-serif" font-size="9.1" lengthAdjust="spacing" textLength="53.2" x="523.6" y="371.5339">createOrder()</text><line style="stroke:#181818;stroke-width:0.6999999999999998;" x1="1047.9" x2="1077.3" y1="397.1215" y2="397.1215"/><line style="stroke:#181818;stroke-width:0.6999999999999998;" x1="1077.3" x2="1077.3" y1="397.1215" y2="406.2215"/><line style="stroke:#181818;stroke-width:0.6999999999999998;" x1="1048.6" x2="1077.3" y1="406.2215" y2="406.2215"/><polygon fill="#181818" points="1055.6,403.4215,1048.6,406.2215,1055.6,409.0215,1052.8,406.2215" style="stroke:#181818;stroke-width:0.6999999999999998;"/><text fill="#000000" font-family="sans-serif" font-size="9.1" font-weight="bold" lengthAdjust="spacing" textLength="9.8" x="1052.8" y="393.4376">15</text><text fill="#000000" font-family="sans-serif" font-size="9.1" lengthAdjust="spacing" textLength="35" x="1065.4" y="393.4376">validates</text><polygon fill="#181818" points="517.3,425.3252,510.3,428.1252,517.3,430.9252,514.5,428.1252" style="stroke:#181818;stroke-width:0.6999999999999998;"/><line style="stroke:#181818;stroke-width:0.6999999999999998;" x1="513.1" x2="1043.7" y1="428.1252" y2="428.1252"/><text fill="#000000" font-family="sans-serif" font-size="9.1" font-weight="bold" lengthAdjust="spacing" textLength="9.8" x="521.5" y="424.4413">16</text><text fill="#000000" font-family="sans-serif" font-size="9.1" lengthAdjust="spacing" textLength="79.1" x="534.1" y="424.4413">return created order</text><polygon fill="#181818" points="357.7,447.2289,350.7,450.0289,357.7,452.8289,354.9,450.0289" style="stroke:#181818;stroke-width:0.6999999999999998;"/><line style="stroke:#181818;stroke-width:0.6999999999999998;" x1="353.5" x2="505.4" y1="450.0289" y2="450.0289"/><text fill="#000000" font-family="sans-serif" font-size="9.1" font-weight="bold" lengthAdjust="spacing" textLength="9.8" x="361.9" y="446.345">17</text><text fill="#000000" font-family="sans-serif" font-size="9.1" lengthAdjust="spacing" textLength="79.1" x="374.5" y="446.345">return created order</text><polygon fill="#181818" points="29.4,469.1326,22.4,471.9326,29.4,474.7326,26.6,471.9326" style="stroke:#181818;stroke-width:0.6999999999999998;"/><line style="stroke:#181818;stroke-width:0.6999999999999998;" x1="25.2" x2="342.3" y1="471.9326" y2="471.9326"/><text fill="#000000" font-family="sans-serif" font-size="9.1" font-weight="bold" lengthAdjust="spacing" textLength="9.8" x="33.6" y="468.2487">18</text><text fill="#000000" font-family="sans-serif" font-size="9.1" lengthAdjust="spacing" textLength="291.9" x="46.2" y="468.2487">shows selected property and the order amount and asks for confirmation</text><polygon fill="#181818" points="334.6,491.0363,341.6,493.8363,334.6,496.6363,337.4,493.8363" style="stroke:#181818;stroke-width:0.6999999999999998;"/><line style="stroke:#181818;stroke-width:0.6999999999999998;" x1="21.7" x2="338.8" y1="493.8363" y2="493.8363"/><text fill="#000000" font-family="sans-serif" font-size="9.1" font-weight="bold" lengthAdjust="spacing" textLength="9.8" x="26.6" y="490.1524">19</text><text fill="#000000" font-family="sans-serif" font-size="9.1" lengthAdjust="spacing" textLength="70" x="39.2" y="490.1524">confirms the data</text><polygon fill="#181818" points="494.2,512.94,501.2,515.74,494.2,518.54,497,515.74" style="stroke:#181818;stroke-width:0.6999999999999998;"/><line style="stroke:#181818;stroke-width:0.6999999999999998;" x1="346.5" x2="498.4" y1="515.74" y2="515.74"/><text fill="#000000" font-family="sans-serif" font-size="9.1" font-weight="bold" lengthAdjust="spacing" textLength="9.8" x="351.4" y="512.0562">20</text><text fill="#000000" font-family="sans-serif" font-size="9.1" lengthAdjust="spacing" textLength="46.2" x="364" y="512.0562">saveOrder()</text><polygon fill="#181818" points="920.5,534.8437,927.5,537.6437,920.5,540.4437,923.3,537.6437" style="stroke:#181818;stroke-width:0.6999999999999998;"/><line style="stroke:#181818;stroke-width:0.6999999999999998;" x1="509.6" x2="924.7" y1="537.6437" y2="537.6437"/><text fill="#000000" font-family="sans-serif" font-size="9.1" font-weight="bold" lengthAdjust="spacing" textLength="9.8" x="514.5" y="533.9599">21</text><text fill="#000000" font-family="sans-serif" font-size="9.1" lengthAdjust="spacing" textLength="46.2" x="527.1" y="533.9599">saveOrder()</text><polygon fill="#181818" points="25.9,556.7475,18.9,559.5475,25.9,562.3475,23.1,559.5475" style="stroke:#181818;stroke-width:0.6999999999999998;"/><line style="stroke:#181818;stroke-width:0.6999999999999998;" x1="21.7" x2="342.3" y1="559.5475" y2="559.5475"/><text fill="#000000" font-family="sans-serif" font-size="9.1" font-weight="bold" lengthAdjust="spacing" textLength="9.8" x="30.1" y="555.8636">22</text><text fill="#000000" font-family="sans-serif" font-size="9.1" lengthAdjust="spacing" textLength="101.5" x="42.7" y="555.8636">informs operation sucess</text><!--SRC=[bLJ9RWCX3Btp5JwsbVe3ELJgSgbKgL6LVW1bt0Hr0bCmgVBtDP05o3Qvp8Bni_tU0nd8ch3yGYU4L6GTFFSQ3O7qeDAN6AGZhVGWUNNQIuNlhaCtiqzXFNLsG4VhpzUuF-WnUv-j8MVx7bsgGQvAUZJ61gDmoPLVPkydOnyuMA-vt_MOcYTsfusn2ni_c82Q3BsIX5iMH7x3_GFFEG5FZEDXu7hQp46QZ05aOGXEBQH7e0N2iEcW06IQHD0HY8U_kuC9A8SSA5OdC4SgnttJdcvkXUYmWjatoJGAViJyXi8nM2bzzzTg89g5jiYUtJ6r3j2FHWh5nF7rewCwfE0Cj2sSRA0iSzNyIQIhozNpbg95Jur1gvKgh9JSoRvSs3zVGK3F66pGZl5_0tfsRJHcyDcj7djK1DRWWSLJf07xqxHeZ5qti2kIpuDSSkx1wQ7rWEsEmlpvFAJJETRq2UjSPatSvi3d3lRfAzdhZkE-2AMEDj9a-6wRNi1lRv0Bsfu662TireG1jlGdOQCU9PbfKVeV3zzyeIjhlhLRIjBMj49iOjaIFBciTF1oTPqA5w_V1dC7SldUFiUDDZmd3n6JqfZWWqBFAbOCvuly7m00]--></g></svg>