<?xml version="1.0" encoding="UTF-8" standalone="no"?><svg xmlns="http://www.w3.org/2000/svg" xmlns:xlink="http://www.w3.org/1999/xlink" contentStyleType="text/css" height="1484px" preserveAspectRatio="none" style="width:296px;height:1484px;background:#FFFFFF;" version="1.1" viewBox="0 0 296 1484" width="296px" zoomAndPan="magnify"><defs/><g><!--MD5=[da547346deef918ea16944ba046651ef]
class Administrator--><g id="elem_Administrator"><rect codeLine="1" fill="#F1F1F1" height="153.6563" id="Administrator" rx="2.5" ry="2.5" style="stroke:#181818;stroke-width:0.5;" width="198" x="49" y="7"/><ellipse cx="102.25" cy="23" fill="#ADD1B2" rx="11" ry="11" style="stroke:#181818;stroke-width:1.0;"/><path d="M105.9375,24.2031 Q105.6875,27.6875 104.5156,28.8594 Q103.4844,29.5781 102.1094,29.5781 Q100.7344,29.5781 99.7031,28.8594 Q97.9219,27.0781 97.9219,23.4063 Q97.9219,19.1563 99.7969,17.25 Q100.8438,16.2344 102.1719,16.2344 Q103.5781,16.2344 104.4219,17.0469 Q105.9063,18.5625 105.8281,21.4375 L103.7031,21.4375 Q103.625,19.1094 102.9844,18.4688 Q102.7031,18.1719 102.1719,18.1719 Q101.7188,18.1719 101.3594,18.5469 Q100.125,19.7656 100.125,23.2813 Q100.125,26.3281 101.1719,27.3438 Q101.5938,27.7813 102.1094,27.7813 Q102.5625,27.7813 103,27.3438 Q103.5625,26.7969 103.6406,24.2031 L105.9375,24.2031 Z " fill="#000000"/><text fill="#000000" font-family="sans-serif" font-size="14" lengthAdjust="spacing" textLength="83" x="122.75" y="28.7285">Administrator</text><line style="stroke:#181818;stroke-width:0.5;" x1="50" x2="246" y1="39" y2="39"/><line style="stroke:#181818;stroke-width:0.5;" x1="50" x2="246" y1="47" y2="47"/><ellipse cx="60" cy="58" fill="#84BE84" rx="3" ry="3" style="stroke:#038048;stroke-width:1.0;"/><text fill="#000000" font-family="sans-serif" font-size="14" lengthAdjust="spacing" textLength="121" x="69" y="65.5332">requestStateData()</text><ellipse cx="60" cy="75.6094" fill="#84BE84" rx="3" ry="3" style="stroke:#038048;stroke-width:1.0;"/><text fill="#000000" font-family="sans-serif" font-size="14" lengthAdjust="spacing" textLength="112" x="69" y="83.1426">requestCityData()</text><ellipse cx="60" cy="93.2188" fill="#84BE84" rx="3" ry="3" style="stroke:#038048;stroke-width:1.0;"/><text fill="#000000" font-family="sans-serif" font-size="14" lengthAdjust="spacing" textLength="131" x="69" y="100.752">requestDistrictData()</text><ellipse cx="60" cy="110.8281" fill="#84BE84" rx="3" ry="3" style="stroke:#038048;stroke-width:1.0;"/><text fill="#000000" font-family="sans-serif" font-size="14" lengthAdjust="spacing" textLength="126" x="69" y="118.3613">requestStreetData()</text><ellipse cx="60" cy="128.4375" fill="#84BE84" rx="3" ry="3" style="stroke:#038048;stroke-width:1.0;"/><text fill="#000000" font-family="sans-serif" font-size="14" lengthAdjust="spacing" textLength="141" x="69" y="135.9707">requestZipCodeData()</text><ellipse cx="60" cy="146.0469" fill="#84BE84" rx="3" ry="3" style="stroke:#038048;stroke-width:1.0;"/><text fill="#000000" font-family="sans-serif" font-size="14" lengthAdjust="spacing" textLength="172" x="69" y="153.5801">confirmOperationSuccess()</text></g><!--MD5=[f8e092794d52bf9a252466252ae7bd1c]
class System--><g id="elem_System"><rect codeLine="10" fill="#F1F1F1" height="153.6563" id="System" rx="2.5" ry="2.5" style="stroke:#181818;stroke-width:0.5;" width="198" x="49" y="221"/><ellipse cx="120.75" cy="237" fill="#ADD1B2" rx="11" ry="11" style="stroke:#181818;stroke-width:1.0;"/><path d="M124.4375,238.2031 Q124.1875,241.6875 123.0156,242.8594 Q121.9844,243.5781 120.6094,243.5781 Q119.2344,243.5781 118.2031,242.8594 Q116.4219,241.0781 116.4219,237.4063 Q116.4219,233.1563 118.2969,231.25 Q119.3438,230.2344 120.6719,230.2344 Q122.0781,230.2344 122.9219,231.0469 Q124.4063,232.5625 124.3281,235.4375 L122.2031,235.4375 Q122.125,233.1094 121.4844,232.4688 Q121.2031,232.1719 120.6719,232.1719 Q120.2188,232.1719 119.8594,232.5469 Q118.625,233.7656 118.625,237.2813 Q118.625,240.3281 119.6719,241.3438 Q120.0938,241.7813 120.6094,241.7813 Q121.0625,241.7813 121.5,241.3438 Q122.0625,240.7969 122.1406,238.2031 L124.4375,238.2031 Z " fill="#000000"/><text fill="#000000" font-family="sans-serif" font-size="14" lengthAdjust="spacing" textLength="46" x="141.25" y="242.7285">System</text><line style="stroke:#181818;stroke-width:0.5;" x1="50" x2="246" y1="253" y2="253"/><line style="stroke:#181818;stroke-width:0.5;" x1="50" x2="246" y1="261" y2="261"/><ellipse cx="60" cy="272" fill="#84BE84" rx="3" ry="3" style="stroke:#038048;stroke-width:1.0;"/><text fill="#000000" font-family="sans-serif" font-size="14" lengthAdjust="spacing" textLength="121" x="69" y="279.5332">requestStateData()</text><ellipse cx="60" cy="289.6094" fill="#84BE84" rx="3" ry="3" style="stroke:#038048;stroke-width:1.0;"/><text fill="#000000" font-family="sans-serif" font-size="14" lengthAdjust="spacing" textLength="112" x="69" y="297.1426">requestCityData()</text><ellipse cx="60" cy="307.2188" fill="#84BE84" rx="3" ry="3" style="stroke:#038048;stroke-width:1.0;"/><text fill="#000000" font-family="sans-serif" font-size="14" lengthAdjust="spacing" textLength="131" x="69" y="314.752">requestDistrictData()</text><ellipse cx="60" cy="324.8281" fill="#84BE84" rx="3" ry="3" style="stroke:#038048;stroke-width:1.0;"/><text fill="#000000" font-family="sans-serif" font-size="14" lengthAdjust="spacing" textLength="126" x="69" y="332.3613">requestStreetData()</text><ellipse cx="60" cy="342.4375" fill="#84BE84" rx="3" ry="3" style="stroke:#038048;stroke-width:1.0;"/><text fill="#000000" font-family="sans-serif" font-size="14" lengthAdjust="spacing" textLength="141" x="69" y="349.9707">requestZipCodeData()</text><ellipse cx="60" cy="360.0469" fill="#84BE84" rx="3" ry="3" style="stroke:#038048;stroke-width:1.0;"/><text fill="#000000" font-family="sans-serif" font-size="14" lengthAdjust="spacing" textLength="172" x="69" y="367.5801">confirmOperationSuccess()</text></g><!--MD5=[60d6b92408f98aed8df94d5c6e04aa63]
class State--><g id="elem_State"><rect codeLine="19" fill="#F1F1F1" height="188.875" id="State" rx="2.5" ry="2.5" style="stroke:#181818;stroke-width:0.5;" width="205" x="45.5" y="435"/><ellipse cx="127.25" cy="451" fill="#ADD1B2" rx="11" ry="11" style="stroke:#181818;stroke-width:1.0;"/><path d="M130.9375,452.2031 Q130.6875,455.6875 129.5156,456.8594 Q128.4844,457.5781 127.1094,457.5781 Q125.7344,457.5781 124.7031,456.8594 Q122.9219,455.0781 122.9219,451.4063 Q122.9219,447.1563 124.7969,445.25 Q125.8438,444.2344 127.1719,444.2344 Q128.5781,444.2344 129.4219,445.0469 Q130.9063,446.5625 130.8281,449.4375 L128.7031,449.4375 Q128.625,447.1094 127.9844,446.4688 Q127.7031,446.1719 127.1719,446.1719 Q126.7188,446.1719 126.3594,446.5469 Q125.125,447.7656 125.125,451.2813 Q125.125,454.3281 126.1719,455.3438 Q126.5938,455.7813 127.1094,455.7813 Q127.5625,455.7813 128,455.3438 Q128.5625,454.7969 128.6406,452.2031 L130.9375,452.2031 Z " fill="#000000"/><text fill="#000000" font-family="sans-serif" font-size="14" lengthAdjust="spacing" textLength="33" x="147.75" y="456.7285">State</text><line style="stroke:#181818;stroke-width:0.5;" x1="46.5" x2="249.5" y1="467" y2="467"/><rect fill="none" height="6" style="stroke:#C82930;stroke-width:1.0;" width="6" x="53.5" y="475"/><text fill="#000000" font-family="sans-serif" font-size="14" lengthAdjust="spacing" textLength="80" x="65.5" y="485.5332">name: String</text><rect fill="none" height="6" style="stroke:#C82930;stroke-width:1.0;" width="6" x="53.5" y="492.6094"/><text fill="#000000" font-family="sans-serif" font-size="14" lengthAdjust="spacing" textLength="101" x="65.5" y="503.1426">cities: Set&lt;City&gt;</text><line style="stroke:#181818;stroke-width:0.5;" x1="46.5" x2="249.5" y1="510.2188" y2="510.2188"/><ellipse cx="56.5" cy="521.2188" fill="#84BE84" rx="3" ry="3" style="stroke:#038048;stroke-width:1.0;"/><text fill="#000000" font-family="sans-serif" font-size="14" lengthAdjust="spacing" textLength="111" x="65.5" y="528.752">getName(): String</text><ellipse cx="56.5" cy="538.8281" fill="#84BE84" rx="3" ry="3" style="stroke:#038048;stroke-width:1.0;"/><text fill="#000000" font-family="sans-serif" font-size="14" lengthAdjust="spacing" textLength="179" x="65.5" y="546.3613">setName(name: String): void</text><ellipse cx="56.5" cy="556.4375" fill="#84BE84" rx="3" ry="3" style="stroke:#038048;stroke-width:1.0;"/><text fill="#000000" font-family="sans-serif" font-size="14" lengthAdjust="spacing" textLength="145" x="65.5" y="563.9707">addCity(city: City): void</text><ellipse cx="56.5" cy="574.0469" fill="#84BE84" rx="3" ry="3" style="stroke:#038048;stroke-width:1.0;"/><text fill="#000000" font-family="sans-serif" font-size="14" lengthAdjust="spacing" textLength="168" x="65.5" y="581.5801">removeCity(city: City): void</text><ellipse cx="56.5" cy="591.6563" fill="#84BE84" rx="3" ry="3" style="stroke:#038048;stroke-width:1.0;"/><text fill="#000000" font-family="sans-serif" font-size="14" lengthAdjust="spacing" textLength="134" x="65.5" y="599.1895">getCities(): Set&lt;City&gt;</text><ellipse cx="56.5" cy="609.2656" fill="#84BE84" rx="3" ry="3" style="stroke:#038048;stroke-width:1.0;"/><text fill="#000000" font-family="sans-serif" font-size="14" lengthAdjust="spacing" textLength="107" x="65.5" y="616.7988">saveState(): void</text></g><!--MD5=[9466097c40aeafc62ec36a0cc4f3c955]
class City--><g id="elem_City"><rect codeLine="30" fill="#F1F1F1" height="171.2656" id="City" rx="2.5" ry="2.5" style="stroke:#181818;stroke-width:0.5;" width="252" x="22" y="684"/><ellipse cx="131.75" cy="700" fill="#ADD1B2" rx="11" ry="11" style="stroke:#181818;stroke-width:1.0;"/><path d="M135.4375,701.2031 Q135.1875,704.6875 134.0156,705.8594 Q132.9844,706.5781 131.6094,706.5781 Q130.2344,706.5781 129.2031,705.8594 Q127.4219,704.0781 127.4219,700.4063 Q127.4219,696.1563 129.2969,694.25 Q130.3438,693.2344 131.6719,693.2344 Q133.0781,693.2344 133.9219,694.0469 Q135.4063,695.5625 135.3281,698.4375 L133.2031,698.4375 Q133.125,696.1094 132.4844,695.4688 Q132.2031,695.1719 131.6719,695.1719 Q131.2188,695.1719 130.8594,695.5469 Q129.625,696.7656 129.625,700.2813 Q129.625,703.3281 130.6719,704.3438 Q131.0938,704.7813 131.6094,704.7813 Q132.0625,704.7813 132.5,704.3438 Q133.0625,703.7969 133.1406,701.2031 L135.4375,701.2031 Z " fill="#000000"/><text fill="#000000" font-family="sans-serif" font-size="14" lengthAdjust="spacing" textLength="24" x="152.25" y="705.7285">City</text><line style="stroke:#181818;stroke-width:0.5;" x1="23" x2="273" y1="716" y2="716"/><rect fill="none" height="6" style="stroke:#C82930;stroke-width:1.0;" width="6" x="30" y="724"/><text fill="#000000" font-family="sans-serif" font-size="14" lengthAdjust="spacing" textLength="80" x="42" y="734.5332">name: String</text><rect fill="none" height="6" style="stroke:#C82930;stroke-width:1.0;" width="6" x="30" y="741.6094"/><text fill="#000000" font-family="sans-serif" font-size="14" lengthAdjust="spacing" textLength="136" x="42" y="752.1426">districts: Set&lt;District&gt;</text><line style="stroke:#181818;stroke-width:0.5;" x1="23" x2="273" y1="759.2188" y2="759.2188"/><ellipse cx="33" cy="770.2188" fill="#84BE84" rx="3" ry="3" style="stroke:#038048;stroke-width:1.0;"/><text fill="#000000" font-family="sans-serif" font-size="14" lengthAdjust="spacing" textLength="111" x="42" y="777.752">getName(): String</text><ellipse cx="33" cy="787.8281" fill="#84BE84" rx="3" ry="3" style="stroke:#038048;stroke-width:1.0;"/><text fill="#000000" font-family="sans-serif" font-size="14" lengthAdjust="spacing" textLength="179" x="42" y="795.3613">setName(name: String): void</text><ellipse cx="33" cy="805.4375" fill="#84BE84" rx="3" ry="3" style="stroke:#038048;stroke-width:1.0;"/><text fill="#000000" font-family="sans-serif" font-size="14" lengthAdjust="spacing" textLength="203" x="42" y="812.9707">addDistrict(district: District): void</text><ellipse cx="33" cy="823.0469" fill="#84BE84" rx="3" ry="3" style="stroke:#038048;stroke-width:1.0;"/><text fill="#000000" font-family="sans-serif" font-size="14" lengthAdjust="spacing" textLength="226" x="42" y="830.5801">removeDistrict(district: District): void</text><ellipse cx="33" cy="840.6563" fill="#84BE84" rx="3" ry="3" style="stroke:#038048;stroke-width:1.0;"/><text fill="#000000" font-family="sans-serif" font-size="14" lengthAdjust="spacing" textLength="168" x="42" y="848.1895">getDistricts(): Set&lt;District&gt;</text></g><!--MD5=[c4d681900983498091bbbc67674786ba]
class District--><g id="elem_District"><rect codeLine="40" fill="#F1F1F1" height="171.2656" id="District" rx="2.5" ry="2.5" style="stroke:#181818;stroke-width:0.5;" width="237" x="29.5" y="915"/><ellipse cx="122.25" cy="931" fill="#ADD1B2" rx="11" ry="11" style="stroke:#181818;stroke-width:1.0;"/><path d="M125.9375,932.2031 Q125.6875,935.6875 124.5156,936.8594 Q123.4844,937.5781 122.1094,937.5781 Q120.7344,937.5781 119.7031,936.8594 Q117.9219,935.0781 117.9219,931.4063 Q117.9219,927.1563 119.7969,925.25 Q120.8438,924.2344 122.1719,924.2344 Q123.5781,924.2344 124.4219,925.0469 Q125.9063,926.5625 125.8281,929.4375 L123.7031,929.4375 Q123.625,927.1094 122.9844,926.4688 Q122.7031,926.1719 122.1719,926.1719 Q121.7188,926.1719 121.3594,926.5469 Q120.125,927.7656 120.125,931.2813 Q120.125,934.3281 121.1719,935.3438 Q121.5938,935.7813 122.1094,935.7813 Q122.5625,935.7813 123,935.3438 Q123.5625,934.7969 123.6406,932.2031 L125.9375,932.2031 Z " fill="#000000"/><text fill="#000000" font-family="sans-serif" font-size="14" lengthAdjust="spacing" textLength="43" x="142.75" y="936.7285">District</text><line style="stroke:#181818;stroke-width:0.5;" x1="30.5" x2="265.5" y1="947" y2="947"/><rect fill="none" height="6" style="stroke:#C82930;stroke-width:1.0;" width="6" x="37.5" y="955"/><text fill="#000000" font-family="sans-serif" font-size="14" lengthAdjust="spacing" textLength="80" x="49.5" y="965.5332">name: String</text><rect fill="none" height="6" style="stroke:#C82930;stroke-width:1.0;" width="6" x="37.5" y="972.6094"/><text fill="#000000" font-family="sans-serif" font-size="14" lengthAdjust="spacing" textLength="126" x="49.5" y="983.1426">streets: Set&lt;Street&gt;</text><line style="stroke:#181818;stroke-width:0.5;" x1="30.5" x2="265.5" y1="990.2188" y2="990.2188"/><ellipse cx="40.5" cy="1001.2188" fill="#84BE84" rx="3" ry="3" style="stroke:#038048;stroke-width:1.0;"/><text fill="#000000" font-family="sans-serif" font-size="14" lengthAdjust="spacing" textLength="111" x="49.5" y="1008.752">getName(): String</text><ellipse cx="40.5" cy="1018.8281" fill="#84BE84" rx="3" ry="3" style="stroke:#038048;stroke-width:1.0;"/><text fill="#000000" font-family="sans-serif" font-size="14" lengthAdjust="spacing" textLength="179" x="49.5" y="1026.3613">setName(name: String): void</text><ellipse cx="40.5" cy="1036.4375" fill="#84BE84" rx="3" ry="3" style="stroke:#038048;stroke-width:1.0;"/><text fill="#000000" font-family="sans-serif" font-size="14" lengthAdjust="spacing" textLength="188" x="49.5" y="1043.9707">addStreet(street: Street): void</text><ellipse cx="40.5" cy="1054.0469" fill="#84BE84" rx="3" ry="3" style="stroke:#038048;stroke-width:1.0;"/><text fill="#000000" font-family="sans-serif" font-size="14" lengthAdjust="spacing" textLength="211" x="49.5" y="1061.5801">removeStreet(street: Street): void</text><ellipse cx="40.5" cy="1071.6563" fill="#84BE84" rx="3" ry="3" style="stroke:#038048;stroke-width:1.0;"/><text fill="#000000" font-family="sans-serif" font-size="14" lengthAdjust="spacing" textLength="158" x="49.5" y="1079.1895">getStreets(): Set&lt;Street&gt;</text></g><!--MD5=[e723117c0f41e2c24ef9f63f1be0d05e]
class Street--><g id="elem_Street"><rect codeLine="50" fill="#F1F1F1" height="171.2656" id="Street" rx="2.5" ry="2.5" style="stroke:#181818;stroke-width:0.5;" width="282" x="7" y="1146"/><ellipse cx="124.75" cy="1162" fill="#ADD1B2" rx="11" ry="11" style="stroke:#181818;stroke-width:1.0;"/><path d="M128.4375,1163.2031 Q128.1875,1166.6875 127.0156,1167.8594 Q125.9844,1168.5781 124.6094,1168.5781 Q123.2344,1168.5781 122.2031,1167.8594 Q120.4219,1166.0781 120.4219,1162.4063 Q120.4219,1158.1563 122.2969,1156.25 Q123.3438,1155.2344 124.6719,1155.2344 Q126.0781,1155.2344 126.9219,1156.0469 Q128.4063,1157.5625 128.3281,1160.4375 L126.2031,1160.4375 Q126.125,1158.1094 125.4844,1157.4688 Q125.2031,1157.1719 124.6719,1157.1719 Q124.2188,1157.1719 123.8594,1157.5469 Q122.625,1158.7656 122.625,1162.2813 Q122.625,1165.3281 123.6719,1166.3438 Q124.0938,1166.7813 124.6094,1166.7813 Q125.0625,1166.7813 125.5,1166.3438 Q126.0625,1165.7969 126.1406,1163.2031 L128.4375,1163.2031 Z " fill="#000000"/><text fill="#000000" font-family="sans-serif" font-size="14" lengthAdjust="spacing" textLength="38" x="145.25" y="1167.7285">Street</text><line style="stroke:#181818;stroke-width:0.5;" x1="8" x2="288" y1="1178" y2="1178"/><rect fill="none" height="6" style="stroke:#C82930;stroke-width:1.0;" width="6" x="15" y="1186"/><text fill="#000000" font-family="sans-serif" font-size="14" lengthAdjust="spacing" textLength="80" x="27" y="1196.5332">name: String</text><rect fill="none" height="6" style="stroke:#C82930;stroke-width:1.0;" width="6" x="15" y="1203.6094"/><text fill="#000000" font-family="sans-serif" font-size="14" lengthAdjust="spacing" textLength="156" x="27" y="1214.1426">zipCodes: Set&lt;ZipCode&gt;</text><line style="stroke:#181818;stroke-width:0.5;" x1="8" x2="288" y1="1221.2188" y2="1221.2188"/><ellipse cx="18" cy="1232.2188" fill="#84BE84" rx="3" ry="3" style="stroke:#038048;stroke-width:1.0;"/><text fill="#000000" font-family="sans-serif" font-size="14" lengthAdjust="spacing" textLength="111" x="27" y="1239.752">getName(): String</text><ellipse cx="18" cy="1249.8281" fill="#84BE84" rx="3" ry="3" style="stroke:#038048;stroke-width:1.0;"/><text fill="#000000" font-family="sans-serif" font-size="14" lengthAdjust="spacing" textLength="179" x="27" y="1257.3613">setName(name: String): void</text><ellipse cx="18" cy="1267.4375" fill="#84BE84" rx="3" ry="3" style="stroke:#038048;stroke-width:1.0;"/><text fill="#000000" font-family="sans-serif" font-size="14" lengthAdjust="spacing" textLength="233" x="27" y="1274.9707">addZipCode(zipCode: ZipCode): void</text><ellipse cx="18" cy="1285.0469" fill="#84BE84" rx="3" ry="3" style="stroke:#038048;stroke-width:1.0;"/><text fill="#000000" font-family="sans-serif" font-size="14" lengthAdjust="spacing" textLength="256" x="27" y="1292.5801">removeZipCode(zipCode: ZipCode): void</text><ellipse cx="18" cy="1302.6563" fill="#84BE84" rx="3" ry="3" style="stroke:#038048;stroke-width:1.0;"/><text fill="#000000" font-family="sans-serif" font-size="14" lengthAdjust="spacing" textLength="188" x="27" y="1310.1895">getZipCodes(): Set&lt;ZipCode&gt;</text></g><!--MD5=[6708425cd5d7b8ef5af9189752a224e3]
class ZipCode--><g id="elem_ZipCode"><rect codeLine="60" fill="#F1F1F1" height="100.8281" id="ZipCode" rx="2.5" ry="2.5" style="stroke:#181818;stroke-width:0.5;" width="199" x="48.5" y="1377"/><ellipse cx="117.25" cy="1393" fill="#ADD1B2" rx="11" ry="11" style="stroke:#181818;stroke-width:1.0;"/><path d="M120.9375,1394.2031 Q120.6875,1397.6875 119.5156,1398.8594 Q118.4844,1399.5781 117.1094,1399.5781 Q115.7344,1399.5781 114.7031,1398.8594 Q112.9219,1397.0781 112.9219,1393.4063 Q112.9219,1389.1563 114.7969,1387.25 Q115.8438,1386.2344 117.1719,1386.2344 Q118.5781,1386.2344 119.4219,1387.0469 Q120.9063,1388.5625 120.8281,1391.4375 L118.7031,1391.4375 Q118.625,1389.1094 117.9844,1388.4688 Q117.7031,1388.1719 117.1719,1388.1719 Q116.7188,1388.1719 116.3594,1388.5469 Q115.125,1389.7656 115.125,1393.2813 Q115.125,1396.3281 116.1719,1397.3438 Q116.5938,1397.7813 117.1094,1397.7813 Q117.5625,1397.7813 118,1397.3438 Q118.5625,1396.7969 118.6406,1394.2031 L120.9375,1394.2031 Z " fill="#000000"/><text fill="#000000" font-family="sans-serif" font-size="14" lengthAdjust="spacing" textLength="53" x="137.75" y="1398.7285">ZipCode</text><line style="stroke:#181818;stroke-width:0.5;" x1="49.5" x2="246.5" y1="1409" y2="1409"/><rect fill="none" height="6" style="stroke:#C82930;stroke-width:1.0;" width="6" x="56.5" y="1417"/><text fill="#000000" font-family="sans-serif" font-size="14" lengthAdjust="spacing" textLength="76" x="68.5" y="1427.5332">code: String</text><line style="stroke:#181818;stroke-width:0.5;" x1="49.5" x2="246.5" y1="1434.6094" y2="1434.6094"/><ellipse cx="59.5" cy="1445.6094" fill="#84BE84" rx="3" ry="3" style="stroke:#038048;stroke-width:1.0;"/><text fill="#000000" font-family="sans-serif" font-size="14" lengthAdjust="spacing" textLength="109" x="68.5" y="1453.1426">getCode(): String</text><ellipse cx="59.5" cy="1463.2188" fill="#84BE84" rx="3" ry="3" style="stroke:#038048;stroke-width:1.0;"/><text fill="#000000" font-family="sans-serif" font-size="14" lengthAdjust="spacing" textLength="173" x="68.5" y="1470.752">setCode(code: String): void</text></g><!--MD5=[fd413cd24b0e3198c933e5cfb3337184]
link Administrator to System--><g id="link_Administrator_System"><path codeLine="66" d="M148,161.24 C148,178.92 148,197.81 148,215.71 " fill="none" id="Administrator-to-System" style="stroke:#181818;stroke-width:1.0;"/><polygon fill="#181818" points="148,220.73,152,211.73,148,215.73,144,211.73,148,220.73" style="stroke:#181818;stroke-width:1.0;"/></g><!--MD5=[830a1695f3ce7be65aa9e7c6fec14c3b]
link System to State--><g id="link_System_State"><path codeLine="67" d="M148,375.1 C148,392.51 148,411.27 148,429.49 " fill="none" id="System-to-State" style="stroke:#181818;stroke-width:1.0;"/><polygon fill="#181818" points="148,434.61,152,425.61,148,429.61,144,425.61,148,434.61" style="stroke:#181818;stroke-width:1.0;"/><text fill="#000000" font-family="sans-serif" font-size="13" lengthAdjust="spacing" textLength="7" x="140.6883" y="396.2053">1</text><text fill="#000000" font-family="sans-serif" font-size="13" lengthAdjust="spacing" textLength="22" x="125.1578" y="424.2458">0..1</text></g><!--MD5=[d41b4013653c5167ee1ec5c7734f623f]
link State to City--><g id="link_State_City"><path codeLine="68" d="M148,624.22 C148,642.18 148,660.94 148,678.76 " fill="none" id="State-to-City" style="stroke:#181818;stroke-width:1.0;"/><polygon fill="#181818" points="148,683.76,152,674.76,148,678.76,144,674.76,148,683.76" style="stroke:#181818;stroke-width:1.0;"/><text fill="#000000" font-family="sans-serif" font-size="13" lengthAdjust="spacing" textLength="7" x="140.743" y="645.2761">1</text><text fill="#000000" font-family="sans-serif" font-size="13" lengthAdjust="spacing" textLength="20" x="127.1406" y="673.203">0..*</text></g><!--MD5=[e0d9c28b4caa0dc202060244a21bbc66]
link City to District--><g id="link_City_District"><path codeLine="69" d="M148,855.12 C148,872.94 148,891.8 148,909.79 " fill="none" id="City-to-District" style="stroke:#181818;stroke-width:1.0;"/><polygon fill="#181818" points="148,914.85,152,905.85,148,909.85,144,905.85,148,914.85" style="stroke:#181818;stroke-width:1.0;"/><text fill="#000000" font-family="sans-serif" font-size="13" lengthAdjust="spacing" textLength="7" x="140.6992" y="876.6643">1</text><text fill="#000000" font-family="sans-serif" font-size="13" lengthAdjust="spacing" textLength="20" x="127.1094" y="904.0082">0..*</text></g><!--MD5=[3b4278039425387012c3d6363ad30c77]
link District to Street--><g id="link_District_Street"><path codeLine="70" d="M148,1086.12 C148,1103.94 148,1122.8 148,1140.79 " fill="none" id="District-to-Street" style="stroke:#181818;stroke-width:1.0;"/><polygon fill="#181818" points="148,1145.85,152,1136.85,148,1140.85,144,1136.85,148,1145.85" style="stroke:#181818;stroke-width:1.0;"/><text fill="#000000" font-family="sans-serif" font-size="13" lengthAdjust="spacing" textLength="7" x="140.6992" y="1107.6643">1</text><text fill="#000000" font-family="sans-serif" font-size="13" lengthAdjust="spacing" textLength="20" x="127.1094" y="1135.0082">0..*</text></g><!--MD5=[556a181d045a5c1b1ba46eae846cfb74]
link Street to ZipCode--><g id="link_Street_ZipCode"><path codeLine="71" d="M148,1317.03 C148,1335.53 148,1354.66 148,1371.64 " fill="none" id="Street-to-ZipCode" style="stroke:#181818;stroke-width:1.0;"/><polygon fill="#181818" points="148,1376.84,152,1367.84,148,1371.84,144,1367.84,148,1376.84" style="stroke:#181818;stroke-width:1.0;"/><text fill="#000000" font-family="sans-serif" font-size="13" lengthAdjust="spacing" textLength="7" x="140.6883" y="1338.859">1</text><text fill="#000000" font-family="sans-serif" font-size="13" lengthAdjust="spacing" textLength="20" x="126.5938" y="1366.1229">0..*</text></g><!--MD5=[e95d3a147e06741f0ef8f655be0ec2e6]
@startuml
class Administrator {
  +requestStateData()
  +requestCityData()
  +requestDistrictData()
  +requestStreetData()
  +requestZipCodeData()
  +confirmOperationSuccess()
}

class System {
  +requestStateData()
  +requestCityData()
  +requestDistrictData()
  +requestStreetData()
  +requestZipCodeData()
  +confirmOperationSuccess()
}

class State {
  -name: String
    -cities: Set<City>
    +getName(): String
    +setName(name: String): void
    +addCity(city: City): void
    +removeCity(city: City): void
    +getCities(): Set<City>
    +saveState(): void
}

class City {
  -name: String
  -districts: Set<District>
  +getName(): String
  +setName(name: String): void
  +addDistrict(district: District): void
  +removeDistrict(district: District): void
  +getDistricts(): Set<District>
}

class District {
  -name: String
  -streets: Set<Street>
  +getName(): String
  +setName(name: String): void
  +addStreet(street: Street): void
  +removeStreet(street: Street): void
  +getStreets(): Set<Street>
}

class Street {
  -name: String
  -zipCodes: Set<ZipCode>
  +getName(): String
  +setName(name: String): void
  +addZipCode(zipCode: ZipCode): void
  +removeZipCode(zipCode: ZipCode): void
  +getZipCodes(): Set<ZipCode>
}

class ZipCode {
  -code: String
  +getCode(): String
  +setCode(code: String): void
}

Administrator - -> System
System "1" - -> "0..1" State
State "1" - -> "0..*" City
City "1" - -> "0..*" District
District "1" - -> "0..*" Street
Street "1" - -> "0..*" ZipCode
@enduml

PlantUML version 1.2022.4(Sat Apr 09 14:29:17 BST 2022)
(GPL source distribution)
Java Runtime: OpenJDK Runtime Environment
JVM: OpenJDK 64-Bit Server VM
Default Encoding: MS932
Language: en
Country: US
--></g></svg>