<?xml version="1.0" encoding="UTF-8" standalone="no"?><svg xmlns="http://www.w3.org/2000/svg" xmlns:xlink="http://www.w3.org/1999/xlink" contentStyleType="text/css" height="419px" preserveAspectRatio="none" style="width:512px;height:419px;background:#FFFFFF;" version="1.1" viewBox="0 0 512 419" width="512px" zoomAndPan="magnify"><defs/><g><!--MD5=[da547346deef918ea16944ba046651ef]
class Administrator--><g id="elem_Administrator"><rect codeLine="1" fill="#F1F1F1" height="48" id="Administrator" rx="2.5" ry="2.5" style="stroke:#181818;stroke-width:0.5;" width="115" x="190" y="7"/><ellipse cx="205" cy="23" fill="#ADD1B2" rx="11" ry="11" style="stroke:#181818;stroke-width:1.0;"/><path d="M208.6875,24.2031 Q208.4375,27.6875 207.2656,28.8594 Q206.2344,29.5781 204.8594,29.5781 Q203.4844,29.5781 202.4531,28.8594 Q200.6719,27.0781 200.6719,23.4063 Q200.6719,19.1563 202.5469,17.25 Q203.5938,16.2344 204.9219,16.2344 Q206.3281,16.2344 207.1719,17.0469 Q208.6563,18.5625 208.5781,21.4375 L206.4531,21.4375 Q206.375,19.1094 205.7344,18.4688 Q205.4531,18.1719 204.9219,18.1719 Q204.4688,18.1719 204.1094,18.5469 Q202.875,19.7656 202.875,23.2813 Q202.875,26.3281 203.9219,27.3438 Q204.3438,27.7813 204.8594,27.7813 Q205.3125,27.7813 205.75,27.3438 Q206.3125,26.7969 206.3906,24.2031 L208.6875,24.2031 Z " fill="#000000"/><text fill="#000000" font-family="sans-serif" font-size="14" lengthAdjust="spacing" textLength="83" x="219" y="28.7285">Administrator</text><line style="stroke:#181818;stroke-width:0.5;" x1="191" x2="304" y1="39" y2="39"/><line style="stroke:#181818;stroke-width:0.5;" x1="191" x2="304" y1="47" y2="47"/></g><!--MD5=[4f1f3706c1a355a8488e154afcaed5df]
class Location--><g id="elem_Location"><rect codeLine="5" fill="#F1F1F1" height="136.0469" id="Location" rx="2.5" ry="2.5" style="stroke:#181818;stroke-width:0.5;" width="94" x="200.5" y="133"/><ellipse cx="219.1" cy="149" fill="#ADD1B2" rx="11" ry="11" style="stroke:#181818;stroke-width:1.0;"/><path d="M222.7875,150.2031 Q222.5375,153.6875 221.3656,154.8594 Q220.3344,155.5781 218.9594,155.5781 Q217.5844,155.5781 216.5531,154.8594 Q214.7719,153.0781 214.7719,149.4063 Q214.7719,145.1563 216.6469,143.25 Q217.6938,142.2344 219.0219,142.2344 Q220.4281,142.2344 221.2719,143.0469 Q222.7563,144.5625 222.6781,147.4375 L220.5531,147.4375 Q220.475,145.1094 219.8344,144.4688 Q219.5531,144.1719 219.0219,144.1719 Q218.5688,144.1719 218.2094,144.5469 Q216.975,145.7656 216.975,149.2813 Q216.975,152.3281 218.0219,153.3438 Q218.4438,153.7813 218.9594,153.7813 Q219.4125,153.7813 219.85,153.3438 Q220.4125,152.7969 220.4906,150.2031 L222.7875,150.2031 Z " fill="#000000"/><text fill="#000000" font-family="sans-serif" font-size="14" lengthAdjust="spacing" textLength="54" x="233.9" y="154.7285">Location</text><line style="stroke:#181818;stroke-width:0.5;" x1="201.5" x2="293.5" y1="165" y2="165"/><text fill="#000000" font-family="sans-serif" font-size="14" lengthAdjust="spacing" textLength="72" x="206.5" y="183.5332">String state</text><text fill="#000000" font-family="sans-serif" font-size="14" lengthAdjust="spacing" textLength="62" x="206.5" y="201.1426">String city</text><text fill="#000000" font-family="sans-serif" font-size="14" lengthAdjust="spacing" textLength="82" x="206.5" y="218.752">String district</text><text fill="#000000" font-family="sans-serif" font-size="14" lengthAdjust="spacing" textLength="77" x="206.5" y="236.3613">String street</text><text fill="#000000" font-family="sans-serif" font-size="14" lengthAdjust="spacing" textLength="70" x="206.5" y="253.9707">int zipCode</text><line style="stroke:#181818;stroke-width:0.5;" x1="201.5" x2="293.5" y1="261.0469" y2="261.0469"/></g><!--MD5=[60d6b92408f98aed8df94d5c6e04aa63]
class State--><g id="elem_State"><rect codeLine="13" fill="#F1F1F1" height="65.6094" id="State" rx="2.5" ry="2.5" style="stroke:#181818;stroke-width:0.5;" width="65" x="7" y="347"/><ellipse cx="22" cy="363" fill="#ADD1B2" rx="11" ry="11" style="stroke:#181818;stroke-width:1.0;"/><path d="M25.6875,364.2031 Q25.4375,367.6875 24.2656,368.8594 Q23.2344,369.5781 21.8594,369.5781 Q20.4844,369.5781 19.4531,368.8594 Q17.6719,367.0781 17.6719,363.4063 Q17.6719,359.1563 19.5469,357.25 Q20.5938,356.2344 21.9219,356.2344 Q23.3281,356.2344 24.1719,357.0469 Q25.6563,358.5625 25.5781,361.4375 L23.4531,361.4375 Q23.375,359.1094 22.7344,358.4688 Q22.4531,358.1719 21.9219,358.1719 Q21.4688,358.1719 21.1094,358.5469 Q19.875,359.7656 19.875,363.2813 Q19.875,366.3281 20.9219,367.3438 Q21.3438,367.7813 21.8594,367.7813 Q22.3125,367.7813 22.75,367.3438 Q23.3125,366.7969 23.3906,364.2031 L25.6875,364.2031 Z " fill="#000000"/><text fill="#000000" font-family="sans-serif" font-size="14" lengthAdjust="spacing" textLength="33" x="36" y="368.7285">State</text><line style="stroke:#181818;stroke-width:0.5;" x1="8" x2="71" y1="379" y2="379"/><text fill="#000000" font-family="sans-serif" font-size="14" lengthAdjust="spacing" textLength="35" x="13" y="397.5332">name</text><line style="stroke:#181818;stroke-width:0.5;" x1="8" x2="71" y1="404.6094" y2="404.6094"/></g><!--MD5=[9466097c40aeafc62ec36a0cc4f3c955]
class City--><g id="elem_City"><rect codeLine="17" fill="#F1F1F1" height="65.6094" id="City" rx="2.5" ry="2.5" style="stroke:#181818;stroke-width:0.5;" width="56" x="115.5" y="347"/><ellipse cx="130.5" cy="363" fill="#ADD1B2" rx="11" ry="11" style="stroke:#181818;stroke-width:1.0;"/><path d="M134.1875,364.2031 Q133.9375,367.6875 132.7656,368.8594 Q131.7344,369.5781 130.3594,369.5781 Q128.9844,369.5781 127.9531,368.8594 Q126.1719,367.0781 126.1719,363.4063 Q126.1719,359.1563 128.0469,357.25 Q129.0938,356.2344 130.4219,356.2344 Q131.8281,356.2344 132.6719,357.0469 Q134.1563,358.5625 134.0781,361.4375 L131.9531,361.4375 Q131.875,359.1094 131.2344,358.4688 Q130.9531,358.1719 130.4219,358.1719 Q129.9688,358.1719 129.6094,358.5469 Q128.375,359.7656 128.375,363.2813 Q128.375,366.3281 129.4219,367.3438 Q129.8438,367.7813 130.3594,367.7813 Q130.8125,367.7813 131.25,367.3438 Q131.8125,366.7969 131.8906,364.2031 L134.1875,364.2031 Z " fill="#000000"/><text fill="#000000" font-family="sans-serif" font-size="14" lengthAdjust="spacing" textLength="24" x="144.5" y="368.7285">City</text><line style="stroke:#181818;stroke-width:0.5;" x1="116.5" x2="170.5" y1="379" y2="379"/><text fill="#000000" font-family="sans-serif" font-size="14" lengthAdjust="spacing" textLength="35" x="121.5" y="397.5332">name</text><line style="stroke:#181818;stroke-width:0.5;" x1="116.5" x2="170.5" y1="404.6094" y2="404.6094"/></g><!--MD5=[c4d681900983498091bbbc67674786ba]
class District--><g id="elem_District"><rect codeLine="21" fill="#F1F1F1" height="65.6094" id="District" rx="2.5" ry="2.5" style="stroke:#181818;stroke-width:0.5;" width="75" x="208" y="347"/><ellipse cx="223" cy="363" fill="#ADD1B2" rx="11" ry="11" style="stroke:#181818;stroke-width:1.0;"/><path d="M226.6875,364.2031 Q226.4375,367.6875 225.2656,368.8594 Q224.2344,369.5781 222.8594,369.5781 Q221.4844,369.5781 220.4531,368.8594 Q218.6719,367.0781 218.6719,363.4063 Q218.6719,359.1563 220.5469,357.25 Q221.5938,356.2344 222.9219,356.2344 Q224.3281,356.2344 225.1719,357.0469 Q226.6563,358.5625 226.5781,361.4375 L224.4531,361.4375 Q224.375,359.1094 223.7344,358.4688 Q223.4531,358.1719 222.9219,358.1719 Q222.4688,358.1719 222.1094,358.5469 Q220.875,359.7656 220.875,363.2813 Q220.875,366.3281 221.9219,367.3438 Q222.3438,367.7813 222.8594,367.7813 Q223.3125,367.7813 223.75,367.3438 Q224.3125,366.7969 224.3906,364.2031 L226.6875,364.2031 Z " fill="#000000"/><text fill="#000000" font-family="sans-serif" font-size="14" lengthAdjust="spacing" textLength="43" x="237" y="368.7285">District</text><line style="stroke:#181818;stroke-width:0.5;" x1="209" x2="282" y1="379" y2="379"/><text fill="#000000" font-family="sans-serif" font-size="14" lengthAdjust="spacing" textLength="35" x="214" y="397.5332">name</text><line style="stroke:#181818;stroke-width:0.5;" x1="209" x2="282" y1="404.6094" y2="404.6094"/></g><!--MD5=[e723117c0f41e2c24ef9f63f1be0d05e]
class Street--><g id="elem_Street"><rect codeLine="25" fill="#F1F1F1" height="65.6094" id="Street" rx="2.5" ry="2.5" style="stroke:#181818;stroke-width:0.5;" width="70" x="318.5" y="347"/><ellipse cx="333.5" cy="363" fill="#ADD1B2" rx="11" ry="11" style="stroke:#181818;stroke-width:1.0;"/><path d="M337.1875,364.2031 Q336.9375,367.6875 335.7656,368.8594 Q334.7344,369.5781 333.3594,369.5781 Q331.9844,369.5781 330.9531,368.8594 Q329.1719,367.0781 329.1719,363.4063 Q329.1719,359.1563 331.0469,357.25 Q332.0938,356.2344 333.4219,356.2344 Q334.8281,356.2344 335.6719,357.0469 Q337.1563,358.5625 337.0781,361.4375 L334.9531,361.4375 Q334.875,359.1094 334.2344,358.4688 Q333.9531,358.1719 333.4219,358.1719 Q332.9688,358.1719 332.6094,358.5469 Q331.375,359.7656 331.375,363.2813 Q331.375,366.3281 332.4219,367.3438 Q332.8438,367.7813 333.3594,367.7813 Q333.8125,367.7813 334.25,367.3438 Q334.8125,366.7969 334.8906,364.2031 L337.1875,364.2031 Z " fill="#000000"/><text fill="#000000" font-family="sans-serif" font-size="14" lengthAdjust="spacing" textLength="38" x="347.5" y="368.7285">Street</text><line style="stroke:#181818;stroke-width:0.5;" x1="319.5" x2="387.5" y1="379" y2="379"/><text fill="#000000" font-family="sans-serif" font-size="14" lengthAdjust="spacing" textLength="35" x="324.5" y="397.5332">string</text><line style="stroke:#181818;stroke-width:0.5;" x1="319.5" x2="387.5" y1="404.6094" y2="404.6094"/></g><!--MD5=[94e84dc0ce80b6dd1728a406c0e8d77f]
class Zipcode--><g id="elem_Zipcode"><rect codeLine="29" fill="#F1F1F1" height="65.6094" id="Zipcode" rx="2.5" ry="2.5" style="stroke:#181818;stroke-width:0.5;" width="82" x="423.5" y="347"/><ellipse cx="438.5" cy="363" fill="#ADD1B2" rx="11" ry="11" style="stroke:#181818;stroke-width:1.0;"/><path d="M442.1875,364.2031 Q441.9375,367.6875 440.7656,368.8594 Q439.7344,369.5781 438.3594,369.5781 Q436.9844,369.5781 435.9531,368.8594 Q434.1719,367.0781 434.1719,363.4063 Q434.1719,359.1563 436.0469,357.25 Q437.0938,356.2344 438.4219,356.2344 Q439.8281,356.2344 440.6719,357.0469 Q442.1563,358.5625 442.0781,361.4375 L439.9531,361.4375 Q439.875,359.1094 439.2344,358.4688 Q438.9531,358.1719 438.4219,358.1719 Q437.9688,358.1719 437.6094,358.5469 Q436.375,359.7656 436.375,363.2813 Q436.375,366.3281 437.4219,367.3438 Q437.8438,367.7813 438.3594,367.7813 Q438.8125,367.7813 439.25,367.3438 Q439.8125,366.7969 439.8906,364.2031 L442.1875,364.2031 Z " fill="#000000"/><text fill="#000000" font-family="sans-serif" font-size="14" lengthAdjust="spacing" textLength="50" x="452.5" y="368.7285">Zipcode</text><line style="stroke:#181818;stroke-width:0.5;" x1="424.5" x2="504.5" y1="379" y2="379"/><text fill="#000000" font-family="sans-serif" font-size="14" lengthAdjust="spacing" textLength="48" x="429.5" y="397.5332">number</text><line style="stroke:#181818;stroke-width:0.5;" x1="424.5" x2="504.5" y1="404.6094" y2="404.6094"/></g><!--MD5=[03b5df4d985349ec2f92fd8d7e7ed7fb]
link Administrator to Location--><g id="link_Administrator_Location"><path codeLine="34" d="M247.5,55.01 C247.5,75.05 247.5,105.14 247.5,132.72 " fill="none" id="Administrator-Location" style="stroke:#181818;stroke-width:1.0;"/><polygon fill="#000000" points="252.5,99.1758,255.4389,90.1307,249.5611,90.1307,252.5,99.1758" style="stroke:#000000;stroke-width:1.0;"/><text fill="#000000" font-family="sans-serif" font-size="13" lengthAdjust="spacing" textLength="43" x="261.5" y="99.4951">creates</text><text fill="#000000" font-family="sans-serif" font-size="13" lengthAdjust="spacing" textLength="7" x="239.6469" y="76.3504">1</text><text fill="#000000" font-family="sans-serif" font-size="13" lengthAdjust="spacing" textLength="5" x="242.2422" y="122.3645">*</text></g><!--MD5=[afc21ee8e645ab4421e2fce3e5e1a8b1]
link Location to State--><g id="link_Location_State"><path codeLine="35" d="M200.22,225.45 C168.08,242.87 125.87,268.78 94.5,299 C80.06,312.92 67.16,331.18 57.49,346.74 " fill="none" id="Location-State" style="stroke:#181818;stroke-width:1.0;"/><polygon fill="#000000" points="95.6899,311.4136,104.4855,307.7959,100.6793,303.3169,95.6899,311.4136" style="stroke:#000000;stroke-width:1.0;"/><text fill="#000000" font-family="sans-serif" font-size="13" lengthAdjust="spacing" textLength="49" x="108.5" y="313.4951">contains</text><text fill="#000000" font-family="sans-serif" font-size="13" lengthAdjust="spacing" textLength="5" x="187.5974" y="225.4874">*</text><text fill="#000000" font-family="sans-serif" font-size="13" lengthAdjust="spacing" textLength="5" x="55.5396" y="336.1851">*</text></g><!--MD5=[8cf9a13c91c32ce4feae1bd878762c2e]
link Location to City--><g id="link_Location_City"><path codeLine="36" d="M200.38,259.22 C191.12,271.89 181.98,285.55 174.5,299 C166.1,314.1 158.95,331.94 153.64,346.94 " fill="none" id="Location-City" style="stroke:#181818;stroke-width:1.0;"/><polygon fill="#000000" points="177.1488,312.5885,183.9959,305.9879,178.8085,303.2238,177.1488,312.5885" style="stroke:#000000;stroke-width:1.0;"/><text fill="#000000" font-family="sans-serif" font-size="13" lengthAdjust="spacing" textLength="49" x="188.5" y="313.4951">contains</text><text fill="#000000" font-family="sans-serif" font-size="13" lengthAdjust="spacing" textLength="5" x="187.4718" y="264.7432">*</text><text fill="#000000" font-family="sans-serif" font-size="13" lengthAdjust="spacing" textLength="5" x="150.2157" y="336.043">*</text></g><!--MD5=[551fa2faed5a463ae9562df87014ae18]
link Location to District--><g id="link_Location_District"><path codeLine="37" d="M246.74,269.17 C246.44,295.77 246.11,325.1 245.86,346.76 " fill="none" id="Location-District" style="stroke:#181818;stroke-width:1.0;"/><polygon fill="#000000" points="251.4433,313.1755,254.4846,304.1643,248.6071,304.0976,251.4433,313.1755" style="stroke:#000000;stroke-width:1.0;"/><text fill="#000000" font-family="sans-serif" font-size="13" lengthAdjust="spacing" textLength="49" x="260.5" y="313.4951">contains</text><text fill="#000000" font-family="sans-serif" font-size="13" lengthAdjust="spacing" textLength="5" x="241.4038" y="290.5359">*</text><text fill="#000000" font-family="sans-serif" font-size="13" lengthAdjust="spacing" textLength="5" x="240.4387" y="336.2091">*</text></g><!--MD5=[22bb24010419d935480509c2f7212104]
link Location to Street--><g id="link_Location_Street"><path codeLine="38" d="M294.64,267.4 C301.56,277.8 308.41,288.58 314.5,299 C323.47,314.34 332.25,332.04 339.2,346.89 " fill="none" id="Location-Street" style="stroke:#181818;stroke-width:1.0;"/><polygon fill="#000000" points="331.9449,312.5372,330.0856,303.2102,324.9584,306.0844,331.9449,312.5372" style="stroke:#000000;stroke-width:1.0;"/><text fill="#000000" font-family="sans-serif" font-size="13" lengthAdjust="spacing" textLength="49" x="338.5" y="313.4951">contains</text><text fill="#000000" font-family="sans-serif" font-size="13" lengthAdjust="spacing" textLength="5" x="302.5514" y="274.2269">*</text><text fill="#000000" font-family="sans-serif" font-size="13" lengthAdjust="spacing" textLength="5" x="330.735" y="335.9827">*</text></g><!--MD5=[d438f997066d553093d047beb6be6579]
link Location to Zipcode--><g id="link_Location_Zipcode"><path codeLine="39" d="M294.59,227.88 C325.2,245.81 365.1,271.37 396.5,299 C412.65,313.21 428.36,331.32 440.6,346.71 " fill="none" id="Location-Zipcode" style="stroke:#181818;stroke-width:1.0;"/><polygon fill="#000000" points="421.378,311.3319,416.2177,303.343,412.5075,307.9019,421.378,311.3319" style="stroke:#000000;stroke-width:1.0;"/><text fill="#000000" font-family="sans-serif" font-size="13" lengthAdjust="spacing" textLength="49" x="426.5" y="313.4951">contains</text><text fill="#000000" font-family="sans-serif" font-size="13" lengthAdjust="spacing" textLength="5" x="302.4934" y="228.4084">*</text><text fill="#000000" font-family="sans-serif" font-size="13" lengthAdjust="spacing" textLength="5" x="430.4025" y="336.1492">*</text></g><!--MD5=[91468b2e19325b4e231242e2c61d749a]
@startuml
class Administrator {

}

class Location{
String state
String city
String district
String street
int zipCode
}

class State{
name
}

class City{
name
}

class District{
name
}

class Street{
string
}

class Zipcode{
number
}


Administrator "1" - - "*" Location: creates >
Location "*" - - "*" State: contains >
Location "*" - - "*" City: contains >
Location "*" - - "*" District: contains >
Location "*" - - "*" Street: contains >
Location "*" - - "*" Zipcode: contains >

@enduml

PlantUML version 1.2022.4(Sat Apr 09 14:29:17 BST 2022)
(GPL source distribution)
Java Runtime: OpenJDK Runtime Environment
JVM: OpenJDK 64-Bit Server VM
Default Encoding: MS932
Language: en
Country: US
--></g></svg>