<?xml version="1.0" encoding="UTF-8" standalone="no"?><svg xmlns="http://www.w3.org/2000/svg" xmlns:xlink="http://www.w3.org/1999/xlink" contentStyleType="text/css" height="386px" preserveAspectRatio="none" style="width:930px;height:386px;background:#FFFFFF;" version="1.1" viewBox="0 0 930 386" width="930px" zoomAndPan="magnify"><defs/><g><rect height="29.0791" style="stroke:#00000000;stroke-width:1.0;fill:none;" width="298" x="315" y="10"/><text fill="#000000" font-family="sans-serif" font-size="14" font-weight="bold" lengthAdjust="spacing" textLength="288" x="320" y="30.6953">System Sequence Diagram (SSD) - US 019</text><rect fill="#FFFFFF" height="31.7163" style="stroke:#181818;stroke-width:1.0;" width="10" x="887" y="157.8745"/><rect fill="#FFFFFF" height="63.4326" style="stroke:#181818;stroke-width:1.0;" width="10" x="887" y="221.3071"/><line style="stroke:#181818;stroke-width:0.5;stroke-dasharray:5.0,5.0;" x1="26" x2="26" y1="124.1582" y2="302.7397"/><line style="stroke:#181818;stroke-width:0.5;stroke-dasharray:5.0,5.0;" x1="892" x2="892" y1="124.1582" y2="302.7397"/><text fill="#000000" font-family="sans-serif" font-size="14" lengthAdjust="spacing" textLength="36" x="5" y="120.7744">Client</text><ellipse cx="26" cy="53.5791" fill="#E3E3E3" rx="8" ry="8" style="stroke:#181818;stroke-width:0.5;"/><path d="M26,61.5791 L26,88.5791 M13,69.5791 L39,69.5791 M26,88.5791 L13,103.5791 M26,88.5791 L39,103.5791 " fill="none" style="stroke:#181818;stroke-width:0.5;"/><text fill="#000000" font-family="sans-serif" font-size="14" lengthAdjust="spacing" textLength="36" x="5" y="317.4351">Client</text><ellipse cx="26" cy="329.3188" fill="#E3E3E3" rx="8" ry="8" style="stroke:#181818;stroke-width:0.5;"/><path d="M26,337.3188 L26,364.3188 M13,345.3188 L39,345.3188 M26,364.3188 L13,379.3188 M26,364.3188 L39,379.3188 " fill="none" style="stroke:#181818;stroke-width:0.5;"/><rect fill="#E3E3E3" height="33.0791" rx="2.5" ry="2.5" style="stroke:#181818;stroke-width:0.5;" width="64" x="860" y="90.0791"/><text fill="#000000" font-family="sans-serif" font-size="14" lengthAdjust="spacing" textLength="50" x="867" y="112.7744">:System</text><rect fill="#E3E3E3" height="33.0791" rx="2.5" ry="2.5" style="stroke:#181818;stroke-width:0.5;" width="64" x="860" y="301.7397"/><text fill="#000000" font-family="sans-serif" font-size="14" lengthAdjust="spacing" textLength="50" x="867" y="324.4351">:System</text><rect fill="#FFFFFF" height="31.7163" style="stroke:#181818;stroke-width:1.0;" width="10" x="887" y="157.8745"/><rect fill="#FFFFFF" height="63.4326" style="stroke:#181818;stroke-width:1.0;" width="10" x="887" y="221.3071"/><polygon fill="#181818" points="875,153.8745,885,157.8745,875,161.8745,879,157.8745" style="stroke:#181818;stroke-width:1.0;"/><line style="stroke:#181818;stroke-width:1.0;" x1="26" x2="881" y1="157.8745" y2="157.8745"/><text fill="#000000" font-family="sans-serif" font-size="13" font-weight="bold" lengthAdjust="spacing" textLength="7" x="33" y="152.7324">1</text><text fill="#000000" font-family="sans-serif" font-size="13" lengthAdjust="spacing" textLength="108" x="44" y="152.7324">Starts the program</text><polygon fill="#181818" points="37,185.5908,27,189.5908,37,193.5908,33,189.5908" style="stroke:#181818;stroke-width:1.0;"/><line style="stroke:#181818;stroke-width:1.0;stroke-dasharray:2.0,2.0;" x1="31" x2="891" y1="189.5908" y2="189.5908"/><text fill="#000000" font-family="sans-serif" font-size="13" font-weight="bold" lengthAdjust="spacing" textLength="7" x="43" y="184.4487">2</text><text fill="#000000" font-family="sans-serif" font-size="13" lengthAdjust="spacing" textLength="120" x="54" y="184.4487">asks for the input file</text><polygon fill="#181818" points="875,217.3071,885,221.3071,875,225.3071,879,221.3071" style="stroke:#181818;stroke-width:1.0;"/><line style="stroke:#181818;stroke-width:1.0;" x1="26" x2="881" y1="221.3071" y2="221.3071"/><text fill="#000000" font-family="sans-serif" font-size="13" font-weight="bold" lengthAdjust="spacing" textLength="7" x="33" y="216.165">3</text><text fill="#000000" font-family="sans-serif" font-size="13" lengthAdjust="spacing" textLength="126" x="44" y="216.165">inputs the file location</text><polygon fill="#181818" points="37,249.0234,27,253.0234,37,257.0234,33,253.0234" style="stroke:#181818;stroke-width:1.0;"/><line style="stroke:#181818;stroke-width:1.0;stroke-dasharray:2.0,2.0;" x1="31" x2="886" y1="253.0234" y2="253.0234"/><text fill="#000000" font-family="sans-serif" font-size="13" font-weight="bold" lengthAdjust="spacing" textLength="7" x="43" y="247.8813">4</text><text fill="#000000" font-family="sans-serif" font-size="13" lengthAdjust="spacing" textLength="309" x="54" y="247.8813">reads the file, stores its values and runs the algorthim</text><polygon fill="#181818" points="37,280.7397,27,284.7397,37,288.7397,33,284.7397" style="stroke:#181818;stroke-width:1.0;"/><line style="stroke:#181818;stroke-width:1.0;stroke-dasharray:2.0,2.0;" x1="31" x2="891" y1="284.7397" y2="284.7397"/><text fill="#000000" font-family="sans-serif" font-size="13" font-weight="bold" lengthAdjust="spacing" textLength="7" x="43" y="279.5977">5</text><text fill="#000000" font-family="sans-serif" font-size="13" lengthAdjust="spacing" textLength="826" x="54" y="279.5977">prints the input size,the sub lists containing the best partition, the difference between them, and the execution time, informing operation sucess</text><!--MD5=[2ada89747888092a29f59d1797f358ea]
@startuml
        skinparam monochrome true
        skinparam packageStyle rectangle
        skinparam shadowing false

        title System Sequence Diagram (SSD) - US 019

        autonumber

        actor "Client" as client
        participant ":System" as system

        client -> system : Starts the program
        activate system
        system - -> client : asks for the input file
        deactivate system
        client -> system : inputs the file location
        activate system
        system - -> client : reads the file, stores its values and runs the algorthim
        system - -> client : prints the input size,the sub lists containing the best partition, the difference between them, and the execution time, informing operation sucess
        deactivate system



        @enduml

PlantUML version 1.2022.4(Sat Apr 09 14:29:17 BST 2022)
(GPL source distribution)
Java Runtime: OpenJDK Runtime Environment
JVM: OpenJDK 64-Bit Server VM
Default Encoding: MS949
Language: en
Country: US
--></g></svg>