<?xml version="1.0" encoding="us-ascii" standalone="no"?><svg xmlns="http://www.w3.org/2000/svg" xmlns:xlink="http://www.w3.org/1999/xlink" contentStyleType="text/css" height="171px" preserveAspectRatio="none" style="width:313px;height:171px;background:#FFFFFF;" version="1.1" viewBox="0 0 313 171" width="313px" zoomAndPan="magnify"><defs/><g><g id="elem_Employee"><rect fill="#F1F1F1" height="38.6211" style="stroke:#181818;stroke-width:0.5;" width="76" x="195.5" y="9.2627"/><text fill="#000000" font-family="sans-serif" font-size="14" lengthAdjust="spacing" textLength="62" x="202.5" y="26.3701">Employee</text><line style="stroke:#181818;stroke-width:0.5;" x1="196.5" x2="270.5" y1="31.8838" y2="31.8838"/></g><g id="elem_Role"><rect fill="#F1F1F1" height="38.6211" style="stroke:#181818;stroke-width:0.5;" width="43" x="168" y="127.2627"/><text fill="#000000" font-family="sans-serif" font-size="14" lengthAdjust="spacing" textLength="29" x="175" y="144.3701">Role</text><line style="stroke:#181818;stroke-width:0.5;" x1="169" x2="210" y1="149.8838" y2="149.8838"/></g><g id="elem_Agency"><rect fill="#F1F1F1" height="38.6211" style="stroke:#181818;stroke-width:0.5;" width="61" x="246" y="127.2627"/><text fill="#000000" font-family="sans-serif" font-size="14" lengthAdjust="spacing" textLength="47" x="253" y="144.3701">Agency</text><line style="stroke:#181818;stroke-width:0.5;" x1="247" x2="306" y1="149.8838" y2="149.8838"/></g><g id="elem_Administrator"><rect fill="#F1F1F1" height="38.6211" style="stroke:#181818;stroke-width:0.5;" width="97" x="7" y="9.2627"/><text fill="#000000" font-family="sans-serif" font-size="14" lengthAdjust="spacing" textLength="83" x="14" y="26.3701">Administrator</text><line style="stroke:#181818;stroke-width:0.5;" x1="8" x2="103" y1="31.8838" y2="31.8838"/></g><!--link Administrator to Employee--><g id="link_Administrator_Employee"><path codeLine="7" d="M104.14,28.7627 C131.06,28.7627 164.24,28.7627 190.25,28.7627 " fill="none" id="Administrator-to-Employee" style="stroke:#181818;stroke-width:1.0;"/><polygon fill="#181818" points="195.36,28.7627,186.36,24.7627,190.36,28.7627,186.36,32.7627,195.36,28.7627" style="stroke:#181818;stroke-width:1.0;"/><text fill="#000000" font-family="sans-serif" font-size="13" lengthAdjust="spacing" textLength="55" x="122.25" y="21.791">Registers</text></g><!--link Employee to Role--><g id="link_Employee_Role"><path codeLine="8" d="M223.39,48.3127 C218.78,57.2127 213.48,68.1127 209.5,78.2627 C203.91,92.5227 198.99,109.0027 195.44,122.1127 " fill="none" id="Employee-to-Role" style="stroke:#181818;stroke-width:1.0;"/><polygon fill="#181818" points="194.1,127.1427,200.3022,119.492,195.3999,122.3146,192.5773,117.4123,194.1,127.1427" style="stroke:#181818;stroke-width:1.0;"/><text fill="#000000" font-family="sans-serif" font-size="13" lengthAdjust="spacing" textLength="32" x="210.5" y="93.291">has a</text></g><!--link Employee to Agency--><g id="link_Employee_Agency"><path codeLine="9" d="M240.41,48.4027 C247.87,68.5227 259.77,100.6227 267.84,122.4127 " fill="none" id="Employee-to-Agency" style="stroke:#181818;stroke-width:1.0;"/><polygon fill="#181818" points="269.61,127.1727,270.2215,117.3428,267.8669,122.4864,262.7234,120.1318,269.61,127.1727" style="stroke:#181818;stroke-width:1.0;"/><text fill="#000000" font-family="sans-serif" font-size="13" lengthAdjust="spacing" textLength="32" x="258.5" y="93.291">has a</text></g><!--SRC=[oq_AIaqkKN3DBSZ9hqnDvSg7y8FoS-1in_JKlEHAE2ybDpClixYaAB4aluYB2uMhe6i7DybA8IWr7IYHMbJC1HDJq0Kg01bjfP2HMAoGY2e1iGSc1G00]--></g></svg>