<?xml version="1.0" encoding="us-ascii" standalone="no"?><svg xmlns="http://www.w3.org/2000/svg" xmlns:xlink="http://www.w3.org/1999/xlink" contentStyleType="text/css" height="192px" preserveAspectRatio="none" style="width:424px;height:192px;background:#FFFFFF;" version="1.1" viewBox="0 0 424 192" width="424px" zoomAndPan="magnify"><defs/><g><!--class SystemAdministrator--><g id="elem_SystemAdministrator"><rect codeLine="2" fill="#F1F1F1" height="48" id="SystemAdministrator" rx="2.5" ry="2.5" style="stroke:#181818;stroke-width:0.5;" width="161" x="7" y="72"/><ellipse cx="22" cy="88" fill="#ADD1B2" rx="11" ry="11" style="stroke:#181818;stroke-width:1.0;"/><path d="M24.7656,83.875 Q24.9219,83.6563 25.1094,83.5469 Q25.2969,83.4375 25.5156,83.4375 Q25.8906,83.4375 26.125,83.7031 Q26.3594,83.9531 26.3594,84.5625 L26.3594,86.0156 Q26.3594,86.625 26.125,86.8906 Q25.8906,87.1563 25.5156,87.1563 Q25.1719,87.1563 24.9688,86.9531 Q24.7656,86.7656 24.6563,86.25 Q24.6094,85.8906 24.4219,85.7031 Q24.0938,85.3281 23.4844,85.1094 Q22.875,84.8906 22.25,84.8906 Q21.4844,84.8906 20.8438,85.2188 Q20.2188,85.5469 19.7188,86.2969 Q19.2344,87.0469 19.2344,88.0781 L19.2344,89.1719 Q19.2344,90.4063 20.125,91.2344 Q21.0156,92.0469 22.6094,92.0469 Q23.5469,92.0469 24.2031,91.7969 Q24.5938,91.6406 25.0156,91.2031 Q25.2813,90.9375 25.4219,90.8594 Q25.5781,90.7813 25.7813,90.7813 Q26.1094,90.7813 26.3594,91.0469 Q26.625,91.2969 26.625,91.6406 Q26.625,91.9844 26.2813,92.3906 Q25.7813,92.9688 24.9844,93.2969 Q23.9063,93.75 22.6094,93.75 Q21.0938,93.75 19.8906,93.125 Q18.9063,92.625 18.2188,91.5625 Q17.5313,90.4844 17.5313,89.2031 L17.5313,88.0469 Q17.5313,86.7188 18.1406,85.5781 Q18.7656,84.4219 19.8594,83.8125 Q20.9531,83.1875 22.1875,83.1875 Q22.9219,83.1875 23.5625,83.3594 Q24.2188,83.5156 24.7656,83.875 Z " fill="#000000"/><text fill="#000000" font-family="sans-serif" font-size="14" lengthAdjust="spacing" textLength="129" x="36" y="93.7969">SystemAdministrator</text><line style="stroke:#181818;stroke-width:0.5;" x1="8" x2="167" y1="104" y2="104"/><line style="stroke:#181818;stroke-width:0.5;" x1="8" x2="167" y1="112" y2="112"/></g><!--class Employee--><g id="elem_Employee"><rect codeLine="5" fill="#F1F1F1" height="178.3477" id="Employee" rx="2.5" ry="2.5" style="stroke:#181818;stroke-width:0.5;" width="157" x="260" y="7"/><ellipse cx="303.35" cy="23" fill="#ADD1B2" rx="11" ry="11" style="stroke:#181818;stroke-width:1.0;"/><path d="M306.1156,18.875 Q306.2719,18.6563 306.4594,18.5469 Q306.6469,18.4375 306.8656,18.4375 Q307.2406,18.4375 307.475,18.7031 Q307.7094,18.9531 307.7094,19.5625 L307.7094,21.0156 Q307.7094,21.625 307.475,21.8906 Q307.2406,22.1563 306.8656,22.1563 Q306.5219,22.1563 306.3188,21.9531 Q306.1156,21.7656 306.0063,21.25 Q305.9594,20.8906 305.7719,20.7031 Q305.4438,20.3281 304.8344,20.1094 Q304.225,19.8906 303.6,19.8906 Q302.8344,19.8906 302.1938,20.2188 Q301.5688,20.5469 301.0688,21.2969 Q300.5844,22.0469 300.5844,23.0781 L300.5844,24.1719 Q300.5844,25.4063 301.475,26.2344 Q302.3656,27.0469 303.9594,27.0469 Q304.8969,27.0469 305.5531,26.7969 Q305.9438,26.6406 306.3656,26.2031 Q306.6313,25.9375 306.7719,25.8594 Q306.9281,25.7813 307.1313,25.7813 Q307.4594,25.7813 307.7094,26.0469 Q307.975,26.2969 307.975,26.6406 Q307.975,26.9844 307.6313,27.3906 Q307.1313,27.9688 306.3344,28.2969 Q305.2563,28.75 303.9594,28.75 Q302.4438,28.75 301.2406,28.125 Q300.2563,27.625 299.5688,26.5625 Q298.8813,25.4844 298.8813,24.2031 L298.8813,23.0469 Q298.8813,21.7188 299.4906,20.5781 Q300.1156,19.4219 301.2094,18.8125 Q302.3031,18.1875 303.5375,18.1875 Q304.2719,18.1875 304.9125,18.3594 Q305.5688,18.5156 306.1156,18.875 Z " fill="#000000"/><text fill="#000000" font-family="sans-serif" font-size="14" lengthAdjust="spacing" textLength="62" x="323.65" y="28.7969">Employee</text><line style="stroke:#181818;stroke-width:0.5;" x1="261" x2="416" y1="39" y2="39"/><rect fill="none" height="6" style="stroke:#C82930;stroke-width:1.0;" width="6" x="268" y="50.8105"/><text fill="#000000" font-family="sans-serif" font-size="14" lengthAdjust="spacing" textLength="76" x="280" y="58.1074">String name</text><rect fill="none" height="6" style="stroke:#C82930;stroke-width:1.0;" width="6" x="268" y="69.4316"/><text fill="#000000" font-family="sans-serif" font-size="14" lengthAdjust="spacing" textLength="86" x="280" y="76.7285">int taxNumber</text><rect fill="none" height="6" style="stroke:#C82930;stroke-width:1.0;" width="6" x="268" y="88.0527"/><text fill="#000000" font-family="sans-serif" font-size="14" lengthAdjust="spacing" textLength="86" x="280" y="95.3496">int taxNumber</text><rect fill="none" height="6" style="stroke:#C82930;stroke-width:1.0;" width="6" x="268" y="106.6738"/><text fill="#000000" font-family="sans-serif" font-size="14" lengthAdjust="spacing" textLength="92" x="280" y="113.9707">String address</text><rect fill="none" height="6" style="stroke:#C82930;stroke-width:1.0;" width="6" x="268" y="125.2949"/><text fill="#000000" font-family="sans-serif" font-size="14" lengthAdjust="spacing" textLength="126" x="280" y="132.5918">String emailAddress</text><rect fill="none" height="6" style="stroke:#C82930;stroke-width:1.0;" width="6" x="268" y="143.916"/><text fill="#000000" font-family="sans-serif" font-size="14" lengthAdjust="spacing" textLength="131" x="280" y="151.2129">int telephoneNumber</text><rect fill="none" height="6" style="stroke:#C82930;stroke-width:1.0;" width="6" x="268" y="162.5371"/><text fill="#000000" font-family="sans-serif" font-size="14" lengthAdjust="spacing" textLength="87" x="280" y="169.834">String agency</text><line style="stroke:#181818;stroke-width:0.5;" x1="261" x2="416" y1="177.3477" y2="177.3477"/></g><!--link SystemAdministrator to Employee--><g id="link_SystemAdministrator_Employee"><path codeLine="15" d="M168.3,96 C195.96,96 226.95,96 254.83,96 " fill="none" id="SystemAdministrator-to-Employee" style="stroke:#181818;stroke-width:1.0;"/><polygon fill="#181818" points="259.99,96,250.99,92,254.99,96,250.99,100,259.99,96" style="stroke:#181818;stroke-width:1.0;"/><text fill="#000000" font-family="sans-serif" font-size="13" lengthAdjust="spacing" textLength="55" x="186.5" y="89.0283">Registers</text></g><!--SRC=[VOzD2i8m48NtESLSe1Tm8NJXreKzmPWyOY0_PIQ2HRnxOob28VYMtySytjZ8gZGjMf56bq8EMeLh4NgRZp5sqvSqnx80ZL7BG5ELa3rbJjX9o9KglwxFT8VyOVibEoTGFK8a3d4ycAq24VEZP7IBFB9TlbDxFmpdt_OJtU2RWAZfPGK0]--></g></svg>