<?xml version="1.0" encoding="UTF-8" standalone="no"?><svg xmlns="http://www.w3.org/2000/svg" xmlns:xlink="http://www.w3.org/1999/xlink" contentStyleType="text/css" height="627px" preserveAspectRatio="none" style="width:664px;height:627px;background:#FFFFFF;" version="1.1" viewBox="0 0 664 627" width="664px" zoomAndPan="magnify"><defs/><g><rect height="29.0791" style="stroke:#00000000;stroke-width:1.0;fill:none;" width="298" x="184" y="10"/><text fill="#000000" font-family="sans-serif" font-size="14" font-weight="bold" lengthAdjust="spacing" textLength="288" x="189" y="30.6953">System Sequence Diagram (SSD) - US 014</text><rect fill="#FFFFFF" height="400.5864" style="stroke:#181818;stroke-width:1.0;" width="10" x="36" y="134.1582"/><rect fill="#FFFFFF" height="31.7163" style="stroke:#181818;stroke-width:1.0;" width="10" x="610" y="157.8745"/><rect fill="#FFFFFF" height="31.7163" style="stroke:#181818;stroke-width:1.0;" width="10" x="610" y="221.3071"/><rect fill="#FFFFFF" height="31.7163" style="stroke:#181818;stroke-width:1.0;" width="10" x="610" y="311.4561"/><rect fill="#FFFFFF" height="31.7163" style="stroke:#181818;stroke-width:1.0;" width="10" x="610" y="391.8794"/><rect fill="#FFFFFF" height="70.4326" style="stroke:#181818;stroke-width:1.0;" width="10" x="610" y="455.312"/><rect height="227.0049" style="stroke:#000000;stroke-width:1.5;fill:none;" width="647" x="10" y="268.0234"/><line style="stroke:#181818;stroke-width:0.5;fill:none;stroke-dasharray:5.0,5.0;" x1="41" x2="41" y1="124.1582" y2="543.7446"/><line style="stroke:#181818;stroke-width:0.5;fill:none;stroke-dasharray:5.0,5.0;" x1="615" x2="615" y1="124.1582" y2="543.7446"/><text fill="#000000" font-family="sans-serif" font-size="14" lengthAdjust="spacing" textLength="36" x="20" y="120.7744">Client</text><ellipse cx="41" cy="53.5791" fill="#E3E3E3" rx="8" ry="8" style="stroke:#181818;stroke-width:0.5;"/><path d="M41,61.5791 L41,88.5791 M28,69.5791 L54,69.5791 M41,88.5791 L28,103.5791 M41,88.5791 L54,103.5791 " fill="none" style="stroke:#181818;stroke-width:0.5;"/><text fill="#000000" font-family="sans-serif" font-size="14" lengthAdjust="spacing" textLength="36" x="20" y="558.4399">Client</text><ellipse cx="41" cy="570.3237" fill="#E3E3E3" rx="8" ry="8" style="stroke:#181818;stroke-width:0.5;"/><path d="M41,578.3237 L41,605.3237 M28,586.3237 L54,586.3237 M41,605.3237 L28,620.3237 M41,605.3237 L54,620.3237 " fill="none" style="stroke:#181818;stroke-width:0.5;"/><rect fill="#E3E3E3" height="33.0791" rx="2.5" ry="2.5" style="stroke:#181818;stroke-width:0.5;" width="64" x="583" y="90.0791"/><text fill="#000000" font-family="sans-serif" font-size="14" lengthAdjust="spacing" textLength="50" x="590" y="112.7744">:System</text><rect fill="#E3E3E3" height="33.0791" rx="2.5" ry="2.5" style="stroke:#181818;stroke-width:0.5;" width="64" x="583" y="542.7446"/><text fill="#000000" font-family="sans-serif" font-size="14" lengthAdjust="spacing" textLength="50" x="590" y="565.4399">:System</text><rect fill="#FFFFFF" height="400.5864" style="stroke:#181818;stroke-width:1.0;" width="10" x="36" y="134.1582"/><rect fill="#FFFFFF" height="31.7163" style="stroke:#181818;stroke-width:1.0;" width="10" x="610" y="157.8745"/><rect fill="#FFFFFF" height="31.7163" style="stroke:#181818;stroke-width:1.0;" width="10" x="610" y="221.3071"/><rect fill="#FFFFFF" height="31.7163" style="stroke:#181818;stroke-width:1.0;" width="10" x="610" y="311.4561"/><rect fill="#FFFFFF" height="31.7163" style="stroke:#181818;stroke-width:1.0;" width="10" x="610" y="391.8794"/><rect fill="#FFFFFF" height="70.4326" style="stroke:#181818;stroke-width:1.0;" width="10" x="610" y="455.312"/><polygon fill="#181818" points="598,153.8745,608,157.8745,598,161.8745,602,157.8745" style="stroke:#181818;stroke-width:1.0;"/><line style="stroke:#181818;stroke-width:1.0;" x1="46" x2="604" y1="157.8745" y2="157.8745"/><text fill="#000000" font-family="sans-serif" font-size="13" font-weight="bold" lengthAdjust="spacing" textLength="7" x="53" y="152.7324">1</text><text fill="#000000" font-family="sans-serif" font-size="13" lengthAdjust="spacing" textLength="287" x="64" y="152.7324">check the responses to the appointment requests</text><polygon fill="#181818" points="57,185.5908,47,189.5908,57,193.5908,53,189.5908" style="stroke:#181818;stroke-width:1.0;"/><line style="stroke:#181818;stroke-width:1.0;stroke-dasharray:2.0,2.0;" x1="51" x2="614" y1="189.5908" y2="189.5908"/><text fill="#000000" font-family="sans-serif" font-size="13" font-weight="bold" lengthAdjust="spacing" textLength="7" x="63" y="184.4487">2</text><text fill="#000000" font-family="sans-serif" font-size="13" lengthAdjust="spacing" textLength="342" x="74" y="184.4487">shows the list of the appointment requests sorted by oldest</text><polygon fill="#181818" points="598,217.3071,608,221.3071,598,225.3071,602,221.3071" style="stroke:#181818;stroke-width:1.0;"/><line style="stroke:#181818;stroke-width:1.0;" x1="46" x2="604" y1="221.3071" y2="221.3071"/><text fill="#000000" font-family="sans-serif" font-size="13" font-weight="bold" lengthAdjust="spacing" textLength="7" x="53" y="216.165">3</text><text fill="#000000" font-family="sans-serif" font-size="13" lengthAdjust="spacing" textLength="242" x="64" y="216.165">clicks on the desired appointment request</text><polygon fill="#181818" points="57,249.0234,47,253.0234,57,257.0234,53,253.0234" style="stroke:#181818;stroke-width:1.0;"/><line style="stroke:#181818;stroke-width:1.0;stroke-dasharray:2.0,2.0;" x1="51" x2="614" y1="253.0234" y2="253.0234"/><text fill="#000000" font-family="sans-serif" font-size="13" font-weight="bold" lengthAdjust="spacing" textLength="7" x="63" y="247.8813">4</text><text fill="#000000" font-family="sans-serif" font-size="13" lengthAdjust="spacing" textLength="116" x="74" y="247.8813">shows the response</text><path d="M10,268.0234 L71,268.0234 L71,277.7397 L61,287.7397 L10,287.7397 L10,268.0234 " fill="#EEEEEE" style="stroke:#000000;stroke-width:1.5;"/><rect fill="none" height="227.0049" style="stroke:#000000;stroke-width:1.5;" width="647" x="10" y="268.0234"/><text fill="#000000" font-family="sans-serif" font-size="13" font-weight="bold" lengthAdjust="spacing" textLength="16" x="25" y="283.5977">alt</text><text fill="#000000" font-family="sans-serif" font-size="11" font-weight="bold" lengthAdjust="spacing" textLength="205" x="86" y="282.3555">[if the user accepts the appointment]</text><polygon fill="#181818" points="598,307.4561,608,311.4561,598,315.4561,602,311.4561" style="stroke:#181818;stroke-width:1.0;"/><line style="stroke:#181818;stroke-width:1.0;" x1="46" x2="604" y1="311.4561" y2="311.4561"/><text fill="#000000" font-family="sans-serif" font-size="13" font-weight="bold" lengthAdjust="spacing" textLength="7" x="53" y="306.314">5</text><text fill="#000000" font-family="sans-serif" font-size="13" lengthAdjust="spacing" textLength="143" x="64" y="306.314">accepts the appointment</text><polygon fill="#181818" points="57,339.1724,47,343.1724,57,347.1724,53,343.1724" style="stroke:#181818;stroke-width:1.0;"/><line style="stroke:#181818;stroke-width:1.0;stroke-dasharray:2.0,2.0;" x1="51" x2="614" y1="343.1724" y2="343.1724"/><text fill="#000000" font-family="sans-serif" font-size="13" font-weight="bold" lengthAdjust="spacing" textLength="7" x="63" y="338.0303">6</text><text fill="#000000" font-family="sans-serif" font-size="13" lengthAdjust="spacing" textLength="529" x="74" y="338.0303">updates the status to accepted and deletes any other requests made for the same propriety</text><line style="stroke:#000000;stroke-width:1.0;stroke-dasharray:2.0,2.0;" x1="10" x2="657" y1="352.1724" y2="352.1724"/><text fill="#000000" font-family="sans-serif" font-size="11" font-weight="bold" lengthAdjust="spacing" textLength="201" x="15" y="364.5044">[if the user rejects the appointment]</text><polygon fill="#181818" points="598,387.8794,608,391.8794,598,395.8794,602,391.8794" style="stroke:#181818;stroke-width:1.0;"/><line style="stroke:#181818;stroke-width:1.0;" x1="46" x2="604" y1="391.8794" y2="391.8794"/><text fill="#000000" font-family="sans-serif" font-size="13" font-weight="bold" lengthAdjust="spacing" textLength="7" x="53" y="386.7373">7</text><text fill="#000000" font-family="sans-serif" font-size="13" lengthAdjust="spacing" textLength="136" x="64" y="386.7373">rejects the appointment</text><polygon fill="#181818" points="57,419.5957,47,423.5957,57,427.5957,53,423.5957" style="stroke:#181818;stroke-width:1.0;"/><line style="stroke:#181818;stroke-width:1.0;stroke-dasharray:2.0,2.0;" x1="51" x2="614" y1="423.5957" y2="423.5957"/><text fill="#000000" font-family="sans-serif" font-size="13" font-weight="bold" lengthAdjust="spacing" textLength="7" x="63" y="418.4536">8</text><text fill="#000000" font-family="sans-serif" font-size="13" lengthAdjust="spacing" textLength="466" x="74" y="418.4536">asks the client to suggests a new date and time for the visit if they are interested</text><polygon fill="#181818" points="598,451.312,608,455.312,598,459.312,602,455.312" style="stroke:#181818;stroke-width:1.0;"/><line style="stroke:#181818;stroke-width:1.0;" x1="46" x2="604" y1="455.312" y2="455.312"/><text fill="#000000" font-family="sans-serif" font-size="13" font-weight="bold" lengthAdjust="spacing" textLength="7" x="53" y="450.1699">9</text><text fill="#000000" font-family="sans-serif" font-size="13" lengthAdjust="spacing" textLength="122" x="64" y="450.1699">types requested data</text><polygon fill="#181818" points="57,483.0283,47,487.0283,57,491.0283,53,487.0283" style="stroke:#181818;stroke-width:1.0;"/><line style="stroke:#181818;stroke-width:1.0;stroke-dasharray:2.0,2.0;" x1="51" x2="609" y1="487.0283" y2="487.0283"/><text fill="#000000" font-family="sans-serif" font-size="13" font-weight="bold" lengthAdjust="spacing" textLength="14" x="63" y="481.8862">10</text><text fill="#000000" font-family="sans-serif" font-size="13" lengthAdjust="spacing" textLength="474" x="81" y="481.8862">updates the status to rejected and creates a new request based on the typed data</text><polygon fill="#181818" points="57,521.7446,47,525.7446,57,529.7446,53,525.7446" style="stroke:#181818;stroke-width:1.0;"/><line style="stroke:#181818;stroke-width:1.0;stroke-dasharray:2.0,2.0;" x1="51" x2="614" y1="525.7446" y2="525.7446"/><text fill="#000000" font-family="sans-serif" font-size="13" font-weight="bold" lengthAdjust="spacing" textLength="14" x="63" y="520.6025">11</text><text fill="#000000" font-family="sans-serif" font-size="13" lengthAdjust="spacing" textLength="158" x="81" y="520.6025">displays operation success</text><!--MD5=[6162a8d497997476af7618a2fb8fb974]
@startuml
        skinparam monochrome true
        skinparam packageStyle rectangle
        skinparam shadowing false

        title System Sequence Diagram (SSD) - US 014

        autonumber

        actor "Client" as client
        participant ":System" as system

        activate client

        client -> system : check the responses to the appointment requests
        activate system

        system - -> client : shows the list of the appointment requests sorted by oldest
        deactivate system
        client -> system : clicks on the desired appointment request
        activate system
        system - -> client : shows the response
        deactivate system
        alt if the user accepts the appointment
        client -> system : accepts the appointment
        activate system
        system - -> client : updates the status to accepted and deletes any other requests made for the same propriety
        deactivate system
        else if the user rejects the appointment

        client -> system : rejects the appointment
        activate system
        system - -> client : asks the client to suggests a new date and time for the visit if they are interested
        deactivate system
        client -> system : types requested data
        activate system
        system - -> client : updates the status to rejected and creates a new request based on the typed data

        end alt


        system - -> client : displays operation success
        deactivate system

        @enduml

PlantUML version 1.2022.4(Sat Apr 09 14:29:17 BST 2022)
(GPL source distribution)
Java Runtime: OpenJDK Runtime Environment
JVM: OpenJDK 64-Bit Server VM
Default Encoding: MS949
Language: en
Country: US
--></g></svg>