<?xml version="1.0" encoding="UTF-8" standalone="no"?><svg xmlns="http://www.w3.org/2000/svg" xmlns:xlink="http://www.w3.org/1999/xlink" contentStyleType="text/css" height="544px" preserveAspectRatio="none" style="width:664px;height:544px;background:#FFFFFF;" version="1.1" viewBox="0 0 664 544" width="664px" zoomAndPan="magnify"><defs/><g><rect height="27.6094" style="stroke:#00000000;stroke-width:1.0;fill:none;" width="298" x="184" y="10"/><text fill="#000000" font-family="sans-serif" font-size="14" font-weight="bold" lengthAdjust="spacing" textLength="288" x="189" y="29.5332">System Sequence Diagram (SSD) - US 014</text><rect fill="#FFFFFF" height="322.3516" style="stroke:#181818;stroke-width:1.0;" width="10" x="36" y="131.2188"/><rect fill="#FFFFFF" height="30.3516" style="stroke:#181818;stroke-width:1.0;" width="10" x="610" y="153.5703"/><rect fill="#FFFFFF" height="30.3516" style="stroke:#181818;stroke-width:1.0;" width="10" x="610" y="239.625"/><rect fill="#FFFFFF" height="30.3516" style="stroke:#181818;stroke-width:1.0;" width="10" x="610" y="316.1641"/><rect fill="#FFFFFF" height="67.7031" style="stroke:#181818;stroke-width:1.0;" width="10" x="610" y="376.8672"/><rect height="216.2969" style="stroke:#000000;stroke-width:1.5;fill:none;" width="647" x="10" y="198.9219"/><line style="stroke:#181818;stroke-width:0.5;fill:none;stroke-dasharray:5.0,5.0;" x1="41" x2="41" y1="121.2188" y2="462.5703"/><line style="stroke:#181818;stroke-width:0.5;fill:none;stroke-dasharray:5.0,5.0;" x1="615" x2="615" y1="121.2188" y2="462.5703"/><text fill="#000000" font-family="sans-serif" font-size="14" lengthAdjust="spacing" textLength="36" x="20" y="118.1426">Client</text><ellipse cx="41" cy="52.1094" fill="#E3E3E3" rx="8" ry="8" style="stroke:#181818;stroke-width:0.5;"/><path d="M41,60.1094 L41,87.1094 M28,68.1094 L54,68.1094 M41,87.1094 L28,102.1094 M41,87.1094 L54,102.1094 " fill="none" style="stroke:#181818;stroke-width:0.5;"/><text fill="#000000" font-family="sans-serif" font-size="14" lengthAdjust="spacing" textLength="36" x="20" y="476.1035">Client</text><ellipse cx="41" cy="487.6797" fill="#E3E3E3" rx="8" ry="8" style="stroke:#181818;stroke-width:0.5;"/><path d="M41,495.6797 L41,522.6797 M28,503.6797 L54,503.6797 M41,522.6797 L28,537.6797 M41,522.6797 L54,537.6797 " fill="none" style="stroke:#181818;stroke-width:0.5;"/><rect fill="#E3E3E3" height="31.6094" rx="2.5" ry="2.5" style="stroke:#181818;stroke-width:0.5;" width="64" x="583" y="88.6094"/><text fill="#000000" font-family="sans-serif" font-size="14" lengthAdjust="spacing" textLength="50" x="590" y="110.1426">:System</text><rect fill="#E3E3E3" height="31.6094" rx="2.5" ry="2.5" style="stroke:#181818;stroke-width:0.5;" width="64" x="583" y="461.5703"/><text fill="#000000" font-family="sans-serif" font-size="14" lengthAdjust="spacing" textLength="50" x="590" y="483.1035">:System</text><rect fill="#FFFFFF" height="322.3516" style="stroke:#181818;stroke-width:1.0;" width="10" x="36" y="131.2188"/><rect fill="#FFFFFF" height="30.3516" style="stroke:#181818;stroke-width:1.0;" width="10" x="610" y="153.5703"/><rect fill="#FFFFFF" height="30.3516" style="stroke:#181818;stroke-width:1.0;" width="10" x="610" y="239.625"/><rect fill="#FFFFFF" height="30.3516" style="stroke:#181818;stroke-width:1.0;" width="10" x="610" y="316.1641"/><rect fill="#FFFFFF" height="67.7031" style="stroke:#181818;stroke-width:1.0;" width="10" x="610" y="376.8672"/><polygon fill="#181818" points="598,149.5703,608,153.5703,598,157.5703,602,153.5703" style="stroke:#181818;stroke-width:1.0;"/><line style="stroke:#181818;stroke-width:1.0;" x1="46" x2="604" y1="153.5703" y2="153.5703"/><text fill="#000000" font-family="sans-serif" font-size="13" font-weight="bold" lengthAdjust="spacing" textLength="7" x="53" y="148.7139">1</text><text fill="#000000" font-family="sans-serif" font-size="13" lengthAdjust="spacing" textLength="287" x="64" y="148.7139">check the responses to the appointment requests</text><polygon fill="#181818" points="57,179.9219,47,183.9219,57,187.9219,53,183.9219" style="stroke:#181818;stroke-width:1.0;"/><line style="stroke:#181818;stroke-width:1.0;stroke-dasharray:2.0,2.0;" x1="51" x2="614" y1="183.9219" y2="183.9219"/><text fill="#000000" font-family="sans-serif" font-size="13" font-weight="bold" lengthAdjust="spacing" textLength="7" x="63" y="179.0654">2</text><text fill="#000000" font-family="sans-serif" font-size="13" lengthAdjust="spacing" textLength="342" x="74" y="179.0654">shows the list of the appointment requests sorted by oldest</text><path d="M10,198.9219 L71,198.9219 L71,207.2734 L61,217.2734 L10,217.2734 L10,198.9219 " fill="#EEEEEE" style="stroke:#000000;stroke-width:1.5;"/><rect fill="none" height="216.2969" style="stroke:#000000;stroke-width:1.5;" width="647" x="10" y="198.9219"/><text fill="#000000" font-family="sans-serif" font-size="13" font-weight="bold" lengthAdjust="spacing" textLength="16" x="25" y="213.417">alt</text><text fill="#000000" font-family="sans-serif" font-size="11" font-weight="bold" lengthAdjust="spacing" textLength="205" x="86" y="212.3408">[if the user accepts the appointment]</text><polygon fill="#181818" points="598,235.625,608,239.625,598,243.625,602,239.625" style="stroke:#181818;stroke-width:1.0;"/><line style="stroke:#181818;stroke-width:1.0;" x1="46" x2="604" y1="239.625" y2="239.625"/><text fill="#000000" font-family="sans-serif" font-size="13" font-weight="bold" lengthAdjust="spacing" textLength="7" x="53" y="234.7686">3</text><text fill="#000000" font-family="sans-serif" font-size="13" lengthAdjust="spacing" textLength="143" x="64" y="234.7686">accepts the appointment</text><polygon fill="#181818" points="57,265.9766,47,269.9766,57,273.9766,53,269.9766" style="stroke:#181818;stroke-width:1.0;"/><line style="stroke:#181818;stroke-width:1.0;stroke-dasharray:2.0,2.0;" x1="51" x2="614" y1="269.9766" y2="269.9766"/><text fill="#000000" font-family="sans-serif" font-size="13" font-weight="bold" lengthAdjust="spacing" textLength="7" x="63" y="265.1201">4</text><text fill="#000000" font-family="sans-serif" font-size="13" lengthAdjust="spacing" textLength="529" x="74" y="265.1201">updates the status to accepted and deletes any other requests made for the same propriety</text><line style="stroke:#000000;stroke-width:1.0;stroke-dasharray:2.0,2.0;" x1="10" x2="657" y1="278.9766" y2="278.9766"/><text fill="#000000" font-family="sans-serif" font-size="11" font-weight="bold" lengthAdjust="spacing" textLength="201" x="15" y="290.3955">[if the user rejects the appointment]</text><polygon fill="#181818" points="598,312.1641,608,316.1641,598,320.1641,602,316.1641" style="stroke:#181818;stroke-width:1.0;"/><line style="stroke:#181818;stroke-width:1.0;" x1="46" x2="604" y1="316.1641" y2="316.1641"/><text fill="#000000" font-family="sans-serif" font-size="13" font-weight="bold" lengthAdjust="spacing" textLength="7" x="53" y="311.3076">5</text><text fill="#000000" font-family="sans-serif" font-size="13" lengthAdjust="spacing" textLength="136" x="64" y="311.3076">rejects the appointment</text><polygon fill="#181818" points="57,342.5156,47,346.5156,57,350.5156,53,346.5156" style="stroke:#181818;stroke-width:1.0;"/><line style="stroke:#181818;stroke-width:1.0;stroke-dasharray:2.0,2.0;" x1="51" x2="614" y1="346.5156" y2="346.5156"/><text fill="#000000" font-family="sans-serif" font-size="13" font-weight="bold" lengthAdjust="spacing" textLength="7" x="63" y="341.6592">6</text><text fill="#000000" font-family="sans-serif" font-size="13" lengthAdjust="spacing" textLength="466" x="74" y="341.6592">asks the client to suggests a new date and time for the visit if they are interested</text><polygon fill="#181818" points="598,372.8672,608,376.8672,598,380.8672,602,376.8672" style="stroke:#181818;stroke-width:1.0;"/><line style="stroke:#181818;stroke-width:1.0;" x1="46" x2="604" y1="376.8672" y2="376.8672"/><text fill="#000000" font-family="sans-serif" font-size="13" font-weight="bold" lengthAdjust="spacing" textLength="7" x="53" y="372.0107">7</text><text fill="#000000" font-family="sans-serif" font-size="13" lengthAdjust="spacing" textLength="122" x="64" y="372.0107">types requested data</text><polygon fill="#181818" points="57,403.2188,47,407.2188,57,411.2188,53,407.2188" style="stroke:#181818;stroke-width:1.0;"/><line style="stroke:#181818;stroke-width:1.0;stroke-dasharray:2.0,2.0;" x1="51" x2="609" y1="407.2188" y2="407.2188"/><text fill="#000000" font-family="sans-serif" font-size="13" font-weight="bold" lengthAdjust="spacing" textLength="7" x="63" y="402.3623">8</text><text fill="#000000" font-family="sans-serif" font-size="13" lengthAdjust="spacing" textLength="474" x="74" y="402.3623">updates the status to rejected and creates a new request based on the typed data</text><polygon fill="#181818" points="57,440.5703,47,444.5703,57,448.5703,53,444.5703" style="stroke:#181818;stroke-width:1.0;"/><line style="stroke:#181818;stroke-width:1.0;stroke-dasharray:2.0,2.0;" x1="51" x2="614" y1="444.5703" y2="444.5703"/><text fill="#000000" font-family="sans-serif" font-size="13" font-weight="bold" lengthAdjust="spacing" textLength="7" x="63" y="439.7139">9</text><text fill="#000000" font-family="sans-serif" font-size="13" lengthAdjust="spacing" textLength="158" x="74" y="439.7139">displays operation success</text><!--MD5=[a34e4af7fccc2d4889f889c86e74d8d5]
@startuml
        skinparam monochrome true
        skinparam packageStyle rectangle
        skinparam shadowing false

        title System Sequence Diagram (SSD) - US 014

        autonumber

        actor "Client" as client
        participant ":System" as system

        activate client

        client -> system : check the responses to the appointment requests
        activate system

        system - -> client : shows the list of the appointment requests sorted by oldest
        deactivate system
        alt if the user accepts the appointment
        client -> system : accepts the appointment
        activate system
        system - -> client : updates the status to accepted and deletes any other requests made for the same propriety
        deactivate system
        else if the user rejects the appointment

        client -> system : rejects the appointment
        activate system
        system - -> client : asks the client to suggests a new date and time for the visit if they are interested
        deactivate system
        client -> system : types requested data
        activate system
        system - -> client : updates the status to rejected and creates a new request based on the typed data

        end alt


        system - -> client : displays operation success
        deactivate system

        @enduml

PlantUML version 1.2022.4(Sat Apr 09 14:29:17 BST 2022)
(GPL source distribution)
Java Runtime: OpenJDK Runtime Environment
JVM: OpenJDK 64-Bit Server VM
Default Encoding: MS932
Language: en
Country: US
--></g></svg>