<?xml version="1.0" encoding="UTF-8" standalone="no"?><svg xmlns="http://www.w3.org/2000/svg" xmlns:xlink="http://www.w3.org/1999/xlink" contentScriptType="application/ecmascript" contentStyleType="text/css" height="498px" preserveAspectRatio="none" style="width:410px;height:498px;background:#FFFFFF;" version="1.1" viewBox="0 0 410 498" width="410px" zoomAndPan="magnify"><defs><filter height="300%" id="frkd24y8fxz0w" width="300%" x="-1" y="-1"><feGaussianBlur result="blurOut" stdDeviation="2.0"/><feColorMatrix in="blurOut" result="blurOut2" type="matrix" values="0 0 0 0 0 0 0 0 0 0 0 0 0 0 0 0 0 0 .4 0"/><feOffset dx="4.0" dy="4.0" in="blurOut2" result="blurOut3"/><feBlend in="SourceGraphic" in2="blurOut3" mode="normal"/></filter></defs><g><rect fill="#FFFFFF" filter="url(#frkd24y8fxz0w)" height="295.5156" style="stroke:#A80036;stroke-width:1.0;" width="10" x="58" y="99.6094"/><rect fill="#FFFFFF" filter="url(#frkd24y8fxz0w)" height="30.3516" style="stroke:#A80036;stroke-width:1.0;" width="10" x="361" y="121.9609"/><rect fill="#FFFFFF" filter="url(#frkd24y8fxz0w)" height="30.3516" style="stroke:#A80036;stroke-width:1.0;" width="10" x="361" y="182.6641"/><rect fill="#FFFFFF" filter="url(#frkd24y8fxz0w)" height="30.3516" style="stroke:#A80036;stroke-width:1.0;" width="10" x="361" y="243.3672"/><rect fill="#FFFFFF" filter="url(#frkd24y8fxz0w)" height="30.3516" style="stroke:#A80036;stroke-width:1.0;" width="10" x="361" y="304.0703"/><rect fill="#FFFFFF" filter="url(#frkd24y8fxz0w)" height="30.3516" style="stroke:#A80036;stroke-width:1.0;" width="10" x="361" y="364.7734"/><line style="stroke:#A80036;stroke-width:1.0;stroke-dasharray:5.0,5.0;" x1="63" x2="63" y1="89.6094" y2="413.125"/><line style="stroke:#A80036;stroke-width:1.0;stroke-dasharray:5.0,5.0;" x1="366" x2="366" y1="89.6094" y2="413.125"/><text fill="#000000" font-family="sans-serif" font-size="14" lengthAdjust="spacing" textLength="110" x="5" y="86.5332">UnregisteredUser</text><ellipse cx="63" cy="15" fill="#FEFECE" filter="url(#frkd24y8fxz0w)" rx="8" ry="8" style="stroke:#A80036;stroke-width:2.0;"/><path d="M63,23 L63,50 M50,31 L76,31 M63,50 L50,65 M63,50 L76,65 " fill="none" filter="url(#frkd24y8fxz0w)" style="stroke:#A80036;stroke-width:2.0;"/><text fill="#000000" font-family="sans-serif" font-size="14" lengthAdjust="spacing" textLength="110" x="5" y="426.6582">UnregisteredUser</text><ellipse cx="63" cy="439.7344" fill="#FEFECE" filter="url(#frkd24y8fxz0w)" rx="8" ry="8" style="stroke:#A80036;stroke-width:2.0;"/><path d="M63,447.7344 L63,474.7344 M50,455.7344 L76,455.7344 M63,474.7344 L50,489.7344 M63,474.7344 L76,489.7344 " fill="none" filter="url(#frkd24y8fxz0w)" style="stroke:#A80036;stroke-width:2.0;"/><rect fill="#FEFECE" filter="url(#frkd24y8fxz0w)" height="31.6094" style="stroke:#A80036;stroke-width:1.5;" width="64" x="332" y="53"/><text fill="#000000" font-family="sans-serif" font-size="14" lengthAdjust="spacing" textLength="50" x="339" y="74.5332">:System</text><rect fill="#FEFECE" filter="url(#frkd24y8fxz0w)" height="31.6094" style="stroke:#A80036;stroke-width:1.5;" width="64" x="332" y="412.125"/><text fill="#000000" font-family="sans-serif" font-size="14" lengthAdjust="spacing" textLength="50" x="339" y="433.6582">:System</text><rect fill="#FFFFFF" filter="url(#frkd24y8fxz0w)" height="295.5156" style="stroke:#A80036;stroke-width:1.0;" width="10" x="58" y="99.6094"/><rect fill="#FFFFFF" filter="url(#frkd24y8fxz0w)" height="30.3516" style="stroke:#A80036;stroke-width:1.0;" width="10" x="361" y="121.9609"/><rect fill="#FFFFFF" filter="url(#frkd24y8fxz0w)" height="30.3516" style="stroke:#A80036;stroke-width:1.0;" width="10" x="361" y="182.6641"/><rect fill="#FFFFFF" filter="url(#frkd24y8fxz0w)" height="30.3516" style="stroke:#A80036;stroke-width:1.0;" width="10" x="361" y="243.3672"/><rect fill="#FFFFFF" filter="url(#frkd24y8fxz0w)" height="30.3516" style="stroke:#A80036;stroke-width:1.0;" width="10" x="361" y="304.0703"/><rect fill="#FFFFFF" filter="url(#frkd24y8fxz0w)" height="30.3516" style="stroke:#A80036;stroke-width:1.0;" width="10" x="361" y="364.7734"/><polygon fill="#A80036" points="349,117.9609,359,121.9609,349,125.9609,353,121.9609" style="stroke:#A80036;stroke-width:1.0;"/><line style="stroke:#A80036;stroke-width:1.0;" x1="68" x2="355" y1="121.9609" y2="121.9609"/><text fill="#000000" font-family="sans-serif" font-size="13" font-weight="bold" lengthAdjust="spacing" textLength="7" x="75" y="117.1045">1</text><text fill="#000000" font-family="sans-serif" font-size="13" lengthAdjust="spacing" textLength="163" x="86" y="117.1045">starts register in the system</text><polygon fill="#A80036" points="79,148.3125,69,152.3125,79,156.3125,75,152.3125" style="stroke:#A80036;stroke-width:1.0;"/><line style="stroke:#A80036;stroke-width:1.0;stroke-dasharray:2.0,2.0;" x1="73" x2="365" y1="152.3125" y2="152.3125"/><text fill="#000000" font-family="sans-serif" font-size="13" font-weight="bold" lengthAdjust="spacing" textLength="7" x="85" y="147.4561">2</text><text fill="#000000" font-family="sans-serif" font-size="13" lengthAdjust="spacing" textLength="108" x="96" y="147.4561">request user name</text><polygon fill="#A80036" points="349,178.6641,359,182.6641,349,186.6641,353,182.6641" style="stroke:#A80036;stroke-width:1.0;"/><line style="stroke:#A80036;stroke-width:1.0;" x1="68" x2="355" y1="182.6641" y2="182.6641"/><text fill="#000000" font-family="sans-serif" font-size="13" font-weight="bold" lengthAdjust="spacing" textLength="7" x="75" y="177.8076">3</text><text fill="#000000" font-family="sans-serif" font-size="13" lengthAdjust="spacing" textLength="68" x="86" y="177.8076">types name</text><polygon fill="#A80036" points="79,209.0156,69,213.0156,79,217.0156,75,213.0156" style="stroke:#A80036;stroke-width:1.0;"/><line style="stroke:#A80036;stroke-width:1.0;stroke-dasharray:2.0,2.0;" x1="73" x2="365" y1="213.0156" y2="213.0156"/><text fill="#000000" font-family="sans-serif" font-size="13" font-weight="bold" lengthAdjust="spacing" textLength="7" x="85" y="208.1592">4</text><text fill="#000000" font-family="sans-serif" font-size="13" lengthAdjust="spacing" textLength="118" x="96" y="208.1592">requests user e-mail</text><polygon fill="#A80036" points="349,239.3672,359,243.3672,349,247.3672,353,243.3672" style="stroke:#A80036;stroke-width:1.0;"/><line style="stroke:#A80036;stroke-width:1.0;" x1="68" x2="355" y1="243.3672" y2="243.3672"/><text fill="#000000" font-family="sans-serif" font-size="13" font-weight="bold" lengthAdjust="spacing" textLength="7" x="75" y="238.5107">5</text><text fill="#000000" font-family="sans-serif" font-size="13" lengthAdjust="spacing" textLength="100" x="86" y="238.5107">types user e-mail</text><polygon fill="#A80036" points="79,269.7188,69,273.7188,79,277.7188,75,273.7188" style="stroke:#A80036;stroke-width:1.0;"/><line style="stroke:#A80036;stroke-width:1.0;stroke-dasharray:2.0,2.0;" x1="73" x2="365" y1="273.7188" y2="273.7188"/><text fill="#000000" font-family="sans-serif" font-size="13" font-weight="bold" lengthAdjust="spacing" textLength="7" x="85" y="268.8623">6</text><text fill="#000000" font-family="sans-serif" font-size="13" lengthAdjust="spacing" textLength="138" x="96" y="268.8623">requests user password</text><polygon fill="#A80036" points="349,300.0703,359,304.0703,349,308.0703,353,304.0703" style="stroke:#A80036;stroke-width:1.0;"/><line style="stroke:#A80036;stroke-width:1.0;" x1="68" x2="355" y1="304.0703" y2="304.0703"/><text fill="#000000" font-family="sans-serif" font-size="13" font-weight="bold" lengthAdjust="spacing" textLength="7" x="75" y="299.2139">7</text><text fill="#000000" font-family="sans-serif" font-size="13" lengthAdjust="spacing" textLength="120" x="86" y="299.2139">types user password</text><polygon fill="#A80036" points="79,330.4219,69,334.4219,79,338.4219,75,334.4219" style="stroke:#A80036;stroke-width:1.0;"/><line style="stroke:#A80036;stroke-width:1.0;stroke-dasharray:2.0,2.0;" x1="73" x2="365" y1="334.4219" y2="334.4219"/><text fill="#000000" font-family="sans-serif" font-size="13" font-weight="bold" lengthAdjust="spacing" textLength="7" x="85" y="329.5654">8</text><text fill="#000000" font-family="sans-serif" font-size="13" lengthAdjust="spacing" textLength="258" x="96" y="329.5654">shows typed data and asks for confirmaation</text><polygon fill="#A80036" points="349,360.7734,359,364.7734,349,368.7734,353,364.7734" style="stroke:#A80036;stroke-width:1.0;"/><line style="stroke:#A80036;stroke-width:1.0;" x1="68" x2="355" y1="364.7734" y2="364.7734"/><text fill="#000000" font-family="sans-serif" font-size="13" font-weight="bold" lengthAdjust="spacing" textLength="7" x="75" y="359.917">9</text><text fill="#000000" font-family="sans-serif" font-size="13" lengthAdjust="spacing" textLength="78" x="86" y="359.917">confirms data</text><polygon fill="#A80036" points="74,391.125,64,395.125,74,399.125,70,395.125" style="stroke:#A80036;stroke-width:1.0;"/><line style="stroke:#A80036;stroke-width:1.0;stroke-dasharray:2.0,2.0;" x1="68" x2="365" y1="395.125" y2="395.125"/><text fill="#000000" font-family="sans-serif" font-size="13" font-weight="bold" lengthAdjust="spacing" textLength="14" x="80" y="390.2686">10</text><text fill="#000000" font-family="sans-serif" font-size="13" lengthAdjust="spacing" textLength="152" x="98" y="390.2686">informs operation success</text><!--MD5=[e6ecad2ef86f6e84d76b64129df9a9ae]
@startuml

Actor UnregisteredUser as user
participant ":System" as ui

autonumber
activate user
user -> ui: starts register in the system
activate ui
ui - -> user: request user name
deactivate ui
user -> ui: types name
activate ui
ui - -> user: requests user e-mail
deactivate ui
user -> ui: types user e-mail
activate ui
ui - -> user: requests user password
deactivate ui
user -> ui: types user password
activate ui
ui - -> user: shows typed data and asks for confirmaation
deactivate ui
user -> ui: confirms data
activate ui
ui - -> user: informs operation success
deactivate ui
deactivate user













































@enduml

PlantUML version 1.2022.1(Tue Feb 01 18:19:58 GMT 2022)
(GPL source distribution)
Java Runtime: OpenJDK Runtime Environment
JVM: OpenJDK 64-Bit Server VM
Default Encoding: Cp1252
Language: en
Country: US
--></g></svg>