<?xml version="1.0" encoding="UTF-8" standalone="no"?><svg xmlns="http://www.w3.org/2000/svg" xmlns:xlink="http://www.w3.org/1999/xlink" contentScriptType="application/ecmascript" contentStyleType="text/css" height="1959px" preserveAspectRatio="none" style="width:1400px;height:1959px;background:#FFFFFF;" version="1.1" viewBox="0 0 1400 1959" width="1400px" zoomAndPan="magnify"><defs/><g><text fill="#000000" font-family="sans-serif" font-size="18" lengthAdjust="spacing" textLength="215" x="594.75" y="30.6855">SD_CsvHandler_parseCsv</text><rect fill="#FFFFFF" height="1763.0781" style="stroke:#383838;stroke-width:1.0;" width="10" x="117" y="124.2109"/><rect fill="#FFFFFF" height="393.25" style="stroke:#383838;stroke-width:1.0;" width="10" x="122" y="187.9141"/><rect fill="#FFFFFF" height="138.9219" style="stroke:#383838;stroke-width:1.0;" width="10" x="127" y="231.2656"/><rect fill="#FFFFFF" height="232.3281" style="stroke:#383838;stroke-width:1.0;" width="10" x="122" y="619.5156"/><rect fill="#FFFFFF" height="393.25" style="stroke:#383838;stroke-width:1.0;" width="10" x="122" y="890.1953"/><rect fill="#FFFFFF" height="138.9219" style="stroke:#383838;stroke-width:1.0;" width="10" x="127" y="933.5469"/><rect fill="#FFFFFF" height="215.9766" style="stroke:#383838;stroke-width:1.0;" width="10" x="122" y="1321.7969"/><rect fill="#FFFFFF" height="164.2734" style="stroke:#383838;stroke-width:1.0;" width="10" x="386" y="1373.5"/><rect fill="#FFFFFF" height="73.7031" style="stroke:#383838;stroke-width:1.0;" width="10" x="386" y="1776.2344"/><rect fill="#FFFFFF" height="164.2734" style="stroke:#383838;stroke-width:1.0;" width="10" x="547.5" y="687.5703"/><rect fill="#FFFFFF" height="73.7031" style="stroke:#383838;stroke-width:1.0;" width="10" x="547.5" y="1672.1797"/><rect fill="#FFFFFF" height="164.2734" style="stroke:#383838;stroke-width:1.0;" width="10" x="684" y="416.8906"/><rect fill="#FFFFFF" height="73.7031" style="stroke:#383838;stroke-width:1.0;" width="10" x="684" y="1568.125"/><rect fill="#FFFFFF" height="93.5703" style="stroke:#383838;stroke-width:1.0;" width="10" x="795.5" y="276.6172"/><rect fill="#FFFFFF" height="93.5703" style="stroke:#383838;stroke-width:1.0;" width="10" x="795.5" y="978.8984"/><rect fill="#FFFFFF" height="93.5703" style="stroke:#383838;stroke-width:1.0;" width="10" x="888.5" y="457.2422"/><rect fill="#FFFFFF" height="93.5703" style="stroke:#383838;stroke-width:1.0;" width="10" x="981.5" y="727.9219"/><rect fill="#FFFFFF" height="164.2734" style="stroke:#383838;stroke-width:1.0;" width="10" x="1075" y="1119.1719"/><rect fill="#FFFFFF" height="93.5703" style="stroke:#383838;stroke-width:1.0;" width="10" x="1194" y="1159.5234"/><rect fill="#FFFFFF" height="93.5703" style="stroke:#383838;stroke-width:1.0;" width="10" x="1296.5" y="1413.8516"/><rect fill="#FFFFFF" height="1718.7266" style="stroke:#000000;stroke-width:2.0;" width="1328" x="66.5" y="139.2109"/><line style="stroke:#383838;stroke-width:1.0;stroke-dasharray:5.0,5.0;" x1="121.5" x2="121.5" y1="91.8594" y2="1905.2891"/><line style="stroke:#383838;stroke-width:1.0;stroke-dasharray:5.0,5.0;" x1="390.5" x2="390.5" y1="91.8594" y2="1905.2891"/><line style="stroke:#383838;stroke-width:1.0;stroke-dasharray:5.0,5.0;" x1="552.5" x2="552.5" y1="91.8594" y2="1905.2891"/><line style="stroke:#383838;stroke-width:1.0;stroke-dasharray:5.0,5.0;" x1="688.5" x2="688.5" y1="91.8594" y2="1905.2891"/><line style="stroke:#383838;stroke-width:1.0;stroke-dasharray:5.0,5.0;" x1="800.5" x2="800.5" y1="986.6563" y2="1905.2891"/><line style="stroke:#383838;stroke-width:1.0;stroke-dasharray:5.0,5.0;" x1="893" x2="893" y1="465" y2="1905.2891"/><line style="stroke:#383838;stroke-width:1.0;stroke-dasharray:5.0,5.0;" x1="986.5" x2="986.5" y1="735.6797" y2="1905.2891"/><line style="stroke:#383838;stroke-width:1.0;stroke-dasharray:5.0,5.0;" x1="1079.5" x2="1079.5" y1="91.8594" y2="1905.2891"/><line style="stroke:#383838;stroke-width:1.0;stroke-dasharray:5.0,5.0;" x1="1199" x2="1199" y1="1167.2813" y2="1905.2891"/><line style="stroke:#383838;stroke-width:1.0;stroke-dasharray:5.0,5.0;" x1="1301" x2="1301" y1="1421.6094" y2="1905.2891"/><rect fill="#F8F8F8" height="31.6094" style="stroke:#383838;stroke-width:1.5;" width="91" x="76.5" y="59.25"/><text fill="#000000" font-family="sans-serif" font-size="14" lengthAdjust="spacing" textLength="77" x="83.5" y="80.7832">:CsvHandler</text><rect fill="#F8F8F8" height="31.6094" style="stroke:#383838;stroke-width:1.5;" width="91" x="76.5" y="1904.2891"/><text fill="#000000" font-family="sans-serif" font-size="14" lengthAdjust="spacing" textLength="77" x="83.5" y="1925.8223">:CsvHandler</text><rect fill="#F8F8F8" height="49.2188" style="stroke:#383838;stroke-width:1.5;" width="181" x="300.5" y="41.6406"/><text fill="#000000" font-family="sans-serif" font-size="14" lengthAdjust="spacing" textLength="162" x="310" y="63.1738">announcementRepository</text><text fill="#000000" font-family="sans-serif" font-size="14" lengthAdjust="spacing" textLength="167" x="307.5" y="80.7832">:AnnouncementRepository</text><rect fill="#F8F8F8" height="49.2188" style="stroke:#383838;stroke-width:1.5;" width="181" x="300.5" y="1904.2891"/><text fill="#000000" font-family="sans-serif" font-size="14" lengthAdjust="spacing" textLength="162" x="310" y="1925.8223">announcementRepository</text><text fill="#000000" font-family="sans-serif" font-size="14" lengthAdjust="spacing" textLength="167" x="307.5" y="1943.4316">:AnnouncementRepository</text><rect fill="#F8F8F8" height="49.2188" style="stroke:#383838;stroke-width:1.5;" width="122" x="491.5" y="41.6406"/><text fill="#000000" font-family="sans-serif" font-size="14" lengthAdjust="spacing" textLength="101" x="502" y="63.1738">clientRepository</text><text fill="#000000" font-family="sans-serif" font-size="14" lengthAdjust="spacing" textLength="108" x="498.5" y="80.7832">:ClientRepository</text><rect fill="#F8F8F8" height="49.2188" style="stroke:#383838;stroke-width:1.5;" width="122" x="491.5" y="1904.2891"/><text fill="#000000" font-family="sans-serif" font-size="14" lengthAdjust="spacing" textLength="101" x="502" y="1925.8223">clientRepository</text><text fill="#000000" font-family="sans-serif" font-size="14" lengthAdjust="spacing" textLength="108" x="498.5" y="1943.4316">:ClientRepository</text><rect fill="#F8F8F8" height="49.2188" style="stroke:#383838;stroke-width:1.5;" width="131" x="623.5" y="41.6406"/><text fill="#000000" font-family="sans-serif" font-size="14" lengthAdjust="spacing" textLength="112" x="633" y="63.1738">branchRepository</text><text fill="#000000" font-family="sans-serif" font-size="14" lengthAdjust="spacing" textLength="117" x="630.5" y="80.7832">:BranchRepository</text><rect fill="#F8F8F8" height="49.2188" style="stroke:#383838;stroke-width:1.5;" width="131" x="623.5" y="1904.2891"/><text fill="#000000" font-family="sans-serif" font-size="14" lengthAdjust="spacing" textLength="112" x="633" y="1925.8223">branchRepository</text><text fill="#000000" font-family="sans-serif" font-size="14" lengthAdjust="spacing" textLength="117" x="630.5" y="1943.4316">:BranchRepository</text><rect fill="#F8F8F8" height="49.2188" style="stroke:#383838;stroke-width:1.5;" width="72" x="764.5" y="1904.2891"/><text fill="#000000" font-family="sans-serif" font-size="14" lengthAdjust="spacing" textLength="49" x="776" y="1925.8223">location</text><text fill="#000000" font-family="sans-serif" font-size="14" lengthAdjust="spacing" textLength="58" x="771.5" y="1943.4316">:Location</text><rect fill="#F8F8F8" height="49.2188" style="stroke:#383838;stroke-width:1.5;" width="63" x="862" y="1904.2891"/><text fill="#000000" font-family="sans-serif" font-size="14" lengthAdjust="spacing" textLength="44" x="871.5" y="1925.8223">branch</text><text fill="#000000" font-family="sans-serif" font-size="14" lengthAdjust="spacing" textLength="49" x="869" y="1943.4316">:Branch</text><rect fill="#F8F8F8" height="49.2188" style="stroke:#383838;stroke-width:1.5;" width="54" x="959.5" y="1904.2891"/><text fill="#000000" font-family="sans-serif" font-size="14" lengthAdjust="spacing" textLength="33" x="970" y="1925.8223">client</text><text fill="#000000" font-family="sans-serif" font-size="14" lengthAdjust="spacing" textLength="40" x="966.5" y="1943.4316">:Client</text><rect fill="#F8F8F8" height="31.6094" style="stroke:#383838;stroke-width:1.5;" width="113" x="1023.5" y="59.25"/><text fill="#000000" font-family="sans-serif" font-size="14" lengthAdjust="spacing" textLength="99" x="1030.5" y="80.7832">:Announcement</text><rect fill="#F8F8F8" height="31.6094" style="stroke:#383838;stroke-width:1.5;" width="113" x="1023.5" y="1904.2891"/><text fill="#000000" font-family="sans-serif" font-size="14" lengthAdjust="spacing" textLength="99" x="1030.5" y="1925.8223">:Announcement</text><rect fill="#F8F8F8" height="49.2188" style="stroke:#383838;stroke-width:1.5;" width="72" x="1163" y="1904.2891"/><text fill="#000000" font-family="sans-serif" font-size="14" lengthAdjust="spacing" textLength="53" x="1172.5" y="1925.8223">property</text><text fill="#000000" font-family="sans-serif" font-size="14" lengthAdjust="spacing" textLength="58" x="1170" y="1943.4316">:Property</text><rect fill="#F8F8F8" height="49.2188" style="stroke:#383838;stroke-width:1.5;" width="113" x="1245" y="1904.2891"/><text fill="#000000" font-family="sans-serif" font-size="14" lengthAdjust="spacing" textLength="94" x="1254.5" y="1925.8223">announcement</text><text fill="#000000" font-family="sans-serif" font-size="14" lengthAdjust="spacing" textLength="99" x="1252" y="1943.4316">:Announcement</text><rect fill="#FFFFFF" height="1763.0781" style="stroke:#383838;stroke-width:1.0;" width="10" x="117" y="124.2109"/><rect fill="#FFFFFF" height="393.25" style="stroke:#383838;stroke-width:1.0;" width="10" x="122" y="187.9141"/><rect fill="#FFFFFF" height="138.9219" style="stroke:#383838;stroke-width:1.0;" width="10" x="127" y="231.2656"/><rect fill="#FFFFFF" height="232.3281" style="stroke:#383838;stroke-width:1.0;" width="10" x="122" y="619.5156"/><rect fill="#FFFFFF" height="393.25" style="stroke:#383838;stroke-width:1.0;" width="10" x="122" y="890.1953"/><rect fill="#FFFFFF" height="138.9219" style="stroke:#383838;stroke-width:1.0;" width="10" x="127" y="933.5469"/><rect fill="#FFFFFF" height="215.9766" style="stroke:#383838;stroke-width:1.0;" width="10" x="122" y="1321.7969"/><rect fill="#FFFFFF" height="164.2734" style="stroke:#383838;stroke-width:1.0;" width="10" x="386" y="1373.5"/><rect fill="#FFFFFF" height="73.7031" style="stroke:#383838;stroke-width:1.0;" width="10" x="386" y="1776.2344"/><rect fill="#FFFFFF" height="164.2734" style="stroke:#383838;stroke-width:1.0;" width="10" x="547.5" y="687.5703"/><rect fill="#FFFFFF" height="73.7031" style="stroke:#383838;stroke-width:1.0;" width="10" x="547.5" y="1672.1797"/><rect fill="#FFFFFF" height="164.2734" style="stroke:#383838;stroke-width:1.0;" width="10" x="684" y="416.8906"/><rect fill="#FFFFFF" height="73.7031" style="stroke:#383838;stroke-width:1.0;" width="10" x="684" y="1568.125"/><rect fill="#FFFFFF" height="93.5703" style="stroke:#383838;stroke-width:1.0;" width="10" x="795.5" y="276.6172"/><rect fill="#FFFFFF" height="93.5703" style="stroke:#383838;stroke-width:1.0;" width="10" x="795.5" y="978.8984"/><rect fill="#FFFFFF" height="93.5703" style="stroke:#383838;stroke-width:1.0;" width="10" x="888.5" y="457.2422"/><rect fill="#FFFFFF" height="93.5703" style="stroke:#383838;stroke-width:1.0;" width="10" x="981.5" y="727.9219"/><rect fill="#FFFFFF" height="164.2734" style="stroke:#383838;stroke-width:1.0;" width="10" x="1075" y="1119.1719"/><rect fill="#FFFFFF" height="93.5703" style="stroke:#383838;stroke-width:1.0;" width="10" x="1194" y="1159.5234"/><rect fill="#FFFFFF" height="93.5703" style="stroke:#383838;stroke-width:1.0;" width="10" x="1296.5" y="1413.8516"/><polygon fill="#383838" points="105,120.2109,115,124.2109,105,128.2109,109,124.2109" style="stroke:#383838;stroke-width:1.0;"/><line style="stroke:#383838;stroke-width:1.0;" x1="0" x2="111" y1="124.2109" y2="124.2109"/><text fill="#000000" font-family="sans-serif" font-size="13" font-weight="bold" lengthAdjust="spacing" textLength="14" x="7" y="119.3545">28</text><text fill="#000000" font-family="sans-serif" font-size="13" lengthAdjust="spacing" textLength="80" x="25" y="119.3545">parseCsv(csv)</text><path d="M66.5,139.2109 L139.5,139.2109 L139.5,147.2109 L129.5,157.2109 L66.5,157.2109 L66.5,139.2109 " fill="#EEEEEE" style="stroke:#000000;stroke-width:1.0;"/><rect fill="none" height="1718.7266" style="stroke:#000000;stroke-width:2.0;" width="1328" x="66.5" y="139.2109"/><text fill="#000000" font-family="sans-serif" font-size="13" font-weight="bold" lengthAdjust="spacing" textLength="28" x="81.5" y="153.7061">loop</text><text fill="#000000" font-family="sans-serif" font-size="11" font-weight="bold" lengthAdjust="spacing" textLength="91" x="154.5" y="152.6299">[for entry in csv]</text><line style="stroke:#383838;stroke-width:1.0;" x1="127" x2="174" y1="174.9141" y2="174.9141"/><line style="stroke:#383838;stroke-width:1.0;" x1="174" x2="174" y1="174.9141" y2="187.9141"/><line style="stroke:#383838;stroke-width:1.0;" x1="133" x2="174" y1="187.9141" y2="187.9141"/><polygon fill="#383838" points="143,183.9141,133,187.9141,143,191.9141,139,187.9141" style="stroke:#383838;stroke-width:1.0;"/><text fill="#000000" font-family="sans-serif" font-size="13" font-weight="bold" lengthAdjust="spacing" textLength="14" x="139" y="170.0576">29</text><text fill="#000000" font-family="sans-serif" font-size="13" lengthAdjust="spacing" textLength="108" x="157" y="170.0576">parseBranchData()</text><line style="stroke:#383838;stroke-width:1.0;" x1="132" x2="179" y1="218.2656" y2="218.2656"/><line style="stroke:#383838;stroke-width:1.0;" x1="179" x2="179" y1="218.2656" y2="231.2656"/><line style="stroke:#383838;stroke-width:1.0;" x1="138" x2="179" y1="231.2656" y2="231.2656"/><polygon fill="#383838" points="148,227.2656,138,231.2656,148,235.2656,144,231.2656" style="stroke:#383838;stroke-width:1.0;"/><text fill="#000000" font-family="sans-serif" font-size="13" font-weight="bold" lengthAdjust="spacing" textLength="14" x="144" y="213.4092">30</text><text fill="#000000" font-family="sans-serif" font-size="13" lengthAdjust="spacing" textLength="193" x="162" y="213.4092">branchLocation = parseLocation()</text><polygon fill="#383838" points="752.5,262.6172,762.5,266.6172,752.5,270.6172,756.5,266.6172" style="stroke:#383838;stroke-width:1.0;"/><line style="stroke:#383838;stroke-width:1.0;" x1="137" x2="758.5" y1="266.6172" y2="266.6172"/><text fill="#000000" font-family="sans-serif" font-size="13" font-weight="bold" lengthAdjust="spacing" textLength="14" x="144" y="261.7607">31</text><text fill="#000000" font-family="sans-serif" font-size="13" lengthAdjust="spacing" textLength="36" x="162" y="261.7607">create</text><rect fill="#F8F8F8" height="49.2188" style="stroke:#383838;stroke-width:1.5;" width="72" x="764.5" y="244.2656"/><text fill="#000000" font-family="sans-serif" font-size="14" lengthAdjust="spacing" textLength="49" x="776" y="265.7988">location</text><text fill="#000000" font-family="sans-serif" font-size="14" lengthAdjust="spacing" textLength="58" x="771.5" y="283.4082">:Location</text><line style="stroke:#383838;stroke-width:1.0;" x1="805.5" x2="847.5" y1="326.8359" y2="326.8359"/><line style="stroke:#383838;stroke-width:1.0;" x1="847.5" x2="847.5" y1="326.8359" y2="339.8359"/><line style="stroke:#383838;stroke-width:1.0;" x1="806.5" x2="847.5" y1="339.8359" y2="339.8359"/><polygon fill="#383838" points="816.5,335.8359,806.5,339.8359,816.5,343.8359,812.5,339.8359" style="stroke:#383838;stroke-width:1.0;"/><text fill="#000000" font-family="sans-serif" font-size="13" font-weight="bold" lengthAdjust="spacing" textLength="14" x="812.5" y="321.9795">32</text><text fill="#000000" font-family="sans-serif" font-size="13" lengthAdjust="spacing" textLength="51" x="830.5" y="321.9795">validate()</text><polygon fill="#383838" points="143,366.1875,133,370.1875,143,374.1875,139,370.1875" style="stroke:#383838;stroke-width:1.0;"/><line style="stroke:#383838;stroke-width:1.0;stroke-dasharray:2.0,2.0;" x1="137" x2="799.5" y1="370.1875" y2="370.1875"/><text fill="#000000" font-family="sans-serif" font-size="13" font-weight="bold" lengthAdjust="spacing" textLength="14" x="149" y="365.3311">33</text><text fill="#000000" font-family="sans-serif" font-size="13" lengthAdjust="spacing" textLength="45" x="167" y="365.3311">location</text><polygon fill="#383838" points="672,412.8906,682,416.8906,672,420.8906,676,416.8906" style="stroke:#383838;stroke-width:1.0;"/><line style="stroke:#383838;stroke-width:1.0;" x1="132" x2="678" y1="416.8906" y2="416.8906"/><text fill="#000000" font-family="sans-serif" font-size="13" font-weight="bold" lengthAdjust="spacing" textLength="14" x="139" y="403.8584">34</text><text fill="#000000" font-family="sans-serif" font-size="13" lengthAdjust="spacing" textLength="81" x="157" y="395.6826">createBranch(</text><text fill="#000000" font-family="sans-serif" font-size="13" lengthAdjust="spacing" textLength="216" x="157" y="412.0342">name, location, phoneNumber, email)</text><polygon fill="#383838" points="850,443.2422,860,447.2422,850,451.2422,854,447.2422" style="stroke:#383838;stroke-width:1.0;"/><line style="stroke:#383838;stroke-width:1.0;" x1="694" x2="856" y1="447.2422" y2="447.2422"/><text fill="#000000" font-family="sans-serif" font-size="13" font-weight="bold" lengthAdjust="spacing" textLength="14" x="701" y="442.3857">35</text><text fill="#000000" font-family="sans-serif" font-size="13" lengthAdjust="spacing" textLength="36" x="719" y="442.3857">create</text><rect fill="#F8F8F8" height="49.2188" style="stroke:#383838;stroke-width:1.5;" width="63" x="862" y="424.8906"/><text fill="#000000" font-family="sans-serif" font-size="14" lengthAdjust="spacing" textLength="44" x="871.5" y="446.4238">branch</text><text fill="#000000" font-family="sans-serif" font-size="14" lengthAdjust="spacing" textLength="49" x="869" y="464.0332">:Branch</text><line style="stroke:#383838;stroke-width:1.0;" x1="898.5" x2="940.5" y1="507.4609" y2="507.4609"/><line style="stroke:#383838;stroke-width:1.0;" x1="940.5" x2="940.5" y1="507.4609" y2="520.4609"/><line style="stroke:#383838;stroke-width:1.0;" x1="899.5" x2="940.5" y1="520.4609" y2="520.4609"/><polygon fill="#383838" points="909.5,516.4609,899.5,520.4609,909.5,524.4609,905.5,520.4609" style="stroke:#383838;stroke-width:1.0;"/><text fill="#000000" font-family="sans-serif" font-size="13" font-weight="bold" lengthAdjust="spacing" textLength="14" x="905.5" y="502.6045">36</text><text fill="#000000" font-family="sans-serif" font-size="13" lengthAdjust="spacing" textLength="51" x="923.5" y="502.6045">validate()</text><polygon fill="#383838" points="705,546.8125,695,550.8125,705,554.8125,701,550.8125" style="stroke:#383838;stroke-width:1.0;"/><line style="stroke:#383838;stroke-width:1.0;stroke-dasharray:2.0,2.0;" x1="699" x2="892.5" y1="550.8125" y2="550.8125"/><text fill="#000000" font-family="sans-serif" font-size="13" font-weight="bold" lengthAdjust="spacing" textLength="14" x="711" y="545.9561">37</text><text fill="#000000" font-family="sans-serif" font-size="13" lengthAdjust="spacing" textLength="39" x="729" y="545.9561">branch</text><polygon fill="#383838" points="138,577.1641,128,581.1641,138,585.1641,134,581.1641" style="stroke:#383838;stroke-width:1.0;"/><line style="stroke:#383838;stroke-width:1.0;stroke-dasharray:2.0,2.0;" x1="132" x2="688" y1="581.1641" y2="581.1641"/><text fill="#000000" font-family="sans-serif" font-size="13" font-weight="bold" lengthAdjust="spacing" textLength="14" x="144" y="576.3076">38</text><text fill="#000000" font-family="sans-serif" font-size="13" lengthAdjust="spacing" textLength="39" x="162" y="576.3076">branch</text><line style="stroke:#383838;stroke-width:1.0;" x1="127" x2="174" y1="606.5156" y2="606.5156"/><line style="stroke:#383838;stroke-width:1.0;" x1="174" x2="174" y1="606.5156" y2="619.5156"/><line style="stroke:#383838;stroke-width:1.0;" x1="133" x2="174" y1="619.5156" y2="619.5156"/><polygon fill="#383838" points="143,615.5156,133,619.5156,143,623.5156,139,619.5156" style="stroke:#383838;stroke-width:1.0;"/><text fill="#000000" font-family="sans-serif" font-size="13" font-weight="bold" lengthAdjust="spacing" textLength="14" x="139" y="601.6592">39</text><text fill="#000000" font-family="sans-serif" font-size="13" lengthAdjust="spacing" textLength="100" x="157" y="601.6592">parseClientData()</text><polygon fill="#383838" points="535.5,683.5703,545.5,687.5703,535.5,691.5703,539.5,687.5703" style="stroke:#383838;stroke-width:1.0;"/><line style="stroke:#383838;stroke-width:1.0;" x1="132" x2="541.5" y1="687.5703" y2="687.5703"/><text fill="#000000" font-family="sans-serif" font-size="13" font-weight="bold" lengthAdjust="spacing" textLength="14" x="139" y="666.3623">40</text><text fill="#000000" font-family="sans-serif" font-size="13" lengthAdjust="spacing" textLength="73" x="157" y="650.0107">createClient(</text><text fill="#000000" font-family="sans-serif" font-size="13" lengthAdjust="spacing" textLength="139" x="157" y="666.3623">name, passportNumber,</text><text fill="#000000" font-family="sans-serif" font-size="13" lengthAdjust="spacing" textLength="194" x="157" y="682.7139">taxNumber, phoneNumber, email)</text><polygon fill="#383838" points="947.5,713.9219,957.5,717.9219,947.5,721.9219,951.5,717.9219" style="stroke:#383838;stroke-width:1.0;"/><line style="stroke:#383838;stroke-width:1.0;" x1="557.5" x2="953.5" y1="717.9219" y2="717.9219"/><text fill="#000000" font-family="sans-serif" font-size="13" font-weight="bold" lengthAdjust="spacing" textLength="14" x="564.5" y="713.0654">41</text><text fill="#000000" font-family="sans-serif" font-size="13" lengthAdjust="spacing" textLength="36" x="582.5" y="713.0654">create</text><rect fill="#F8F8F8" height="49.2188" style="stroke:#383838;stroke-width:1.5;" width="54" x="959.5" y="695.5703"/><text fill="#000000" font-family="sans-serif" font-size="14" lengthAdjust="spacing" textLength="33" x="970" y="717.1035">client</text><text fill="#000000" font-family="sans-serif" font-size="14" lengthAdjust="spacing" textLength="40" x="966.5" y="734.7129">:Client</text><line style="stroke:#383838;stroke-width:1.0;" x1="991.5" x2="1033.5" y1="778.1406" y2="778.1406"/><line style="stroke:#383838;stroke-width:1.0;" x1="1033.5" x2="1033.5" y1="778.1406" y2="791.1406"/><line style="stroke:#383838;stroke-width:1.0;" x1="992.5" x2="1033.5" y1="791.1406" y2="791.1406"/><polygon fill="#383838" points="1002.5,787.1406,992.5,791.1406,1002.5,795.1406,998.5,791.1406" style="stroke:#383838;stroke-width:1.0;"/><text fill="#000000" font-family="sans-serif" font-size="13" font-weight="bold" lengthAdjust="spacing" textLength="14" x="998.5" y="773.2842">42</text><text fill="#000000" font-family="sans-serif" font-size="13" lengthAdjust="spacing" textLength="51" x="1016.5" y="773.2842">validate()</text><polygon fill="#383838" points="568.5,817.4922,558.5,821.4922,568.5,825.4922,564.5,821.4922" style="stroke:#383838;stroke-width:1.0;"/><line style="stroke:#383838;stroke-width:1.0;stroke-dasharray:2.0,2.0;" x1="562.5" x2="985.5" y1="821.4922" y2="821.4922"/><text fill="#000000" font-family="sans-serif" font-size="13" font-weight="bold" lengthAdjust="spacing" textLength="14" x="574.5" y="816.6357">43</text><text fill="#000000" font-family="sans-serif" font-size="13" lengthAdjust="spacing" textLength="31" x="592.5" y="816.6357">client</text><polygon fill="#383838" points="138,847.8438,128,851.8438,138,855.8438,134,851.8438" style="stroke:#383838;stroke-width:1.0;"/><line style="stroke:#383838;stroke-width:1.0;stroke-dasharray:2.0,2.0;" x1="132" x2="551.5" y1="851.8438" y2="851.8438"/><text fill="#000000" font-family="sans-serif" font-size="13" font-weight="bold" lengthAdjust="spacing" textLength="14" x="144" y="846.9873">44</text><text fill="#000000" font-family="sans-serif" font-size="13" lengthAdjust="spacing" textLength="31" x="162" y="846.9873">client</text><line style="stroke:#383838;stroke-width:1.0;" x1="127" x2="174" y1="877.1953" y2="877.1953"/><line style="stroke:#383838;stroke-width:1.0;" x1="174" x2="174" y1="877.1953" y2="890.1953"/><line style="stroke:#383838;stroke-width:1.0;" x1="133" x2="174" y1="890.1953" y2="890.1953"/><polygon fill="#383838" points="143,886.1953,133,890.1953,143,894.1953,139,890.1953" style="stroke:#383838;stroke-width:1.0;"/><text fill="#000000" font-family="sans-serif" font-size="13" font-weight="bold" lengthAdjust="spacing" textLength="14" x="139" y="872.3389">45</text><text fill="#000000" font-family="sans-serif" font-size="13" lengthAdjust="spacing" textLength="116" x="157" y="872.3389">parsePropertyData()</text><line style="stroke:#383838;stroke-width:1.0;" x1="132" x2="179" y1="920.5469" y2="920.5469"/><line style="stroke:#383838;stroke-width:1.0;" x1="179" x2="179" y1="920.5469" y2="933.5469"/><line style="stroke:#383838;stroke-width:1.0;" x1="138" x2="179" y1="933.5469" y2="933.5469"/><polygon fill="#383838" points="148,929.5469,138,933.5469,148,937.5469,144,933.5469" style="stroke:#383838;stroke-width:1.0;"/><text fill="#000000" font-family="sans-serif" font-size="13" font-weight="bold" lengthAdjust="spacing" textLength="14" x="144" y="915.6904">46</text><text fill="#000000" font-family="sans-serif" font-size="13" lengthAdjust="spacing" textLength="89" x="162" y="915.6904">parseLocation()</text><polygon fill="#383838" points="752.5,964.8984,762.5,968.8984,752.5,972.8984,756.5,968.8984" style="stroke:#383838;stroke-width:1.0;"/><line style="stroke:#383838;stroke-width:1.0;" x1="137" x2="758.5" y1="968.8984" y2="968.8984"/><text fill="#000000" font-family="sans-serif" font-size="13" font-weight="bold" lengthAdjust="spacing" textLength="14" x="144" y="964.042">47</text><text fill="#000000" font-family="sans-serif" font-size="13" lengthAdjust="spacing" textLength="36" x="162" y="964.042">create</text><rect fill="#F8F8F8" height="49.2188" style="stroke:#383838;stroke-width:1.5;" width="72" x="764.5" y="946.5469"/><text fill="#000000" font-family="sans-serif" font-size="14" lengthAdjust="spacing" textLength="49" x="776" y="968.0801">location</text><text fill="#000000" font-family="sans-serif" font-size="14" lengthAdjust="spacing" textLength="58" x="771.5" y="985.6895">:Location</text><line style="stroke:#383838;stroke-width:1.0;" x1="805.5" x2="847.5" y1="1029.1172" y2="1029.1172"/><line style="stroke:#383838;stroke-width:1.0;" x1="847.5" x2="847.5" y1="1029.1172" y2="1042.1172"/><line style="stroke:#383838;stroke-width:1.0;" x1="806.5" x2="847.5" y1="1042.1172" y2="1042.1172"/><polygon fill="#383838" points="816.5,1038.1172,806.5,1042.1172,816.5,1046.1172,812.5,1042.1172" style="stroke:#383838;stroke-width:1.0;"/><text fill="#000000" font-family="sans-serif" font-size="13" font-weight="bold" lengthAdjust="spacing" textLength="14" x="812.5" y="1024.2607">48</text><text fill="#000000" font-family="sans-serif" font-size="13" lengthAdjust="spacing" textLength="51" x="830.5" y="1024.2607">validate()</text><polygon fill="#383838" points="143,1068.4688,133,1072.4688,143,1076.4688,139,1072.4688" style="stroke:#383838;stroke-width:1.0;"/><line style="stroke:#383838;stroke-width:1.0;stroke-dasharray:2.0,2.0;" x1="137" x2="799.5" y1="1072.4688" y2="1072.4688"/><text fill="#000000" font-family="sans-serif" font-size="13" font-weight="bold" lengthAdjust="spacing" textLength="14" x="149" y="1067.6123">49</text><text fill="#000000" font-family="sans-serif" font-size="13" lengthAdjust="spacing" textLength="45" x="167" y="1067.6123">location</text><polygon fill="#383838" points="1063,1115.1719,1073,1119.1719,1063,1123.1719,1067,1119.1719" style="stroke:#383838;stroke-width:1.0;"/><line style="stroke:#383838;stroke-width:1.0;" x1="132" x2="1069" y1="1119.1719" y2="1119.1719"/><text fill="#000000" font-family="sans-serif" font-size="13" font-weight="bold" lengthAdjust="spacing" textLength="14" x="139" y="1106.1396">50</text><text fill="#000000" font-family="sans-serif" font-size="13" lengthAdjust="spacing" textLength="89" x="157" y="1097.9639">createProperty(</text><text fill="#000000" font-family="sans-serif" font-size="13" lengthAdjust="spacing" textLength="216" x="157" y="1114.3154">name, location, phoneNumber, email)</text><polygon fill="#383838" points="1151,1145.5234,1161,1149.5234,1151,1153.5234,1155,1149.5234" style="stroke:#383838;stroke-width:1.0;"/><line style="stroke:#383838;stroke-width:1.0;" x1="1085" x2="1157" y1="1149.5234" y2="1149.5234"/><text fill="#000000" font-family="sans-serif" font-size="13" font-weight="bold" lengthAdjust="spacing" textLength="14" x="1092" y="1144.667">51</text><text fill="#000000" font-family="sans-serif" font-size="13" lengthAdjust="spacing" textLength="36" x="1110" y="1144.667">create</text><rect fill="#F8F8F8" height="49.2188" style="stroke:#383838;stroke-width:1.5;" width="72" x="1163" y="1127.1719"/><text fill="#000000" font-family="sans-serif" font-size="14" lengthAdjust="spacing" textLength="53" x="1172.5" y="1148.7051">property</text><text fill="#000000" font-family="sans-serif" font-size="14" lengthAdjust="spacing" textLength="58" x="1170" y="1166.3145">:Property</text><line style="stroke:#383838;stroke-width:1.0;" x1="1204" x2="1246" y1="1209.7422" y2="1209.7422"/><line style="stroke:#383838;stroke-width:1.0;" x1="1246" x2="1246" y1="1209.7422" y2="1222.7422"/><line style="stroke:#383838;stroke-width:1.0;" x1="1205" x2="1246" y1="1222.7422" y2="1222.7422"/><polygon fill="#383838" points="1215,1218.7422,1205,1222.7422,1215,1226.7422,1211,1222.7422" style="stroke:#383838;stroke-width:1.0;"/><text fill="#000000" font-family="sans-serif" font-size="13" font-weight="bold" lengthAdjust="spacing" textLength="14" x="1211" y="1204.8857">52</text><text fill="#000000" font-family="sans-serif" font-size="13" lengthAdjust="spacing" textLength="51" x="1229" y="1204.8857">validate()</text><polygon fill="#383838" points="1096,1249.0938,1086,1253.0938,1096,1257.0938,1092,1253.0938" style="stroke:#383838;stroke-width:1.0;"/><line style="stroke:#383838;stroke-width:1.0;stroke-dasharray:2.0,2.0;" x1="1090" x2="1198" y1="1253.0938" y2="1253.0938"/><text fill="#000000" font-family="sans-serif" font-size="13" font-weight="bold" lengthAdjust="spacing" textLength="14" x="1102" y="1248.2373">53</text><text fill="#000000" font-family="sans-serif" font-size="13" lengthAdjust="spacing" textLength="47" x="1120" y="1248.2373">property</text><polygon fill="#383838" points="138,1279.4453,128,1283.4453,138,1287.4453,134,1283.4453" style="stroke:#383838;stroke-width:1.0;"/><line style="stroke:#383838;stroke-width:1.0;stroke-dasharray:2.0,2.0;" x1="132" x2="1079" y1="1283.4453" y2="1283.4453"/><text fill="#000000" font-family="sans-serif" font-size="13" font-weight="bold" lengthAdjust="spacing" textLength="14" x="144" y="1278.5889">54</text><text fill="#000000" font-family="sans-serif" font-size="13" lengthAdjust="spacing" textLength="47" x="162" y="1278.5889">property</text><line style="stroke:#383838;stroke-width:1.0;" x1="127" x2="174" y1="1308.7969" y2="1308.7969"/><line style="stroke:#383838;stroke-width:1.0;" x1="174" x2="174" y1="1308.7969" y2="1321.7969"/><line style="stroke:#383838;stroke-width:1.0;" x1="133" x2="174" y1="1321.7969" y2="1321.7969"/><polygon fill="#383838" points="143,1317.7969,133,1321.7969,143,1325.7969,139,1321.7969" style="stroke:#383838;stroke-width:1.0;"/><text fill="#000000" font-family="sans-serif" font-size="13" font-weight="bold" lengthAdjust="spacing" textLength="14" x="139" y="1303.9404">55</text><text fill="#000000" font-family="sans-serif" font-size="13" lengthAdjust="spacing" textLength="154" x="157" y="1303.9404">parseAnnouncementData()</text><polygon fill="#383838" points="374,1369.5,384,1373.5,374,1377.5,378,1373.5" style="stroke:#383838;stroke-width:1.0;"/><line style="stroke:#383838;stroke-width:1.0;" x1="132" x2="380" y1="1373.5" y2="1373.5"/><text fill="#000000" font-family="sans-serif" font-size="13" font-weight="bold" lengthAdjust="spacing" textLength="14" x="139" y="1360.4678">56</text><text fill="#000000" font-family="sans-serif" font-size="13" lengthAdjust="spacing" textLength="127" x="157" y="1352.292">createAnnouncement(</text><text fill="#000000" font-family="sans-serif" font-size="13" lengthAdjust="spacing" textLength="217" x="157" y="1368.6436">name, address, phoneNumber, email)</text><polygon fill="#383838" points="1233,1399.8516,1243,1403.8516,1233,1407.8516,1237,1403.8516" style="stroke:#383838;stroke-width:1.0;"/><line style="stroke:#383838;stroke-width:1.0;" x1="396" x2="1239" y1="1403.8516" y2="1403.8516"/><text fill="#000000" font-family="sans-serif" font-size="13" font-weight="bold" lengthAdjust="spacing" textLength="14" x="403" y="1398.9951">57</text><text fill="#000000" font-family="sans-serif" font-size="13" lengthAdjust="spacing" textLength="36" x="421" y="1398.9951">create</text><rect fill="#F8F8F8" height="49.2188" style="stroke:#383838;stroke-width:1.5;" width="113" x="1245" y="1381.5"/><text fill="#000000" font-family="sans-serif" font-size="14" lengthAdjust="spacing" textLength="94" x="1254.5" y="1403.0332">announcement</text><text fill="#000000" font-family="sans-serif" font-size="14" lengthAdjust="spacing" textLength="99" x="1252" y="1420.6426">:Announcement</text><line style="stroke:#383838;stroke-width:1.0;" x1="1306.5" x2="1348.5" y1="1464.0703" y2="1464.0703"/><line style="stroke:#383838;stroke-width:1.0;" x1="1348.5" x2="1348.5" y1="1464.0703" y2="1477.0703"/><line style="stroke:#383838;stroke-width:1.0;" x1="1307.5" x2="1348.5" y1="1477.0703" y2="1477.0703"/><polygon fill="#383838" points="1317.5,1473.0703,1307.5,1477.0703,1317.5,1481.0703,1313.5,1477.0703" style="stroke:#383838;stroke-width:1.0;"/><text fill="#000000" font-family="sans-serif" font-size="13" font-weight="bold" lengthAdjust="spacing" textLength="14" x="1313.5" y="1459.2139">58</text><text fill="#000000" font-family="sans-serif" font-size="13" lengthAdjust="spacing" textLength="51" x="1331.5" y="1459.2139">validate()</text><polygon fill="#383838" points="407,1503.4219,397,1507.4219,407,1511.4219,403,1507.4219" style="stroke:#383838;stroke-width:1.0;"/><line style="stroke:#383838;stroke-width:1.0;stroke-dasharray:2.0,2.0;" x1="401" x2="1300.5" y1="1507.4219" y2="1507.4219"/><text fill="#000000" font-family="sans-serif" font-size="13" font-weight="bold" lengthAdjust="spacing" textLength="14" x="413" y="1502.5654">59</text><text fill="#000000" font-family="sans-serif" font-size="13" lengthAdjust="spacing" textLength="85" x="431" y="1502.5654">announcement</text><polygon fill="#383838" points="138,1533.7734,128,1537.7734,138,1541.7734,134,1537.7734" style="stroke:#383838;stroke-width:1.0;"/><line style="stroke:#383838;stroke-width:1.0;stroke-dasharray:2.0,2.0;" x1="132" x2="390" y1="1537.7734" y2="1537.7734"/><text fill="#000000" font-family="sans-serif" font-size="13" font-weight="bold" lengthAdjust="spacing" textLength="14" x="144" y="1532.917">60</text><text fill="#000000" font-family="sans-serif" font-size="13" lengthAdjust="spacing" textLength="85" x="162" y="1532.917">announcement</text><polygon fill="#383838" points="672,1564.125,682,1568.125,672,1572.125,676,1568.125" style="stroke:#383838;stroke-width:1.0;"/><line style="stroke:#383838;stroke-width:1.0;" x1="127" x2="678" y1="1568.125" y2="1568.125"/><text fill="#000000" font-family="sans-serif" font-size="13" font-weight="bold" lengthAdjust="spacing" textLength="14" x="134" y="1563.2686">61</text><text fill="#000000" font-family="sans-serif" font-size="13" lengthAdjust="spacing" textLength="114" x="152" y="1563.2686">saveBranch(branch)</text><line style="stroke:#383838;stroke-width:1.0;" x1="694" x2="736" y1="1598.4766" y2="1598.4766"/><line style="stroke:#383838;stroke-width:1.0;" x1="736" x2="736" y1="1598.4766" y2="1611.4766"/><line style="stroke:#383838;stroke-width:1.0;" x1="695" x2="736" y1="1611.4766" y2="1611.4766"/><polygon fill="#383838" points="705,1607.4766,695,1611.4766,705,1615.4766,701,1611.4766" style="stroke:#383838;stroke-width:1.0;"/><text fill="#000000" font-family="sans-serif" font-size="13" font-weight="bold" lengthAdjust="spacing" textLength="14" x="701" y="1593.6201">62</text><text fill="#000000" font-family="sans-serif" font-size="13" lengthAdjust="spacing" textLength="51" x="719" y="1593.6201">validate()</text><polygon fill="#383838" points="138,1637.8281,128,1641.8281,138,1645.8281,134,1641.8281" style="stroke:#383838;stroke-width:1.0;"/><line style="stroke:#383838;stroke-width:1.0;stroke-dasharray:2.0,2.0;" x1="132" x2="688" y1="1641.8281" y2="1641.8281"/><text fill="#000000" font-family="sans-serif" font-size="13" font-weight="bold" lengthAdjust="spacing" textLength="14" x="144" y="1636.9717">63</text><text fill="#000000" font-family="sans-serif" font-size="13" lengthAdjust="spacing" textLength="22" x="162" y="1636.9717">true</text><polygon fill="#383838" points="535.5,1668.1797,545.5,1672.1797,535.5,1676.1797,539.5,1672.1797" style="stroke:#383838;stroke-width:1.0;"/><line style="stroke:#383838;stroke-width:1.0;" x1="127" x2="541.5" y1="1672.1797" y2="1672.1797"/><text fill="#000000" font-family="sans-serif" font-size="13" font-weight="bold" lengthAdjust="spacing" textLength="14" x="134" y="1667.3232">64</text><text fill="#000000" font-family="sans-serif" font-size="13" lengthAdjust="spacing" textLength="98" x="152" y="1667.3232">saveClient(client)</text><line style="stroke:#383838;stroke-width:1.0;" x1="557.5" x2="599.5" y1="1702.5313" y2="1702.5313"/><line style="stroke:#383838;stroke-width:1.0;" x1="599.5" x2="599.5" y1="1702.5313" y2="1715.5313"/><line style="stroke:#383838;stroke-width:1.0;" x1="558.5" x2="599.5" y1="1715.5313" y2="1715.5313"/><polygon fill="#383838" points="568.5,1711.5313,558.5,1715.5313,568.5,1719.5313,564.5,1715.5313" style="stroke:#383838;stroke-width:1.0;"/><text fill="#000000" font-family="sans-serif" font-size="13" font-weight="bold" lengthAdjust="spacing" textLength="14" x="564.5" y="1697.6748">65</text><text fill="#000000" font-family="sans-serif" font-size="13" lengthAdjust="spacing" textLength="51" x="582.5" y="1697.6748">validate()</text><polygon fill="#383838" points="138,1741.8828,128,1745.8828,138,1749.8828,134,1745.8828" style="stroke:#383838;stroke-width:1.0;"/><line style="stroke:#383838;stroke-width:1.0;stroke-dasharray:2.0,2.0;" x1="132" x2="551.5" y1="1745.8828" y2="1745.8828"/><text fill="#000000" font-family="sans-serif" font-size="13" font-weight="bold" lengthAdjust="spacing" textLength="14" x="144" y="1741.0264">66</text><text fill="#000000" font-family="sans-serif" font-size="13" lengthAdjust="spacing" textLength="22" x="162" y="1741.0264">true</text><polygon fill="#383838" points="374,1772.2344,384,1776.2344,374,1780.2344,378,1776.2344" style="stroke:#383838;stroke-width:1.0;"/><line style="stroke:#383838;stroke-width:1.0;" x1="127" x2="380" y1="1776.2344" y2="1776.2344"/><text fill="#000000" font-family="sans-serif" font-size="13" font-weight="bold" lengthAdjust="spacing" textLength="14" x="134" y="1771.3779">67</text><text fill="#000000" font-family="sans-serif" font-size="13" lengthAdjust="spacing" textLength="206" x="152" y="1771.3779">saveAnnouncement(announcement)</text><line style="stroke:#383838;stroke-width:1.0;" x1="396" x2="438" y1="1806.5859" y2="1806.5859"/><line style="stroke:#383838;stroke-width:1.0;" x1="438" x2="438" y1="1806.5859" y2="1819.5859"/><line style="stroke:#383838;stroke-width:1.0;" x1="397" x2="438" y1="1819.5859" y2="1819.5859"/><polygon fill="#383838" points="407,1815.5859,397,1819.5859,407,1823.5859,403,1819.5859" style="stroke:#383838;stroke-width:1.0;"/><text fill="#000000" font-family="sans-serif" font-size="13" font-weight="bold" lengthAdjust="spacing" textLength="14" x="403" y="1801.7295">68</text><text fill="#000000" font-family="sans-serif" font-size="13" lengthAdjust="spacing" textLength="51" x="421" y="1801.7295">validate()</text><polygon fill="#383838" points="138,1845.9375,128,1849.9375,138,1853.9375,134,1849.9375" style="stroke:#383838;stroke-width:1.0;"/><line style="stroke:#383838;stroke-width:1.0;stroke-dasharray:2.0,2.0;" x1="132" x2="390" y1="1849.9375" y2="1849.9375"/><text fill="#000000" font-family="sans-serif" font-size="13" font-weight="bold" lengthAdjust="spacing" textLength="14" x="144" y="1845.0811">69</text><text fill="#000000" font-family="sans-serif" font-size="13" lengthAdjust="spacing" textLength="22" x="162" y="1845.0811">true</text><polygon fill="#383838" points="11,1883.2891,1,1887.2891,11,1891.2891,7,1887.2891" style="stroke:#383838;stroke-width:1.0;"/><line style="stroke:#383838;stroke-width:1.0;stroke-dasharray:2.0,2.0;" x1="5" x2="121" y1="1887.2891" y2="1887.2891"/><text fill="#000000" font-family="sans-serif" font-size="13" font-weight="bold" lengthAdjust="spacing" textLength="14" x="17" y="1882.4326">70</text><text fill="#000000" font-family="sans-serif" font-size="13" lengthAdjust="spacing" textLength="22" x="35" y="1882.4326">true</text><!--MD5=[0fe466eeab82acacf2e759d315f19f1d]
@startuml
'https://plantuml.com/sequence-diagram

skinparam monochrome true
skinparam shadowing false
autonumber 28

Title SD_CsvHandler_parseCsv

participant ":CsvHandler" as ch
participant "announcementRepository\n:AnnouncementRepository" as AnnR
'participant "employeeRepository\n:EmployeeRepository" as EmpR'
participant "clientRepository\n:ClientRepository" as CliR
participant "branchRepository\n:BranchRepository" as BraR
'participant ":Employee" as Emp
'participant ":Announcement" as Ann
'participant ":Property" as Pro
participant "location\n:Location" as loc

-> ch: parseCsv(csv)

loop for entry in csv

    activate ch

    ch -> ch: parseBranchData()
    activate ch
    ch -> ch: branchLocation = parseLocation()
    activate ch
    ch -> loc**: create
    activate loc
    loc -> loc: validate()
    return location
    deactivate ch
    ch -> BraR: createBranch(\nname, location, phoneNumber, email)
        activate BraR
        BraR -> "branch\n:Branch"**: create
        activate "branch\n:Branch"
        "branch\n:Branch" -> "branch\n:Branch": validate()
        return branch
        return branch



    deactivate ch

    ch -> ch: parseClientData()
    activate ch
    'ch -> loc: create
    '    activate loc
    '    loc -> loc: validate()
    '    return location
    'deactivate ch
    ch -> CliR: createClient(\nname, passportNumber,\ntaxNumber, phoneNumber, email)
        activate CliR
        CliR -> "client\n:Client"**: create
        activate "client\n:Client"
        "client\n:Client" -> "client\n:Client": validate()
        return client
        return client
    deactivate ch

    ch -> ch: parsePropertyData()
    activate ch
    ch -> ch: parseLocation()
    activate ch
    ch -> loc**: create
            activate loc
            loc -> loc: validate()
            return location
            deactivate ch
    ch -> ":Announcement": createProperty(\nname, location, phoneNumber, email)
        activate ":Announcement"
        ":Announcement" -> "property\n:Property"**: create
        activate "property\n:Property"
        "property\n:Property" -> "property\n:Property": validate()
        return property
        return property
    deactivate ch

    ch -> ch: parseAnnouncementData()
    activate ch
    ch -> AnnR: createAnnouncement(\nname, address, phoneNumber, email)
        activate AnnR
        AnnR -> "announcement\n:Announcement"**: create
        activate "announcement\n:Announcement"
        "announcement\n:Announcement" -> "announcement\n:Announcement": validate()
        return announcement
        return announcement



    deactivate ch

    ch -> BraR: saveBranch(branch)
        activate BraR
        BraR -> BraR: validate()
        return true

    ch -> CliR: saveClient(client)
        activate CliR
        CliR -> CliR: validate()
        return true

    ch -> AnnR: saveAnnouncement(announcement)
        activate AnnR
        AnnR -> AnnR: validate()
        return true

end
return true
@enduml

@startuml

skinparam monochrome true
skinparam shadowing false
autonumber 28

Title SD_CsvHandler_parseCsv

participant ":CsvHandler" as ch
participant "announcementRepository\n:AnnouncementRepository" as AnnR
participant "clientRepository\n:ClientRepository" as CliR
participant "branchRepository\n:BranchRepository" as BraR
participant "location\n:Location" as loc

-> ch: parseCsv(csv)

loop for entry in csv

    activate ch

    ch -> ch: parseBranchData()
    activate ch
    ch -> ch: branchLocation = parseLocation()
    activate ch
    ch -> loc**: create
    activate loc
    loc -> loc: validate()
    return location
    deactivate ch
    ch -> BraR: createBranch(\nname, location, phoneNumber, email)
        activate BraR
        BraR -> "branch\n:Branch"**: create
        activate "branch\n:Branch"
        "branch\n:Branch" -> "branch\n:Branch": validate()
        return branch
        return branch



    deactivate ch

    ch -> ch: parseClientData()
    activate ch
    ch -> CliR: createClient(\nname, passportNumber,\ntaxNumber, phoneNumber, email)
        activate CliR
        CliR -> "client\n:Client"**: create
        activate "client\n:Client"
        "client\n:Client" -> "client\n:Client": validate()
        return client
        return client
    deactivate ch

    ch -> ch: parsePropertyData()
    activate ch
    ch -> ch: parseLocation()
    activate ch
    ch -> loc**: create
            activate loc
            loc -> loc: validate()
            return location
            deactivate ch
    ch -> ":Announcement": createProperty(\nname, location, phoneNumber, email)
        activate ":Announcement"
        ":Announcement" -> "property\n:Property"**: create
        activate "property\n:Property"
        "property\n:Property" -> "property\n:Property": validate()
        return property
        return property
    deactivate ch

    ch -> ch: parseAnnouncementData()
    activate ch
    ch -> AnnR: createAnnouncement(\nname, address, phoneNumber, email)
        activate AnnR
        AnnR -> "announcement\n:Announcement"**: create
        activate "announcement\n:Announcement"
        "announcement\n:Announcement" -> "announcement\n:Announcement": validate()
        return announcement
        return announcement



    deactivate ch

    ch -> BraR: saveBranch(branch)
        activate BraR
        BraR -> BraR: validate()
        return true

    ch -> CliR: saveClient(client)
        activate CliR
        CliR -> CliR: validate()
        return true

    ch -> AnnR: saveAnnouncement(announcement)
        activate AnnR
        AnnR -> AnnR: validate()
        return true

end
return true
@enduml

PlantUML version 1.2022.1(Tue Feb 01 18:19:58 GMT 2022)
(GPL source distribution)
Java Runtime: OpenJDK Runtime Environment
JVM: OpenJDK 64-Bit Server VM
Default Encoding: Cp1252
Language: en
Country: US
--></g></svg>