<?xml version="1.0" encoding="UTF-8" standalone="no"?><svg xmlns="http://www.w3.org/2000/svg" xmlns:xlink="http://www.w3.org/1999/xlink" contentScriptType="application/ecmascript" contentStyleType="text/css" height="1499px" preserveAspectRatio="none" style="width:1432px;height:1499px;background:#FFFFFF;" version="1.1" viewBox="0 0 1432 1499" width="1432px" zoomAndPan="magnify"><defs/><g><rect fill="#FFFFFF" height="1310.6953" style="stroke:#383838;stroke-width:1.0;" width="10" x="94.5" y="95.6094"/><rect fill="#FFFFFF" height="194.3672" style="stroke:#383838;stroke-width:1.0;" width="10" x="291.5" y="117.9609"/><rect fill="#FFFFFF" height="1041.625" style="stroke:#383838;stroke-width:1.0;" width="10" x="291.5" y="342.6797"/><rect fill="#FFFFFF" height="123.6641" style="stroke:#383838;stroke-width:1.0;" width="10" x="488.5" y="158.3125"/><rect fill="#FFFFFF" height="980.9219" style="stroke:#383838;stroke-width:1.0;" width="10" x="488.5" y="373.0313"/><rect fill="#FFFFFF" height="269.4844" style="stroke:#383838;stroke-width:1.0;" width="10" x="682.5" y="403.3828"/><rect fill="#FFFFFF" height="30.3516" style="stroke:#383838;stroke-width:1.0;" width="10" x="682.5" y="703.2188"/><rect fill="#FFFFFF" height="78.0547" style="stroke:#383838;stroke-width:1.0;" width="10" x="771.5" y="1245.5469"/><rect fill="#FFFFFF" height="30.3516" style="stroke:#383838;stroke-width:1.0;" width="10" x="875.5" y="190.9219"/><rect fill="#FFFFFF" height="30.3516" style="stroke:#383838;stroke-width:1.0;" width="10" x="982.5" y="251.625"/><rect fill="#FFFFFF" height="88.0547" style="stroke:#383838;stroke-width:1.0;" width="10" x="1115" y="909.1641"/><rect fill="#FFFFFF" height="164.2734" style="stroke:#383838;stroke-width:1.0;" width="10" x="1115" y="1043.9219"/><rect fill="#FFFFFF" height="93.5703" style="stroke:#383838;stroke-width:1.0;" width="10" x="1249.5" y="1084.2734"/><rect fill="#FFFFFF" height="980.9219" style="stroke:#000000;stroke-width:2.0;" width="1415.5" x="10" y="418.3828"/><rect fill="#FFFFFF" height="106.8906" style="stroke:none;stroke-width:1.0;" width="1415.5" x="10" y="527.7891"/><rect fill="#FFFFFF" height="764.625" style="stroke:none;stroke-width:1.0;" width="1415.5" x="10" y="634.6797"/><rect fill="#FFFFFF" height="600.3828" style="stroke:#000000;stroke-width:2.0;" width="1395.5" x="20" y="791.9219"/><rect fill="#FFFFFF" height="521.3281" style="stroke:none;stroke-width:1.0;" width="1395.5" x="20" y="870.9766"/><rect fill="#FFFFFF" height="292.0313" style="stroke:#000000;stroke-width:2.0;" width="1004.5" x="401" y="924.1641"/><rect fill="#FFFFFF" height="243.3281" style="stroke:none;stroke-width:1.0;" width="1004.5" x="401" y="972.8672"/><line style="stroke:#383838;stroke-width:1.0;stroke-dasharray:5.0,5.0;" x1="99" x2="99" y1="85.6094" y2="1416.3047"/><line style="stroke:#383838;stroke-width:1.0;stroke-dasharray:5.0,5.0;" x1="296" x2="296" y1="85.6094" y2="1416.3047"/><line style="stroke:#383838;stroke-width:1.0;stroke-dasharray:5.0,5.0;" x1="493" x2="493" y1="157.2656" y2="1416.3047"/><line style="stroke:#383838;stroke-width:1.0;stroke-dasharray:5.0,5.0;" x1="687" x2="687" y1="85.6094" y2="1416.3047"/><line style="stroke:#383838;stroke-width:1.0;stroke-dasharray:5.0,5.0;" x1="776" x2="776" y1="85.6094" y2="1416.3047"/><line style="stroke:#383838;stroke-width:1.0;stroke-dasharray:5.0,5.0;" x1="880" x2="880" y1="85.6094" y2="1416.3047"/><line style="stroke:#383838;stroke-width:1.0;stroke-dasharray:5.0,5.0;" x1="987" x2="987" y1="85.6094" y2="1416.3047"/><line style="stroke:#383838;stroke-width:1.0;stroke-dasharray:5.0,5.0;" x1="1120" x2="1120" y1="85.6094" y2="1416.3047"/><line style="stroke:#383838;stroke-width:1.0;stroke-dasharray:5.0,5.0;" x1="1254" x2="1254" y1="1092.0313" y2="1416.3047"/><text fill="#000000" font-family="sans-serif" font-size="14" lengthAdjust="spacing" textLength="133" x="30" y="82.5332">System Administrator</text><ellipse cx="99.5" cy="15" fill="#F8F8F8" rx="8" ry="8" style="stroke:#383838;stroke-width:2.0;"/><path d="M99.5,23 L99.5,50 M86.5,31 L112.5,31 M99.5,50 L86.5,65 M99.5,50 L112.5,65 " fill="none" style="stroke:#383838;stroke-width:2.0;"/><text fill="#000000" font-family="sans-serif" font-size="14" lengthAdjust="spacing" textLength="133" x="30" y="1429.8379">System Administrator</text><ellipse cx="99.5" cy="1442.9141" fill="#F8F8F8" rx="8" ry="8" style="stroke:#383838;stroke-width:2.0;"/><path d="M99.5,1450.9141 L99.5,1477.9141 M86.5,1458.9141 L112.5,1458.9141 M99.5,1477.9141 L86.5,1492.9141 M99.5,1477.9141 L112.5,1492.9141 " fill="none" style="stroke:#383838;stroke-width:2.0;"/><rect fill="#F8F8F8" height="31.6094" style="stroke:#383838;stroke-width:1.5;" width="115" x="239" y="53"/><text fill="#000000" font-family="sans-serif" font-size="14" lengthAdjust="spacing" textLength="101" x="246" y="74.5332">:LegacyImportUI</text><rect fill="#F8F8F8" height="31.6094" style="stroke:#383838;stroke-width:1.5;" width="115" x="239" y="1415.3047"/><text fill="#000000" font-family="sans-serif" font-size="14" lengthAdjust="spacing" textLength="101" x="246" y="1436.8379">:LegacyImportUI</text><rect fill="#F8F8F8" height="31.6094" style="stroke:#383838;stroke-width:1.5;" width="165" x="411" y="1415.3047"/><text fill="#000000" font-family="sans-serif" font-size="14" lengthAdjust="spacing" textLength="151" x="418" y="1436.8379">:LegacyImportController</text><rect fill="#F8F8F8" height="31.6094" style="stroke:#383838;stroke-width:1.5;" width="67" x="654" y="53"/><text fill="#000000" font-family="sans-serif" font-size="14" lengthAdjust="spacing" textLength="53" x="661" y="74.5332">:FileOps</text><rect fill="#F8F8F8" height="31.6094" style="stroke:#383838;stroke-width:1.5;" width="67" x="654" y="1415.3047"/><text fill="#000000" font-family="sans-serif" font-size="14" lengthAdjust="spacing" textLength="53" x="661" y="1436.8379">:FileOps</text><rect fill="#F8F8F8" height="31.6094" style="stroke:#383838;stroke-width:1.5;" width="91" x="731" y="53"/><text fill="#000000" font-family="sans-serif" font-size="14" lengthAdjust="spacing" textLength="77" x="738" y="74.5332">:CsvHandler</text><rect fill="#F8F8F8" height="31.6094" style="stroke:#383838;stroke-width:1.5;" width="91" x="731" y="1415.3047"/><text fill="#000000" font-family="sans-serif" font-size="14" lengthAdjust="spacing" textLength="77" x="738" y="1436.8379">:CsvHandler</text><rect fill="#F8F8F8" height="31.6094" style="stroke:#383838;stroke-width:1.5;" width="97" x="832" y="53"/><text fill="#000000" font-family="sans-serif" font-size="14" lengthAdjust="spacing" textLength="83" x="839" y="74.5332">:Repositories</text><rect fill="#F8F8F8" height="31.6094" style="stroke:#383838;stroke-width:1.5;" width="97" x="832" y="1415.3047"/><text fill="#000000" font-family="sans-serif" font-size="14" lengthAdjust="spacing" textLength="83" x="839" y="1436.8379">:Repositories</text><rect fill="#F8F8F8" height="49.2188" style="stroke:#383838;stroke-width:1.5;" width="97" x="939" y="35.3906"/><text fill="#000000" font-family="sans-serif" font-size="14" lengthAdjust="spacing" textLength="74" x="950.5" y="56.9238">repositories</text><text fill="#000000" font-family="sans-serif" font-size="14" lengthAdjust="spacing" textLength="83" x="946" y="74.5332">:Repositories</text><rect fill="#F8F8F8" height="49.2188" style="stroke:#383838;stroke-width:1.5;" width="97" x="939" y="1415.3047"/><text fill="#000000" font-family="sans-serif" font-size="14" lengthAdjust="spacing" textLength="74" x="950.5" y="1436.8379">repositories</text><text fill="#000000" font-family="sans-serif" font-size="14" lengthAdjust="spacing" textLength="83" x="946" y="1454.4473">:Repositories</text><rect fill="#F8F8F8" height="49.2188" style="stroke:#383838;stroke-width:1.5;" width="148" x="1046" y="35.3906"/><text fill="#000000" font-family="sans-serif" font-size="14" lengthAdjust="spacing" textLength="129" x="1055.5" y="56.9238">employeeRepository</text><text fill="#000000" font-family="sans-serif" font-size="14" lengthAdjust="spacing" textLength="134" x="1053" y="74.5332">:EmployeeRepository</text><rect fill="#F8F8F8" height="49.2188" style="stroke:#383838;stroke-width:1.5;" width="148" x="1046" y="1415.3047"/><text fill="#000000" font-family="sans-serif" font-size="14" lengthAdjust="spacing" textLength="129" x="1055.5" y="1436.8379">employeeRepository</text><text fill="#000000" font-family="sans-serif" font-size="14" lengthAdjust="spacing" textLength="134" x="1053" y="1454.4473">:EmployeeRepository</text><rect fill="#F8F8F8" height="49.2188" style="stroke:#383838;stroke-width:1.5;" width="101" x="1204" y="1415.3047"/><text fill="#000000" font-family="sans-serif" font-size="14" lengthAdjust="spacing" textLength="87" x="1211" y="1436.8379">newEmployee</text><text fill="#000000" font-family="sans-serif" font-size="14" lengthAdjust="spacing" textLength="66" x="1221.5" y="1454.4473">:Employee</text><rect fill="#FFFFFF" height="1310.6953" style="stroke:#383838;stroke-width:1.0;" width="10" x="94.5" y="95.6094"/><rect fill="#FFFFFF" height="194.3672" style="stroke:#383838;stroke-width:1.0;" width="10" x="291.5" y="117.9609"/><rect fill="#FFFFFF" height="1041.625" style="stroke:#383838;stroke-width:1.0;" width="10" x="291.5" y="342.6797"/><rect fill="#FFFFFF" height="123.6641" style="stroke:#383838;stroke-width:1.0;" width="10" x="488.5" y="158.3125"/><rect fill="#FFFFFF" height="980.9219" style="stroke:#383838;stroke-width:1.0;" width="10" x="488.5" y="373.0313"/><rect fill="#FFFFFF" height="269.4844" style="stroke:#383838;stroke-width:1.0;" width="10" x="682.5" y="403.3828"/><rect fill="#FFFFFF" height="30.3516" style="stroke:#383838;stroke-width:1.0;" width="10" x="682.5" y="703.2188"/><rect fill="#FFFFFF" height="78.0547" style="stroke:#383838;stroke-width:1.0;" width="10" x="771.5" y="1245.5469"/><rect fill="#FFFFFF" height="30.3516" style="stroke:#383838;stroke-width:1.0;" width="10" x="875.5" y="190.9219"/><rect fill="#FFFFFF" height="30.3516" style="stroke:#383838;stroke-width:1.0;" width="10" x="982.5" y="251.625"/><rect fill="#FFFFFF" height="88.0547" style="stroke:#383838;stroke-width:1.0;" width="10" x="1115" y="909.1641"/><rect fill="#FFFFFF" height="164.2734" style="stroke:#383838;stroke-width:1.0;" width="10" x="1115" y="1043.9219"/><rect fill="#FFFFFF" height="93.5703" style="stroke:#383838;stroke-width:1.0;" width="10" x="1249.5" y="1084.2734"/><polygon fill="#383838" points="279.5,113.9609,289.5,117.9609,279.5,121.9609,283.5,117.9609" style="stroke:#383838;stroke-width:1.0;"/><line style="stroke:#383838;stroke-width:1.0;" x1="104.5" x2="285.5" y1="117.9609" y2="117.9609"/><text fill="#000000" font-family="sans-serif" font-size="13" font-weight="bold" lengthAdjust="spacing" textLength="7" x="111.5" y="113.1045">1</text><text fill="#000000" font-family="sans-serif" font-size="13" lengthAdjust="spacing" textLength="119" x="122.5" y="113.1045">starts importing data</text><polygon fill="#383838" points="399,144.3125,409,148.3125,399,152.3125,403,148.3125" style="stroke:#383838;stroke-width:1.0;"/><line style="stroke:#383838;stroke-width:1.0;" x1="301.5" x2="405" y1="148.3125" y2="148.3125"/><text fill="#000000" font-family="sans-serif" font-size="13" font-weight="bold" lengthAdjust="spacing" textLength="7" x="308.5" y="143.4561">2</text><text fill="#000000" font-family="sans-serif" font-size="13" lengthAdjust="spacing" textLength="36" x="319.5" y="143.4561">create</text><rect fill="#F8F8F8" height="31.6094" style="stroke:#383838;stroke-width:1.5;" width="165" x="411" y="125.9609"/><text fill="#000000" font-family="sans-serif" font-size="14" lengthAdjust="spacing" textLength="151" x="418" y="147.4941">:LegacyImportController</text><polygon fill="#383838" points="863.5,186.9219,873.5,190.9219,863.5,194.9219,867.5,190.9219" style="stroke:#383838;stroke-width:1.0;"/><line style="stroke:#383838;stroke-width:1.0;" x1="498.5" x2="869.5" y1="190.9219" y2="190.9219"/><text fill="#000000" font-family="sans-serif" font-size="13" font-weight="bold" lengthAdjust="spacing" textLength="7" x="505.5" y="186.0654">3</text><text fill="#000000" font-family="sans-serif" font-size="13" lengthAdjust="spacing" textLength="75" x="516.5" y="186.0654">getInstance()</text><polygon fill="#383838" points="509.5,217.2734,499.5,221.2734,509.5,225.2734,505.5,221.2734" style="stroke:#383838;stroke-width:1.0;"/><line style="stroke:#383838;stroke-width:1.0;stroke-dasharray:2.0,2.0;" x1="503.5" x2="879.5" y1="221.2734" y2="221.2734"/><text fill="#000000" font-family="sans-serif" font-size="13" font-weight="bold" lengthAdjust="spacing" textLength="7" x="515.5" y="216.417">4</text><text fill="#000000" font-family="sans-serif" font-size="13" lengthAdjust="spacing" textLength="67" x="526.5" y="216.417">repositories</text><polygon fill="#383838" points="970.5,247.625,980.5,251.625,970.5,255.625,974.5,251.625" style="stroke:#383838;stroke-width:1.0;"/><line style="stroke:#383838;stroke-width:1.0;" x1="498.5" x2="976.5" y1="251.625" y2="251.625"/><text fill="#000000" font-family="sans-serif" font-size="13" font-weight="bold" lengthAdjust="spacing" textLength="7" x="505.5" y="246.7686">5</text><text fill="#000000" font-family="sans-serif" font-size="13" lengthAdjust="spacing" textLength="146" x="516.5" y="246.7686">getEmployeeRepository()</text><polygon fill="#383838" points="504.5,277.9766,494.5,281.9766,504.5,285.9766,500.5,281.9766" style="stroke:#383838;stroke-width:1.0;"/><line style="stroke:#383838;stroke-width:1.0;stroke-dasharray:2.0,2.0;" x1="498.5" x2="986.5" y1="281.9766" y2="281.9766"/><text fill="#000000" font-family="sans-serif" font-size="13" font-weight="bold" lengthAdjust="spacing" textLength="7" x="510.5" y="277.1201">6</text><text fill="#000000" font-family="sans-serif" font-size="13" lengthAdjust="spacing" textLength="118" x="521.5" y="277.1201">employeeRepository</text><polygon fill="#383838" points="115.5,308.3281,105.5,312.3281,115.5,316.3281,111.5,312.3281" style="stroke:#383838;stroke-width:1.0;"/><line style="stroke:#383838;stroke-width:1.0;stroke-dasharray:2.0,2.0;" x1="109.5" x2="295.5" y1="312.3281" y2="312.3281"/><text fill="#000000" font-family="sans-serif" font-size="13" font-weight="bold" lengthAdjust="spacing" textLength="7" x="121.5" y="307.4717">7</text><text fill="#000000" font-family="sans-serif" font-size="13" lengthAdjust="spacing" textLength="99" x="132.5" y="307.4717">requests file path</text><polygon fill="#383838" points="279.5,338.6797,289.5,342.6797,279.5,346.6797,283.5,342.6797" style="stroke:#383838;stroke-width:1.0;"/><line style="stroke:#383838;stroke-width:1.0;" x1="104.5" x2="285.5" y1="342.6797" y2="342.6797"/><text fill="#000000" font-family="sans-serif" font-size="13" font-weight="bold" lengthAdjust="spacing" textLength="7" x="111.5" y="337.8232">8</text><text fill="#000000" font-family="sans-serif" font-size="13" lengthAdjust="spacing" textLength="81" x="122.5" y="337.8232">types file path</text><polygon fill="#383838" points="476.5,369.0313,486.5,373.0313,476.5,377.0313,480.5,373.0313" style="stroke:#383838;stroke-width:1.0;"/><line style="stroke:#383838;stroke-width:1.0;" x1="301.5" x2="482.5" y1="373.0313" y2="373.0313"/><text fill="#000000" font-family="sans-serif" font-size="13" font-weight="bold" lengthAdjust="spacing" textLength="7" x="308.5" y="368.1748">9</text><text fill="#000000" font-family="sans-serif" font-size="13" lengthAdjust="spacing" textLength="97" x="319.5" y="368.1748">readFile(filePath)</text><polygon fill="#383838" points="670.5,399.3828,680.5,403.3828,670.5,407.3828,674.5,403.3828" style="stroke:#383838;stroke-width:1.0;"/><line style="stroke:#383838;stroke-width:1.0;" x1="498.5" x2="676.5" y1="403.3828" y2="403.3828"/><text fill="#000000" font-family="sans-serif" font-size="13" font-weight="bold" lengthAdjust="spacing" textLength="14" x="505.5" y="398.5264">10</text><text fill="#000000" font-family="sans-serif" font-size="13" lengthAdjust="spacing" textLength="97" x="523.5" y="398.5264">readFile(filePath)</text><path d="M10,418.3828 L71,418.3828 L71,426.3828 L61,436.3828 L10,436.3828 L10,418.3828 " fill="#EEEEEE" style="stroke:#000000;stroke-width:1.0;"/><rect fill="none" height="980.9219" style="stroke:#000000;stroke-width:2.0;" width="1415.5" x="10" y="418.3828"/><text fill="#000000" font-family="sans-serif" font-size="13" font-weight="bold" lengthAdjust="spacing" textLength="16" x="25" y="432.8779">alt</text><text fill="#000000" font-family="sans-serif" font-size="11" font-weight="bold" lengthAdjust="spacing" textLength="81" x="86" y="431.8018">[file not found]</text><polygon fill="#383838" points="509.5,455.0859,499.5,459.0859,509.5,463.0859,505.5,459.0859" style="stroke:#383838;stroke-width:1.0;"/><line style="stroke:#383838;stroke-width:1.0;" x1="503.5" x2="681.5" y1="459.0859" y2="459.0859"/><text fill="#000000" font-family="sans-serif" font-size="13" font-weight="bold" lengthAdjust="spacing" textLength="14" x="515.5" y="454.2295">11</text><text fill="#000000" font-family="sans-serif" font-size="13" lengthAdjust="spacing" textLength="128" x="533.5" y="454.2295">FileNotFoundExeption</text><polygon fill="#383838" points="312.5,485.4375,302.5,489.4375,312.5,493.4375,308.5,489.4375" style="stroke:#383838;stroke-width:1.0;"/><line style="stroke:#383838;stroke-width:1.0;" x1="306.5" x2="487.5" y1="489.4375" y2="489.4375"/><text fill="#000000" font-family="sans-serif" font-size="13" font-weight="bold" lengthAdjust="spacing" textLength="14" x="318.5" y="484.5811">12</text><text fill="#000000" font-family="sans-serif" font-size="13" lengthAdjust="spacing" textLength="27" x="336.5" y="484.5811">false</text><polygon fill="#383838" points="115.5,515.7891,105.5,519.7891,115.5,523.7891,111.5,519.7891" style="stroke:#383838;stroke-width:1.0;"/><line style="stroke:#383838;stroke-width:1.0;" x1="109.5" x2="290.5" y1="519.7891" y2="519.7891"/><text fill="#000000" font-family="sans-serif" font-size="13" font-weight="bold" lengthAdjust="spacing" textLength="14" x="121.5" y="514.9326">13</text><text fill="#000000" font-family="sans-serif" font-size="13" lengthAdjust="spacing" textLength="119" x="139.5" y="514.9326">informs file not found</text><line style="stroke:#000000;stroke-width:1.0;stroke-dasharray:2.0,2.0;" x1="10" x2="1425.5" y1="528.7891" y2="528.7891"/><text fill="#000000" font-family="sans-serif" font-size="11" font-weight="bold" lengthAdjust="spacing" textLength="139" x="15" y="540.208">[file extension is not csv]</text><polygon fill="#383838" points="509.5,561.9766,499.5,565.9766,509.5,569.9766,505.5,565.9766" style="stroke:#383838;stroke-width:1.0;"/><line style="stroke:#383838;stroke-width:1.0;" x1="503.5" x2="681.5" y1="565.9766" y2="565.9766"/><text fill="#000000" font-family="sans-serif" font-size="13" font-weight="bold" lengthAdjust="spacing" textLength="14" x="515.5" y="561.1201">14</text><text fill="#000000" font-family="sans-serif" font-size="13" lengthAdjust="spacing" textLength="142" x="533.5" y="561.1201">InvalidFileTypeException</text><polygon fill="#383838" points="312.5,592.3281,302.5,596.3281,312.5,600.3281,308.5,596.3281" style="stroke:#383838;stroke-width:1.0;"/><line style="stroke:#383838;stroke-width:1.0;" x1="306.5" x2="487.5" y1="596.3281" y2="596.3281"/><text fill="#000000" font-family="sans-serif" font-size="13" font-weight="bold" lengthAdjust="spacing" textLength="14" x="318.5" y="591.4717">15</text><text fill="#000000" font-family="sans-serif" font-size="13" lengthAdjust="spacing" textLength="27" x="336.5" y="591.4717">false</text><polygon fill="#383838" points="115.5,622.6797,105.5,626.6797,115.5,630.6797,111.5,626.6797" style="stroke:#383838;stroke-width:1.0;"/><line style="stroke:#383838;stroke-width:1.0;" x1="109.5" x2="290.5" y1="626.6797" y2="626.6797"/><text fill="#000000" font-family="sans-serif" font-size="13" font-weight="bold" lengthAdjust="spacing" textLength="14" x="121.5" y="621.8232">16</text><text fill="#000000" font-family="sans-serif" font-size="13" lengthAdjust="spacing" textLength="129" x="139.5" y="621.8232">informs file is not CSV</text><line style="stroke:#000000;stroke-width:1.0;stroke-dasharray:2.0,2.0;" x1="10" x2="1425.5" y1="635.6797" y2="635.6797"/><text fill="#000000" font-family="sans-serif" font-size="11" font-weight="bold" lengthAdjust="spacing" textLength="60" x="15" y="647.0986">[file found]</text><polygon fill="#383838" points="509.5,668.8672,499.5,672.8672,509.5,676.8672,505.5,672.8672" style="stroke:#383838;stroke-width:1.0;"/><line style="stroke:#383838;stroke-width:1.0;stroke-dasharray:2.0,2.0;" x1="503.5" x2="686.5" y1="672.8672" y2="672.8672"/><text fill="#000000" font-family="sans-serif" font-size="13" font-weight="bold" lengthAdjust="spacing" textLength="14" x="515.5" y="668.0107">17</text><text fill="#000000" font-family="sans-serif" font-size="13" lengthAdjust="spacing" textLength="16" x="533.5" y="668.0107">file</text><polygon fill="#383838" points="670.5,699.2188,680.5,703.2188,670.5,707.2188,674.5,703.2188" style="stroke:#383838;stroke-width:1.0;"/><line style="stroke:#383838;stroke-width:1.0;" x1="498.5" x2="676.5" y1="703.2188" y2="703.2188"/><text fill="#000000" font-family="sans-serif" font-size="13" font-weight="bold" lengthAdjust="spacing" textLength="14" x="505.5" y="698.3623">18</text><text fill="#000000" font-family="sans-serif" font-size="13" lengthAdjust="spacing" textLength="76" x="523.5" y="698.3623">readCSV(file)</text><polygon fill="#383838" points="509.5,729.5703,499.5,733.5703,509.5,737.5703,505.5,733.5703" style="stroke:#383838;stroke-width:1.0;"/><line style="stroke:#383838;stroke-width:1.0;stroke-dasharray:2.0,2.0;" x1="503.5" x2="686.5" y1="733.5703" y2="733.5703"/><text fill="#000000" font-family="sans-serif" font-size="13" font-weight="bold" lengthAdjust="spacing" textLength="14" x="515.5" y="728.7139">19</text><text fill="#000000" font-family="sans-serif" font-size="13" lengthAdjust="spacing" textLength="27" x="533.5" y="728.7139">csv[]</text><line style="stroke:#383838;stroke-width:1.0;" x1="498.5" x2="540.5" y1="763.9219" y2="763.9219"/><line style="stroke:#383838;stroke-width:1.0;" x1="540.5" x2="540.5" y1="763.9219" y2="776.9219"/><line style="stroke:#383838;stroke-width:1.0;" x1="499.5" x2="540.5" y1="776.9219" y2="776.9219"/><polygon fill="#383838" points="509.5,772.9219,499.5,776.9219,509.5,780.9219,505.5,776.9219" style="stroke:#383838;stroke-width:1.0;"/><text fill="#000000" font-family="sans-serif" font-size="13" font-weight="bold" lengthAdjust="spacing" textLength="14" x="505.5" y="759.0654">20</text><text fill="#000000" font-family="sans-serif" font-size="13" lengthAdjust="spacing" textLength="74" x="523.5" y="759.0654">csv[].length()</text><path d="M20,791.9219 L81,791.9219 L81,799.9219 L71,809.9219 L20,809.9219 L20,791.9219 " fill="#EEEEEE" style="stroke:#000000;stroke-width:1.0;"/><rect fill="none" height="600.3828" style="stroke:#000000;stroke-width:2.0;" width="1395.5" x="20" y="791.9219"/><text fill="#000000" font-family="sans-serif" font-size="13" font-weight="bold" lengthAdjust="spacing" textLength="16" x="35" y="806.417">alt</text><text fill="#000000" font-family="sans-serif" font-size="11" font-weight="bold" lengthAdjust="spacing" textLength="99" x="96" y="805.3408">[csv[].length() &lt; 2]</text><polygon fill="#383838" points="312.5,828.625,302.5,832.625,312.5,836.625,308.5,832.625" style="stroke:#383838;stroke-width:1.0;"/><line style="stroke:#383838;stroke-width:1.0;" x1="306.5" x2="487.5" y1="832.625" y2="832.625"/><text fill="#000000" font-family="sans-serif" font-size="13" font-weight="bold" lengthAdjust="spacing" textLength="14" x="318.5" y="827.7686">21</text><text fill="#000000" font-family="sans-serif" font-size="13" lengthAdjust="spacing" textLength="20" x="336.5" y="827.7686">null</text><polygon fill="#383838" points="115.5,858.9766,105.5,862.9766,115.5,866.9766,111.5,862.9766" style="stroke:#383838;stroke-width:1.0;"/><line style="stroke:#383838;stroke-width:1.0;" x1="109.5" x2="290.5" y1="862.9766" y2="862.9766"/><text fill="#000000" font-family="sans-serif" font-size="13" font-weight="bold" lengthAdjust="spacing" textLength="14" x="121.5" y="858.1201">22</text><text fill="#000000" font-family="sans-serif" font-size="13" lengthAdjust="spacing" textLength="109" x="139.5" y="858.1201">inform file is empty</text><line style="stroke:#000000;stroke-width:1.0;stroke-dasharray:2.0,2.0;" x1="20" x2="1415.5" y1="871.9766" y2="871.9766"/><text fill="#000000" font-family="sans-serif" font-size="11" font-weight="bold" lengthAdjust="spacing" textLength="97" x="25" y="883.3955">[csv[].length &gt;= 2]</text><polygon fill="#383838" points="1103,905.1641,1113,909.1641,1103,913.1641,1107,909.1641" style="stroke:#383838;stroke-width:1.0;"/><line style="stroke:#383838;stroke-width:1.0;" x1="498.5" x2="1109" y1="909.1641" y2="909.1641"/><text fill="#000000" font-family="sans-serif" font-size="13" font-weight="bold" lengthAdjust="spacing" textLength="14" x="505.5" y="904.3076">23</text><text fill="#000000" font-family="sans-serif" font-size="13" lengthAdjust="spacing" textLength="224" x="523.5" y="904.3076">getEmployeeByName("Legacy Agent")</text><path d="M401,924.1641 L462,924.1641 L462,932.1641 L452,942.1641 L401,942.1641 L401,924.1641 " fill="#EEEEEE" style="stroke:#000000;stroke-width:1.0;"/><rect fill="none" height="292.0313" style="stroke:#000000;stroke-width:2.0;" width="1004.5" x="401" y="924.1641"/><text fill="#000000" font-family="sans-serif" font-size="13" font-weight="bold" lengthAdjust="spacing" textLength="16" x="416" y="938.6592">alt</text><polygon fill="#383838" points="509.5,960.8672,499.5,964.8672,509.5,968.8672,505.5,964.8672" style="stroke:#383838;stroke-width:1.0;"/><line style="stroke:#383838;stroke-width:1.0;stroke-dasharray:2.0,2.0;" x1="503.5" x2="1114" y1="964.8672" y2="964.8672"/><text fill="#000000" font-family="sans-serif" font-size="13" font-weight="bold" lengthAdjust="spacing" textLength="14" x="515.5" y="960.0107">24</text><text fill="#000000" font-family="sans-serif" font-size="13" lengthAdjust="spacing" textLength="134" x="533.5" y="960.0107">Employee legacyAgent</text><line style="stroke:#000000;stroke-width:1.0;stroke-dasharray:2.0,2.0;" x1="401" x2="1405.5" y1="973.8672" y2="973.8672"/><polygon fill="#383838" points="509.5,993.2188,499.5,997.2188,509.5,1001.2188,505.5,997.2188" style="stroke:#383838;stroke-width:1.0;"/><line style="stroke:#383838;stroke-width:1.0;stroke-dasharray:2.0,2.0;" x1="503.5" x2="1119" y1="997.2188" y2="997.2188"/><text fill="#000000" font-family="sans-serif" font-size="13" font-weight="bold" lengthAdjust="spacing" textLength="14" x="515.5" y="992.3623">25</text><text fill="#000000" font-family="sans-serif" font-size="13" lengthAdjust="spacing" textLength="20" x="533.5" y="992.3623">null</text><polygon fill="#383838" points="1103,1039.9219,1113,1043.9219,1103,1047.9219,1107,1043.9219" style="stroke:#383838;stroke-width:1.0;"/><line style="stroke:#383838;stroke-width:1.0;" x1="498.5" x2="1109" y1="1043.9219" y2="1043.9219"/><text fill="#000000" font-family="sans-serif" font-size="13" font-weight="bold" lengthAdjust="spacing" textLength="14" x="505.5" y="1030.8896">26</text><text fill="#000000" font-family="sans-serif" font-size="13" lengthAdjust="spacing" textLength="105" x="523.5" y="1022.7139">registerEmployee(</text><text fill="#000000" font-family="sans-serif" font-size="13" lengthAdjust="spacing" textLength="114" x="523.5" y="1039.0654">"Legacy Agent", ...)</text><polygon fill="#383838" points="1192,1070.2734,1202,1074.2734,1192,1078.2734,1196,1074.2734" style="stroke:#383838;stroke-width:1.0;"/><line style="stroke:#383838;stroke-width:1.0;" x1="1125" x2="1198" y1="1074.2734" y2="1074.2734"/><text fill="#000000" font-family="sans-serif" font-size="13" font-weight="bold" lengthAdjust="spacing" textLength="14" x="1132" y="1069.417">27</text><text fill="#000000" font-family="sans-serif" font-size="13" lengthAdjust="spacing" textLength="36" x="1150" y="1069.417">create</text><rect fill="#F8F8F8" height="49.2188" style="stroke:#383838;stroke-width:1.5;" width="101" x="1204" y="1051.9219"/><text fill="#000000" font-family="sans-serif" font-size="14" lengthAdjust="spacing" textLength="87" x="1211" y="1073.4551">newEmployee</text><text fill="#000000" font-family="sans-serif" font-size="14" lengthAdjust="spacing" textLength="66" x="1221.5" y="1091.0645">:Employee</text><line style="stroke:#383838;stroke-width:1.0;" x1="1259.5" x2="1301.5" y1="1134.4922" y2="1134.4922"/><line style="stroke:#383838;stroke-width:1.0;" x1="1301.5" x2="1301.5" y1="1134.4922" y2="1147.4922"/><line style="stroke:#383838;stroke-width:1.0;" x1="1260.5" x2="1301.5" y1="1147.4922" y2="1147.4922"/><polygon fill="#383838" points="1270.5,1143.4922,1260.5,1147.4922,1270.5,1151.4922,1266.5,1147.4922" style="stroke:#383838;stroke-width:1.0;"/><text fill="#000000" font-family="sans-serif" font-size="13" font-weight="bold" lengthAdjust="spacing" textLength="14" x="1266.5" y="1129.6357">28</text><text fill="#000000" font-family="sans-serif" font-size="13" lengthAdjust="spacing" textLength="109" x="1284.5" y="1129.6357">validateEmployee()</text><polygon fill="#383838" points="1136,1173.8438,1126,1177.8438,1136,1181.8438,1132,1177.8438" style="stroke:#383838;stroke-width:1.0;"/><line style="stroke:#383838;stroke-width:1.0;stroke-dasharray:2.0,2.0;" x1="1130" x2="1253.5" y1="1177.8438" y2="1177.8438"/><text fill="#000000" font-family="sans-serif" font-size="13" font-weight="bold" lengthAdjust="spacing" textLength="14" x="1142" y="1172.9873">29</text><text fill="#000000" font-family="sans-serif" font-size="13" lengthAdjust="spacing" textLength="22" x="1160" y="1172.9873">true</text><polygon fill="#383838" points="509.5,1204.1953,499.5,1208.1953,509.5,1212.1953,505.5,1208.1953" style="stroke:#383838;stroke-width:1.0;"/><line style="stroke:#383838;stroke-width:1.0;stroke-dasharray:2.0,2.0;" x1="503.5" x2="1119" y1="1208.1953" y2="1208.1953"/><text fill="#000000" font-family="sans-serif" font-size="13" font-weight="bold" lengthAdjust="spacing" textLength="14" x="515.5" y="1203.3389">30</text><text fill="#000000" font-family="sans-serif" font-size="13" lengthAdjust="spacing" textLength="22" x="533.5" y="1203.3389">true</text><polygon fill="#383838" points="759.5,1241.5469,769.5,1245.5469,759.5,1249.5469,763.5,1245.5469" style="stroke:#383838;stroke-width:1.0;"/><line style="stroke:#383838;stroke-width:1.0;" x1="498.5" x2="765.5" y1="1245.5469" y2="1245.5469"/><text fill="#000000" font-family="sans-serif" font-size="13" font-weight="bold" lengthAdjust="spacing" textLength="14" x="505.5" y="1240.6904">31</text><text fill="#000000" font-family="sans-serif" font-size="13" lengthAdjust="spacing" textLength="80" x="523.5" y="1240.6904">parseCsv(csv)</text><rect fill="#FFFFFF" height="42.7031" style="stroke:#000000;stroke-width:2.0;" width="158" x="728" y="1253.5469"/><path d="M728,1253.5469 L790,1253.5469 L790,1261.5469 L780,1271.5469 L728,1271.5469 L728,1253.5469 " fill="#EEEEEE" style="stroke:#000000;stroke-width:2.0;"/><text fill="#000000" font-family="sans-serif" font-size="13" font-weight="bold" lengthAdjust="spacing" textLength="17" x="741" y="1269.042">ref</text><text fill="#000000" font-family="sans-serif" font-size="13" lengthAdjust="spacing" textLength="150" x="732" y="1289.042">SD_CsvHandler_parseCsv</text><polygon fill="#383838" points="509.5,1319.6016,499.5,1323.6016,509.5,1327.6016,505.5,1323.6016" style="stroke:#383838;stroke-width:1.0;"/><line style="stroke:#383838;stroke-width:1.0;stroke-dasharray:2.0,2.0;" x1="503.5" x2="775.5" y1="1323.6016" y2="1323.6016"/><text fill="#000000" font-family="sans-serif" font-size="13" font-weight="bold" lengthAdjust="spacing" textLength="14" x="515.5" y="1318.7451">56</text><text fill="#000000" font-family="sans-serif" font-size="13" lengthAdjust="spacing" textLength="22" x="533.5" y="1318.7451">true</text><polygon fill="#383838" points="312.5,1349.9531,302.5,1353.9531,312.5,1357.9531,308.5,1353.9531" style="stroke:#383838;stroke-width:1.0;"/><line style="stroke:#383838;stroke-width:1.0;stroke-dasharray:2.0,2.0;" x1="306.5" x2="492.5" y1="1353.9531" y2="1353.9531"/><text fill="#000000" font-family="sans-serif" font-size="13" font-weight="bold" lengthAdjust="spacing" textLength="14" x="318.5" y="1349.0967">57</text><text fill="#000000" font-family="sans-serif" font-size="13" lengthAdjust="spacing" textLength="145" x="336.5" y="1349.0967">inform operation success</text><polygon fill="#383838" points="115.5,1380.3047,105.5,1384.3047,115.5,1388.3047,111.5,1384.3047" style="stroke:#383838;stroke-width:1.0;"/><line style="stroke:#383838;stroke-width:1.0;stroke-dasharray:2.0,2.0;" x1="109.5" x2="295.5" y1="1384.3047" y2="1384.3047"/><text fill="#000000" font-family="sans-serif" font-size="13" font-weight="bold" lengthAdjust="spacing" textLength="14" x="121.5" y="1379.4482">58</text><text fill="#000000" font-family="sans-serif" font-size="13" lengthAdjust="spacing" textLength="145" x="139.5" y="1379.4482">inform operation success</text><!--MD5=[a7a4f3fb19b402b2c604aca5c63e2d33]
@startuml
'https://plantuml.com/sequence-diagram

skinparam monochrome true
skinparam shadowing false
autonumber

actor "System Administrator" as sa
participant ":LegacyImportUI" as ui
participant ":LegacyImportController" as ctrl
participant ":FileOps" as fo
participant ":CsvHandler" as ch

participant ":Repositories" as repos
participant "repositories\n:Repositories" as repositories
'participant "announcementRepository\n:AnnouncementRepository" as AnnR
participant "employeeRepository\n:EmployeeRepository" as EmpR
'participant "clientRepository\n:ClientRepository" as CliR
'participant "branchRepository\n:BranchRepository" as BraR
participant "newEmployee\n:Employee" as Emp
'participant ":Announcement" as Ann
'participant ":Property" as Pro

activate sa
sa -> ui: starts importing data
activate ui
ui -> ctrl**: create
activate ctrl
ctrl -> repos: getInstance()
activate repos
return repositories

'ctrl -> repositories: getBranchRepository()
'activate repositories
'return branchRepository

'ctrl -> repositories: getAnnouncementRepository()
'activate repositories
'return announcementRepository

ctrl -> repositories: getEmployeeRepository()
activate repositories
return employeeRepository


''ctrl -> repositories: getClientRepository()
'activate repositories
'return clientRepository
deactivate ctrl

return requests file path

sa -> ui: types file path
activate ui

ui -> ctrl: readFile(filePath)
activate ctrl
'ctrl -> fh**: create
ctrl -> fo: readFile(filePath)
activate fo
alt file not found
fo -> ctrl: FileNotFoundExeption
ctrl -> ui: false
ui -> sa: informs file not found
else file extension is not csv
fo -> ctrl: InvalidFileTypeException
ctrl -> ui: false
ui -> sa: informs file is not CSV
else file found
    return file
ctrl -> fo: readCSV(file)
activate fo
return csv[]

ctrl -> ctrl: csv[].length()
'activate ctrl
alt csv[].length() < 2
ctrl -> ui: null
ui -> sa: inform file is empty
else csv[].length >= 2

ctrl -> EmpR: getEmployeeByName("Legacy Agent")
activate EmpR
alt
    EmpR - -> ctrl: Employee legacyAgent
else
    return null
    ctrl -> EmpR: registerEmployee(\n"Legacy Agent", ...)
    activate EmpR
    EmpR -> Emp**: create
    activate Emp
    Emp -> Emp: validateEmployee()
    return true
    return true
end


ctrl -> ch: parseCsv(csv)
activate ch
ref over ch: SD_CsvHandler_parseCsv
autonumber 56
return true
return inform operation success
return inform operation success
end
end



'alt
'    ui - -> sa: informs operation success
'else
'    ui - -> sa: inform no CSV file found
'else
'    return inform file is empty
'
'end

deactivate sa

@enduml

@startuml

skinparam monochrome true
skinparam shadowing false
autonumber

actor "System Administrator" as sa
participant ":LegacyImportUI" as ui
participant ":LegacyImportController" as ctrl
participant ":FileOps" as fo
participant ":CsvHandler" as ch

participant ":Repositories" as repos
participant "repositories\n:Repositories" as repositories
participant "employeeRepository\n:EmployeeRepository" as EmpR
participant "newEmployee\n:Employee" as Emp

activate sa
sa -> ui: starts importing data
activate ui
ui -> ctrl**: create
activate ctrl
ctrl -> repos: getInstance()
activate repos
return repositories



ctrl -> repositories: getEmployeeRepository()
activate repositories
return employeeRepository


deactivate ctrl

return requests file path

sa -> ui: types file path
activate ui

ui -> ctrl: readFile(filePath)
activate ctrl
ctrl -> fo: readFile(filePath)
activate fo
alt file not found
fo -> ctrl: FileNotFoundExeption
ctrl -> ui: false
ui -> sa: informs file not found
else file extension is not csv
fo -> ctrl: InvalidFileTypeException
ctrl -> ui: false
ui -> sa: informs file is not CSV
else file found
    return file
ctrl -> fo: readCSV(file)
activate fo
return csv[]

ctrl -> ctrl: csv[].length()
alt csv[].length() < 2
ctrl -> ui: null
ui -> sa: inform file is empty
else csv[].length >= 2

ctrl -> EmpR: getEmployeeByName("Legacy Agent")
activate EmpR
alt
    EmpR - -> ctrl: Employee legacyAgent
else
    return null
    ctrl -> EmpR: registerEmployee(\n"Legacy Agent", ...)
    activate EmpR
    EmpR -> Emp**: create
    activate Emp
    Emp -> Emp: validateEmployee()
    return true
    return true
end


ctrl -> ch: parseCsv(csv)
activate ch
ref over ch: SD_CsvHandler_parseCsv
autonumber 56
return true
return inform operation success
return inform operation success
end
end




deactivate sa

@enduml

PlantUML version 1.2022.1(Tue Feb 01 18:19:58 GMT 2022)
(GPL source distribution)
Java Runtime: OpenJDK Runtime Environment
JVM: OpenJDK 64-Bit Server VM
Default Encoding: Cp1252
Language: en
Country: US
--></g></svg>