<?xml version="1.0" encoding="UTF-8" standalone="no"?><svg xmlns="http://www.w3.org/2000/svg" xmlns:xlink="http://www.w3.org/1999/xlink" contentScriptType="application/ecmascript" contentStyleType="text/css" height="989px" preserveAspectRatio="none" style="width:846px;height:989px;background:#FFFFFF;" version="1.1" viewBox="0 0 846 989" width="846px" zoomAndPan="magnify"><defs/><g><!--MD5=[9681dc6e01e10c6b4fe06895ae94f592]
cluster UI--><polygon fill="#FFFFFF" points="433,6,453,6,460,29.6094,583,29.6094,583,134,433,134,433,6" style="stroke:#000000;stroke-width:1.5;"/><line style="stroke:#000000;stroke-width:1.5;" x1="433" x2="460" y1="29.6094" y2="29.6094"/><text fill="#000000" font-family="sans-serif" font-size="14" font-weight="bold" lengthAdjust="spacing" textLength="14" x="437" y="22.5332">UI</text><!--MD5=[1f2cfc53d9d308f53762fd0fcbaa4873]
cluster Controller--><polygon fill="#FFFFFF" points="412,158,489,158,496,181.6094,604,181.6094,604,272,412,272,412,158" style="stroke:#000000;stroke-width:1.5;"/><line style="stroke:#000000;stroke-width:1.5;" x1="412" x2="496" y1="181.6094" y2="181.6094"/><text fill="#000000" font-family="sans-serif" font-size="14" font-weight="bold" lengthAdjust="spacing" textLength="71" x="416" y="174.5332">Controller</text><!--MD5=[7e40339c58605559321960399585b560]
cluster Utils--><polygon fill="#FFFFFF" points="239,296,276,296,283,319.6094,741,319.6094,741,534,239,534,239,296" style="stroke:#000000;stroke-width:1.5;"/><line style="stroke:#000000;stroke-width:1.5;" x1="239" x2="283" y1="319.6094" y2="319.6094"/><text fill="#000000" font-family="sans-serif" font-size="14" font-weight="bold" lengthAdjust="spacing" textLength="31" x="243" y="312.5332">Utils</text><!--MD5=[121a8bf1197281ab89ed693fab589f94]
cluster Domain--><polygon fill="#FFFFFF" points="16,558,74,558,81,581.6094,727,581.6094,727,982,16,982,16,558" style="stroke:#000000;stroke-width:1.5;"/><line style="stroke:#000000;stroke-width:1.5;" x1="16" x2="81" y1="581.6094" y2="581.6094"/><text fill="#000000" font-family="sans-serif" font-size="14" font-weight="bold" lengthAdjust="spacing" textLength="52" x="20" y="574.5332">Domain</text><!--MD5=[c0bb46bd37555d1b33f9b77f7be4b7cf]
class LegacyImportUI--><rect codeLine="6" fill="#FEFECE" height="75.6719" id="LegacyImportUI" style="stroke:#A80036;stroke-width:1.5;" width="118" x="449" y="42"/><ellipse cx="464" cy="58" fill="#ADD1B2" rx="11" ry="11" style="stroke:#A80036;stroke-width:1.0;"/><path d="M466,54.5 Q466.2031,54 466.4375,53.75 Q466.6719,53.5 466.9375,53.5 Q467.4063,53.5 467.7031,53.7813 Q468,54.0625 468,54.7188 L468,56.2813 Q468,56.9375 467.7188,57.2188 Q467.4375,57.5 467,57.5 Q466.6094,57.5 466.3594,57.3281 Q466.1094,57.1563 466,56.7031 Q465.9531,56.3906 465.7813,56.2188 Q465.4688,55.8906 464.9063,55.7031 Q464.3438,55.5 463.7813,55.5 Q463.0781,55.5 462.4844,55.7813 Q461.9063,56.0625 461.4531,56.6875 Q461,57.3125 461,58.1719 L461,59.0938 Q461,60.125 461.8438,60.8125 Q462.6875,61.5 464.1875,61.5 Q465.0781,61.5 465.7031,61.2969 Q466.0625,61.1875 466.4688,60.8281 Q466.7344,60.625 466.875,60.5625 Q467.0156,60.5 467.1875,60.5 Q467.5156,60.5 467.75,60.7656 Q468,61.0156 468,61.375 Q468,61.7188 467.6563,62.125 Q467.1563,62.7188 466.3594,63.0469 Q465.3125,63.5 464.0313,63.5 Q462.5313,63.5 461.3281,62.9063 Q460.3594,62.4375 459.6719,61.4219 Q459,60.4063 459,59.2031 L459,58.1094 Q459,56.8594 459.5938,55.7656 Q460.2031,54.6719 461.25,54.0938 Q462.3125,53.5 463.5,53.5 Q464.2188,53.5 464.8438,53.75 Q465.4688,54 466,54.5 Z " fill="#000000"/><text fill="#000000" font-family="sans-serif" font-size="12" lengthAdjust="spacing" textLength="86" x="478" y="62.9102">LegacyImportUI</text><line style="stroke:#A80036;stroke-width:1.5;" x1="450" x2="566" y1="74" y2="74"/><line style="stroke:#A80036;stroke-width:1.5;" x1="450" x2="566" y1="82" y2="82"/><ellipse cx="460" cy="93" fill="#84BE84" rx="3" ry="3" style="stroke:#038048;stroke-width:1.0;"/><text fill="#000000" font-family="sans-serif" font-size="11" lengthAdjust="spacing" textLength="24" x="469" y="97.4189">run()</text><rect fill="#F24D5C" height="6" style="stroke:#C82930;stroke-width:1.0;" width="6" x="457" y="103.8359"/><text fill="#000000" font-family="sans-serif" font-size="11" lengthAdjust="spacing" textLength="60" x="469" y="111.2549">getFilePath()</text><!--MD5=[082892f6cf7011094916512c229c573d]
class LegacyImportController--><rect codeLine="13" fill="#FEFECE" height="61.8359" id="LegacyImportController" style="stroke:#A80036;stroke-width:1.5;" width="160" x="428" y="194"/><ellipse cx="443" cy="210" fill="#ADD1B2" rx="11" ry="11" style="stroke:#A80036;stroke-width:1.0;"/><path d="M445,206.5 Q445.2031,206 445.4375,205.75 Q445.6719,205.5 445.9375,205.5 Q446.4063,205.5 446.7031,205.7813 Q447,206.0625 447,206.7188 L447,208.2813 Q447,208.9375 446.7188,209.2188 Q446.4375,209.5 446,209.5 Q445.6094,209.5 445.3594,209.3281 Q445.1094,209.1563 445,208.7031 Q444.9531,208.3906 444.7813,208.2188 Q444.4688,207.8906 443.9063,207.7031 Q443.3438,207.5 442.7813,207.5 Q442.0781,207.5 441.4844,207.7813 Q440.9063,208.0625 440.4531,208.6875 Q440,209.3125 440,210.1719 L440,211.0938 Q440,212.125 440.8438,212.8125 Q441.6875,213.5 443.1875,213.5 Q444.0781,213.5 444.7031,213.2969 Q445.0625,213.1875 445.4688,212.8281 Q445.7344,212.625 445.875,212.5625 Q446.0156,212.5 446.1875,212.5 Q446.5156,212.5 446.75,212.7656 Q447,213.0156 447,213.375 Q447,213.7188 446.6563,214.125 Q446.1563,214.7188 445.3594,215.0469 Q444.3125,215.5 443.0313,215.5 Q441.5313,215.5 440.3281,214.9063 Q439.3594,214.4375 438.6719,213.4219 Q438,212.4063 438,211.2031 L438,210.1094 Q438,208.8594 438.5938,207.7656 Q439.2031,206.6719 440.25,206.0938 Q441.3125,205.5 442.5,205.5 Q443.2188,205.5 443.8438,205.75 Q444.4688,206 445,206.5 Z " fill="#000000"/><text fill="#000000" font-family="sans-serif" font-size="12" lengthAdjust="spacing" textLength="128" x="457" y="214.9102">LegacyImportController</text><line style="stroke:#A80036;stroke-width:1.5;" x1="429" x2="587" y1="226" y2="226"/><line style="stroke:#A80036;stroke-width:1.5;" x1="429" x2="587" y1="234" y2="234"/><ellipse cx="439" cy="245" fill="#84BE84" rx="3" ry="3" style="stroke:#038048;stroke-width:1.0;"/><text fill="#000000" font-family="sans-serif" font-size="11" lengthAdjust="spacing" textLength="53" x="448" y="249.4189">importFile()</text><!--MD5=[b28373ad2dae4f65b7338bf5dd4b621b]
class CsvHandler--><rect codeLine="19" fill="#FEFECE" height="186.3594" id="CsvHandler" style="stroke:#A80036;stroke-width:1.5;" width="233" x="255.5" y="332"/><ellipse cx="335.25" cy="348" fill="#ADD1B2" rx="11" ry="11" style="stroke:#A80036;stroke-width:1.0;"/><path d="M337.25,344.5 Q337.4531,344 337.6875,343.75 Q337.9219,343.5 338.1875,343.5 Q338.6563,343.5 338.9531,343.7813 Q339.25,344.0625 339.25,344.7188 L339.25,346.2813 Q339.25,346.9375 338.9688,347.2188 Q338.6875,347.5 338.25,347.5 Q337.8594,347.5 337.6094,347.3281 Q337.3594,347.1563 337.25,346.7031 Q337.2031,346.3906 337.0313,346.2188 Q336.7188,345.8906 336.1563,345.7031 Q335.5938,345.5 335.0313,345.5 Q334.3281,345.5 333.7344,345.7813 Q333.1563,346.0625 332.7031,346.6875 Q332.25,347.3125 332.25,348.1719 L332.25,349.0938 Q332.25,350.125 333.0938,350.8125 Q333.9375,351.5 335.4375,351.5 Q336.3281,351.5 336.9531,351.2969 Q337.3125,351.1875 337.7188,350.8281 Q337.9844,350.625 338.125,350.5625 Q338.2656,350.5 338.4375,350.5 Q338.7656,350.5 339,350.7656 Q339.25,351.0156 339.25,351.375 Q339.25,351.7188 338.9063,352.125 Q338.4063,352.7188 337.6094,353.0469 Q336.5625,353.5 335.2813,353.5 Q333.7813,353.5 332.5781,352.9063 Q331.6094,352.4375 330.9219,351.4219 Q330.25,350.4063 330.25,349.2031 L330.25,348.1094 Q330.25,346.8594 330.8438,345.7656 Q331.4531,344.6719 332.5,344.0938 Q333.5625,343.5 334.75,343.5 Q335.4688,343.5 336.0938,343.75 Q336.7188,344 337.25,344.5 Z " fill="#000000"/><text fill="#000000" font-family="sans-serif" font-size="12" lengthAdjust="spacing" textLength="65" x="355.75" y="352.9102">CsvHandler</text><line style="stroke:#A80036;stroke-width:1.5;" x1="256.5" x2="487.5" y1="364" y2="364"/><line style="stroke:#A80036;stroke-width:1.5;" x1="256.5" x2="487.5" y1="372" y2="372"/><ellipse cx="266.5" cy="383" fill="#84BE84" rx="3" ry="3" style="stroke:#038048;stroke-width:1.0;"/><text fill="#000000" font-family="sans-serif" font-size="11" lengthAdjust="spacing" textLength="97" x="275.5" y="387.4189">readCsv(File):List&lt;&gt;</text><ellipse cx="266.5" cy="396.8359" fill="#84BE84" rx="3" ry="3" style="stroke:#038048;stroke-width:1.0;"/><text fill="#000000" font-family="sans-serif" font-size="11" lengthAdjust="spacing" textLength="133" x="275.5" y="401.2549">csvIsEmpty(List&lt;&gt;):boolean</text><ellipse cx="266.5" cy="410.6719" fill="#84BE84" rx="3" ry="3" style="stroke:#038048;stroke-width:1.0;"/><text fill="#000000" font-family="sans-serif" font-size="11" lengthAdjust="spacing" textLength="155" x="275.5" y="415.0908">getDataFromCSVFile(File):List&lt;&gt;</text><ellipse cx="266.5" cy="424.5078" fill="#84BE84" rx="3" ry="3" style="stroke:#038048;stroke-width:1.0;"/><text fill="#000000" font-family="sans-serif" font-size="11" lengthAdjust="spacing" textLength="58" x="275.5" y="428.9268">parseCSV()</text><rect fill="#F24D5C" height="6" style="stroke:#C82930;stroke-width:1.0;" width="6" x="263.5" y="435.3438"/><text fill="#000000" font-family="sans-serif" font-size="11" lengthAdjust="spacing" textLength="123" x="275.5" y="442.7627">extensionIsCsv():boolean</text><rect fill="#F24D5C" height="6" style="stroke:#C82930;stroke-width:1.0;" width="6" x="263.5" y="449.1797"/><text fill="#000000" font-family="sans-serif" font-size="11" lengthAdjust="spacing" textLength="131" x="275.5" y="456.5986">parseBranchData():Branch</text><rect fill="#F24D5C" height="6" style="stroke:#C82930;stroke-width:1.0;" width="6" x="263.5" y="463.0156"/><text fill="#000000" font-family="sans-serif" font-size="11" lengthAdjust="spacing" textLength="113" x="275.5" y="470.4346">parseClientData():Client</text><rect fill="#F24D5C" height="6" style="stroke:#C82930;stroke-width:1.0;" width="6" x="263.5" y="476.8516"/><text fill="#000000" font-family="sans-serif" font-size="11" lengthAdjust="spacing" textLength="143" x="275.5" y="484.2705">parsePropertyData():Property</text><rect fill="#F24D5C" height="6" style="stroke:#C82930;stroke-width:1.0;" width="6" x="263.5" y="490.6875"/><text fill="#000000" font-family="sans-serif" font-size="11" lengthAdjust="spacing" textLength="207" x="275.5" y="498.1064">parseAnnouncementData():Announcement</text><rect fill="#F24D5C" height="6" style="stroke:#C82930;stroke-width:1.0;" width="6" x="263.5" y="504.5234"/><text fill="#000000" font-family="sans-serif" font-size="11" lengthAdjust="spacing" textLength="121" x="275.5" y="511.9424">parseLocation():Location</text><!--MD5=[873b83f106d88984ac03863d1710a7a1]
class FileOps--><rect codeLine="32" fill="#FEFECE" height="103.3438" id="FileOps" style="stroke:#A80036;stroke-width:1.5;" width="201" x="523.5" y="373.5"/><ellipse cx="598.25" cy="389.5" fill="#ADD1B2" rx="11" ry="11" style="stroke:#A80036;stroke-width:1.0;"/><path d="M600.25,386 Q600.4531,385.5 600.6875,385.25 Q600.9219,385 601.1875,385 Q601.6563,385 601.9531,385.2813 Q602.25,385.5625 602.25,386.2188 L602.25,387.7813 Q602.25,388.4375 601.9688,388.7188 Q601.6875,389 601.25,389 Q600.8594,389 600.6094,388.8281 Q600.3594,388.6563 600.25,388.2031 Q600.2031,387.8906 600.0313,387.7188 Q599.7188,387.3906 599.1563,387.2031 Q598.5938,387 598.0313,387 Q597.3281,387 596.7344,387.2813 Q596.1563,387.5625 595.7031,388.1875 Q595.25,388.8125 595.25,389.6719 L595.25,390.5938 Q595.25,391.625 596.0938,392.3125 Q596.9375,393 598.4375,393 Q599.3281,393 599.9531,392.7969 Q600.3125,392.6875 600.7188,392.3281 Q600.9844,392.125 601.125,392.0625 Q601.2656,392 601.4375,392 Q601.7656,392 602,392.2656 Q602.25,392.5156 602.25,392.875 Q602.25,393.2188 601.9063,393.625 Q601.4063,394.2188 600.6094,394.5469 Q599.5625,395 598.2813,395 Q596.7813,395 595.5781,394.4063 Q594.6094,393.9375 593.9219,392.9219 Q593.25,391.9063 593.25,390.7031 L593.25,389.6094 Q593.25,388.3594 593.8438,387.2656 Q594.4531,386.1719 595.5,385.5938 Q596.5625,385 597.75,385 Q598.4688,385 599.0938,385.25 Q599.7188,385.5 600.25,386 Z " fill="#000000"/><text fill="#000000" font-family="sans-serif" font-size="12" lengthAdjust="spacing" textLength="43" x="618.75" y="394.4102">FileOps</text><line style="stroke:#A80036;stroke-width:1.5;" x1="524.5" x2="723.5" y1="405.5" y2="405.5"/><line style="stroke:#A80036;stroke-width:1.5;" x1="524.5" x2="723.5" y1="413.5" y2="413.5"/><ellipse cx="534.5" cy="424.5" fill="#84BE84" rx="3" ry="3" style="stroke:#038048;stroke-width:1.0;"/><text fill="#000000" font-family="sans-serif" font-size="11" lengthAdjust="spacing" textLength="93" x="543.5" y="428.9189">readFile(String):File</text><ellipse cx="534.5" cy="438.3359" fill="#84BE84" rx="3" ry="3" style="stroke:#038048;stroke-width:1.0;"/><text fill="#000000" font-family="sans-serif" font-size="11" lengthAdjust="spacing" textLength="175" x="543.5" y="442.7549">appendToFile(String, String):boolean</text><ellipse cx="534.5" cy="452.1719" fill="#84BE84" rx="3" ry="3" style="stroke:#038048;stroke-width:1.0;"/><text fill="#000000" font-family="sans-serif" font-size="11" lengthAdjust="spacing" textLength="158" x="543.5" y="456.5908">createFile(String, String):boolean</text><ellipse cx="534.5" cy="466.0078" fill="#84BE84" rx="3" ry="3" style="stroke:#038048;stroke-width:1.0;"/><text fill="#000000" font-family="sans-serif" font-size="11" lengthAdjust="spacing" textLength="122" x="543.5" y="470.4268">deleteFile(String):boolean</text><!--MD5=[35ae6afabc28cfceb76ccc01ee55d1fe]
class Repositories--><rect codeLine="46" fill="#FEFECE" height="48" id="Repositories" style="stroke:#A80036;stroke-width:1.5;" width="103" x="144.5" y="594"/><ellipse cx="159.5" cy="610" fill="#ADD1B2" rx="11" ry="11" style="stroke:#A80036;stroke-width:1.0;"/><path d="M161.5,606.5 Q161.7031,606 161.9375,605.75 Q162.1719,605.5 162.4375,605.5 Q162.9063,605.5 163.2031,605.7813 Q163.5,606.0625 163.5,606.7188 L163.5,608.2813 Q163.5,608.9375 163.2188,609.2188 Q162.9375,609.5 162.5,609.5 Q162.1094,609.5 161.8594,609.3281 Q161.6094,609.1563 161.5,608.7031 Q161.4531,608.3906 161.2813,608.2188 Q160.9688,607.8906 160.4063,607.7031 Q159.8438,607.5 159.2813,607.5 Q158.5781,607.5 157.9844,607.7813 Q157.4063,608.0625 156.9531,608.6875 Q156.5,609.3125 156.5,610.1719 L156.5,611.0938 Q156.5,612.125 157.3438,612.8125 Q158.1875,613.5 159.6875,613.5 Q160.5781,613.5 161.2031,613.2969 Q161.5625,613.1875 161.9688,612.8281 Q162.2344,612.625 162.375,612.5625 Q162.5156,612.5 162.6875,612.5 Q163.0156,612.5 163.25,612.7656 Q163.5,613.0156 163.5,613.375 Q163.5,613.7188 163.1563,614.125 Q162.6563,614.7188 161.8594,615.0469 Q160.8125,615.5 159.5313,615.5 Q158.0313,615.5 156.8281,614.9063 Q155.8594,614.4375 155.1719,613.4219 Q154.5,612.4063 154.5,611.2031 L154.5,610.1094 Q154.5,608.8594 155.0938,607.7656 Q155.7031,606.6719 156.75,606.0938 Q157.8125,605.5 159,605.5 Q159.7188,605.5 160.3438,605.75 Q160.9688,606 161.5,606.5 Z " fill="#000000"/><text fill="#000000" font-family="sans-serif" font-size="12" lengthAdjust="spacing" textLength="71" x="173.5" y="614.9102">Repositories</text><line style="stroke:#A80036;stroke-width:1.5;" x1="145.5" x2="246.5" y1="626" y2="626"/><line style="stroke:#A80036;stroke-width:1.5;" x1="145.5" x2="246.5" y1="634" y2="634"/><!--MD5=[7421f545a0d8420c5bec41e74b387d9c]
class Employee--><rect codeLine="47" fill="#FEFECE" height="48" id="Employee" style="stroke:#A80036;stroke-width:1.5;" width="87" x="594.5" y="810"/><ellipse cx="609.5" cy="826" fill="#ADD1B2" rx="11" ry="11" style="stroke:#A80036;stroke-width:1.0;"/><path d="M611.5,822.5 Q611.7031,822 611.9375,821.75 Q612.1719,821.5 612.4375,821.5 Q612.9063,821.5 613.2031,821.7813 Q613.5,822.0625 613.5,822.7188 L613.5,824.2813 Q613.5,824.9375 613.2188,825.2188 Q612.9375,825.5 612.5,825.5 Q612.1094,825.5 611.8594,825.3281 Q611.6094,825.1563 611.5,824.7031 Q611.4531,824.3906 611.2813,824.2188 Q610.9688,823.8906 610.4063,823.7031 Q609.8438,823.5 609.2813,823.5 Q608.5781,823.5 607.9844,823.7813 Q607.4063,824.0625 606.9531,824.6875 Q606.5,825.3125 606.5,826.1719 L606.5,827.0938 Q606.5,828.125 607.3438,828.8125 Q608.1875,829.5 609.6875,829.5 Q610.5781,829.5 611.2031,829.2969 Q611.5625,829.1875 611.9688,828.8281 Q612.2344,828.625 612.375,828.5625 Q612.5156,828.5 612.6875,828.5 Q613.0156,828.5 613.25,828.7656 Q613.5,829.0156 613.5,829.375 Q613.5,829.7188 613.1563,830.125 Q612.6563,830.7188 611.8594,831.0469 Q610.8125,831.5 609.5313,831.5 Q608.0313,831.5 606.8281,830.9063 Q605.8594,830.4375 605.1719,829.4219 Q604.5,828.4063 604.5,827.2031 L604.5,826.1094 Q604.5,824.8594 605.0938,823.7656 Q605.7031,822.6719 606.75,822.0938 Q607.8125,821.5 609,821.5 Q609.7188,821.5 610.3438,821.75 Q610.9688,822 611.5,822.5 Z " fill="#000000"/><text fill="#000000" font-family="sans-serif" font-size="12" lengthAdjust="spacing" textLength="55" x="623.5" y="830.9102">Employee</text><line style="stroke:#A80036;stroke-width:1.5;" x1="595.5" x2="680.5" y1="842" y2="842"/><line style="stroke:#A80036;stroke-width:1.5;" x1="595.5" x2="680.5" y1="850" y2="850"/><!--MD5=[115c5bc9211d8cbe43c7d19dc50c6850]
class EmployeeRepository--><rect codeLine="48" fill="#FEFECE" height="48" id="EmployeeRepository" style="stroke:#A80036;stroke-width:1.5;" width="146" x="565" y="702"/><ellipse cx="580" cy="718" fill="#ADD1B2" rx="11" ry="11" style="stroke:#A80036;stroke-width:1.0;"/><path d="M582,714.5 Q582.2031,714 582.4375,713.75 Q582.6719,713.5 582.9375,713.5 Q583.4063,713.5 583.7031,713.7813 Q584,714.0625 584,714.7188 L584,716.2813 Q584,716.9375 583.7188,717.2188 Q583.4375,717.5 583,717.5 Q582.6094,717.5 582.3594,717.3281 Q582.1094,717.1563 582,716.7031 Q581.9531,716.3906 581.7813,716.2188 Q581.4688,715.8906 580.9063,715.7031 Q580.3438,715.5 579.7813,715.5 Q579.0781,715.5 578.4844,715.7813 Q577.9063,716.0625 577.4531,716.6875 Q577,717.3125 577,718.1719 L577,719.0938 Q577,720.125 577.8438,720.8125 Q578.6875,721.5 580.1875,721.5 Q581.0781,721.5 581.7031,721.2969 Q582.0625,721.1875 582.4688,720.8281 Q582.7344,720.625 582.875,720.5625 Q583.0156,720.5 583.1875,720.5 Q583.5156,720.5 583.75,720.7656 Q584,721.0156 584,721.375 Q584,721.7188 583.6563,722.125 Q583.1563,722.7188 582.3594,723.0469 Q581.3125,723.5 580.0313,723.5 Q578.5313,723.5 577.3281,722.9063 Q576.3594,722.4375 575.6719,721.4219 Q575,720.4063 575,719.2031 L575,718.1094 Q575,716.8594 575.5938,715.7656 Q576.2031,714.6719 577.25,714.0938 Q578.3125,713.5 579.5,713.5 Q580.2188,713.5 580.8438,713.75 Q581.4688,714 582,714.5 Z " fill="#000000"/><text fill="#000000" font-family="sans-serif" font-size="12" lengthAdjust="spacing" textLength="114" x="594" y="722.9102">EmployeeRepository</text><line style="stroke:#A80036;stroke-width:1.5;" x1="566" x2="710" y1="734" y2="734"/><line style="stroke:#A80036;stroke-width:1.5;" x1="566" x2="710" y1="742" y2="742"/><!--MD5=[6d7d587a021629470fd0d5f8ef3407c9]
class Branch--><rect codeLine="49" fill="#FEFECE" height="48" id="Branch" style="stroke:#A80036;stroke-width:1.5;" width="71" x="220.5" y="810"/><ellipse cx="235.5" cy="826" fill="#ADD1B2" rx="11" ry="11" style="stroke:#A80036;stroke-width:1.0;"/><path d="M237.5,822.5 Q237.7031,822 237.9375,821.75 Q238.1719,821.5 238.4375,821.5 Q238.9063,821.5 239.2031,821.7813 Q239.5,822.0625 239.5,822.7188 L239.5,824.2813 Q239.5,824.9375 239.2188,825.2188 Q238.9375,825.5 238.5,825.5 Q238.1094,825.5 237.8594,825.3281 Q237.6094,825.1563 237.5,824.7031 Q237.4531,824.3906 237.2813,824.2188 Q236.9688,823.8906 236.4063,823.7031 Q235.8438,823.5 235.2813,823.5 Q234.5781,823.5 233.9844,823.7813 Q233.4063,824.0625 232.9531,824.6875 Q232.5,825.3125 232.5,826.1719 L232.5,827.0938 Q232.5,828.125 233.3438,828.8125 Q234.1875,829.5 235.6875,829.5 Q236.5781,829.5 237.2031,829.2969 Q237.5625,829.1875 237.9688,828.8281 Q238.2344,828.625 238.375,828.5625 Q238.5156,828.5 238.6875,828.5 Q239.0156,828.5 239.25,828.7656 Q239.5,829.0156 239.5,829.375 Q239.5,829.7188 239.1563,830.125 Q238.6563,830.7188 237.8594,831.0469 Q236.8125,831.5 235.5313,831.5 Q234.0313,831.5 232.8281,830.9063 Q231.8594,830.4375 231.1719,829.4219 Q230.5,828.4063 230.5,827.2031 L230.5,826.1094 Q230.5,824.8594 231.0938,823.7656 Q231.7031,822.6719 232.75,822.0938 Q233.8125,821.5 235,821.5 Q235.7188,821.5 236.3438,821.75 Q236.9688,822 237.5,822.5 Z " fill="#000000"/><text fill="#000000" font-family="sans-serif" font-size="12" lengthAdjust="spacing" textLength="39" x="249.5" y="830.9102">Branch</text><line style="stroke:#A80036;stroke-width:1.5;" x1="221.5" x2="290.5" y1="842" y2="842"/><line style="stroke:#A80036;stroke-width:1.5;" x1="221.5" x2="290.5" y1="850" y2="850"/><!--MD5=[d7cd06450716df339ae06bc8cd34d632]
class BranchRepository--><rect codeLine="50" fill="#FEFECE" height="48" id="BranchRepository" style="stroke:#A80036;stroke-width:1.5;" width="130" x="191" y="702"/><ellipse cx="206" cy="718" fill="#ADD1B2" rx="11" ry="11" style="stroke:#A80036;stroke-width:1.0;"/><path d="M208,714.5 Q208.2031,714 208.4375,713.75 Q208.6719,713.5 208.9375,713.5 Q209.4063,713.5 209.7031,713.7813 Q210,714.0625 210,714.7188 L210,716.2813 Q210,716.9375 209.7188,717.2188 Q209.4375,717.5 209,717.5 Q208.6094,717.5 208.3594,717.3281 Q208.1094,717.1563 208,716.7031 Q207.9531,716.3906 207.7813,716.2188 Q207.4688,715.8906 206.9063,715.7031 Q206.3438,715.5 205.7813,715.5 Q205.0781,715.5 204.4844,715.7813 Q203.9063,716.0625 203.4531,716.6875 Q203,717.3125 203,718.1719 L203,719.0938 Q203,720.125 203.8438,720.8125 Q204.6875,721.5 206.1875,721.5 Q207.0781,721.5 207.7031,721.2969 Q208.0625,721.1875 208.4688,720.8281 Q208.7344,720.625 208.875,720.5625 Q209.0156,720.5 209.1875,720.5 Q209.5156,720.5 209.75,720.7656 Q210,721.0156 210,721.375 Q210,721.7188 209.6563,722.125 Q209.1563,722.7188 208.3594,723.0469 Q207.3125,723.5 206.0313,723.5 Q204.5313,723.5 203.3281,722.9063 Q202.3594,722.4375 201.6719,721.4219 Q201,720.4063 201,719.2031 L201,718.1094 Q201,716.8594 201.5938,715.7656 Q202.2031,714.6719 203.25,714.0938 Q204.3125,713.5 205.5,713.5 Q206.2188,713.5 206.8438,713.75 Q207.4688,714 208,714.5 Z " fill="#000000"/><text fill="#000000" font-family="sans-serif" font-size="12" lengthAdjust="spacing" textLength="98" x="220" y="722.9102">BranchRepository</text><line style="stroke:#A80036;stroke-width:1.5;" x1="192" x2="320" y1="734" y2="734"/><line style="stroke:#A80036;stroke-width:1.5;" x1="192" x2="320" y1="742" y2="742"/><!--MD5=[04df7bfd972d2d3ea0273e95b66a80a5]
class Announcement--><rect codeLine="51" fill="#FEFECE" height="48" id="Announcement" style="stroke:#A80036;stroke-width:1.5;" width="115" x="385.5" y="810"/><ellipse cx="400.5" cy="826" fill="#ADD1B2" rx="11" ry="11" style="stroke:#A80036;stroke-width:1.0;"/><path d="M402.5,822.5 Q402.7031,822 402.9375,821.75 Q403.1719,821.5 403.4375,821.5 Q403.9063,821.5 404.2031,821.7813 Q404.5,822.0625 404.5,822.7188 L404.5,824.2813 Q404.5,824.9375 404.2188,825.2188 Q403.9375,825.5 403.5,825.5 Q403.1094,825.5 402.8594,825.3281 Q402.6094,825.1563 402.5,824.7031 Q402.4531,824.3906 402.2813,824.2188 Q401.9688,823.8906 401.4063,823.7031 Q400.8438,823.5 400.2813,823.5 Q399.5781,823.5 398.9844,823.7813 Q398.4063,824.0625 397.9531,824.6875 Q397.5,825.3125 397.5,826.1719 L397.5,827.0938 Q397.5,828.125 398.3438,828.8125 Q399.1875,829.5 400.6875,829.5 Q401.5781,829.5 402.2031,829.2969 Q402.5625,829.1875 402.9688,828.8281 Q403.2344,828.625 403.375,828.5625 Q403.5156,828.5 403.6875,828.5 Q404.0156,828.5 404.25,828.7656 Q404.5,829.0156 404.5,829.375 Q404.5,829.7188 404.1563,830.125 Q403.6563,830.7188 402.8594,831.0469 Q401.8125,831.5 400.5313,831.5 Q399.0313,831.5 397.8281,830.9063 Q396.8594,830.4375 396.1719,829.4219 Q395.5,828.4063 395.5,827.2031 L395.5,826.1094 Q395.5,824.8594 396.0938,823.7656 Q396.7031,822.6719 397.75,822.0938 Q398.8125,821.5 400,821.5 Q400.7188,821.5 401.3438,821.75 Q401.9688,822 402.5,822.5 Z " fill="#000000"/><text fill="#000000" font-family="sans-serif" font-size="12" lengthAdjust="spacing" textLength="83" x="414.5" y="830.9102">Announcement</text><line style="stroke:#A80036;stroke-width:1.5;" x1="386.5" x2="499.5" y1="842" y2="842"/><line style="stroke:#A80036;stroke-width:1.5;" x1="386.5" x2="499.5" y1="850" y2="850"/><!--MD5=[3071c2206639f8262a34cfb866249164]
class AnnouncementRepository--><rect codeLine="52" fill="#FEFECE" height="48" id="AnnouncementRepository" style="stroke:#A80036;stroke-width:1.5;" width="174" x="356" y="702"/><ellipse cx="371" cy="718" fill="#ADD1B2" rx="11" ry="11" style="stroke:#A80036;stroke-width:1.0;"/><path d="M373,714.5 Q373.2031,714 373.4375,713.75 Q373.6719,713.5 373.9375,713.5 Q374.4063,713.5 374.7031,713.7813 Q375,714.0625 375,714.7188 L375,716.2813 Q375,716.9375 374.7188,717.2188 Q374.4375,717.5 374,717.5 Q373.6094,717.5 373.3594,717.3281 Q373.1094,717.1563 373,716.7031 Q372.9531,716.3906 372.7813,716.2188 Q372.4688,715.8906 371.9063,715.7031 Q371.3438,715.5 370.7813,715.5 Q370.0781,715.5 369.4844,715.7813 Q368.9063,716.0625 368.4531,716.6875 Q368,717.3125 368,718.1719 L368,719.0938 Q368,720.125 368.8438,720.8125 Q369.6875,721.5 371.1875,721.5 Q372.0781,721.5 372.7031,721.2969 Q373.0625,721.1875 373.4688,720.8281 Q373.7344,720.625 373.875,720.5625 Q374.0156,720.5 374.1875,720.5 Q374.5156,720.5 374.75,720.7656 Q375,721.0156 375,721.375 Q375,721.7188 374.6563,722.125 Q374.1563,722.7188 373.3594,723.0469 Q372.3125,723.5 371.0313,723.5 Q369.5313,723.5 368.3281,722.9063 Q367.3594,722.4375 366.6719,721.4219 Q366,720.4063 366,719.2031 L366,718.1094 Q366,716.8594 366.5938,715.7656 Q367.2031,714.6719 368.25,714.0938 Q369.3125,713.5 370.5,713.5 Q371.2188,713.5 371.8438,713.75 Q372.4688,714 373,714.5 Z " fill="#000000"/><text fill="#000000" font-family="sans-serif" font-size="12" lengthAdjust="spacing" textLength="142" x="385" y="722.9102">AnnouncementRepository</text><line style="stroke:#A80036;stroke-width:1.5;" x1="357" x2="529" y1="734" y2="734"/><line style="stroke:#A80036;stroke-width:1.5;" x1="357" x2="529" y1="742" y2="742"/><!--MD5=[ed6624c6556d5e7b1bd23032162d20b7]
class Client--><rect codeLine="53" fill="#FEFECE" height="48" id="Client" style="stroke:#A80036;stroke-width:1.5;" width="64" x="62" y="810"/><ellipse cx="77" cy="826" fill="#ADD1B2" rx="11" ry="11" style="stroke:#A80036;stroke-width:1.0;"/><path d="M79,822.5 Q79.2031,822 79.4375,821.75 Q79.6719,821.5 79.9375,821.5 Q80.4063,821.5 80.7031,821.7813 Q81,822.0625 81,822.7188 L81,824.2813 Q81,824.9375 80.7188,825.2188 Q80.4375,825.5 80,825.5 Q79.6094,825.5 79.3594,825.3281 Q79.1094,825.1563 79,824.7031 Q78.9531,824.3906 78.7813,824.2188 Q78.4688,823.8906 77.9063,823.7031 Q77.3438,823.5 76.7813,823.5 Q76.0781,823.5 75.4844,823.7813 Q74.9063,824.0625 74.4531,824.6875 Q74,825.3125 74,826.1719 L74,827.0938 Q74,828.125 74.8438,828.8125 Q75.6875,829.5 77.1875,829.5 Q78.0781,829.5 78.7031,829.2969 Q79.0625,829.1875 79.4688,828.8281 Q79.7344,828.625 79.875,828.5625 Q80.0156,828.5 80.1875,828.5 Q80.5156,828.5 80.75,828.7656 Q81,829.0156 81,829.375 Q81,829.7188 80.6563,830.125 Q80.1563,830.7188 79.3594,831.0469 Q78.3125,831.5 77.0313,831.5 Q75.5313,831.5 74.3281,830.9063 Q73.3594,830.4375 72.6719,829.4219 Q72,828.4063 72,827.2031 L72,826.1094 Q72,824.8594 72.5938,823.7656 Q73.2031,822.6719 74.25,822.0938 Q75.3125,821.5 76.5,821.5 Q77.2188,821.5 77.8438,821.75 Q78.4688,822 79,822.5 Z " fill="#000000"/><text fill="#000000" font-family="sans-serif" font-size="12" lengthAdjust="spacing" textLength="32" x="91" y="830.9102">Client</text><line style="stroke:#A80036;stroke-width:1.5;" x1="63" x2="125" y1="842" y2="842"/><line style="stroke:#A80036;stroke-width:1.5;" x1="63" x2="125" y1="850" y2="850"/><!--MD5=[50517cd8d76fa284d183a993d38d0bc5]
class ClientRepository--><rect codeLine="54" fill="#FEFECE" height="48" id="ClientRepository" style="stroke:#A80036;stroke-width:1.5;" width="123" x="32.5" y="702"/><ellipse cx="47.5" cy="718" fill="#ADD1B2" rx="11" ry="11" style="stroke:#A80036;stroke-width:1.0;"/><path d="M49.5,714.5 Q49.7031,714 49.9375,713.75 Q50.1719,713.5 50.4375,713.5 Q50.9063,713.5 51.2031,713.7813 Q51.5,714.0625 51.5,714.7188 L51.5,716.2813 Q51.5,716.9375 51.2188,717.2188 Q50.9375,717.5 50.5,717.5 Q50.1094,717.5 49.8594,717.3281 Q49.6094,717.1563 49.5,716.7031 Q49.4531,716.3906 49.2813,716.2188 Q48.9688,715.8906 48.4063,715.7031 Q47.8438,715.5 47.2813,715.5 Q46.5781,715.5 45.9844,715.7813 Q45.4063,716.0625 44.9531,716.6875 Q44.5,717.3125 44.5,718.1719 L44.5,719.0938 Q44.5,720.125 45.3438,720.8125 Q46.1875,721.5 47.6875,721.5 Q48.5781,721.5 49.2031,721.2969 Q49.5625,721.1875 49.9688,720.8281 Q50.2344,720.625 50.375,720.5625 Q50.5156,720.5 50.6875,720.5 Q51.0156,720.5 51.25,720.7656 Q51.5,721.0156 51.5,721.375 Q51.5,721.7188 51.1563,722.125 Q50.6563,722.7188 49.8594,723.0469 Q48.8125,723.5 47.5313,723.5 Q46.0313,723.5 44.8281,722.9063 Q43.8594,722.4375 43.1719,721.4219 Q42.5,720.4063 42.5,719.2031 L42.5,718.1094 Q42.5,716.8594 43.0938,715.7656 Q43.7031,714.6719 44.75,714.0938 Q45.8125,713.5 47,713.5 Q47.7188,713.5 48.3438,713.75 Q48.9688,714 49.5,714.5 Z " fill="#000000"/><text fill="#000000" font-family="sans-serif" font-size="12" lengthAdjust="spacing" textLength="91" x="61.5" y="722.9102">ClientRepository</text><line style="stroke:#A80036;stroke-width:1.5;" x1="33.5" x2="154.5" y1="734" y2="734"/><line style="stroke:#A80036;stroke-width:1.5;" x1="33.5" x2="154.5" y1="742" y2="742"/><!--MD5=[6b626634f3bb0842bebd5e499c80b711]
class Property--><rect codeLine="55" fill="#FEFECE" height="48" id="Property" style="stroke:#A80036;stroke-width:1.5;" width="77" x="404.5" y="918"/><ellipse cx="419.5" cy="934" fill="#ADD1B2" rx="11" ry="11" style="stroke:#A80036;stroke-width:1.0;"/><path d="M421.5,930.5 Q421.7031,930 421.9375,929.75 Q422.1719,929.5 422.4375,929.5 Q422.9063,929.5 423.2031,929.7813 Q423.5,930.0625 423.5,930.7188 L423.5,932.2813 Q423.5,932.9375 423.2188,933.2188 Q422.9375,933.5 422.5,933.5 Q422.1094,933.5 421.8594,933.3281 Q421.6094,933.1563 421.5,932.7031 Q421.4531,932.3906 421.2813,932.2188 Q420.9688,931.8906 420.4063,931.7031 Q419.8438,931.5 419.2813,931.5 Q418.5781,931.5 417.9844,931.7813 Q417.4063,932.0625 416.9531,932.6875 Q416.5,933.3125 416.5,934.1719 L416.5,935.0938 Q416.5,936.125 417.3438,936.8125 Q418.1875,937.5 419.6875,937.5 Q420.5781,937.5 421.2031,937.2969 Q421.5625,937.1875 421.9688,936.8281 Q422.2344,936.625 422.375,936.5625 Q422.5156,936.5 422.6875,936.5 Q423.0156,936.5 423.25,936.7656 Q423.5,937.0156 423.5,937.375 Q423.5,937.7188 423.1563,938.125 Q422.6563,938.7188 421.8594,939.0469 Q420.8125,939.5 419.5313,939.5 Q418.0313,939.5 416.8281,938.9063 Q415.8594,938.4375 415.1719,937.4219 Q414.5,936.4063 414.5,935.2031 L414.5,934.1094 Q414.5,932.8594 415.0938,931.7656 Q415.7031,930.6719 416.75,930.0938 Q417.8125,929.5 419,929.5 Q419.7188,929.5 420.3438,929.75 Q420.9688,930 421.5,930.5 Z " fill="#000000"/><text fill="#000000" font-family="sans-serif" font-size="12" lengthAdjust="spacing" textLength="45" x="433.5" y="938.9102">Property</text><line style="stroke:#A80036;stroke-width:1.5;" x1="405.5" x2="480.5" y1="950" y2="950"/><line style="stroke:#A80036;stroke-width:1.5;" x1="405.5" x2="480.5" y1="958" y2="958"/><!--MD5=[ae25580528feffbaf5e526b1fa6da6f6]
link CsvHandler to FileOps--><path codeLine="40" d="M488.65,425 C498.48,425 508.31,425 518.14,425 " fill="none" id="CsvHandler-to-FileOps" style="stroke:#A80036;stroke-width:1.0;stroke-dasharray:7.0,7.0;"/><polygon fill="#A80036" points="523.28,425,514.28,421,518.28,425,514.28,429,523.28,425" style="stroke:#A80036;stroke-width:1.0;"/><!--MD5=[cd56177723ebcad0f71c7b2fc2776280]
link LegacyImportUI to LegacyImportController--><path codeLine="60" d="M508,118.2 C508,139.96 508,167.27 508,188.69 " fill="none" id="LegacyImportUI-to-LegacyImportController" style="stroke:#A80036;stroke-width:1.0;stroke-dasharray:7.0,7.0;"/><polygon fill="#A80036" points="508,193.73,512,184.73,508,188.73,504,184.73,508,193.73" style="stroke:#A80036;stroke-width:1.0;"/><!--MD5=[19adab4ca56fbdd3f48b84ecf0c01c26]
link LegacyImportController to EmployeeRepository--><path codeLine="61" d="M588.25,236.83 C647.95,246.73 722.22,263.57 741,288 C839.51,416.15 710.84,623.43 658.4,697.56 " fill="none" id="LegacyImportController-to-EmployeeRepository" style="stroke:#A80036;stroke-width:1.0;stroke-dasharray:7.0,7.0;"/><polygon fill="#A80036" points="655.36,701.83,663.8394,696.8201,658.2608,697.7575,657.3234,692.1788,655.36,701.83" style="stroke:#A80036;stroke-width:1.0;"/><!--MD5=[a333822297134b8caf7819ffe6ba9d35]
link LegacyImportController to CsvHandler--><path codeLine="62" d="M487.34,256.07 C474.08,275.38 456.06,301.63 438.19,327.63 " fill="none" id="LegacyImportController-to-CsvHandler" style="stroke:#A80036;stroke-width:1.0;stroke-dasharray:7.0,7.0;"/><polygon fill="#A80036" points="435.33,331.8,443.7249,326.6497,438.1626,327.6798,437.1326,322.1175,435.33,331.8" style="stroke:#A80036;stroke-width:1.0;"/><!--MD5=[58791c83426f18e99bb31e7f2bbbae11]
link CsvHandler to EmployeeRepository--><path codeLine="64" d="M453.98,518.15 C509.14,580.15 578.1,657.67 613.9,697.92 " fill="none" id="CsvHandler-to-EmployeeRepository" style="stroke:#A80036;stroke-width:1.0;stroke-dasharray:7.0,7.0;"/><polygon fill="#A80036" points="617.27,701.69,614.2781,692.3066,613.9473,697.9537,608.3001,697.6229,617.27,701.69" style="stroke:#A80036;stroke-width:1.0;"/><!--MD5=[8bca53085acfb085f48acc4c864aa3f3]
link CsvHandler to AnnouncementRepository--><path codeLine="65" d="M393.88,518.15 C408.43,579.4 426.57,655.79 436.22,696.44 " fill="none" id="CsvHandler-to-AnnouncementRepository" style="stroke:#A80036;stroke-width:1.0;stroke-dasharray:7.0,7.0;"/><polygon fill="#A80036" points="437.47,701.69,439.2754,692.008,436.3113,696.8261,431.4932,693.862,437.47,701.69" style="stroke:#A80036;stroke-width:1.0;"/><!--MD5=[2f7beec9913b8306986bf5853bb3f122]
link CsvHandler to BranchRepository--><path codeLine="66" d="M363.17,518.12 C356.79,557.75 345.83,603.66 327,642 C316.67,663.03 299.78,683.09 285.06,698.22 " fill="none" id="CsvHandler-to-BranchRepository" style="stroke:#A80036;stroke-width:1.0;stroke-dasharray:7.0,7.0;"/><polygon fill="#A80036" points="281.37,701.96,290.5408,698.3688,284.884,698.4031,284.8498,692.7464,281.37,701.96" style="stroke:#A80036;stroke-width:1.0;"/><!--MD5=[83ff50de510f8d7f7d7d5e3cef46c1fc]
link CsvHandler to ClientRepository--><path codeLine="67" d="M333.53,518.12 C311.39,567.87 284.24,622.92 265,642 C236.08,670.69 195.3,691 160.81,704.36 " fill="none" id="CsvHandler-to-ClientRepository" style="stroke:#A80036;stroke-width:1.0;stroke-dasharray:7.0,7.0;"/><polygon fill="#A80036" points="155.77,706.28,165.605,706.8027,160.4404,704.4947,162.7485,699.3301,155.77,706.28" style="stroke:#A80036;stroke-width:1.0;"/><!--MD5=[5f2e17a5d0db6fb1b0b673222dcfe1e7]
reverse link Repositories to EmployeeRepository--><path codeLine="70" d="M260.74,633.89 C331.43,650.22 447.9,677.41 548,702 C553.48,703.35 559.15,704.75 564.84,706.18 " fill="none" id="Repositories-backto-EmployeeRepository" style="stroke:#A80036;stroke-width:1.0;"/><polygon fill="#A80036" points="247.67,630.87,252.6139,636.1196,259.3611,633.5751,254.4173,628.3255,247.67,630.87" style="stroke:#A80036;stroke-width:1.0;"/><text fill="#000000" font-family="sans-serif" font-size="13" lengthAdjust="spacing" textLength="7" x="255.4283" y="629.0747">1</text><text fill="#000000" font-family="sans-serif" font-size="13" lengthAdjust="spacing" textLength="7" x="549.9344" y="700.8243">1</text><!--MD5=[3a6a361162f1d97b73df23bd2daca4f7]
reverse link Repositories to ClientRepository--><path codeLine="71" d="M164.61,651.63 C149.03,667.81 130.58,686.99 116.44,701.68 " fill="none" id="Repositories-backto-ClientRepository" style="stroke:#A80036;stroke-width:1.0;"/><polygon fill="#A80036" points="173.87,642,166.8277,643.5513,165.5511,650.6485,172.5934,649.0972,173.87,642" style="stroke:#A80036;stroke-width:1.0;"/><text fill="#000000" font-family="sans-serif" font-size="13" lengthAdjust="spacing" textLength="7" x="160.6227" y="663.338">1</text><text fill="#000000" font-family="sans-serif" font-size="13" lengthAdjust="spacing" textLength="7" x="114.0566" y="691.34">1</text><!--MD5=[90221d604596e28426cbb79523759889]
reverse link Repositories to AnnouncementRepository--><path codeLine="72" d="M259.84,646.4 C299.95,663.61 351.11,685.56 389.15,701.89 " fill="none" id="Repositories-backto-AnnouncementRepository" style="stroke:#A80036;stroke-width:1.0;"/><polygon fill="#A80036" points="247.78,641.22,251.7148,647.2629,258.8063,645.955,254.8715,639.9121,247.78,641.22" style="stroke:#A80036;stroke-width:1.0;"/><text fill="#000000" font-family="sans-serif" font-size="13" lengthAdjust="spacing" textLength="7" x="254.3588" y="663.5452">1</text><text fill="#000000" font-family="sans-serif" font-size="13" lengthAdjust="spacing" textLength="7" x="367.4541" y="691.202">1</text><!--MD5=[568e345dc63c16ed8fc1b667572b7456]
reverse link Repositories to BranchRepository--><path codeLine="73" d="M215.51,653.47 C224.45,669.25 234.8,687.54 242.8,701.68 " fill="none" id="Repositories-backto-BranchRepository" style="stroke:#A80036;stroke-width:1.0;"/><polygon fill="#A80036" points="209.02,642,208.4994,649.1923,214.9381,652.4391,215.4588,645.2469,209.02,642" style="stroke:#A80036;stroke-width:1.0;"/><text fill="#000000" font-family="sans-serif" font-size="13" lengthAdjust="spacing" textLength="7" x="204.3405" y="663.338">1</text><text fill="#000000" font-family="sans-serif" font-size="13" lengthAdjust="spacing" textLength="7" x="231.7294" y="691.34">1</text><!--MD5=[2f1a0a43cd2cf5ad7a0e34d604e5d5b7]
reverse link EmployeeRepository to Employee--><path codeLine="75" d="M638,763.34 C638,778.68 638,796.1 638,809.68 " fill="none" id="EmployeeRepository-backto-Employee" style="stroke:#A80036;stroke-width:1.0;"/><polygon fill="none" points="638,750,634,756,638,762,642,756,638,750" style="stroke:#A80036;stroke-width:1.0;"/><text fill="#000000" font-family="sans-serif" font-size="13" lengthAdjust="spacing" textLength="7" x="630.1469" y="771.338">1</text><text fill="#000000" font-family="sans-serif" font-size="13" lengthAdjust="spacing" textLength="5" x="632.3906" y="799.34">*</text><!--MD5=[839ba4616ecfe1e5a6b0613516082f47]
reverse link ClientRepository to Client--><path codeLine="76" d="M94,763.34 C94,778.68 94,796.1 94,809.68 " fill="none" id="ClientRepository-backto-Client" style="stroke:#A80036;stroke-width:1.0;"/><polygon fill="none" points="94,750,90,756,94,762,98,756,94,750" style="stroke:#A80036;stroke-width:1.0;"/><text fill="#000000" font-family="sans-serif" font-size="13" lengthAdjust="spacing" textLength="7" x="86.1469" y="771.338">1</text><text fill="#000000" font-family="sans-serif" font-size="13" lengthAdjust="spacing" textLength="5" x="88.3906" y="799.34">*</text><!--MD5=[8db803857d7b3ee0253d3e1ae3db60a7]
reverse link AnnouncementRepository to Announcement--><path codeLine="77" d="M443,763.34 C443,778.68 443,796.1 443,809.68 " fill="none" id="AnnouncementRepository-backto-Announcement" style="stroke:#A80036;stroke-width:1.0;"/><polygon fill="none" points="443,750,439,756,443,762,447,756,443,750" style="stroke:#A80036;stroke-width:1.0;"/><text fill="#000000" font-family="sans-serif" font-size="13" lengthAdjust="spacing" textLength="7" x="435.1469" y="771.338">1</text><text fill="#000000" font-family="sans-serif" font-size="13" lengthAdjust="spacing" textLength="5" x="437.3906" y="799.34">*</text><!--MD5=[bc92ccce8c1d2c5e0e1f8cf3e600db2f]
reverse link BranchRepository to Branch--><path codeLine="78" d="M256,763.34 C256,778.68 256,796.1 256,809.68 " fill="none" id="BranchRepository-backto-Branch" style="stroke:#A80036;stroke-width:1.0;"/><polygon fill="none" points="256,750,252,756,256,762,260,756,256,750" style="stroke:#A80036;stroke-width:1.0;"/><text fill="#000000" font-family="sans-serif" font-size="13" lengthAdjust="spacing" textLength="7" x="248.1469" y="771.338">1</text><text fill="#000000" font-family="sans-serif" font-size="13" lengthAdjust="spacing" textLength="5" x="250.3906" y="799.34">*</text><!--MD5=[6d83b6cc5d5480d994ead069473cf044]
reverse link Announcement to Property--><path codeLine="80" d="M443,871.34 C443,886.68 443,904.1 443,917.68 " fill="none" id="Announcement-backto-Property" style="stroke:#A80036;stroke-width:1.0;"/><polygon fill="#A80036" points="443,858,439,864,443,870,447,864,443,858" style="stroke:#A80036;stroke-width:1.0;"/><text fill="#000000" font-family="sans-serif" font-size="13" lengthAdjust="spacing" textLength="7" x="435.1469" y="879.338">1</text><text fill="#000000" font-family="sans-serif" font-size="13" lengthAdjust="spacing" textLength="7" x="435.1469" y="907.34">1</text><!--MD5=[e07aea321cd5df05c2f0f425e6a637a6]
@startuml
'https://plantuml.com/class-diagram
skinparam shadowing false
allowmixing

package UI {
    class LegacyImportUI{
        +run()
        -getFilePath()
    }
}

package Controller {
    class LegacyImportController{
        +importFile()
    }
}

package Utils{
    class CsvHandler{
        +readCsv(File):List<>
        +csvIsEmpty(List<>):boolean
        +getDataFromCSVFile(File):List<>
        +parseCSV()
        -extensionIsCsv():boolean
        -parseBranchData():Branch
        -parseClientData():Client
        -parsePropertyData():Property
        -parseAnnouncementData():Announcement
        -parseLocation():Location
    }

    class FileOps{
    +readFile(String):File
    +appendToFile(String, String):boolean
    +createFile(String, String):boolean
    +deleteFile(String):boolean

    }

    CsvHandler .> FileOps
}



package Domain{
    class Repositories
    class Employee
    class EmployeeRepository
    class Branch
    class BranchRepository
    class Announcement
    class AnnouncementRepository
    class Client
    class ClientRepository
    class Property

}


LegacyImportUI -[dashed]-> LegacyImportController
LegacyImportController -[dashed]-> EmployeeRepository
LegacyImportController -[dashed]-> CsvHandler

CsvHandler - -[dashed]-> EmployeeRepository
CsvHandler - -[dashed]-> AnnouncementRepository
CsvHandler - -[dashed]-> BranchRepository
CsvHandler - -[dashed]-> ClientRepository


Repositories "1" *- - "1" EmployeeRepository
Repositories "1" *- - "1" ClientRepository
Repositories "1" *- - "1" AnnouncementRepository
Repositories "1" *- - "1" BranchRepository

EmployeeRepository "1" o- - "*" Employee
ClientRepository "1" o- - "*" Client
AnnouncementRepository "1" o- - "*" Announcement
BranchRepository "1" o- - "*" Branch

Announcement "1" *- - "1" Property



@enduml

@startuml
skinparam shadowing false
allowmixing

package UI {
    class LegacyImportUI{
        +run()
        -getFilePath()
    }
}

package Controller {
    class LegacyImportController{
        +importFile()
    }
}

package Utils{
    class CsvHandler{
        +readCsv(File):List<>
        +csvIsEmpty(List<>):boolean
        +getDataFromCSVFile(File):List<>
        +parseCSV()
        -extensionIsCsv():boolean
        -parseBranchData():Branch
        -parseClientData():Client
        -parsePropertyData():Property
        -parseAnnouncementData():Announcement
        -parseLocation():Location
    }

    class FileOps{
    +readFile(String):File
    +appendToFile(String, String):boolean
    +createFile(String, String):boolean
    +deleteFile(String):boolean

    }

    CsvHandler .> FileOps
}



package Domain{
    class Repositories
    class Employee
    class EmployeeRepository
    class Branch
    class BranchRepository
    class Announcement
    class AnnouncementRepository
    class Client
    class ClientRepository
    class Property

}


LegacyImportUI -[dashed]-> LegacyImportController
LegacyImportController -[dashed]-> EmployeeRepository
LegacyImportController -[dashed]-> CsvHandler

CsvHandler - -[dashed]-> EmployeeRepository
CsvHandler - -[dashed]-> AnnouncementRepository
CsvHandler - -[dashed]-> BranchRepository
CsvHandler - -[dashed]-> ClientRepository


Repositories "1" *- - "1" EmployeeRepository
Repositories "1" *- - "1" ClientRepository
Repositories "1" *- - "1" AnnouncementRepository
Repositories "1" *- - "1" BranchRepository

EmployeeRepository "1" o- - "*" Employee
ClientRepository "1" o- - "*" Client
AnnouncementRepository "1" o- - "*" Announcement
BranchRepository "1" o- - "*" Branch

Announcement "1" *- - "1" Property



@enduml

PlantUML version 1.2022.1(Tue Feb 01 18:19:58 GMT 2022)
(GPL source distribution)
Java Runtime: OpenJDK Runtime Environment
JVM: OpenJDK 64-Bit Server VM
Default Encoding: Cp1252
Language: en
Country: US
--></g></svg>