<?xml version="1.0" encoding="UTF-8" standalone="no"?><svg xmlns="http://www.w3.org/2000/svg" xmlns:xlink="http://www.w3.org/1999/xlink" contentScriptType="application/ecmascript" contentStyleType="text/css" height="975px" preserveAspectRatio="none" style="width:834px;height:975px;background:#FFFFFF;" version="1.1" viewBox="0 0 834 975" width="834.6px" zoomAndPan="magnify"><defs/><g><rect fill="#FFFFFF" height="856.7484" style="stroke:#383838;stroke-width:0.6;" width="6" x="36" y="57.3656"/><rect fill="#FFFFFF" height="146.0531" style="stroke:#383838;stroke-width:0.6;" width="6" x="160.2" y="70.7766"/><rect fill="#FFFFFF" height="445.3641" style="stroke:#383838;stroke-width:0.6;" width="6" x="160.2" y="235.0406"/><rect fill="#FFFFFF" height="215.4984" style="stroke:#383838;stroke-width:0.6;" width="6" x="160.2" y="698.6156"/><rect fill="#FFFFFF" height="74.1984" style="stroke:#383838;stroke-width:0.6;" width="6" x="254.4" y="94.9875"/><rect fill="#FFFFFF" height="399.1312" style="stroke:#383838;stroke-width:0.6;" width="6" x="254.4" y="253.2516"/><rect fill="#FFFFFF" height="179.0766" style="stroke:#383838;stroke-width:0.6;" width="6" x="254.4" y="716.8266"/><rect fill="#FFFFFF" height="18.2109" style="stroke:#383838;stroke-width:0.6;" width="6" x="428.4" y="114.5531"/><rect fill="#FFFFFF" height="18.2109" style="stroke:#383838;stroke-width:0.6;" width="6" x="428.4" y="150.975"/><rect fill="#FFFFFF" height="18.2109" style="stroke:#383838;stroke-width:0.6;" width="6" x="516.3" y="859.4812"/><rect fill="#FFFFFF" height="362.7094" style="stroke:#383838;stroke-width:0.6;" width="6" x="611.7" y="271.4625"/><rect fill="#FFFFFF" height="106.2328" style="stroke:#383838;stroke-width:0.6;" width="6" x="611.7" y="735.0375"/><rect fill="#FFFFFF" height="16.8" style="stroke:#383838;stroke-width:0.6;" width="6" x="614.7" y="758.0484"/><rect fill="#FFFFFF" height="16.8" style="stroke:#383838;stroke-width:0.6;" width="6" x="614.7" y="802.0594"/><rect fill="#FFFFFF" height="326.2875" style="stroke:#383838;stroke-width:0.6;" width="6" x="716.1" y="289.6734"/><rect fill="#FFFFFF" height="16.8" style="stroke:#383838;stroke-width:0.6;" width="6" x="719.1" y="312.6844"/><rect fill="#FFFFFF" height="16.8" style="stroke:#383838;stroke-width:0.6;" width="6" x="719.1" y="356.6953"/><rect fill="#FFFFFF" height="16.8" style="stroke:#383838;stroke-width:0.6;" width="6" x="719.1" y="400.7063"/><rect fill="#FFFFFF" height="16.8" style="stroke:#383838;stroke-width:0.6;" width="6" x="719.1" y="444.7172"/><rect fill="#FFFFFF" height="16.8" style="stroke:#383838;stroke-width:0.6;" width="6" x="719.1" y="488.7281"/><rect fill="#FFFFFF" height="16.8" style="stroke:#383838;stroke-width:0.6;" width="6" x="719.1" y="532.7391"/><rect fill="#FFFFFF" height="16.8" style="stroke:#383838;stroke-width:0.6;" width="6" x="719.1" y="576.75"/><line style="stroke:#383838;stroke-width:0.6;stroke-dasharray:5.0,5.0;" x1="39" x2="39" y1="51.3656" y2="924.9141"/><line style="stroke:#383838;stroke-width:0.6;stroke-dasharray:5.0,5.0;" x1="163.2" x2="163.2" y1="51.3656" y2="924.9141"/><line style="stroke:#383838;stroke-width:0.6;stroke-dasharray:5.0,5.0;" x1="257.4" x2="257.4" y1="94.3594" y2="924.9141"/><line style="stroke:#383838;stroke-width:0.6;stroke-dasharray:5.0,5.0;" x1="431.1" x2="431.1" y1="51.3656" y2="924.9141"/><line style="stroke:#383838;stroke-width:0.6;stroke-dasharray:5.0,5.0;" x1="519.3" x2="519.3" y1="51.3656" y2="924.9141"/><line style="stroke:#383838;stroke-width:0.6;stroke-dasharray:5.0,5.0;" x1="614.7" x2="614.7" y1="51.3656" y2="924.9141"/><line style="stroke:#383838;stroke-width:0.6;stroke-dasharray:5.0,5.0;" x1="718.8" x2="718.8" y1="51.3656" y2="924.9141"/><text fill="#000000" font-family="sans-serif" font-size="8.4" lengthAdjust="spacing" textLength="68.4" x="3" y="49.5199">Unregistered User</text><ellipse cx="39" cy="9" fill="#F8F8F8" rx="4.8" ry="4.8" style="stroke:#383838;stroke-width:1.2;"/><path d="M39,13.8 L39,30 M31.2,18.6 L46.8,18.6 M39,30 L31.2,39 M39,30 L46.8,39 " fill="none" style="stroke:#383838;stroke-width:1.2;"/><text fill="#000000" font-family="sans-serif" font-size="8.4" lengthAdjust="spacing" textLength="68.4" x="3" y="933.034">Unregistered User</text><ellipse cx="39" cy="940.8797" fill="#F8F8F8" rx="4.8" ry="4.8" style="stroke:#383838;stroke-width:1.2;"/><path d="M39,945.6797 L39,961.8797 M31.2,950.4797 L46.8,950.4797 M39,961.8797 L31.2,970.8797 M39,961.8797 L46.8,970.8797 " fill="none" style="stroke:#383838;stroke-width:1.2;"/><rect fill="#F8F8F8" height="18.9656" style="stroke:#383838;stroke-width:0.8999999999999999;" width="67.2" x="129.6" y="31.8"/><text fill="#000000" font-family="sans-serif" font-size="8.4" lengthAdjust="spacing" textLength="58.8" x="133.8" y="44.7199">:RegisterUserUI</text><rect fill="#F8F8F8" height="18.9656" style="stroke:#383838;stroke-width:0.8999999999999999;" width="67.2" x="129.6" y="924.3141"/><text fill="#000000" font-family="sans-serif" font-size="8.4" lengthAdjust="spacing" textLength="58.8" x="133.8" y="937.234">:RegisterUserUI</text><rect fill="#F8F8F8" height="18.9656" style="stroke:#383838;stroke-width:0.8999999999999999;" width="97.2" x="208.8" y="924.3141"/><text fill="#000000" font-family="sans-serif" font-size="8.4" lengthAdjust="spacing" textLength="88.8" x="213" y="937.234">:RegisterUserController</text><rect fill="#F8F8F8" height="29.5313" style="stroke:#383838;stroke-width:0.8999999999999999;" width="58.2" x="402.3" y="21.2344"/><text fill="#000000" font-family="sans-serif" font-size="8.4" lengthAdjust="spacing" textLength="44.4" x="409.2" y="34.1543">repositories</text><text fill="#000000" font-family="sans-serif" font-size="8.4" lengthAdjust="spacing" textLength="49.8" x="406.5" y="44.7199">:Repositories</text><rect fill="#F8F8F8" height="29.5313" style="stroke:#383838;stroke-width:0.8999999999999999;" width="58.2" x="402.3" y="924.3141"/><text fill="#000000" font-family="sans-serif" font-size="8.4" lengthAdjust="spacing" textLength="44.4" x="409.2" y="937.234">repositories</text><text fill="#000000" font-family="sans-serif" font-size="8.4" lengthAdjust="spacing" textLength="49.8" x="406.5" y="947.7996">:Repositories</text><rect fill="#F8F8F8" height="29.5313" style="stroke:#383838;stroke-width:0.8999999999999999;" width="105.6" x="466.5" y="21.2344"/><text fill="#000000" font-family="sans-serif" font-size="8.4" lengthAdjust="spacing" textLength="94.2" x="472.2" y="34.1543">authenticationRepository</text><text fill="#000000" font-family="sans-serif" font-size="8.4" lengthAdjust="spacing" textLength="97.2" x="470.7" y="44.7199">:AuthenticationRepository</text><rect fill="#F8F8F8" height="29.5313" style="stroke:#383838;stroke-width:0.8999999999999999;" width="105.6" x="466.5" y="924.3141"/><text fill="#000000" font-family="sans-serif" font-size="8.4" lengthAdjust="spacing" textLength="94.2" x="472.2" y="937.234">authenticationRepository</text><text fill="#000000" font-family="sans-serif" font-size="8.4" lengthAdjust="spacing" textLength="97.2" x="470.7" y="947.7996">:AuthenticationRepository</text><rect fill="#F8F8F8" height="29.5313" style="stroke:#383838;stroke-width:0.8999999999999999;" width="73.2" x="578.1" y="21.2344"/><text fill="#000000" font-family="sans-serif" font-size="8.4" lengthAdjust="spacing" textLength="60.6" x="584.4" y="34.1543">clientRepository</text><text fill="#000000" font-family="sans-serif" font-size="8.4" lengthAdjust="spacing" textLength="64.8" x="582.3" y="44.7199">:ClientRepository</text><rect fill="#F8F8F8" height="29.5313" style="stroke:#383838;stroke-width:0.8999999999999999;" width="73.2" x="578.1" y="924.3141"/><text fill="#000000" font-family="sans-serif" font-size="8.4" lengthAdjust="spacing" textLength="60.6" x="584.4" y="937.234">clientRepository</text><text fill="#000000" font-family="sans-serif" font-size="8.4" lengthAdjust="spacing" textLength="64.8" x="582.3" y="947.7996">:ClientRepository</text><rect fill="#F8F8F8" height="29.5313" style="stroke:#383838;stroke-width:0.8999999999999999;" width="45" x="696.6" y="21.2344"/><text fill="#000000" font-family="sans-serif" font-size="8.4" lengthAdjust="spacing" textLength="36.6" x="700.8" y="34.1543">newClient</text><text fill="#000000" font-family="sans-serif" font-size="8.4" lengthAdjust="spacing" textLength="24" x="707.1" y="44.7199">:Client</text><rect fill="#F8F8F8" height="29.5313" style="stroke:#383838;stroke-width:0.8999999999999999;" width="45" x="696.6" y="924.3141"/><text fill="#000000" font-family="sans-serif" font-size="8.4" lengthAdjust="spacing" textLength="36.6" x="700.8" y="937.234">newClient</text><text fill="#000000" font-family="sans-serif" font-size="8.4" lengthAdjust="spacing" textLength="24" x="707.1" y="947.7996">:Client</text><rect fill="#FFFFFF" height="856.7484" style="stroke:#383838;stroke-width:0.6;" width="6" x="36" y="57.3656"/><rect fill="#FFFFFF" height="146.0531" style="stroke:#383838;stroke-width:0.6;" width="6" x="160.2" y="70.7766"/><rect fill="#FFFFFF" height="445.3641" style="stroke:#383838;stroke-width:0.6;" width="6" x="160.2" y="235.0406"/><rect fill="#FFFFFF" height="215.4984" style="stroke:#383838;stroke-width:0.6;" width="6" x="160.2" y="698.6156"/><rect fill="#FFFFFF" height="74.1984" style="stroke:#383838;stroke-width:0.6;" width="6" x="254.4" y="94.9875"/><rect fill="#FFFFFF" height="399.1312" style="stroke:#383838;stroke-width:0.6;" width="6" x="254.4" y="253.2516"/><rect fill="#FFFFFF" height="179.0766" style="stroke:#383838;stroke-width:0.6;" width="6" x="254.4" y="716.8266"/><rect fill="#FFFFFF" height="18.2109" style="stroke:#383838;stroke-width:0.6;" width="6" x="428.4" y="114.5531"/><rect fill="#FFFFFF" height="18.2109" style="stroke:#383838;stroke-width:0.6;" width="6" x="428.4" y="150.975"/><rect fill="#FFFFFF" height="18.2109" style="stroke:#383838;stroke-width:0.6;" width="6" x="516.3" y="859.4812"/><rect fill="#FFFFFF" height="362.7094" style="stroke:#383838;stroke-width:0.6;" width="6" x="611.7" y="271.4625"/><rect fill="#FFFFFF" height="106.2328" style="stroke:#383838;stroke-width:0.6;" width="6" x="611.7" y="735.0375"/><rect fill="#FFFFFF" height="16.8" style="stroke:#383838;stroke-width:0.6;" width="6" x="614.7" y="758.0484"/><rect fill="#FFFFFF" height="16.8" style="stroke:#383838;stroke-width:0.6;" width="6" x="614.7" y="802.0594"/><rect fill="#FFFFFF" height="326.2875" style="stroke:#383838;stroke-width:0.6;" width="6" x="716.1" y="289.6734"/><rect fill="#FFFFFF" height="16.8" style="stroke:#383838;stroke-width:0.6;" width="6" x="719.1" y="312.6844"/><rect fill="#FFFFFF" height="16.8" style="stroke:#383838;stroke-width:0.6;" width="6" x="719.1" y="356.6953"/><rect fill="#FFFFFF" height="16.8" style="stroke:#383838;stroke-width:0.6;" width="6" x="719.1" y="400.7063"/><rect fill="#FFFFFF" height="16.8" style="stroke:#383838;stroke-width:0.6;" width="6" x="719.1" y="444.7172"/><rect fill="#FFFFFF" height="16.8" style="stroke:#383838;stroke-width:0.6;" width="6" x="719.1" y="488.7281"/><rect fill="#FFFFFF" height="16.8" style="stroke:#383838;stroke-width:0.6;" width="6" x="719.1" y="532.7391"/><rect fill="#FFFFFF" height="16.8" style="stroke:#383838;stroke-width:0.6;" width="6" x="719.1" y="576.75"/><polygon fill="#383838" points="153,68.3766,159,70.7766,153,73.1766,155.4,70.7766" style="stroke:#383838;stroke-width:0.6;"/><line style="stroke:#383838;stroke-width:0.6;" x1="42" x2="156.6" y1="70.7766" y2="70.7766"/><text fill="#000000" font-family="sans-serif" font-size="7.8" font-weight="bold" lengthAdjust="spacing" textLength="4.2" x="46.2" y="67.8627">1</text><text fill="#000000" font-family="sans-serif" font-size="7.8" lengthAdjust="spacing" textLength="60.6" x="52.8" y="67.8627">starts registration</text><polygon fill="#383838" points="201.6,86.5875,207.6,88.9875,201.6,91.3875,204,88.9875" style="stroke:#383838;stroke-width:0.6;"/><line style="stroke:#383838;stroke-width:0.6;" x1="166.2" x2="205.2" y1="88.9875" y2="88.9875"/><text fill="#000000" font-family="sans-serif" font-size="7.8" font-weight="bold" lengthAdjust="spacing" textLength="4.2" x="170.4" y="86.0736">2</text><text fill="#000000" font-family="sans-serif" font-size="7.8" lengthAdjust="spacing" textLength="21.6" x="177" y="86.0736">create</text><rect fill="#F8F8F8" height="18.9656" style="stroke:#383838;stroke-width:0.8999999999999999;" width="97.2" x="208.8" y="75.5766"/><text fill="#000000" font-family="sans-serif" font-size="8.4" lengthAdjust="spacing" textLength="88.8" x="213" y="88.4965">:RegisterUserController</text><polygon fill="#383838" points="421.2,112.1531,427.2,114.5531,421.2,116.9531,423.6,114.5531" style="stroke:#383838;stroke-width:0.6;"/><line style="stroke:#383838;stroke-width:0.6;" x1="260.4" x2="424.8" y1="114.5531" y2="114.5531"/><text fill="#000000" font-family="sans-serif" font-size="7.8" font-weight="bold" lengthAdjust="spacing" textLength="4.2" x="264.6" y="111.6393">3</text><text fill="#000000" font-family="sans-serif" font-size="7.8" lengthAdjust="spacing" textLength="150" x="271.2" y="111.6393">getInstance().getAuthenticationRepository()</text><polygon fill="#383838" points="267,130.3641,261,132.7641,267,135.1641,264.6,132.7641" style="stroke:#383838;stroke-width:0.6;"/><line style="stroke:#383838;stroke-width:0.6;stroke-dasharray:2.0,2.0;" x1="263.4" x2="430.8" y1="132.7641" y2="132.7641"/><text fill="#000000" font-family="sans-serif" font-size="7.8" font-weight="bold" lengthAdjust="spacing" textLength="4.2" x="270.6" y="129.8502">4</text><text fill="#000000" font-family="sans-serif" font-size="7.8" lengthAdjust="spacing" textLength="85.8" x="277.2" y="129.8502">authenticationRepository</text><polygon fill="#383838" points="421.2,148.575,427.2,150.975,421.2,153.375,423.6,150.975" style="stroke:#383838;stroke-width:0.6;"/><line style="stroke:#383838;stroke-width:0.6;" x1="260.4" x2="424.8" y1="150.975" y2="150.975"/><text fill="#000000" font-family="sans-serif" font-size="7.8" font-weight="bold" lengthAdjust="spacing" textLength="4.2" x="264.6" y="148.0611">5</text><text fill="#000000" font-family="sans-serif" font-size="7.8" lengthAdjust="spacing" textLength="120" x="271.2" y="148.0611">getInstance().getClientRepository()</text><polygon fill="#383838" points="264,166.7859,258,169.1859,264,171.5859,261.6,169.1859" style="stroke:#383838;stroke-width:0.6;"/><line style="stroke:#383838;stroke-width:0.6;stroke-dasharray:2.0,2.0;" x1="260.4" x2="430.8" y1="169.1859" y2="169.1859"/><text fill="#000000" font-family="sans-serif" font-size="7.8" font-weight="bold" lengthAdjust="spacing" textLength="4.2" x="267.6" y="166.2721">6</text><text fill="#000000" font-family="sans-serif" font-size="7.8" lengthAdjust="spacing" textLength="55.8" x="274.2" y="166.2721">clientRepository</text><polygon fill="#383838" points="48.6,214.4297,42.6,216.8297,48.6,219.2297,46.2,216.8297" style="stroke:#383838;stroke-width:0.6;"/><line style="stroke:#383838;stroke-width:0.6;stroke-dasharray:2.0,2.0;" x1="45" x2="162.6" y1="216.8297" y2="216.8297"/><text fill="#000000" font-family="sans-serif" font-size="7.8" font-weight="bold" lengthAdjust="spacing" textLength="4.2" x="52.2" y="199.1994">7</text><text fill="#000000" font-family="sans-serif" font-size="7.8" lengthAdjust="spacing" textLength="97.2" x="58.8" y="184.483">requests data (name, email,</text><text fill="#000000" font-family="sans-serif" font-size="7.8" lengthAdjust="spacing" textLength="79.2" x="58.8" y="194.2939">password, CC number,</text><text fill="#000000" font-family="sans-serif" font-size="7.8" lengthAdjust="spacing" textLength="71.4" x="58.8" y="204.1049">tax number,address,</text><text fill="#000000" font-family="sans-serif" font-size="7.8" lengthAdjust="spacing" textLength="51.6" x="58.8" y="213.9158">phone number)</text><polygon fill="#383838" points="153,232.6406,159,235.0406,153,237.4406,155.4,235.0406" style="stroke:#383838;stroke-width:0.6;"/><line style="stroke:#383838;stroke-width:0.6;" x1="42" x2="156.6" y1="235.0406" y2="235.0406"/><text fill="#000000" font-family="sans-serif" font-size="7.8" font-weight="bold" lengthAdjust="spacing" textLength="4.2" x="46.2" y="232.1268">8</text><text fill="#000000" font-family="sans-serif" font-size="7.8" lengthAdjust="spacing" textLength="73.2" x="52.8" y="232.1268">types requested data</text><polygon fill="#383838" points="247.2,250.8516,253.2,253.2516,247.2,255.6516,249.6,253.2516" style="stroke:#383838;stroke-width:0.6;"/><line style="stroke:#383838;stroke-width:0.6;" x1="166.2" x2="250.8" y1="253.2516" y2="253.2516"/><text fill="#000000" font-family="sans-serif" font-size="7.8" font-weight="bold" lengthAdjust="spacing" textLength="4.2" x="170.4" y="250.3377">9</text><text fill="#000000" font-family="sans-serif" font-size="7.8" lengthAdjust="spacing" textLength="63" x="177" y="250.3377">createClient(input)</text><polygon fill="#383838" points="604.5,269.0625,610.5,271.4625,604.5,273.8625,606.9,271.4625" style="stroke:#383838;stroke-width:0.6;"/><line style="stroke:#383838;stroke-width:0.6;" x1="260.4" x2="608.1" y1="271.4625" y2="271.4625"/><text fill="#000000" font-family="sans-serif" font-size="7.8" font-weight="bold" lengthAdjust="spacing" textLength="8.4" x="264.6" y="268.5486">10</text><text fill="#000000" font-family="sans-serif" font-size="7.8" lengthAdjust="spacing" textLength="63" x="275.4" y="268.5486">createClient(input)</text><polygon fill="#383838" points="708.9,287.2734,714.9,289.6734,708.9,292.0734,711.3,289.6734" style="stroke:#383838;stroke-width:0.6;"/><line style="stroke:#383838;stroke-width:0.6;" x1="617.7" x2="712.5" y1="289.6734" y2="289.6734"/><text fill="#000000" font-family="sans-serif" font-size="7.8" font-weight="bold" lengthAdjust="spacing" textLength="8.4" x="621.9" y="286.7596">11</text><text fill="#000000" font-family="sans-serif" font-size="7.8" lengthAdjust="spacing" textLength="30.6" x="632.7" y="286.7596">validate()</text><line style="stroke:#383838;stroke-width:0.6;" x1="725.1" x2="750.3" y1="307.8844" y2="307.8844"/><line style="stroke:#383838;stroke-width:0.6;" x1="750.3" x2="750.3" y1="307.8844" y2="315.6844"/><line style="stroke:#383838;stroke-width:0.6;" x1="725.7" x2="750.3" y1="315.6844" y2="315.6844"/><polygon fill="#383838" points="731.7,313.2844,725.7,315.6844,731.7,318.0844,729.3,315.6844" style="stroke:#383838;stroke-width:0.6;"/><text fill="#000000" font-family="sans-serif" font-size="7.8" font-weight="bold" lengthAdjust="spacing" textLength="8.4" x="729.3" y="304.9705">12</text><text fill="#000000" font-family="sans-serif" font-size="7.8" lengthAdjust="spacing" textLength="48.6" x="740.1" y="304.9705">isValidName()</text><line style="stroke:#383838;stroke-width:0.6;" x1="725.1" x2="750.3" y1="351.8953" y2="351.8953"/><line style="stroke:#383838;stroke-width:0.6;" x1="750.3" x2="750.3" y1="351.8953" y2="359.6953"/><line style="stroke:#383838;stroke-width:0.6;" x1="725.7" x2="750.3" y1="359.6953" y2="359.6953"/><polygon fill="#383838" points="731.7,357.2953,725.7,359.6953,731.7,362.0953,729.3,359.6953" style="stroke:#383838;stroke-width:0.6;"/><text fill="#000000" font-family="sans-serif" font-size="7.8" font-weight="bold" lengthAdjust="spacing" textLength="8.4" x="729.3" y="348.9814">13</text><text fill="#000000" font-family="sans-serif" font-size="7.8" lengthAdjust="spacing" textLength="48.6" x="740.1" y="348.9814">isValidName()</text><line style="stroke:#383838;stroke-width:0.6;" x1="725.1" x2="750.3" y1="395.9063" y2="395.9063"/><line style="stroke:#383838;stroke-width:0.6;" x1="750.3" x2="750.3" y1="395.9063" y2="403.7063"/><line style="stroke:#383838;stroke-width:0.6;" x1="725.7" x2="750.3" y1="403.7063" y2="403.7063"/><polygon fill="#383838" points="731.7,401.3063,725.7,403.7063,731.7,406.1063,729.3,403.7063" style="stroke:#383838;stroke-width:0.6;"/><text fill="#000000" font-family="sans-serif" font-size="7.8" font-weight="bold" lengthAdjust="spacing" textLength="8.4" x="729.3" y="392.9924">14</text><text fill="#000000" font-family="sans-serif" font-size="7.8" lengthAdjust="spacing" textLength="48" x="740.1" y="392.9924">isValidEmail()</text><line style="stroke:#383838;stroke-width:0.6;" x1="725.1" x2="750.3" y1="439.9172" y2="439.9172"/><line style="stroke:#383838;stroke-width:0.6;" x1="750.3" x2="750.3" y1="439.9172" y2="447.7172"/><line style="stroke:#383838;stroke-width:0.6;" x1="725.7" x2="750.3" y1="447.7172" y2="447.7172"/><polygon fill="#383838" points="731.7,445.3172,725.7,447.7172,731.7,450.1172,729.3,447.7172" style="stroke:#383838;stroke-width:0.6;"/><text fill="#000000" font-family="sans-serif" font-size="7.8" font-weight="bold" lengthAdjust="spacing" textLength="8.4" x="729.3" y="437.0033">15</text><text fill="#000000" font-family="sans-serif" font-size="7.8" lengthAdjust="spacing" textLength="62.4" x="740.1" y="437.0033">isValidPassword()</text><line style="stroke:#383838;stroke-width:0.6;" x1="725.1" x2="750.3" y1="483.9281" y2="483.9281"/><line style="stroke:#383838;stroke-width:0.6;" x1="750.3" x2="750.3" y1="483.9281" y2="491.7281"/><line style="stroke:#383838;stroke-width:0.6;" x1="725.7" x2="750.3" y1="491.7281" y2="491.7281"/><polygon fill="#383838" points="731.7,489.3281,725.7,491.7281,731.7,494.1281,729.3,491.7281" style="stroke:#383838;stroke-width:0.6;"/><text fill="#000000" font-family="sans-serif" font-size="7.8" font-weight="bold" lengthAdjust="spacing" textLength="8.4" x="729.3" y="481.0143">16</text><text fill="#000000" font-family="sans-serif" font-size="7.8" lengthAdjust="spacing" textLength="66" x="740.1" y="481.0143">isValidCCNumber()</text><line style="stroke:#383838;stroke-width:0.6;" x1="725.1" x2="750.3" y1="527.9391" y2="527.9391"/><line style="stroke:#383838;stroke-width:0.6;" x1="750.3" x2="750.3" y1="527.9391" y2="535.7391"/><line style="stroke:#383838;stroke-width:0.6;" x1="725.7" x2="750.3" y1="535.7391" y2="535.7391"/><polygon fill="#383838" points="731.7,533.3391,725.7,535.7391,731.7,538.1391,729.3,535.7391" style="stroke:#383838;stroke-width:0.6;"/><text fill="#000000" font-family="sans-serif" font-size="7.8" font-weight="bold" lengthAdjust="spacing" textLength="8.4" x="729.3" y="525.0252">17</text><text fill="#000000" font-family="sans-serif" font-size="7.8" lengthAdjust="spacing" textLength="67.8" x="740.1" y="525.0252">isValidTaxNumber()</text><line style="stroke:#383838;stroke-width:0.6;" x1="725.1" x2="750.3" y1="571.95" y2="571.95"/><line style="stroke:#383838;stroke-width:0.6;" x1="750.3" x2="750.3" y1="571.95" y2="579.75"/><line style="stroke:#383838;stroke-width:0.6;" x1="725.7" x2="750.3" y1="579.75" y2="579.75"/><polygon fill="#383838" points="731.7,577.35,725.7,579.75,731.7,582.15,729.3,579.75" style="stroke:#383838;stroke-width:0.6;"/><text fill="#000000" font-family="sans-serif" font-size="7.8" font-weight="bold" lengthAdjust="spacing" textLength="8.4" x="729.3" y="569.0361">18</text><text fill="#000000" font-family="sans-serif" font-size="7.8" lengthAdjust="spacing" textLength="90.6" x="740.1" y="569.0361">isValidTelephoneNumber()</text><polygon fill="#383838" points="624.3,613.5609,618.3,615.9609,624.3,618.3609,621.9,615.9609" style="stroke:#383838;stroke-width:0.6;"/><line style="stroke:#383838;stroke-width:0.6;stroke-dasharray:2.0,2.0;" x1="620.7" x2="718.5" y1="615.9609" y2="615.9609"/><text fill="#000000" font-family="sans-serif" font-size="7.8" font-weight="bold" lengthAdjust="spacing" textLength="8.4" x="627.9" y="613.0471">19</text><text fill="#000000" font-family="sans-serif" font-size="7.8" lengthAdjust="spacing" textLength="13.2" x="638.7" y="613.0471">true</text><polygon fill="#383838" points="267,631.7719,261,634.1719,267,636.5719,264.6,634.1719" style="stroke:#383838;stroke-width:0.6;"/><line style="stroke:#383838;stroke-width:0.6;stroke-dasharray:2.0,2.0;" x1="263.4" x2="614.1" y1="634.1719" y2="634.1719"/><text fill="#000000" font-family="sans-serif" font-size="7.8" font-weight="bold" lengthAdjust="spacing" textLength="8.4" x="270.6" y="631.258">20</text><text fill="#000000" font-family="sans-serif" font-size="7.8" lengthAdjust="spacing" textLength="33.6" x="281.4" y="631.258">newClient</text><polygon fill="#383838" points="172.8,649.9828,166.8,652.3828,172.8,654.7828,170.4,652.3828" style="stroke:#383838;stroke-width:0.6;"/><line style="stroke:#383838;stroke-width:0.6;stroke-dasharray:2.0,2.0;" x1="169.2" x2="256.8" y1="652.3828" y2="652.3828"/><text fill="#000000" font-family="sans-serif" font-size="7.8" font-weight="bold" lengthAdjust="spacing" textLength="8.4" x="176.4" y="649.4689">21</text><text fill="#000000" font-family="sans-serif" font-size="7.8" lengthAdjust="spacing" textLength="33.6" x="187.2" y="649.4689">newClient</text><polygon fill="#383838" points="48.6,678.0047,42.6,680.4047,48.6,682.8047,46.2,680.4047" style="stroke:#383838;stroke-width:0.6;"/><line style="stroke:#383838;stroke-width:0.6;stroke-dasharray:2.0,2.0;" x1="45" x2="162.6" y1="680.4047" y2="680.4047"/><text fill="#000000" font-family="sans-serif" font-size="7.8" font-weight="bold" lengthAdjust="spacing" textLength="8.4" x="52.2" y="672.5854">22</text><text fill="#000000" font-family="sans-serif" font-size="7.8" lengthAdjust="spacing" textLength="73.8" x="63" y="667.6799">shows input data and</text><text fill="#000000" font-family="sans-serif" font-size="7.8" lengthAdjust="spacing" textLength="72" x="63" y="677.4908">asks for confirmation</text><polygon fill="#383838" points="153,696.2156,159,698.6156,153,701.0156,155.4,698.6156" style="stroke:#383838;stroke-width:0.6;"/><line style="stroke:#383838;stroke-width:0.6;" x1="42" x2="156.6" y1="698.6156" y2="698.6156"/><text fill="#000000" font-family="sans-serif" font-size="7.8" font-weight="bold" lengthAdjust="spacing" textLength="8.4" x="46.2" y="695.7018">23</text><text fill="#000000" font-family="sans-serif" font-size="7.8" lengthAdjust="spacing" textLength="46.8" x="57" y="695.7018">confirms data</text><polygon fill="#383838" points="247.2,714.4266,253.2,716.8266,247.2,719.2266,249.6,716.8266" style="stroke:#383838;stroke-width:0.6;"/><line style="stroke:#383838;stroke-width:0.6;" x1="166.2" x2="250.8" y1="716.8266" y2="716.8266"/><text fill="#000000" font-family="sans-serif" font-size="7.8" font-weight="bold" lengthAdjust="spacing" textLength="8.4" x="170.4" y="713.9127">24</text><text fill="#000000" font-family="sans-serif" font-size="7.8" lengthAdjust="spacing" textLength="40.2" x="181.2" y="713.9127">saveClient()</text><polygon fill="#383838" points="604.5,732.6375,610.5,735.0375,604.5,737.4375,606.9,735.0375" style="stroke:#383838;stroke-width:0.6;"/><line style="stroke:#383838;stroke-width:0.6;" x1="260.4" x2="608.1" y1="735.0375" y2="735.0375"/><text fill="#000000" font-family="sans-serif" font-size="7.8" font-weight="bold" lengthAdjust="spacing" textLength="8.4" x="264.6" y="732.1236">25</text><text fill="#000000" font-family="sans-serif" font-size="7.8" lengthAdjust="spacing" textLength="73.8" x="275.4" y="732.1236">saveClient(newClient)</text><line style="stroke:#383838;stroke-width:0.6;" x1="620.7" x2="645.9" y1="753.2484" y2="753.2484"/><line style="stroke:#383838;stroke-width:0.6;" x1="645.9" x2="645.9" y1="753.2484" y2="761.0484"/><line style="stroke:#383838;stroke-width:0.6;" x1="621.3" x2="645.9" y1="761.0484" y2="761.0484"/><polygon fill="#383838" points="627.3,758.6484,621.3,761.0484,627.3,763.4484,624.9,761.0484" style="stroke:#383838;stroke-width:0.6;"/><text fill="#000000" font-family="sans-serif" font-size="7.8" font-weight="bold" lengthAdjust="spacing" textLength="8.4" x="624.9" y="750.3346">26</text><text fill="#000000" font-family="sans-serif" font-size="7.8" lengthAdjust="spacing" textLength="79.2" x="635.7" y="750.3346">existsClient(newClient)</text><line style="stroke:#383838;stroke-width:0.6;" x1="620.7" x2="645.9" y1="797.2594" y2="797.2594"/><line style="stroke:#383838;stroke-width:0.6;" x1="645.9" x2="645.9" y1="797.2594" y2="805.0594"/><line style="stroke:#383838;stroke-width:0.6;" x1="621.3" x2="645.9" y1="805.0594" y2="805.0594"/><polygon fill="#383838" points="627.3,802.6594,621.3,805.0594,627.3,807.4594,624.9,805.0594" style="stroke:#383838;stroke-width:0.6;"/><text fill="#000000" font-family="sans-serif" font-size="7.8" font-weight="bold" lengthAdjust="spacing" textLength="8.4" x="624.9" y="794.3455">27</text><text fill="#000000" font-family="sans-serif" font-size="7.8" lengthAdjust="spacing" textLength="73.8" x="635.7" y="794.3455">saveClient(newClient)</text><polygon fill="#383838" points="267,838.8703,261,841.2703,267,843.6703,264.6,841.2703" style="stroke:#383838;stroke-width:0.6;"/><line style="stroke:#383838;stroke-width:0.6;stroke-dasharray:2.0,2.0;" x1="263.4" x2="614.1" y1="841.2703" y2="841.2703"/><text fill="#000000" font-family="sans-serif" font-size="7.8" font-weight="bold" lengthAdjust="spacing" textLength="8.4" x="270.6" y="838.3564">28</text><text fill="#000000" font-family="sans-serif" font-size="7.8" lengthAdjust="spacing" textLength="13.2" x="281.4" y="838.3564">true</text><polygon fill="#383838" points="509.1,857.0813,515.1,859.4812,509.1,861.8813,511.5,859.4812" style="stroke:#383838;stroke-width:0.6;"/><line style="stroke:#383838;stroke-width:0.6;" x1="260.4" x2="512.7" y1="859.4812" y2="859.4812"/><text fill="#000000" font-family="sans-serif" font-size="7.8" font-weight="bold" lengthAdjust="spacing" textLength="8.4" x="264.6" y="856.5674">29</text><text fill="#000000" font-family="sans-serif" font-size="7.8" lengthAdjust="spacing" textLength="129" x="275.4" y="856.5674">addUserWithRole(..., ROLE_CLIENT)</text><polygon fill="#383838" points="267,875.2922,261,877.6922,267,880.0922,264.6,877.6922" style="stroke:#383838;stroke-width:0.6;"/><line style="stroke:#383838;stroke-width:0.6;stroke-dasharray:2.0,2.0;" x1="263.4" x2="518.7" y1="877.6922" y2="877.6922"/><text fill="#000000" font-family="sans-serif" font-size="7.8" font-weight="bold" lengthAdjust="spacing" textLength="8.4" x="270.6" y="874.7783">30</text><text fill="#000000" font-family="sans-serif" font-size="7.8" lengthAdjust="spacing" textLength="13.2" x="281.4" y="874.7783">true</text><polygon fill="#383838" points="172.8,893.5031,166.8,895.9031,172.8,898.3031,170.4,895.9031" style="stroke:#383838;stroke-width:0.6;"/><line style="stroke:#383838;stroke-width:0.6;stroke-dasharray:2.0,2.0;" x1="169.2" x2="256.8" y1="895.9031" y2="895.9031"/><text fill="#000000" font-family="sans-serif" font-size="7.8" font-weight="bold" lengthAdjust="spacing" textLength="8.4" x="176.4" y="892.9893">31</text><text fill="#000000" font-family="sans-serif" font-size="7.8" lengthAdjust="spacing" textLength="13.2" x="187.2" y="892.9893">true</text><polygon fill="#383838" points="45.6,911.7141,39.6,914.1141,45.6,916.5141,43.2,914.1141" style="stroke:#383838;stroke-width:0.6;"/><line style="stroke:#383838;stroke-width:0.6;stroke-dasharray:2.0,2.0;" x1="42" x2="162.6" y1="914.1141" y2="914.1141"/><text fill="#000000" font-family="sans-serif" font-size="7.8" font-weight="bold" lengthAdjust="spacing" textLength="8.4" x="49.2" y="911.2002">32</text><text fill="#000000" font-family="sans-serif" font-size="7.8" lengthAdjust="spacing" textLength="88.2" x="60" y="911.2002">shows operation success</text><!--MD5=[82e3448fc54ce0cfe331e3f5f8af0891]
@startuml
'https://plantuml.com/sequence-diagram

skinparam monochrome true
skinparam shadowing false
autonumber

actor "Unregistered User" as uu
participant ":RegisterUserUI" as ui
participant ":RegisterUserController" as ctrl
participant "repositories\n:Repositories" as repos
participant "authenticationRepository\n:AuthenticationRepository" as authRepo
participant "clientRepository\n:ClientRepository" as clientRepo
participant "newClient\n:Client" as client

activate uu
uu -> ui: starts registration
activate ui
ui -> ctrl**: create
activate ctrl
ctrl -> repos: getInstance().getAuthenticationRepository()
activate repos
return authenticationRepository
ctrl -> repos: getInstance().getClientRepository()
activate repos
return clientRepository
deactivate ctrl
return requests data (name, email,\npassword, CC number,\ntax number,address,\nphone number)

uu -> ui: types requested data
activate ui

ui -> ctrl: createClient(input)
activate ctrl
ctrl -> clientRepo: createClient(input)
activate clientRepo
clientRepo -> client: validate()
activate client
    client -> client: isValidName()
    activate client
    deactivate client
    client -> client: isValidName()
    activate client
    deactivate client
    client -> client: isValidEmail()
    activate client
    deactivate client
    client -> client: isValidPassword()
    activate client
    deactivate client
    client -> client: isValidCCNumber()
    activate client
    deactivate client
    client -> client: isValidTaxNumber()
    activate client
    deactivate client
    client -> client: isValidTelephoneNumber()
    activate client
deactivate client
return true

return newClient
return newClient
return shows input data and\nasks for confirmation

uu -> ui: confirms data
activate ui
ui -> ctrl: saveClient()
activate ctrl
ctrl -> clientRepo: saveClient(newClient)
activate clientRepo
clientRepo -> clientRepo: existsClient(newClient)
activate clientRepo
deactivate clientRepo
clientRepo -> clientRepo: saveClient(newClient)
activate clientRepo
deactivate clientRepo
return true
ctrl -> authRepo: addUserWithRole(..., ROLE_CLIENT)
activate authRepo
return true
return true
return shows operation success




deactivate uu
@enduml

@startuml

skinparam monochrome true
skinparam shadowing false
autonumber

actor "Unregistered User" as uu
participant ":RegisterUserUI" as ui
participant ":RegisterUserController" as ctrl
participant "repositories\n:Repositories" as repos
participant "authenticationRepository\n:AuthenticationRepository" as authRepo
participant "clientRepository\n:ClientRepository" as clientRepo
participant "newClient\n:Client" as client

activate uu
uu -> ui: starts registration
activate ui
ui -> ctrl**: create
activate ctrl
ctrl -> repos: getInstance().getAuthenticationRepository()
activate repos
return authenticationRepository
ctrl -> repos: getInstance().getClientRepository()
activate repos
return clientRepository
deactivate ctrl
return requests data (name, email,\npassword, CC number,\ntax number,address,\nphone number)

uu -> ui: types requested data
activate ui

ui -> ctrl: createClient(input)
activate ctrl
ctrl -> clientRepo: createClient(input)
activate clientRepo
clientRepo -> client: validate()
activate client
    client -> client: isValidName()
    activate client
    deactivate client
    client -> client: isValidName()
    activate client
    deactivate client
    client -> client: isValidEmail()
    activate client
    deactivate client
    client -> client: isValidPassword()
    activate client
    deactivate client
    client -> client: isValidCCNumber()
    activate client
    deactivate client
    client -> client: isValidTaxNumber()
    activate client
    deactivate client
    client -> client: isValidTelephoneNumber()
    activate client
deactivate client
return true

return newClient
return newClient
return shows input data and\nasks for confirmation

uu -> ui: confirms data
activate ui
ui -> ctrl: saveClient()
activate ctrl
ctrl -> clientRepo: saveClient(newClient)
activate clientRepo
clientRepo -> clientRepo: existsClient(newClient)
activate clientRepo
deactivate clientRepo
clientRepo -> clientRepo: saveClient(newClient)
activate clientRepo
deactivate clientRepo
return true
ctrl -> authRepo: addUserWithRole(..., ROLE_CLIENT)
activate authRepo
return true
return true
return shows operation success




deactivate uu
@enduml

PlantUML version 1.2022.1(Tue Feb 01 18:19:58 GMT 2022)
(GPL source distribution)
Java Runtime: OpenJDK Runtime Environment
JVM: OpenJDK 64-Bit Server VM
Default Encoding: Cp1252
Language: en
Country: US
--></g></svg>