<?xml version="1.0" encoding="UTF-8" standalone="no"?><svg xmlns="http://www.w3.org/2000/svg" xmlns:xlink="http://www.w3.org/1999/xlink" contentScriptType="application/ecmascript" contentStyleType="text/css" height="634.8px" preserveAspectRatio="none" style="width:585px;height:634px;background:#FFFFFF;" version="1.1" viewBox="0 0 585 634" width="585.6px" zoomAndPan="magnify"><defs/><g><!--MD5=[2a6a992e699eac248da01b98a6cecd43]
class Buyer--><rect codeLine="92" fill="#F8F8F8" height="19.8563" id="Buyer" style="stroke:#383838;stroke-width:0.8999999999999999;" width="22.2" x="132.6" y="357.9"/><text fill="#000000" font-family="sans-serif" font-size="7.2" lengthAdjust="spacing" textLength="18.6" x="134.4" y="368.3742">Buyer</text><line style="stroke:#383838;stroke-width:0.8999999999999999;" x1="133.2" x2="154.2" y1="372.9563" y2="372.9563"/><!--MD5=[ed6624c6556d5e7b1bd23032162d20b7]
class Client--><rect codeLine="91" fill="#F8F8F8" height="19.8563" id="Client" style="stroke:#383838;stroke-width:0.8999999999999999;" width="22.8" x="153.9" y="461.7"/><text fill="#000000" font-family="sans-serif" font-size="7.2" lengthAdjust="spacing" textLength="19.2" x="155.7" y="472.1742">Client</text><line style="stroke:#383838;stroke-width:0.8999999999999999;" x1="154.5" x2="176.1" y1="476.7562" y2="476.7562"/><!--MD5=[43844b47726d9c4702f600b824e35ead]
class Seller--><rect codeLine="93" fill="#F8F8F8" height="19.8563" id="Seller" style="stroke:#383838;stroke-width:0.8999999999999999;" width="22.8" x="176.1" y="357.9"/><text fill="#000000" font-family="sans-serif" font-size="7.2" lengthAdjust="spacing" textLength="19.2" x="177.9" y="368.3742">Seller</text><line style="stroke:#383838;stroke-width:0.8999999999999999;" x1="176.7" x2="198.3" y1="372.9563" y2="372.9563"/><!--MD5=[b418d88ae0e307a1deed5287108d1c4a]
entity ##68549--><!--MD5=[8be9d28d6b0cc45ddb1511f86e279330]
entity ##68554--><!--MD5=[ec81f511f4d20a18ef555a8be4cd58b8]
class Network--><rect codeLine="61" fill="#F8F8F8" height="19.8563" id="Network" style="stroke:#383838;stroke-width:0.8999999999999999;" width="30.6" x="201" y="154.2"/><text fill="#000000" font-family="sans-serif" font-size="7.2" lengthAdjust="spacing" textLength="27" x="202.8" y="164.6742">Network</text><line style="stroke:#383838;stroke-width:0.8999999999999999;" x1="201.6" x2="231" y1="169.2563" y2="169.2563"/><!--MD5=[6d7d587a021629470fd0d5f8ef3407c9]
class Branch--><rect codeLine="65" fill="#F8F8F8" height="53.0625" id="Branch" style="stroke:#383838;stroke-width:0.8999999999999999;" width="66" x="273.9" y="229.2"/><text fill="#000000" font-family="sans-serif" font-size="7.2" lengthAdjust="spacing" textLength="23.4" x="295.2" y="239.6742">Branch</text><line style="stroke:#383838;stroke-width:0.8999999999999999;" x1="274.5" x2="339.3" y1="244.2563" y2="244.2563"/><text fill="#000000" font-family="sans-serif" font-size="6.6" lengthAdjust="spacing" textLength="34.2" x="277.5" y="253.5076">name:String</text><text fill="#000000" font-family="sans-serif" font-size="6.6" lengthAdjust="spacing" textLength="42.6" x="277.5" y="261.8092">address:String</text><text fill="#000000" font-family="sans-serif" font-size="6.6" lengthAdjust="spacing" textLength="33" x="277.5" y="270.1107">email:String</text><text fill="#000000" font-family="sans-serif" font-size="6.6" lengthAdjust="spacing" textLength="58.8" x="277.5" y="278.4123">phoneNumber:String</text><!--MD5=[c7159c368ecd92fb5843b3b4ed8c52fc]
class Listing--><rect codeLine="99" fill="#F8F8F8" height="61.3641" id="Listing" style="stroke:#383838;stroke-width:0.8999999999999999;" width="104.4" x="254.7" y="337.2"/><text fill="#000000" font-family="sans-serif" font-size="7.2" lengthAdjust="spacing" textLength="22.2" x="295.8" y="347.6742">Listing</text><line style="stroke:#383838;stroke-width:0.8999999999999999;" x1="255.3" x2="358.5" y1="352.2562" y2="352.2562"/><text fill="#000000" font-family="sans-serif" font-size="6.6" lengthAdjust="spacing" textLength="30" x="258.3" y="361.5076">int listingID</text><text fill="#000000" font-family="sans-serif" font-size="6.6" lengthAdjust="spacing" textLength="31.8" x="258.3" y="369.8092">bool visible</text><text fill="#000000" font-family="sans-serif" font-size="6.6" lengthAdjust="spacing" textLength="28.8" x="258.3" y="378.1107">float price</text><text fill="#000000" font-family="sans-serif" font-size="6.6" lengthAdjust="spacing" textLength="48" x="258.3" y="386.4123">float commission</text><text fill="#000000" font-family="sans-serif" font-size="6.6" lengthAdjust="spacing" textLength="97.2" x="258.3" y="394.7139">TypeOfBusiness typeOfBusiness</text><!--MD5=[6b626634f3bb0842bebd5e499c80b711]
class Property--><rect codeLine="108" fill="#F8F8F8" height="53.0625" id="Property" style="stroke:#383838;stroke-width:0.8999999999999999;" width="76.2" x="264" y="445.2"/><text fill="#000000" font-family="sans-serif" font-size="7.2" lengthAdjust="spacing" textLength="27" x="288.6" y="455.6742">Property</text><line style="stroke:#383838;stroke-width:0.8999999999999999;" x1="264.6" x2="339.6" y1="460.2562" y2="460.2562"/><text fill="#000000" font-family="sans-serif" font-size="6.6" lengthAdjust="spacing" textLength="27.6" x="267.6" y="469.5076">float area</text><text fill="#000000" font-family="sans-serif" font-size="6.6" lengthAdjust="spacing" textLength="22.8" x="267.6" y="477.8092">City city</text><text fill="#000000" font-family="sans-serif" font-size="6.6" lengthAdjust="spacing" textLength="69" x="267.6" y="486.1107">float cityCenterDistance</text><text fill="#000000" font-family="sans-serif" font-size="6.6" lengthAdjust="spacing" textLength="69" x="267.6" y="494.4123">List&lt;Image&gt; photograph</text><!--MD5=[7421f545a0d8420c5bec41e74b387d9c]
class Employee--><rect codeLine="72" fill="#F8F8F8" height="69.6656" id="Employee" style="stroke:#383838;stroke-width:0.8999999999999999;" width="66" x="141.9" y="220.8"/><text fill="#000000" font-family="sans-serif" font-size="7.2" lengthAdjust="spacing" textLength="33" x="158.4" y="231.2742">Employee</text><line style="stroke:#383838;stroke-width:0.8999999999999999;" x1="142.5" x2="207.3" y1="235.8563" y2="235.8563"/><text fill="#000000" font-family="sans-serif" font-size="6.6" lengthAdjust="spacing" textLength="34.2" x="145.5" y="245.1076">String name</text><text fill="#000000" font-family="sans-serif" font-size="6.6" lengthAdjust="spacing" textLength="38.4" x="145.5" y="253.4092">int cCNumber</text><text fill="#000000" font-family="sans-serif" font-size="6.6" lengthAdjust="spacing" textLength="39.6" x="145.5" y="261.7107">int taxNumber</text><text fill="#000000" font-family="sans-serif" font-size="6.6" lengthAdjust="spacing" textLength="42.6" x="145.5" y="270.0123">String address</text><text fill="#000000" font-family="sans-serif" font-size="6.6" lengthAdjust="spacing" textLength="33" x="145.5" y="278.3139">String email</text><text fill="#000000" font-family="sans-serif" font-size="6.6" lengthAdjust="spacing" textLength="58.8" x="145.5" y="286.6154">String phoneNumber</text><!--MD5=[5005bba8c6d1dda988b0bcc8eba409f6]
class House--><rect codeLine="115" fill="#F8F8F8" height="86.2688" id="House" style="stroke:#383838;stroke-width:0.8999999999999999;" width="87.6" x="332.1" y="544.8"/><text fill="#000000" font-family="sans-serif" font-size="7.2" lengthAdjust="spacing" textLength="22.2" x="364.8" y="555.2742">House</text><line style="stroke:#383838;stroke-width:0.8999999999999999;" x1="332.7" x2="419.1" y1="559.8562" y2="559.8562"/><text fill="#000000" font-family="sans-serif" font-size="6.6" lengthAdjust="spacing" textLength="66.6" x="335.7" y="569.1076">int numberOfBedrooms</text><text fill="#000000" font-family="sans-serif" font-size="6.6" lengthAdjust="spacing" textLength="68.4" x="335.7" y="577.4092">int numberOfBathrooms</text><text fill="#000000" font-family="sans-serif" font-size="6.6" lengthAdjust="spacing" textLength="80.4" x="335.7" y="585.7107">int numberOfParkingSpaces</text><text fill="#000000" font-family="sans-serif" font-size="6.6" lengthAdjust="spacing" textLength="65.4" x="335.7" y="594.0123">List&lt;String&gt; equipment</text><text fill="#000000" font-family="sans-serif" font-size="6.6" lengthAdjust="spacing" textLength="53.4" x="335.7" y="602.3139">bool hasBasement</text><text fill="#000000" font-family="sans-serif" font-size="6.6" lengthAdjust="spacing" textLength="0" x="337.5" y="610.6154"/><text fill="#000000" font-family="sans-serif" font-size="6.6" lengthAdjust="spacing" textLength="66.6" x="335.7" y="618.917">bool hasInhabitableLoft</text><text fill="#000000" font-family="sans-serif" font-size="6.6" lengthAdjust="spacing" textLength="79.2" x="335.7" y="627.2186">SunExposure sunExposure</text><!--MD5=[7938f2b00af14ba76f29cd64fe89cba4]
class Apartment--><rect codeLine="126" fill="#F8F8F8" height="53.0625" id="Apartment" style="stroke:#383838;stroke-width:0.8999999999999999;" width="87.6" x="182.1" y="561.6"/><text fill="#000000" font-family="sans-serif" font-size="7.2" lengthAdjust="spacing" textLength="33.6" x="209.1" y="572.0742">Apartment</text><line style="stroke:#383838;stroke-width:0.8999999999999999;" x1="182.7" x2="269.1" y1="576.6563" y2="576.6563"/><text fill="#000000" font-family="sans-serif" font-size="6.6" lengthAdjust="spacing" textLength="66.6" x="185.7" y="585.9076">int numberOfBedrooms</text><text fill="#000000" font-family="sans-serif" font-size="6.6" lengthAdjust="spacing" textLength="68.4" x="185.7" y="594.2092">int numberOfBathrooms</text><text fill="#000000" font-family="sans-serif" font-size="6.6" lengthAdjust="spacing" textLength="80.4" x="185.7" y="602.5107">int numberOfParkingSpaces</text><text fill="#000000" font-family="sans-serif" font-size="6.6" lengthAdjust="spacing" textLength="65.4" x="185.7" y="610.8123">List&lt;String&gt; equipment</text><!--MD5=[3b2ebc2a82a6ca42650088e4a2410713]
class Land--><rect codeLine="133" fill="#F8F8F8" height="19.8563" id="Land" style="stroke:#383838;stroke-width:0.8999999999999999;" width="20.4" x="290.7" y="578.1"/><text fill="#000000" font-family="sans-serif" font-size="7.2" lengthAdjust="spacing" textLength="16.8" x="292.5" y="588.5742">Land</text><line style="stroke:#383838;stroke-width:0.8999999999999999;" x1="291.3" x2="310.5" y1="593.1563" y2="593.1563"/><!--MD5=[b6ba8f09bf1d5bef69afc1eac6159059]
class System Administrator--><rect codeLine="82" fill="#F8F8F8" height="19.8563" id="System Administrator" style="stroke:#383838;stroke-width:0.8999999999999999;" width="73.8" x="357" y="8.4"/><text fill="#000000" font-family="sans-serif" font-size="7.2" lengthAdjust="spacing" textLength="70.2" x="358.8" y="18.8742">System Administrator</text><line style="stroke:#383838;stroke-width:0.8999999999999999;" x1="357.6" x2="430.2" y1="23.4563" y2="23.4563"/><!--MD5=[2364a218cd1ee9ae73d0a1646c7869a4]
class Network Manager--><rect codeLine="84" fill="#F8F8F8" height="19.8563" id="Network Manager" style="stroke:#383838;stroke-width:0.8999999999999999;" width="61.2" x="252.9" y="154.2"/><text fill="#000000" font-family="sans-serif" font-size="7.2" lengthAdjust="spacing" textLength="57.6" x="254.7" y="164.6742">Network Manager</text><line style="stroke:#383838;stroke-width:0.8999999999999999;" x1="253.5" x2="313.5" y1="169.2563" y2="169.2563"/><!--MD5=[1001d095750cb176d669e9fce7006995]
class Store Manager--><rect codeLine="86" fill="#F8F8F8" height="19.8563" id="Store Manager" style="stroke:#383838;stroke-width:0.8999999999999999;" width="51.6" x="42.9" y="154.2"/><text fill="#000000" font-family="sans-serif" font-size="7.2" lengthAdjust="spacing" textLength="48" x="44.7" y="164.6742">Store Manager</text><line style="stroke:#383838;stroke-width:0.8999999999999999;" x1="43.5" x2="93.9" y1="169.2563" y2="169.2563"/><!--MD5=[9d44916250b776386006c440668bcfbb]
class Agent--><rect codeLine="88" fill="#F8F8F8" height="19.8563" id="Agent" style="stroke:#383838;stroke-width:0.8999999999999999;" width="22.2" x="378" y="154.2"/><text fill="#000000" font-family="sans-serif" font-size="7.2" lengthAdjust="spacing" textLength="18.6" x="379.8" y="164.6742">Agent</text><line style="stroke:#383838;stroke-width:0.8999999999999999;" x1="378.6" x2="399.6" y1="169.2563" y2="169.2563"/><!--MD5=[60d6b92408f98aed8df94d5c6e04aa63]
class State--><rect codeLine="136" fill="#F8F8F8" height="28.1578" id="State" style="stroke:#383838;stroke-width:0.8999999999999999;" width="41.4" x="515.4" y="4.2"/><text fill="#000000" font-family="sans-serif" font-size="7.2" lengthAdjust="spacing" textLength="16.8" x="527.7" y="14.6742">State</text><line style="stroke:#383838;stroke-width:0.8999999999999999;" x1="516" x2="556.2" y1="19.2562" y2="19.2562"/><text fill="#000000" font-family="sans-serif" font-size="6.6" lengthAdjust="spacing" textLength="34.2" x="519" y="28.5076">String name</text><!--MD5=[c4d681900983498091bbbc67674786ba]
class District--><rect codeLine="139" fill="#F8F8F8" height="28.1578" id="District" style="stroke:#383838;stroke-width:0.8999999999999999;" width="41.4" x="514.8" y="79.2"/><text fill="#000000" font-family="sans-serif" font-size="7.2" lengthAdjust="spacing" textLength="22.8" x="524.1" y="89.6742">District</text><line style="stroke:#383838;stroke-width:0.8999999999999999;" x1="515.4" x2="555.6" y1="94.2563" y2="94.2563"/><text fill="#000000" font-family="sans-serif" font-size="6.6" lengthAdjust="spacing" textLength="34.2" x="518.4" y="103.5076">String name</text><!--MD5=[9466097c40aeafc62ec36a0cc4f3c955]
class City--><rect codeLine="142" fill="#F8F8F8" height="28.1578" id="City" style="stroke:#383838;stroke-width:0.8999999999999999;" width="41.4" x="443.4" y="573.9"/><text fill="#000000" font-family="sans-serif" font-size="7.2" lengthAdjust="spacing" textLength="12" x="458.1" y="584.3742">City</text><line style="stroke:#383838;stroke-width:0.8999999999999999;" x1="444" x2="484.2" y1="588.9563" y2="588.9563"/><text fill="#000000" font-family="sans-serif" font-size="6.6" lengthAdjust="spacing" textLength="34.2" x="447" y="598.2076">String name</text><!--MD5=[e049a9fc6087ec9a0b5519edf8a49765]
class Visit--><rect codeLine="95" fill="#F8F8F8" height="19.8563" id="Visit" style="stroke:#383838;stroke-width:0.8999999999999999;" width="17.4" x="4.2" y="154.2"/><text fill="#000000" font-family="sans-serif" font-size="7.2" lengthAdjust="spacing" textLength="13.8" x="6" y="164.6742">Visit</text><line style="stroke:#383838;stroke-width:0.8999999999999999;" x1="4.8" x2="21" y1="169.2563" y2="169.2563"/><!--MD5=[3024a812527d9511b786042d17916288]
link Network to Branch--><path codeLine="15" d="M226.764,174.174 C232.434,179.37 239.526,185.964 245.7,192 C257.964,203.994 271.272,217.614 282.33,229.11 " fill="none" id="Network-Branch" style="stroke:#383838;stroke-width:0.6;"/><polygon fill="#000000" points="261.0334,199.6147,258.4138,194.5451,255.9343,197.0531,261.0334,199.6147" style="stroke:#000000;stroke-width:0.6;"/><text fill="#000000" font-family="sans-serif" font-size="7.8" lengthAdjust="spacing" textLength="18" x="264.3" y="200.6971">owns</text><text fill="#000000" font-family="sans-serif" font-size="7.8" lengthAdjust="spacing" textLength="4.2" x="225.23" y="187.0368">1</text><text fill="#000000" font-family="sans-serif" font-size="7.8" lengthAdjust="spacing" textLength="3" x="275.1751" y="222.6161">*</text><!--MD5=[bf86fffd984e98b2fafb29961e8c0d12]
link Branch to Listing--><path codeLine="16" d="M306.9,282.222 C306.9,298.626 306.9,319.872 306.9,337.014 " fill="none" id="Branch-Listing" style="stroke:#383838;stroke-width:0.6;"/><polygon fill="#000000" points="309.9,316.9055,311.6634,311.4784,308.1366,311.4784,309.9,316.9055" style="stroke:#000000;stroke-width:0.6;"/><text fill="#000000" font-family="sans-serif" font-size="7.8" lengthAdjust="spacing" textLength="33" x="315.3" y="317.0971">publishes</text><text fill="#000000" font-family="sans-serif" font-size="7.8" lengthAdjust="spacing" textLength="4.2" x="302.3784" y="295.1266">1</text><text fill="#000000" font-family="sans-serif" font-size="7.8" lengthAdjust="spacing" textLength="3" x="303.6984" y="330.7324">*</text><!--MD5=[5b5f74f029915154b80eabdcbbfb0165]
link Listing to Property--><path codeLine="17" d="M305.484,398.628 C304.794,413.406 303.972,431.01 303.312,445.152 " fill="none" id="Listing-Property" style="stroke:#383838;stroke-width:0.6;"/><polygon fill="#000000" points="307.3601,424.9022,309.3746,419.5633,305.8517,419.3988,307.3601,424.9022" style="stroke:#000000;stroke-width:0.6;"/><text fill="#000000" font-family="sans-serif" font-size="7.8" lengthAdjust="spacing" textLength="29.4" x="312.9" y="425.0971">contains</text><text fill="#000000" font-family="sans-serif" font-size="7.8" lengthAdjust="spacing" textLength="4.2" x="300.8115" y="411.5157">1</text><text fill="#000000" font-family="sans-serif" font-size="7.8" lengthAdjust="spacing" textLength="4.2" x="298.9705" y="438.6648">1</text><!--MD5=[36e1689f9b5c2055dfec3a975c7d1f42]
link Network to Employee--><path codeLine="19" d="M212.028,174.024 C206.982,185.016 198.318,203.922 190.626,220.704 " fill="none" id="Network-Employee" style="stroke:#383838;stroke-width:0.6;"/><polygon fill="#000000" points="204.2497,200.2325,208.1144,196.0342,204.9086,194.5643,204.2497,200.2325" style="stroke:#000000;stroke-width:0.6;"/><text fill="#000000" font-family="sans-serif" font-size="7.8" lengthAdjust="spacing" textLength="29.4" x="210.9" y="200.6971">employs</text><text fill="#000000" font-family="sans-serif" font-size="7.8" lengthAdjust="spacing" textLength="4.2" x="205.7173" y="187.024">1</text><text fill="#000000" font-family="sans-serif" font-size="7.8" lengthAdjust="spacing" textLength="3" x="189.3598" y="214.372">*</text><!--MD5=[850071a18dc7ad6c377b2032da142e97]
reverse link Property to House--><path codeLine="22" d="M325.176,508.218 C332.58,519.774 340.848,532.686 348.528,544.674 " fill="none" id="Property-backto-House" style="stroke:#383838;stroke-width:0.6;"/><polygon fill="none" points="321.6,510.426,318.66,498.054,328.674,505.89,321.6,510.426" style="stroke:#383838;stroke-width:0.6;"/><!--MD5=[71833479a25abe5b48a215f80abb6d80]
reverse link Property to Apartment--><path codeLine="23" d="M278.37,508.08 C266.94,525.354 253.494,545.682 243.078,561.432 " fill="none" id="Property-backto-Apartment" style="stroke:#383838;stroke-width:0.6;"/><polygon fill="none" points="274.878,505.746,285,498.054,281.88,510.378,274.878,505.746" style="stroke:#383838;stroke-width:0.6;"/><!--MD5=[1df9c5af9dc88862e781d75dcf66ac89]
reverse link Property to Land--><path codeLine="24" d="M301.704,510.186 C301.452,534.15 301.152,563.256 300.996,577.944 " fill="none" id="Property-backto-Land" style="stroke:#383838;stroke-width:0.6;"/><polygon fill="none" points="297.504,510.006,301.83,498.054,305.904,510.096,297.504,510.006" style="stroke:#383838;stroke-width:0.6;"/><!--MD5=[6fbbd20a6288e7fcf4ceda2afb36b49e]
link System Administrator to Employee--><path codeLine="27" d="M356.898,22.008 C309.18,26.52 229.284,35.97 203.7,50.4 C165.48,71.952 154.71,84.24 139.5,125.4 C129.348,152.874 137.676,184.584 148.794,209.76 " fill="none" id="System Administrator-to-Employee" style="stroke:#383838;stroke-width:0.6;"/><polygon fill="none" points="152.61,208.008,153.954,220.65,145.02,211.608,152.61,208.008" style="stroke:#383838;stroke-width:0.6;"/><!--MD5=[6fbbd20a6288e7fcf4ceda2afb36b49e]
link System Administrator to Employee--><path codeLine="34" d="M367.56,28.248 C323.004,45.54 233.436,87.018 190.5,154.2 C178.596,172.824 174.594,197.25 173.616,217.392 " fill="none" id="System Administrator-to-Employee-1" style="stroke:#383838;stroke-width:0.6;"/><polygon fill="#383838" points="173.484,220.59,176.0979,215.2902,173.6039,217.5924,171.3017,215.0984,173.484,220.59" style="stroke:#383838;stroke-width:0.6;"/><polygon fill="#000000" points="212.9523,133,218.0687,130.4733,215.6064,127.9485,212.9523,133" style="stroke:#000000;stroke-width:0.6;"/><text fill="#000000" font-family="sans-serif" font-size="7.8" lengthAdjust="spacing" textLength="30" x="220.5" y="134.0971">registers</text><text fill="#000000" font-family="sans-serif" font-size="7.8" lengthAdjust="spacing" textLength="4.2" x="354.2948" y="41.0706">1</text><text fill="#000000" font-family="sans-serif" font-size="7.8" lengthAdjust="spacing" textLength="3" x="170.1286" y="214.2441">*</text><!--MD5=[ef770231e2e958b9c8370fb4709a78e8]
link Network Manager to Employee--><path codeLine="28" d="M275.016,174.03 C267.588,181.998 256.35,193.602 245.7,202.8 C237,210.312 227.292,217.92 217.926,224.916 " fill="none" id="Network Manager-to-Employee" style="stroke:#383838;stroke-width:0.6;"/><polygon fill="none" points="220.116,228.522,207.96,232.236,215.148,221.748,220.116,228.522" style="stroke:#383838;stroke-width:0.6;"/><!--MD5=[a0eac7a77f99ea41cc2f713f37ee0a0c]
link Store Manager to Employee--><path codeLine="29" d="M78.744,174.096 C87.168,181.902 99.57,193.242 110.7,202.8 C117.63,208.758 125.082,214.974 132.372,220.956 " fill="none" id="Store Manager-to-Employee" style="stroke:#383838;stroke-width:0.6;"/><polygon fill="none" points="135.15,217.806,141.792,228.648,129.84,224.316,135.15,217.806" style="stroke:#383838;stroke-width:0.6;"/><!--MD5=[ac3cede51208cdd8a80b25d109d531c9]
link Agent to Employee--><path codeLine="30" d="M377.886,169.428 C348.744,181.71 269.406,215.16 218.982,236.418 " fill="none" id="Agent-to-Employee" style="stroke:#383838;stroke-width:0.6;"/><polygon fill="none" points="220.608,240.288,207.918,241.08,217.344,232.548,220.608,240.288" style="stroke:#383838;stroke-width:0.6;"/><!--MD5=[7a4d3cb2f39225ac59669630e58ab29c]
link Employee to Branch--><path codeLine="32" d="M208.038,255.6 C228.126,255.6 253.662,255.6 273.75,255.6 " fill="none" id="Employee-Branch" style="stroke:#383838;stroke-width:0.6;"/><polygon fill="#000000" points="224.4,248.5055,218.9729,246.7421,218.9729,250.2688,224.4,248.5055" style="stroke:#000000;stroke-width:0.6;"/><text fill="#000000" font-family="sans-serif" font-size="7.8" lengthAdjust="spacing" textLength="36" x="226.8" y="251.6971">works at a</text><text fill="#000000" font-family="sans-serif" font-size="7.8" lengthAdjust="spacing" textLength="4.2" x="212.7731" y="253.4618">1</text><text fill="#000000" font-family="sans-serif" font-size="7.8" lengthAdjust="spacing" textLength="4.2" x="264.8133" y="253.4486">1</text><!--MD5=[4ba2be7eaeb1979e59fefa42ffa2f3f7]
link System Administrator to Branch--><path codeLine="35" d="M390.384,28.446 C378.15,61.638 337.164,172.866 317.544,226.116 " fill="none" id="System Administrator-to-Branch" style="stroke:#383838;stroke-width:0.6;"/><polygon fill="#383838" points="316.452,229.074,320.5726,224.8384,317.4903,226.2594,316.0693,223.1771,316.452,229.074" style="stroke:#383838;stroke-width:0.6;"/><polygon fill="#000000" points="356.2627,133.7204,359.7938,129.2378,356.4846,128.0184,356.2627,133.7204" style="stroke:#000000;stroke-width:0.6;"/><text fill="#000000" font-family="sans-serif" font-size="7.8" lengthAdjust="spacing" textLength="30" x="362.7" y="134.0971">registers</text><text fill="#000000" font-family="sans-serif" font-size="7.8" lengthAdjust="spacing" textLength="4.2" x="384.4641" y="41.144">1</text><text fill="#000000" font-family="sans-serif" font-size="7.8" lengthAdjust="spacing" textLength="3" x="314.685" y="222.7703">*</text><!--MD5=[3f987719205f918c861bbaa02d17eed8]
link System Administrator to State--><path codeLine="38" d="M430.89,18.3 C456.54,18.3 489.948,18.3 512.166,18.3 " fill="none" id="System Administrator-to-State" style="stroke:#383838;stroke-width:0.6;"/><polygon fill="#383838" points="515.358,18.3,509.958,15.9,512.358,18.3,509.958,20.7,515.358,18.3" style="stroke:#383838;stroke-width:0.6;"/><polygon fill="#000000" points="459.3,11.2055,453.8729,9.4421,453.8729,12.9688,459.3,11.2055" style="stroke:#000000;stroke-width:0.6;"/><text fill="#000000" font-family="sans-serif" font-size="7.8" lengthAdjust="spacing" textLength="30.6" x="461.7" y="14.3971">specifies</text><text fill="#000000" font-family="sans-serif" font-size="7.8" lengthAdjust="spacing" textLength="4.2" x="435.6541" y="16.2215">1</text><text fill="#000000" font-family="sans-serif" font-size="7.8" lengthAdjust="spacing" textLength="3" x="507.4926" y="15.7748">*</text><!--MD5=[1532415400bc0bc69f6141f1b0d023e4]
link System Administrator to District--><path codeLine="39" d="M423.18,28.236 C439.074,33.786 458.832,41.484 475.5,50.4 C489.816,58.056 504.738,68.568 516.12,77.196 " fill="none" id="System Administrator-to-District" style="stroke:#383838;stroke-width:0.6;"/><polygon fill="#383838" points="518.64,79.116,515.8132,73.9267,516.2586,77.2914,512.8939,77.7369,518.64,79.116" style="stroke:#383838;stroke-width:0.6;"/><polygon fill="#000000" points="497.9542,57.3037,493.9745,53.2142,492.3308,56.3344,497.9542,57.3037" style="stroke:#000000;stroke-width:0.6;"/><text fill="#000000" font-family="sans-serif" font-size="7.8" lengthAdjust="spacing" textLength="30.6" x="500.7" y="59.0971">specifies</text><text fill="#000000" font-family="sans-serif" font-size="7.8" lengthAdjust="spacing" textLength="4.2" x="427.9834" y="41.24">1</text><text fill="#000000" font-family="sans-serif" font-size="7.8" lengthAdjust="spacing" textLength="3" x="510.9352" y="72.7809">*</text><!--MD5=[5ba6173601dc3ba2f09501eb706ca8f9]
link System Administrator to City--><path codeLine="40" d="M412.53,28.218 C433.326,40.092 464.1,62.724 464.1,92.7 C464.1,92.7 464.1,92.7 464.1,472.2 C464.1,507.18 464.1,548.136 464.1,570.57 " fill="none" id="System Administrator-to-City" style="stroke:#383838;stroke-width:0.6;"/><polygon fill="#383838" points="464.1,573.744,466.5,568.344,464.1,570.744,461.7,568.344,464.1,573.744" style="stroke:#383838;stroke-width:0.6;"/><polygon fill="#000000" points="467.384,258.692,468.6257,253.1224,465.1148,253.4562,467.384,258.692" style="stroke:#000000;stroke-width:0.6;"/><text fill="#000000" font-family="sans-serif" font-size="7.8" lengthAdjust="spacing" textLength="30.6" x="472.5" y="258.8971">specifies</text><text fill="#000000" font-family="sans-serif" font-size="7.8" lengthAdjust="spacing" textLength="4.2" x="413.8056" y="41.216">1</text><text fill="#000000" font-family="sans-serif" font-size="7.8" lengthAdjust="spacing" textLength="3" x="460.7156" y="567.3904">*</text><!--MD5=[5487656f09e336a36fbed6ab6c5d7c51]
link Buyer to Client--><path codeLine="44" d="M145.692,377.868 C149.112,394.092 156.162,427.59 160.812,449.676 " fill="none" id="Buyer-to-Client" style="stroke:#383838;stroke-width:0.6;"/><polygon fill="none" points="164.952,448.944,163.314,461.556,156.732,450.678,164.952,448.944" style="stroke:#383838;stroke-width:0.6;"/><!--MD5=[494dd7e2e90f16a1957f0549ca9be0b3]
link Seller to Client--><path codeLine="45" d="M185.454,377.868 C181.938,394.092 174.69,427.59 169.914,449.676 " fill="none" id="Seller-to-Client" style="stroke:#383838;stroke-width:0.6;"/><polygon fill="none" points="173.988,450.714,167.346,461.556,165.774,448.938,173.988,450.714" style="stroke:#383838;stroke-width:0.6;"/><!--MD5=[7c96604d78e947ece2a9dd32323a19f1]
link Seller to Property--><path codeLine="48" d="M198.078,377.868 C214.974,393 248.658,423.15 273.126,445.062 " fill="none" id="Seller-Property" style="stroke:#383838;stroke-width:0.6;"/><polygon fill="#000000" points="256.335,423.9066,253.4681,418.9728,251.1156,421.6002,256.335,423.9066" style="stroke:#000000;stroke-width:0.6;"/><text fill="#000000" font-family="sans-serif" font-size="7.8" lengthAdjust="spacing" textLength="18" x="259.5" y="425.0971">owns</text><text fill="#000000" font-family="sans-serif" font-size="7.8" lengthAdjust="spacing" textLength="4.2" x="196.5804" y="390.7289">1</text><text fill="#000000" font-family="sans-serif" font-size="7.8" lengthAdjust="spacing" textLength="3" x="265.4597" y="438.7565">*</text><!--MD5=[520da7d6181802dbc1012da4c8d59dfe]
link Seller to Listing--><path codeLine="49" d="M198.948,367.8 C211.848,367.8 233.724,367.8 254.424,367.8 " fill="none" id="Seller-Listing" style="stroke:#383838;stroke-width:0.6;"/><polygon fill="#000000" points="215.4,360.7055,209.9729,358.9421,209.9729,362.4688,215.4,360.7055" style="stroke:#000000;stroke-width:0.6;"/><text fill="#000000" font-family="sans-serif" font-size="7.8" lengthAdjust="spacing" textLength="25.8" x="217.8" y="363.8971">creates</text><text fill="#000000" font-family="sans-serif" font-size="7.8" lengthAdjust="spacing" textLength="4.2" x="203.7745" y="364.6146">1</text><text fill="#000000" font-family="sans-serif" font-size="7.8" lengthAdjust="spacing" textLength="3" x="246.9541" y="365.9015">*</text><!--MD5=[541c0bc34b88b1d624520f33a17d788f]
link Agent to Listing--><path codeLine="50" d="M388.704,174.018 C387.282,199.038 380.958,269.184 353.7,319.2 C350.244,325.536 345.72,331.62 340.848,337.2 " fill="none" id="Agent-Listing" style="stroke:#383838;stroke-width:0.6;"/><polygon fill="#000000" points="385.8558,258.5842,389.0751,253.8727,385.6909,252.8803,385.8558,258.5842" style="stroke:#000000;stroke-width:0.6;"/><text fill="#000000" font-family="sans-serif" font-size="7.8" lengthAdjust="spacing" textLength="30" x="392.1" y="258.8971">validates</text><text fill="#000000" font-family="sans-serif" font-size="7.8" lengthAdjust="spacing" textLength="4.2" x="383.6772" y="187.016">1</text><text fill="#000000" font-family="sans-serif" font-size="7.8" lengthAdjust="spacing" textLength="3" x="342.411" y="330.7222">*</text><!--MD5=[89c562c8c811638d631578af28e73bf4]
link Visit to Buyer--><path codeLine="51" d="M18.672,174.066 C31.614,195.024 64.032,247.272 92.1,290.4 C108.048,314.904 127.398,343.386 137.256,357.798 " fill="none" id="Visit-Buyer" style="stroke:#383838;stroke-width:0.6;"/><polygon fill="#000000" points="93.4732,253.1849,94.9346,258.7009,97.8977,256.7884,93.4732,253.1849" style="stroke:#000000;stroke-width:0.6;"/><text fill="#000000" font-family="sans-serif" font-size="7.8" lengthAdjust="spacing" textLength="30" x="100.5" y="258.8971">requests</text><text fill="#000000" font-family="sans-serif" font-size="7.8" lengthAdjust="spacing" textLength="4.2" x="15.6425" y="186.8944">1</text><text fill="#000000" font-family="sans-serif" font-size="7.8" lengthAdjust="spacing" textLength="4.2" x="130.2258" y="351.4175">1</text><!--MD5=[8a4d2d2da763b08b62d16811c968bdfd]
link Visit to Agent--><path codeLine="52" d="M21.666,158.964 C24.87,157.254 28.572,155.466 32.1,154.2 C78.324,137.604 91.266,136.032 140.1,130.8 C238.488,120.264 265.44,130.476 361.5,154.2 C367.038,155.568 373.008,157.632 377.982,159.522 " fill="none" id="Visit-Agent" style="stroke:#383838;stroke-width:0.6;"/><polygon fill="#000000" points="146.1,130.9102,140.6757,129.1383,140.6702,132.665,146.1,130.9102" style="stroke:#000000;stroke-width:0.6;"/><text fill="#000000" font-family="sans-serif" font-size="7.8" lengthAdjust="spacing" textLength="46.2" x="148.5" y="134.0971">scheduled by</text><text fill="#000000" font-family="sans-serif" font-size="7.8" lengthAdjust="spacing" textLength="4.2" x="26.4199" y="153.1479">1</text><text fill="#000000" font-family="sans-serif" font-size="7.8" lengthAdjust="spacing" textLength="4.2" x="369.0731" y="154.7057">1</text><!--MD5=[b4951d80af0a970d0a42cd43699e93ff]
link Property to City--><path codeLine="55" d="M340.35,491.724 C372.528,508.53 415.602,532.026 430.5,544.8 C440.298,553.2 449.232,564.81 455.418,573.786 " fill="none" id="Property-City" style="stroke:#383838;stroke-width:0.6;"/><polygon fill="#000000" points="406.5425,523.2474,403.1478,518.6606,401.1001,521.5319,406.5425,523.2474" style="stroke:#000000;stroke-width:0.6;"/><text fill="#000000" font-family="sans-serif" font-size="7.8" lengthAdjust="spacing" textLength="33.6" x="409.5" y="524.6971">located in</text><text fill="#000000" font-family="sans-serif" font-size="7.8" lengthAdjust="spacing" textLength="4.2" x="345.0155" y="491.9899">1</text><text fill="#000000" font-family="sans-serif" font-size="7.8" lengthAdjust="spacing" textLength="4.2" x="448.4551" y="567.4432">1</text><!--MD5=[cd1097b4d6b53e13878caf984aed34c4]
link District to City--><path codeLine="56" d="M535.5,107.502 C535.5,121.53 535.5,144.048 535.5,163.5 C535.5,163.5 535.5,163.5 535.5,472.2 C535.5,514.32 500.592,553.86 479.592,573.834 " fill="none" id="District-City" style="stroke:#383838;stroke-width:0.6;"/><polygon fill="#000000" points="538.8571,310.9268,536.4603,316.1054,539.9619,316.5252,538.8571,310.9268" style="stroke:#000000;stroke-width:0.6;"/><text fill="#000000" font-family="sans-serif" font-size="7.8" lengthAdjust="spacing" textLength="33.6" x="543.9" y="317.0971">located in</text><text fill="#000000" font-family="sans-serif" font-size="7.8" lengthAdjust="spacing" textLength="4.2" x="530.7881" y="120.2617">1</text><text fill="#000000" font-family="sans-serif" font-size="7.8" lengthAdjust="spacing" textLength="3" x="480.1775" y="567.5035">*</text><!--MD5=[9507060b9b8dd58465f9ccdeabbe9f6e]
link State to District--><path codeLine="57" d="M537.942,32.418 C538.848,40.722 539.646,51.57 539.1,61.2 C538.764,67.08 538.08,73.548 537.396,79.086 " fill="none" id="State-District" style="stroke:#383838;stroke-width:0.6;"/><polygon fill="#000000" points="542.1351,52.9057,540.3084,58.3117,543.8348,58.353,542.1351,52.9057" style="stroke:#000000;stroke-width:0.6;"/><text fill="#000000" font-family="sans-serif" font-size="7.8" lengthAdjust="spacing" textLength="33.6" x="547.5" y="59.0971">located in</text><text fill="#000000" font-family="sans-serif" font-size="7.8" lengthAdjust="spacing" textLength="4.2" x="533.6791" y="45.1572">1</text><text fill="#000000" font-family="sans-serif" font-size="7.8" lengthAdjust="spacing" textLength="3" x="534.4975" y="72.7432">*</text><!--MD5=[f5b94358cff9449e7af1131d16afd4fb]
@startuml
'https://plantuml.com/class-diagram

skinparam monochrome true
skinparam packageStyle rectangle
skinparam shadowing false

'skinparam linetype ortho
'left to right direction
skinparam classAttributeIconSize 0
skinparam groupInheritance 1
hide circle
hide methods


Network "1" - - "*" Branch: owns >
Branch "1" - - "*" Listing: publishes >
Listing "1" - - "1" Property: contains >

Network "1" - - "*" Employee: employs >


Property <|- - House
Property <|- - Apartment
Property <|- - Land


"System Administrator" - -|> Employee
"Network Manager" - -|> Employee
"Store Manager" - -|> Employee
Agent - -|> Employee

Employee "1" - "1" Branch: works at a >

"System Administrator" "1" - - - -> "*" Employee: registers >
"System Administrator" "1" - - -> "*" Branch: registers >


"System Administrator" "1" -> "*" State: specifies >
"System Administrator" "1" -> "*" District: specifies >
"System Administrator" "1" -> "*" City: specifies >


together {
Buyer - -|> Client
Seller - -|> Client
}

Seller "1" - "*" Property: owns >
Seller "1" - "*" Listing: creates >
Agent "1" - "*" Listing: validates >
Visit "1" - "1" Buyer: requests <
Visit "1" - "1" Agent: scheduled by >

together {
Property "1" - - "1" City: located in >
District "1" - - "*" City: located in <
State "1" - - "*" District: located in <
}


class Network{

}

class Branch{
name:String
address:String
email:String
phoneNumber:String
}

class Employee{
String name
int cCNumber
int taxNumber
String address
String email
String phoneNumber
}

together {
class "System Administrator"

class "Network Manager"

class "Store Manager"

class Agent
}

class Client
class Buyer
class Seller

class Visit{

}

class Listing{
int listingID
bool visible
float price
float commission
TypeOfBusiness typeOfBusiness
}


class Property{
float area
City city
float cityCenterDistance
List<Image> photograph
}

class House{
int numberOfBedrooms
int numberOfBathrooms
int numberOfParkingSpaces
List<String> equipment
bool hasBasement

bool hasInhabitableLoft
SunExposure sunExposure
}

class Apartment{
int numberOfBedrooms
int numberOfBathrooms
int numberOfParkingSpaces
List<String> equipment
}

class Land{
}

class State{
String name
}
class District{
String name
}
class City{
String name
}



@enduml

@startuml

skinparam monochrome true
skinparam packageStyle rectangle
skinparam shadowing false

skinparam classAttributeIconSize 0
skinparam groupInheritance 1
hide circle
hide methods


Network "1" - - "*" Branch: owns >
Branch "1" - - "*" Listing: publishes >
Listing "1" - - "1" Property: contains >

Network "1" - - "*" Employee: employs >


Property <|- - House
Property <|- - Apartment
Property <|- - Land


"System Administrator" - -|> Employee
"Network Manager" - -|> Employee
"Store Manager" - -|> Employee
Agent - -|> Employee

Employee "1" - "1" Branch: works at a >

"System Administrator" "1" - - - -> "*" Employee: registers >
"System Administrator" "1" - - -> "*" Branch: registers >


"System Administrator" "1" -> "*" State: specifies >
"System Administrator" "1" -> "*" District: specifies >
"System Administrator" "1" -> "*" City: specifies >


together {
Buyer - -|> Client
Seller - -|> Client
}

Seller "1" - "*" Property: owns >
Seller "1" - "*" Listing: creates >
Agent "1" - "*" Listing: validates >
Visit "1" - "1" Buyer: requests <
Visit "1" - "1" Agent: scheduled by >

together {
Property "1" - - "1" City: located in >
District "1" - - "*" City: located in <
State "1" - - "*" District: located in <
}


class Network{

}

class Branch{
name:String
address:String
email:String
phoneNumber:String
}

class Employee{
String name
int cCNumber
int taxNumber
String address
String email
String phoneNumber
}

together {
class "System Administrator"

class "Network Manager"

class "Store Manager"

class Agent
}

class Client
class Buyer
class Seller

class Visit{

}

class Listing{
int listingID
bool visible
float price
float commission
TypeOfBusiness typeOfBusiness
}


class Property{
float area
City city
float cityCenterDistance
List<Image> photograph
}

class House{
int numberOfBedrooms
int numberOfBathrooms
int numberOfParkingSpaces
List<String> equipment
bool hasBasement

bool hasInhabitableLoft
SunExposure sunExposure
}

class Apartment{
int numberOfBedrooms
int numberOfBathrooms
int numberOfParkingSpaces
List<String> equipment
}

class Land{
}

class State{
String name
}
class District{
String name
}
class City{
String name
}



@enduml

PlantUML version 1.2022.1(Tue Feb 01 18:19:58 GMT 2022)
(GPL source distribution)
Java Runtime: OpenJDK Runtime Environment
JVM: OpenJDK 64-Bit Server VM
Default Encoding: Cp1252
Language: en
Country: US
--></g></svg>