<?xml version="1.0" encoding="UTF-8" standalone="no"?><svg xmlns="http://www.w3.org/2000/svg" xmlns:xlink="http://www.w3.org/1999/xlink" contentScriptType="application/ecmascript" contentStyleType="text/css" height="1058px" preserveAspectRatio="none" style="width:976px;height:1058px;background:#FFFFFF;" version="1.1" viewBox="0 0 976 1058" width="976px" zoomAndPan="magnify"><defs/><g><!--MD5=[2a6a992e699eac248da01b98a6cecd43]
class Buyer--><rect codeLine="92" fill="#F8F8F8" height="33.0938" id="Buyer" style="stroke:#383838;stroke-width:1.5;" width="37" x="221" y="596.5"/><text fill="#000000" font-family="sans-serif" font-size="12" lengthAdjust="spacing" textLength="31" x="224" y="613.957">Buyer</text><line style="stroke:#383838;stroke-width:1.5;" x1="222" x2="257" y1="621.5938" y2="621.5938"/><!--MD5=[ed6624c6556d5e7b1bd23032162d20b7]
class Client--><rect codeLine="91" fill="#F8F8F8" height="33.0938" id="Client" style="stroke:#383838;stroke-width:1.5;" width="38" x="256.5" y="769.5"/><text fill="#000000" font-family="sans-serif" font-size="12" lengthAdjust="spacing" textLength="32" x="259.5" y="786.957">Client</text><line style="stroke:#383838;stroke-width:1.5;" x1="257.5" x2="293.5" y1="794.5938" y2="794.5938"/><!--MD5=[43844b47726d9c4702f600b824e35ead]
class Seller--><rect codeLine="93" fill="#F8F8F8" height="33.0938" id="Seller" style="stroke:#383838;stroke-width:1.5;" width="38" x="293.5" y="596.5"/><text fill="#000000" font-family="sans-serif" font-size="12" lengthAdjust="spacing" textLength="32" x="296.5" y="613.957">Seller</text><line style="stroke:#383838;stroke-width:1.5;" x1="294.5" x2="330.5" y1="621.5938" y2="621.5938"/><!--MD5=[4f02b8ffba76851394d7f7bedc10a3c9]
entity ##68813--><!--MD5=[8ae1267ba05f2f7a0ed4fdb21e4360ab]
entity ##68818--><!--MD5=[ec81f511f4d20a18ef555a8be4cd58b8]
class Network--><rect codeLine="61" fill="#F8F8F8" height="33.0938" id="Network" style="stroke:#383838;stroke-width:1.5;" width="51" x="335" y="257"/><text fill="#000000" font-family="sans-serif" font-size="12" lengthAdjust="spacing" textLength="45" x="338" y="274.457">Network</text><line style="stroke:#383838;stroke-width:1.5;" x1="336" x2="385" y1="282.0938" y2="282.0938"/><!--MD5=[6d7d587a021629470fd0d5f8ef3407c9]
class Branch--><rect codeLine="65" fill="#F8F8F8" height="88.4375" id="Branch" style="stroke:#383838;stroke-width:1.5;" width="110" x="456.5" y="382"/><text fill="#000000" font-family="sans-serif" font-size="12" lengthAdjust="spacing" textLength="39" x="492" y="399.457">Branch</text><line style="stroke:#383838;stroke-width:1.5;" x1="457.5" x2="565.5" y1="407.0938" y2="407.0938"/><text fill="#000000" font-family="sans-serif" font-size="11" lengthAdjust="spacing" textLength="57" x="462.5" y="422.5127">name:String</text><text fill="#000000" font-family="sans-serif" font-size="11" lengthAdjust="spacing" textLength="71" x="462.5" y="436.3486">address:String</text><text fill="#000000" font-family="sans-serif" font-size="11" lengthAdjust="spacing" textLength="55" x="462.5" y="450.1846">email:String</text><text fill="#000000" font-family="sans-serif" font-size="11" lengthAdjust="spacing" textLength="98" x="462.5" y="464.0205">phoneNumber:String</text><!--MD5=[04df7bfd972d2d3ea0273e95b66a80a5]
class Announcement--><rect codeLine="99" fill="#F8F8F8" height="102.2734" id="Announcement" style="stroke:#383838;stroke-width:1.5;" width="174" x="424.5" y="562"/><text fill="#000000" font-family="sans-serif" font-size="12" lengthAdjust="spacing" textLength="83" x="470" y="579.457">Announcement</text><line style="stroke:#383838;stroke-width:1.5;" x1="425.5" x2="597.5" y1="587.0938" y2="587.0938"/><text fill="#000000" font-family="sans-serif" font-size="11" lengthAdjust="spacing" textLength="50" x="430.5" y="602.5127">int listingID</text><text fill="#000000" font-family="sans-serif" font-size="11" lengthAdjust="spacing" textLength="53" x="430.5" y="616.3486">bool visible</text><text fill="#000000" font-family="sans-serif" font-size="11" lengthAdjust="spacing" textLength="48" x="430.5" y="630.1846">float price</text><text fill="#000000" font-family="sans-serif" font-size="11" lengthAdjust="spacing" textLength="80" x="430.5" y="644.0205">float commission</text><text fill="#000000" font-family="sans-serif" font-size="11" lengthAdjust="spacing" textLength="162" x="430.5" y="657.8564">TypeOfBusiness typeOfBusiness</text><!--MD5=[6b626634f3bb0842bebd5e499c80b711]
class Property--><rect codeLine="108" fill="#F8F8F8" height="88.4375" id="Property" style="stroke:#383838;stroke-width:1.5;" width="127" x="440" y="742"/><text fill="#000000" font-family="sans-serif" font-size="12" lengthAdjust="spacing" textLength="45" x="481" y="759.457">Property</text><line style="stroke:#383838;stroke-width:1.5;" x1="441" x2="566" y1="767.0938" y2="767.0938"/><text fill="#000000" font-family="sans-serif" font-size="11" lengthAdjust="spacing" textLength="46" x="446" y="782.5127">float area</text><text fill="#000000" font-family="sans-serif" font-size="11" lengthAdjust="spacing" textLength="38" x="446" y="796.3486">City city</text><text fill="#000000" font-family="sans-serif" font-size="11" lengthAdjust="spacing" textLength="115" x="446" y="810.1846">float cityCenterDistance</text><text fill="#000000" font-family="sans-serif" font-size="11" lengthAdjust="spacing" textLength="115" x="446" y="824.0205">List&lt;Image&gt; photograph</text><!--MD5=[7421f545a0d8420c5bec41e74b387d9c]
class Employee--><rect codeLine="72" fill="#F8F8F8" height="116.1094" id="Employee" style="stroke:#383838;stroke-width:1.5;" width="110" x="236.5" y="368"/><text fill="#000000" font-family="sans-serif" font-size="12" lengthAdjust="spacing" textLength="55" x="264" y="385.457">Employee</text><line style="stroke:#383838;stroke-width:1.5;" x1="237.5" x2="345.5" y1="393.0938" y2="393.0938"/><text fill="#000000" font-family="sans-serif" font-size="11" lengthAdjust="spacing" textLength="57" x="242.5" y="408.5127">String name</text><text fill="#000000" font-family="sans-serif" font-size="11" lengthAdjust="spacing" textLength="64" x="242.5" y="422.3486">int cCNumber</text><text fill="#000000" font-family="sans-serif" font-size="11" lengthAdjust="spacing" textLength="66" x="242.5" y="436.1846">int taxNumber</text><text fill="#000000" font-family="sans-serif" font-size="11" lengthAdjust="spacing" textLength="71" x="242.5" y="450.0205">String address</text><text fill="#000000" font-family="sans-serif" font-size="11" lengthAdjust="spacing" textLength="55" x="242.5" y="463.8564">String email</text><text fill="#000000" font-family="sans-serif" font-size="11" lengthAdjust="spacing" textLength="98" x="242.5" y="477.6924">String phoneNumber</text><!--MD5=[5005bba8c6d1dda988b0bcc8eba409f6]
class House--><rect codeLine="115" fill="#F8F8F8" height="143.7813" id="House" style="stroke:#383838;stroke-width:1.5;" width="146" x="553.5" y="908"/><text fill="#000000" font-family="sans-serif" font-size="12" lengthAdjust="spacing" textLength="37" x="608" y="925.457">House</text><line style="stroke:#383838;stroke-width:1.5;" x1="554.5" x2="698.5" y1="933.0938" y2="933.0938"/><text fill="#000000" font-family="sans-serif" font-size="11" lengthAdjust="spacing" textLength="111" x="559.5" y="948.5127">int numberOfBedrooms</text><text fill="#000000" font-family="sans-serif" font-size="11" lengthAdjust="spacing" textLength="114" x="559.5" y="962.3486">int numberOfBathrooms</text><text fill="#000000" font-family="sans-serif" font-size="11" lengthAdjust="spacing" textLength="134" x="559.5" y="976.1846">int numberOfParkingSpaces</text><text fill="#000000" font-family="sans-serif" font-size="11" lengthAdjust="spacing" textLength="109" x="559.5" y="990.0205">List&lt;String&gt; equipment</text><text fill="#000000" font-family="sans-serif" font-size="11" lengthAdjust="spacing" textLength="89" x="559.5" y="1003.8564">bool hasBasement</text><text fill="#000000" font-family="sans-serif" font-size="11" lengthAdjust="spacing" textLength="0" x="562.5" y="1017.6924"/><text fill="#000000" font-family="sans-serif" font-size="11" lengthAdjust="spacing" textLength="111" x="559.5" y="1031.5283">bool hasInhabitableLoft</text><text fill="#000000" font-family="sans-serif" font-size="11" lengthAdjust="spacing" textLength="132" x="559.5" y="1045.3643">SunExposure sunExposure</text><!--MD5=[7938f2b00af14ba76f29cd64fe89cba4]
class Apartment--><rect codeLine="126" fill="#F8F8F8" height="88.4375" id="Apartment" style="stroke:#383838;stroke-width:1.5;" width="146" x="303.5" y="936"/><text fill="#000000" font-family="sans-serif" font-size="12" lengthAdjust="spacing" textLength="56" x="348.5" y="953.457">Apartment</text><line style="stroke:#383838;stroke-width:1.5;" x1="304.5" x2="448.5" y1="961.0938" y2="961.0938"/><text fill="#000000" font-family="sans-serif" font-size="11" lengthAdjust="spacing" textLength="111" x="309.5" y="976.5127">int numberOfBedrooms</text><text fill="#000000" font-family="sans-serif" font-size="11" lengthAdjust="spacing" textLength="114" x="309.5" y="990.3486">int numberOfBathrooms</text><text fill="#000000" font-family="sans-serif" font-size="11" lengthAdjust="spacing" textLength="134" x="309.5" y="1004.1846">int numberOfParkingSpaces</text><text fill="#000000" font-family="sans-serif" font-size="11" lengthAdjust="spacing" textLength="109" x="309.5" y="1018.0205">List&lt;String&gt; equipment</text><!--MD5=[3b2ebc2a82a6ca42650088e4a2410713]
class Land--><rect codeLine="133" fill="#F8F8F8" height="33.0938" id="Land" style="stroke:#383838;stroke-width:1.5;" width="34" x="484.5" y="963.5"/><text fill="#000000" font-family="sans-serif" font-size="12" lengthAdjust="spacing" textLength="28" x="487.5" y="980.957">Land</text><line style="stroke:#383838;stroke-width:1.5;" x1="485.5" x2="517.5" y1="988.5938" y2="988.5938"/><!--MD5=[b6ba8f09bf1d5bef69afc1eac6159059]
class System Administrator--><rect codeLine="82" fill="#F8F8F8" height="33.0938" id="System Administrator" style="stroke:#383838;stroke-width:1.5;" width="123" x="595" y="14"/><text fill="#000000" font-family="sans-serif" font-size="12" lengthAdjust="spacing" textLength="117" x="598" y="31.457">System Administrator</text><line style="stroke:#383838;stroke-width:1.5;" x1="596" x2="717" y1="39.0938" y2="39.0938"/><!--MD5=[2364a218cd1ee9ae73d0a1646c7869a4]
class Network Manager--><rect codeLine="84" fill="#F8F8F8" height="33.0938" id="Network Manager" style="stroke:#383838;stroke-width:1.5;" width="102" x="421.5" y="257"/><text fill="#000000" font-family="sans-serif" font-size="12" lengthAdjust="spacing" textLength="96" x="424.5" y="274.457">Network Manager</text><line style="stroke:#383838;stroke-width:1.5;" x1="422.5" x2="522.5" y1="282.0938" y2="282.0938"/><!--MD5=[1001d095750cb176d669e9fce7006995]
class Store Manager--><rect codeLine="86" fill="#F8F8F8" height="33.0938" id="Store Manager" style="stroke:#383838;stroke-width:1.5;" width="86" x="71.5" y="257"/><text fill="#000000" font-family="sans-serif" font-size="12" lengthAdjust="spacing" textLength="80" x="74.5" y="274.457">Store Manager</text><line style="stroke:#383838;stroke-width:1.5;" x1="72.5" x2="156.5" y1="282.0938" y2="282.0938"/><!--MD5=[9d44916250b776386006c440668bcfbb]
class Agent--><rect codeLine="88" fill="#F8F8F8" height="33.0938" id="Agent" style="stroke:#383838;stroke-width:1.5;" width="37" x="630" y="257"/><text fill="#000000" font-family="sans-serif" font-size="12" lengthAdjust="spacing" textLength="31" x="633" y="274.457">Agent</text><line style="stroke:#383838;stroke-width:1.5;" x1="631" x2="666" y1="282.0938" y2="282.0938"/><!--MD5=[60d6b92408f98aed8df94d5c6e04aa63]
class State--><rect codeLine="136" fill="#F8F8F8" height="46.9297" id="State" style="stroke:#383838;stroke-width:1.5;" width="69" x="859" y="7"/><text fill="#000000" font-family="sans-serif" font-size="12" lengthAdjust="spacing" textLength="28" x="879.5" y="24.457">State</text><line style="stroke:#383838;stroke-width:1.5;" x1="860" x2="927" y1="32.0938" y2="32.0938"/><text fill="#000000" font-family="sans-serif" font-size="11" lengthAdjust="spacing" textLength="57" x="865" y="47.5127">String name</text><!--MD5=[c4d681900983498091bbbc67674786ba]
class District--><rect codeLine="139" fill="#F8F8F8" height="46.9297" id="District" style="stroke:#383838;stroke-width:1.5;" width="69" x="858" y="132"/><text fill="#000000" font-family="sans-serif" font-size="12" lengthAdjust="spacing" textLength="38" x="873.5" y="149.457">District</text><line style="stroke:#383838;stroke-width:1.5;" x1="859" x2="926" y1="157.0938" y2="157.0938"/><text fill="#000000" font-family="sans-serif" font-size="11" lengthAdjust="spacing" textLength="57" x="864" y="172.5127">String name</text><!--MD5=[9466097c40aeafc62ec36a0cc4f3c955]
class City--><rect codeLine="142" fill="#F8F8F8" height="46.9297" id="City" style="stroke:#383838;stroke-width:1.5;" width="69" x="739" y="956.5"/><text fill="#000000" font-family="sans-serif" font-size="12" lengthAdjust="spacing" textLength="20" x="763.5" y="973.957">City</text><line style="stroke:#383838;stroke-width:1.5;" x1="740" x2="807" y1="981.5938" y2="981.5938"/><text fill="#000000" font-family="sans-serif" font-size="11" lengthAdjust="spacing" textLength="57" x="745" y="997.0127">String name</text><!--MD5=[e049a9fc6087ec9a0b5519edf8a49765]
class Visit--><rect codeLine="95" fill="#F8F8F8" height="33.0938" id="Visit" style="stroke:#383838;stroke-width:1.5;" width="29" x="7" y="257"/><text fill="#000000" font-family="sans-serif" font-size="12" lengthAdjust="spacing" textLength="23" x="10" y="274.457">Visit</text><line style="stroke:#383838;stroke-width:1.5;" x1="8" x2="35" y1="282.0938" y2="282.0938"/><!--MD5=[3024a812527d9511b786042d17916288]
link Network to Branch--><path codeLine="15" d="M377.94,290.29 C387.39,298.95 399.21,309.94 409.5,320 C429.94,339.99 452.12,362.69 470.55,381.85 " fill="none" id="Network-Branch" style="stroke:#383838;stroke-width:1.0;"/><polygon fill="#000000" points="435.0556,332.6911,430.6897,324.2419,426.5572,328.4218,435.0556,332.6911" style="stroke:#000000;stroke-width:1.0;"/><text fill="#000000" font-family="sans-serif" font-size="13" lengthAdjust="spacing" textLength="30" x="440.5" y="334.4951">owns</text><text fill="#000000" font-family="sans-serif" font-size="13" lengthAdjust="spacing" textLength="7" x="375.3834" y="311.728">1</text><text fill="#000000" font-family="sans-serif" font-size="13" lengthAdjust="spacing" textLength="5" x="458.6252" y="371.0269">*</text><!--MD5=[0077840d097dc295a1090ac6907f7998]
link Branch to Announcement--><path codeLine="16" d="M511.5,470.37 C511.5,497.71 511.5,533.12 511.5,561.69 " fill="none" id="Branch-Announcement" style="stroke:#383838;stroke-width:1.0;"/><polygon fill="#000000" points="516.5,528.1758,519.4389,519.1307,513.5611,519.1307,516.5,528.1758" style="stroke:#000000;stroke-width:1.0;"/><text fill="#000000" font-family="sans-serif" font-size="13" lengthAdjust="spacing" textLength="55" x="525.5" y="528.4951">publishes</text><text fill="#000000" font-family="sans-serif" font-size="13" lengthAdjust="spacing" textLength="7" x="503.9641" y="491.8777">1</text><text fill="#000000" font-family="sans-serif" font-size="13" lengthAdjust="spacing" textLength="5" x="506.1641" y="551.2206">*</text><!--MD5=[a363a729a326534fa72ee010b5a18559]
link Announcement to Property--><path codeLine="17" d="M509.14,664.38 C507.99,689.01 506.62,718.35 505.52,741.92 " fill="none" id="Announcement-Property" style="stroke:#383838;stroke-width:1.0;"/><polygon fill="#000000" points="512.2668,708.1703,515.6244,699.2722,509.7529,698.998,512.2668,708.1703" style="stroke:#000000;stroke-width:1.0;"/><text fill="#000000" font-family="sans-serif" font-size="13" lengthAdjust="spacing" textLength="49" x="521.5" y="708.4951">contains</text><text fill="#000000" font-family="sans-serif" font-size="13" lengthAdjust="spacing" textLength="7" x="501.3526" y="685.8596">1</text><text fill="#000000" font-family="sans-serif" font-size="13" lengthAdjust="spacing" textLength="7" x="498.2841" y="731.108">1</text><!--MD5=[36e1689f9b5c2055dfec3a975c7d1f42]
link Network to Employee--><path codeLine="19" d="M353.38,290.04 C344.97,308.36 330.53,339.87 317.71,367.84 " fill="none" id="Network-Employee" style="stroke:#383838;stroke-width:1.0;"/><polygon fill="#000000" points="340.4162,333.7208,346.8574,326.7236,341.5143,324.2739,340.4162,333.7208" style="stroke:#000000;stroke-width:1.0;"/><text fill="#000000" font-family="sans-serif" font-size="13" lengthAdjust="spacing" textLength="49" x="351.5" y="334.4951">employs</text><text fill="#000000" font-family="sans-serif" font-size="13" lengthAdjust="spacing" textLength="7" x="342.8621" y="311.7067">1</text><text fill="#000000" font-family="sans-serif" font-size="13" lengthAdjust="spacing" textLength="5" x="315.5997" y="357.2866">*</text><!--MD5=[850071a18dc7ad6c377b2032da142e97]
reverse link Property to House--><path codeLine="22" d="M541.96,847.03 C554.3,866.29 568.08,887.81 580.88,907.79 " fill="none" id="Property-backto-House" style="stroke:#383838;stroke-width:1.0;"/><polygon fill="none" points="536,850.71,531.1,830.09,547.79,843.15,536,850.71" style="stroke:#383838;stroke-width:1.0;"/><!--MD5=[71833479a25abe5b48a215f80abb6d80]
reverse link Property to Apartment--><path codeLine="23" d="M463.95,846.8 C444.9,875.59 422.49,909.47 405.13,935.72 " fill="none" id="Property-backto-Apartment" style="stroke:#383838;stroke-width:1.0;"/><polygon fill="none" points="458.13,842.91,475,830.09,469.8,850.63,458.13,842.91" style="stroke:#383838;stroke-width:1.0;"/><!--MD5=[1df9c5af9dc88862e781d75dcf66ac89]
reverse link Property to Land--><path codeLine="24" d="M502.84,850.31 C502.42,890.25 501.92,938.76 501.66,963.24 " fill="none" id="Property-backto-Land" style="stroke:#383838;stroke-width:1.0;"/><polygon fill="none" points="495.84,850.01,503.05,830.09,509.84,850.16,495.84,850.01" style="stroke:#383838;stroke-width:1.0;"/><!--MD5=[6fbbd20a6288e7fcf4ceda2afb36b49e]
link System Administrator to Employee--><path codeLine="27" d="M594.83,36.68 C515.3,44.2 382.14,59.95 339.5,84 C275.8,119.92 257.85,140.4 232.5,209 C215.58,254.79 229.46,307.64 247.99,349.6 " fill="none" id="System Administrator-to-Employee" style="stroke:#383838;stroke-width:1.0;"/><polygon fill="none" points="254.35,346.68,256.59,367.75,241.7,352.68,254.35,346.68" style="stroke:#383838;stroke-width:1.0;"/><!--MD5=[6fbbd20a6288e7fcf4ceda2afb36b49e]
link System Administrator to Employee--><path codeLine="34" d="M612.6,47.08 C538.34,75.9 389.06,145.03 317.5,257 C297.66,288.04 290.99,328.75 289.36,362.32 " fill="none" id="System Administrator-to-Employee-1" style="stroke:#383838;stroke-width:1.0;"/><polygon fill="#383838" points="289.14,367.65,293.4965,358.8171,289.3398,362.654,285.5029,358.4973,289.14,367.65" style="stroke:#383838;stroke-width:1.0;"/><polygon fill="#000000" points="354.9204,221.6667,363.4479,217.4555,359.344,213.2475,354.9204,221.6667" style="stroke:#000000;stroke-width:1.0;"/><text fill="#000000" font-family="sans-serif" font-size="13" lengthAdjust="spacing" textLength="50" x="367.5" y="223.4951">registers</text><text fill="#000000" font-family="sans-serif" font-size="13" lengthAdjust="spacing" textLength="7" x="590.4913" y="68.4511">1</text><text fill="#000000" font-family="sans-serif" font-size="13" lengthAdjust="spacing" textLength="5" x="283.5477" y="357.0735">*</text><!--MD5=[ef770231e2e958b9c8370fb4709a78e8]
link Network Manager to Employee--><path codeLine="28" d="M458.36,290.05 C445.98,303.33 427.25,322.67 409.5,338 C395,350.52 378.82,363.2 363.21,374.86 " fill="none" id="Network Manager-to-Employee" style="stroke:#383838;stroke-width:1.0;"/><polygon fill="none" points="366.86,380.87,346.6,387.06,358.58,369.58,366.86,380.87" style="stroke:#383838;stroke-width:1.0;"/><!--MD5=[a0eac7a77f99ea41cc2f713f37ee0a0c]
link Store Manager to Employee--><path codeLine="29" d="M131.24,290.16 C145.28,303.17 165.95,322.07 184.5,338 C196.05,347.93 208.47,358.29 220.62,368.26 " fill="none" id="Store Manager-to-Employee" style="stroke:#383838;stroke-width:1.0;"/><polygon fill="none" points="225.25,363.01,236.32,381.08,216.4,373.86,225.25,363.01" style="stroke:#383838;stroke-width:1.0;"/><!--MD5=[ac3cede51208cdd8a80b25d109d531c9]
link Agent to Employee--><path codeLine="30" d="M629.81,282.38 C581.24,302.85 449.01,358.6 364.97,394.03 " fill="none" id="Agent-to-Employee" style="stroke:#383838;stroke-width:1.0;"/><polygon fill="none" points="367.68,400.48,346.53,401.8,362.24,387.58,367.68,400.48" style="stroke:#383838;stroke-width:1.0;"/><!--MD5=[7a4d3cb2f39225ac59669630e58ab29c]
link Employee to Branch--><path codeLine="32" d="M346.73,426 C380.21,426 422.77,426 456.25,426 " fill="none" id="Employee-Branch" style="stroke:#383838;stroke-width:1.0;"/><polygon fill="#000000" points="374,414.1758,364.9549,411.2369,364.9549,417.1147,374,414.1758" style="stroke:#000000;stroke-width:1.0;"/><text fill="#000000" font-family="sans-serif" font-size="13" lengthAdjust="spacing" textLength="60" x="378" y="419.4951">works at a</text><text fill="#000000" font-family="sans-serif" font-size="13" lengthAdjust="spacing" textLength="7" x="354.6218" y="422.4364">1</text><text fill="#000000" font-family="sans-serif" font-size="13" lengthAdjust="spacing" textLength="7" x="441.3555" y="422.4143">1</text><!--MD5=[4ba2be7eaeb1979e59fefa42ffa2f3f7]
link System Administrator to Branch--><path codeLine="35" d="M650.64,47.41 C630.25,102.73 561.94,288.11 529.24,376.86 " fill="none" id="System Administrator-to-Branch" style="stroke:#383838;stroke-width:1.0;"/><polygon fill="#383838" points="527.42,381.79,534.2877,374.7306,529.1505,377.099,526.7821,371.9618,527.42,381.79" style="stroke:#383838;stroke-width:1.0;"/><polygon fill="#000000" points="593.7712,222.8674,599.6563,215.3964,594.141,213.364,593.7712,222.8674" style="stroke:#000000;stroke-width:1.0;"/><text fill="#000000" font-family="sans-serif" font-size="13" lengthAdjust="spacing" textLength="50" x="604.5" y="223.4951">registers</text><text fill="#000000" font-family="sans-serif" font-size="13" lengthAdjust="spacing" textLength="7" x="640.7735" y="68.5733">1</text><text fill="#000000" font-family="sans-serif" font-size="13" lengthAdjust="spacing" textLength="5" x="524.4749" y="371.2839">*</text><!--MD5=[3f987719205f918c861bbaa02d17eed8]
link System Administrator to State--><path codeLine="38" d="M718.15,30.5 C760.9,30.5 816.58,30.5 853.61,30.5 " fill="none" id="System Administrator-to-State" style="stroke:#383838;stroke-width:1.0;"/><polygon fill="#383838" points="858.93,30.5,849.93,26.5,853.93,30.5,849.93,34.5,858.93,30.5" style="stroke:#383838;stroke-width:1.0;"/><polygon fill="#000000" points="765.5,18.6758,756.4549,15.7369,756.4549,21.6147,765.5,18.6758" style="stroke:#000000;stroke-width:1.0;"/><text fill="#000000" font-family="sans-serif" font-size="13" lengthAdjust="spacing" textLength="51" x="769.5" y="23.9951">specifies</text><text fill="#000000" font-family="sans-serif" font-size="13" lengthAdjust="spacing" textLength="7" x="726.0902" y="27.0358">1</text><text fill="#000000" font-family="sans-serif" font-size="13" lengthAdjust="spacing" textLength="5" x="845.8209" y="26.2913">*</text><!--MD5=[1532415400bc0bc69f6141f1b0d023e4]
link System Administrator to District--><path codeLine="39" d="M705.3,47.06 C731.79,56.31 764.72,69.14 792.5,84 C816.36,96.76 841.23,114.28 860.2,128.66 " fill="none" id="System Administrator-to-District" style="stroke:#383838;stroke-width:1.0;"/><polygon fill="#383838" points="864.4,131.86,859.6887,123.2111,860.431,128.819,854.8231,129.5614,864.4,131.86" style="stroke:#383838;stroke-width:1.0;"/><polygon fill="#000000" points="829.9237,95.5062,823.2909,88.6903,820.5514,93.8907,829.9237,95.5062" style="stroke:#000000;stroke-width:1.0;"/><text fill="#000000" font-family="sans-serif" font-size="13" lengthAdjust="spacing" textLength="51" x="834.5" y="98.4951">specifies</text><text fill="#000000" font-family="sans-serif" font-size="13" lengthAdjust="spacing" textLength="7" x="713.3056" y="68.7333">1</text><text fill="#000000" font-family="sans-serif" font-size="13" lengthAdjust="spacing" textLength="5" x="851.5587" y="121.3014">*</text><!--MD5=[5ba6173601dc3ba2f09501eb706ca8f9]
link System Administrator to City--><path codeLine="40" d="M687.55,47.03 C722.21,66.82 773.5,104.54 773.5,154.5 C773.5,154.5 773.5,154.5 773.5,787 C773.5,845.3 773.5,913.56 773.5,950.95 " fill="none" id="System Administrator-to-City" style="stroke:#383838;stroke-width:1.0;"/><polygon fill="#383838" points="773.5,956.24,777.5,947.24,773.5,951.24,769.5,947.24,773.5,956.24" style="stroke:#383838;stroke-width:1.0;"/><polygon fill="#000000" points="778.9733,431.1533,781.0428,421.8707,775.1914,422.4271,778.9733,431.1533" style="stroke:#000000;stroke-width:1.0;"/><text fill="#000000" font-family="sans-serif" font-size="13" lengthAdjust="spacing" textLength="51" x="787.5" y="431.4951">specifies</text><text fill="#000000" font-family="sans-serif" font-size="13" lengthAdjust="spacing" textLength="7" x="689.6759" y="68.6934">1</text><text fill="#000000" font-family="sans-serif" font-size="13" lengthAdjust="spacing" textLength="5" x="767.8594" y="945.6507">*</text><!--MD5=[5487656f09e336a36fbed6ab6c5d7c51]
link Buyer to Client--><path codeLine="44" d="M242.82,629.78 C248.52,656.82 260.27,712.65 268.02,749.46 " fill="none" id="Buyer-to-Client" style="stroke:#383838;stroke-width:1.0;"/><polygon fill="none" points="274.92,748.24,272.19,769.26,261.22,751.13,274.92,748.24" style="stroke:#383838;stroke-width:1.0;"/><!--MD5=[494dd7e2e90f16a1957f0549ca9be0b3]
link Seller to Client--><path codeLine="45" d="M309.09,629.78 C303.23,656.82 291.15,712.65 283.19,749.46 " fill="none" id="Seller-to-Client" style="stroke:#383838;stroke-width:1.0;"/><polygon fill="none" points="289.98,751.19,278.91,769.26,276.29,748.23,289.98,751.19" style="stroke:#383838;stroke-width:1.0;"/><!--MD5=[7c96604d78e947ece2a9dd32323a19f1]
link Seller to Property--><path codeLine="48" d="M330.13,629.78 C358.29,655 414.43,705.25 455.21,741.77 " fill="none" id="Seller-Property" style="stroke:#383838;stroke-width:1.0;"/><polygon fill="#000000" points="427.2251,706.511,422.4468,698.288,418.5259,702.6671,427.2251,706.511" style="stroke:#000000;stroke-width:1.0;"/><text fill="#000000" font-family="sans-serif" font-size="13" lengthAdjust="spacing" textLength="30" x="432.5" y="708.4951">owns</text><text fill="#000000" font-family="sans-serif" font-size="13" lengthAdjust="spacing" textLength="7" x="327.6339" y="651.2148">1</text><text fill="#000000" font-family="sans-serif" font-size="13" lengthAdjust="spacing" textLength="5" x="442.4328" y="731.2608">*</text><!--MD5=[8cd95d64b3a0a599c4970a6da76231fa]
link Seller to Announcement--><path codeLine="49" d="M331.58,613 C353.08,613 389.54,613 424.04,613 " fill="none" id="Seller-Announcement" style="stroke:#383838;stroke-width:1.0;"/><polygon fill="#000000" points="359,601.1758,349.9549,598.2369,349.9549,604.1147,359,601.1758" style="stroke:#000000;stroke-width:1.0;"/><text fill="#000000" font-family="sans-serif" font-size="13" lengthAdjust="spacing" textLength="43" x="363" y="606.4951">creates</text><text fill="#000000" font-family="sans-serif" font-size="13" lengthAdjust="spacing" textLength="7" x="339.6241" y="607.691">1</text><text fill="#000000" font-family="sans-serif" font-size="13" lengthAdjust="spacing" textLength="5" x="411.5902" y="609.8359">*</text><!--MD5=[58f110d10bef19b2e22e7e4e58369efa]
link Agent to Announcement--><path codeLine="50" d="M647.84,290.03 C645.47,331.73 634.93,448.64 589.5,532 C583.74,542.56 576.2,552.7 568.08,562 " fill="none" id="Agent-Announcement" style="stroke:#383838;stroke-width:1.0;"/><polygon fill="#000000" points="643.0929,430.9737,648.4585,423.1212,642.8182,421.4671,643.0929,430.9737" style="stroke:#000000;stroke-width:1.0;"/><text fill="#000000" font-family="sans-serif" font-size="13" lengthAdjust="spacing" textLength="50" x="653.5" y="431.4951">validates</text><text fill="#000000" font-family="sans-serif" font-size="13" lengthAdjust="spacing" textLength="7" x="639.462" y="311.6934">1</text><text fill="#000000" font-family="sans-serif" font-size="13" lengthAdjust="spacing" textLength="5" x="570.685" y="551.2037">*</text><!--MD5=[89c562c8c811638d631578af28e73bf4]
link Visit to Buyer--><path codeLine="51" d="M31.12,290.11 C52.69,325.04 106.72,412.12 153.5,484 C180.08,524.84 212.33,572.31 228.76,596.33 " fill="none" id="Visit-Buyer" style="stroke:#383838;stroke-width:1.0;"/><polygon fill="#000000" points="155.7886,421.9748,158.2243,431.1682,163.1628,427.9807,155.7886,421.9748" style="stroke:#000000;stroke-width:1.0;"/><text fill="#000000" font-family="sans-serif" font-size="13" lengthAdjust="spacing" textLength="50" x="167.5" y="431.4951">requests</text><text fill="#000000" font-family="sans-serif" font-size="13" lengthAdjust="spacing" textLength="7" x="26.0708" y="311.4906">1</text><text fill="#000000" font-family="sans-serif" font-size="13" lengthAdjust="spacing" textLength="7" x="217.043" y="585.6959">1</text><!--MD5=[8a4d2d2da763b08b62d16811c968bdfd]
link Visit to Agent--><path codeLine="52" d="M36.11,264.94 C41.45,262.09 47.62,259.11 53.5,257 C130.54,229.34 152.11,226.72 233.5,218 C397.48,200.44 442.4,217.46 602.5,257 C611.73,259.28 621.68,262.72 629.97,265.87 " fill="none" id="Visit-Agent" style="stroke:#383838;stroke-width:1.0;"/><polygon fill="#000000" points="243.5,218.1836,234.4595,215.2305,234.4503,221.1084,243.5,218.1836" style="stroke:#000000;stroke-width:1.0;"/><text fill="#000000" font-family="sans-serif" font-size="13" lengthAdjust="spacing" textLength="77" x="247.5" y="223.4951">scheduled by</text><text fill="#000000" font-family="sans-serif" font-size="13" lengthAdjust="spacing" textLength="7" x="44.0331" y="255.2465">1</text><text fill="#000000" font-family="sans-serif" font-size="13" lengthAdjust="spacing" textLength="7" x="615.1218" y="257.8429">1</text><!--MD5=[b4951d80af0a970d0a42cd43699e93ff]
link Property to City--><path codeLine="55" d="M567.25,819.54 C620.88,847.55 692.67,886.71 717.5,908 C733.83,922 748.72,941.35 759.03,956.31 " fill="none" id="Property-City" style="stroke:#383838;stroke-width:1.0;"/><polygon fill="#000000" points="677.5708,872.0789,671.9131,864.4343,668.5002,869.2199,677.5708,872.0789" style="stroke:#000000;stroke-width:1.0;"/><text fill="#000000" font-family="sans-serif" font-size="13" lengthAdjust="spacing" textLength="56" x="682.5" y="874.4951">located in</text><text fill="#000000" font-family="sans-serif" font-size="13" lengthAdjust="spacing" textLength="7" x="575.0258" y="819.9832">1</text><text fill="#000000" font-family="sans-serif" font-size="13" lengthAdjust="spacing" textLength="7" x="747.4252" y="945.7386">1</text><!--MD5=[cd1097b4d6b53e13878caf984aed34c4]
link District to City--><path codeLine="56" d="M892.5,179.17 C892.5,202.55 892.5,240.08 892.5,272.5 C892.5,272.5 892.5,272.5 892.5,787 C892.5,857.2 834.32,923.1 799.32,956.39 " fill="none" id="District-City" style="stroke:#383838;stroke-width:1.0;"/><polygon fill="#000000" points="898.0952,518.2113,894.1005,526.8423,899.9365,527.5419,898.0952,518.2113" style="stroke:#000000;stroke-width:1.0;"/><text fill="#000000" font-family="sans-serif" font-size="13" lengthAdjust="spacing" textLength="56" x="906.5" y="528.4951">located in</text><text fill="#000000" font-family="sans-serif" font-size="13" lengthAdjust="spacing" textLength="7" x="884.6469" y="200.4361">1</text><text fill="#000000" font-family="sans-serif" font-size="13" lengthAdjust="spacing" textLength="5" x="800.2958" y="945.8391">*</text><!--MD5=[9507060b9b8dd58465f9ccdeabbe9f6e]
link State to District--><path codeLine="57" d="M896.57,54.03 C898.08,67.87 899.41,85.95 898.5,102 C897.94,111.8 896.8,122.58 895.66,131.81 " fill="none" id="State-District" style="stroke:#383838;stroke-width:1.0;"/><polygon fill="#000000" points="903.5585,88.1761,900.514,97.1862,906.3914,97.255,903.5585,88.1761" style="stroke:#000000;stroke-width:1.0;"/><text fill="#000000" font-family="sans-serif" font-size="13" lengthAdjust="spacing" textLength="56" x="912.5" y="98.4951">located in</text><text fill="#000000" font-family="sans-serif" font-size="13" lengthAdjust="spacing" textLength="7" x="889.4652" y="75.262">1</text><text fill="#000000" font-family="sans-serif" font-size="13" lengthAdjust="spacing" textLength="5" x="890.8291" y="121.2386">*</text><!--MD5=[e9507d40216f09b59f6474bb17a7068a]
@startuml
'https://plantuml.com/class-diagram

skinparam monochrome true
skinparam packageStyle rectangle
skinparam shadowing false

'skinparam linetype ortho
'left to right direction
skinparam classAttributeIconSize 0
skinparam groupInheritance 1
hide circle
hide methods


Network "1" - - "*" Branch: owns >
Branch "1" - - "*" Announcement: publishes >
Announcement "1" - - "1" Property: contains >

Network "1" - - "*" Employee: employs >


Property <|- - House
Property <|- - Apartment
Property <|- - Land


"System Administrator" - -|> Employee
"Network Manager" - -|> Employee
"Store Manager" - -|> Employee
Agent - -|> Employee

Employee "1" - "1" Branch: works at a >

"System Administrator" "1" - - - -> "*" Employee: registers >
"System Administrator" "1" - - -> "*" Branch: registers >


"System Administrator" "1" -> "*" State: specifies >
"System Administrator" "1" -> "*" District: specifies >
"System Administrator" "1" -> "*" City: specifies >


together {
Buyer - -|> Client
Seller - -|> Client
}

Seller "1" - "*" Property: owns >
Seller "1" - "*" Announcement: creates >
Agent "1" - "*" Announcement: validates >
Visit "1" - "1" Buyer: requests <
Visit "1" - "1" Agent: scheduled by >

together {
Property "1" - - "1" City: located in >
District "1" - - "*" City: located in <
State "1" - - "*" District: located in <
}


class Network{

}

class Branch{
name:String
address:String
email:String
phoneNumber:String
}

class Employee{
String name
int cCNumber
int taxNumber
String address
String email
String phoneNumber
}

together {
class "System Administrator"

class "Network Manager"

class "Store Manager"

class Agent
}

class Client
class Buyer
class Seller

class Visit{

}

class Announcement{
int listingID
bool visible
float price
float commission
TypeOfBusiness typeOfBusiness
}


class Property{
float area
City city
float cityCenterDistance
List<Image> photograph
}

class House{
int numberOfBedrooms
int numberOfBathrooms
int numberOfParkingSpaces
List<String> equipment
bool hasBasement

bool hasInhabitableLoft
SunExposure sunExposure
}

class Apartment{
int numberOfBedrooms
int numberOfBathrooms
int numberOfParkingSpaces
List<String> equipment
}

class Land{
}

class State{
String name
}
class District{
String name
}
class City{
String name
}



@enduml

@startuml

skinparam monochrome true
skinparam packageStyle rectangle
skinparam shadowing false

skinparam classAttributeIconSize 0
skinparam groupInheritance 1
hide circle
hide methods


Network "1" - - "*" Branch: owns >
Branch "1" - - "*" Announcement: publishes >
Announcement "1" - - "1" Property: contains >

Network "1" - - "*" Employee: employs >


Property <|- - House
Property <|- - Apartment
Property <|- - Land


"System Administrator" - -|> Employee
"Network Manager" - -|> Employee
"Store Manager" - -|> Employee
Agent - -|> Employee

Employee "1" - "1" Branch: works at a >

"System Administrator" "1" - - - -> "*" Employee: registers >
"System Administrator" "1" - - -> "*" Branch: registers >


"System Administrator" "1" -> "*" State: specifies >
"System Administrator" "1" -> "*" District: specifies >
"System Administrator" "1" -> "*" City: specifies >


together {
Buyer - -|> Client
Seller - -|> Client
}

Seller "1" - "*" Property: owns >
Seller "1" - "*" Announcement: creates >
Agent "1" - "*" Announcement: validates >
Visit "1" - "1" Buyer: requests <
Visit "1" - "1" Agent: scheduled by >

together {
Property "1" - - "1" City: located in >
District "1" - - "*" City: located in <
State "1" - - "*" District: located in <
}


class Network{

}

class Branch{
name:String
address:String
email:String
phoneNumber:String
}

class Employee{
String name
int cCNumber
int taxNumber
String address
String email
String phoneNumber
}

together {
class "System Administrator"

class "Network Manager"

class "Store Manager"

class Agent
}

class Client
class Buyer
class Seller

class Visit{

}

class Announcement{
int listingID
bool visible
float price
float commission
TypeOfBusiness typeOfBusiness
}


class Property{
float area
City city
float cityCenterDistance
List<Image> photograph
}

class House{
int numberOfBedrooms
int numberOfBathrooms
int numberOfParkingSpaces
List<String> equipment
bool hasBasement

bool hasInhabitableLoft
SunExposure sunExposure
}

class Apartment{
int numberOfBedrooms
int numberOfBathrooms
int numberOfParkingSpaces
List<String> equipment
}

class Land{
}

class State{
String name
}
class District{
String name
}
class City{
String name
}



@enduml

PlantUML version 1.2022.1(Tue Feb 01 18:19:58 GMT 2022)
(GPL source distribution)
Java Runtime: OpenJDK Runtime Environment
JVM: OpenJDK 64-Bit Server VM
Default Encoding: Cp1252
Language: en
Country: US
--></g></svg>