<?xml version="1.0" encoding="UTF-8" standalone="no"?><svg xmlns="http://www.w3.org/2000/svg" xmlns:xlink="http://www.w3.org/1999/xlink" contentScriptType="application/ecmascript" contentStyleType="text/css" height="413px" preserveAspectRatio="none" style="width:344px;height:413px;background:#FFFFFF;" version="1.1" viewBox="0 0 344 413" width="344px" zoomAndPan="magnify"><defs><filter height="300%" id="fi8onutcmxiwf" width="300%" x="-1" y="-1"><feGaussianBlur result="blurOut" stdDeviation="2.0"/><feColorMatrix in="blurOut" result="blurOut2" type="matrix" values="0 0 0 0 0 0 0 0 0 0 0 0 0 0 0 0 0 0 .4 0"/><feOffset dx="4.0" dy="4.0" in="blurOut2" result="blurOut3"/><feBlend in="SourceGraphic" in2="blurOut3" mode="normal"/></filter></defs><g><rect fill="#FFFFFF" filter="url(#fi8onutcmxiwf)" height="218.4609" style="stroke:#A80036;stroke-width:1.0;" width="10" x="84.5" y="99.6094"/><rect fill="#FFFFFF" filter="url(#fi8onutcmxiwf)" height="30.3516" style="stroke:#A80036;stroke-width:1.0;" width="10" x="281.5" y="121.9609"/><rect fill="#FFFFFF" filter="url(#fi8onutcmxiwf)" height="120.4063" style="stroke:#A80036;stroke-width:1.0;" width="10" x="281.5" y="182.6641"/><rect fill="#FFFFFF" filter="url(#fi8onutcmxiwf)" height="113.4063" style="stroke:#000000;stroke-width:2.0;" width="320.5" x="10" y="197.6641"/><rect fill="#FFFFFF" height="32.3516" style="stroke:none;stroke-width:1.0;" width="320.5" x="10" y="246.3672"/><rect fill="#FFFFFF" height="32.3516" style="stroke:none;stroke-width:1.0;" width="320.5" x="10" y="278.7188"/><line style="stroke:#A80036;stroke-width:1.0;stroke-dasharray:5.0,5.0;" x1="89" x2="89" y1="89.6094" y2="328.0703"/><line style="stroke:#A80036;stroke-width:1.0;stroke-dasharray:5.0,5.0;" x1="286.5" x2="286.5" y1="89.6094" y2="328.0703"/><text fill="#000000" font-family="sans-serif" font-size="14" lengthAdjust="spacing" textLength="133" x="20" y="86.5332">System Administrator</text><ellipse cx="89.5" cy="15" fill="#FEFECE" filter="url(#fi8onutcmxiwf)" rx="8" ry="8" style="stroke:#A80036;stroke-width:2.0;"/><path d="M89.5,23 L89.5,50 M76.5,31 L102.5,31 M89.5,50 L76.5,65 M89.5,50 L102.5,65 " fill="none" filter="url(#fi8onutcmxiwf)" style="stroke:#A80036;stroke-width:2.0;"/><text fill="#000000" font-family="sans-serif" font-size="14" lengthAdjust="spacing" textLength="133" x="20" y="341.6035">System Administrator</text><ellipse cx="89.5" cy="354.6797" fill="#FEFECE" filter="url(#fi8onutcmxiwf)" rx="8" ry="8" style="stroke:#A80036;stroke-width:2.0;"/><path d="M89.5,362.6797 L89.5,389.6797 M76.5,370.6797 L102.5,370.6797 M89.5,389.6797 L76.5,404.6797 M89.5,389.6797 L102.5,404.6797 " fill="none" filter="url(#fi8onutcmxiwf)" style="stroke:#A80036;stroke-width:2.0;"/><rect fill="#FEFECE" filter="url(#fi8onutcmxiwf)" height="31.6094" style="stroke:#A80036;stroke-width:1.5;" width="64" x="252.5" y="53"/><text fill="#000000" font-family="sans-serif" font-size="14" lengthAdjust="spacing" textLength="50" x="259.5" y="74.5332">:System</text><rect fill="#FEFECE" filter="url(#fi8onutcmxiwf)" height="31.6094" style="stroke:#A80036;stroke-width:1.5;" width="64" x="252.5" y="327.0703"/><text fill="#000000" font-family="sans-serif" font-size="14" lengthAdjust="spacing" textLength="50" x="259.5" y="348.6035">:System</text><rect fill="#FFFFFF" filter="url(#fi8onutcmxiwf)" height="218.4609" style="stroke:#A80036;stroke-width:1.0;" width="10" x="84.5" y="99.6094"/><rect fill="#FFFFFF" filter="url(#fi8onutcmxiwf)" height="30.3516" style="stroke:#A80036;stroke-width:1.0;" width="10" x="281.5" y="121.9609"/><rect fill="#FFFFFF" filter="url(#fi8onutcmxiwf)" height="120.4063" style="stroke:#A80036;stroke-width:1.0;" width="10" x="281.5" y="182.6641"/><polygon fill="#A80036" points="269.5,117.9609,279.5,121.9609,269.5,125.9609,273.5,121.9609" style="stroke:#A80036;stroke-width:1.0;"/><line style="stroke:#A80036;stroke-width:1.0;" x1="94.5" x2="275.5" y1="121.9609" y2="121.9609"/><text fill="#000000" font-family="sans-serif" font-size="13" font-weight="bold" lengthAdjust="spacing" textLength="7" x="101.5" y="117.1045">1</text><text fill="#000000" font-family="sans-serif" font-size="13" lengthAdjust="spacing" textLength="119" x="112.5" y="117.1045">starts importing data</text><polygon fill="#A80036" points="105.5,148.3125,95.5,152.3125,105.5,156.3125,101.5,152.3125" style="stroke:#A80036;stroke-width:1.0;"/><line style="stroke:#A80036;stroke-width:1.0;stroke-dasharray:2.0,2.0;" x1="99.5" x2="285.5" y1="152.3125" y2="152.3125"/><text fill="#000000" font-family="sans-serif" font-size="13" font-weight="bold" lengthAdjust="spacing" textLength="7" x="111.5" y="147.4561">2</text><text fill="#000000" font-family="sans-serif" font-size="13" lengthAdjust="spacing" textLength="99" x="122.5" y="147.4561">requests file path</text><polygon fill="#A80036" points="269.5,178.6641,279.5,182.6641,269.5,186.6641,273.5,182.6641" style="stroke:#A80036;stroke-width:1.0;"/><line style="stroke:#A80036;stroke-width:1.0;" x1="94.5" x2="275.5" y1="182.6641" y2="182.6641"/><text fill="#000000" font-family="sans-serif" font-size="13" font-weight="bold" lengthAdjust="spacing" textLength="7" x="101.5" y="177.8076">3</text><text fill="#000000" font-family="sans-serif" font-size="13" lengthAdjust="spacing" textLength="81" x="112.5" y="177.8076">types file path</text><path d="M10,197.6641 L71,197.6641 L71,205.6641 L61,215.6641 L10,215.6641 L10,197.6641 " fill="#EEEEEE" style="stroke:#000000;stroke-width:1.0;"/><rect fill="none" height="113.4063" style="stroke:#000000;stroke-width:2.0;" width="320.5" x="10" y="197.6641"/><text fill="#000000" font-family="sans-serif" font-size="13" font-weight="bold" lengthAdjust="spacing" textLength="16" x="25" y="212.1592">alt</text><polygon fill="#A80036" points="105.5,234.3672,95.5,238.3672,105.5,242.3672,101.5,238.3672" style="stroke:#A80036;stroke-width:1.0;"/><line style="stroke:#A80036;stroke-width:1.0;stroke-dasharray:2.0,2.0;" x1="99.5" x2="280.5" y1="238.3672" y2="238.3672"/><text fill="#000000" font-family="sans-serif" font-size="13" font-weight="bold" lengthAdjust="spacing" textLength="7" x="111.5" y="233.5107">4</text><text fill="#000000" font-family="sans-serif" font-size="13" lengthAdjust="spacing" textLength="152" x="122.5" y="233.5107">informs operation success</text><line style="stroke:#000000;stroke-width:1.0;stroke-dasharray:2.0,2.0;" x1="10" x2="330.5" y1="247.3672" y2="247.3672"/><polygon fill="#A80036" points="105.5,266.7188,95.5,270.7188,105.5,274.7188,101.5,270.7188" style="stroke:#A80036;stroke-width:1.0;"/><line style="stroke:#A80036;stroke-width:1.0;stroke-dasharray:2.0,2.0;" x1="99.5" x2="280.5" y1="270.7188" y2="270.7188"/><text fill="#000000" font-family="sans-serif" font-size="13" font-weight="bold" lengthAdjust="spacing" textLength="7" x="111.5" y="265.8623">5</text><text fill="#000000" font-family="sans-serif" font-size="13" lengthAdjust="spacing" textLength="139" x="122.5" y="265.8623">inform no CSV file found</text><line style="stroke:#000000;stroke-width:1.0;stroke-dasharray:2.0,2.0;" x1="10" x2="330.5" y1="279.7188" y2="279.7188"/><polygon fill="#A80036" points="105.5,299.0703,95.5,303.0703,105.5,307.0703,101.5,303.0703" style="stroke:#A80036;stroke-width:1.0;"/><line style="stroke:#A80036;stroke-width:1.0;stroke-dasharray:2.0,2.0;" x1="99.5" x2="285.5" y1="303.0703" y2="303.0703"/><text fill="#000000" font-family="sans-serif" font-size="13" font-weight="bold" lengthAdjust="spacing" textLength="7" x="111.5" y="298.2139">6</text><text fill="#000000" font-family="sans-serif" font-size="13" lengthAdjust="spacing" textLength="109" x="122.5" y="298.2139">inform file is empty</text><!--MD5=[f7d6db72fc83303aa76ab7ec2a5fed4b]
@startuml
'https://plantuml.com/sequence-diagram

autonumber
actor "System Administrator" as sa
participant ":System" as sys

activate sa
sa -> sys: starts importing data
activate sys
return requests file path

sa -> sys: types file path
activate sys
alt
    sys - -> sa: informs operation success
else
    sys - -> sa: inform no CSV file found
else
    return inform file is empty

end

deactivate sa

@enduml

@startuml

autonumber
actor "System Administrator" as sa
participant ":System" as sys

activate sa
sa -> sys: starts importing data
activate sys
return requests file path

sa -> sys: types file path
activate sys
alt
    sys - -> sa: informs operation success
else
    sys - -> sa: inform no CSV file found
else
    return inform file is empty

end

deactivate sa

@enduml

PlantUML version 1.2022.1(Tue Feb 01 18:19:58 GMT 2022)
(GPL source distribution)
Java Runtime: OpenJDK Runtime Environment
JVM: OpenJDK 64-Bit Server VM
Default Encoding: Cp1252
Language: en
Country: US
--></g></svg>