<?xml version="1.0" encoding="us-ascii" standalone="no"?><svg xmlns="http://www.w3.org/2000/svg" xmlns:xlink="http://www.w3.org/1999/xlink" contentStyleType="text/css" height="525px" preserveAspectRatio="none" style="width:531px;height:525px;background:#FFFFFF;" version="1.1" viewBox="0 0 531 525" width="531px" zoomAndPan="magnify"><defs/><g><text fill="#000000" font-family="sans-serif" font-size="14" font-weight="bold" lengthAdjust="spacing" textLength="147" x="185.25" y="25.1074">Domain Model US009</text><g id="elem_Client"><rect fill="#F1F1F1" height="38.6211" style="stroke:#181818;stroke-width:0.5;" width="50" x="7" y="162.6211"/><text fill="#000000" font-family="sans-serif" font-size="14" lengthAdjust="spacing" textLength="36" x="14" y="179.7285">Client</text><line style="stroke:#181818;stroke-width:0.5;" x1="8" x2="56" y1="185.2422" y2="185.2422"/></g><g id="elem_Visit"><rect fill="#F1F1F1" height="38.6211" style="stroke:#181818;stroke-width:0.5;" width="40" x="144" y="162.6211"/><text fill="#000000" font-family="sans-serif" font-size="14" lengthAdjust="spacing" textLength="26" x="151" y="179.7285">Visit</text><line style="stroke:#181818;stroke-width:0.5;" x1="145" x2="183" y1="185.2422" y2="185.2422"/></g><g id="elem_Announcement"><rect fill="#F1F1F1" height="38.6211" style="stroke:#181818;stroke-width:0.5;" width="109" x="258.5" y="162.6211"/><text fill="#000000" font-family="sans-serif" font-size="14" lengthAdjust="spacing" textLength="95" x="265.5" y="179.7285">Announcement</text><line style="stroke:#181818;stroke-width:0.5;" x1="259.5" x2="366.5" y1="185.2422" y2="185.2422"/></g><g id="elem_Property"><rect fill="#F1F1F1" height="38.6211" style="stroke:#181818;stroke-width:0.5;" width="68" x="130" y="280.6211"/><text fill="#000000" font-family="sans-serif" font-size="14" lengthAdjust="spacing" textLength="54" x="137" y="297.7285">Property</text><line style="stroke:#181818;stroke-width:0.5;" x1="131" x2="197" y1="303.2422" y2="303.2422"/></g><g id="elem_House"><rect fill="#F1F1F1" height="38.6211" style="stroke:#181818;stroke-width:0.5;" width="54" x="220" y="380.6211"/><text fill="#000000" font-family="sans-serif" font-size="14" lengthAdjust="spacing" textLength="40" x="227" y="397.7285">House</text><line style="stroke:#181818;stroke-width:0.5;" x1="221" x2="273" y1="403.2422" y2="403.2422"/></g><g id="elem_Apartment"><rect fill="#F1F1F1" height="38.6211" style="stroke:#181818;stroke-width:0.5;" width="79" x="24.5" y="380.6211"/><text fill="#000000" font-family="sans-serif" font-size="14" lengthAdjust="spacing" textLength="65" x="31.5" y="397.7285">Apartment</text><line style="stroke:#181818;stroke-width:0.5;" x1="25.5" x2="102.5" y1="403.2422" y2="403.2422"/></g><g id="elem_Land"><rect fill="#F1F1F1" height="38.6211" style="stroke:#181818;stroke-width:0.5;" width="46" x="139" y="380.6211"/><text fill="#000000" font-family="sans-serif" font-size="14" lengthAdjust="spacing" textLength="32" x="146" y="397.7285">Land</text><line style="stroke:#181818;stroke-width:0.5;" x1="140" x2="184" y1="403.2422" y2="403.2422"/></g><g id="elem_Commission"><rect fill="#F1F1F1" height="38.6211" style="stroke:#181818;stroke-width:0.5;" width="90" x="309" y="380.6211"/><text fill="#000000" font-family="sans-serif" font-size="14" lengthAdjust="spacing" textLength="76" x="316" y="397.7285">Commission</text><line style="stroke:#181818;stroke-width:0.5;" x1="310" x2="398" y1="403.2422" y2="403.2422"/></g><g id="elem_FixedCommission"><rect fill="#F1F1F1" height="38.6211" style="stroke:#181818;stroke-width:0.5;" width="124" x="203" y="480.6211"/><text fill="#000000" font-family="sans-serif" font-size="14" lengthAdjust="spacing" textLength="110" x="210" y="497.7285">FixedCommission</text><line style="stroke:#181818;stroke-width:0.5;" x1="204" x2="326" y1="503.2422" y2="503.2422"/></g><g id="elem_PercentageCommission"><rect fill="#F1F1F1" height="38.6211" style="stroke:#181818;stroke-width:0.5;" width="163" x="362.5" y="480.6211"/><text fill="#000000" font-family="sans-serif" font-size="14" lengthAdjust="spacing" textLength="149" x="369.5" y="497.7285">PercentageCommission</text><line style="stroke:#181818;stroke-width:0.5;" x1="363.5" x2="524.5" y1="503.2422" y2="503.2422"/></g><!--class Agent--><g id="elem_Agent"><rect fill="#F1F1F1" height="36.6211" id="Agent" rx="2.5" ry="2.5" style="stroke:#181818;stroke-width:0.5;" width="43" x="142.5" y="46.6211"/><text fill="#000000" font-family="sans-serif" font-size="14" lengthAdjust="spacing" textLength="37" x="145.5" y="66.7285">Agent</text><line style="stroke:#181818;stroke-width:0.5;" x1="143.5" x2="184.5" y1="75.2422" y2="75.2422"/></g><!--link Client to Visit--><g id="link_Client_Visit"><path codeLine="55" d="M57.14,182.1211 C80.51,182.1211 115.14,182.1211 138.59,182.1211 " fill="none" id="Client-to-Visit" style="stroke:#181818;stroke-width:1.0;"/><polygon fill="#181818" points="143.71,182.1211,134.71,178.1211,138.71,182.1211,134.71,186.1211,143.71,182.1211" style="stroke:#181818;stroke-width:1.0;"/><text fill="#000000" font-family="sans-serif" font-size="13" lengthAdjust="spacing" textLength="50" x="75.5" y="175.1494">requests</text></g><!--link Announcement to Property--><g id="link_Announcement_Property"><path codeLine="57" d="M289.06,201.7611 C261.26,223.4011 215.66,258.9011 187.88,280.5311 " fill="none" id="Announcement-Property" style="stroke:#181818;stroke-width:1.0;"/><polygon fill="#000000" points="249.0546,244.3381,257.9972,241.1007,254.3865,236.4627,249.0546,244.3381" style="stroke:#000000;stroke-width:1.0;"/><text fill="#000000" font-family="sans-serif" font-size="13" lengthAdjust="spacing" textLength="49" x="262" y="246.6494">contains</text><text fill="#000000" font-family="sans-serif" font-size="13" lengthAdjust="spacing" textLength="7" x="274.6855" y="223.4421">1</text><text fill="#000000" font-family="sans-serif" font-size="13" lengthAdjust="spacing" textLength="7" x="186.8666" y="269.4064">1</text></g><!--link Announcement to Commission--><g id="link_Announcement_Commission"><path codeLine="58" d="M316.57,201.9111 C324.04,241.2611 341.31,332.2711 349.52,375.5011 " fill="none" id="Announcement-to-Commission" style="stroke:#181818;stroke-width:1.0;"/><polygon fill="#181818" points="350.47,380.5311,352.7294,370.9449,349.5417,375.618,344.8685,372.4303,350.47,380.5311" style="stroke:#181818;stroke-width:1.0;"/><polygon fill="#000000" points="344.9324,305.1789,346.133,295.7444,340.3583,296.8405,344.9324,305.1789" style="stroke:#000000;stroke-width:1.0;"/><text fill="#000000" font-family="sans-serif" font-size="13" lengthAdjust="spacing" textLength="32" x="353" y="305.6494">has a</text><text fill="#000000" font-family="sans-serif" font-size="13" lengthAdjust="spacing" textLength="7" x="309.5879" y="223.2746">1</text><text fill="#000000" font-family="sans-serif" font-size="13" lengthAdjust="spacing" textLength="7" x="341.4049" y="369.4064">1</text></g><!--reverse link Property to House--><g id="link_Property_House"><path codeLine="60" d="M193.02,335.3811 C205.9,350.5911 220.54,367.8811 231.33,380.6111 " fill="none" id="Property-backto-House" style="stroke:#181818;stroke-width:1.0;"/><polygon fill="none" points="187.59,339.8011,180,320.0211,198.27,330.7511,187.59,339.8011" style="stroke:#181818;stroke-width:1.0;"/></g><!--reverse link Property to Apartment--><g id="link_Property_Apartment"><path codeLine="61" d="M130.03,334.4111 C114.28,349.8511 96.15,367.6111 82.88,380.6111 " fill="none" id="Property-backto-Apartment" style="stroke:#181818;stroke-width:1.0;"/><polygon fill="none" points="125.54,329.0111,144.72,320.0211,135.33,339.0111,125.54,329.0111" style="stroke:#181818;stroke-width:1.0;"/></g><!--reverse link Property to Land--><g id="link_Property_Land"><path codeLine="62" d="M163.2,340.3011 C162.92,354.2211 162.61,369.2411 162.38,380.6111 " fill="none" id="Property-backto-Land" style="stroke:#181818;stroke-width:1.0;"/><polygon fill="none" points="156.21,339.8711,163.61,320.0211,170.2,340.1511,156.21,339.8711" style="stroke:#181818;stroke-width:1.0;"/></g><!--reverse link Commission to FixedCommission--><g id="link_Commission_FixedCommission"><path codeLine="64" d="M323.33,434.9011 C309.41,450.2211 293.49,467.7511 281.81,480.6111 " fill="none" id="Commission-backto-FixedCommission" style="stroke:#181818;stroke-width:1.0;"/><polygon fill="none" points="318.21,430.1111,336.84,420.0211,328.58,439.5311,318.21,430.1111" style="stroke:#181818;stroke-width:1.0;"/></g><!--reverse link Commission to PercentageCommission--><g id="link_Commission_PercentageCommission"><path codeLine="65" d="M385.02,434.9011 C399.09,450.2211 415.19,467.7511 427.01,480.6111 " fill="none" id="Commission-backto-PercentageCommission" style="stroke:#181818;stroke-width:1.0;"/><polygon fill="none" points="379.73,439.4811,371.35,420.0211,390.04,430.0111,379.73,439.4811" style="stroke:#181818;stroke-width:1.0;"/></g><!--link Visit to Property--><g id="link_Visit_Property"><path codeLine="67" d="M164,201.7611 C164,221.8011 164,253.7111 164,275.5011 " fill="none" id="Visit-to-Property" style="stroke:#181818;stroke-width:1.0;"/><polygon fill="#181818" points="164,280.5311,168,271.5311,164,275.5311,160,271.5311,164,280.5311" style="stroke:#181818;stroke-width:1.0;"/><polygon fill="#000000" points="169,246.2666,171.9389,237.2215,166.0611,237.2215,169,246.2666" style="stroke:#000000;stroke-width:1.0;"/><text fill="#000000" font-family="sans-serif" font-size="13" lengthAdjust="spacing" textLength="37" x="178" y="246.6494">to visit</text></g><!--link Agent to Visit--><g id="link_Agent_Visit"><path codeLine="68" d="M164,84.0911 C164,103.8611 164,135.7011 164,157.4811 " fill="none" id="Agent-to-Visit" style="stroke:#181818;stroke-width:1.0;"/><polygon fill="#181818" points="164,162.5211,168,153.5211,164,157.5211,160,153.5211,164,162.5211" style="stroke:#181818;stroke-width:1.0;"/><polygon fill="#000000" points="169,128.2666,171.9389,119.2215,166.0611,119.2215,169,128.2666" style="stroke:#000000;stroke-width:1.0;"/><text fill="#000000" font-family="sans-serif" font-size="13" lengthAdjust="spacing" textLength="50" x="178" y="128.6494">validates</text></g><!--SRC=[RP9DJyCm38Rl-HNMBfmcZICJcZGD8P10GfhWdYLUQvQFaRY3yV7VSJjejtQdHg_Vs7xUD6yeR7NI7dmCqPGfUWHE5QhSLhRQR7I1IzuxX8I6TIZSiI6NsiPt2WMijSker8N3DGD7I5IK39RgMnI3EhfadCvvpfneLJ7UcnYMz8amKQeaYs0e6HdId3ro6MrMYebbXPleDGLuZ1OTF2ydaokbukfLHi324GQ6BwL-Mks5ClMaUGYn2WRzmFoKuXOJxq_LkrXbhANZ7eB1mmOFEjXJPH6zfvm5_qI-fG-qNQst1YOZhINrWUCFSJmxW4tbHTugp2pnd62DBaSm7ZUVVwWfICeisMMOdJDBp_hGZPn2gJDeSQiscEjlwTe4qjFQG7fwdOYitN4qQWz_K3-NW5A7jwmNxPZaDziriZ0LJJHTDZljo6f60Vu5]--></g></svg>