<?xml version="1.0" encoding="UTF-8" standalone="no"?><svg xmlns="http://www.w3.org/2000/svg" xmlns:xlink="http://www.w3.org/1999/xlink" contentStyleType="text/css" height="799px" preserveAspectRatio="none" style="width:731px;height:799px;background:#FFFFFF;" version="1.1" viewBox="0 0 731 799" width="731px" zoomAndPan="magnify"><defs/><g><rect fill="#FFFFFF" height="607.0313" style="stroke:#181818;stroke-width:1.0;" width="10" x="59.5" y="92.6094"/><rect fill="#FFFFFF" height="30.3516" style="stroke:#181818;stroke-width:1.0;" width="10" x="678.5" y="114.9609"/><rect fill="#FFFFFF" height="30.3516" style="stroke:#181818;stroke-width:1.0;" width="10" x="678.5" y="175.6641"/><rect fill="#FFFFFF" height="67.7031" style="stroke:#181818;stroke-width:1.0;" width="10" x="678.5" y="261.7188"/><rect fill="#FFFFFF" height="67.7031" style="stroke:#181818;stroke-width:1.0;" width="10" x="678.5" y="385.125"/><rect fill="#FFFFFF" height="67.7031" style="stroke:#181818;stroke-width:1.0;" width="10" x="678.5" y="508.5313"/><rect fill="#FFFFFF" height="67.7031" style="stroke:#181818;stroke-width:1.0;" width="10" x="678.5" y="631.9375"/><rect height="79.0547" style="stroke:#000000;stroke-width:1.5;fill:none;" width="715.5" x="10" y="221.0156"/><rect height="79.0547" style="stroke:#000000;stroke-width:1.5;fill:none;" width="715.5" x="10" y="344.4219"/><rect height="79.0547" style="stroke:#000000;stroke-width:1.5;fill:none;" width="715.5" x="10" y="467.8281"/><rect height="79.0547" style="stroke:#000000;stroke-width:1.5;fill:none;" width="715.5" x="10" y="591.2344"/><line style="stroke:#181818;stroke-width:0.5;fill:none;stroke-dasharray:5.0,5.0;" x1="64" x2="64" y1="82.6094" y2="717.6406"/><line style="stroke:#181818;stroke-width:0.5;fill:none;stroke-dasharray:5.0,5.0;" x1="683.5" x2="683.5" y1="82.6094" y2="717.6406"/><text fill="#000000" font-family="sans-serif" font-size="14" lengthAdjust="spacing" textLength="83" x="20" y="79.5332">Administrator</text><ellipse cx="64.5" cy="13.5" fill="#E2E2F0" rx="8" ry="8" style="stroke:#181818;stroke-width:0.5;"/><path d="M64.5,21.5 L64.5,48.5 M51.5,29.5 L77.5,29.5 M64.5,48.5 L51.5,63.5 M64.5,48.5 L77.5,63.5 " fill="none" style="stroke:#181818;stroke-width:0.5;"/><text fill="#000000" font-family="sans-serif" font-size="14" lengthAdjust="spacing" textLength="83" x="20" y="731.1738">Administrator</text><ellipse cx="64.5" cy="742.75" fill="#E2E2F0" rx="8" ry="8" style="stroke:#181818;stroke-width:0.5;"/><path d="M64.5,750.75 L64.5,777.75 M51.5,758.75 L77.5,758.75 M64.5,777.75 L51.5,792.75 M64.5,777.75 L77.5,792.75 " fill="none" style="stroke:#181818;stroke-width:0.5;"/><rect fill="#E2E2F0" height="31.6094" rx="2.5" ry="2.5" style="stroke:#181818;stroke-width:0.5;" width="64" x="651.5" y="50"/><text fill="#000000" font-family="sans-serif" font-size="14" lengthAdjust="spacing" textLength="50" x="658.5" y="71.5332">:System</text><rect fill="#E2E2F0" height="31.6094" rx="2.5" ry="2.5" style="stroke:#181818;stroke-width:0.5;" width="64" x="651.5" y="716.6406"/><text fill="#000000" font-family="sans-serif" font-size="14" lengthAdjust="spacing" textLength="50" x="658.5" y="738.1738">:System</text><rect fill="#FFFFFF" height="607.0313" style="stroke:#181818;stroke-width:1.0;" width="10" x="59.5" y="92.6094"/><rect fill="#FFFFFF" height="30.3516" style="stroke:#181818;stroke-width:1.0;" width="10" x="678.5" y="114.9609"/><rect fill="#FFFFFF" height="30.3516" style="stroke:#181818;stroke-width:1.0;" width="10" x="678.5" y="175.6641"/><rect fill="#FFFFFF" height="67.7031" style="stroke:#181818;stroke-width:1.0;" width="10" x="678.5" y="261.7188"/><rect fill="#FFFFFF" height="67.7031" style="stroke:#181818;stroke-width:1.0;" width="10" x="678.5" y="385.125"/><rect fill="#FFFFFF" height="67.7031" style="stroke:#181818;stroke-width:1.0;" width="10" x="678.5" y="508.5313"/><rect fill="#FFFFFF" height="67.7031" style="stroke:#181818;stroke-width:1.0;" width="10" x="678.5" y="631.9375"/><polygon fill="#181818" points="666.5,110.9609,676.5,114.9609,666.5,118.9609,670.5,114.9609" style="stroke:#181818;stroke-width:1.0;"/><line style="stroke:#181818;stroke-width:1.0;" x1="69.5" x2="672.5" y1="114.9609" y2="114.9609"/><text fill="#000000" font-family="sans-serif" font-size="13" font-weight="bold" lengthAdjust="spacing" textLength="7" x="76.5" y="110.1045">1</text><text fill="#000000" font-family="sans-serif" font-size="13" lengthAdjust="spacing" textLength="174" x="87.5" y="110.1045">want to specify a new location</text><polygon fill="#181818" points="80.5,141.3125,70.5,145.3125,80.5,149.3125,76.5,145.3125" style="stroke:#181818;stroke-width:1.0;"/><line style="stroke:#181818;stroke-width:1.0;stroke-dasharray:2.0,2.0;" x1="74.5" x2="682.5" y1="145.3125" y2="145.3125"/><text fill="#000000" font-family="sans-serif" font-size="13" font-weight="bold" lengthAdjust="spacing" textLength="7" x="86.5" y="140.4561">2</text><text fill="#000000" font-family="sans-serif" font-size="13" lengthAdjust="spacing" textLength="192" x="97.5" y="140.4561">requests data related to the state</text><polygon fill="#181818" points="666.5,171.6641,676.5,175.6641,666.5,179.6641,670.5,175.6641" style="stroke:#181818;stroke-width:1.0;"/><line style="stroke:#181818;stroke-width:1.0;" x1="69.5" x2="672.5" y1="175.6641" y2="175.6641"/><text fill="#000000" font-family="sans-serif" font-size="13" font-weight="bold" lengthAdjust="spacing" textLength="7" x="76.5" y="170.8076">3</text><text fill="#000000" font-family="sans-serif" font-size="13" lengthAdjust="spacing" textLength="122" x="87.5" y="170.8076">types requested data</text><polygon fill="#181818" points="80.5,202.0156,70.5,206.0156,80.5,210.0156,76.5,206.0156" style="stroke:#181818;stroke-width:1.0;"/><line style="stroke:#181818;stroke-width:1.0;stroke-dasharray:2.0,2.0;" x1="74.5" x2="682.5" y1="206.0156" y2="206.0156"/><text fill="#000000" font-family="sans-serif" font-size="13" font-weight="bold" lengthAdjust="spacing" textLength="7" x="86.5" y="201.1592">4</text><text fill="#000000" font-family="sans-serif" font-size="13" lengthAdjust="spacing" textLength="333" x="97.5" y="201.1592">confirms the data and asks for the data related to the City</text><path d="M10,221.0156 L83,221.0156 L83,229.3672 L73,239.3672 L10,239.3672 L10,221.0156 " fill="#EEEEEE" style="stroke:#000000;stroke-width:1.5;"/><rect fill="none" height="79.0547" style="stroke:#000000;stroke-width:1.5;" width="715.5" x="10" y="221.0156"/><text fill="#000000" font-family="sans-serif" font-size="13" font-weight="bold" lengthAdjust="spacing" textLength="28" x="25" y="235.5107">loop</text><polygon fill="#181818" points="666.5,257.7188,676.5,261.7188,666.5,265.7188,670.5,261.7188" style="stroke:#181818;stroke-width:1.0;"/><line style="stroke:#181818;stroke-width:1.0;" x1="69.5" x2="672.5" y1="261.7188" y2="261.7188"/><text fill="#000000" font-family="sans-serif" font-size="13" font-weight="bold" lengthAdjust="spacing" textLength="7" x="76.5" y="256.8623">5</text><text fill="#000000" font-family="sans-serif" font-size="13" lengthAdjust="spacing" textLength="122" x="87.5" y="256.8623">types requested data</text><polygon fill="#181818" points="80.5,288.0703,70.5,292.0703,80.5,296.0703,76.5,292.0703" style="stroke:#181818;stroke-width:1.0;"/><line style="stroke:#181818;stroke-width:1.0;stroke-dasharray:2.0,2.0;" x1="74.5" x2="677.5" y1="292.0703" y2="292.0703"/><text fill="#000000" font-family="sans-serif" font-size="13" font-weight="bold" lengthAdjust="spacing" textLength="7" x="86.5" y="287.2139">6</text><text fill="#000000" font-family="sans-serif" font-size="13" lengthAdjust="spacing" textLength="533" x="97.5" y="287.2139">confirms the data and asks if the admin wants to specify another city in the same state (y/n)</text><polygon fill="#181818" points="80.5,325.4219,70.5,329.4219,80.5,333.4219,76.5,329.4219" style="stroke:#181818;stroke-width:1.0;"/><line style="stroke:#181818;stroke-width:1.0;stroke-dasharray:2.0,2.0;" x1="74.5" x2="682.5" y1="329.4219" y2="329.4219"/><text fill="#000000" font-family="sans-serif" font-size="13" font-weight="bold" lengthAdjust="spacing" textLength="7" x="86.5" y="324.5654">7</text><text fill="#000000" font-family="sans-serif" font-size="13" lengthAdjust="spacing" textLength="222" x="97.5" y="324.5654">asks for the data related to the District</text><path d="M10,344.4219 L83,344.4219 L83,352.7734 L73,362.7734 L10,362.7734 L10,344.4219 " fill="#EEEEEE" style="stroke:#000000;stroke-width:1.5;"/><rect fill="none" height="79.0547" style="stroke:#000000;stroke-width:1.5;" width="715.5" x="10" y="344.4219"/><text fill="#000000" font-family="sans-serif" font-size="13" font-weight="bold" lengthAdjust="spacing" textLength="28" x="25" y="358.917">loop</text><polygon fill="#181818" points="666.5,381.125,676.5,385.125,666.5,389.125,670.5,385.125" style="stroke:#181818;stroke-width:1.0;"/><line style="stroke:#181818;stroke-width:1.0;" x1="69.5" x2="672.5" y1="385.125" y2="385.125"/><text fill="#000000" font-family="sans-serif" font-size="13" font-weight="bold" lengthAdjust="spacing" textLength="7" x="76.5" y="380.2686">8</text><text fill="#000000" font-family="sans-serif" font-size="13" lengthAdjust="spacing" textLength="122" x="87.5" y="380.2686">types requested data</text><polygon fill="#181818" points="80.5,411.4766,70.5,415.4766,80.5,419.4766,76.5,415.4766" style="stroke:#181818;stroke-width:1.0;"/><line style="stroke:#181818;stroke-width:1.0;stroke-dasharray:2.0,2.0;" x1="74.5" x2="677.5" y1="415.4766" y2="415.4766"/><text fill="#000000" font-family="sans-serif" font-size="13" font-weight="bold" lengthAdjust="spacing" textLength="7" x="86.5" y="410.6201">9</text><text fill="#000000" font-family="sans-serif" font-size="13" lengthAdjust="spacing" textLength="543" x="97.5" y="410.6201">confirms the data and asks if the admin wants to specify another district in the same city (y/n)</text><polygon fill="#181818" points="80.5,448.8281,70.5,452.8281,80.5,456.8281,76.5,452.8281" style="stroke:#181818;stroke-width:1.0;"/><line style="stroke:#181818;stroke-width:1.0;stroke-dasharray:2.0,2.0;" x1="74.5" x2="682.5" y1="452.8281" y2="452.8281"/><text fill="#000000" font-family="sans-serif" font-size="13" font-weight="bold" lengthAdjust="spacing" textLength="14" x="86.5" y="447.9717">10</text><text fill="#000000" font-family="sans-serif" font-size="13" lengthAdjust="spacing" textLength="216" x="104.5" y="447.9717">asks for the data related to the Street</text><path d="M10,467.8281 L83,467.8281 L83,476.1797 L73,486.1797 L10,486.1797 L10,467.8281 " fill="#EEEEEE" style="stroke:#000000;stroke-width:1.5;"/><rect fill="none" height="79.0547" style="stroke:#000000;stroke-width:1.5;" width="715.5" x="10" y="467.8281"/><text fill="#000000" font-family="sans-serif" font-size="13" font-weight="bold" lengthAdjust="spacing" textLength="28" x="25" y="482.3232">loop</text><polygon fill="#181818" points="666.5,504.5313,676.5,508.5313,666.5,512.5313,670.5,508.5313" style="stroke:#181818;stroke-width:1.0;"/><line style="stroke:#181818;stroke-width:1.0;" x1="69.5" x2="672.5" y1="508.5313" y2="508.5313"/><text fill="#000000" font-family="sans-serif" font-size="13" font-weight="bold" lengthAdjust="spacing" textLength="14" x="76.5" y="503.6748">11</text><text fill="#000000" font-family="sans-serif" font-size="13" lengthAdjust="spacing" textLength="122" x="94.5" y="503.6748">types requested data</text><polygon fill="#181818" points="80.5,534.8828,70.5,538.8828,80.5,542.8828,76.5,538.8828" style="stroke:#181818;stroke-width:1.0;"/><line style="stroke:#181818;stroke-width:1.0;stroke-dasharray:2.0,2.0;" x1="74.5" x2="677.5" y1="538.8828" y2="538.8828"/><text fill="#000000" font-family="sans-serif" font-size="13" font-weight="bold" lengthAdjust="spacing" textLength="14" x="86.5" y="534.0264">12</text><text fill="#000000" font-family="sans-serif" font-size="13" lengthAdjust="spacing" textLength="555" x="104.5" y="534.0264">confirms the data and asks if the admin wants to specify another street in the same district (y/n)</text><polygon fill="#181818" points="80.5,572.2344,70.5,576.2344,80.5,580.2344,76.5,576.2344" style="stroke:#181818;stroke-width:1.0;"/><line style="stroke:#181818;stroke-width:1.0;stroke-dasharray:2.0,2.0;" x1="74.5" x2="682.5" y1="576.2344" y2="576.2344"/><text fill="#000000" font-family="sans-serif" font-size="13" font-weight="bold" lengthAdjust="spacing" textLength="14" x="86.5" y="571.3779">13</text><text fill="#000000" font-family="sans-serif" font-size="13" lengthAdjust="spacing" textLength="226" x="104.5" y="571.3779">asks for the data related to the zipcode</text><path d="M10,591.2344 L83,591.2344 L83,599.5859 L73,609.5859 L10,609.5859 L10,591.2344 " fill="#EEEEEE" style="stroke:#000000;stroke-width:1.5;"/><rect fill="none" height="79.0547" style="stroke:#000000;stroke-width:1.5;" width="715.5" x="10" y="591.2344"/><text fill="#000000" font-family="sans-serif" font-size="13" font-weight="bold" lengthAdjust="spacing" textLength="28" x="25" y="605.7295">loop</text><polygon fill="#181818" points="666.5,627.9375,676.5,631.9375,666.5,635.9375,670.5,631.9375" style="stroke:#181818;stroke-width:1.0;"/><line style="stroke:#181818;stroke-width:1.0;" x1="69.5" x2="672.5" y1="631.9375" y2="631.9375"/><text fill="#000000" font-family="sans-serif" font-size="13" font-weight="bold" lengthAdjust="spacing" textLength="14" x="76.5" y="627.0811">14</text><text fill="#000000" font-family="sans-serif" font-size="13" lengthAdjust="spacing" textLength="122" x="94.5" y="627.0811">types requested data</text><polygon fill="#181818" points="80.5,658.2891,70.5,662.2891,80.5,666.2891,76.5,662.2891" style="stroke:#181818;stroke-width:1.0;"/><line style="stroke:#181818;stroke-width:1.0;stroke-dasharray:2.0,2.0;" x1="74.5" x2="677.5" y1="662.2891" y2="662.2891"/><text fill="#000000" font-family="sans-serif" font-size="13" font-weight="bold" lengthAdjust="spacing" textLength="14" x="86.5" y="657.4326">15</text><text fill="#000000" font-family="sans-serif" font-size="13" lengthAdjust="spacing" textLength="567" x="104.5" y="657.4326">confirms the data and asks if the admin wants to specify another zipcode in the same district (y/n)</text><polygon fill="#181818" points="75.5,695.6406,65.5,699.6406,75.5,703.6406,71.5,699.6406" style="stroke:#181818;stroke-width:1.0;"/><line style="stroke:#181818;stroke-width:1.0;stroke-dasharray:2.0,2.0;" x1="69.5" x2="682.5" y1="699.6406" y2="699.6406"/><text fill="#000000" font-family="sans-serif" font-size="13" font-weight="bold" lengthAdjust="spacing" textLength="14" x="81.5" y="694.7842">16</text><text fill="#000000" font-family="sans-serif" font-size="13" lengthAdjust="spacing" textLength="210" x="99.5" y="694.7842">confirm the success of the operation</text><!--MD5=[dad865502eb591bac729336c46e09264]
@startuml
autonumber
actor "Administrator" as OE

activate OE
OE -> ":System" : want to specify a new location
activate ":System"
":System" - -> OE : requests data related to the state

deactivate ":System"

OE -> ":System" : types requested data
activate ":System"
":System" - -> OE : confirms the data and asks for the data related to the City
deactivate ":System"
loop
OE -> ":System" : types requested data

activate ":System"
":System" - -> OE : confirms the data and asks if the admin wants to specify another city in the same state (y/n)

end loop

activate ":System"

":System" - -> OE : asks for the data related to the District
deactivate ":System"
loop
OE -> ":System" : types requested data

activate ":System"
":System" - -> OE : confirms the data and asks if the admin wants to specify another district in the same city (y/n)

end loop
activate ":System"

":System" - -> OE : asks for the data related to the Street
deactivate ":System"
loop
OE -> ":System" : types requested data

activate ":System"
":System" - -> OE : confirms the data and asks if the admin wants to specify another street in the same district (y/n)

end loop
activate ":System"

":System" - -> OE : asks for the data related to the zipcode
deactivate ":System"
loop
OE -> ":System" : types requested data

activate ":System"
":System" - -> OE : confirms the data and asks if the admin wants to specify another zipcode in the same district (y/n)

end loop

activate ":System"
":System" - -> OE : confirm the success of the operation
deactivate ":System"
deactivate OE

@enduml

PlantUML version 1.2022.4(Sat Apr 09 14:29:17 BST 2022)
(GPL source distribution)
Java Runtime: OpenJDK Runtime Environment
JVM: OpenJDK 64-Bit Server VM
Default Encoding: MS932
Language: en
Country: US
--></g></svg>