<?xml version="1.0" encoding="us-ascii" standalone="no"?><svg xmlns="http://www.w3.org/2000/svg" xmlns:xlink="http://www.w3.org/1999/xlink" contentStyleType="text/css" height="795px" preserveAspectRatio="none" style="width:957px;height:795px;background:#FFFFFF;" version="1.1" viewBox="0 0 957 795" width="957px" zoomAndPan="magnify"><defs/><g><!--class Runnable--><g id="elem_Runnable"><rect codeLine="2" fill="#F1F1F1" height="66.6211" id="Runnable" rx="2.5" ry="2.5" style="stroke:#181818;stroke-width:0.5;" width="93" x="201.5" y="7"/><ellipse cx="216.5" cy="23" fill="#B4A7E5" rx="11" ry="11" style="stroke:#181818;stroke-width:1.0;"/><path d="M217.4531,19.6406 L217.4531,26.2969 L219.1719,26.2969 Q219.7813,26.2969 220.0469,26.5313 Q220.3125,26.7656 220.3125,27.1563 Q220.3125,27.5313 220.0469,27.7656 Q219.7813,28 219.1719,28 L214.0313,28 Q213.4219,28 213.1563,27.7656 Q212.8906,27.5313 212.8906,27.1406 Q212.8906,26.7656 213.1563,26.5313 Q213.4219,26.2969 214.0313,26.2969 L215.75,26.2969 L215.75,19.6406 L214.0313,19.6406 Q213.4219,19.6406 213.1563,19.4063 Q212.8906,19.1719 212.8906,18.7813 Q212.8906,18.4063 213.1563,18.1719 Q213.4219,17.9375 214.0313,17.9375 L219.1719,17.9375 Q219.7813,17.9375 220.0469,18.1719 Q220.3125,18.4063 220.3125,18.7813 Q220.3125,19.1719 220.0469,19.4063 Q219.7813,19.6406 219.1719,19.6406 L217.4531,19.6406 Z " fill="#000000"/><text fill="#000000" font-family="sans-serif" font-size="14" font-style="italic" lengthAdjust="spacing" textLength="61" x="230.5" y="28.7969">Runnable</text><line style="stroke:#181818;stroke-width:0.5;" x1="202.5" x2="293.5" y1="39" y2="39"/><line style="stroke:#181818;stroke-width:0.5;" x1="202.5" x2="293.5" y1="47" y2="47"/><ellipse cx="212.5" cy="61.8105" fill="#84BE84" rx="3" ry="3" style="stroke:#038048;stroke-width:1.0;"/><text fill="#000000" font-family="sans-serif" font-size="14" lengthAdjust="spacing" textLength="31" x="221.5" y="66.1074">run()</text></g><!--class ScheduleVisitUI--><g id="elem_ScheduleVisitUI"><rect codeLine="7" fill="#F1F1F1" height="66.6211" id="ScheduleVisitUI" rx="2.5" ry="2.5" style="stroke:#181818;stroke-width:0.5;" width="129" x="37.5" y="7"/><ellipse cx="52.5" cy="23" fill="#ADD1B2" rx="11" ry="11" style="stroke:#181818;stroke-width:1.0;"/><path d="M55.2656,18.875 Q55.4219,18.6563 55.6094,18.5469 Q55.7969,18.4375 56.0156,18.4375 Q56.3906,18.4375 56.625,18.7031 Q56.8594,18.9531 56.8594,19.5625 L56.8594,21.0156 Q56.8594,21.625 56.625,21.8906 Q56.3906,22.1563 56.0156,22.1563 Q55.6719,22.1563 55.4688,21.9531 Q55.2656,21.7656 55.1563,21.25 Q55.1094,20.8906 54.9219,20.7031 Q54.5938,20.3281 53.9844,20.1094 Q53.375,19.8906 52.75,19.8906 Q51.9844,19.8906 51.3438,20.2188 Q50.7188,20.5469 50.2188,21.2969 Q49.7344,22.0469 49.7344,23.0781 L49.7344,24.1719 Q49.7344,25.4063 50.625,26.2344 Q51.5156,27.0469 53.1094,27.0469 Q54.0469,27.0469 54.7031,26.7969 Q55.0938,26.6406 55.5156,26.2031 Q55.7813,25.9375 55.9219,25.8594 Q56.0781,25.7813 56.2813,25.7813 Q56.6094,25.7813 56.8594,26.0469 Q57.125,26.2969 57.125,26.6406 Q57.125,26.9844 56.7813,27.3906 Q56.2813,27.9688 55.4844,28.2969 Q54.4063,28.75 53.1094,28.75 Q51.5938,28.75 50.3906,28.125 Q49.4063,27.625 48.7188,26.5625 Q48.0313,25.4844 48.0313,24.2031 L48.0313,23.0469 Q48.0313,21.7188 48.6406,20.5781 Q49.2656,19.4219 50.3594,18.8125 Q51.4531,18.1875 52.6875,18.1875 Q53.4219,18.1875 54.0625,18.3594 Q54.7188,18.5156 55.2656,18.875 Z " fill="#000000"/><text fill="#000000" font-family="sans-serif" font-size="14" lengthAdjust="spacing" textLength="97" x="66.5" y="28.7969">ScheduleVisitUI</text><line style="stroke:#181818;stroke-width:0.5;" x1="38.5" x2="165.5" y1="39" y2="39"/><rect fill="none" height="6" style="stroke:#C82930;stroke-width:1.0;" width="6" x="45.5" y="50.8105"/><text fill="#000000" font-family="sans-serif" font-size="14" lengthAdjust="spacing" textLength="59" x="57.5" y="58.1074">controller</text><line style="stroke:#181818;stroke-width:0.5;" x1="38.5" x2="165.5" y1="65.6211" y2="65.6211"/></g><!--class ScheduleVisitController--><g id="elem_ScheduleVisitController"><rect codeLine="11" fill="#F1F1F1" height="122.4844" id="ScheduleVisitController" rx="2.5" ry="2.5" style="stroke:#181818;stroke-width:0.5;" width="189" x="7.5" y="162"/><ellipse cx="27" cy="178" fill="#ADD1B2" rx="11" ry="11" style="stroke:#181818;stroke-width:1.0;"/><path d="M29.7656,173.875 Q29.9219,173.6563 30.1094,173.5469 Q30.2969,173.4375 30.5156,173.4375 Q30.8906,173.4375 31.125,173.7031 Q31.3594,173.9531 31.3594,174.5625 L31.3594,176.0156 Q31.3594,176.625 31.125,176.8906 Q30.8906,177.1563 30.5156,177.1563 Q30.1719,177.1563 29.9688,176.9531 Q29.7656,176.7656 29.6563,176.25 Q29.6094,175.8906 29.4219,175.7031 Q29.0938,175.3281 28.4844,175.1094 Q27.875,174.8906 27.25,174.8906 Q26.4844,174.8906 25.8438,175.2188 Q25.2188,175.5469 24.7188,176.2969 Q24.2344,177.0469 24.2344,178.0781 L24.2344,179.1719 Q24.2344,180.4063 25.125,181.2344 Q26.0156,182.0469 27.6094,182.0469 Q28.5469,182.0469 29.2031,181.7969 Q29.5938,181.6406 30.0156,181.2031 Q30.2813,180.9375 30.4219,180.8594 Q30.5781,180.7813 30.7813,180.7813 Q31.1094,180.7813 31.3594,181.0469 Q31.625,181.2969 31.625,181.6406 Q31.625,181.9844 31.2813,182.3906 Q30.7813,182.9688 29.9844,183.2969 Q28.9063,183.75 27.6094,183.75 Q26.0938,183.75 24.8906,183.125 Q23.9063,182.625 23.2188,181.5625 Q22.5313,180.4844 22.5313,179.2031 L22.5313,178.0469 Q22.5313,176.7188 23.1406,175.5781 Q23.7656,174.4219 24.8594,173.8125 Q25.9531,173.1875 27.1875,173.1875 Q27.9219,173.1875 28.5625,173.3594 Q29.2188,173.5156 29.7656,173.875 Z " fill="#000000"/><text fill="#000000" font-family="sans-serif" font-size="14" lengthAdjust="spacing" textLength="147" x="42" y="183.7969">ScheduleVisitController</text><line style="stroke:#181818;stroke-width:0.5;" x1="8.5" x2="195.5" y1="194" y2="194"/><rect fill="none" height="6" style="stroke:#C82930;stroke-width:1.0;" width="6" x="15.5" y="205.8105"/><text fill="#000000" font-family="sans-serif" font-size="14" lengthAdjust="spacing" textLength="125" x="27.5" y="213.1074">scheduleRepository</text><rect fill="none" height="6" style="stroke:#C82930;stroke-width:1.0;" width="6" x="15.5" y="224.4316"/><text fill="#000000" font-family="sans-serif" font-size="14" lengthAdjust="spacing" textLength="163" x="27.5" y="231.7285">AnnouncementRepository</text><line style="stroke:#181818;stroke-width:0.5;" x1="8.5" x2="195.5" y1="239.2422" y2="239.2422"/><ellipse cx="18.5" cy="254.0527" fill="#84BE84" rx="3" ry="3" style="stroke:#038048;stroke-width:1.0;"/><text fill="#000000" font-family="sans-serif" font-size="14" lengthAdjust="spacing" textLength="109" x="27.5" y="258.3496">createSchedule()</text><ellipse cx="18.5" cy="272.6738" fill="#84BE84" rx="3" ry="3" style="stroke:#038048;stroke-width:1.0;"/><text fill="#000000" font-family="sans-serif" font-size="14" lengthAdjust="spacing" textLength="147" x="27.5" y="276.9707">getAnnouncementList()</text></g><!--class Schedule--><g id="elem_Schedule"><rect codeLine="20" fill="#F1F1F1" height="196.9688" id="Schedule" rx="2.5" ry="2.5" style="stroke:#181818;stroke-width:0.5;" width="120" x="42" y="372"/><ellipse cx="70.05" cy="388" fill="#ADD1B2" rx="11" ry="11" style="stroke:#181818;stroke-width:1.0;"/><path d="M72.8156,383.875 Q72.9719,383.6563 73.1594,383.5469 Q73.3469,383.4375 73.5656,383.4375 Q73.9406,383.4375 74.175,383.7031 Q74.4094,383.9531 74.4094,384.5625 L74.4094,386.0156 Q74.4094,386.625 74.175,386.8906 Q73.9406,387.1563 73.5656,387.1563 Q73.2219,387.1563 73.0188,386.9531 Q72.8156,386.7656 72.7063,386.25 Q72.6594,385.8906 72.4719,385.7031 Q72.1438,385.3281 71.5344,385.1094 Q70.925,384.8906 70.3,384.8906 Q69.5344,384.8906 68.8938,385.2188 Q68.2688,385.5469 67.7688,386.2969 Q67.2844,387.0469 67.2844,388.0781 L67.2844,389.1719 Q67.2844,390.4063 68.175,391.2344 Q69.0656,392.0469 70.6594,392.0469 Q71.5969,392.0469 72.2531,391.7969 Q72.6438,391.6406 73.0656,391.2031 Q73.3313,390.9375 73.4719,390.8594 Q73.6281,390.7813 73.8313,390.7813 Q74.1594,390.7813 74.4094,391.0469 Q74.675,391.2969 74.675,391.6406 Q74.675,391.9844 74.3313,392.3906 Q73.8313,392.9688 73.0344,393.2969 Q71.9563,393.75 70.6594,393.75 Q69.1438,393.75 67.9406,393.125 Q66.9563,392.625 66.2688,391.5625 Q65.5813,390.4844 65.5813,389.2031 L65.5813,388.0469 Q65.5813,386.7188 66.1906,385.5781 Q66.8156,384.4219 67.9094,383.8125 Q69.0031,383.1875 70.2375,383.1875 Q70.9719,383.1875 71.6125,383.3594 Q72.2688,383.5156 72.8156,383.875 Z " fill="#000000"/><text fill="#000000" font-family="sans-serif" font-size="14" lengthAdjust="spacing" textLength="59" x="86.95" y="393.7969">Schedule</text><line style="stroke:#181818;stroke-width:0.5;" x1="43" x2="161" y1="404" y2="404"/><rect fill="none" height="6" style="stroke:#C82930;stroke-width:1.0;" width="6" x="50" y="415.8105"/><text fill="#000000" font-family="sans-serif" font-size="14" lengthAdjust="spacing" textLength="35" x="62" y="423.1074">name</text><rect fill="none" height="6" style="stroke:#C82930;stroke-width:1.0;" width="6" x="50" y="434.4316"/><text fill="#000000" font-family="sans-serif" font-size="14" lengthAdjust="spacing" textLength="89" x="62" y="441.7285">phoneNumber</text><rect fill="none" height="6" style="stroke:#C82930;stroke-width:1.0;" width="6" x="50" y="453.0527"/><text fill="#000000" font-family="sans-serif" font-size="14" lengthAdjust="spacing" textLength="94" x="62" y="460.3496">announcement</text><rect fill="none" height="6" style="stroke:#C82930;stroke-width:1.0;" width="6" x="50" y="471.6738"/><text fill="#000000" font-family="sans-serif" font-size="14" lengthAdjust="spacing" textLength="23" x="62" y="478.9707">day</text><rect fill="none" height="6" style="stroke:#C82930;stroke-width:1.0;" width="6" x="50" y="490.2949"/><text fill="#000000" font-family="sans-serif" font-size="14" lengthAdjust="spacing" textLength="57" x="62" y="497.5918">begiHour</text><rect fill="none" height="6" style="stroke:#C82930;stroke-width:1.0;" width="6" x="50" y="508.916"/><text fill="#000000" font-family="sans-serif" font-size="14" lengthAdjust="spacing" textLength="54" x="62" y="516.2129">endHour</text><rect fill="none" height="6" style="stroke:#C82930;stroke-width:1.0;" width="6" x="50" y="527.5371"/><text fill="#000000" font-family="sans-serif" font-size="14" lengthAdjust="spacing" textLength="28" x="62" y="534.834">note</text><rect fill="none" height="6" style="stroke:#C82930;stroke-width:1.0;" width="6" x="50" y="546.1582"/><text fill="#000000" font-family="sans-serif" font-size="14" lengthAdjust="spacing" textLength="38" x="62" y="553.4551">status</text><line style="stroke:#181818;stroke-width:0.5;" x1="43" x2="161" y1="560.9688" y2="560.9688"/></g><!--class ScheduleRepository--><g id="elem_ScheduleRepository"><rect codeLine="32" fill="#F1F1F1" height="159.7266" id="ScheduleRepository" rx="2.5" ry="2.5" style="stroke:#181818;stroke-width:0.5;" width="190" x="7" y="629"/><ellipse cx="35.95" cy="645" fill="#ADD1B2" rx="11" ry="11" style="stroke:#181818;stroke-width:1.0;"/><path d="M38.7156,640.875 Q38.8719,640.6563 39.0594,640.5469 Q39.2469,640.4375 39.4656,640.4375 Q39.8406,640.4375 40.075,640.7031 Q40.3094,640.9531 40.3094,641.5625 L40.3094,643.0156 Q40.3094,643.625 40.075,643.8906 Q39.8406,644.1563 39.4656,644.1563 Q39.1219,644.1563 38.9188,643.9531 Q38.7156,643.7656 38.6063,643.25 Q38.5594,642.8906 38.3719,642.7031 Q38.0438,642.3281 37.4344,642.1094 Q36.825,641.8906 36.2,641.8906 Q35.4344,641.8906 34.7938,642.2188 Q34.1688,642.5469 33.6688,643.2969 Q33.1844,644.0469 33.1844,645.0781 L33.1844,646.1719 Q33.1844,647.4063 34.075,648.2344 Q34.9656,649.0469 36.5594,649.0469 Q37.4969,649.0469 38.1531,648.7969 Q38.5438,648.6406 38.9656,648.2031 Q39.2313,647.9375 39.3719,647.8594 Q39.5281,647.7813 39.7313,647.7813 Q40.0594,647.7813 40.3094,648.0469 Q40.575,648.2969 40.575,648.6406 Q40.575,648.9844 40.2313,649.3906 Q39.7313,649.9688 38.9344,650.2969 Q37.8563,650.75 36.5594,650.75 Q35.0438,650.75 33.8406,650.125 Q32.8563,649.625 32.1688,648.5625 Q31.4813,647.4844 31.4813,646.2031 L31.4813,645.0469 Q31.4813,643.7188 32.0906,642.5781 Q32.7156,641.4219 33.8094,640.8125 Q34.9031,640.1875 36.1375,640.1875 Q36.8719,640.1875 37.5125,640.3594 Q38.1688,640.5156 38.7156,640.875 Z " fill="#000000"/><text fill="#000000" font-family="sans-serif" font-size="14" lengthAdjust="spacing" textLength="127" x="53.05" y="650.7969">ScheduleRepository</text><line style="stroke:#181818;stroke-width:0.5;" x1="8" x2="196" y1="661" y2="661"/><rect fill="none" height="6" style="stroke:#C82930;stroke-width:1.0;" width="6" x="15" y="672.8105"/><text fill="#000000" font-family="sans-serif" font-size="14" lengthAdjust="spacing" textLength="81" x="27" y="680.1074">ScheduleList</text><line style="stroke:#181818;stroke-width:0.5;" x1="8" x2="196" y1="687.6211" y2="687.6211"/><ellipse cx="18" cy="702.4316" fill="#84BE84" rx="3" ry="3" style="stroke:#038048;stroke-width:1.0;"/><text fill="#000000" font-family="sans-serif" font-size="14" lengthAdjust="spacing" textLength="99" x="27" y="706.7285">saveSchedule()</text><ellipse cx="18" cy="721.0527" fill="#84BE84" rx="3" ry="3" style="stroke:#038048;stroke-width:1.0;"/><text fill="#000000" font-family="sans-serif" font-size="14" lengthAdjust="spacing" textLength="118" x="27" y="725.3496">validateSchedule()</text><ellipse cx="18" cy="739.6738" fill="#84BE84" rx="3" ry="3" style="stroke:#038048;stroke-width:1.0;"/><text fill="#000000" font-family="sans-serif" font-size="14" lengthAdjust="spacing" textLength="93" x="27" y="743.9707">addSchedule()</text><ellipse cx="18" cy="758.2949" fill="#84BE84" rx="3" ry="3" style="stroke:#038048;stroke-width:1.0;"/><text fill="#000000" font-family="sans-serif" font-size="14" lengthAdjust="spacing" textLength="111" x="27" y="762.5918">getScheduleList()</text><ellipse cx="18" cy="776.916" fill="#84BE84" rx="3" ry="3" style="stroke:#038048;stroke-width:1.0;"/><text fill="#000000" font-family="sans-serif" font-size="14" lengthAdjust="spacing" textLength="164" x="27" y="781.2129">getScheduleListAsString()</text></g><!--class AnnouncementRepository--><g id="elem_AnnouncementRepository"><rect codeLine="42" fill="#F1F1F1" height="178.3477" id="AnnouncementRepository" rx="2.5" ry="2.5" style="stroke:#181818;stroke-width:0.5;" width="214" x="736" y="134"/><ellipse cx="759.55" cy="150" fill="#ADD1B2" rx="11" ry="11" style="stroke:#181818;stroke-width:1.0;"/><path d="M762.3156,145.875 Q762.4719,145.6563 762.6594,145.5469 Q762.8469,145.4375 763.0656,145.4375 Q763.4406,145.4375 763.675,145.7031 Q763.9094,145.9531 763.9094,146.5625 L763.9094,148.0156 Q763.9094,148.625 763.675,148.8906 Q763.4406,149.1563 763.0656,149.1563 Q762.7219,149.1563 762.5188,148.9531 Q762.3156,148.7656 762.2063,148.25 Q762.1594,147.8906 761.9719,147.7031 Q761.6438,147.3281 761.0344,147.1094 Q760.425,146.8906 759.8,146.8906 Q759.0344,146.8906 758.3938,147.2188 Q757.7688,147.5469 757.2688,148.2969 Q756.7844,149.0469 756.7844,150.0781 L756.7844,151.1719 Q756.7844,152.4063 757.675,153.2344 Q758.5656,154.0469 760.1594,154.0469 Q761.0969,154.0469 761.7531,153.7969 Q762.1438,153.6406 762.5656,153.2031 Q762.8313,152.9375 762.9719,152.8594 Q763.1281,152.7813 763.3313,152.7813 Q763.6594,152.7813 763.9094,153.0469 Q764.175,153.2969 764.175,153.6406 Q764.175,153.9844 763.8313,154.3906 Q763.3313,154.9688 762.5344,155.2969 Q761.4563,155.75 760.1594,155.75 Q758.6438,155.75 757.4406,155.125 Q756.4563,154.625 755.7688,153.5625 Q755.0813,152.4844 755.0813,151.2031 L755.0813,150.0469 Q755.0813,148.7188 755.6906,147.5781 Q756.3156,146.4219 757.4094,145.8125 Q758.5031,145.1875 759.7375,145.1875 Q760.4719,145.1875 761.1125,145.3594 Q761.7688,145.5156 762.3156,145.875 Z " fill="#000000"/><text fill="#000000" font-family="sans-serif" font-size="14" lengthAdjust="spacing" textLength="163" x="775.45" y="155.7969">AnnouncementRepository</text><line style="stroke:#181818;stroke-width:0.5;" x1="737" x2="949" y1="166" y2="166"/><line style="stroke:#181818;stroke-width:0.5;" x1="737" x2="949" y1="174" y2="174"/><ellipse cx="747" cy="188.8105" fill="#84BE84" rx="3" ry="3" style="stroke:#038048;stroke-width:1.0;"/><text fill="#000000" font-family="sans-serif" font-size="14" lengthAdjust="spacing" textLength="40" x="756" y="193.1074">save()</text><ellipse cx="747" cy="207.4316" fill="#84BE84" rx="3" ry="3" style="stroke:#038048;stroke-width:1.0;"/><text fill="#000000" font-family="sans-serif" font-size="14" lengthAdjust="spacing" textLength="145" x="756" y="211.7285">createAnnouncement()</text><ellipse cx="747" cy="226.0527" fill="#84BE84" rx="3" ry="3" style="stroke:#038048;stroke-width:1.0;"/><text fill="#000000" font-family="sans-serif" font-size="14" lengthAdjust="spacing" textLength="154" x="756" y="230.3496">validateAnnouncement()</text><ellipse cx="747" cy="244.6738" fill="#84BE84" rx="3" ry="3" style="stroke:#038048;stroke-width:1.0;"/><text fill="#000000" font-family="sans-serif" font-size="14" lengthAdjust="spacing" textLength="129" x="756" y="248.9707">addAnnouncement()</text><ellipse cx="747" cy="263.2949" fill="#84BE84" rx="3" ry="3" style="stroke:#038048;stroke-width:1.0;"/><text fill="#000000" font-family="sans-serif" font-size="14" lengthAdjust="spacing" textLength="188" x="756" y="267.5918">getAllVisibleAnnouncements()</text><ellipse cx="747" cy="281.916" fill="#84BE84" rx="3" ry="3" style="stroke:#038048;stroke-width:1.0;"/><text fill="#000000" font-family="sans-serif" font-size="14" lengthAdjust="spacing" textLength="125" x="756" y="286.2129">getAvailableFields()</text><ellipse cx="747" cy="300.5371" fill="#84BE84" rx="3" ry="3" style="stroke:#038048;stroke-width:1.0;"/><text fill="#000000" font-family="sans-serif" font-size="14" lengthAdjust="spacing" textLength="132" x="756" y="304.834">getAnnouncements()</text></g><!--class AnnouncementDTO--><g id="elem_AnnouncementDTO"><rect codeLine="53" fill="#F1F1F1" height="122.4844" id="AnnouncementDTO" rx="2.5" ry="2.5" style="stroke:#181818;stroke-width:0.5;" width="157" x="543.5" y="162"/><ellipse cx="558.5" cy="178" fill="#ADD1B2" rx="11" ry="11" style="stroke:#181818;stroke-width:1.0;"/><path d="M561.2656,173.875 Q561.4219,173.6563 561.6094,173.5469 Q561.7969,173.4375 562.0156,173.4375 Q562.3906,173.4375 562.625,173.7031 Q562.8594,173.9531 562.8594,174.5625 L562.8594,176.0156 Q562.8594,176.625 562.625,176.8906 Q562.3906,177.1563 562.0156,177.1563 Q561.6719,177.1563 561.4688,176.9531 Q561.2656,176.7656 561.1563,176.25 Q561.1094,175.8906 560.9219,175.7031 Q560.5938,175.3281 559.9844,175.1094 Q559.375,174.8906 558.75,174.8906 Q557.9844,174.8906 557.3438,175.2188 Q556.7188,175.5469 556.2188,176.2969 Q555.7344,177.0469 555.7344,178.0781 L555.7344,179.1719 Q555.7344,180.4063 556.625,181.2344 Q557.5156,182.0469 559.1094,182.0469 Q560.0469,182.0469 560.7031,181.7969 Q561.0938,181.6406 561.5156,181.2031 Q561.7813,180.9375 561.9219,180.8594 Q562.0781,180.7813 562.2813,180.7813 Q562.6094,180.7813 562.8594,181.0469 Q563.125,181.2969 563.125,181.6406 Q563.125,181.9844 562.7813,182.3906 Q562.2813,182.9688 561.4844,183.2969 Q560.4063,183.75 559.1094,183.75 Q557.5938,183.75 556.3906,183.125 Q555.4063,182.625 554.7188,181.5625 Q554.0313,180.4844 554.0313,179.2031 L554.0313,178.0469 Q554.0313,176.7188 554.6406,175.5781 Q555.2656,174.4219 556.3594,173.8125 Q557.4531,173.1875 558.6875,173.1875 Q559.4219,173.1875 560.0625,173.3594 Q560.7188,173.5156 561.2656,173.875 Z " fill="#000000"/><text fill="#000000" font-family="sans-serif" font-size="14" lengthAdjust="spacing" textLength="125" x="572.5" y="183.7969">AnnouncementDTO</text><line style="stroke:#181818;stroke-width:0.5;" x1="544.5" x2="699.5" y1="194" y2="194"/><rect fill="none" height="6" style="stroke:#C82930;stroke-width:1.0;" width="6" x="551.5" y="205.8105"/><text fill="#000000" font-family="sans-serif" font-size="14" lengthAdjust="spacing" textLength="31" x="563.5" y="213.1074">price</text><rect fill="none" height="6" style="stroke:#C82930;stroke-width:1.0;" width="6" x="551.5" y="224.4316"/><text fill="#000000" font-family="sans-serif" font-size="14" lengthAdjust="spacing" textLength="99" x="563.5" y="231.7285">typeOfBusiness</text><rect fill="none" height="6" style="stroke:#C82930;stroke-width:1.0;" width="6" x="551.5" y="243.0527"/><text fill="#000000" font-family="sans-serif" font-size="14" lengthAdjust="spacing" textLength="53" x="563.5" y="250.3496">property</text><rect fill="none" height="6" style="stroke:#C82930;stroke-width:1.0;" width="6" x="551.5" y="261.6738"/><text fill="#000000" font-family="sans-serif" font-size="14" lengthAdjust="spacing" textLength="36" x="563.5" y="268.9707">agent</text><line style="stroke:#181818;stroke-width:0.5;" x1="544.5" x2="699.5" y1="276.4844" y2="276.4844"/></g><!--class AnnouncementMapper--><g id="elem_AnnouncementMapper"><rect codeLine="60" fill="#F1F1F1" height="159.7266" id="AnnouncementMapper" rx="2.5" ry="2.5" style="stroke:#181818;stroke-width:0.5;" width="276" x="232" y="143"/><ellipse cx="294.25" cy="159" fill="#ADD1B2" rx="11" ry="11" style="stroke:#181818;stroke-width:1.0;"/><path d="M297.0156,154.875 Q297.1719,154.6563 297.3594,154.5469 Q297.5469,154.4375 297.7656,154.4375 Q298.1406,154.4375 298.375,154.7031 Q298.6094,154.9531 298.6094,155.5625 L298.6094,157.0156 Q298.6094,157.625 298.375,157.8906 Q298.1406,158.1563 297.7656,158.1563 Q297.4219,158.1563 297.2188,157.9531 Q297.0156,157.7656 296.9063,157.25 Q296.8594,156.8906 296.6719,156.7031 Q296.3438,156.3281 295.7344,156.1094 Q295.125,155.8906 294.5,155.8906 Q293.7344,155.8906 293.0938,156.2188 Q292.4688,156.5469 291.9688,157.2969 Q291.4844,158.0469 291.4844,159.0781 L291.4844,160.1719 Q291.4844,161.4063 292.375,162.2344 Q293.2656,163.0469 294.8594,163.0469 Q295.7969,163.0469 296.4531,162.7969 Q296.8438,162.6406 297.2656,162.2031 Q297.5313,161.9375 297.6719,161.8594 Q297.8281,161.7813 298.0313,161.7813 Q298.3594,161.7813 298.6094,162.0469 Q298.875,162.2969 298.875,162.6406 Q298.875,162.9844 298.5313,163.3906 Q298.0313,163.9688 297.2344,164.2969 Q296.1563,164.75 294.8594,164.75 Q293.3438,164.75 292.1406,164.125 Q291.1563,163.625 290.4688,162.5625 Q289.7813,161.4844 289.7813,160.2031 L289.7813,159.0469 Q289.7813,157.7188 290.3906,156.5781 Q291.0156,155.4219 292.1094,154.8125 Q293.2031,154.1875 294.4375,154.1875 Q295.1719,154.1875 295.8125,154.3594 Q296.4688,154.5156 297.0156,154.875 Z " fill="#000000"/><text fill="#000000" font-family="sans-serif" font-size="14" lengthAdjust="spacing" textLength="143" x="314.75" y="164.7969">AnnouncementMapper</text><line style="stroke:#181818;stroke-width:0.5;" x1="233" x2="507" y1="175" y2="175"/><rect fill="none" height="6" style="stroke:#C82930;stroke-width:1.0;" width="6" x="240" y="186.8105"/><text fill="#000000" font-family="sans-serif" font-size="14" lengthAdjust="spacing" textLength="146" x="252" y="194.1074">announcementDTOList</text><line style="stroke:#181818;stroke-width:0.5;" x1="233" x2="507" y1="201.6211" y2="201.6211"/><ellipse cx="243" cy="216.4316" fill="#84BE84" rx="3" ry="3" style="stroke:#038048;stroke-width:1.0;"/><text fill="#000000" font-family="sans-serif" font-size="14" lengthAdjust="spacing" textLength="57" x="252" y="220.7285">convert()</text><ellipse cx="243" cy="235.0527" fill="#84BE84" rx="3" ry="3" style="stroke:#038048;stroke-width:1.0;"/><text fill="#000000" font-family="sans-serif" font-size="14" lengthAdjust="spacing" textLength="44" x="252" y="239.3496">toDto()</text><ellipse cx="243" cy="253.6738" fill="#84BE84" rx="3" ry="3" style="stroke:#038048;stroke-width:1.0;"/><text fill="#000000" font-family="sans-serif" font-size="14" lengthAdjust="spacing" textLength="147" x="252" y="257.9707">getAllAnnouncements()</text><ellipse cx="243" cy="272.2949" fill="#84BE84" rx="3" ry="3" style="stroke:#038048;stroke-width:1.0;"/><text fill="#000000" font-family="sans-serif" font-size="14" lengthAdjust="spacing" textLength="250" x="252" y="276.5918">getAllAnnouncementsRecentToOldest()</text><ellipse cx="243" cy="290.916" fill="#84BE84" rx="3" ry="3" style="stroke:#038048;stroke-width:1.0;"/><text fill="#000000" font-family="sans-serif" font-size="14" lengthAdjust="spacing" textLength="139" x="252" y="295.2129">toDtoAnnouncement()</text></g><!--reverse link ScheduleVisitUI to Runnable--><g id="link_ScheduleVisitUI_Runnable"><path codeLine="71" d="M186.74,40.5 C191.6,40.5 196.47,40.5 201.33,40.5 " fill="none" id="ScheduleVisitUI-backto-Runnable" style="stroke:#181818;stroke-width:1.0;"/><polygon fill="none" points="186.73,47.5,166.73,40.5,186.73,33.5,186.73,47.5" style="stroke:#181818;stroke-width:1.0;"/></g><!--link ScheduleVisitUI to ScheduleVisitController--><g id="link_ScheduleVisitUI_ScheduleVisitController"><path codeLine="72" d="M102,74.19 C102,97.14 102,128.62 102,156.63 " fill="none" id="ScheduleVisitUI-to-ScheduleVisitController" style="stroke:#181818;stroke-width:1.0;stroke-dasharray:7.0,7.0;"/><polygon fill="#181818" points="102,161.82,106,152.82,102,156.82,98,152.82,102,161.82" style="stroke:#181818;stroke-width:1.0;"/></g><!--link ScheduleVisitController to AnnouncementMapper--><g id="link_ScheduleVisitController_AnnouncementMapper"><path codeLine="73" d="M196.74,223 C206.73,223 216.72,223 226.71,223 " fill="none" id="ScheduleVisitController-to-AnnouncementMapper" style="stroke:#181818;stroke-width:1.0;"/><polygon fill="#181818" points="231.94,223,222.94,219,226.94,223,222.94,227,231.94,223" style="stroke:#181818;stroke-width:1.0;"/></g><!--link AnnouncementMapper to AnnouncementDTO--><g id="link_AnnouncementMapper_AnnouncementDTO"><path codeLine="74" d="M508.3,223 C518.26,223 528.22,223 538.18,223 " fill="none" id="AnnouncementMapper-to-AnnouncementDTO" style="stroke:#181818;stroke-width:1.0;"/><polygon fill="#181818" points="543.39,223,534.39,219,538.39,223,534.39,227,543.39,223" style="stroke:#181818;stroke-width:1.0;"/></g><!--link AnnouncementDTO to AnnouncementRepository--><g id="link_AnnouncementDTO_AnnouncementRepository"><path codeLine="75" d="M700.56,223 C710.59,223 720.62,223 730.65,223 " fill="none" id="AnnouncementDTO-to-AnnouncementRepository" style="stroke:#181818;stroke-width:1.0;"/><polygon fill="#181818" points="735.89,223,726.89,219,730.89,223,726.89,227,735.89,223" style="stroke:#181818;stroke-width:1.0;"/></g><!--link ScheduleVisitController to Schedule--><g id="link_ScheduleVisitController_Schedule"><path codeLine="76" d="M102,284.06 C102,308.91 102,338.46 102,366.58 " fill="none" id="ScheduleVisitController-to-Schedule" style="stroke:#181818;stroke-width:1.0;stroke-dasharray:7.0,7.0;"/><polygon fill="#181818" points="102,371.81,106,362.81,102,366.81,98,362.81,102,371.81" style="stroke:#181818;stroke-width:1.0;"/></g><!--link Schedule to ScheduleRepository--><g id="link_Schedule_ScheduleRepository"><path codeLine="77" d="M102,569.06 C102,587.05 102,605.7 102,623.27 " fill="none" id="Schedule-to-ScheduleRepository" style="stroke:#181818;stroke-width:1.0;"/><polygon fill="#181818" points="102,628.68,106,619.68,102,623.68,98,619.68,102,628.68" style="stroke:#181818;stroke-width:1.0;"/></g><!--SRC=[TLJ1RiCW3Btp5HmtLTadHEfMJPkqhLBRxKx1RP4eH9X4ghR- -uWQ4aeWboJso-FvsOxK3ko1SQ2RLcksLq1_2Q7-Mb3RweT7SYM4AuP8j_m4ebNm8r6wxtUFws4LvKOxQvG2My2-Z830NL4S01jeZ8SOUnaIIwrDgpcSGRiakQ3S0dCGoBsuM_W8BlxiGwBpkRcQwNZDpZ0yDYUZuQizxxt-MuH5N4D8iA1l3qVvPjg01IsYDsrSe4N7N8jp3LDDavgGwuKF9I7hvdLsJ4cHCu09aJCbvYt5bxXrLkfZtEby3wR1wCMDVBUUn9_Cz6QJNdCstZTJgNvm_3362Bo3T4ogVbnV9IY1fL70KbchtNholx6IXxwvImFhmtEBKWFY230DM1TcW1txoRXcQ3zPqyHZpkwFZ1hijwRpbADmPrRE92QKgqzo6-3-jZDh9G0JpiHaxmOPLxrIS73LNvtkDabt_UcfBkqqAUrwLMUi8Hct4g3tYQIjIY3HZw5qUgnu1D6ggZERIFu1]--></g></svg>