<?xml version="1.0" encoding="us-ascii" standalone="no"?><svg xmlns="http://www.w3.org/2000/svg" xmlns:xlink="http://www.w3.org/1999/xlink" contentStyleType="text/css" height="628px" preserveAspectRatio="none" style="width:449px;height:628px;background:#FFFFFF;" version="1.1" viewBox="0 0 449 628" width="449px" zoomAndPan="magnify"><defs/><g><!--class Employee--><g id="elem_Employee"><rect codeLine="4" fill="#F1F1F1" height="196.9688" id="Employee" rx="2.5" ry="2.5" style="stroke:#181818;stroke-width:0.5;" width="164" x="184" y="261"/><ellipse cx="230.75" cy="277" fill="#ADD1B2" rx="11" ry="11" style="stroke:#181818;stroke-width:1.0;"/><path d="M233.5156,272.875 Q233.6719,272.6563 233.8594,272.5469 Q234.0469,272.4375 234.2656,272.4375 Q234.6406,272.4375 234.875,272.7031 Q235.1094,272.9531 235.1094,273.5625 L235.1094,275.0156 Q235.1094,275.625 234.875,275.8906 Q234.6406,276.1563 234.2656,276.1563 Q233.9219,276.1563 233.7188,275.9531 Q233.5156,275.7656 233.4063,275.25 Q233.3594,274.8906 233.1719,274.7031 Q232.8438,274.3281 232.2344,274.1094 Q231.625,273.8906 231,273.8906 Q230.2344,273.8906 229.5938,274.2188 Q228.9688,274.5469 228.4688,275.2969 Q227.9844,276.0469 227.9844,277.0781 L227.9844,278.1719 Q227.9844,279.4063 228.875,280.2344 Q229.7656,281.0469 231.3594,281.0469 Q232.2969,281.0469 232.9531,280.7969 Q233.3438,280.6406 233.7656,280.2031 Q234.0313,279.9375 234.1719,279.8594 Q234.3281,279.7813 234.5313,279.7813 Q234.8594,279.7813 235.1094,280.0469 Q235.375,280.2969 235.375,280.6406 Q235.375,280.9844 235.0313,281.3906 Q234.5313,281.9688 233.7344,282.2969 Q232.6563,282.75 231.3594,282.75 Q229.8438,282.75 228.6406,282.125 Q227.6563,281.625 226.9688,280.5625 Q226.2813,279.4844 226.2813,278.2031 L226.2813,277.0469 Q226.2813,275.7188 226.8906,274.5781 Q227.5156,273.4219 228.6094,272.8125 Q229.7031,272.1875 230.9375,272.1875 Q231.6719,272.1875 232.3125,272.3594 Q232.9688,272.5156 233.5156,272.875 Z " fill="#000000"/><text fill="#000000" font-family="sans-serif" font-size="14" lengthAdjust="spacing" textLength="62" x="251.25" y="282.7969">Employee</text><line style="stroke:#181818;stroke-width:0.5;" x1="185" x2="347" y1="293" y2="293"/><rect fill="none" height="6" style="stroke:#C82930;stroke-width:1.0;" width="6" x="192" y="304.8105"/><text fill="#000000" font-family="sans-serif" font-size="14" lengthAdjust="spacing" textLength="76" x="204" y="312.1074">String name</text><rect fill="none" height="6" style="stroke:#C82930;stroke-width:1.0;" width="6" x="192" y="323.4316"/><text fill="#000000" font-family="sans-serif" font-size="14" lengthAdjust="spacing" textLength="138" x="204" y="330.7285">int citizenCardNumber</text><rect fill="none" height="6" style="stroke:#C82930;stroke-width:1.0;" width="6" x="192" y="342.0527"/><text fill="#000000" font-family="sans-serif" font-size="14" lengthAdjust="spacing" textLength="86" x="204" y="349.3496">int taxNumber</text><rect fill="none" height="6" style="stroke:#C82930;stroke-width:1.0;" width="6" x="192" y="360.6738"/><text fill="#000000" font-family="sans-serif" font-size="14" lengthAdjust="spacing" textLength="92" x="204" y="367.9707">String address</text><rect fill="none" height="6" style="stroke:#C82930;stroke-width:1.0;" width="6" x="192" y="379.2949"/><text fill="#000000" font-family="sans-serif" font-size="14" lengthAdjust="spacing" textLength="126" x="204" y="386.5918">String emailAddress</text><rect fill="none" height="6" style="stroke:#C82930;stroke-width:1.0;" width="6" x="192" y="397.916"/><text fill="#000000" font-family="sans-serif" font-size="14" lengthAdjust="spacing" textLength="131" x="204" y="405.2129">int telephoneNumber</text><rect fill="none" height="6" style="stroke:#C82930;stroke-width:1.0;" width="6" x="192" y="416.5371"/><text fill="#000000" font-family="sans-serif" font-size="14" lengthAdjust="spacing" textLength="87" x="204" y="423.834">String agency</text><line style="stroke:#181818;stroke-width:0.5;" x1="185" x2="347" y1="431.3477" y2="431.3477"/><ellipse cx="195" cy="446.1582" fill="#84BE84" rx="3" ry="3" style="stroke:#038048;stroke-width:1.0;"/><text fill="#000000" font-family="sans-serif" font-size="14" lengthAdjust="spacing" textLength="102" x="204" y="450.4551">saveEmployee()</text></g><!--class RegeisterEmployeeUI--><g id="elem_RegeisterEmployeeUI"><rect codeLine="16" fill="#F1F1F1" height="66.6211" id="RegeisterEmployeeUI" rx="2.5" ry="2.5" style="stroke:#181818;stroke-width:0.5;" width="167" x="182.5" y="7"/><ellipse cx="197.5" cy="23" fill="#ADD1B2" rx="11" ry="11" style="stroke:#181818;stroke-width:1.0;"/><path d="M200.2656,18.875 Q200.4219,18.6563 200.6094,18.5469 Q200.7969,18.4375 201.0156,18.4375 Q201.3906,18.4375 201.625,18.7031 Q201.8594,18.9531 201.8594,19.5625 L201.8594,21.0156 Q201.8594,21.625 201.625,21.8906 Q201.3906,22.1563 201.0156,22.1563 Q200.6719,22.1563 200.4688,21.9531 Q200.2656,21.7656 200.1563,21.25 Q200.1094,20.8906 199.9219,20.7031 Q199.5938,20.3281 198.9844,20.1094 Q198.375,19.8906 197.75,19.8906 Q196.9844,19.8906 196.3438,20.2188 Q195.7188,20.5469 195.2188,21.2969 Q194.7344,22.0469 194.7344,23.0781 L194.7344,24.1719 Q194.7344,25.4063 195.625,26.2344 Q196.5156,27.0469 198.1094,27.0469 Q199.0469,27.0469 199.7031,26.7969 Q200.0938,26.6406 200.5156,26.2031 Q200.7813,25.9375 200.9219,25.8594 Q201.0781,25.7813 201.2813,25.7813 Q201.6094,25.7813 201.8594,26.0469 Q202.125,26.2969 202.125,26.6406 Q202.125,26.9844 201.7813,27.3906 Q201.2813,27.9688 200.4844,28.2969 Q199.4063,28.75 198.1094,28.75 Q196.5938,28.75 195.3906,28.125 Q194.4063,27.625 193.7188,26.5625 Q193.0313,25.4844 193.0313,24.2031 L193.0313,23.0469 Q193.0313,21.7188 193.6406,20.5781 Q194.2656,19.4219 195.3594,18.8125 Q196.4531,18.1875 197.6875,18.1875 Q198.4219,18.1875 199.0625,18.3594 Q199.7188,18.5156 200.2656,18.875 Z " fill="#000000"/><text fill="#000000" font-family="sans-serif" font-size="14" lengthAdjust="spacing" textLength="135" x="211.5" y="28.7969">RegeisterEmployeeUI</text><line style="stroke:#181818;stroke-width:0.5;" x1="183.5" x2="348.5" y1="39" y2="39"/><line style="stroke:#181818;stroke-width:0.5;" x1="183.5" x2="348.5" y1="47" y2="47"/><ellipse cx="193.5" cy="61.8105" fill="#84BE84" rx="3" ry="3" style="stroke:#038048;stroke-width:1.0;"/><text fill="#000000" font-family="sans-serif" font-size="14" lengthAdjust="spacing" textLength="120" x="202.5" y="66.1074">registerEmployee()</text></g><!--class RegeisterEmployeeController--><g id="elem_RegeisterEmployeeController"><rect codeLine="21" fill="#F1F1F1" height="66.6211" id="RegeisterEmployeeController" rx="2.5" ry="2.5" style="stroke:#181818;stroke-width:0.5;" width="217" x="157.5" y="134"/><ellipse cx="172.5" cy="150" fill="#ADD1B2" rx="11" ry="11" style="stroke:#181818;stroke-width:1.0;"/><path d="M175.2656,145.875 Q175.4219,145.6563 175.6094,145.5469 Q175.7969,145.4375 176.0156,145.4375 Q176.3906,145.4375 176.625,145.7031 Q176.8594,145.9531 176.8594,146.5625 L176.8594,148.0156 Q176.8594,148.625 176.625,148.8906 Q176.3906,149.1563 176.0156,149.1563 Q175.6719,149.1563 175.4688,148.9531 Q175.2656,148.7656 175.1563,148.25 Q175.1094,147.8906 174.9219,147.7031 Q174.5938,147.3281 173.9844,147.1094 Q173.375,146.8906 172.75,146.8906 Q171.9844,146.8906 171.3438,147.2188 Q170.7188,147.5469 170.2188,148.2969 Q169.7344,149.0469 169.7344,150.0781 L169.7344,151.1719 Q169.7344,152.4063 170.625,153.2344 Q171.5156,154.0469 173.1094,154.0469 Q174.0469,154.0469 174.7031,153.7969 Q175.0938,153.6406 175.5156,153.2031 Q175.7813,152.9375 175.9219,152.8594 Q176.0781,152.7813 176.2813,152.7813 Q176.6094,152.7813 176.8594,153.0469 Q177.125,153.2969 177.125,153.6406 Q177.125,153.9844 176.7813,154.3906 Q176.2813,154.9688 175.4844,155.2969 Q174.4063,155.75 173.1094,155.75 Q171.5938,155.75 170.3906,155.125 Q169.4063,154.625 168.7188,153.5625 Q168.0313,152.4844 168.0313,151.2031 L168.0313,150.0469 Q168.0313,148.7188 168.6406,147.5781 Q169.2656,146.4219 170.3594,145.8125 Q171.4531,145.1875 172.6875,145.1875 Q173.4219,145.1875 174.0625,145.3594 Q174.7188,145.5156 175.2656,145.875 Z " fill="#000000"/><text fill="#000000" font-family="sans-serif" font-size="14" lengthAdjust="spacing" textLength="185" x="186.5" y="155.7969">RegeisterEmployeeController</text><line style="stroke:#181818;stroke-width:0.5;" x1="158.5" x2="373.5" y1="166" y2="166"/><line style="stroke:#181818;stroke-width:0.5;" x1="158.5" x2="373.5" y1="174" y2="174"/><ellipse cx="168.5" cy="188.8105" fill="#84BE84" rx="3" ry="3" style="stroke:#038048;stroke-width:1.0;"/><text fill="#000000" font-family="sans-serif" font-size="14" lengthAdjust="spacing" textLength="112" x="177.5" y="193.1074">createEmployee()</text></g><!--class EmployeeRepository--><g id="elem_EmployeeRepository"><rect codeLine="25" fill="#F1F1F1" height="66.6211" id="EmployeeRepository" rx="2.5" ry="2.5" style="stroke:#181818;stroke-width:0.5;" width="162" x="7" y="536.5"/><ellipse cx="22" cy="552.5" fill="#ADD1B2" rx="11" ry="11" style="stroke:#181818;stroke-width:1.0;"/><path d="M24.7656,548.375 Q24.9219,548.1563 25.1094,548.0469 Q25.2969,547.9375 25.5156,547.9375 Q25.8906,547.9375 26.125,548.2031 Q26.3594,548.4531 26.3594,549.0625 L26.3594,550.5156 Q26.3594,551.125 26.125,551.3906 Q25.8906,551.6563 25.5156,551.6563 Q25.1719,551.6563 24.9688,551.4531 Q24.7656,551.2656 24.6563,550.75 Q24.6094,550.3906 24.4219,550.2031 Q24.0938,549.8281 23.4844,549.6094 Q22.875,549.3906 22.25,549.3906 Q21.4844,549.3906 20.8438,549.7188 Q20.2188,550.0469 19.7188,550.7969 Q19.2344,551.5469 19.2344,552.5781 L19.2344,553.6719 Q19.2344,554.9063 20.125,555.7344 Q21.0156,556.5469 22.6094,556.5469 Q23.5469,556.5469 24.2031,556.2969 Q24.5938,556.1406 25.0156,555.7031 Q25.2813,555.4375 25.4219,555.3594 Q25.5781,555.2813 25.7813,555.2813 Q26.1094,555.2813 26.3594,555.5469 Q26.625,555.7969 26.625,556.1406 Q26.625,556.4844 26.2813,556.8906 Q25.7813,557.4688 24.9844,557.7969 Q23.9063,558.25 22.6094,558.25 Q21.0938,558.25 19.8906,557.625 Q18.9063,557.125 18.2188,556.0625 Q17.5313,554.9844 17.5313,553.7031 L17.5313,552.5469 Q17.5313,551.2188 18.1406,550.0781 Q18.7656,548.9219 19.8594,548.3125 Q20.9531,547.6875 22.1875,547.6875 Q22.9219,547.6875 23.5625,547.8594 Q24.2188,548.0156 24.7656,548.375 Z " fill="#000000"/><text fill="#000000" font-family="sans-serif" font-size="14" lengthAdjust="spacing" textLength="130" x="36" y="558.2969">EmployeeRepository</text><line style="stroke:#181818;stroke-width:0.5;" x1="8" x2="168" y1="568.5" y2="568.5"/><line style="stroke:#181818;stroke-width:0.5;" x1="8" x2="168" y1="576.5" y2="576.5"/><ellipse cx="18" cy="591.3105" fill="#84BE84" rx="3" ry="3" style="stroke:#038048;stroke-width:1.0;"/><text fill="#000000" font-family="sans-serif" font-size="14" lengthAdjust="spacing" textLength="104" x="27" y="595.6074">showEmployee()</text></g><!--class Role--><g id="elem_Role"><rect codeLine="30" fill="#F1F1F1" height="85.2422" id="Role" rx="2.5" ry="2.5" style="stroke:#181818;stroke-width:0.5;" width="124" x="204" y="527.5"/><ellipse cx="247.35" cy="543.5" fill="#EB937F" rx="11" ry="11" style="stroke:#181818;stroke-width:1.0;"/><path d="M246.2094,544.2969 L246.2094,546.7969 L250.5375,546.7969 L250.5375,545.875 Q250.5375,545.2656 250.7719,545 Q251.0219,544.7344 251.3969,544.7344 Q251.7719,544.7344 252.0063,545 Q252.2406,545.2656 252.2406,545.875 L252.2406,548.5 L244.2406,548.5 Q243.6156,548.5 243.35,548.2656 Q243.1,548.0313 243.1,547.6406 Q243.1,547.2656 243.3656,547.0313 Q243.6313,546.7969 244.2406,546.7969 L244.5063,546.7969 L244.5063,540.1406 L244.2406,540.1406 Q243.6156,540.1406 243.35,539.9063 Q243.1,539.6719 243.1,539.2813 Q243.1,538.9063 243.35,538.6719 Q243.6156,538.4375 244.2406,538.4375 L251.8656,538.4375 L251.8656,541.0313 Q251.8656,541.6406 251.6313,541.9063 Q251.4125,542.1563 251.0219,542.1563 Q250.6469,542.1563 250.4125,541.9063 Q250.1781,541.6406 250.1781,541.0313 L250.1781,540.1406 L246.2094,540.1406 L246.2094,542.5938 L247.6938,542.5938 Q247.6938,541.9375 247.8188,541.75 Q248.0844,541.3438 248.5531,541.3438 Q248.9281,541.3438 249.1625,541.6094 Q249.3969,541.8594 249.3969,542.4688 L249.3969,544.4375 Q249.3969,544.9844 249.2719,545.1719 Q249.0063,545.5625 248.5531,545.5625 Q248.0844,545.5625 247.8188,545.1563 Q247.6938,544.9688 247.6938,544.2969 L246.2094,544.2969 Z " fill="#000000"/><text fill="#000000" font-family="sans-serif" font-size="14" lengthAdjust="spacing" textLength="29" x="267.65" y="549.2969">Role</text><line style="stroke:#181818;stroke-width:0.5;" x1="205" x2="327" y1="559.5" y2="559.5"/><text fill="#000000" font-family="sans-serif" font-size="14" lengthAdjust="spacing" textLength="112" x="210" y="578.6074">ADMINISTRATOR</text><text fill="#000000" font-family="sans-serif" font-size="14" lengthAdjust="spacing" textLength="68" x="210" y="597.2285">MANAGER</text><line style="stroke:#181818;stroke-width:0.5;" x1="205" x2="327" y1="604.7422" y2="604.7422"/></g><!--class Agency--><g id="elem_Agency"><rect codeLine="36" fill="#F1F1F1" height="103.8633" id="Agency" rx="2.5" ry="2.5" style="stroke:#181818;stroke-width:0.5;" width="79" x="363.5" y="518"/><ellipse cx="378.5" cy="534" fill="#EB937F" rx="11" ry="11" style="stroke:#181818;stroke-width:1.0;"/><path d="M377.3594,534.7969 L377.3594,537.2969 L381.6875,537.2969 L381.6875,536.375 Q381.6875,535.7656 381.9219,535.5 Q382.1719,535.2344 382.5469,535.2344 Q382.9219,535.2344 383.1563,535.5 Q383.3906,535.7656 383.3906,536.375 L383.3906,539 L375.3906,539 Q374.7656,539 374.5,538.7656 Q374.25,538.5313 374.25,538.1406 Q374.25,537.7656 374.5156,537.5313 Q374.7813,537.2969 375.3906,537.2969 L375.6563,537.2969 L375.6563,530.6406 L375.3906,530.6406 Q374.7656,530.6406 374.5,530.4063 Q374.25,530.1719 374.25,529.7813 Q374.25,529.4063 374.5,529.1719 Q374.7656,528.9375 375.3906,528.9375 L383.0156,528.9375 L383.0156,531.5313 Q383.0156,532.1406 382.7813,532.4063 Q382.5625,532.6563 382.1719,532.6563 Q381.7969,532.6563 381.5625,532.4063 Q381.3281,532.1406 381.3281,531.5313 L381.3281,530.6406 L377.3594,530.6406 L377.3594,533.0938 L378.8438,533.0938 Q378.8438,532.4375 378.9688,532.25 Q379.2344,531.8438 379.7031,531.8438 Q380.0781,531.8438 380.3125,532.1094 Q380.5469,532.3594 380.5469,532.9688 L380.5469,534.9375 Q380.5469,535.4844 380.4219,535.6719 Q380.1563,536.0625 379.7031,536.0625 Q379.2344,536.0625 378.9688,535.6563 Q378.8438,535.4688 378.8438,534.7969 L377.3594,534.7969 Z " fill="#000000"/><text fill="#000000" font-family="sans-serif" font-size="14" lengthAdjust="spacing" textLength="47" x="392.5" y="539.7969">Agency</text><line style="stroke:#181818;stroke-width:0.5;" x1="364.5" x2="441.5" y1="550" y2="550"/><text fill="#000000" font-family="sans-serif" font-size="14" lengthAdjust="spacing" textLength="65" x="369.5" y="569.1074">AGENCY1</text><text fill="#000000" font-family="sans-serif" font-size="14" lengthAdjust="spacing" textLength="65" x="369.5" y="587.7285">AGENCY2</text><text fill="#000000" font-family="sans-serif" font-size="14" lengthAdjust="spacing" textLength="65" x="369.5" y="606.3496">AGENCY3</text><line style="stroke:#181818;stroke-width:0.5;" x1="364.5" x2="441.5" y1="613.8633" y2="613.8633"/></g><!--link RegeisterEmployeeUI to RegeisterEmployeeController--><g id="link_RegeisterEmployeeUI_RegeisterEmployeeController"><path codeLine="43" d="M266,74.02 C266,90.67 266,111.04 266,128.42 " fill="none" id="RegeisterEmployeeUI-to-RegeisterEmployeeController" style="stroke:#181818;stroke-width:1.0;"/><polygon fill="#181818" points="266,133.71,270,124.71,266,128.71,262,124.71,266,133.71" style="stroke:#181818;stroke-width:1.0;"/></g><!--link RegeisterEmployeeController to Employee--><g id="link_RegeisterEmployeeController_Employee"><path codeLine="44" d="M266,201.16 C266,216.62 266,236.01 266,255.85 " fill="none" id="RegeisterEmployeeController-to-Employee" style="stroke:#181818;stroke-width:1.0;"/><polygon fill="#181818" points="266,260.91,270,251.91,266,255.91,262,251.91,266,260.91" style="stroke:#181818;stroke-width:1.0;"/></g><!--link Employee to Role--><g id="link_Employee_Role"><path codeLine="45" d="M266,458.03 C266,480.32 266,503.01 266,522.02 " fill="none" id="Employee-to-Role" style="stroke:#181818;stroke-width:1.0;"/><polygon fill="#181818" points="266,527.28,270,518.28,266,522.28,262,518.28,266,527.28" style="stroke:#181818;stroke-width:1.0;"/></g><!--link Employee to Agency--><g id="link_Employee_Agency"><path codeLine="46" d="M330.09,458.03 C342.61,477.09 355.32,496.44 366.55,513.53 " fill="none" id="Employee-to-Agency" style="stroke:#181818;stroke-width:1.0;"/><polygon fill="#181818" points="369.38,517.83,367.7776,508.1124,366.633,513.6522,361.0931,512.5076,369.38,517.83" style="stroke:#181818;stroke-width:1.0;"/></g><!--link Employee to EmployeeRepository--><g id="link_Employee_EmployeeRepository"><path codeLine="47" d="M183.77,456.82 C160.79,483.74 137.2,511.37 119.19,532.47 " fill="none" id="Employee-to-EmployeeRepository" style="stroke:#181818;stroke-width:1.0;"/><polygon fill="#181818" points="115.89,536.33,124.7763,532.0834,119.1369,532.5277,118.6926,526.8883,115.89,536.33" style="stroke:#181818;stroke-width:1.0;"/></g><!--SRC=[VP8_JyCm4CLtVmgFe2e3PKUoGbHbQ93SCZ0QvvHQyf_ex081yTrfJ6B5KCMJzRjxx_nEbbfuJolJQpS0q2z2BwUWXu3ATjGA0nDHDb2fWle4MmficxDv1LpKWlZ8sEGWsXR1-no24Kgph18jG4D_SXQk6dLWvH3PXdhn1lERRsu9-IP4nY0SEb0-0CxLvthAjA48NLPQ5vRE1dHQ0oO3YI32ScvIpun3xxmA3eSayYVt_cTYPS-6SgV7TSSkzhYlc_fmvEpun2FPiuRjAfwwMKoV-dTLKxxSBUxRnVr-L5rRH54yhEKaQpiOjJCcwRj4nqkGdFm-DcV_DqJ83m00]--></g></svg>