<?xml version="1.0" encoding="us-ascii" standalone="no"?><svg xmlns="http://www.w3.org/2000/svg" xmlns:xlink="http://www.w3.org/1999/xlink" contentStyleType="text/css" height="987.7px" preserveAspectRatio="none" style="width:818px;height:987px;background:#FFFFFF;" version="1.1" viewBox="0 0 818 987" width="819px" zoomAndPan="magnify"><defs/><g><rect fill="#FFFFFF" height="851.6498" style="stroke:#181818;stroke-width:0.6999999999999998;" width="7" x="31.15" y="65.5348"/><rect fill="#FFFFFF" height="21.9037" style="stroke:#181818;stroke-width:0.6999999999999998;" width="7" x="271.25" y="81.8385"/><rect fill="#FFFFFF" height="43.8074" style="stroke:#181818;stroke-width:0.6999999999999998;" width="7" x="271.25" y="134.277"/><rect fill="#FFFFFF" height="63.9037" style="stroke:#181818;stroke-width:0.6999999999999998;" width="7" x="271.25" y="289.2066"/><rect fill="#FFFFFF" height="65.7111" style="stroke:#181818;stroke-width:0.6999999999999998;" width="7" x="271.25" y="396.9178"/><rect fill="#FFFFFF" height="63.9037" style="stroke:#181818;stroke-width:0.6999999999999998;" width="7" x="271.25" y="506.4363"/><rect fill="#FFFFFF" height="65.7111" style="stroke:#181818;stroke-width:0.6999999999999998;" width="7" x="271.25" y="614.1475"/><rect fill="#FFFFFF" height="21.9037" style="stroke:#181818;stroke-width:0.6999999999999998;" width="7" x="271.25" y="744.666"/><rect fill="#FFFFFF" height="42.9037" style="stroke:#181818;stroke-width:0.6999999999999998;" width="7" x="271.25" y="788.4734"/><rect fill="#FFFFFF" height="21" style="stroke:#181818;stroke-width:0.6999999999999998;" width="7" x="271.25" y="896.1846"/><rect fill="#FFFFFF" height="58.2148" style="stroke:#181818;stroke-width:0.6999999999999998;" width="7" x="414.05" y="178.0844"/><rect fill="#FFFFFF" height="107.7111" style="stroke:#181818;stroke-width:0.6999999999999998;" width="7" x="414.05" y="289.2066"/><rect fill="#FFFFFF" height="151.5186" style="stroke:#181818;stroke-width:0.6999999999999998;" width="7" x="414.05" y="462.6289"/><rect fill="#FFFFFF" height="42.9037" style="stroke:#181818;stroke-width:0.6999999999999998;" width="7" x="414.05" y="701.7623"/><rect fill="#FFFFFF" height="113.1074" style="stroke:#181818;stroke-width:0.6999999999999998;" width="7" x="414.05" y="810.3771"/><rect fill="#FFFFFF" height="73.9074" style="stroke:#181818;stroke-width:0.6999999999999998;" width="7" x="561.05" y="236.2992"/><rect fill="#FFFFFF" height="42.9037" style="stroke:#181818;stroke-width:0.6999999999999998;" width="7" x="561.05" y="484.5326"/><rect fill="#FFFFFF" height="21" style="stroke:#181818;stroke-width:0.6999999999999998;" width="7" x="561.05" y="701.7623"/><rect fill="#FFFFFF" height="42.9037" style="stroke:#181818;stroke-width:0.6999999999999998;" width="7" x="635.95" y="332.1104"/><rect fill="#FFFFFF" height="42.9037" style="stroke:#181818;stroke-width:0.6999999999999998;" width="7" x="679.35" y="549.34"/><rect fill="#FFFFFF" height="21" style="stroke:#181818;stroke-width:0.6999999999999998;" width="7" x="759.5" y="853.2809"/><line style="stroke:#181818;stroke-width:0.3499999999999999;stroke-dasharray:5.0,5.0;" x1="34.3" x2="34.3" y1="58.5348" y2="929.7846"/><line style="stroke:#181818;stroke-width:0.3499999999999999;stroke-dasharray:5.0,5.0;" x1="274.4" x2="274.4" y1="58.5348" y2="929.7846"/><line style="stroke:#181818;stroke-width:0.3499999999999999;stroke-dasharray:5.0,5.0;" x1="417.2" x2="417.2" y1="109.7059" y2="929.7846"/><line style="stroke:#181818;stroke-width:0.3499999999999999;stroke-dasharray:5.0,5.0;" x1="564.55" x2="564.55" y1="58.5348" y2="929.7846"/><line style="stroke:#181818;stroke-width:0.3499999999999999;stroke-dasharray:5.0,5.0;" x1="639.1" x2="639.1" y1="58.5348" y2="929.7846"/><line style="stroke:#181818;stroke-width:0.3499999999999999;stroke-dasharray:5.0,5.0;" x1="682.5" x2="682.5" y1="58.5348" y2="929.7846"/><line style="stroke:#181818;stroke-width:0.3499999999999999;stroke-dasharray:5.0,5.0;" x1="763" x2="763" y1="58.5348" y2="929.7846"/><text fill="#000000" font-family="sans-serif" font-size="9.8" lengthAdjust="spacing" textLength="58.1" x="3.5" y="56.0752">Administrator</text><ellipse cx="34.65" cy="9.45" fill="#E2E2F0" rx="5.6" ry="5.6" style="stroke:#181818;stroke-width:0.3499999999999999;"/><path d="M34.65,15.05 L34.65,33.95 M25.55,20.65 L43.75,20.65 M34.65,33.95 L25.55,44.45 M34.65,33.95 L43.75,44.45 " fill="none" style="stroke:#181818;stroke-width:0.3499999999999999;"/><text fill="#000000" font-family="sans-serif" font-size="9.8" lengthAdjust="spacing" textLength="58.1" x="3.5" y="939.6598">Administrator</text><ellipse cx="34.65" cy="948.0693" fill="#E2E2F0" rx="5.6" ry="5.6" style="stroke:#181818;stroke-width:0.3499999999999999;"/><path d="M34.65,953.6693 L34.65,972.5693 M25.55,959.2693 L43.75,959.2693 M34.65,972.5693 L25.55,983.0693 M34.65,972.5693 L43.75,983.0693 " fill="none" style="stroke:#181818;stroke-width:0.3499999999999999;"/><rect fill="#E2E2F0" height="22.8348" rx="1.75" ry="1.75" style="stroke:#181818;stroke-width:0.3499999999999999;" width="101.5" x="224" y="35"/><text fill="#000000" font-family="sans-serif" font-size="9.8" lengthAdjust="spacing" textLength="91.7" x="228.9" y="50.4752">:RegisterEmployeeUI</text><rect fill="#E2E2F0" height="22.8348" rx="1.75" ry="1.75" style="stroke:#181818;stroke-width:0.3499999999999999;" width="101.5" x="224" y="929.0846"/><text fill="#000000" font-family="sans-serif" font-size="9.8" lengthAdjust="spacing" textLength="91.7" x="228.9" y="944.5598">:RegisterEmployeeUI</text><rect fill="#E2E2F0" height="22.8348" rx="1.75" ry="1.75" style="stroke:#181818;stroke-width:0.3499999999999999;" width="136.5" x="349.3" y="929.0846"/><text fill="#000000" font-family="sans-serif" font-size="9.8" lengthAdjust="spacing" textLength="126.7" x="354.2" y="944.5598">:RegisterEmployeeController</text><rect fill="#E2E2F0" height="22.8348" rx="1.75" ry="1.75" style="stroke:#181818;stroke-width:0.3499999999999999;" width="53.2" x="537.95" y="35"/><text fill="#000000" font-family="sans-serif" font-size="9.8" lengthAdjust="spacing" textLength="43.4" x="542.85" y="50.4752">Employee</text><rect fill="#E2E2F0" height="22.8348" rx="1.75" ry="1.75" style="stroke:#181818;stroke-width:0.3499999999999999;" width="53.2" x="537.95" y="929.0846"/><text fill="#000000" font-family="sans-serif" font-size="9.8" lengthAdjust="spacing" textLength="43.4" x="542.85" y="944.5598">Employee</text><rect fill="#E2E2F0" height="22.8348" rx="1.75" ry="1.75" style="stroke:#181818;stroke-width:0.3499999999999999;" width="30.1" x="624.4" y="35"/><text fill="#000000" font-family="sans-serif" font-size="9.8" lengthAdjust="spacing" textLength="20.3" x="629.3" y="50.4752">Role</text><rect fill="#E2E2F0" height="22.8348" rx="1.75" ry="1.75" style="stroke:#181818;stroke-width:0.3499999999999999;" width="30.1" x="624.4" y="929.0846"/><text fill="#000000" font-family="sans-serif" font-size="9.8" lengthAdjust="spacing" textLength="20.3" x="629.3" y="944.5598">Role</text><rect fill="#E2E2F0" height="22.8348" rx="1.75" ry="1.75" style="stroke:#181818;stroke-width:0.3499999999999999;" width="42.7" x="661.5" y="35"/><text fill="#000000" font-family="sans-serif" font-size="9.8" lengthAdjust="spacing" textLength="32.9" x="666.4" y="50.4752">Agency</text><rect fill="#E2E2F0" height="22.8348" rx="1.75" ry="1.75" style="stroke:#181818;stroke-width:0.3499999999999999;" width="42.7" x="661.5" y="929.0846"/><text fill="#000000" font-family="sans-serif" font-size="9.8" lengthAdjust="spacing" textLength="32.9" x="666.4" y="944.5598">Agency</text><rect fill="#E2E2F0" height="22.8348" rx="1.75" ry="1.75" style="stroke:#181818;stroke-width:0.3499999999999999;" width="103.6" x="711.2" y="35"/><text fill="#000000" font-family="sans-serif" font-size="9.8" lengthAdjust="spacing" textLength="93.8" x="716.1" y="50.4752">:EmployeeRepository</text><rect fill="#E2E2F0" height="22.8348" rx="1.75" ry="1.75" style="stroke:#181818;stroke-width:0.3499999999999999;" width="103.6" x="711.2" y="929.0846"/><text fill="#000000" font-family="sans-serif" font-size="9.8" lengthAdjust="spacing" textLength="93.8" x="716.1" y="944.5598">:EmployeeRepository</text><rect fill="#FFFFFF" height="851.6498" style="stroke:#181818;stroke-width:0.6999999999999998;" width="7" x="31.15" y="65.5348"/><rect fill="#FFFFFF" height="21.9037" style="stroke:#181818;stroke-width:0.6999999999999998;" width="7" x="271.25" y="81.8385"/><rect fill="#FFFFFF" height="43.8074" style="stroke:#181818;stroke-width:0.6999999999999998;" width="7" x="271.25" y="134.277"/><rect fill="#FFFFFF" height="63.9037" style="stroke:#181818;stroke-width:0.6999999999999998;" width="7" x="271.25" y="289.2066"/><rect fill="#FFFFFF" height="65.7111" style="stroke:#181818;stroke-width:0.6999999999999998;" width="7" x="271.25" y="396.9178"/><rect fill="#FFFFFF" height="63.9037" style="stroke:#181818;stroke-width:0.6999999999999998;" width="7" x="271.25" y="506.4363"/><rect fill="#FFFFFF" height="65.7111" style="stroke:#181818;stroke-width:0.6999999999999998;" width="7" x="271.25" y="614.1475"/><rect fill="#FFFFFF" height="21.9037" style="stroke:#181818;stroke-width:0.6999999999999998;" width="7" x="271.25" y="744.666"/><rect fill="#FFFFFF" height="42.9037" style="stroke:#181818;stroke-width:0.6999999999999998;" width="7" x="271.25" y="788.4734"/><rect fill="#FFFFFF" height="21" style="stroke:#181818;stroke-width:0.6999999999999998;" width="7" x="271.25" y="896.1846"/><rect fill="#FFFFFF" height="58.2148" style="stroke:#181818;stroke-width:0.6999999999999998;" width="7" x="414.05" y="178.0844"/><rect fill="#FFFFFF" height="107.7111" style="stroke:#181818;stroke-width:0.6999999999999998;" width="7" x="414.05" y="289.2066"/><rect fill="#FFFFFF" height="151.5186" style="stroke:#181818;stroke-width:0.6999999999999998;" width="7" x="414.05" y="462.6289"/><rect fill="#FFFFFF" height="42.9037" style="stroke:#181818;stroke-width:0.6999999999999998;" width="7" x="414.05" y="701.7623"/><rect fill="#FFFFFF" height="113.1074" style="stroke:#181818;stroke-width:0.6999999999999998;" width="7" x="414.05" y="810.3771"/><rect fill="#FFFFFF" height="73.9074" style="stroke:#181818;stroke-width:0.6999999999999998;" width="7" x="561.05" y="236.2992"/><rect fill="#FFFFFF" height="42.9037" style="stroke:#181818;stroke-width:0.6999999999999998;" width="7" x="561.05" y="484.5326"/><rect fill="#FFFFFF" height="21" style="stroke:#181818;stroke-width:0.6999999999999998;" width="7" x="561.05" y="701.7623"/><rect fill="#FFFFFF" height="42.9037" style="stroke:#181818;stroke-width:0.6999999999999998;" width="7" x="635.95" y="332.1104"/><rect fill="#FFFFFF" height="42.9037" style="stroke:#181818;stroke-width:0.6999999999999998;" width="7" x="679.35" y="549.34"/><rect fill="#FFFFFF" height="21" style="stroke:#181818;stroke-width:0.6999999999999998;" width="7" x="759.5" y="853.2809"/><polygon fill="#181818" points="262.85,79.0385,269.85,81.8385,262.85,84.6385,265.65,81.8385" style="stroke:#181818;stroke-width:0.6999999999999998;"/><line style="stroke:#181818;stroke-width:0.6999999999999998;" x1="38.15" x2="267.05" y1="81.8385" y2="81.8385"/><text fill="#000000" font-family="sans-serif" font-size="9.1" font-weight="bold" lengthAdjust="spacing" textLength="4.9" x="43.05" y="78.1546">1</text><text fill="#000000" font-family="sans-serif" font-size="9.1" lengthAdjust="spacing" textLength="136.5" x="50.75" y="78.1546">starts registering a new employee</text><polygon fill="#181818" points="340.9,100.9422,347.9,103.7422,340.9,106.5422,343.7,103.7422" style="stroke:#181818;stroke-width:0.6999999999999998;"/><line style="stroke:#181818;stroke-width:0.6999999999999998;" x1="274.75" x2="345.1" y1="103.7422" y2="103.7422"/><text fill="#000000" font-family="sans-serif" font-size="9.1" font-weight="bold" lengthAdjust="spacing" textLength="4.9" x="279.65" y="100.0583">2</text><text fill="#000000" font-family="sans-serif" font-size="9.1" lengthAdjust="spacing" textLength="25.2" x="287.35" y="100.0583">create</text><rect fill="#E2E2F0" height="22.8348" rx="1.75" ry="1.75" style="stroke:#181818;stroke-width:0.3499999999999999;" width="136.5" x="349.3" y="87.4385"/><text fill="#000000" font-family="sans-serif" font-size="9.8" lengthAdjust="spacing" textLength="126.7" x="354.2" y="102.9137">:RegisterEmployeeController</text><polygon fill="#181818" points="45.85,131.477,38.85,134.277,45.85,137.077,43.05,134.277" style="stroke:#181818;stroke-width:0.6999999999999998;"/><line style="stroke:#181818;stroke-width:0.6999999999999998;" x1="41.65" x2="270.55" y1="134.277" y2="134.277"/><text fill="#000000" font-family="sans-serif" font-size="9.1" font-weight="bold" lengthAdjust="spacing" textLength="4.9" x="50.05" y="130.5931">3</text><text fill="#000000" font-family="sans-serif" font-size="9.1" lengthAdjust="spacing" textLength="97.3" x="57.75" y="130.5931">requests employee data</text><polygon fill="#181818" points="262.85,153.3807,269.85,156.1807,262.85,158.9807,265.65,156.1807" style="stroke:#181818;stroke-width:0.6999999999999998;"/><line style="stroke:#181818;stroke-width:0.6999999999999998;" x1="38.15" x2="267.05" y1="156.1807" y2="156.1807"/><text fill="#000000" font-family="sans-serif" font-size="9.1" font-weight="bold" lengthAdjust="spacing" textLength="4.9" x="43.05" y="152.4968">4</text><text fill="#000000" font-family="sans-serif" font-size="9.1" lengthAdjust="spacing" textLength="84.7" x="50.75" y="152.4968">types employee data</text><polygon fill="#181818" points="405.65,175.2844,412.65,178.0844,405.65,180.8844,408.45,178.0844" style="stroke:#181818;stroke-width:0.6999999999999998;"/><line style="stroke:#181818;stroke-width:0.6999999999999998;" x1="274.75" x2="409.85" y1="178.0844" y2="178.0844"/><text fill="#000000" font-family="sans-serif" font-size="9.1" font-weight="bold" lengthAdjust="spacing" textLength="4.9" x="279.65" y="174.4005">5</text><text fill="#000000" font-family="sans-serif" font-size="9.1" lengthAdjust="spacing" textLength="70.7" x="287.35" y="174.4005">registerEmployee</text><polygon fill="#181818" points="552.65,233.4992,559.65,236.2992,552.65,239.0992,555.45,236.2992" style="stroke:#181818;stroke-width:0.6999999999999998;"/><line style="stroke:#181818;stroke-width:0.6999999999999998;" x1="417.55" x2="556.85" y1="236.2992" y2="236.2992"/><text fill="#000000" font-family="sans-serif" font-size="9.1" font-weight="bold" lengthAdjust="spacing" textLength="4.9" x="422.45" y="214.4598">6</text><text fill="#000000" font-family="sans-serif" font-size="9.1" lengthAdjust="spacing" textLength="93.8" x="430.15" y="196.3042">createEmployee(name,</text><text fill="#000000" font-family="sans-serif" font-size="9.1" lengthAdjust="spacing" textLength="69.3" x="432.95" y="208.4079">passportNumber,</text><text fill="#000000" font-family="sans-serif" font-size="9.1" lengthAdjust="spacing" textLength="116.2" x="432.95" y="220.5116">tax number, address, e-mail,</text><text fill="#000000" font-family="sans-serif" font-size="9.1" lengthAdjust="spacing" textLength="73.5" x="432.95" y="232.6153">telephoneNumber)</text><line style="stroke:#181818;stroke-width:0.6999999999999998;" x1="568.05" x2="597.45" y1="258.2029" y2="258.2029"/><line style="stroke:#181818;stroke-width:0.6999999999999998;" x1="597.45" x2="597.45" y1="258.2029" y2="267.3029"/><line style="stroke:#181818;stroke-width:0.6999999999999998;" x1="568.75" x2="597.45" y1="267.3029" y2="267.3029"/><polygon fill="#181818" points="575.75,264.5029,568.75,267.3029,575.75,270.1029,572.95,267.3029" style="stroke:#181818;stroke-width:0.6999999999999998;"/><text fill="#000000" font-family="sans-serif" font-size="9.1" font-weight="bold" lengthAdjust="spacing" textLength="4.9" x="572.95" y="254.519">7</text><text fill="#000000" font-family="sans-serif" font-size="9.1" lengthAdjust="spacing" textLength="50.4" x="580.65" y="254.519">validate data</text><polygon fill="#181818" points="405.65,286.4066,412.65,289.2066,405.65,292.0066,408.45,289.2066" style="stroke:#181818;stroke-width:0.6999999999999998;"/><line style="stroke:#181818;stroke-width:0.6999999999999998;" x1="278.25" x2="409.85" y1="289.2066" y2="289.2066"/><text fill="#000000" font-family="sans-serif" font-size="9.1" font-weight="bold" lengthAdjust="spacing" textLength="4.9" x="283.15" y="285.5228">8</text><text fill="#000000" font-family="sans-serif" font-size="9.1" lengthAdjust="spacing" textLength="51.1" x="290.85" y="285.5228">getRoleList()</text><polygon fill="#181818" points="627.55,329.3104,634.55,332.1104,627.55,334.9104,630.35,332.1104" style="stroke:#181818;stroke-width:0.6999999999999998;"/><line style="stroke:#181818;stroke-width:0.6999999999999998;" x1="421.05" x2="631.75" y1="332.1104" y2="332.1104"/><text fill="#000000" font-family="sans-serif" font-size="9.1" font-weight="bold" lengthAdjust="spacing" textLength="4.9" x="425.95" y="328.4265">9</text><text fill="#000000" font-family="sans-serif" font-size="9.1" lengthAdjust="spacing" textLength="51.1" x="433.65" y="328.4265">getRoleList()</text><polygon fill="#181818" points="428.75,372.2141,421.75,375.0141,428.75,377.8141,425.95,375.0141" style="stroke:#181818;stroke-width:0.6999999999999998;"/><line style="stroke:#181818;stroke-width:0.6999999999999998;" x1="424.55" x2="638.75" y1="375.0141" y2="375.0141"/><text fill="#000000" font-family="sans-serif" font-size="9.1" font-weight="bold" lengthAdjust="spacing" textLength="9.8" x="432.95" y="371.3302">10</text><text fill="#000000" font-family="sans-serif" font-size="9.1" lengthAdjust="spacing" textLength="58.8" x="445.55" y="371.3302">return Role list</text><polygon fill="#181818" points="285.95,394.1178,278.95,396.9178,285.95,399.7178,283.15,396.9178" style="stroke:#181818;stroke-width:0.6999999999999998;"/><line style="stroke:#181818;stroke-width:0.6999999999999998;" x1="281.75" x2="416.85" y1="396.9178" y2="396.9178"/><text fill="#000000" font-family="sans-serif" font-size="9.1" font-weight="bold" lengthAdjust="spacing" textLength="9.8" x="290.15" y="393.2339">11</text><text fill="#000000" font-family="sans-serif" font-size="9.1" lengthAdjust="spacing" textLength="58.8" x="302.75" y="393.2339">return Role list</text><polygon fill="#181818" points="45.85,416.0215,38.85,418.8215,45.85,421.6215,43.05,418.8215" style="stroke:#181818;stroke-width:0.6999999999999998;"/><line style="stroke:#181818;stroke-width:0.6999999999999998;" x1="41.65" x2="270.55" y1="418.8215" y2="418.8215"/><text fill="#000000" font-family="sans-serif" font-size="9.1" font-weight="bold" lengthAdjust="spacing" textLength="9.8" x="50.05" y="415.1376">12</text><text fill="#000000" font-family="sans-serif" font-size="9.1" lengthAdjust="spacing" textLength="189" x="62.65" y="415.1376">shows role list and asks the user to select one</text><polygon fill="#181818" points="262.85,437.9252,269.85,440.7252,262.85,443.5252,265.65,440.7252" style="stroke:#181818;stroke-width:0.6999999999999998;"/><line style="stroke:#181818;stroke-width:0.6999999999999998;" x1="38.15" x2="267.05" y1="440.7252" y2="440.7252"/><text fill="#000000" font-family="sans-serif" font-size="9.1" font-weight="bold" lengthAdjust="spacing" textLength="9.8" x="43.05" y="437.0413">13</text><text fill="#000000" font-family="sans-serif" font-size="9.1" lengthAdjust="spacing" textLength="49.7" x="55.65" y="437.0413">select a role</text><polygon fill="#181818" points="405.65,459.8289,412.65,462.6289,405.65,465.4289,408.45,462.6289" style="stroke:#181818;stroke-width:0.6999999999999998;"/><line style="stroke:#181818;stroke-width:0.6999999999999998;" x1="274.75" x2="409.85" y1="462.6289" y2="462.6289"/><text fill="#000000" font-family="sans-serif" font-size="9.1" font-weight="bold" lengthAdjust="spacing" textLength="9.8" x="279.65" y="458.945">14</text><text fill="#000000" font-family="sans-serif" font-size="9.1" lengthAdjust="spacing" textLength="77" x="292.25" y="458.945">saveEmployeeRole</text><polygon fill="#181818" points="552.65,481.7326,559.65,484.5326,552.65,487.3326,555.45,484.5326" style="stroke:#181818;stroke-width:0.6999999999999998;"/><line style="stroke:#181818;stroke-width:0.6999999999999998;" x1="421.05" x2="556.85" y1="484.5326" y2="484.5326"/><text fill="#000000" font-family="sans-serif" font-size="9.1" font-weight="bold" lengthAdjust="spacing" textLength="9.8" x="425.95" y="480.8487">15</text><text fill="#000000" font-family="sans-serif" font-size="9.1" lengthAdjust="spacing" textLength="77" x="438.55" y="480.8487">saveEmployeeRole</text><polygon fill="#181818" points="405.65,503.6363,412.65,506.4363,405.65,509.2363,408.45,506.4363" style="stroke:#181818;stroke-width:0.6999999999999998;"/><line style="stroke:#181818;stroke-width:0.6999999999999998;" x1="278.25" x2="409.85" y1="506.4363" y2="506.4363"/><text fill="#000000" font-family="sans-serif" font-size="9.1" font-weight="bold" lengthAdjust="spacing" textLength="9.8" x="283.15" y="502.7524">16</text><text fill="#000000" font-family="sans-serif" font-size="9.1" lengthAdjust="spacing" textLength="63.7" x="295.75" y="502.7524">getAgencyList()</text><polygon fill="#181818" points="670.95,546.54,677.95,549.34,670.95,552.14,673.75,549.34" style="stroke:#181818;stroke-width:0.6999999999999998;"/><line style="stroke:#181818;stroke-width:0.6999999999999998;" x1="421.05" x2="675.15" y1="549.34" y2="549.34"/><text fill="#000000" font-family="sans-serif" font-size="9.1" font-weight="bold" lengthAdjust="spacing" textLength="9.8" x="425.95" y="545.6562">17</text><text fill="#000000" font-family="sans-serif" font-size="9.1" lengthAdjust="spacing" textLength="63.7" x="438.55" y="545.6562">getAgencyList()</text><polygon fill="#181818" points="428.75,589.4437,421.75,592.2437,428.75,595.0437,425.95,592.2437" style="stroke:#181818;stroke-width:0.6999999999999998;"/><line style="stroke:#181818;stroke-width:0.6999999999999998;" x1="424.55" x2="682.15" y1="592.2437" y2="592.2437"/><text fill="#000000" font-family="sans-serif" font-size="9.1" font-weight="bold" lengthAdjust="spacing" textLength="9.8" x="432.95" y="588.5599">18</text><text fill="#000000" font-family="sans-serif" font-size="9.1" lengthAdjust="spacing" textLength="71.4" x="445.55" y="588.5599">return Agency list</text><polygon fill="#181818" points="285.95,611.3475,278.95,614.1475,285.95,616.9475,283.15,614.1475" style="stroke:#181818;stroke-width:0.6999999999999998;"/><line style="stroke:#181818;stroke-width:0.6999999999999998;" x1="281.75" x2="416.85" y1="614.1475" y2="614.1475"/><text fill="#000000" font-family="sans-serif" font-size="9.1" font-weight="bold" lengthAdjust="spacing" textLength="9.8" x="290.15" y="610.4636">19</text><text fill="#000000" font-family="sans-serif" font-size="9.1" lengthAdjust="spacing" textLength="71.4" x="302.75" y="610.4636">return Agency list</text><polygon fill="#181818" points="45.85,633.2512,38.85,636.0512,45.85,638.8512,43.05,636.0512" style="stroke:#181818;stroke-width:0.6999999999999998;"/><line style="stroke:#181818;stroke-width:0.6999999999999998;" x1="41.65" x2="270.55" y1="636.0512" y2="636.0512"/><text fill="#000000" font-family="sans-serif" font-size="9.1" font-weight="bold" lengthAdjust="spacing" textLength="9.8" x="50.05" y="632.3673">20</text><text fill="#000000" font-family="sans-serif" font-size="9.1" lengthAdjust="spacing" textLength="203.7" x="62.65" y="632.3673">shows agency list and asks the user to select one</text><polygon fill="#181818" points="262.85,655.1549,269.85,657.9549,262.85,660.7549,265.65,657.9549" style="stroke:#181818;stroke-width:0.6999999999999998;"/><line style="stroke:#181818;stroke-width:0.6999999999999998;" x1="38.15" x2="267.05" y1="657.9549" y2="657.9549"/><text fill="#000000" font-family="sans-serif" font-size="9.1" font-weight="bold" lengthAdjust="spacing" textLength="9.8" x="43.05" y="654.271">21</text><text fill="#000000" font-family="sans-serif" font-size="9.1" lengthAdjust="spacing" textLength="56.7" x="55.65" y="654.271">select agency</text><polygon fill="#181818" points="409.15,677.0586,416.15,679.8586,409.15,682.6586,411.95,679.8586" style="stroke:#181818;stroke-width:0.6999999999999998;"/><line style="stroke:#181818;stroke-width:0.6999999999999998;" x1="274.75" x2="413.35" y1="679.8586" y2="679.8586"/><text fill="#000000" font-family="sans-serif" font-size="9.1" font-weight="bold" lengthAdjust="spacing" textLength="9.8" x="279.65" y="676.1747">22</text><text fill="#000000" font-family="sans-serif" font-size="9.1" lengthAdjust="spacing" textLength="95.2" x="292.25" y="676.1747">saveEmployeeAgency()</text><polygon fill="#181818" points="552.65,698.9623,559.65,701.7623,552.65,704.5623,555.45,701.7623" style="stroke:#181818;stroke-width:0.6999999999999998;"/><line style="stroke:#181818;stroke-width:0.6999999999999998;" x1="421.05" x2="556.85" y1="701.7623" y2="701.7623"/><text fill="#000000" font-family="sans-serif" font-size="9.1" font-weight="bold" lengthAdjust="spacing" textLength="9.8" x="425.95" y="698.0784">23</text><text fill="#000000" font-family="sans-serif" font-size="9.1" lengthAdjust="spacing" textLength="95.2" x="438.55" y="698.0784">saveEmployeeAgency()</text><polygon fill="#181818" points="285.95,741.866,278.95,744.666,285.95,747.466,283.15,744.666" style="stroke:#181818;stroke-width:0.6999999999999998;"/><line style="stroke:#181818;stroke-width:0.6999999999999998;" x1="281.75" x2="416.85" y1="744.666" y2="744.666"/><text fill="#000000" font-family="sans-serif" font-size="9.1" font-weight="bold" lengthAdjust="spacing" textLength="9.8" x="290.15" y="740.9821">24</text><text fill="#000000" font-family="sans-serif" font-size="9.1" lengthAdjust="spacing" textLength="109.9" x="302.75" y="740.9821">return RegisteredEmployee</text><polygon fill="#181818" points="45.85,763.7697,38.85,766.5697,45.85,769.3697,43.05,766.5697" style="stroke:#181818;stroke-width:0.6999999999999998;"/><line style="stroke:#181818;stroke-width:0.6999999999999998;" x1="41.65" x2="274.05" y1="766.5697" y2="766.5697"/><text fill="#000000" font-family="sans-serif" font-size="9.1" font-weight="bold" lengthAdjust="spacing" textLength="9.8" x="50.05" y="762.8858">25</text><text fill="#000000" font-family="sans-serif" font-size="9.1" lengthAdjust="spacing" textLength="179.9" x="62.65" y="762.8858">shows employee data and asks confirmation</text><polygon fill="#181818" points="262.85,785.6734,269.85,788.4734,262.85,791.2734,265.65,788.4734" style="stroke:#181818;stroke-width:0.6999999999999998;"/><line style="stroke:#181818;stroke-width:0.6999999999999998;" x1="38.15" x2="267.05" y1="788.4734" y2="788.4734"/><text fill="#000000" font-family="sans-serif" font-size="9.1" font-weight="bold" lengthAdjust="spacing" textLength="9.8" x="43.05" y="784.7896">26</text><text fill="#000000" font-family="sans-serif" font-size="9.1" lengthAdjust="spacing" textLength="70" x="55.65" y="784.7896">confirms the data</text><polygon fill="#181818" points="405.65,807.5771,412.65,810.3771,405.65,813.1771,408.45,810.3771" style="stroke:#181818;stroke-width:0.6999999999999998;"/><line style="stroke:#181818;stroke-width:0.6999999999999998;" x1="278.25" x2="409.85" y1="810.3771" y2="810.3771"/><text fill="#000000" font-family="sans-serif" font-size="9.1" font-weight="bold" lengthAdjust="spacing" textLength="9.8" x="283.15" y="806.6933">27</text><text fill="#000000" font-family="sans-serif" font-size="9.1" lengthAdjust="spacing" textLength="64.4" x="295.75" y="806.6933">saveEmployee()</text><polygon fill="#181818" points="751.1,850.4809,758.1,853.2809,751.1,856.0809,753.9,853.2809" style="stroke:#181818;stroke-width:0.6999999999999998;"/><line style="stroke:#181818;stroke-width:0.6999999999999998;" x1="421.05" x2="755.3" y1="853.2809" y2="853.2809"/><text fill="#000000" font-family="sans-serif" font-size="9.1" font-weight="bold" lengthAdjust="spacing" textLength="9.8" x="425.95" y="849.597">28</text><text fill="#000000" font-family="sans-serif" font-size="9.1" lengthAdjust="spacing" textLength="64.4" x="438.55" y="849.597">saveEmployee()</text><polygon fill="#181818" points="45.85,893.3846,38.85,896.1846,45.85,898.9846,43.05,896.1846" style="stroke:#181818;stroke-width:0.6999999999999998;"/><line style="stroke:#181818;stroke-width:0.6999999999999998;" x1="41.65" x2="270.55" y1="896.1846" y2="896.1846"/><text fill="#000000" font-family="sans-serif" font-size="9.1" font-weight="bold" lengthAdjust="spacing" textLength="9.8" x="50.05" y="892.5007">29</text><text fill="#000000" font-family="sans-serif" font-size="9.1" lengthAdjust="spacing" textLength="101.5" x="62.65" y="892.5007">informs operation sucess</text><!--SRC=[fLPDRzim3BtxLmWzjKNo1u9XG37qC63O8S1klN0scmYp9KsYq-RVZv9iHtOisy1wYYL-FF8zKeMIj1KlLIELT6J1Vu4JK3M50Kkob0OKYOV34KziWFQrCRM-8lxw_k0DMxbYzqqhihgkqGRxakp8eJVpTpZEUTHrE6Pl75syd52Lrm0p_9eWw4CUqMWdkQ1ho6nDKK1BMhNDRxJykoHv0S9GQo6wF_uG-wzSra4uuh3irnKarKc0KFZ1E6E2nAkFnUqO3blf8t71py_Y84gBR72xhN3MoUV_iW_vBVvjqP4RyeaA25QI9lZfQZ3hF80x30M-tfKrndYNrtCvdFA7ZuXDNseVxb51Wxit9GmuPxIbdu40VqBmAI8TEmPUMNHk9t3VWAp3DTPepbfXz7Yw9Pk0yq3Ig-42cx4FDZt62zIoyYRPjfoGl09_S6yUd-QxFjkH6NmfZAvFNjJJ77VXWl9N1EDj4YgfjIfEJir1PwaCKQTuek0ctfbMRv4zwv0dwAm_ulo6U09KnPFunmawiuz3AqWBnooN99Zc-IcCrp21dH3bu3A8xPZls6RvtiKh5dKrbapSJKkYsIYGkDgsnEoMuDfYYKjpefHkbMQrqiLUKCjQX7Gajka5RX7_Ip4Jw1d5HFnfOpCDp2Xay5zS1hDCPmIGZgfP7DHkSMErkBfN6KZUdCZ0wCsuSL1gzIvj0oIrslIGTN0xlqZYXZSimzIi-3CRTuOuQpQ4uuQlq90qIwftxSlI1creYd1joM_Ozhdtn-cq-Vz4_W40]--></g></svg>