<?xml version="1.0" encoding="us-ascii" standalone="no"?><svg xmlns="http://www.w3.org/2000/svg" xmlns:xlink="http://www.w3.org/1999/xlink" contentStyleType="text/css" height="626px" preserveAspectRatio="none" style="width:977px;height:626px;background:#FFFFFF;" version="1.1" viewBox="0 0 977 626" width="977px" zoomAndPan="magnify"><defs/><g><rect fill="#FFFFFF" height="431.6953" style="stroke:#181818;stroke-width:1.0;" width="10" x="44.5" y="93.6211"/><rect fill="#FFFFFF" height="31.291" style="stroke:#181818;stroke-width:1.0;" width="10" x="353.5" y="116.9121"/><rect fill="#FFFFFF" height="62.582" style="stroke:#181818;stroke-width:1.0;" width="10" x="353.5" y="191.8242"/><rect fill="#FFFFFF" height="31.291" style="stroke:#181818;stroke-width:1.0;" width="10" x="353.5" y="431.4434"/><rect fill="#FFFFFF" height="31.291" style="stroke:#181818;stroke-width:1.0;" width="10" x="353.5" y="494.0254"/><rect fill="#FFFFFF" height="83.1641" style="stroke:#181818;stroke-width:1.0;" width="10" x="550.5" y="254.4063"/><rect fill="#FFFFFF" height="31.291" style="stroke:#181818;stroke-width:1.0;" width="10" x="550.5" y="400.1523"/><rect fill="#FFFFFF" height="31.291" style="stroke:#181818;stroke-width:1.0;" width="10" x="760.5" y="337.5703"/><rect fill="#FFFFFF" height="31.291" style="stroke:#181818;stroke-width:1.0;" width="10" x="892.5" y="368.8613"/><line style="stroke:#181818;stroke-width:0.5;stroke-dasharray:5.0,5.0;" x1="49" x2="49" y1="83.6211" y2="543.3164"/><line style="stroke:#181818;stroke-width:0.5;stroke-dasharray:5.0,5.0;" x1="358" x2="358" y1="83.6211" y2="543.3164"/><line style="stroke:#181818;stroke-width:0.5;stroke-dasharray:5.0,5.0;" x1="555" x2="555" y1="156.7227" y2="543.3164"/><line style="stroke:#181818;stroke-width:0.5;stroke-dasharray:5.0,5.0;" x1="765.5" x2="765.5" y1="83.6211" y2="543.3164"/><line style="stroke:#181818;stroke-width:0.5;stroke-dasharray:5.0,5.0;" x1="897.5" x2="897.5" y1="83.6211" y2="543.3164"/><text fill="#000000" font-family="sans-serif" font-size="14" lengthAdjust="spacing" textLength="83" x="5" y="80.1074">Administrator</text><ellipse cx="49.5" cy="13.5" fill="#E2E2F0" rx="8" ry="8" style="stroke:#181818;stroke-width:0.5;"/><path d="M49.5,21.5 L49.5,48.5 M36.5,29.5 L62.5,29.5 M49.5,48.5 L36.5,63.5 M49.5,48.5 L62.5,63.5 " fill="none" style="stroke:#181818;stroke-width:0.5;"/><text fill="#000000" font-family="sans-serif" font-size="14" lengthAdjust="spacing" textLength="83" x="5" y="557.4238">Administrator</text><ellipse cx="49.5" cy="569.4375" fill="#E2E2F0" rx="8" ry="8" style="stroke:#181818;stroke-width:0.5;"/><path d="M49.5,577.4375 L49.5,604.4375 M36.5,585.4375 L62.5,585.4375 M49.5,604.4375 L36.5,619.4375 M49.5,604.4375 L62.5,619.4375 " fill="none" style="stroke:#181818;stroke-width:0.5;"/><rect fill="#E2E2F0" height="32.6211" rx="2.5" ry="2.5" style="stroke:#181818;stroke-width:0.5;" width="145" x="286" y="50"/><text fill="#000000" font-family="sans-serif" font-size="14" lengthAdjust="spacing" textLength="131" x="293" y="72.1074">:RegisterEmployeeUI</text><rect fill="#E2E2F0" height="32.6211" rx="2.5" ry="2.5" style="stroke:#181818;stroke-width:0.5;" width="145" x="286" y="542.3164"/><text fill="#000000" font-family="sans-serif" font-size="14" lengthAdjust="spacing" textLength="131" x="293" y="564.4238">:RegisterEmployeeUI</text><rect fill="#E2E2F0" height="32.6211" rx="2.5" ry="2.5" style="stroke:#181818;stroke-width:0.5;" width="195" x="458" y="542.3164"/><text fill="#000000" font-family="sans-serif" font-size="14" lengthAdjust="spacing" textLength="181" x="465" y="564.4238">:RegisterEmployeeController</text><rect fill="#E2E2F0" height="32.6211" rx="2.5" ry="2.5" style="stroke:#181818;stroke-width:0.5;" width="76" x="727.5" y="50"/><text fill="#000000" font-family="sans-serif" font-size="14" lengthAdjust="spacing" textLength="62" x="734.5" y="72.1074">Employee</text><rect fill="#E2E2F0" height="32.6211" rx="2.5" ry="2.5" style="stroke:#181818;stroke-width:0.5;" width="76" x="727.5" y="542.3164"/><text fill="#000000" font-family="sans-serif" font-size="14" lengthAdjust="spacing" textLength="62" x="734.5" y="564.4238">Employee</text><rect fill="#E2E2F0" height="32.6211" rx="2.5" ry="2.5" style="stroke:#181818;stroke-width:0.5;" width="148" x="823.5" y="50"/><text fill="#000000" font-family="sans-serif" font-size="14" lengthAdjust="spacing" textLength="134" x="830.5" y="72.1074">:EmployeeRepository</text><rect fill="#E2E2F0" height="32.6211" rx="2.5" ry="2.5" style="stroke:#181818;stroke-width:0.5;" width="148" x="823.5" y="542.3164"/><text fill="#000000" font-family="sans-serif" font-size="14" lengthAdjust="spacing" textLength="134" x="830.5" y="564.4238">:EmployeeRepository</text><rect fill="#FFFFFF" height="431.6953" style="stroke:#181818;stroke-width:1.0;" width="10" x="44.5" y="93.6211"/><rect fill="#FFFFFF" height="31.291" style="stroke:#181818;stroke-width:1.0;" width="10" x="353.5" y="116.9121"/><rect fill="#FFFFFF" height="62.582" style="stroke:#181818;stroke-width:1.0;" width="10" x="353.5" y="191.8242"/><rect fill="#FFFFFF" height="31.291" style="stroke:#181818;stroke-width:1.0;" width="10" x="353.5" y="431.4434"/><rect fill="#FFFFFF" height="31.291" style="stroke:#181818;stroke-width:1.0;" width="10" x="353.5" y="494.0254"/><rect fill="#FFFFFF" height="83.1641" style="stroke:#181818;stroke-width:1.0;" width="10" x="550.5" y="254.4063"/><rect fill="#FFFFFF" height="31.291" style="stroke:#181818;stroke-width:1.0;" width="10" x="550.5" y="400.1523"/><rect fill="#FFFFFF" height="31.291" style="stroke:#181818;stroke-width:1.0;" width="10" x="760.5" y="337.5703"/><rect fill="#FFFFFF" height="31.291" style="stroke:#181818;stroke-width:1.0;" width="10" x="892.5" y="368.8613"/><polygon fill="#181818" points="341.5,112.9121,351.5,116.9121,341.5,120.9121,345.5,116.9121" style="stroke:#181818;stroke-width:1.0;"/><line style="stroke:#181818;stroke-width:1.0;" x1="54.5" x2="347.5" y1="116.9121" y2="116.9121"/><text fill="#000000" font-family="sans-serif" font-size="13" font-weight="bold" lengthAdjust="spacing" textLength="7" x="61.5" y="111.6494">1</text><text fill="#000000" font-family="sans-serif" font-size="13" lengthAdjust="spacing" textLength="195" x="72.5" y="111.6494">starts registering a new employee</text><polygon fill="#181818" points="446,144.2031,456,148.2031,446,152.2031,450,148.2031" style="stroke:#181818;stroke-width:1.0;"/><line style="stroke:#181818;stroke-width:1.0;" x1="358.5" x2="452" y1="148.2031" y2="148.2031"/><text fill="#000000" font-family="sans-serif" font-size="13" font-weight="bold" lengthAdjust="spacing" textLength="7" x="365.5" y="142.9404">2</text><text fill="#000000" font-family="sans-serif" font-size="13" lengthAdjust="spacing" textLength="36" x="376.5" y="142.9404">create</text><rect fill="#E2E2F0" height="32.6211" rx="2.5" ry="2.5" style="stroke:#181818;stroke-width:0.5;" width="195" x="458" y="124.9121"/><text fill="#000000" font-family="sans-serif" font-size="14" lengthAdjust="spacing" textLength="181" x="465" y="147.0195">:RegisterEmployeeController</text><polygon fill="#181818" points="65.5,187.8242,55.5,191.8242,65.5,195.8242,61.5,191.8242" style="stroke:#181818;stroke-width:1.0;"/><line style="stroke:#181818;stroke-width:1.0;" x1="59.5" x2="352.5" y1="191.8242" y2="191.8242"/><text fill="#000000" font-family="sans-serif" font-size="13" font-weight="bold" lengthAdjust="spacing" textLength="7" x="71.5" y="186.5615">3</text><text fill="#000000" font-family="sans-serif" font-size="13" lengthAdjust="spacing" textLength="139" x="82.5" y="186.5615">requests employee data</text><polygon fill="#181818" points="341.5,219.1152,351.5,223.1152,341.5,227.1152,345.5,223.1152" style="stroke:#181818;stroke-width:1.0;"/><line style="stroke:#181818;stroke-width:1.0;" x1="54.5" x2="347.5" y1="223.1152" y2="223.1152"/><text fill="#000000" font-family="sans-serif" font-size="13" font-weight="bold" lengthAdjust="spacing" textLength="7" x="61.5" y="217.8525">4</text><text fill="#000000" font-family="sans-serif" font-size="13" lengthAdjust="spacing" textLength="121" x="72.5" y="217.8525">types employee data</text><polygon fill="#181818" points="538.5,250.4063,548.5,254.4063,538.5,258.4063,542.5,254.4063" style="stroke:#181818;stroke-width:1.0;"/><line style="stroke:#181818;stroke-width:1.0;" x1="358.5" x2="544.5" y1="254.4063" y2="254.4063"/><text fill="#000000" font-family="sans-serif" font-size="13" font-weight="bold" lengthAdjust="spacing" textLength="7" x="365.5" y="249.1436">5</text><text fill="#000000" font-family="sans-serif" font-size="13" lengthAdjust="spacing" textLength="101" x="376.5" y="249.1436">registerEmployee</text><polygon fill="#181818" points="748.5,333.5703,758.5,337.5703,748.5,341.5703,752.5,337.5703" style="stroke:#181818;stroke-width:1.0;"/><line style="stroke:#181818;stroke-width:1.0;" x1="555.5" x2="754.5" y1="337.5703" y2="337.5703"/><text fill="#000000" font-family="sans-serif" font-size="13" font-weight="bold" lengthAdjust="spacing" textLength="7" x="562.5" y="306.3711">6</text><text fill="#000000" font-family="sans-serif" font-size="13" lengthAdjust="spacing" textLength="134" x="573.5" y="280.4346">createEmployee(name,</text><text fill="#000000" font-family="sans-serif" font-size="13" lengthAdjust="spacing" textLength="114" x="577.5" y="297.7256">citizenCardNumber,</text><text fill="#000000" font-family="sans-serif" font-size="13" lengthAdjust="spacing" textLength="166" x="577.5" y="315.0166">tax number, address, e-mail,</text><text fill="#000000" font-family="sans-serif" font-size="13" lengthAdjust="spacing" textLength="155" x="577.5" y="332.3076">telephoneNumber, agency)</text><polygon fill="#181818" points="880.5,364.8613,890.5,368.8613,880.5,372.8613,884.5,368.8613" style="stroke:#181818;stroke-width:1.0;"/><line style="stroke:#181818;stroke-width:1.0;" x1="765.5" x2="886.5" y1="368.8613" y2="368.8613"/><text fill="#000000" font-family="sans-serif" font-size="13" font-weight="bold" lengthAdjust="spacing" textLength="7" x="772.5" y="363.5986">7</text><text fill="#000000" font-family="sans-serif" font-size="13" lengthAdjust="spacing" textLength="92" x="783.5" y="363.5986">saveEmployee()</text><polygon fill="#181818" points="571.5,396.1523,561.5,400.1523,571.5,404.1523,567.5,400.1523" style="stroke:#181818;stroke-width:1.0;"/><line style="stroke:#181818;stroke-width:1.0;" x1="565.5" x2="896.5" y1="400.1523" y2="400.1523"/><text fill="#000000" font-family="sans-serif" font-size="13" font-weight="bold" lengthAdjust="spacing" textLength="7" x="577.5" y="394.8896">8</text><text fill="#000000" font-family="sans-serif" font-size="13" lengthAdjust="spacing" textLength="157" x="588.5" y="394.8896">return RegisteredEmployee</text><polygon fill="#181818" points="374.5,427.4434,364.5,431.4434,374.5,435.4434,370.5,431.4434" style="stroke:#181818;stroke-width:1.0;"/><line style="stroke:#181818;stroke-width:1.0;" x1="368.5" x2="554.5" y1="431.4434" y2="431.4434"/><text fill="#000000" font-family="sans-serif" font-size="13" font-weight="bold" lengthAdjust="spacing" textLength="7" x="380.5" y="426.1807">9</text><text fill="#000000" font-family="sans-serif" font-size="13" lengthAdjust="spacing" textLength="157" x="391.5" y="426.1807">return RegisteredEmployee</text><polygon fill="#181818" points="65.5,458.7344,55.5,462.7344,65.5,466.7344,61.5,462.7344" style="stroke:#181818;stroke-width:1.0;"/><line style="stroke:#181818;stroke-width:1.0;" x1="59.5" x2="357.5" y1="462.7344" y2="462.7344"/><text fill="#000000" font-family="sans-serif" font-size="13" font-weight="bold" lengthAdjust="spacing" textLength="14" x="71.5" y="457.4717">10</text><text fill="#000000" font-family="sans-serif" font-size="13" lengthAdjust="spacing" textLength="257" x="89.5" y="457.4717">shows employee data and asks confirmation</text><polygon fill="#181818" points="341.5,490.0254,351.5,494.0254,341.5,498.0254,345.5,494.0254" style="stroke:#181818;stroke-width:1.0;"/><line style="stroke:#181818;stroke-width:1.0;" x1="54.5" x2="347.5" y1="494.0254" y2="494.0254"/><text fill="#000000" font-family="sans-serif" font-size="13" font-weight="bold" lengthAdjust="spacing" textLength="14" x="61.5" y="488.7627">11</text><text fill="#000000" font-family="sans-serif" font-size="13" lengthAdjust="spacing" textLength="100" x="79.5" y="488.7627">confirms the data</text><polygon fill="#181818" points="60.5,521.3164,50.5,525.3164,60.5,529.3164,56.5,525.3164" style="stroke:#181818;stroke-width:1.0;"/><line style="stroke:#181818;stroke-width:1.0;" x1="54.5" x2="357.5" y1="525.3164" y2="525.3164"/><text fill="#000000" font-family="sans-serif" font-size="13" font-weight="bold" lengthAdjust="spacing" textLength="14" x="66.5" y="520.0537">12</text><text fill="#000000" font-family="sans-serif" font-size="13" lengthAdjust="spacing" textLength="145" x="84.5" y="520.0537">informs operation sucess</text><!--SRC=[ZLFBRi903BpdAonE1S4FeAfIXJZqmW6fjrxSnC2goUxMwq3frzUx926y2Zd5pndRivYBOtWjAcDD4CPeOG0igimZYycDHoimc2vfhGd4yygNRa_q_ZQ8YRMvapTpLjYL9N7ApuLF2jgq6ADpp3Qu9E-2KMhxr8Dzbc4jpjRL9x7-vsAsA9HOPz1yQi3aHGbE8OYsrRg6ch5hGB2qKyG3GA-gxQM3TSxQn4vAVJI2AUHCcd2C5dIrAE8_Jn8-qtTDGKA71mKAtW7jyPUzfvl57RbfD-3yOgnJZXUuyIgTLutOaQfsrBRTayMAnXyMSYFcb-mCkLYa6qIdu0ySBZ9MxWLJ26EWIOMcJ64goM-SfKMRioQRxuT7t3EUaLC_r0MeTsHAEsAlDyRjaUZmwkJzmiuPnTHvsVTsAJLRQELCnRzBZLqUskf13ZTRPtSMSQAKQr8B6xSxamgWBVJPVEdZStPbk48npZwatuPmKnT0DWzBj-5ZxCh5IkU94ow4EbTft8JlcUav_m40]--></g></svg>