<?xml version="1.0" encoding="us-ascii" standalone="no"?><svg xmlns="http://www.w3.org/2000/svg" xmlns:xlink="http://www.w3.org/1999/xlink" contentStyleType="text/css" height="1607px" preserveAspectRatio="none" style="width:588px;height:1607px;background:#FFFFFF;" version="1.1" viewBox="0 0 588 1607" width="588px" zoomAndPan="magnify"><defs/><g><text fill="#000000" font-family="sans-serif" font-size="14" font-weight="bold" lengthAdjust="spacing" textLength="276" x="157.25" y="30.1074">US04 - System Sequence Diagram (SSD)</text><rect fill="#FFFFFF" height="1382.4355" style="stroke:#181818;stroke-width:1.0;" width="10" x="67.5" y="133.2422"/><rect fill="#FFFFFF" height="31.291" style="stroke:#181818;stroke-width:1.0;" width="10" x="534.5" y="156.5332"/><rect fill="#FFFFFF" height="31.291" style="stroke:#181818;stroke-width:1.0;" width="10" x="534.5" y="219.1152"/><rect fill="#FFFFFF" height="31.291" style="stroke:#181818;stroke-width:1.0;" width="10" x="534.5" y="281.6973"/><rect fill="#FFFFFF" height="31.291" style="stroke:#181818;stroke-width:1.0;" width="10" x="534.5" y="344.2793"/><rect fill="#FFFFFF" height="31.291" style="stroke:#181818;stroke-width:1.0;" width="10" x="534.5" y="406.8613"/><rect fill="#FFFFFF" height="57.582" style="stroke:#181818;stroke-width:1.0;" width="10" x="534.5" y="469.4434"/><rect fill="#FFFFFF" height="31.291" style="stroke:#181818;stroke-width:1.0;" width="10" x="534.5" y="558.3164"/><rect fill="#FFFFFF" height="31.291" style="stroke:#181818;stroke-width:1.0;" width="10" x="534.5" y="620.8984"/><rect fill="#FFFFFF" height="31.291" style="stroke:#181818;stroke-width:1.0;" width="10" x="534.5" y="683.4805"/><rect fill="#FFFFFF" height="47.9219" style="stroke:#181818;stroke-width:1.0;" width="10" x="534.5" y="746.0625"/><rect fill="#FFFFFF" height="31.291" style="stroke:#181818;stroke-width:1.0;" width="10" x="534.5" y="825.2754"/><rect fill="#FFFFFF" height="48.582" style="stroke:#181818;stroke-width:1.0;" width="10" x="534.5" y="887.8574"/><rect fill="#FFFFFF" height="31.291" style="stroke:#181818;stroke-width:1.0;" width="10" x="534.5" y="967.7305"/><rect fill="#FFFFFF" height="31.291" style="stroke:#181818;stroke-width:1.0;" width="10" x="534.5" y="1030.3125"/><rect fill="#FFFFFF" height="31.291" style="stroke:#181818;stroke-width:1.0;" width="10" x="534.5" y="1092.8945"/><rect fill="#FFFFFF" height="31.291" style="stroke:#181818;stroke-width:1.0;" width="10" x="534.5" y="1155.4766"/><rect fill="#FFFFFF" height="38.291" style="stroke:#181818;stroke-width:1.0;" width="10" x="534.5" y="1218.0586"/><rect fill="#FFFFFF" height="31.291" style="stroke:#181818;stroke-width:1.0;" width="10" x="534.5" y="1287.6406"/><rect fill="#FFFFFF" height="31.291" style="stroke:#181818;stroke-width:1.0;" width="10" x="534.5" y="1350.2227"/><rect fill="#FFFFFF" height="31.291" style="stroke:#181818;stroke-width:1.0;" width="10" x="534.5" y="1412.8047"/><rect fill="#FFFFFF" height="31.291" style="stroke:#181818;stroke-width:1.0;" width="10" x="534.5" y="1475.3867"/><rect fill="none" height="741.6152" style="stroke:#000000;stroke-width:1.5;" width="571.5" x="10" y="484.4434"/><line style="stroke:#181818;stroke-width:0.5;stroke-dasharray:5.0,5.0;" x1="72" x2="72" y1="123.2422" y2="1524.6777"/><line style="stroke:#181818;stroke-width:0.5;stroke-dasharray:5.0,5.0;" x1="539.5" x2="539.5" y1="123.2422" y2="1524.6777"/><text fill="#000000" font-family="sans-serif" font-size="14" lengthAdjust="spacing" textLength="99" x="20" y="119.7285">Property Owner</text><ellipse cx="72.5" cy="53.1211" fill="#E2E2F0" rx="8" ry="8" style="stroke:#181818;stroke-width:0.5;"/><path d="M72.5,61.1211 L72.5,88.1211 M59.5,69.1211 L85.5,69.1211 M72.5,88.1211 L59.5,103.1211 M72.5,88.1211 L85.5,103.1211 " fill="none" style="stroke:#181818;stroke-width:0.5;"/><text fill="#000000" font-family="sans-serif" font-size="14" lengthAdjust="spacing" textLength="99" x="20" y="1538.7852">Property Owner</text><ellipse cx="72.5" cy="1550.7988" fill="#E2E2F0" rx="8" ry="8" style="stroke:#181818;stroke-width:0.5;"/><path d="M72.5,1558.7988 L72.5,1585.7988 M59.5,1566.7988 L85.5,1566.7988 M72.5,1585.7988 L59.5,1600.7988 M72.5,1585.7988 L85.5,1600.7988 " fill="none" style="stroke:#181818;stroke-width:0.5;"/><rect fill="#E2E2F0" height="32.6211" rx="2.5" ry="2.5" style="stroke:#181818;stroke-width:0.5;" width="64" x="507.5" y="89.6211"/><text fill="#000000" font-family="sans-serif" font-size="14" lengthAdjust="spacing" textLength="50" x="514.5" y="111.7285">:System</text><rect fill="#E2E2F0" height="32.6211" rx="2.5" ry="2.5" style="stroke:#181818;stroke-width:0.5;" width="64" x="507.5" y="1523.6777"/><text fill="#000000" font-family="sans-serif" font-size="14" lengthAdjust="spacing" textLength="50" x="514.5" y="1545.7852">:System</text><rect fill="#FFFFFF" height="1382.4355" style="stroke:#181818;stroke-width:1.0;" width="10" x="67.5" y="133.2422"/><rect fill="#FFFFFF" height="31.291" style="stroke:#181818;stroke-width:1.0;" width="10" x="534.5" y="156.5332"/><rect fill="#FFFFFF" height="31.291" style="stroke:#181818;stroke-width:1.0;" width="10" x="534.5" y="219.1152"/><rect fill="#FFFFFF" height="31.291" style="stroke:#181818;stroke-width:1.0;" width="10" x="534.5" y="281.6973"/><rect fill="#FFFFFF" height="31.291" style="stroke:#181818;stroke-width:1.0;" width="10" x="534.5" y="344.2793"/><rect fill="#FFFFFF" height="31.291" style="stroke:#181818;stroke-width:1.0;" width="10" x="534.5" y="406.8613"/><rect fill="#FFFFFF" height="57.582" style="stroke:#181818;stroke-width:1.0;" width="10" x="534.5" y="469.4434"/><rect fill="#FFFFFF" height="31.291" style="stroke:#181818;stroke-width:1.0;" width="10" x="534.5" y="558.3164"/><rect fill="#FFFFFF" height="31.291" style="stroke:#181818;stroke-width:1.0;" width="10" x="534.5" y="620.8984"/><rect fill="#FFFFFF" height="31.291" style="stroke:#181818;stroke-width:1.0;" width="10" x="534.5" y="683.4805"/><rect fill="#FFFFFF" height="47.9219" style="stroke:#181818;stroke-width:1.0;" width="10" x="534.5" y="746.0625"/><rect fill="#FFFFFF" height="31.291" style="stroke:#181818;stroke-width:1.0;" width="10" x="534.5" y="825.2754"/><rect fill="#FFFFFF" height="48.582" style="stroke:#181818;stroke-width:1.0;" width="10" x="534.5" y="887.8574"/><rect fill="#FFFFFF" height="31.291" style="stroke:#181818;stroke-width:1.0;" width="10" x="534.5" y="967.7305"/><rect fill="#FFFFFF" height="31.291" style="stroke:#181818;stroke-width:1.0;" width="10" x="534.5" y="1030.3125"/><rect fill="#FFFFFF" height="31.291" style="stroke:#181818;stroke-width:1.0;" width="10" x="534.5" y="1092.8945"/><rect fill="#FFFFFF" height="31.291" style="stroke:#181818;stroke-width:1.0;" width="10" x="534.5" y="1155.4766"/><rect fill="#FFFFFF" height="38.291" style="stroke:#181818;stroke-width:1.0;" width="10" x="534.5" y="1218.0586"/><rect fill="#FFFFFF" height="31.291" style="stroke:#181818;stroke-width:1.0;" width="10" x="534.5" y="1287.6406"/><rect fill="#FFFFFF" height="31.291" style="stroke:#181818;stroke-width:1.0;" width="10" x="534.5" y="1350.2227"/><rect fill="#FFFFFF" height="31.291" style="stroke:#181818;stroke-width:1.0;" width="10" x="534.5" y="1412.8047"/><rect fill="#FFFFFF" height="31.291" style="stroke:#181818;stroke-width:1.0;" width="10" x="534.5" y="1475.3867"/><polygon fill="#181818" points="522.5,152.5332,532.5,156.5332,522.5,160.5332,526.5,156.5332" style="stroke:#181818;stroke-width:1.0;"/><line style="stroke:#181818;stroke-width:1.0;" x1="77.5" x2="528.5" y1="156.5332" y2="156.5332"/><text fill="#000000" font-family="sans-serif" font-size="13" font-weight="bold" lengthAdjust="spacing" textLength="7" x="84.5" y="151.2705">1</text><text fill="#000000" font-family="sans-serif" font-size="13" lengthAdjust="spacing" textLength="160" x="95.5" y="151.2705">starts announcement a new property</text><polygon fill="#181818" points="88.5,183.8242,78.5,187.8242,88.5,191.8242,84.5,187.8242" style="stroke:#181818;stroke-width:1.0;"/><line style="stroke:#181818;stroke-width:1.0;" x1="82.5" x2="538.5" y1="187.8242" y2="187.8242"/><text fill="#000000" font-family="sans-serif" font-size="13" font-weight="bold" lengthAdjust="spacing" textLength="7" x="94.5" y="182.5615">2</text><text fill="#000000" font-family="sans-serif" font-size="13" lengthAdjust="spacing" textLength="166" x="105.5" y="182.5615">requests the type of property</text><polygon fill="#181818" points="522.5,215.1152,532.5,219.1152,522.5,223.1152,526.5,219.1152" style="stroke:#181818;stroke-width:1.0;"/><line style="stroke:#181818;stroke-width:1.0;" x1="77.5" x2="528.5" y1="219.1152" y2="219.1152"/><text fill="#000000" font-family="sans-serif" font-size="13" font-weight="bold" lengthAdjust="spacing" textLength="7" x="84.5" y="213.8525">3</text><text fill="#000000" font-family="sans-serif" font-size="13" lengthAdjust="spacing" textLength="158" x="95.5" y="213.8525">selects the type of property</text><polygon fill="#181818" points="88.5,246.4063,78.5,250.4063,88.5,254.4063,84.5,250.4063" style="stroke:#181818;stroke-width:1.0;"/><line style="stroke:#181818;stroke-width:1.0;" x1="82.5" x2="538.5" y1="250.4063" y2="250.4063"/><text fill="#000000" font-family="sans-serif" font-size="13" font-weight="bold" lengthAdjust="spacing" textLength="7" x="94.5" y="245.1436">4</text><text fill="#000000" font-family="sans-serif" font-size="13" lengthAdjust="spacing" textLength="137" x="105.5" y="245.1436">requests the area in m2</text><polygon fill="#181818" points="522.5,277.6973,532.5,281.6973,522.5,285.6973,526.5,281.6973" style="stroke:#181818;stroke-width:1.0;"/><line style="stroke:#181818;stroke-width:1.0;" x1="77.5" x2="528.5" y1="281.6973" y2="281.6973"/><text fill="#000000" font-family="sans-serif" font-size="13" font-weight="bold" lengthAdjust="spacing" textLength="7" x="84.5" y="276.4346">5</text><text fill="#000000" font-family="sans-serif" font-size="13" lengthAdjust="spacing" textLength="119" x="95.5" y="276.4346">types the area in m2</text><polygon fill="#181818" points="88.5,308.9883,78.5,312.9883,88.5,316.9883,84.5,312.9883" style="stroke:#181818;stroke-width:1.0;"/><line style="stroke:#181818;stroke-width:1.0;" x1="82.5" x2="538.5" y1="312.9883" y2="312.9883"/><text fill="#000000" font-family="sans-serif" font-size="13" font-weight="bold" lengthAdjust="spacing" textLength="7" x="94.5" y="307.7256">6</text><text fill="#000000" font-family="sans-serif" font-size="13" lengthAdjust="spacing" textLength="208" x="105.5" y="307.7256">requests the location of the property</text><polygon fill="#181818" points="522.5,340.2793,532.5,344.2793,522.5,348.2793,526.5,344.2793" style="stroke:#181818;stroke-width:1.0;"/><line style="stroke:#181818;stroke-width:1.0;" x1="77.5" x2="528.5" y1="344.2793" y2="344.2793"/><text fill="#000000" font-family="sans-serif" font-size="13" font-weight="bold" lengthAdjust="spacing" textLength="7" x="84.5" y="339.0166">7</text><text fill="#000000" font-family="sans-serif" font-size="13" lengthAdjust="spacing" textLength="190" x="95.5" y="339.0166">types the location of the property</text><polygon fill="#181818" points="88.5,371.5703,78.5,375.5703,88.5,379.5703,84.5,375.5703" style="stroke:#181818;stroke-width:1.0;"/><line style="stroke:#181818;stroke-width:1.0;" x1="82.5" x2="538.5" y1="375.5703" y2="375.5703"/><text fill="#000000" font-family="sans-serif" font-size="13" font-weight="bold" lengthAdjust="spacing" textLength="7" x="94.5" y="370.3076">8</text><text fill="#000000" font-family="sans-serif" font-size="13" lengthAdjust="spacing" textLength="201" x="105.5" y="370.3076">requests the distance of the centre</text><polygon fill="#181818" points="522.5,402.8613,532.5,406.8613,522.5,410.8613,526.5,406.8613" style="stroke:#181818;stroke-width:1.0;"/><line style="stroke:#181818;stroke-width:1.0;" x1="77.5" x2="528.5" y1="406.8613" y2="406.8613"/><text fill="#000000" font-family="sans-serif" font-size="13" font-weight="bold" lengthAdjust="spacing" textLength="7" x="84.5" y="401.5986">9</text><text fill="#000000" font-family="sans-serif" font-size="13" lengthAdjust="spacing" textLength="183" x="95.5" y="401.5986">types the distance of the centre</text><polygon fill="#181818" points="88.5,434.1523,78.5,438.1523,88.5,442.1523,84.5,438.1523" style="stroke:#181818;stroke-width:1.0;"/><line style="stroke:#181818;stroke-width:1.0;" x1="82.5" x2="538.5" y1="438.1523" y2="438.1523"/><text fill="#000000" font-family="sans-serif" font-size="13" font-weight="bold" lengthAdjust="spacing" textLength="14" x="94.5" y="432.8896">10</text><text fill="#000000" font-family="sans-serif" font-size="13" lengthAdjust="spacing" textLength="198" x="112.5" y="432.8896">requests one or more photographs</text><polygon fill="#181818" points="522.5,465.4434,532.5,469.4434,522.5,473.4434,526.5,469.4434" style="stroke:#181818;stroke-width:1.0;"/><line style="stroke:#181818;stroke-width:1.0;" x1="77.5" x2="528.5" y1="469.4434" y2="469.4434"/><text fill="#000000" font-family="sans-serif" font-size="13" font-weight="bold" lengthAdjust="spacing" textLength="14" x="84.5" y="464.1807">11</text><text fill="#000000" font-family="sans-serif" font-size="13" lengthAdjust="spacing" textLength="187" x="102.5" y="464.1807">inserts one or more photographs</text><path d="M10,484.4434 L71,484.4434 L71,493.7344 L61,503.7344 L10,503.7344 L10,484.4434 " fill="#EEEEEE" style="stroke:#000000;stroke-width:1.5;"/><rect fill="none" height="741.6152" style="stroke:#000000;stroke-width:1.5;" width="571.5" x="10" y="484.4434"/><text fill="#000000" font-family="sans-serif" font-size="13" font-weight="bold" lengthAdjust="spacing" textLength="16" x="25" y="499.4717">alt</text><text fill="#000000" font-family="sans-serif" font-size="11" font-weight="bold" lengthAdjust="spacing" textLength="169" x="86" y="498.3135">[The property is an apartment]</text><polygon fill="#181818" points="88.5,523.0254,78.5,527.0254,88.5,531.0254,84.5,527.0254" style="stroke:#181818;stroke-width:1.0;"/><line style="stroke:#181818;stroke-width:1.0;" x1="82.5" x2="538.5" y1="527.0254" y2="527.0254"/><text fill="#000000" font-family="sans-serif" font-size="13" font-weight="bold" lengthAdjust="spacing" textLength="14" x="94.5" y="521.7627">12</text><text fill="#000000" font-family="sans-serif" font-size="13" lengthAdjust="spacing" textLength="194" x="112.5" y="521.7627">requests the number of bedrooms</text><polygon fill="#181818" points="522.5,554.3164,532.5,558.3164,522.5,562.3164,526.5,558.3164" style="stroke:#181818;stroke-width:1.0;"/><line style="stroke:#181818;stroke-width:1.0;" x1="77.5" x2="528.5" y1="558.3164" y2="558.3164"/><text fill="#000000" font-family="sans-serif" font-size="13" font-weight="bold" lengthAdjust="spacing" textLength="14" x="84.5" y="553.0537">13</text><text fill="#000000" font-family="sans-serif" font-size="13" lengthAdjust="spacing" textLength="176" x="102.5" y="553.0537">types the number of bedrooms</text><polygon fill="#181818" points="88.5,585.6074,78.5,589.6074,88.5,593.6074,84.5,589.6074" style="stroke:#181818;stroke-width:1.0;"/><line style="stroke:#181818;stroke-width:1.0;" x1="82.5" x2="538.5" y1="589.6074" y2="589.6074"/><text fill="#000000" font-family="sans-serif" font-size="13" font-weight="bold" lengthAdjust="spacing" textLength="14" x="94.5" y="584.3447">14</text><text fill="#000000" font-family="sans-serif" font-size="13" lengthAdjust="spacing" textLength="198" x="112.5" y="584.3447">requests the number of bathrooms</text><polygon fill="#181818" points="522.5,616.8984,532.5,620.8984,522.5,624.8984,526.5,620.8984" style="stroke:#181818;stroke-width:1.0;"/><line style="stroke:#181818;stroke-width:1.0;" x1="77.5" x2="528.5" y1="620.8984" y2="620.8984"/><text fill="#000000" font-family="sans-serif" font-size="13" font-weight="bold" lengthAdjust="spacing" textLength="14" x="84.5" y="615.6357">15</text><text fill="#000000" font-family="sans-serif" font-size="13" lengthAdjust="spacing" textLength="180" x="102.5" y="615.6357">types the number of bathrooms</text><polygon fill="#181818" points="88.5,648.1895,78.5,652.1895,88.5,656.1895,84.5,652.1895" style="stroke:#181818;stroke-width:1.0;"/><line style="stroke:#181818;stroke-width:1.0;" x1="82.5" x2="538.5" y1="652.1895" y2="652.1895"/><text fill="#000000" font-family="sans-serif" font-size="13" font-weight="bold" lengthAdjust="spacing" textLength="14" x="94.5" y="646.9268">16</text><text fill="#000000" font-family="sans-serif" font-size="13" lengthAdjust="spacing" textLength="232" x="112.5" y="646.9268">requests the number of parkings spaces</text><polygon fill="#181818" points="522.5,679.4805,532.5,683.4805,522.5,687.4805,526.5,683.4805" style="stroke:#181818;stroke-width:1.0;"/><line style="stroke:#181818;stroke-width:1.0;" x1="77.5" x2="528.5" y1="683.4805" y2="683.4805"/><text fill="#000000" font-family="sans-serif" font-size="13" font-weight="bold" lengthAdjust="spacing" textLength="14" x="84.5" y="678.2178">17</text><text fill="#000000" font-family="sans-serif" font-size="13" lengthAdjust="spacing" textLength="214" x="102.5" y="678.2178">types the number of parkings spaces</text><polygon fill="#181818" points="88.5,710.7715,78.5,714.7715,88.5,718.7715,84.5,714.7715" style="stroke:#181818;stroke-width:1.0;"/><line style="stroke:#181818;stroke-width:1.0;" x1="82.5" x2="538.5" y1="714.7715" y2="714.7715"/><text fill="#000000" font-family="sans-serif" font-size="13" font-weight="bold" lengthAdjust="spacing" textLength="14" x="94.5" y="709.5088">18</text><text fill="#000000" font-family="sans-serif" font-size="13" lengthAdjust="spacing" textLength="189" x="112.5" y="709.5088">requests the available equipment</text><polygon fill="#181818" points="522.5,742.0625,532.5,746.0625,522.5,750.0625,526.5,746.0625" style="stroke:#181818;stroke-width:1.0;"/><line style="stroke:#181818;stroke-width:1.0;" x1="77.5" x2="528.5" y1="746.0625" y2="746.0625"/><text fill="#000000" font-family="sans-serif" font-size="13" font-weight="bold" lengthAdjust="spacing" textLength="14" x="84.5" y="740.7998">19</text><text fill="#000000" font-family="sans-serif" font-size="13" lengthAdjust="spacing" textLength="171" x="102.5" y="740.7998">types the available equipment</text><line style="stroke:#000000;stroke-width:1.0;stroke-dasharray:2.0,2.0;" x1="10" x2="581.5" y1="755.0625" y2="755.0625"/><text fill="#000000" font-family="sans-serif" font-size="11" font-weight="bold" lengthAdjust="spacing" textLength="140" x="15" y="766.9326">[The property is a house]</text><polygon fill="#181818" points="88.5,789.9844,78.5,793.9844,88.5,797.9844,84.5,793.9844" style="stroke:#181818;stroke-width:1.0;"/><line style="stroke:#181818;stroke-width:1.0;" x1="82.5" x2="538.5" y1="793.9844" y2="793.9844"/><text fill="#000000" font-family="sans-serif" font-size="13" font-weight="bold" lengthAdjust="spacing" textLength="14" x="94.5" y="788.7217">20</text><text fill="#000000" font-family="sans-serif" font-size="13" lengthAdjust="spacing" textLength="194" x="112.5" y="788.7217">requests the number of bedrooms</text><polygon fill="#181818" points="522.5,821.2754,532.5,825.2754,522.5,829.2754,526.5,825.2754" style="stroke:#181818;stroke-width:1.0;"/><line style="stroke:#181818;stroke-width:1.0;" x1="77.5" x2="528.5" y1="825.2754" y2="825.2754"/><text fill="#000000" font-family="sans-serif" font-size="13" font-weight="bold" lengthAdjust="spacing" textLength="14" x="84.5" y="820.0127">21</text><text fill="#000000" font-family="sans-serif" font-size="13" lengthAdjust="spacing" textLength="176" x="102.5" y="820.0127">types the number of bedrooms</text><polygon fill="#181818" points="88.5,852.5664,78.5,856.5664,88.5,860.5664,84.5,856.5664" style="stroke:#181818;stroke-width:1.0;"/><line style="stroke:#181818;stroke-width:1.0;" x1="82.5" x2="538.5" y1="856.5664" y2="856.5664"/><text fill="#000000" font-family="sans-serif" font-size="13" font-weight="bold" lengthAdjust="spacing" textLength="14" x="94.5" y="851.3037">22</text><text fill="#000000" font-family="sans-serif" font-size="13" lengthAdjust="spacing" textLength="198" x="112.5" y="851.3037">requests the number of bathrooms</text><polygon fill="#181818" points="522.5,883.8574,532.5,887.8574,522.5,891.8574,526.5,887.8574" style="stroke:#181818;stroke-width:1.0;"/><line style="stroke:#181818;stroke-width:1.0;" x1="77.5" x2="528.5" y1="887.8574" y2="887.8574"/><text fill="#000000" font-family="sans-serif" font-size="13" font-weight="bold" lengthAdjust="spacing" textLength="14" x="84.5" y="882.5947">23</text><text fill="#000000" font-family="sans-serif" font-size="13" lengthAdjust="spacing" textLength="180" x="102.5" y="882.5947">types the number of bathrooms</text><polygon fill="#181818" points="88.5,932.4395,78.5,936.4395,88.5,940.4395,84.5,936.4395" style="stroke:#181818;stroke-width:1.0;"/><line style="stroke:#181818;stroke-width:1.0;" x1="82.5" x2="538.5" y1="936.4395" y2="936.4395"/><text fill="#000000" font-family="sans-serif" font-size="13" font-weight="bold" lengthAdjust="spacing" textLength="14" x="94.5" y="922.5313">24</text><text fill="#000000" font-family="sans-serif" font-size="13" lengthAdjust="spacing" textLength="353" x="112.5" y="913.8857">requests the number of parkings spaces, available equipment</text><text fill="#000000" font-family="sans-serif" font-size="13" lengthAdjust="spacing" textLength="222" x="112.5" y="931.1768">(ex: centre heating or air conditioning))</text><polygon fill="#181818" points="522.5,963.7305,532.5,967.7305,522.5,971.7305,526.5,967.7305" style="stroke:#181818;stroke-width:1.0;"/><line style="stroke:#181818;stroke-width:1.0;" x1="77.5" x2="528.5" y1="967.7305" y2="967.7305"/><text fill="#000000" font-family="sans-serif" font-size="13" font-weight="bold" lengthAdjust="spacing" textLength="14" x="84.5" y="962.4678">25</text><text fill="#000000" font-family="sans-serif" font-size="13" lengthAdjust="spacing" textLength="214" x="102.5" y="962.4678">types the number of parkings spaces</text><polygon fill="#181818" points="88.5,995.0215,78.5,999.0215,88.5,1003.0215,84.5,999.0215" style="stroke:#181818;stroke-width:1.0;"/><line style="stroke:#181818;stroke-width:1.0;" x1="82.5" x2="538.5" y1="999.0215" y2="999.0215"/><text fill="#000000" font-family="sans-serif" font-size="13" font-weight="bold" lengthAdjust="spacing" textLength="14" x="94.5" y="993.7588">26</text><text fill="#000000" font-family="sans-serif" font-size="13" lengthAdjust="spacing" textLength="415" x="112.5" y="993.7588">requests the available equipment (ex: centre heating or air conditioning))</text><polygon fill="#181818" points="522.5,1026.3125,532.5,1030.3125,522.5,1034.3125,526.5,1030.3125" style="stroke:#181818;stroke-width:1.0;"/><line style="stroke:#181818;stroke-width:1.0;" x1="77.5" x2="528.5" y1="1030.3125" y2="1030.3125"/><text fill="#000000" font-family="sans-serif" font-size="13" font-weight="bold" lengthAdjust="spacing" textLength="14" x="84.5" y="1025.0498">27</text><text fill="#000000" font-family="sans-serif" font-size="13" lengthAdjust="spacing" textLength="171" x="102.5" y="1025.0498">types the available equipment</text><polygon fill="#181818" points="88.5,1057.6035,78.5,1061.6035,88.5,1065.6035,84.5,1061.6035" style="stroke:#181818;stroke-width:1.0;"/><line style="stroke:#181818;stroke-width:1.0;" x1="82.5" x2="538.5" y1="1061.6035" y2="1061.6035"/><text fill="#000000" font-family="sans-serif" font-size="13" font-weight="bold" lengthAdjust="spacing" textLength="14" x="94.5" y="1056.3408">28</text><text fill="#000000" font-family="sans-serif" font-size="13" lengthAdjust="spacing" textLength="210" x="112.5" y="1056.3408">checks the existence of a basement</text><polygon fill="#181818" points="522.5,1088.8945,532.5,1092.8945,522.5,1096.8945,526.5,1092.8945" style="stroke:#181818;stroke-width:1.0;"/><line style="stroke:#181818;stroke-width:1.0;" x1="77.5" x2="528.5" y1="1092.8945" y2="1092.8945"/><text fill="#000000" font-family="sans-serif" font-size="13" font-weight="bold" lengthAdjust="spacing" textLength="14" x="84.5" y="1087.6318">29</text><text fill="#000000" font-family="sans-serif" font-size="13" lengthAdjust="spacing" textLength="217" x="102.5" y="1087.6318">confirms the existence of a basement</text><polygon fill="#181818" points="88.5,1120.1855,78.5,1124.1855,88.5,1128.1855,84.5,1124.1855" style="stroke:#181818;stroke-width:1.0;"/><line style="stroke:#181818;stroke-width:1.0;" x1="82.5" x2="538.5" y1="1124.1855" y2="1124.1855"/><text fill="#000000" font-family="sans-serif" font-size="13" font-weight="bold" lengthAdjust="spacing" textLength="14" x="94.5" y="1118.9229">30</text><text fill="#000000" font-family="sans-serif" font-size="13" lengthAdjust="spacing" textLength="243" x="112.5" y="1118.9229">checks the existence of an inhabitable loft</text><polygon fill="#181818" points="522.5,1151.4766,532.5,1155.4766,522.5,1159.4766,526.5,1155.4766" style="stroke:#181818;stroke-width:1.0;"/><line style="stroke:#181818;stroke-width:1.0;" x1="77.5" x2="528.5" y1="1155.4766" y2="1155.4766"/><text fill="#000000" font-family="sans-serif" font-size="13" font-weight="bold" lengthAdjust="spacing" textLength="14" x="84.5" y="1150.2139">31</text><text fill="#000000" font-family="sans-serif" font-size="13" lengthAdjust="spacing" textLength="250" x="102.5" y="1150.2139">confirms the existence of an inhabitable loft</text><polygon fill="#181818" points="88.5,1182.7676,78.5,1186.7676,88.5,1190.7676,84.5,1186.7676" style="stroke:#181818;stroke-width:1.0;"/><line style="stroke:#181818;stroke-width:1.0;" x1="82.5" x2="538.5" y1="1186.7676" y2="1186.7676"/><text fill="#000000" font-family="sans-serif" font-size="13" font-weight="bold" lengthAdjust="spacing" textLength="14" x="94.5" y="1181.5049">32</text><text fill="#000000" font-family="sans-serif" font-size="13" lengthAdjust="spacing" textLength="220" x="112.5" y="1181.5049">checks if the house has sun exposure</text><polygon fill="#181818" points="522.5,1214.0586,532.5,1218.0586,522.5,1222.0586,526.5,1218.0586" style="stroke:#181818;stroke-width:1.0;"/><line style="stroke:#181818;stroke-width:1.0;" x1="77.5" x2="528.5" y1="1218.0586" y2="1218.0586"/><text fill="#000000" font-family="sans-serif" font-size="13" font-weight="bold" lengthAdjust="spacing" textLength="14" x="84.5" y="1212.7959">33</text><text fill="#000000" font-family="sans-serif" font-size="13" lengthAdjust="spacing" textLength="243" x="102.5" y="1212.7959">confirms that the house has sun exposure</text><polygon fill="#181818" points="88.5,1252.3496,78.5,1256.3496,88.5,1260.3496,84.5,1256.3496" style="stroke:#181818;stroke-width:1.0;"/><line style="stroke:#181818;stroke-width:1.0;" x1="82.5" x2="538.5" y1="1256.3496" y2="1256.3496"/><text fill="#000000" font-family="sans-serif" font-size="13" font-weight="bold" lengthAdjust="spacing" textLength="14" x="94.5" y="1251.0869">34</text><text fill="#000000" font-family="sans-serif" font-size="13" lengthAdjust="spacing" textLength="191" x="112.5" y="1251.0869">requests the price of the property</text><polygon fill="#181818" points="522.5,1283.6406,532.5,1287.6406,522.5,1291.6406,526.5,1287.6406" style="stroke:#181818;stroke-width:1.0;"/><line style="stroke:#181818;stroke-width:1.0;" x1="77.5" x2="528.5" y1="1287.6406" y2="1287.6406"/><text fill="#000000" font-family="sans-serif" font-size="13" font-weight="bold" lengthAdjust="spacing" textLength="14" x="84.5" y="1282.3779">35</text><text fill="#000000" font-family="sans-serif" font-size="13" lengthAdjust="spacing" textLength="173" x="102.5" y="1282.3779">types the price of the property</text><polygon fill="#181818" points="88.5,1314.9316,78.5,1318.9316,88.5,1322.9316,84.5,1318.9316" style="stroke:#181818;stroke-width:1.0;"/><line style="stroke:#181818;stroke-width:1.0;" x1="82.5" x2="538.5" y1="1318.9316" y2="1318.9316"/><text fill="#000000" font-family="sans-serif" font-size="13" font-weight="bold" lengthAdjust="spacing" textLength="14" x="94.5" y="1313.6689">36</text><text fill="#000000" font-family="sans-serif" font-size="13" lengthAdjust="spacing" textLength="304" x="112.5" y="1313.6689">requests the Owner wants to rent or sell the property</text><polygon fill="#181818" points="522.5,1346.2227,532.5,1350.2227,522.5,1354.2227,526.5,1350.2227" style="stroke:#181818;stroke-width:1.0;"/><line style="stroke:#181818;stroke-width:1.0;" x1="77.5" x2="528.5" y1="1350.2227" y2="1350.2227"/><text fill="#000000" font-family="sans-serif" font-size="13" font-weight="bold" lengthAdjust="spacing" textLength="14" x="84.5" y="1344.96">37</text><text fill="#000000" font-family="sans-serif" font-size="13" lengthAdjust="spacing" textLength="240" x="102.5" y="1344.96">inserts if wants to rent or sell the property</text><polygon fill="#181818" points="88.5,1377.5137,78.5,1381.5137,88.5,1385.5137,84.5,1381.5137" style="stroke:#181818;stroke-width:1.0;"/><line style="stroke:#181818;stroke-width:1.0;" x1="82.5" x2="538.5" y1="1381.5137" y2="1381.5137"/><text fill="#000000" font-family="sans-serif" font-size="13" font-weight="bold" lengthAdjust="spacing" textLength="14" x="94.5" y="1376.251">38</text><text fill="#000000" font-family="sans-serif" font-size="13" lengthAdjust="spacing" textLength="178" x="112.5" y="1376.251">requests the responsible agent</text><polygon fill="#181818" points="522.5,1408.8047,532.5,1412.8047,522.5,1416.8047,526.5,1412.8047" style="stroke:#181818;stroke-width:1.0;"/><line style="stroke:#181818;stroke-width:1.0;" x1="77.5" x2="528.5" y1="1412.8047" y2="1412.8047"/><text fill="#000000" font-family="sans-serif" font-size="13" font-weight="bold" lengthAdjust="spacing" textLength="14" x="84.5" y="1407.542">39</text><text fill="#000000" font-family="sans-serif" font-size="13" lengthAdjust="spacing" textLength="170" x="102.5" y="1407.542">selects the responsible agent</text><polygon fill="#181818" points="88.5,1440.0957,78.5,1444.0957,88.5,1448.0957,84.5,1444.0957" style="stroke:#181818;stroke-width:1.0;"/><line style="stroke:#181818;stroke-width:1.0;" x1="82.5" x2="538.5" y1="1444.0957" y2="1444.0957"/><text fill="#000000" font-family="sans-serif" font-size="13" font-weight="bold" lengthAdjust="spacing" textLength="14" x="94.5" y="1438.833">40</text><text fill="#000000" font-family="sans-serif" font-size="13" lengthAdjust="spacing" textLength="219" x="112.5" y="1438.833">shows the data and asks confirmation</text><polygon fill="#181818" points="522.5,1471.3867,532.5,1475.3867,522.5,1479.3867,526.5,1475.3867" style="stroke:#181818;stroke-width:1.0;"/><line style="stroke:#181818;stroke-width:1.0;" x1="77.5" x2="528.5" y1="1475.3867" y2="1475.3867"/><text fill="#000000" font-family="sans-serif" font-size="13" font-weight="bold" lengthAdjust="spacing" textLength="14" x="84.5" y="1470.124">41</text><text fill="#000000" font-family="sans-serif" font-size="13" lengthAdjust="spacing" textLength="78" x="102.5" y="1470.124">confirms data</text><polygon fill="#181818" points="88.5,1502.6777,78.5,1506.6777,88.5,1510.6777,84.5,1506.6777" style="stroke:#181818;stroke-width:1.0;"/><line style="stroke:#181818;stroke-width:1.0;" x1="82.5" x2="538.5" y1="1506.6777" y2="1506.6777"/><text fill="#000000" font-family="sans-serif" font-size="13" font-weight="bold" lengthAdjust="spacing" textLength="14" x="94.5" y="1501.415">42</text><text fill="#000000" font-family="sans-serif" font-size="13" lengthAdjust="spacing" textLength="152" x="112.5" y="1501.415">informs operation success</text><!--SRC=[xPTDRzim38Rl_XL4JWsm0CEmamyzzRu1tcwxC38J2xKbJPARvj-FifsaIVsTfCE0-IJRoSEND2cHNlgSu6Vo-Iki8DaxJmKazBia9GYU96uj5l2G94_BACBIQrKMQxAy5bvRM7otsf3rU_YsKsGNWAvUHGQjbq8QL1uMSGskNjVB2Y1Vq5Fp-mZugfQmUZm8YS5vvZZ8fVDIRG51qGvCOxJwpv7JWA6v6WJ3QceCDhZbcEOp0hyt17fppagfYtQXZ8LHJgAFrKQgbmT9yPaWj8GW5HHVnaXPFHw41EEjXFx074MSXoNN0htKAhWJxgU4vqrqJg9wWRCaffmB6BAp8GfItj9iWJsuoVAqOeo5GbjsDDDUS_MOp4tK9fKZEq3hOc7kuSURC8DqW0emb6F1dXr_s54c5x6kgps4PasfrRfmPu1kduRZFe0U0e_MZJwxc_1MTXzvh6h-NC-ytpbm1WNTGtkVXUjYZoyeSrppgS9FfNcNTTVe7s9taIbtzBuk8DEbe_ybyLTBuego-DIM3_1BFT1htEpZa15MdGDlf2Wj2ArI6SuZVhPS_kjr1H_lwTmAxFHHP2IUQpQzybbCpLcCd4kERh1xS20sqXRZJTpE1SLdUOPhwQk0vNfpHry6RCrrIjPTKRLJGiRzkoiLMpRQbPPkvmtwiMOkZPpsU9L6uoh9M7dgzwxkSBjfizhRUjBOyTp4zvhVSPbpIVEyaK_M2orT9N_GaV1PyYqvevMJ8GbnUoYjcODLEsoiBfVfNTFZeqUka9JdJqxf9ksgiMJQh7LCs02SCds6y6zq-6U8RpqGkLBm0T4r74JH7m00]--></g></svg>