<?xml version="1.0" encoding="us-ascii" standalone="no"?><svg xmlns="http://www.w3.org/2000/svg" xmlns:xlink="http://www.w3.org/1999/xlink" contentStyleType="text/css" height="1380px" preserveAspectRatio="none" style="width:2660px;height:1380px;background:#FFFFFF;" version="1.1" viewBox="0 0 2660 1380" width="2660px" zoomAndPan="magnify"><defs/><g><rect fill="#FFFFFF" height="1198.7773" style="stroke:#181818;stroke-width:1.0;" width="10" x="38.5" y="91.4883"/><rect fill="#FFFFFF" height="1177.4668" style="stroke:#181818;stroke-width:1.0;" width="10" x="528.5" y="112.7988"/><rect fill="#FFFFFF" height="1148.1563" style="stroke:#181818;stroke-width:1.0;" width="10" x="983.5" y="142.1094"/><rect fill="#FFFFFF" height="29.3105" style="stroke:#181818;stroke-width:1.0;" width="10" x="1314.5" y="431.9043"/><rect fill="#FFFFFF" height="29.3105" style="stroke:#181818;stroke-width:1.0;" width="10" x="1314.5" y="490.5254"/><rect fill="#FFFFFF" height="29.3105" style="stroke:#181818;stroke-width:1.0;" width="10" x="1471" y="549.1465"/><rect fill="#FFFFFF" height="29.3105" style="stroke:#181818;stroke-width:1.0;" width="10" x="1650" y="213.7305"/><rect fill="#FFFFFF" height="29.3105" style="stroke:#181818;stroke-width:1.0;" width="10" x="1808" y="272.3516"/><rect fill="#FFFFFF" height="29.3105" style="stroke:#181818;stroke-width:1.0;" width="10" x="1950" y="330.9727"/><rect fill="none" height="454.3242" style="stroke:#000000;stroke-width:1.5;" width="2643" x="10" y="827.9414"/><line style="stroke:#181818;stroke-width:0.5;stroke-dasharray:5.0,5.0;" x1="43" x2="43" y1="81.4883" y2="1299.2656"/><line style="stroke:#181818;stroke-width:0.5;stroke-dasharray:5.0,5.0;" x1="533" x2="533" y1="81.4883" y2="1299.2656"/><line style="stroke:#181818;stroke-width:0.5;stroke-dasharray:5.0,5.0;" x1="988" x2="988" y1="81.4883" y2="1299.2656"/><line style="stroke:#181818;stroke-width:0.5;stroke-dasharray:5.0,5.0;" x1="1319" x2="1319" y1="81.4883" y2="1299.2656"/><line style="stroke:#181818;stroke-width:0.5;stroke-dasharray:5.0,5.0;" x1="1476" x2="1476" y1="81.4883" y2="1299.2656"/><line style="stroke:#181818;stroke-width:0.5;stroke-dasharray:5.0,5.0;" x1="1655" x2="1655" y1="81.4883" y2="1299.2656"/><line style="stroke:#181818;stroke-width:0.5;stroke-dasharray:5.0,5.0;" x1="1813" x2="1813" y1="81.4883" y2="1299.2656"/><line style="stroke:#181818;stroke-width:0.5;stroke-dasharray:5.0,5.0;" x1="1955" x2="1955" y1="81.4883" y2="1299.2656"/><line style="stroke:#181818;stroke-width:0.5;stroke-dasharray:5.0,5.0;" x1="2082" x2="2082" y1="957.8164" y2="1299.2656"/><line style="stroke:#181818;stroke-width:0.5;stroke-dasharray:5.0,5.0;" x1="2526.5" x2="2526.5" y1="1045.1035" y2="1299.2656"/><line style="stroke:#181818;stroke-width:0.5;stroke-dasharray:5.0,5.0;" x1="2620" x2="2620" y1="81.4883" y2="1299.2656"/><text fill="#000000" font-family="sans-serif" font-size="14" lengthAdjust="spacing" textLength="41" x="20" y="78.5352">Agent</text><ellipse cx="43.5" cy="13.5" fill="#E3E3E3" rx="8" ry="8" style="stroke:#181818;stroke-width:0.5;"/><path d="M43.5,21.5 L43.5,48.5 M30.5,29.5 L56.5,29.5 M43.5,48.5 L30.5,63.5 M43.5,48.5 L56.5,63.5 " fill="none" style="stroke:#181818;stroke-width:0.5;"/><text fill="#000000" font-family="sans-serif" font-size="14" lengthAdjust="spacing" textLength="41" x="20" y="1311.8008">Agent</text><ellipse cx="43.5" cy="1323.2539" fill="#E3E3E3" rx="8" ry="8" style="stroke:#181818;stroke-width:0.5;"/><path d="M43.5,1331.2539 L43.5,1358.2539 M30.5,1339.2539 L56.5,1339.2539 M43.5,1358.2539 L30.5,1373.2539 M43.5,1358.2539 L56.5,1373.2539 " fill="none" style="stroke:#181818;stroke-width:0.5;"/><rect fill="#E3E3E3" height="30.4883" rx="2.5" ry="2.5" style="stroke:#181818;stroke-width:0.5;" width="117" x="475" y="50"/><text fill="#000000" font-family="sans-serif" font-size="14" lengthAdjust="spacing" textLength="103" x="482" y="70.5352">:RegisterVisitUI</text><rect fill="#E3E3E3" height="30.4883" rx="2.5" ry="2.5" style="stroke:#181818;stroke-width:0.5;" width="117" x="475" y="1298.2656"/><text fill="#000000" font-family="sans-serif" font-size="14" lengthAdjust="spacing" textLength="103" x="482" y="1318.8008">:RegisterVisitUI</text><rect fill="#E3E3E3" height="30.4883" rx="2.5" ry="2.5" style="stroke:#181818;stroke-width:0.5;" width="173" x="902" y="50"/><text fill="#000000" font-family="sans-serif" font-size="14" lengthAdjust="spacing" textLength="159" x="909" y="70.5352">:RegisterVisitController</text><rect fill="#E3E3E3" height="30.4883" rx="2.5" ry="2.5" style="stroke:#181818;stroke-width:0.5;" width="173" x="902" y="1298.2656"/><text fill="#000000" font-family="sans-serif" font-size="14" lengthAdjust="spacing" textLength="159" x="909" y="1318.8008">:RegisterVisitController</text><rect fill="#E3E3E3" height="46.9766" rx="2.5" ry="2.5" style="stroke:#181818;stroke-width:0.5;" width="103" x="1268" y="33.5117"/><text fill="#000000" font-family="sans-serif" font-size="14" lengthAdjust="spacing" textLength="82" x="1278.5" y="54.0469">repositories</text><text fill="#000000" font-family="sans-serif" font-size="14" lengthAdjust="spacing" textLength="89" x="1275" y="70.5352">:Repositories</text><rect fill="#E3E3E3" height="46.9766" rx="2.5" ry="2.5" style="stroke:#181818;stroke-width:0.5;" width="103" x="1268" y="1298.2656"/><text fill="#000000" font-family="sans-serif" font-size="14" lengthAdjust="spacing" textLength="82" x="1278.5" y="1318.8008">repositories</text><text fill="#000000" font-family="sans-serif" font-size="14" lengthAdjust="spacing" textLength="89" x="1275" y="1335.2891">:Repositories</text><rect fill="#E3E3E3" height="46.9766" rx="2.5" ry="2.5" style="stroke:#181818;stroke-width:0.5;" width="190" x="1381" y="33.5117"/><text fill="#000000" font-family="sans-serif" font-size="14" lengthAdjust="spacing" textLength="176" x="1388" y="54.0469">scheduledVisitRepository:</text><text fill="#000000" font-family="sans-serif" font-size="14" lengthAdjust="spacing" textLength="173" x="1389.5" y="70.5352">ScheduledVisitRepository</text><rect fill="#E3E3E3" height="46.9766" rx="2.5" ry="2.5" style="stroke:#181818;stroke-width:0.5;" width="190" x="1381" y="1298.2656"/><text fill="#000000" font-family="sans-serif" font-size="14" lengthAdjust="spacing" textLength="176" x="1388" y="1318.8008">scheduledVisitRepository:</text><text fill="#000000" font-family="sans-serif" font-size="14" lengthAdjust="spacing" textLength="173" x="1389.5" y="1335.2891">ScheduledVisitRepository</text><rect fill="#E3E3E3" height="30.4883" rx="2.5" ry="2.5" style="stroke:#181818;stroke-width:0.5;" width="148" x="1581" y="50"/><text fill="#000000" font-family="sans-serif" font-size="14" lengthAdjust="spacing" textLength="134" x="1588" y="70.5352">:ApplicationSession</text><rect fill="#E3E3E3" height="30.4883" rx="2.5" ry="2.5" style="stroke:#181818;stroke-width:0.5;" width="148" x="1581" y="1298.2656"/><text fill="#000000" font-family="sans-serif" font-size="14" lengthAdjust="spacing" textLength="134" x="1588" y="1318.8008">:ApplicationSession</text><rect fill="#E3E3E3" height="46.9766" rx="2.5" ry="2.5" style="stroke:#181818;stroke-width:0.5;" width="148" x="1739" y="33.5117"/><text fill="#000000" font-family="sans-serif" font-size="14" lengthAdjust="spacing" textLength="78" x="1774" y="54.0469">appSession</text><text fill="#000000" font-family="sans-serif" font-size="14" lengthAdjust="spacing" textLength="134" x="1746" y="70.5352">:ApplicationSession</text><rect fill="#E3E3E3" height="46.9766" rx="2.5" ry="2.5" style="stroke:#181818;stroke-width:0.5;" width="148" x="1739" y="1298.2656"/><text fill="#000000" font-family="sans-serif" font-size="14" lengthAdjust="spacing" textLength="78" x="1774" y="1318.8008">appSession</text><text fill="#000000" font-family="sans-serif" font-size="14" lengthAdjust="spacing" textLength="134" x="1746" y="1335.2891">:ApplicationSession</text><rect fill="#E3E3E3" height="46.9766" rx="2.5" ry="2.5" style="stroke:#181818;stroke-width:0.5;" width="116" x="1897" y="33.5117"/><text fill="#000000" font-family="sans-serif" font-size="14" lengthAdjust="spacing" textLength="102" x="1904" y="54.0469">currentSession</text><text fill="#000000" font-family="sans-serif" font-size="14" lengthAdjust="spacing" textLength="87" x="1911.5" y="70.5352">:UserSession</text><rect fill="#E3E3E3" height="46.9766" rx="2.5" ry="2.5" style="stroke:#181818;stroke-width:0.5;" width="116" x="1897" y="1298.2656"/><text fill="#000000" font-family="sans-serif" font-size="14" lengthAdjust="spacing" textLength="102" x="1904" y="1318.8008">currentSession</text><text fill="#000000" font-family="sans-serif" font-size="14" lengthAdjust="spacing" textLength="87" x="1911.5" y="1335.2891">:UserSession</text><rect fill="#E3E3E3" height="46.9766" rx="2.5" ry="2.5" style="stroke:#181818;stroke-width:0.5;" width="118" x="2023" y="1298.2656"/><text fill="#000000" font-family="sans-serif" font-size="14" lengthAdjust="spacing" textLength="104" x="2030" y="1318.8008">visitRepository:</text><text fill="#000000" font-family="sans-serif" font-size="14" lengthAdjust="spacing" textLength="102" x="2031" y="1335.2891">VisitRepository</text><rect fill="#E3E3E3" height="46.9766" rx="2.5" ry="2.5" style="stroke:#181818;stroke-width:0.5;" width="45" x="2504.5" y="1298.2656"/><text fill="#000000" font-family="sans-serif" font-size="14" lengthAdjust="spacing" textLength="31" x="2511.5" y="1318.8008">visit:</text><text fill="#000000" font-family="sans-serif" font-size="14" lengthAdjust="spacing" textLength="29" x="2512.5" y="1335.2891">Visit</text><rect fill="#E3E3E3" height="30.4883" rx="2.5" ry="2.5" style="stroke:#181818;stroke-width:0.5;" width="46" x="2597" y="50"/><text fill="#000000" font-family="sans-serif" font-size="14" lengthAdjust="spacing" textLength="32" x="2604" y="70.5352">CTRl</text><rect fill="#E3E3E3" height="30.4883" rx="2.5" ry="2.5" style="stroke:#181818;stroke-width:0.5;" width="46" x="2597" y="1298.2656"/><text fill="#000000" font-family="sans-serif" font-size="14" lengthAdjust="spacing" textLength="32" x="2604" y="1318.8008">CTRl</text><rect fill="#FFFFFF" height="1198.7773" style="stroke:#181818;stroke-width:1.0;" width="10" x="38.5" y="91.4883"/><rect fill="#FFFFFF" height="1177.4668" style="stroke:#181818;stroke-width:1.0;" width="10" x="528.5" y="112.7988"/><rect fill="#FFFFFF" height="1148.1563" style="stroke:#181818;stroke-width:1.0;" width="10" x="983.5" y="142.1094"/><rect fill="#FFFFFF" height="29.3105" style="stroke:#181818;stroke-width:1.0;" width="10" x="1314.5" y="431.9043"/><rect fill="#FFFFFF" height="29.3105" style="stroke:#181818;stroke-width:1.0;" width="10" x="1314.5" y="490.5254"/><rect fill="#FFFFFF" height="29.3105" style="stroke:#181818;stroke-width:1.0;" width="10" x="1471" y="549.1465"/><rect fill="#FFFFFF" height="29.3105" style="stroke:#181818;stroke-width:1.0;" width="10" x="1650" y="213.7305"/><rect fill="#FFFFFF" height="29.3105" style="stroke:#181818;stroke-width:1.0;" width="10" x="1808" y="272.3516"/><rect fill="#FFFFFF" height="29.3105" style="stroke:#181818;stroke-width:1.0;" width="10" x="1950" y="330.9727"/><polygon fill="#181818" points="516.5,108.7988,526.5,112.7988,516.5,116.7988,520.5,112.7988" style="stroke:#181818;stroke-width:1.0;"/><line style="stroke:#181818;stroke-width:1.0;" x1="48.5" x2="522.5" y1="112.7988" y2="112.7988"/><text fill="#000000" font-family="sans-serif" font-size="13" font-weight="bold" lengthAdjust="spacing" textLength="9" x="55.5" y="108.0566">1</text><text fill="#000000" font-family="sans-serif" font-size="13" lengthAdjust="spacing" textLength="140" x="68.5" y="108.0566">asks to register a visit</text><polygon fill="#181818" points="971.5,138.1094,981.5,142.1094,971.5,146.1094,975.5,142.1094" style="stroke:#181818;stroke-width:1.0;"/><line style="stroke:#181818;stroke-width:1.0;" x1="538.5" x2="977.5" y1="142.1094" y2="142.1094"/><text fill="#000000" font-family="sans-serif" font-size="13" font-weight="bold" lengthAdjust="spacing" textLength="9" x="545.5" y="137.3672">2</text><text fill="#000000" font-family="sans-serif" font-size="13" lengthAdjust="spacing" textLength="127" x="558.5" y="137.3672">getScheduledVisits()</text><line style="stroke:#181818;stroke-width:1.0;" x1="993.5" x2="1035.5" y1="171.4199" y2="171.4199"/><line style="stroke:#181818;stroke-width:1.0;" x1="1035.5" x2="1035.5" y1="171.4199" y2="184.4199"/><line style="stroke:#181818;stroke-width:1.0;" x1="994.5" x2="1035.5" y1="184.4199" y2="184.4199"/><polygon fill="#181818" points="1004.5,180.4199,994.5,184.4199,1004.5,188.4199,1000.5,184.4199" style="stroke:#181818;stroke-width:1.0;"/><text fill="#000000" font-family="sans-serif" font-size="13" font-weight="bold" lengthAdjust="spacing" textLength="9" x="1000.5" y="166.6777">3</text><text fill="#000000" font-family="sans-serif" font-size="13" lengthAdjust="spacing" textLength="168" x="1013.5" y="166.6777">getEmployeeFromSession()</text><polygon fill="#181818" points="1638,209.7305,1648,213.7305,1638,217.7305,1642,213.7305" style="stroke:#181818;stroke-width:1.0;"/><line style="stroke:#181818;stroke-width:1.0;" x1="993.5" x2="1644" y1="213.7305" y2="213.7305"/><text fill="#000000" font-family="sans-serif" font-size="13" font-weight="bold" lengthAdjust="spacing" textLength="9" x="1000.5" y="208.9883">4</text><text fill="#000000" font-family="sans-serif" font-size="13" lengthAdjust="spacing" textLength="81" x="1013.5" y="208.9883">getInstance()</text><polygon fill="#181818" points="1004.5,239.041,994.5,243.041,1004.5,247.041,1000.5,243.041" style="stroke:#181818;stroke-width:1.0;"/><line style="stroke:#181818;stroke-width:1.0;" x1="998.5" x2="1654" y1="243.041" y2="243.041"/><text fill="#000000" font-family="sans-serif" font-size="13" font-weight="bold" lengthAdjust="spacing" textLength="9" x="1010.5" y="238.2988">5</text><text fill="#000000" font-family="sans-serif" font-size="13" lengthAdjust="spacing" textLength="71" x="1023.5" y="238.2988">appSession</text><polygon fill="#181818" points="1796,268.3516,1806,272.3516,1796,276.3516,1800,272.3516" style="stroke:#181818;stroke-width:1.0;"/><line style="stroke:#181818;stroke-width:1.0;" x1="993.5" x2="1802" y1="272.3516" y2="272.3516"/><text fill="#000000" font-family="sans-serif" font-size="13" font-weight="bold" lengthAdjust="spacing" textLength="9" x="1000.5" y="267.6094">6</text><text fill="#000000" font-family="sans-serif" font-size="13" lengthAdjust="spacing" textLength="123" x="1013.5" y="267.6094">getCurrentSession()</text><polygon fill="#181818" points="1004.5,297.6621,994.5,301.6621,1004.5,305.6621,1000.5,301.6621" style="stroke:#181818;stroke-width:1.0;"/><line style="stroke:#181818;stroke-width:1.0;stroke-dasharray:2.0,2.0;" x1="998.5" x2="1812" y1="301.6621" y2="301.6621"/><text fill="#000000" font-family="sans-serif" font-size="13" font-weight="bold" lengthAdjust="spacing" textLength="9" x="1010.5" y="296.9199">7</text><text fill="#000000" font-family="sans-serif" font-size="13" lengthAdjust="spacing" textLength="93" x="1023.5" y="296.9199">currentSession</text><polygon fill="#181818" points="1938,326.9727,1948,330.9727,1938,334.9727,1942,330.9727" style="stroke:#181818;stroke-width:1.0;"/><line style="stroke:#181818;stroke-width:1.0;" x1="993.5" x2="1944" y1="330.9727" y2="330.9727"/><text fill="#000000" font-family="sans-serif" font-size="13" font-weight="bold" lengthAdjust="spacing" textLength="9" x="1000.5" y="326.2305">8</text><text fill="#000000" font-family="sans-serif" font-size="13" lengthAdjust="spacing" textLength="229" x="1013.5" y="326.2305">agentName = getUserNameByEmail()</text><polygon fill="#181818" points="1004.5,356.2832,994.5,360.2832,1004.5,364.2832,1000.5,360.2832" style="stroke:#181818;stroke-width:1.0;"/><line style="stroke:#181818;stroke-width:1.0;stroke-dasharray:2.0,2.0;" x1="998.5" x2="1954" y1="360.2832" y2="360.2832"/><text fill="#000000" font-family="sans-serif" font-size="13" font-weight="bold" lengthAdjust="spacing" textLength="9" x="1010.5" y="355.541">9</text><text fill="#000000" font-family="sans-serif" font-size="13" lengthAdjust="spacing" textLength="71" x="1023.5" y="355.541">agentName</text><line style="stroke:#181818;stroke-width:1.0;" x1="993.5" x2="1035.5" y1="389.5938" y2="389.5938"/><line style="stroke:#181818;stroke-width:1.0;" x1="1035.5" x2="1035.5" y1="389.5938" y2="402.5938"/><line style="stroke:#181818;stroke-width:1.0;" x1="994.5" x2="1035.5" y1="402.5938" y2="402.5938"/><polygon fill="#181818" points="1004.5,398.5938,994.5,402.5938,1004.5,406.5938,1000.5,402.5938" style="stroke:#181818;stroke-width:1.0;"/><text fill="#000000" font-family="sans-serif" font-size="13" font-weight="bold" lengthAdjust="spacing" textLength="18" x="1000.5" y="384.8516">10</text><text fill="#000000" font-family="sans-serif" font-size="13" lengthAdjust="spacing" textLength="285" x="1022.5" y="384.8516">getScheduledVisitsByAgentName(agentName)</text><polygon fill="#181818" points="1302.5,427.9043,1312.5,431.9043,1302.5,435.9043,1306.5,431.9043" style="stroke:#181818;stroke-width:1.0;"/><line style="stroke:#181818;stroke-width:1.0;" x1="993.5" x2="1308.5" y1="431.9043" y2="431.9043"/><text fill="#000000" font-family="sans-serif" font-size="13" font-weight="bold" lengthAdjust="spacing" textLength="18" x="1000.5" y="427.1621">11</text><text fill="#000000" font-family="sans-serif" font-size="13" lengthAdjust="spacing" textLength="81" x="1022.5" y="427.1621">getInstance()</text><polygon fill="#181818" points="1004.5,457.2148,994.5,461.2148,1004.5,465.2148,1000.5,461.2148" style="stroke:#181818;stroke-width:1.0;"/><line style="stroke:#181818;stroke-width:1.0;stroke-dasharray:2.0,2.0;" x1="998.5" x2="1318.5" y1="461.2148" y2="461.2148"/><text fill="#000000" font-family="sans-serif" font-size="13" font-weight="bold" lengthAdjust="spacing" textLength="18" x="1010.5" y="456.4727">12</text><text fill="#000000" font-family="sans-serif" font-size="13" lengthAdjust="spacing" textLength="75" x="1032.5" y="456.4727">repositories</text><polygon fill="#181818" points="1302.5,486.5254,1312.5,490.5254,1302.5,494.5254,1306.5,490.5254" style="stroke:#181818;stroke-width:1.0;"/><line style="stroke:#181818;stroke-width:1.0;" x1="993.5" x2="1308.5" y1="490.5254" y2="490.5254"/><text fill="#000000" font-family="sans-serif" font-size="13" font-weight="bold" lengthAdjust="spacing" textLength="18" x="1000.5" y="485.7832">13</text><text fill="#000000" font-family="sans-serif" font-size="13" lengthAdjust="spacing" textLength="187" x="1022.5" y="485.7832">getScheduledVisitRepository()</text><polygon fill="#181818" points="1004.5,515.8359,994.5,519.8359,1004.5,523.8359,1000.5,519.8359" style="stroke:#181818;stroke-width:1.0;"/><line style="stroke:#181818;stroke-width:1.0;" x1="998.5" x2="1318.5" y1="519.8359" y2="519.8359"/><text fill="#000000" font-family="sans-serif" font-size="13" font-weight="bold" lengthAdjust="spacing" textLength="18" x="1010.5" y="515.0938">14</text><text fill="#000000" font-family="sans-serif" font-size="13" lengthAdjust="spacing" textLength="159" x="1032.5" y="515.0938">ScheduledVisitRepository</text><polygon fill="#181818" points="1459,545.1465,1469,549.1465,1459,553.1465,1463,549.1465" style="stroke:#181818;stroke-width:1.0;"/><line style="stroke:#181818;stroke-width:1.0;" x1="993.5" x2="1465" y1="549.1465" y2="549.1465"/><text fill="#000000" font-family="sans-serif" font-size="13" font-weight="bold" lengthAdjust="spacing" textLength="18" x="1000.5" y="544.4043">15</text><text fill="#000000" font-family="sans-serif" font-size="13" lengthAdjust="spacing" textLength="285" x="1022.5" y="544.4043">getScheduledVisitsByAgentName(agentName)</text><polygon fill="#181818" points="1004.5,574.457,994.5,578.457,1004.5,582.457,1000.5,578.457" style="stroke:#181818;stroke-width:1.0;"/><line style="stroke:#181818;stroke-width:1.0;stroke-dasharray:2.0,2.0;" x1="998.5" x2="1475" y1="578.457" y2="578.457"/><text fill="#000000" font-family="sans-serif" font-size="13" font-weight="bold" lengthAdjust="spacing" textLength="18" x="1010.5" y="573.7148">16</text><text fill="#000000" font-family="sans-serif" font-size="13" lengthAdjust="spacing" textLength="122" x="1032.5" y="573.7148">ScheduledVisitsList</text><polygon fill="#181818" points="549.5,603.7676,539.5,607.7676,549.5,611.7676,545.5,607.7676" style="stroke:#181818;stroke-width:1.0;"/><line style="stroke:#181818;stroke-width:1.0;stroke-dasharray:2.0,2.0;" x1="543.5" x2="982.5" y1="607.7676" y2="607.7676"/><text fill="#000000" font-family="sans-serif" font-size="13" font-weight="bold" lengthAdjust="spacing" textLength="18" x="555.5" y="603.0254">17</text><text fill="#000000" font-family="sans-serif" font-size="13" lengthAdjust="spacing" textLength="122" x="577.5" y="603.0254">ScheduledVisitsList</text><polygon fill="#181818" points="59.5,633.0781,49.5,637.0781,59.5,641.0781,55.5,637.0781" style="stroke:#181818;stroke-width:1.0;"/><line style="stroke:#181818;stroke-width:1.0;stroke-dasharray:2.0,2.0;" x1="53.5" x2="527.5" y1="637.0781" y2="637.0781"/><text fill="#000000" font-family="sans-serif" font-size="13" font-weight="bold" lengthAdjust="spacing" textLength="18" x="65.5" y="632.3359">18</text><text fill="#000000" font-family="sans-serif" font-size="13" lengthAdjust="spacing" textLength="204" x="87.5" y="632.3359">show the list of scheduled visits</text><polygon fill="#181818" points="516.5,662.3887,526.5,666.3887,516.5,670.3887,520.5,666.3887" style="stroke:#181818;stroke-width:1.0;"/><line style="stroke:#181818;stroke-width:1.0;" x1="48.5" x2="522.5" y1="666.3887" y2="666.3887"/><text fill="#000000" font-family="sans-serif" font-size="13" font-weight="bold" lengthAdjust="spacing" textLength="18" x="55.5" y="661.6465">19</text><text fill="#000000" font-family="sans-serif" font-size="13" lengthAdjust="spacing" textLength="229" x="77.5" y="661.6465">select the scheduled visit to register</text><polygon fill="#181818" points="59.5,691.6992,49.5,695.6992,59.5,699.6992,55.5,695.6992" style="stroke:#181818;stroke-width:1.0;"/><line style="stroke:#181818;stroke-width:1.0;stroke-dasharray:2.0,2.0;" x1="53.5" x2="527.5" y1="695.6992" y2="695.6992"/><text fill="#000000" font-family="sans-serif" font-size="13" font-weight="bold" lengthAdjust="spacing" textLength="18" x="65.5" y="690.957">20</text><text fill="#000000" font-family="sans-serif" font-size="13" lengthAdjust="spacing" textLength="434" x="87.5" y="690.957">show the scheduled visit and request the opinion about the business</text><polygon fill="#181818" points="516.5,721.0098,526.5,725.0098,516.5,729.0098,520.5,725.0098" style="stroke:#181818;stroke-width:1.0;"/><line style="stroke:#181818;stroke-width:1.0;" x1="48.5" x2="522.5" y1="725.0098" y2="725.0098"/><text fill="#000000" font-family="sans-serif" font-size="13" font-weight="bold" lengthAdjust="spacing" textLength="18" x="55.5" y="720.2676">21</text><text fill="#000000" font-family="sans-serif" font-size="13" lengthAdjust="spacing" textLength="227" x="77.5" y="720.2676">type the opinion about the business</text><polygon fill="#181818" points="59.5,750.3203,49.5,754.3203,59.5,758.3203,55.5,754.3203" style="stroke:#181818;stroke-width:1.0;"/><line style="stroke:#181818;stroke-width:1.0;stroke-dasharray:2.0,2.0;" x1="53.5" x2="527.5" y1="754.3203" y2="754.3203"/><text fill="#000000" font-family="sans-serif" font-size="13" font-weight="bold" lengthAdjust="spacing" textLength="18" x="65.5" y="749.5781">22</text><text fill="#000000" font-family="sans-serif" font-size="13" lengthAdjust="spacing" textLength="181" x="87.5" y="749.5781">show the classification scale</text><polygon fill="#181818" points="516.5,779.6309,526.5,783.6309,516.5,787.6309,520.5,783.6309" style="stroke:#181818;stroke-width:1.0;"/><line style="stroke:#181818;stroke-width:1.0;" x1="48.5" x2="522.5" y1="783.6309" y2="783.6309"/><text fill="#000000" font-family="sans-serif" font-size="13" font-weight="bold" lengthAdjust="spacing" textLength="18" x="55.5" y="778.8887">23</text><text fill="#000000" font-family="sans-serif" font-size="13" lengthAdjust="spacing" textLength="149" x="77.5" y="778.8887">select the classification</text><polygon fill="#181818" points="516.5,808.9414,526.5,812.9414,516.5,816.9414,520.5,812.9414" style="stroke:#181818;stroke-width:1.0;"/><line style="stroke:#181818;stroke-width:1.0;" x1="48.5" x2="522.5" y1="812.9414" y2="812.9414"/><text fill="#000000" font-family="sans-serif" font-size="13" font-weight="bold" lengthAdjust="spacing" textLength="18" x="55.5" y="808.1992">24</text><text fill="#000000" font-family="sans-serif" font-size="13" lengthAdjust="spacing" textLength="82" x="77.5" y="808.1992">Register visit</text><path d="M10,827.9414 L72,827.9414 L72,835.252 L62,845.252 L10,845.252 L10,827.9414 " fill="#EEEEEE" style="stroke:#000000;stroke-width:1.5;"/><rect fill="none" height="454.3242" style="stroke:#000000;stroke-width:1.5;" width="2643" x="10" y="827.9414"/><text fill="#000000" font-family="sans-serif" font-size="13" font-weight="bold" lengthAdjust="spacing" textLength="17" x="25" y="841.5098">alt</text><text fill="#000000" font-family="sans-serif" font-size="11" font-weight="bold" lengthAdjust="spacing" textLength="94" x="87" y="840.5762">[Duplicate Entry]</text><polygon fill="#181818" points="59.5,862.5625,49.5,866.5625,59.5,870.5625,55.5,866.5625" style="stroke:#181818;stroke-width:1.0;"/><line style="stroke:#181818;stroke-width:1.0;stroke-dasharray:2.0,2.0;" x1="53.5" x2="527.5" y1="866.5625" y2="866.5625"/><text fill="#000000" font-family="sans-serif" font-size="13" font-weight="bold" lengthAdjust="spacing" textLength="18" x="65.5" y="861.8203">25</text><text fill="#000000" font-family="sans-serif" font-size="13" lengthAdjust="spacing" textLength="219" x="87.5" y="861.8203">Error - Duplicate entry for the visit</text><line style="stroke:#000000;stroke-width:1.0;stroke-dasharray:2.0,2.0;" x1="10" x2="2653" y1="875.5625" y2="875.5625"/><text fill="#000000" font-family="sans-serif" font-size="11" font-weight="bold" lengthAdjust="spacing" textLength="70" x="15" y="886.1973">[Valid Entry]</text><polygon fill="#181818" points="971.5,906.8281,981.5,910.8281,971.5,914.8281,975.5,910.8281" style="stroke:#181818;stroke-width:1.0;"/><line style="stroke:#181818;stroke-width:1.0;" x1="538.5" x2="977.5" y1="910.8281" y2="910.8281"/><text fill="#000000" font-family="sans-serif" font-size="13" font-weight="bold" lengthAdjust="spacing" textLength="18" x="545.5" y="906.0859">26</text><text fill="#000000" font-family="sans-serif" font-size="13" lengthAdjust="spacing" textLength="399" x="567.5" y="906.0859">createVisit(scheduledVisit,opinionAboutBusiness,classification)</text><polygon fill="#181818" points="2152,936.1387,2142,940.1387,2152,944.1387,2148,940.1387" style="stroke:#181818;stroke-width:1.0;"/><line style="stroke:#181818;stroke-width:1.0;" x1="2146" x2="2619" y1="940.1387" y2="940.1387"/><text fill="#000000" font-family="sans-serif" font-size="13" font-weight="bold" lengthAdjust="spacing" textLength="18" x="2158" y="935.3965">27</text><text fill="#000000" font-family="sans-serif" font-size="13" lengthAdjust="spacing" textLength="38" x="2180" y="935.3965">create</text><rect fill="#E3E3E3" height="46.9766" rx="2.5" ry="2.5" style="stroke:#181818;stroke-width:0.5;" width="118" x="2023" y="918.8281"/><text fill="#000000" font-family="sans-serif" font-size="14" lengthAdjust="spacing" textLength="104" x="2030" y="939.3633">visitRepository:</text><text fill="#000000" font-family="sans-serif" font-size="14" lengthAdjust="spacing" textLength="102" x="2031" y="955.8516">VisitRepository</text><polygon fill="#181818" points="2070,994.1152,2080,998.1152,2070,1002.1152,2074,998.1152" style="stroke:#181818;stroke-width:1.0;"/><line style="stroke:#181818;stroke-width:1.0;" x1="993.5" x2="2076" y1="998.1152" y2="998.1152"/><text fill="#000000" font-family="sans-serif" font-size="13" font-weight="bold" lengthAdjust="spacing" textLength="18" x="1000.5" y="993.373">28</text><text fill="#000000" font-family="sans-serif" font-size="13" lengthAdjust="spacing" textLength="399" x="1022.5" y="993.373">createVisit(scheduledVisit,opinionAboutBusiness,classification)</text><polygon fill="#181818" points="2492.5,1023.4258,2502.5,1027.4258,2492.5,1031.4258,2496.5,1027.4258" style="stroke:#181818;stroke-width:1.0;"/><line style="stroke:#181818;stroke-width:1.0;" x1="2082" x2="2498.5" y1="1027.4258" y2="1027.4258"/><text fill="#000000" font-family="sans-serif" font-size="13" font-weight="bold" lengthAdjust="spacing" textLength="18" x="2089" y="1022.6836">29</text><text fill="#000000" font-family="sans-serif" font-size="13" lengthAdjust="spacing" textLength="38" x="2111" y="1022.6836">create</text><rect fill="#E3E3E3" height="46.9766" rx="2.5" ry="2.5" style="stroke:#181818;stroke-width:0.5;" width="45" x="2504.5" y="1006.1152"/><text fill="#000000" font-family="sans-serif" font-size="14" lengthAdjust="spacing" textLength="31" x="2511.5" y="1026.6504">visit:</text><text fill="#000000" font-family="sans-serif" font-size="14" lengthAdjust="spacing" textLength="29" x="2512.5" y="1043.1387">Visit</text><polygon fill="#181818" points="2515,1081.4023,2525,1085.4023,2515,1089.4023,2519,1085.4023" style="stroke:#181818;stroke-width:1.0;"/><line style="stroke:#181818;stroke-width:1.0;" x1="2082" x2="2521" y1="1085.4023" y2="1085.4023"/><text fill="#000000" font-family="sans-serif" font-size="13" font-weight="bold" lengthAdjust="spacing" textLength="18" x="2089" y="1080.6602">30</text><text fill="#000000" font-family="sans-serif" font-size="13" lengthAdjust="spacing" textLength="399" x="2111" y="1080.6602">createVisit(scheduledVisit,opinionAboutBusiness,classification)</text><line style="stroke:#181818;stroke-width:1.0;" x1="2527" x2="2569" y1="1114.7129" y2="1114.7129"/><line style="stroke:#181818;stroke-width:1.0;" x1="2569" x2="2569" y1="1114.7129" y2="1127.7129"/><line style="stroke:#181818;stroke-width:1.0;" x1="2528" x2="2569" y1="1127.7129" y2="1127.7129"/><polygon fill="#181818" points="2538,1123.7129,2528,1127.7129,2538,1131.7129,2534,1127.7129" style="stroke:#181818;stroke-width:1.0;"/><text fill="#000000" font-family="sans-serif" font-size="13" font-weight="bold" lengthAdjust="spacing" textLength="18" x="2534" y="1109.9707">31</text><text fill="#000000" font-family="sans-serif" font-size="13" lengthAdjust="spacing" textLength="57" x="2556" y="1109.9707">validate()</text><polygon fill="#181818" points="2093,1153.0234,2083,1157.0234,2093,1161.0234,2089,1157.0234" style="stroke:#181818;stroke-width:1.0;"/><line style="stroke:#181818;stroke-width:1.0;stroke-dasharray:2.0,2.0;" x1="2087" x2="2526" y1="1157.0234" y2="1157.0234"/><text fill="#000000" font-family="sans-serif" font-size="13" font-weight="bold" lengthAdjust="spacing" textLength="18" x="2099" y="1152.2813">32</text><text fill="#000000" font-family="sans-serif" font-size="13" lengthAdjust="spacing" textLength="85" x="2121" y="1152.2813">validate(Visit)</text><polygon fill="#181818" points="2093,1182.334,2083,1186.334,2093,1190.334,2089,1186.334" style="stroke:#181818;stroke-width:1.0;"/><line style="stroke:#181818;stroke-width:1.0;stroke-dasharray:2.0,2.0;" x1="2087" x2="2526" y1="1186.334" y2="1186.334"/><text fill="#000000" font-family="sans-serif" font-size="13" font-weight="bold" lengthAdjust="spacing" textLength="18" x="2099" y="1181.5918">33</text><text fill="#000000" font-family="sans-serif" font-size="13" lengthAdjust="spacing" textLength="59" x="2121" y="1181.5918">add(Visit)</text><polygon fill="#181818" points="1004.5,1211.6445,994.5,1215.6445,1004.5,1219.6445,1000.5,1215.6445" style="stroke:#181818;stroke-width:1.0;"/><line style="stroke:#181818;stroke-width:1.0;stroke-dasharray:2.0,2.0;" x1="998.5" x2="2081" y1="1215.6445" y2="1215.6445"/><text fill="#000000" font-family="sans-serif" font-size="13" font-weight="bold" lengthAdjust="spacing" textLength="18" x="1010.5" y="1210.9023">34</text><text fill="#000000" font-family="sans-serif" font-size="13" lengthAdjust="spacing" textLength="28" x="1032.5" y="1210.9023">Visit</text><polygon fill="#181818" points="549.5,1240.9551,539.5,1244.9551,549.5,1248.9551,545.5,1244.9551" style="stroke:#181818;stroke-width:1.0;"/><line style="stroke:#181818;stroke-width:1.0;stroke-dasharray:2.0,2.0;" x1="543.5" x2="982.5" y1="1244.9551" y2="1244.9551"/><text fill="#000000" font-family="sans-serif" font-size="13" font-weight="bold" lengthAdjust="spacing" textLength="18" x="555.5" y="1240.2129">35</text><text fill="#000000" font-family="sans-serif" font-size="13" lengthAdjust="spacing" textLength="28" x="577.5" y="1240.2129">Visit</text><polygon fill="#181818" points="59.5,1270.2656,49.5,1274.2656,59.5,1278.2656,55.5,1274.2656" style="stroke:#181818;stroke-width:1.0;"/><line style="stroke:#181818;stroke-width:1.0;stroke-dasharray:2.0,2.0;" x1="53.5" x2="527.5" y1="1274.2656" y2="1274.2656"/><text fill="#000000" font-family="sans-serif" font-size="13" font-weight="bold" lengthAdjust="spacing" textLength="18" x="65.5" y="1269.5234">36</text><text fill="#000000" font-family="sans-serif" font-size="13" lengthAdjust="spacing" textLength="161" x="87.5" y="1269.5234">Success - Visit registered</text><!--SRC=[lLPTJzim57tFhx1u6Kpm1oeDAR0ELK8R8i0JqkGcjws5QsUs0-k_txMJk4aQfmbCvALgVC-vvtxa-keN9dAgw9PifP3fHiaj4ACAYBG_oMdwGjUGc1q7eY0rLAnvqq1lQ2RVc5YJ5UKQeeWMHefYkmGLHLysB0Eoaj8ivT-8faOgSXAlGPWJGZM9Ro8aCInbEHM6dCpkOSsq0VN4D3EF2sVqk1WokfR2ACavA6Ty_N1_spPNa4kqaug1VXO8tlzrYFlvNHkWqmra1OVCyNlxtUnP984ZHnGwxAYFyvopb1ecHG9Quuz3_uxlEZfedbS6A3k0EW2bXLAOtJtmKODg8f9vaiI_sg3NWq3xuXiCor7KmD9yaImU8bjpzaeDs5f7f7hY6t9nYOKbCxHyqSH8RAsog8GInxKtzWpO2FwbVH2FBBRYoBC6qow0FZrhMNiQro9j9lyuiXRfV9jpkGFuWHz7bKSaxaTxk2scGo-4nWycXOuMqYlCjK2_ZJsgTM7EV6U4MKa6RU8Zacl5rwq66jAz5pv0xtHxuUtk72S-J5vBBriQqsBdoa-AC-oRZSHsllrtjPjlAUFZGga-Zu1fUUe38WsVuuAfwSTsNwUbhtPnxU_KUpuxmeO3ZenknaOgx63iDxIC-w8s1-mGSICDOUf3rQ6nEXp5c32gG7o-WmESV3YgVQy6V4mfzwYmWy64u45b5w4CwLkSs6EJCr5FcQ_wakZpsukpLu8TPZS8qXlvHim624Tp8bV4N-pb3QFxAHftamQE2u_Zw62RDzOH9GqXNH8gCcJvKu0kdSYS2PoBX2vbKRvP5fe9d9R3KcV4x79u5qMVp9HJdC-hQjr0rHGNlYC26gbgmmFrtIFhRQvxxVTsDpVaUr5kGa3ckFaDVvoT2ETAuVvvqQ00Iu7xgNBAHoW0N7794-KigzmVzN-uhU0zg02zksO-RQ-RvrK1Ork_gwfqv-sKdetsYTwuzThvvhv-hILCORhjOIAV5yl1MBeiLynt1FDXdvyOjNNNyFjgMmyzdqwcE2nUWysT_1TAccMJsG8NpgmycTYZrLYP1escZ96aI5EiAGuIvyHV1915HuQ7i1R- -GS0]--></g></svg>