<?xml version="1.0" encoding="us-ascii" standalone="no"?><svg xmlns="http://www.w3.org/2000/svg" xmlns:xlink="http://www.w3.org/1999/xlink" contentStyleType="text/css" height="1760px" preserveAspectRatio="none" style="width:1281px;height:1760px;background:#FFFFFF;" version="1.1" viewBox="0 0 1281 1760" width="1281px" zoomAndPan="magnify"><defs/><g><!--class RegisterVisitUI--><g id="elem_RegisterVisitUI"><rect codeLine="11" fill="#F1F1F1" height="48" id="RegisterVisitUI" rx="2.5" ry="2.5" style="stroke:#181818;stroke-width:0.5;" width="131" x="7" y="40"/><ellipse cx="22" cy="56" fill="#ADD1B2" rx="11" ry="11" style="stroke:#181818;stroke-width:1.0;"/><path d="M24.9731,61.6431 Q24.3921,61.9419 23.7529,62.0913 Q23.1138,62.2407 22.4082,62.2407 Q19.9014,62.2407 18.5815,60.5889 Q17.2617,58.937 17.2617,55.8159 Q17.2617,52.6865 18.5815,51.0347 Q19.9014,49.3828 22.4082,49.3828 Q23.1138,49.3828 23.7612,49.5322 Q24.4087,49.6816 24.9731,49.9805 L24.9731,52.7031 Q24.3423,52.1221 23.7488,51.8523 Q23.1553,51.5825 22.5244,51.5825 Q21.1797,51.5825 20.4949,52.6492 Q19.8101,53.7158 19.8101,55.8159 Q19.8101,57.9077 20.4949,58.9744 Q21.1797,60.041 22.5244,60.041 Q23.1553,60.041 23.7488,59.7712 Q24.3423,59.5015 24.9731,58.9204 Z " fill="#000000"/><text fill="#000000" font-family="sans-serif" font-size="14" lengthAdjust="spacing" textLength="99" x="36" y="61.291">RegisterVisitUI</text><line style="stroke:#181818;stroke-width:0.5;" x1="8" x2="137" y1="72" y2="72"/><line style="stroke:#181818;stroke-width:0.5;" x1="8" x2="137" y1="80" y2="80"/></g><!--class RegisterVisitController--><g id="elem_RegisterVisitController"><rect codeLine="14" fill="#F1F1F1" height="113.9531" id="RegisterVisitController" rx="2.5" ry="2.5" style="stroke:#181818;stroke-width:0.5;" width="471" x="173" y="7"/><ellipse cx="326.75" cy="23" fill="#ADD1B2" rx="11" ry="11" style="stroke:#181818;stroke-width:1.0;"/><path d="M329.7231,28.6431 Q329.1421,28.9419 328.5029,29.0913 Q327.8638,29.2407 327.1582,29.2407 Q324.6514,29.2407 323.3315,27.5889 Q322.0117,25.937 322.0117,22.8159 Q322.0117,19.6865 323.3315,18.0347 Q324.6514,16.3828 327.1582,16.3828 Q327.8638,16.3828 328.5112,16.5322 Q329.1587,16.6816 329.7231,16.9805 L329.7231,19.7031 Q329.0923,19.1221 328.4988,18.8523 Q327.9053,18.5825 327.2744,18.5825 Q325.9297,18.5825 325.2449,19.6492 Q324.5601,20.7158 324.5601,22.8159 Q324.5601,24.9077 325.2449,25.9744 Q325.9297,27.041 327.2744,27.041 Q327.9053,27.041 328.4988,26.7712 Q329.0923,26.5015 329.7231,25.9204 Z " fill="#000000"/><text fill="#000000" font-family="sans-serif" font-size="14" lengthAdjust="spacing" textLength="155" x="347.25" y="28.291">RegisterVisitController</text><line style="stroke:#181818;stroke-width:0.5;" x1="174" x2="643" y1="39" y2="39"/><line style="stroke:#181818;stroke-width:0.5;" x1="174" x2="643" y1="47" y2="47"/><text fill="#000000" font-family="sans-serif" font-size="14" lengthAdjust="spacing" textLength="459" x="179" y="64.5352">+RegisterVisitController(ScheduledVisitRepository, VisitRepository)</text><text fill="#000000" font-family="sans-serif" font-size="14" lengthAdjust="spacing" textLength="445" x="179" y="81.0234">+CreateVisit(ScheduledVisit,opinionAboutBusiness,classification)</text><text fill="#000000" font-family="sans-serif" font-size="14" lengthAdjust="spacing" textLength="323" x="179" y="97.5117">+getScheduledVisitsByAgentName(agentName)</text><text fill="#000000" font-family="sans-serif" font-size="14" lengthAdjust="spacing" textLength="194" x="179" y="114">-getEmployeeFromSession()</text></g><!--class ApplicationSession--><g id="elem_ApplicationSession"><rect codeLine="22" fill="#F1F1F1" height="80.9766" id="ApplicationSession" rx="2.5" ry="2.5" style="stroke:#181818;stroke-width:0.5;" width="162" x="110.5" y="198"/><ellipse cx="125.5" cy="214" fill="#ADD1B2" rx="11" ry="11" style="stroke:#181818;stroke-width:1.0;"/><path d="M128.4731,219.6431 Q127.8921,219.9419 127.2529,220.0913 Q126.6138,220.2407 125.9082,220.2407 Q123.4014,220.2407 122.0815,218.5889 Q120.7617,216.937 120.7617,213.8159 Q120.7617,210.6865 122.0815,209.0347 Q123.4014,207.3828 125.9082,207.3828 Q126.6138,207.3828 127.2612,207.5322 Q127.9087,207.6816 128.4731,207.9805 L128.4731,210.7031 Q127.8423,210.1221 127.2488,209.8523 Q126.6553,209.5825 126.0244,209.5825 Q124.6797,209.5825 123.9949,210.6492 Q123.3101,211.7158 123.3101,213.8159 Q123.3101,215.9077 123.9949,216.9744 Q124.6797,218.041 126.0244,218.041 Q126.6553,218.041 127.2488,217.7712 Q127.8423,217.5015 128.4731,216.9204 Z " fill="#000000"/><text fill="#000000" font-family="sans-serif" font-size="14" lengthAdjust="spacing" textLength="130" x="139.5" y="219.291">ApplicationSession</text><line style="stroke:#181818;stroke-width:0.5;" x1="111.5" x2="271.5" y1="230" y2="230"/><line style="stroke:#181818;stroke-width:0.5;" x1="111.5" x2="271.5" y1="238" y2="238"/><text fill="#000000" font-family="sans-serif" font-size="14" lengthAdjust="spacing" textLength="140" x="116.5" y="255.5352">+static getInstance()</text><text fill="#000000" font-family="sans-serif" font-size="14" lengthAdjust="spacing" textLength="148" x="116.5" y="272.0234">+getCurrentSession()</text></g><!--class UserSession--><g id="elem_UserSession"><rect codeLine="28" fill="#F1F1F1" height="64.4883" id="UserSession" rx="2.5" ry="2.5" style="stroke:#181818;stroke-width:0.5;" width="177" x="17" y="428"/><ellipse cx="59.9" cy="444" fill="#ADD1B2" rx="11" ry="11" style="stroke:#181818;stroke-width:1.0;"/><path d="M62.8731,449.6431 Q62.2921,449.9419 61.6529,450.0913 Q61.0138,450.2407 60.3082,450.2407 Q57.8014,450.2407 56.4815,448.5889 Q55.1617,446.937 55.1617,443.8159 Q55.1617,440.6865 56.4815,439.0347 Q57.8014,437.3828 60.3082,437.3828 Q61.0138,437.3828 61.6612,437.5322 Q62.3087,437.6816 62.8731,437.9805 L62.8731,440.7031 Q62.2423,440.1221 61.6488,439.8523 Q61.0553,439.5825 60.4244,439.5825 Q59.0797,439.5825 58.3949,440.6492 Q57.7101,441.7158 57.7101,443.8159 Q57.7101,445.9077 58.3949,446.9744 Q59.0797,448.041 60.4244,448.041 Q61.0553,448.041 61.6488,447.7712 Q62.2423,447.5015 62.8731,446.9204 Z " fill="#000000"/><text fill="#000000" font-family="sans-serif" font-size="14" lengthAdjust="spacing" textLength="83" x="80.1" y="449.291">UserSession</text><line style="stroke:#181818;stroke-width:0.5;" x1="18" x2="193" y1="460" y2="460"/><line style="stroke:#181818;stroke-width:0.5;" x1="18" x2="193" y1="468" y2="468"/><text fill="#000000" font-family="sans-serif" font-size="14" lengthAdjust="spacing" textLength="165" x="23" y="485.5352">+getUserNameByEmail()</text></g><!--class Repositories--><g id="elem_Repositories"><rect codeLine="34" fill="#F1F1F1" height="113.9531" id="Repositories" rx="2.5" ry="2.5" style="stroke:#181818;stroke-width:0.5;" width="228" x="755.5" y="7"/><ellipse cx="822.75" cy="23" fill="#ADD1B2" rx="11" ry="11" style="stroke:#181818;stroke-width:1.0;"/><path d="M825.7231,28.6431 Q825.1421,28.9419 824.5029,29.0913 Q823.8638,29.2407 823.1582,29.2407 Q820.6514,29.2407 819.3315,27.5889 Q818.0117,25.937 818.0117,22.8159 Q818.0117,19.6865 819.3315,18.0347 Q820.6514,16.3828 823.1582,16.3828 Q823.8638,16.3828 824.5112,16.5322 Q825.1587,16.6816 825.7231,16.9805 L825.7231,19.7031 Q825.0923,19.1221 824.4988,18.8523 Q823.9053,18.5825 823.2744,18.5825 Q821.9297,18.5825 821.2449,19.6492 Q820.5601,20.7158 820.5601,22.8159 Q820.5601,24.9077 821.2449,25.9744 Q821.9297,27.041 823.2744,27.041 Q823.9053,27.041 824.4988,26.7712 Q825.0923,26.5015 825.7231,25.9204 Z " fill="#000000"/><text fill="#000000" font-family="sans-serif" font-size="14" lengthAdjust="spacing" textLength="85" x="843.25" y="28.291">Repositories</text><line style="stroke:#181818;stroke-width:0.5;" x1="756.5" x2="982.5" y1="39" y2="39"/><line style="stroke:#181818;stroke-width:0.5;" x1="756.5" x2="982.5" y1="47" y2="47"/><text fill="#000000" font-family="sans-serif" font-size="14" lengthAdjust="spacing" textLength="103" x="761.5" y="64.5352">-Repositories()</text><text fill="#000000" font-family="sans-serif" font-size="14" lengthAdjust="spacing" textLength="197" x="761.5" y="81.0234">+getInstance() : Repositories</text><text fill="#000000" font-family="sans-serif" font-size="14" lengthAdjust="spacing" textLength="216" x="761.5" y="97.5117">+getScheduledVisitRepository()</text><text fill="#000000" font-family="sans-serif" font-size="14" lengthAdjust="spacing" textLength="145" x="761.5" y="114">+getVisitRepository()</text></g><!--class ScheduledVisitRepository--><g id="elem_ScheduledVisitRepository"><rect codeLine="41" fill="#F1F1F1" height="64.4883" id="ScheduledVisitRepository" rx="2.5" ry="2.5" style="stroke:#181818;stroke-width:0.5;" width="205" x="306" y="309"/><ellipse cx="321" cy="325" fill="#ADD1B2" rx="11" ry="11" style="stroke:#181818;stroke-width:1.0;"/><path d="M323.9731,330.6431 Q323.3921,330.9419 322.7529,331.0913 Q322.1138,331.2407 321.4082,331.2407 Q318.9014,331.2407 317.5815,329.5889 Q316.2617,327.937 316.2617,324.8159 Q316.2617,321.6865 317.5815,320.0347 Q318.9014,318.3828 321.4082,318.3828 Q322.1138,318.3828 322.7612,318.5322 Q323.4087,318.6816 323.9731,318.9805 L323.9731,321.7031 Q323.3423,321.1221 322.7488,320.8523 Q322.1553,320.5825 321.5244,320.5825 Q320.1797,320.5825 319.4949,321.6492 Q318.8101,322.7158 318.8101,324.8159 Q318.8101,326.9077 319.4949,327.9744 Q320.1797,329.041 321.5244,329.041 Q322.1553,329.041 322.7488,328.7712 Q323.3423,328.5015 323.9731,327.9204 Z " fill="#000000"/><text fill="#000000" font-family="sans-serif" font-size="14" lengthAdjust="spacing" textLength="173" x="335" y="330.291">ScheduledVisitRepository</text><line style="stroke:#181818;stroke-width:0.5;" x1="307" x2="510" y1="341" y2="341"/><line style="stroke:#181818;stroke-width:0.5;" x1="307" x2="510" y1="349" y2="349"/><text fill="#000000" font-family="sans-serif" font-size="14" lengthAdjust="spacing" textLength="166" x="312" y="366.5352">+getScheduledVisitList()</text></g><!--class Announcement--><g id="elem_Announcement"><rect codeLine="45" fill="#F1F1F1" height="113.9531" id="Announcement" rx="2.5" ry="2.5" style="stroke:#181818;stroke-width:0.5;" width="366" x="908.5" y="403"/><ellipse cx="1034.75" cy="419" fill="#ADD1B2" rx="11" ry="11" style="stroke:#181818;stroke-width:1.0;"/><path d="M1037.7231,424.6431 Q1037.1421,424.9419 1036.5029,425.0913 Q1035.8638,425.2407 1035.1582,425.2407 Q1032.6514,425.2407 1031.3315,423.5889 Q1030.0117,421.937 1030.0117,418.8159 Q1030.0117,415.6865 1031.3315,414.0347 Q1032.6514,412.3828 1035.1582,412.3828 Q1035.8638,412.3828 1036.5112,412.5322 Q1037.1587,412.6816 1037.7231,412.9805 L1037.7231,415.7031 Q1037.0923,415.1221 1036.4988,414.8523 Q1035.9053,414.5825 1035.2744,414.5825 Q1033.9297,414.5825 1033.2449,415.6492 Q1032.5601,416.7158 1032.5601,418.8159 Q1032.5601,420.9077 1033.2449,421.9744 Q1033.9297,423.041 1035.2744,423.041 Q1035.9053,423.041 1036.4988,422.7712 Q1037.0923,422.5015 1037.7231,421.9204 Z " fill="#000000"/><text fill="#000000" font-family="sans-serif" font-size="14" lengthAdjust="spacing" textLength="105" x="1055.25" y="424.291">Announcement</text><line style="stroke:#181818;stroke-width:0.5;" x1="909.5" x2="1273.5" y1="435" y2="435"/><text fill="#000000" font-family="sans-serif" font-size="14" lengthAdjust="spacing" textLength="49" x="914.5" y="452.5352">-status</text><text fill="#000000" font-family="sans-serif" font-size="14" lengthAdjust="spacing" textLength="38" x="914.5" y="469.0234">-date</text><text fill="#000000" font-family="sans-serif" font-size="14" lengthAdjust="spacing" textLength="90" x="914.5" y="485.5117">-commission</text><line style="stroke:#181818;stroke-width:0.5;" x1="909.5" x2="1273.5" y1="492.4648" y2="492.4648"/><text fill="#000000" font-family="sans-serif" font-size="14" lengthAdjust="spacing" textLength="354" x="914.5" y="510">+Announcement(status,date, property,commission)</text></g><!--class Property--><g id="elem_Property"><rect codeLine="52" fill="#F1F1F1" height="130.4414" id="Property" rx="2.5" ry="2.5" style="stroke:#181818;stroke-width:0.5;" width="261" x="972" y="818"/><ellipse cx="1069.25" cy="834" fill="#ADD1B2" rx="11" ry="11" style="stroke:#181818;stroke-width:1.0;"/><path d="M1072.2231,839.6431 Q1071.6421,839.9419 1071.0029,840.0913 Q1070.3638,840.2407 1069.6582,840.2407 Q1067.1514,840.2407 1065.8315,838.5889 Q1064.5117,836.937 1064.5117,833.8159 Q1064.5117,830.6865 1065.8315,829.0347 Q1067.1514,827.3828 1069.6582,827.3828 Q1070.3638,827.3828 1071.0112,827.5322 Q1071.6587,827.6816 1072.2231,827.9805 L1072.2231,830.7031 Q1071.5923,830.1221 1070.9988,829.8523 Q1070.4053,829.5825 1069.7744,829.5825 Q1068.4297,829.5825 1067.7449,830.6492 Q1067.0601,831.7158 1067.0601,833.8159 Q1067.0601,835.9077 1067.7449,836.9744 Q1068.4297,838.041 1069.7744,838.041 Q1070.4053,838.041 1070.9988,837.7712 Q1071.5923,837.5015 1072.2231,836.9204 Z " fill="#000000"/><text fill="#000000" font-family="sans-serif" font-size="14" lengthAdjust="spacing" textLength="58" x="1089.75" y="839.291">Property</text><line style="stroke:#181818;stroke-width:0.5;" x1="973" x2="1232" y1="850" y2="850"/><text fill="#000000" font-family="sans-serif" font-size="14" lengthAdjust="spacing" textLength="67" x="978" y="867.5352">-String ID</text><text fill="#000000" font-family="sans-serif" font-size="14" lengthAdjust="spacing" textLength="112" x="978" y="884.0234">-String Business</text><text fill="#000000" font-family="sans-serif" font-size="14" lengthAdjust="spacing" textLength="70" x="978" y="900.5117">-float size</text><text fill="#000000" font-family="sans-serif" font-size="14" lengthAdjust="spacing" textLength="249" x="978" y="917">-float distance_from_the_city_center</text><text fill="#000000" font-family="sans-serif" font-size="14" lengthAdjust="spacing" textLength="77" x="978" y="933.4883">-float price</text><line style="stroke:#181818;stroke-width:0.5;" x1="973" x2="1232" y1="940.4414" y2="940.4414"/></g><!--class Agent--><g id="elem_Agent"><rect codeLine="62" fill="#F1F1F1" height="163.418" id="Agent" rx="2.5" ry="2.5" style="stroke:#181818;stroke-width:0.5;" width="141" x="727" y="594"/><ellipse cx="772.75" cy="610" fill="#ADD1B2" rx="11" ry="11" style="stroke:#181818;stroke-width:1.0;"/><path d="M775.7231,615.6431 Q775.1421,615.9419 774.5029,616.0913 Q773.8638,616.2407 773.1582,616.2407 Q770.6514,616.2407 769.3315,614.5889 Q768.0117,612.937 768.0117,609.8159 Q768.0117,606.6865 769.3315,605.0347 Q770.6514,603.3828 773.1582,603.3828 Q773.8638,603.3828 774.5112,603.5322 Q775.1587,603.6816 775.7231,603.9805 L775.7231,606.7031 Q775.0923,606.1221 774.4988,605.8523 Q773.9053,605.5825 773.2744,605.5825 Q771.9297,605.5825 771.2449,606.6492 Q770.5601,607.7158 770.5601,609.8159 Q770.5601,611.9077 771.2449,612.9744 Q771.9297,614.041 773.2744,614.041 Q773.9053,614.041 774.4988,613.7712 Q775.0923,613.5015 775.7231,612.9204 Z " fill="#000000"/><text fill="#000000" font-family="sans-serif" font-size="14" lengthAdjust="spacing" textLength="41" x="793.25" y="615.291">Agent</text><line style="stroke:#181818;stroke-width:0.5;" x1="728" x2="867" y1="626" y2="626"/><text fill="#000000" font-family="sans-serif" font-size="14" lengthAdjust="spacing" textLength="91" x="733" y="643.5352">-String name</text><text fill="#000000" font-family="sans-serif" font-size="14" lengthAdjust="spacing" textLength="112" x="733" y="660.0234">-string passport</text><text fill="#000000" font-family="sans-serif" font-size="14" lengthAdjust="spacing" textLength="107" x="733" y="676.5117">-int taxNumber</text><text fill="#000000" font-family="sans-serif" font-size="14" lengthAdjust="spacing" textLength="106" x="733" y="693">-string address</text><text fill="#000000" font-family="sans-serif" font-size="14" lengthAdjust="spacing" textLength="129" x="733" y="709.4883">-int phoneNumber</text><text fill="#000000" font-family="sans-serif" font-size="14" lengthAdjust="spacing" textLength="89" x="733" y="725.9766">-string email</text><line style="stroke:#181818;stroke-width:0.5;" x1="728" x2="867" y1="732.9297" y2="732.9297"/><text fill="#000000" font-family="sans-serif" font-size="14" lengthAdjust="spacing" textLength="106" x="733" y="750.4648">+RegisterVisit()</text></g><!--class Client--><g id="elem_Client"><rect codeLine="73" fill="#F1F1F1" height="146.9297" id="Client" rx="2.5" ry="2.5" style="stroke:#181818;stroke-width:0.5;" width="141" x="527" y="1025"/><ellipse cx="573.25" cy="1041" fill="#ADD1B2" rx="11" ry="11" style="stroke:#181818;stroke-width:1.0;"/><path d="M576.2231,1046.6431 Q575.6421,1046.9419 575.0029,1047.0913 Q574.3638,1047.2407 573.6582,1047.2407 Q571.1514,1047.2407 569.8315,1045.5889 Q568.5117,1043.937 568.5117,1040.8159 Q568.5117,1037.6865 569.8315,1036.0347 Q571.1514,1034.3828 573.6582,1034.3828 Q574.3638,1034.3828 575.0112,1034.5322 Q575.6587,1034.6816 576.2231,1034.9805 L576.2231,1037.7031 Q575.5923,1037.1221 574.9988,1036.8523 Q574.4053,1036.5825 573.7744,1036.5825 Q572.4297,1036.5825 571.7449,1037.6492 Q571.0601,1038.7158 571.0601,1040.8159 Q571.0601,1042.9077 571.7449,1043.9744 Q572.4297,1045.041 573.7744,1045.041 Q574.4053,1045.041 574.9988,1044.7712 Q575.5923,1044.5015 576.2231,1043.9204 Z " fill="#000000"/><text fill="#000000" font-family="sans-serif" font-size="14" lengthAdjust="spacing" textLength="40" x="593.75" y="1046.291">Client</text><line style="stroke:#181818;stroke-width:0.5;" x1="528" x2="667" y1="1057" y2="1057"/><text fill="#000000" font-family="sans-serif" font-size="14" lengthAdjust="spacing" textLength="91" x="533" y="1074.5352">-String name</text><text fill="#000000" font-family="sans-serif" font-size="14" lengthAdjust="spacing" textLength="113" x="533" y="1091.0234">-String passport</text><text fill="#000000" font-family="sans-serif" font-size="14" lengthAdjust="spacing" textLength="107" x="533" y="1107.5117">-int taxNumber</text><text fill="#000000" font-family="sans-serif" font-size="14" lengthAdjust="spacing" textLength="106" x="533" y="1124">-string address</text><text fill="#000000" font-family="sans-serif" font-size="14" lengthAdjust="spacing" textLength="129" x="533" y="1140.4883">-int phoneNumber</text><text fill="#000000" font-family="sans-serif" font-size="14" lengthAdjust="spacing" textLength="89" x="533" y="1156.9766">-string email</text><line style="stroke:#181818;stroke-width:0.5;" x1="528" x2="667" y1="1163.9297" y2="1163.9297"/></g><!--class ScheduledVisit--><g id="elem_ScheduledVisit"><rect codeLine="83" fill="#F1F1F1" height="97.4648" id="ScheduledVisit" rx="2.5" ry="2.5" style="stroke:#181818;stroke-width:0.5;" width="132" x="531.5" y="834.5"/><ellipse cx="546.5" cy="850.5" fill="#ADD1B2" rx="11" ry="11" style="stroke:#181818;stroke-width:1.0;"/><path d="M549.4731,856.1431 Q548.8921,856.4419 548.2529,856.5913 Q547.6138,856.7407 546.9082,856.7407 Q544.4014,856.7407 543.0815,855.0889 Q541.7617,853.437 541.7617,850.3159 Q541.7617,847.1865 543.0815,845.5347 Q544.4014,843.8828 546.9082,843.8828 Q547.6138,843.8828 548.2612,844.0322 Q548.9087,844.1816 549.4731,844.4805 L549.4731,847.2031 Q548.8423,846.6221 548.2488,846.3523 Q547.6553,846.0825 547.0244,846.0825 Q545.6797,846.0825 544.9949,847.1492 Q544.3101,848.2158 544.3101,850.3159 Q544.3101,852.4077 544.9949,853.4744 Q545.6797,854.541 547.0244,854.541 Q547.6553,854.541 548.2488,854.2712 Q548.8423,854.0015 549.4731,853.4204 Z " fill="#000000"/><text fill="#000000" font-family="sans-serif" font-size="14" lengthAdjust="spacing" textLength="100" x="560.5" y="855.791">ScheduledVisit</text><line style="stroke:#181818;stroke-width:0.5;" x1="532.5" x2="662.5" y1="866.5" y2="866.5"/><text fill="#000000" font-family="sans-serif" font-size="14" lengthAdjust="spacing" textLength="108" x="537.5" y="884.0352">-LocalDate date</text><text fill="#000000" font-family="sans-serif" font-size="14" lengthAdjust="spacing" textLength="116" x="537.5" y="900.5234">-Date beginHour</text><text fill="#000000" font-family="sans-serif" font-size="14" lengthAdjust="spacing" textLength="103" x="537.5" y="917.0117">-Date endHour</text><line style="stroke:#181818;stroke-width:0.5;" x1="532.5" x2="662.5" y1="923.9648" y2="923.9648"/></g><!--class Visit--><g id="elem_Visit"><rect codeLine="89" fill="#F1F1F1" height="97.4648" id="Visit" rx="2.5" ry="2.5" style="stroke:#181818;stroke-width:0.5;" width="412" x="461.5" y="411.5"/><ellipse cx="648.75" cy="427.5" fill="#ADD1B2" rx="11" ry="11" style="stroke:#181818;stroke-width:1.0;"/><path d="M651.7231,433.1431 Q651.1421,433.4419 650.5029,433.5913 Q649.8638,433.7407 649.1582,433.7407 Q646.6514,433.7407 645.3315,432.0889 Q644.0117,430.437 644.0117,427.3159 Q644.0117,424.1865 645.3315,422.5347 Q646.6514,420.8828 649.1582,420.8828 Q649.8638,420.8828 650.5112,421.0322 Q651.1587,421.1816 651.7231,421.4805 L651.7231,424.2031 Q651.0923,423.6221 650.4988,423.3523 Q649.9053,423.0825 649.2744,423.0825 Q647.9297,423.0825 647.2449,424.1492 Q646.5601,425.2158 646.5601,427.3159 Q646.5601,429.4077 647.2449,430.4744 Q647.9297,431.541 649.2744,431.541 Q649.9053,431.541 650.4988,431.2712 Q651.0923,431.0015 651.7231,430.4204 Z " fill="#000000"/><text fill="#000000" font-family="sans-serif" font-size="14" lengthAdjust="spacing" textLength="29" x="669.25" y="432.791">Visit</text><line style="stroke:#181818;stroke-width:0.5;" x1="462.5" x2="872.5" y1="443.5" y2="443.5"/><text fill="#000000" font-family="sans-serif" font-size="14" lengthAdjust="spacing" textLength="207" x="467.5" y="461.0352">-String opinionAboutBusiness</text><text fill="#000000" font-family="sans-serif" font-size="14" lengthAdjust="spacing" textLength="141" x="467.5" y="477.5234">-String classification</text><line style="stroke:#181818;stroke-width:0.5;" x1="462.5" x2="872.5" y1="484.4766" y2="484.4766"/><text fill="#000000" font-family="sans-serif" font-size="14" lengthAdjust="spacing" textLength="400" x="467.5" y="502.0117">+Visit(ScheduledVisit,opinionAboutBusiness,classification)</text></g><!--class VisitRepository--><g id="elem_VisitRepository"><rect codeLine="95" fill="#F1F1F1" height="80.9766" id="VisitRepository" rx="2.5" ry="2.5" style="stroke:#181818;stroke-width:0.5;" width="134" x="542.5" y="198"/><ellipse cx="557.5" cy="214" fill="#ADD1B2" rx="11" ry="11" style="stroke:#181818;stroke-width:1.0;"/><path d="M560.4731,219.6431 Q559.8921,219.9419 559.2529,220.0913 Q558.6138,220.2407 557.9082,220.2407 Q555.4014,220.2407 554.0815,218.5889 Q552.7617,216.937 552.7617,213.8159 Q552.7617,210.6865 554.0815,209.0347 Q555.4014,207.3828 557.9082,207.3828 Q558.6138,207.3828 559.2612,207.5322 Q559.9087,207.6816 560.4731,207.9805 L560.4731,210.7031 Q559.8423,210.1221 559.2488,209.8523 Q558.6553,209.5825 558.0244,209.5825 Q556.6797,209.5825 555.9949,210.6492 Q555.3101,211.7158 555.3101,213.8159 Q555.3101,215.9077 555.9949,216.9744 Q556.6797,218.041 558.0244,218.041 Q558.6553,218.041 559.2488,217.7712 Q559.8423,217.5015 560.4731,216.9204 Z " fill="#000000"/><text fill="#000000" font-family="sans-serif" font-size="14" lengthAdjust="spacing" textLength="102" x="571.5" y="219.291">VisitRepository</text><line style="stroke:#181818;stroke-width:0.5;" x1="543.5" x2="675.5" y1="230" y2="230"/><line style="stroke:#181818;stroke-width:0.5;" x1="543.5" x2="675.5" y1="238" y2="238"/><text fill="#000000" font-family="sans-serif" font-size="14" lengthAdjust="spacing" textLength="76" x="548.5" y="255.5352">+addVisit()</text><text fill="#000000" font-family="sans-serif" font-size="14" lengthAdjust="spacing" textLength="105" x="548.5" y="272.0234">+ValidateVisit()</text></g><!--class Location--><g id="elem_Location"><rect codeLine="100" fill="#F1F1F1" height="97.4648" id="Location" rx="2.5" ry="2.5" style="stroke:#181818;stroke-width:0.5;" width="153" x="1026" y="1233"/><ellipse cx="1069.35" cy="1249" fill="#ADD1B2" rx="11" ry="11" style="stroke:#181818;stroke-width:1.0;"/><path d="M1072.3231,1254.6431 Q1071.7421,1254.9419 1071.1029,1255.0913 Q1070.4638,1255.2407 1069.7582,1255.2407 Q1067.2514,1255.2407 1065.9315,1253.5889 Q1064.6117,1251.937 1064.6117,1248.8159 Q1064.6117,1245.6865 1065.9315,1244.0347 Q1067.2514,1242.3828 1069.7582,1242.3828 Q1070.4638,1242.3828 1071.1112,1242.5322 Q1071.7587,1242.6816 1072.3231,1242.9805 L1072.3231,1245.7031 Q1071.6923,1245.1221 1071.0988,1244.8523 Q1070.5053,1244.5825 1069.8744,1244.5825 Q1068.5297,1244.5825 1067.8449,1245.6492 Q1067.1601,1246.7158 1067.1601,1248.8159 Q1067.1601,1250.9077 1067.8449,1251.9744 Q1068.5297,1253.041 1069.8744,1253.041 Q1070.5053,1253.041 1071.0988,1252.7712 Q1071.6923,1252.5015 1072.3231,1251.9204 Z " fill="#000000"/><text fill="#000000" font-family="sans-serif" font-size="14" lengthAdjust="spacing" textLength="58" x="1089.65" y="1254.291">Location</text><line style="stroke:#181818;stroke-width:0.5;" x1="1027" x2="1178" y1="1265" y2="1265"/><text fill="#000000" font-family="sans-serif" font-size="14" lengthAdjust="spacing" textLength="93" x="1032" y="1282.5352">-String Street</text><text fill="#000000" font-family="sans-serif" font-size="14" lengthAdjust="spacing" textLength="141" x="1032" y="1299.0234">-String doorNumber</text><text fill="#000000" font-family="sans-serif" font-size="14" lengthAdjust="spacing" textLength="87" x="1032" y="1315.5117">-int zipCode</text><line style="stroke:#181818;stroke-width:0.5;" x1="1027" x2="1178" y1="1322.4648" y2="1322.4648"/></g><!--class City--><g id="elem_City"><rect codeLine="106" fill="#F1F1F1" height="64.4883" id="City" rx="2.5" ry="2.5" style="stroke:#181818;stroke-width:0.5;" width="127" x="1039" y="1407"/><ellipse cx="1085.25" cy="1423" fill="#ADD1B2" rx="11" ry="11" style="stroke:#181818;stroke-width:1.0;"/><path d="M1088.2231,1428.6431 Q1087.6421,1428.9419 1087.0029,1429.0913 Q1086.3638,1429.2407 1085.6582,1429.2407 Q1083.1514,1429.2407 1081.8315,1427.5889 Q1080.5117,1425.937 1080.5117,1422.8159 Q1080.5117,1419.6865 1081.8315,1418.0347 Q1083.1514,1416.3828 1085.6582,1416.3828 Q1086.3638,1416.3828 1087.0112,1416.5322 Q1087.6587,1416.6816 1088.2231,1416.9805 L1088.2231,1419.7031 Q1087.5923,1419.1221 1086.9988,1418.8523 Q1086.4053,1418.5825 1085.7744,1418.5825 Q1084.4297,1418.5825 1083.7449,1419.6492 Q1083.0601,1420.7158 1083.0601,1422.8159 Q1083.0601,1424.9077 1083.7449,1425.9744 Q1084.4297,1427.041 1085.7744,1427.041 Q1086.4053,1427.041 1086.9988,1426.7712 Q1087.5923,1426.5015 1088.2231,1425.9204 Z " fill="#000000"/><text fill="#000000" font-family="sans-serif" font-size="14" lengthAdjust="spacing" textLength="26" x="1105.75" y="1428.291">City</text><line style="stroke:#181818;stroke-width:0.5;" x1="1040" x2="1165" y1="1439" y2="1439"/><text fill="#000000" font-family="sans-serif" font-size="14" lengthAdjust="spacing" textLength="115" x="1045" y="1456.5352">-String cityName</text><line style="stroke:#181818;stroke-width:0.5;" x1="1040" x2="1165" y1="1463.4883" y2="1463.4883"/></g><!--class District--><g id="elem_District"><rect codeLine="110" fill="#F1F1F1" height="64.4883" id="District" rx="2.5" ry="2.5" style="stroke:#181818;stroke-width:0.5;" width="151" x="1027" y="1548"/><ellipse cx="1074.25" cy="1564" fill="#ADD1B2" rx="11" ry="11" style="stroke:#181818;stroke-width:1.0;"/><path d="M1077.2231,1569.6431 Q1076.6421,1569.9419 1076.0029,1570.0913 Q1075.3638,1570.2407 1074.6582,1570.2407 Q1072.1514,1570.2407 1070.8315,1568.5889 Q1069.5117,1566.937 1069.5117,1563.8159 Q1069.5117,1560.6865 1070.8315,1559.0347 Q1072.1514,1557.3828 1074.6582,1557.3828 Q1075.3638,1557.3828 1076.0112,1557.5322 Q1076.6587,1557.6816 1077.2231,1557.9805 L1077.2231,1560.7031 Q1076.5923,1560.1221 1075.9988,1559.8523 Q1075.4053,1559.5825 1074.7744,1559.5825 Q1073.4297,1559.5825 1072.7449,1560.6492 Q1072.0601,1561.7158 1072.0601,1563.8159 Q1072.0601,1565.9077 1072.7449,1566.9744 Q1073.4297,1568.041 1074.7744,1568.041 Q1075.4053,1568.041 1075.9988,1567.7712 Q1076.5923,1567.5015 1077.2231,1566.9204 Z " fill="#000000"/><text fill="#000000" font-family="sans-serif" font-size="14" lengthAdjust="spacing" textLength="48" x="1094.75" y="1569.291">District</text><line style="stroke:#181818;stroke-width:0.5;" x1="1028" x2="1177" y1="1580" y2="1580"/><text fill="#000000" font-family="sans-serif" font-size="14" lengthAdjust="spacing" textLength="139" x="1033" y="1597.5352">-String districtName</text><line style="stroke:#181818;stroke-width:0.5;" x1="1028" x2="1177" y1="1604.4883" y2="1604.4883"/></g><!--class State--><g id="elem_State"><rect codeLine="114" fill="#F1F1F1" height="64.4883" id="State" rx="2.5" ry="2.5" style="stroke:#181818;stroke-width:0.5;" width="137" x="1034" y="1689"/><ellipse cx="1081.25" cy="1705" fill="#ADD1B2" rx="11" ry="11" style="stroke:#181818;stroke-width:1.0;"/><path d="M1084.2231,1710.6431 Q1083.6421,1710.9419 1083.0029,1711.0913 Q1082.3638,1711.2407 1081.6582,1711.2407 Q1079.1514,1711.2407 1077.8315,1709.5889 Q1076.5117,1707.937 1076.5117,1704.8159 Q1076.5117,1701.6865 1077.8315,1700.0347 Q1079.1514,1698.3828 1081.6582,1698.3828 Q1082.3638,1698.3828 1083.0112,1698.5322 Q1083.6587,1698.6816 1084.2231,1698.9805 L1084.2231,1701.7031 Q1083.5923,1701.1221 1082.9988,1700.8523 Q1082.4053,1700.5825 1081.7744,1700.5825 Q1080.4297,1700.5825 1079.7449,1701.6492 Q1079.0601,1702.7158 1079.0601,1704.8159 Q1079.0601,1706.9077 1079.7449,1707.9744 Q1080.4297,1709.041 1081.7744,1709.041 Q1082.4053,1709.041 1082.9988,1708.7712 Q1083.5923,1708.5015 1084.2231,1707.9204 Z " fill="#000000"/><text fill="#000000" font-family="sans-serif" font-size="14" lengthAdjust="spacing" textLength="34" x="1101.75" y="1710.291">State</text><line style="stroke:#181818;stroke-width:0.5;" x1="1035" x2="1170" y1="1721" y2="1721"/><text fill="#000000" font-family="sans-serif" font-size="14" lengthAdjust="spacing" textLength="125" x="1040" y="1738.5352">-String stateName</text><line style="stroke:#181818;stroke-width:0.5;" x1="1035" x2="1170" y1="1745.4883" y2="1745.4883"/></g><!--link Repositories to Repositories--><g id="link_Repositories_Repositories"><path codeLine="121" d="M983.82,47.14 C1004.24,49.33 1018.5,54.95 1018.5,64 C1018.5,72.2 1006.79,77.58 989.39,80.15 " fill="none" id="Repositories-to-Repositories" style="stroke:#181818;stroke-width:1.0;"/><polygon fill="#181818" points="984.82,80.86,994.2517,83.6961,989.7803,80.231,993.2453,75.7596,984.82,80.86" style="stroke:#181818;stroke-width:1.0;"/><text fill="#000000" font-family="sans-serif" font-size="13" lengthAdjust="spacing" textLength="53" x="1024.5" y="69.0684">instance</text></g><!--link ApplicationSession to ApplicationSession--><g id="link_ApplicationSession_ApplicationSession"><path codeLine="122" d="M272.81,223.92 C292.7,225 307.5,229.86 307.5,238.5 C307.5,246.26 295.55,250.97 278.7,252.63 " fill="none" id="ApplicationSession-to-ApplicationSession" style="stroke:#181818;stroke-width:1.0;"/><polygon fill="#181818" points="273.81,253.08,283.0917,256.3739,278.7951,252.6943,282.4747,248.3977,273.81,253.08" style="stroke:#181818;stroke-width:1.0;"/><text fill="#000000" font-family="sans-serif" font-size="13" lengthAdjust="spacing" textLength="53" x="313.5" y="243.5684">instance</text></g><!--link RegisterVisitController to Repositories--><g id="link_RegisterVisitController_Repositories"><path codeLine="123" d="M644.4,64 C680.69,64 716.8,64 749.13,64 " fill="none" id="RegisterVisitController-to-Repositories" style="stroke:#181818;stroke-width:1.0;stroke-dasharray:7.0,7.0;"/><polygon fill="#181818" points="754.12,64,745.12,60,749.12,64,745.12,68,754.12,64" style="stroke:#181818;stroke-width:1.0;"/><text fill="#000000" font-family="sans-serif" font-size="13" lengthAdjust="spacing" textLength="75" x="662.25" y="57.5684">repositories</text></g><!--link ApplicationSession to UserSession--><g id="link_ApplicationSession_UserSession"><path codeLine="126" d="M175.93,279.25 C159.94,320.04 135.29,382.97 119.79,422.53 " fill="none" id="ApplicationSession-to-UserSession" style="stroke:#181818;stroke-width:1.0;"/><polygon fill="#181818" points="117.76,426.71,124.7726,419.7945,119.5874,422.0559,117.326,416.8707,117.76,426.71" style="stroke:#181818;stroke-width:1.0;"/><text fill="#000000" font-family="sans-serif" font-size="13" lengthAdjust="spacing" textLength="75" x="165.5" y="346.0684">userSession</text><text fill="#000000" font-family="sans-serif" font-size="13" lengthAdjust="spacing" textLength="8" x="111.4636" y="417.0533">1</text></g><!--link RegisterVisitController to ApplicationSession--><g id="link_RegisterVisitController_ApplicationSession"><path codeLine="129" d="M337.45,121.48 C307.76,145.08 273.82,172.07 246.14,194.07 " fill="none" id="RegisterVisitController-to-ApplicationSession" style="stroke:#181818;stroke-width:1.0;stroke-dasharray:7.0,7.0;"/><polygon fill="#181818" points="242.75,197.56,252.2833,195.0867,246.6627,194.447,247.3024,188.8264,242.75,197.56" style="stroke:#181818;stroke-width:1.0;"/></g><!--link RegisterVisitController to UserSession--><g id="link_RegisterVisitController_UserSession"><path codeLine="130" d="M274.49,121.4 C188.36,157.65 92.5,198 92.5,198 C92.5,198 92.5,279 92.5,279 C92.5,279 99,369 102.81,421.72 " fill="none" id="RegisterVisitController-to-UserSession" style="stroke:#181818;stroke-width:1.0;stroke-dasharray:7.0,7.0;"/><polygon fill="#181818" points="103.24,426.65,106.5603,417.3777,102.8685,421.6638,98.5824,417.972,103.24,426.65" style="stroke:#181818;stroke-width:1.0;"/></g><!--link RegisterVisitUI to RegisterVisitController--><g id="link_RegisterVisitUI_RegisterVisitController"><path codeLine="132" d="M138.3,64 C148.92,64 159.06,64 167.12,64 " fill="none" id="RegisterVisitUI-to-RegisterVisitController" style="stroke:#181818;stroke-width:1.0;stroke-dasharray:7.0,7.0;"/><polygon fill="#181818" points="171.85,64,162.85,60,166.85,64,162.85,68,171.85,64" style="stroke:#181818;stroke-width:1.0;"/></g><!--link RegisterVisitController to Visit--><g id="link_RegisterVisitController_Visit"><path codeLine="134" d="M588.86,121.4 C640.69,137.61 683.5,151 683.5,151 C683.5,151 694.5,198 694.5,198 C694.5,198 694.5,279 694.5,279 C694.5,279 683.48,352.46 675.52,405.52 " fill="none" id="RegisterVisitController-to-Visit" style="stroke:#181818;stroke-width:1.0;stroke-dasharray:7.0,7.0;"/><polygon fill="#181818" points="674.66,410.24,679.9532,401.9344,675.4031,405.2955,672.042,400.7455,674.66,410.24" style="stroke:#181818;stroke-width:1.0;"/></g><!--link RegisterVisitController to ScheduledVisitRepository--><g id="link_RegisterVisitController_ScheduledVisitRepository"><path codeLine="136" d="M403.91,121.4 C402.59,137.61 401.5,151 401.5,151 C401.5,151 401.5,168 401.5,168 C401.5,168 404.93,252.29 406.99,302.86 " fill="none" id="RegisterVisitController-to-ScheduledVisitRepository" style="stroke:#181818;stroke-width:1.0;stroke-dasharray:7.0,7.0;"/><polygon fill="#181818" points="407.23,307.85,410.8671,298.6973,407.0302,302.854,402.8735,299.0171,407.23,307.85" style="stroke:#181818;stroke-width:1.0;"/><text fill="#000000" font-family="sans-serif" font-size="13" lengthAdjust="spacing" textLength="159" x="402.5" y="164.5684">ScheduledVisitRepository</text></g><!--link RegisterVisitController to VisitRepository--><g id="link_RegisterVisitController_VisitRepository"><path codeLine="138" d="M514.75,121.4 C545.28,137.61 570.5,151 570.5,151 C570.5,151 579.65,171.29 589.08,192.22 " fill="none" id="RegisterVisitController-to-VisitRepository" style="stroke:#181818;stroke-width:1.0;stroke-dasharray:7.0,7.0;"/><polygon fill="#181818" points="591.48,196.54,591.4229,186.6913,589.4228,191.9828,584.1313,189.9828,591.48,196.54" style="stroke:#181818;stroke-width:1.0;"/><text fill="#000000" font-family="sans-serif" font-size="13" lengthAdjust="spacing" textLength="95" x="579.5" y="164.5684">VisitRepository</text></g><!--link VisitRepository to Visit--><g id="link_VisitRepository_Visit"><path codeLine="140" d="M620,279.25 C629.34,314.58 643.06,366.51 653.36,405.48 " fill="none" id="VisitRepository-to-Visit" style="stroke:#181818;stroke-width:1.0;"/><polygon fill="#181818" points="654.85,410.13,656.4335,400.4093,653.5803,405.2939,648.6957,402.4407,654.85,410.13" style="stroke:#181818;stroke-width:1.0;"/><text fill="#000000" font-family="sans-serif" font-size="13" lengthAdjust="spacing" textLength="8" x="613.0359" y="299.5348">1</text><text fill="#000000" font-family="sans-serif" font-size="13" lengthAdjust="spacing" textLength="6" x="646.6492" y="400.7605">*</text></g><!--link ScheduledVisitRepository to ScheduledVisit--><g id="link_ScheduledVisitRepository_ScheduledVisit"><path codeLine="142" d="M414.76,373.29 C424.82,423.62 443.5,517 443.5,517 C443.5,517 532.41,727.74 575.12,828.96 " fill="none" id="ScheduledVisitRepository-to-ScheduledVisit" style="stroke:#181818;stroke-width:1.0;"/><polygon fill="#181818" points="577.37,833.28,577.564,823.4331,575.4297,828.6718,570.1909,826.5375,577.37,833.28" style="stroke:#181818;stroke-width:1.0;"/><text fill="#000000" font-family="sans-serif" font-size="13" lengthAdjust="spacing" textLength="8" x="407.2261" y="394.0467">1</text><text fill="#000000" font-family="sans-serif" font-size="13" lengthAdjust="spacing" textLength="6" x="568.1173" y="823.9316">*</text></g><!--link Announcement to Property--><g id="link_Announcement_Property"><path codeLine="146" d="M1092.97,517.34 C1094.96,593.49 1098.51,729.21 1100.67,811.87 " fill="none" id="Announcement-to-Property" style="stroke:#181818;stroke-width:1.0;"/><polygon fill="#181818" points="1100.82,816.73,1104.5873,807.6302,1100.6915,811.7317,1096.59,807.8358,1100.82,816.73" style="stroke:#181818;stroke-width:1.0;"/><text fill="#000000" font-family="sans-serif" font-size="13" lengthAdjust="spacing" textLength="53" x="1099.5" y="680.5684">property</text><text fill="#000000" font-family="sans-serif" font-size="13" lengthAdjust="spacing" textLength="8" x="1084.6775" y="537.4261">1</text><text fill="#000000" font-family="sans-serif" font-size="13" lengthAdjust="spacing" textLength="8" x="1092.1988" y="807.332">1</text></g><!--link Property to Location--><g id="link_Property_Location"><path codeLine="148" d="M1102.5,948.15 C1102.5,1025.53 1102.5,1154.24 1102.5,1226.68 " fill="none" id="Property-to-Location" style="stroke:#181818;stroke-width:1.0;"/><polygon fill="#181818" points="1102.5,1231.66,1106.5,1222.66,1102.5,1226.66,1098.5,1222.66,1102.5,1231.66" style="stroke:#181818;stroke-width:1.0;"/><text fill="#000000" font-family="sans-serif" font-size="13" lengthAdjust="spacing" textLength="51" x="1103.5" y="1103.5684">location</text><text fill="#000000" font-family="sans-serif" font-size="13" lengthAdjust="spacing" textLength="8" x="1094.0375" y="969.111">1</text><text fill="#000000" font-family="sans-serif" font-size="13" lengthAdjust="spacing" textLength="8" x="1093.9375" y="1222.2947">1</text></g><!--link Location to City--><g id="link_Location_City"><path codeLine="150" d="M1102.5,1330.42 C1102.5,1353.1 1102.5,1379.77 1102.5,1400.88 " fill="none" id="Location-to-City" style="stroke:#181818;stroke-width:1.0;"/><polygon fill="#181818" points="1102.5,1405.67,1106.5,1396.67,1102.5,1400.67,1098.5,1396.67,1102.5,1405.67" style="stroke:#181818;stroke-width:1.0;"/><text fill="#000000" font-family="sans-serif" font-size="13" lengthAdjust="spacing" textLength="23" x="1103.5" y="1373.5684">city</text><text fill="#000000" font-family="sans-serif" font-size="13" lengthAdjust="spacing" textLength="8" x="1093.9375" y="1350.9116">1</text><text fill="#000000" font-family="sans-serif" font-size="13" lengthAdjust="spacing" textLength="8" x="1093.7125" y="1396.3793">1</text></g><!--link City to District--><g id="link_City_District"><path codeLine="152" d="M1102.5,1471.19 C1102.5,1492.21 1102.5,1520.02 1102.5,1542.13 " fill="none" id="City-to-District" style="stroke:#181818;stroke-width:1.0;"/><polygon fill="#181818" points="1102.5,1546.91,1106.5,1537.91,1102.5,1541.91,1098.5,1537.91,1102.5,1546.91" style="stroke:#181818;stroke-width:1.0;"/><text fill="#000000" font-family="sans-serif" font-size="13" lengthAdjust="spacing" textLength="45" x="1103.5" y="1514.5684">district</text><text fill="#000000" font-family="sans-serif" font-size="13" lengthAdjust="spacing" textLength="8" x="1093.675" y="1491.9261">1</text><text fill="#000000" font-family="sans-serif" font-size="13" lengthAdjust="spacing" textLength="8" x="1093.675" y="1537.2946">1</text></g><!--link District to State--><g id="link_District_State"><path codeLine="154" d="M1102.5,1612.19 C1102.5,1633.21 1102.5,1661.02 1102.5,1683.13 " fill="none" id="District-to-State" style="stroke:#181818;stroke-width:1.0;"/><polygon fill="#181818" points="1102.5,1687.91,1106.5,1678.91,1102.5,1682.91,1098.5,1678.91,1102.5,1687.91" style="stroke:#181818;stroke-width:1.0;"/><text fill="#000000" font-family="sans-serif" font-size="13" lengthAdjust="spacing" textLength="31" x="1103.5" y="1655.5684">state</text><text fill="#000000" font-family="sans-serif" font-size="13" lengthAdjust="spacing" textLength="8" x="1093.675" y="1632.9261">1</text><text fill="#000000" font-family="sans-serif" font-size="13" lengthAdjust="spacing" textLength="8" x="1093.675" y="1678.2946">1</text></g><!--link Announcement to ScheduledVisit--><g id="link_Announcement_ScheduledVisit"><path codeLine="158" d="M1049.52,517.4 C1022.53,553.65 992.5,594 992.5,594 C992.5,594 885.5,757 885.5,757 C885.5,757 754.53,813.84 669.23,850.87 " fill="none" id="Announcement-to-ScheduledVisit" style="stroke:#181818;stroke-width:1.0;"/><polygon fill="#181818" points="664.93,853.17,674.7786,853.2385,669.5131,851.1712,671.5805,845.9056,664.93,853.17" style="stroke:#181818;stroke-width:1.0;"/><text fill="#000000" font-family="sans-serif" font-size="13" lengthAdjust="spacing" textLength="92" x="993.5" y="680.5684">ScheduledVisit</text><text fill="#000000" font-family="sans-serif" font-size="13" lengthAdjust="spacing" textLength="8" x="1036.2036" y="537.4931">1</text><text fill="#000000" font-family="sans-serif" font-size="13" lengthAdjust="spacing" textLength="8" x="671.6333" y="846.647">1</text></g><!--link Visit to ScheduledVisit--><g id="link_Visit_ScheduledVisit"><path codeLine="160" d="M648.87,508.64 C633.95,546.8 615.5,594 615.5,594 C615.5,594 606.07,744.9 600.86,828.24 " fill="none" id="Visit-to-ScheduledVisit" style="stroke:#181818;stroke-width:1.0;"/><polygon fill="#181818" points="600.49,833.12,605.0483,824.3895,600.8046,828.1299,597.0641,823.8862,600.49,833.12" style="stroke:#181818;stroke-width:1.0;"/><text fill="#000000" font-family="sans-serif" font-size="13" lengthAdjust="spacing" textLength="92" x="616.5" y="680.5684">ScheduledVisit</text><text fill="#000000" font-family="sans-serif" font-size="13" lengthAdjust="spacing" textLength="8" x="637.5462" y="529.4426">1</text><text fill="#000000" font-family="sans-serif" font-size="13" lengthAdjust="spacing" textLength="8" x="592.348" y="823.7491">1</text></g><!--link ScheduledVisit to Client--><g id="link_ScheduledVisit_Client"><path codeLine="162" d="M597.5,931.91 C597.5,957.5 597.5,989.65 597.5,1018.79 " fill="none" id="ScheduledVisit-to-Client" style="stroke:#181818;stroke-width:1.0;"/><polygon fill="#181818" points="597.5,1023.58,601.5,1014.58,597.5,1018.58,593.5,1014.58,597.5,1023.58" style="stroke:#181818;stroke-width:1.0;"/><text fill="#000000" font-family="sans-serif" font-size="13" lengthAdjust="spacing" textLength="232" x="598.5" y="991.5684">RequestedBy/AcceptedBy/RejectedBy</text></g><!--link Visit to Agent--><g id="link_Visit_Agent"><path codeLine="164" d="M680.05,508.88 C687.1,535.78 694.5,564 694.5,564 C694.5,564 706.76,577.15 722.82,594.38 " fill="none" id="Visit-to-Agent" style="stroke:#181818;stroke-width:1.0;"/><polygon fill="#181818" points="725.53,597.36,722.3315,588.045,722.1256,593.6981,716.4724,593.4921,725.53,597.36" style="stroke:#181818;stroke-width:1.0;"/><text fill="#000000" font-family="sans-serif" font-size="13" lengthAdjust="spacing" textLength="80" x="695.5" y="560.5684">RegisteredBy</text></g><!--link Announcement to Agent--><g id="link_Announcement_Agent"><path codeLine="166" d="M922.94,517.4 C874.5,533.61 834.5,547 834.5,547 C834.5,547 829.17,565.38 822.55,588.19 " fill="none" id="Announcement-to-Agent" style="stroke:#181818;stroke-width:1.0;"/><polygon fill="#181818" points="820.93,592.75,827.29,585.23,822.33,587.95,819.61,582.99,820.93,592.75" style="stroke:#181818;stroke-width:1.0;"/><text fill="#000000" font-family="sans-serif" font-size="13" lengthAdjust="spacing" textLength="76" x="835.5" y="560.5684">publishedBy</text></g><!--SRC=[jLPDR-Cs4BtpLn2vnDjrjkrLXmKSPui6M0H5ZEqreAcnpIv5iYI5LXlqltSeKX9fIK6Behw8d7blFZWpf6_TLw4CiwoXZLQQNwnkW7hR0faqXl6lx0m7tqcW5hXdwYnpWBkmMlyXr9cUc7IvHWe5lZD0ZPPTs93R1QMsNfECnILpRkUz5SVMmoFNwY2-0Vs1a5i99q-zfbQSBvxM8eGZj2Aavz1dE0ldmVugdF1V7b_9NukQlLRUQYd1qbT2yVT-JRyvy0lKhOIwLpo3qVZHjjlIAy6xQ6XlWNdeTLVShJP2OQoxesxzVUimU-UsVNJY93WBUIGZP_0brzrtkpCe_yGQsB1X5T5t5E6V6YDr1_0J5l20Tj7MvXsPqjyP8vEFf2P3viwZc0SZZmhNYiCcXH5a-zPQT3VP74r-SM2lRI4XY4DmzzsdXWaP6MCHqca9SEdaxmfXxdcAXbO5Q8Ai5IStCrUD6QpHNrUgy1ax9EVlbD8jHjZW0GtPXDDiNThKs0fnoNNJY7XMlUsSkecSRK1lgR7QWFNTTg9aBdz9sk3kxe0JWaFt-91jXiOAefFKp5E7ipFjQX5FzUM4dVBYB_32XUzUECO1Te8PApZqbHjo3Kqtr2pvKbZcA71HO11fS9gZK231ip-VskROcvvmhAvjZ371p4KhM012QA5uOiM05hszbs8gm2oqm_yQsbepfMW-Qyxa0zOrQuL-UyHirC-wjPaCL3rAq6puHDEPnTXNAQUb2sL29L1vmOpgz__jYfh7DniVFCcXLj4Xaw8UxyO5C-6mWeVNMGxu0V0pSQsrpIepbkoRC7jTmzp3NlXkRZqCmDFGBmN-GOHYSp_dr4apyahY0ISQvgmmw31HUXB-YclnxcDvJLPKf8kGp2_nW5wGPforT-_3p8tDhrYow0oztVnuaz_yo6kpTu2i-_km5EcRyFo18LSlUun_aVjs3BtiRSZQiu2vhgd-WS_2pen-3Gd7t1_tTpT3oAjXvTWI59ehVsaID9LnU4kgySqXP92Lo64oAohJYf11Dhd7RnYmgXyeGiAwK0xJL8tJGyWWAu3zz5HnMjvEeKotcgNVV_uTfTptCSK7flyNydiBMENwllj-npcOk7o6t_1lQ5WE7WChlfZLsAPHN-IImqnxbC9TUjJV]--></g></svg>