<?xml version="1.0" encoding="us-ascii" standalone="no"?><svg xmlns="http://www.w3.org/2000/svg" xmlns:xlink="http://www.w3.org/1999/xlink" contentStyleType="text/css" height="707px" preserveAspectRatio="none" style="width:1385px;height:707px;background:#FFFFFF;" version="1.1" viewBox="0 0 1385 707" width="1385px" zoomAndPan="magnify"><defs/><g><text fill="#000000" font-family="sans-serif" font-size="14" font-weight="bold" lengthAdjust="spacing" textLength="231" x="578.5" y="28.5352">System Sequence Diagram (SSD)</text><rect fill="#FFFFFF" height="488.9238" style="stroke:#181818;stroke-width:1.0;" width="10" x="38.5" y="128.9766"/><rect fill="#FFFFFF" height="29.3105" style="stroke:#181818;stroke-width:1.0;" width="10" x="891.5" y="150.2871"/><rect fill="#FFFFFF" height="29.3105" style="stroke:#181818;stroke-width:1.0;" width="10" x="891.5" y="208.9082"/><rect fill="#FFFFFF" height="30" style="stroke:#181818;stroke-width:1.0;" width="10" x="891.5" y="267.5293"/><rect fill="#FFFFFF" height="44.2656" style="stroke:#181818;stroke-width:1.0;" width="10" x="891.5" y="366.4609"/><rect fill="#FFFFFF" height="29.3105" style="stroke:#181818;stroke-width:1.0;" width="10" x="891.5" y="476.3477"/><rect fill="#FFFFFF" height="73.9316" style="stroke:#181818;stroke-width:1.0;" width="10" x="891.5" y="534.9688"/><rect fill="#FFFFFF" height="38.3105" style="stroke:#181818;stroke-width:1.0;" width="10" x="1353.5" y="579.5898"/><rect fill="none" height="106.1973" style="stroke:#000000;stroke-width:1.5;" width="929.5" x="10" y="312.5293"/><line style="stroke:#181818;stroke-width:0.5;stroke-dasharray:5.0,5.0;" x1="43" x2="43" y1="118.9766" y2="626.9004"/><line style="stroke:#181818;stroke-width:0.5;stroke-dasharray:5.0,5.0;" x1="896.5" x2="896.5" y1="118.9766" y2="626.9004"/><line style="stroke:#181818;stroke-width:0.5;stroke-dasharray:5.0,5.0;" x1="1358" x2="1358" y1="118.9766" y2="626.9004"/><text fill="#000000" font-family="sans-serif" font-size="14" lengthAdjust="spacing" textLength="41" x="20" y="116.0234">Agent</text><ellipse cx="43.5" cy="50.9883" fill="#E3E3E3" rx="8" ry="8" style="stroke:#181818;stroke-width:0.5;"/><path d="M43.5,58.9883 L43.5,85.9883 M30.5,66.9883 L56.5,66.9883 M43.5,85.9883 L30.5,100.9883 M43.5,85.9883 L56.5,100.9883 " fill="none" style="stroke:#181818;stroke-width:0.5;"/><text fill="#000000" font-family="sans-serif" font-size="14" lengthAdjust="spacing" textLength="41" x="20" y="639.4355">Agent</text><ellipse cx="43.5" cy="650.8887" fill="#E3E3E3" rx="8" ry="8" style="stroke:#181818;stroke-width:0.5;"/><path d="M43.5,658.8887 L43.5,685.8887 M30.5,666.8887 L56.5,666.8887 M43.5,685.8887 L30.5,700.8887 M43.5,685.8887 L56.5,700.8887 " fill="none" style="stroke:#181818;stroke-width:0.5;"/><rect fill="#E3E3E3" height="30.4883" rx="2.5" ry="2.5" style="stroke:#181818;stroke-width:0.5;" width="66" x="863.5" y="87.4883"/><text fill="#000000" font-family="sans-serif" font-size="14" lengthAdjust="spacing" textLength="52" x="870.5" y="108.0234">:System</text><rect fill="#E3E3E3" height="30.4883" rx="2.5" ry="2.5" style="stroke:#181818;stroke-width:0.5;" width="66" x="863.5" y="625.9004"/><text fill="#000000" font-family="sans-serif" font-size="14" lengthAdjust="spacing" textLength="52" x="870.5" y="646.4355">:System</text><text fill="#000000" font-family="sans-serif" font-size="14" lengthAdjust="spacing" textLength="45" x="1333" y="116.0234">Owner</text><ellipse cx="1358.5" cy="50.9883" fill="#E3E3E3" rx="8" ry="8" style="stroke:#181818;stroke-width:0.5;"/><path d="M1358.5,58.9883 L1358.5,85.9883 M1345.5,66.9883 L1371.5,66.9883 M1358.5,85.9883 L1345.5,100.9883 M1358.5,85.9883 L1371.5,100.9883 " fill="none" style="stroke:#181818;stroke-width:0.5;"/><text fill="#000000" font-family="sans-serif" font-size="14" lengthAdjust="spacing" textLength="45" x="1333" y="639.4355">Owner</text><ellipse cx="1358.5" cy="650.8887" fill="#E3E3E3" rx="8" ry="8" style="stroke:#181818;stroke-width:0.5;"/><path d="M1358.5,658.8887 L1358.5,685.8887 M1345.5,666.8887 L1371.5,666.8887 M1358.5,685.8887 L1345.5,700.8887 M1358.5,685.8887 L1371.5,700.8887 " fill="none" style="stroke:#181818;stroke-width:0.5;"/><rect fill="#FFFFFF" height="488.9238" style="stroke:#181818;stroke-width:1.0;" width="10" x="38.5" y="128.9766"/><rect fill="#FFFFFF" height="29.3105" style="stroke:#181818;stroke-width:1.0;" width="10" x="891.5" y="150.2871"/><rect fill="#FFFFFF" height="29.3105" style="stroke:#181818;stroke-width:1.0;" width="10" x="891.5" y="208.9082"/><rect fill="#FFFFFF" height="30" style="stroke:#181818;stroke-width:1.0;" width="10" x="891.5" y="267.5293"/><rect fill="#FFFFFF" height="44.2656" style="stroke:#181818;stroke-width:1.0;" width="10" x="891.5" y="366.4609"/><rect fill="#FFFFFF" height="29.3105" style="stroke:#181818;stroke-width:1.0;" width="10" x="891.5" y="476.3477"/><rect fill="#FFFFFF" height="73.9316" style="stroke:#181818;stroke-width:1.0;" width="10" x="891.5" y="534.9688"/><rect fill="#FFFFFF" height="38.3105" style="stroke:#181818;stroke-width:1.0;" width="10" x="1353.5" y="579.5898"/><polygon fill="#181818" points="879.5,146.2871,889.5,150.2871,879.5,154.2871,883.5,150.2871" style="stroke:#181818;stroke-width:1.0;"/><line style="stroke:#181818;stroke-width:1.0;" x1="48.5" x2="885.5" y1="150.2871" y2="150.2871"/><text fill="#000000" font-family="sans-serif" font-size="13" font-weight="bold" lengthAdjust="spacing" textLength="9" x="55.5" y="145.5449">1</text><text fill="#000000" font-family="sans-serif" font-size="13" lengthAdjust="spacing" textLength="213" x="68.5" y="145.5449">asks to publish an announcement</text><polygon fill="#181818" points="59.5,175.5977,49.5,179.5977,59.5,183.5977,55.5,179.5977" style="stroke:#181818;stroke-width:1.0;"/><line style="stroke:#181818;stroke-width:1.0;stroke-dasharray:2.0,2.0;" x1="53.5" x2="895.5" y1="179.5977" y2="179.5977"/><text fill="#000000" font-family="sans-serif" font-size="13" font-weight="bold" lengthAdjust="spacing" textLength="9" x="65.5" y="174.8555">2</text><text fill="#000000" font-family="sans-serif" font-size="13" lengthAdjust="spacing" textLength="85" x="78.5" y="174.8555">requests data</text><polygon fill="#181818" points="879.5,204.9082,889.5,208.9082,879.5,212.9082,883.5,208.9082" style="stroke:#181818;stroke-width:1.0;"/><line style="stroke:#181818;stroke-width:1.0;" x1="48.5" x2="885.5" y1="208.9082" y2="208.9082"/><text fill="#000000" font-family="sans-serif" font-size="13" font-weight="bold" lengthAdjust="spacing" textLength="9" x="55.5" y="204.166">3</text><text fill="#000000" font-family="sans-serif" font-size="13" lengthAdjust="spacing" textLength="149" x="68.5" y="204.166">Select the property type</text><polygon fill="#181818" points="59.5,234.2188,49.5,238.2188,59.5,242.2188,55.5,238.2188" style="stroke:#181818;stroke-width:1.0;"/><line style="stroke:#181818;stroke-width:1.0;stroke-dasharray:2.0,2.0;" x1="53.5" x2="895.5" y1="238.2188" y2="238.2188"/><text fill="#000000" font-family="sans-serif" font-size="13" font-weight="bold" lengthAdjust="spacing" textLength="9" x="65.5" y="233.4766">4</text><text fill="#000000" font-family="sans-serif" font-size="13" lengthAdjust="spacing" textLength="345" x="78.5" y="233.4766">presents the data to be filled in by the type of property</text><polygon fill="#181818" points="879.5,263.5293,889.5,267.5293,879.5,271.5293,883.5,267.5293" style="stroke:#181818;stroke-width:1.0;"/><line style="stroke:#181818;stroke-width:1.0;" x1="48.5" x2="885.5" y1="267.5293" y2="267.5293"/><text fill="#000000" font-family="sans-serif" font-size="13" font-weight="bold" lengthAdjust="spacing" textLength="9" x="55.5" y="262.7871">5</text><text fill="#000000" font-family="sans-serif" font-size="13" lengthAdjust="spacing" textLength="718" x="68.5" y="262.7871">insert the requested data common to all property (size, location, distance from the city center, price, commission)</text><path d="M10,312.5293 L72,312.5293 L72,319.8398 L62,329.8398 L10,329.8398 L10,312.5293 " fill="#EEEEEE" style="stroke:#000000;stroke-width:1.5;"/><rect fill="none" height="106.1973" style="stroke:#000000;stroke-width:1.5;" width="929.5" x="10" y="312.5293"/><text fill="#000000" font-family="sans-serif" font-size="13" font-weight="bold" lengthAdjust="spacing" textLength="17" x="25" y="326.0977">alt</text><text fill="#000000" font-family="sans-serif" font-size="11" font-weight="bold" lengthAdjust="spacing" textLength="43" x="87" y="325.1641">[House]</text><polygon fill="#181818" points="879.5,362.4609,889.5,366.4609,879.5,370.4609,883.5,366.4609" style="stroke:#181818;stroke-width:1.0;"/><line style="stroke:#181818;stroke-width:1.0;" x1="48.5" x2="885.5" y1="366.4609" y2="366.4609"/><text fill="#000000" font-family="sans-serif" font-size="13" font-weight="bold" lengthAdjust="spacing" textLength="9" x="55.5" y="354.0635">6</text><text fill="#000000" font-family="sans-serif" font-size="13" lengthAdjust="spacing" textLength="463" x="68.5" y="346.4082">insert the data of the house (number of bedrooms, number of bathrooms,</text><text fill="#000000" font-family="sans-serif" font-size="13" lengthAdjust="spacing" textLength="667" x="72.5" y="361.7188">number  of parking spaces, available equipments, sun exposure,inhabitable loft,\ existence of basement )</text><line style="stroke:#000000;stroke-width:1.0;stroke-dasharray:2.0,2.0;" x1="10" x2="939.5" y1="375.4609" y2="375.4609"/><text fill="#000000" font-family="sans-serif" font-size="11" font-weight="bold" lengthAdjust="spacing" textLength="66" x="15" y="386.0957">[Apartment]</text><polygon fill="#181818" points="884.5,406.7266,894.5,410.7266,884.5,414.7266,888.5,410.7266" style="stroke:#181818;stroke-width:1.0;"/><line style="stroke:#181818;stroke-width:1.0;" x1="48.5" x2="890.5" y1="410.7266" y2="410.7266"/><text fill="#000000" font-family="sans-serif" font-size="13" font-weight="bold" lengthAdjust="spacing" textLength="9" x="55.5" y="405.9844">7</text><text fill="#000000" font-family="sans-serif" font-size="13" lengthAdjust="spacing" textLength="806" x="68.5" y="405.9844">insert the data of the apartment (number of bedrooms, number of bathrooms, number  of parking spaces, available equipments)</text><polygon fill="#181818" points="59.5,443.0371,49.5,447.0371,59.5,451.0371,55.5,447.0371" style="stroke:#181818;stroke-width:1.0;"/><line style="stroke:#181818;stroke-width:1.0;stroke-dasharray:2.0,2.0;" x1="53.5" x2="895.5" y1="447.0371" y2="447.0371"/><text fill="#000000" font-family="sans-serif" font-size="13" font-weight="bold" lengthAdjust="spacing" textLength="9" x="65.5" y="442.2949">8</text><text fill="#000000" font-family="sans-serif" font-size="13" lengthAdjust="spacing" textLength="266" x="78.5" y="442.2949">requests owner's name and phone number</text><polygon fill="#181818" points="879.5,472.3477,889.5,476.3477,879.5,480.3477,883.5,476.3477" style="stroke:#181818;stroke-width:1.0;"/><line style="stroke:#181818;stroke-width:1.0;" x1="48.5" x2="885.5" y1="476.3477" y2="476.3477"/><text fill="#000000" font-family="sans-serif" font-size="13" font-weight="bold" lengthAdjust="spacing" textLength="9" x="55.5" y="471.6055">9</text><text fill="#000000" font-family="sans-serif" font-size="13" lengthAdjust="spacing" textLength="91" x="68.5" y="471.6055">insert the data</text><polygon fill="#181818" points="59.5,501.6582,49.5,505.6582,59.5,509.6582,55.5,505.6582" style="stroke:#181818;stroke-width:1.0;"/><line style="stroke:#181818;stroke-width:1.0;stroke-dasharray:2.0,2.0;" x1="53.5" x2="895.5" y1="505.6582" y2="505.6582"/><text fill="#000000" font-family="sans-serif" font-size="13" font-weight="bold" lengthAdjust="spacing" textLength="18" x="65.5" y="500.916">10</text><text fill="#000000" font-family="sans-serif" font-size="13" lengthAdjust="spacing" textLength="104" x="87.5" y="500.916">validate the data</text><polygon fill="#181818" points="879.5,530.9688,889.5,534.9688,879.5,538.9688,883.5,534.9688" style="stroke:#181818;stroke-width:1.0;"/><line style="stroke:#181818;stroke-width:1.0;" x1="48.5" x2="885.5" y1="534.9688" y2="534.9688"/><text fill="#000000" font-family="sans-serif" font-size="13" font-weight="bold" lengthAdjust="spacing" textLength="18" x="55.5" y="530.2266">11</text><text fill="#000000" font-family="sans-serif" font-size="13" lengthAdjust="spacing" textLength="82" x="77.5" y="530.2266">submits data</text><polygon fill="#181818" points="1341.5,575.5898,1351.5,579.5898,1341.5,583.5898,1345.5,579.5898" style="stroke:#181818;stroke-width:1.0;"/><line style="stroke:#181818;stroke-width:1.0;stroke-dasharray:2.0,2.0;" x1="901.5" x2="1347.5" y1="579.5898" y2="579.5898"/><text fill="#000000" font-family="sans-serif" font-size="13" font-weight="bold" lengthAdjust="spacing" textLength="18" x="908.5" y="567.1924">12</text><text fill="#000000" font-family="sans-serif" font-size="13" lengthAdjust="spacing" textLength="305" x="930.5" y="559.5371">Sends a notification about the publication of the</text><text fill="#000000" font-family="sans-serif" font-size="13" lengthAdjust="spacing" textLength="407" x="934.5" y="574.8477">announcement (id, publication date, agent name, agent number )</text><polygon fill="#181818" points="59.5,604.9004,49.5,608.9004,59.5,612.9004,55.5,608.9004" style="stroke:#181818;stroke-width:1.0;"/><line style="stroke:#181818;stroke-width:1.0;stroke-dasharray:2.0,2.0;" x1="53.5" x2="895.5" y1="608.9004" y2="608.9004"/><text fill="#000000" font-family="sans-serif" font-size="13" font-weight="bold" lengthAdjust="spacing" textLength="18" x="65.5" y="604.1582">13</text><text fill="#000000" font-family="sans-serif" font-size="13" lengthAdjust="spacing" textLength="170" x="87.5" y="604.1582">displays operation success</text><!--SRC=[dLMnZjim3Dtz5KIMvW3V3sGeSC0LwDOXQnRQPc8YigGJvLpThoybEqu2fBwaHWQ59X_vg4TQZcmz1koWSzRLRN0TGGmz5JA_yLWVyK3RE1Y2G7L4Up3N3j9YupxP7c2FHgWe8aTrtGuIgOCjVVHaQu9tnaDoNs-txoz5WNrqjkyg2dgkemkmUZkGZIj0WH-TDsuWAZH3v9ezsWYhpGYPFSRZEVBNfwMGxVcK4Vc4aIv81UXp_WUlty_rRJJgA10T-BuoB2sWrPzrlHRTQK4vSCQRycPZUYQKLmMSmJVQ9YKjKQ31YDcteRiGTmlQaj4sGsm9V72UGXmW3fxkL_9LBJwGA0t9UAcUnBKYsBCnr01Rg8RyBgK0jvzp5ayNpbOqC8DD7T04EMNjEbLOoep6N5YjXVzG2SRL6DdP4XeMrPUgPQzIp40rgr-j12YK6iYr-YSq5j68bt_V3fe8FrqljCZZ4IwPWJOcdTk42EjHkSbOKHESwwI4Anl6TZJkxDcSEulXcEP4TAP88_24RB3IOT5kiKzgKwlq5kYtTz87AjcsM77CJiRjOxdJTzgaF58vbMILmijCPqclf0CARscgPcd3_xG1pn2Fj-BPHjmIkduMhd8aQPjYUMg_d5kNriWt0Okw4D4su5jdQQ9GF5RA8_rSlhIlHlk4XfiKS0FtpCHANtLylQVkqxbAdnTiNbAs4K2mBlAUn_a5h5m_BQwqJ2Vhg9dTxLg5DJVbZLjYeb987u7Sz_aywkQYXxd6QTalT4ZtYJSuw8NgmXdJI5-hvgHOLjHV]--></g></svg>