<?xml version="1.0" encoding="us-ascii" standalone="no"?><svg xmlns="http://www.w3.org/2000/svg" xmlns:xlink="http://www.w3.org/1999/xlink" contentStyleType="text/css" height="1325px" preserveAspectRatio="none" style="width:1435px;height:1325px;background:#FFFFFF;" version="1.1" viewBox="0 0 1435 1325" width="1435px" zoomAndPan="magnify"><defs/><g><text fill="#000000" font-family="sans-serif" font-size="14" font-weight="bold" lengthAdjust="spacing" textLength="231" x="603.5" y="28.5352">System Sequence Diagram (SSD)</text><rect fill="#FFFFFF" height="1106.7109" style="stroke:#181818;stroke-width:1.0;" width="10" x="38.5" y="128.9766"/><rect fill="#FFFFFF" height="58.6211" style="stroke:#181818;stroke-width:1.0;" width="10" x="946.5" y="150.2871"/><rect fill="#FFFFFF" height="29.3105" style="stroke:#181818;stroke-width:1.0;" width="10" x="946.5" y="238.2188"/><rect fill="#FFFFFF" height="29.3105" style="stroke:#181818;stroke-width:1.0;" width="10" x="946.5" y="296.8398"/><rect fill="#FFFFFF" height="29.3105" style="stroke:#181818;stroke-width:1.0;" width="10" x="946.5" y="355.4609"/><rect fill="#FFFFFF" height="29.3105" style="stroke:#181818;stroke-width:1.0;" width="10" x="946.5" y="438.3926"/><rect fill="#FFFFFF" height="44.6211" style="stroke:#181818;stroke-width:1.0;" width="10" x="946.5" y="512.3242"/><rect fill="#FFFFFF" height="29.3105" style="stroke:#181818;stroke-width:1.0;" width="10" x="946.5" y="586.2559"/><rect fill="#FFFFFF" height="29.3105" style="stroke:#181818;stroke-width:1.0;" width="10" x="946.5" y="659.832"/><rect fill="#FFFFFF" height="29.3105" style="stroke:#181818;stroke-width:1.0;" width="10" x="946.5" y="718.4531"/><rect fill="#FFFFFF" height="29.3105" style="stroke:#181818;stroke-width:1.0;" width="10" x="946.5" y="808.3848"/><rect fill="#FFFFFF" height="29.3105" style="stroke:#181818;stroke-width:1.0;" width="10" x="946.5" y="881.9609"/><rect fill="#FFFFFF" height="29.3105" style="stroke:#181818;stroke-width:1.0;" width="10" x="946.5" y="940.582"/><rect fill="#FFFFFF" height="29.3105" style="stroke:#181818;stroke-width:1.0;" width="10" x="946.5" y="1006.2031"/><rect fill="#FFFFFF" height="29.3105" style="stroke:#181818;stroke-width:1.0;" width="10" x="946.5" y="1064.8242"/><rect fill="#FFFFFF" height="29.3105" style="stroke:#181818;stroke-width:1.0;" width="10" x="946.5" y="1123.4453"/><rect fill="#FFFFFF" height="29.3105" style="stroke:#181818;stroke-width:1.0;" width="10" x="946.5" y="1197.377"/><rect fill="#FFFFFF" height="38.3105" style="stroke:#181818;stroke-width:1.0;" width="10" x="1403.5" y="1197.377"/><rect fill="none" height="355.9922" style="stroke:#000000;stroke-width:1.5;" width="984.5" x="10" y="399.7715"/><rect fill="none" height="208.1289" style="stroke:#000000;stroke-width:1.5;" width="984.5" x="10" y="769.7637"/><line style="stroke:#181818;stroke-width:0.5;stroke-dasharray:5.0,5.0;" x1="43" x2="43" y1="118.9766" y2="1244.6875"/><line style="stroke:#181818;stroke-width:0.5;stroke-dasharray:5.0,5.0;" x1="951.5" x2="951.5" y1="118.9766" y2="1244.6875"/><line style="stroke:#181818;stroke-width:0.5;stroke-dasharray:5.0,5.0;" x1="1408" x2="1408" y1="118.9766" y2="1244.6875"/><text fill="#000000" font-family="sans-serif" font-size="14" lengthAdjust="spacing" textLength="41" x="20" y="116.0234">Agent</text><ellipse cx="43.5" cy="50.9883" fill="#E3E3E3" rx="8" ry="8" style="stroke:#181818;stroke-width:0.5;"/><path d="M43.5,58.9883 L43.5,85.9883 M30.5,66.9883 L56.5,66.9883 M43.5,85.9883 L30.5,100.9883 M43.5,85.9883 L56.5,100.9883 " fill="none" style="stroke:#181818;stroke-width:0.5;"/><text fill="#000000" font-family="sans-serif" font-size="14" lengthAdjust="spacing" textLength="41" x="20" y="1257.2227">Agent</text><ellipse cx="43.5" cy="1268.6758" fill="#E3E3E3" rx="8" ry="8" style="stroke:#181818;stroke-width:0.5;"/><path d="M43.5,1276.6758 L43.5,1303.6758 M30.5,1284.6758 L56.5,1284.6758 M43.5,1303.6758 L30.5,1318.6758 M43.5,1303.6758 L56.5,1318.6758 " fill="none" style="stroke:#181818;stroke-width:0.5;"/><rect fill="#E3E3E3" height="30.4883" rx="2.5" ry="2.5" style="stroke:#181818;stroke-width:0.5;" width="66" x="918.5" y="87.4883"/><text fill="#000000" font-family="sans-serif" font-size="14" lengthAdjust="spacing" textLength="52" x="925.5" y="108.0234">:System</text><rect fill="#E3E3E3" height="30.4883" rx="2.5" ry="2.5" style="stroke:#181818;stroke-width:0.5;" width="66" x="918.5" y="1243.6875"/><text fill="#000000" font-family="sans-serif" font-size="14" lengthAdjust="spacing" textLength="52" x="925.5" y="1264.2227">:System</text><text fill="#000000" font-family="sans-serif" font-size="14" lengthAdjust="spacing" textLength="45" x="1383" y="116.0234">Owner</text><ellipse cx="1408.5" cy="50.9883" fill="#E3E3E3" rx="8" ry="8" style="stroke:#181818;stroke-width:0.5;"/><path d="M1408.5,58.9883 L1408.5,85.9883 M1395.5,66.9883 L1421.5,66.9883 M1408.5,85.9883 L1395.5,100.9883 M1408.5,85.9883 L1421.5,100.9883 " fill="none" style="stroke:#181818;stroke-width:0.5;"/><text fill="#000000" font-family="sans-serif" font-size="14" lengthAdjust="spacing" textLength="45" x="1383" y="1257.2227">Owner</text><ellipse cx="1408.5" cy="1268.6758" fill="#E3E3E3" rx="8" ry="8" style="stroke:#181818;stroke-width:0.5;"/><path d="M1408.5,1276.6758 L1408.5,1303.6758 M1395.5,1284.6758 L1421.5,1284.6758 M1408.5,1303.6758 L1395.5,1318.6758 M1408.5,1303.6758 L1421.5,1318.6758 " fill="none" style="stroke:#181818;stroke-width:0.5;"/><rect fill="#FFFFFF" height="1106.7109" style="stroke:#181818;stroke-width:1.0;" width="10" x="38.5" y="128.9766"/><rect fill="#FFFFFF" height="58.6211" style="stroke:#181818;stroke-width:1.0;" width="10" x="946.5" y="150.2871"/><rect fill="#FFFFFF" height="29.3105" style="stroke:#181818;stroke-width:1.0;" width="10" x="946.5" y="238.2188"/><rect fill="#FFFFFF" height="29.3105" style="stroke:#181818;stroke-width:1.0;" width="10" x="946.5" y="296.8398"/><rect fill="#FFFFFF" height="29.3105" style="stroke:#181818;stroke-width:1.0;" width="10" x="946.5" y="355.4609"/><rect fill="#FFFFFF" height="29.3105" style="stroke:#181818;stroke-width:1.0;" width="10" x="946.5" y="438.3926"/><rect fill="#FFFFFF" height="44.6211" style="stroke:#181818;stroke-width:1.0;" width="10" x="946.5" y="512.3242"/><rect fill="#FFFFFF" height="29.3105" style="stroke:#181818;stroke-width:1.0;" width="10" x="946.5" y="586.2559"/><rect fill="#FFFFFF" height="29.3105" style="stroke:#181818;stroke-width:1.0;" width="10" x="946.5" y="659.832"/><rect fill="#FFFFFF" height="29.3105" style="stroke:#181818;stroke-width:1.0;" width="10" x="946.5" y="718.4531"/><rect fill="#FFFFFF" height="29.3105" style="stroke:#181818;stroke-width:1.0;" width="10" x="946.5" y="808.3848"/><rect fill="#FFFFFF" height="29.3105" style="stroke:#181818;stroke-width:1.0;" width="10" x="946.5" y="881.9609"/><rect fill="#FFFFFF" height="29.3105" style="stroke:#181818;stroke-width:1.0;" width="10" x="946.5" y="940.582"/><rect fill="#FFFFFF" height="29.3105" style="stroke:#181818;stroke-width:1.0;" width="10" x="946.5" y="1006.2031"/><rect fill="#FFFFFF" height="29.3105" style="stroke:#181818;stroke-width:1.0;" width="10" x="946.5" y="1064.8242"/><rect fill="#FFFFFF" height="29.3105" style="stroke:#181818;stroke-width:1.0;" width="10" x="946.5" y="1123.4453"/><rect fill="#FFFFFF" height="29.3105" style="stroke:#181818;stroke-width:1.0;" width="10" x="946.5" y="1197.377"/><rect fill="#FFFFFF" height="38.3105" style="stroke:#181818;stroke-width:1.0;" width="10" x="1403.5" y="1197.377"/><polygon fill="#181818" points="934.5,146.2871,944.5,150.2871,934.5,154.2871,938.5,150.2871" style="stroke:#181818;stroke-width:1.0;"/><line style="stroke:#181818;stroke-width:1.0;" x1="48.5" x2="940.5" y1="150.2871" y2="150.2871"/><text fill="#000000" font-family="sans-serif" font-size="13" font-weight="bold" lengthAdjust="spacing" textLength="9" x="55.5" y="145.5449">1</text><text fill="#000000" font-family="sans-serif" font-size="13" lengthAdjust="spacing" textLength="213" x="68.5" y="145.5449">asks to publish an announcement</text><polygon fill="#181818" points="59.5,175.5977,49.5,179.5977,59.5,183.5977,55.5,179.5977" style="stroke:#181818;stroke-width:1.0;"/><line style="stroke:#181818;stroke-width:1.0;stroke-dasharray:2.0,2.0;" x1="53.5" x2="945.5" y1="179.5977" y2="179.5977"/><text fill="#000000" font-family="sans-serif" font-size="13" font-weight="bold" lengthAdjust="spacing" textLength="9" x="65.5" y="174.8555">2</text><text fill="#000000" font-family="sans-serif" font-size="13" lengthAdjust="spacing" textLength="207" x="78.5" y="174.8555">presents the type of property list</text><polygon fill="#181818" points="939.5,204.9082,949.5,208.9082,939.5,212.9082,943.5,208.9082" style="stroke:#181818;stroke-width:1.0;"/><line style="stroke:#181818;stroke-width:1.0;" x1="48.5" x2="945.5" y1="208.9082" y2="208.9082"/><text fill="#000000" font-family="sans-serif" font-size="13" font-weight="bold" lengthAdjust="spacing" textLength="9" x="55.5" y="204.166">3</text><text fill="#000000" font-family="sans-serif" font-size="13" lengthAdjust="spacing" textLength="149" x="68.5" y="204.166">Select the property type</text><polygon fill="#181818" points="59.5,234.2188,49.5,238.2188,59.5,242.2188,55.5,238.2188" style="stroke:#181818;stroke-width:1.0;"/><line style="stroke:#181818;stroke-width:1.0;stroke-dasharray:2.0,2.0;" x1="53.5" x2="945.5" y1="238.2188" y2="238.2188"/><text fill="#000000" font-family="sans-serif" font-size="13" font-weight="bold" lengthAdjust="spacing" textLength="9" x="65.5" y="233.4766">4</text><text fill="#000000" font-family="sans-serif" font-size="13" lengthAdjust="spacing" textLength="547" x="78.5" y="233.4766">requests all common data to all property (area, distance from city center, photographs)</text><polygon fill="#181818" points="939.5,263.5293,949.5,267.5293,939.5,271.5293,943.5,267.5293" style="stroke:#181818;stroke-width:1.0;"/><line style="stroke:#181818;stroke-width:1.0;" x1="48.5" x2="945.5" y1="267.5293" y2="267.5293"/><text fill="#000000" font-family="sans-serif" font-size="13" font-weight="bold" lengthAdjust="spacing" textLength="9" x="55.5" y="262.7871">5</text><text fill="#000000" font-family="sans-serif" font-size="13" lengthAdjust="spacing" textLength="624" x="68.5" y="262.7871">insert the requested data common to all property (area, distance from the city center, photographs)</text><polygon fill="#181818" points="59.5,292.8398,49.5,296.8398,59.5,300.8398,55.5,296.8398" style="stroke:#181818;stroke-width:1.0;"/><line style="stroke:#181818;stroke-width:1.0;stroke-dasharray:2.0,2.0;" x1="53.5" x2="945.5" y1="296.8398" y2="296.8398"/><text fill="#000000" font-family="sans-serif" font-size="13" font-weight="bold" lengthAdjust="spacing" textLength="9" x="65.5" y="292.0977">6</text><text fill="#000000" font-family="sans-serif" font-size="13" lengthAdjust="spacing" textLength="116" x="78.5" y="292.0977">presents cities list</text><polygon fill="#181818" points="939.5,322.1504,949.5,326.1504,939.5,330.1504,943.5,326.1504" style="stroke:#181818;stroke-width:1.0;"/><line style="stroke:#181818;stroke-width:1.0;" x1="48.5" x2="945.5" y1="326.1504" y2="326.1504"/><text fill="#000000" font-family="sans-serif" font-size="13" font-weight="bold" lengthAdjust="spacing" textLength="9" x="55.5" y="321.4082">7</text><text fill="#000000" font-family="sans-serif" font-size="13" lengthAdjust="spacing" textLength="88" x="68.5" y="321.4082">select the city</text><polygon fill="#181818" points="59.5,351.4609,49.5,355.4609,59.5,359.4609,55.5,355.4609" style="stroke:#181818;stroke-width:1.0;"/><line style="stroke:#181818;stroke-width:1.0;stroke-dasharray:2.0,2.0;" x1="53.5" x2="945.5" y1="355.4609" y2="355.4609"/><text fill="#000000" font-family="sans-serif" font-size="13" font-weight="bold" lengthAdjust="spacing" textLength="9" x="65.5" y="350.7188">8</text><text fill="#000000" font-family="sans-serif" font-size="13" lengthAdjust="spacing" textLength="306" x="78.5" y="350.7188">requests the other location data (street, zipcode)</text><polygon fill="#181818" points="939.5,380.7715,949.5,384.7715,939.5,388.7715,943.5,384.7715" style="stroke:#181818;stroke-width:1.0;"/><line style="stroke:#181818;stroke-width:1.0;" x1="48.5" x2="945.5" y1="384.7715" y2="384.7715"/><text fill="#000000" font-family="sans-serif" font-size="13" font-weight="bold" lengthAdjust="spacing" textLength="9" x="55.5" y="380.0293">9</text><text fill="#000000" font-family="sans-serif" font-size="13" lengthAdjust="spacing" textLength="251" x="68.5" y="380.0293">insert the location data (street, zipcode)</text><path d="M10,399.7715 L72,399.7715 L72,407.082 L62,417.082 L10,417.082 L10,399.7715 " fill="#EEEEEE" style="stroke:#000000;stroke-width:1.5;"/><rect fill="none" height="355.9922" style="stroke:#000000;stroke-width:1.5;" width="984.5" x="10" y="399.7715"/><text fill="#000000" font-family="sans-serif" font-size="13" font-weight="bold" lengthAdjust="spacing" textLength="17" x="25" y="413.3398">alt</text><text fill="#000000" font-family="sans-serif" font-size="11" font-weight="bold" lengthAdjust="spacing" textLength="43" x="87" y="412.4063">[House]</text><polygon fill="#181818" points="59.5,434.3926,49.5,438.3926,59.5,442.3926,55.5,438.3926" style="stroke:#181818;stroke-width:1.0;"/><line style="stroke:#181818;stroke-width:1.0;stroke-dasharray:2.0,2.0;" x1="53.5" x2="945.5" y1="438.3926" y2="438.3926"/><text fill="#000000" font-family="sans-serif" font-size="13" font-weight="bold" lengthAdjust="spacing" textLength="18" x="65.5" y="433.6504">10</text><text fill="#000000" font-family="sans-serif" font-size="13" lengthAdjust="spacing" textLength="163" x="87.5" y="433.6504">requests the door number</text><polygon fill="#181818" points="939.5,463.7031,949.5,467.7031,939.5,471.7031,943.5,467.7031" style="stroke:#181818;stroke-width:1.0;"/><line style="stroke:#181818;stroke-width:1.0;" x1="48.5" x2="945.5" y1="467.7031" y2="467.7031"/><text fill="#000000" font-family="sans-serif" font-size="13" font-weight="bold" lengthAdjust="spacing" textLength="18" x="55.5" y="462.9609">11</text><text fill="#000000" font-family="sans-serif" font-size="13" lengthAdjust="spacing" textLength="145" x="77.5" y="462.9609">insert the door number</text><polygon fill="#181818" points="59.5,508.3242,49.5,512.3242,59.5,516.3242,55.5,512.3242" style="stroke:#181818;stroke-width:1.0;"/><line style="stroke:#181818;stroke-width:1.0;stroke-dasharray:2.0,2.0;" x1="53.5" x2="945.5" y1="512.3242" y2="512.3242"/><text fill="#000000" font-family="sans-serif" font-size="13" font-weight="bold" lengthAdjust="spacing" textLength="18" x="65.5" y="499.9268">12</text><text fill="#000000" font-family="sans-serif" font-size="13" lengthAdjust="spacing" textLength="857" x="87.5" y="492.2715">requests the  house data (number of bedrooms, number of bathrooms,number  of parking spaces, available equipments,inhabitable loft,</text><text fill="#000000" font-family="sans-serif" font-size="13" lengthAdjust="spacing" textLength="150" x="91.5" y="507.582">existence of basement )</text><polygon fill="#181818" points="939.5,552.9453,949.5,556.9453,939.5,560.9453,943.5,556.9453" style="stroke:#181818;stroke-width:1.0;"/><line style="stroke:#181818;stroke-width:1.0;" x1="48.5" x2="945.5" y1="556.9453" y2="556.9453"/><text fill="#000000" font-family="sans-serif" font-size="13" font-weight="bold" lengthAdjust="spacing" textLength="18" x="55.5" y="544.5479">13</text><text fill="#000000" font-family="sans-serif" font-size="13" lengthAdjust="spacing" textLength="839" x="77.5" y="536.8926">insert the house data (number of bedrooms, number of bathrooms, number  of parking spaces, available equipments,inhabitable loft,</text><text fill="#000000" font-family="sans-serif" font-size="13" lengthAdjust="spacing" textLength="150" x="81.5" y="552.2031">existence of basement )</text><polygon fill="#181818" points="59.5,582.2559,49.5,586.2559,59.5,590.2559,55.5,586.2559" style="stroke:#181818;stroke-width:1.0;"/><line style="stroke:#181818;stroke-width:1.0;stroke-dasharray:2.0,2.0;" x1="53.5" x2="945.5" y1="586.2559" y2="586.2559"/><text fill="#000000" font-family="sans-serif" font-size="13" font-weight="bold" lengthAdjust="spacing" textLength="18" x="65.5" y="581.5137">14</text><text fill="#000000" font-family="sans-serif" font-size="13" lengthAdjust="spacing" textLength="160" x="87.5" y="581.5137">present sun exposure list</text><polygon fill="#181818" points="939.5,611.5664,949.5,615.5664,939.5,619.5664,943.5,615.5664" style="stroke:#181818;stroke-width:1.0;"/><line style="stroke:#181818;stroke-width:1.0;" x1="48.5" x2="945.5" y1="615.5664" y2="615.5664"/><text fill="#000000" font-family="sans-serif" font-size="13" font-weight="bold" lengthAdjust="spacing" textLength="18" x="55.5" y="610.8242">15</text><text fill="#000000" font-family="sans-serif" font-size="13" lengthAdjust="spacing" textLength="126" x="77.5" y="610.8242">select sun exposure</text><line style="stroke:#000000;stroke-width:1.0;stroke-dasharray:2.0,2.0;" x1="10" x2="994.5" y1="624.5664" y2="624.5664"/><text fill="#000000" font-family="sans-serif" font-size="11" font-weight="bold" lengthAdjust="spacing" textLength="66" x="15" y="635.2012">[Apartment]</text><polygon fill="#181818" points="59.5,655.832,49.5,659.832,59.5,663.832,55.5,659.832" style="stroke:#181818;stroke-width:1.0;"/><line style="stroke:#181818;stroke-width:1.0;stroke-dasharray:2.0,2.0;" x1="53.5" x2="945.5" y1="659.832" y2="659.832"/><text fill="#000000" font-family="sans-serif" font-size="13" font-weight="bold" lengthAdjust="spacing" textLength="18" x="65.5" y="655.0898">16</text><text fill="#000000" font-family="sans-serif" font-size="13" lengthAdjust="spacing" textLength="163" x="87.5" y="655.0898">requests the door number</text><polygon fill="#181818" points="939.5,685.1426,949.5,689.1426,939.5,693.1426,943.5,689.1426" style="stroke:#181818;stroke-width:1.0;"/><line style="stroke:#181818;stroke-width:1.0;" x1="48.5" x2="945.5" y1="689.1426" y2="689.1426"/><text fill="#000000" font-family="sans-serif" font-size="13" font-weight="bold" lengthAdjust="spacing" textLength="18" x="55.5" y="684.4004">17</text><text fill="#000000" font-family="sans-serif" font-size="13" lengthAdjust="spacing" textLength="145" x="77.5" y="684.4004">insert the door number</text><polygon fill="#181818" points="59.5,714.4531,49.5,718.4531,59.5,722.4531,55.5,718.4531" style="stroke:#181818;stroke-width:1.0;"/><line style="stroke:#181818;stroke-width:1.0;stroke-dasharray:2.0,2.0;" x1="53.5" x2="945.5" y1="718.4531" y2="718.4531"/><text fill="#000000" font-family="sans-serif" font-size="13" font-weight="bold" lengthAdjust="spacing" textLength="18" x="65.5" y="713.7109">18</text><text fill="#000000" font-family="sans-serif" font-size="13" lengthAdjust="spacing" textLength="783" x="87.5" y="713.7109">requests the apartment data (number of bedrooms, number of bathrooms, number  of parking spaces, available equipments)</text><polygon fill="#181818" points="939.5,743.7637,949.5,747.7637,939.5,751.7637,943.5,747.7637" style="stroke:#181818;stroke-width:1.0;"/><line style="stroke:#181818;stroke-width:1.0;" x1="48.5" x2="945.5" y1="747.7637" y2="747.7637"/><text fill="#000000" font-family="sans-serif" font-size="13" font-weight="bold" lengthAdjust="spacing" textLength="18" x="55.5" y="743.0215">19</text><text fill="#000000" font-family="sans-serif" font-size="13" lengthAdjust="spacing" textLength="715" x="77.5" y="743.0215">insert house data (number of bedrooms, number of bathrooms, number  of parking spaces, available equipments)</text><path d="M10,769.7637 L72,769.7637 L72,777.0742 L62,787.0742 L10,787.0742 L10,769.7637 " fill="#EEEEEE" style="stroke:#000000;stroke-width:1.5;"/><rect fill="none" height="208.1289" style="stroke:#000000;stroke-width:1.5;" width="984.5" x="10" y="769.7637"/><text fill="#000000" font-family="sans-serif" font-size="13" font-weight="bold" lengthAdjust="spacing" textLength="17" x="25" y="783.332">alt</text><text fill="#000000" font-family="sans-serif" font-size="11" font-weight="bold" lengthAdjust="spacing" textLength="28" x="87" y="782.3984">[Sell]</text><polygon fill="#181818" points="59.5,804.3848,49.5,808.3848,59.5,812.3848,55.5,808.3848" style="stroke:#181818;stroke-width:1.0;"/><line style="stroke:#181818;stroke-width:1.0;stroke-dasharray:2.0,2.0;" x1="53.5" x2="945.5" y1="808.3848" y2="808.3848"/><text fill="#000000" font-family="sans-serif" font-size="13" font-weight="bold" lengthAdjust="spacing" textLength="18" x="65.5" y="803.6426">20</text><text fill="#000000" font-family="sans-serif" font-size="13" lengthAdjust="spacing" textLength="113" x="87.5" y="803.6426">requests the price</text><polygon fill="#181818" points="939.5,833.6953,949.5,837.6953,939.5,841.6953,943.5,837.6953" style="stroke:#181818;stroke-width:1.0;"/><line style="stroke:#181818;stroke-width:1.0;" x1="48.5" x2="945.5" y1="837.6953" y2="837.6953"/><text fill="#000000" font-family="sans-serif" font-size="13" font-weight="bold" lengthAdjust="spacing" textLength="18" x="55.5" y="832.9531">21</text><text fill="#000000" font-family="sans-serif" font-size="13" lengthAdjust="spacing" textLength="95" x="77.5" y="832.9531">insert the price</text><line style="stroke:#000000;stroke-width:1.0;stroke-dasharray:2.0,2.0;" x1="10" x2="994.5" y1="846.6953" y2="846.6953"/><text fill="#000000" font-family="sans-serif" font-size="11" font-weight="bold" lengthAdjust="spacing" textLength="33" x="15" y="857.3301">[Rent]</text><polygon fill="#181818" points="59.5,877.9609,49.5,881.9609,59.5,885.9609,55.5,881.9609" style="stroke:#181818;stroke-width:1.0;"/><line style="stroke:#181818;stroke-width:1.0;stroke-dasharray:2.0,2.0;" x1="53.5" x2="945.5" y1="881.9609" y2="881.9609"/><text fill="#000000" font-family="sans-serif" font-size="13" font-weight="bold" lengthAdjust="spacing" textLength="18" x="65.5" y="877.2188">22</text><text fill="#000000" font-family="sans-serif" font-size="13" lengthAdjust="spacing" textLength="113" x="87.5" y="877.2188">requests the price</text><polygon fill="#181818" points="939.5,907.2715,949.5,911.2715,939.5,915.2715,943.5,911.2715" style="stroke:#181818;stroke-width:1.0;"/><line style="stroke:#181818;stroke-width:1.0;" x1="48.5" x2="945.5" y1="911.2715" y2="911.2715"/><text fill="#000000" font-family="sans-serif" font-size="13" font-weight="bold" lengthAdjust="spacing" textLength="18" x="55.5" y="906.5293">23</text><text fill="#000000" font-family="sans-serif" font-size="13" lengthAdjust="spacing" textLength="95" x="77.5" y="906.5293">insert the price</text><polygon fill="#181818" points="59.5,936.582,49.5,940.582,59.5,944.582,55.5,940.582" style="stroke:#181818;stroke-width:1.0;"/><line style="stroke:#181818;stroke-width:1.0;stroke-dasharray:2.0,2.0;" x1="53.5" x2="945.5" y1="940.582" y2="940.582"/><text fill="#000000" font-family="sans-serif" font-size="13" font-weight="bold" lengthAdjust="spacing" textLength="18" x="65.5" y="935.8398">24</text><text fill="#000000" font-family="sans-serif" font-size="13" lengthAdjust="spacing" textLength="228" x="87.5" y="935.8398">requests the number of months rent</text><polygon fill="#181818" points="939.5,965.8926,949.5,969.8926,939.5,973.8926,943.5,969.8926" style="stroke:#181818;stroke-width:1.0;"/><line style="stroke:#181818;stroke-width:1.0;" x1="48.5" x2="945.5" y1="969.8926" y2="969.8926"/><text fill="#000000" font-family="sans-serif" font-size="13" font-weight="bold" lengthAdjust="spacing" textLength="18" x="55.5" y="965.1504">25</text><text fill="#000000" font-family="sans-serif" font-size="13" lengthAdjust="spacing" textLength="210" x="77.5" y="965.1504">insert the number of months rent</text><polygon fill="#181818" points="59.5,1002.2031,49.5,1006.2031,59.5,1010.2031,55.5,1006.2031" style="stroke:#181818;stroke-width:1.0;"/><line style="stroke:#181818;stroke-width:1.0;stroke-dasharray:2.0,2.0;" x1="53.5" x2="945.5" y1="1006.2031" y2="1006.2031"/><text fill="#000000" font-family="sans-serif" font-size="13" font-weight="bold" lengthAdjust="spacing" textLength="18" x="65.5" y="1001.4609">26</text><text fill="#000000" font-family="sans-serif" font-size="13" lengthAdjust="spacing" textLength="159" x="87.5" y="1001.4609">requests the commission</text><polygon fill="#181818" points="939.5,1031.5137,949.5,1035.5137,939.5,1039.5137,943.5,1035.5137" style="stroke:#181818;stroke-width:1.0;"/><line style="stroke:#181818;stroke-width:1.0;" x1="48.5" x2="945.5" y1="1035.5137" y2="1035.5137"/><text fill="#000000" font-family="sans-serif" font-size="13" font-weight="bold" lengthAdjust="spacing" textLength="18" x="55.5" y="1030.7715">27</text><text fill="#000000" font-family="sans-serif" font-size="13" lengthAdjust="spacing" textLength="141" x="77.5" y="1030.7715">insert the commission</text><polygon fill="#181818" points="59.5,1060.8242,49.5,1064.8242,59.5,1068.8242,55.5,1064.8242" style="stroke:#181818;stroke-width:1.0;"/><line style="stroke:#181818;stroke-width:1.0;stroke-dasharray:2.0,2.0;" x1="53.5" x2="945.5" y1="1064.8242" y2="1064.8242"/><text fill="#000000" font-family="sans-serif" font-size="13" font-weight="bold" lengthAdjust="spacing" textLength="18" x="65.5" y="1060.082">28</text><text fill="#000000" font-family="sans-serif" font-size="13" lengthAdjust="spacing" textLength="144" x="87.5" y="1060.082">requests owner's name</text><polygon fill="#181818" points="939.5,1090.1348,949.5,1094.1348,939.5,1098.1348,943.5,1094.1348" style="stroke:#181818;stroke-width:1.0;"/><line style="stroke:#181818;stroke-width:1.0;" x1="48.5" x2="945.5" y1="1094.1348" y2="1094.1348"/><text fill="#000000" font-family="sans-serif" font-size="13" font-weight="bold" lengthAdjust="spacing" textLength="18" x="55.5" y="1089.3926">29</text><text fill="#000000" font-family="sans-serif" font-size="13" lengthAdjust="spacing" textLength="98" x="77.5" y="1089.3926">insert the name</text><polygon fill="#181818" points="59.5,1119.4453,49.5,1123.4453,59.5,1127.4453,55.5,1123.4453" style="stroke:#181818;stroke-width:1.0;"/><line style="stroke:#181818;stroke-width:1.0;stroke-dasharray:2.0,2.0;" x1="53.5" x2="945.5" y1="1123.4453" y2="1123.4453"/><text fill="#000000" font-family="sans-serif" font-size="13" font-weight="bold" lengthAdjust="spacing" textLength="18" x="65.5" y="1118.7031">30</text><text fill="#000000" font-family="sans-serif" font-size="13" lengthAdjust="spacing" textLength="104" x="87.5" y="1118.7031">validate the data</text><polygon fill="#181818" points="939.5,1148.7559,949.5,1152.7559,939.5,1156.7559,943.5,1152.7559" style="stroke:#181818;stroke-width:1.0;"/><line style="stroke:#181818;stroke-width:1.0;" x1="48.5" x2="945.5" y1="1152.7559" y2="1152.7559"/><text fill="#000000" font-family="sans-serif" font-size="13" font-weight="bold" lengthAdjust="spacing" textLength="18" x="55.5" y="1148.0137">31</text><text fill="#000000" font-family="sans-serif" font-size="13" lengthAdjust="spacing" textLength="82" x="77.5" y="1148.0137">submits data</text><polygon fill="#181818" points="1391.5,1193.377,1401.5,1197.377,1391.5,1201.377,1395.5,1197.377" style="stroke:#181818;stroke-width:1.0;"/><line style="stroke:#181818;stroke-width:1.0;stroke-dasharray:2.0,2.0;" x1="956.5" x2="1397.5" y1="1197.377" y2="1197.377"/><text fill="#000000" font-family="sans-serif" font-size="13" font-weight="bold" lengthAdjust="spacing" textLength="18" x="963.5" y="1184.9795">32</text><text fill="#000000" font-family="sans-serif" font-size="13" lengthAdjust="spacing" textLength="305" x="985.5" y="1177.3242">Sends a notification about the publication of the</text><text fill="#000000" font-family="sans-serif" font-size="13" lengthAdjust="spacing" textLength="407" x="989.5" y="1192.6348">announcement (id, publication date, agent name, agent number )</text><polygon fill="#181818" points="59.5,1222.6875,49.5,1226.6875,59.5,1230.6875,55.5,1226.6875" style="stroke:#181818;stroke-width:1.0;"/><line style="stroke:#181818;stroke-width:1.0;stroke-dasharray:2.0,2.0;" x1="53.5" x2="950.5" y1="1226.6875" y2="1226.6875"/><text fill="#000000" font-family="sans-serif" font-size="13" font-weight="bold" lengthAdjust="spacing" textLength="18" x="65.5" y="1221.9453">33</text><text fill="#000000" font-family="sans-serif" font-size="13" lengthAdjust="spacing" textLength="170" x="87.5" y="1221.9453">displays operation success</text><!--SRC=[lLVDRjim3BxxAOXSbW3k2_Gme407x3PWkVP2sqmiH9OqIMwNFVqe-IV97CTssZK80eSMFtxybUGEGXcqM46bbSvBgoi2RsjANF_6O7x0FMtzKH9OoZsglJnVu4eiz9jGUzYXT9GaNdXUkZqwJnLiwLTDAYTu5hWFozVRxVCcIR3sMjLLHfQVSwyjh9xsfFmAqC6toaXz94hOWXUvCAWyh1uRoBYYUUmqVxmfib4UdoAYU4LF9wG4-DFzWuUl7Rz7rZeuy1fCdKdXIa35NwLh9bqneQZOuxLsep1yMfG71kp17y5OSgpAi2N7ysW8z8w5sf3rHs0h_WQVBKcESbJjLG96r2Xe8HKRuk-O2ae9kQuuqL2Wn-1n4FKcrcW9KoYO78PyxRWO81Vy9cTNoAPWIkqrvz2KRZCUbQi-2UNOIFIf9KH5GwEbD8jDKB_DQ2Gy4rbYJ46koSiolzmfLu7OSWvzUWA4vXyBKkVeHPUcjVEMoAVmHvXS5_IEoCy17gslaHSeFNpNTMZxkOKOg1IQsxPj_qvjjB2d_Be6Td-V14GeWqjjd1haqC4P5LRhogLm9aDVDi9M5biTxI4CHCV3atWvlgAGcF5KP2l2XB7YKg5Ap8IFOgbtFdrHGB-v1kEuZD0kJY3OzDpl3z8z7i6dk3GtMyFE1LS7VADTRUdKlWlZr7VnETgjGkhU4Uzsy1IsgBXFlBi1fgY_enscupoNE7R-_kTQsYmBowsWV4Rf3-XE1vjKyOya35FU_UNoh1WhSae-A5uZW9F-X7Ru6JlX0-X_FFz91-OmFTKAdrfywVYjyeFSJzYP8Z_BoBN1D2om2y5oTyFfJ3Z7XuPXVO-xUyleaZZCipuCn5pxv_6Q28OEzuel3XHMvsKrdkZ975y2tTneHiYzeXH5M1-dFe-tfOVNEgi4-zQhZZN8cVbulugN55NmdGAKzc8dsdCbPhfkso_SfLefbp6BNYvlLR0MHNgnB7Z2ipNS0MDm-kUc6JR3hRszwutduNhO-4vX91uvftpLQ6oxEkV9xYRoyHS0]--></g></svg>