<?xml version="1.0" encoding="UTF-8" standalone="no"?><svg xmlns="http://www.w3.org/2000/svg" xmlns:xlink="http://www.w3.org/1999/xlink" contentScriptType="application/ecmascript" contentStyleType="text/css" height="787.5px" preserveAspectRatio="none" style="width:697px;height:787px;background:#FFFFFF;" version="1.1" viewBox="0 0 697 787" width="697px" zoomAndPan="magnify"><defs/><g><rect fill="#FFFFFF" height="692.957" style="stroke:#383838;stroke-width:0.5;" width="5" x="47.25" y="47.8047"/><rect fill="#FFFFFF" height="188.2383" style="stroke:#383838;stroke-width:0.5;" width="5" x="145.75" y="58.9805"/><rect fill="#FFFFFF" height="467.3672" style="stroke:#383838;stroke-width:0.5;" width="5" x="145.75" y="262.3945"/><rect fill="#FFFFFF" height="152.8867" style="stroke:#383838;stroke-width:0.5;" width="5" x="244.25" y="79.1563"/><rect fill="#FFFFFF" height="437.0156" style="stroke:#383838;stroke-width:0.5;" width="5" x="244.25" y="277.5703"/><rect fill="#FFFFFF" height="81.2969" style="stroke:#383838;stroke-width:0.5;" width="5" x="316.25" y="292.7461"/><rect fill="#FFFFFF" height="15.1758" style="stroke:#383838;stroke-width:0.5;" width="5" x="316.25" y="389.2188"/><rect fill="#FFFFFF" height="39.0273" style="stroke:#383838;stroke-width:0.5;" width="5" x="366.5" y="660.3828"/><rect fill="#FFFFFF" height="15.1758" style="stroke:#383838;stroke-width:0.5;" width="5" x="418.5" y="95.4609"/><rect fill="#FFFFFF" height="15.1758" style="stroke:#383838;stroke-width:0.5;" width="5" x="472" y="125.8125"/><rect fill="#FFFFFF" height="15.1758" style="stroke:#383838;stroke-width:0.5;" width="5" x="472" y="156.1641"/><rect fill="#FFFFFF" height="15.1758" style="stroke:#383838;stroke-width:0.5;" width="5" x="472" y="186.5156"/><rect fill="#FFFFFF" height="15.1758" style="stroke:#383838;stroke-width:0.5;" width="5" x="472" y="216.8672"/><rect fill="#FFFFFF" height="44.0273" style="stroke:#383838;stroke-width:0.5;" width="5" x="538.25" y="492.1914"/><rect fill="#FFFFFF" height="82.1367" style="stroke:#383838;stroke-width:0.5;" width="5" x="538.25" y="559.5703"/><rect fill="#FFFFFF" height="46.7852" style="stroke:#383838;stroke-width:0.5;" width="5" x="605.5" y="579.7461"/><rect fill="#FFFFFF" height="437.0156" style="stroke:#000000;stroke-width:1.0;" width="688.5" x="5" y="300.2461"/><rect fill="#FFFFFF" height="382.3125" style="stroke:none;stroke-width:0.5;" width="688.5" x="5" y="354.9492"/><rect fill="#FFFFFF" height="300.1914" style="stroke:#000000;stroke-width:1.0;" width="678.5" x="10" y="433.5703"/><rect fill="#FFFFFF" height="260.6641" style="stroke:none;stroke-width:0.5;" width="678.5" x="10" y="473.0977"/><rect fill="#FFFFFF" height="146.0156" style="stroke:#000000;stroke-width:1.0;" width="483" x="200.5" y="499.6914"/><rect fill="#FFFFFF" height="121.6641" style="stroke:none;stroke-width:0.5;" width="483" x="200.5" y="524.043"/><line style="stroke:#383838;stroke-width:0.5;stroke-dasharray:5.0,5.0;" x1="49.5" x2="49.5" y1="42.8047" y2="745.7617"/><line style="stroke:#383838;stroke-width:0.5;stroke-dasharray:5.0,5.0;" x1="148" x2="148" y1="42.8047" y2="745.7617"/><line style="stroke:#383838;stroke-width:0.5;stroke-dasharray:5.0,5.0;" x1="246.5" x2="246.5" y1="78.6328" y2="745.7617"/><line style="stroke:#383838;stroke-width:0.5;stroke-dasharray:5.0,5.0;" x1="318.75" x2="318.75" y1="42.8047" y2="745.7617"/><line style="stroke:#383838;stroke-width:0.5;stroke-dasharray:5.0,5.0;" x1="368.75" x2="368.75" y1="42.8047" y2="745.7617"/><line style="stroke:#383838;stroke-width:0.5;stroke-dasharray:5.0,5.0;" x1="420.75" x2="420.75" y1="42.8047" y2="745.7617"/><line style="stroke:#383838;stroke-width:0.5;stroke-dasharray:5.0,5.0;" x1="474.25" x2="474.25" y1="42.8047" y2="745.7617"/><line style="stroke:#383838;stroke-width:0.5;stroke-dasharray:5.0,5.0;" x1="540.75" x2="540.75" y1="42.8047" y2="745.7617"/><line style="stroke:#383838;stroke-width:0.5;stroke-dasharray:5.0,5.0;" x1="607.75" x2="607.75" y1="583.625" y2="745.7617"/><text fill="#000000" font-family="sans-serif" font-size="7" lengthAdjust="spacing" textLength="66.5" x="15" y="41.2666">System Administrator</text><ellipse cx="49.75" cy="7.5" fill="#F8F8F8" rx="4" ry="4" style="stroke:#383838;stroke-width:1.0;"/><path d="M49.75,11.5 L49.75,25 M43.25,15.5 L56.25,15.5 M49.75,25 L43.25,32.5 M49.75,25 L56.25,32.5 " fill="none" style="stroke:#383838;stroke-width:1.0;"/><text fill="#000000" font-family="sans-serif" font-size="7" lengthAdjust="spacing" textLength="66.5" x="15" y="752.5283">System Administrator</text><ellipse cx="49.75" cy="759.0664" fill="#F8F8F8" rx="4" ry="4" style="stroke:#383838;stroke-width:1.0;"/><path d="M49.75,763.0664 L49.75,776.5664 M43.25,767.0664 L56.25,767.0664 M49.75,776.5664 L43.25,784.0664 M49.75,776.5664 L56.25,784.0664 " fill="none" style="stroke:#383838;stroke-width:1.0;"/><rect fill="#F8F8F8" height="15.8047" style="stroke:#383838;stroke-width:0.75;" width="57.5" x="119.5" y="26.5"/><text fill="#000000" font-family="sans-serif" font-size="7" lengthAdjust="spacing" textLength="50.5" x="123" y="37.2666">:LegacyImportUI</text><rect fill="#F8F8F8" height="15.8047" style="stroke:#383838;stroke-width:0.75;" width="57.5" x="119.5" y="745.2617"/><text fill="#000000" font-family="sans-serif" font-size="7" lengthAdjust="spacing" textLength="50.5" x="123" y="756.0283">:LegacyImportUI</text><rect fill="#F8F8F8" height="15.8047" style="stroke:#383838;stroke-width:0.75;" width="82.5" x="205.5" y="745.2617"/><text fill="#000000" font-family="sans-serif" font-size="7" lengthAdjust="spacing" textLength="75.5" x="209" y="756.0283">:LegacyImportController</text><rect fill="#F8F8F8" height="15.8047" style="stroke:#383838;stroke-width:0.75;" width="45" x="296.25" y="26.5"/><text fill="#000000" font-family="sans-serif" font-size="7" lengthAdjust="spacing" textLength="38" x="299.75" y="37.2666">:FileHandler</text><rect fill="#F8F8F8" height="15.8047" style="stroke:#383838;stroke-width:0.75;" width="45" x="296.25" y="745.2617"/><text fill="#000000" font-family="sans-serif" font-size="7" lengthAdjust="spacing" textLength="38" x="299.75" y="756.0283">:FileHandler</text><rect fill="#F8F8F8" height="15.8047" style="stroke:#383838;stroke-width:0.75;" width="45.5" x="346.25" y="26.5"/><text fill="#000000" font-family="sans-serif" font-size="7" lengthAdjust="spacing" textLength="38.5" x="349.75" y="37.2666">:CsvHandler</text><rect fill="#F8F8F8" height="15.8047" style="stroke:#383838;stroke-width:0.75;" width="45.5" x="346.25" y="745.2617"/><text fill="#000000" font-family="sans-serif" font-size="7" lengthAdjust="spacing" textLength="38.5" x="349.75" y="756.0283">:CsvHandler</text><rect fill="#F8F8F8" height="15.8047" style="stroke:#383838;stroke-width:0.75;" width="48.5" x="396.75" y="26.5"/><text fill="#000000" font-family="sans-serif" font-size="7" lengthAdjust="spacing" textLength="41.5" x="400.25" y="37.2666">:Repositories</text><rect fill="#F8F8F8" height="15.8047" style="stroke:#383838;stroke-width:0.75;" width="48.5" x="396.75" y="745.2617"/><text fill="#000000" font-family="sans-serif" font-size="7" lengthAdjust="spacing" textLength="41.5" x="400.25" y="756.0283">:Repositories</text><rect fill="#F8F8F8" height="24.6094" style="stroke:#383838;stroke-width:0.75;" width="48.5" x="450.25" y="17.6953"/><text fill="#000000" font-family="sans-serif" font-size="7" lengthAdjust="spacing" textLength="37" x="456" y="28.4619">repositories</text><text fill="#000000" font-family="sans-serif" font-size="7" lengthAdjust="spacing" textLength="41.5" x="453.75" y="37.2666">:Repositories</text><rect fill="#F8F8F8" height="24.6094" style="stroke:#383838;stroke-width:0.75;" width="48.5" x="450.25" y="745.2617"/><text fill="#000000" font-family="sans-serif" font-size="7" lengthAdjust="spacing" textLength="37" x="456" y="756.0283">repositories</text><text fill="#000000" font-family="sans-serif" font-size="7" lengthAdjust="spacing" textLength="41.5" x="453.75" y="764.833">:Repositories</text><rect fill="#F8F8F8" height="24.6094" style="stroke:#383838;stroke-width:0.75;" width="74" x="503.75" y="17.6953"/><text fill="#000000" font-family="sans-serif" font-size="7" lengthAdjust="spacing" textLength="64.5" x="508.5" y="28.4619">employeeRepository</text><text fill="#000000" font-family="sans-serif" font-size="7" lengthAdjust="spacing" textLength="67" x="507.25" y="37.2666">:EmployeeRepository</text><rect fill="#F8F8F8" height="24.6094" style="stroke:#383838;stroke-width:0.75;" width="74" x="503.75" y="745.2617"/><text fill="#000000" font-family="sans-serif" font-size="7" lengthAdjust="spacing" textLength="64.5" x="508.5" y="756.0283">employeeRepository</text><text fill="#000000" font-family="sans-serif" font-size="7" lengthAdjust="spacing" textLength="67" x="507.25" y="764.833">:EmployeeRepository</text><rect fill="#F8F8F8" height="24.6094" style="stroke:#383838;stroke-width:0.75;" width="50.5" x="582.75" y="745.2617"/><text fill="#000000" font-family="sans-serif" font-size="7" lengthAdjust="spacing" textLength="43.5" x="586.25" y="756.0283">newEmployee</text><text fill="#000000" font-family="sans-serif" font-size="7" lengthAdjust="spacing" textLength="33" x="591.5" y="764.833">:Employee</text><rect fill="#FFFFFF" height="692.957" style="stroke:#383838;stroke-width:0.5;" width="5" x="47.25" y="47.8047"/><rect fill="#FFFFFF" height="188.2383" style="stroke:#383838;stroke-width:0.5;" width="5" x="145.75" y="58.9805"/><rect fill="#FFFFFF" height="467.3672" style="stroke:#383838;stroke-width:0.5;" width="5" x="145.75" y="262.3945"/><rect fill="#FFFFFF" height="152.8867" style="stroke:#383838;stroke-width:0.5;" width="5" x="244.25" y="79.1563"/><rect fill="#FFFFFF" height="437.0156" style="stroke:#383838;stroke-width:0.5;" width="5" x="244.25" y="277.5703"/><rect fill="#FFFFFF" height="81.2969" style="stroke:#383838;stroke-width:0.5;" width="5" x="316.25" y="292.7461"/><rect fill="#FFFFFF" height="15.1758" style="stroke:#383838;stroke-width:0.5;" width="5" x="316.25" y="389.2188"/><rect fill="#FFFFFF" height="39.0273" style="stroke:#383838;stroke-width:0.5;" width="5" x="366.5" y="660.3828"/><rect fill="#FFFFFF" height="15.1758" style="stroke:#383838;stroke-width:0.5;" width="5" x="418.5" y="95.4609"/><rect fill="#FFFFFF" height="15.1758" style="stroke:#383838;stroke-width:0.5;" width="5" x="472" y="125.8125"/><rect fill="#FFFFFF" height="15.1758" style="stroke:#383838;stroke-width:0.5;" width="5" x="472" y="156.1641"/><rect fill="#FFFFFF" height="15.1758" style="stroke:#383838;stroke-width:0.5;" width="5" x="472" y="186.5156"/><rect fill="#FFFFFF" height="15.1758" style="stroke:#383838;stroke-width:0.5;" width="5" x="472" y="216.8672"/><rect fill="#FFFFFF" height="44.0273" style="stroke:#383838;stroke-width:0.5;" width="5" x="538.25" y="492.1914"/><rect fill="#FFFFFF" height="82.1367" style="stroke:#383838;stroke-width:0.5;" width="5" x="538.25" y="559.5703"/><rect fill="#FFFFFF" height="46.7852" style="stroke:#383838;stroke-width:0.5;" width="5" x="605.5" y="579.7461"/><polygon fill="#383838" points="139.75,56.9805,144.75,58.9805,139.75,60.9805,141.75,58.9805" style="stroke:#383838;stroke-width:0.5;"/><line style="stroke:#383838;stroke-width:0.5;" x1="52.25" x2="142.75" y1="58.9805" y2="58.9805"/><text fill="#000000" font-family="sans-serif" font-size="6.5" font-weight="bold" lengthAdjust="spacing" textLength="3.5" x="55.75" y="56.5522">1</text><text fill="#000000" font-family="sans-serif" font-size="6.5" lengthAdjust="spacing" textLength="59.5" x="61.25" y="56.5522">starts importing data</text><polygon fill="#383838" points="199.5,72.1563,204.5,74.1563,199.5,76.1563,201.5,74.1563" style="stroke:#383838;stroke-width:0.5;"/><line style="stroke:#383838;stroke-width:0.5;" x1="150.75" x2="202.5" y1="74.1563" y2="74.1563"/><text fill="#000000" font-family="sans-serif" font-size="6.5" font-weight="bold" lengthAdjust="spacing" textLength="3.5" x="154.25" y="71.728">2</text><text fill="#000000" font-family="sans-serif" font-size="6.5" lengthAdjust="spacing" textLength="18" x="159.75" y="71.728">create</text><rect fill="#F8F8F8" height="15.8047" style="stroke:#383838;stroke-width:0.75;" width="82.5" x="205.5" y="62.9805"/><text fill="#000000" font-family="sans-serif" font-size="7" lengthAdjust="spacing" textLength="75.5" x="209" y="73.7471">:LegacyImportController</text><polygon fill="#383838" points="412.5,93.4609,417.5,95.4609,412.5,97.4609,414.5,95.4609" style="stroke:#383838;stroke-width:0.5;"/><line style="stroke:#383838;stroke-width:0.5;" x1="249.25" x2="415.5" y1="95.4609" y2="95.4609"/><text fill="#000000" font-family="sans-serif" font-size="6.5" font-weight="bold" lengthAdjust="spacing" textLength="3.5" x="252.75" y="93.0327">3</text><text fill="#000000" font-family="sans-serif" font-size="6.5" lengthAdjust="spacing" textLength="37.5" x="258.25" y="93.0327">getInstance()</text><polygon fill="#383838" points="254.75,108.6367,249.75,110.6367,254.75,112.6367,252.75,110.6367" style="stroke:#383838;stroke-width:0.5;"/><line style="stroke:#383838;stroke-width:0.5;stroke-dasharray:2.0,2.0;" x1="251.75" x2="420.5" y1="110.6367" y2="110.6367"/><text fill="#000000" font-family="sans-serif" font-size="6.5" font-weight="bold" lengthAdjust="spacing" textLength="3.5" x="257.75" y="108.2085">4</text><text fill="#000000" font-family="sans-serif" font-size="6.5" lengthAdjust="spacing" textLength="33.5" x="263.25" y="108.2085">repositories</text><polygon fill="#383838" points="466,123.8125,471,125.8125,466,127.8125,468,125.8125" style="stroke:#383838;stroke-width:0.5;"/><line style="stroke:#383838;stroke-width:0.5;" x1="249.25" x2="469" y1="125.8125" y2="125.8125"/><text fill="#000000" font-family="sans-serif" font-size="6.5" font-weight="bold" lengthAdjust="spacing" textLength="3.5" x="252.75" y="123.3843">5</text><text fill="#000000" font-family="sans-serif" font-size="6.5" lengthAdjust="spacing" textLength="64.5" x="258.25" y="123.3843">getBranchRepository()</text><polygon fill="#383838" points="254.75,138.9883,249.75,140.9883,254.75,142.9883,252.75,140.9883" style="stroke:#383838;stroke-width:0.5;"/><line style="stroke:#383838;stroke-width:0.5;stroke-dasharray:2.0,2.0;" x1="251.75" x2="474" y1="140.9883" y2="140.9883"/><text fill="#000000" font-family="sans-serif" font-size="6.5" font-weight="bold" lengthAdjust="spacing" textLength="3.5" x="257.75" y="138.5601">6</text><text fill="#000000" font-family="sans-serif" font-size="6.5" lengthAdjust="spacing" textLength="50.5" x="263.25" y="138.5601">branchRepository</text><polygon fill="#383838" points="466,154.1641,471,156.1641,466,158.1641,468,156.1641" style="stroke:#383838;stroke-width:0.5;"/><line style="stroke:#383838;stroke-width:0.5;" x1="249.25" x2="469" y1="156.1641" y2="156.1641"/><text fill="#000000" font-family="sans-serif" font-size="6.5" font-weight="bold" lengthAdjust="spacing" textLength="3.5" x="252.75" y="153.7358">7</text><text fill="#000000" font-family="sans-serif" font-size="6.5" lengthAdjust="spacing" textLength="87.5" x="258.25" y="153.7358">getAnnouncementRepository()</text><polygon fill="#383838" points="254.75,169.3398,249.75,171.3398,254.75,173.3398,252.75,171.3398" style="stroke:#383838;stroke-width:0.5;"/><line style="stroke:#383838;stroke-width:0.5;stroke-dasharray:2.0,2.0;" x1="251.75" x2="474" y1="171.3398" y2="171.3398"/><text fill="#000000" font-family="sans-serif" font-size="6.5" font-weight="bold" lengthAdjust="spacing" textLength="3.5" x="257.75" y="168.9116">8</text><text fill="#000000" font-family="sans-serif" font-size="6.5" lengthAdjust="spacing" textLength="73.5" x="263.25" y="168.9116">announcementRepository</text><polygon fill="#383838" points="466,184.5156,471,186.5156,466,188.5156,468,186.5156" style="stroke:#383838;stroke-width:0.5;"/><line style="stroke:#383838;stroke-width:0.5;" x1="249.25" x2="469" y1="186.5156" y2="186.5156"/><text fill="#000000" font-family="sans-serif" font-size="6.5" font-weight="bold" lengthAdjust="spacing" textLength="3.5" x="252.75" y="184.0874">9</text><text fill="#000000" font-family="sans-serif" font-size="6.5" lengthAdjust="spacing" textLength="73" x="258.25" y="184.0874">getEmployeeRepository()</text><polygon fill="#383838" points="254.75,199.6914,249.75,201.6914,254.75,203.6914,252.75,201.6914" style="stroke:#383838;stroke-width:0.5;"/><line style="stroke:#383838;stroke-width:0.5;stroke-dasharray:2.0,2.0;" x1="251.75" x2="474" y1="201.6914" y2="201.6914"/><text fill="#000000" font-family="sans-serif" font-size="6.5" font-weight="bold" lengthAdjust="spacing" textLength="7" x="257.75" y="199.2632">10</text><text fill="#000000" font-family="sans-serif" font-size="6.5" lengthAdjust="spacing" textLength="59" x="266.75" y="199.2632">employeeRepository</text><polygon fill="#383838" points="466,214.8672,471,216.8672,466,218.8672,468,216.8672" style="stroke:#383838;stroke-width:0.5;"/><line style="stroke:#383838;stroke-width:0.5;" x1="249.25" x2="469" y1="216.8672" y2="216.8672"/><text fill="#000000" font-family="sans-serif" font-size="6.5" font-weight="bold" lengthAdjust="spacing" textLength="7" x="252.75" y="214.439">11</text><text fill="#000000" font-family="sans-serif" font-size="6.5" lengthAdjust="spacing" textLength="60.5" x="261.75" y="214.439">getClientRepository()</text><polygon fill="#383838" points="252.25,230.043,247.25,232.043,252.25,234.043,250.25,232.043" style="stroke:#383838;stroke-width:0.5;"/><line style="stroke:#383838;stroke-width:0.5;stroke-dasharray:2.0,2.0;" x1="249.25" x2="474" y1="232.043" y2="232.043"/><text fill="#000000" font-family="sans-serif" font-size="6.5" font-weight="bold" lengthAdjust="spacing" textLength="7" x="255.25" y="229.6147">12</text><text fill="#000000" font-family="sans-serif" font-size="6.5" lengthAdjust="spacing" textLength="46.5" x="264.25" y="229.6147">clientRepository</text><polygon fill="#383838" points="57.75,245.2188,52.75,247.2188,57.75,249.2188,55.75,247.2188" style="stroke:#383838;stroke-width:0.5;"/><line style="stroke:#383838;stroke-width:0.5;stroke-dasharray:2.0,2.0;" x1="54.75" x2="147.75" y1="247.2188" y2="247.2188"/><text fill="#000000" font-family="sans-serif" font-size="6.5" font-weight="bold" lengthAdjust="spacing" textLength="7" x="60.75" y="244.7905">13</text><text fill="#000000" font-family="sans-serif" font-size="6.5" lengthAdjust="spacing" textLength="49.5" x="69.75" y="244.7905">requests file path</text><polygon fill="#383838" points="139.75,260.3945,144.75,262.3945,139.75,264.3945,141.75,262.3945" style="stroke:#383838;stroke-width:0.5;"/><line style="stroke:#383838;stroke-width:0.5;" x1="52.25" x2="142.75" y1="262.3945" y2="262.3945"/><text fill="#000000" font-family="sans-serif" font-size="6.5" font-weight="bold" lengthAdjust="spacing" textLength="7" x="55.75" y="259.9663">14</text><text fill="#000000" font-family="sans-serif" font-size="6.5" lengthAdjust="spacing" textLength="40.5" x="64.75" y="259.9663">types file path</text><polygon fill="#383838" points="238.25,275.5703,243.25,277.5703,238.25,279.5703,240.25,277.5703" style="stroke:#383838;stroke-width:0.5;"/><line style="stroke:#383838;stroke-width:0.5;" x1="150.75" x2="241.25" y1="277.5703" y2="277.5703"/><text fill="#000000" font-family="sans-serif" font-size="6.5" font-weight="bold" lengthAdjust="spacing" textLength="7" x="154.25" y="275.1421">15</text><text fill="#000000" font-family="sans-serif" font-size="6.5" lengthAdjust="spacing" textLength="54" x="163.25" y="275.1421">importFile(filePath)</text><polygon fill="#383838" points="310.25,290.7461,315.25,292.7461,310.25,294.7461,312.25,292.7461" style="stroke:#383838;stroke-width:0.5;"/><line style="stroke:#383838;stroke-width:0.5;" x1="249.25" x2="313.25" y1="292.7461" y2="292.7461"/><text fill="#000000" font-family="sans-serif" font-size="6.5" font-weight="bold" lengthAdjust="spacing" textLength="7" x="252.75" y="290.3179">16</text><text fill="#000000" font-family="sans-serif" font-size="6.5" lengthAdjust="spacing" textLength="48.5" x="261.75" y="290.3179">readFile(filePath)</text><path d="M5,300.2461 L35.5,300.2461 L35.5,304.2461 L30.5,309.2461 L5,309.2461 L5,300.2461 " fill="#EEEEEE" style="stroke:#000000;stroke-width:0.5;"/><rect fill="none" height="437.0156" style="stroke:#000000;stroke-width:1.0;" width="688.5" x="5" y="300.2461"/><text fill="#000000" font-family="sans-serif" font-size="6.5" font-weight="bold" lengthAdjust="spacing" textLength="8" x="12.5" y="307.4937">alt</text><text fill="#000000" font-family="sans-serif" font-size="5.5" font-weight="bold" lengthAdjust="spacing" textLength="40.5" x="43" y="306.9556">[file not found]</text><polygon fill="#383838" points="254.75,318.5977,249.75,320.5977,254.75,322.5977,252.75,320.5977" style="stroke:#383838;stroke-width:0.5;"/><line style="stroke:#383838;stroke-width:0.5;" x1="251.75" x2="315.75" y1="320.5977" y2="320.5977"/><text fill="#000000" font-family="sans-serif" font-size="6.5" font-weight="bold" lengthAdjust="spacing" textLength="7" x="257.75" y="318.1694">17</text><text fill="#000000" font-family="sans-serif" font-size="6.5" lengthAdjust="spacing" textLength="10" x="266.75" y="318.1694">null</text><polygon fill="#383838" points="156.25,333.7734,151.25,335.7734,156.25,337.7734,154.25,335.7734" style="stroke:#383838;stroke-width:0.5;"/><line style="stroke:#383838;stroke-width:0.5;" x1="153.25" x2="243.75" y1="335.7734" y2="335.7734"/><text fill="#000000" font-family="sans-serif" font-size="6.5" font-weight="bold" lengthAdjust="spacing" textLength="7" x="159.25" y="333.3452">18</text><text fill="#000000" font-family="sans-serif" font-size="6.5" lengthAdjust="spacing" textLength="13.5" x="168.25" y="333.3452">false</text><polygon fill="#383838" points="57.75,348.9492,52.75,350.9492,57.75,352.9492,55.75,350.9492" style="stroke:#383838;stroke-width:0.5;"/><line style="stroke:#383838;stroke-width:0.5;" x1="54.75" x2="145.25" y1="350.9492" y2="350.9492"/><text fill="#000000" font-family="sans-serif" font-size="6.5" font-weight="bold" lengthAdjust="spacing" textLength="7" x="60.75" y="348.521">19</text><text fill="#000000" font-family="sans-serif" font-size="6.5" lengthAdjust="spacing" textLength="59.5" x="69.75" y="348.521">informs file not found</text><line style="stroke:#000000;stroke-width:0.5;stroke-dasharray:2.0,2.0;" x1="5" x2="693.5" y1="355.4492" y2="355.4492"/><text fill="#000000" font-family="sans-serif" font-size="5.5" font-weight="bold" lengthAdjust="spacing" textLength="30" x="7.5" y="361.1587">[file found]</text><polygon fill="#383838" points="254.75,372.043,249.75,374.043,254.75,376.043,252.75,374.043" style="stroke:#383838;stroke-width:0.5;"/><line style="stroke:#383838;stroke-width:0.5;stroke-dasharray:2.0,2.0;" x1="251.75" x2="318.25" y1="374.043" y2="374.043"/><text fill="#000000" font-family="sans-serif" font-size="6.5" font-weight="bold" lengthAdjust="spacing" textLength="7" x="257.75" y="371.6147">20</text><text fill="#000000" font-family="sans-serif" font-size="6.5" lengthAdjust="spacing" textLength="8" x="266.75" y="371.6147">file</text><polygon fill="#383838" points="310.25,387.2188,315.25,389.2188,310.25,391.2188,312.25,389.2188" style="stroke:#383838;stroke-width:0.5;"/><line style="stroke:#383838;stroke-width:0.5;" x1="249.25" x2="313.25" y1="389.2188" y2="389.2188"/><text fill="#000000" font-family="sans-serif" font-size="6.5" font-weight="bold" lengthAdjust="spacing" textLength="7" x="252.75" y="386.7905">21</text><text fill="#000000" font-family="sans-serif" font-size="6.5" lengthAdjust="spacing" textLength="38" x="261.75" y="386.7905">readCSV(file)</text><polygon fill="#383838" points="254.75,402.3945,249.75,404.3945,254.75,406.3945,252.75,404.3945" style="stroke:#383838;stroke-width:0.5;"/><line style="stroke:#383838;stroke-width:0.5;stroke-dasharray:2.0,2.0;" x1="251.75" x2="318.25" y1="404.3945" y2="404.3945"/><text fill="#000000" font-family="sans-serif" font-size="6.5" font-weight="bold" lengthAdjust="spacing" textLength="7" x="257.75" y="401.9663">22</text><text fill="#000000" font-family="sans-serif" font-size="6.5" lengthAdjust="spacing" textLength="13.5" x="266.75" y="401.9663">csv[]</text><line style="stroke:#383838;stroke-width:0.5;" x1="249.25" x2="270.25" y1="419.5703" y2="419.5703"/><line style="stroke:#383838;stroke-width:0.5;" x1="270.25" x2="270.25" y1="419.5703" y2="426.0703"/><line style="stroke:#383838;stroke-width:0.5;" x1="249.75" x2="270.25" y1="426.0703" y2="426.0703"/><polygon fill="#383838" points="254.75,424.0703,249.75,426.0703,254.75,428.0703,252.75,426.0703" style="stroke:#383838;stroke-width:0.5;"/><text fill="#000000" font-family="sans-serif" font-size="6.5" font-weight="bold" lengthAdjust="spacing" textLength="7" x="252.75" y="417.1421">23</text><text fill="#000000" font-family="sans-serif" font-size="6.5" lengthAdjust="spacing" textLength="37" x="261.75" y="417.1421">csv[].length()</text><path d="M10,433.5703 L40.5,433.5703 L40.5,437.5703 L35.5,442.5703 L10,442.5703 L10,433.5703 " fill="#EEEEEE" style="stroke:#000000;stroke-width:0.5;"/><rect fill="none" height="300.1914" style="stroke:#000000;stroke-width:1.0;" width="678.5" x="10" y="433.5703"/><text fill="#000000" font-family="sans-serif" font-size="6.5" font-weight="bold" lengthAdjust="spacing" textLength="8" x="17.5" y="440.8179">alt</text><text fill="#000000" font-family="sans-serif" font-size="5.5" font-weight="bold" lengthAdjust="spacing" textLength="49.5" x="48" y="440.2798">[csv[].length() &lt; 2]</text><polygon fill="#383838" points="156.25,451.9219,151.25,453.9219,156.25,455.9219,154.25,453.9219" style="stroke:#383838;stroke-width:0.5;"/><line style="stroke:#383838;stroke-width:0.5;" x1="153.25" x2="243.75" y1="453.9219" y2="453.9219"/><text fill="#000000" font-family="sans-serif" font-size="6.5" font-weight="bold" lengthAdjust="spacing" textLength="7" x="159.25" y="451.4937">24</text><text fill="#000000" font-family="sans-serif" font-size="6.5" lengthAdjust="spacing" textLength="10" x="168.25" y="451.4937">null</text><polygon fill="#383838" points="57.75,467.0977,52.75,469.0977,57.75,471.0977,55.75,469.0977" style="stroke:#383838;stroke-width:0.5;"/><line style="stroke:#383838;stroke-width:0.5;" x1="54.75" x2="145.25" y1="469.0977" y2="469.0977"/><text fill="#000000" font-family="sans-serif" font-size="6.5" font-weight="bold" lengthAdjust="spacing" textLength="7" x="60.75" y="466.6694">25</text><text fill="#000000" font-family="sans-serif" font-size="6.5" lengthAdjust="spacing" textLength="54.5" x="69.75" y="466.6694">inform file is empty</text><line style="stroke:#000000;stroke-width:0.5;stroke-dasharray:2.0,2.0;" x1="10" x2="688.5" y1="473.5977" y2="473.5977"/><text fill="#000000" font-family="sans-serif" font-size="5.5" font-weight="bold" lengthAdjust="spacing" textLength="48.5" x="12.5" y="479.3071">[csv[].length &gt;= 2]</text><polygon fill="#383838" points="532.25,490.1914,537.25,492.1914,532.25,494.1914,534.25,492.1914" style="stroke:#383838;stroke-width:0.5;"/><line style="stroke:#383838;stroke-width:0.5;" x1="249.25" x2="535.25" y1="492.1914" y2="492.1914"/><text fill="#000000" font-family="sans-serif" font-size="6.5" font-weight="bold" lengthAdjust="spacing" textLength="7" x="252.75" y="489.7632">26</text><text fill="#000000" font-family="sans-serif" font-size="6.5" lengthAdjust="spacing" textLength="112" x="261.75" y="489.7632">getEmployeeByName("Legacy Agent")</text><path d="M200.5,499.6914 L231,499.6914 L231,503.6914 L226,508.6914 L200.5,508.6914 L200.5,499.6914 " fill="#EEEEEE" style="stroke:#000000;stroke-width:0.5;"/><rect fill="none" height="146.0156" style="stroke:#000000;stroke-width:1.0;" width="483" x="200.5" y="499.6914"/><text fill="#000000" font-family="sans-serif" font-size="6.5" font-weight="bold" lengthAdjust="spacing" textLength="8" x="208" y="506.939">alt</text><polygon fill="#383838" points="254.75,518.043,249.75,520.043,254.75,522.043,252.75,520.043" style="stroke:#383838;stroke-width:0.5;"/><line style="stroke:#383838;stroke-width:0.5;stroke-dasharray:2.0,2.0;" x1="251.75" x2="537.75" y1="520.043" y2="520.043"/><text fill="#000000" font-family="sans-serif" font-size="6.5" font-weight="bold" lengthAdjust="spacing" textLength="7" x="257.75" y="517.6147">27</text><text fill="#000000" font-family="sans-serif" font-size="6.5" lengthAdjust="spacing" textLength="67" x="266.75" y="517.6147">Employee legacyAgent</text><line style="stroke:#000000;stroke-width:0.5;stroke-dasharray:2.0,2.0;" x1="200.5" x2="683.5" y1="524.543" y2="524.543"/><polygon fill="#383838" points="254.75,534.2188,249.75,536.2188,254.75,538.2188,252.75,536.2188" style="stroke:#383838;stroke-width:0.5;"/><line style="stroke:#383838;stroke-width:0.5;stroke-dasharray:2.0,2.0;" x1="251.75" x2="540.25" y1="536.2188" y2="536.2188"/><text fill="#000000" font-family="sans-serif" font-size="6.5" font-weight="bold" lengthAdjust="spacing" textLength="7" x="257.75" y="533.7905">28</text><text fill="#000000" font-family="sans-serif" font-size="6.5" lengthAdjust="spacing" textLength="10" x="266.75" y="533.7905">null</text><polygon fill="#383838" points="532.25,557.5703,537.25,559.5703,532.25,561.5703,534.25,559.5703" style="stroke:#383838;stroke-width:0.5;"/><line style="stroke:#383838;stroke-width:0.5;" x1="249.25" x2="535.25" y1="559.5703" y2="559.5703"/><text fill="#000000" font-family="sans-serif" font-size="6.5" font-weight="bold" lengthAdjust="spacing" textLength="7" x="252.75" y="553.0542">29</text><text fill="#000000" font-family="sans-serif" font-size="6.5" lengthAdjust="spacing" textLength="52.5" x="261.75" y="548.9663">registerEmployee(</text><text fill="#000000" font-family="sans-serif" font-size="6.5" lengthAdjust="spacing" textLength="57" x="261.75" y="557.1421">"Legacy Agent", ...)</text><polygon fill="#383838" points="576.75,572.7461,581.75,574.7461,576.75,576.7461,578.75,574.7461" style="stroke:#383838;stroke-width:0.5;"/><line style="stroke:#383838;stroke-width:0.5;" x1="543.25" x2="579.75" y1="574.7461" y2="574.7461"/><text fill="#000000" font-family="sans-serif" font-size="6.5" font-weight="bold" lengthAdjust="spacing" textLength="7" x="546.75" y="572.3179">30</text><text fill="#000000" font-family="sans-serif" font-size="6.5" lengthAdjust="spacing" textLength="18" x="555.75" y="572.3179">create</text><rect fill="#F8F8F8" height="24.6094" style="stroke:#383838;stroke-width:0.75;" width="50.5" x="582.75" y="563.5703"/><text fill="#000000" font-family="sans-serif" font-size="7" lengthAdjust="spacing" textLength="43.5" x="586.25" y="574.3369">newEmployee</text><text fill="#000000" font-family="sans-serif" font-size="7" lengthAdjust="spacing" textLength="33" x="591.5" y="583.1416">:Employee</text><line style="stroke:#383838;stroke-width:0.5;" x1="610.5" x2="631.5" y1="604.8555" y2="604.8555"/><line style="stroke:#383838;stroke-width:0.5;" x1="631.5" x2="631.5" y1="604.8555" y2="611.3555"/><line style="stroke:#383838;stroke-width:0.5;" x1="611" x2="631.5" y1="611.3555" y2="611.3555"/><polygon fill="#383838" points="616,609.3555,611,611.3555,616,613.3555,614,611.3555" style="stroke:#383838;stroke-width:0.5;"/><text fill="#000000" font-family="sans-serif" font-size="6.5" font-weight="bold" lengthAdjust="spacing" textLength="7" x="614" y="602.4272">31</text><text fill="#000000" font-family="sans-serif" font-size="6.5" lengthAdjust="spacing" textLength="54.5" x="623" y="602.4272">validateEmployee()</text><polygon fill="#383838" points="548.75,624.5313,543.75,626.5313,548.75,628.5313,546.75,626.5313" style="stroke:#383838;stroke-width:0.5;"/><line style="stroke:#383838;stroke-width:0.5;stroke-dasharray:2.0,2.0;" x1="545.75" x2="607.5" y1="626.5313" y2="626.5313"/><text fill="#000000" font-family="sans-serif" font-size="6.5" font-weight="bold" lengthAdjust="spacing" textLength="7" x="551.75" y="624.103">32</text><text fill="#000000" font-family="sans-serif" font-size="6.5" lengthAdjust="spacing" textLength="11" x="560.75" y="624.103">true</text><polygon fill="#383838" points="254.75,639.707,249.75,641.707,254.75,643.707,252.75,641.707" style="stroke:#383838;stroke-width:0.5;"/><line style="stroke:#383838;stroke-width:0.5;stroke-dasharray:2.0,2.0;" x1="251.75" x2="540.25" y1="641.707" y2="641.707"/><text fill="#000000" font-family="sans-serif" font-size="6.5" font-weight="bold" lengthAdjust="spacing" textLength="7" x="257.75" y="639.2788">33</text><text fill="#000000" font-family="sans-serif" font-size="6.5" lengthAdjust="spacing" textLength="11" x="266.75" y="639.2788">true</text><polygon fill="#383838" points="360.5,658.3828,365.5,660.3828,360.5,662.3828,362.5,660.3828" style="stroke:#383838;stroke-width:0.5;"/><line style="stroke:#383838;stroke-width:0.5;" x1="249.25" x2="363.5" y1="660.3828" y2="660.3828"/><text fill="#000000" font-family="sans-serif" font-size="6.5" font-weight="bold" lengthAdjust="spacing" textLength="7" x="252.75" y="657.9546">34</text><text fill="#000000" font-family="sans-serif" font-size="6.5" lengthAdjust="spacing" textLength="40" x="261.75" y="657.9546">parseCsv(csv)</text><rect fill="#FFFFFF" height="21.3516" style="stroke:#000000;stroke-width:1.0;" width="79" x="344.75" y="664.3828"/><path d="M344.75,664.3828 L375.75,664.3828 L375.75,668.3828 L370.75,673.3828 L344.75,673.3828 L344.75,664.3828 " fill="#EEEEEE" style="stroke:#000000;stroke-width:1.0;"/><text fill="#000000" font-family="sans-serif" font-size="6.5" font-weight="bold" lengthAdjust="spacing" textLength="8.5" x="351.25" y="672.1304">ref</text><text fill="#000000" font-family="sans-serif" font-size="6.5" lengthAdjust="spacing" textLength="75" x="346.75" y="682.1304">SD_CsvHandler_parseCsv</text><polygon fill="#383838" points="254.75,697.4102,249.75,699.4102,254.75,701.4102,252.75,699.4102" style="stroke:#383838;stroke-width:0.5;"/><line style="stroke:#383838;stroke-width:0.5;stroke-dasharray:2.0,2.0;" x1="251.75" x2="368.5" y1="699.4102" y2="699.4102"/><text fill="#000000" font-family="sans-serif" font-size="6.5" font-weight="bold" lengthAdjust="spacing" textLength="7" x="257.75" y="696.9819">56</text><text fill="#000000" font-family="sans-serif" font-size="6.5" lengthAdjust="spacing" textLength="11" x="266.75" y="696.9819">true</text><polygon fill="#383838" points="156.25,712.5859,151.25,714.5859,156.25,716.5859,154.25,714.5859" style="stroke:#383838;stroke-width:0.5;"/><line style="stroke:#383838;stroke-width:0.5;stroke-dasharray:2.0,2.0;" x1="153.25" x2="246.25" y1="714.5859" y2="714.5859"/><text fill="#000000" font-family="sans-serif" font-size="6.5" font-weight="bold" lengthAdjust="spacing" textLength="7" x="159.25" y="712.1577">57</text><text fill="#000000" font-family="sans-serif" font-size="6.5" lengthAdjust="spacing" textLength="72.5" x="168.25" y="712.1577">inform operation success</text><polygon fill="#383838" points="57.75,727.7617,52.75,729.7617,57.75,731.7617,55.75,729.7617" style="stroke:#383838;stroke-width:0.5;"/><line style="stroke:#383838;stroke-width:0.5;stroke-dasharray:2.0,2.0;" x1="54.75" x2="147.75" y1="729.7617" y2="729.7617"/><text fill="#000000" font-family="sans-serif" font-size="6.5" font-weight="bold" lengthAdjust="spacing" textLength="7" x="60.75" y="727.3335">58</text><text fill="#000000" font-family="sans-serif" font-size="6.5" lengthAdjust="spacing" textLength="72.5" x="69.75" y="727.3335">inform operation success</text><!--MD5=[79f0bde4284e62d7097cab3505f4d6a4]
@startuml
'https://plantuml.com/sequence-diagram

skinparam monochrome true
skinparam shadowing false
autonumber

actor "System Administrator" as sa
participant ":LegacyImportUI" as ui
participant ":LegacyImportController" as ctrl
participant ":FileHandler" as fh
participant ":CsvHandler" as ch

participant ":Repositories" as repos
participant "repositories\n:Repositories" as repositories
'participant "announcementRepository\n:AnnouncementRepository" as AnnR
participant "employeeRepository\n:EmployeeRepository" as EmpR
'participant "clientRepository\n:ClientRepository" as CliR
'participant "branchRepository\n:BranchRepository" as BraR
participant "newEmployee\n:Employee" as Emp
'participant ":Announcement" as Ann
'participant ":Property" as Pro

activate sa
sa -> ui: starts importing data
activate ui
ui -> ctrl**: create
activate ctrl
ctrl -> repos: getInstance()
activate repos
return repositories

ctrl -> repositories: getBranchRepository()
activate repositories
return branchRepository

ctrl -> repositories: getAnnouncementRepository()
activate repositories
return announcementRepository

ctrl -> repositories: getEmployeeRepository()
activate repositories
return employeeRepository


ctrl -> repositories: getClientRepository()
activate repositories
return clientRepository
deactivate ctrl

return requests file path

sa -> ui: types file path
activate ui

ui -> ctrl: importFile(filePath)
activate ctrl
'ctrl -> fh**: create
ctrl -> fh: readFile(filePath)
activate fh
alt file not found
fh -> ctrl: null
ctrl -> ui: false
ui -> sa: informs file not found
else file found
    return file
ctrl -> fh: readCSV(file)
activate fh
return csv[]

ctrl -> ctrl: csv[].length()
'activate ctrl
alt csv[].length() < 2
ctrl -> ui: null
ui -> sa: inform file is empty
else csv[].length >= 2

ctrl -> EmpR: getEmployeeByName("Legacy Agent")
activate EmpR
alt
    EmpR - -> ctrl: Employee legacyAgent
else
    return null
    ctrl -> EmpR: registerEmployee(\n"Legacy Agent", ...)
    activate EmpR
    EmpR -> Emp**: create
    activate Emp
    Emp -> Emp: validateEmployee()
    return true
    return true
end


ctrl -> ch: parseCsv(csv)
activate ch
ref over ch: SD_CsvHandler_parseCsv
autonumber 56
return true
return inform operation success
return inform operation success
end
end



'alt
'    ui - -> sa: informs operation success
'else
'    ui - -> sa: inform no CSV file found
'else
'    return inform file is empty
'
'end

deactivate sa

@enduml

@startuml

skinparam monochrome true
skinparam shadowing false
autonumber

actor "System Administrator" as sa
participant ":LegacyImportUI" as ui
participant ":LegacyImportController" as ctrl
participant ":FileHandler" as fh
participant ":CsvHandler" as ch

participant ":Repositories" as repos
participant "repositories\n:Repositories" as repositories
participant "employeeRepository\n:EmployeeRepository" as EmpR
participant "newEmployee\n:Employee" as Emp

activate sa
sa -> ui: starts importing data
activate ui
ui -> ctrl**: create
activate ctrl
ctrl -> repos: getInstance()
activate repos
return repositories

ctrl -> repositories: getBranchRepository()
activate repositories
return branchRepository

ctrl -> repositories: getAnnouncementRepository()
activate repositories
return announcementRepository

ctrl -> repositories: getEmployeeRepository()
activate repositories
return employeeRepository


ctrl -> repositories: getClientRepository()
activate repositories
return clientRepository
deactivate ctrl

return requests file path

sa -> ui: types file path
activate ui

ui -> ctrl: importFile(filePath)
activate ctrl
ctrl -> fh: readFile(filePath)
activate fh
alt file not found
fh -> ctrl: null
ctrl -> ui: false
ui -> sa: informs file not found
else file found
    return file
ctrl -> fh: readCSV(file)
activate fh
return csv[]

ctrl -> ctrl: csv[].length()
alt csv[].length() < 2
ctrl -> ui: null
ui -> sa: inform file is empty
else csv[].length >= 2

ctrl -> EmpR: getEmployeeByName("Legacy Agent")
activate EmpR
alt
    EmpR - -> ctrl: Employee legacyAgent
else
    return null
    ctrl -> EmpR: registerEmployee(\n"Legacy Agent", ...)
    activate EmpR
    EmpR -> Emp**: create
    activate Emp
    Emp -> Emp: validateEmployee()
    return true
    return true
end


ctrl -> ch: parseCsv(csv)
activate ch
ref over ch: SD_CsvHandler_parseCsv
autonumber 56
return true
return inform operation success
return inform operation success
end
end




deactivate sa

@enduml

PlantUML version 1.2022.1(Tue Feb 01 18:19:58 GMT 2022)
(GPL source distribution)
Java Runtime: OpenJDK Runtime Environment
JVM: OpenJDK 64-Bit Server VM
Default Encoding: Cp1252
Language: en
Country: US
--></g></svg>