<?xml version="1.0" encoding="us-ascii" standalone="no"?><svg xmlns="http://www.w3.org/2000/svg" xmlns:xlink="http://www.w3.org/1999/xlink" contentStyleType="text/css" height="869px" preserveAspectRatio="none" style="width:579px;height:869px;background:#FFFFFF;" version="1.1" viewBox="0 0 579 869" width="579px" zoomAndPan="magnify"><defs/><g><!--class Runnable--><g id="elem_Runnable"><rect codeLine="2" fill="#F1F1F1" height="66.6211" id="Runnable" rx="2.5" ry="2.5" style="stroke:#181818;stroke-width:0.5;" width="93" x="7" y="16"/><ellipse cx="22" cy="32" fill="#B4A7E5" rx="11" ry="11" style="stroke:#181818;stroke-width:1.0;"/><path d="M22.9531,28.6406 L22.9531,35.2969 L24.6719,35.2969 Q25.2813,35.2969 25.5469,35.5313 Q25.8125,35.7656 25.8125,36.1563 Q25.8125,36.5313 25.5469,36.7656 Q25.2813,37 24.6719,37 L19.5313,37 Q18.9219,37 18.6563,36.7656 Q18.3906,36.5313 18.3906,36.1406 Q18.3906,35.7656 18.6563,35.5313 Q18.9219,35.2969 19.5313,35.2969 L21.25,35.2969 L21.25,28.6406 L19.5313,28.6406 Q18.9219,28.6406 18.6563,28.4063 Q18.3906,28.1719 18.3906,27.7813 Q18.3906,27.4063 18.6563,27.1719 Q18.9219,26.9375 19.5313,26.9375 L24.6719,26.9375 Q25.2813,26.9375 25.5469,27.1719 Q25.8125,27.4063 25.8125,27.7813 Q25.8125,28.1719 25.5469,28.4063 Q25.2813,28.6406 24.6719,28.6406 L22.9531,28.6406 Z " fill="#000000"/><text fill="#000000" font-family="sans-serif" font-size="14" font-style="italic" lengthAdjust="spacing" textLength="61" x="36" y="37.7969">Runnable</text><line style="stroke:#181818;stroke-width:0.5;" x1="8" x2="99" y1="48" y2="48"/><line style="stroke:#181818;stroke-width:0.5;" x1="8" x2="99" y1="56" y2="56"/><ellipse cx="18" cy="70.8105" fill="#84BE84" rx="3" ry="3" style="stroke:#038048;stroke-width:1.0;"/><text fill="#000000" font-family="sans-serif" font-size="14" lengthAdjust="spacing" textLength="31" x="27" y="75.1074">run()</text></g><!--class ReadResponseOfAppointmentRequestGUI--><g id="elem_ReadResponseOfAppointmentRequestGUI"><rect codeLine="7" fill="#F1F1F1" height="85.2422" id="ReadResponseOfAppointmentRequestGUI" rx="2.5" ry="2.5" style="stroke:#181818;stroke-width:0.5;" width="300" x="135.5" y="7"/><ellipse cx="150.5" cy="23" fill="#ADD1B2" rx="11" ry="11" style="stroke:#181818;stroke-width:1.0;"/><path d="M153.2656,18.875 Q153.4219,18.6563 153.6094,18.5469 Q153.7969,18.4375 154.0156,18.4375 Q154.3906,18.4375 154.625,18.7031 Q154.8594,18.9531 154.8594,19.5625 L154.8594,21.0156 Q154.8594,21.625 154.625,21.8906 Q154.3906,22.1563 154.0156,22.1563 Q153.6719,22.1563 153.4688,21.9531 Q153.2656,21.7656 153.1563,21.25 Q153.1094,20.8906 152.9219,20.7031 Q152.5938,20.3281 151.9844,20.1094 Q151.375,19.8906 150.75,19.8906 Q149.9844,19.8906 149.3438,20.2188 Q148.7188,20.5469 148.2188,21.2969 Q147.7344,22.0469 147.7344,23.0781 L147.7344,24.1719 Q147.7344,25.4063 148.625,26.2344 Q149.5156,27.0469 151.1094,27.0469 Q152.0469,27.0469 152.7031,26.7969 Q153.0938,26.6406 153.5156,26.2031 Q153.7813,25.9375 153.9219,25.8594 Q154.0781,25.7813 154.2813,25.7813 Q154.6094,25.7813 154.8594,26.0469 Q155.125,26.2969 155.125,26.6406 Q155.125,26.9844 154.7813,27.3906 Q154.2813,27.9688 153.4844,28.2969 Q152.4063,28.75 151.1094,28.75 Q149.5938,28.75 148.3906,28.125 Q147.4063,27.625 146.7188,26.5625 Q146.0313,25.4844 146.0313,24.2031 L146.0313,23.0469 Q146.0313,21.7188 146.6406,20.5781 Q147.2656,19.4219 148.3594,18.8125 Q149.4531,18.1875 150.6875,18.1875 Q151.4219,18.1875 152.0625,18.3594 Q152.7188,18.5156 153.2656,18.875 Z " fill="#000000"/><text fill="#000000" font-family="sans-serif" font-size="14" lengthAdjust="spacing" textLength="268" x="164.5" y="28.7969">ReadResponseOfAppointmentRequestGUI</text><line style="stroke:#181818;stroke-width:0.5;" x1="136.5" x2="434.5" y1="39" y2="39"/><line style="stroke:#181818;stroke-width:0.5;" x1="136.5" x2="434.5" y1="47" y2="47"/><ellipse cx="146.5" cy="61.8105" fill="#84BE84" rx="3" ry="3" style="stroke:#038048;stroke-width:1.0;"/><text fill="#000000" font-family="sans-serif" font-size="14" lengthAdjust="spacing" textLength="38" x="155.5" y="66.1074">start()</text><ellipse cx="146.5" cy="80.4316" fill="#84BE84" rx="3" ry="3" style="stroke:#038048;stroke-width:1.0;"/><text fill="#000000" font-family="sans-serif" font-size="14" lengthAdjust="spacing" textLength="40" x="155.5" y="84.7285">main()</text></g><!--class ReadResponseOfAppointmentRequestController--><g id="elem_ReadResponseOfAppointmentRequestController"><rect codeLine="13" fill="#F1F1F1" height="271.4531" id="ReadResponseOfAppointmentRequestController" rx="2.5" ry="2.5" style="stroke:#181818;stroke-width:0.5;" width="339" x="116" y="152"/><ellipse cx="131" cy="168" fill="#ADD1B2" rx="11" ry="11" style="stroke:#181818;stroke-width:1.0;"/><path d="M133.7656,163.875 Q133.9219,163.6563 134.1094,163.5469 Q134.2969,163.4375 134.5156,163.4375 Q134.8906,163.4375 135.125,163.7031 Q135.3594,163.9531 135.3594,164.5625 L135.3594,166.0156 Q135.3594,166.625 135.125,166.8906 Q134.8906,167.1563 134.5156,167.1563 Q134.1719,167.1563 133.9688,166.9531 Q133.7656,166.7656 133.6563,166.25 Q133.6094,165.8906 133.4219,165.7031 Q133.0938,165.3281 132.4844,165.1094 Q131.875,164.8906 131.25,164.8906 Q130.4844,164.8906 129.8438,165.2188 Q129.2188,165.5469 128.7188,166.2969 Q128.2344,167.0469 128.2344,168.0781 L128.2344,169.1719 Q128.2344,170.4063 129.125,171.2344 Q130.0156,172.0469 131.6094,172.0469 Q132.5469,172.0469 133.2031,171.7969 Q133.5938,171.6406 134.0156,171.2031 Q134.2813,170.9375 134.4219,170.8594 Q134.5781,170.7813 134.7813,170.7813 Q135.1094,170.7813 135.3594,171.0469 Q135.625,171.2969 135.625,171.6406 Q135.625,171.9844 135.2813,172.3906 Q134.7813,172.9688 133.9844,173.2969 Q132.9063,173.75 131.6094,173.75 Q130.0938,173.75 128.8906,173.125 Q127.9063,172.625 127.2188,171.5625 Q126.5313,170.4844 126.5313,169.2031 L126.5313,168.0469 Q126.5313,166.7188 127.1406,165.5781 Q127.7656,164.4219 128.8594,163.8125 Q129.9531,163.1875 131.1875,163.1875 Q131.9219,163.1875 132.5625,163.3594 Q133.2188,163.5156 133.7656,163.875 Z " fill="#000000"/><text fill="#000000" font-family="sans-serif" font-size="14" lengthAdjust="spacing" textLength="307" x="145" y="173.7969">ReadResponseOfAppointmentRequestController</text><line style="stroke:#181818;stroke-width:0.5;" x1="117" x2="454" y1="184" y2="184"/><rect fill="none" height="6" style="stroke:#C82930;stroke-width:1.0;" width="6" x="124" y="195.8105"/><text fill="#000000" font-family="sans-serif" font-size="14" lengthAdjust="spacing" textLength="67" x="136" y="203.1074">btnAccept;</text><rect fill="none" height="6" style="stroke:#C82930;stroke-width:1.0;" width="6" x="124" y="214.4316"/><text fill="#000000" font-family="sans-serif" font-size="14" lengthAdjust="spacing" textLength="68" x="136" y="221.7285">btnCancel;</text><rect fill="none" height="6" style="stroke:#C82930;stroke-width:1.0;" width="6" x="124" y="233.0527"/><text fill="#000000" font-family="sans-serif" font-size="14" lengthAdjust="spacing" textLength="77" x="136" y="240.3496">lstSchedule;</text><rect fill="none" height="6" style="stroke:#C82930;stroke-width:1.0;" width="6" x="124" y="251.6738"/><text fill="#000000" font-family="sans-serif" font-size="14" lengthAdjust="spacing" textLength="134" x="136" y="258.9707">txtScheduleMessage;</text><rect fill="none" height="6" style="stroke:#C82930;stroke-width:1.0;" width="6" x="124" y="270.2949"/><text fill="#000000" font-family="sans-serif" font-size="14" lengthAdjust="spacing" textLength="67" x="136" y="277.5918">txtReason;</text><rect fill="none" height="6" style="stroke:#C82930;stroke-width:1.0;" width="6" x="124" y="288.916"/><text fill="#000000" font-family="sans-serif" font-size="14" lengthAdjust="spacing" textLength="64" x="136" y="296.2129">btnReject;</text><line style="stroke:#181818;stroke-width:0.5;" x1="117" x2="454" y1="303.7266" y2="303.7266"/><ellipse cx="127" cy="318.5371" fill="#84BE84" rx="3" ry="3" style="stroke:#038048;stroke-width:1.0;"/><text fill="#000000" font-family="sans-serif" font-size="14" lengthAdjust="spacing" textLength="105" x="136" y="322.834">acceptRequest()</text><ellipse cx="127" cy="337.1582" fill="#84BE84" rx="3" ry="3" style="stroke:#038048;stroke-width:1.0;"/><text fill="#000000" font-family="sans-serif" font-size="14" lengthAdjust="spacing" textLength="98" x="136" y="341.4551">rejectRequest()</text><ellipse cx="127" cy="355.7793" fill="#84BE84" rx="3" ry="3" style="stroke:#038048;stroke-width:1.0;"/><text fill="#000000" font-family="sans-serif" font-size="14" lengthAdjust="spacing" textLength="165" x="136" y="360.0762">cancel(ActionEvent event)</text><ellipse cx="127" cy="374.4004" fill="#84BE84" rx="3" ry="3" style="stroke:#038048;stroke-width:1.0;"/><text fill="#000000" font-family="sans-serif" font-size="14" lengthAdjust="spacing" textLength="111" x="136" y="378.6973">getScheduleList()</text><ellipse cx="127" cy="393.0215" fill="#84BE84" rx="3" ry="3" style="stroke:#038048;stroke-width:1.0;"/><text fill="#000000" font-family="sans-serif" font-size="14" lengthAdjust="spacing" textLength="59" x="136" y="397.3184">initialize()</text><ellipse cx="127" cy="411.6426" fill="#84BE84" rx="3" ry="3" style="stroke:#038048;stroke-width:1.0;"/><text fill="#000000" font-family="sans-serif" font-size="14" lengthAdjust="spacing" textLength="164" x="136" y="415.9395">sendNotificationToAgent()</text></g><!--class Schedule--><g id="elem_Schedule"><rect codeLine="30" fill="#F1F1F1" height="252.832" id="Schedule" rx="2.5" ry="2.5" style="stroke:#181818;stroke-width:0.5;" width="150" x="400.5" y="610"/><ellipse cx="442.05" cy="626" fill="#ADD1B2" rx="11" ry="11" style="stroke:#181818;stroke-width:1.0;"/><path d="M444.8156,621.875 Q444.9719,621.6563 445.1594,621.5469 Q445.3469,621.4375 445.5656,621.4375 Q445.9406,621.4375 446.175,621.7031 Q446.4094,621.9531 446.4094,622.5625 L446.4094,624.0156 Q446.4094,624.625 446.175,624.8906 Q445.9406,625.1563 445.5656,625.1563 Q445.2219,625.1563 445.0188,624.9531 Q444.8156,624.7656 444.7063,624.25 Q444.6594,623.8906 444.4719,623.7031 Q444.1438,623.3281 443.5344,623.1094 Q442.925,622.8906 442.3,622.8906 Q441.5344,622.8906 440.8938,623.2188 Q440.2688,623.5469 439.7688,624.2969 Q439.2844,625.0469 439.2844,626.0781 L439.2844,627.1719 Q439.2844,628.4063 440.175,629.2344 Q441.0656,630.0469 442.6594,630.0469 Q443.5969,630.0469 444.2531,629.7969 Q444.6438,629.6406 445.0656,629.2031 Q445.3313,628.9375 445.4719,628.8594 Q445.6281,628.7813 445.8313,628.7813 Q446.1594,628.7813 446.4094,629.0469 Q446.675,629.2969 446.675,629.6406 Q446.675,629.9844 446.3313,630.3906 Q445.8313,630.9688 445.0344,631.2969 Q443.9563,631.75 442.6594,631.75 Q441.1438,631.75 439.9406,631.125 Q438.9563,630.625 438.2688,629.5625 Q437.5813,628.4844 437.5813,627.2031 L437.5813,626.0469 Q437.5813,624.7188 438.1906,623.5781 Q438.8156,622.4219 439.9094,621.8125 Q441.0031,621.1875 442.2375,621.1875 Q442.9719,621.1875 443.6125,621.3594 Q444.2688,621.5156 444.8156,621.875 Z " fill="#000000"/><text fill="#000000" font-family="sans-serif" font-size="14" lengthAdjust="spacing" textLength="59" x="461.95" y="631.7969">Schedule</text><line style="stroke:#181818;stroke-width:0.5;" x1="401.5" x2="549.5" y1="642" y2="642"/><rect fill="none" height="6" style="stroke:#C82930;stroke-width:1.0;" width="6" x="408.5" y="653.8105"/><text fill="#000000" font-family="sans-serif" font-size="14" lengthAdjust="spacing" textLength="35" x="420.5" y="661.1074">name</text><rect fill="none" height="6" style="stroke:#C82930;stroke-width:1.0;" width="6" x="408.5" y="672.4316"/><text fill="#000000" font-family="sans-serif" font-size="14" lengthAdjust="spacing" textLength="93" x="420.5" y="679.7285">phoneNumber;</text><rect fill="none" height="6" style="stroke:#C82930;stroke-width:1.0;" width="6" x="408.5" y="691.0527"/><text fill="#000000" font-family="sans-serif" font-size="14" lengthAdjust="spacing" textLength="124" x="420.5" y="698.3496">announcementDTO</text><rect fill="none" height="6" style="stroke:#C82930;stroke-width:1.0;" width="6" x="408.5" y="709.6738"/><text fill="#000000" font-family="sans-serif" font-size="14" lengthAdjust="spacing" textLength="23" x="420.5" y="716.9707">day</text><rect fill="none" height="6" style="stroke:#C82930;stroke-width:1.0;" width="6" x="408.5" y="728.2949"/><text fill="#000000" font-family="sans-serif" font-size="14" lengthAdjust="spacing" textLength="65" x="420.5" y="735.5918">beginHour</text><rect fill="none" height="6" style="stroke:#C82930;stroke-width:1.0;" width="6" x="408.5" y="746.916"/><text fill="#000000" font-family="sans-serif" font-size="14" lengthAdjust="spacing" textLength="54" x="420.5" y="754.2129">endHour</text><rect fill="none" height="6" style="stroke:#C82930;stroke-width:1.0;" width="6" x="408.5" y="765.5371"/><text fill="#000000" font-family="sans-serif" font-size="14" lengthAdjust="spacing" textLength="98" x="420.5" y="772.834">noteFromAgent</text><rect fill="none" height="6" style="stroke:#C82930;stroke-width:1.0;" width="6" x="408.5" y="784.1582"/><text fill="#000000" font-family="sans-serif" font-size="14" lengthAdjust="spacing" textLength="38" x="420.5" y="791.4551">status</text><rect fill="none" height="6" style="stroke:#C82930;stroke-width:1.0;" width="6" x="408.5" y="802.7793"/><text fill="#000000" font-family="sans-serif" font-size="14" lengthAdjust="spacing" textLength="89" x="420.5" y="810.0762">agentAproved</text><rect fill="none" height="6" style="stroke:#C82930;stroke-width:1.0;" width="6" x="408.5" y="821.4004"/><text fill="#000000" font-family="sans-serif" font-size="14" lengthAdjust="spacing" textLength="89" x="420.5" y="828.6973">clientApproval</text><rect fill="none" height="6" style="stroke:#C82930;stroke-width:1.0;" width="6" x="408.5" y="840.0215"/><text fill="#000000" font-family="sans-serif" font-size="14" lengthAdjust="spacing" textLength="97" x="420.5" y="847.3184">noteFromClient</text><line style="stroke:#181818;stroke-width:0.5;" x1="401.5" x2="549.5" y1="854.832" y2="854.832"/></g><!--class Repositories--><g id="elem_Repositories"><rect codeLine="45" fill="#F1F1F1" height="66.6211" id="Repositories" rx="2.5" ry="2.5" style="stroke:#181818;stroke-width:0.5;" width="151" x="210" y="483"/><ellipse cx="243" cy="499" fill="#ADD1B2" rx="11" ry="11" style="stroke:#181818;stroke-width:1.0;"/><path d="M245.7656,494.875 Q245.9219,494.6563 246.1094,494.5469 Q246.2969,494.4375 246.5156,494.4375 Q246.8906,494.4375 247.125,494.7031 Q247.3594,494.9531 247.3594,495.5625 L247.3594,497.0156 Q247.3594,497.625 247.125,497.8906 Q246.8906,498.1563 246.5156,498.1563 Q246.1719,498.1563 245.9688,497.9531 Q245.7656,497.7656 245.6563,497.25 Q245.6094,496.8906 245.4219,496.7031 Q245.0938,496.3281 244.4844,496.1094 Q243.875,495.8906 243.25,495.8906 Q242.4844,495.8906 241.8438,496.2188 Q241.2188,496.5469 240.7188,497.2969 Q240.2344,498.0469 240.2344,499.0781 L240.2344,500.1719 Q240.2344,501.4063 241.125,502.2344 Q242.0156,503.0469 243.6094,503.0469 Q244.5469,503.0469 245.2031,502.7969 Q245.5938,502.6406 246.0156,502.2031 Q246.2813,501.9375 246.4219,501.8594 Q246.5781,501.7813 246.7813,501.7813 Q247.1094,501.7813 247.3594,502.0469 Q247.625,502.2969 247.625,502.6406 Q247.625,502.9844 247.2813,503.3906 Q246.7813,503.9688 245.9844,504.2969 Q244.9063,504.75 243.6094,504.75 Q242.0938,504.75 240.8906,504.125 Q239.9063,503.625 239.2188,502.5625 Q238.5313,501.4844 238.5313,500.2031 L238.5313,499.0469 Q238.5313,497.7188 239.1406,496.5781 Q239.7656,495.4219 240.8594,494.8125 Q241.9531,494.1875 243.1875,494.1875 Q243.9219,494.1875 244.5625,494.3594 Q245.2188,494.5156 245.7656,494.875 Z " fill="#000000"/><text fill="#000000" font-family="sans-serif" font-size="14" lengthAdjust="spacing" textLength="79" x="261" y="504.7969">Repositories</text><line style="stroke:#181818;stroke-width:0.5;" x1="211" x2="360" y1="515" y2="515"/><ellipse cx="221" cy="529.8105" fill="none" rx="3" ry="3" style="stroke:#038048;stroke-width:1.0;"/><text fill="#000000" font-family="sans-serif" font-size="14" lengthAdjust="spacing" textLength="125" x="230" y="534.1074">scheduleRepository</text><line style="stroke:#181818;stroke-width:0.5;" x1="211" x2="360" y1="541.6211" y2="541.6211"/></g><!--class ScheduleRepository--><g id="elem_ScheduleRepository"><rect codeLine="50" fill="#F1F1F1" height="141.1055" id="ScheduleRepository" rx="2.5" ry="2.5" style="stroke:#181818;stroke-width:0.5;" width="159" x="206" y="666"/><ellipse cx="221" cy="682" fill="#ADD1B2" rx="11" ry="11" style="stroke:#181818;stroke-width:1.0;"/><path d="M223.7656,677.875 Q223.9219,677.6563 224.1094,677.5469 Q224.2969,677.4375 224.5156,677.4375 Q224.8906,677.4375 225.125,677.7031 Q225.3594,677.9531 225.3594,678.5625 L225.3594,680.0156 Q225.3594,680.625 225.125,680.8906 Q224.8906,681.1563 224.5156,681.1563 Q224.1719,681.1563 223.9688,680.9531 Q223.7656,680.7656 223.6563,680.25 Q223.6094,679.8906 223.4219,679.7031 Q223.0938,679.3281 222.4844,679.1094 Q221.875,678.8906 221.25,678.8906 Q220.4844,678.8906 219.8438,679.2188 Q219.2188,679.5469 218.7188,680.2969 Q218.2344,681.0469 218.2344,682.0781 L218.2344,683.1719 Q218.2344,684.4063 219.125,685.2344 Q220.0156,686.0469 221.6094,686.0469 Q222.5469,686.0469 223.2031,685.7969 Q223.5938,685.6406 224.0156,685.2031 Q224.2813,684.9375 224.4219,684.8594 Q224.5781,684.7813 224.7813,684.7813 Q225.1094,684.7813 225.3594,685.0469 Q225.625,685.2969 225.625,685.6406 Q225.625,685.9844 225.2813,686.3906 Q224.7813,686.9688 223.9844,687.2969 Q222.9063,687.75 221.6094,687.75 Q220.0938,687.75 218.8906,687.125 Q217.9063,686.625 217.2188,685.5625 Q216.5313,684.4844 216.5313,683.2031 L216.5313,682.0469 Q216.5313,680.7188 217.1406,679.5781 Q217.7656,678.4219 218.8594,677.8125 Q219.9531,677.1875 221.1875,677.1875 Q221.9219,677.1875 222.5625,677.3594 Q223.2188,677.5156 223.7656,677.875 Z " fill="#000000"/><text fill="#000000" font-family="sans-serif" font-size="14" lengthAdjust="spacing" textLength="127" x="235" y="687.7969">ScheduleRepository</text><line style="stroke:#181818;stroke-width:0.5;" x1="207" x2="364" y1="698" y2="698"/><rect fill="none" height="6" style="stroke:#C82930;stroke-width:1.0;" width="6" x="214" y="709.8105"/><text fill="#000000" font-family="sans-serif" font-size="14" lengthAdjust="spacing" textLength="81" x="226" y="717.1074">ScheduleList</text><line style="stroke:#181818;stroke-width:0.5;" x1="207" x2="364" y1="724.6211" y2="724.6211"/><ellipse cx="217" cy="739.4316" fill="#84BE84" rx="3" ry="3" style="stroke:#038048;stroke-width:1.0;"/><text fill="#000000" font-family="sans-serif" font-size="14" lengthAdjust="spacing" textLength="99" x="226" y="743.7285">saveSchedule()</text><ellipse cx="217" cy="758.0527" fill="#84BE84" rx="3" ry="3" style="stroke:#038048;stroke-width:1.0;"/><text fill="#000000" font-family="sans-serif" font-size="14" lengthAdjust="spacing" textLength="118" x="226" y="762.3496">validateSchedule()</text><ellipse cx="217" cy="776.6738" fill="#84BE84" rx="3" ry="3" style="stroke:#038048;stroke-width:1.0;"/><text fill="#000000" font-family="sans-serif" font-size="14" lengthAdjust="spacing" textLength="93" x="226" y="780.9707">addSchedule()</text><ellipse cx="217" cy="795.2949" fill="#84BE84" rx="3" ry="3" style="stroke:#038048;stroke-width:1.0;"/><text fill="#000000" font-family="sans-serif" font-size="14" lengthAdjust="spacing" textLength="111" x="226" y="799.5918">getScheduleList()</text></g><!--class Application--><g id="elem_Application"><rect fill="#F1F1F1" height="48" id="Application" rx="2.5" ry="2.5" style="stroke:#181818;stroke-width:0.5;" width="101" x="471" y="25.5"/><ellipse cx="486" cy="41.5" fill="#ADD1B2" rx="11" ry="11" style="stroke:#181818;stroke-width:1.0;"/><path d="M488.7656,37.375 Q488.9219,37.1563 489.1094,37.0469 Q489.2969,36.9375 489.5156,36.9375 Q489.8906,36.9375 490.125,37.2031 Q490.3594,37.4531 490.3594,38.0625 L490.3594,39.5156 Q490.3594,40.125 490.125,40.3906 Q489.8906,40.6563 489.5156,40.6563 Q489.1719,40.6563 488.9688,40.4531 Q488.7656,40.2656 488.6563,39.75 Q488.6094,39.3906 488.4219,39.2031 Q488.0938,38.8281 487.4844,38.6094 Q486.875,38.3906 486.25,38.3906 Q485.4844,38.3906 484.8438,38.7188 Q484.2188,39.0469 483.7188,39.7969 Q483.2344,40.5469 483.2344,41.5781 L483.2344,42.6719 Q483.2344,43.9063 484.125,44.7344 Q485.0156,45.5469 486.6094,45.5469 Q487.5469,45.5469 488.2031,45.2969 Q488.5938,45.1406 489.0156,44.7031 Q489.2813,44.4375 489.4219,44.3594 Q489.5781,44.2813 489.7813,44.2813 Q490.1094,44.2813 490.3594,44.5469 Q490.625,44.7969 490.625,45.1406 Q490.625,45.4844 490.2813,45.8906 Q489.7813,46.4688 488.9844,46.7969 Q487.9063,47.25 486.6094,47.25 Q485.0938,47.25 483.8906,46.625 Q482.9063,46.125 482.2188,45.0625 Q481.5313,43.9844 481.5313,42.7031 L481.5313,41.5469 Q481.5313,40.2188 482.1406,39.0781 Q482.7656,37.9219 483.8594,37.3125 Q484.9531,36.6875 486.1875,36.6875 Q486.9219,36.6875 487.5625,36.8594 Q488.2188,37.0156 488.7656,37.375 Z " fill="#000000"/><text fill="#000000" font-family="sans-serif" font-size="14" lengthAdjust="spacing" textLength="69" x="500" y="47.2969">Application</text><line style="stroke:#181818;stroke-width:0.5;" x1="472" x2="571" y1="57.5" y2="57.5"/><line style="stroke:#181818;stroke-width:0.5;" x1="472" x2="571" y1="65.5" y2="65.5"/></g><!--link ReadResponseOfAppointmentRequestGUI to ReadResponseOfAppointmentRequestController--><g id="link_ReadResponseOfAppointmentRequestGUI_ReadResponseOfAppointmentRequestController"><path codeLine="60" d="M285.5,92.15 C285.5,107.95 285.5,126.94 285.5,146.79 " fill="none" id="ReadResponseOfAppointmentRequestGUI-to-ReadResponseOfAppointmentRequestController" style="stroke:#181818;stroke-width:1.0;stroke-dasharray:7.0,7.0;"/><polygon fill="#181818" points="285.5,151.85,289.5,142.85,285.5,146.85,281.5,142.85,285.5,151.85" style="stroke:#181818;stroke-width:1.0;"/></g><!--link ReadResponseOfAppointmentRequestController to Repositories--><g id="link_ReadResponseOfAppointmentRequestController_Repositories"><path codeLine="61" d="M285.5,423.17 C285.5,443.07 285.5,462.07 285.5,477.6 " fill="none" id="ReadResponseOfAppointmentRequestController-to-Repositories" style="stroke:#181818;stroke-width:1.0;stroke-dasharray:7.0,7.0;"/><polygon fill="#181818" points="285.5,482.73,289.5,473.73,285.5,477.73,281.5,473.73,285.5,482.73" style="stroke:#181818;stroke-width:1.0;"/></g><!--link Repositories to ScheduleRepository--><g id="link_Repositories_ScheduleRepository"><path codeLine="62" d="M285.5,550.14 C285.5,579.24 285.5,622.93 285.5,660.59 " fill="none" id="Repositories-to-ScheduleRepository" style="stroke:#181818;stroke-width:1.0;stroke-dasharray:7.0,7.0;"/><polygon fill="#181818" points="285.5,665.62,289.5,656.62,285.5,660.62,281.5,656.62,285.5,665.62" style="stroke:#181818;stroke-width:1.0;"/></g><!--link ScheduleRepository to Schedule--><g id="link_ScheduleRepository_Schedule"><path codeLine="63" d="M365.29,736.5 C375.18,736.5 385.08,736.5 394.98,736.5 " fill="none" id="ScheduleRepository-to-Schedule" style="stroke:#181818;stroke-width:1.0;"/><polygon fill="#181818" points="400.16,736.5,391.16,732.5,395.16,736.5,391.16,740.5,400.16,736.5" style="stroke:#181818;stroke-width:1.0;"/></g><!--reverse link ReadResponseOfAppointmentRequestGUI to Application--><g id="link_ReadResponseOfAppointmentRequestGUI_Application"><path codeLine="64" d="M455.82,49.5 C460.86,49.5 465.89,49.5 470.93,49.5 " fill="none" id="ReadResponseOfAppointmentRequestGUI-backto-Application" style="stroke:#181818;stroke-width:1.0;"/><polygon fill="none" points="455.77,56.5,435.77,49.5,455.77,42.5,455.77,56.5" style="stroke:#181818;stroke-width:1.0;"/></g><!--link Runnable to ReadResponseOfAppointmentRequestGUI--><g id="link_Runnable_ReadResponseOfAppointmentRequestGUI"><path codeLine="65" d="M100.17,49.5 C105.2,49.5 110.23,49.5 115.26,49.5 " fill="none" id="Runnable-to-ReadResponseOfAppointmentRequestGUI" style="stroke:#181818;stroke-width:1.0;"/><polygon fill="none" points="115.28,42.5,135.28,49.5,115.28,56.5,115.28,42.5" style="stroke:#181818;stroke-width:1.0;"/></g><!--SRC=[bLJPRkGW47pdAtXC53a_42cIDPjZfHoIa_s07jpZwHLk76YFaZt-FTZ1nuppCCE3PQgWA8e6Oa6_0OEwQ9bXRL7_LKh7Tg5zosVdwhzIna88ka0e2moDuu3Fcxnf7B7Ko5BWMuj1xdxzdEO60IznzbUl1Zf9QkLOlBCM_Q3OjKolXNDZi96hVN05RD3EGHlanMonR2tEONaVuKSC0Qf3DZeBZW_a2_oD9guveXSQUXl9RjfdIgqV_1rZUfTdkH5oVBEBszNOVUTZAXmDFj31V68I0aj_S0yEoEMJ4zgGWKxvrULLL9tdFKWEQMQQeSRqssmTurDRhz5V9GYONHlDTaVou_KveILyfByrLiJthlMf7ntCUkm4RxshUni9Y_KWRHZaEo9llDjXcI1ZgSSw4Eo1qAedv-NJk43YF66ObLpQvCX-B0EOk2cAUTw35EnmWCSYZhwe15aIK9OBR7cEqOiwvWfTNbwVS3_K2LVfItcAJktbsB7BcDGtoMMUggraqt0LbxMf-dHcSIFPl-jZtWirFZf9yyXfdm00]--></g></svg>