<?xml version="1.0" encoding="us-ascii" standalone="no"?><svg xmlns="http://www.w3.org/2000/svg" xmlns:xlink="http://www.w3.org/1999/xlink" contentStyleType="text/css" height="646px" preserveAspectRatio="none" style="width:470px;height:646px;background:#FFFFFF;" version="1.1" viewBox="0 0 470 646" width="470px" zoomAndPan="magnify"><defs/><g><!--class ReadResponseOfAppointmentRequestGUI--><g id="elem_ReadResponseOfAppointmentRequestGUI"><rect codeLine="3" fill="#F1F1F1" height="85.2422" id="ReadResponseOfAppointmentRequestGUI" rx="2.5" ry="2.5" style="stroke:#181818;stroke-width:0.5;" width="300" x="26.5" y="7"/><ellipse cx="41.5" cy="23" fill="#ADD1B2" rx="11" ry="11" style="stroke:#181818;stroke-width:1.0;"/><path d="M44.2656,18.875 Q44.4219,18.6563 44.6094,18.5469 Q44.7969,18.4375 45.0156,18.4375 Q45.3906,18.4375 45.625,18.7031 Q45.8594,18.9531 45.8594,19.5625 L45.8594,21.0156 Q45.8594,21.625 45.625,21.8906 Q45.3906,22.1563 45.0156,22.1563 Q44.6719,22.1563 44.4688,21.9531 Q44.2656,21.7656 44.1563,21.25 Q44.1094,20.8906 43.9219,20.7031 Q43.5938,20.3281 42.9844,20.1094 Q42.375,19.8906 41.75,19.8906 Q40.9844,19.8906 40.3438,20.2188 Q39.7188,20.5469 39.2188,21.2969 Q38.7344,22.0469 38.7344,23.0781 L38.7344,24.1719 Q38.7344,25.4063 39.625,26.2344 Q40.5156,27.0469 42.1094,27.0469 Q43.0469,27.0469 43.7031,26.7969 Q44.0938,26.6406 44.5156,26.2031 Q44.7813,25.9375 44.9219,25.8594 Q45.0781,25.7813 45.2813,25.7813 Q45.6094,25.7813 45.8594,26.0469 Q46.125,26.2969 46.125,26.6406 Q46.125,26.9844 45.7813,27.3906 Q45.2813,27.9688 44.4844,28.2969 Q43.4063,28.75 42.1094,28.75 Q40.5938,28.75 39.3906,28.125 Q38.4063,27.625 37.7188,26.5625 Q37.0313,25.4844 37.0313,24.2031 L37.0313,23.0469 Q37.0313,21.7188 37.6406,20.5781 Q38.2656,19.4219 39.3594,18.8125 Q40.4531,18.1875 41.6875,18.1875 Q42.4219,18.1875 43.0625,18.3594 Q43.7188,18.5156 44.2656,18.875 Z " fill="#000000"/><text fill="#000000" font-family="sans-serif" font-size="14" lengthAdjust="spacing" textLength="268" x="55.5" y="28.7969">ReadResponseOfAppointmentRequestGUI</text><line style="stroke:#181818;stroke-width:0.5;" x1="27.5" x2="325.5" y1="39" y2="39"/><line style="stroke:#181818;stroke-width:0.5;" x1="27.5" x2="325.5" y1="47" y2="47"/><ellipse cx="37.5" cy="61.8105" fill="#84BE84" rx="3" ry="3" style="stroke:#038048;stroke-width:1.0;"/><text fill="#000000" font-family="sans-serif" font-size="14" lengthAdjust="spacing" textLength="38" x="46.5" y="66.1074">start()</text><ellipse cx="37.5" cy="80.4316" fill="#84BE84" rx="3" ry="3" style="stroke:#038048;stroke-width:1.0;"/><text fill="#000000" font-family="sans-serif" font-size="14" lengthAdjust="spacing" textLength="40" x="46.5" y="84.7285">main()</text></g><!--class ReadResponseOfAppointmentRequestController--><g id="elem_ReadResponseOfAppointmentRequestController"><rect codeLine="9" fill="#F1F1F1" height="48" id="ReadResponseOfAppointmentRequestController" rx="2.5" ry="2.5" style="stroke:#181818;stroke-width:0.5;" width="339" x="7" y="152"/><ellipse cx="22" cy="168" fill="#ADD1B2" rx="11" ry="11" style="stroke:#181818;stroke-width:1.0;"/><path d="M24.7656,163.875 Q24.9219,163.6563 25.1094,163.5469 Q25.2969,163.4375 25.5156,163.4375 Q25.8906,163.4375 26.125,163.7031 Q26.3594,163.9531 26.3594,164.5625 L26.3594,166.0156 Q26.3594,166.625 26.125,166.8906 Q25.8906,167.1563 25.5156,167.1563 Q25.1719,167.1563 24.9688,166.9531 Q24.7656,166.7656 24.6563,166.25 Q24.6094,165.8906 24.4219,165.7031 Q24.0938,165.3281 23.4844,165.1094 Q22.875,164.8906 22.25,164.8906 Q21.4844,164.8906 20.8438,165.2188 Q20.2188,165.5469 19.7188,166.2969 Q19.2344,167.0469 19.2344,168.0781 L19.2344,169.1719 Q19.2344,170.4063 20.125,171.2344 Q21.0156,172.0469 22.6094,172.0469 Q23.5469,172.0469 24.2031,171.7969 Q24.5938,171.6406 25.0156,171.2031 Q25.2813,170.9375 25.4219,170.8594 Q25.5781,170.7813 25.7813,170.7813 Q26.1094,170.7813 26.3594,171.0469 Q26.625,171.2969 26.625,171.6406 Q26.625,171.9844 26.2813,172.3906 Q25.7813,172.9688 24.9844,173.2969 Q23.9063,173.75 22.6094,173.75 Q21.0938,173.75 19.8906,173.125 Q18.9063,172.625 18.2188,171.5625 Q17.5313,170.4844 17.5313,169.2031 L17.5313,168.0469 Q17.5313,166.7188 18.1406,165.5781 Q18.7656,164.4219 19.8594,163.8125 Q20.9531,163.1875 22.1875,163.1875 Q22.9219,163.1875 23.5625,163.3594 Q24.2188,163.5156 24.7656,163.875 Z " fill="#000000"/><text fill="#000000" font-family="sans-serif" font-size="14" lengthAdjust="spacing" textLength="307" x="36" y="173.7969">ReadResponseOfAppointmentRequestController</text><line style="stroke:#181818;stroke-width:0.5;" x1="8" x2="345" y1="184" y2="184"/><line style="stroke:#181818;stroke-width:0.5;" x1="8" x2="345" y1="192" y2="192"/></g><!--class Schedule--><g id="elem_Schedule"><rect codeLine="13" fill="#F1F1F1" height="252.832" id="Schedule" rx="2.5" ry="2.5" style="stroke:#181818;stroke-width:0.5;" width="150" x="291.5" y="387"/><ellipse cx="333.05" cy="403" fill="#ADD1B2" rx="11" ry="11" style="stroke:#181818;stroke-width:1.0;"/><path d="M335.8156,398.875 Q335.9719,398.6563 336.1594,398.5469 Q336.3469,398.4375 336.5656,398.4375 Q336.9406,398.4375 337.175,398.7031 Q337.4094,398.9531 337.4094,399.5625 L337.4094,401.0156 Q337.4094,401.625 337.175,401.8906 Q336.9406,402.1563 336.5656,402.1563 Q336.2219,402.1563 336.0188,401.9531 Q335.8156,401.7656 335.7063,401.25 Q335.6594,400.8906 335.4719,400.7031 Q335.1438,400.3281 334.5344,400.1094 Q333.925,399.8906 333.3,399.8906 Q332.5344,399.8906 331.8938,400.2188 Q331.2688,400.5469 330.7688,401.2969 Q330.2844,402.0469 330.2844,403.0781 L330.2844,404.1719 Q330.2844,405.4063 331.175,406.2344 Q332.0656,407.0469 333.6594,407.0469 Q334.5969,407.0469 335.2531,406.7969 Q335.6438,406.6406 336.0656,406.2031 Q336.3313,405.9375 336.4719,405.8594 Q336.6281,405.7813 336.8313,405.7813 Q337.1594,405.7813 337.4094,406.0469 Q337.675,406.2969 337.675,406.6406 Q337.675,406.9844 337.3313,407.3906 Q336.8313,407.9688 336.0344,408.2969 Q334.9563,408.75 333.6594,408.75 Q332.1438,408.75 330.9406,408.125 Q329.9563,407.625 329.2688,406.5625 Q328.5813,405.4844 328.5813,404.2031 L328.5813,403.0469 Q328.5813,401.7188 329.1906,400.5781 Q329.8156,399.4219 330.9094,398.8125 Q332.0031,398.1875 333.2375,398.1875 Q333.9719,398.1875 334.6125,398.3594 Q335.2688,398.5156 335.8156,398.875 Z " fill="#000000"/><text fill="#000000" font-family="sans-serif" font-size="14" lengthAdjust="spacing" textLength="59" x="352.95" y="408.7969">Schedule</text><line style="stroke:#181818;stroke-width:0.5;" x1="292.5" x2="440.5" y1="419" y2="419"/><rect fill="none" height="6" style="stroke:#C82930;stroke-width:1.0;" width="6" x="299.5" y="430.8105"/><text fill="#000000" font-family="sans-serif" font-size="14" lengthAdjust="spacing" textLength="35" x="311.5" y="438.1074">name</text><rect fill="none" height="6" style="stroke:#C82930;stroke-width:1.0;" width="6" x="299.5" y="449.4316"/><text fill="#000000" font-family="sans-serif" font-size="14" lengthAdjust="spacing" textLength="93" x="311.5" y="456.7285">phoneNumber;</text><rect fill="none" height="6" style="stroke:#C82930;stroke-width:1.0;" width="6" x="299.5" y="468.0527"/><text fill="#000000" font-family="sans-serif" font-size="14" lengthAdjust="spacing" textLength="124" x="311.5" y="475.3496">announcementDTO</text><rect fill="none" height="6" style="stroke:#C82930;stroke-width:1.0;" width="6" x="299.5" y="486.6738"/><text fill="#000000" font-family="sans-serif" font-size="14" lengthAdjust="spacing" textLength="23" x="311.5" y="493.9707">day</text><rect fill="none" height="6" style="stroke:#C82930;stroke-width:1.0;" width="6" x="299.5" y="505.2949"/><text fill="#000000" font-family="sans-serif" font-size="14" lengthAdjust="spacing" textLength="65" x="311.5" y="512.5918">beginHour</text><rect fill="none" height="6" style="stroke:#C82930;stroke-width:1.0;" width="6" x="299.5" y="523.916"/><text fill="#000000" font-family="sans-serif" font-size="14" lengthAdjust="spacing" textLength="54" x="311.5" y="531.2129">endHour</text><rect fill="none" height="6" style="stroke:#C82930;stroke-width:1.0;" width="6" x="299.5" y="542.5371"/><text fill="#000000" font-family="sans-serif" font-size="14" lengthAdjust="spacing" textLength="98" x="311.5" y="549.834">noteFromAgent</text><rect fill="none" height="6" style="stroke:#C82930;stroke-width:1.0;" width="6" x="299.5" y="561.1582"/><text fill="#000000" font-family="sans-serif" font-size="14" lengthAdjust="spacing" textLength="38" x="311.5" y="568.4551">status</text><rect fill="none" height="6" style="stroke:#C82930;stroke-width:1.0;" width="6" x="299.5" y="579.7793"/><text fill="#000000" font-family="sans-serif" font-size="14" lengthAdjust="spacing" textLength="89" x="311.5" y="587.0762">agentAproved</text><rect fill="none" height="6" style="stroke:#C82930;stroke-width:1.0;" width="6" x="299.5" y="598.4004"/><text fill="#000000" font-family="sans-serif" font-size="14" lengthAdjust="spacing" textLength="89" x="311.5" y="605.6973">clientApproval</text><rect fill="none" height="6" style="stroke:#C82930;stroke-width:1.0;" width="6" x="299.5" y="617.0215"/><text fill="#000000" font-family="sans-serif" font-size="14" lengthAdjust="spacing" textLength="97" x="311.5" y="624.3184">noteFromClient</text><line style="stroke:#181818;stroke-width:0.5;" x1="292.5" x2="440.5" y1="631.832" y2="631.832"/></g><!--class Repositories--><g id="elem_Repositories"><rect codeLine="28" fill="#F1F1F1" height="66.6211" id="Repositories" rx="2.5" ry="2.5" style="stroke:#181818;stroke-width:0.5;" width="151" x="101" y="260"/><ellipse cx="134" cy="276" fill="#ADD1B2" rx="11" ry="11" style="stroke:#181818;stroke-width:1.0;"/><path d="M136.7656,271.875 Q136.9219,271.6563 137.1094,271.5469 Q137.2969,271.4375 137.5156,271.4375 Q137.8906,271.4375 138.125,271.7031 Q138.3594,271.9531 138.3594,272.5625 L138.3594,274.0156 Q138.3594,274.625 138.125,274.8906 Q137.8906,275.1563 137.5156,275.1563 Q137.1719,275.1563 136.9688,274.9531 Q136.7656,274.7656 136.6563,274.25 Q136.6094,273.8906 136.4219,273.7031 Q136.0938,273.3281 135.4844,273.1094 Q134.875,272.8906 134.25,272.8906 Q133.4844,272.8906 132.8438,273.2188 Q132.2188,273.5469 131.7188,274.2969 Q131.2344,275.0469 131.2344,276.0781 L131.2344,277.1719 Q131.2344,278.4063 132.125,279.2344 Q133.0156,280.0469 134.6094,280.0469 Q135.5469,280.0469 136.2031,279.7969 Q136.5938,279.6406 137.0156,279.2031 Q137.2813,278.9375 137.4219,278.8594 Q137.5781,278.7813 137.7813,278.7813 Q138.1094,278.7813 138.3594,279.0469 Q138.625,279.2969 138.625,279.6406 Q138.625,279.9844 138.2813,280.3906 Q137.7813,280.9688 136.9844,281.2969 Q135.9063,281.75 134.6094,281.75 Q133.0938,281.75 131.8906,281.125 Q130.9063,280.625 130.2188,279.5625 Q129.5313,278.4844 129.5313,277.2031 L129.5313,276.0469 Q129.5313,274.7188 130.1406,273.5781 Q130.7656,272.4219 131.8594,271.8125 Q132.9531,271.1875 134.1875,271.1875 Q134.9219,271.1875 135.5625,271.3594 Q136.2188,271.5156 136.7656,271.875 Z " fill="#000000"/><text fill="#000000" font-family="sans-serif" font-size="14" lengthAdjust="spacing" textLength="79" x="152" y="281.7969">Repositories</text><line style="stroke:#181818;stroke-width:0.5;" x1="102" x2="251" y1="292" y2="292"/><ellipse cx="112" cy="306.8105" fill="none" rx="3" ry="3" style="stroke:#038048;stroke-width:1.0;"/><text fill="#000000" font-family="sans-serif" font-size="14" lengthAdjust="spacing" textLength="125" x="121" y="311.1074">scheduleRepository</text><line style="stroke:#181818;stroke-width:0.5;" x1="102" x2="251" y1="318.6211" y2="318.6211"/></g><!--class ScheduleRepository--><g id="elem_ScheduleRepository"><rect codeLine="33" fill="#F1F1F1" height="141.1055" id="ScheduleRepository" rx="2.5" ry="2.5" style="stroke:#181818;stroke-width:0.5;" width="159" x="97" y="443"/><ellipse cx="112" cy="459" fill="#ADD1B2" rx="11" ry="11" style="stroke:#181818;stroke-width:1.0;"/><path d="M114.7656,454.875 Q114.9219,454.6563 115.1094,454.5469 Q115.2969,454.4375 115.5156,454.4375 Q115.8906,454.4375 116.125,454.7031 Q116.3594,454.9531 116.3594,455.5625 L116.3594,457.0156 Q116.3594,457.625 116.125,457.8906 Q115.8906,458.1563 115.5156,458.1563 Q115.1719,458.1563 114.9688,457.9531 Q114.7656,457.7656 114.6563,457.25 Q114.6094,456.8906 114.4219,456.7031 Q114.0938,456.3281 113.4844,456.1094 Q112.875,455.8906 112.25,455.8906 Q111.4844,455.8906 110.8438,456.2188 Q110.2188,456.5469 109.7188,457.2969 Q109.2344,458.0469 109.2344,459.0781 L109.2344,460.1719 Q109.2344,461.4063 110.125,462.2344 Q111.0156,463.0469 112.6094,463.0469 Q113.5469,463.0469 114.2031,462.7969 Q114.5938,462.6406 115.0156,462.2031 Q115.2813,461.9375 115.4219,461.8594 Q115.5781,461.7813 115.7813,461.7813 Q116.1094,461.7813 116.3594,462.0469 Q116.625,462.2969 116.625,462.6406 Q116.625,462.9844 116.2813,463.3906 Q115.7813,463.9688 114.9844,464.2969 Q113.9063,464.75 112.6094,464.75 Q111.0938,464.75 109.8906,464.125 Q108.9063,463.625 108.2188,462.5625 Q107.5313,461.4844 107.5313,460.2031 L107.5313,459.0469 Q107.5313,457.7188 108.1406,456.5781 Q108.7656,455.4219 109.8594,454.8125 Q110.9531,454.1875 112.1875,454.1875 Q112.9219,454.1875 113.5625,454.3594 Q114.2188,454.5156 114.7656,454.875 Z " fill="#000000"/><text fill="#000000" font-family="sans-serif" font-size="14" lengthAdjust="spacing" textLength="127" x="126" y="464.7969">ScheduleRepository</text><line style="stroke:#181818;stroke-width:0.5;" x1="98" x2="255" y1="475" y2="475"/><rect fill="none" height="6" style="stroke:#C82930;stroke-width:1.0;" width="6" x="105" y="486.8105"/><text fill="#000000" font-family="sans-serif" font-size="14" lengthAdjust="spacing" textLength="81" x="117" y="494.1074">ScheduleList</text><line style="stroke:#181818;stroke-width:0.5;" x1="98" x2="255" y1="501.6211" y2="501.6211"/><ellipse cx="108" cy="516.4316" fill="#84BE84" rx="3" ry="3" style="stroke:#038048;stroke-width:1.0;"/><text fill="#000000" font-family="sans-serif" font-size="14" lengthAdjust="spacing" textLength="99" x="117" y="520.7285">saveSchedule()</text><ellipse cx="108" cy="535.0527" fill="#84BE84" rx="3" ry="3" style="stroke:#038048;stroke-width:1.0;"/><text fill="#000000" font-family="sans-serif" font-size="14" lengthAdjust="spacing" textLength="118" x="117" y="539.3496">validateSchedule()</text><ellipse cx="108" cy="553.6738" fill="#84BE84" rx="3" ry="3" style="stroke:#038048;stroke-width:1.0;"/><text fill="#000000" font-family="sans-serif" font-size="14" lengthAdjust="spacing" textLength="93" x="117" y="557.9707">addSchedule()</text><ellipse cx="108" cy="572.2949" fill="#84BE84" rx="3" ry="3" style="stroke:#038048;stroke-width:1.0;"/><text fill="#000000" font-family="sans-serif" font-size="14" lengthAdjust="spacing" textLength="111" x="117" y="576.5918">getScheduleList()</text></g><!--class Application--><g id="elem_Application"><rect fill="#F1F1F1" height="48" id="Application" rx="2.5" ry="2.5" style="stroke:#181818;stroke-width:0.5;" width="101" x="362" y="25.5"/><ellipse cx="377" cy="41.5" fill="#ADD1B2" rx="11" ry="11" style="stroke:#181818;stroke-width:1.0;"/><path d="M379.7656,37.375 Q379.9219,37.1563 380.1094,37.0469 Q380.2969,36.9375 380.5156,36.9375 Q380.8906,36.9375 381.125,37.2031 Q381.3594,37.4531 381.3594,38.0625 L381.3594,39.5156 Q381.3594,40.125 381.125,40.3906 Q380.8906,40.6563 380.5156,40.6563 Q380.1719,40.6563 379.9688,40.4531 Q379.7656,40.2656 379.6563,39.75 Q379.6094,39.3906 379.4219,39.2031 Q379.0938,38.8281 378.4844,38.6094 Q377.875,38.3906 377.25,38.3906 Q376.4844,38.3906 375.8438,38.7188 Q375.2188,39.0469 374.7188,39.7969 Q374.2344,40.5469 374.2344,41.5781 L374.2344,42.6719 Q374.2344,43.9063 375.125,44.7344 Q376.0156,45.5469 377.6094,45.5469 Q378.5469,45.5469 379.2031,45.2969 Q379.5938,45.1406 380.0156,44.7031 Q380.2813,44.4375 380.4219,44.3594 Q380.5781,44.2813 380.7813,44.2813 Q381.1094,44.2813 381.3594,44.5469 Q381.625,44.7969 381.625,45.1406 Q381.625,45.4844 381.2813,45.8906 Q380.7813,46.4688 379.9844,46.7969 Q378.9063,47.25 377.6094,47.25 Q376.0938,47.25 374.8906,46.625 Q373.9063,46.125 373.2188,45.0625 Q372.5313,43.9844 372.5313,42.7031 L372.5313,41.5469 Q372.5313,40.2188 373.1406,39.0781 Q373.7656,37.9219 374.8594,37.3125 Q375.9531,36.6875 377.1875,36.6875 Q377.9219,36.6875 378.5625,36.8594 Q379.2188,37.0156 379.7656,37.375 Z " fill="#000000"/><text fill="#000000" font-family="sans-serif" font-size="14" lengthAdjust="spacing" textLength="69" x="391" y="47.2969">Application</text><line style="stroke:#181818;stroke-width:0.5;" x1="363" x2="462" y1="57.5" y2="57.5"/><line style="stroke:#181818;stroke-width:0.5;" x1="363" x2="462" y1="65.5" y2="65.5"/></g><!--link ReadResponseOfAppointmentRequestGUI to ReadResponseOfAppointmentRequestController--><g id="link_ReadResponseOfAppointmentRequestGUI_ReadResponseOfAppointmentRequestController"><path codeLine="43" d="M176.5,92.3 C176.5,110.2 176.5,130.64 176.5,146.71 " fill="none" id="ReadResponseOfAppointmentRequestGUI-to-ReadResponseOfAppointmentRequestController" style="stroke:#181818;stroke-width:1.0;stroke-dasharray:7.0,7.0;"/><polygon fill="#181818" points="176.5,151.99,180.5,142.99,176.5,146.99,172.5,142.99,176.5,151.99" style="stroke:#181818;stroke-width:1.0;"/></g><!--link ReadResponseOfAppointmentRequestController to Repositories--><g id="link_ReadResponseOfAppointmentRequestController_Repositories"><path codeLine="44" d="M176.5,200.1 C176.5,215.74 176.5,236.77 176.5,254.82 " fill="none" id="ReadResponseOfAppointmentRequestController-to-Repositories" style="stroke:#181818;stroke-width:1.0;stroke-dasharray:7.0,7.0;"/><polygon fill="#181818" points="176.5,259.82,180.5,250.82,176.5,254.82,172.5,250.82,176.5,259.82" style="stroke:#181818;stroke-width:1.0;"/></g><!--link Repositories to ScheduleRepository--><g id="link_Repositories_ScheduleRepository"><path codeLine="45" d="M176.5,327.14 C176.5,356.24 176.5,399.93 176.5,437.59 " fill="none" id="Repositories-to-ScheduleRepository" style="stroke:#181818;stroke-width:1.0;stroke-dasharray:7.0,7.0;"/><polygon fill="#181818" points="176.5,442.62,180.5,433.62,176.5,437.62,172.5,433.62,176.5,442.62" style="stroke:#181818;stroke-width:1.0;"/></g><!--link ScheduleRepository to Schedule--><g id="link_ScheduleRepository_Schedule"><path codeLine="46" d="M256.29,513.5 C266.18,513.5 276.08,513.5 285.98,513.5 " fill="none" id="ScheduleRepository-to-Schedule" style="stroke:#181818;stroke-width:1.0;"/><polygon fill="#181818" points="291.16,513.5,282.16,509.5,286.16,513.5,282.16,517.5,291.16,513.5" style="stroke:#181818;stroke-width:1.0;"/></g><!--reverse link ReadResponseOfAppointmentRequestGUI to Application--><g id="link_ReadResponseOfAppointmentRequestGUI_Application"><path codeLine="47" d="M346.82,49.5 C351.86,49.5 356.89,49.5 361.93,49.5 " fill="none" id="ReadResponseOfAppointmentRequestGUI-backto-Application" style="stroke:#181818;stroke-width:1.0;"/><polygon fill="none" points="346.77,56.5,326.77,49.5,346.77,42.5,346.77,56.5" style="stroke:#181818;stroke-width:1.0;"/></g><!--SRC=[bLBRJiCm37tFL_GHXBeVG9fK3N6H49CAV43MU6sar0w9Csa2_frqIozG7heysUSan_6nAoEzpqgGgWHl2JrizuMrf95RG2xX8u3dX_Udx5E8B9wRpBDqV7MTibPgZCct4DKYgGqXEp86NASuF7kj6b31G5ycpr2sa4BR4C9BQ7VWRXCa4IbW1PtotTiseKeUKxI3MkCZ1PToG3N9a1Zk7RL57PydBBR5mVVo7L5OHmTG2QgCFc4TACqVeSs9dBfWoMicfy5Fd4jD3knnRi38ZLRqtBFst4l90_JmC8luBwqapmcfr0ohWQUwvncA9PkmMgql6BEuO2FEogDrufUF7JktIVpZNEvqtN0-NXUnhD6LP4sOvGRsd7-jbwoz43y0]--></g></svg>