<?xml version="1.0" encoding="us-ascii" standalone="no"?><svg xmlns="http://www.w3.org/2000/svg" xmlns:xlink="http://www.w3.org/1999/xlink" contentStyleType="text/css" height="579.6px" preserveAspectRatio="none" style="width:513px;height:579px;background:#FFFFFF;" version="1.1" viewBox="0 0 513 579" width="513.1px" zoomAndPan="magnify"><defs/><g><!--class ReadResponseOfAppointmentRequestGUI--><g id="elem_ReadResponseOfAppointmentRequestGUI"><rect codeLine="3" fill="#F1F1F1" height="59.6695" id="ReadResponseOfAppointmentRequestGUI" rx="1.75" ry="1.75" style="stroke:#181818;stroke-width:0.3499999999999999;" width="210" x="110.95" y="4.9"/><ellipse cx="121.45" cy="16.1" fill="#ADD1B2" rx="7.7" ry="7.7" style="stroke:#181818;stroke-width:0.6999999999999998;"/><path d="M123.3859,13.2125 Q123.4953,13.0594 123.6266,12.9828 Q123.7578,12.9062 123.9109,12.9062 Q124.1734,12.9062 124.3375,13.0922 Q124.5016,13.2672 124.5016,13.6937 L124.5016,14.7109 Q124.5016,15.1375 124.3375,15.3234 Q124.1734,15.5094 123.9109,15.5094 Q123.6703,15.5094 123.5281,15.3672 Q123.3859,15.2359 123.3094,14.875 Q123.2766,14.6234 123.1453,14.4922 Q122.9156,14.2297 122.4891,14.0766 Q122.0625,13.9234 121.625,13.9234 Q121.0891,13.9234 120.6406,14.1531 Q120.2031,14.3828 119.8531,14.9078 Q119.5141,15.4328 119.5141,16.1547 L119.5141,16.9203 Q119.5141,17.7844 120.1375,18.3641 Q120.7609,18.9328 121.8766,18.9328 Q122.5328,18.9328 122.9922,18.7578 Q123.2656,18.6484 123.5609,18.3422 Q123.7469,18.1562 123.8453,18.1016 Q123.9547,18.0469 124.0969,18.0469 Q124.3266,18.0469 124.5016,18.2328 Q124.6875,18.4078 124.6875,18.6484 Q124.6875,18.8891 124.4469,19.1734 Q124.0969,19.5781 123.5391,19.8078 Q122.7844,20.125 121.8766,20.125 Q120.8156,20.125 119.9734,19.6875 Q119.2844,19.3375 118.8031,18.5937 Q118.3219,17.8391 118.3219,16.9422 L118.3219,16.1328 Q118.3219,15.2031 118.7484,14.4047 Q119.1859,13.5953 119.9516,13.1687 Q120.7172,12.7312 121.5812,12.7312 Q122.0953,12.7312 122.5437,12.8516 Q123.0031,12.9609 123.3859,13.2125 Z " fill="#000000"/><text fill="#000000" font-family="sans-serif" font-size="9.8" lengthAdjust="spacing" textLength="187.6" x="131.25" y="20.1578">ReadResponseOfAppointmentRequestGUI</text><line style="stroke:#181818;stroke-width:0.3499999999999999;" x1="111.65" x2="320.25" y1="27.3" y2="27.3"/><line style="stroke:#181818;stroke-width:0.3499999999999999;" x1="111.65" x2="320.25" y1="32.9" y2="32.9"/><ellipse cx="118.65" cy="43.2674" fill="#84BE84" rx="2.1" ry="2.1" style="stroke:#038048;stroke-width:0.6999999999999998;"/><text fill="#000000" font-family="sans-serif" font-size="9.8" lengthAdjust="spacing" textLength="26.6" x="124.95" y="46.2752">start()</text><ellipse cx="118.65" cy="56.3021" fill="#84BE84" rx="2.1" ry="2.1" style="stroke:#038048;stroke-width:0.6999999999999998;"/><text fill="#000000" font-family="sans-serif" font-size="9.8" lengthAdjust="spacing" textLength="28" x="124.95" y="59.31">main()</text></g><!--class ReadResponseOfAppointmentRequestController--><g id="elem_ReadResponseOfAppointmentRequestController"><rect codeLine="9" fill="#F1F1F1" height="33.6" id="ReadResponseOfAppointmentRequestController" rx="1.75" ry="1.75" style="stroke:#181818;stroke-width:0.3499999999999999;" width="237.3" x="97.3" y="106.4"/><ellipse cx="107.8" cy="117.6" fill="#ADD1B2" rx="7.7" ry="7.7" style="stroke:#181818;stroke-width:0.6999999999999998;"/><path d="M109.7359,114.7125 Q109.8453,114.5594 109.9766,114.4828 Q110.1078,114.4062 110.2609,114.4062 Q110.5234,114.4062 110.6875,114.5922 Q110.8516,114.7672 110.8516,115.1937 L110.8516,116.2109 Q110.8516,116.6375 110.6875,116.8234 Q110.5234,117.0094 110.2609,117.0094 Q110.0203,117.0094 109.8781,116.8672 Q109.7359,116.7359 109.6594,116.375 Q109.6266,116.1234 109.4953,115.9922 Q109.2656,115.7297 108.8391,115.5766 Q108.4125,115.4234 107.975,115.4234 Q107.4391,115.4234 106.9906,115.6531 Q106.5531,115.8828 106.2031,116.4078 Q105.8641,116.9328 105.8641,117.6547 L105.8641,118.4203 Q105.8641,119.2844 106.4875,119.8641 Q107.1109,120.4328 108.2266,120.4328 Q108.8828,120.4328 109.3422,120.2578 Q109.6156,120.1484 109.9109,119.8422 Q110.0969,119.6562 110.1953,119.6016 Q110.3047,119.5469 110.4469,119.5469 Q110.6766,119.5469 110.8516,119.7328 Q111.0375,119.9078 111.0375,120.1484 Q111.0375,120.3891 110.7969,120.6734 Q110.4469,121.0781 109.8891,121.3078 Q109.1344,121.625 108.2266,121.625 Q107.1656,121.625 106.3234,121.1875 Q105.6344,120.8375 105.1531,120.0937 Q104.6719,119.3391 104.6719,118.4422 L104.6719,117.6328 Q104.6719,116.7031 105.0984,115.9047 Q105.5359,115.0953 106.3016,114.6687 Q107.0672,114.2312 107.9312,114.2312 Q108.4453,114.2312 108.8937,114.3516 Q109.3531,114.4609 109.7359,114.7125 Z " fill="#000000"/><text fill="#000000" font-family="sans-serif" font-size="9.8" lengthAdjust="spacing" textLength="214.9" x="117.6" y="121.6578">ReadResponseOfAppointmentRequestController</text><line style="stroke:#181818;stroke-width:0.3499999999999999;" x1="98" x2="333.9" y1="128.8" y2="128.8"/><line style="stroke:#181818;stroke-width:0.3499999999999999;" x1="98" x2="333.9" y1="134.4" y2="134.4"/></g><!--class Repositories--><g id="elem_Repositories"><rect codeLine="29" fill="#F1F1F1" height="46.6348" id="Repositories" rx="1.75" ry="1.75" style="stroke:#181818;stroke-width:0.3499999999999999;" width="131.6" x="150.15" y="182"/><ellipse cx="185.325" cy="193.2" fill="#ADD1B2" rx="7.7" ry="7.7" style="stroke:#181818;stroke-width:0.6999999999999998;"/><path d="M187.2609,190.3125 Q187.3703,190.1594 187.5016,190.0828 Q187.6328,190.0062 187.7859,190.0062 Q188.0484,190.0062 188.2125,190.1922 Q188.3766,190.3672 188.3766,190.7937 L188.3766,191.8109 Q188.3766,192.2375 188.2125,192.4234 Q188.0484,192.6094 187.7859,192.6094 Q187.5453,192.6094 187.4031,192.4672 Q187.2609,192.3359 187.1844,191.975 Q187.1516,191.7234 187.0203,191.5922 Q186.7906,191.3297 186.3641,191.1766 Q185.9375,191.0234 185.5,191.0234 Q184.9641,191.0234 184.5156,191.2531 Q184.0781,191.4828 183.7281,192.0078 Q183.3891,192.5328 183.3891,193.2547 L183.3891,194.0203 Q183.3891,194.8844 184.0125,195.4641 Q184.6359,196.0328 185.7516,196.0328 Q186.4078,196.0328 186.8672,195.8578 Q187.1406,195.7484 187.4359,195.4422 Q187.6219,195.2562 187.7203,195.2016 Q187.8297,195.1469 187.9719,195.1469 Q188.2016,195.1469 188.3766,195.3328 Q188.5625,195.5078 188.5625,195.7484 Q188.5625,195.9891 188.3219,196.2734 Q187.9719,196.6781 187.4141,196.9078 Q186.6594,197.225 185.7516,197.225 Q184.6906,197.225 183.8484,196.7875 Q183.1594,196.4375 182.6781,195.6937 Q182.1969,194.9391 182.1969,194.0422 L182.1969,193.2328 Q182.1969,192.3031 182.6234,191.5047 Q183.0609,190.6953 183.8266,190.2687 Q184.5922,189.8312 185.4562,189.8312 Q185.9703,189.8312 186.4187,189.9516 Q186.8781,190.0609 187.2609,190.3125 Z " fill="#000000"/><text fill="#000000" font-family="sans-serif" font-size="9.8" lengthAdjust="spacing" textLength="55.3" x="199.675" y="197.2578">Repositories</text><line style="stroke:#181818;stroke-width:0.3499999999999999;" x1="150.85" x2="281.05" y1="204.4" y2="204.4"/><ellipse cx="157.85" cy="214.7674" fill="none" rx="2.1" ry="2.1" style="stroke:#038048;stroke-width:0.6999999999999998;"/><text fill="#000000" font-family="sans-serif" font-size="9.8" lengthAdjust="spacing" textLength="113.4" x="164.15" y="217.7752">announcementRepository</text><line style="stroke:#181818;stroke-width:0.3499999999999999;" x1="150.85" x2="281.05" y1="223.0348" y2="223.0348"/></g><!--class Schedule--><g id="elem_Schedule"><rect codeLine="17" fill="#F1F1F1" height="137.8781" id="Schedule" rx="1.75" ry="1.75" style="stroke:#181818;stroke-width:0.3499999999999999;" width="84" x="18.55" y="437.5"/><ellipse cx="38.185" cy="448.7" fill="#ADD1B2" rx="7.7" ry="7.7" style="stroke:#181818;stroke-width:0.6999999999999998;"/><path d="M40.1209,445.8125 Q40.2303,445.6594 40.3616,445.5828 Q40.4928,445.5062 40.6459,445.5062 Q40.9084,445.5062 41.0725,445.6922 Q41.2366,445.8672 41.2366,446.2937 L41.2366,447.3109 Q41.2366,447.7375 41.0725,447.9234 Q40.9084,448.1094 40.6459,448.1094 Q40.4053,448.1094 40.2631,447.9672 Q40.1209,447.8359 40.0444,447.475 Q40.0116,447.2234 39.8803,447.0922 Q39.6506,446.8297 39.2241,446.6766 Q38.7975,446.5234 38.36,446.5234 Q37.8241,446.5234 37.3756,446.7531 Q36.9381,446.9828 36.5881,447.5078 Q36.2491,448.0328 36.2491,448.7547 L36.2491,449.5203 Q36.2491,450.3844 36.8725,450.9641 Q37.4959,451.5328 38.6116,451.5328 Q39.2678,451.5328 39.7272,451.3578 Q40.0006,451.2484 40.2959,450.9422 Q40.4819,450.7562 40.5803,450.7016 Q40.6897,450.6469 40.8319,450.6469 Q41.0616,450.6469 41.2366,450.8328 Q41.4225,451.0078 41.4225,451.2484 Q41.4225,451.4891 41.1819,451.7734 Q40.8319,452.1781 40.2741,452.4078 Q39.5194,452.725 38.6116,452.725 Q37.5506,452.725 36.7084,452.2875 Q36.0194,451.9375 35.5381,451.1937 Q35.0569,450.4391 35.0569,449.5422 L35.0569,448.7328 Q35.0569,447.8031 35.4834,447.0047 Q35.9209,446.1953 36.6866,445.7687 Q37.4522,445.3312 38.3162,445.3312 Q38.8303,445.3312 39.2787,445.4516 Q39.7381,445.5609 40.1209,445.8125 Z " fill="#000000"/><text fill="#000000" font-family="sans-serif" font-size="9.8" lengthAdjust="spacing" textLength="41.3" x="50.015" y="452.7578">Schedule</text><line style="stroke:#181818;stroke-width:0.3499999999999999;" x1="19.25" x2="101.85" y1="459.9" y2="459.9"/><rect fill="none" height="4.2" style="stroke:#C82930;stroke-width:0.6999999999999998;" width="4.2" x="24.15" y="468.1674"/><text fill="#000000" font-family="sans-serif" font-size="9.8" lengthAdjust="spacing" textLength="24.5" x="32.55" y="473.2752">name</text><rect fill="none" height="4.2" style="stroke:#C82930;stroke-width:0.6999999999999998;" width="4.2" x="24.15" y="481.2021"/><text fill="#000000" font-family="sans-serif" font-size="9.8" lengthAdjust="spacing" textLength="62.3" x="32.55" y="486.31">phoneNumber</text><rect fill="none" height="4.2" style="stroke:#C82930;stroke-width:0.6999999999999998;" width="4.2" x="24.15" y="494.2369"/><text fill="#000000" font-family="sans-serif" font-size="9.8" lengthAdjust="spacing" textLength="65.8" x="32.55" y="499.3447">announcement</text><rect fill="none" height="4.2" style="stroke:#C82930;stroke-width:0.6999999999999998;" width="4.2" x="24.15" y="507.2717"/><text fill="#000000" font-family="sans-serif" font-size="9.8" lengthAdjust="spacing" textLength="16.1" x="32.55" y="512.3795">day</text><rect fill="none" height="4.2" style="stroke:#C82930;stroke-width:0.6999999999999998;" width="4.2" x="24.15" y="520.3064"/><text fill="#000000" font-family="sans-serif" font-size="9.8" lengthAdjust="spacing" textLength="39.9" x="32.55" y="525.4143">begiHour</text><rect fill="none" height="4.2" style="stroke:#C82930;stroke-width:0.6999999999999998;" width="4.2" x="24.15" y="533.3412"/><text fill="#000000" font-family="sans-serif" font-size="9.8" lengthAdjust="spacing" textLength="37.8" x="32.55" y="538.449">endHour</text><rect fill="none" height="4.2" style="stroke:#C82930;stroke-width:0.6999999999999998;" width="4.2" x="24.15" y="546.376"/><text fill="#000000" font-family="sans-serif" font-size="9.8" lengthAdjust="spacing" textLength="19.6" x="32.55" y="551.4838">note</text><rect fill="none" height="4.2" style="stroke:#C82930;stroke-width:0.6999999999999998;" width="4.2" x="24.15" y="559.4107"/><text fill="#000000" font-family="sans-serif" font-size="9.8" lengthAdjust="spacing" textLength="26.6" x="32.55" y="564.5186">status</text><line style="stroke:#181818;stroke-width:0.3499999999999999;" x1="19.25" x2="101.85" y1="569.7781" y2="569.7781"/></g><!--class ScheduleRepository--><g id="elem_ScheduleRepository"><rect codeLine="34" fill="#F1F1F1" height="98.7738" id="ScheduleRepository" rx="1.75" ry="1.75" style="stroke:#181818;stroke-width:0.3499999999999999;" width="111.3" x="4.9" y="283.85"/><ellipse cx="15.4" cy="295.05" fill="#ADD1B2" rx="7.7" ry="7.7" style="stroke:#181818;stroke-width:0.6999999999999998;"/><path d="M17.3359,292.1625 Q17.4453,292.0094 17.5766,291.9328 Q17.7078,291.8562 17.8609,291.8562 Q18.1234,291.8562 18.2875,292.0422 Q18.4516,292.2172 18.4516,292.6437 L18.4516,293.6609 Q18.4516,294.0875 18.2875,294.2734 Q18.1234,294.4594 17.8609,294.4594 Q17.6203,294.4594 17.4781,294.3172 Q17.3359,294.1859 17.2594,293.825 Q17.2266,293.5734 17.0953,293.4422 Q16.8656,293.1797 16.4391,293.0266 Q16.0125,292.8734 15.575,292.8734 Q15.0391,292.8734 14.5906,293.1031 Q14.1531,293.3328 13.8031,293.8578 Q13.4641,294.3828 13.4641,295.1047 L13.4641,295.8703 Q13.4641,296.7344 14.0875,297.3141 Q14.7109,297.8828 15.8266,297.8828 Q16.4828,297.8828 16.9422,297.7078 Q17.2156,297.5984 17.5109,297.2922 Q17.6969,297.1062 17.7953,297.0516 Q17.9047,296.9969 18.0469,296.9969 Q18.2766,296.9969 18.4516,297.1828 Q18.6375,297.3578 18.6375,297.5984 Q18.6375,297.8391 18.3969,298.1234 Q18.0469,298.5281 17.4891,298.7578 Q16.7344,299.075 15.8266,299.075 Q14.7656,299.075 13.9234,298.6375 Q13.2344,298.2875 12.7531,297.5437 Q12.2719,296.7891 12.2719,295.8922 L12.2719,295.0828 Q12.2719,294.1531 12.6984,293.3547 Q13.1359,292.5453 13.9016,292.1187 Q14.6672,291.6812 15.5312,291.6812 Q16.0453,291.6812 16.4937,291.8016 Q16.9531,291.9109 17.3359,292.1625 Z " fill="#000000"/><text fill="#000000" font-family="sans-serif" font-size="9.8" lengthAdjust="spacing" textLength="88.9" x="25.2" y="299.1078">ScheduleRepository</text><line style="stroke:#181818;stroke-width:0.3499999999999999;" x1="5.6" x2="115.5" y1="306.25" y2="306.25"/><rect fill="none" height="4.2" style="stroke:#C82930;stroke-width:0.6999999999999998;" width="4.2" x="10.5" y="314.5174"/><text fill="#000000" font-family="sans-serif" font-size="9.8" lengthAdjust="spacing" textLength="56.7" x="18.9" y="319.6252">ScheduleList</text><line style="stroke:#181818;stroke-width:0.3499999999999999;" x1="5.6" x2="115.5" y1="324.8848" y2="324.8848"/><ellipse cx="12.6" cy="335.2521" fill="#84BE84" rx="2.1" ry="2.1" style="stroke:#038048;stroke-width:0.6999999999999998;"/><text fill="#000000" font-family="sans-serif" font-size="9.8" lengthAdjust="spacing" textLength="69.3" x="18.9" y="338.26">saveSchedule()</text><ellipse cx="12.6" cy="348.2869" fill="#84BE84" rx="2.1" ry="2.1" style="stroke:#038048;stroke-width:0.6999999999999998;"/><text fill="#000000" font-family="sans-serif" font-size="9.8" lengthAdjust="spacing" textLength="82.6" x="18.9" y="351.2947">validateSchedule()</text><ellipse cx="12.6" cy="361.3217" fill="#84BE84" rx="2.1" ry="2.1" style="stroke:#038048;stroke-width:0.6999999999999998;"/><text fill="#000000" font-family="sans-serif" font-size="9.8" lengthAdjust="spacing" textLength="65.1" x="18.9" y="364.3295">addSchedule()</text><ellipse cx="12.6" cy="374.3564" fill="#84BE84" rx="2.1" ry="2.1" style="stroke:#038048;stroke-width:0.6999999999999998;"/><text fill="#000000" font-family="sans-serif" font-size="9.8" lengthAdjust="spacing" textLength="77.7" x="18.9" y="377.3643">getScheduleList()</text></g><!--class AnnouncementRepository--><g id="elem_AnnouncementRepository"><rect codeLine="43" fill="#F1F1F1" height="124.8434" id="AnnouncementRepository" rx="1.75" ry="1.75" style="stroke:#181818;stroke-width:0.3499999999999999;" width="149.8" x="141.05" y="270.9"/><ellipse cx="157.535" cy="282.1" fill="#ADD1B2" rx="7.7" ry="7.7" style="stroke:#181818;stroke-width:0.6999999999999998;"/><path d="M159.4709,279.2125 Q159.5803,279.0594 159.7116,278.9828 Q159.8428,278.9062 159.9959,278.9062 Q160.2584,278.9062 160.4225,279.0922 Q160.5866,279.2672 160.5866,279.6937 L160.5866,280.7109 Q160.5866,281.1375 160.4225,281.3234 Q160.2584,281.5094 159.9959,281.5094 Q159.7553,281.5094 159.6131,281.3672 Q159.4709,281.2359 159.3944,280.875 Q159.3616,280.6234 159.2303,280.4922 Q159.0006,280.2297 158.5741,280.0766 Q158.1475,279.9234 157.71,279.9234 Q157.1741,279.9234 156.7256,280.1531 Q156.2881,280.3828 155.9381,280.9078 Q155.5991,281.4328 155.5991,282.1547 L155.5991,282.9203 Q155.5991,283.7844 156.2225,284.3641 Q156.8459,284.9328 157.9616,284.9328 Q158.6178,284.9328 159.0772,284.7578 Q159.3506,284.6484 159.6459,284.3422 Q159.8319,284.1562 159.9303,284.1016 Q160.0397,284.0469 160.1819,284.0469 Q160.4116,284.0469 160.5866,284.2328 Q160.7725,284.4078 160.7725,284.6484 Q160.7725,284.8891 160.5319,285.1734 Q160.1819,285.5781 159.6241,285.8078 Q158.8694,286.125 157.9616,286.125 Q156.9006,286.125 156.0584,285.6875 Q155.3694,285.3375 154.8881,284.5937 Q154.4069,283.8391 154.4069,282.9422 L154.4069,282.1328 Q154.4069,281.2031 154.8334,280.4047 Q155.2709,279.5953 156.0366,279.1687 Q156.8022,278.7312 157.6662,278.7312 Q158.1803,278.7312 158.6287,278.8516 Q159.0881,278.9609 159.4709,279.2125 Z " fill="#000000"/><text fill="#000000" font-family="sans-serif" font-size="9.8" lengthAdjust="spacing" textLength="114.1" x="168.665" y="286.1578">AnnouncementRepository</text><line style="stroke:#181818;stroke-width:0.3499999999999999;" x1="141.75" x2="290.15" y1="293.3" y2="293.3"/><line style="stroke:#181818;stroke-width:0.3499999999999999;" x1="141.75" x2="290.15" y1="298.9" y2="298.9"/><ellipse cx="148.75" cy="309.2674" fill="#84BE84" rx="2.1" ry="2.1" style="stroke:#038048;stroke-width:0.6999999999999998;"/><text fill="#000000" font-family="sans-serif" font-size="9.8" lengthAdjust="spacing" textLength="28" x="155.05" y="312.2752">save()</text><ellipse cx="148.75" cy="322.3021" fill="#84BE84" rx="2.1" ry="2.1" style="stroke:#038048;stroke-width:0.6999999999999998;"/><text fill="#000000" font-family="sans-serif" font-size="9.8" lengthAdjust="spacing" textLength="101.5" x="155.05" y="325.31">createAnnouncement()</text><ellipse cx="148.75" cy="335.3369" fill="#84BE84" rx="2.1" ry="2.1" style="stroke:#038048;stroke-width:0.6999999999999998;"/><text fill="#000000" font-family="sans-serif" font-size="9.8" lengthAdjust="spacing" textLength="107.8" x="155.05" y="338.3447">validateAnnouncement()</text><ellipse cx="148.75" cy="348.3717" fill="#84BE84" rx="2.1" ry="2.1" style="stroke:#038048;stroke-width:0.6999999999999998;"/><text fill="#000000" font-family="sans-serif" font-size="9.8" lengthAdjust="spacing" textLength="90.3" x="155.05" y="351.3795">addAnnouncement()</text><ellipse cx="148.75" cy="361.4064" fill="#84BE84" rx="2.1" ry="2.1" style="stroke:#038048;stroke-width:0.6999999999999998;"/><text fill="#000000" font-family="sans-serif" font-size="9.8" lengthAdjust="spacing" textLength="131.6" x="155.05" y="364.4143">getAllVisibleAnnouncements()</text><ellipse cx="148.75" cy="374.4412" fill="#84BE84" rx="2.1" ry="2.1" style="stroke:#038048;stroke-width:0.6999999999999998;"/><text fill="#000000" font-family="sans-serif" font-size="9.8" lengthAdjust="spacing" textLength="87.5" x="155.05" y="377.449">getAvailableFields()</text><ellipse cx="148.75" cy="387.476" fill="#84BE84" rx="2.1" ry="2.1" style="stroke:#038048;stroke-width:0.6999999999999998;"/><text fill="#000000" font-family="sans-serif" font-size="9.8" lengthAdjust="spacing" textLength="92.4" x="155.05" y="390.4838">getAnnouncements()</text></g><!--class AnnouncementDTO--><g id="elem_AnnouncementDTO"><rect codeLine="54" fill="#F1F1F1" height="85.7391" id="AnnouncementDTO" rx="1.75" ry="1.75" style="stroke:#181818;stroke-width:0.3499999999999999;" width="109.9" x="357" y="463.75"/><ellipse cx="367.5" cy="474.95" fill="#ADD1B2" rx="7.7" ry="7.7" style="stroke:#181818;stroke-width:0.6999999999999998;"/><path d="M369.4359,472.0625 Q369.5453,471.9094 369.6766,471.8328 Q369.8078,471.7562 369.9609,471.7562 Q370.2234,471.7562 370.3875,471.9422 Q370.5516,472.1172 370.5516,472.5437 L370.5516,473.5609 Q370.5516,473.9875 370.3875,474.1734 Q370.2234,474.3594 369.9609,474.3594 Q369.7203,474.3594 369.5781,474.2172 Q369.4359,474.0859 369.3594,473.725 Q369.3266,473.4734 369.1953,473.3422 Q368.9656,473.0797 368.5391,472.9266 Q368.1125,472.7734 367.675,472.7734 Q367.1391,472.7734 366.6906,473.0031 Q366.2531,473.2328 365.9031,473.7578 Q365.5641,474.2828 365.5641,475.0047 L365.5641,475.7703 Q365.5641,476.6344 366.1875,477.2141 Q366.8109,477.7828 367.9266,477.7828 Q368.5828,477.7828 369.0422,477.6078 Q369.3156,477.4984 369.6109,477.1922 Q369.7969,477.0062 369.8953,476.9516 Q370.0047,476.8969 370.1469,476.8969 Q370.3766,476.8969 370.5516,477.0828 Q370.7375,477.2578 370.7375,477.4984 Q370.7375,477.7391 370.4969,478.0234 Q370.1469,478.4281 369.5891,478.6578 Q368.8344,478.975 367.9266,478.975 Q366.8656,478.975 366.0234,478.5375 Q365.3344,478.1875 364.8531,477.4437 Q364.3719,476.6891 364.3719,475.7922 L364.3719,474.9828 Q364.3719,474.0531 364.7984,473.2547 Q365.2359,472.4453 366.0016,472.0187 Q366.7672,471.5812 367.6312,471.5812 Q368.1453,471.5812 368.5937,471.7016 Q369.0531,471.8109 369.4359,472.0625 Z " fill="#000000"/><text fill="#000000" font-family="sans-serif" font-size="9.8" lengthAdjust="spacing" textLength="87.5" x="377.3" y="479.0078">AnnouncementDTO</text><line style="stroke:#181818;stroke-width:0.3499999999999999;" x1="357.7" x2="466.2" y1="486.15" y2="486.15"/><rect fill="none" height="4.2" style="stroke:#C82930;stroke-width:0.6999999999999998;" width="4.2" x="362.6" y="494.4174"/><text fill="#000000" font-family="sans-serif" font-size="9.8" lengthAdjust="spacing" textLength="21.7" x="371" y="499.5252">price</text><rect fill="none" height="4.2" style="stroke:#C82930;stroke-width:0.6999999999999998;" width="4.2" x="362.6" y="507.4521"/><text fill="#000000" font-family="sans-serif" font-size="9.8" lengthAdjust="spacing" textLength="69.3" x="371" y="512.56">typeOfBusiness</text><rect fill="none" height="4.2" style="stroke:#C82930;stroke-width:0.6999999999999998;" width="4.2" x="362.6" y="520.4869"/><text fill="#000000" font-family="sans-serif" font-size="9.8" lengthAdjust="spacing" textLength="37.1" x="371" y="525.5947">property</text><rect fill="none" height="4.2" style="stroke:#C82930;stroke-width:0.6999999999999998;" width="4.2" x="362.6" y="533.5217"/><text fill="#000000" font-family="sans-serif" font-size="9.8" lengthAdjust="spacing" textLength="25.2" x="371" y="538.6295">agent</text><line style="stroke:#181818;stroke-width:0.3499999999999999;" x1="357.7" x2="466.2" y1="543.8891" y2="543.8891"/></g><!--class AnnouncementMapper--><g id="elem_AnnouncementMapper"><rect codeLine="62" fill="#F1F1F1" height="111.8086" id="AnnouncementMapper" rx="1.75" ry="1.75" style="stroke:#181818;stroke-width:0.3499999999999999;" width="193.2" x="315.35" y="277.2"/><ellipse cx="358.925" cy="288.4" fill="#ADD1B2" rx="7.7" ry="7.7" style="stroke:#181818;stroke-width:0.6999999999999998;"/><path d="M360.8609,285.5125 Q360.9703,285.3594 361.1016,285.2828 Q361.2328,285.2062 361.3859,285.2062 Q361.6484,285.2062 361.8125,285.3922 Q361.9766,285.5672 361.9766,285.9937 L361.9766,287.0109 Q361.9766,287.4375 361.8125,287.6234 Q361.6484,287.8094 361.3859,287.8094 Q361.1453,287.8094 361.0031,287.6672 Q360.8609,287.5359 360.7844,287.175 Q360.7516,286.9234 360.6203,286.7922 Q360.3906,286.5297 359.9641,286.3766 Q359.5375,286.2234 359.1,286.2234 Q358.5641,286.2234 358.1156,286.4531 Q357.6781,286.6828 357.3281,287.2078 Q356.9891,287.7328 356.9891,288.4547 L356.9891,289.2203 Q356.9891,290.0844 357.6125,290.6641 Q358.2359,291.2328 359.3516,291.2328 Q360.0078,291.2328 360.4672,291.0578 Q360.7406,290.9484 361.0359,290.6422 Q361.2219,290.4562 361.3203,290.4016 Q361.4297,290.3469 361.5719,290.3469 Q361.8016,290.3469 361.9766,290.5328 Q362.1625,290.7078 362.1625,290.9484 Q362.1625,291.1891 361.9219,291.4734 Q361.5719,291.8781 361.0141,292.1078 Q360.2594,292.425 359.3516,292.425 Q358.2906,292.425 357.4484,291.9875 Q356.7594,291.6375 356.2781,290.8937 Q355.7969,290.1391 355.7969,289.2422 L355.7969,288.4328 Q355.7969,287.5031 356.2234,286.7047 Q356.6609,285.8953 357.4266,285.4687 Q358.1922,285.0312 359.0562,285.0312 Q359.5703,285.0312 360.0187,285.1516 Q360.4781,285.2609 360.8609,285.5125 Z " fill="#000000"/><text fill="#000000" font-family="sans-serif" font-size="9.8" lengthAdjust="spacing" textLength="100.1" x="373.275" y="292.4578">AnnouncementMapper</text><line style="stroke:#181818;stroke-width:0.3499999999999999;" x1="316.05" x2="507.85" y1="299.6" y2="299.6"/><rect fill="none" height="4.2" style="stroke:#C82930;stroke-width:0.6999999999999998;" width="4.2" x="320.95" y="307.8674"/><text fill="#000000" font-family="sans-serif" font-size="9.8" lengthAdjust="spacing" textLength="102.2" x="329.35" y="312.9752">announcementDTOList</text><line style="stroke:#181818;stroke-width:0.3499999999999999;" x1="316.05" x2="507.85" y1="318.2348" y2="318.2348"/><ellipse cx="323.05" cy="328.6021" fill="#84BE84" rx="2.1" ry="2.1" style="stroke:#038048;stroke-width:0.6999999999999998;"/><text fill="#000000" font-family="sans-serif" font-size="9.8" lengthAdjust="spacing" textLength="39.9" x="329.35" y="331.61">convert()</text><ellipse cx="323.05" cy="341.6369" fill="#84BE84" rx="2.1" ry="2.1" style="stroke:#038048;stroke-width:0.6999999999999998;"/><text fill="#000000" font-family="sans-serif" font-size="9.8" lengthAdjust="spacing" textLength="30.8" x="329.35" y="344.6447">toDto()</text><ellipse cx="323.05" cy="354.6717" fill="#84BE84" rx="2.1" ry="2.1" style="stroke:#038048;stroke-width:0.6999999999999998;"/><text fill="#000000" font-family="sans-serif" font-size="9.8" lengthAdjust="spacing" textLength="102.9" x="329.35" y="357.6795">getAllAnnouncements()</text><ellipse cx="323.05" cy="367.7064" fill="#84BE84" rx="2.1" ry="2.1" style="stroke:#038048;stroke-width:0.6999999999999998;"/><text fill="#000000" font-family="sans-serif" font-size="9.8" lengthAdjust="spacing" textLength="175" x="329.35" y="370.7143">getAllAnnouncementsRecentToOldest()</text><ellipse cx="323.05" cy="380.7412" fill="#84BE84" rx="2.1" ry="2.1" style="stroke:#038048;stroke-width:0.6999999999999998;"/><text fill="#000000" font-family="sans-serif" font-size="9.8" lengthAdjust="spacing" textLength="97.3" x="329.35" y="383.749">toDtoAnnouncement()</text></g><!--class Announcement--><g id="elem_Announcement"><rect codeLine="72" fill="#F1F1F1" height="137.8781" id="Announcement" rx="1.75" ry="1.75" style="stroke:#181818;stroke-width:0.3499999999999999;" width="88.9" x="171.5" y="437.5"/><ellipse cx="182" cy="448.7" fill="#ADD1B2" rx="7.7" ry="7.7" style="stroke:#181818;stroke-width:0.6999999999999998;"/><path d="M183.9359,445.8125 Q184.0453,445.6594 184.1766,445.5828 Q184.3078,445.5062 184.4609,445.5062 Q184.7234,445.5062 184.8875,445.6922 Q185.0516,445.8672 185.0516,446.2937 L185.0516,447.3109 Q185.0516,447.7375 184.8875,447.9234 Q184.7234,448.1094 184.4609,448.1094 Q184.2203,448.1094 184.0781,447.9672 Q183.9359,447.8359 183.8594,447.475 Q183.8266,447.2234 183.6953,447.0922 Q183.4656,446.8297 183.0391,446.6766 Q182.6125,446.5234 182.175,446.5234 Q181.6391,446.5234 181.1906,446.7531 Q180.7531,446.9828 180.4031,447.5078 Q180.0641,448.0328 180.0641,448.7547 L180.0641,449.5203 Q180.0641,450.3844 180.6875,450.9641 Q181.3109,451.5328 182.4266,451.5328 Q183.0828,451.5328 183.5422,451.3578 Q183.8156,451.2484 184.1109,450.9422 Q184.2969,450.7562 184.3953,450.7016 Q184.5047,450.6469 184.6469,450.6469 Q184.8766,450.6469 185.0516,450.8328 Q185.2375,451.0078 185.2375,451.2484 Q185.2375,451.4891 184.9969,451.7734 Q184.6469,452.1781 184.0891,452.4078 Q183.3344,452.725 182.4266,452.725 Q181.3656,452.725 180.5234,452.2875 Q179.8344,451.9375 179.3531,451.1937 Q178.8719,450.4391 178.8719,449.5422 L178.8719,448.7328 Q178.8719,447.8031 179.2984,447.0047 Q179.7359,446.1953 180.5016,445.7687 Q181.2672,445.3312 182.1312,445.3312 Q182.6453,445.3312 183.0937,445.4516 Q183.5531,445.5609 183.9359,445.8125 Z " fill="#000000"/><text fill="#000000" font-family="sans-serif" font-size="9.8" lengthAdjust="spacing" textLength="66.5" x="191.8" y="452.7578">Announcement</text><line style="stroke:#181818;stroke-width:0.3499999999999999;" x1="172.2" x2="259.7" y1="459.9" y2="459.9"/><rect fill="none" height="4.2" style="stroke:#C82930;stroke-width:0.6999999999999998;" width="4.2" x="177.1" y="468.1674"/><text fill="#000000" font-family="sans-serif" font-size="9.8" lengthAdjust="spacing" textLength="19.6" x="185.5" y="473.2752">date</text><rect fill="none" height="4.2" style="stroke:#C82930;stroke-width:0.6999999999999998;" width="4.2" x="177.1" y="481.2021"/><text fill="#000000" font-family="sans-serif" font-size="9.8" lengthAdjust="spacing" textLength="26.6" x="185.5" y="486.31">status</text><rect fill="none" height="4.2" style="stroke:#C82930;stroke-width:0.6999999999999998;" width="4.2" x="177.1" y="494.2369"/><text fill="#000000" font-family="sans-serif" font-size="9.8" lengthAdjust="spacing" textLength="21.7" x="185.5" y="499.3447">price</text><rect fill="none" height="4.2" style="stroke:#C82930;stroke-width:0.6999999999999998;" width="4.2" x="177.1" y="507.2717"/><text fill="#000000" font-family="sans-serif" font-size="9.8" lengthAdjust="spacing" textLength="51.1" x="185.5" y="512.3795">commission</text><rect fill="none" height="4.2" style="stroke:#C82930;stroke-width:0.6999999999999998;" width="4.2" x="177.1" y="520.3064"/><text fill="#000000" font-family="sans-serif" font-size="9.8" lengthAdjust="spacing" textLength="69.3" x="185.5" y="525.4143">typeOfBusiness</text><rect fill="none" height="4.2" style="stroke:#C82930;stroke-width:0.6999999999999998;" width="4.2" x="177.1" y="533.3412"/><text fill="#000000" font-family="sans-serif" font-size="9.8" lengthAdjust="spacing" textLength="37.1" x="185.5" y="538.449">property</text><rect fill="none" height="4.2" style="stroke:#C82930;stroke-width:0.6999999999999998;" width="4.2" x="177.1" y="546.376"/><text fill="#000000" font-family="sans-serif" font-size="9.8" lengthAdjust="spacing" textLength="25.2" x="185.5" y="551.4838">agent</text><rect fill="none" height="4.2" style="stroke:#C82930;stroke-width:0.6999999999999998;" width="4.2" x="177.1" y="559.4107"/><text fill="#000000" font-family="sans-serif" font-size="9.8" lengthAdjust="spacing" textLength="30.8" x="185.5" y="564.5186">reason</text><line style="stroke:#181818;stroke-width:0.3499999999999999;" x1="172.2" x2="259.7" y1="569.7781" y2="569.7781"/></g><!--class Application--><g id="elem_Application"><rect fill="#F1F1F1" height="33.6" id="Application" rx="1.75" ry="1.75" style="stroke:#181818;stroke-width:0.3499999999999999;" width="70.7" x="345.8" y="17.85"/><ellipse cx="356.3" cy="29.05" fill="#ADD1B2" rx="7.7" ry="7.7" style="stroke:#181818;stroke-width:0.6999999999999998;"/><path d="M358.2359,26.1625 Q358.3453,26.0094 358.4766,25.9328 Q358.6078,25.8562 358.7609,25.8562 Q359.0234,25.8562 359.1875,26.0422 Q359.3516,26.2172 359.3516,26.6437 L359.3516,27.6609 Q359.3516,28.0875 359.1875,28.2734 Q359.0234,28.4594 358.7609,28.4594 Q358.5203,28.4594 358.3781,28.3172 Q358.2359,28.1859 358.1594,27.825 Q358.1266,27.5734 357.9953,27.4422 Q357.7656,27.1797 357.3391,27.0266 Q356.9125,26.8734 356.475,26.8734 Q355.9391,26.8734 355.4906,27.1031 Q355.0531,27.3328 354.7031,27.8578 Q354.3641,28.3828 354.3641,29.1047 L354.3641,29.8703 Q354.3641,30.7344 354.9875,31.3141 Q355.6109,31.8828 356.7266,31.8828 Q357.3828,31.8828 357.8422,31.7078 Q358.1156,31.5984 358.4109,31.2922 Q358.5969,31.1062 358.6953,31.0516 Q358.8047,30.9969 358.9469,30.9969 Q359.1766,30.9969 359.3516,31.1828 Q359.5375,31.3578 359.5375,31.5984 Q359.5375,31.8391 359.2969,32.1234 Q358.9469,32.5281 358.3891,32.7578 Q357.6344,33.075 356.7266,33.075 Q355.6656,33.075 354.8234,32.6375 Q354.1344,32.2875 353.6531,31.5437 Q353.1719,30.7891 353.1719,29.8922 L353.1719,29.0828 Q353.1719,28.1531 353.5984,27.3547 Q354.0359,26.5453 354.8016,26.1187 Q355.5672,25.6812 356.4312,25.6812 Q356.9453,25.6812 357.3937,25.8016 Q357.8531,25.9109 358.2359,26.1625 Z " fill="#000000"/><text fill="#000000" font-family="sans-serif" font-size="9.8" lengthAdjust="spacing" textLength="48.3" x="366.1" y="33.1078">Application</text><line style="stroke:#181818;stroke-width:0.3499999999999999;" x1="346.5" x2="415.8" y1="40.25" y2="40.25"/><line style="stroke:#181818;stroke-width:0.3499999999999999;" x1="346.5" x2="415.8" y1="45.85" y2="45.85"/></g><!--link ReadResponseOfAppointmentRequestGUI to ReadResponseOfAppointmentRequestController--><g id="link_ReadResponseOfAppointmentRequestGUI_ReadResponseOfAppointmentRequestController"><path codeLine="85" d="M215.95,64.61 C215.95,77.14 215.95,91.448 215.95,102.697 " fill="none" id="ReadResponseOfAppointmentRequestGUI-to-ReadResponseOfAppointmentRequestController" style="stroke:#181818;stroke-width:0.6999999999999998;stroke-dasharray:7.0,7.0;"/><polygon fill="#181818" points="215.95,106.393,218.75,100.093,215.95,102.893,213.15,100.093,215.95,106.393" style="stroke:#181818;stroke-width:0.6999999999999998;"/></g><!--link ReadResponseOfAppointmentRequestController to Repositories--><g id="link_ReadResponseOfAppointmentRequestController_Repositories"><path codeLine="86" d="M215.95,140.07 C215.95,151.018 215.95,165.739 215.95,178.374 " fill="none" id="ReadResponseOfAppointmentRequestController-to-Repositories" style="stroke:#181818;stroke-width:0.6999999999999998;stroke-dasharray:7.0,7.0;"/><polygon fill="#181818" points="215.95,181.874,218.75,175.574,215.95,178.374,213.15,175.574,215.95,181.874" style="stroke:#181818;stroke-width:0.6999999999999998;"/></g><!--link Repositories to AnnouncementRepository--><g id="link_Repositories_AnnouncementRepository"><path codeLine="87" d="M215.95,229.033 C215.95,239.82 215.95,253.302 215.95,266.938 " fill="none" id="Repositories-to-AnnouncementRepository" style="stroke:#181818;stroke-width:0.6999999999999998;stroke-dasharray:7.0,7.0;"/><polygon fill="#181818" points="215.95,270.781,218.75,264.481,215.95,267.281,213.15,264.481,215.95,270.781" style="stroke:#181818;stroke-width:0.6999999999999998;"/></g><!--link AnnouncementRepository to Announcement--><g id="link_AnnouncementRepository_Announcement"><path codeLine="88" d="M215.95,395.696 C215.95,408.016 215.95,421.043 215.95,433.671 " fill="none" id="AnnouncementRepository-to-Announcement" style="stroke:#181818;stroke-width:0.6999999999999998;"/><polygon fill="#181818" points="215.95,437.22,218.75,430.92,215.95,433.72,213.15,430.92,215.95,437.22" style="stroke:#181818;stroke-width:0.6999999999999998;"/></g><!--link Repositories to AnnouncementMapper--><g id="link_Repositories_AnnouncementMapper"><path codeLine="89" d="M251.447,229.033 C271.53,241.983 297.633,258.804 322.931,275.114 " fill="none" id="Repositories-to-AnnouncementMapper" style="stroke:#181818;stroke-width:0.6999999999999998;stroke-dasharray:7.0,7.0;"/><polygon fill="#181818" points="326.011,277.102,322.2396,271.3308,323.0714,275.2023,319.2,276.0342,326.011,277.102" style="stroke:#181818;stroke-width:0.6999999999999998;"/></g><!--link Repositories to ScheduleRepository--><g id="link_Repositories_ScheduleRepository"><path codeLine="90" d="M183.575,228.928 C166.817,241.017 146.202,256.34 128.45,270.9 C124.397,274.218 120.267,277.704 116.144,281.26 " fill="none" id="Repositories-to-ScheduleRepository" style="stroke:#181818;stroke-width:0.6999999999999998;stroke-dasharray:7.0,7.0;"/><polygon fill="#181818" points="113.295,283.731,119.8925,281.7304,115.9432,281.4426,116.231,277.4932,113.295,283.731" style="stroke:#181818;stroke-width:0.6999999999999998;"/></g><!--link AnnouncementMapper to AnnouncementDTO--><g id="link_AnnouncementMapper_AnnouncementDTO"><path codeLine="91" d="M411.95,389.221 C411.95,412.041 411.95,438.165 411.95,459.893 " fill="none" id="AnnouncementMapper-to-AnnouncementDTO" style="stroke:#181818;stroke-width:0.6999999999999998;"/><polygon fill="#181818" points="411.95,463.617,414.75,457.317,411.95,460.117,409.15,457.317,411.95,463.617" style="stroke:#181818;stroke-width:0.6999999999999998;"/></g><!--link ScheduleRepository to Schedule--><g id="link_ScheduleRepository_Schedule"><path codeLine="92" d="M60.55,382.683 C60.55,398.524 60.55,416.458 60.55,433.629 " fill="none" id="ScheduleRepository-to-Schedule" style="stroke:#181818;stroke-width:0.6999999999999998;"/><polygon fill="#181818" points="60.55,437.276,63.35,430.976,60.55,433.776,57.75,430.976,60.55,437.276" style="stroke:#181818;stroke-width:0.6999999999999998;"/></g><!--reverse link ReadResponseOfAppointmentRequestGUI to Application--><g id="link_ReadResponseOfAppointmentRequestGUI_Application"><path codeLine="93" d="M335.174,34.65 C338.702,34.65 342.223,34.65 345.751,34.65 " fill="none" id="ReadResponseOfAppointmentRequestGUI-backto-Application" style="stroke:#181818;stroke-width:0.6999999999999998;"/><polygon fill="none" points="335.139,39.55,321.139,34.65,335.139,29.75,335.139,39.55" style="stroke:#181818;stroke-width:0.6999999999999998;"/></g><!--SRC=[bLJRJkCm47ttL-GHXC8d81KG5mceLDXzT-sXM79iavbKgc3_VIUgtJY9YqfUuhdVpeoo4h5QWTGhmE0Tml9z4O8tZXfmj8BF3f3k_pnMNq9K_5rKIBAbi_D8DT8u9lu9eKvoTUCTjTvQQ7kFcLdmQCYt1d0aU5KVe3iBANvTETb0V8OFx-2bQzRGHevqpdTEGHynihJSnTSQDkR1TqaNdCuevocvvGgfm-F9xIlFGnqqTlFC1zbGGv8z6QJKLhc5n3vqTokjqPBc0gdrZBS1oltcKraKSyrcoi4FVbGB738tcULJ579EHJxdjR3shq6pjYDB7AbifR6IDUuCM3qMJMoAPTs-BOV-XjQeD4tQ1KRYTOV60U91mGTeAI53Rdgy5Fq-on3sO9qZZ6Dc4rJURI5R3VAtv2TTE5x-HBO2nRytlxGQSE9pqkLYsaF2LJ-mz8xGZbJU9aw_QGoYyIvnYfsRjYxsBX8C7MG7d98uvQXSNbxzucA8NnoNlUTXRyLeYNjfUIV4aLMfwx75p_xse9dhp6-2A61j6ejX9WhNf5TBRC7Di4P9ul5LjOLtgh-lJhdhGlm7]--></g></svg>