<?xml version="1.0" encoding="us-ascii" standalone="no"?><svg xmlns="http://www.w3.org/2000/svg" xmlns:xlink="http://www.w3.org/1999/xlink" contentStyleType="text/css" height="828px" preserveAspectRatio="none" style="width:733px;height:828px;background:#FFFFFF;" version="1.1" viewBox="0 0 733 828" width="733px" zoomAndPan="magnify"><defs/><g><!--class ReadResponseOfAppointmentRequestGUI--><g id="elem_ReadResponseOfAppointmentRequestGUI"><rect codeLine="3" fill="#F1F1F1" height="85.2422" id="ReadResponseOfAppointmentRequestGUI" rx="2.5" ry="2.5" style="stroke:#181818;stroke-width:0.5;" width="300" x="158.5" y="7"/><ellipse cx="173.5" cy="23" fill="#ADD1B2" rx="11" ry="11" style="stroke:#181818;stroke-width:1.0;"/><path d="M176.2656,18.875 Q176.4219,18.6563 176.6094,18.5469 Q176.7969,18.4375 177.0156,18.4375 Q177.3906,18.4375 177.625,18.7031 Q177.8594,18.9531 177.8594,19.5625 L177.8594,21.0156 Q177.8594,21.625 177.625,21.8906 Q177.3906,22.1563 177.0156,22.1563 Q176.6719,22.1563 176.4688,21.9531 Q176.2656,21.7656 176.1563,21.25 Q176.1094,20.8906 175.9219,20.7031 Q175.5938,20.3281 174.9844,20.1094 Q174.375,19.8906 173.75,19.8906 Q172.9844,19.8906 172.3438,20.2188 Q171.7188,20.5469 171.2188,21.2969 Q170.7344,22.0469 170.7344,23.0781 L170.7344,24.1719 Q170.7344,25.4063 171.625,26.2344 Q172.5156,27.0469 174.1094,27.0469 Q175.0469,27.0469 175.7031,26.7969 Q176.0938,26.6406 176.5156,26.2031 Q176.7813,25.9375 176.9219,25.8594 Q177.0781,25.7813 177.2813,25.7813 Q177.6094,25.7813 177.8594,26.0469 Q178.125,26.2969 178.125,26.6406 Q178.125,26.9844 177.7813,27.3906 Q177.2813,27.9688 176.4844,28.2969 Q175.4063,28.75 174.1094,28.75 Q172.5938,28.75 171.3906,28.125 Q170.4063,27.625 169.7188,26.5625 Q169.0313,25.4844 169.0313,24.2031 L169.0313,23.0469 Q169.0313,21.7188 169.6406,20.5781 Q170.2656,19.4219 171.3594,18.8125 Q172.4531,18.1875 173.6875,18.1875 Q174.4219,18.1875 175.0625,18.3594 Q175.7188,18.5156 176.2656,18.875 Z " fill="#000000"/><text fill="#000000" font-family="sans-serif" font-size="14" lengthAdjust="spacing" textLength="268" x="187.5" y="28.7969">ReadResponseOfAppointmentRequestGUI</text><line style="stroke:#181818;stroke-width:0.5;" x1="159.5" x2="457.5" y1="39" y2="39"/><line style="stroke:#181818;stroke-width:0.5;" x1="159.5" x2="457.5" y1="47" y2="47"/><ellipse cx="169.5" cy="61.8105" fill="#84BE84" rx="3" ry="3" style="stroke:#038048;stroke-width:1.0;"/><text fill="#000000" font-family="sans-serif" font-size="14" lengthAdjust="spacing" textLength="38" x="178.5" y="66.1074">start()</text><ellipse cx="169.5" cy="80.4316" fill="#84BE84" rx="3" ry="3" style="stroke:#038048;stroke-width:1.0;"/><text fill="#000000" font-family="sans-serif" font-size="14" lengthAdjust="spacing" textLength="40" x="178.5" y="84.7285">main()</text></g><!--class ReadResponseOfAppointmentRequestController--><g id="elem_ReadResponseOfAppointmentRequestController"><rect codeLine="9" fill="#F1F1F1" height="48" id="ReadResponseOfAppointmentRequestController" rx="2.5" ry="2.5" style="stroke:#181818;stroke-width:0.5;" width="339" x="139" y="152"/><ellipse cx="154" cy="168" fill="#ADD1B2" rx="11" ry="11" style="stroke:#181818;stroke-width:1.0;"/><path d="M156.7656,163.875 Q156.9219,163.6563 157.1094,163.5469 Q157.2969,163.4375 157.5156,163.4375 Q157.8906,163.4375 158.125,163.7031 Q158.3594,163.9531 158.3594,164.5625 L158.3594,166.0156 Q158.3594,166.625 158.125,166.8906 Q157.8906,167.1563 157.5156,167.1563 Q157.1719,167.1563 156.9688,166.9531 Q156.7656,166.7656 156.6563,166.25 Q156.6094,165.8906 156.4219,165.7031 Q156.0938,165.3281 155.4844,165.1094 Q154.875,164.8906 154.25,164.8906 Q153.4844,164.8906 152.8438,165.2188 Q152.2188,165.5469 151.7188,166.2969 Q151.2344,167.0469 151.2344,168.0781 L151.2344,169.1719 Q151.2344,170.4063 152.125,171.2344 Q153.0156,172.0469 154.6094,172.0469 Q155.5469,172.0469 156.2031,171.7969 Q156.5938,171.6406 157.0156,171.2031 Q157.2813,170.9375 157.4219,170.8594 Q157.5781,170.7813 157.7813,170.7813 Q158.1094,170.7813 158.3594,171.0469 Q158.625,171.2969 158.625,171.6406 Q158.625,171.9844 158.2813,172.3906 Q157.7813,172.9688 156.9844,173.2969 Q155.9063,173.75 154.6094,173.75 Q153.0938,173.75 151.8906,173.125 Q150.9063,172.625 150.2188,171.5625 Q149.5313,170.4844 149.5313,169.2031 L149.5313,168.0469 Q149.5313,166.7188 150.1406,165.5781 Q150.7656,164.4219 151.8594,163.8125 Q152.9531,163.1875 154.1875,163.1875 Q154.9219,163.1875 155.5625,163.3594 Q156.2188,163.5156 156.7656,163.875 Z " fill="#000000"/><text fill="#000000" font-family="sans-serif" font-size="14" lengthAdjust="spacing" textLength="307" x="168" y="173.7969">ReadResponseOfAppointmentRequestController</text><line style="stroke:#181818;stroke-width:0.5;" x1="140" x2="477" y1="184" y2="184"/><line style="stroke:#181818;stroke-width:0.5;" x1="140" x2="477" y1="192" y2="192"/></g><!--class Schedule--><g id="elem_Schedule"><rect codeLine="15" fill="#F1F1F1" height="196.9688" id="Schedule" rx="2.5" ry="2.5" style="stroke:#181818;stroke-width:0.5;" width="120" x="26.5" y="625"/><ellipse cx="54.55" cy="641" fill="#ADD1B2" rx="11" ry="11" style="stroke:#181818;stroke-width:1.0;"/><path d="M57.3156,636.875 Q57.4719,636.6563 57.6594,636.5469 Q57.8469,636.4375 58.0656,636.4375 Q58.4406,636.4375 58.675,636.7031 Q58.9094,636.9531 58.9094,637.5625 L58.9094,639.0156 Q58.9094,639.625 58.675,639.8906 Q58.4406,640.1563 58.0656,640.1563 Q57.7219,640.1563 57.5188,639.9531 Q57.3156,639.7656 57.2063,639.25 Q57.1594,638.8906 56.9719,638.7031 Q56.6438,638.3281 56.0344,638.1094 Q55.425,637.8906 54.8,637.8906 Q54.0344,637.8906 53.3938,638.2188 Q52.7688,638.5469 52.2688,639.2969 Q51.7844,640.0469 51.7844,641.0781 L51.7844,642.1719 Q51.7844,643.4063 52.675,644.2344 Q53.5656,645.0469 55.1594,645.0469 Q56.0969,645.0469 56.7531,644.7969 Q57.1438,644.6406 57.5656,644.2031 Q57.8313,643.9375 57.9719,643.8594 Q58.1281,643.7813 58.3313,643.7813 Q58.6594,643.7813 58.9094,644.0469 Q59.175,644.2969 59.175,644.6406 Q59.175,644.9844 58.8313,645.3906 Q58.3313,645.9688 57.5344,646.2969 Q56.4563,646.75 55.1594,646.75 Q53.6438,646.75 52.4406,646.125 Q51.4563,645.625 50.7688,644.5625 Q50.0813,643.4844 50.0813,642.2031 L50.0813,641.0469 Q50.0813,639.7188 50.6906,638.5781 Q51.3156,637.4219 52.4094,636.8125 Q53.5031,636.1875 54.7375,636.1875 Q55.4719,636.1875 56.1125,636.3594 Q56.7688,636.5156 57.3156,636.875 Z " fill="#000000"/><text fill="#000000" font-family="sans-serif" font-size="14" lengthAdjust="spacing" textLength="59" x="71.45" y="646.7969">Schedule</text><line style="stroke:#181818;stroke-width:0.5;" x1="27.5" x2="145.5" y1="657" y2="657"/><rect fill="none" height="6" style="stroke:#C82930;stroke-width:1.0;" width="6" x="34.5" y="668.8105"/><text fill="#000000" font-family="sans-serif" font-size="14" lengthAdjust="spacing" textLength="35" x="46.5" y="676.1074">name</text><rect fill="none" height="6" style="stroke:#C82930;stroke-width:1.0;" width="6" x="34.5" y="687.4316"/><text fill="#000000" font-family="sans-serif" font-size="14" lengthAdjust="spacing" textLength="89" x="46.5" y="694.7285">phoneNumber</text><rect fill="none" height="6" style="stroke:#C82930;stroke-width:1.0;" width="6" x="34.5" y="706.0527"/><text fill="#000000" font-family="sans-serif" font-size="14" lengthAdjust="spacing" textLength="94" x="46.5" y="713.3496">announcement</text><rect fill="none" height="6" style="stroke:#C82930;stroke-width:1.0;" width="6" x="34.5" y="724.6738"/><text fill="#000000" font-family="sans-serif" font-size="14" lengthAdjust="spacing" textLength="23" x="46.5" y="731.9707">day</text><rect fill="none" height="6" style="stroke:#C82930;stroke-width:1.0;" width="6" x="34.5" y="743.2949"/><text fill="#000000" font-family="sans-serif" font-size="14" lengthAdjust="spacing" textLength="57" x="46.5" y="750.5918">begiHour</text><rect fill="none" height="6" style="stroke:#C82930;stroke-width:1.0;" width="6" x="34.5" y="761.916"/><text fill="#000000" font-family="sans-serif" font-size="14" lengthAdjust="spacing" textLength="54" x="46.5" y="769.2129">endHour</text><rect fill="none" height="6" style="stroke:#C82930;stroke-width:1.0;" width="6" x="34.5" y="780.5371"/><text fill="#000000" font-family="sans-serif" font-size="14" lengthAdjust="spacing" textLength="28" x="46.5" y="787.834">note</text><rect fill="none" height="6" style="stroke:#C82930;stroke-width:1.0;" width="6" x="34.5" y="799.1582"/><text fill="#000000" font-family="sans-serif" font-size="14" lengthAdjust="spacing" textLength="38" x="46.5" y="806.4551">status</text><line style="stroke:#181818;stroke-width:0.5;" x1="27.5" x2="145.5" y1="813.9688" y2="813.9688"/></g><!--class Repositories--><g id="elem_Repositories"><rect codeLine="27" fill="#F1F1F1" height="66.6211" id="Repositories" rx="2.5" ry="2.5" style="stroke:#181818;stroke-width:0.5;" width="151" x="233" y="260"/><ellipse cx="266" cy="276" fill="#ADD1B2" rx="11" ry="11" style="stroke:#181818;stroke-width:1.0;"/><path d="M268.7656,271.875 Q268.9219,271.6563 269.1094,271.5469 Q269.2969,271.4375 269.5156,271.4375 Q269.8906,271.4375 270.125,271.7031 Q270.3594,271.9531 270.3594,272.5625 L270.3594,274.0156 Q270.3594,274.625 270.125,274.8906 Q269.8906,275.1563 269.5156,275.1563 Q269.1719,275.1563 268.9688,274.9531 Q268.7656,274.7656 268.6563,274.25 Q268.6094,273.8906 268.4219,273.7031 Q268.0938,273.3281 267.4844,273.1094 Q266.875,272.8906 266.25,272.8906 Q265.4844,272.8906 264.8438,273.2188 Q264.2188,273.5469 263.7188,274.2969 Q263.2344,275.0469 263.2344,276.0781 L263.2344,277.1719 Q263.2344,278.4063 264.125,279.2344 Q265.0156,280.0469 266.6094,280.0469 Q267.5469,280.0469 268.2031,279.7969 Q268.5938,279.6406 269.0156,279.2031 Q269.2813,278.9375 269.4219,278.8594 Q269.5781,278.7813 269.7813,278.7813 Q270.1094,278.7813 270.3594,279.0469 Q270.625,279.2969 270.625,279.6406 Q270.625,279.9844 270.2813,280.3906 Q269.7813,280.9688 268.9844,281.2969 Q267.9063,281.75 266.6094,281.75 Q265.0938,281.75 263.8906,281.125 Q262.9063,280.625 262.2188,279.5625 Q261.5313,278.4844 261.5313,277.2031 L261.5313,276.0469 Q261.5313,274.7188 262.1406,273.5781 Q262.7656,272.4219 263.8594,271.8125 Q264.9531,271.1875 266.1875,271.1875 Q266.9219,271.1875 267.5625,271.3594 Q268.2188,271.5156 268.7656,271.875 Z " fill="#000000"/><text fill="#000000" font-family="sans-serif" font-size="14" lengthAdjust="spacing" textLength="79" x="284" y="281.7969">Repositories</text><line style="stroke:#181818;stroke-width:0.5;" x1="234" x2="383" y1="292" y2="292"/><ellipse cx="244" cy="306.8105" fill="none" rx="3" ry="3" style="stroke:#038048;stroke-width:1.0;"/><text fill="#000000" font-family="sans-serif" font-size="14" lengthAdjust="spacing" textLength="125" x="253" y="311.1074">scheduleRepository</text><line style="stroke:#181818;stroke-width:0.5;" x1="234" x2="383" y1="318.6211" y2="318.6211"/></g><!--class ScheduleRepository--><g id="elem_ScheduleRepository"><rect codeLine="32" fill="#F1F1F1" height="141.1055" id="ScheduleRepository" rx="2.5" ry="2.5" style="stroke:#181818;stroke-width:0.5;" width="159" x="7" y="405.5"/><ellipse cx="22" cy="421.5" fill="#ADD1B2" rx="11" ry="11" style="stroke:#181818;stroke-width:1.0;"/><path d="M24.7656,417.375 Q24.9219,417.1563 25.1094,417.0469 Q25.2969,416.9375 25.5156,416.9375 Q25.8906,416.9375 26.125,417.2031 Q26.3594,417.4531 26.3594,418.0625 L26.3594,419.5156 Q26.3594,420.125 26.125,420.3906 Q25.8906,420.6563 25.5156,420.6563 Q25.1719,420.6563 24.9688,420.4531 Q24.7656,420.2656 24.6563,419.75 Q24.6094,419.3906 24.4219,419.2031 Q24.0938,418.8281 23.4844,418.6094 Q22.875,418.3906 22.25,418.3906 Q21.4844,418.3906 20.8438,418.7188 Q20.2188,419.0469 19.7188,419.7969 Q19.2344,420.5469 19.2344,421.5781 L19.2344,422.6719 Q19.2344,423.9063 20.125,424.7344 Q21.0156,425.5469 22.6094,425.5469 Q23.5469,425.5469 24.2031,425.2969 Q24.5938,425.1406 25.0156,424.7031 Q25.2813,424.4375 25.4219,424.3594 Q25.5781,424.2813 25.7813,424.2813 Q26.1094,424.2813 26.3594,424.5469 Q26.625,424.7969 26.625,425.1406 Q26.625,425.4844 26.2813,425.8906 Q25.7813,426.4688 24.9844,426.7969 Q23.9063,427.25 22.6094,427.25 Q21.0938,427.25 19.8906,426.625 Q18.9063,426.125 18.2188,425.0625 Q17.5313,423.9844 17.5313,422.7031 L17.5313,421.5469 Q17.5313,420.2188 18.1406,419.0781 Q18.7656,417.9219 19.8594,417.3125 Q20.9531,416.6875 22.1875,416.6875 Q22.9219,416.6875 23.5625,416.8594 Q24.2188,417.0156 24.7656,417.375 Z " fill="#000000"/><text fill="#000000" font-family="sans-serif" font-size="14" lengthAdjust="spacing" textLength="127" x="36" y="427.2969">ScheduleRepository</text><line style="stroke:#181818;stroke-width:0.5;" x1="8" x2="165" y1="437.5" y2="437.5"/><rect fill="none" height="6" style="stroke:#C82930;stroke-width:1.0;" width="6" x="15" y="449.3105"/><text fill="#000000" font-family="sans-serif" font-size="14" lengthAdjust="spacing" textLength="81" x="27" y="456.6074">ScheduleList</text><line style="stroke:#181818;stroke-width:0.5;" x1="8" x2="165" y1="464.1211" y2="464.1211"/><ellipse cx="18" cy="478.9316" fill="#84BE84" rx="3" ry="3" style="stroke:#038048;stroke-width:1.0;"/><text fill="#000000" font-family="sans-serif" font-size="14" lengthAdjust="spacing" textLength="99" x="27" y="483.2285">saveSchedule()</text><ellipse cx="18" cy="497.5527" fill="#84BE84" rx="3" ry="3" style="stroke:#038048;stroke-width:1.0;"/><text fill="#000000" font-family="sans-serif" font-size="14" lengthAdjust="spacing" textLength="118" x="27" y="501.8496">validateSchedule()</text><ellipse cx="18" cy="516.1738" fill="#84BE84" rx="3" ry="3" style="stroke:#038048;stroke-width:1.0;"/><text fill="#000000" font-family="sans-serif" font-size="14" lengthAdjust="spacing" textLength="93" x="27" y="520.4707">addSchedule()</text><ellipse cx="18" cy="534.7949" fill="#84BE84" rx="3" ry="3" style="stroke:#038048;stroke-width:1.0;"/><text fill="#000000" font-family="sans-serif" font-size="14" lengthAdjust="spacing" textLength="111" x="27" y="539.0918">getScheduleList()</text></g><!--class AnnouncementRepository--><g id="elem_AnnouncementRepository"><rect codeLine="41" fill="#F1F1F1" height="178.3477" id="AnnouncementRepository" rx="2.5" ry="2.5" style="stroke:#181818;stroke-width:0.5;" width="214" x="201.5" y="387"/><ellipse cx="225.05" cy="403" fill="#ADD1B2" rx="11" ry="11" style="stroke:#181818;stroke-width:1.0;"/><path d="M227.8156,398.875 Q227.9719,398.6563 228.1594,398.5469 Q228.3469,398.4375 228.5656,398.4375 Q228.9406,398.4375 229.175,398.7031 Q229.4094,398.9531 229.4094,399.5625 L229.4094,401.0156 Q229.4094,401.625 229.175,401.8906 Q228.9406,402.1563 228.5656,402.1563 Q228.2219,402.1563 228.0188,401.9531 Q227.8156,401.7656 227.7063,401.25 Q227.6594,400.8906 227.4719,400.7031 Q227.1438,400.3281 226.5344,400.1094 Q225.925,399.8906 225.3,399.8906 Q224.5344,399.8906 223.8938,400.2188 Q223.2688,400.5469 222.7688,401.2969 Q222.2844,402.0469 222.2844,403.0781 L222.2844,404.1719 Q222.2844,405.4063 223.175,406.2344 Q224.0656,407.0469 225.6594,407.0469 Q226.5969,407.0469 227.2531,406.7969 Q227.6438,406.6406 228.0656,406.2031 Q228.3313,405.9375 228.4719,405.8594 Q228.6281,405.7813 228.8313,405.7813 Q229.1594,405.7813 229.4094,406.0469 Q229.675,406.2969 229.675,406.6406 Q229.675,406.9844 229.3313,407.3906 Q228.8313,407.9688 228.0344,408.2969 Q226.9563,408.75 225.6594,408.75 Q224.1438,408.75 222.9406,408.125 Q221.9563,407.625 221.2688,406.5625 Q220.5813,405.4844 220.5813,404.2031 L220.5813,403.0469 Q220.5813,401.7188 221.1906,400.5781 Q221.8156,399.4219 222.9094,398.8125 Q224.0031,398.1875 225.2375,398.1875 Q225.9719,398.1875 226.6125,398.3594 Q227.2688,398.5156 227.8156,398.875 Z " fill="#000000"/><text fill="#000000" font-family="sans-serif" font-size="14" lengthAdjust="spacing" textLength="163" x="240.95" y="408.7969">AnnouncementRepository</text><line style="stroke:#181818;stroke-width:0.5;" x1="202.5" x2="414.5" y1="419" y2="419"/><line style="stroke:#181818;stroke-width:0.5;" x1="202.5" x2="414.5" y1="427" y2="427"/><ellipse cx="212.5" cy="441.8105" fill="#84BE84" rx="3" ry="3" style="stroke:#038048;stroke-width:1.0;"/><text fill="#000000" font-family="sans-serif" font-size="14" lengthAdjust="spacing" textLength="40" x="221.5" y="446.1074">save()</text><ellipse cx="212.5" cy="460.4316" fill="#84BE84" rx="3" ry="3" style="stroke:#038048;stroke-width:1.0;"/><text fill="#000000" font-family="sans-serif" font-size="14" lengthAdjust="spacing" textLength="145" x="221.5" y="464.7285">createAnnouncement()</text><ellipse cx="212.5" cy="479.0527" fill="#84BE84" rx="3" ry="3" style="stroke:#038048;stroke-width:1.0;"/><text fill="#000000" font-family="sans-serif" font-size="14" lengthAdjust="spacing" textLength="154" x="221.5" y="483.3496">validateAnnouncement()</text><ellipse cx="212.5" cy="497.6738" fill="#84BE84" rx="3" ry="3" style="stroke:#038048;stroke-width:1.0;"/><text fill="#000000" font-family="sans-serif" font-size="14" lengthAdjust="spacing" textLength="129" x="221.5" y="501.9707">addAnnouncement()</text><ellipse cx="212.5" cy="516.2949" fill="#84BE84" rx="3" ry="3" style="stroke:#038048;stroke-width:1.0;"/><text fill="#000000" font-family="sans-serif" font-size="14" lengthAdjust="spacing" textLength="188" x="221.5" y="520.5918">getAllVisibleAnnouncements()</text><ellipse cx="212.5" cy="534.916" fill="#84BE84" rx="3" ry="3" style="stroke:#038048;stroke-width:1.0;"/><text fill="#000000" font-family="sans-serif" font-size="14" lengthAdjust="spacing" textLength="125" x="221.5" y="539.2129">getAvailableFields()</text><ellipse cx="212.5" cy="553.5371" fill="#84BE84" rx="3" ry="3" style="stroke:#038048;stroke-width:1.0;"/><text fill="#000000" font-family="sans-serif" font-size="14" lengthAdjust="spacing" textLength="132" x="221.5" y="557.834">getAnnouncements()</text></g><!--class AnnouncementDTO--><g id="elem_AnnouncementDTO"><rect codeLine="52" fill="#F1F1F1" height="122.4844" id="AnnouncementDTO" rx="2.5" ry="2.5" style="stroke:#181818;stroke-width:0.5;" width="157" x="510" y="662.5"/><ellipse cx="525" cy="678.5" fill="#ADD1B2" rx="11" ry="11" style="stroke:#181818;stroke-width:1.0;"/><path d="M527.7656,674.375 Q527.9219,674.1563 528.1094,674.0469 Q528.2969,673.9375 528.5156,673.9375 Q528.8906,673.9375 529.125,674.2031 Q529.3594,674.4531 529.3594,675.0625 L529.3594,676.5156 Q529.3594,677.125 529.125,677.3906 Q528.8906,677.6563 528.5156,677.6563 Q528.1719,677.6563 527.9688,677.4531 Q527.7656,677.2656 527.6563,676.75 Q527.6094,676.3906 527.4219,676.2031 Q527.0938,675.8281 526.4844,675.6094 Q525.875,675.3906 525.25,675.3906 Q524.4844,675.3906 523.8438,675.7188 Q523.2188,676.0469 522.7188,676.7969 Q522.2344,677.5469 522.2344,678.5781 L522.2344,679.6719 Q522.2344,680.9063 523.125,681.7344 Q524.0156,682.5469 525.6094,682.5469 Q526.5469,682.5469 527.2031,682.2969 Q527.5938,682.1406 528.0156,681.7031 Q528.2813,681.4375 528.4219,681.3594 Q528.5781,681.2813 528.7813,681.2813 Q529.1094,681.2813 529.3594,681.5469 Q529.625,681.7969 529.625,682.1406 Q529.625,682.4844 529.2813,682.8906 Q528.7813,683.4688 527.9844,683.7969 Q526.9063,684.25 525.6094,684.25 Q524.0938,684.25 522.8906,683.625 Q521.9063,683.125 521.2188,682.0625 Q520.5313,680.9844 520.5313,679.7031 L520.5313,678.5469 Q520.5313,677.2188 521.1406,676.0781 Q521.7656,674.9219 522.8594,674.3125 Q523.9531,673.6875 525.1875,673.6875 Q525.9219,673.6875 526.5625,673.8594 Q527.2188,674.0156 527.7656,674.375 Z " fill="#000000"/><text fill="#000000" font-family="sans-serif" font-size="14" lengthAdjust="spacing" textLength="125" x="539" y="684.2969">AnnouncementDTO</text><line style="stroke:#181818;stroke-width:0.5;" x1="511" x2="666" y1="694.5" y2="694.5"/><rect fill="none" height="6" style="stroke:#C82930;stroke-width:1.0;" width="6" x="518" y="706.3105"/><text fill="#000000" font-family="sans-serif" font-size="14" lengthAdjust="spacing" textLength="31" x="530" y="713.6074">price</text><rect fill="none" height="6" style="stroke:#C82930;stroke-width:1.0;" width="6" x="518" y="724.9316"/><text fill="#000000" font-family="sans-serif" font-size="14" lengthAdjust="spacing" textLength="99" x="530" y="732.2285">typeOfBusiness</text><rect fill="none" height="6" style="stroke:#C82930;stroke-width:1.0;" width="6" x="518" y="743.5527"/><text fill="#000000" font-family="sans-serif" font-size="14" lengthAdjust="spacing" textLength="53" x="530" y="750.8496">property</text><rect fill="none" height="6" style="stroke:#C82930;stroke-width:1.0;" width="6" x="518" y="762.1738"/><text fill="#000000" font-family="sans-serif" font-size="14" lengthAdjust="spacing" textLength="36" x="530" y="769.4707">agent</text><line style="stroke:#181818;stroke-width:0.5;" x1="511" x2="666" y1="776.9844" y2="776.9844"/></g><!--class AnnouncementMapper--><g id="elem_AnnouncementMapper"><rect codeLine="60" fill="#F1F1F1" height="159.7266" id="AnnouncementMapper" rx="2.5" ry="2.5" style="stroke:#181818;stroke-width:0.5;" width="276" x="450.5" y="396"/><ellipse cx="512.75" cy="412" fill="#ADD1B2" rx="11" ry="11" style="stroke:#181818;stroke-width:1.0;"/><path d="M515.5156,407.875 Q515.6719,407.6563 515.8594,407.5469 Q516.0469,407.4375 516.2656,407.4375 Q516.6406,407.4375 516.875,407.7031 Q517.1094,407.9531 517.1094,408.5625 L517.1094,410.0156 Q517.1094,410.625 516.875,410.8906 Q516.6406,411.1563 516.2656,411.1563 Q515.9219,411.1563 515.7188,410.9531 Q515.5156,410.7656 515.4063,410.25 Q515.3594,409.8906 515.1719,409.7031 Q514.8438,409.3281 514.2344,409.1094 Q513.625,408.8906 513,408.8906 Q512.2344,408.8906 511.5938,409.2188 Q510.9688,409.5469 510.4688,410.2969 Q509.9844,411.0469 509.9844,412.0781 L509.9844,413.1719 Q509.9844,414.4063 510.875,415.2344 Q511.7656,416.0469 513.3594,416.0469 Q514.2969,416.0469 514.9531,415.7969 Q515.3438,415.6406 515.7656,415.2031 Q516.0313,414.9375 516.1719,414.8594 Q516.3281,414.7813 516.5313,414.7813 Q516.8594,414.7813 517.1094,415.0469 Q517.375,415.2969 517.375,415.6406 Q517.375,415.9844 517.0313,416.3906 Q516.5313,416.9688 515.7344,417.2969 Q514.6563,417.75 513.3594,417.75 Q511.8438,417.75 510.6406,417.125 Q509.6563,416.625 508.9688,415.5625 Q508.2813,414.4844 508.2813,413.2031 L508.2813,412.0469 Q508.2813,410.7188 508.8906,409.5781 Q509.5156,408.4219 510.6094,407.8125 Q511.7031,407.1875 512.9375,407.1875 Q513.6719,407.1875 514.3125,407.3594 Q514.9688,407.5156 515.5156,407.875 Z " fill="#000000"/><text fill="#000000" font-family="sans-serif" font-size="14" lengthAdjust="spacing" textLength="143" x="533.25" y="417.7969">AnnouncementMapper</text><line style="stroke:#181818;stroke-width:0.5;" x1="451.5" x2="725.5" y1="428" y2="428"/><rect fill="none" height="6" style="stroke:#C82930;stroke-width:1.0;" width="6" x="458.5" y="439.8105"/><text fill="#000000" font-family="sans-serif" font-size="14" lengthAdjust="spacing" textLength="146" x="470.5" y="447.1074">announcementDTOList</text><line style="stroke:#181818;stroke-width:0.5;" x1="451.5" x2="725.5" y1="454.6211" y2="454.6211"/><ellipse cx="461.5" cy="469.4316" fill="#84BE84" rx="3" ry="3" style="stroke:#038048;stroke-width:1.0;"/><text fill="#000000" font-family="sans-serif" font-size="14" lengthAdjust="spacing" textLength="57" x="470.5" y="473.7285">convert()</text><ellipse cx="461.5" cy="488.0527" fill="#84BE84" rx="3" ry="3" style="stroke:#038048;stroke-width:1.0;"/><text fill="#000000" font-family="sans-serif" font-size="14" lengthAdjust="spacing" textLength="44" x="470.5" y="492.3496">toDto()</text><ellipse cx="461.5" cy="506.6738" fill="#84BE84" rx="3" ry="3" style="stroke:#038048;stroke-width:1.0;"/><text fill="#000000" font-family="sans-serif" font-size="14" lengthAdjust="spacing" textLength="147" x="470.5" y="510.9707">getAllAnnouncements()</text><ellipse cx="461.5" cy="525.2949" fill="#84BE84" rx="3" ry="3" style="stroke:#038048;stroke-width:1.0;"/><text fill="#000000" font-family="sans-serif" font-size="14" lengthAdjust="spacing" textLength="250" x="470.5" y="529.5918">getAllAnnouncementsRecentToOldest()</text><ellipse cx="461.5" cy="543.916" fill="#84BE84" rx="3" ry="3" style="stroke:#038048;stroke-width:1.0;"/><text fill="#000000" font-family="sans-serif" font-size="14" lengthAdjust="spacing" textLength="139" x="470.5" y="548.2129">toDtoAnnouncement()</text></g><!--class Announcement--><g id="elem_Announcement"><rect codeLine="70" fill="#F1F1F1" height="196.9688" id="Announcement" rx="2.5" ry="2.5" style="stroke:#181818;stroke-width:0.5;" width="127" x="245" y="625"/><ellipse cx="260" cy="641" fill="#ADD1B2" rx="11" ry="11" style="stroke:#181818;stroke-width:1.0;"/><path d="M262.7656,636.875 Q262.9219,636.6563 263.1094,636.5469 Q263.2969,636.4375 263.5156,636.4375 Q263.8906,636.4375 264.125,636.7031 Q264.3594,636.9531 264.3594,637.5625 L264.3594,639.0156 Q264.3594,639.625 264.125,639.8906 Q263.8906,640.1563 263.5156,640.1563 Q263.1719,640.1563 262.9688,639.9531 Q262.7656,639.7656 262.6563,639.25 Q262.6094,638.8906 262.4219,638.7031 Q262.0938,638.3281 261.4844,638.1094 Q260.875,637.8906 260.25,637.8906 Q259.4844,637.8906 258.8438,638.2188 Q258.2188,638.5469 257.7188,639.2969 Q257.2344,640.0469 257.2344,641.0781 L257.2344,642.1719 Q257.2344,643.4063 258.125,644.2344 Q259.0156,645.0469 260.6094,645.0469 Q261.5469,645.0469 262.2031,644.7969 Q262.5938,644.6406 263.0156,644.2031 Q263.2813,643.9375 263.4219,643.8594 Q263.5781,643.7813 263.7813,643.7813 Q264.1094,643.7813 264.3594,644.0469 Q264.625,644.2969 264.625,644.6406 Q264.625,644.9844 264.2813,645.3906 Q263.7813,645.9688 262.9844,646.2969 Q261.9063,646.75 260.6094,646.75 Q259.0938,646.75 257.8906,646.125 Q256.9063,645.625 256.2188,644.5625 Q255.5313,643.4844 255.5313,642.2031 L255.5313,641.0469 Q255.5313,639.7188 256.1406,638.5781 Q256.7656,637.4219 257.8594,636.8125 Q258.9531,636.1875 260.1875,636.1875 Q260.9219,636.1875 261.5625,636.3594 Q262.2188,636.5156 262.7656,636.875 Z " fill="#000000"/><text fill="#000000" font-family="sans-serif" font-size="14" lengthAdjust="spacing" textLength="95" x="274" y="646.7969">Announcement</text><line style="stroke:#181818;stroke-width:0.5;" x1="246" x2="371" y1="657" y2="657"/><rect fill="none" height="6" style="stroke:#C82930;stroke-width:1.0;" width="6" x="253" y="668.8105"/><text fill="#000000" font-family="sans-serif" font-size="14" lengthAdjust="spacing" textLength="28" x="265" y="676.1074">date</text><rect fill="none" height="6" style="stroke:#C82930;stroke-width:1.0;" width="6" x="253" y="687.4316"/><text fill="#000000" font-family="sans-serif" font-size="14" lengthAdjust="spacing" textLength="38" x="265" y="694.7285">status</text><rect fill="none" height="6" style="stroke:#C82930;stroke-width:1.0;" width="6" x="253" y="706.0527"/><text fill="#000000" font-family="sans-serif" font-size="14" lengthAdjust="spacing" textLength="31" x="265" y="713.3496">price</text><rect fill="none" height="6" style="stroke:#C82930;stroke-width:1.0;" width="6" x="253" y="724.6738"/><text fill="#000000" font-family="sans-serif" font-size="14" lengthAdjust="spacing" textLength="73" x="265" y="731.9707">commission</text><rect fill="none" height="6" style="stroke:#C82930;stroke-width:1.0;" width="6" x="253" y="743.2949"/><text fill="#000000" font-family="sans-serif" font-size="14" lengthAdjust="spacing" textLength="99" x="265" y="750.5918">typeOfBusiness</text><rect fill="none" height="6" style="stroke:#C82930;stroke-width:1.0;" width="6" x="253" y="761.916"/><text fill="#000000" font-family="sans-serif" font-size="14" lengthAdjust="spacing" textLength="53" x="265" y="769.2129">property</text><rect fill="none" height="6" style="stroke:#C82930;stroke-width:1.0;" width="6" x="253" y="780.5371"/><text fill="#000000" font-family="sans-serif" font-size="14" lengthAdjust="spacing" textLength="36" x="265" y="787.834">agent</text><rect fill="none" height="6" style="stroke:#C82930;stroke-width:1.0;" width="6" x="253" y="799.1582"/><text fill="#000000" font-family="sans-serif" font-size="14" lengthAdjust="spacing" textLength="44" x="265" y="806.4551">reason</text><line style="stroke:#181818;stroke-width:0.5;" x1="246" x2="371" y1="813.9688" y2="813.9688"/></g><!--class Application--><g id="elem_Application"><rect fill="#F1F1F1" height="48" id="Application" rx="2.5" ry="2.5" style="stroke:#181818;stroke-width:0.5;" width="101" x="494" y="25.5"/><ellipse cx="509" cy="41.5" fill="#ADD1B2" rx="11" ry="11" style="stroke:#181818;stroke-width:1.0;"/><path d="M511.7656,37.375 Q511.9219,37.1563 512.1094,37.0469 Q512.2969,36.9375 512.5156,36.9375 Q512.8906,36.9375 513.125,37.2031 Q513.3594,37.4531 513.3594,38.0625 L513.3594,39.5156 Q513.3594,40.125 513.125,40.3906 Q512.8906,40.6563 512.5156,40.6563 Q512.1719,40.6563 511.9688,40.4531 Q511.7656,40.2656 511.6563,39.75 Q511.6094,39.3906 511.4219,39.2031 Q511.0938,38.8281 510.4844,38.6094 Q509.875,38.3906 509.25,38.3906 Q508.4844,38.3906 507.8438,38.7188 Q507.2188,39.0469 506.7188,39.7969 Q506.2344,40.5469 506.2344,41.5781 L506.2344,42.6719 Q506.2344,43.9063 507.125,44.7344 Q508.0156,45.5469 509.6094,45.5469 Q510.5469,45.5469 511.2031,45.2969 Q511.5938,45.1406 512.0156,44.7031 Q512.2813,44.4375 512.4219,44.3594 Q512.5781,44.2813 512.7813,44.2813 Q513.1094,44.2813 513.3594,44.5469 Q513.625,44.7969 513.625,45.1406 Q513.625,45.4844 513.2813,45.8906 Q512.7813,46.4688 511.9844,46.7969 Q510.9063,47.25 509.6094,47.25 Q508.0938,47.25 506.8906,46.625 Q505.9063,46.125 505.2188,45.0625 Q504.5313,43.9844 504.5313,42.7031 L504.5313,41.5469 Q504.5313,40.2188 505.1406,39.0781 Q505.7656,37.9219 506.8594,37.3125 Q507.9531,36.6875 509.1875,36.6875 Q509.9219,36.6875 510.5625,36.8594 Q511.2188,37.0156 511.7656,37.375 Z " fill="#000000"/><text fill="#000000" font-family="sans-serif" font-size="14" lengthAdjust="spacing" textLength="69" x="523" y="47.2969">Application</text><line style="stroke:#181818;stroke-width:0.5;" x1="495" x2="594" y1="57.5" y2="57.5"/><line style="stroke:#181818;stroke-width:0.5;" x1="495" x2="594" y1="65.5" y2="65.5"/></g><!--link ReadResponseOfAppointmentRequestGUI to ReadResponseOfAppointmentRequestController--><g id="link_ReadResponseOfAppointmentRequestGUI_ReadResponseOfAppointmentRequestController"><path codeLine="83" d="M308.5,92.3 C308.5,110.2 308.5,130.64 308.5,146.71 " fill="none" id="ReadResponseOfAppointmentRequestGUI-to-ReadResponseOfAppointmentRequestController" style="stroke:#181818;stroke-width:1.0;stroke-dasharray:7.0,7.0;"/><polygon fill="#181818" points="308.5,151.99,312.5,142.99,308.5,146.99,304.5,142.99,308.5,151.99" style="stroke:#181818;stroke-width:1.0;"/></g><!--link ReadResponseOfAppointmentRequestController to Repositories--><g id="link_ReadResponseOfAppointmentRequestController_Repositories"><path codeLine="84" d="M308.5,200.1 C308.5,215.74 308.5,236.77 308.5,254.82 " fill="none" id="ReadResponseOfAppointmentRequestController-to-Repositories" style="stroke:#181818;stroke-width:1.0;stroke-dasharray:7.0,7.0;"/><polygon fill="#181818" points="308.5,259.82,312.5,250.82,308.5,254.82,304.5,250.82,308.5,259.82" style="stroke:#181818;stroke-width:1.0;"/></g><!--link Repositories to AnnouncementRepository--><g id="link_Repositories_AnnouncementRepository"><path codeLine="85" d="M308.5,327.19 C308.5,342.6 308.5,361.86 308.5,381.34 " fill="none" id="Repositories-to-AnnouncementRepository" style="stroke:#181818;stroke-width:1.0;stroke-dasharray:7.0,7.0;"/><polygon fill="#181818" points="308.5,386.83,312.5,377.83,308.5,381.83,304.5,377.83,308.5,386.83" style="stroke:#181818;stroke-width:1.0;"/></g><!--link AnnouncementRepository to Announcement--><g id="link_AnnouncementRepository_Announcement"><path codeLine="86" d="M308.5,565.28 C308.5,582.88 308.5,601.49 308.5,619.53 " fill="none" id="AnnouncementRepository-to-Announcement" style="stroke:#181818;stroke-width:1.0;"/><polygon fill="#181818" points="308.5,624.6,312.5,615.6,308.5,619.6,304.5,615.6,308.5,624.6" style="stroke:#181818;stroke-width:1.0;"/></g><!--link Repositories to AnnouncementMapper--><g id="link_Repositories_AnnouncementMapper"><path codeLine="87" d="M359.21,327.19 C387.9,345.69 425.19,369.72 461.33,393.02 " fill="none" id="Repositories-to-AnnouncementMapper" style="stroke:#181818;stroke-width:1.0;stroke-dasharray:7.0,7.0;"/><polygon fill="#181818" points="465.73,395.86,460.3422,387.6155,461.5306,393.1461,456,394.3345,465.73,395.86" style="stroke:#181818;stroke-width:1.0;"/></g><!--link Repositories to ScheduleRepository--><g id="link_Repositories_ScheduleRepository"><path codeLine="88" d="M262.25,327.04 C238.31,344.31 208.86,366.2 183.5,387 C177.71,391.74 171.81,396.72 165.92,401.8 " fill="none" id="Repositories-to-ScheduleRepository" style="stroke:#181818;stroke-width:1.0;stroke-dasharray:7.0,7.0;"/><polygon fill="#181818" points="161.85,405.33,171.275,402.4719,165.6332,402.0608,166.0443,396.4189,161.85,405.33" style="stroke:#181818;stroke-width:1.0;"/></g><!--link AnnouncementMapper to AnnouncementDTO--><g id="link_AnnouncementMapper_AnnouncementDTO"><path codeLine="89" d="M588.5,556.03 C588.5,588.63 588.5,625.95 588.5,656.99 " fill="none" id="AnnouncementMapper-to-AnnouncementDTO" style="stroke:#181818;stroke-width:1.0;"/><polygon fill="#181818" points="588.5,662.31,592.5,653.31,588.5,657.31,584.5,653.31,588.5,662.31" style="stroke:#181818;stroke-width:1.0;"/></g><!--link ScheduleRepository to Schedule--><g id="link_ScheduleRepository_Schedule"><path codeLine="90" d="M86.5,546.69 C86.5,569.32 86.5,594.94 86.5,619.47 " fill="none" id="ScheduleRepository-to-Schedule" style="stroke:#181818;stroke-width:1.0;"/><polygon fill="#181818" points="86.5,624.68,90.5,615.68,86.5,619.68,82.5,615.68,86.5,624.68" style="stroke:#181818;stroke-width:1.0;"/></g><!--reverse link ReadResponseOfAppointmentRequestGUI to Application--><g id="link_ReadResponseOfAppointmentRequestGUI_Application"><path codeLine="91" d="M478.82,49.5 C483.86,49.5 488.89,49.5 493.93,49.5 " fill="none" id="ReadResponseOfAppointmentRequestGUI-backto-Application" style="stroke:#181818;stroke-width:1.0;"/><polygon fill="none" points="478.77,56.5,458.77,49.5,478.77,42.5,478.77,56.5" style="stroke:#181818;stroke-width:1.0;"/></g><!--SRC=[bLJRRkCW47tdA_pOQkL-GgNiHhr8kusKfdqdC4sGCB2USQHej__UiG8njccL-iKmbyDmE3FAIiHg3LAl0ODt2AktHGZUE6h0qHh-Te1q__9O_HEYukz7XIHRkhgEkqOQnvjt8TH5KB-yezPR2ssFo6afyLdjGNSMqa5rvMG3SHdsti5JrsoXZHRfdE-SWXuwchGynjKMTkR1ToaMdCvspbE2vQjGXtdnmQCXtnh0xCAnihFtE6Gyptn3_Sdtso0bA7c0P3vJU93MQ4bpXzHwPji1vRWvzOkCadazfyFFEAe5FZ9FcTLJT79DHJlNjR3srQ3Psb4cZa8EqbZ94NS6h1wx9Zd5Qoqtgu7Vq1gLNfAEWUNsiqFZ0F4Su0Eqb5GXTxrMYhX_P0WdHSxLnMTcBwYyEq2cV_9ByXCMFh_-nBS6nR-DNraDEC6Si5miUoYuwXyihQEiuowdYSjl6eDel4kM8dDJwY9tSSFIGGRec_UIoN5pS_kDiI2-CK5Eo4FFYb43zzvoJuXFMgMknnbVuvr4Cu-PpmHHqDhqB9QPA4oJFYoP1PDXZPB4prVL5jwe_dzxoV0MuWC0]--></g></svg>