<?xml version="1.0" encoding="us-ascii" standalone="no"?><svg xmlns="http://www.w3.org/2000/svg" xmlns:xlink="http://www.w3.org/1999/xlink" contentStyleType="text/css" height="555.1px" preserveAspectRatio="none" style="width:895px;height:555px;background:#FFFFFF;" version="1.1" viewBox="0 0 895 555" width="896px" zoomAndPan="magnify"><defs/><g><rect fill="#FFFFFF" height="425.5016" style="stroke:#181818;stroke-width:0.6999999999999998;" width="7" x="14.7" y="65.5348"/><rect fill="#FFFFFF" height="409.1979" style="stroke:#181818;stroke-width:0.6999999999999998;" width="7" x="265.3" y="81.8385"/><rect fill="#FFFFFF" height="21.9037" style="stroke:#181818;stroke-width:0.6999999999999998;" width="7" x="483.35" y="134.277"/><rect fill="#FFFFFF" height="21.9037" style="stroke:#181818;stroke-width:0.6999999999999998;" width="7" x="483.35" y="221.8918"/><rect fill="#FFFFFF" height="21.9037" style="stroke:#181818;stroke-width:0.6999999999999998;" width="7" x="483.35" y="397.1215"/><rect fill="#FFFFFF" height="21.9037" style="stroke:#181818;stroke-width:0.6999999999999998;" width="7" x="635.25" y="156.1807"/><rect fill="#FFFFFF" height="21.9037" style="stroke:#181818;stroke-width:0.6999999999999998;" width="7" x="635.25" y="199.9881"/><rect fill="#FFFFFF" height="21.9037" style="stroke:#181818;stroke-width:0.6999999999999998;" width="7" x="635.25" y="419.0252"/><rect fill="#FFFFFF" height="21.9037" style="stroke:#181818;stroke-width:0.6999999999999998;" width="7" x="754.25" y="178.0844"/><rect fill="#FFFFFF" height="21.9037" style="stroke:#181818;stroke-width:0.6999999999999998;" width="7" x="754.25" y="440.9289"/><rect fill="#FFFFFF" height="21.9037" style="stroke:#181818;stroke-width:0.6999999999999998;" width="7" x="862.75" y="462.8326"/><line style="stroke:#181818;stroke-width:0.3499999999999999;stroke-dasharray:5.0,5.0;" x1="18.2" x2="18.2" y1="58.5348" y2="497.3363"/><line style="stroke:#181818;stroke-width:0.3499999999999999;stroke-dasharray:5.0,5.0;" x1="268.8" x2="268.8" y1="58.5348" y2="497.3363"/><line style="stroke:#181818;stroke-width:0.3499999999999999;stroke-dasharray:5.0,5.0;" x1="486.5" x2="486.5" y1="109.7059" y2="497.3363"/><line style="stroke:#181818;stroke-width:0.3499999999999999;stroke-dasharray:5.0,5.0;" x1="638.4" x2="638.4" y1="58.5348" y2="497.3363"/><line style="stroke:#181818;stroke-width:0.3499999999999999;stroke-dasharray:5.0,5.0;" x1="757.4" x2="757.4" y1="58.5348" y2="497.3363"/><line style="stroke:#181818;stroke-width:0.3499999999999999;stroke-dasharray:5.0,5.0;" x1="865.9" x2="865.9" y1="58.5348" y2="497.3363"/><text fill="#000000" font-family="sans-serif" font-size="9.8" lengthAdjust="spacing" textLength="25.2" x="3.5" y="56.0752">Client</text><ellipse cx="18.2" cy="9.45" fill="#E2E2F0" rx="5.6" ry="5.6" style="stroke:#181818;stroke-width:0.3499999999999999;"/><path d="M18.2,15.05 L18.2,33.95 M9.1,20.65 L27.3,20.65 M18.2,33.95 L9.1,44.45 M18.2,33.95 L27.3,44.45 " fill="none" style="stroke:#181818;stroke-width:0.3499999999999999;"/><text fill="#000000" font-family="sans-serif" font-size="9.8" lengthAdjust="spacing" textLength="25.2" x="3.5" y="507.2115">Client</text><ellipse cx="18.2" cy="515.6211" fill="#E2E2F0" rx="5.6" ry="5.6" style="stroke:#181818;stroke-width:0.3499999999999999;"/><path d="M18.2,521.2211 L18.2,540.1211 M9.1,526.8211 L27.3,526.8211 M18.2,540.1211 L9.1,550.6211 M18.2,540.1211 L27.3,550.6211 " fill="none" style="stroke:#181818;stroke-width:0.3499999999999999;"/><rect fill="#E2E2F0" height="22.8348" rx="1.75" ry="1.75" style="stroke:#181818;stroke-width:0.3499999999999999;" width="197.4" x="170.1" y="35"/><text fill="#000000" font-family="sans-serif" font-size="9.8" lengthAdjust="spacing" textLength="187.6" x="175" y="50.4752">ReadResponseOfAppointmentRequestGUI</text><rect fill="#E2E2F0" height="22.8348" rx="1.75" ry="1.75" style="stroke:#181818;stroke-width:0.3499999999999999;" width="197.4" x="170.1" y="496.6363"/><text fill="#000000" font-family="sans-serif" font-size="9.8" lengthAdjust="spacing" textLength="187.6" x="175" y="512.1115">ReadResponseOfAppointmentRequestGUI</text><rect fill="#E2E2F0" height="22.8348" rx="1.75" ry="1.75" style="stroke:#181818;stroke-width:0.3499999999999999;" width="224.7" x="374.5" y="496.6363"/><text fill="#000000" font-family="sans-serif" font-size="9.8" lengthAdjust="spacing" textLength="214.9" x="379.4" y="512.1115">ReadResponseOfAppointmentRequestController</text><rect fill="#E2E2F0" height="22.8348" rx="1.75" ry="1.75" style="stroke:#181818;stroke-width:0.3499999999999999;" width="65.1" x="606.2" y="35"/><text fill="#000000" font-family="sans-serif" font-size="9.8" lengthAdjust="spacing" textLength="55.3" x="611.1" y="50.4752">Repositories</text><rect fill="#E2E2F0" height="22.8348" rx="1.75" ry="1.75" style="stroke:#181818;stroke-width:0.3499999999999999;" width="65.1" x="606.2" y="496.6363"/><text fill="#000000" font-family="sans-serif" font-size="9.8" lengthAdjust="spacing" textLength="55.3" x="611.1" y="512.1115">Repositories</text><rect fill="#E2E2F0" height="22.8348" rx="1.75" ry="1.75" style="stroke:#181818;stroke-width:0.3499999999999999;" width="98.7" x="708.4" y="35"/><text fill="#000000" font-family="sans-serif" font-size="9.8" lengthAdjust="spacing" textLength="88.9" x="713.3" y="50.4752">ScheduleRepository</text><rect fill="#E2E2F0" height="22.8348" rx="1.75" ry="1.75" style="stroke:#181818;stroke-width:0.3499999999999999;" width="98.7" x="708.4" y="496.6363"/><text fill="#000000" font-family="sans-serif" font-size="9.8" lengthAdjust="spacing" textLength="88.9" x="713.3" y="512.1115">ScheduleRepository</text><rect fill="#E2E2F0" height="22.8348" rx="1.75" ry="1.75" style="stroke:#181818;stroke-width:0.3499999999999999;" width="51.1" x="840.7" y="35"/><text fill="#000000" font-family="sans-serif" font-size="9.8" lengthAdjust="spacing" textLength="41.3" x="845.6" y="50.4752">Schedule</text><rect fill="#E2E2F0" height="22.8348" rx="1.75" ry="1.75" style="stroke:#181818;stroke-width:0.3499999999999999;" width="51.1" x="840.7" y="496.6363"/><text fill="#000000" font-family="sans-serif" font-size="9.8" lengthAdjust="spacing" textLength="41.3" x="845.6" y="512.1115">Schedule</text><rect fill="#FFFFFF" height="425.5016" style="stroke:#181818;stroke-width:0.6999999999999998;" width="7" x="14.7" y="65.5348"/><rect fill="#FFFFFF" height="409.1979" style="stroke:#181818;stroke-width:0.6999999999999998;" width="7" x="265.3" y="81.8385"/><rect fill="#FFFFFF" height="21.9037" style="stroke:#181818;stroke-width:0.6999999999999998;" width="7" x="483.35" y="134.277"/><rect fill="#FFFFFF" height="21.9037" style="stroke:#181818;stroke-width:0.6999999999999998;" width="7" x="483.35" y="221.8918"/><rect fill="#FFFFFF" height="21.9037" style="stroke:#181818;stroke-width:0.6999999999999998;" width="7" x="483.35" y="397.1215"/><rect fill="#FFFFFF" height="21.9037" style="stroke:#181818;stroke-width:0.6999999999999998;" width="7" x="635.25" y="156.1807"/><rect fill="#FFFFFF" height="21.9037" style="stroke:#181818;stroke-width:0.6999999999999998;" width="7" x="635.25" y="199.9881"/><rect fill="#FFFFFF" height="21.9037" style="stroke:#181818;stroke-width:0.6999999999999998;" width="7" x="635.25" y="419.0252"/><rect fill="#FFFFFF" height="21.9037" style="stroke:#181818;stroke-width:0.6999999999999998;" width="7" x="754.25" y="178.0844"/><rect fill="#FFFFFF" height="21.9037" style="stroke:#181818;stroke-width:0.6999999999999998;" width="7" x="754.25" y="440.9289"/><rect fill="#FFFFFF" height="21.9037" style="stroke:#181818;stroke-width:0.6999999999999998;" width="7" x="862.75" y="462.8326"/><polygon fill="#181818" points="256.9,79.0385,263.9,81.8385,256.9,84.6385,259.7,81.8385" style="stroke:#181818;stroke-width:0.6999999999999998;"/><line style="stroke:#181818;stroke-width:0.6999999999999998;" x1="21.7" x2="261.1" y1="81.8385" y2="81.8385"/><text fill="#000000" font-family="sans-serif" font-size="9.1" font-weight="bold" lengthAdjust="spacing" textLength="4.9" x="26.6" y="78.1546">1</text><text fill="#000000" font-family="sans-serif" font-size="9.1" lengthAdjust="spacing" textLength="222.6" x="34.3" y="78.1546">starts to read the response for the appointment request</text><polygon fill="#181818" points="366.1,100.9422,373.1,103.7422,366.1,106.5422,368.9,103.7422" style="stroke:#181818;stroke-width:0.6999999999999998;"/><line style="stroke:#181818;stroke-width:0.6999999999999998;" x1="272.3" x2="370.3" y1="103.7422" y2="103.7422"/><text fill="#000000" font-family="sans-serif" font-size="9.1" font-weight="bold" lengthAdjust="spacing" textLength="4.9" x="277.2" y="100.0583">2</text><text fill="#000000" font-family="sans-serif" font-size="9.1" lengthAdjust="spacing" textLength="25.2" x="284.9" y="100.0583">create</text><rect fill="#E2E2F0" height="22.8348" rx="1.75" ry="1.75" style="stroke:#181818;stroke-width:0.3499999999999999;" width="224.7" x="374.5" y="87.4385"/><text fill="#000000" font-family="sans-serif" font-size="9.8" lengthAdjust="spacing" textLength="214.9" x="379.4" y="102.9137">ReadResponseOfAppointmentRequestController</text><polygon fill="#181818" points="474.95,131.477,481.95,134.277,474.95,137.077,477.75,134.277" style="stroke:#181818;stroke-width:0.6999999999999998;"/><line style="stroke:#181818;stroke-width:0.6999999999999998;" x1="272.3" x2="479.15" y1="134.277" y2="134.277"/><text fill="#000000" font-family="sans-serif" font-size="9.1" font-weight="bold" lengthAdjust="spacing" textLength="4.9" x="277.2" y="130.5931">3</text><text fill="#000000" font-family="sans-serif" font-size="9.1" lengthAdjust="spacing" textLength="70.7" x="284.9" y="130.5931">getScheduleList()</text><polygon fill="#181818" points="626.85,153.3807,633.85,156.1807,626.85,158.9807,629.65,156.1807" style="stroke:#181818;stroke-width:0.6999999999999998;"/><line style="stroke:#181818;stroke-width:0.6999999999999998;" x1="486.85" x2="631.05" y1="156.1807" y2="156.1807"/><text fill="#000000" font-family="sans-serif" font-size="9.1" font-weight="bold" lengthAdjust="spacing" textLength="4.9" x="491.75" y="152.4968">4</text><text fill="#000000" font-family="sans-serif" font-size="9.1" lengthAdjust="spacing" textLength="70.7" x="499.45" y="152.4968">getScheduleList()</text><polygon fill="#181818" points="745.85,175.2844,752.85,178.0844,745.85,180.8844,748.65,178.0844" style="stroke:#181818;stroke-width:0.6999999999999998;"/><line style="stroke:#181818;stroke-width:0.6999999999999998;" x1="638.75" x2="750.05" y1="178.0844" y2="178.0844"/><text fill="#000000" font-family="sans-serif" font-size="9.1" font-weight="bold" lengthAdjust="spacing" textLength="4.9" x="643.65" y="174.4005">5</text><text fill="#000000" font-family="sans-serif" font-size="9.1" lengthAdjust="spacing" textLength="70.7" x="651.35" y="174.4005">getScheduleList()</text><polygon fill="#181818" points="649.95,197.1881,642.95,199.9881,649.95,202.7881,647.15,199.9881" style="stroke:#181818;stroke-width:0.6999999999999998;"/><line style="stroke:#181818;stroke-width:0.6999999999999998;" x1="645.75" x2="757.05" y1="199.9881" y2="199.9881"/><text fill="#000000" font-family="sans-serif" font-size="9.1" font-weight="bold" lengthAdjust="spacing" textLength="4.9" x="654.15" y="196.3042">6</text><text fill="#000000" font-family="sans-serif" font-size="9.1" lengthAdjust="spacing" textLength="91" x="661.85" y="196.3042">return getScheduleList</text><polygon fill="#181818" points="498.05,219.0918,491.05,221.8918,498.05,224.6918,495.25,221.8918" style="stroke:#181818;stroke-width:0.6999999999999998;"/><line style="stroke:#181818;stroke-width:0.6999999999999998;" x1="493.85" x2="638.05" y1="221.8918" y2="221.8918"/><text fill="#000000" font-family="sans-serif" font-size="9.1" font-weight="bold" lengthAdjust="spacing" textLength="4.9" x="502.25" y="218.2079">7</text><text fill="#000000" font-family="sans-serif" font-size="9.1" lengthAdjust="spacing" textLength="77" x="509.95" y="218.2079">return scheduleList</text><polygon fill="#181818" points="280,240.9955,273,243.7955,280,246.5955,277.2,243.7955" style="stroke:#181818;stroke-width:0.6999999999999998;"/><line style="stroke:#181818;stroke-width:0.6999999999999998;" x1="275.8" x2="486.15" y1="243.7955" y2="243.7955"/><text fill="#000000" font-family="sans-serif" font-size="9.1" font-weight="bold" lengthAdjust="spacing" textLength="4.9" x="284.2" y="240.1116">8</text><text fill="#000000" font-family="sans-serif" font-size="9.1" lengthAdjust="spacing" textLength="77" x="291.9" y="240.1116">return scheduleList</text><polygon fill="#181818" points="29.4,262.8992,22.4,265.6992,29.4,268.4992,26.6,265.6992" style="stroke:#181818;stroke-width:0.6999999999999998;"/><line style="stroke:#181818;stroke-width:0.6999999999999998;" x1="25.2" x2="264.6" y1="265.6992" y2="265.6992"/><text fill="#000000" font-family="sans-serif" font-size="9.1" font-weight="bold" lengthAdjust="spacing" textLength="4.9" x="33.6" y="262.0153">9</text><text fill="#000000" font-family="sans-serif" font-size="9.1" lengthAdjust="spacing" textLength="203.7" x="41.3" y="262.0153">shows appointment list and requests to select one</text><polygon fill="#181818" points="256.9,284.8029,263.9,287.6029,256.9,290.4029,259.7,287.6029" style="stroke:#181818;stroke-width:0.6999999999999998;"/><line style="stroke:#181818;stroke-width:0.6999999999999998;" x1="21.7" x2="261.1" y1="287.6029" y2="287.6029"/><text fill="#000000" font-family="sans-serif" font-size="9.1" font-weight="bold" lengthAdjust="spacing" textLength="9.8" x="26.6" y="283.919">10</text><text fill="#000000" font-family="sans-serif" font-size="9.1" lengthAdjust="spacing" textLength="77" x="39.2" y="283.919">select appointment</text><polygon fill="#181818" points="29.4,306.7066,22.4,309.5066,29.4,312.3066,26.6,309.5066" style="stroke:#181818;stroke-width:0.6999999999999998;"/><line style="stroke:#181818;stroke-width:0.6999999999999998;" x1="25.2" x2="264.6" y1="309.5066" y2="309.5066"/><text fill="#000000" font-family="sans-serif" font-size="9.1" font-weight="bold" lengthAdjust="spacing" textLength="9.8" x="33.6" y="305.8228">11</text><text fill="#000000" font-family="sans-serif" font-size="9.1" lengthAdjust="spacing" textLength="135.8" x="46.2" y="305.8228">asks the client to accept or reject</text><polygon fill="#181818" points="256.9,328.6104,263.9,331.4104,256.9,334.2104,259.7,331.4104" style="stroke:#181818;stroke-width:0.6999999999999998;"/><line style="stroke:#181818;stroke-width:0.6999999999999998;" x1="21.7" x2="261.1" y1="331.4104" y2="331.4104"/><text fill="#000000" font-family="sans-serif" font-size="9.1" font-weight="bold" lengthAdjust="spacing" textLength="9.8" x="26.6" y="327.7265">12</text><text fill="#000000" font-family="sans-serif" font-size="9.1" lengthAdjust="spacing" textLength="80.5" x="39.2" y="327.7265">accepts the request</text><polygon fill="#181818" points="29.4,350.5141,22.4,353.3141,29.4,356.1141,26.6,353.3141" style="stroke:#181818;stroke-width:0.6999999999999998;"/><line style="stroke:#181818;stroke-width:0.6999999999999998;" x1="25.2" x2="264.6" y1="353.3141" y2="353.3141"/><text fill="#000000" font-family="sans-serif" font-size="9.1" font-weight="bold" lengthAdjust="spacing" textLength="9.8" x="33.6" y="349.6302">13</text><text fill="#000000" font-family="sans-serif" font-size="9.1" lengthAdjust="spacing" textLength="71.4" x="46.2" y="349.6302">asks confirmation</text><polygon fill="#181818" points="256.9,372.4178,263.9,375.2178,256.9,378.0178,259.7,375.2178" style="stroke:#181818;stroke-width:0.6999999999999998;"/><line style="stroke:#181818;stroke-width:0.6999999999999998;" x1="21.7" x2="261.1" y1="375.2178" y2="375.2178"/><text fill="#000000" font-family="sans-serif" font-size="9.1" font-weight="bold" lengthAdjust="spacing" textLength="9.8" x="26.6" y="371.5339">14</text><text fill="#000000" font-family="sans-serif" font-size="9.1" lengthAdjust="spacing" textLength="34.3" x="39.2" y="371.5339">confirms</text><polygon fill="#181818" points="474.95,394.3215,481.95,397.1215,474.95,399.9215,477.75,397.1215" style="stroke:#181818;stroke-width:0.6999999999999998;"/><line style="stroke:#181818;stroke-width:0.6999999999999998;" x1="272.3" x2="479.15" y1="397.1215" y2="397.1215"/><text fill="#000000" font-family="sans-serif" font-size="9.1" font-weight="bold" lengthAdjust="spacing" textLength="9.8" x="277.2" y="393.4376">15</text><text fill="#000000" font-family="sans-serif" font-size="9.1" lengthAdjust="spacing" textLength="75.6" x="289.8" y="393.4376">setClientApproval()</text><polygon fill="#181818" points="626.85,416.2252,633.85,419.0252,626.85,421.8252,629.65,419.0252" style="stroke:#181818;stroke-width:0.6999999999999998;"/><line style="stroke:#181818;stroke-width:0.6999999999999998;" x1="486.85" x2="631.05" y1="419.0252" y2="419.0252"/><text fill="#000000" font-family="sans-serif" font-size="9.1" font-weight="bold" lengthAdjust="spacing" textLength="9.8" x="491.75" y="415.3413">16</text><text fill="#000000" font-family="sans-serif" font-size="9.1" lengthAdjust="spacing" textLength="75.6" x="504.35" y="415.3413">setClientApproval()</text><polygon fill="#181818" points="745.85,438.1289,752.85,440.9289,745.85,443.7289,748.65,440.9289" style="stroke:#181818;stroke-width:0.6999999999999998;"/><line style="stroke:#181818;stroke-width:0.6999999999999998;" x1="638.75" x2="750.05" y1="440.9289" y2="440.9289"/><text fill="#000000" font-family="sans-serif" font-size="9.1" font-weight="bold" lengthAdjust="spacing" textLength="9.8" x="643.65" y="437.245">17</text><text fill="#000000" font-family="sans-serif" font-size="9.1" lengthAdjust="spacing" textLength="75.6" x="656.25" y="437.245">setClientApproval()</text><polygon fill="#181818" points="854.35,460.0326,861.35,462.8326,854.35,465.6326,857.15,462.8326" style="stroke:#181818;stroke-width:0.6999999999999998;"/><line style="stroke:#181818;stroke-width:0.6999999999999998;" x1="757.75" x2="858.55" y1="462.8326" y2="462.8326"/><text fill="#000000" font-family="sans-serif" font-size="9.1" font-weight="bold" lengthAdjust="spacing" textLength="9.8" x="762.65" y="459.1487">18</text><text fill="#000000" font-family="sans-serif" font-size="9.1" lengthAdjust="spacing" textLength="75.6" x="775.25" y="459.1487">setClientApproval()</text><polygon fill="#181818" points="29.4,481.9363,22.4,484.7363,29.4,487.5363,26.6,484.7363" style="stroke:#181818;stroke-width:0.6999999999999998;"/><line style="stroke:#181818;stroke-width:0.6999999999999998;" x1="25.2" x2="264.6" y1="484.7363" y2="484.7363"/><text fill="#000000" font-family="sans-serif" font-size="9.1" font-weight="bold" lengthAdjust="spacing" textLength="9.8" x="33.6" y="481.0524">19</text><text fill="#000000" font-family="sans-serif" font-size="9.1" lengthAdjust="spacing" textLength="121.8" x="46.2" y="481.0524">informs the operation success</text><!--SRC=[bPF1JiCm38RlUOeSOH8li0CIsW4X8I4DyG0XzLYWJKBi3F7sE4cxDLrPuT8qiVt5_kqeJIx8JMl0abGeTVuJNWKosdZ5frjGpHRGEulmjBlptXbB7NjjuJC2qltBGugCvbzH6sSfkBQ5aA-bC8ds3WsdPW2JFQHzvV6izz345ewUtuFVh9iGAfApiNk587YZoHmKmL2lAAkykUKwrXA94IZ9CL0ralR0FwKMkMEzqe4wbSJ6NDE8osg8Q1AFIrkjrb8pYM1qk9PlG4DwZmRfwdgS5miY-9ESS_6pxWrK0STDaKlaPI0i0KfCjIs4KGe1A0Ox1PrXVayarzrJy182vwL8pLaAp_wzpBchtC-z-yAgOor7IMMReNMvsGWjQ9BEmjb05Ck8CBr2uGVckUW36QUq1i-um9UyS_WKMkpOZrS_GJDKxUpEX4wHSNRAw6rO3HO2bHVDpowuWsgNHcisu7_3jOIuE5x3DFqDSwASNdSjcx7yIhkYhFCGidGI8mkEMF6EX1y0]--></g></svg>