<?xml version="1.0" encoding="us-ascii" standalone="no"?><svg xmlns="http://www.w3.org/2000/svg" xmlns:xlink="http://www.w3.org/1999/xlink" contentStyleType="text/css" height="513.6px" preserveAspectRatio="none" style="width:770px;height:513px;background:#FFFFFF;" version="1.1" viewBox="0 0 770 513" width="770.4px" zoomAndPan="magnify"><defs/><g><rect fill="#FFFFFF" height="402.2648" style="stroke:#181818;stroke-width:0.6;" width="6" x="12.6" y="56.1727"/><rect fill="#FFFFFF" height="388.2902" style="stroke:#181818;stroke-width:0.6;" width="6" x="227.4" y="70.1473"/><rect fill="#FFFFFF" height="18.7746" style="stroke:#181818;stroke-width:0.6;" width="6" x="414.3" y="115.0945"/><rect fill="#FFFFFF" height="18.7746" style="stroke:#181818;stroke-width:0.6;" width="6" x="414.3" y="190.193"/><rect fill="#FFFFFF" height="18.7746" style="stroke:#181818;stroke-width:0.6;" width="6" x="414.3" y="377.9391"/><rect fill="#FFFFFF" height="18.7746" style="stroke:#181818;stroke-width:0.6;" width="6" x="544.5" y="133.8691"/><rect fill="#FFFFFF" height="18.7746" style="stroke:#181818;stroke-width:0.6;" width="6" x="544.5" y="171.4184"/><rect fill="#FFFFFF" height="18.7746" style="stroke:#181818;stroke-width:0.6;" width="6" x="544.5" y="396.7137"/><rect fill="#FFFFFF" height="18.7746" style="stroke:#181818;stroke-width:0.6;" width="6" x="646.5" y="152.6437"/><rect fill="#FFFFFF" height="18.7746" style="stroke:#181818;stroke-width:0.6;" width="6" x="646.5" y="415.4883"/><rect fill="#FFFFFF" height="18.7746" style="stroke:#181818;stroke-width:0.6;" width="6" x="741.9" y="434.2629"/><line style="stroke:#181818;stroke-width:0.3;stroke-dasharray:5.0,5.0;" x1="15.6" x2="15.6" y1="50.1727" y2="463.8375"/><line style="stroke:#181818;stroke-width:0.3;stroke-dasharray:5.0,5.0;" x1="230.4" x2="230.4" y1="50.1727" y2="463.8375"/><line style="stroke:#181818;stroke-width:0.3;stroke-dasharray:5.0,5.0;" x1="417" x2="417" y1="94.0336" y2="463.8375"/><line style="stroke:#181818;stroke-width:0.3;stroke-dasharray:5.0,5.0;" x1="547.2" x2="547.2" y1="50.1727" y2="463.8375"/><line style="stroke:#181818;stroke-width:0.3;stroke-dasharray:5.0,5.0;" x1="649.2" x2="649.2" y1="50.1727" y2="463.8375"/><line style="stroke:#181818;stroke-width:0.3;stroke-dasharray:5.0,5.0;" x1="744.6" x2="744.6" y1="50.1727" y2="463.8375"/><text fill="#000000" font-family="sans-serif" font-size="8.4" lengthAdjust="spacing" textLength="21.6" x="3" y="48.0645">Client</text><ellipse cx="15.6" cy="8.1" fill="#E2E2F0" rx="4.8" ry="4.8" style="stroke:#181818;stroke-width:0.3;"/><path d="M15.6,12.9 L15.6,29.1 M7.8,17.7 L23.4,17.7 M15.6,29.1 L7.8,38.1 M15.6,29.1 L23.4,38.1 " fill="none" style="stroke:#181818;stroke-width:0.3;"/><text fill="#000000" font-family="sans-serif" font-size="8.4" lengthAdjust="spacing" textLength="21.6" x="3" y="472.302">Client</text><ellipse cx="15.6" cy="479.5102" fill="#E2E2F0" rx="4.8" ry="4.8" style="stroke:#181818;stroke-width:0.3;"/><path d="M15.6,484.3102 L15.6,500.5102 M7.8,489.1102 L23.4,489.1102 M15.6,500.5102 L7.8,509.5102 M15.6,500.5102 L23.4,509.5102 " fill="none" style="stroke:#181818;stroke-width:0.3;"/><rect fill="#E2E2F0" height="19.5727" rx="1.5" ry="1.5" style="stroke:#181818;stroke-width:0.3;" width="169.2" x="145.8" y="30"/><text fill="#000000" font-family="sans-serif" font-size="8.4" lengthAdjust="spacing" textLength="160.8" x="150" y="43.2645">ReadResponseOfAppointmentRequestGUI</text><rect fill="#E2E2F0" height="19.5727" rx="1.5" ry="1.5" style="stroke:#181818;stroke-width:0.3;" width="169.2" x="145.8" y="463.2375"/><text fill="#000000" font-family="sans-serif" font-size="8.4" lengthAdjust="spacing" textLength="160.8" x="150" y="476.502">ReadResponseOfAppointmentRequestGUI</text><rect fill="#E2E2F0" height="19.5727" rx="1.5" ry="1.5" style="stroke:#181818;stroke-width:0.3;" width="192.6" x="321" y="463.2375"/><text fill="#000000" font-family="sans-serif" font-size="8.4" lengthAdjust="spacing" textLength="184.2" x="325.2" y="476.502">ReadResponseOfAppointmentRequestController</text><rect fill="#E2E2F0" height="19.5727" rx="1.5" ry="1.5" style="stroke:#181818;stroke-width:0.3;" width="55.8" x="519.6" y="30"/><text fill="#000000" font-family="sans-serif" font-size="8.4" lengthAdjust="spacing" textLength="47.4" x="523.8" y="43.2645">Repositories</text><rect fill="#E2E2F0" height="19.5727" rx="1.5" ry="1.5" style="stroke:#181818;stroke-width:0.3;" width="55.8" x="519.6" y="463.2375"/><text fill="#000000" font-family="sans-serif" font-size="8.4" lengthAdjust="spacing" textLength="47.4" x="523.8" y="476.502">Repositories</text><rect fill="#E2E2F0" height="19.5727" rx="1.5" ry="1.5" style="stroke:#181818;stroke-width:0.3;" width="84.6" x="607.2" y="30"/><text fill="#000000" font-family="sans-serif" font-size="8.4" lengthAdjust="spacing" textLength="76.2" x="611.4" y="43.2645">ScheduleRepository</text><rect fill="#E2E2F0" height="19.5727" rx="1.5" ry="1.5" style="stroke:#181818;stroke-width:0.3;" width="84.6" x="607.2" y="463.2375"/><text fill="#000000" font-family="sans-serif" font-size="8.4" lengthAdjust="spacing" textLength="76.2" x="611.4" y="476.502">ScheduleRepository</text><rect fill="#E2E2F0" height="19.5727" rx="1.5" ry="1.5" style="stroke:#181818;stroke-width:0.3;" width="43.8" x="723" y="30"/><text fill="#000000" font-family="sans-serif" font-size="8.4" lengthAdjust="spacing" textLength="35.4" x="727.2" y="43.2645">Schedule</text><rect fill="#E2E2F0" height="19.5727" rx="1.5" ry="1.5" style="stroke:#181818;stroke-width:0.3;" width="43.8" x="723" y="463.2375"/><text fill="#000000" font-family="sans-serif" font-size="8.4" lengthAdjust="spacing" textLength="35.4" x="727.2" y="476.502">Schedule</text><rect fill="#FFFFFF" height="402.2648" style="stroke:#181818;stroke-width:0.6;" width="6" x="12.6" y="56.1727"/><rect fill="#FFFFFF" height="388.2902" style="stroke:#181818;stroke-width:0.6;" width="6" x="227.4" y="70.1473"/><rect fill="#FFFFFF" height="18.7746" style="stroke:#181818;stroke-width:0.6;" width="6" x="414.3" y="115.0945"/><rect fill="#FFFFFF" height="18.7746" style="stroke:#181818;stroke-width:0.6;" width="6" x="414.3" y="190.193"/><rect fill="#FFFFFF" height="18.7746" style="stroke:#181818;stroke-width:0.6;" width="6" x="414.3" y="377.9391"/><rect fill="#FFFFFF" height="18.7746" style="stroke:#181818;stroke-width:0.6;" width="6" x="544.5" y="133.8691"/><rect fill="#FFFFFF" height="18.7746" style="stroke:#181818;stroke-width:0.6;" width="6" x="544.5" y="171.4184"/><rect fill="#FFFFFF" height="18.7746" style="stroke:#181818;stroke-width:0.6;" width="6" x="544.5" y="396.7137"/><rect fill="#FFFFFF" height="18.7746" style="stroke:#181818;stroke-width:0.6;" width="6" x="646.5" y="152.6437"/><rect fill="#FFFFFF" height="18.7746" style="stroke:#181818;stroke-width:0.6;" width="6" x="646.5" y="415.4883"/><rect fill="#FFFFFF" height="18.7746" style="stroke:#181818;stroke-width:0.6;" width="6" x="741.9" y="434.2629"/><polygon fill="#181818" points="220.2,67.7473,226.2,70.1473,220.2,72.5473,222.6,70.1473" style="stroke:#181818;stroke-width:0.6;"/><line style="stroke:#181818;stroke-width:0.6;" x1="18.6" x2="223.8" y1="70.1473" y2="70.1473"/><text fill="#000000" font-family="sans-serif" font-size="7.8" font-weight="bold" lengthAdjust="spacing" textLength="4.2" x="22.8" y="66.9896">1</text><text fill="#000000" font-family="sans-serif" font-size="7.8" lengthAdjust="spacing" textLength="190.8" x="29.4" y="66.9896">starts to read the response for the appointment request</text><polygon fill="#181818" points="313.8,86.5219,319.8,88.9219,313.8,91.3219,316.2,88.9219" style="stroke:#181818;stroke-width:0.6;"/><line style="stroke:#181818;stroke-width:0.6;" x1="233.4" x2="317.4" y1="88.9219" y2="88.9219"/><text fill="#000000" font-family="sans-serif" font-size="7.8" font-weight="bold" lengthAdjust="spacing" textLength="4.2" x="237.6" y="85.7643">2</text><text fill="#000000" font-family="sans-serif" font-size="7.8" lengthAdjust="spacing" textLength="21.6" x="244.2" y="85.7643">create</text><rect fill="#E2E2F0" height="19.5727" rx="1.5" ry="1.5" style="stroke:#181818;stroke-width:0.3;" width="192.6" x="321" y="74.9473"/><text fill="#000000" font-family="sans-serif" font-size="8.4" lengthAdjust="spacing" textLength="184.2" x="325.2" y="88.2117">ReadResponseOfAppointmentRequestController</text><polygon fill="#181818" points="407.1,112.6945,413.1,115.0945,407.1,117.4945,409.5,115.0945" style="stroke:#181818;stroke-width:0.6;"/><line style="stroke:#181818;stroke-width:0.6;" x1="233.4" x2="410.7" y1="115.0945" y2="115.0945"/><text fill="#000000" font-family="sans-serif" font-size="7.8" font-weight="bold" lengthAdjust="spacing" textLength="4.2" x="237.6" y="111.9369">3</text><text fill="#000000" font-family="sans-serif" font-size="7.8" lengthAdjust="spacing" textLength="60.6" x="244.2" y="111.9369">getScheduleList()</text><polygon fill="#181818" points="537.3,131.4691,543.3,133.8691,537.3,136.2691,539.7,133.8691" style="stroke:#181818;stroke-width:0.6;"/><line style="stroke:#181818;stroke-width:0.6;" x1="417.3" x2="540.9" y1="133.8691" y2="133.8691"/><text fill="#000000" font-family="sans-serif" font-size="7.8" font-weight="bold" lengthAdjust="spacing" textLength="4.2" x="421.5" y="130.7115">4</text><text fill="#000000" font-family="sans-serif" font-size="7.8" lengthAdjust="spacing" textLength="60.6" x="428.1" y="130.7115">getScheduleList()</text><polygon fill="#181818" points="639.3,150.2438,645.3,152.6437,639.3,155.0438,641.7,152.6437" style="stroke:#181818;stroke-width:0.6;"/><line style="stroke:#181818;stroke-width:0.6;" x1="547.5" x2="642.9" y1="152.6437" y2="152.6437"/><text fill="#000000" font-family="sans-serif" font-size="7.8" font-weight="bold" lengthAdjust="spacing" textLength="4.2" x="551.7" y="149.4861">5</text><text fill="#000000" font-family="sans-serif" font-size="7.8" lengthAdjust="spacing" textLength="60.6" x="558.3" y="149.4861">getScheduleList()</text><polygon fill="#181818" points="557.1,169.0184,551.1,171.4184,557.1,173.8184,554.7,171.4184" style="stroke:#181818;stroke-width:0.6;"/><line style="stroke:#181818;stroke-width:0.6;" x1="553.5" x2="648.9" y1="171.4184" y2="171.4184"/><text fill="#000000" font-family="sans-serif" font-size="7.8" font-weight="bold" lengthAdjust="spacing" textLength="4.2" x="560.7" y="168.2607">6</text><text fill="#000000" font-family="sans-serif" font-size="7.8" lengthAdjust="spacing" textLength="78" x="567.3" y="168.2607">return getScheduleList</text><polygon fill="#181818" points="426.9,187.793,420.9,190.193,426.9,192.593,424.5,190.193" style="stroke:#181818;stroke-width:0.6;"/><line style="stroke:#181818;stroke-width:0.6;" x1="423.3" x2="546.9" y1="190.193" y2="190.193"/><text fill="#000000" font-family="sans-serif" font-size="7.8" font-weight="bold" lengthAdjust="spacing" textLength="4.2" x="430.5" y="187.0354">7</text><text fill="#000000" font-family="sans-serif" font-size="7.8" lengthAdjust="spacing" textLength="66" x="437.1" y="187.0354">return scheduleList</text><polygon fill="#181818" points="240,206.5676,234,208.9676,240,211.3676,237.6,208.9676" style="stroke:#181818;stroke-width:0.6;"/><line style="stroke:#181818;stroke-width:0.6;" x1="236.4" x2="416.7" y1="208.9676" y2="208.9676"/><text fill="#000000" font-family="sans-serif" font-size="7.8" font-weight="bold" lengthAdjust="spacing" textLength="4.2" x="243.6" y="205.81">8</text><text fill="#000000" font-family="sans-serif" font-size="7.8" lengthAdjust="spacing" textLength="66" x="250.2" y="205.81">return scheduleList</text><polygon fill="#181818" points="25.2,225.3422,19.2,227.7422,25.2,230.1422,22.8,227.7422" style="stroke:#181818;stroke-width:0.6;"/><line style="stroke:#181818;stroke-width:0.6;" x1="21.6" x2="226.8" y1="227.7422" y2="227.7422"/><text fill="#000000" font-family="sans-serif" font-size="7.8" font-weight="bold" lengthAdjust="spacing" textLength="4.2" x="28.8" y="224.5846">9</text><text fill="#000000" font-family="sans-serif" font-size="7.8" lengthAdjust="spacing" textLength="174.6" x="35.4" y="224.5846">shows appointment list and requests to select one</text><polygon fill="#181818" points="220.2,244.1168,226.2,246.5168,220.2,248.9168,222.6,246.5168" style="stroke:#181818;stroke-width:0.6;"/><line style="stroke:#181818;stroke-width:0.6;" x1="18.6" x2="223.8" y1="246.5168" y2="246.5168"/><text fill="#000000" font-family="sans-serif" font-size="7.8" font-weight="bold" lengthAdjust="spacing" textLength="8.4" x="22.8" y="243.3592">10</text><text fill="#000000" font-family="sans-serif" font-size="7.8" lengthAdjust="spacing" textLength="66" x="33.6" y="243.3592">select appointment</text><polygon fill="#181818" points="25.2,262.8914,19.2,265.2914,25.2,267.6914,22.8,265.2914" style="stroke:#181818;stroke-width:0.6;"/><line style="stroke:#181818;stroke-width:0.6;" x1="21.6" x2="226.8" y1="265.2914" y2="265.2914"/><text fill="#000000" font-family="sans-serif" font-size="7.8" font-weight="bold" lengthAdjust="spacing" textLength="8.4" x="28.8" y="262.1338">11</text><text fill="#000000" font-family="sans-serif" font-size="7.8" lengthAdjust="spacing" textLength="116.4" x="39.6" y="262.1338">asks the client to accept or reject</text><polygon fill="#181818" points="220.2,281.666,226.2,284.066,220.2,286.466,222.6,284.066" style="stroke:#181818;stroke-width:0.6;"/><line style="stroke:#181818;stroke-width:0.6;" x1="18.6" x2="223.8" y1="284.066" y2="284.066"/><text fill="#000000" font-family="sans-serif" font-size="7.8" font-weight="bold" lengthAdjust="spacing" textLength="8.4" x="22.8" y="280.9084">12</text><text fill="#000000" font-family="sans-serif" font-size="7.8" lengthAdjust="spacing" textLength="64.8" x="33.6" y="280.9084">rejects the request</text><polygon fill="#181818" points="25.2,300.4406,19.2,302.8406,25.2,305.2406,22.8,302.8406" style="stroke:#181818;stroke-width:0.6;"/><line style="stroke:#181818;stroke-width:0.6;" x1="21.6" x2="226.8" y1="302.8406" y2="302.8406"/><text fill="#000000" font-family="sans-serif" font-size="7.8" font-weight="bold" lengthAdjust="spacing" textLength="8.4" x="28.8" y="299.683">13</text><text fill="#000000" font-family="sans-serif" font-size="7.8" lengthAdjust="spacing" textLength="104.4" x="39.6" y="299.683">asks client to write the reason</text><polygon fill="#181818" points="220.2,319.2152,226.2,321.6152,220.2,324.0152,222.6,321.6152" style="stroke:#181818;stroke-width:0.6;"/><line style="stroke:#181818;stroke-width:0.6;" x1="18.6" x2="223.8" y1="321.6152" y2="321.6152"/><text fill="#000000" font-family="sans-serif" font-size="7.8" font-weight="bold" lengthAdjust="spacing" textLength="8.4" x="22.8" y="318.4576">14</text><text fill="#000000" font-family="sans-serif" font-size="7.8" lengthAdjust="spacing" textLength="58.2" x="33.6" y="318.4576">types the reason</text><polygon fill="#181818" points="25.2,337.9898,19.2,340.3898,25.2,342.7898,22.8,340.3898" style="stroke:#181818;stroke-width:0.6;"/><line style="stroke:#181818;stroke-width:0.6;" x1="21.6" x2="226.8" y1="340.3898" y2="340.3898"/><text fill="#000000" font-family="sans-serif" font-size="7.8" font-weight="bold" lengthAdjust="spacing" textLength="8.4" x="28.8" y="337.2322">15</text><text fill="#000000" font-family="sans-serif" font-size="7.8" lengthAdjust="spacing" textLength="61.2" x="39.6" y="337.2322">asks confirmation</text><polygon fill="#181818" points="220.2,356.7645,226.2,359.1645,220.2,361.5645,222.6,359.1645" style="stroke:#181818;stroke-width:0.6;"/><line style="stroke:#181818;stroke-width:0.6;" x1="18.6" x2="223.8" y1="359.1645" y2="359.1645"/><text fill="#000000" font-family="sans-serif" font-size="7.8" font-weight="bold" lengthAdjust="spacing" textLength="8.4" x="22.8" y="356.0068">16</text><text fill="#000000" font-family="sans-serif" font-size="7.8" lengthAdjust="spacing" textLength="29.4" x="33.6" y="356.0068">confirms</text><polygon fill="#181818" points="407.1,375.5391,413.1,377.9391,407.1,380.3391,409.5,377.9391" style="stroke:#181818;stroke-width:0.6;"/><line style="stroke:#181818;stroke-width:0.6;" x1="233.4" x2="410.7" y1="377.9391" y2="377.9391"/><text fill="#000000" font-family="sans-serif" font-size="7.8" font-weight="bold" lengthAdjust="spacing" textLength="8.4" x="237.6" y="374.7814">17</text><text fill="#000000" font-family="sans-serif" font-size="7.8" lengthAdjust="spacing" textLength="67.2" x="248.4" y="374.7814">setClientMessage()</text><polygon fill="#181818" points="537.3,394.3137,543.3,396.7137,537.3,399.1137,539.7,396.7137" style="stroke:#181818;stroke-width:0.6;"/><line style="stroke:#181818;stroke-width:0.6;" x1="417.3" x2="540.9" y1="396.7137" y2="396.7137"/><text fill="#000000" font-family="sans-serif" font-size="7.8" font-weight="bold" lengthAdjust="spacing" textLength="8.4" x="421.5" y="393.5561">18</text><text fill="#000000" font-family="sans-serif" font-size="7.8" lengthAdjust="spacing" textLength="67.2" x="432.3" y="393.5561">setClientMessage()</text><polygon fill="#181818" points="639.3,413.0883,645.3,415.4883,639.3,417.8883,641.7,415.4883" style="stroke:#181818;stroke-width:0.6;"/><line style="stroke:#181818;stroke-width:0.6;" x1="547.5" x2="642.9" y1="415.4883" y2="415.4883"/><text fill="#000000" font-family="sans-serif" font-size="7.8" font-weight="bold" lengthAdjust="spacing" textLength="8.4" x="551.7" y="412.3307">19</text><text fill="#000000" font-family="sans-serif" font-size="7.8" lengthAdjust="spacing" textLength="67.2" x="562.5" y="412.3307">setClientMessage()</text><polygon fill="#181818" points="734.7,431.8629,740.7,434.2629,734.7,436.6629,737.1,434.2629" style="stroke:#181818;stroke-width:0.6;"/><line style="stroke:#181818;stroke-width:0.6;" x1="649.5" x2="738.3" y1="434.2629" y2="434.2629"/><text fill="#000000" font-family="sans-serif" font-size="7.8" font-weight="bold" lengthAdjust="spacing" textLength="8.4" x="653.7" y="431.1053">20</text><text fill="#000000" font-family="sans-serif" font-size="7.8" lengthAdjust="spacing" textLength="67.2" x="664.5" y="431.1053">setClientMessage()</text><polygon fill="#181818" points="25.2,450.6375,19.2,453.0375,25.2,455.4375,22.8,453.0375" style="stroke:#181818;stroke-width:0.6;"/><line style="stroke:#181818;stroke-width:0.6;" x1="21.6" x2="226.8" y1="453.0375" y2="453.0375"/><text fill="#000000" font-family="sans-serif" font-size="7.8" font-weight="bold" lengthAdjust="spacing" textLength="8.4" x="28.8" y="449.8799">21</text><text fill="#000000" font-family="sans-serif" font-size="7.8" lengthAdjust="spacing" textLength="104.4" x="39.6" y="449.8799">informs the operation success</text><!--SRC=[bPHBJiCm48RtEOMNK8aBT864ka188AGW3c2SQMj8RECPK_NsJEoaYTFGq4rYU_xvFAz4Ah9UR6eDXeH4eUAgSDAJLjf9FYr1LYMWimRXTVlWdDM66bQLy1q0wV7zgVKC-YglZJNaRLs3ZzUIdtWxYvf3qu2jtRVxJF6czb256axAOw-RbHM536HDQ3x0yrgH_f44VRf5UekxUqvZBP2OW88iysGbQ0-yIAc8BPUhFP13HcoCAOsuN8mYw9R7cQrMOYqKemX6fskn0-h3UzP8DxVZmBWW1JzQSKn-Lbv1vd3Qf78LyTKJbW399zicmYW43nIycOBEC7y74lFkA7W9WVEbQBkpv1xrNPbZMxcXUtl0h6KrUmbfghvtiTi8DIWIri3PH2JBY32zGk8Nni7e71adbGB7EC-NVBBx59fEiPklReHcg0Fnu3KdcFGIhPaIwUW0C_iSpfgjzeqaVGxeR9ZDAGAb7yGB8CeTB0tgdFwwILqWN1pLVZB_HHaWmuyYBvas_CKtgQZMWOzb4nYujuWPxqJu1G00]--></g></svg>