<?xml version="1.0" encoding="us-ascii" standalone="no"?><svg xmlns="http://www.w3.org/2000/svg" xmlns:xlink="http://www.w3.org/1999/xlink" contentStyleType="text/css" height="983px" preserveAspectRatio="none" style="width:949px;height:983px;background:#FFFFFF;" version="1.1" viewBox="0 0 949 983" width="949px" zoomAndPan="magnify"><defs/><g><!--class Runnable--><g id="elem_Runnable"><rect codeLine="2" fill="#F1F1F1" height="66.6211" id="Runnable" rx="2.5" ry="2.5" style="stroke:#181818;stroke-width:0.5;" width="93" x="357.5" y="16"/><ellipse cx="372.5" cy="32" fill="#B4A7E5" rx="11" ry="11" style="stroke:#181818;stroke-width:1.0;"/><path d="M373.4531,28.6406 L373.4531,35.2969 L375.1719,35.2969 Q375.7813,35.2969 376.0469,35.5313 Q376.3125,35.7656 376.3125,36.1563 Q376.3125,36.5313 376.0469,36.7656 Q375.7813,37 375.1719,37 L370.0313,37 Q369.4219,37 369.1563,36.7656 Q368.8906,36.5313 368.8906,36.1406 Q368.8906,35.7656 369.1563,35.5313 Q369.4219,35.2969 370.0313,35.2969 L371.75,35.2969 L371.75,28.6406 L370.0313,28.6406 Q369.4219,28.6406 369.1563,28.4063 Q368.8906,28.1719 368.8906,27.7813 Q368.8906,27.4063 369.1563,27.1719 Q369.4219,26.9375 370.0313,26.9375 L375.1719,26.9375 Q375.7813,26.9375 376.0469,27.1719 Q376.3125,27.4063 376.3125,27.7813 Q376.3125,28.1719 376.0469,28.4063 Q375.7813,28.6406 375.1719,28.6406 L373.4531,28.6406 Z " fill="#000000"/><text fill="#000000" font-family="sans-serif" font-size="14" font-style="italic" lengthAdjust="spacing" textLength="61" x="386.5" y="37.7969">Runnable</text><line style="stroke:#181818;stroke-width:0.5;" x1="358.5" x2="449.5" y1="48" y2="48"/><line style="stroke:#181818;stroke-width:0.5;" x1="358.5" x2="449.5" y1="56" y2="56"/><ellipse cx="368.5" cy="70.8105" fill="#84BE84" rx="3" ry="3" style="stroke:#038048;stroke-width:1.0;"/><text fill="#000000" font-family="sans-serif" font-size="14" lengthAdjust="spacing" textLength="31" x="377.5" y="75.1074">run()</text></g><!--class ValidateScheduleGUI--><g id="elem_ValidateScheduleGUI"><rect codeLine="6" fill="#F1F1F1" height="85.2422" id="ValidateScheduleGUI" rx="2.5" ry="2.5" style="stroke:#181818;stroke-width:0.5;" width="165" x="157.5" y="7"/><ellipse cx="172.5" cy="23" fill="#ADD1B2" rx="11" ry="11" style="stroke:#181818;stroke-width:1.0;"/><path d="M175.2656,18.875 Q175.4219,18.6563 175.6094,18.5469 Q175.7969,18.4375 176.0156,18.4375 Q176.3906,18.4375 176.625,18.7031 Q176.8594,18.9531 176.8594,19.5625 L176.8594,21.0156 Q176.8594,21.625 176.625,21.8906 Q176.3906,22.1563 176.0156,22.1563 Q175.6719,22.1563 175.4688,21.9531 Q175.2656,21.7656 175.1563,21.25 Q175.1094,20.8906 174.9219,20.7031 Q174.5938,20.3281 173.9844,20.1094 Q173.375,19.8906 172.75,19.8906 Q171.9844,19.8906 171.3438,20.2188 Q170.7188,20.5469 170.2188,21.2969 Q169.7344,22.0469 169.7344,23.0781 L169.7344,24.1719 Q169.7344,25.4063 170.625,26.2344 Q171.5156,27.0469 173.1094,27.0469 Q174.0469,27.0469 174.7031,26.7969 Q175.0938,26.6406 175.5156,26.2031 Q175.7813,25.9375 175.9219,25.8594 Q176.0781,25.7813 176.2813,25.7813 Q176.6094,25.7813 176.8594,26.0469 Q177.125,26.2969 177.125,26.6406 Q177.125,26.9844 176.7813,27.3906 Q176.2813,27.9688 175.4844,28.2969 Q174.4063,28.75 173.1094,28.75 Q171.5938,28.75 170.3906,28.125 Q169.4063,27.625 168.7188,26.5625 Q168.0313,25.4844 168.0313,24.2031 L168.0313,23.0469 Q168.0313,21.7188 168.6406,20.5781 Q169.2656,19.4219 170.3594,18.8125 Q171.4531,18.1875 172.6875,18.1875 Q173.4219,18.1875 174.0625,18.3594 Q174.7188,18.5156 175.2656,18.875 Z " fill="#000000"/><text fill="#000000" font-family="sans-serif" font-size="14" lengthAdjust="spacing" textLength="133" x="186.5" y="28.7969">ValidateScheduleGUI</text><line style="stroke:#181818;stroke-width:0.5;" x1="158.5" x2="321.5" y1="39" y2="39"/><line style="stroke:#181818;stroke-width:0.5;" x1="158.5" x2="321.5" y1="47" y2="47"/><ellipse cx="168.5" cy="61.8105" fill="#84BE84" rx="3" ry="3" style="stroke:#038048;stroke-width:1.0;"/><text fill="#000000" font-family="sans-serif" font-size="14" lengthAdjust="spacing" textLength="38" x="177.5" y="66.1074">start()</text><ellipse cx="168.5" cy="80.4316" fill="#84BE84" rx="3" ry="3" style="stroke:#038048;stroke-width:1.0;"/><text fill="#000000" font-family="sans-serif" font-size="14" lengthAdjust="spacing" textLength="40" x="177.5" y="84.7285">main()</text></g><!--class ScheduleVisitController--><g id="elem_ScheduleVisitController"><rect codeLine="12" fill="#F1F1F1" height="420.4219" id="ScheduleVisitController" rx="2.5" ry="2.5" style="stroke:#181818;stroke-width:0.5;" width="321" x="79.5" y="153"/><ellipse cx="162.25" cy="169" fill="#ADD1B2" rx="11" ry="11" style="stroke:#181818;stroke-width:1.0;"/><path d="M165.0156,164.875 Q165.1719,164.6563 165.3594,164.5469 Q165.5469,164.4375 165.7656,164.4375 Q166.1406,164.4375 166.375,164.7031 Q166.6094,164.9531 166.6094,165.5625 L166.6094,167.0156 Q166.6094,167.625 166.375,167.8906 Q166.1406,168.1563 165.7656,168.1563 Q165.4219,168.1563 165.2188,167.9531 Q165.0156,167.7656 164.9063,167.25 Q164.8594,166.8906 164.6719,166.7031 Q164.3438,166.3281 163.7344,166.1094 Q163.125,165.8906 162.5,165.8906 Q161.7344,165.8906 161.0938,166.2188 Q160.4688,166.5469 159.9688,167.2969 Q159.4844,168.0469 159.4844,169.0781 L159.4844,170.1719 Q159.4844,171.4063 160.375,172.2344 Q161.2656,173.0469 162.8594,173.0469 Q163.7969,173.0469 164.4531,172.7969 Q164.8438,172.6406 165.2656,172.2031 Q165.5313,171.9375 165.6719,171.8594 Q165.8281,171.7813 166.0313,171.7813 Q166.3594,171.7813 166.6094,172.0469 Q166.875,172.2969 166.875,172.6406 Q166.875,172.9844 166.5313,173.3906 Q166.0313,173.9688 165.2344,174.2969 Q164.1563,174.75 162.8594,174.75 Q161.3438,174.75 160.1406,174.125 Q159.1563,173.625 158.4688,172.5625 Q157.7813,171.4844 157.7813,170.2031 L157.7813,169.0469 Q157.7813,167.7188 158.3906,166.5781 Q159.0156,165.4219 160.1094,164.8125 Q161.2031,164.1875 162.4375,164.1875 Q163.1719,164.1875 163.8125,164.3594 Q164.4688,164.5156 165.0156,164.875 Z " fill="#000000"/><text fill="#000000" font-family="sans-serif" font-size="14" lengthAdjust="spacing" textLength="147" x="182.75" y="174.7969">ScheduleVisitController</text><line style="stroke:#181818;stroke-width:0.5;" x1="80.5" x2="399.5" y1="185" y2="185"/><rect fill="none" height="6" style="stroke:#C82930;stroke-width:1.0;" width="6" x="87.5" y="196.8105"/><text fill="#000000" font-family="sans-serif" font-size="14" lengthAdjust="spacing" textLength="127" x="99.5" y="204.1074">ScheduleRepository</text><rect fill="none" height="6" style="stroke:#C82930;stroke-width:1.0;" width="6" x="87.5" y="215.4316"/><text fill="#000000" font-family="sans-serif" font-size="14" lengthAdjust="spacing" textLength="105" x="99.5" y="222.7285">ScheduleAnswer</text><rect fill="none" height="6" style="stroke:#C82930;stroke-width:1.0;" width="6" x="87.5" y="234.0527"/><text fill="#000000" font-family="sans-serif" font-size="14" lengthAdjust="spacing" textLength="63" x="99.5" y="241.3496">btnSubmit</text><rect fill="none" height="6" style="stroke:#C82930;stroke-width:1.0;" width="6" x="87.5" y="252.6738"/><text fill="#000000" font-family="sans-serif" font-size="14" lengthAdjust="spacing" textLength="115" x="99.5" y="259.9707">rbAcceptSchedule</text><rect fill="none" height="6" style="stroke:#C82930;stroke-width:1.0;" width="6" x="87.5" y="271.2949"/><text fill="#000000" font-family="sans-serif" font-size="14" lengthAdjust="spacing" textLength="112" x="99.5" y="278.5918">rbRejectSchedule</text><rect fill="none" height="6" style="stroke:#C82930;stroke-width:1.0;" width="6" x="87.5" y="289.916"/><text fill="#000000" font-family="sans-serif" font-size="14" lengthAdjust="spacing" textLength="88" x="99.5" y="297.2129">rowBeginHour</text><rect fill="none" height="6" style="stroke:#C82930;stroke-width:1.0;" width="6" x="87.5" y="308.5371"/><text fill="#000000" font-family="sans-serif" font-size="14" lengthAdjust="spacing" textLength="94" x="99.5" y="315.834">rowClientName</text><rect fill="none" height="6" style="stroke:#C82930;stroke-width:1.0;" width="6" x="87.5" y="327.1582"/><text fill="#000000" font-family="sans-serif" font-size="14" lengthAdjust="spacing" textLength="47" x="99.5" y="334.4551">rowDay</text><rect fill="none" height="6" style="stroke:#C82930;stroke-width:1.0;" width="6" x="87.5" y="345.7793"/><text fill="#000000" font-family="sans-serif" font-size="14" lengthAdjust="spacing" textLength="77" x="99.5" y="353.0762">rowEndHour</text><rect fill="none" height="6" style="stroke:#C82930;stroke-width:1.0;" width="6" x="87.5" y="364.4004"/><text fill="#000000" font-family="sans-serif" font-size="14" lengthAdjust="spacing" textLength="76" x="99.5" y="371.6973">rowLocation</text><rect fill="none" height="6" style="stroke:#C82930;stroke-width:1.0;" width="6" x="87.5" y="383.0215"/><text fill="#000000" font-family="sans-serif" font-size="14" lengthAdjust="spacing" textLength="51" x="99.5" y="390.3184">rowNote</text><rect fill="none" height="6" style="stroke:#C82930;stroke-width:1.0;" width="6" x="87.5" y="401.6426"/><text fill="#000000" font-family="sans-serif" font-size="14" lengthAdjust="spacing" textLength="54" x="99.5" y="408.9395">rowPrice</text><rect fill="none" height="6" style="stroke:#C82930;stroke-width:1.0;" width="6" x="87.5" y="420.2637"/><text fill="#000000" font-family="sans-serif" font-size="14" lengthAdjust="spacing" textLength="126" x="99.5" y="427.5605">rowTypeOfBusiness</text><rect fill="none" height="6" style="stroke:#C82930;stroke-width:1.0;" width="6" x="87.5" y="438.8848"/><text fill="#000000" font-family="sans-serif" font-size="14" lengthAdjust="spacing" textLength="96" x="99.5" y="446.1816">tblScheduleList</text><line style="stroke:#181818;stroke-width:0.5;" x1="80.5" x2="399.5" y1="453.6953" y2="453.6953"/><ellipse cx="90.5" cy="468.5059" fill="#84BE84" rx="3" ry="3" style="stroke:#038048;stroke-width:1.0;"/><text fill="#000000" font-family="sans-serif" font-size="14" lengthAdjust="spacing" textLength="59" x="99.5" y="472.8027">initialize()</text><ellipse cx="90.5" cy="487.127" fill="#84BE84" rx="3" ry="3" style="stroke:#038048;stroke-width:1.0;"/><text fill="#000000" font-family="sans-serif" font-size="14" lengthAdjust="spacing" textLength="51" x="99.5" y="491.4238">submit()</text><ellipse cx="90.5" cy="505.748" fill="#84BE84" rx="3" ry="3" style="stroke:#038048;stroke-width:1.0;"/><text fill="#000000" font-family="sans-serif" font-size="14" lengthAdjust="spacing" textLength="295" x="99.5" y="510.0449">getRequestScheduleListByResponsibleAgent()</text><ellipse cx="90.5" cy="524.3691" fill="#84BE84" rx="3" ry="3" style="stroke:#038048;stroke-width:1.0;"/><text fill="#000000" font-family="sans-serif" font-size="14" lengthAdjust="spacing" textLength="158" x="99.5" y="528.666">addConfirmedSchedule()</text><ellipse cx="90.5" cy="542.9902" fill="#84BE84" rx="3" ry="3" style="stroke:#038048;stroke-width:1.0;"/><text fill="#000000" font-family="sans-serif" font-size="14" lengthAdjust="spacing" textLength="149" x="99.5" y="547.2871">addRejectedSchedule()</text><ellipse cx="90.5" cy="561.6113" fill="#84BE84" rx="3" ry="3" style="stroke:#038048;stroke-width:1.0;"/><text fill="#000000" font-family="sans-serif" font-size="14" lengthAdjust="spacing" textLength="75" x="99.5" y="565.9082">sendEmail()</text></g><!--class ApplicationSession--><g id="elem_ApplicationSession"><rect codeLine="36" fill="#F1F1F1" height="85.2422" id="ApplicationSession" rx="2.5" ry="2.5" style="stroke:#181818;stroke-width:0.5;" width="154" x="7" y="690"/><ellipse cx="23.35" cy="706" fill="#ADD1B2" rx="11" ry="11" style="stroke:#181818;stroke-width:1.0;"/><path d="M26.1156,701.875 Q26.2719,701.6563 26.4594,701.5469 Q26.6469,701.4375 26.8656,701.4375 Q27.2406,701.4375 27.475,701.7031 Q27.7094,701.9531 27.7094,702.5625 L27.7094,704.0156 Q27.7094,704.625 27.475,704.8906 Q27.2406,705.1563 26.8656,705.1563 Q26.5219,705.1563 26.3188,704.9531 Q26.1156,704.7656 26.0063,704.25 Q25.9594,703.8906 25.7719,703.7031 Q25.4438,703.3281 24.8344,703.1094 Q24.225,702.8906 23.6,702.8906 Q22.8344,702.8906 22.1938,703.2188 Q21.5688,703.5469 21.0688,704.2969 Q20.5844,705.0469 20.5844,706.0781 L20.5844,707.1719 Q20.5844,708.4063 21.475,709.2344 Q22.3656,710.0469 23.9594,710.0469 Q24.8969,710.0469 25.5531,709.7969 Q25.9438,709.6406 26.3656,709.2031 Q26.6313,708.9375 26.7719,708.8594 Q26.9281,708.7813 27.1313,708.7813 Q27.4594,708.7813 27.7094,709.0469 Q27.975,709.2969 27.975,709.6406 Q27.975,709.9844 27.6313,710.3906 Q27.1313,710.9688 26.3344,711.2969 Q25.2563,711.75 23.9594,711.75 Q22.4438,711.75 21.2406,711.125 Q20.2563,710.625 19.5688,709.5625 Q18.8813,708.4844 18.8813,707.2031 L18.8813,706.0469 Q18.8813,704.7188 19.4906,703.5781 Q20.1156,702.4219 21.2094,701.8125 Q22.3031,701.1875 23.5375,701.1875 Q24.2719,701.1875 24.9125,701.3594 Q25.5688,701.5156 26.1156,701.875 Z " fill="#000000"/><text fill="#000000" font-family="sans-serif" font-size="14" lengthAdjust="spacing" textLength="119" x="37.65" y="711.7969">ApplicationSession</text><line style="stroke:#181818;stroke-width:0.5;" x1="8" x2="160" y1="722" y2="722"/><line style="stroke:#181818;stroke-width:0.5;" x1="8" x2="160" y1="730" y2="730"/><ellipse cx="18" cy="744.8105" fill="#84BE84" rx="3" ry="3" style="stroke:#038048;stroke-width:1.0;"/><text fill="#000000" font-family="sans-serif" font-size="14" lengthAdjust="spacing" textLength="120" x="27" y="749.1074">static getInstance()</text><ellipse cx="18" cy="763.4316" fill="#84BE84" rx="3" ry="3" style="stroke:#038048;stroke-width:1.0;"/><text fill="#000000" font-family="sans-serif" font-size="14" lengthAdjust="spacing" textLength="128" x="27" y="767.7285">getCurrentSession()</text></g><!--class UserSession--><g id="elem_UserSession"><rect codeLine="42" fill="#F1F1F1" height="66.6211" id="UserSession" rx="2.5" ry="2.5" style="stroke:#181818;stroke-width:0.5;" width="171" x="102.5" y="910"/><ellipse cx="144.5" cy="926" fill="#ADD1B2" rx="11" ry="11" style="stroke:#181818;stroke-width:1.0;"/><path d="M147.2656,921.875 Q147.4219,921.6563 147.6094,921.5469 Q147.7969,921.4375 148.0156,921.4375 Q148.3906,921.4375 148.625,921.7031 Q148.8594,921.9531 148.8594,922.5625 L148.8594,924.0156 Q148.8594,924.625 148.625,924.8906 Q148.3906,925.1563 148.0156,925.1563 Q147.6719,925.1563 147.4688,924.9531 Q147.2656,924.7656 147.1563,924.25 Q147.1094,923.8906 146.9219,923.7031 Q146.5938,923.3281 145.9844,923.1094 Q145.375,922.8906 144.75,922.8906 Q143.9844,922.8906 143.3438,923.2188 Q142.7188,923.5469 142.2188,924.2969 Q141.7344,925.0469 141.7344,926.0781 L141.7344,927.1719 Q141.7344,928.4063 142.625,929.2344 Q143.5156,930.0469 145.1094,930.0469 Q146.0469,930.0469 146.7031,929.7969 Q147.0938,929.6406 147.5156,929.2031 Q147.7813,928.9375 147.9219,928.8594 Q148.0781,928.7813 148.2813,928.7813 Q148.6094,928.7813 148.8594,929.0469 Q149.125,929.2969 149.125,929.6406 Q149.125,929.9844 148.7813,930.3906 Q148.2813,930.9688 147.4844,931.2969 Q146.4063,931.75 145.1094,931.75 Q143.5938,931.75 142.3906,931.125 Q141.4063,930.625 140.7188,929.5625 Q140.0313,928.4844 140.0313,927.2031 L140.0313,926.0469 Q140.0313,924.7188 140.6406,923.5781 Q141.2656,922.4219 142.3594,921.8125 Q143.4531,921.1875 144.6875,921.1875 Q145.4219,921.1875 146.0625,921.3594 Q146.7188,921.5156 147.2656,921.875 Z " fill="#000000"/><text fill="#000000" font-family="sans-serif" font-size="14" lengthAdjust="spacing" textLength="79" x="164.5" y="931.7969">UserSession</text><line style="stroke:#181818;stroke-width:0.5;" x1="103.5" x2="272.5" y1="942" y2="942"/><line style="stroke:#181818;stroke-width:0.5;" x1="103.5" x2="272.5" y1="950" y2="950"/><ellipse cx="113.5" cy="964.8105" fill="#84BE84" rx="3" ry="3" style="stroke:#038048;stroke-width:1.0;"/><text fill="#000000" font-family="sans-serif" font-size="14" lengthAdjust="spacing" textLength="145" x="122.5" y="969.1074">getUserNameByEmail()</text></g><!--class Schedule--><g id="elem_Schedule"><rect codeLine="46" fill="#F1F1F1" height="196.9688" id="Schedule" rx="2.5" ry="2.5" style="stroke:#181818;stroke-width:0.5;" width="120" x="722" y="634"/><ellipse cx="750.05" cy="650" fill="#ADD1B2" rx="11" ry="11" style="stroke:#181818;stroke-width:1.0;"/><path d="M752.8156,645.875 Q752.9719,645.6563 753.1594,645.5469 Q753.3469,645.4375 753.5656,645.4375 Q753.9406,645.4375 754.175,645.7031 Q754.4094,645.9531 754.4094,646.5625 L754.4094,648.0156 Q754.4094,648.625 754.175,648.8906 Q753.9406,649.1563 753.5656,649.1563 Q753.2219,649.1563 753.0188,648.9531 Q752.8156,648.7656 752.7063,648.25 Q752.6594,647.8906 752.4719,647.7031 Q752.1438,647.3281 751.5344,647.1094 Q750.925,646.8906 750.3,646.8906 Q749.5344,646.8906 748.8938,647.2188 Q748.2688,647.5469 747.7688,648.2969 Q747.2844,649.0469 747.2844,650.0781 L747.2844,651.1719 Q747.2844,652.4063 748.175,653.2344 Q749.0656,654.0469 750.6594,654.0469 Q751.5969,654.0469 752.2531,653.7969 Q752.6438,653.6406 753.0656,653.2031 Q753.3313,652.9375 753.4719,652.8594 Q753.6281,652.7813 753.8313,652.7813 Q754.1594,652.7813 754.4094,653.0469 Q754.675,653.2969 754.675,653.6406 Q754.675,653.9844 754.3313,654.3906 Q753.8313,654.9688 753.0344,655.2969 Q751.9563,655.75 750.6594,655.75 Q749.1438,655.75 747.9406,655.125 Q746.9563,654.625 746.2688,653.5625 Q745.5813,652.4844 745.5813,651.2031 L745.5813,650.0469 Q745.5813,648.7188 746.1906,647.5781 Q746.8156,646.4219 747.9094,645.8125 Q749.0031,645.1875 750.2375,645.1875 Q750.9719,645.1875 751.6125,645.3594 Q752.2688,645.5156 752.8156,645.875 Z " fill="#000000"/><text fill="#000000" font-family="sans-serif" font-size="14" lengthAdjust="spacing" textLength="59" x="766.95" y="655.7969">Schedule</text><line style="stroke:#181818;stroke-width:0.5;" x1="723" x2="841" y1="666" y2="666"/><rect fill="none" height="6" style="stroke:#C82930;stroke-width:1.0;" width="6" x="730" y="677.8105"/><text fill="#000000" font-family="sans-serif" font-size="14" lengthAdjust="spacing" textLength="35" x="742" y="685.1074">name</text><rect fill="none" height="6" style="stroke:#C82930;stroke-width:1.0;" width="6" x="730" y="696.4316"/><text fill="#000000" font-family="sans-serif" font-size="14" lengthAdjust="spacing" textLength="89" x="742" y="703.7285">phoneNumber</text><rect fill="none" height="6" style="stroke:#C82930;stroke-width:1.0;" width="6" x="730" y="715.0527"/><text fill="#000000" font-family="sans-serif" font-size="14" lengthAdjust="spacing" textLength="94" x="742" y="722.3496">announcement</text><rect fill="none" height="6" style="stroke:#C82930;stroke-width:1.0;" width="6" x="730" y="733.6738"/><text fill="#000000" font-family="sans-serif" font-size="14" lengthAdjust="spacing" textLength="23" x="742" y="740.9707">day</text><rect fill="none" height="6" style="stroke:#C82930;stroke-width:1.0;" width="6" x="730" y="752.2949"/><text fill="#000000" font-family="sans-serif" font-size="14" lengthAdjust="spacing" textLength="57" x="742" y="759.5918">begiHour</text><rect fill="none" height="6" style="stroke:#C82930;stroke-width:1.0;" width="6" x="730" y="770.916"/><text fill="#000000" font-family="sans-serif" font-size="14" lengthAdjust="spacing" textLength="54" x="742" y="778.2129">endHour</text><rect fill="none" height="6" style="stroke:#C82930;stroke-width:1.0;" width="6" x="730" y="789.5371"/><text fill="#000000" font-family="sans-serif" font-size="14" lengthAdjust="spacing" textLength="28" x="742" y="796.834">note</text><rect fill="none" height="6" style="stroke:#C82930;stroke-width:1.0;" width="6" x="730" y="808.1582"/><text fill="#000000" font-family="sans-serif" font-size="14" lengthAdjust="spacing" textLength="38" x="742" y="815.4551">status</text><line style="stroke:#181818;stroke-width:0.5;" x1="723" x2="841" y1="822.9688" y2="822.9688"/></g><!--class Repositories--><g id="elem_Repositories"><rect codeLine="57" fill="#F1F1F1" height="66.6211" id="Repositories" rx="2.5" ry="2.5" style="stroke:#181818;stroke-width:0.5;" width="151" x="435.5" y="329.5"/><ellipse cx="468.5" cy="345.5" fill="#ADD1B2" rx="11" ry="11" style="stroke:#181818;stroke-width:1.0;"/><path d="M471.2656,341.375 Q471.4219,341.1563 471.6094,341.0469 Q471.7969,340.9375 472.0156,340.9375 Q472.3906,340.9375 472.625,341.2031 Q472.8594,341.4531 472.8594,342.0625 L472.8594,343.5156 Q472.8594,344.125 472.625,344.3906 Q472.3906,344.6563 472.0156,344.6563 Q471.6719,344.6563 471.4688,344.4531 Q471.2656,344.2656 471.1563,343.75 Q471.1094,343.3906 470.9219,343.2031 Q470.5938,342.8281 469.9844,342.6094 Q469.375,342.3906 468.75,342.3906 Q467.9844,342.3906 467.3438,342.7188 Q466.7188,343.0469 466.2188,343.7969 Q465.7344,344.5469 465.7344,345.5781 L465.7344,346.6719 Q465.7344,347.9063 466.625,348.7344 Q467.5156,349.5469 469.1094,349.5469 Q470.0469,349.5469 470.7031,349.2969 Q471.0938,349.1406 471.5156,348.7031 Q471.7813,348.4375 471.9219,348.3594 Q472.0781,348.2813 472.2813,348.2813 Q472.6094,348.2813 472.8594,348.5469 Q473.125,348.7969 473.125,349.1406 Q473.125,349.4844 472.7813,349.8906 Q472.2813,350.4688 471.4844,350.7969 Q470.4063,351.25 469.1094,351.25 Q467.5938,351.25 466.3906,350.625 Q465.4063,350.125 464.7188,349.0625 Q464.0313,347.9844 464.0313,346.7031 L464.0313,345.5469 Q464.0313,344.2188 464.6406,343.0781 Q465.2656,341.9219 466.3594,341.3125 Q467.4531,340.6875 468.6875,340.6875 Q469.4219,340.6875 470.0625,340.8594 Q470.7188,341.0156 471.2656,341.375 Z " fill="#000000"/><text fill="#000000" font-family="sans-serif" font-size="14" lengthAdjust="spacing" textLength="79" x="486.5" y="351.2969">Repositories</text><line style="stroke:#181818;stroke-width:0.5;" x1="436.5" x2="585.5" y1="361.5" y2="361.5"/><ellipse cx="446.5" cy="376.3105" fill="none" rx="3" ry="3" style="stroke:#038048;stroke-width:1.0;"/><text fill="#000000" font-family="sans-serif" font-size="14" lengthAdjust="spacing" textLength="125" x="455.5" y="380.6074">scheduleRepository</text><line style="stroke:#181818;stroke-width:0.5;" x1="436.5" x2="585.5" y1="388.1211" y2="388.1211"/></g><!--class ScheduleRepository--><g id="elem_ScheduleRepository"><rect codeLine="61" fill="#F1F1F1" height="178.3477" id="ScheduleRepository" rx="2.5" ry="2.5" style="stroke:#181818;stroke-width:0.5;" width="321" x="621.5" y="274"/><ellipse cx="714.25" cy="290" fill="#ADD1B2" rx="11" ry="11" style="stroke:#181818;stroke-width:1.0;"/><path d="M717.0156,285.875 Q717.1719,285.6563 717.3594,285.5469 Q717.5469,285.4375 717.7656,285.4375 Q718.1406,285.4375 718.375,285.7031 Q718.6094,285.9531 718.6094,286.5625 L718.6094,288.0156 Q718.6094,288.625 718.375,288.8906 Q718.1406,289.1563 717.7656,289.1563 Q717.4219,289.1563 717.2188,288.9531 Q717.0156,288.7656 716.9063,288.25 Q716.8594,287.8906 716.6719,287.7031 Q716.3438,287.3281 715.7344,287.1094 Q715.125,286.8906 714.5,286.8906 Q713.7344,286.8906 713.0938,287.2188 Q712.4688,287.5469 711.9688,288.2969 Q711.4844,289.0469 711.4844,290.0781 L711.4844,291.1719 Q711.4844,292.4063 712.375,293.2344 Q713.2656,294.0469 714.8594,294.0469 Q715.7969,294.0469 716.4531,293.7969 Q716.8438,293.6406 717.2656,293.2031 Q717.5313,292.9375 717.6719,292.8594 Q717.8281,292.7813 718.0313,292.7813 Q718.3594,292.7813 718.6094,293.0469 Q718.875,293.2969 718.875,293.6406 Q718.875,293.9844 718.5313,294.3906 Q718.0313,294.9688 717.2344,295.2969 Q716.1563,295.75 714.8594,295.75 Q713.3438,295.75 712.1406,295.125 Q711.1563,294.625 710.4688,293.5625 Q709.7813,292.4844 709.7813,291.2031 L709.7813,290.0469 Q709.7813,288.7188 710.3906,287.5781 Q711.0156,286.4219 712.1094,285.8125 Q713.2031,285.1875 714.4375,285.1875 Q715.1719,285.1875 715.8125,285.3594 Q716.4688,285.5156 717.0156,285.875 Z " fill="#000000"/><text fill="#000000" font-family="sans-serif" font-size="14" lengthAdjust="spacing" textLength="127" x="734.75" y="295.7969">ScheduleRepository</text><line style="stroke:#181818;stroke-width:0.5;" x1="622.5" x2="941.5" y1="306" y2="306"/><rect fill="none" height="6" style="stroke:#C82930;stroke-width:1.0;" width="6" x="629.5" y="317.8105"/><text fill="#000000" font-family="sans-serif" font-size="14" lengthAdjust="spacing" textLength="81" x="641.5" y="325.1074">ScheduleList</text><rect fill="none" height="6" style="stroke:#C82930;stroke-width:1.0;" width="6" x="629.5" y="336.4316"/><text fill="#000000" font-family="sans-serif" font-size="14" lengthAdjust="spacing" textLength="187" x="641.5" y="343.7285">schedulesByResposibleAgent</text><line style="stroke:#181818;stroke-width:0.5;" x1="622.5" x2="941.5" y1="351.2422" y2="351.2422"/><ellipse cx="632.5" cy="366.0527" fill="#84BE84" rx="3" ry="3" style="stroke:#038048;stroke-width:1.0;"/><text fill="#000000" font-family="sans-serif" font-size="14" lengthAdjust="spacing" textLength="158" x="641.5" y="370.3496">addConfirmedSchedule()</text><ellipse cx="632.5" cy="384.6738" fill="#84BE84" rx="3" ry="3" style="stroke:#038048;stroke-width:1.0;"/><text fill="#000000" font-family="sans-serif" font-size="14" lengthAdjust="spacing" textLength="149" x="641.5" y="388.9707">addRejectedSchedule()</text><ellipse cx="632.5" cy="403.2949" fill="#84BE84" rx="3" ry="3" style="stroke:#038048;stroke-width:1.0;"/><text fill="#000000" font-family="sans-serif" font-size="14" lengthAdjust="spacing" textLength="295" x="641.5" y="407.5918">getRequestScheduleListByResponsibleAgent()</text><ellipse cx="632.5" cy="421.916" fill="#84BE84" rx="3" ry="3" style="stroke:#038048;stroke-width:1.0;"/><text fill="#000000" font-family="sans-serif" font-size="14" lengthAdjust="spacing" textLength="192" x="641.5" y="426.2129">readObjectScheduleRequest()</text><ellipse cx="632.5" cy="440.5371" fill="#84BE84" rx="3" ry="3" style="stroke:#038048;stroke-width:1.0;"/><text fill="#000000" font-family="sans-serif" font-size="14" lengthAdjust="spacing" textLength="192" x="641.5" y="444.834">writeObjectScheduleRequest()</text></g><!--class Application--><g id="elem_Application"><rect fill="#F1F1F1" height="48" id="Application" rx="2.5" ry="2.5" style="stroke:#181818;stroke-width:0.5;" width="101" x="21.5" y="25.5"/><ellipse cx="36.5" cy="41.5" fill="#ADD1B2" rx="11" ry="11" style="stroke:#181818;stroke-width:1.0;"/><path d="M39.2656,37.375 Q39.4219,37.1563 39.6094,37.0469 Q39.7969,36.9375 40.0156,36.9375 Q40.3906,36.9375 40.625,37.2031 Q40.8594,37.4531 40.8594,38.0625 L40.8594,39.5156 Q40.8594,40.125 40.625,40.3906 Q40.3906,40.6563 40.0156,40.6563 Q39.6719,40.6563 39.4688,40.4531 Q39.2656,40.2656 39.1563,39.75 Q39.1094,39.3906 38.9219,39.2031 Q38.5938,38.8281 37.9844,38.6094 Q37.375,38.3906 36.75,38.3906 Q35.9844,38.3906 35.3438,38.7188 Q34.7188,39.0469 34.2188,39.7969 Q33.7344,40.5469 33.7344,41.5781 L33.7344,42.6719 Q33.7344,43.9063 34.625,44.7344 Q35.5156,45.5469 37.1094,45.5469 Q38.0469,45.5469 38.7031,45.2969 Q39.0938,45.1406 39.5156,44.7031 Q39.7813,44.4375 39.9219,44.3594 Q40.0781,44.2813 40.2813,44.2813 Q40.6094,44.2813 40.8594,44.5469 Q41.125,44.7969 41.125,45.1406 Q41.125,45.4844 40.7813,45.8906 Q40.2813,46.4688 39.4844,46.7969 Q38.4063,47.25 37.1094,47.25 Q35.5938,47.25 34.3906,46.625 Q33.4063,46.125 32.7188,45.0625 Q32.0313,43.9844 32.0313,42.7031 L32.0313,41.5469 Q32.0313,40.2188 32.6406,39.0781 Q33.2656,37.9219 34.3594,37.3125 Q35.4531,36.6875 36.6875,36.6875 Q37.4219,36.6875 38.0625,36.8594 Q38.7188,37.0156 39.2656,37.375 Z " fill="#000000"/><text fill="#000000" font-family="sans-serif" font-size="14" lengthAdjust="spacing" textLength="69" x="50.5" y="47.2969">Application</text><line style="stroke:#181818;stroke-width:0.5;" x1="22.5" x2="121.5" y1="57.5" y2="57.5"/><line style="stroke:#181818;stroke-width:0.5;" x1="22.5" x2="121.5" y1="65.5" y2="65.5"/></g><!--reverse link ValidateScheduleGUI to Runnable--><g id="link_ValidateScheduleGUI_Runnable"><path codeLine="74" d="M342.67,49.5 C347.54,49.5 352.41,49.5 357.28,49.5 " fill="none" id="ValidateScheduleGUI-backto-Runnable" style="stroke:#181818;stroke-width:1.0;"/><polygon fill="none" points="342.64,56.5,322.64,49.5,342.64,42.5,342.64,56.5" style="stroke:#181818;stroke-width:1.0;"/></g><!--link Application to ValidateScheduleGUI--><g id="link_Application_ValidateScheduleGUI"><path codeLine="75" d="M122.53,49.5 C127.44,49.5 132.34,49.5 137.24,49.5 " fill="none" id="Application-to-ValidateScheduleGUI" style="stroke:#181818;stroke-width:1.0;"/><polygon fill="none" points="137.4,42.5,157.4,49.5,137.4,56.5,137.4,42.5" style="stroke:#181818;stroke-width:1.0;"/></g><!--link ApplicationSession to ApplicationSession--><g id="link_ApplicationSession_ApplicationSession"><path codeLine="76" d="M161.21,708.77 C181.06,710.28 196,718.19 196,732.5 C196,745.58 183.52,753.32 166.21,755.7 " fill="none" id="ApplicationSession-to-ApplicationSession" style="stroke:#181818;stroke-width:1.0;"/><polygon fill="#181818" points="161.21,756.23,170.5815,759.2589,166.1821,755.7029,169.7381,751.3035,161.21,756.23" style="stroke:#181818;stroke-width:1.0;"/><text fill="#000000" font-family="sans-serif" font-size="13" lengthAdjust="spacing" textLength="49" x="202" y="738.0283">instance</text></g><!--link ApplicationSession to UserSession--><g id="link_ApplicationSession_UserSession"><path codeLine="77" d="M104.67,775.04 C123.55,812.98 151.21,868.57 169.41,905.14 " fill="none" id="ApplicationSession-to-UserSession" style="stroke:#181818;stroke-width:1.0;"/><polygon fill="#181818" points="171.8,909.94,171.3654,900.1007,169.5697,905.465,164.2054,903.6693,171.8,909.94" style="stroke:#181818;stroke-width:1.0;"/><text fill="#000000" font-family="sans-serif" font-size="13" lengthAdjust="spacing" textLength="72" x="156" y="876.0283">userSession</text><text fill="#000000" font-family="sans-serif" font-size="13" lengthAdjust="spacing" textLength="7" x="160.9216" y="898.7537">1</text></g><!--link ScheduleVisitController to ApplicationSession--><g id="link_ScheduleVisitController_ApplicationSession"><path codeLine="78" d="M151.18,573.25 C133.29,615.38 116.18,655.68 103.71,685.07 " fill="none" id="ScheduleVisitController-to-ApplicationSession" style="stroke:#181818;stroke-width:1.0;stroke-dasharray:7.0,7.0;"/><polygon fill="#181818" points="101.75,689.7,108.9542,682.9844,103.7075,685.0991,101.5928,679.8524,101.75,689.7" style="stroke:#181818;stroke-width:1.0;"/></g><!--link ScheduleVisitController to UserSession--><g id="link_ScheduleVisitController_UserSession"><path codeLine="79" d="M267.93,573.09 C273.49,654.27 273.36,747.61 257,831 C251.62,858.43 235.52,885.21 220.22,905.64 " fill="none" id="ScheduleVisitController-to-UserSession" style="stroke:#181818;stroke-width:1.0;stroke-dasharray:7.0,7.0;"/><polygon fill="#181818" points="217.18,909.64,225.8182,904.909,220.2119,905.6642,219.4568,900.0579,217.18,909.64" style="stroke:#181818;stroke-width:1.0;"/></g><!--link ValidateScheduleGUI to ScheduleVisitController--><g id="link_ValidateScheduleGUI_ScheduleVisitController"><path codeLine="81" d="M240,92.19 C240,107.92 240,127.09 240,147.88 " fill="none" id="ValidateScheduleGUI-to-ScheduleVisitController" style="stroke:#181818;stroke-width:1.0;stroke-dasharray:7.0,7.0;"/><polygon fill="#181818" points="240,152.91,244,143.91,240,147.91,236,143.91,240,152.91" style="stroke:#181818;stroke-width:1.0;"/></g><!--link ScheduleVisitController to Repositories--><g id="link_ScheduleVisitController_Repositories"><path codeLine="82" d="M400.64,363 C410.43,363 420.22,363 430.01,363 " fill="none" id="ScheduleVisitController-to-Repositories" style="stroke:#181818;stroke-width:1.0;stroke-dasharray:7.0,7.0;"/><polygon fill="#181818" points="435.13,363,426.13,359,430.13,363,426.13,367,435.13,363" style="stroke:#181818;stroke-width:1.0;"/></g><!--link Repositories to ScheduleRepository--><g id="link_Repositories_ScheduleRepository"><path codeLine="83" d="M586.69,363 C596.54,363 606.4,363 616.25,363 " fill="none" id="Repositories-to-ScheduleRepository" style="stroke:#181818;stroke-width:1.0;stroke-dasharray:7.0,7.0;"/><polygon fill="#181818" points="621.4,363,612.4,359,616.4,363,612.4,367,621.4,363" style="stroke:#181818;stroke-width:1.0;"/></g><!--link ScheduleRepository to Schedule--><g id="link_ScheduleRepository_Schedule"><path codeLine="85" d="M782,452.03 C782,505.21 782,573.23 782,628.85 " fill="none" id="ScheduleRepository-to-Schedule" style="stroke:#181818;stroke-width:1.0;"/><polygon fill="#181818" points="782,633.85,786,624.85,782,628.85,778,624.85,782,633.85" style="stroke:#181818;stroke-width:1.0;"/></g><!--SRC=[fLHDRzim3BtxLnWzRHXSODST2YHPiHKeqi5PUvTj9k4WKvv48V0-_lleH96Ln2asBAU8Ueyc-Pw8n63NgeQyz4Igqf3_p7BvlSkjfpTlizzPLclbNFwYD3QAOLLleV4QFZq_HAXZPLd0XrEhC303zKXvGOUyCCJMQ0rMw7j64G4bT4OWnlPd5pDoEx0XM36jVDKYXxEjPdKD7H_1CLp2DwWlmcOtXmtIP-Fj65fe1EAbQXFOHzMFXtjgJXcFfbQCXiR8qd32_cAnJevV-mwUrdFlaC2v4ETA7wjxHCTXVaZ8ADF-0N6aRjzlF6w0I_ZkmN5Ad_SbkCwGGv5njf5-8a4rZSnzZRQ5vaX9Bm-JchXpGCsz2AfJAyowJkEX-vKqCmmXSG9ZFHJuGFAVQaYBNdXhfQn0IbC-Ex3dkOGmX0THvlrOnAcdHXFHA5wtDGHBtrRHCuh8UAccbS-7K1FbhSGFYRXm8ZMDgWxDUHTBY6v5SCSoP0ANNZwlURowV0BH1qNCv8Amewx_g-e_-yU2Qfwgz3K5VaJiB39SW-ntGLmmXOOr5x_kfbPAbdWhBonkjd-33Cx9Yxi9R-OVv4KTl3Z94TBD-vlKWSBmYH-lhQ_RswdFlGfFRPvDRTG1T2N1zSJxCGanDMHsuiu8cTYqsOGjXw74lVa7]--></g></svg>