<?xml version="1.0" encoding="us-ascii" standalone="no"?><svg xmlns="http://www.w3.org/2000/svg" xmlns:xlink="http://www.w3.org/1999/xlink" contentStyleType="text/css" height="705px" preserveAspectRatio="none" style="width:849px;height:705px;background:#FFFFFF;" version="1.1" viewBox="0 0 849 705" width="849px" zoomAndPan="magnify"><defs/><g><!--class Runnable--><g id="elem_Runnable"><rect codeLine="2" fill="#F1F1F1" height="66.6211" id="Runnable" rx="2.5" ry="2.5" style="stroke:#181818;stroke-width:0.5;" width="93" x="335.5" y="7"/><ellipse cx="350.5" cy="23" fill="#B4A7E5" rx="11" ry="11" style="stroke:#181818;stroke-width:1.0;"/><path d="M351.4531,19.6406 L351.4531,26.2969 L353.1719,26.2969 Q353.7813,26.2969 354.0469,26.5313 Q354.3125,26.7656 354.3125,27.1563 Q354.3125,27.5313 354.0469,27.7656 Q353.7813,28 353.1719,28 L348.0313,28 Q347.4219,28 347.1563,27.7656 Q346.8906,27.5313 346.8906,27.1406 Q346.8906,26.7656 347.1563,26.5313 Q347.4219,26.2969 348.0313,26.2969 L349.75,26.2969 L349.75,19.6406 L348.0313,19.6406 Q347.4219,19.6406 347.1563,19.4063 Q346.8906,19.1719 346.8906,18.7813 Q346.8906,18.4063 347.1563,18.1719 Q347.4219,17.9375 348.0313,17.9375 L353.1719,17.9375 Q353.7813,17.9375 354.0469,18.1719 Q354.3125,18.4063 354.3125,18.7813 Q354.3125,19.1719 354.0469,19.4063 Q353.7813,19.6406 353.1719,19.6406 L351.4531,19.6406 Z " fill="#000000"/><text fill="#000000" font-family="sans-serif" font-size="14" font-style="italic" lengthAdjust="spacing" textLength="61" x="364.5" y="28.7969">Runnable</text><line style="stroke:#181818;stroke-width:0.5;" x1="336.5" x2="427.5" y1="39" y2="39"/><line style="stroke:#181818;stroke-width:0.5;" x1="336.5" x2="427.5" y1="47" y2="47"/><ellipse cx="346.5" cy="61.8105" fill="#84BE84" rx="3" ry="3" style="stroke:#038048;stroke-width:1.0;"/><text fill="#000000" font-family="sans-serif" font-size="14" lengthAdjust="spacing" textLength="31" x="355.5" y="66.1074">run()</text></g><!--class ValidateVisitUI--><g id="elem_ValidateVisitUI"><rect codeLine="6" fill="#F1F1F1" height="66.6211" id="ValidateVisitUI" rx="2.5" ry="2.5" style="stroke:#181818;stroke-width:0.5;" width="121" x="179.5" y="7"/><ellipse cx="194.5" cy="23" fill="#ADD1B2" rx="11" ry="11" style="stroke:#181818;stroke-width:1.0;"/><path d="M197.2656,18.875 Q197.4219,18.6563 197.6094,18.5469 Q197.7969,18.4375 198.0156,18.4375 Q198.3906,18.4375 198.625,18.7031 Q198.8594,18.9531 198.8594,19.5625 L198.8594,21.0156 Q198.8594,21.625 198.625,21.8906 Q198.3906,22.1563 198.0156,22.1563 Q197.6719,22.1563 197.4688,21.9531 Q197.2656,21.7656 197.1563,21.25 Q197.1094,20.8906 196.9219,20.7031 Q196.5938,20.3281 195.9844,20.1094 Q195.375,19.8906 194.75,19.8906 Q193.9844,19.8906 193.3438,20.2188 Q192.7188,20.5469 192.2188,21.2969 Q191.7344,22.0469 191.7344,23.0781 L191.7344,24.1719 Q191.7344,25.4063 192.625,26.2344 Q193.5156,27.0469 195.1094,27.0469 Q196.0469,27.0469 196.7031,26.7969 Q197.0938,26.6406 197.5156,26.2031 Q197.7813,25.9375 197.9219,25.8594 Q198.0781,25.7813 198.2813,25.7813 Q198.6094,25.7813 198.8594,26.0469 Q199.125,26.2969 199.125,26.6406 Q199.125,26.9844 198.7813,27.3906 Q198.2813,27.9688 197.4844,28.2969 Q196.4063,28.75 195.1094,28.75 Q193.5938,28.75 192.3906,28.125 Q191.4063,27.625 190.7188,26.5625 Q190.0313,25.4844 190.0313,24.2031 L190.0313,23.0469 Q190.0313,21.7188 190.6406,20.5781 Q191.2656,19.4219 192.3594,18.8125 Q193.4531,18.1875 194.6875,18.1875 Q195.4219,18.1875 196.0625,18.3594 Q196.7188,18.5156 197.2656,18.875 Z " fill="#000000"/><text fill="#000000" font-family="sans-serif" font-size="14" lengthAdjust="spacing" textLength="89" x="208.5" y="28.7969">ValidateVisitUI</text><line style="stroke:#181818;stroke-width:0.5;" x1="180.5" x2="299.5" y1="39" y2="39"/><rect fill="none" height="6" style="stroke:#C82930;stroke-width:1.0;" width="6" x="187.5" y="50.8105"/><text fill="#000000" font-family="sans-serif" font-size="14" lengthAdjust="spacing" textLength="59" x="199.5" y="58.1074">controller</text><line style="stroke:#181818;stroke-width:0.5;" x1="180.5" x2="299.5" y1="65.6211" y2="65.6211"/></g><!--class ScheduleVisitController--><g id="elem_ScheduleVisitController"><rect codeLine="10" fill="#F1F1F1" height="141.1055" id="ScheduleVisitController" rx="2.5" ry="2.5" style="stroke:#181818;stroke-width:0.5;" width="293" x="93.5" y="144.5"/><ellipse cx="162.25" cy="160.5" fill="#ADD1B2" rx="11" ry="11" style="stroke:#181818;stroke-width:1.0;"/><path d="M165.0156,156.375 Q165.1719,156.1563 165.3594,156.0469 Q165.5469,155.9375 165.7656,155.9375 Q166.1406,155.9375 166.375,156.2031 Q166.6094,156.4531 166.6094,157.0625 L166.6094,158.5156 Q166.6094,159.125 166.375,159.3906 Q166.1406,159.6563 165.7656,159.6563 Q165.4219,159.6563 165.2188,159.4531 Q165.0156,159.2656 164.9063,158.75 Q164.8594,158.3906 164.6719,158.2031 Q164.3438,157.8281 163.7344,157.6094 Q163.125,157.3906 162.5,157.3906 Q161.7344,157.3906 161.0938,157.7188 Q160.4688,158.0469 159.9688,158.7969 Q159.4844,159.5469 159.4844,160.5781 L159.4844,161.6719 Q159.4844,162.9063 160.375,163.7344 Q161.2656,164.5469 162.8594,164.5469 Q163.7969,164.5469 164.4531,164.2969 Q164.8438,164.1406 165.2656,163.7031 Q165.5313,163.4375 165.6719,163.3594 Q165.8281,163.2813 166.0313,163.2813 Q166.3594,163.2813 166.6094,163.5469 Q166.875,163.7969 166.875,164.1406 Q166.875,164.4844 166.5313,164.8906 Q166.0313,165.4688 165.2344,165.7969 Q164.1563,166.25 162.8594,166.25 Q161.3438,166.25 160.1406,165.625 Q159.1563,165.125 158.4688,164.0625 Q157.7813,162.9844 157.7813,161.7031 L157.7813,160.5469 Q157.7813,159.2188 158.3906,158.0781 Q159.0156,156.9219 160.1094,156.3125 Q161.2031,155.6875 162.4375,155.6875 Q163.1719,155.6875 163.8125,155.8594 Q164.4688,156.0156 165.0156,156.375 Z " fill="#000000"/><text fill="#000000" font-family="sans-serif" font-size="14" lengthAdjust="spacing" textLength="147" x="182.75" y="166.2969">ScheduleVisitController</text><line style="stroke:#181818;stroke-width:0.5;" x1="94.5" x2="385.5" y1="176.5" y2="176.5"/><rect fill="none" height="6" style="stroke:#C82930;stroke-width:1.0;" width="6" x="101.5" y="188.3105"/><text fill="#000000" font-family="sans-serif" font-size="14" lengthAdjust="spacing" textLength="127" x="113.5" y="195.6074">ScheduleRepository</text><line style="stroke:#181818;stroke-width:0.5;" x1="94.5" x2="385.5" y1="203.1211" y2="203.1211"/><ellipse cx="104.5" cy="217.9316" fill="#84BE84" rx="3" ry="3" style="stroke:#038048;stroke-width:1.0;"/><text fill="#000000" font-family="sans-serif" font-size="14" lengthAdjust="spacing" textLength="267" x="113.5" y="222.2285">RequestScheduleListByResposibleAgent()</text><ellipse cx="104.5" cy="236.5527" fill="#84BE84" rx="3" ry="3" style="stroke:#038048;stroke-width:1.0;"/><text fill="#000000" font-family="sans-serif" font-size="14" lengthAdjust="spacing" textLength="125" x="113.5" y="240.8496">addConfirmedVisit()</text><ellipse cx="104.5" cy="255.1738" fill="#84BE84" rx="3" ry="3" style="stroke:#038048;stroke-width:1.0;"/><text fill="#000000" font-family="sans-serif" font-size="14" lengthAdjust="spacing" textLength="137" x="113.5" y="259.4707">sendValidationEmail()</text><ellipse cx="104.5" cy="273.7949" fill="#84BE84" rx="3" ry="3" style="stroke:#038048;stroke-width:1.0;"/><text fill="#000000" font-family="sans-serif" font-size="14" lengthAdjust="spacing" textLength="150" x="113.5" y="278.0918">getAgentFromSession()</text></g><!--class ApplicationSession--><g id="elem_ApplicationSession"><rect codeLine="19" fill="#F1F1F1" height="85.2422" id="ApplicationSession" rx="2.5" ry="2.5" style="stroke:#181818;stroke-width:0.5;" width="154" x="7" y="412"/><ellipse cx="23.35" cy="428" fill="#ADD1B2" rx="11" ry="11" style="stroke:#181818;stroke-width:1.0;"/><path d="M26.1156,423.875 Q26.2719,423.6563 26.4594,423.5469 Q26.6469,423.4375 26.8656,423.4375 Q27.2406,423.4375 27.475,423.7031 Q27.7094,423.9531 27.7094,424.5625 L27.7094,426.0156 Q27.7094,426.625 27.475,426.8906 Q27.2406,427.1563 26.8656,427.1563 Q26.5219,427.1563 26.3188,426.9531 Q26.1156,426.7656 26.0063,426.25 Q25.9594,425.8906 25.7719,425.7031 Q25.4438,425.3281 24.8344,425.1094 Q24.225,424.8906 23.6,424.8906 Q22.8344,424.8906 22.1938,425.2188 Q21.5688,425.5469 21.0688,426.2969 Q20.5844,427.0469 20.5844,428.0781 L20.5844,429.1719 Q20.5844,430.4063 21.475,431.2344 Q22.3656,432.0469 23.9594,432.0469 Q24.8969,432.0469 25.5531,431.7969 Q25.9438,431.6406 26.3656,431.2031 Q26.6313,430.9375 26.7719,430.8594 Q26.9281,430.7813 27.1313,430.7813 Q27.4594,430.7813 27.7094,431.0469 Q27.975,431.2969 27.975,431.6406 Q27.975,431.9844 27.6313,432.3906 Q27.1313,432.9688 26.3344,433.2969 Q25.2563,433.75 23.9594,433.75 Q22.4438,433.75 21.2406,433.125 Q20.2563,432.625 19.5688,431.5625 Q18.8813,430.4844 18.8813,429.2031 L18.8813,428.0469 Q18.8813,426.7188 19.4906,425.5781 Q20.1156,424.4219 21.2094,423.8125 Q22.3031,423.1875 23.5375,423.1875 Q24.2719,423.1875 24.9125,423.3594 Q25.5688,423.5156 26.1156,423.875 Z " fill="#000000"/><text fill="#000000" font-family="sans-serif" font-size="14" lengthAdjust="spacing" textLength="119" x="37.65" y="433.7969">ApplicationSession</text><line style="stroke:#181818;stroke-width:0.5;" x1="8" x2="160" y1="444" y2="444"/><line style="stroke:#181818;stroke-width:0.5;" x1="8" x2="160" y1="452" y2="452"/><ellipse cx="18" cy="466.8105" fill="#84BE84" rx="3" ry="3" style="stroke:#038048;stroke-width:1.0;"/><text fill="#000000" font-family="sans-serif" font-size="14" lengthAdjust="spacing" textLength="120" x="27" y="471.1074">static getInstance()</text><ellipse cx="18" cy="485.4316" fill="#84BE84" rx="3" ry="3" style="stroke:#038048;stroke-width:1.0;"/><text fill="#000000" font-family="sans-serif" font-size="14" lengthAdjust="spacing" textLength="128" x="27" y="489.7285">getCurrentSession()</text></g><!--class UserSession--><g id="elem_UserSession"><rect codeLine="25" fill="#F1F1F1" height="66.6211" id="UserSession" rx="2.5" ry="2.5" style="stroke:#181818;stroke-width:0.5;" width="171" x="102.5" y="632"/><ellipse cx="144.5" cy="648" fill="#ADD1B2" rx="11" ry="11" style="stroke:#181818;stroke-width:1.0;"/><path d="M147.2656,643.875 Q147.4219,643.6563 147.6094,643.5469 Q147.7969,643.4375 148.0156,643.4375 Q148.3906,643.4375 148.625,643.7031 Q148.8594,643.9531 148.8594,644.5625 L148.8594,646.0156 Q148.8594,646.625 148.625,646.8906 Q148.3906,647.1563 148.0156,647.1563 Q147.6719,647.1563 147.4688,646.9531 Q147.2656,646.7656 147.1563,646.25 Q147.1094,645.8906 146.9219,645.7031 Q146.5938,645.3281 145.9844,645.1094 Q145.375,644.8906 144.75,644.8906 Q143.9844,644.8906 143.3438,645.2188 Q142.7188,645.5469 142.2188,646.2969 Q141.7344,647.0469 141.7344,648.0781 L141.7344,649.1719 Q141.7344,650.4063 142.625,651.2344 Q143.5156,652.0469 145.1094,652.0469 Q146.0469,652.0469 146.7031,651.7969 Q147.0938,651.6406 147.5156,651.2031 Q147.7813,650.9375 147.9219,650.8594 Q148.0781,650.7813 148.2813,650.7813 Q148.6094,650.7813 148.8594,651.0469 Q149.125,651.2969 149.125,651.6406 Q149.125,651.9844 148.7813,652.3906 Q148.2813,652.9688 147.4844,653.2969 Q146.4063,653.75 145.1094,653.75 Q143.5938,653.75 142.3906,653.125 Q141.4063,652.625 140.7188,651.5625 Q140.0313,650.4844 140.0313,649.2031 L140.0313,648.0469 Q140.0313,646.7188 140.6406,645.5781 Q141.2656,644.4219 142.3594,643.8125 Q143.4531,643.1875 144.6875,643.1875 Q145.4219,643.1875 146.0625,643.3594 Q146.7188,643.5156 147.2656,643.875 Z " fill="#000000"/><text fill="#000000" font-family="sans-serif" font-size="14" lengthAdjust="spacing" textLength="79" x="164.5" y="653.7969">UserSession</text><line style="stroke:#181818;stroke-width:0.5;" x1="103.5" x2="272.5" y1="664" y2="664"/><line style="stroke:#181818;stroke-width:0.5;" x1="103.5" x2="272.5" y1="672" y2="672"/><ellipse cx="113.5" cy="686.8105" fill="#84BE84" rx="3" ry="3" style="stroke:#038048;stroke-width:1.0;"/><text fill="#000000" font-family="sans-serif" font-size="14" lengthAdjust="spacing" textLength="145" x="122.5" y="691.1074">getUserNameByEmail()</text></g><!--class Schedule--><g id="elem_Schedule"><rect codeLine="29" fill="#F1F1F1" height="196.9688" id="Schedule" rx="2.5" ry="2.5" style="stroke:#181818;stroke-width:0.5;" width="120" x="665" y="356"/><ellipse cx="693.05" cy="372" fill="#ADD1B2" rx="11" ry="11" style="stroke:#181818;stroke-width:1.0;"/><path d="M695.8156,367.875 Q695.9719,367.6563 696.1594,367.5469 Q696.3469,367.4375 696.5656,367.4375 Q696.9406,367.4375 697.175,367.7031 Q697.4094,367.9531 697.4094,368.5625 L697.4094,370.0156 Q697.4094,370.625 697.175,370.8906 Q696.9406,371.1563 696.5656,371.1563 Q696.2219,371.1563 696.0188,370.9531 Q695.8156,370.7656 695.7063,370.25 Q695.6594,369.8906 695.4719,369.7031 Q695.1438,369.3281 694.5344,369.1094 Q693.925,368.8906 693.3,368.8906 Q692.5344,368.8906 691.8938,369.2188 Q691.2688,369.5469 690.7688,370.2969 Q690.2844,371.0469 690.2844,372.0781 L690.2844,373.1719 Q690.2844,374.4063 691.175,375.2344 Q692.0656,376.0469 693.6594,376.0469 Q694.5969,376.0469 695.2531,375.7969 Q695.6438,375.6406 696.0656,375.2031 Q696.3313,374.9375 696.4719,374.8594 Q696.6281,374.7813 696.8313,374.7813 Q697.1594,374.7813 697.4094,375.0469 Q697.675,375.2969 697.675,375.6406 Q697.675,375.9844 697.3313,376.3906 Q696.8313,376.9688 696.0344,377.2969 Q694.9563,377.75 693.6594,377.75 Q692.1438,377.75 690.9406,377.125 Q689.9563,376.625 689.2688,375.5625 Q688.5813,374.4844 688.5813,373.2031 L688.5813,372.0469 Q688.5813,370.7188 689.1906,369.5781 Q689.8156,368.4219 690.9094,367.8125 Q692.0031,367.1875 693.2375,367.1875 Q693.9719,367.1875 694.6125,367.3594 Q695.2688,367.5156 695.8156,367.875 Z " fill="#000000"/><text fill="#000000" font-family="sans-serif" font-size="14" lengthAdjust="spacing" textLength="59" x="709.95" y="377.7969">Schedule</text><line style="stroke:#181818;stroke-width:0.5;" x1="666" x2="784" y1="388" y2="388"/><rect fill="none" height="6" style="stroke:#C82930;stroke-width:1.0;" width="6" x="673" y="399.8105"/><text fill="#000000" font-family="sans-serif" font-size="14" lengthAdjust="spacing" textLength="35" x="685" y="407.1074">name</text><rect fill="none" height="6" style="stroke:#C82930;stroke-width:1.0;" width="6" x="673" y="418.4316"/><text fill="#000000" font-family="sans-serif" font-size="14" lengthAdjust="spacing" textLength="89" x="685" y="425.7285">phoneNumber</text><rect fill="none" height="6" style="stroke:#C82930;stroke-width:1.0;" width="6" x="673" y="437.0527"/><text fill="#000000" font-family="sans-serif" font-size="14" lengthAdjust="spacing" textLength="94" x="685" y="444.3496">announcement</text><rect fill="none" height="6" style="stroke:#C82930;stroke-width:1.0;" width="6" x="673" y="455.6738"/><text fill="#000000" font-family="sans-serif" font-size="14" lengthAdjust="spacing" textLength="23" x="685" y="462.9707">day</text><rect fill="none" height="6" style="stroke:#C82930;stroke-width:1.0;" width="6" x="673" y="474.2949"/><text fill="#000000" font-family="sans-serif" font-size="14" lengthAdjust="spacing" textLength="57" x="685" y="481.5918">begiHour</text><rect fill="none" height="6" style="stroke:#C82930;stroke-width:1.0;" width="6" x="673" y="492.916"/><text fill="#000000" font-family="sans-serif" font-size="14" lengthAdjust="spacing" textLength="54" x="685" y="500.2129">endHour</text><rect fill="none" height="6" style="stroke:#C82930;stroke-width:1.0;" width="6" x="673" y="511.5371"/><text fill="#000000" font-family="sans-serif" font-size="14" lengthAdjust="spacing" textLength="28" x="685" y="518.834">note</text><rect fill="none" height="6" style="stroke:#C82930;stroke-width:1.0;" width="6" x="673" y="530.1582"/><text fill="#000000" font-family="sans-serif" font-size="14" lengthAdjust="spacing" textLength="38" x="685" y="537.4551">status</text><line style="stroke:#181818;stroke-width:0.5;" x1="666" x2="784" y1="544.9688" y2="544.9688"/></g><!--class Repositories--><g id="elem_Repositories"><rect codeLine="40" fill="#F1F1F1" height="66.6211" id="Repositories" rx="2.5" ry="2.5" style="stroke:#181818;stroke-width:0.5;" width="151" x="421.5" y="181.5"/><ellipse cx="454.5" cy="197.5" fill="#ADD1B2" rx="11" ry="11" style="stroke:#181818;stroke-width:1.0;"/><path d="M457.2656,193.375 Q457.4219,193.1563 457.6094,193.0469 Q457.7969,192.9375 458.0156,192.9375 Q458.3906,192.9375 458.625,193.2031 Q458.8594,193.4531 458.8594,194.0625 L458.8594,195.5156 Q458.8594,196.125 458.625,196.3906 Q458.3906,196.6563 458.0156,196.6563 Q457.6719,196.6563 457.4688,196.4531 Q457.2656,196.2656 457.1563,195.75 Q457.1094,195.3906 456.9219,195.2031 Q456.5938,194.8281 455.9844,194.6094 Q455.375,194.3906 454.75,194.3906 Q453.9844,194.3906 453.3438,194.7188 Q452.7188,195.0469 452.2188,195.7969 Q451.7344,196.5469 451.7344,197.5781 L451.7344,198.6719 Q451.7344,199.9063 452.625,200.7344 Q453.5156,201.5469 455.1094,201.5469 Q456.0469,201.5469 456.7031,201.2969 Q457.0938,201.1406 457.5156,200.7031 Q457.7813,200.4375 457.9219,200.3594 Q458.0781,200.2813 458.2813,200.2813 Q458.6094,200.2813 458.8594,200.5469 Q459.125,200.7969 459.125,201.1406 Q459.125,201.4844 458.7813,201.8906 Q458.2813,202.4688 457.4844,202.7969 Q456.4063,203.25 455.1094,203.25 Q453.5938,203.25 452.3906,202.625 Q451.4063,202.125 450.7188,201.0625 Q450.0313,199.9844 450.0313,198.7031 L450.0313,197.5469 Q450.0313,196.2188 450.6406,195.0781 Q451.2656,193.9219 452.3594,193.3125 Q453.4531,192.6875 454.6875,192.6875 Q455.4219,192.6875 456.0625,192.8594 Q456.7188,193.0156 457.2656,193.375 Z " fill="#000000"/><text fill="#000000" font-family="sans-serif" font-size="14" lengthAdjust="spacing" textLength="79" x="472.5" y="203.2969">Repositories</text><line style="stroke:#181818;stroke-width:0.5;" x1="422.5" x2="571.5" y1="213.5" y2="213.5"/><ellipse cx="432.5" cy="228.3105" fill="none" rx="3" ry="3" style="stroke:#038048;stroke-width:1.0;"/><text fill="#000000" font-family="sans-serif" font-size="14" lengthAdjust="spacing" textLength="125" x="441.5" y="232.6074">scheduleRepository</text><line style="stroke:#181818;stroke-width:0.5;" x1="422.5" x2="571.5" y1="240.1211" y2="240.1211"/></g><!--class ScheduleRepository--><g id="elem_ScheduleRepository"><rect codeLine="44" fill="#F1F1F1" height="159.7266" id="ScheduleRepository" rx="2.5" ry="2.5" style="stroke:#181818;stroke-width:0.5;" width="235" x="607.5" y="135"/><ellipse cx="657.25" cy="151" fill="#ADD1B2" rx="11" ry="11" style="stroke:#181818;stroke-width:1.0;"/><path d="M660.0156,146.875 Q660.1719,146.6563 660.3594,146.5469 Q660.5469,146.4375 660.7656,146.4375 Q661.1406,146.4375 661.375,146.7031 Q661.6094,146.9531 661.6094,147.5625 L661.6094,149.0156 Q661.6094,149.625 661.375,149.8906 Q661.1406,150.1563 660.7656,150.1563 Q660.4219,150.1563 660.2188,149.9531 Q660.0156,149.7656 659.9063,149.25 Q659.8594,148.8906 659.6719,148.7031 Q659.3438,148.3281 658.7344,148.1094 Q658.125,147.8906 657.5,147.8906 Q656.7344,147.8906 656.0938,148.2188 Q655.4688,148.5469 654.9688,149.2969 Q654.4844,150.0469 654.4844,151.0781 L654.4844,152.1719 Q654.4844,153.4063 655.375,154.2344 Q656.2656,155.0469 657.8594,155.0469 Q658.7969,155.0469 659.4531,154.7969 Q659.8438,154.6406 660.2656,154.2031 Q660.5313,153.9375 660.6719,153.8594 Q660.8281,153.7813 661.0313,153.7813 Q661.3594,153.7813 661.6094,154.0469 Q661.875,154.2969 661.875,154.6406 Q661.875,154.9844 661.5313,155.3906 Q661.0313,155.9688 660.2344,156.2969 Q659.1563,156.75 657.8594,156.75 Q656.3438,156.75 655.1406,156.125 Q654.1563,155.625 653.4688,154.5625 Q652.7813,153.4844 652.7813,152.2031 L652.7813,151.0469 Q652.7813,149.7188 653.3906,148.5781 Q654.0156,147.4219 655.1094,146.8125 Q656.2031,146.1875 657.4375,146.1875 Q658.1719,146.1875 658.8125,146.3594 Q659.4688,146.5156 660.0156,146.875 Z " fill="#000000"/><text fill="#000000" font-family="sans-serif" font-size="14" lengthAdjust="spacing" textLength="127" x="677.75" y="156.7969">ScheduleRepository</text><line style="stroke:#181818;stroke-width:0.5;" x1="608.5" x2="841.5" y1="167" y2="167"/><rect fill="none" height="6" style="stroke:#C82930;stroke-width:1.0;" width="6" x="615.5" y="178.8105"/><text fill="#000000" font-family="sans-serif" font-size="14" lengthAdjust="spacing" textLength="81" x="627.5" y="186.1074">ScheduleList</text><rect fill="none" height="6" style="stroke:#C82930;stroke-width:1.0;" width="6" x="615.5" y="197.4316"/><text fill="#000000" font-family="sans-serif" font-size="14" lengthAdjust="spacing" textLength="146" x="627.5" y="204.7285">ConfirmedScheduleList</text><line style="stroke:#181818;stroke-width:0.5;" x1="608.5" x2="841.5" y1="212.2422" y2="212.2422"/><ellipse cx="618.5" cy="227.0527" fill="#84BE84" rx="3" ry="3" style="stroke:#038048;stroke-width:1.0;"/><text fill="#000000" font-family="sans-serif" font-size="14" lengthAdjust="spacing" textLength="158" x="627.5" y="231.3496">addConfirmedSchedule()</text><ellipse cx="618.5" cy="245.6738" fill="#84BE84" rx="3" ry="3" style="stroke:#038048;stroke-width:1.0;"/><text fill="#000000" font-family="sans-serif" font-size="14" lengthAdjust="spacing" textLength="209" x="627.5" y="249.9707">removeScheduleFromRequests()</text><ellipse cx="618.5" cy="264.2949" fill="#84BE84" rx="3" ry="3" style="stroke:#038048;stroke-width:1.0;"/><text fill="#000000" font-family="sans-serif" font-size="14" lengthAdjust="spacing" textLength="111" x="627.5" y="268.5918">getScheduleList()</text><ellipse cx="618.5" cy="282.916" fill="#84BE84" rx="3" ry="3" style="stroke:#038048;stroke-width:1.0;"/><text fill="#000000" font-family="sans-serif" font-size="14" lengthAdjust="spacing" textLength="164" x="627.5" y="287.2129">getScheduleListAsString()</text></g><!--reverse link ValidateVisitUI to Runnable--><g id="link_ValidateVisitUI_Runnable"><path codeLine="55" d="M320.74,40.5 C325.61,40.5 330.47,40.5 335.34,40.5 " fill="none" id="ValidateVisitUI-backto-Runnable" style="stroke:#181818;stroke-width:1.0;"/><polygon fill="none" points="320.74,47.5,300.74,40.5,320.74,33.5,320.74,47.5" style="stroke:#181818;stroke-width:1.0;"/></g><!--link ApplicationSession to ApplicationSession--><g id="link_ApplicationSession_ApplicationSession"><path codeLine="56" d="M161.21,430.77 C181.06,432.28 196,440.19 196,454.5 C196,467.58 183.52,475.32 166.21,477.7 " fill="none" id="ApplicationSession-to-ApplicationSession" style="stroke:#181818;stroke-width:1.0;"/><polygon fill="#181818" points="161.21,478.23,170.5815,481.2589,166.1821,477.7029,169.7381,473.3035,161.21,478.23" style="stroke:#181818;stroke-width:1.0;"/><text fill="#000000" font-family="sans-serif" font-size="13" lengthAdjust="spacing" textLength="49" x="202" y="460.0283">instance</text></g><!--link ApplicationSession to UserSession--><g id="link_ApplicationSession_UserSession"><path codeLine="57" d="M104.67,497.04 C123.55,534.98 151.21,590.57 169.41,627.14 " fill="none" id="ApplicationSession-to-UserSession" style="stroke:#181818;stroke-width:1.0;"/><polygon fill="#181818" points="171.8,631.94,171.3654,622.1007,169.5697,627.465,164.2054,625.6693,171.8,631.94" style="stroke:#181818;stroke-width:1.0;"/><text fill="#000000" font-family="sans-serif" font-size="13" lengthAdjust="spacing" textLength="72" x="156" y="598.0283">userSession</text><text fill="#000000" font-family="sans-serif" font-size="13" lengthAdjust="spacing" textLength="7" x="160.9216" y="620.7537">1</text></g><!--link ScheduleVisitController to ApplicationSession--><g id="link_ScheduleVisitController_ApplicationSession"><path codeLine="58" d="M194.25,285.65 C168.52,324.82 137.12,372.64 114.41,407.2 " fill="none" id="ScheduleVisitController-to-ApplicationSession" style="stroke:#181818;stroke-width:1.0;stroke-dasharray:7.0,7.0;"/><polygon fill="#181818" points="111.41,411.77,119.6885,406.4346,114.1505,407.5879,112.9972,402.0499,111.41,411.77" style="stroke:#181818;stroke-width:1.0;"/></g><!--link ScheduleVisitController to UserSession--><g id="link_ScheduleVisitController_UserSession"><path codeLine="59" d="M253.3,285.76 C264.1,354.41 274.88,461.89 257,553 C251.62,580.43 235.52,607.21 220.22,627.64 " fill="none" id="ScheduleVisitController-to-UserSession" style="stroke:#181818;stroke-width:1.0;stroke-dasharray:7.0,7.0;"/><polygon fill="#181818" points="217.18,631.64,225.8182,626.909,220.2119,627.6642,219.4568,622.0579,217.18,631.64" style="stroke:#181818;stroke-width:1.0;"/></g><!--link ValidateVisitUI to ScheduleVisitController--><g id="link_ValidateVisitUI_ScheduleVisitController"><path codeLine="61" d="M240,74.35 C240,92.8 240,116.62 240,139.35 " fill="none" id="ValidateVisitUI-to-ScheduleVisitController" style="stroke:#181818;stroke-width:1.0;stroke-dasharray:7.0,7.0;"/><polygon fill="#181818" points="240,144.49,244,135.49,240,139.49,236,135.49,240,144.49" style="stroke:#181818;stroke-width:1.0;"/></g><!--link ScheduleVisitController to Repositories--><g id="link_ScheduleVisitController_Repositories"><path codeLine="62" d="M386.57,215 C396.37,215 406.16,215 415.96,215 " fill="none" id="ScheduleVisitController-to-Repositories" style="stroke:#181818;stroke-width:1.0;"/><polygon fill="#181818" points="421.08,215,412.08,211,416.08,215,412.08,219,421.08,215" style="stroke:#181818;stroke-width:1.0;"/></g><!--link Repositories to ScheduleRepository--><g id="link_Repositories_ScheduleRepository"><path codeLine="63" d="M572.7,215 C582.5,215 592.29,215 602.09,215 " fill="none" id="Repositories-to-ScheduleRepository" style="stroke:#181818;stroke-width:1.0;"/><polygon fill="#181818" points="607.21,215,598.21,211,602.21,215,598.21,219,607.21,215" style="stroke:#181818;stroke-width:1.0;"/></g><!--link ScheduleRepository to Schedule--><g id="link_ScheduleRepository_Schedule"><path codeLine="65" d="M725,295.08 C725,312.85 725,331.94 725,350.52 " fill="none" id="ScheduleRepository-to-Schedule" style="stroke:#181818;stroke-width:1.0;"/><polygon fill="#181818" points="725,355.74,729,346.74,725,350.74,721,346.74,725,355.74" style="stroke:#181818;stroke-width:1.0;"/></g><!--SRC=[VLDDRy8m3BtdLqGxRPgAjEiEI80s3MdYK0Jtq9eIAKswV4ogDlxxN9g4KDhrbDhFpo_s2vSMz94LG7Cd9Ji8e3-4ulTCjPEFJ-HCI26OCNJF12-PXJqttExM7fRHGachbH2WhzXjSOBIYHwxYe1O4_8vD0eHIhV4DytXou6n0V39ZLssEPWEX-8M5KYBgdemAqiaFt9TGtbf5JC6PEa5SoNVQiP5p5LWBpJlMjLRC0O1wJqNJIDuSQdpMH8cOYo6YuvWBV4i2qX9Lqvhf1sXt1dGGouiwC8RLiEo3GBFW_dXmFp49EByiJaf2HjN7t3YVOH9gHoggR6z3vMizQS3LFn3kO35mIH_Kjb0srtEcIWXheQ32J9m0lUB6sg-fgxgqtNwK5pSNUvsho4T9wsXLjyGmjqIlMTCkeoKTIg-C5khkQpwLP7u0381HvlzpeUM9_VMeDbyn33qbN9laD4QB7fuUKXjWHKkCSdK-vdDnjhz2q-zHuPlk0DC54-IelZK6-J6ADbyz6sFU2DBeEGF]--></g></svg>