<?xml version="1.0" encoding="us-ascii" standalone="no"?><svg xmlns="http://www.w3.org/2000/svg" xmlns:xlink="http://www.w3.org/1999/xlink" contentStyleType="text/css" height="723px" preserveAspectRatio="none" style="width:923px;height:723px;background:#FFFFFF;" version="1.1" viewBox="0 0 923 723" width="923px" zoomAndPan="magnify"><defs/><g><!--class Runnable--><g id="elem_Runnable"><rect codeLine="2" fill="#F1F1F1" height="66.6211" id="Runnable" rx="2.5" ry="2.5" style="stroke:#181818;stroke-width:0.5;" width="93" x="325.5" y="7"/><ellipse cx="340.5" cy="23" fill="#B4A7E5" rx="11" ry="11" style="stroke:#181818;stroke-width:1.0;"/><path d="M341.4531,19.6406 L341.4531,26.2969 L343.1719,26.2969 Q343.7813,26.2969 344.0469,26.5313 Q344.3125,26.7656 344.3125,27.1563 Q344.3125,27.5313 344.0469,27.7656 Q343.7813,28 343.1719,28 L338.0313,28 Q337.4219,28 337.1563,27.7656 Q336.8906,27.5313 336.8906,27.1406 Q336.8906,26.7656 337.1563,26.5313 Q337.4219,26.2969 338.0313,26.2969 L339.75,26.2969 L339.75,19.6406 L338.0313,19.6406 Q337.4219,19.6406 337.1563,19.4063 Q336.8906,19.1719 336.8906,18.7813 Q336.8906,18.4063 337.1563,18.1719 Q337.4219,17.9375 338.0313,17.9375 L343.1719,17.9375 Q343.7813,17.9375 344.0469,18.1719 Q344.3125,18.4063 344.3125,18.7813 Q344.3125,19.1719 344.0469,19.4063 Q343.7813,19.6406 343.1719,19.6406 L341.4531,19.6406 Z " fill="#000000"/><text fill="#000000" font-family="sans-serif" font-size="14" font-style="italic" lengthAdjust="spacing" textLength="61" x="354.5" y="28.7969">Runnable</text><line style="stroke:#181818;stroke-width:0.5;" x1="326.5" x2="417.5" y1="39" y2="39"/><line style="stroke:#181818;stroke-width:0.5;" x1="326.5" x2="417.5" y1="47" y2="47"/><ellipse cx="336.5" cy="61.8105" fill="#84BE84" rx="3" ry="3" style="stroke:#038048;stroke-width:1.0;"/><text fill="#000000" font-family="sans-serif" font-size="14" lengthAdjust="spacing" textLength="31" x="345.5" y="66.1074">run()</text></g><!--class ValidateVisitUI--><g id="elem_ValidateVisitUI"><rect codeLine="6" fill="#F1F1F1" height="66.6211" id="ValidateVisitUI" rx="2.5" ry="2.5" style="stroke:#181818;stroke-width:0.5;" width="121" x="169.5" y="7"/><ellipse cx="184.5" cy="23" fill="#ADD1B2" rx="11" ry="11" style="stroke:#181818;stroke-width:1.0;"/><path d="M187.2656,18.875 Q187.4219,18.6563 187.6094,18.5469 Q187.7969,18.4375 188.0156,18.4375 Q188.3906,18.4375 188.625,18.7031 Q188.8594,18.9531 188.8594,19.5625 L188.8594,21.0156 Q188.8594,21.625 188.625,21.8906 Q188.3906,22.1563 188.0156,22.1563 Q187.6719,22.1563 187.4688,21.9531 Q187.2656,21.7656 187.1563,21.25 Q187.1094,20.8906 186.9219,20.7031 Q186.5938,20.3281 185.9844,20.1094 Q185.375,19.8906 184.75,19.8906 Q183.9844,19.8906 183.3438,20.2188 Q182.7188,20.5469 182.2188,21.2969 Q181.7344,22.0469 181.7344,23.0781 L181.7344,24.1719 Q181.7344,25.4063 182.625,26.2344 Q183.5156,27.0469 185.1094,27.0469 Q186.0469,27.0469 186.7031,26.7969 Q187.0938,26.6406 187.5156,26.2031 Q187.7813,25.9375 187.9219,25.8594 Q188.0781,25.7813 188.2813,25.7813 Q188.6094,25.7813 188.8594,26.0469 Q189.125,26.2969 189.125,26.6406 Q189.125,26.9844 188.7813,27.3906 Q188.2813,27.9688 187.4844,28.2969 Q186.4063,28.75 185.1094,28.75 Q183.5938,28.75 182.3906,28.125 Q181.4063,27.625 180.7188,26.5625 Q180.0313,25.4844 180.0313,24.2031 L180.0313,23.0469 Q180.0313,21.7188 180.6406,20.5781 Q181.2656,19.4219 182.3594,18.8125 Q183.4531,18.1875 184.6875,18.1875 Q185.4219,18.1875 186.0625,18.3594 Q186.7188,18.5156 187.2656,18.875 Z " fill="#000000"/><text fill="#000000" font-family="sans-serif" font-size="14" lengthAdjust="spacing" textLength="89" x="198.5" y="28.7969">ValidateVisitUI</text><line style="stroke:#181818;stroke-width:0.5;" x1="170.5" x2="289.5" y1="39" y2="39"/><rect fill="none" height="6" style="stroke:#C82930;stroke-width:1.0;" width="6" x="177.5" y="50.8105"/><text fill="#000000" font-family="sans-serif" font-size="14" lengthAdjust="spacing" textLength="59" x="189.5" y="58.1074">controller</text><line style="stroke:#181818;stroke-width:0.5;" x1="170.5" x2="289.5" y1="65.6211" y2="65.6211"/></g><!--class ScheduleVisitController--><g id="elem_ScheduleVisitController"><rect codeLine="10" fill="#F1F1F1" height="159.7266" id="ScheduleVisitController" rx="2.5" ry="2.5" style="stroke:#181818;stroke-width:0.5;" width="288" x="86" y="144"/><ellipse cx="152.25" cy="160" fill="#ADD1B2" rx="11" ry="11" style="stroke:#181818;stroke-width:1.0;"/><path d="M155.0156,155.875 Q155.1719,155.6563 155.3594,155.5469 Q155.5469,155.4375 155.7656,155.4375 Q156.1406,155.4375 156.375,155.7031 Q156.6094,155.9531 156.6094,156.5625 L156.6094,158.0156 Q156.6094,158.625 156.375,158.8906 Q156.1406,159.1563 155.7656,159.1563 Q155.4219,159.1563 155.2188,158.9531 Q155.0156,158.7656 154.9063,158.25 Q154.8594,157.8906 154.6719,157.7031 Q154.3438,157.3281 153.7344,157.1094 Q153.125,156.8906 152.5,156.8906 Q151.7344,156.8906 151.0938,157.2188 Q150.4688,157.5469 149.9688,158.2969 Q149.4844,159.0469 149.4844,160.0781 L149.4844,161.1719 Q149.4844,162.4063 150.375,163.2344 Q151.2656,164.0469 152.8594,164.0469 Q153.7969,164.0469 154.4531,163.7969 Q154.8438,163.6406 155.2656,163.2031 Q155.5313,162.9375 155.6719,162.8594 Q155.8281,162.7813 156.0313,162.7813 Q156.3594,162.7813 156.6094,163.0469 Q156.875,163.2969 156.875,163.6406 Q156.875,163.9844 156.5313,164.3906 Q156.0313,164.9688 155.2344,165.2969 Q154.1563,165.75 152.8594,165.75 Q151.3438,165.75 150.1406,165.125 Q149.1563,164.625 148.4688,163.5625 Q147.7813,162.4844 147.7813,161.2031 L147.7813,160.0469 Q147.7813,158.7188 148.3906,157.5781 Q149.0156,156.4219 150.1094,155.8125 Q151.2031,155.1875 152.4375,155.1875 Q153.1719,155.1875 153.8125,155.3594 Q154.4688,155.5156 155.0156,155.875 Z " fill="#000000"/><text fill="#000000" font-family="sans-serif" font-size="14" lengthAdjust="spacing" textLength="147" x="172.75" y="165.7969">ScheduleVisitController</text><line style="stroke:#181818;stroke-width:0.5;" x1="87" x2="373" y1="176" y2="176"/><rect fill="none" height="6" style="stroke:#C82930;stroke-width:1.0;" width="6" x="94" y="187.8105"/><text fill="#000000" font-family="sans-serif" font-size="14" lengthAdjust="spacing" textLength="127" x="106" y="195.1074">ScheduleRepository</text><line style="stroke:#181818;stroke-width:0.5;" x1="87" x2="373" y1="202.6211" y2="202.6211"/><ellipse cx="97" cy="217.4316" fill="#84BE84" rx="3" ry="3" style="stroke:#038048;stroke-width:1.0;"/><text fill="#000000" font-family="sans-serif" font-size="14" lengthAdjust="spacing" textLength="262" x="106" y="221.7285">requestScheduleListByResposibleAgent()</text><ellipse cx="97" cy="236.0527" fill="#84BE84" rx="3" ry="3" style="stroke:#038048;stroke-width:1.0;"/><text fill="#000000" font-family="sans-serif" font-size="14" lengthAdjust="spacing" textLength="158" x="106" y="240.3496">addConfirmedSchedule()</text><ellipse cx="97" cy="254.6738" fill="#84BE84" rx="3" ry="3" style="stroke:#038048;stroke-width:1.0;"/><text fill="#000000" font-family="sans-serif" font-size="14" lengthAdjust="spacing" textLength="149" x="106" y="258.9707">addRejectedSchedule()</text><ellipse cx="97" cy="273.2949" fill="#84BE84" rx="3" ry="3" style="stroke:#038048;stroke-width:1.0;"/><text fill="#000000" font-family="sans-serif" font-size="14" lengthAdjust="spacing" textLength="75" x="106" y="277.5918">sendEmail()</text><ellipse cx="97" cy="291.916" fill="#84BE84" rx="3" ry="3" style="stroke:#038048;stroke-width:1.0;"/><text fill="#000000" font-family="sans-serif" font-size="14" lengthAdjust="spacing" textLength="150" x="106" y="296.2129">getAgentFromSession()</text></g><!--class ApplicationSession--><g id="elem_ApplicationSession"><rect codeLine="20" fill="#F1F1F1" height="85.2422" id="ApplicationSession" rx="2.5" ry="2.5" style="stroke:#181818;stroke-width:0.5;" width="154" x="7" y="430"/><ellipse cx="23.35" cy="446" fill="#ADD1B2" rx="11" ry="11" style="stroke:#181818;stroke-width:1.0;"/><path d="M26.1156,441.875 Q26.2719,441.6563 26.4594,441.5469 Q26.6469,441.4375 26.8656,441.4375 Q27.2406,441.4375 27.475,441.7031 Q27.7094,441.9531 27.7094,442.5625 L27.7094,444.0156 Q27.7094,444.625 27.475,444.8906 Q27.2406,445.1563 26.8656,445.1563 Q26.5219,445.1563 26.3188,444.9531 Q26.1156,444.7656 26.0063,444.25 Q25.9594,443.8906 25.7719,443.7031 Q25.4438,443.3281 24.8344,443.1094 Q24.225,442.8906 23.6,442.8906 Q22.8344,442.8906 22.1938,443.2188 Q21.5688,443.5469 21.0688,444.2969 Q20.5844,445.0469 20.5844,446.0781 L20.5844,447.1719 Q20.5844,448.4063 21.475,449.2344 Q22.3656,450.0469 23.9594,450.0469 Q24.8969,450.0469 25.5531,449.7969 Q25.9438,449.6406 26.3656,449.2031 Q26.6313,448.9375 26.7719,448.8594 Q26.9281,448.7813 27.1313,448.7813 Q27.4594,448.7813 27.7094,449.0469 Q27.975,449.2969 27.975,449.6406 Q27.975,449.9844 27.6313,450.3906 Q27.1313,450.9688 26.3344,451.2969 Q25.2563,451.75 23.9594,451.75 Q22.4438,451.75 21.2406,451.125 Q20.2563,450.625 19.5688,449.5625 Q18.8813,448.4844 18.8813,447.2031 L18.8813,446.0469 Q18.8813,444.7188 19.4906,443.5781 Q20.1156,442.4219 21.2094,441.8125 Q22.3031,441.1875 23.5375,441.1875 Q24.2719,441.1875 24.9125,441.3594 Q25.5688,441.5156 26.1156,441.875 Z " fill="#000000"/><text fill="#000000" font-family="sans-serif" font-size="14" lengthAdjust="spacing" textLength="119" x="37.65" y="451.7969">ApplicationSession</text><line style="stroke:#181818;stroke-width:0.5;" x1="8" x2="160" y1="462" y2="462"/><line style="stroke:#181818;stroke-width:0.5;" x1="8" x2="160" y1="470" y2="470"/><ellipse cx="18" cy="484.8105" fill="#84BE84" rx="3" ry="3" style="stroke:#038048;stroke-width:1.0;"/><text fill="#000000" font-family="sans-serif" font-size="14" lengthAdjust="spacing" textLength="120" x="27" y="489.1074">static getInstance()</text><ellipse cx="18" cy="503.4316" fill="#84BE84" rx="3" ry="3" style="stroke:#038048;stroke-width:1.0;"/><text fill="#000000" font-family="sans-serif" font-size="14" lengthAdjust="spacing" textLength="128" x="27" y="507.7285">getCurrentSession()</text></g><!--class UserSession--><g id="elem_UserSession"><rect codeLine="26" fill="#F1F1F1" height="66.6211" id="UserSession" rx="2.5" ry="2.5" style="stroke:#181818;stroke-width:0.5;" width="171" x="102.5" y="650"/><ellipse cx="144.5" cy="666" fill="#ADD1B2" rx="11" ry="11" style="stroke:#181818;stroke-width:1.0;"/><path d="M147.2656,661.875 Q147.4219,661.6563 147.6094,661.5469 Q147.7969,661.4375 148.0156,661.4375 Q148.3906,661.4375 148.625,661.7031 Q148.8594,661.9531 148.8594,662.5625 L148.8594,664.0156 Q148.8594,664.625 148.625,664.8906 Q148.3906,665.1563 148.0156,665.1563 Q147.6719,665.1563 147.4688,664.9531 Q147.2656,664.7656 147.1563,664.25 Q147.1094,663.8906 146.9219,663.7031 Q146.5938,663.3281 145.9844,663.1094 Q145.375,662.8906 144.75,662.8906 Q143.9844,662.8906 143.3438,663.2188 Q142.7188,663.5469 142.2188,664.2969 Q141.7344,665.0469 141.7344,666.0781 L141.7344,667.1719 Q141.7344,668.4063 142.625,669.2344 Q143.5156,670.0469 145.1094,670.0469 Q146.0469,670.0469 146.7031,669.7969 Q147.0938,669.6406 147.5156,669.2031 Q147.7813,668.9375 147.9219,668.8594 Q148.0781,668.7813 148.2813,668.7813 Q148.6094,668.7813 148.8594,669.0469 Q149.125,669.2969 149.125,669.6406 Q149.125,669.9844 148.7813,670.3906 Q148.2813,670.9688 147.4844,671.2969 Q146.4063,671.75 145.1094,671.75 Q143.5938,671.75 142.3906,671.125 Q141.4063,670.625 140.7188,669.5625 Q140.0313,668.4844 140.0313,667.2031 L140.0313,666.0469 Q140.0313,664.7188 140.6406,663.5781 Q141.2656,662.4219 142.3594,661.8125 Q143.4531,661.1875 144.6875,661.1875 Q145.4219,661.1875 146.0625,661.3594 Q146.7188,661.5156 147.2656,661.875 Z " fill="#000000"/><text fill="#000000" font-family="sans-serif" font-size="14" lengthAdjust="spacing" textLength="79" x="164.5" y="671.7969">UserSession</text><line style="stroke:#181818;stroke-width:0.5;" x1="103.5" x2="272.5" y1="682" y2="682"/><line style="stroke:#181818;stroke-width:0.5;" x1="103.5" x2="272.5" y1="690" y2="690"/><ellipse cx="113.5" cy="704.8105" fill="#84BE84" rx="3" ry="3" style="stroke:#038048;stroke-width:1.0;"/><text fill="#000000" font-family="sans-serif" font-size="14" lengthAdjust="spacing" textLength="145" x="122.5" y="709.1074">getUserNameByEmail()</text></g><!--class Schedule--><g id="elem_Schedule"><rect codeLine="30" fill="#F1F1F1" height="196.9688" id="Schedule" rx="2.5" ry="2.5" style="stroke:#181818;stroke-width:0.5;" width="120" x="696" y="374"/><ellipse cx="724.05" cy="390" fill="#ADD1B2" rx="11" ry="11" style="stroke:#181818;stroke-width:1.0;"/><path d="M726.8156,385.875 Q726.9719,385.6563 727.1594,385.5469 Q727.3469,385.4375 727.5656,385.4375 Q727.9406,385.4375 728.175,385.7031 Q728.4094,385.9531 728.4094,386.5625 L728.4094,388.0156 Q728.4094,388.625 728.175,388.8906 Q727.9406,389.1563 727.5656,389.1563 Q727.2219,389.1563 727.0188,388.9531 Q726.8156,388.7656 726.7063,388.25 Q726.6594,387.8906 726.4719,387.7031 Q726.1438,387.3281 725.5344,387.1094 Q724.925,386.8906 724.3,386.8906 Q723.5344,386.8906 722.8938,387.2188 Q722.2688,387.5469 721.7688,388.2969 Q721.2844,389.0469 721.2844,390.0781 L721.2844,391.1719 Q721.2844,392.4063 722.175,393.2344 Q723.0656,394.0469 724.6594,394.0469 Q725.5969,394.0469 726.2531,393.7969 Q726.6438,393.6406 727.0656,393.2031 Q727.3313,392.9375 727.4719,392.8594 Q727.6281,392.7813 727.8313,392.7813 Q728.1594,392.7813 728.4094,393.0469 Q728.675,393.2969 728.675,393.6406 Q728.675,393.9844 728.3313,394.3906 Q727.8313,394.9688 727.0344,395.2969 Q725.9563,395.75 724.6594,395.75 Q723.1438,395.75 721.9406,395.125 Q720.9563,394.625 720.2688,393.5625 Q719.5813,392.4844 719.5813,391.2031 L719.5813,390.0469 Q719.5813,388.7188 720.1906,387.5781 Q720.8156,386.4219 721.9094,385.8125 Q723.0031,385.1875 724.2375,385.1875 Q724.9719,385.1875 725.6125,385.3594 Q726.2688,385.5156 726.8156,385.875 Z " fill="#000000"/><text fill="#000000" font-family="sans-serif" font-size="14" lengthAdjust="spacing" textLength="59" x="740.95" y="395.7969">Schedule</text><line style="stroke:#181818;stroke-width:0.5;" x1="697" x2="815" y1="406" y2="406"/><rect fill="none" height="6" style="stroke:#C82930;stroke-width:1.0;" width="6" x="704" y="417.8105"/><text fill="#000000" font-family="sans-serif" font-size="14" lengthAdjust="spacing" textLength="35" x="716" y="425.1074">name</text><rect fill="none" height="6" style="stroke:#C82930;stroke-width:1.0;" width="6" x="704" y="436.4316"/><text fill="#000000" font-family="sans-serif" font-size="14" lengthAdjust="spacing" textLength="89" x="716" y="443.7285">phoneNumber</text><rect fill="none" height="6" style="stroke:#C82930;stroke-width:1.0;" width="6" x="704" y="455.0527"/><text fill="#000000" font-family="sans-serif" font-size="14" lengthAdjust="spacing" textLength="94" x="716" y="462.3496">announcement</text><rect fill="none" height="6" style="stroke:#C82930;stroke-width:1.0;" width="6" x="704" y="473.6738"/><text fill="#000000" font-family="sans-serif" font-size="14" lengthAdjust="spacing" textLength="23" x="716" y="480.9707">day</text><rect fill="none" height="6" style="stroke:#C82930;stroke-width:1.0;" width="6" x="704" y="492.2949"/><text fill="#000000" font-family="sans-serif" font-size="14" lengthAdjust="spacing" textLength="57" x="716" y="499.5918">begiHour</text><rect fill="none" height="6" style="stroke:#C82930;stroke-width:1.0;" width="6" x="704" y="510.916"/><text fill="#000000" font-family="sans-serif" font-size="14" lengthAdjust="spacing" textLength="54" x="716" y="518.2129">endHour</text><rect fill="none" height="6" style="stroke:#C82930;stroke-width:1.0;" width="6" x="704" y="529.5371"/><text fill="#000000" font-family="sans-serif" font-size="14" lengthAdjust="spacing" textLength="28" x="716" y="536.834">note</text><rect fill="none" height="6" style="stroke:#C82930;stroke-width:1.0;" width="6" x="704" y="548.1582"/><text fill="#000000" font-family="sans-serif" font-size="14" lengthAdjust="spacing" textLength="38" x="716" y="555.4551">status</text><line style="stroke:#181818;stroke-width:0.5;" x1="697" x2="815" y1="562.9688" y2="562.9688"/></g><!--class Repositories--><g id="elem_Repositories"><rect codeLine="41" fill="#F1F1F1" height="66.6211" id="Repositories" rx="2.5" ry="2.5" style="stroke:#181818;stroke-width:0.5;" width="151" x="409.5" y="190.5"/><ellipse cx="442.5" cy="206.5" fill="#ADD1B2" rx="11" ry="11" style="stroke:#181818;stroke-width:1.0;"/><path d="M445.2656,202.375 Q445.4219,202.1563 445.6094,202.0469 Q445.7969,201.9375 446.0156,201.9375 Q446.3906,201.9375 446.625,202.2031 Q446.8594,202.4531 446.8594,203.0625 L446.8594,204.5156 Q446.8594,205.125 446.625,205.3906 Q446.3906,205.6563 446.0156,205.6563 Q445.6719,205.6563 445.4688,205.4531 Q445.2656,205.2656 445.1563,204.75 Q445.1094,204.3906 444.9219,204.2031 Q444.5938,203.8281 443.9844,203.6094 Q443.375,203.3906 442.75,203.3906 Q441.9844,203.3906 441.3438,203.7188 Q440.7188,204.0469 440.2188,204.7969 Q439.7344,205.5469 439.7344,206.5781 L439.7344,207.6719 Q439.7344,208.9063 440.625,209.7344 Q441.5156,210.5469 443.1094,210.5469 Q444.0469,210.5469 444.7031,210.2969 Q445.0938,210.1406 445.5156,209.7031 Q445.7813,209.4375 445.9219,209.3594 Q446.0781,209.2813 446.2813,209.2813 Q446.6094,209.2813 446.8594,209.5469 Q447.125,209.7969 447.125,210.1406 Q447.125,210.4844 446.7813,210.8906 Q446.2813,211.4688 445.4844,211.7969 Q444.4063,212.25 443.1094,212.25 Q441.5938,212.25 440.3906,211.625 Q439.4063,211.125 438.7188,210.0625 Q438.0313,208.9844 438.0313,207.7031 L438.0313,206.5469 Q438.0313,205.2188 438.6406,204.0781 Q439.2656,202.9219 440.3594,202.3125 Q441.4531,201.6875 442.6875,201.6875 Q443.4219,201.6875 444.0625,201.8594 Q444.7188,202.0156 445.2656,202.375 Z " fill="#000000"/><text fill="#000000" font-family="sans-serif" font-size="14" lengthAdjust="spacing" textLength="79" x="460.5" y="212.2969">Repositories</text><line style="stroke:#181818;stroke-width:0.5;" x1="410.5" x2="559.5" y1="222.5" y2="222.5"/><ellipse cx="420.5" cy="237.3105" fill="none" rx="3" ry="3" style="stroke:#038048;stroke-width:1.0;"/><text fill="#000000" font-family="sans-serif" font-size="14" lengthAdjust="spacing" textLength="125" x="429.5" y="241.6074">scheduleRepository</text><line style="stroke:#181818;stroke-width:0.5;" x1="410.5" x2="559.5" y1="249.1211" y2="249.1211"/></g><!--class ScheduleRepository--><g id="elem_ScheduleRepository"><rect codeLine="45" fill="#F1F1F1" height="178.3477" id="ScheduleRepository" rx="2.5" ry="2.5" style="stroke:#181818;stroke-width:0.5;" width="321" x="595.5" y="135"/><ellipse cx="688.25" cy="151" fill="#ADD1B2" rx="11" ry="11" style="stroke:#181818;stroke-width:1.0;"/><path d="M691.0156,146.875 Q691.1719,146.6563 691.3594,146.5469 Q691.5469,146.4375 691.7656,146.4375 Q692.1406,146.4375 692.375,146.7031 Q692.6094,146.9531 692.6094,147.5625 L692.6094,149.0156 Q692.6094,149.625 692.375,149.8906 Q692.1406,150.1563 691.7656,150.1563 Q691.4219,150.1563 691.2188,149.9531 Q691.0156,149.7656 690.9063,149.25 Q690.8594,148.8906 690.6719,148.7031 Q690.3438,148.3281 689.7344,148.1094 Q689.125,147.8906 688.5,147.8906 Q687.7344,147.8906 687.0938,148.2188 Q686.4688,148.5469 685.9688,149.2969 Q685.4844,150.0469 685.4844,151.0781 L685.4844,152.1719 Q685.4844,153.4063 686.375,154.2344 Q687.2656,155.0469 688.8594,155.0469 Q689.7969,155.0469 690.4531,154.7969 Q690.8438,154.6406 691.2656,154.2031 Q691.5313,153.9375 691.6719,153.8594 Q691.8281,153.7813 692.0313,153.7813 Q692.3594,153.7813 692.6094,154.0469 Q692.875,154.2969 692.875,154.6406 Q692.875,154.9844 692.5313,155.3906 Q692.0313,155.9688 691.2344,156.2969 Q690.1563,156.75 688.8594,156.75 Q687.3438,156.75 686.1406,156.125 Q685.1563,155.625 684.4688,154.5625 Q683.7813,153.4844 683.7813,152.2031 L683.7813,151.0469 Q683.7813,149.7188 684.3906,148.5781 Q685.0156,147.4219 686.1094,146.8125 Q687.2031,146.1875 688.4375,146.1875 Q689.1719,146.1875 689.8125,146.3594 Q690.4688,146.5156 691.0156,146.875 Z " fill="#000000"/><text fill="#000000" font-family="sans-serif" font-size="14" lengthAdjust="spacing" textLength="127" x="708.75" y="156.7969">ScheduleRepository</text><line style="stroke:#181818;stroke-width:0.5;" x1="596.5" x2="915.5" y1="167" y2="167"/><rect fill="none" height="6" style="stroke:#C82930;stroke-width:1.0;" width="6" x="603.5" y="178.8105"/><text fill="#000000" font-family="sans-serif" font-size="14" lengthAdjust="spacing" textLength="81" x="615.5" y="186.1074">ScheduleList</text><rect fill="none" height="6" style="stroke:#C82930;stroke-width:1.0;" width="6" x="603.5" y="197.4316"/><text fill="#000000" font-family="sans-serif" font-size="14" lengthAdjust="spacing" textLength="187" x="615.5" y="204.7285">schedulesByResposibleAgent</text><line style="stroke:#181818;stroke-width:0.5;" x1="596.5" x2="915.5" y1="212.2422" y2="212.2422"/><ellipse cx="606.5" cy="227.0527" fill="#84BE84" rx="3" ry="3" style="stroke:#038048;stroke-width:1.0;"/><text fill="#000000" font-family="sans-serif" font-size="14" lengthAdjust="spacing" textLength="158" x="615.5" y="231.3496">addConfirmedSchedule()</text><ellipse cx="606.5" cy="245.6738" fill="#84BE84" rx="3" ry="3" style="stroke:#038048;stroke-width:1.0;"/><text fill="#000000" font-family="sans-serif" font-size="14" lengthAdjust="spacing" textLength="149" x="615.5" y="249.9707">addRejectedSchedule()</text><ellipse cx="606.5" cy="264.2949" fill="#84BE84" rx="3" ry="3" style="stroke:#038048;stroke-width:1.0;"/><text fill="#000000" font-family="sans-serif" font-size="14" lengthAdjust="spacing" textLength="295" x="615.5" y="268.5918">getRequestScheduleListByResponsibleAgent()</text><ellipse cx="606.5" cy="282.916" fill="#84BE84" rx="3" ry="3" style="stroke:#038048;stroke-width:1.0;"/><text fill="#000000" font-family="sans-serif" font-size="14" lengthAdjust="spacing" textLength="192" x="615.5" y="287.2129">readObjectScheduleRequest()</text><ellipse cx="606.5" cy="301.5371" fill="#84BE84" rx="3" ry="3" style="stroke:#038048;stroke-width:1.0;"/><text fill="#000000" font-family="sans-serif" font-size="14" lengthAdjust="spacing" textLength="192" x="615.5" y="305.834">writeObjectScheduleRequest()</text></g><!--reverse link ValidateVisitUI to Runnable--><g id="link_ValidateVisitUI_Runnable"><path codeLine="58" d="M310.74,40.5 C315.61,40.5 320.47,40.5 325.34,40.5 " fill="none" id="ValidateVisitUI-backto-Runnable" style="stroke:#181818;stroke-width:1.0;"/><polygon fill="none" points="310.74,47.5,290.74,40.5,310.74,33.5,310.74,47.5" style="stroke:#181818;stroke-width:1.0;"/></g><!--link ApplicationSession to ApplicationSession--><g id="link_ApplicationSession_ApplicationSession"><path codeLine="59" d="M161.21,448.77 C181.06,450.28 196,458.19 196,472.5 C196,485.58 183.52,493.32 166.21,495.7 " fill="none" id="ApplicationSession-to-ApplicationSession" style="stroke:#181818;stroke-width:1.0;"/><polygon fill="#181818" points="161.21,496.23,170.5815,499.2589,166.1821,495.7029,169.7381,491.3035,161.21,496.23" style="stroke:#181818;stroke-width:1.0;"/><text fill="#000000" font-family="sans-serif" font-size="13" lengthAdjust="spacing" textLength="49" x="202" y="478.0283">instance</text></g><!--link ApplicationSession to UserSession--><g id="link_ApplicationSession_UserSession"><path codeLine="60" d="M104.67,515.04 C123.55,552.98 151.21,608.57 169.41,645.14 " fill="none" id="ApplicationSession-to-UserSession" style="stroke:#181818;stroke-width:1.0;"/><polygon fill="#181818" points="171.8,649.94,171.3654,640.1007,169.5697,645.465,164.2054,643.6693,171.8,649.94" style="stroke:#181818;stroke-width:1.0;"/><text fill="#000000" font-family="sans-serif" font-size="13" lengthAdjust="spacing" textLength="72" x="156" y="616.0283">userSession</text><text fill="#000000" font-family="sans-serif" font-size="13" lengthAdjust="spacing" textLength="7" x="160.9216" y="638.7537">1</text></g><!--link ScheduleVisitController to ApplicationSession--><g id="link_ScheduleVisitController_ApplicationSession"><path codeLine="61" d="M183.2,304.01 C159.49,344.04 131.54,391.24 111.35,425.32 " fill="none" id="ScheduleVisitController-to-ApplicationSession" style="stroke:#181818;stroke-width:1.0;stroke-dasharray:7.0,7.0;"/><polygon fill="#181818" points="108.68,429.83,116.7182,424.139,111.2357,425.5325,109.8422,420.05,108.68,429.83" style="stroke:#181818;stroke-width:1.0;"/></g><!--link ScheduleVisitController to UserSession--><g id="link_ScheduleVisitController_UserSession"><path codeLine="62" d="M248.22,304.03 C261.64,374.62 274.75,480.54 257,571 C251.62,598.43 235.52,625.21 220.22,645.64 " fill="none" id="ScheduleVisitController-to-UserSession" style="stroke:#181818;stroke-width:1.0;stroke-dasharray:7.0,7.0;"/><polygon fill="#181818" points="217.18,649.64,225.8182,644.909,220.2119,645.6642,219.4568,640.0579,217.18,649.64" style="stroke:#181818;stroke-width:1.0;"/></g><!--link ValidateVisitUI to ScheduleVisitController--><g id="link_ValidateVisitUI_ScheduleVisitController"><path codeLine="64" d="M230,74.37 C230,92.51 230,115.94 230,138.82 " fill="none" id="ValidateVisitUI-to-ScheduleVisitController" style="stroke:#181818;stroke-width:1.0;stroke-dasharray:7.0,7.0;"/><polygon fill="#181818" points="230,144,234,135,230,139,226,135,230,144" style="stroke:#181818;stroke-width:1.0;"/></g><!--link ScheduleVisitController to Repositories--><g id="link_ScheduleVisitController_Repositories"><path codeLine="65" d="M374.43,224 C384.36,224 394.29,224 404.22,224 " fill="none" id="ScheduleVisitController-to-Repositories" style="stroke:#181818;stroke-width:1.0;"/><polygon fill="#181818" points="409.42,224,400.42,220,404.42,224,400.42,228,409.42,224" style="stroke:#181818;stroke-width:1.0;"/></g><!--link Repositories to ScheduleRepository--><g id="link_Repositories_ScheduleRepository"><path codeLine="66" d="M560.69,224 C570.54,224 580.4,224 590.25,224 " fill="none" id="Repositories-to-ScheduleRepository" style="stroke:#181818;stroke-width:1.0;"/><polygon fill="#181818" points="595.4,224,586.4,220,590.4,224,586.4,228,595.4,224" style="stroke:#181818;stroke-width:1.0;"/></g><!--link ScheduleRepository to Schedule--><g id="link_ScheduleRepository_Schedule"><path codeLine="68" d="M756,313.3 C756,331.23 756,350.23 756,368.62 " fill="none" id="ScheduleRepository-to-Schedule" style="stroke:#181818;stroke-width:1.0;"/><polygon fill="#181818" points="756,373.79,760,364.79,756,368.79,752,364.79,756,373.79" style="stroke:#181818;stroke-width:1.0;"/></g><!--SRC=[fLJBRi8m4BpxAonEhQeWzTe34g1MHQge50Ht9rd0bMEdVgYAMlwz6x0J4v9UcfEpEpiUxuxDfGMzPpdGr4d9CW7qcr3y7gXsykwUd0Z91JE6xfZW1REmuuRRxSh34fehQRKI0dI7tUH7A9ouO9SjeAq9-HGgXGYbQn8sXKy7nWR06pTsKQTW6XoAcnz0MbHr0REYGF8zroKKeI9Efl01kHt86P35SycuQ2C7i6Vk5wtA3HZ3rTNXvrKbUCuiXdsMX3OPY-6y8LX9NCiSOjAbqnff1oYt1dIV2mkQy9gLiAY3m5ElgTX5tqQ9EB-iZah2sfKPZk4IOL8gXsfAtDw72bRxLGO7_gfSm68xeZ-fRA1j3kTCAw6T5mSJP607RgVPrzobElNnZCDsFcHkPlxVYMDdqr5hoG5lQM35UzQmTMSurxU8ByqjZ46QEPFsIYK2zZRvcVKl4Rdr5Krc0swZJvHxTmtMOD7aSH9x2YjSvB2n6pcT3ctt9pmsBkc_2WrWf7YK5CN7nY9NBajcWw_5WB6I24f-0G00]--></g></svg>