<?xml version="1.0" encoding="us-ascii" standalone="no"?><svg xmlns="http://www.w3.org/2000/svg" xmlns:xlink="http://www.w3.org/1999/xlink" contentStyleType="text/css" height="1007px" preserveAspectRatio="none" style="width:1856px;height:1007px;background:#FFFFFF;" version="1.1" viewBox="0 0 1856 1007" width="1856px" zoomAndPan="magnify"><defs/><g><rect fill="#FFFFFF" height="812.6055" style="stroke:#181818;stroke-width:1.0;" width="10" x="21.5" y="93.6211"/><rect fill="#FFFFFF" height="789.3145" style="stroke:#181818;stroke-width:1.0;" width="10" x="499.5" y="116.9121"/><rect fill="#FFFFFF" height="714.4023" style="stroke:#181818;stroke-width:1.0;" width="10" x="825.5" y="191.8242"/><rect fill="#FFFFFF" height="31.291" style="stroke:#181818;stroke-width:1.0;" width="10" x="997.5" y="267.4063"/><rect fill="#FFFFFF" height="31.291" style="stroke:#181818;stroke-width:1.0;" width="10" x="1144.5" y="329.9883"/><rect fill="#FFFFFF" height="31.291" style="stroke:#181818;stroke-width:1.0;" width="10" x="1277.5" y="392.5703"/><rect fill="#FFFFFF" height="31.291" style="stroke:#181818;stroke-width:1.0;" width="10" x="1390.5" y="455.1523"/><rect fill="#FFFFFF" height="31.291" style="stroke:#181818;stroke-width:1.0;" width="10" x="1497.5" y="517.7344"/><rect fill="#FFFFFF" height="31.291" style="stroke:#181818;stroke-width:1.0;" width="10" x="1626.5" y="580.3164"/><rect fill="#FFFFFF" height="37.291" style="stroke:#181818;stroke-width:1.0;" width="10" x="1626.5" y="830.6445"/><line style="stroke:#181818;stroke-width:0.5;stroke-dasharray:5.0,5.0;" x1="26" x2="26" y1="83.6211" y2="924.2266"/><line style="stroke:#181818;stroke-width:0.5;stroke-dasharray:5.0,5.0;" x1="504" x2="504" y1="83.6211" y2="924.2266"/><line style="stroke:#181818;stroke-width:0.5;stroke-dasharray:5.0,5.0;" x1="830" x2="830" y1="156.7227" y2="924.2266"/><line style="stroke:#181818;stroke-width:0.5;stroke-dasharray:5.0,5.0;" x1="1002" x2="1002" y1="83.6211" y2="924.2266"/><line style="stroke:#181818;stroke-width:0.5;stroke-dasharray:5.0,5.0;" x1="1149" x2="1149" y1="83.6211" y2="924.2266"/><line style="stroke:#181818;stroke-width:0.5;stroke-dasharray:5.0,5.0;" x1="1282" x2="1282" y1="83.6211" y2="924.2266"/><line style="stroke:#181818;stroke-width:0.5;stroke-dasharray:5.0,5.0;" x1="1395" x2="1395" y1="83.6211" y2="924.2266"/><line style="stroke:#181818;stroke-width:0.5;stroke-dasharray:5.0,5.0;" x1="1502" x2="1502" y1="83.6211" y2="924.2266"/><line style="stroke:#181818;stroke-width:0.5;stroke-dasharray:5.0,5.0;" x1="1631" x2="1631" y1="83.6211" y2="924.2266"/><text fill="#000000" font-family="sans-serif" font-size="14" lengthAdjust="spacing" textLength="37" x="5" y="80.1074">Agent</text><ellipse cx="26.5" cy="13.5" fill="#E2E2F0" rx="8" ry="8" style="stroke:#181818;stroke-width:0.5;"/><path d="M26.5,21.5 L26.5,48.5 M13.5,29.5 L39.5,29.5 M26.5,48.5 L13.5,63.5 M26.5,48.5 L39.5,63.5 " fill="none" style="stroke:#181818;stroke-width:0.5;"/><text fill="#000000" font-family="sans-serif" font-size="14" lengthAdjust="spacing" textLength="37" x="5" y="938.334">Agent</text><ellipse cx="26.5" cy="950.3477" fill="#E2E2F0" rx="8" ry="8" style="stroke:#181818;stroke-width:0.5;"/><path d="M26.5,958.3477 L26.5,985.3477 M13.5,966.3477 L39.5,966.3477 M26.5,985.3477 L13.5,1000.3477 M26.5,985.3477 L39.5,1000.3477 " fill="none" style="stroke:#181818;stroke-width:0.5;"/><rect fill="#E2E2F0" height="32.6211" rx="2.5" ry="2.5" style="stroke:#181818;stroke-width:0.5;" width="103" x="453" y="50"/><text fill="#000000" font-family="sans-serif" font-size="14" lengthAdjust="spacing" textLength="89" x="460" y="72.1074">ValidateVisitUI</text><rect fill="#E2E2F0" height="32.6211" rx="2.5" ry="2.5" style="stroke:#181818;stroke-width:0.5;" width="103" x="453" y="923.2266"/><text fill="#000000" font-family="sans-serif" font-size="14" lengthAdjust="spacing" textLength="89" x="460" y="945.334">ValidateVisitUI</text><rect fill="#E2E2F0" height="32.6211" rx="2.5" ry="2.5" style="stroke:#181818;stroke-width:0.5;" width="161" x="750" y="923.2266"/><text fill="#000000" font-family="sans-serif" font-size="14" lengthAdjust="spacing" textLength="147" x="757" y="945.334">ScheduleVisitController</text><rect fill="#E2E2F0" height="32.6211" rx="2.5" ry="2.5" style="stroke:#181818;stroke-width:0.5;" width="137" x="934" y="50"/><text fill="#000000" font-family="sans-serif" font-size="14" lengthAdjust="spacing" textLength="123" x="941" y="72.1074">:ApplicationSession</text><rect fill="#E2E2F0" height="32.6211" rx="2.5" ry="2.5" style="stroke:#181818;stroke-width:0.5;" width="137" x="934" y="923.2266"/><text fill="#000000" font-family="sans-serif" font-size="14" lengthAdjust="spacing" textLength="123" x="941" y="945.334">:ApplicationSession</text><rect fill="#E2E2F0" height="51.2422" rx="2.5" ry="2.5" style="stroke:#181818;stroke-width:0.5;" width="137" x="1081" y="31.3789"/><text fill="#000000" font-family="sans-serif" font-size="14" lengthAdjust="spacing" textLength="74" x="1112.5" y="53.4863">appSession</text><text fill="#000000" font-family="sans-serif" font-size="14" lengthAdjust="spacing" textLength="123" x="1088" y="72.1074">:ApplicationSession</text><rect fill="#E2E2F0" height="51.2422" rx="2.5" ry="2.5" style="stroke:#181818;stroke-width:0.5;" width="137" x="1081" y="923.2266"/><text fill="#000000" font-family="sans-serif" font-size="14" lengthAdjust="spacing" textLength="74" x="1112.5" y="945.334">appSession</text><text fill="#000000" font-family="sans-serif" font-size="14" lengthAdjust="spacing" textLength="123" x="1088" y="963.9551">:ApplicationSession</text><rect fill="#E2E2F0" height="51.2422" rx="2.5" ry="2.5" style="stroke:#181818;stroke-width:0.5;" width="109" x="1228" y="31.3789"/><text fill="#000000" font-family="sans-serif" font-size="14" lengthAdjust="spacing" textLength="95" x="1235" y="53.4863">currentSession</text><text fill="#000000" font-family="sans-serif" font-size="14" lengthAdjust="spacing" textLength="83" x="1241" y="72.1074">:UserSession</text><rect fill="#E2E2F0" height="51.2422" rx="2.5" ry="2.5" style="stroke:#181818;stroke-width:0.5;" width="109" x="1228" y="923.2266"/><text fill="#000000" font-family="sans-serif" font-size="14" lengthAdjust="spacing" textLength="95" x="1235" y="945.334">currentSession</text><text fill="#000000" font-family="sans-serif" font-size="14" lengthAdjust="spacing" textLength="83" x="1241" y="963.9551">:UserSession</text><rect fill="#E2E2F0" height="32.6211" rx="2.5" ry="2.5" style="stroke:#181818;stroke-width:0.5;" width="97" x="1347" y="50"/><text fill="#000000" font-family="sans-serif" font-size="14" lengthAdjust="spacing" textLength="83" x="1354" y="72.1074">:Repositories</text><rect fill="#E2E2F0" height="32.6211" rx="2.5" ry="2.5" style="stroke:#181818;stroke-width:0.5;" width="97" x="1347" y="923.2266"/><text fill="#000000" font-family="sans-serif" font-size="14" lengthAdjust="spacing" textLength="83" x="1354" y="945.334">:Repositories</text><rect fill="#E2E2F0" height="51.2422" rx="2.5" ry="2.5" style="stroke:#181818;stroke-width:0.5;" width="97" x="1454" y="31.3789"/><text fill="#000000" font-family="sans-serif" font-size="14" lengthAdjust="spacing" textLength="74" x="1465.5" y="53.4863">repositories</text><text fill="#000000" font-family="sans-serif" font-size="14" lengthAdjust="spacing" textLength="83" x="1461" y="72.1074">:Repositories</text><rect fill="#E2E2F0" height="51.2422" rx="2.5" ry="2.5" style="stroke:#181818;stroke-width:0.5;" width="97" x="1454" y="923.2266"/><text fill="#000000" font-family="sans-serif" font-size="14" lengthAdjust="spacing" textLength="74" x="1465.5" y="945.334">repositories</text><text fill="#000000" font-family="sans-serif" font-size="14" lengthAdjust="spacing" textLength="83" x="1461" y="963.9551">:Repositories</text><rect fill="#E2E2F0" height="32.6211" rx="2.5" ry="2.5" style="stroke:#181818;stroke-width:0.5;" width="141" x="1561" y="50"/><text fill="#000000" font-family="sans-serif" font-size="14" lengthAdjust="spacing" textLength="127" x="1568" y="72.1074">ScheduleRepository</text><rect fill="#E2E2F0" height="32.6211" rx="2.5" ry="2.5" style="stroke:#181818;stroke-width:0.5;" width="141" x="1561" y="923.2266"/><text fill="#000000" font-family="sans-serif" font-size="14" lengthAdjust="spacing" textLength="127" x="1568" y="945.334">ScheduleRepository</text><rect fill="#FFFFFF" height="812.6055" style="stroke:#181818;stroke-width:1.0;" width="10" x="21.5" y="93.6211"/><rect fill="#FFFFFF" height="789.3145" style="stroke:#181818;stroke-width:1.0;" width="10" x="499.5" y="116.9121"/><rect fill="#FFFFFF" height="714.4023" style="stroke:#181818;stroke-width:1.0;" width="10" x="825.5" y="191.8242"/><rect fill="#FFFFFF" height="31.291" style="stroke:#181818;stroke-width:1.0;" width="10" x="997.5" y="267.4063"/><rect fill="#FFFFFF" height="31.291" style="stroke:#181818;stroke-width:1.0;" width="10" x="1144.5" y="329.9883"/><rect fill="#FFFFFF" height="31.291" style="stroke:#181818;stroke-width:1.0;" width="10" x="1277.5" y="392.5703"/><rect fill="#FFFFFF" height="31.291" style="stroke:#181818;stroke-width:1.0;" width="10" x="1390.5" y="455.1523"/><rect fill="#FFFFFF" height="31.291" style="stroke:#181818;stroke-width:1.0;" width="10" x="1497.5" y="517.7344"/><rect fill="#FFFFFF" height="31.291" style="stroke:#181818;stroke-width:1.0;" width="10" x="1626.5" y="580.3164"/><rect fill="#FFFFFF" height="37.291" style="stroke:#181818;stroke-width:1.0;" width="10" x="1626.5" y="830.6445"/><polygon fill="#181818" points="487.5,112.9121,497.5,116.9121,487.5,120.9121,491.5,116.9121" style="stroke:#181818;stroke-width:1.0;"/><line style="stroke:#181818;stroke-width:1.0;" x1="31.5" x2="493.5" y1="116.9121" y2="116.9121"/><text fill="#000000" font-family="sans-serif" font-size="13" font-weight="bold" lengthAdjust="spacing" textLength="7" x="38.5" y="111.6494">1</text><text fill="#000000" font-family="sans-serif" font-size="13" lengthAdjust="spacing" textLength="274" x="49.5" y="111.6494">starts placing an order to purchase the property</text><polygon fill="#181818" points="738,144.2031,748,148.2031,738,152.2031,742,148.2031" style="stroke:#181818;stroke-width:1.0;"/><line style="stroke:#181818;stroke-width:1.0;" x1="509.5" x2="744" y1="148.2031" y2="148.2031"/><text fill="#000000" font-family="sans-serif" font-size="13" font-weight="bold" lengthAdjust="spacing" textLength="7" x="516.5" y="142.9404">2</text><text fill="#000000" font-family="sans-serif" font-size="13" lengthAdjust="spacing" textLength="36" x="527.5" y="142.9404">create</text><rect fill="#E2E2F0" height="32.6211" rx="2.5" ry="2.5" style="stroke:#181818;stroke-width:0.5;" width="161" x="750" y="124.9121"/><text fill="#000000" font-family="sans-serif" font-size="14" lengthAdjust="spacing" textLength="147" x="757" y="147.0195">ScheduleVisitController</text><polygon fill="#181818" points="813.5,187.8242,823.5,191.8242,813.5,195.8242,817.5,191.8242" style="stroke:#181818;stroke-width:1.0;"/><line style="stroke:#181818;stroke-width:1.0;" x1="509.5" x2="819.5" y1="191.8242" y2="191.8242"/><text fill="#000000" font-family="sans-serif" font-size="13" font-weight="bold" lengthAdjust="spacing" textLength="7" x="516.5" y="186.5615">3</text><text fill="#000000" font-family="sans-serif" font-size="13" lengthAdjust="spacing" textLength="270" x="527.5" y="186.5615">getRequestScheduleListByResponsibleAgent()</text><line style="stroke:#181818;stroke-width:1.0;" x1="835.5" x2="877.5" y1="223.1152" y2="223.1152"/><line style="stroke:#181818;stroke-width:1.0;" x1="877.5" x2="877.5" y1="223.1152" y2="236.1152"/><line style="stroke:#181818;stroke-width:1.0;" x1="836.5" x2="877.5" y1="236.1152" y2="236.1152"/><polygon fill="#181818" points="846.5,232.1152,836.5,236.1152,846.5,240.1152,842.5,236.1152" style="stroke:#181818;stroke-width:1.0;"/><text fill="#000000" font-family="sans-serif" font-size="13" font-weight="bold" lengthAdjust="spacing" textLength="7" x="842.5" y="217.8525">4</text><text fill="#000000" font-family="sans-serif" font-size="13" lengthAdjust="spacing" textLength="137" x="853.5" y="217.8525">getAgentFromSession()</text><polygon fill="#181818" points="985.5,263.4063,995.5,267.4063,985.5,271.4063,989.5,267.4063" style="stroke:#181818;stroke-width:1.0;"/><line style="stroke:#181818;stroke-width:1.0;" x1="835.5" x2="991.5" y1="267.4063" y2="267.4063"/><text fill="#000000" font-family="sans-serif" font-size="13" font-weight="bold" lengthAdjust="spacing" textLength="7" x="842.5" y="262.1436">5</text><text fill="#000000" font-family="sans-serif" font-size="13" lengthAdjust="spacing" textLength="75" x="853.5" y="262.1436">getInstance()</text><polygon fill="#181818" points="846.5,294.6973,836.5,298.6973,846.5,302.6973,842.5,298.6973" style="stroke:#181818;stroke-width:1.0;"/><line style="stroke:#181818;stroke-width:1.0;" x1="840.5" x2="1001.5" y1="298.6973" y2="298.6973"/><text fill="#000000" font-family="sans-serif" font-size="13" font-weight="bold" lengthAdjust="spacing" textLength="7" x="852.5" y="293.4346">6</text><text fill="#000000" font-family="sans-serif" font-size="13" lengthAdjust="spacing" textLength="105" x="863.5" y="293.4346">return appSession</text><polygon fill="#181818" points="1132.5,325.9883,1142.5,329.9883,1132.5,333.9883,1136.5,329.9883" style="stroke:#181818;stroke-width:1.0;"/><line style="stroke:#181818;stroke-width:1.0;" x1="835.5" x2="1138.5" y1="329.9883" y2="329.9883"/><text fill="#000000" font-family="sans-serif" font-size="13" font-weight="bold" lengthAdjust="spacing" textLength="7" x="842.5" y="324.7256">7</text><text fill="#000000" font-family="sans-serif" font-size="13" lengthAdjust="spacing" textLength="115" x="853.5" y="324.7256">getCurrentSession()</text><polygon fill="#181818" points="846.5,357.2793,836.5,361.2793,846.5,365.2793,842.5,361.2793" style="stroke:#181818;stroke-width:1.0;"/><line style="stroke:#181818;stroke-width:1.0;stroke-dasharray:2.0,2.0;" x1="840.5" x2="1148.5" y1="361.2793" y2="361.2793"/><text fill="#000000" font-family="sans-serif" font-size="13" font-weight="bold" lengthAdjust="spacing" textLength="7" x="852.5" y="356.0166">8</text><text fill="#000000" font-family="sans-serif" font-size="13" lengthAdjust="spacing" textLength="87" x="863.5" y="356.0166">currentSession</text><polygon fill="#181818" points="1265.5,388.5703,1275.5,392.5703,1265.5,396.5703,1269.5,392.5703" style="stroke:#181818;stroke-width:1.0;"/><line style="stroke:#181818;stroke-width:1.0;" x1="835.5" x2="1271.5" y1="392.5703" y2="392.5703"/><text fill="#000000" font-family="sans-serif" font-size="13" font-weight="bold" lengthAdjust="spacing" textLength="7" x="842.5" y="387.3076">9</text><text fill="#000000" font-family="sans-serif" font-size="13" lengthAdjust="spacing" textLength="218" x="853.5" y="387.3076">agentName = getUserNameByEmail()</text><polygon fill="#181818" points="846.5,419.8613,836.5,423.8613,846.5,427.8613,842.5,423.8613" style="stroke:#181818;stroke-width:1.0;"/><line style="stroke:#181818;stroke-width:1.0;stroke-dasharray:2.0,2.0;" x1="840.5" x2="1281.5" y1="423.8613" y2="423.8613"/><text fill="#000000" font-family="sans-serif" font-size="13" font-weight="bold" lengthAdjust="spacing" textLength="14" x="852.5" y="418.5986">10</text><text fill="#000000" font-family="sans-serif" font-size="13" lengthAdjust="spacing" textLength="66" x="870.5" y="418.5986">agentName</text><polygon fill="#181818" points="1378.5,451.1523,1388.5,455.1523,1378.5,459.1523,1382.5,455.1523" style="stroke:#181818;stroke-width:1.0;"/><line style="stroke:#181818;stroke-width:1.0;" x1="835.5" x2="1384.5" y1="455.1523" y2="455.1523"/><text fill="#000000" font-family="sans-serif" font-size="13" font-weight="bold" lengthAdjust="spacing" textLength="14" x="842.5" y="449.8896">11</text><text fill="#000000" font-family="sans-serif" font-size="13" lengthAdjust="spacing" textLength="75" x="860.5" y="449.8896">getInstance()</text><polygon fill="#181818" points="846.5,482.4434,836.5,486.4434,846.5,490.4434,842.5,486.4434" style="stroke:#181818;stroke-width:1.0;"/><line style="stroke:#181818;stroke-width:1.0;stroke-dasharray:2.0,2.0;" x1="840.5" x2="1394.5" y1="486.4434" y2="486.4434"/><text fill="#000000" font-family="sans-serif" font-size="13" font-weight="bold" lengthAdjust="spacing" textLength="14" x="852.5" y="481.1807">12</text><text fill="#000000" font-family="sans-serif" font-size="13" lengthAdjust="spacing" textLength="104" x="870.5" y="481.1807">return repositories</text><polygon fill="#181818" points="1485.5,513.7344,1495.5,517.7344,1485.5,521.7344,1489.5,517.7344" style="stroke:#181818;stroke-width:1.0;"/><line style="stroke:#181818;stroke-width:1.0;" x1="835.5" x2="1491.5" y1="517.7344" y2="517.7344"/><text fill="#000000" font-family="sans-serif" font-size="13" font-weight="bold" lengthAdjust="spacing" textLength="14" x="842.5" y="512.4717">13</text><text fill="#000000" font-family="sans-serif" font-size="13" lengthAdjust="spacing" textLength="142" x="860.5" y="512.4717">getScheduleRepository()</text><polygon fill="#181818" points="846.5,545.0254,836.5,549.0254,846.5,553.0254,842.5,549.0254" style="stroke:#181818;stroke-width:1.0;"/><line style="stroke:#181818;stroke-width:1.0;stroke-dasharray:2.0,2.0;" x1="840.5" x2="1501.5" y1="549.0254" y2="549.0254"/><text fill="#000000" font-family="sans-serif" font-size="13" font-weight="bold" lengthAdjust="spacing" textLength="14" x="852.5" y="543.7627">14</text><text fill="#000000" font-family="sans-serif" font-size="13" lengthAdjust="spacing" textLength="153" x="870.5" y="543.7627">return ScheduleRepository</text><polygon fill="#181818" points="1614.5,576.3164,1624.5,580.3164,1614.5,584.3164,1618.5,580.3164" style="stroke:#181818;stroke-width:1.0;"/><line style="stroke:#181818;stroke-width:1.0;" x1="835.5" x2="1620.5" y1="580.3164" y2="580.3164"/><text fill="#000000" font-family="sans-serif" font-size="13" font-weight="bold" lengthAdjust="spacing" textLength="14" x="842.5" y="575.0537">15</text><text fill="#000000" font-family="sans-serif" font-size="13" lengthAdjust="spacing" textLength="270" x="860.5" y="575.0537">getRequestScheduleListByResponsibleAgent()</text><polygon fill="#181818" points="846.5,607.6074,836.5,611.6074,846.5,615.6074,842.5,611.6074" style="stroke:#181818;stroke-width:1.0;"/><line style="stroke:#181818;stroke-width:1.0;" x1="840.5" x2="1630.5" y1="611.6074" y2="611.6074"/><text fill="#000000" font-family="sans-serif" font-size="13" font-weight="bold" lengthAdjust="spacing" textLength="14" x="852.5" y="606.3447">16</text><text fill="#000000" font-family="sans-serif" font-size="13" lengthAdjust="spacing" textLength="274" x="870.5" y="606.3447">return RequestScheduleListByResposibleAgent</text><polygon fill="#181818" points="520.5,638.8984,510.5,642.8984,520.5,646.8984,516.5,642.8984" style="stroke:#181818;stroke-width:1.0;"/><line style="stroke:#181818;stroke-width:1.0;" x1="514.5" x2="824.5" y1="642.8984" y2="642.8984"/><text fill="#000000" font-family="sans-serif" font-size="13" font-weight="bold" lengthAdjust="spacing" textLength="14" x="526.5" y="637.6357">17</text><text fill="#000000" font-family="sans-serif" font-size="13" lengthAdjust="spacing" textLength="274" x="544.5" y="637.6357">return RequestScheduleListByResposibleAgent</text><polygon fill="#181818" points="42.5,670.1895,32.5,674.1895,42.5,678.1895,38.5,674.1895" style="stroke:#181818;stroke-width:1.0;"/><line style="stroke:#181818;stroke-width:1.0;stroke-dasharray:2.0,2.0;" x1="36.5" x2="498.5" y1="674.1895" y2="674.1895"/><text fill="#000000" font-family="sans-serif" font-size="13" font-weight="bold" lengthAdjust="spacing" textLength="14" x="48.5" y="668.9268">18</text><text fill="#000000" font-family="sans-serif" font-size="13" lengthAdjust="spacing" textLength="218" x="66.5" y="668.9268">requests to select a schedule request</text><polygon fill="#181818" points="487.5,701.4805,497.5,705.4805,487.5,709.4805,491.5,705.4805" style="stroke:#181818;stroke-width:1.0;"/><line style="stroke:#181818;stroke-width:1.0;" x1="31.5" x2="493.5" y1="705.4805" y2="705.4805"/><text fill="#000000" font-family="sans-serif" font-size="13" font-weight="bold" lengthAdjust="spacing" textLength="14" x="38.5" y="700.2178">19</text><text fill="#000000" font-family="sans-serif" font-size="13" lengthAdjust="spacing" textLength="167" x="56.5" y="700.2178">selects the schedule request</text><polygon fill="#181818" points="42.5,732.7715,32.5,736.7715,42.5,740.7715,38.5,736.7715" style="stroke:#181818;stroke-width:1.0;"/><line style="stroke:#181818;stroke-width:1.0;" x1="36.5" x2="498.5" y1="736.7715" y2="736.7715"/><text fill="#000000" font-family="sans-serif" font-size="13" font-weight="bold" lengthAdjust="spacing" textLength="14" x="48.5" y="731.5088">20</text><text fill="#000000" font-family="sans-serif" font-size="13" lengthAdjust="spacing" textLength="426" x="66.5" y="731.5088">requests to accept or reject the schedule request and asks for cofirmation</text><polygon fill="#181818" points="487.5,764.0625,497.5,768.0625,487.5,772.0625,491.5,768.0625" style="stroke:#181818;stroke-width:1.0;"/><line style="stroke:#181818;stroke-width:1.0;" x1="31.5" x2="493.5" y1="768.0625" y2="768.0625"/><text fill="#000000" font-family="sans-serif" font-size="13" font-weight="bold" lengthAdjust="spacing" textLength="14" x="38.5" y="762.7998">21</text><text fill="#000000" font-family="sans-serif" font-size="13" lengthAdjust="spacing" textLength="235" x="56.5" y="762.7998">accept or reject and confirms the answer</text><polygon fill="#181818" points="813.5,795.3535,823.5,799.3535,813.5,803.3535,817.5,799.3535" style="stroke:#181818;stroke-width:1.0;"/><line style="stroke:#181818;stroke-width:1.0;" x1="509.5" x2="819.5" y1="799.3535" y2="799.3535"/><text fill="#000000" font-family="sans-serif" font-size="13" font-weight="bold" lengthAdjust="spacing" textLength="14" x="516.5" y="794.0908">22</text><text fill="#000000" font-family="sans-serif" font-size="13" lengthAdjust="spacing" textLength="195" x="534.5" y="794.0908">addConfirmedSchedule(Schedule)</text><polygon fill="#181818" points="1614.5,826.6445,1624.5,830.6445,1614.5,834.6445,1618.5,830.6445" style="stroke:#181818;stroke-width:1.0;"/><line style="stroke:#181818;stroke-width:1.0;" x1="835.5" x2="1620.5" y1="830.6445" y2="830.6445"/><text fill="#000000" font-family="sans-serif" font-size="13" font-weight="bold" lengthAdjust="spacing" textLength="14" x="842.5" y="825.3818">23</text><text fill="#000000" font-family="sans-serif" font-size="13" lengthAdjust="spacing" textLength="195" x="860.5" y="825.3818">addConfirmedSchedule(Schedule)</text><line style="stroke:#181818;stroke-width:1.0;" x1="1636.5" x2="1678.5" y1="866.9355" y2="866.9355"/><line style="stroke:#181818;stroke-width:1.0;" x1="1678.5" x2="1678.5" y1="866.9355" y2="879.9355"/><line style="stroke:#181818;stroke-width:1.0;" x1="1631.5" x2="1678.5" y1="879.9355" y2="879.9355"/><polygon fill="#181818" points="1641.5,875.9355,1631.5,879.9355,1641.5,883.9355,1637.5,879.9355" style="stroke:#181818;stroke-width:1.0;"/><text fill="#000000" font-family="sans-serif" font-size="13" font-weight="bold" lengthAdjust="spacing" textLength="14" x="1643.5" y="861.6729">24</text><text fill="#000000" font-family="sans-serif" font-size="13" lengthAdjust="spacing" textLength="188" x="1661.5" y="861.6729">removeScheduleFromRequests()</text><polygon fill="#181818" points="37.5,902.2266,27.5,906.2266,37.5,910.2266,33.5,906.2266" style="stroke:#181818;stroke-width:1.0;"/><line style="stroke:#181818;stroke-width:1.0;" x1="31.5" x2="503.5" y1="906.2266" y2="906.2266"/><text fill="#000000" font-family="sans-serif" font-size="13" font-weight="bold" lengthAdjust="spacing" textLength="14" x="43.5" y="900.9639">25</text><text fill="#000000" font-family="sans-serif" font-size="13" lengthAdjust="spacing" textLength="145" x="61.5" y="900.9639">informs operation sucess</text><!--SRC=[dLN1Rjim3BtxAuIUsWBz0GCRa0ORK60OYWJjQS2WocoYpPOqKUwGlnyfomqTEoswGsfRUdny8fzOtIVl-ku9ObLfatnKgnsuf3GgpIzLq35POuEcnKVTsaOdUBHeqyCTWtexGMpD7fg-7H1hxrBqRGkHaIR52VIYNeNGMgEJzMuBYFIuOE3FrVtz5Ab3A80VxbpKBCZqCT81Ze4F25568BrhloX_0y7J0Nmyd4X-tR20cUI8t5gtQu6gEGs98e94p0Xe_pq9bPusoRvG3qfxglnGDv-f4xN2H4oeGgiDgL7QAHyRAd_oAlJHx3M2IdjG8Ve0CHq47JMowYqJKQEkhrMjJ0JQ4Akrsa7Qm9yUC8qolrbCjuSDOF0ExLCBsJwNLuAP6qy_IP91NwFlIZy8Nn3S_0ovStGOPu2sNfcoC_WF8JDLXDH7fux-g1gOeWljoBgUc49oCpWpZpAd_f74WdVmK3qquxlkG7tYD6mr_hezVEcqRMMUuhhXCMPJWa5cAk0nsuBPpjPgoPWBQyVpbbfAlqefItoiYy8f9CkOMrSAOgFJxsRQkWMxYwGSCnv-ZlnFFowad2-faxASJtFC8fKlNUDo4Bwe7s7D5v3YiaCuDCSWNsg45WmDQuM5OTmz6GiPXldgpv14lqokZO6GQ8BGwYzEinHECwQXCVORrJC1ZN-siSkpUL1G1CoeECfun-X1bdRubyUR63QwQTO319gnGfVZozMRldWdz6DME9CZGkTVODpXOLQwYUIsjvqWAsuT5OwAm0Cv5qvXR-ZQLvKauHagFdbOo-_XVy4_]--></g></svg>