<?xml version="1.0" encoding="us-ascii" standalone="no"?><svg xmlns="http://www.w3.org/2000/svg" xmlns:xlink="http://www.w3.org/1999/xlink" contentStyleType="text/css" height="1166px" preserveAspectRatio="none" style="width:1734px;height:1166px;background:#FFFFFF;" version="1.1" viewBox="0 0 1734 1166" width="1734px" zoomAndPan="magnify"><defs/><g><rect fill="#FFFFFF" height="972.1094" style="stroke:#181818;stroke-width:1.0;" width="10" x="36.5" y="93.6211"/><rect fill="#FFFFFF" height="948.8184" style="stroke:#181818;stroke-width:1.0;" width="10" x="514.5" y="116.9121"/><rect fill="#FFFFFF" height="873.9063" style="stroke:#181818;stroke-width:1.0;" width="10" x="840.5" y="191.8242"/><rect fill="#FFFFFF" height="31.291" style="stroke:#181818;stroke-width:1.0;" width="10" x="1012.5" y="267.4063"/><rect fill="#FFFFFF" height="31.291" style="stroke:#181818;stroke-width:1.0;" width="10" x="1159.5" y="329.9883"/><rect fill="#FFFFFF" height="31.291" style="stroke:#181818;stroke-width:1.0;" width="10" x="1292.5" y="392.5703"/><rect fill="#FFFFFF" height="31.291" style="stroke:#181818;stroke-width:1.0;" width="10" x="1405.5" y="455.1523"/><rect fill="#FFFFFF" height="31.291" style="stroke:#181818;stroke-width:1.0;" width="10" x="1512.5" y="517.7344"/><rect fill="#FFFFFF" height="31.291" style="stroke:#181818;stroke-width:1.0;" width="10" x="1641.5" y="580.3164"/><rect fill="#FFFFFF" height="30" style="stroke:#181818;stroke-width:1.0;" width="10" x="1641.5" y="856.9355"/><rect fill="#FFFFFF" height="30" style="stroke:#181818;stroke-width:1.0;" width="10" x="1641.5" y="997.4395"/><rect fill="none" height="283.668" style="stroke:#000000;stroke-width:1.5;" width="1717" x="10" y="751.7715"/><line style="stroke:#181818;stroke-width:0.5;stroke-dasharray:5.0,5.0;" x1="41" x2="41" y1="83.6211" y2="1083.7305"/><line style="stroke:#181818;stroke-width:0.5;stroke-dasharray:5.0,5.0;" x1="519" x2="519" y1="83.6211" y2="1083.7305"/><line style="stroke:#181818;stroke-width:0.5;stroke-dasharray:5.0,5.0;" x1="845" x2="845" y1="156.7227" y2="1083.7305"/><line style="stroke:#181818;stroke-width:0.5;stroke-dasharray:5.0,5.0;" x1="1017" x2="1017" y1="83.6211" y2="1083.7305"/><line style="stroke:#181818;stroke-width:0.5;stroke-dasharray:5.0,5.0;" x1="1164" x2="1164" y1="83.6211" y2="1083.7305"/><line style="stroke:#181818;stroke-width:0.5;stroke-dasharray:5.0,5.0;" x1="1297" x2="1297" y1="83.6211" y2="1083.7305"/><line style="stroke:#181818;stroke-width:0.5;stroke-dasharray:5.0,5.0;" x1="1410" x2="1410" y1="83.6211" y2="1083.7305"/><line style="stroke:#181818;stroke-width:0.5;stroke-dasharray:5.0,5.0;" x1="1517" x2="1517" y1="83.6211" y2="1083.7305"/><line style="stroke:#181818;stroke-width:0.5;stroke-dasharray:5.0,5.0;" x1="1646" x2="1646" y1="83.6211" y2="1083.7305"/><text fill="#000000" font-family="sans-serif" font-size="14" lengthAdjust="spacing" textLength="37" x="20" y="80.1074">Agent</text><ellipse cx="41.5" cy="13.5" fill="#E2E2F0" rx="8" ry="8" style="stroke:#181818;stroke-width:0.5;"/><path d="M41.5,21.5 L41.5,48.5 M28.5,29.5 L54.5,29.5 M41.5,48.5 L28.5,63.5 M41.5,48.5 L54.5,63.5 " fill="none" style="stroke:#181818;stroke-width:0.5;"/><text fill="#000000" font-family="sans-serif" font-size="14" lengthAdjust="spacing" textLength="37" x="20" y="1097.8379">Agent</text><ellipse cx="41.5" cy="1109.8516" fill="#E2E2F0" rx="8" ry="8" style="stroke:#181818;stroke-width:0.5;"/><path d="M41.5,1117.8516 L41.5,1144.8516 M28.5,1125.8516 L54.5,1125.8516 M41.5,1144.8516 L28.5,1159.8516 M41.5,1144.8516 L54.5,1159.8516 " fill="none" style="stroke:#181818;stroke-width:0.5;"/><rect fill="#E2E2F0" height="32.6211" rx="2.5" ry="2.5" style="stroke:#181818;stroke-width:0.5;" width="103" x="468" y="50"/><text fill="#000000" font-family="sans-serif" font-size="14" lengthAdjust="spacing" textLength="89" x="475" y="72.1074">ValidateVisitUI</text><rect fill="#E2E2F0" height="32.6211" rx="2.5" ry="2.5" style="stroke:#181818;stroke-width:0.5;" width="103" x="468" y="1082.7305"/><text fill="#000000" font-family="sans-serif" font-size="14" lengthAdjust="spacing" textLength="89" x="475" y="1104.8379">ValidateVisitUI</text><rect fill="#E2E2F0" height="32.6211" rx="2.5" ry="2.5" style="stroke:#181818;stroke-width:0.5;" width="161" x="765" y="1082.7305"/><text fill="#000000" font-family="sans-serif" font-size="14" lengthAdjust="spacing" textLength="147" x="772" y="1104.8379">ScheduleVisitController</text><rect fill="#E2E2F0" height="32.6211" rx="2.5" ry="2.5" style="stroke:#181818;stroke-width:0.5;" width="137" x="949" y="50"/><text fill="#000000" font-family="sans-serif" font-size="14" lengthAdjust="spacing" textLength="123" x="956" y="72.1074">:ApplicationSession</text><rect fill="#E2E2F0" height="32.6211" rx="2.5" ry="2.5" style="stroke:#181818;stroke-width:0.5;" width="137" x="949" y="1082.7305"/><text fill="#000000" font-family="sans-serif" font-size="14" lengthAdjust="spacing" textLength="123" x="956" y="1104.8379">:ApplicationSession</text><rect fill="#E2E2F0" height="51.2422" rx="2.5" ry="2.5" style="stroke:#181818;stroke-width:0.5;" width="137" x="1096" y="31.3789"/><text fill="#000000" font-family="sans-serif" font-size="14" lengthAdjust="spacing" textLength="74" x="1127.5" y="53.4863">appSession</text><text fill="#000000" font-family="sans-serif" font-size="14" lengthAdjust="spacing" textLength="123" x="1103" y="72.1074">:ApplicationSession</text><rect fill="#E2E2F0" height="51.2422" rx="2.5" ry="2.5" style="stroke:#181818;stroke-width:0.5;" width="137" x="1096" y="1082.7305"/><text fill="#000000" font-family="sans-serif" font-size="14" lengthAdjust="spacing" textLength="74" x="1127.5" y="1104.8379">appSession</text><text fill="#000000" font-family="sans-serif" font-size="14" lengthAdjust="spacing" textLength="123" x="1103" y="1123.459">:ApplicationSession</text><rect fill="#E2E2F0" height="51.2422" rx="2.5" ry="2.5" style="stroke:#181818;stroke-width:0.5;" width="109" x="1243" y="31.3789"/><text fill="#000000" font-family="sans-serif" font-size="14" lengthAdjust="spacing" textLength="95" x="1250" y="53.4863">currentSession</text><text fill="#000000" font-family="sans-serif" font-size="14" lengthAdjust="spacing" textLength="83" x="1256" y="72.1074">:UserSession</text><rect fill="#E2E2F0" height="51.2422" rx="2.5" ry="2.5" style="stroke:#181818;stroke-width:0.5;" width="109" x="1243" y="1082.7305"/><text fill="#000000" font-family="sans-serif" font-size="14" lengthAdjust="spacing" textLength="95" x="1250" y="1104.8379">currentSession</text><text fill="#000000" font-family="sans-serif" font-size="14" lengthAdjust="spacing" textLength="83" x="1256" y="1123.459">:UserSession</text><rect fill="#E2E2F0" height="32.6211" rx="2.5" ry="2.5" style="stroke:#181818;stroke-width:0.5;" width="97" x="1362" y="50"/><text fill="#000000" font-family="sans-serif" font-size="14" lengthAdjust="spacing" textLength="83" x="1369" y="72.1074">:Repositories</text><rect fill="#E2E2F0" height="32.6211" rx="2.5" ry="2.5" style="stroke:#181818;stroke-width:0.5;" width="97" x="1362" y="1082.7305"/><text fill="#000000" font-family="sans-serif" font-size="14" lengthAdjust="spacing" textLength="83" x="1369" y="1104.8379">:Repositories</text><rect fill="#E2E2F0" height="51.2422" rx="2.5" ry="2.5" style="stroke:#181818;stroke-width:0.5;" width="97" x="1469" y="31.3789"/><text fill="#000000" font-family="sans-serif" font-size="14" lengthAdjust="spacing" textLength="74" x="1480.5" y="53.4863">repositories</text><text fill="#000000" font-family="sans-serif" font-size="14" lengthAdjust="spacing" textLength="83" x="1476" y="72.1074">:Repositories</text><rect fill="#E2E2F0" height="51.2422" rx="2.5" ry="2.5" style="stroke:#181818;stroke-width:0.5;" width="97" x="1469" y="1082.7305"/><text fill="#000000" font-family="sans-serif" font-size="14" lengthAdjust="spacing" textLength="74" x="1480.5" y="1104.8379">repositories</text><text fill="#000000" font-family="sans-serif" font-size="14" lengthAdjust="spacing" textLength="83" x="1476" y="1123.459">:Repositories</text><rect fill="#E2E2F0" height="32.6211" rx="2.5" ry="2.5" style="stroke:#181818;stroke-width:0.5;" width="141" x="1576" y="50"/><text fill="#000000" font-family="sans-serif" font-size="14" lengthAdjust="spacing" textLength="127" x="1583" y="72.1074">ScheduleRepository</text><rect fill="#E2E2F0" height="32.6211" rx="2.5" ry="2.5" style="stroke:#181818;stroke-width:0.5;" width="141" x="1576" y="1082.7305"/><text fill="#000000" font-family="sans-serif" font-size="14" lengthAdjust="spacing" textLength="127" x="1583" y="1104.8379">ScheduleRepository</text><rect fill="#FFFFFF" height="972.1094" style="stroke:#181818;stroke-width:1.0;" width="10" x="36.5" y="93.6211"/><rect fill="#FFFFFF" height="948.8184" style="stroke:#181818;stroke-width:1.0;" width="10" x="514.5" y="116.9121"/><rect fill="#FFFFFF" height="873.9063" style="stroke:#181818;stroke-width:1.0;" width="10" x="840.5" y="191.8242"/><rect fill="#FFFFFF" height="31.291" style="stroke:#181818;stroke-width:1.0;" width="10" x="1012.5" y="267.4063"/><rect fill="#FFFFFF" height="31.291" style="stroke:#181818;stroke-width:1.0;" width="10" x="1159.5" y="329.9883"/><rect fill="#FFFFFF" height="31.291" style="stroke:#181818;stroke-width:1.0;" width="10" x="1292.5" y="392.5703"/><rect fill="#FFFFFF" height="31.291" style="stroke:#181818;stroke-width:1.0;" width="10" x="1405.5" y="455.1523"/><rect fill="#FFFFFF" height="31.291" style="stroke:#181818;stroke-width:1.0;" width="10" x="1512.5" y="517.7344"/><rect fill="#FFFFFF" height="31.291" style="stroke:#181818;stroke-width:1.0;" width="10" x="1641.5" y="580.3164"/><rect fill="#FFFFFF" height="30" style="stroke:#181818;stroke-width:1.0;" width="10" x="1641.5" y="856.9355"/><rect fill="#FFFFFF" height="30" style="stroke:#181818;stroke-width:1.0;" width="10" x="1641.5" y="997.4395"/><polygon fill="#181818" points="502.5,112.9121,512.5,116.9121,502.5,120.9121,506.5,116.9121" style="stroke:#181818;stroke-width:1.0;"/><line style="stroke:#181818;stroke-width:1.0;" x1="46.5" x2="508.5" y1="116.9121" y2="116.9121"/><text fill="#000000" font-family="sans-serif" font-size="13" font-weight="bold" lengthAdjust="spacing" textLength="7" x="53.5" y="111.6494">1</text><text fill="#000000" font-family="sans-serif" font-size="13" lengthAdjust="spacing" textLength="274" x="64.5" y="111.6494">starts placing an order to purchase the property</text><polygon fill="#181818" points="753,144.2031,763,148.2031,753,152.2031,757,148.2031" style="stroke:#181818;stroke-width:1.0;"/><line style="stroke:#181818;stroke-width:1.0;" x1="524.5" x2="759" y1="148.2031" y2="148.2031"/><text fill="#000000" font-family="sans-serif" font-size="13" font-weight="bold" lengthAdjust="spacing" textLength="7" x="531.5" y="142.9404">2</text><text fill="#000000" font-family="sans-serif" font-size="13" lengthAdjust="spacing" textLength="36" x="542.5" y="142.9404">create</text><rect fill="#E2E2F0" height="32.6211" rx="2.5" ry="2.5" style="stroke:#181818;stroke-width:0.5;" width="161" x="765" y="124.9121"/><text fill="#000000" font-family="sans-serif" font-size="14" lengthAdjust="spacing" textLength="147" x="772" y="147.0195">ScheduleVisitController</text><polygon fill="#181818" points="828.5,187.8242,838.5,191.8242,828.5,195.8242,832.5,191.8242" style="stroke:#181818;stroke-width:1.0;"/><line style="stroke:#181818;stroke-width:1.0;" x1="524.5" x2="834.5" y1="191.8242" y2="191.8242"/><text fill="#000000" font-family="sans-serif" font-size="13" font-weight="bold" lengthAdjust="spacing" textLength="7" x="531.5" y="186.5615">3</text><text fill="#000000" font-family="sans-serif" font-size="13" lengthAdjust="spacing" textLength="270" x="542.5" y="186.5615">getRequestScheduleListByResponsibleAgent()</text><line style="stroke:#181818;stroke-width:1.0;" x1="850.5" x2="892.5" y1="223.1152" y2="223.1152"/><line style="stroke:#181818;stroke-width:1.0;" x1="892.5" x2="892.5" y1="223.1152" y2="236.1152"/><line style="stroke:#181818;stroke-width:1.0;" x1="851.5" x2="892.5" y1="236.1152" y2="236.1152"/><polygon fill="#181818" points="861.5,232.1152,851.5,236.1152,861.5,240.1152,857.5,236.1152" style="stroke:#181818;stroke-width:1.0;"/><text fill="#000000" font-family="sans-serif" font-size="13" font-weight="bold" lengthAdjust="spacing" textLength="7" x="857.5" y="217.8525">4</text><text fill="#000000" font-family="sans-serif" font-size="13" lengthAdjust="spacing" textLength="137" x="868.5" y="217.8525">getAgentFromSession()</text><polygon fill="#181818" points="1000.5,263.4063,1010.5,267.4063,1000.5,271.4063,1004.5,267.4063" style="stroke:#181818;stroke-width:1.0;"/><line style="stroke:#181818;stroke-width:1.0;" x1="850.5" x2="1006.5" y1="267.4063" y2="267.4063"/><text fill="#000000" font-family="sans-serif" font-size="13" font-weight="bold" lengthAdjust="spacing" textLength="7" x="857.5" y="262.1436">5</text><text fill="#000000" font-family="sans-serif" font-size="13" lengthAdjust="spacing" textLength="75" x="868.5" y="262.1436">getInstance()</text><polygon fill="#181818" points="861.5,294.6973,851.5,298.6973,861.5,302.6973,857.5,298.6973" style="stroke:#181818;stroke-width:1.0;"/><line style="stroke:#181818;stroke-width:1.0;" x1="855.5" x2="1016.5" y1="298.6973" y2="298.6973"/><text fill="#000000" font-family="sans-serif" font-size="13" font-weight="bold" lengthAdjust="spacing" textLength="7" x="867.5" y="293.4346">6</text><text fill="#000000" font-family="sans-serif" font-size="13" lengthAdjust="spacing" textLength="105" x="878.5" y="293.4346">return appSession</text><polygon fill="#181818" points="1147.5,325.9883,1157.5,329.9883,1147.5,333.9883,1151.5,329.9883" style="stroke:#181818;stroke-width:1.0;"/><line style="stroke:#181818;stroke-width:1.0;" x1="850.5" x2="1153.5" y1="329.9883" y2="329.9883"/><text fill="#000000" font-family="sans-serif" font-size="13" font-weight="bold" lengthAdjust="spacing" textLength="7" x="857.5" y="324.7256">7</text><text fill="#000000" font-family="sans-serif" font-size="13" lengthAdjust="spacing" textLength="115" x="868.5" y="324.7256">getCurrentSession()</text><polygon fill="#181818" points="861.5,357.2793,851.5,361.2793,861.5,365.2793,857.5,361.2793" style="stroke:#181818;stroke-width:1.0;"/><line style="stroke:#181818;stroke-width:1.0;stroke-dasharray:2.0,2.0;" x1="855.5" x2="1163.5" y1="361.2793" y2="361.2793"/><text fill="#000000" font-family="sans-serif" font-size="13" font-weight="bold" lengthAdjust="spacing" textLength="7" x="867.5" y="356.0166">8</text><text fill="#000000" font-family="sans-serif" font-size="13" lengthAdjust="spacing" textLength="87" x="878.5" y="356.0166">currentSession</text><polygon fill="#181818" points="1280.5,388.5703,1290.5,392.5703,1280.5,396.5703,1284.5,392.5703" style="stroke:#181818;stroke-width:1.0;"/><line style="stroke:#181818;stroke-width:1.0;" x1="850.5" x2="1286.5" y1="392.5703" y2="392.5703"/><text fill="#000000" font-family="sans-serif" font-size="13" font-weight="bold" lengthAdjust="spacing" textLength="7" x="857.5" y="387.3076">9</text><text fill="#000000" font-family="sans-serif" font-size="13" lengthAdjust="spacing" textLength="218" x="868.5" y="387.3076">agentName = getUserNameByEmail()</text><polygon fill="#181818" points="861.5,419.8613,851.5,423.8613,861.5,427.8613,857.5,423.8613" style="stroke:#181818;stroke-width:1.0;"/><line style="stroke:#181818;stroke-width:1.0;stroke-dasharray:2.0,2.0;" x1="855.5" x2="1296.5" y1="423.8613" y2="423.8613"/><text fill="#000000" font-family="sans-serif" font-size="13" font-weight="bold" lengthAdjust="spacing" textLength="14" x="867.5" y="418.5986">10</text><text fill="#000000" font-family="sans-serif" font-size="13" lengthAdjust="spacing" textLength="66" x="885.5" y="418.5986">agentName</text><polygon fill="#181818" points="1393.5,451.1523,1403.5,455.1523,1393.5,459.1523,1397.5,455.1523" style="stroke:#181818;stroke-width:1.0;"/><line style="stroke:#181818;stroke-width:1.0;" x1="850.5" x2="1399.5" y1="455.1523" y2="455.1523"/><text fill="#000000" font-family="sans-serif" font-size="13" font-weight="bold" lengthAdjust="spacing" textLength="14" x="857.5" y="449.8896">11</text><text fill="#000000" font-family="sans-serif" font-size="13" lengthAdjust="spacing" textLength="75" x="875.5" y="449.8896">getInstance()</text><polygon fill="#181818" points="861.5,482.4434,851.5,486.4434,861.5,490.4434,857.5,486.4434" style="stroke:#181818;stroke-width:1.0;"/><line style="stroke:#181818;stroke-width:1.0;stroke-dasharray:2.0,2.0;" x1="855.5" x2="1409.5" y1="486.4434" y2="486.4434"/><text fill="#000000" font-family="sans-serif" font-size="13" font-weight="bold" lengthAdjust="spacing" textLength="14" x="867.5" y="481.1807">12</text><text fill="#000000" font-family="sans-serif" font-size="13" lengthAdjust="spacing" textLength="104" x="885.5" y="481.1807">return repositories</text><polygon fill="#181818" points="1500.5,513.7344,1510.5,517.7344,1500.5,521.7344,1504.5,517.7344" style="stroke:#181818;stroke-width:1.0;"/><line style="stroke:#181818;stroke-width:1.0;" x1="850.5" x2="1506.5" y1="517.7344" y2="517.7344"/><text fill="#000000" font-family="sans-serif" font-size="13" font-weight="bold" lengthAdjust="spacing" textLength="14" x="857.5" y="512.4717">13</text><text fill="#000000" font-family="sans-serif" font-size="13" lengthAdjust="spacing" textLength="142" x="875.5" y="512.4717">getScheduleRepository()</text><polygon fill="#181818" points="861.5,545.0254,851.5,549.0254,861.5,553.0254,857.5,549.0254" style="stroke:#181818;stroke-width:1.0;"/><line style="stroke:#181818;stroke-width:1.0;stroke-dasharray:2.0,2.0;" x1="855.5" x2="1516.5" y1="549.0254" y2="549.0254"/><text fill="#000000" font-family="sans-serif" font-size="13" font-weight="bold" lengthAdjust="spacing" textLength="14" x="867.5" y="543.7627">14</text><text fill="#000000" font-family="sans-serif" font-size="13" lengthAdjust="spacing" textLength="153" x="885.5" y="543.7627">return ScheduleRepository</text><polygon fill="#181818" points="1629.5,576.3164,1639.5,580.3164,1629.5,584.3164,1633.5,580.3164" style="stroke:#181818;stroke-width:1.0;"/><line style="stroke:#181818;stroke-width:1.0;" x1="850.5" x2="1635.5" y1="580.3164" y2="580.3164"/><text fill="#000000" font-family="sans-serif" font-size="13" font-weight="bold" lengthAdjust="spacing" textLength="14" x="857.5" y="575.0537">15</text><text fill="#000000" font-family="sans-serif" font-size="13" lengthAdjust="spacing" textLength="270" x="875.5" y="575.0537">getRequestScheduleListByResponsibleAgent()</text><polygon fill="#181818" points="861.5,607.6074,851.5,611.6074,861.5,615.6074,857.5,611.6074" style="stroke:#181818;stroke-width:1.0;"/><line style="stroke:#181818;stroke-width:1.0;" x1="855.5" x2="1645.5" y1="611.6074" y2="611.6074"/><text fill="#000000" font-family="sans-serif" font-size="13" font-weight="bold" lengthAdjust="spacing" textLength="14" x="867.5" y="606.3447">16</text><text fill="#000000" font-family="sans-serif" font-size="13" lengthAdjust="spacing" textLength="274" x="885.5" y="606.3447">return RequestScheduleListByResposibleAgent</text><polygon fill="#181818" points="535.5,638.8984,525.5,642.8984,535.5,646.8984,531.5,642.8984" style="stroke:#181818;stroke-width:1.0;"/><line style="stroke:#181818;stroke-width:1.0;" x1="529.5" x2="839.5" y1="642.8984" y2="642.8984"/><text fill="#000000" font-family="sans-serif" font-size="13" font-weight="bold" lengthAdjust="spacing" textLength="14" x="541.5" y="637.6357">17</text><text fill="#000000" font-family="sans-serif" font-size="13" lengthAdjust="spacing" textLength="274" x="559.5" y="637.6357">return RequestScheduleListByResposibleAgent</text><polygon fill="#181818" points="57.5,670.1895,47.5,674.1895,57.5,678.1895,53.5,674.1895" style="stroke:#181818;stroke-width:1.0;"/><line style="stroke:#181818;stroke-width:1.0;stroke-dasharray:2.0,2.0;" x1="51.5" x2="513.5" y1="674.1895" y2="674.1895"/><text fill="#000000" font-family="sans-serif" font-size="13" font-weight="bold" lengthAdjust="spacing" textLength="14" x="63.5" y="668.9268">18</text><text fill="#000000" font-family="sans-serif" font-size="13" lengthAdjust="spacing" textLength="218" x="81.5" y="668.9268">requests to select a schedule request</text><polygon fill="#181818" points="502.5,701.4805,512.5,705.4805,502.5,709.4805,506.5,705.4805" style="stroke:#181818;stroke-width:1.0;"/><line style="stroke:#181818;stroke-width:1.0;" x1="46.5" x2="508.5" y1="705.4805" y2="705.4805"/><text fill="#000000" font-family="sans-serif" font-size="13" font-weight="bold" lengthAdjust="spacing" textLength="14" x="53.5" y="700.2178">19</text><text fill="#000000" font-family="sans-serif" font-size="13" lengthAdjust="spacing" textLength="167" x="71.5" y="700.2178">selects the schedule request</text><polygon fill="#181818" points="57.5,732.7715,47.5,736.7715,57.5,740.7715,53.5,736.7715" style="stroke:#181818;stroke-width:1.0;"/><line style="stroke:#181818;stroke-width:1.0;" x1="51.5" x2="513.5" y1="736.7715" y2="736.7715"/><text fill="#000000" font-family="sans-serif" font-size="13" font-weight="bold" lengthAdjust="spacing" textLength="14" x="63.5" y="731.5088">20</text><text fill="#000000" font-family="sans-serif" font-size="13" lengthAdjust="spacing" textLength="426" x="81.5" y="731.5088">requests to accept or reject the schedule request and asks for cofirmation</text><path d="M10,751.7715 L71,751.7715 L71,761.0625 L61,771.0625 L10,771.0625 L10,751.7715 " fill="#EEEEEE" style="stroke:#000000;stroke-width:1.5;"/><rect fill="none" height="283.668" style="stroke:#000000;stroke-width:1.5;" width="1717" x="10" y="751.7715"/><text fill="#000000" font-family="sans-serif" font-size="13" font-weight="bold" lengthAdjust="spacing" textLength="16" x="25" y="766.7998">alt</text><text fill="#000000" font-family="sans-serif" font-size="11" font-weight="bold" lengthAdjust="spacing" textLength="166" x="86" y="765.6416">[accept the schedule request]</text><polygon fill="#181818" points="502.5,790.3535,512.5,794.3535,502.5,798.3535,506.5,794.3535" style="stroke:#181818;stroke-width:1.0;"/><line style="stroke:#181818;stroke-width:1.0;" x1="46.5" x2="508.5" y1="794.3535" y2="794.3535"/><text fill="#000000" font-family="sans-serif" font-size="13" font-weight="bold" lengthAdjust="spacing" textLength="14" x="53.5" y="789.0908">21</text><text fill="#000000" font-family="sans-serif" font-size="13" lengthAdjust="spacing" textLength="164" x="71.5" y="789.0908">accept the schedule request</text><polygon fill="#181818" points="828.5,821.6445,838.5,825.6445,828.5,829.6445,832.5,825.6445" style="stroke:#181818;stroke-width:1.0;"/><line style="stroke:#181818;stroke-width:1.0;" x1="524.5" x2="834.5" y1="825.6445" y2="825.6445"/><text fill="#000000" font-family="sans-serif" font-size="13" font-weight="bold" lengthAdjust="spacing" textLength="14" x="531.5" y="820.3818">22</text><text fill="#000000" font-family="sans-serif" font-size="13" lengthAdjust="spacing" textLength="216" x="549.5" y="820.3818">addConfirmedSchedule(schedulePos)</text><polygon fill="#181818" points="1629.5,852.9355,1639.5,856.9355,1629.5,860.9355,1633.5,856.9355" style="stroke:#181818;stroke-width:1.0;"/><line style="stroke:#181818;stroke-width:1.0;" x1="850.5" x2="1635.5" y1="856.9355" y2="856.9355"/><text fill="#000000" font-family="sans-serif" font-size="13" font-weight="bold" lengthAdjust="spacing" textLength="14" x="857.5" y="851.6729">23</text><text fill="#000000" font-family="sans-serif" font-size="13" lengthAdjust="spacing" textLength="195" x="875.5" y="851.6729">addConfirmedSchedule(Schedule)</text><line style="stroke:#000000;stroke-width:1.0;stroke-dasharray:2.0,2.0;" x1="10" x2="1727" y1="895.9355" y2="895.9355"/><text fill="#000000" font-family="sans-serif" font-size="11" font-weight="bold" lengthAdjust="spacing" textLength="162" x="15" y="907.8057">[reject the schedule request]</text><polygon fill="#181818" points="502.5,930.8574,512.5,934.8574,502.5,938.8574,506.5,934.8574" style="stroke:#181818;stroke-width:1.0;"/><line style="stroke:#181818;stroke-width:1.0;" x1="46.5" x2="508.5" y1="934.8574" y2="934.8574"/><text fill="#000000" font-family="sans-serif" font-size="13" font-weight="bold" lengthAdjust="spacing" textLength="14" x="53.5" y="929.5947">24</text><text fill="#000000" font-family="sans-serif" font-size="13" lengthAdjust="spacing" textLength="157" x="71.5" y="929.5947">reject the schedule request</text><polygon fill="#181818" points="828.5,962.1484,838.5,966.1484,828.5,970.1484,832.5,966.1484" style="stroke:#181818;stroke-width:1.0;"/><line style="stroke:#181818;stroke-width:1.0;" x1="524.5" x2="834.5" y1="966.1484" y2="966.1484"/><text fill="#000000" font-family="sans-serif" font-size="13" font-weight="bold" lengthAdjust="spacing" textLength="14" x="531.5" y="960.8857">25</text><text fill="#000000" font-family="sans-serif" font-size="13" lengthAdjust="spacing" textLength="209" x="549.5" y="960.8857">addRejectedSchedule(schedulePos)</text><polygon fill="#181818" points="1629.5,993.4395,1639.5,997.4395,1629.5,1001.4395,1633.5,997.4395" style="stroke:#181818;stroke-width:1.0;"/><line style="stroke:#181818;stroke-width:1.0;" x1="850.5" x2="1635.5" y1="997.4395" y2="997.4395"/><text fill="#000000" font-family="sans-serif" font-size="13" font-weight="bold" lengthAdjust="spacing" textLength="14" x="857.5" y="992.1768">26</text><text fill="#000000" font-family="sans-serif" font-size="13" lengthAdjust="spacing" textLength="188" x="875.5" y="992.1768">addRejectedSchedule(Schedule)</text><polygon fill="#181818" points="52.5,1061.7305,42.5,1065.7305,52.5,1069.7305,48.5,1065.7305" style="stroke:#181818;stroke-width:1.0;"/><line style="stroke:#181818;stroke-width:1.0;" x1="46.5" x2="518.5" y1="1065.7305" y2="1065.7305"/><text fill="#000000" font-family="sans-serif" font-size="13" font-weight="bold" lengthAdjust="spacing" textLength="14" x="58.5" y="1060.4678">27</text><text fill="#000000" font-family="sans-serif" font-size="13" lengthAdjust="spacing" textLength="145" x="76.5" y="1060.4678">informs operation sucess</text><!--SRC=[hLLHQzim47xthn1zQWhz0u4Dqh91OOoGq3uDXYfVKssofEdaGVxzxcIxaM8beTi2Zcpfk-zETvzEie_EzjqpXAQHAheWLZkmKKWKabyQBqFKIdj9aq_Iw5P6UDAeu-C3WtfT8BRg5ThU38XxPsDmna1Wf8gXW5ujLzuRhMJKpcu1aOOh1dvVhTSbKde_0hxPKrOp8zM7G1iu63uYXDm2wLswQlWRy8usuCB-AEIt1GsOI0x8hROx0vJDqYHa5XJ4Z83MBuNGoB98-ZVLO2nFamPn-v4giHGOYGc5Dr9HD49QuK9BwOzE-3weLuaWuYi87vo74FSP7HMowJKJKQ5kRiHIg02qaCqknGxY1dxrW74Ayul6UBVV07fdKJyRIFAvNcJCN7XwSf84-XnSDzQ3y2E2YvyW3vOsOnNGqXjJKWR_4J9H1OXziEAWZwQ54ZtIJgptXIXoRWOdvYdCKZyvSSOxQ6Wv5EEhx41yO3SiDVwwst_gf3Qvdr5rmp1v4nb3xca4JzugOZkPgvemAtE7_OwvpFMQXrBZuxZ8d4nI67FfvW6nqEcvBKjNaNlcb6scpS-HVwd7Yilvb3XAosat1ozvvBLZF6w43-fxMDC19Bka43PDDiY76i60ecOjS6IOLe_QGe9XElep9D7NoQLIu2Dr49hzmMvgvjHZMcfZFr6y452v5nswr9ifuIPE77N7Wdx9xnZcHN3MYMJRqlN2tg2TqdSzMQqTBWQBCzgfCamlYo6uSzLam8M2Wq4ubxnv2Yw2onHi4lmVCZ0Z-Cy9i6sfBsr99XqAldwIJ0JsYffSq-I7Xs-Cx9ElflnxkFd-0000]--></g></svg>