<?xml version="1.0" encoding="us-ascii" standalone="no"?><svg xmlns="http://www.w3.org/2000/svg" xmlns:xlink="http://www.w3.org/1999/xlink" contentStyleType="text/css" height="792px" preserveAspectRatio="none" style="width:466px;height:792px;background:#FFFFFF;" version="1.1" viewBox="0 0 466 792" width="466px" zoomAndPan="magnify"><defs/><g><!--class Branch--><g id="elem_Branch"><rect codeLine="14" fill="#F1F1F1" height="111.1055" id="Branch" rx="2.5" ry="2.5" style="stroke:#181818;stroke-width:0.5;" width="101" x="209.5" y="7"/><text fill="#000000" font-family="sans-serif" font-size="14" lengthAdjust="spacing" textLength="45" x="237.5" y="27.1074">Branch</text><line style="stroke:#181818;stroke-width:0.5;" x1="210.5" x2="309.5" y1="35.6211" y2="35.6211"/><text fill="#000000" font-family="sans-serif" font-size="14" lengthAdjust="spacing" textLength="35" x="215.5" y="54.7285">name</text><text fill="#000000" font-family="sans-serif" font-size="14" lengthAdjust="spacing" textLength="51" x="215.5" y="73.3496">address</text><text fill="#000000" font-family="sans-serif" font-size="14" lengthAdjust="spacing" textLength="33" x="215.5" y="91.9707">email</text><text fill="#000000" font-family="sans-serif" font-size="14" lengthAdjust="spacing" textLength="89" x="215.5" y="110.5918">phoneNumber</text></g><!--class StoreMan--><g id="elem_StoreMan"><rect codeLine="22" fill="#F1F1F1" height="36.6211" id="StoreMan" rx="2.5" ry="2.5" style="stroke:#181818;stroke-width:0.5;" width="100" x="7" y="44"/><text fill="#000000" font-family="sans-serif" font-size="14" lengthAdjust="spacing" textLength="94" x="10" y="64.1074">Store Manager</text><line style="stroke:#181818;stroke-width:0.5;" x1="8" x2="106" y1="72.6211" y2="72.6211"/></g><!--class Buyer--><g id="elem_Buyer"><rect codeLine="27" fill="#F1F1F1" height="36.6211" id="Buyer" rx="2.5" ry="2.5" style="stroke:#181818;stroke-width:0.5;" width="43" x="376.5" y="44"/><text fill="#000000" font-family="sans-serif" font-size="14" lengthAdjust="spacing" textLength="37" x="379.5" y="64.1074">Buyer</text><line style="stroke:#181818;stroke-width:0.5;" x1="377.5" x2="418.5" y1="72.6211" y2="72.6211"/></g><!--class Order--><g id="elem_Order"><rect codeLine="31" fill="#F1F1F1" height="55.2422" id="Order" rx="2.5" ry="2.5" style="stroke:#181818;stroke-width:0.5;" width="94" x="351" y="215.5"/><text fill="#000000" font-family="sans-serif" font-size="14" lengthAdjust="spacing" textLength="37" x="379.5" y="235.6074">Order</text><line style="stroke:#181818;stroke-width:0.5;" x1="352" x2="444" y1="244.1211" y2="244.1211"/><text fill="#000000" font-family="sans-serif" font-size="14" lengthAdjust="spacing" textLength="82" x="357" y="263.2285">orderAmount</text></g><!--class Announcement--><g id="elem_Announcement"><rect codeLine="36" fill="#F1F1F1" height="92.4844" id="Announcement" rx="2.5" ry="2.5" style="stroke:#181818;stroke-width:0.5;" width="111" x="204.5" y="197"/><text fill="#000000" font-family="sans-serif" font-size="14" lengthAdjust="spacing" textLength="95" x="212.5" y="217.1074">Announcement</text><line style="stroke:#181818;stroke-width:0.5;" x1="205.5" x2="314.5" y1="225.6211" y2="225.6211"/><text fill="#000000" font-family="sans-serif" font-size="14" lengthAdjust="spacing" textLength="31" x="210.5" y="244.7285">state</text><text fill="#000000" font-family="sans-serif" font-size="14" lengthAdjust="spacing" textLength="31" x="210.5" y="263.3496">price</text><text fill="#000000" font-family="sans-serif" font-size="14" lengthAdjust="spacing" textLength="99" x="210.5" y="281.9707">typeOfBusiness</text></g><!--class Property--><g id="elem_Property"><rect codeLine="42" fill="#F1F1F1" height="92.4844" id="Property" rx="2.5" ry="2.5" style="stroke:#181818;stroke-width:0.5;" width="131" x="263.5" y="368"/><text fill="#000000" font-family="sans-serif" font-size="14" lengthAdjust="spacing" textLength="54" x="302" y="388.1074">Property</text><line style="stroke:#181818;stroke-width:0.5;" x1="264.5" x2="393.5" y1="396.6211" y2="396.6211"/><text fill="#000000" font-family="sans-serif" font-size="14" lengthAdjust="spacing" textLength="29" x="269.5" y="415.7285">area</text><text fill="#000000" font-family="sans-serif" font-size="14" lengthAdjust="spacing" textLength="119" x="269.5" y="434.3496">cityCenterDistance</text><text fill="#000000" font-family="sans-serif" font-size="14" lengthAdjust="spacing" textLength="80" x="269.5" y="452.9707">photographs</text></g><!--class HabitableProperty--><g id="elem_HabitableProperty"><rect codeLine="48" fill="#F1F1F1" height="111.1055" id="HabitableProperty" rx="2.5" ry="2.5" style="stroke:#181818;stroke-width:0.5;" width="170" x="244" y="521"/><text fill="#000000" font-family="sans-serif" font-size="14" lengthAdjust="spacing" textLength="113" x="272.5" y="541.1074">HabitableProperty</text><line style="stroke:#181818;stroke-width:0.5;" x1="245" x2="413" y1="549.6211" y2="549.6211"/><text fill="#000000" font-family="sans-serif" font-size="14" lengthAdjust="spacing" textLength="127" x="250" y="568.7285">numberOfBedrooms</text><text fill="#000000" font-family="sans-serif" font-size="14" lengthAdjust="spacing" textLength="131" x="250" y="587.3496">numberOfBathrooms</text><text fill="#000000" font-family="sans-serif" font-size="14" lengthAdjust="spacing" textLength="158" x="250" y="605.9707">numberOfParkingSpaces</text><text fill="#000000" font-family="sans-serif" font-size="14" lengthAdjust="spacing" textLength="66" x="250" y="624.5918">equipment</text></g><!--class House--><g id="elem_House"><rect codeLine="55" fill="#F1F1F1" height="92.4844" id="House" rx="2.5" ry="2.5" style="stroke:#181818;stroke-width:0.5;" width="128" x="198" y="693"/><text fill="#000000" font-family="sans-serif" font-size="14" lengthAdjust="spacing" textLength="40" x="242" y="713.1074">House</text><line style="stroke:#181818;stroke-width:0.5;" x1="199" x2="325" y1="721.6211" y2="721.6211"/><text fill="#000000" font-family="sans-serif" font-size="14" lengthAdjust="spacing" textLength="86" x="204" y="740.7285">hasBasement</text><text fill="#000000" font-family="sans-serif" font-size="14" lengthAdjust="spacing" textLength="116" x="204" y="759.3496">hasInhabitableLoft</text><text fill="#000000" font-family="sans-serif" font-size="14" lengthAdjust="spacing" textLength="82" x="204" y="777.9707">sunExposure</text></g><!--class Apartment--><g id="elem_Apartment"><rect codeLine="61" fill="#F1F1F1" height="36.6211" id="Apartment" rx="2.5" ry="2.5" style="stroke:#181818;stroke-width:0.5;" width="71" x="361.5" y="720.5"/><text fill="#000000" font-family="sans-serif" font-size="14" lengthAdjust="spacing" textLength="65" x="364.5" y="740.6074">Apartment</text><line style="stroke:#181818;stroke-width:0.5;" x1="362.5" x2="431.5" y1="749.1211" y2="749.1211"/></g><!--link Branch to Announcement--><g id="link_Branch_Announcement"><path codeLine="66" d="M260,118.03 C260,143.25 260,172.85 260,196.81 " fill="none" id="Branch-Announcement" style="stroke:#181818;stroke-width:1.0;"/><polygon fill="#000000" points="265,162.6455,267.9389,153.6004,262.0611,153.6004,265,162.6455" style="stroke:#000000;stroke-width:1.0;"/><text fill="#000000" font-family="sans-serif" font-size="13" lengthAdjust="spacing" textLength="55" x="274" y="163.0283">publishes</text><text fill="#000000" font-family="sans-serif" font-size="13" lengthAdjust="spacing" textLength="7" x="252.5516" y="140.2741">1</text><text fill="#000000" font-family="sans-serif" font-size="13" lengthAdjust="spacing" textLength="5" x="254.6328" y="185.7915">*</text></g><!--link Announcement to Property--><g id="link_Announcement_Property"><path codeLine="67" d="M267.47,289.42 C270.88,305.16 275.62,322.68 282,338 C286.2,348.07 291.68,358.32 297.42,367.88 " fill="none" id="Announcement-Property" style="stroke:#181818;stroke-width:1.0;"/><polygon fill="#000000" points="288.7831,333.3167,288.3031,323.8183,282.8117,325.9145,288.7831,333.3167" style="stroke:#000000;stroke-width:1.0;"/><text fill="#000000" font-family="sans-serif" font-size="13" lengthAdjust="spacing" textLength="49" x="296" y="334.0283">contains</text><text fill="#000000" font-family="sans-serif" font-size="13" lengthAdjust="spacing" textLength="7" x="261.0531" y="311.5005">1</text><text fill="#000000" font-family="sans-serif" font-size="13" lengthAdjust="spacing" textLength="7" x="285.2676" y="356.8718">1</text></g><!--reverse link Property to HabitableProperty--><g id="link_Property_HabitableProperty"><path codeLine="69" d="M329,480.46 C329,493.83 329,507.77 329,520.73 " fill="none" id="Property-backto-HabitableProperty" style="stroke:#181818;stroke-width:1.0;"/><polygon fill="none" points="322,480.14,329,460.14,336,480.14,322,480.14" style="stroke:#181818;stroke-width:1.0;"/></g><!--reverse link HabitableProperty to House--><g id="link_HabitableProperty_House"><path codeLine="70" d="M298.41,650.78 C292.43,665.1 286.33,679.71 280.88,692.78 " fill="none" id="HabitableProperty-backto-House" style="stroke:#181818;stroke-width:1.0;"/><polygon fill="none" points="291.97,648.05,306.13,632.29,304.88,653.44,291.97,648.05" style="stroke:#181818;stroke-width:1.0;"/></g><!--reverse link HabitableProperty to Apartment--><g id="link_HabitableProperty_Apartment"><path codeLine="71" d="M360.03,650.75 C370.97,676.56 382.31,703.34 389.5,720.31 " fill="none" id="HabitableProperty-backto-Apartment" style="stroke:#181818;stroke-width:1.0;"/><polygon fill="none" points="353.57,653.43,352.21,632.29,366.46,647.97,353.57,653.43" style="stroke:#181818;stroke-width:1.0;"/></g><!--link StoreMan to Branch--><g id="link_StoreMan_Branch"><path codeLine="73" d="M107.18,62.5 C136.59,62.5 173.81,62.5 204.15,62.5 " fill="none" id="StoreMan-to-Branch" style="stroke:#181818;stroke-width:1.0;"/><polygon fill="#181818" points="209.34,62.5,200.34,58.5,204.34,62.5,200.34,66.5,209.34,62.5" style="stroke:#181818;stroke-width:1.0;"/><polygon fill="#000000" points="134.25,50.1455,125.2049,47.2066,125.2049,53.0844,134.25,50.1455" style="stroke:#000000;stroke-width:1.0;"/><text fill="#000000" font-family="sans-serif" font-size="13" lengthAdjust="spacing" textLength="53" x="138.25" y="55.5283">manages</text><text fill="#000000" font-family="sans-serif" font-size="13" lengthAdjust="spacing" textLength="7" x="115.0643" y="58.3291">1</text><text fill="#000000" font-family="sans-serif" font-size="13" lengthAdjust="spacing" textLength="7" x="194.3853" y="58.2935">1</text></g><!--link Buyer to Order--><g id="link_Buyer_Order"><path codeLine="75" d="M398,81.27 C398,111.27 398,172.39 398,210.01 " fill="none" id="Buyer-to-Order" style="stroke:#181818;stroke-width:1.0;"/><polygon fill="#181818" points="398,215.38,402,206.38,398,210.38,394,206.38,398,215.38" style="stroke:#181818;stroke-width:1.0;"/><polygon fill="#000000" points="403,162.6455,405.9389,153.6004,400.0611,153.6004,403,162.6455" style="stroke:#000000;stroke-width:1.0;"/><text fill="#000000" font-family="sans-serif" font-size="13" lengthAdjust="spacing" textLength="46" x="412" y="163.0283">submits</text></g><!--link Order to Property--><g id="link_Order_Property"><path codeLine="76" d="M387.07,270.78 C376.97,295.52 361.71,332.89 349.36,363.12 " fill="none" id="Order-to-Property" style="stroke:#181818;stroke-width:1.0;"/><polygon fill="#181818" points="347.41,367.91,354.51,361.0844,349.2965,363.2795,347.1013,358.066,347.41,367.91" style="stroke:#181818;stroke-width:1.0;"/><polygon fill="#000000" points="369.1096,333.2744,375.2501,326.0118,369.8085,323.7895,369.1096,333.2744" style="stroke:#000000;stroke-width:1.0;"/><text fill="#000000" font-family="sans-serif" font-size="13" lengthAdjust="spacing" textLength="62" x="380" y="334.0283">to buy/rent</text></g><!--SRC=[TLFRZXCn37ttLqHzgOHK2ZnMg58BIAm4x4hz0i-CEubsSi5n14FPVyUJRjjPhNXAnlQnppdnBAr8oflrEWqOfFZXRHlzkXqmvrNdi6Vq0FdHXOHwDJw6s5gEdenmeLacOVk8FHra7CWmjOAX7-O5sM8NVxdGcoCEcG2MjzpW0icOo4GM6s4vq56CHCEkjs8wD_LpCSowLOOx4NPD4RfhOpYuFsJUpRls74kw2vROAPkMp0UmhYFJEcwLMhrxqe5T1gWDpPwrq9uWe2V0hcFA6SYZ6o3P6EX7yGqnF058x1LAR4xFqCL18fFvZa5ju8N1R6f40p01BXFAg0skd_VS4PyWJiVEnn9aLhiBGICjUGfoWYme18bTIp2PTN_Sbwp6ASEd2-A1OoAMyGJ8XD0w6JyfcFYpozM3IOPIPqns1lkAZLhK37J3XwfKPr37CVfy2w3Obv47PFMyF-WAaBhrixWqCPwrZoNJ2IpcFUQgPhhhorp6Vej7WLp2bzyfvi9qW-xqAUMiV_85pWza5kyNPhKoYpUB5oPjJ2hDuBAbRBOmprmHUbn4ReokZQ0BKp5SekRZNwrxvGYyYZmNJjh-bxoo1xZimfd8jXvdCHlZwyvK5dKzbEZsl1aRaqlZdKov6gYfcm3zHveohdbIk8L_]--></g></svg>