<?xml version="1.0" encoding="us-ascii" standalone="no"?><svg xmlns="http://www.w3.org/2000/svg" xmlns:xlink="http://www.w3.org/1999/xlink" contentStyleType="text/css" height="509px" preserveAspectRatio="none" style="width:495px;height:509px;background:#FFFFFF;" version="1.1" viewBox="0 0 495 509" width="495px" zoomAndPan="magnify"><defs/><g><text fill="#000000" font-family="sans-serif" font-size="14" font-weight="bold" lengthAdjust="spacing" textLength="233" x="132.5" y="30.1074">System Sequence Diagram US010</text><rect fill="#FFFFFF" height="284.6191" style="stroke:#181818;stroke-width:1.0;" width="10" x="36" y="133.2422"/><rect fill="#FFFFFF" height="284.6191" style="stroke:#181818;stroke-width:1.0;" width="10" x="444" y="133.2422"/><rect fill="none" height="81.873" style="stroke:#000000;stroke-width:1.5;" width="479" x="10" y="234.1152"/><line style="stroke:#181818;stroke-width:0.5;stroke-dasharray:5.0,5.0;" x1="41" x2="41" y1="123.2422" y2="426.8613"/><line style="stroke:#181818;stroke-width:0.5;stroke-dasharray:5.0,5.0;" x1="449" x2="449" y1="123.2422" y2="426.8613"/><text fill="#000000" font-family="sans-serif" font-size="14" lengthAdjust="spacing" textLength="36" x="20" y="119.7285">Client</text><ellipse cx="41" cy="53.1211" fill="#E2E2F0" rx="8" ry="8" style="stroke:#181818;stroke-width:0.5;"/><path d="M41,61.1211 L41,88.1211 M28,69.1211 L54,69.1211 M41,88.1211 L28,103.1211 M41,88.1211 L54,103.1211 " fill="none" style="stroke:#181818;stroke-width:0.5;"/><text fill="#000000" font-family="sans-serif" font-size="14" lengthAdjust="spacing" textLength="36" x="20" y="440.9688">Client</text><ellipse cx="41" cy="452.9824" fill="#E2E2F0" rx="8" ry="8" style="stroke:#181818;stroke-width:0.5;"/><path d="M41,460.9824 L41,487.9824 M28,468.9824 L54,468.9824 M41,487.9824 L28,502.9824 M41,487.9824 L54,502.9824 " fill="none" style="stroke:#181818;stroke-width:0.5;"/><rect fill="#E2E2F0" height="32.6211" rx="2.5" ry="2.5" style="stroke:#181818;stroke-width:0.5;" width="60" x="419" y="89.6211"/><text fill="#000000" font-family="sans-serif" font-size="14" lengthAdjust="spacing" textLength="46" x="426" y="111.7285">System</text><rect fill="#E2E2F0" height="32.6211" rx="2.5" ry="2.5" style="stroke:#181818;stroke-width:0.5;" width="60" x="419" y="425.8613"/><text fill="#000000" font-family="sans-serif" font-size="14" lengthAdjust="spacing" textLength="46" x="426" y="447.9688">System</text><rect fill="#FFFFFF" height="284.6191" style="stroke:#181818;stroke-width:1.0;" width="10" x="36" y="133.2422"/><rect fill="#FFFFFF" height="284.6191" style="stroke:#181818;stroke-width:1.0;" width="10" x="444" y="133.2422"/><polygon fill="#181818" points="432,152.5332,442,156.5332,432,160.5332,436,156.5332" style="stroke:#181818;stroke-width:1.0;"/><line style="stroke:#181818;stroke-width:1.0;" x1="46" x2="438" y1="156.5332" y2="156.5332"/><text fill="#000000" font-family="sans-serif" font-size="13" font-weight="bold" lengthAdjust="spacing" textLength="7" x="53" y="151.2705">1</text><text fill="#000000" font-family="sans-serif" font-size="13" lengthAdjust="spacing" textLength="274" x="64" y="151.2705">starts placing an order to purchase the property</text><polygon fill="#181818" points="57,183.8242,47,187.8242,57,191.8242,53,187.8242" style="stroke:#181818;stroke-width:1.0;"/><line style="stroke:#181818;stroke-width:1.0;" x1="51" x2="443" y1="187.8242" y2="187.8242"/><text fill="#000000" font-family="sans-serif" font-size="13" font-weight="bold" lengthAdjust="spacing" textLength="7" x="63" y="182.5615">2</text><text fill="#000000" font-family="sans-serif" font-size="13" lengthAdjust="spacing" textLength="363" x="74" y="182.5615">shows announcements list and requests the user to select one</text><polygon fill="#181818" points="432,215.1152,442,219.1152,432,223.1152,436,219.1152" style="stroke:#181818;stroke-width:1.0;"/><line style="stroke:#181818;stroke-width:1.0;" x1="46" x2="438" y1="219.1152" y2="219.1152"/><text fill="#000000" font-family="sans-serif" font-size="13" font-weight="bold" lengthAdjust="spacing" textLength="7" x="53" y="213.8525">3</text><text fill="#000000" font-family="sans-serif" font-size="13" lengthAdjust="spacing" textLength="270" x="64" y="213.8525">selects announcement with the desire property</text><path d="M10,234.1152 L83,234.1152 L83,243.4063 L73,253.4063 L10,253.4063 L10,234.1152 " fill="#EEEEEE" style="stroke:#000000;stroke-width:1.5;"/><rect fill="none" height="81.873" style="stroke:#000000;stroke-width:1.5;" width="479" x="10" y="234.1152"/><text fill="#000000" font-family="sans-serif" font-size="13" font-weight="bold" lengthAdjust="spacing" textLength="28" x="25" y="249.1436">loop</text><text fill="#000000" font-family="sans-serif" font-size="11" font-weight="bold" lengthAdjust="spacing" textLength="374" x="98" y="247.9854">[(order amount is not equal or lower than the price of the property)]</text><polygon fill="#181818" points="57,272.6973,47,276.6973,57,280.6973,53,276.6973" style="stroke:#181818;stroke-width:1.0;"/><line style="stroke:#181818;stroke-width:1.0;" x1="51" x2="443" y1="276.6973" y2="276.6973"/><text fill="#000000" font-family="sans-serif" font-size="13" font-weight="bold" lengthAdjust="spacing" textLength="7" x="63" y="271.4346">4</text><text fill="#000000" font-family="sans-serif" font-size="13" lengthAdjust="spacing" textLength="130" x="74" y="271.4346">requests order amount</text><polygon fill="#181818" points="432,303.9883,442,307.9883,432,311.9883,436,307.9883" style="stroke:#181818;stroke-width:1.0;"/><line style="stroke:#181818;stroke-width:1.0;" x1="46" x2="438" y1="307.9883" y2="307.9883"/><text fill="#000000" font-family="sans-serif" font-size="13" font-weight="bold" lengthAdjust="spacing" textLength="7" x="53" y="302.7256">5</text><text fill="#000000" font-family="sans-serif" font-size="13" lengthAdjust="spacing" textLength="112" x="64" y="302.7256">types order amount</text><polygon fill="#181818" points="57,342.2793,47,346.2793,57,350.2793,53,346.2793" style="stroke:#181818;stroke-width:1.0;"/><line style="stroke:#181818;stroke-width:1.0;" x1="51" x2="443" y1="346.2793" y2="346.2793"/><text fill="#000000" font-family="sans-serif" font-size="13" font-weight="bold" lengthAdjust="spacing" textLength="7" x="63" y="341.0166">6</text><text fill="#000000" font-family="sans-serif" font-size="13" lengthAdjust="spacing" textLength="270" x="74" y="341.0166">shows the order data and asks for confirmation</text><polygon fill="#181818" points="432,373.5703,442,377.5703,432,381.5703,436,377.5703" style="stroke:#181818;stroke-width:1.0;"/><line style="stroke:#181818;stroke-width:1.0;" x1="46" x2="438" y1="377.5703" y2="377.5703"/><text fill="#000000" font-family="sans-serif" font-size="13" font-weight="bold" lengthAdjust="spacing" textLength="7" x="53" y="372.3076">7</text><text fill="#000000" font-family="sans-serif" font-size="13" lengthAdjust="spacing" textLength="100" x="64" y="372.3076">confirms the data</text><polygon fill="#181818" points="57,404.8613,47,408.8613,57,412.8613,53,408.8613" style="stroke:#181818;stroke-width:1.0;"/><line style="stroke:#181818;stroke-width:1.0;" x1="51" x2="443" y1="408.8613" y2="408.8613"/><text fill="#000000" font-family="sans-serif" font-size="13" font-weight="bold" lengthAdjust="spacing" textLength="7" x="63" y="403.5986">8</text><text fill="#000000" font-family="sans-serif" font-size="13" lengthAdjust="spacing" textLength="145" x="74" y="403.5986">informs operation sucess</text><!--SRC=[RP0nKWCn34Lxdq8b5Cn0Iq43DyXm0E5LiXgybh5aChazyZfaie6jrfB-q_yojaImEwdH0ZlwQfGZmHlZeU82xxl7fySGC9fKU4rCsG0LuleN2bRZo0MzUYPuix4BcabkomVLLSpVQFIhkhpxuAZ1muk_da7DYGebOUHy0CmWTQ8A9b1QZJCgWSq4fKgXQgSG6dVjeBX-bgEwB4lp58lN51AhUyuJr1vElT89JGTMAL4qa4n_lAoTBGsERFEgdqYvNXj98WNkXbrSN6702baCV2qc3m99ZdtfxB562FPBotwJw3u4E7_RQ1VtroikirlhTYfqCnWeJ_zVgsyVenCQhfT2_LJOk-CeUSzrGMF9j_SvzmQWIs_nd1tX_Hvi9O2sIAeX_000]--></g></svg>