<?xml version="1.0" encoding="UTF-8" standalone="no"?><svg xmlns="http://www.w3.org/2000/svg" xmlns:xlink="http://www.w3.org/1999/xlink" contentStyleType="text/css" height="563px" preserveAspectRatio="none" style="width:664px;height:563px;background:#FFFFFF;" version="1.1" viewBox="0 0 664 563" width="664px" zoomAndPan="magnify"><defs/><g><rect height="29.0791" style="stroke:#00000000;stroke-width:1.0;fill:none;" width="298" x="184" y="10"/><text fill="#000000" font-family="sans-serif" font-size="14" font-weight="bold" lengthAdjust="spacing" textLength="288" x="189" y="30.6953">System Sequence Diagram (SSD) - US 014</text><rect fill="#FFFFFF" height="337.1538" style="stroke:#181818;stroke-width:1.0;" width="10" x="36" y="134.1582"/><rect fill="#FFFFFF" height="31.7163" style="stroke:#181818;stroke-width:1.0;" width="10" x="610" y="157.8745"/><rect fill="#FFFFFF" height="31.7163" style="stroke:#181818;stroke-width:1.0;" width="10" x="610" y="248.0234"/><rect fill="#FFFFFF" height="31.7163" style="stroke:#181818;stroke-width:1.0;" width="10" x="610" y="328.4468"/><rect fill="#FFFFFF" height="70.4326" style="stroke:#181818;stroke-width:1.0;" width="10" x="610" y="391.8794"/><rect height="227.0049" style="stroke:#000000;stroke-width:1.5;fill:none;" width="647" x="10" y="204.5908"/><line style="stroke:#181818;stroke-width:0.5;fill:none;stroke-dasharray:5.0,5.0;" x1="41" x2="41" y1="124.1582" y2="480.312"/><line style="stroke:#181818;stroke-width:0.5;fill:none;stroke-dasharray:5.0,5.0;" x1="615" x2="615" y1="124.1582" y2="480.312"/><text fill="#000000" font-family="sans-serif" font-size="14" lengthAdjust="spacing" textLength="36" x="20" y="120.7744">Client</text><ellipse cx="41" cy="53.5791" fill="#E3E3E3" rx="8" ry="8" style="stroke:#181818;stroke-width:0.5;"/><path d="M41,61.5791 L41,88.5791 M28,69.5791 L54,69.5791 M41,88.5791 L28,103.5791 M41,88.5791 L54,103.5791 " fill="none" style="stroke:#181818;stroke-width:0.5;"/><text fill="#000000" font-family="sans-serif" font-size="14" lengthAdjust="spacing" textLength="36" x="20" y="495.0073">Client</text><ellipse cx="41" cy="506.8911" fill="#E3E3E3" rx="8" ry="8" style="stroke:#181818;stroke-width:0.5;"/><path d="M41,514.8911 L41,541.8911 M28,522.8911 L54,522.8911 M41,541.8911 L28,556.8911 M41,541.8911 L54,556.8911 " fill="none" style="stroke:#181818;stroke-width:0.5;"/><rect fill="#E3E3E3" height="33.0791" rx="2.5" ry="2.5" style="stroke:#181818;stroke-width:0.5;" width="64" x="583" y="90.0791"/><text fill="#000000" font-family="sans-serif" font-size="14" lengthAdjust="spacing" textLength="50" x="590" y="112.7744">:System</text><rect fill="#E3E3E3" height="33.0791" rx="2.5" ry="2.5" style="stroke:#181818;stroke-width:0.5;" width="64" x="583" y="479.312"/><text fill="#000000" font-family="sans-serif" font-size="14" lengthAdjust="spacing" textLength="50" x="590" y="502.0073">:System</text><rect fill="#FFFFFF" height="337.1538" style="stroke:#181818;stroke-width:1.0;" width="10" x="36" y="134.1582"/><rect fill="#FFFFFF" height="31.7163" style="stroke:#181818;stroke-width:1.0;" width="10" x="610" y="157.8745"/><rect fill="#FFFFFF" height="31.7163" style="stroke:#181818;stroke-width:1.0;" width="10" x="610" y="248.0234"/><rect fill="#FFFFFF" height="31.7163" style="stroke:#181818;stroke-width:1.0;" width="10" x="610" y="328.4468"/><rect fill="#FFFFFF" height="70.4326" style="stroke:#181818;stroke-width:1.0;" width="10" x="610" y="391.8794"/><polygon fill="#181818" points="598,153.8745,608,157.8745,598,161.8745,602,157.8745" style="stroke:#181818;stroke-width:1.0;"/><line style="stroke:#181818;stroke-width:1.0;" x1="46" x2="604" y1="157.8745" y2="157.8745"/><text fill="#000000" font-family="sans-serif" font-size="13" font-weight="bold" lengthAdjust="spacing" textLength="7" x="53" y="152.7324">1</text><text fill="#000000" font-family="sans-serif" font-size="13" lengthAdjust="spacing" textLength="287" x="64" y="152.7324">check the responses to the appointment requests</text><polygon fill="#181818" points="57,185.5908,47,189.5908,57,193.5908,53,189.5908" style="stroke:#181818;stroke-width:1.0;"/><line style="stroke:#181818;stroke-width:1.0;stroke-dasharray:2.0,2.0;" x1="51" x2="614" y1="189.5908" y2="189.5908"/><text fill="#000000" font-family="sans-serif" font-size="13" font-weight="bold" lengthAdjust="spacing" textLength="7" x="63" y="184.4487">2</text><text fill="#000000" font-family="sans-serif" font-size="13" lengthAdjust="spacing" textLength="518" x="74" y="184.4487">shows the list of the appointment requests sorted by oldest (with the agent info displayed)</text><path d="M10,204.5908 L71,204.5908 L71,214.3071 L61,224.3071 L10,224.3071 L10,204.5908 " fill="#EEEEEE" style="stroke:#000000;stroke-width:1.5;"/><rect fill="none" height="227.0049" style="stroke:#000000;stroke-width:1.5;" width="647" x="10" y="204.5908"/><text fill="#000000" font-family="sans-serif" font-size="13" font-weight="bold" lengthAdjust="spacing" textLength="16" x="25" y="220.165">alt</text><text fill="#000000" font-family="sans-serif" font-size="11" font-weight="bold" lengthAdjust="spacing" textLength="205" x="86" y="218.9229">[if the user accepts the appointment]</text><polygon fill="#181818" points="598,244.0234,608,248.0234,598,252.0234,602,248.0234" style="stroke:#181818;stroke-width:1.0;"/><line style="stroke:#181818;stroke-width:1.0;" x1="46" x2="604" y1="248.0234" y2="248.0234"/><text fill="#000000" font-family="sans-serif" font-size="13" font-weight="bold" lengthAdjust="spacing" textLength="7" x="53" y="242.8813">3</text><text fill="#000000" font-family="sans-serif" font-size="13" lengthAdjust="spacing" textLength="143" x="64" y="242.8813">accepts the appointment</text><polygon fill="#181818" points="57,275.7397,47,279.7397,57,283.7397,53,279.7397" style="stroke:#181818;stroke-width:1.0;"/><line style="stroke:#181818;stroke-width:1.0;stroke-dasharray:2.0,2.0;" x1="51" x2="614" y1="279.7397" y2="279.7397"/><text fill="#000000" font-family="sans-serif" font-size="13" font-weight="bold" lengthAdjust="spacing" textLength="7" x="63" y="274.5977">4</text><text fill="#000000" font-family="sans-serif" font-size="13" lengthAdjust="spacing" textLength="529" x="74" y="274.5977">updates the status to accepted and deletes any other requests made for the same propriety</text><line style="stroke:#000000;stroke-width:1.0;stroke-dasharray:2.0,2.0;" x1="10" x2="657" y1="288.7397" y2="288.7397"/><text fill="#000000" font-family="sans-serif" font-size="11" font-weight="bold" lengthAdjust="spacing" textLength="201" x="15" y="301.0718">[if the user rejects the appointment]</text><polygon fill="#181818" points="598,324.4468,608,328.4468,598,332.4468,602,328.4468" style="stroke:#181818;stroke-width:1.0;"/><line style="stroke:#181818;stroke-width:1.0;" x1="46" x2="604" y1="328.4468" y2="328.4468"/><text fill="#000000" font-family="sans-serif" font-size="13" font-weight="bold" lengthAdjust="spacing" textLength="7" x="53" y="323.3047">5</text><text fill="#000000" font-family="sans-serif" font-size="13" lengthAdjust="spacing" textLength="136" x="64" y="323.3047">rejects the appointment</text><polygon fill="#181818" points="57,356.1631,47,360.1631,57,364.1631,53,360.1631" style="stroke:#181818;stroke-width:1.0;"/><line style="stroke:#181818;stroke-width:1.0;stroke-dasharray:2.0,2.0;" x1="51" x2="614" y1="360.1631" y2="360.1631"/><text fill="#000000" font-family="sans-serif" font-size="13" font-weight="bold" lengthAdjust="spacing" textLength="7" x="63" y="355.021">6</text><text fill="#000000" font-family="sans-serif" font-size="13" lengthAdjust="spacing" textLength="466" x="74" y="355.021">asks the client to suggests a new date and time for the visit if they are interested</text><polygon fill="#181818" points="598,387.8794,608,391.8794,598,395.8794,602,391.8794" style="stroke:#181818;stroke-width:1.0;"/><line style="stroke:#181818;stroke-width:1.0;" x1="46" x2="604" y1="391.8794" y2="391.8794"/><text fill="#000000" font-family="sans-serif" font-size="13" font-weight="bold" lengthAdjust="spacing" textLength="7" x="53" y="386.7373">7</text><text fill="#000000" font-family="sans-serif" font-size="13" lengthAdjust="spacing" textLength="122" x="64" y="386.7373">types requested data</text><polygon fill="#181818" points="57,419.5957,47,423.5957,57,427.5957,53,423.5957" style="stroke:#181818;stroke-width:1.0;"/><line style="stroke:#181818;stroke-width:1.0;stroke-dasharray:2.0,2.0;" x1="51" x2="609" y1="423.5957" y2="423.5957"/><text fill="#000000" font-family="sans-serif" font-size="13" font-weight="bold" lengthAdjust="spacing" textLength="7" x="63" y="418.4536">8</text><text fill="#000000" font-family="sans-serif" font-size="13" lengthAdjust="spacing" textLength="474" x="74" y="418.4536">updates the status to rejected and creates a new request based on the typed data</text><polygon fill="#181818" points="57,458.312,47,462.312,57,466.312,53,462.312" style="stroke:#181818;stroke-width:1.0;"/><line style="stroke:#181818;stroke-width:1.0;stroke-dasharray:2.0,2.0;" x1="51" x2="614" y1="462.312" y2="462.312"/><text fill="#000000" font-family="sans-serif" font-size="13" font-weight="bold" lengthAdjust="spacing" textLength="7" x="63" y="457.1699">9</text><text fill="#000000" font-family="sans-serif" font-size="13" lengthAdjust="spacing" textLength="158" x="74" y="457.1699">displays operation success</text><!--MD5=[e297005a6944669e48960d74bac8c67f]
@startuml
        skinparam monochrome true
        skinparam packageStyle rectangle
        skinparam shadowing false

        title System Sequence Diagram (SSD) - US 014

        autonumber

        actor "Client" as client
        participant ":System" as system

        activate client

        client -> system : check the responses to the appointment requests
        activate system

        system - -> client : shows the list of the appointment requests sorted by oldest (with the agent info displayed)
        deactivate system
        alt if the user accepts the appointment
        client -> system : accepts the appointment
        activate system
        system - -> client : updates the status to accepted and deletes any other requests made for the same propriety
        deactivate system
        else if the user rejects the appointment

        client -> system : rejects the appointment
        activate system
        system - -> client : asks the client to suggests a new date and time for the visit if they are interested
        deactivate system
        client -> system : types requested data
        activate system
        system - -> client : updates the status to rejected and creates a new request based on the typed data

        end alt


        system - -> client : displays operation success
        deactivate system

        @enduml

PlantUML version 1.2022.4(Sat Apr 09 14:29:17 BST 2022)
(GPL source distribution)
Java Runtime: OpenJDK Runtime Environment
JVM: OpenJDK 64-Bit Server VM
Default Encoding: MS949
Language: en
Country: US
--></g></svg>