<?xml version="1.0" encoding="us-ascii" standalone="no"?><svg xmlns="http://www.w3.org/2000/svg" xmlns:xlink="http://www.w3.org/1999/xlink" contentStyleType="text/css" height="951px" preserveAspectRatio="none" style="width:1435px;height:951px;background:#FFFFFF;" version="1.1" viewBox="0 0 1435 951" width="1435px" zoomAndPan="magnify"><defs/><g><rect fill="#FFFFFF" height="818.9453" style="stroke:#181818;stroke-width:1.0;" width="10" x="90.5" y="67.2422"/><rect fill="#FFFFFF" height="358.5313" style="stroke:#181818;stroke-width:1.0;" width="10" x="350.5" y="90.5332"/><rect fill="#FFFFFF" height="332.25" style="stroke:#181818;stroke-width:1.0;" width="10" x="350.5" y="537.9375"/><rect fill="#FFFFFF" height="82.2031" style="stroke:#181818;stroke-width:1.0;" width="10" x="632.5" y="131.8242"/><rect fill="#FFFFFF" height="172.4551" style="stroke:#181818;stroke-width:1.0;" width="10" x="632.5" y="245.3184"/><rect fill="#FFFFFF" height="252.377" style="stroke:#181818;stroke-width:1.0;" width="10" x="632.5" y="586.5195"/><rect fill="#FFFFFF" height="31.291" style="stroke:#181818;stroke-width:1.0;" width="10" x="847.5" y="182.7363"/><rect fill="#FFFFFF" height="30" style="stroke:#181818;stroke-width:1.0;" width="10" x="996.5" y="356.4824"/><rect fill="#FFFFFF" height="180.5039" style="stroke:#181818;stroke-width:1.0;" width="10" x="996.5" y="635.1016"/><rect fill="#FFFFFF" height="31.291" style="stroke:#181818;stroke-width:1.0;" width="10" x="1187.5" y="276.6094"/><rect fill="#FFFFFF" height="30" style="stroke:#181818;stroke-width:1.0;" width="10" x="1346" y="692.6836"/><rect fill="#FFFFFF" height="30" style="stroke:#181818;stroke-width:1.0;" width="10" x="1346" y="770.6055"/><rect fill="none" height="414.123" style="stroke:#000000;stroke-width:1.5;" width="1419" x="10" y="464.0645"/><rect fill="none" height="158.5039" style="stroke:#000000;stroke-width:1.5;" width="518" x="901" y="650.1016"/><line style="stroke:#181818;stroke-width:0.5;stroke-dasharray:5.0,5.0;" x1="95" x2="95" y1="57.2422" y2="895.1875"/><line style="stroke:#181818;stroke-width:0.5;stroke-dasharray:5.0,5.0;" x1="355.5" x2="355.5" y1="57.2422" y2="895.1875"/><line style="stroke:#181818;stroke-width:0.5;stroke-dasharray:5.0,5.0;" x1="637.5" x2="637.5" y1="130.3438" y2="895.1875"/><line style="stroke:#181818;stroke-width:0.5;stroke-dasharray:5.0,5.0;" x1="852" x2="852" y1="57.2422" y2="895.1875"/><line style="stroke:#181818;stroke-width:0.5;stroke-dasharray:5.0,5.0;" x1="1001" x2="1001" y1="57.2422" y2="895.1875"/><line style="stroke:#181818;stroke-width:0.5;stroke-dasharray:5.0,5.0;" x1="1192" x2="1192" y1="57.2422" y2="895.1875"/><line style="stroke:#181818;stroke-width:0.5;stroke-dasharray:5.0,5.0;" x1="1351" x2="1351" y1="57.2422" y2="895.1875"/><rect fill="#E3E3E3" height="32.6211" rx="2.5" ry="2.5" style="stroke:#181818;stroke-width:0.5;" width="151" x="20" y="23.6211"/><text fill="#000000" font-family="sans-serif" font-size="14" lengthAdjust="spacing" textLength="137" x="27" y="45.7285">Network Administrator</text><rect fill="#E3E3E3" height="32.6211" rx="2.5" ry="2.5" style="stroke:#181818;stroke-width:0.5;" width="151" x="20" y="894.1875"/><text fill="#000000" font-family="sans-serif" font-size="14" lengthAdjust="spacing" textLength="137" x="27" y="916.2949">Network Administrator</text><rect fill="#E3E3E3" height="32.6211" rx="2.5" ry="2.5" style="stroke:#181818;stroke-width:0.5;" width="98" x="306.5" y="23.6211"/><text fill="#000000" font-family="sans-serif" font-size="14" lengthAdjust="spacing" textLength="84" x="313.5" y="45.7285">:ListDealsGui</text><rect fill="#E3E3E3" height="32.6211" rx="2.5" ry="2.5" style="stroke:#181818;stroke-width:0.5;" width="98" x="306.5" y="894.1875"/><text fill="#000000" font-family="sans-serif" font-size="14" lengthAdjust="spacing" textLength="84" x="313.5" y="916.2949">:ListDealsGui</text><rect fill="#E3E3E3" height="32.6211" rx="2.5" ry="2.5" style="stroke:#181818;stroke-width:0.5;" width="138" x="568.5" y="894.1875"/><text fill="#000000" font-family="sans-serif" font-size="14" lengthAdjust="spacing" textLength="124" x="575.5" y="916.2949">:ListDealsController</text><rect fill="#E3E3E3" height="32.6211" rx="2.5" ry="2.5" style="stroke:#181818;stroke-width:0.5;" width="97" x="804" y="23.6211"/><text fill="#000000" font-family="sans-serif" font-size="14" lengthAdjust="spacing" textLength="83" x="811" y="45.7285">:Repositories</text><rect fill="#E3E3E3" height="32.6211" rx="2.5" ry="2.5" style="stroke:#181818;stroke-width:0.5;" width="97" x="804" y="894.1875"/><text fill="#000000" font-family="sans-serif" font-size="14" lengthAdjust="spacing" textLength="83" x="811" y="916.2949">:Repositories</text><rect fill="#E3E3E3" height="32.6211" rx="2.5" ry="2.5" style="stroke:#181818;stroke-width:0.5;" width="181" x="911" y="23.6211"/><text fill="#000000" font-family="sans-serif" font-size="14" lengthAdjust="spacing" textLength="167" x="918" y="45.7285">:AnnouncementRepository</text><rect fill="#E3E3E3" height="32.6211" rx="2.5" ry="2.5" style="stroke:#181818;stroke-width:0.5;" width="181" x="911" y="894.1875"/><text fill="#000000" font-family="sans-serif" font-size="14" lengthAdjust="spacing" textLength="167" x="918" y="916.2949">:AnnouncementRepository</text><rect fill="#E3E3E3" height="51.2422" rx="2.5" ry="2.5" style="stroke:#181818;stroke-width:0.5;" width="181" x="1102" y="5"/><text fill="#000000" font-family="sans-serif" font-size="14" lengthAdjust="spacing" textLength="162" x="1111.5" y="27.1074">announcementRepository</text><text fill="#000000" font-family="sans-serif" font-size="14" lengthAdjust="spacing" textLength="167" x="1109" y="45.7285">:AnnouncementRepository</text><rect fill="#E3E3E3" height="51.2422" rx="2.5" ry="2.5" style="stroke:#181818;stroke-width:0.5;" width="181" x="1102" y="894.1875"/><text fill="#000000" font-family="sans-serif" font-size="14" lengthAdjust="spacing" textLength="162" x="1111.5" y="916.2949">announcementRepository</text><text fill="#000000" font-family="sans-serif" font-size="14" lengthAdjust="spacing" textLength="167" x="1109" y="934.916">:AnnouncementRepository</text><rect fill="#E3E3E3" height="32.6211" rx="2.5" ry="2.5" style="stroke:#181818;stroke-width:0.5;" width="116" x="1293" y="23.6211"/><text fill="#000000" font-family="sans-serif" font-size="14" lengthAdjust="spacing" textLength="102" x="1300" y="45.7285">:AlgorithmSorter</text><rect fill="#E3E3E3" height="32.6211" rx="2.5" ry="2.5" style="stroke:#181818;stroke-width:0.5;" width="116" x="1293" y="894.1875"/><text fill="#000000" font-family="sans-serif" font-size="14" lengthAdjust="spacing" textLength="102" x="1300" y="916.2949">:AlgorithmSorter</text><rect fill="#FFFFFF" height="818.9453" style="stroke:#181818;stroke-width:1.0;" width="10" x="90.5" y="67.2422"/><rect fill="#FFFFFF" height="358.5313" style="stroke:#181818;stroke-width:1.0;" width="10" x="350.5" y="90.5332"/><rect fill="#FFFFFF" height="332.25" style="stroke:#181818;stroke-width:1.0;" width="10" x="350.5" y="537.9375"/><rect fill="#FFFFFF" height="82.2031" style="stroke:#181818;stroke-width:1.0;" width="10" x="632.5" y="131.8242"/><rect fill="#FFFFFF" height="172.4551" style="stroke:#181818;stroke-width:1.0;" width="10" x="632.5" y="245.3184"/><rect fill="#FFFFFF" height="252.377" style="stroke:#181818;stroke-width:1.0;" width="10" x="632.5" y="586.5195"/><rect fill="#FFFFFF" height="31.291" style="stroke:#181818;stroke-width:1.0;" width="10" x="847.5" y="182.7363"/><rect fill="#FFFFFF" height="30" style="stroke:#181818;stroke-width:1.0;" width="10" x="996.5" y="356.4824"/><rect fill="#FFFFFF" height="180.5039" style="stroke:#181818;stroke-width:1.0;" width="10" x="996.5" y="635.1016"/><rect fill="#FFFFFF" height="31.291" style="stroke:#181818;stroke-width:1.0;" width="10" x="1187.5" y="276.6094"/><rect fill="#FFFFFF" height="30" style="stroke:#181818;stroke-width:1.0;" width="10" x="1346" y="692.6836"/><rect fill="#FFFFFF" height="30" style="stroke:#181818;stroke-width:1.0;" width="10" x="1346" y="770.6055"/><polygon fill="#181818" points="338.5,86.5332,348.5,90.5332,338.5,94.5332,342.5,90.5332" style="stroke:#181818;stroke-width:1.0;"/><line style="stroke:#181818;stroke-width:1.0;" x1="100.5" x2="344.5" y1="90.5332" y2="90.5332"/><text fill="#000000" font-family="sans-serif" font-size="13" font-weight="bold" lengthAdjust="spacing" textLength="7" x="107.5" y="85.2705">1</text><text fill="#000000" font-family="sans-serif" font-size="13" lengthAdjust="spacing" textLength="152" x="118.5" y="85.2705">asks to list all deals made</text><polygon fill="#181818" points="556.5,117.8242,566.5,121.8242,556.5,125.8242,560.5,121.8242" style="stroke:#181818;stroke-width:1.0;"/><line style="stroke:#181818;stroke-width:1.0;" x1="360.5" x2="562.5" y1="121.8242" y2="121.8242"/><text fill="#000000" font-family="sans-serif" font-size="13" font-weight="bold" lengthAdjust="spacing" textLength="7" x="367.5" y="116.5615">2</text><text fill="#000000" font-family="sans-serif" font-size="13" lengthAdjust="spacing" textLength="36" x="378.5" y="116.5615">create</text><rect fill="#E3E3E3" height="32.6211" rx="2.5" ry="2.5" style="stroke:#181818;stroke-width:0.5;" width="138" x="568.5" y="98.5332"/><text fill="#000000" font-family="sans-serif" font-size="14" lengthAdjust="spacing" textLength="124" x="575.5" y="120.6406">:ListDealsController</text><polygon fill="#181818" points="835.5,178.7363,845.5,182.7363,835.5,186.7363,839.5,182.7363" style="stroke:#181818;stroke-width:1.0;"/><line style="stroke:#181818;stroke-width:1.0;" x1="642.5" x2="841.5" y1="182.7363" y2="182.7363"/><text fill="#000000" font-family="sans-serif" font-size="13" font-weight="bold" lengthAdjust="spacing" textLength="7" x="649.5" y="168.8281">3</text><text fill="#000000" font-family="sans-serif" font-size="13" lengthAdjust="spacing" textLength="79" x="660.5" y="160.1826">getInstance().</text><text fill="#000000" font-family="sans-serif" font-size="13" lengthAdjust="spacing" textLength="175" x="660.5" y="177.4736">getAnnouncementRepository()</text><polygon fill="#181818" points="648.5,210.0273,638.5,214.0273,648.5,218.0273,644.5,214.0273" style="stroke:#181818;stroke-width:1.0;"/><line style="stroke:#181818;stroke-width:1.0;stroke-dasharray:2.0,2.0;" x1="642.5" x2="851.5" y1="214.0273" y2="214.0273"/><text fill="#000000" font-family="sans-serif" font-size="13" font-weight="bold" lengthAdjust="spacing" textLength="7" x="654.5" y="208.7646">4</text><text fill="#000000" font-family="sans-serif" font-size="13" lengthAdjust="spacing" textLength="147" x="665.5" y="208.7646">announcementRepository</text><polygon fill="#181818" points="620.5,241.3184,630.5,245.3184,620.5,249.3184,624.5,245.3184" style="stroke:#181818;stroke-width:1.0;"/><line style="stroke:#181818;stroke-width:1.0;" x1="360.5" x2="626.5" y1="245.3184" y2="245.3184"/><text fill="#000000" font-family="sans-serif" font-size="13" font-weight="bold" lengthAdjust="spacing" textLength="7" x="367.5" y="240.0557">5</text><text fill="#000000" font-family="sans-serif" font-size="13" lengthAdjust="spacing" textLength="59" x="378.5" y="240.0557">getDeals()</text><polygon fill="#181818" points="1175.5,272.6094,1185.5,276.6094,1175.5,280.6094,1179.5,276.6094" style="stroke:#181818;stroke-width:1.0;"/><line style="stroke:#181818;stroke-width:1.0;" x1="642.5" x2="1181.5" y1="276.6094" y2="276.6094"/><text fill="#000000" font-family="sans-serif" font-size="13" font-weight="bold" lengthAdjust="spacing" textLength="7" x="649.5" y="271.3467">6</text><text fill="#000000" font-family="sans-serif" font-size="13" lengthAdjust="spacing" textLength="146" x="660.5" y="271.3467">getSoldAnnouncements()</text><polygon fill="#181818" points="653.5,303.9004,643.5,307.9004,653.5,311.9004,649.5,307.9004" style="stroke:#181818;stroke-width:1.0;"/><line style="stroke:#181818;stroke-width:1.0;stroke-dasharray:2.0,2.0;" x1="647.5" x2="1191.5" y1="307.9004" y2="307.9004"/><text fill="#000000" font-family="sans-serif" font-size="13" font-weight="bold" lengthAdjust="spacing" textLength="7" x="659.5" y="302.6377">7</text><text fill="#000000" font-family="sans-serif" font-size="13" lengthAdjust="spacing" textLength="92" x="670.5" y="302.6377">announcements</text><polygon fill="#181818" points="984.5,352.4824,994.5,356.4824,984.5,360.4824,988.5,356.4824" style="stroke:#181818;stroke-width:1.0;"/><line style="stroke:#181818;stroke-width:1.0;" x1="642.5" x2="990.5" y1="356.4824" y2="356.4824"/><text fill="#000000" font-family="sans-serif" font-size="13" font-weight="bold" lengthAdjust="spacing" textLength="7" x="649.5" y="342.5742">8</text><text fill="#000000" font-family="sans-serif" font-size="13" lengthAdjust="spacing" textLength="116" x="660.5" y="333.9287">sortAnnouncements</text><text fill="#000000" font-family="sans-serif" font-size="13" lengthAdjust="spacing" textLength="236" x="660.5" y="351.2197">(announcements, "date", DESCENDING)</text><polygon fill="#181818" points="371.5,413.7734,361.5,417.7734,371.5,421.7734,367.5,417.7734" style="stroke:#181818;stroke-width:1.0;"/><line style="stroke:#181818;stroke-width:1.0;stroke-dasharray:2.0,2.0;" x1="365.5" x2="636.5" y1="417.7734" y2="417.7734"/><text fill="#000000" font-family="sans-serif" font-size="13" font-weight="bold" lengthAdjust="spacing" textLength="7" x="377.5" y="412.5107">9</text><text fill="#000000" font-family="sans-serif" font-size="13" lengthAdjust="spacing" textLength="92" x="388.5" y="412.5107">announcements</text><polygon fill="#181818" points="111.5,445.0645,101.5,449.0645,111.5,453.0645,107.5,449.0645" style="stroke:#181818;stroke-width:1.0;"/><line style="stroke:#181818;stroke-width:1.0;stroke-dasharray:2.0,2.0;" x1="105.5" x2="354.5" y1="449.0645" y2="449.0645"/><text fill="#000000" font-family="sans-serif" font-size="13" font-weight="bold" lengthAdjust="spacing" textLength="14" x="117.5" y="443.8018">10</text><text fill="#000000" font-family="sans-serif" font-size="13" lengthAdjust="spacing" textLength="208" x="135.5" y="443.8018">displays data sorted by most recent</text><path d="M10,464.0645 L75,464.0645 L75,473.3555 L65,483.3555 L10,483.3555 L10,464.0645 " fill="#EEEEEE" style="stroke:#000000;stroke-width:1.5;"/><rect fill="none" height="414.123" style="stroke:#000000;stroke-width:1.5;" width="1419" x="10" y="464.0645"/><text fill="#000000" font-family="sans-serif" font-size="13" font-weight="bold" lengthAdjust="spacing" textLength="20" x="25" y="479.0928">opt</text><polygon fill="#181818" points="343.5,502.6465,353.5,506.6465,343.5,510.6465,347.5,506.6465" style="stroke:#181818;stroke-width:1.0;"/><line style="stroke:#181818;stroke-width:1.0;" x1="100.5" x2="349.5" y1="506.6465" y2="506.6465"/><text fill="#000000" font-family="sans-serif" font-size="13" font-weight="bold" lengthAdjust="spacing" textLength="14" x="107.5" y="501.3838">11</text><text fill="#000000" font-family="sans-serif" font-size="13" lengthAdjust="spacing" textLength="142" x="125.5" y="501.3838">selects sorting algorithm</text><polygon fill="#181818" points="338.5,533.9375,348.5,537.9375,338.5,541.9375,342.5,537.9375" style="stroke:#181818;stroke-width:1.0;"/><line style="stroke:#181818;stroke-width:1.0;" x1="100.5" x2="344.5" y1="537.9375" y2="537.9375"/><text fill="#000000" font-family="sans-serif" font-size="13" font-weight="bold" lengthAdjust="spacing" textLength="14" x="107.5" y="532.6748">12</text><text fill="#000000" font-family="sans-serif" font-size="13" lengthAdjust="spacing" textLength="208" x="125.5" y="532.6748">selects ascending/descending order</text><polygon fill="#181818" points="620.5,582.5195,630.5,586.5195,620.5,590.5195,624.5,586.5195" style="stroke:#181818;stroke-width:1.0;"/><line style="stroke:#181818;stroke-width:1.0;" x1="360.5" x2="626.5" y1="586.5195" y2="586.5195"/><text fill="#000000" font-family="sans-serif" font-size="13" font-weight="bold" lengthAdjust="spacing" textLength="14" x="367.5" y="572.6113">13</text><text fill="#000000" font-family="sans-serif" font-size="13" lengthAdjust="spacing" textLength="151" x="385.5" y="563.9658">sortByAreaWithAlgorithm(</text><text fill="#000000" font-family="sans-serif" font-size="13" lengthAdjust="spacing" textLength="235" x="385.5" y="581.2568">announcements, sortingAlgorithm, order)</text><polygon fill="#181818" points="984.5,631.1016,994.5,635.1016,984.5,639.1016,988.5,635.1016" style="stroke:#181818;stroke-width:1.0;"/><line style="stroke:#181818;stroke-width:1.0;" x1="642.5" x2="990.5" y1="635.1016" y2="635.1016"/><text fill="#000000" font-family="sans-serif" font-size="13" font-weight="bold" lengthAdjust="spacing" textLength="14" x="649.5" y="621.1934">14</text><text fill="#000000" font-family="sans-serif" font-size="13" lengthAdjust="spacing" textLength="151" x="667.5" y="612.5479">sortByAreaWithAlgorithm(</text><text fill="#000000" font-family="sans-serif" font-size="13" lengthAdjust="spacing" textLength="235" x="667.5" y="629.8389">announcements, sortingAlgorithm, order)</text><path d="M901,650.1016 L962,650.1016 L962,659.3926 L952,669.3926 L901,669.3926 L901,650.1016 " fill="#EEEEEE" style="stroke:#000000;stroke-width:1.5;"/><rect fill="none" height="158.5039" style="stroke:#000000;stroke-width:1.5;" width="518" x="901" y="650.1016"/><text fill="#000000" font-family="sans-serif" font-size="13" font-weight="bold" lengthAdjust="spacing" textLength="16" x="916" y="665.1299">alt</text><text fill="#000000" font-family="sans-serif" font-size="11" font-weight="bold" lengthAdjust="spacing" textLength="188" x="977" y="663.9717">[selected algorithm = bubble sort]</text><polygon fill="#181818" points="1334,688.6836,1344,692.6836,1334,696.6836,1338,692.6836" style="stroke:#181818;stroke-width:1.0;"/><line style="stroke:#181818;stroke-width:1.0;" x1="1006.5" x2="1340" y1="692.6836" y2="692.6836"/><text fill="#000000" font-family="sans-serif" font-size="13" font-weight="bold" lengthAdjust="spacing" textLength="14" x="1013.5" y="687.4209">15</text><text fill="#000000" font-family="sans-serif" font-size="13" lengthAdjust="spacing" textLength="199" x="1031.5" y="687.4209">bubbleSort(announcements, order)</text><line style="stroke:#000000;stroke-width:1.0;stroke-dasharray:2.0,2.0;" x1="901" x2="1419" y1="731.6836" y2="731.6836"/><text fill="#000000" font-family="sans-serif" font-size="11" font-weight="bold" lengthAdjust="spacing" textLength="200" x="906" y="743.5537">[selected algorithm = insertion sort]</text><polygon fill="#181818" points="1334,766.6055,1344,770.6055,1334,774.6055,1338,770.6055" style="stroke:#181818;stroke-width:1.0;"/><line style="stroke:#181818;stroke-width:1.0;" x1="1006.5" x2="1340" y1="770.6055" y2="770.6055"/><text fill="#000000" font-family="sans-serif" font-size="13" font-weight="bold" lengthAdjust="spacing" textLength="14" x="1013.5" y="765.3428">16</text><text fill="#000000" font-family="sans-serif" font-size="13" lengthAdjust="spacing" textLength="210" x="1031.5" y="765.3428">insertionSort(announcements, order)</text><polygon fill="#181818" points="371.5,834.8965,361.5,838.8965,371.5,842.8965,367.5,838.8965" style="stroke:#181818;stroke-width:1.0;"/><line style="stroke:#181818;stroke-width:1.0;stroke-dasharray:2.0,2.0;" x1="365.5" x2="636.5" y1="838.8965" y2="838.8965"/><text fill="#000000" font-family="sans-serif" font-size="13" font-weight="bold" lengthAdjust="spacing" textLength="14" x="377.5" y="833.6338">17</text><text fill="#000000" font-family="sans-serif" font-size="13" lengthAdjust="spacing" textLength="130" x="395.5" y="833.6338">sortedAnnouncements</text><polygon fill="#181818" points="111.5,866.1875,101.5,870.1875,111.5,874.1875,107.5,870.1875" style="stroke:#181818;stroke-width:1.0;"/><line style="stroke:#181818;stroke-width:1.0;stroke-dasharray:2.0,2.0;" x1="105.5" x2="354.5" y1="870.1875" y2="870.1875"/><text fill="#000000" font-family="sans-serif" font-size="13" font-weight="bold" lengthAdjust="spacing" textLength="14" x="117.5" y="864.9248">18</text><text fill="#000000" font-family="sans-serif" font-size="13" lengthAdjust="spacing" textLength="147" x="135.5" y="864.9248">shows sorted list of deals</text><!--SRC=[xLbDR-Cs4BthLn2vs0cSxjr00oXsDWsGByG9UgY1WfOOMuX4gXIrgOlzyHsI4arIbEG6kpbLbzZYp9itmvdXqAdUCbfYZWjKCCgI7MS5GOBN9AhCIecJDxmbAx7F2U8a4PXkSrkWsk6KlMTqYrvnNf4emhLWj2usX4SHY8WioKfC1Jgv9-ATyJSKfqL6iqfmB1W_GRX2MBvnXUUt8B4a07bTPqfeMsTz8Wj61MTvJZHS8dZkYJwHabKPsCj8fMJK2qyeffJLD245eS8ex9LuBB-xuZWelQP3CBWBCu_pBT0IksB5k6WygDH7Y6KYiczOa2P24O97VKJd5p8WQ0xIRnKI3EKG38Jp7AKo8gZ0AT7YBOICdtmXrK1R1kdiR8uIJc1LhJZYAeZjM_b5AYbtvcXBn0sj81KICZtzPKtXUzZfwMaNM4U-VSs9g3b5uM0QAV39uUKxeYYfL6WiUkAHxOJQ1AMnOdbg4-zew_tguLavgB56bJldGAxfr56QePCKe4zcQ7crMbpTBs_khpshiR5g-HqFKp6XKb6HNgeqcQCqgyeSxoi4Lh5Eh1Hjzb3oa2zGqA3jcvAPmaeHohQAvD03T8BAciTjyaQJJh9fIXEBqrLHvcnFY0JQiNV8MyXUb802eEoR5AQfoMbj3J5ADBp7SOWWhi2p52X-IKdx4J6UGbMDLONUnCjz39NnE_Xc2dIwfjvMDc4m4ZDj8fI3FRdo0yqSCaIzpaKJ3DXliqteLxIfDnlevHBJ22jLoKmtddaZ93kIdxsMPSTwqx825Ukj43WbmimoMX5mbD4HSaRkv_2ZwMZjwJAAEyqWL80wqvl2KodENdMJ3jLT9Ct3CuacarsM4lJAcDYmlwC9Y36EJXxu5jFi7wpYr1QKFgEMTz74FLiMgha_Gpszt2YPbvj-4UyKNJm_tVh2uMDKzUfL9WS3EFez7MwfmE7OGNYyZPyz5TaL5arJE1YOh-bpS471X9Ty_d5PvbcYOhSYLGL_bFAVyUEZ9uhBif6G9tfOhQkLr9n3CXmqNo1JRPNLrMeLFtXQpDfInz-7u8822YyD00CPMqU3F5q7GW-ICfewhF7JrTTOPkEX66IQwNwigdDv9slpvSQQHVHCWJ2Yv5trU5l10CbSX2n7rWCeidGavXngxQ-QLA8vkQQSl188Ra9cIBPqdfNIZnc2Tl3AU85pjARkYY39ZiA-vUxhjEPOVqhW33oD70QJXhlEVf_RXNf_TeRCt3Jf4q9gmh3I4X9-wXapeT3Mt4NvAA1sxdBB37bZM5VPdRZy8ktAooTawBpnIEx8eNYx-bOdEz9Ywvxi0PruxPqnijyxtK32xYZW0t_HqoG6FEb3Rwc72H-p-OuJVUqhx5QFqVD3wjcUoclIe8_76zTUj-K-RCGo44flfzJxfi4rTUV1d3Zpe6T6DnI_APc9qCNt1jQ3xd0VwWoYOQDYNvAgrOHpVxY5hQdfOKSqi3KDTh1ZN6bcaNRuCh6MGNR97kbdLM-Ap0dD00sJdOcPEQoGW5kEasr8bivR4vBbG4Iad9MRbkXfu1mAPMTRti5Elh-q8QVZflxlzP_MwuCTy7Dx_OVIuzDEWm-T126pvYmODJ9o4dp__dsi-DfxpbVEYcQS_l0i9OVzu-j9Nmr2_iiLPChbS5yO3B266wBNibiuLub1ZWrcYAJYQ4YwrvD1eZsOBKjzZvaZKk0iXwix49PNdIlvTP1hUm4AqzMh5cE5FqZq03ZSSrHGmxUcgRBoWsPCrdCnEwBlz3iGvjrnwNBV5ehUY56_-cwHOKzpnahq1vpA2BZl74_32l89cr1EFLtBEoCrf7_3rJ3lBdzvWUsNqmJ0p7bl36NZuZNvelzvqOjaxPQo6PAHlznC_ai83YrkE9IsyQCtpAJEqxNJGcME79SR_R5jGzgm9mtqCFCmd7-AXB4-Ue8evwrfiqMVePvHF3nsekEcJZHp3i6PSQRlgEg9YGhlHVFRo-5_D3-R_L7SBNugk3XDPMIH6dDEmrril7Hin6yupz9smnhKyIOmMlrzGkCfEWep3k4LZF-Js3Y8TV5krGVh8tpJjluRn4gYTn-kS4a20q7FXSyU2PPtqRy0]--></g></svg>