<?xml version="1.0" encoding="us-ascii" standalone="no"?><svg xmlns="http://www.w3.org/2000/svg" xmlns:xlink="http://www.w3.org/1999/xlink" contentStyleType="text/css" height="1090px" preserveAspectRatio="none" style="width:592px;height:1090px;background:#FFFFFF;" version="1.1" viewBox="0 0 592 1090" width="592px" zoomAndPan="magnify"><defs/><g><!--cluster UI--><g id="cluster_UI"><path d="M175.5,6.0137 L190.5,6.0137 A3.75,3.75 0 0 1 193,8.5137 L200,30.6348 L314.5,30.6348 A2.5,2.5 0 0 1 317,33.1348 L317,123.5137 A2.5,2.5 0 0 1 314.5,126.0137 L175.5,126.0137 A2.5,2.5 0 0 1 173,123.5137 L173,8.5137 A2.5,2.5 0 0 1 175.5,6.0137 " fill="none" style="stroke:#000000;stroke-width:1.5;"/><line style="stroke:#000000;stroke-width:1.5;" x1="173" x2="200" y1="30.6348" y2="30.6348"/><text fill="#000000" font-family="sans-serif" font-size="14" font-weight="bold" lengthAdjust="spacing" textLength="14" x="177" y="23.1211">UI</text></g><!--cluster Controller--><g id="cluster_Controller"><path d="M8.5,159.0137 L80.5,159.0137 A3.75,3.75 0 0 1 83,161.5137 L90,183.6348 L481.5,183.6348 A2.5,2.5 0 0 1 484,186.1348 L484,294.5137 A2.5,2.5 0 0 1 481.5,297.0137 L8.5,297.0137 A2.5,2.5 0 0 1 6,294.5137 L6,161.5137 A2.5,2.5 0 0 1 8.5,159.0137 " fill="none" style="stroke:#000000;stroke-width:1.5;"/><line style="stroke:#000000;stroke-width:1.5;" x1="6" x2="90" y1="183.6348" y2="183.6348"/><text fill="#000000" font-family="sans-serif" font-size="14" font-weight="bold" lengthAdjust="spacing" textLength="71" x="10" y="176.1211">Controller</text></g><!--cluster Domain--><g id="cluster_Domain"><path d="M19.5,330.0137 L72.5,330.0137 A3.75,3.75 0 0 1 75,332.5137 L82,354.6348 L582.5,354.6348 A2.5,2.5 0 0 1 585,357.1348 L585,1080.5137 A2.5,2.5 0 0 1 582.5,1083.0137 L19.5,1083.0137 A2.5,2.5 0 0 1 17,1080.5137 L17,332.5137 A2.5,2.5 0 0 1 19.5,330.0137 " fill="none" style="stroke:#000000;stroke-width:1.5;"/><line style="stroke:#000000;stroke-width:1.5;" x1="17" x2="82" y1="354.6348" y2="354.6348"/><text fill="#000000" font-family="sans-serif" font-size="14" font-weight="bold" lengthAdjust="spacing" textLength="52" x="21" y="347.1211">Domain</text></g><!--cluster Repository--><g id="cluster_Repository"><path d="M102.5,375.0137 L179.5,375.0137 A3.75,3.75 0 0 1 182,377.5137 L189,399.6348 L325.5,399.6348 A2.5,2.5 0 0 1 328,402.1348 L328,675.5137 A2.5,2.5 0 0 1 325.5,678.0137 L102.5,678.0137 A2.5,2.5 0 0 1 100,675.5137 L100,377.5137 A2.5,2.5 0 0 1 102.5,375.0137 " fill="none" style="stroke:#000000;stroke-width:1.5;"/><line style="stroke:#000000;stroke-width:1.5;" x1="100" x2="189" y1="399.6348" y2="399.6348"/><text fill="#000000" font-family="sans-serif" font-size="14" font-weight="bold" lengthAdjust="spacing" textLength="76" x="104" y="392.1211">Repository</text></g><!--cluster Utils--><g id="cluster_Utils"><path d="M329.5,725.0137 L361.5,725.0137 A3.75,3.75 0 0 1 364,727.5137 L371,749.6348 L558.5,749.6348 A2.5,2.5 0 0 1 561,752.1348 L561,879.5137 A2.5,2.5 0 0 1 558.5,882.0137 L329.5,882.0137 A2.5,2.5 0 0 1 327,879.5137 L327,727.5137 A2.5,2.5 0 0 1 329.5,725.0137 " fill="none" style="stroke:#000000;stroke-width:1.5;"/><line style="stroke:#000000;stroke-width:1.5;" x1="327" x2="371" y1="749.6348" y2="749.6348"/><text fill="#000000" font-family="sans-serif" font-size="14" font-weight="bold" lengthAdjust="spacing" textLength="31" x="331" y="742.1211">Utils</text></g><!--class ListDealsGui--><g id="elem_ListDealsGui"><rect codeLine="9" fill="#F1F1F1" height="66.6211" id="ListDealsGui" rx="2.5" ry="2.5" style="stroke:#181818;stroke-width:0.5;" width="112" x="189" y="43.0137"/><ellipse cx="204" cy="59.0137" fill="#ADD1B2" rx="11" ry="11" style="stroke:#181818;stroke-width:1.0;"/><path d="M206.7656,54.8887 Q206.9219,54.6699 207.1094,54.5605 Q207.2969,54.4512 207.5156,54.4512 Q207.8906,54.4512 208.125,54.7168 Q208.3594,54.9668 208.3594,55.5762 L208.3594,57.0293 Q208.3594,57.6387 208.125,57.9043 Q207.8906,58.1699 207.5156,58.1699 Q207.1719,58.1699 206.9688,57.9668 Q206.7656,57.7793 206.6563,57.2637 Q206.6094,56.9043 206.4219,56.7168 Q206.0938,56.3418 205.4844,56.123 Q204.875,55.9043 204.25,55.9043 Q203.4844,55.9043 202.8438,56.2324 Q202.2188,56.5605 201.7188,57.3105 Q201.2344,58.0605 201.2344,59.0918 L201.2344,60.1855 Q201.2344,61.4199 202.125,62.248 Q203.0156,63.0605 204.6094,63.0605 Q205.5469,63.0605 206.2031,62.8105 Q206.5938,62.6543 207.0156,62.2168 Q207.2813,61.9512 207.4219,61.873 Q207.5781,61.7949 207.7813,61.7949 Q208.1094,61.7949 208.3594,62.0605 Q208.625,62.3105 208.625,62.6543 Q208.625,62.998 208.2813,63.4043 Q207.7813,63.9824 206.9844,64.3105 Q205.9063,64.7637 204.6094,64.7637 Q203.0938,64.7637 201.8906,64.1387 Q200.9063,63.6387 200.2188,62.5762 Q199.5313,61.498 199.5313,60.2168 L199.5313,59.0605 Q199.5313,57.7324 200.1406,56.5918 Q200.7656,55.4355 201.8594,54.8262 Q202.9531,54.2012 204.1875,54.2012 Q204.9219,54.2012 205.5625,54.373 Q206.2188,54.5293 206.7656,54.8887 Z " fill="#000000"/><text fill="#000000" font-family="sans-serif" font-size="14" lengthAdjust="spacing" textLength="80" x="218" y="64.8105">ListDealsGui</text><line style="stroke:#181818;stroke-width:0.5;" x1="190" x2="300" y1="75.0137" y2="75.0137"/><line style="stroke:#181818;stroke-width:0.5;" x1="190" x2="300" y1="83.0137" y2="83.0137"/><ellipse cx="200" cy="97.8242" fill="#84BE84" rx="3" ry="3" style="stroke:#038048;stroke-width:1.0;"/><text fill="#000000" font-family="sans-serif" font-size="14" lengthAdjust="spacing" textLength="38" x="209" y="102.1211">start()</text></g><!--class ListDealsController--><g id="elem_ListDealsController"><rect codeLine="15" fill="#F1F1F1" height="85.2422" id="ListDealsController" rx="2.5" ry="2.5" style="stroke:#181818;stroke-width:0.5;" width="446" x="22" y="196.0137"/><ellipse cx="180.75" cy="212.0137" fill="#ADD1B2" rx="11" ry="11" style="stroke:#181818;stroke-width:1.0;"/><path d="M183.5156,207.8887 Q183.6719,207.6699 183.8594,207.5605 Q184.0469,207.4512 184.2656,207.4512 Q184.6406,207.4512 184.875,207.7168 Q185.1094,207.9668 185.1094,208.5762 L185.1094,210.0293 Q185.1094,210.6387 184.875,210.9043 Q184.6406,211.1699 184.2656,211.1699 Q183.9219,211.1699 183.7188,210.9668 Q183.5156,210.7793 183.4063,210.2637 Q183.3594,209.9043 183.1719,209.7168 Q182.8438,209.3418 182.2344,209.123 Q181.625,208.9043 181,208.9043 Q180.2344,208.9043 179.5938,209.2324 Q178.9688,209.5605 178.4688,210.3105 Q177.9844,211.0605 177.9844,212.0918 L177.9844,213.1855 Q177.9844,214.4199 178.875,215.248 Q179.7656,216.0605 181.3594,216.0605 Q182.2969,216.0605 182.9531,215.8105 Q183.3438,215.6543 183.7656,215.2168 Q184.0313,214.9512 184.1719,214.873 Q184.3281,214.7949 184.5313,214.7949 Q184.8594,214.7949 185.1094,215.0605 Q185.375,215.3105 185.375,215.6543 Q185.375,215.998 185.0313,216.4043 Q184.5313,216.9824 183.7344,217.3105 Q182.6563,217.7637 181.3594,217.7637 Q179.8438,217.7637 178.6406,217.1387 Q177.6563,216.6387 176.9688,215.5762 Q176.2813,214.498 176.2813,213.2168 L176.2813,212.0605 Q176.2813,210.7324 176.8906,209.5918 Q177.5156,208.4355 178.6094,207.8262 Q179.7031,207.2012 180.9375,207.2012 Q181.6719,207.2012 182.3125,207.373 Q182.9688,207.5293 183.5156,207.8887 Z " fill="#000000"/><text fill="#000000" font-family="sans-serif" font-size="14" lengthAdjust="spacing" textLength="120" x="201.25" y="217.8105">ListDealsController</text><line style="stroke:#181818;stroke-width:0.5;" x1="23" x2="467" y1="228.0137" y2="228.0137"/><line style="stroke:#181818;stroke-width:0.5;" x1="23" x2="467" y1="236.0137" y2="236.0137"/><ellipse cx="33" cy="250.8242" fill="#84BE84" rx="3" ry="3" style="stroke:#038048;stroke-width:1.0;"/><text fill="#000000" font-family="sans-serif" font-size="14" lengthAdjust="spacing" textLength="66" x="42" y="255.1211">getDeals()</text><ellipse cx="33" cy="269.4453" fill="#84BE84" rx="3" ry="3" style="stroke:#038048;stroke-width:1.0;"/><text fill="#000000" font-family="sans-serif" font-size="14" lengthAdjust="spacing" textLength="420" x="42" y="273.7422">sortByAreaWithAlgorithm(announcements, sortingAlgorithm, order)</text></g><!--class Announcement--><g id="elem_Announcement"><rect codeLine="22" fill="#F1F1F1" height="178.3477" id="Announcement" rx="2.5" ry="2.5" style="stroke:#181818;stroke-width:0.5;" width="237" x="71.5" y="725.0137"/><ellipse cx="138.25" cy="741.0137" fill="#ADD1B2" rx="11" ry="11" style="stroke:#181818;stroke-width:1.0;"/><path d="M141.0156,736.8887 Q141.1719,736.6699 141.3594,736.5605 Q141.5469,736.4512 141.7656,736.4512 Q142.1406,736.4512 142.375,736.7168 Q142.6094,736.9668 142.6094,737.5762 L142.6094,739.0293 Q142.6094,739.6387 142.375,739.9043 Q142.1406,740.1699 141.7656,740.1699 Q141.4219,740.1699 141.2188,739.9668 Q141.0156,739.7793 140.9063,739.2637 Q140.8594,738.9043 140.6719,738.7168 Q140.3438,738.3418 139.7344,738.123 Q139.125,737.9043 138.5,737.9043 Q137.7344,737.9043 137.0938,738.2324 Q136.4688,738.5605 135.9688,739.3105 Q135.4844,740.0605 135.4844,741.0918 L135.4844,742.1855 Q135.4844,743.4199 136.375,744.248 Q137.2656,745.0605 138.8594,745.0605 Q139.7969,745.0605 140.4531,744.8105 Q140.8438,744.6543 141.2656,744.2168 Q141.5313,743.9512 141.6719,743.873 Q141.8281,743.7949 142.0313,743.7949 Q142.3594,743.7949 142.6094,744.0605 Q142.875,744.3105 142.875,744.6543 Q142.875,744.998 142.5313,745.4043 Q142.0313,745.9824 141.2344,746.3105 Q140.1563,746.7637 138.8594,746.7637 Q137.3438,746.7637 136.1406,746.1387 Q135.1563,745.6387 134.4688,744.5762 Q133.7813,743.498 133.7813,742.2168 L133.7813,741.0605 Q133.7813,739.7324 134.3906,738.5918 Q135.0156,737.4355 136.1094,736.8262 Q137.2031,736.2012 138.4375,736.2012 Q139.1719,736.2012 139.8125,736.373 Q140.4688,736.5293 141.0156,736.8887 Z " fill="#000000"/><text fill="#000000" font-family="sans-serif" font-size="14" lengthAdjust="spacing" textLength="95" x="158.75" y="746.8105">Announcement</text><line style="stroke:#181818;stroke-width:0.5;" x1="72.5" x2="307.5" y1="757.0137" y2="757.0137"/><rect fill="none" height="6" style="stroke:#C82930;stroke-width:1.0;" width="6" x="79.5" y="768.8242"/><text fill="#000000" font-family="sans-serif" font-size="14" lengthAdjust="spacing" textLength="62" x="91.5" y="776.1211">float price</text><rect fill="none" height="6" style="stroke:#C82930;stroke-width:1.0;" width="6" x="79.5" y="787.4453"/><text fill="#000000" font-family="sans-serif" font-size="14" lengthAdjust="spacing" textLength="100" x="91.5" y="794.7422">LocalDate date;</text><rect fill="none" height="6" style="stroke:#C82930;stroke-width:1.0;" width="6" x="79.5" y="806.0664"/><text fill="#000000" font-family="sans-serif" font-size="14" lengthAdjust="spacing" textLength="181" x="91.5" y="813.3633">AnnouncementStatus status;</text><rect fill="none" height="6" style="stroke:#C82930;stroke-width:1.0;" width="6" x="79.5" y="824.6875"/><text fill="#000000" font-family="sans-serif" font-size="14" lengthAdjust="spacing" textLength="66" x="91.5" y="831.9844">float price;</text><rect fill="none" height="6" style="stroke:#C82930;stroke-width:1.0;" width="6" x="79.5" y="843.3086"/><text fill="#000000" font-family="sans-serif" font-size="14" lengthAdjust="spacing" textLength="108" x="91.5" y="850.6055">float commission;</text><rect fill="none" height="6" style="stroke:#C82930;stroke-width:1.0;" width="6" x="79.5" y="861.9297"/><text fill="#000000" font-family="sans-serif" font-size="14" lengthAdjust="spacing" textLength="211" x="91.5" y="869.2266">TypeOfBusiness typeOfBusiness;</text><rect fill="none" height="6" style="stroke:#C82930;stroke-width:1.0;" width="6" x="79.5" y="880.5508"/><text fill="#000000" font-family="sans-serif" font-size="14" lengthAdjust="spacing" textLength="162" x="91.5" y="887.8477">int numberOfMonthsRent;</text><line style="stroke:#181818;stroke-width:0.5;" x1="72.5" x2="307.5" y1="895.3613" y2="895.3613"/></g><!--class Employee--><g id="elem_Employee"><rect codeLine="32" fill="#F1F1F1" height="48" id="Employee" rx="2.5" ry="2.5" style="stroke:#181818;stroke-width:0.5;" width="94" x="33" y="1000.5137"/><ellipse cx="48" cy="1016.5137" fill="#ADD1B2" rx="11" ry="11" style="stroke:#181818;stroke-width:1.0;"/><path d="M50.7656,1012.3887 Q50.9219,1012.1699 51.1094,1012.0605 Q51.2969,1011.9512 51.5156,1011.9512 Q51.8906,1011.9512 52.125,1012.2168 Q52.3594,1012.4668 52.3594,1013.0762 L52.3594,1014.5293 Q52.3594,1015.1387 52.125,1015.4043 Q51.8906,1015.6699 51.5156,1015.6699 Q51.1719,1015.6699 50.9688,1015.4668 Q50.7656,1015.2793 50.6563,1014.7637 Q50.6094,1014.4043 50.4219,1014.2168 Q50.0938,1013.8418 49.4844,1013.623 Q48.875,1013.4043 48.25,1013.4043 Q47.4844,1013.4043 46.8438,1013.7324 Q46.2188,1014.0605 45.7188,1014.8105 Q45.2344,1015.5605 45.2344,1016.5918 L45.2344,1017.6855 Q45.2344,1018.9199 46.125,1019.748 Q47.0156,1020.5605 48.6094,1020.5605 Q49.5469,1020.5605 50.2031,1020.3105 Q50.5938,1020.1543 51.0156,1019.7168 Q51.2813,1019.4512 51.4219,1019.373 Q51.5781,1019.2949 51.7813,1019.2949 Q52.1094,1019.2949 52.3594,1019.5605 Q52.625,1019.8105 52.625,1020.1543 Q52.625,1020.498 52.2813,1020.9043 Q51.7813,1021.4824 50.9844,1021.8105 Q49.9063,1022.2637 48.6094,1022.2637 Q47.0938,1022.2637 45.8906,1021.6387 Q44.9063,1021.1387 44.2188,1020.0762 Q43.5313,1018.998 43.5313,1017.7168 L43.5313,1016.5605 Q43.5313,1015.2324 44.1406,1014.0918 Q44.7656,1012.9355 45.8594,1012.3262 Q46.9531,1011.7012 48.1875,1011.7012 Q48.9219,1011.7012 49.5625,1011.873 Q50.2188,1012.0293 50.7656,1012.3887 Z " fill="#000000"/><text fill="#000000" font-family="sans-serif" font-size="14" lengthAdjust="spacing" textLength="62" x="62" y="1022.3105">Employee</text><line style="stroke:#181818;stroke-width:0.5;" x1="34" x2="126" y1="1032.5137" y2="1032.5137"/><line style="stroke:#181818;stroke-width:0.5;" x1="34" x2="126" y1="1040.5137" y2="1040.5137"/></g><!--class Property--><g id="elem_Property"><rect codeLine="36" fill="#F1F1F1" height="85.2422" id="Property" rx="2.5" ry="2.5" style="stroke:#181818;stroke-width:0.5;" width="86" x="162" y="982.0137"/><ellipse cx="177" cy="998.0137" fill="#ADD1B2" rx="11" ry="11" style="stroke:#181818;stroke-width:1.0;"/><path d="M179.7656,993.8887 Q179.9219,993.6699 180.1094,993.5605 Q180.2969,993.4512 180.5156,993.4512 Q180.8906,993.4512 181.125,993.7168 Q181.3594,993.9668 181.3594,994.5762 L181.3594,996.0293 Q181.3594,996.6387 181.125,996.9043 Q180.8906,997.1699 180.5156,997.1699 Q180.1719,997.1699 179.9688,996.9668 Q179.7656,996.7793 179.6563,996.2637 Q179.6094,995.9043 179.4219,995.7168 Q179.0938,995.3418 178.4844,995.123 Q177.875,994.9043 177.25,994.9043 Q176.4844,994.9043 175.8438,995.2324 Q175.2188,995.5605 174.7188,996.3105 Q174.2344,997.0605 174.2344,998.0918 L174.2344,999.1855 Q174.2344,1000.4199 175.125,1001.248 Q176.0156,1002.0605 177.6094,1002.0605 Q178.5469,1002.0605 179.2031,1001.8105 Q179.5938,1001.6543 180.0156,1001.2168 Q180.2813,1000.9512 180.4219,1000.873 Q180.5781,1000.7949 180.7813,1000.7949 Q181.1094,1000.7949 181.3594,1001.0605 Q181.625,1001.3105 181.625,1001.6543 Q181.625,1001.998 181.2813,1002.4043 Q180.7813,1002.9824 179.9844,1003.3105 Q178.9063,1003.7637 177.6094,1003.7637 Q176.0938,1003.7637 174.8906,1003.1387 Q173.9063,1002.6387 173.2188,1001.5762 Q172.5313,1000.498 172.5313,999.2168 L172.5313,998.0605 Q172.5313,996.7324 173.1406,995.5918 Q173.7656,994.4355 174.8594,993.8262 Q175.9531,993.2012 177.1875,993.2012 Q177.9219,993.2012 178.5625,993.373 Q179.2188,993.5293 179.7656,993.8887 Z " fill="#000000"/><text fill="#000000" font-family="sans-serif" font-size="14" lengthAdjust="spacing" textLength="54" x="191" y="1003.8105">Property</text><line style="stroke:#181818;stroke-width:0.5;" x1="163" x2="247" y1="1014.0137" y2="1014.0137"/><rect fill="none" height="6" style="stroke:#C82930;stroke-width:1.0;" width="6" x="170" y="1025.8242"/><text fill="#000000" font-family="sans-serif" font-size="14" lengthAdjust="spacing" textLength="60" x="182" y="1033.1211">float area</text><line style="stroke:#181818;stroke-width:0.5;" x1="163" x2="247" y1="1040.6348" y2="1040.6348"/><ellipse cx="173" cy="1055.4453" fill="#84BE84" rx="3" ry="3" style="stroke:#038048;stroke-width:1.0;"/><text fill="#000000" font-family="sans-serif" font-size="14" lengthAdjust="spacing" textLength="60" x="182" y="1059.7422">getArea()</text></g><!--class Order--><g id="elem_Order"><rect codeLine="41" fill="#F1F1F1" height="48" id="Order" rx="2.5" ry="2.5" style="stroke:#181818;stroke-width:0.5;" width="69" x="283.5" y="1000.5137"/><ellipse cx="298.5" cy="1016.5137" fill="#ADD1B2" rx="11" ry="11" style="stroke:#181818;stroke-width:1.0;"/><path d="M301.2656,1012.3887 Q301.4219,1012.1699 301.6094,1012.0605 Q301.7969,1011.9512 302.0156,1011.9512 Q302.3906,1011.9512 302.625,1012.2168 Q302.8594,1012.4668 302.8594,1013.0762 L302.8594,1014.5293 Q302.8594,1015.1387 302.625,1015.4043 Q302.3906,1015.6699 302.0156,1015.6699 Q301.6719,1015.6699 301.4688,1015.4668 Q301.2656,1015.2793 301.1563,1014.7637 Q301.1094,1014.4043 300.9219,1014.2168 Q300.5938,1013.8418 299.9844,1013.623 Q299.375,1013.4043 298.75,1013.4043 Q297.9844,1013.4043 297.3438,1013.7324 Q296.7188,1014.0605 296.2188,1014.8105 Q295.7344,1015.5605 295.7344,1016.5918 L295.7344,1017.6855 Q295.7344,1018.9199 296.625,1019.748 Q297.5156,1020.5605 299.1094,1020.5605 Q300.0469,1020.5605 300.7031,1020.3105 Q301.0938,1020.1543 301.5156,1019.7168 Q301.7813,1019.4512 301.9219,1019.373 Q302.0781,1019.2949 302.2813,1019.2949 Q302.6094,1019.2949 302.8594,1019.5605 Q303.125,1019.8105 303.125,1020.1543 Q303.125,1020.498 302.7813,1020.9043 Q302.2813,1021.4824 301.4844,1021.8105 Q300.4063,1022.2637 299.1094,1022.2637 Q297.5938,1022.2637 296.3906,1021.6387 Q295.4063,1021.1387 294.7188,1020.0762 Q294.0313,1018.998 294.0313,1017.7168 L294.0313,1016.5605 Q294.0313,1015.2324 294.6406,1014.0918 Q295.2656,1012.9355 296.3594,1012.3262 Q297.4531,1011.7012 298.6875,1011.7012 Q299.4219,1011.7012 300.0625,1011.873 Q300.7188,1012.0293 301.2656,1012.3887 Z " fill="#000000"/><text fill="#000000" font-family="sans-serif" font-size="14" lengthAdjust="spacing" textLength="37" x="312.5" y="1022.3105">Order</text><line style="stroke:#181818;stroke-width:0.5;" x1="284.5" x2="351.5" y1="1032.5137" y2="1032.5137"/><line style="stroke:#181818;stroke-width:0.5;" x1="284.5" x2="351.5" y1="1040.5137" y2="1040.5137"/></g><!--class Client--><g id="elem_Client"><rect codeLine="44" fill="#F1F1F1" height="48" id="Client" rx="2.5" ry="2.5" style="stroke:#181818;stroke-width:0.5;" width="68" x="388" y="1000.5137"/><ellipse cx="403" cy="1016.5137" fill="#ADD1B2" rx="11" ry="11" style="stroke:#181818;stroke-width:1.0;"/><path d="M405.7656,1012.3887 Q405.9219,1012.1699 406.1094,1012.0605 Q406.2969,1011.9512 406.5156,1011.9512 Q406.8906,1011.9512 407.125,1012.2168 Q407.3594,1012.4668 407.3594,1013.0762 L407.3594,1014.5293 Q407.3594,1015.1387 407.125,1015.4043 Q406.8906,1015.6699 406.5156,1015.6699 Q406.1719,1015.6699 405.9688,1015.4668 Q405.7656,1015.2793 405.6563,1014.7637 Q405.6094,1014.4043 405.4219,1014.2168 Q405.0938,1013.8418 404.4844,1013.623 Q403.875,1013.4043 403.25,1013.4043 Q402.4844,1013.4043 401.8438,1013.7324 Q401.2188,1014.0605 400.7188,1014.8105 Q400.2344,1015.5605 400.2344,1016.5918 L400.2344,1017.6855 Q400.2344,1018.9199 401.125,1019.748 Q402.0156,1020.5605 403.6094,1020.5605 Q404.5469,1020.5605 405.2031,1020.3105 Q405.5938,1020.1543 406.0156,1019.7168 Q406.2813,1019.4512 406.4219,1019.373 Q406.5781,1019.2949 406.7813,1019.2949 Q407.1094,1019.2949 407.3594,1019.5605 Q407.625,1019.8105 407.625,1020.1543 Q407.625,1020.498 407.2813,1020.9043 Q406.7813,1021.4824 405.9844,1021.8105 Q404.9063,1022.2637 403.6094,1022.2637 Q402.0938,1022.2637 400.8906,1021.6387 Q399.9063,1021.1387 399.2188,1020.0762 Q398.5313,1018.998 398.5313,1017.7168 L398.5313,1016.5605 Q398.5313,1015.2324 399.1406,1014.0918 Q399.7656,1012.9355 400.8594,1012.3262 Q401.9531,1011.7012 403.1875,1011.7012 Q403.9219,1011.7012 404.5625,1011.873 Q405.2188,1012.0293 405.7656,1012.3887 Z " fill="#000000"/><text fill="#000000" font-family="sans-serif" font-size="14" lengthAdjust="spacing" textLength="36" x="417" y="1022.3105">Client</text><line style="stroke:#181818;stroke-width:0.5;" x1="389" x2="455" y1="1032.5137" y2="1032.5137"/><line style="stroke:#181818;stroke-width:0.5;" x1="389" x2="455" y1="1040.5137" y2="1040.5137"/></g><!--class Branch--><g id="elem_Branch"><rect codeLine="47" fill="#F1F1F1" height="85.2422" id="Branch" rx="2.5" ry="2.5" style="stroke:#181818;stroke-width:0.5;" width="77" x="491.5" y="982.0137"/><ellipse cx="506.5" cy="998.0137" fill="#ADD1B2" rx="11" ry="11" style="stroke:#181818;stroke-width:1.0;"/><path d="M509.2656,993.8887 Q509.4219,993.6699 509.6094,993.5605 Q509.7969,993.4512 510.0156,993.4512 Q510.3906,993.4512 510.625,993.7168 Q510.8594,993.9668 510.8594,994.5762 L510.8594,996.0293 Q510.8594,996.6387 510.625,996.9043 Q510.3906,997.1699 510.0156,997.1699 Q509.6719,997.1699 509.4688,996.9668 Q509.2656,996.7793 509.1563,996.2637 Q509.1094,995.9043 508.9219,995.7168 Q508.5938,995.3418 507.9844,995.123 Q507.375,994.9043 506.75,994.9043 Q505.9844,994.9043 505.3438,995.2324 Q504.7188,995.5605 504.2188,996.3105 Q503.7344,997.0605 503.7344,998.0918 L503.7344,999.1855 Q503.7344,1000.4199 504.625,1001.248 Q505.5156,1002.0605 507.1094,1002.0605 Q508.0469,1002.0605 508.7031,1001.8105 Q509.0938,1001.6543 509.5156,1001.2168 Q509.7813,1000.9512 509.9219,1000.873 Q510.0781,1000.7949 510.2813,1000.7949 Q510.6094,1000.7949 510.8594,1001.0605 Q511.125,1001.3105 511.125,1001.6543 Q511.125,1001.998 510.7813,1002.4043 Q510.2813,1002.9824 509.4844,1003.3105 Q508.4063,1003.7637 507.1094,1003.7637 Q505.5938,1003.7637 504.3906,1003.1387 Q503.4063,1002.6387 502.7188,1001.5762 Q502.0313,1000.498 502.0313,999.2168 L502.0313,998.0605 Q502.0313,996.7324 502.6406,995.5918 Q503.2656,994.4355 504.3594,993.8262 Q505.4531,993.2012 506.6875,993.2012 Q507.4219,993.2012 508.0625,993.373 Q508.7188,993.5293 509.2656,993.8887 Z " fill="#000000"/><text fill="#000000" font-family="sans-serif" font-size="14" lengthAdjust="spacing" textLength="45" x="520.5" y="1003.8105">Branch</text><line style="stroke:#181818;stroke-width:0.5;" x1="492.5" x2="567.5" y1="1014.0137" y2="1014.0137"/><rect fill="none" height="6" style="stroke:#C82930;stroke-width:1.0;" width="6" x="499.5" y="1025.8242"/><text fill="#000000" font-family="sans-serif" font-size="14" lengthAdjust="spacing" textLength="11" x="511.5" y="1033.1211">id</text><rect fill="none" height="6" style="stroke:#C82930;stroke-width:1.0;" width="6" x="499.5" y="1044.4453"/><text fill="#000000" font-family="sans-serif" font-size="14" lengthAdjust="spacing" textLength="35" x="511.5" y="1051.7422">name</text><line style="stroke:#181818;stroke-width:0.5;" x1="492.5" x2="567.5" y1="1059.2559" y2="1059.2559"/></g><!--class Repositories--><g id="elem_Repositories"><rect codeLine="53" fill="#F1F1F1" height="85.2422" id="Repositories" rx="2.5" ry="2.5" style="stroke:#181818;stroke-width:0.5;" width="162" x="124" y="412.0137"/><ellipse cx="161.95" cy="428.0137" fill="#ADD1B2" rx="11" ry="11" style="stroke:#181818;stroke-width:1.0;"/><path d="M164.7156,423.8887 Q164.8719,423.6699 165.0594,423.5605 Q165.2469,423.4512 165.4656,423.4512 Q165.8406,423.4512 166.075,423.7168 Q166.3094,423.9668 166.3094,424.5762 L166.3094,426.0293 Q166.3094,426.6387 166.075,426.9043 Q165.8406,427.1699 165.4656,427.1699 Q165.1219,427.1699 164.9188,426.9668 Q164.7156,426.7793 164.6063,426.2637 Q164.5594,425.9043 164.3719,425.7168 Q164.0438,425.3418 163.4344,425.123 Q162.825,424.9043 162.2,424.9043 Q161.4344,424.9043 160.7938,425.2324 Q160.1688,425.5605 159.6688,426.3105 Q159.1844,427.0605 159.1844,428.0918 L159.1844,429.1855 Q159.1844,430.4199 160.075,431.248 Q160.9656,432.0605 162.5594,432.0605 Q163.4969,432.0605 164.1531,431.8105 Q164.5438,431.6543 164.9656,431.2168 Q165.2313,430.9512 165.3719,430.873 Q165.5281,430.7949 165.7313,430.7949 Q166.0594,430.7949 166.3094,431.0605 Q166.575,431.3105 166.575,431.6543 Q166.575,431.998 166.2313,432.4043 Q165.7313,432.9824 164.9344,433.3105 Q163.8563,433.7637 162.5594,433.7637 Q161.0438,433.7637 159.8406,433.1387 Q158.8563,432.6387 158.1688,431.5762 Q157.4813,430.498 157.4813,429.2168 L157.4813,428.0605 Q157.4813,426.7324 158.0906,425.5918 Q158.7156,424.4355 159.8094,423.8262 Q160.9031,423.2012 162.1375,423.2012 Q162.8719,423.2012 163.5125,423.373 Q164.1688,423.5293 164.7156,423.8887 Z " fill="#000000"/><text fill="#000000" font-family="sans-serif" font-size="14" lengthAdjust="spacing" textLength="79" x="181.05" y="433.8105">Repositories</text><line style="stroke:#181818;stroke-width:0.5;" x1="125" x2="285" y1="444.0137" y2="444.0137"/><rect fill="none" height="6" style="stroke:#C82930;stroke-width:1.0;" width="6" x="132" y="455.8242"/><text fill="#000000" font-family="sans-serif" font-size="14" lengthAdjust="spacing" textLength="136" x="144" y="463.1211">Repositories instance</text><line style="stroke:#181818;stroke-width:0.5;" x1="125" x2="285" y1="470.6348" y2="470.6348"/><ellipse cx="135" cy="485.4453" fill="#84BE84" rx="3" ry="3" style="stroke:#038048;stroke-width:1.0;"/><text fill="#000000" font-family="sans-serif" font-size="14" lengthAdjust="spacing" textLength="83" x="144" y="489.7422">getInstance()</text></g><!--class AnnouncementRepository--><g id="elem_AnnouncementRepository"><rect codeLine="57" fill="#F1F1F1" height="103.8633" id="AnnouncementRepository" rx="2.5" ry="2.5" style="stroke:#181818;stroke-width:0.5;" width="195" x="116.5" y="558.0137"/><ellipse cx="131.5" cy="574.0137" fill="#ADD1B2" rx="11" ry="11" style="stroke:#181818;stroke-width:1.0;"/><path d="M134.2656,569.8887 Q134.4219,569.6699 134.6094,569.5605 Q134.7969,569.4512 135.0156,569.4512 Q135.3906,569.4512 135.625,569.7168 Q135.8594,569.9668 135.8594,570.5762 L135.8594,572.0293 Q135.8594,572.6387 135.625,572.9043 Q135.3906,573.1699 135.0156,573.1699 Q134.6719,573.1699 134.4688,572.9668 Q134.2656,572.7793 134.1563,572.2637 Q134.1094,571.9043 133.9219,571.7168 Q133.5938,571.3418 132.9844,571.123 Q132.375,570.9043 131.75,570.9043 Q130.9844,570.9043 130.3438,571.2324 Q129.7188,571.5605 129.2188,572.3105 Q128.7344,573.0605 128.7344,574.0918 L128.7344,575.1855 Q128.7344,576.4199 129.625,577.248 Q130.5156,578.0605 132.1094,578.0605 Q133.0469,578.0605 133.7031,577.8105 Q134.0938,577.6543 134.5156,577.2168 Q134.7813,576.9512 134.9219,576.873 Q135.0781,576.7949 135.2813,576.7949 Q135.6094,576.7949 135.8594,577.0605 Q136.125,577.3105 136.125,577.6543 Q136.125,577.998 135.7813,578.4043 Q135.2813,578.9824 134.4844,579.3105 Q133.4063,579.7637 132.1094,579.7637 Q130.5938,579.7637 129.3906,579.1387 Q128.4063,578.6387 127.7188,577.5762 Q127.0313,576.498 127.0313,575.2168 L127.0313,574.0605 Q127.0313,572.7324 127.6406,571.5918 Q128.2656,570.4355 129.3594,569.8262 Q130.4531,569.2012 131.6875,569.2012 Q132.4219,569.2012 133.0625,569.373 Q133.7188,569.5293 134.2656,569.8887 Z " fill="#000000"/><text fill="#000000" font-family="sans-serif" font-size="14" lengthAdjust="spacing" textLength="163" x="145.5" y="579.8105">AnnouncementRepository</text><line style="stroke:#181818;stroke-width:0.5;" x1="117.5" x2="310.5" y1="590.0137" y2="590.0137"/><rect fill="none" height="6" style="stroke:#C82930;stroke-width:1.0;" width="6" x="124.5" y="601.8242"/><text fill="#000000" font-family="sans-serif" font-size="14" lengthAdjust="spacing" textLength="128" x="136.5" y="609.1211">soldAnnouncements</text><line style="stroke:#181818;stroke-width:0.5;" x1="117.5" x2="310.5" y1="616.6348" y2="616.6348"/><ellipse cx="127.5" cy="631.4453" fill="#84BE84" rx="3" ry="3" style="stroke:#038048;stroke-width:1.0;"/><text fill="#000000" font-family="sans-serif" font-size="14" lengthAdjust="spacing" textLength="160" x="136.5" y="635.7422">getSoldAnnouncements()</text><ellipse cx="127.5" cy="650.0664" fill="#84BE84" rx="3" ry="3" style="stroke:#038048;stroke-width:1.0;"/><text fill="#000000" font-family="sans-serif" font-size="14" lengthAdjust="spacing" textLength="167" x="136.5" y="654.3633">sortByAreaWithAlgorithm()</text></g><!--class AlgorithmSorter--><g id="elem_AlgorithmSorter"><rect codeLine="66" fill="#F1F1F1" height="103.8633" id="AlgorithmSorter" rx="2.5" ry="2.5" style="stroke:#181818;stroke-width:0.5;" width="201" x="343.5" y="762.0137"/><ellipse cx="390.75" cy="778.0137" fill="#ADD1B2" rx="11" ry="11" style="stroke:#181818;stroke-width:1.0;"/><path d="M393.5156,773.8887 Q393.6719,773.6699 393.8594,773.5605 Q394.0469,773.4512 394.2656,773.4512 Q394.6406,773.4512 394.875,773.7168 Q395.1094,773.9668 395.1094,774.5762 L395.1094,776.0293 Q395.1094,776.6387 394.875,776.9043 Q394.6406,777.1699 394.2656,777.1699 Q393.9219,777.1699 393.7188,776.9668 Q393.5156,776.7793 393.4063,776.2637 Q393.3594,775.9043 393.1719,775.7168 Q392.8438,775.3418 392.2344,775.123 Q391.625,774.9043 391,774.9043 Q390.2344,774.9043 389.5938,775.2324 Q388.9688,775.5605 388.4688,776.3105 Q387.9844,777.0605 387.9844,778.0918 L387.9844,779.1855 Q387.9844,780.4199 388.875,781.248 Q389.7656,782.0605 391.3594,782.0605 Q392.2969,782.0605 392.9531,781.8105 Q393.3438,781.6543 393.7656,781.2168 Q394.0313,780.9512 394.1719,780.873 Q394.3281,780.7949 394.5313,780.7949 Q394.8594,780.7949 395.1094,781.0605 Q395.375,781.3105 395.375,781.6543 Q395.375,781.998 395.0313,782.4043 Q394.5313,782.9824 393.7344,783.3105 Q392.6563,783.7637 391.3594,783.7637 Q389.8438,783.7637 388.6406,783.1387 Q387.6563,782.6387 386.9688,781.5762 Q386.2813,780.498 386.2813,779.2168 L386.2813,778.0605 Q386.2813,776.7324 386.8906,775.5918 Q387.5156,774.4355 388.6094,773.8262 Q389.7031,773.2012 390.9375,773.2012 Q391.6719,773.2012 392.3125,773.373 Q392.9688,773.5293 393.5156,773.8887 Z " fill="#000000"/><text fill="#000000" font-family="sans-serif" font-size="14" lengthAdjust="spacing" textLength="98" x="411.25" y="783.8105">AlgorithmSorter</text><line style="stroke:#181818;stroke-width:0.5;" x1="344.5" x2="543.5" y1="794.0137" y2="794.0137"/><line style="stroke:#181818;stroke-width:0.5;" x1="344.5" x2="543.5" y1="802.0137" y2="802.0137"/><ellipse cx="354.5" cy="816.8242" fill="#84BE84" rx="3" ry="3" style="stroke:#038048;stroke-width:1.0;"/><text fill="#000000" font-family="sans-serif" font-size="14" lengthAdjust="spacing" textLength="175" x="363.5" y="821.1211">sort(items, algorithm, order)</text><rect fill="#F24D5C" height="6" style="stroke:#C82930;stroke-width:1.0;" width="6" x="351.5" y="832.4453"/><text fill="#000000" font-family="sans-serif" font-size="14" lengthAdjust="spacing" textLength="154" x="363.5" y="839.7422">bubbleSort(items, order)</text><rect fill="#F24D5C" height="6" style="stroke:#C82930;stroke-width:1.0;" width="6" x="351.5" y="851.0664"/><text fill="#000000" font-family="sans-serif" font-size="14" lengthAdjust="spacing" textLength="165" x="363.5" y="858.3633">insertionSort(items, order)</text></g><!--link ListDealsGui to ListDealsController--><g id="link_ListDealsGui_ListDealsController"><path codeLine="76" d="M245,110.2737 C245,133.5037 245,165.0137 245,190.8637 " fill="none" id="ListDealsGui-to-ListDealsController" style="stroke:#181818;stroke-width:1.0;stroke-dasharray:7.0,7.0;"/><polygon fill="#181818" points="245,195.9537,249,186.9537,245,190.9537,241,186.9537,245,195.9537" style="stroke:#181818;stroke-width:1.0;"/></g><!--link ListDealsController to Repositories--><g id="link_ListDealsController_Repositories"><path codeLine="77" d="M237.24,281.0337 C230.5,317.0937 220.75,369.2737 213.73,406.7837 " fill="none" id="ListDealsController-to-Repositories" style="stroke:#181818;stroke-width:1.0;stroke-dasharray:7.0,7.0;"/><polygon fill="#181818" points="212.81,411.7537,218.3845,403.6342,213.722,406.8375,210.5187,402.1751,212.81,411.7537" style="stroke:#181818;stroke-width:1.0;"/></g><!--link ListDealsController to AnnouncementRepository--><g id="link_ListDealsController_AnnouncementRepository"><path codeLine="78" d="M282.38,281.2637 C291.2,293.5537 299.37,307.5937 304,322.0137 C327.76,396.0737 329.82,423.6437 304,497.0137 C296.82,517.4037 284.19,536.8237 270.62,553.5937 " fill="none" id="ListDealsController-to-AnnouncementRepository" style="stroke:#181818;stroke-width:1.0;stroke-dasharray:7.0,7.0;"/><polygon fill="#181818" points="267.15,557.7937,275.9654,553.4017,270.334,553.9386,269.7972,548.3072,267.15,557.7937" style="stroke:#181818;stroke-width:1.0;"/></g><!--link Announcement to Property--><g id="link_Announcement_Property"><path codeLine="81" d="M197.29,916.3537 C198.59,934.4837 199.91,952.7237 201.07,968.8937 " fill="none" id="Announcement-Property" style="stroke:#181818;stroke-width:1.0;"/><polygon fill="#181818" points="196.34,903.1337,192.7786,909.404,197.1968,915.103,200.7582,908.8327,196.34,903.1337" style="stroke:#181818;stroke-width:1.0;"/><polygon fill="#181818" points="202.01,981.9337,205.3564,972.6708,201.6526,976.9465,197.3769,973.2426,202.01,981.9337" style="stroke:#181818;stroke-width:1.0;"/><line style="stroke:#181818;stroke-width:1.0;" x1="201.6526" x2="201.075" y1="976.9465" y2="968.9687"/><text fill="#000000" font-family="sans-serif" font-size="13" lengthAdjust="spacing" textLength="47" x="200" y="948.042">property</text><text fill="#000000" font-family="sans-serif" font-size="13" lengthAdjust="spacing" textLength="7" x="189.5752" y="925.2438">1</text><text fill="#000000" font-family="sans-serif" font-size="13" lengthAdjust="spacing" textLength="7" x="193.9757" y="970.825">1</text></g><!--link Announcement to Employee--><g id="link_Announcement_Employee"><path codeLine="82" d="M137.32,914.8737 C123.27,941.4937 109.03,968.4937 98.25,988.9237 " fill="none" id="Announcement-Employee" style="stroke:#181818;stroke-width:1.0;"/><polygon fill="none" points="143.51,903.1337,137.1748,906.5782,137.9178,913.751,144.253,910.3064,143.51,903.1337" style="stroke:#181818;stroke-width:1.0;"/><polygon fill="#181818" points="92.18,1000.4337,99.9192,994.3423,94.5144,996.0121,92.8446,990.6073,92.18,1000.4337" style="stroke:#181818;stroke-width:1.0;"/><line style="stroke:#181818;stroke-width:1.0;" x1="94.5144" x2="98.245" y1="996.0121" y2="988.9287"/><text fill="#000000" font-family="sans-serif" font-size="13" lengthAdjust="spacing" textLength="32" x="127" y="948.042">agent</text><text fill="#000000" font-family="sans-serif" font-size="13" lengthAdjust="spacing" textLength="7" x="132.3702" y="925.2438">1</text><text fill="#000000" font-family="sans-serif" font-size="13" lengthAdjust="spacing" textLength="7" x="87.4043" y="989.1507">1</text></g><!--link Announcement to Client--><g id="link_Announcement_Client"><path codeLine="83" d="M297.84,911.9337 C329.76,940.6137 362.5,970.0437 386.34,991.4737 " fill="none" id="Announcement-Client" style="stroke:#181818;stroke-width:1.0;"/><polygon fill="none" points="288.05,903.1337,289.8362,910.1201,296.9722,911.1583,295.186,904.172,288.05,903.1337" style="stroke:#181818;stroke-width:1.0;"/><polygon fill="#181818" points="396.31,1000.4337,392.294,991.4408,392.5927,997.0898,386.9437,997.3885,396.31,1000.4337" style="stroke:#181818;stroke-width:1.0;"/><line style="stroke:#181818;stroke-width:1.0;" x1="392.5927" x2="386.645" y1="997.0898" y2="991.7387"/><text fill="#000000" font-family="sans-serif" font-size="13" lengthAdjust="spacing" textLength="34" x="341" y="948.042">owner</text><text fill="#000000" font-family="sans-serif" font-size="13" lengthAdjust="spacing" textLength="7" x="288.8799" y="925.2438">1</text><text fill="#000000" font-family="sans-serif" font-size="13" lengthAdjust="spacing" textLength="7" x="381.8301" y="989.1507">1</text></g><!--link Announcement to Order--><g id="link_Announcement_Order"><path codeLine="84" d="M251.05,914.4537 C267.53,941.3137 284.28,968.5937 296.91,989.1537 " fill="none" id="Announcement-Order" style="stroke:#181818;stroke-width:1.0;"/><polygon fill="none" points="244.1,903.1337,243.8276,910.3396,250.3745,913.3626,250.6469,906.1567,244.1,903.1337" style="stroke:#181818;stroke-width:1.0;"/><polygon fill="#181818" points="303.83,1000.4337,302.5282,990.6712,301.2132,996.1731,295.7113,994.8581,303.83,1000.4337" style="stroke:#181818;stroke-width:1.0;"/><line style="stroke:#181818;stroke-width:1.0;" x1="301.2132" x2="297.025" y1="996.1731" y2="989.3537"/><text fill="#000000" font-family="sans-serif" font-size="13" lengthAdjust="spacing" textLength="7" x="241.2903" y="925.2438">1</text><text fill="#000000" font-family="sans-serif" font-size="13" lengthAdjust="spacing" textLength="5" x="294.5583" y="989.1507">*</text></g><!--link Announcement to Branch--><g id="link_Announcement_Branch"><path codeLine="85" d="M320.23,899.0337 C322.5,900.3737 324.76,901.7037 327,903.0137 C351.73,917.4337 358.76,919.5037 384,933.0137 C424.15,954.5137 435.61,957.5037 474,982.0137 C476.14,983.3837 478.31,984.8037 480.48,986.2637 " fill="none" id="Announcement-Branch" style="stroke:#181818;stroke-width:1.0;"/><polygon fill="none" points="308.8,892.1937,311.8907,898.7089,319.0934,898.3618,316.0027,891.8466,308.8,892.1937" style="stroke:#181818;stroke-width:1.0;"/><polygon fill="#181818" points="491.33,993.7837,486.2083,985.3713,487.2194,990.9371,481.6537,991.9482,491.33,993.7837" style="stroke:#181818;stroke-width:1.0;"/><line style="stroke:#181818;stroke-width:1.0;" x1="487.2194" x2="480.64" y1="990.9371" y2="986.3737"/><text fill="#000000" font-family="sans-serif" font-size="13" lengthAdjust="spacing" textLength="5" x="316.5708" y="893.6841">*</text><text fill="#000000" font-family="sans-serif" font-size="13" lengthAdjust="spacing" textLength="7" x="476.5549" y="983.5835">1</text></g><!--link Repositories to AnnouncementRepository--><g id="link_Repositories_AnnouncementRepository"><path codeLine="87" d="M208.21,510.2637 C208.86,521.4037 209.56,533.2237 210.23,544.6637 " fill="none" id="Repositories-AnnouncementRepository" style="stroke:#181818;stroke-width:1.0;"/><polygon fill="#181818" points="207.44,497.0537,203.796,503.2763,208.1385,509.0333,211.7825,502.8107,207.44,497.0537" style="stroke:#181818;stroke-width:1.0;"/><polygon fill="#181818" points="211,557.8537,214.4688,548.6359,210.7086,552.8622,206.4824,549.102,211,557.8537" style="stroke:#181818;stroke-width:1.0;"/><line style="stroke:#181818;stroke-width:1.0;" x1="210.7086" x2="210.24" y1="552.8622" y2="544.8687"/><text fill="#000000" font-family="sans-serif" font-size="13" lengthAdjust="spacing" textLength="7" x="200.2711" y="519.2204">1</text><text fill="#000000" font-family="sans-serif" font-size="13" lengthAdjust="spacing" textLength="7" x="203.1266" y="546.7595">1</text></g><!--link AnnouncementRepository to Announcement--><g id="link_AnnouncementRepository_Announcement"><path codeLine="90" d="M206.38,675.1637 C204.98,686.8937 203.5,699.4037 202.01,711.9137 " fill="none" id="AnnouncementRepository-Announcement" style="stroke:#181818;stroke-width:1.0;"/><polygon fill="#181818" points="207.91,662.2437,203.2325,667.7319,206.4995,674.1605,211.177,668.6722,207.91,662.2437" style="stroke:#181818;stroke-width:1.0;"/><polygon fill="#181818" points="200.47,724.9137,205.5002,716.4462,201.0577,719.9483,197.5556,715.5059,200.47,724.9137" style="stroke:#181818;stroke-width:1.0;"/><line style="stroke:#181818;stroke-width:1.0;" x1="201.0577" x2="202" y1="719.9483" y2="712.0087"/><text fill="#000000" font-family="sans-serif" font-size="13" lengthAdjust="spacing" textLength="7" x="199.6813" y="684.0804">1</text><text fill="#000000" font-family="sans-serif" font-size="13" lengthAdjust="spacing" textLength="5" x="196.13" y="713.8571">*</text></g><!--link AnnouncementRepository to AlgorithmSorter--><g id="link_AnnouncementRepository_AlgorithmSorter"><path codeLine="91" d="M276.01,662.2137 C296.55,679.4237 319.41,698.8637 340,717.0137 C355.04,730.2737 371.06,744.8237 385.9,758.5037 " fill="none" id="AnnouncementRepository-to-AlgorithmSorter" style="stroke:#181818;stroke-width:1.0;stroke-dasharray:7.0,7.0;"/><polygon fill="#181818" points="389.65,761.9637,385.7455,752.9218,385.9743,758.5741,380.3221,758.8029,389.65,761.9637" style="stroke:#181818;stroke-width:1.0;"/></g><!--SRC=[ZLHDQzj04BtlhrXyYUl6q5vjADXnAOOKbwYXXz33MXfRI_P3x8u8QiX_xqYof5rRRYEC9SrxytO-TUEVfIc44vfhQsoQEwk1eok1tGnG8T9dSOG4AmNSGOh275N4yBd8x8iqHtuGoaUGaWQmAe0NLbNrooXe7TeGI9NmVeNevBv4sARM9F8Fy4-CdOBXZrl-oZXT3PNVIuyReCE_bRArrzT7ZyBXz4DZU6DlW_kTDUYiKk36PGOyK3j22vu4snCez7MrSY1-ISnNwcWTtVLK66DBau86W_wMrpIgJu_VKiePk978DbOBQSAWLe5K7ytyeAn0NZYPGc-xjwbG6u70C_fRzlPG8K61fUU-kIt7vCwDgTLQUY-j6P2VrBNTOLrwwY25YD7hG9C6kIdr7jpky9rAcli72c5voZh8yQikbAq0NjabziFP0XnMRUwde0HLd7LTgSlVTpdmtDKrxYK7-vsIJIqlWBKJ9is7bizbDZmReQ4xe-lM0nJMIxIk2ZlMMoNuG2mqSsce1MPeNfF8zcJiancVWlDJ6tLlLHQIVAISdAFl6UA-f476ZoYLZyQpeoUa4krBBJkL29eMG8nEVXFuljpl5IG1-Pn1jQ81e06yGceMY7ui_0pm-LCcV0xPx_cNiSLc8xR89spNVydZxQ6GGe1FFa_uR4xq-g6RwmMjNVjqIROTkLkG1QSc6Fm7intk1RSlXfAymfjDskKumsU1JhiBZ4LJ6oNmhfm7872UnSxN7A82nsD6fx2_]--></g></svg>