<?xml version="1.0" encoding="UTF-8" standalone="no"?><svg xmlns="http://www.w3.org/2000/svg" xmlns:xlink="http://www.w3.org/1999/xlink" contentStyleType="text/css" height="604px" preserveAspectRatio="none" style="width:554px;height:604px;background:#FFFFFF;" version="1.1" viewBox="0 0 554 604" width="554px" zoomAndPan="magnify"><defs/><g><!--MD5=[6d7d587a021629470fd0d5f8ef3407c9]
class Branch--><g id="elem_Branch"><rect codeLine="2" fill="#F1F1F1" height="48" id="Branch" rx="2.5" ry="2.5" style="stroke:#181818;stroke-width:0.5;" width="77" x="172.5" y="549"/><ellipse cx="187.5" cy="565" fill="#ADD1B2" rx="11" ry="11" style="stroke:#181818;stroke-width:1.0;"/><path d="M190.2656,560.875 Q190.4219,560.6563 190.6094,560.5469 Q190.7969,560.4375 191.0156,560.4375 Q191.3906,560.4375 191.625,560.6953 Q191.8594,560.9531 191.8594,561.5625 L191.8594,563.0156 Q191.8594,563.625 191.625,563.8906 Q191.3906,564.1563 191.0156,564.1563 Q190.6719,564.1563 190.4688,563.9531 Q190.2656,563.7656 190.1563,563.25 Q190.1094,562.8906 189.9219,562.7031 Q189.5938,562.3281 188.9844,562.1094 Q188.375,561.8906 187.75,561.8906 Q186.9844,561.8906 186.3516,562.2188 Q185.7188,562.5469 185.2266,563.2969 Q184.7344,564.0469 184.7344,565.0781 L184.7344,566.1719 Q184.7344,567.4063 185.625,568.2266 Q186.5156,569.0469 188.1094,569.0469 Q189.0469,569.0469 189.7031,568.7969 Q190.0938,568.6406 190.5156,568.2031 Q190.7813,567.9375 190.9297,567.8594 Q191.0781,567.7813 191.2813,567.7813 Q191.6094,567.7813 191.8672,568.0391 Q192.125,568.2969 192.125,568.6406 Q192.125,568.9844 191.7813,569.3906 Q191.2813,569.9688 190.4844,570.2969 Q189.4063,570.75 188.1094,570.75 Q186.5938,570.75 185.3906,570.125 Q184.4063,569.625 183.7188,568.5547 Q183.0313,567.4844 183.0313,566.2031 L183.0313,565.0469 Q183.0313,563.7188 183.6484,562.5703 Q184.2656,561.4219 185.3594,560.8047 Q186.4531,560.1875 187.6875,560.1875 Q188.4219,560.1875 189.0703,560.3516 Q189.7188,560.5156 190.2656,560.875 Z " fill="#000000"/><text fill="#000000" font-family="sans-serif" font-size="14" lengthAdjust="spacing" textLength="45" x="201.5" y="570.7285">Branch</text><line style="stroke:#181818;stroke-width:0.5;" x1="173.5" x2="248.5" y1="581" y2="581"/><line style="stroke:#181818;stroke-width:0.5;" x1="173.5" x2="248.5" y1="589" y2="589"/></g><!--MD5=[7421f545a0d8420c5bec41e74b387d9c]
class Employee--><g id="elem_Employee"><rect codeLine="7" fill="#F1F1F1" height="48" id="Employee" rx="2.5" ry="2.5" style="stroke:#181818;stroke-width:0.5;" width="94" x="356" y="549"/><ellipse cx="371" cy="565" fill="#ADD1B2" rx="11" ry="11" style="stroke:#181818;stroke-width:1.0;"/><path d="M373.7656,560.875 Q373.9219,560.6563 374.1094,560.5469 Q374.2969,560.4375 374.5156,560.4375 Q374.8906,560.4375 375.125,560.6953 Q375.3594,560.9531 375.3594,561.5625 L375.3594,563.0156 Q375.3594,563.625 375.125,563.8906 Q374.8906,564.1563 374.5156,564.1563 Q374.1719,564.1563 373.9688,563.9531 Q373.7656,563.7656 373.6563,563.25 Q373.6094,562.8906 373.4219,562.7031 Q373.0938,562.3281 372.4844,562.1094 Q371.875,561.8906 371.25,561.8906 Q370.4844,561.8906 369.8516,562.2188 Q369.2188,562.5469 368.7266,563.2969 Q368.2344,564.0469 368.2344,565.0781 L368.2344,566.1719 Q368.2344,567.4063 369.125,568.2266 Q370.0156,569.0469 371.6094,569.0469 Q372.5469,569.0469 373.2031,568.7969 Q373.5938,568.6406 374.0156,568.2031 Q374.2813,567.9375 374.4297,567.8594 Q374.5781,567.7813 374.7813,567.7813 Q375.1094,567.7813 375.3672,568.0391 Q375.625,568.2969 375.625,568.6406 Q375.625,568.9844 375.2813,569.3906 Q374.7813,569.9688 373.9844,570.2969 Q372.9063,570.75 371.6094,570.75 Q370.0938,570.75 368.8906,570.125 Q367.9063,569.625 367.2188,568.5547 Q366.5313,567.4844 366.5313,566.2031 L366.5313,565.0469 Q366.5313,563.7188 367.1484,562.5703 Q367.7656,561.4219 368.8594,560.8047 Q369.9531,560.1875 371.1875,560.1875 Q371.9219,560.1875 372.5703,560.3516 Q373.2188,560.5156 373.7656,560.875 Z " fill="#000000"/><text fill="#000000" font-family="sans-serif" font-size="14" lengthAdjust="spacing" textLength="62" x="385" y="570.7285">Employee</text><line style="stroke:#181818;stroke-width:0.5;" x1="357" x2="449" y1="581" y2="581"/><line style="stroke:#181818;stroke-width:0.5;" x1="357" x2="449" y1="589" y2="589"/></g><!--MD5=[bb086348203df7a999b66982746057b3]
class ListAllEmployeesUI--><g id="elem_ListAllEmployeesUI"><rect codeLine="12" fill="#F1F1F1" height="48" id="ListAllEmployeesUI" rx="2.5" ry="2.5" style="stroke:#181818;stroke-width:0.5;" width="150" x="158" y="7"/><ellipse cx="173" cy="23" fill="#ADD1B2" rx="11" ry="11" style="stroke:#181818;stroke-width:1.0;"/><path d="M175.7656,18.875 Q175.9219,18.6563 176.1094,18.5469 Q176.2969,18.4375 176.5156,18.4375 Q176.8906,18.4375 177.125,18.6953 Q177.3594,18.9531 177.3594,19.5625 L177.3594,21.0156 Q177.3594,21.625 177.125,21.8906 Q176.8906,22.1563 176.5156,22.1563 Q176.1719,22.1563 175.9688,21.9531 Q175.7656,21.7656 175.6563,21.25 Q175.6094,20.8906 175.4219,20.7031 Q175.0938,20.3281 174.4844,20.1094 Q173.875,19.8906 173.25,19.8906 Q172.4844,19.8906 171.8516,20.2188 Q171.2188,20.5469 170.7266,21.2969 Q170.2344,22.0469 170.2344,23.0781 L170.2344,24.1719 Q170.2344,25.4063 171.125,26.2266 Q172.0156,27.0469 173.6094,27.0469 Q174.5469,27.0469 175.2031,26.7969 Q175.5938,26.6406 176.0156,26.2031 Q176.2813,25.9375 176.4297,25.8594 Q176.5781,25.7813 176.7813,25.7813 Q177.1094,25.7813 177.3672,26.0391 Q177.625,26.2969 177.625,26.6406 Q177.625,26.9844 177.2813,27.3906 Q176.7813,27.9688 175.9844,28.2969 Q174.9063,28.75 173.6094,28.75 Q172.0938,28.75 170.8906,28.125 Q169.9063,27.625 169.2188,26.5547 Q168.5313,25.4844 168.5313,24.2031 L168.5313,23.0469 Q168.5313,21.7188 169.1484,20.5703 Q169.7656,19.4219 170.8594,18.8047 Q171.9531,18.1875 173.1875,18.1875 Q173.9219,18.1875 174.5703,18.3516 Q175.2188,18.5156 175.7656,18.875 Z " fill="#000000"/><text fill="#000000" font-family="sans-serif" font-size="14" lengthAdjust="spacing" textLength="118" x="187" y="28.7285">ListAllEmployeesUI</text><line style="stroke:#181818;stroke-width:0.5;" x1="159" x2="307" y1="39" y2="39"/><line style="stroke:#181818;stroke-width:0.5;" x1="159" x2="307" y1="47" y2="47"/></g><!--MD5=[7d449ab8b6a2896fd89be5b4e3c4caaf]
class ListAllEmployeesController--><g id="elem_ListAllEmployeesController"><rect codeLine="18" fill="#F1F1F1" height="48" id="ListAllEmployeesController" rx="2.5" ry="2.5" style="stroke:#181818;stroke-width:0.5;" width="200" x="133" y="116"/><ellipse cx="148" cy="132" fill="#ADD1B2" rx="11" ry="11" style="stroke:#181818;stroke-width:1.0;"/><path d="M150.7656,127.875 Q150.9219,127.6563 151.1094,127.5469 Q151.2969,127.4375 151.5156,127.4375 Q151.8906,127.4375 152.125,127.6953 Q152.3594,127.9531 152.3594,128.5625 L152.3594,130.0156 Q152.3594,130.625 152.125,130.8906 Q151.8906,131.1563 151.5156,131.1563 Q151.1719,131.1563 150.9688,130.9531 Q150.7656,130.7656 150.6563,130.25 Q150.6094,129.8906 150.4219,129.7031 Q150.0938,129.3281 149.4844,129.1094 Q148.875,128.8906 148.25,128.8906 Q147.4844,128.8906 146.8516,129.2188 Q146.2188,129.5469 145.7266,130.2969 Q145.2344,131.0469 145.2344,132.0781 L145.2344,133.1719 Q145.2344,134.4063 146.125,135.2266 Q147.0156,136.0469 148.6094,136.0469 Q149.5469,136.0469 150.2031,135.7969 Q150.5938,135.6406 151.0156,135.2031 Q151.2813,134.9375 151.4297,134.8594 Q151.5781,134.7813 151.7813,134.7813 Q152.1094,134.7813 152.3672,135.0391 Q152.625,135.2969 152.625,135.6406 Q152.625,135.9844 152.2813,136.3906 Q151.7813,136.9688 150.9844,137.2969 Q149.9063,137.75 148.6094,137.75 Q147.0938,137.75 145.8906,137.125 Q144.9063,136.625 144.2188,135.5547 Q143.5313,134.4844 143.5313,133.2031 L143.5313,132.0469 Q143.5313,130.7188 144.1484,129.5703 Q144.7656,128.4219 145.8594,127.8047 Q146.9531,127.1875 148.1875,127.1875 Q148.9219,127.1875 149.5703,127.3516 Q150.2188,127.5156 150.7656,127.875 Z " fill="#000000"/><text fill="#000000" font-family="sans-serif" font-size="14" lengthAdjust="spacing" textLength="168" x="162" y="137.7285">ListAllEmployeesController</text><line style="stroke:#181818;stroke-width:0.5;" x1="134" x2="332" y1="148" y2="148"/><line style="stroke:#181818;stroke-width:0.5;" x1="134" x2="332" y1="156" y2="156"/></g><!--MD5=[d7cd06450716df339ae06bc8cd34d632]
class BranchRepository--><g id="elem_BranchRepository"><rect codeLine="23" fill="#F1F1F1" height="100.8281" id="BranchRepository" rx="2.5" ry="2.5" style="stroke:#181818;stroke-width:0.5;" width="244" x="7" y="387"/><ellipse cx="68.25" cy="403" fill="#ADD1B2" rx="11" ry="11" style="stroke:#181818;stroke-width:1.0;"/><path d="M71.0156,398.875 Q71.1719,398.6563 71.3594,398.5469 Q71.5469,398.4375 71.7656,398.4375 Q72.1406,398.4375 72.375,398.6953 Q72.6094,398.9531 72.6094,399.5625 L72.6094,401.0156 Q72.6094,401.625 72.375,401.8906 Q72.1406,402.1563 71.7656,402.1563 Q71.4219,402.1563 71.2188,401.9531 Q71.0156,401.7656 70.9063,401.25 Q70.8594,400.8906 70.6719,400.7031 Q70.3438,400.3281 69.7344,400.1094 Q69.125,399.8906 68.5,399.8906 Q67.7344,399.8906 67.1016,400.2188 Q66.4688,400.5469 65.9766,401.2969 Q65.4844,402.0469 65.4844,403.0781 L65.4844,404.1719 Q65.4844,405.4063 66.375,406.2266 Q67.2656,407.0469 68.8594,407.0469 Q69.7969,407.0469 70.4531,406.7969 Q70.8438,406.6406 71.2656,406.2031 Q71.5313,405.9375 71.6797,405.8594 Q71.8281,405.7813 72.0313,405.7813 Q72.3594,405.7813 72.6172,406.0391 Q72.875,406.2969 72.875,406.6406 Q72.875,406.9844 72.5313,407.3906 Q72.0313,407.9688 71.2344,408.2969 Q70.1563,408.75 68.8594,408.75 Q67.3438,408.75 66.1406,408.125 Q65.1563,407.625 64.4688,406.5547 Q63.7813,405.4844 63.7813,404.2031 L63.7813,403.0469 Q63.7813,401.7188 64.3984,400.5703 Q65.0156,399.4219 66.1094,398.8047 Q67.2031,398.1875 68.4375,398.1875 Q69.1719,398.1875 69.8203,398.3516 Q70.4688,398.5156 71.0156,398.875 Z " fill="#000000"/><text fill="#000000" font-family="sans-serif" font-size="14" lengthAdjust="spacing" textLength="113" x="88.75" y="408.7285">BranchRepository</text><line style="stroke:#181818;stroke-width:0.5;" x1="8" x2="250" y1="419" y2="419"/><line style="stroke:#181818;stroke-width:0.5;" x1="8" x2="250" y1="427" y2="427"/><ellipse cx="18" cy="441.3047" fill="#84BE84" rx="3" ry="3" style="stroke:#038048;stroke-width:1.0;"/><text fill="#000000" font-family="sans-serif" font-size="14" lengthAdjust="spacing" textLength="105" x="27" y="445.5332">getAllBranches()</text><ellipse cx="18" cy="458.9141" fill="#84BE84" rx="3" ry="3" style="stroke:#038048;stroke-width:1.0;"/><text fill="#000000" font-family="sans-serif" font-size="14" lengthAdjust="spacing" textLength="218" x="27" y="463.1426">sortBranchesByListings(Branches)</text><ellipse cx="18" cy="476.5234" fill="#84BE84" rx="3" ry="3" style="stroke:#038048;stroke-width:1.0;"/><text fill="#000000" font-family="sans-serif" font-size="14" lengthAdjust="spacing" textLength="177" x="27" y="480.752">getListingTotalByBranch(ID)</text></g><!--MD5=[115c5bc9211d8cbe43c7d19dc50c6850]
class EmployeeRepository--><g id="elem_EmployeeRepository"><rect codeLine="31" fill="#F1F1F1" height="83.2188" id="EmployeeRepository" rx="2.5" ry="2.5" style="stroke:#181818;stroke-width:0.5;" width="261" x="286.5" y="396"/><ellipse cx="347.75" cy="412" fill="#ADD1B2" rx="11" ry="11" style="stroke:#181818;stroke-width:1.0;"/><path d="M350.5156,407.875 Q350.6719,407.6563 350.8594,407.5469 Q351.0469,407.4375 351.2656,407.4375 Q351.6406,407.4375 351.875,407.6953 Q352.1094,407.9531 352.1094,408.5625 L352.1094,410.0156 Q352.1094,410.625 351.875,410.8906 Q351.6406,411.1563 351.2656,411.1563 Q350.9219,411.1563 350.7188,410.9531 Q350.5156,410.7656 350.4063,410.25 Q350.3594,409.8906 350.1719,409.7031 Q349.8438,409.3281 349.2344,409.1094 Q348.625,408.8906 348,408.8906 Q347.2344,408.8906 346.6016,409.2188 Q345.9688,409.5469 345.4766,410.2969 Q344.9844,411.0469 344.9844,412.0781 L344.9844,413.1719 Q344.9844,414.4063 345.875,415.2266 Q346.7656,416.0469 348.3594,416.0469 Q349.2969,416.0469 349.9531,415.7969 Q350.3438,415.6406 350.7656,415.2031 Q351.0313,414.9375 351.1797,414.8594 Q351.3281,414.7813 351.5313,414.7813 Q351.8594,414.7813 352.1172,415.0391 Q352.375,415.2969 352.375,415.6406 Q352.375,415.9844 352.0313,416.3906 Q351.5313,416.9688 350.7344,417.2969 Q349.6563,417.75 348.3594,417.75 Q346.8438,417.75 345.6406,417.125 Q344.6563,416.625 343.9688,415.5547 Q343.2813,414.4844 343.2813,413.2031 L343.2813,412.0469 Q343.2813,410.7188 343.8984,409.5703 Q344.5156,408.4219 345.6094,407.8047 Q346.7031,407.1875 347.9375,407.1875 Q348.6719,407.1875 349.3203,407.3516 Q349.9688,407.5156 350.5156,407.875 Z " fill="#000000"/><text fill="#000000" font-family="sans-serif" font-size="14" lengthAdjust="spacing" textLength="130" x="368.25" y="417.7285">EmployeeRepository</text><line style="stroke:#181818;stroke-width:0.5;" x1="287.5" x2="546.5" y1="428" y2="428"/><line style="stroke:#181818;stroke-width:0.5;" x1="287.5" x2="546.5" y1="436" y2="436"/><ellipse cx="297.5" cy="450.3047" fill="#84BE84" rx="3" ry="3" style="stroke:#038048;stroke-width:1.0;"/><text fill="#000000" font-family="sans-serif" font-size="14" lengthAdjust="spacing" textLength="186" x="306.5" y="454.5332">getEmployeesByBranchID(ID)</text><ellipse cx="297.5" cy="467.9141" fill="#84BE84" rx="3" ry="3" style="stroke:#038048;stroke-width:1.0;"/><text fill="#000000" font-family="sans-serif" font-size="14" lengthAdjust="spacing" textLength="235" x="306.5" y="472.1426">sortEmployeesAlphabetically(Branch)</text></g><!--MD5=[35ae6afabc28cfceb76ccc01ee55d1fe]
class Repositories--><g id="elem_Repositories"><rect codeLine="39" fill="#F1F1F1" height="100.8281" id="Repositories" rx="2.5" ry="2.5" style="stroke:#181818;stroke-width:0.5;" width="186" x="140" y="225"/><ellipse cx="189.25" cy="241" fill="#ADD1B2" rx="11" ry="11" style="stroke:#181818;stroke-width:1.0;"/><path d="M192.0156,236.875 Q192.1719,236.6563 192.3594,236.5469 Q192.5469,236.4375 192.7656,236.4375 Q193.1406,236.4375 193.375,236.6953 Q193.6094,236.9531 193.6094,237.5625 L193.6094,239.0156 Q193.6094,239.625 193.375,239.8906 Q193.1406,240.1563 192.7656,240.1563 Q192.4219,240.1563 192.2188,239.9531 Q192.0156,239.7656 191.9063,239.25 Q191.8594,238.8906 191.6719,238.7031 Q191.3438,238.3281 190.7344,238.1094 Q190.125,237.8906 189.5,237.8906 Q188.7344,237.8906 188.1016,238.2188 Q187.4688,238.5469 186.9766,239.2969 Q186.4844,240.0469 186.4844,241.0781 L186.4844,242.1719 Q186.4844,243.4063 187.375,244.2266 Q188.2656,245.0469 189.8594,245.0469 Q190.7969,245.0469 191.4531,244.7969 Q191.8438,244.6406 192.2656,244.2031 Q192.5313,243.9375 192.6797,243.8594 Q192.8281,243.7813 193.0313,243.7813 Q193.3594,243.7813 193.6172,244.0391 Q193.875,244.2969 193.875,244.6406 Q193.875,244.9844 193.5313,245.3906 Q193.0313,245.9688 192.2344,246.2969 Q191.1563,246.75 189.8594,246.75 Q188.3438,246.75 187.1406,246.125 Q186.1563,245.625 185.4688,244.5547 Q184.7813,243.4844 184.7813,242.2031 L184.7813,241.0469 Q184.7813,239.7188 185.3984,238.5703 Q186.0156,237.4219 187.1094,236.8047 Q188.2031,236.1875 189.4375,236.1875 Q190.1719,236.1875 190.8203,236.3516 Q191.4688,236.5156 192.0156,236.875 Z " fill="#000000"/><text fill="#000000" font-family="sans-serif" font-size="14" lengthAdjust="spacing" textLength="79" x="209.75" y="246.7285">Repositories</text><line style="stroke:#181818;stroke-width:0.5;" x1="141" x2="325" y1="257" y2="257"/><line style="stroke:#181818;stroke-width:0.5;" x1="141" x2="325" y1="265" y2="265"/><ellipse cx="151" cy="279.3047" fill="#84BE84" rx="3" ry="3" style="stroke:#038048;stroke-width:1.0;"/><text fill="#000000" font-family="sans-serif" font-size="14" lengthAdjust="spacing" textLength="83" x="160" y="283.5332">getInstance()</text><ellipse cx="151" cy="296.9141" fill="#84BE84" rx="3" ry="3" style="stroke:#038048;stroke-width:1.0;"/><text fill="#000000" font-family="sans-serif" font-size="14" lengthAdjust="spacing" textLength="160" x="160" y="301.1426">getEmployeeRepository()</text><ellipse cx="151" cy="314.5234" fill="#84BE84" rx="3" ry="3" style="stroke:#038048;stroke-width:1.0;"/><text fill="#000000" font-family="sans-serif" font-size="14" lengthAdjust="spacing" textLength="143" x="160" y="318.752">getBranchRepository()</text></g><!--MD5=[7588bbb3cde5cc7621dae79bc0457063]
link ListAllEmployeesUI to ListAllEmployeesController--><g id="link_ListAllEmployeesUI_ListAllEmployeesController"><path codeLine="48" d="M233,55.22 C233,71.48 233,93.32 233,110.62 " fill="none" id="ListAllEmployeesUI-to-ListAllEmployeesController" style="stroke:#181818;stroke-width:1.0;stroke-dasharray:7.0,7.0;"/><polygon fill="#181818" points="233,115.83,237,106.83,233,110.83,229,106.83,233,115.83" style="stroke:#181818;stroke-width:1.0;"/></g><!--MD5=[4c99a07cf4893793aa828e52ba8793db]
link ListAllEmployeesController to Repositories--><g id="link_ListAllEmployeesController_Repositories"><path codeLine="49" d="M233,164.25 C233,179.55 233,200.24 233,219.57 " fill="none" id="ListAllEmployeesController-to-Repositories" style="stroke:#181818;stroke-width:1.0;stroke-dasharray:7.0,7.0;"/><polygon fill="#181818" points="233,224.98,237,215.98,233,219.98,229,215.98,233,224.98" style="stroke:#181818;stroke-width:1.0;"/></g><!--MD5=[570d30551b032a4ed7c443b40510d79f]
link ListAllEmployeesController to BranchRepository--><g id="link_ListAllEmployeesController_BranchRepository"><path codeLine="50" d="M184.68,164.08 C161.17,178.12 135.18,198.49 122,225 C97.74,273.78 103.93,337.01 113.44,381.59 " fill="none" id="ListAllEmployeesController-to-BranchRepository" style="stroke:#181818;stroke-width:1.0;stroke-dasharray:7.0,7.0;"/><polygon fill="#181818" points="114.55,386.65,116.5293,377.0021,113.479,381.7661,108.715,378.7157,114.55,386.65" style="stroke:#181818;stroke-width:1.0;"/></g><!--MD5=[c63b23d1f273b04bf6452b13b7400904]
link ListAllEmployeesController to EmployeeRepository--><g id="link_ListAllEmployeesController_EmployeeRepository"><path codeLine="51" d="M333.26,161.61 C367.67,174 402.63,193.72 423,225 C455.2,274.45 444.63,345.12 432.28,390.91 " fill="none" id="ListAllEmployeesController-to-EmployeeRepository" style="stroke:#181818;stroke-width:1.0;stroke-dasharray:7.0,7.0;"/><polygon fill="#181818" points="430.93,395.82,437.1801,388.2084,432.2601,391.0002,429.4683,386.0802,430.93,395.82" style="stroke:#181818;stroke-width:1.0;"/></g><!--MD5=[fff48e9c385a875a0ec7f6b68c295159]
link Repositories to Repositories--><g id="link_Repositories_Repositories"><path codeLine="54" d="M326.2,260.94 C346.37,262.37 361,267.22 361,275.5 C361,283.07 348.78,287.77 331.27,289.61 " fill="none" id="Repositories-to-Repositories" style="stroke:#181818;stroke-width:1.0;"/><polygon fill="#181818" points="326.2,290.06,335.5186,293.248,331.1804,289.6176,334.8108,285.2794,326.2,290.06" style="stroke:#181818;stroke-width:1.0;"/><text fill="#000000" font-family="sans-serif" font-size="13" lengthAdjust="spacing" textLength="49" x="367" y="280.9951">Instance</text></g><!--MD5=[8d24fe9c69bd7963426d4c642c9bd288]
link Repositories to EmployeeRepository--><g id="link_Repositories_EmployeeRepository"><path codeLine="55" d="M289.96,326.03 C314.3,347.2 342.5,371.71 366.13,392.27 " fill="none" id="Repositories-to-EmployeeRepository" style="stroke:#181818;stroke-width:1.0;"/><polygon fill="#181818" points="370.18,395.79,366.0216,386.8621,366.41,392.5056,360.7665,392.894,370.18,395.79" style="stroke:#181818;stroke-width:1.0;"/><text fill="#000000" font-family="sans-serif" font-size="13" lengthAdjust="spacing" textLength="7" x="354.8458" y="385.0629">1</text></g><!--MD5=[a7eb298d0081e33b48b65eae60dc9493]
link Repositories to BranchRepository--><g id="link_Repositories_BranchRepository"><path codeLine="56" d="M200.66,326.25 C189.12,344.01 176.06,364.1 164.28,382.22 " fill="none" id="Repositories-to-BranchRepository" style="stroke:#181818;stroke-width:1.0;"/><polygon fill="#181818" points="161.32,386.78,169.5645,381.3922,164.0339,382.5806,162.8455,377.05,161.32,386.78" style="stroke:#181818;stroke-width:1.0;"/><text fill="#000000" font-family="sans-serif" font-size="13" lengthAdjust="spacing" textLength="7" x="158.3728" y="376.0544">1</text></g><!--MD5=[a6a58f0aa51126e5edbb6a9af8bb9eb6]
link BranchRepository to Branch--><g id="link_BranchRepository_Branch"><path codeLine="61" d="M159.53,488.21 C171.19,507.18 184.05,528.13 194,544.33 " fill="none" id="BranchRepository-to-Branch" style="stroke:#181818;stroke-width:1.0;"/><polygon fill="#181818" points="196.73,548.77,195.4289,539.0075,194.1135,544.5093,188.6117,543.1939,196.73,548.77" style="stroke:#181818;stroke-width:1.0;"/><text fill="#000000" font-family="sans-serif" font-size="13" lengthAdjust="spacing" textLength="5" x="187.4327" y="538.0512">*</text></g><!--MD5=[0e552dc1d2e8925ba0d9f15969827feb]
link EmployeeRepository to Employee--><g id="link_EmployeeRepository_Employee"><path codeLine="62" d="M412.72,479.28 C410.53,500.17 407.92,525.07 405.96,543.81 " fill="none" id="EmployeeRepository-to-Employee" style="stroke:#181818;stroke-width:1.0;"/><polygon fill="#181818" points="405.42,548.92,410.3249,540.3794,405.9345,543.9465,402.3673,539.5562,405.42,548.92" style="stroke:#181818;stroke-width:1.0;"/><text fill="#000000" font-family="sans-serif" font-size="13" lengthAdjust="spacing" textLength="5" x="400.3995" y="538.2397">*</text></g><!--MD5=[4aadc2bdd2b25bc802a693fd30104ac2]
link Branch to Employee--><g id="link_Branch_Employee"><path codeLine="64" d="M249.85,573 C278.87,573 318.85,573 350.68,573 " fill="none" id="Branch-to-Employee" style="stroke:#181818;stroke-width:1.0;"/><polygon fill="#181818" points="355.71,573,346.71,569,350.71,573,346.71,577,355.71,573" style="stroke:#181818;stroke-width:1.0;"/><text fill="#000000" font-family="sans-serif" font-size="13" lengthAdjust="spacing" textLength="56" x="274.75" y="566.4951">employes</text><text fill="#000000" font-family="sans-serif" font-size="13" lengthAdjust="spacing" textLength="7" x="257.3936" y="569.1014">1</text><text fill="#000000" font-family="sans-serif" font-size="13" lengthAdjust="spacing" textLength="5" x="343.0859" y="569.297">*</text></g><!--MD5=[b050ba368894050529fc050ef19690f0]
@startuml

class Branch {

   
}

class Employee {


}

class ListAllEmployeesUI {

    

}

class ListAllEmployeesController {

  
}

class BranchRepository {

    +getAllBranches()
    +sortBranchesByListings(Branches)
    +getListingTotalByBranch(ID)
    
}

class EmployeeRepository {

    +getEmployeesByBranchID(ID)
    +sortEmployeesAlphabetically(Branch)

}


class Repositories {

    +getInstance()
    +getEmployeeRepository()
    +getBranchRepository()

}


ListAllEmployeesUI -[dashed]-> ListAllEmployeesController
ListAllEmployeesController-[dashed]-> Repositories
ListAllEmployeesController-[dashed]-> BranchRepository
ListAllEmployeesController-[dashed]-> EmployeeRepository


Repositories -> Repositories : Instance
Repositories - -> "1" EmployeeRepository
Repositories - -> "1" BranchRepository




BranchRepository -down-> "*" Branch
EmployeeRepository -down-> "*" Employee

Branch "1" -right-> "*" Employee : employes


@enduml

PlantUML version 1.2022.7(Mon Aug 22 18:01:30 BST 2022)
(GPL source distribution)
Java Runtime: Java(TM) SE Runtime Environment
JVM: Java HotSpot(TM) 64-Bit Server VM
Default Encoding: Cp1252
Language: pt
Country: PT
--></g></svg>