<?xml version="1.0" encoding="UTF-8" standalone="no"?><svg xmlns="http://www.w3.org/2000/svg" xmlns:xlink="http://www.w3.org/1999/xlink" contentStyleType="text/css" height="740px" preserveAspectRatio="none" style="width:1375px;height:740px;background:#FFFFFF;" version="1.1" viewBox="0 0 1375 740" width="1375px" zoomAndPan="magnify"><defs/><g><rect fill="#FFFFFF" height="557.2344" style="stroke:#181818;stroke-width:1.0;" width="10" x="58" y="92.6094"/><rect fill="#FFFFFF" height="534.8828" style="stroke:#181818;stroke-width:1.0;" width="10" x="289" y="114.9609"/><rect fill="#FFFFFF" height="494.5313" style="stroke:#181818;stroke-width:1.0;" width="10" x="460" y="155.3125"/><rect fill="#FFFFFF" height="30.3516" style="stroke:#181818;stroke-width:1.0;" width="10" x="611.5" y="187.9219"/><rect fill="#FFFFFF" height="30.3516" style="stroke:#181818;stroke-width:1.0;" width="10" x="718.5" y="248.625"/><rect fill="#FFFFFF" height="30.3516" style="stroke:#181818;stroke-width:1.0;" width="10" x="718.5" y="309.3281"/><rect fill="#FFFFFF" height="73.7031" style="stroke:#181818;stroke-width:1.0;" width="10" x="851" y="499.4375"/><rect fill="#FFFFFF" height="73.7031" style="stroke:#181818;stroke-width:1.0;" width="10" x="1132" y="370.0313"/><rect fill="none" height="122.4063" style="stroke:#000000;stroke-width:1.5;" width="775" x="362" y="458.7344"/><line style="stroke:#181818;stroke-width:0.5;stroke-dasharray:5.0,5.0;" x1="63" x2="63" y1="82.6094" y2="658.8438"/><line style="stroke:#181818;stroke-width:0.5;stroke-dasharray:5.0,5.0;" x1="294" x2="294" y1="82.6094" y2="658.8438"/><line style="stroke:#181818;stroke-width:0.5;stroke-dasharray:5.0,5.0;" x1="465" x2="465" y1="154.2656" y2="658.8438"/><line style="stroke:#181818;stroke-width:0.5;stroke-dasharray:5.0,5.0;" x1="616" x2="616" y1="82.6094" y2="658.8438"/><line style="stroke:#181818;stroke-width:0.5;stroke-dasharray:5.0,5.0;" x1="723" x2="723" y1="82.6094" y2="658.8438"/><line style="stroke:#181818;stroke-width:0.5;stroke-dasharray:5.0,5.0;" x1="856" x2="856" y1="82.6094" y2="658.8438"/><line style="stroke:#181818;stroke-width:0.5;stroke-dasharray:5.0,5.0;" x1="1136.5" x2="1136.5" y1="82.6094" y2="658.8438"/><text fill="#000000" font-family="sans-serif" font-size="14" lengthAdjust="spacing" textLength="110" x="5" y="79.5332">Network Manager</text><ellipse cx="63" cy="13.5" fill="#E3E3E3" rx="8" ry="8" style="stroke:#181818;stroke-width:0.5;"/><path d="M63,21.5 L63,48.5 M50,29.5 L76,29.5 M63,48.5 L50,63.5 M63,48.5 L76,63.5 " fill="none" style="stroke:#181818;stroke-width:0.5;"/><text fill="#000000" font-family="sans-serif" font-size="14" lengthAdjust="spacing" textLength="110" x="5" y="672.377">Network Manager</text><ellipse cx="63" cy="683.9531" fill="#E3E3E3" rx="8" ry="8" style="stroke:#181818;stroke-width:0.5;"/><path d="M63,691.9531 L63,718.9531 M50,699.9531 L76,699.9531 M63,718.9531 L50,733.9531 M63,718.9531 L76,733.9531 " fill="none" style="stroke:#181818;stroke-width:0.5;"/><rect fill="#E3E3E3" height="31.6094" rx="2.5" ry="2.5" style="stroke:#181818;stroke-width:0.5;" width="136" x="226" y="50"/><text fill="#000000" font-family="sans-serif" font-size="14" lengthAdjust="spacing" textLength="122" x="233" y="71.5332">:ListAllEmployeesUI</text><rect fill="#E3E3E3" height="31.6094" rx="2.5" ry="2.5" style="stroke:#181818;stroke-width:0.5;" width="136" x="226" y="657.8438"/><text fill="#000000" font-family="sans-serif" font-size="14" lengthAdjust="spacing" textLength="122" x="233" y="679.377">:ListAllEmployeesUI</text><rect fill="#E3E3E3" height="31.6094" rx="2.5" ry="2.5" style="stroke:#181818;stroke-width:0.5;" width="186" x="372" y="657.8438"/><text fill="#000000" font-family="sans-serif" font-size="14" lengthAdjust="spacing" textLength="172" x="379" y="679.377">:ListAllEmployeesController</text><rect fill="#E3E3E3" height="31.6094" rx="2.5" ry="2.5" style="stroke:#181818;stroke-width:0.5;" width="97" x="568" y="50"/><text fill="#000000" font-family="sans-serif" font-size="14" lengthAdjust="spacing" textLength="83" x="575" y="71.5332">:Repositories</text><rect fill="#E3E3E3" height="31.6094" rx="2.5" ry="2.5" style="stroke:#181818;stroke-width:0.5;" width="97" x="568" y="657.8438"/><text fill="#000000" font-family="sans-serif" font-size="14" lengthAdjust="spacing" textLength="83" x="575" y="679.377">:Repositories</text><rect fill="#E3E3E3" height="49.2188" rx="2.5" ry="2.5" style="stroke:#181818;stroke-width:0.5;" width="97" x="675" y="32.3906"/><text fill="#000000" font-family="sans-serif" font-size="14" lengthAdjust="spacing" textLength="74" x="686.5" y="53.9238">repositories</text><text fill="#000000" font-family="sans-serif" font-size="14" lengthAdjust="spacing" textLength="83" x="682" y="71.5332">:Repositories</text><rect fill="#E3E3E3" height="49.2188" rx="2.5" ry="2.5" style="stroke:#181818;stroke-width:0.5;" width="97" x="675" y="657.8438"/><text fill="#000000" font-family="sans-serif" font-size="14" lengthAdjust="spacing" textLength="74" x="686.5" y="679.377">repositories</text><text fill="#000000" font-family="sans-serif" font-size="14" lengthAdjust="spacing" textLength="83" x="682" y="696.9863">:Repositories</text><rect fill="#E3E3E3" height="49.2188" rx="2.5" ry="2.5" style="stroke:#181818;stroke-width:0.5;" width="148" x="782" y="32.3906"/><text fill="#000000" font-family="sans-serif" font-size="14" lengthAdjust="spacing" textLength="129" x="791.5" y="53.9238">employeeRepository</text><text fill="#000000" font-family="sans-serif" font-size="14" lengthAdjust="spacing" textLength="134" x="789" y="71.5332">:EmployeeRepository</text><rect fill="#E3E3E3" height="49.2188" rx="2.5" ry="2.5" style="stroke:#181818;stroke-width:0.5;" width="148" x="782" y="657.8438"/><text fill="#000000" font-family="sans-serif" font-size="14" lengthAdjust="spacing" textLength="129" x="791.5" y="679.377">employeeRepository</text><text fill="#000000" font-family="sans-serif" font-size="14" lengthAdjust="spacing" textLength="134" x="789" y="696.9863">:EmployeeRepository</text><rect fill="#E3E3E3" height="49.2188" rx="2.5" ry="2.5" style="stroke:#181818;stroke-width:0.5;" width="131" x="1071.5" y="32.3906"/><text fill="#000000" font-family="sans-serif" font-size="14" lengthAdjust="spacing" textLength="112" x="1081" y="53.9238">branchRepository</text><text fill="#000000" font-family="sans-serif" font-size="14" lengthAdjust="spacing" textLength="117" x="1078.5" y="71.5332">:BranchRepository</text><rect fill="#E3E3E3" height="49.2188" rx="2.5" ry="2.5" style="stroke:#181818;stroke-width:0.5;" width="131" x="1071.5" y="657.8438"/><text fill="#000000" font-family="sans-serif" font-size="14" lengthAdjust="spacing" textLength="112" x="1081" y="679.377">branchRepository</text><text fill="#000000" font-family="sans-serif" font-size="14" lengthAdjust="spacing" textLength="117" x="1078.5" y="696.9863">:BranchRepository</text><rect fill="#FFFFFF" height="557.2344" style="stroke:#181818;stroke-width:1.0;" width="10" x="58" y="92.6094"/><rect fill="#FFFFFF" height="534.8828" style="stroke:#181818;stroke-width:1.0;" width="10" x="289" y="114.9609"/><rect fill="#FFFFFF" height="494.5313" style="stroke:#181818;stroke-width:1.0;" width="10" x="460" y="155.3125"/><rect fill="#FFFFFF" height="30.3516" style="stroke:#181818;stroke-width:1.0;" width="10" x="611.5" y="187.9219"/><rect fill="#FFFFFF" height="30.3516" style="stroke:#181818;stroke-width:1.0;" width="10" x="718.5" y="248.625"/><rect fill="#FFFFFF" height="30.3516" style="stroke:#181818;stroke-width:1.0;" width="10" x="718.5" y="309.3281"/><rect fill="#FFFFFF" height="73.7031" style="stroke:#181818;stroke-width:1.0;" width="10" x="851" y="499.4375"/><rect fill="#FFFFFF" height="73.7031" style="stroke:#181818;stroke-width:1.0;" width="10" x="1132" y="370.0313"/><polygon fill="#181818" points="277,110.9609,287,114.9609,277,118.9609,281,114.9609" style="stroke:#181818;stroke-width:1.0;"/><line style="stroke:#181818;stroke-width:1.0;" x1="68" x2="283" y1="114.9609" y2="114.9609"/><text fill="#000000" font-family="sans-serif" font-size="13" font-weight="bold" lengthAdjust="spacing" textLength="7" x="75" y="110.1045">1</text><text fill="#000000" font-family="sans-serif" font-size="13" lengthAdjust="spacing" textLength="170" x="86" y="110.1045">requests to list all employees</text><polygon fill="#181818" points="360,141.3125,370,145.3125,360,149.3125,364,145.3125" style="stroke:#181818;stroke-width:1.0;"/><line style="stroke:#181818;stroke-width:1.0;" x1="299" x2="366" y1="145.3125" y2="145.3125"/><text fill="#000000" font-family="sans-serif" font-size="13" font-weight="bold" lengthAdjust="spacing" textLength="7" x="306" y="140.4561">2</text><text fill="#000000" font-family="sans-serif" font-size="13" lengthAdjust="spacing" textLength="36" x="317" y="140.4561">create</text><rect fill="#E3E3E3" height="31.6094" rx="2.5" ry="2.5" style="stroke:#181818;stroke-width:0.5;" width="186" x="372" y="122.9609"/><text fill="#000000" font-family="sans-serif" font-size="14" lengthAdjust="spacing" textLength="172" x="379" y="144.4941">:ListAllEmployeesController</text><polygon fill="#181818" points="599.5,183.9219,609.5,187.9219,599.5,191.9219,603.5,187.9219" style="stroke:#181818;stroke-width:1.0;"/><line style="stroke:#181818;stroke-width:1.0;" x1="470" x2="605.5" y1="187.9219" y2="187.9219"/><text fill="#000000" font-family="sans-serif" font-size="13" font-weight="bold" lengthAdjust="spacing" textLength="7" x="477" y="183.0654">3</text><text fill="#000000" font-family="sans-serif" font-size="13" lengthAdjust="spacing" textLength="75" x="488" y="183.0654">getInstance()</text><polygon fill="#181818" points="481,214.2734,471,218.2734,481,222.2734,477,218.2734" style="stroke:#181818;stroke-width:1.0;"/><line style="stroke:#181818;stroke-width:1.0;stroke-dasharray:2.0,2.0;" x1="475" x2="615.5" y1="218.2734" y2="218.2734"/><text fill="#000000" font-family="sans-serif" font-size="13" font-weight="bold" lengthAdjust="spacing" textLength="7" x="487" y="213.417">4</text><text fill="#000000" font-family="sans-serif" font-size="13" lengthAdjust="spacing" textLength="67" x="498" y="213.417">repositories</text><polygon fill="#181818" points="706.5,244.625,716.5,248.625,706.5,252.625,710.5,248.625" style="stroke:#181818;stroke-width:1.0;"/><line style="stroke:#181818;stroke-width:1.0;" x1="470" x2="712.5" y1="248.625" y2="248.625"/><text fill="#000000" font-family="sans-serif" font-size="13" font-weight="bold" lengthAdjust="spacing" textLength="7" x="477" y="243.7686">5</text><text fill="#000000" font-family="sans-serif" font-size="13" lengthAdjust="spacing" textLength="129" x="488" y="243.7686">getBranchRepository()</text><polygon fill="#181818" points="481,274.9766,471,278.9766,481,282.9766,477,278.9766" style="stroke:#181818;stroke-width:1.0;"/><line style="stroke:#181818;stroke-width:1.0;stroke-dasharray:2.0,2.0;" x1="475" x2="722.5" y1="278.9766" y2="278.9766"/><text fill="#000000" font-family="sans-serif" font-size="13" font-weight="bold" lengthAdjust="spacing" textLength="7" x="487" y="274.1201">6</text><text fill="#000000" font-family="sans-serif" font-size="13" lengthAdjust="spacing" textLength="101" x="498" y="274.1201">branchRepository</text><polygon fill="#181818" points="706.5,305.3281,716.5,309.3281,706.5,313.3281,710.5,309.3281" style="stroke:#181818;stroke-width:1.0;"/><line style="stroke:#181818;stroke-width:1.0;" x1="470" x2="712.5" y1="309.3281" y2="309.3281"/><text fill="#000000" font-family="sans-serif" font-size="13" font-weight="bold" lengthAdjust="spacing" textLength="7" x="477" y="304.4717">7</text><text fill="#000000" font-family="sans-serif" font-size="13" lengthAdjust="spacing" textLength="146" x="488" y="304.4717">getEmployeeRepository()</text><polygon fill="#181818" points="481,335.6797,471,339.6797,481,343.6797,477,339.6797" style="stroke:#181818;stroke-width:1.0;"/><line style="stroke:#181818;stroke-width:1.0;stroke-dasharray:2.0,2.0;" x1="475" x2="722.5" y1="339.6797" y2="339.6797"/><text fill="#000000" font-family="sans-serif" font-size="13" font-weight="bold" lengthAdjust="spacing" textLength="7" x="487" y="334.8232">8</text><text fill="#000000" font-family="sans-serif" font-size="13" lengthAdjust="spacing" textLength="118" x="498" y="334.8232">employeeRepository</text><polygon fill="#181818" points="1120,366.0313,1130,370.0313,1120,374.0313,1124,370.0313" style="stroke:#181818;stroke-width:1.0;"/><line style="stroke:#181818;stroke-width:1.0;" x1="470" x2="1126" y1="370.0313" y2="370.0313"/><text fill="#000000" font-family="sans-serif" font-size="13" font-weight="bold" lengthAdjust="spacing" textLength="7" x="477" y="365.1748">9</text><text fill="#000000" font-family="sans-serif" font-size="13" lengthAdjust="spacing" textLength="96" x="488" y="365.1748">getAllBranches()</text><line style="stroke:#181818;stroke-width:1.0;" x1="1142" x2="1184" y1="400.3828" y2="400.3828"/><line style="stroke:#181818;stroke-width:1.0;" x1="1184" x2="1184" y1="400.3828" y2="413.3828"/><line style="stroke:#181818;stroke-width:1.0;" x1="1143" x2="1184" y1="413.3828" y2="413.3828"/><polygon fill="#181818" points="1153,409.3828,1143,413.3828,1153,417.3828,1149,413.3828" style="stroke:#181818;stroke-width:1.0;"/><text fill="#000000" font-family="sans-serif" font-size="13" font-weight="bold" lengthAdjust="spacing" textLength="14" x="1149" y="395.5264">10</text><text fill="#000000" font-family="sans-serif" font-size="13" lengthAdjust="spacing" textLength="201" x="1167" y="395.5264">SortBranchesByListings(branches)</text><polygon fill="#181818" points="481,439.7344,471,443.7344,481,447.7344,477,443.7344" style="stroke:#181818;stroke-width:1.0;"/><line style="stroke:#181818;stroke-width:1.0;stroke-dasharray:2.0,2.0;" x1="475" x2="1136" y1="443.7344" y2="443.7344"/><text fill="#000000" font-family="sans-serif" font-size="13" font-weight="bold" lengthAdjust="spacing" textLength="14" x="487" y="438.8779">11</text><text fill="#000000" font-family="sans-serif" font-size="13" lengthAdjust="spacing" textLength="91" x="505" y="438.8779">sortedBranches</text><path d="M362,458.7344 L435,458.7344 L435,467.0859 L425,477.0859 L362,477.0859 L362,458.7344 " fill="#EEEEEE" style="stroke:#000000;stroke-width:1.5;"/><rect fill="none" height="122.4063" style="stroke:#000000;stroke-width:1.5;" width="775" x="362" y="458.7344"/><text fill="#000000" font-family="sans-serif" font-size="13" font-weight="bold" lengthAdjust="spacing" textLength="28" x="377" y="473.2295">loop</text><text fill="#000000" font-family="sans-serif" font-size="11" font-weight="bold" lengthAdjust="spacing" textLength="94" x="450" y="472.1533">[for each branch]</text><polygon fill="#181818" points="839,495.4375,849,499.4375,839,503.4375,843,499.4375" style="stroke:#181818;stroke-width:1.0;"/><line style="stroke:#181818;stroke-width:1.0;" x1="470" x2="845" y1="499.4375" y2="499.4375"/><text fill="#000000" font-family="sans-serif" font-size="13" font-weight="bold" lengthAdjust="spacing" textLength="14" x="477" y="494.5811">12</text><text fill="#000000" font-family="sans-serif" font-size="13" lengthAdjust="spacing" textLength="199" x="495" y="494.5811">getEmployeesByBranchID(branch)</text><line style="stroke:#181818;stroke-width:1.0;" x1="861" x2="903" y1="529.7891" y2="529.7891"/><line style="stroke:#181818;stroke-width:1.0;" x1="903" x2="903" y1="529.7891" y2="542.7891"/><line style="stroke:#181818;stroke-width:1.0;" x1="862" x2="903" y1="542.7891" y2="542.7891"/><polygon fill="#181818" points="872,538.7891,862,542.7891,872,546.7891,868,542.7891" style="stroke:#181818;stroke-width:1.0;"/><text fill="#000000" font-family="sans-serif" font-size="13" font-weight="bold" lengthAdjust="spacing" textLength="14" x="868" y="524.9326">13</text><text fill="#000000" font-family="sans-serif" font-size="13" lengthAdjust="spacing" textLength="239" x="886" y="524.9326">sortEmployeesAlphabetically(employees)</text><polygon fill="#181818" points="481,569.1406,471,573.1406,481,577.1406,477,573.1406" style="stroke:#181818;stroke-width:1.0;"/><line style="stroke:#181818;stroke-width:1.0;" x1="475" x2="855" y1="573.1406" y2="573.1406"/><text fill="#000000" font-family="sans-serif" font-size="13" font-weight="bold" lengthAdjust="spacing" textLength="14" x="487" y="568.2842">14</text><text fill="#000000" font-family="sans-serif" font-size="13" lengthAdjust="spacing" textLength="239" x="505" y="568.2842">sortedEmployeesAlphabeticallyByBranch</text><polygon fill="#181818" points="310,606.4922,300,610.4922,310,614.4922,306,610.4922" style="stroke:#181818;stroke-width:1.0;"/><line style="stroke:#181818;stroke-width:1.0;" x1="304" x2="459" y1="610.4922" y2="610.4922"/><text fill="#000000" font-family="sans-serif" font-size="13" font-weight="bold" lengthAdjust="spacing" textLength="14" x="316" y="605.6357">15</text><text fill="#000000" font-family="sans-serif" font-size="13" lengthAdjust="spacing" textLength="101" x="334" y="605.6357">sortedEmployees</text><polygon fill="#181818" points="79,636.8438,69,640.8438,79,644.8438,75,640.8438" style="stroke:#181818;stroke-width:1.0;"/><line style="stroke:#181818;stroke-width:1.0;" x1="73" x2="288" y1="640.8438" y2="640.8438"/><text fill="#000000" font-family="sans-serif" font-size="13" font-weight="bold" lengthAdjust="spacing" textLength="14" x="85" y="635.9873">16</text><text fill="#000000" font-family="sans-serif" font-size="13" lengthAdjust="spacing" textLength="179" x="103" y="635.9873">shows sorted list of employess</text><!--MD5=[9f33e45c2ef4380b5441f85d52fdfddf]
@startuml
'https://plantuml.com/sequence-diagram

skinparam monochrome true
skinparam shadowing false
autonumber

actor "Network Manager" as nm
participant ":ListAllEmployeesUI" as ui
participant ":ListAllEmployeesController" as ctrl


participant ":Repositories" as repos
participant "repositories\n:Repositories" as repositories
participant "employeeRepository\n:EmployeeRepository" as EmpR
participant "branchRepository\n:BranchRepository" as BraR


activate nm
nm -> ui: requests to list all employees
activate ui
ui -> ctrl**: create
activate ctrl
ctrl -> repos: getInstance()
activate repos
return repositories

ctrl -> repositories: getBranchRepository()
activate repositories
return branchRepository

ctrl -> repositories: getEmployeeRepository()
activate repositories
return employeeRepository



ctrl -> BraR: getAllBranches()

activate BraR
BraR -> BraR: SortBranchesByListings(branches)

return sortedBranches

loop for each branch

ctrl -> EmpR: getEmployeesByBranchID(branch)
activate EmpR
EmpR -> EmpR: sortEmployeesAlphabetically(employees)
EmpR -> ctrl: sortedEmployeesAlphabeticallyByBranch
deactivate EmpR
end


ctrl -> ui: sortedEmployees

ui -> nm: shows sorted list of employess

@enduml

@startuml

skinparam monochrome true
skinparam shadowing false
autonumber

actor "Network Manager" as nm
participant ":ListAllEmployeesUI" as ui
participant ":ListAllEmployeesController" as ctrl


participant ":Repositories" as repos
participant "repositories\n:Repositories" as repositories
participant "employeeRepository\n:EmployeeRepository" as EmpR
participant "branchRepository\n:BranchRepository" as BraR


activate nm
nm -> ui: requests to list all employees
activate ui
ui -> ctrl**: create
activate ctrl
ctrl -> repos: getInstance()
activate repos
return repositories

ctrl -> repositories: getBranchRepository()
activate repositories
return branchRepository

ctrl -> repositories: getEmployeeRepository()
activate repositories
return employeeRepository



ctrl -> BraR: getAllBranches()

activate BraR
BraR -> BraR: SortBranchesByListings(branches)

return sortedBranches

loop for each branch

ctrl -> EmpR: getEmployeesByBranchID(branch)
activate EmpR
EmpR -> EmpR: sortEmployeesAlphabetically(employees)
EmpR -> ctrl: sortedEmployeesAlphabeticallyByBranch
deactivate EmpR
end


ctrl -> ui: sortedEmployees

ui -> nm: shows sorted list of employess

@enduml

PlantUML version 1.2022.7(Mon Aug 22 18:01:30 BST 2022)
(GPL source distribution)
Java Runtime: Java(TM) SE Runtime Environment
JVM: Java HotSpot(TM) 64-Bit Server VM
Default Encoding: Cp1252
Language: pt
Country: PT
--></g></svg>