<?xml version="1.0" encoding="us-ascii" standalone="no"?><svg xmlns="http://www.w3.org/2000/svg" xmlns:xlink="http://www.w3.org/1999/xlink" contentStyleType="text/css" height="425px" preserveAspectRatio="none" style="width:346px;height:425px;background:#FFFFFF;" version="1.1" viewBox="0 0 346 425" width="346px" zoomAndPan="magnify"><defs/><g><text fill="#000000" font-family="sans-serif" font-size="14" font-weight="bold" lengthAdjust="spacing" textLength="151" x="90.5" y="25.1074">Domain Model US 016</text><g id="elem_Client"><rect fill="#F1F1F1" height="38.6211" style="stroke:#181818;stroke-width:0.5;" width="50" x="7" y="162.6211"/><text fill="#000000" font-family="sans-serif" font-size="14" lengthAdjust="spacing" textLength="36" x="14" y="179.7285">Client</text><line style="stroke:#181818;stroke-width:0.5;" x1="8" x2="56" y1="185.2422" y2="185.2422"/></g><g id="elem_Visit"><rect fill="#F1F1F1" height="38.6211" style="stroke:#181818;stroke-width:0.5;" width="40" x="144" y="162.6211"/><text fill="#000000" font-family="sans-serif" font-size="14" lengthAdjust="spacing" textLength="26" x="151" y="179.7285">Visit</text><line style="stroke:#181818;stroke-width:0.5;" x1="145" x2="183" y1="185.2422" y2="185.2422"/></g><g id="elem_Announcement"><rect fill="#F1F1F1" height="38.6211" style="stroke:#181818;stroke-width:0.5;" width="109" x="219.5" y="162.6211"/><text fill="#000000" font-family="sans-serif" font-size="14" lengthAdjust="spacing" textLength="95" x="226.5" y="179.7285">Announcement</text><line style="stroke:#181818;stroke-width:0.5;" x1="220.5" x2="327.5" y1="185.2422" y2="185.2422"/></g><g id="elem_Property"><rect fill="#F1F1F1" height="38.6211" style="stroke:#181818;stroke-width:0.5;" width="68" x="185" y="280.6211"/><text fill="#000000" font-family="sans-serif" font-size="14" lengthAdjust="spacing" textLength="54" x="192" y="297.7285">Property</text><line style="stroke:#181818;stroke-width:0.5;" x1="186" x2="252" y1="303.2422" y2="303.2422"/></g><g id="elem_House"><rect fill="#F1F1F1" height="38.6211" style="stroke:#181818;stroke-width:0.5;" width="54" x="90" y="380.6211"/><text fill="#000000" font-family="sans-serif" font-size="14" lengthAdjust="spacing" textLength="40" x="97" y="397.7285">House</text><line style="stroke:#181818;stroke-width:0.5;" x1="91" x2="143" y1="403.2422" y2="403.2422"/></g><g id="elem_Apartment"><rect fill="#F1F1F1" height="38.6211" style="stroke:#181818;stroke-width:0.5;" width="79" x="179.5" y="380.6211"/><text fill="#000000" font-family="sans-serif" font-size="14" lengthAdjust="spacing" textLength="65" x="186.5" y="397.7285">Apartment</text><line style="stroke:#181818;stroke-width:0.5;" x1="180.5" x2="257.5" y1="403.2422" y2="403.2422"/></g><g id="elem_Land"><rect fill="#F1F1F1" height="38.6211" style="stroke:#181818;stroke-width:0.5;" width="46" x="294" y="380.6211"/><text fill="#000000" font-family="sans-serif" font-size="14" lengthAdjust="spacing" textLength="32" x="301" y="397.7285">Land</text><line style="stroke:#181818;stroke-width:0.5;" x1="295" x2="339" y1="403.2422" y2="403.2422"/></g><!--class Agent--><g id="elem_Agent"><rect fill="#F1F1F1" height="36.6211" id="Agent" rx="2.5" ry="2.5" style="stroke:#181818;stroke-width:0.5;" width="43" x="142.5" y="46.6211"/><text fill="#000000" font-family="sans-serif" font-size="14" lengthAdjust="spacing" textLength="37" x="145.5" y="66.7285">Agent</text><line style="stroke:#181818;stroke-width:0.5;" x1="143.5" x2="184.5" y1="75.2422" y2="75.2422"/></g><!--link Client to Visit--><g id="link_Client_Visit"><path codeLine="44" d="M57.14,182.1211 C80.51,182.1211 115.14,182.1211 138.59,182.1211 " fill="none" id="Client-to-Visit" style="stroke:#181818;stroke-width:1.0;"/><polygon fill="#181818" points="143.71,182.1211,134.71,178.1211,138.71,182.1211,134.71,186.1211,143.71,182.1211" style="stroke:#181818;stroke-width:1.0;"/><text fill="#000000" font-family="sans-serif" font-size="13" lengthAdjust="spacing" textLength="50" x="75.5" y="175.1494">requests</text></g><!--link Announcement to Property--><g id="link_Announcement_Property"><path codeLine="46" d="M265.16,201.7611 C254.9,223.4011 238.07,258.9011 227.81,280.5311 " fill="none" id="Announcement-Property" style="stroke:#181818;stroke-width:1.0;"/><polygon fill="#000000" points="252.8578,245.7844,259.3886,238.8707,254.0776,236.3524,252.8578,245.7844" style="stroke:#000000;stroke-width:1.0;"/><text fill="#000000" font-family="sans-serif" font-size="13" lengthAdjust="spacing" textLength="49" x="264" y="246.6494">contains</text><text fill="#000000" font-family="sans-serif" font-size="13" lengthAdjust="spacing" textLength="7" x="254.8436" y="223.4421">1</text><text fill="#000000" font-family="sans-serif" font-size="13" lengthAdjust="spacing" textLength="7" x="222.3698" y="269.4064">1</text></g><!--reverse link Property to House--><g id="link_Property_House"><path codeLine="49" d="M184.85,333.9311 C168.67,349.4811 149.94,367.4811 136.26,380.6111 " fill="none" id="Property-backto-House" style="stroke:#181818;stroke-width:1.0;"/><polygon fill="none" points="180.06,328.8211,199.33,320.0211,189.76,338.9211,180.06,328.8211" style="stroke:#181818;stroke-width:1.0;"/></g><!--reverse link Property to Apartment--><g id="link_Property_Apartment"><path codeLine="50" d="M219,340.3011 C219,354.2211 219,369.2411 219,380.6111 " fill="none" id="Property-backto-Apartment" style="stroke:#181818;stroke-width:1.0;"/><polygon fill="none" points="212,340.0211,219,320.0211,226,340.0211,212,340.0211" style="stroke:#181818;stroke-width:1.0;"/></g><!--reverse link Property to Land--><g id="link_Property_Land"><path codeLine="51" d="M252.29,334.4111 C267.73,349.8511 285.49,367.6111 298.49,380.6111 " fill="none" id="Property-backto-Land" style="stroke:#181818;stroke-width:1.0;"/><polygon fill="none" points="247.09,339.1111,237.9,320.0211,256.99,329.2111,247.09,339.1111" style="stroke:#181818;stroke-width:1.0;"/></g><!--link Visit to Property--><g id="link_Visit_Property"><path codeLine="55" d="M167.75,201.7911 C170.96,215.7111 176.29,234.9311 184,250.6211 C188.33,259.4311 194.23,268.3411 199.95,276.0811 " fill="none" id="Visit-to-Property" style="stroke:#181818;stroke-width:1.0;"/><polygon fill="#181818" points="203.1,280.2611,200.8781,270.6661,200.0909,276.2679,194.4891,275.4807,203.1,280.2611" style="stroke:#181818;stroke-width:1.0;"/><polygon fill="#000000" points="190.9884,245.8542,190.0878,236.3864,184.6948,238.7239,190.9884,245.8542" style="stroke:#000000;stroke-width:1.0;"/><text fill="#000000" font-family="sans-serif" font-size="13" lengthAdjust="spacing" textLength="37" x="198" y="246.6494">to visit</text></g><!--link Agent to Visit--><g id="link_Agent_Visit"><path codeLine="56" d="M164,84.0911 C164,103.8611 164,135.7011 164,157.4811 " fill="none" id="Agent-to-Visit" style="stroke:#181818;stroke-width:1.0;"/><polygon fill="#181818" points="164,162.5211,168,153.5211,164,157.5211,160,153.5211,164,162.5211" style="stroke:#181818;stroke-width:1.0;"/><polygon fill="#000000" points="169,128.2666,171.9389,119.2215,166.0611,119.2215,169,128.2666" style="stroke:#000000;stroke-width:1.0;"/><text fill="#000000" font-family="sans-serif" font-size="13" lengthAdjust="spacing" textLength="50" x="178" y="128.6494">validates</text></g><!--SRC=[PP7BRW8n34Nt_WgBJLSZmQOBL26XTj5AhLG9jVkGCJE6J4mJ3nLz_7lDG8VNAj6DVU-narSSrowv1Xk9ukia3Q6cbY3tBsldLwwYcMu3OIAlBbRXj23NhfHFZXKkNCW4S1DeeQY2YQjQiUHT5qk4aoOVNCvJrSJpLkd9Ivpn5-4GeEQIq7Fo5jBT6z9QoWoWh8Rm88tZY2zIKi2t6Gv7jm0oNre6tWUcgFWDyDjhxvpvGfh6A6tqr5mLloPPKzBjkVeeRQQTTEfXS-YrmREBvK610qqnsJECRNiVBMMrKSu81gC15aLt_EUFqJQYDcV6YJdrM7S_LjZXN6WzpeM-up43s6-XC9PZXFtGffCdCAqwqYFgnWKkdPBb_m40]--></g></svg>