<?xml version="1.0" encoding="us-ascii" standalone="no"?><svg xmlns="http://www.w3.org/2000/svg" xmlns:xlink="http://www.w3.org/1999/xlink" contentStyleType="text/css" height="1729px" preserveAspectRatio="none" style="width:1843px;height:1729px;background:#FFFFFF;" version="1.1" viewBox="0 0 1843 1729" width="1843px" zoomAndPan="magnify"><defs/><g><rect fill="#FFFFFF" height="1539.4824" style="stroke:#181818;stroke-width:1.0;" width="10" x="38.5" y="91.4883"/><rect fill="#FFFFFF" height="1518.1719" style="stroke:#181818;stroke-width:1.0;" width="10" x="530.5" y="112.7988"/><rect fill="#FFFFFF" height="1497.8613" style="stroke:#181818;stroke-width:1.0;" width="10" x="767.5" y="142.1094"/><rect fill="#FFFFFF" height="29.3105" style="stroke:#181818;stroke-width:1.0;" width="10" x="1144.5" y="213.7305"/><rect fill="#FFFFFF" height="29.3105" style="stroke:#181818;stroke-width:1.0;" width="10" x="1302.5" y="272.3516"/><rect fill="#FFFFFF" height="29.3105" style="stroke:#181818;stroke-width:1.0;" width="10" x="1444.5" y="330.9727"/><rect fill="#FFFFFF" height="29.3105" style="stroke:#181818;stroke-width:1.0;" width="10" x="1564" y="431.9043"/><rect fill="#FFFFFF" height="29.3105" style="stroke:#181818;stroke-width:1.0;" width="10" x="1564" y="490.5254"/><rect fill="#FFFFFF" height="29.3105" style="stroke:#181818;stroke-width:1.0;" width="10" x="1564" y="1055.4258"/><rect fill="#FFFFFF" height="29.3105" style="stroke:#181818;stroke-width:1.0;" width="10" x="1564" y="1405.7969"/><rect fill="#FFFFFF" height="29.3105" style="stroke:#181818;stroke-width:1.0;" width="10" x="1723.5" y="549.1465"/><rect fill="#FFFFFF" height="29.3105" style="stroke:#181818;stroke-width:1.0;" width="10" x="1723.5" y="767.3203"/><rect fill="#FFFFFF" height="29.3105" style="stroke:#181818;stroke-width:1.0;" width="10" x="1723.5" y="1156.3574"/><rect fill="#FFFFFF" height="58.6211" style="stroke:#181818;stroke-width:1.0;" width="10" x="1723.5" y="1506.7285"/><rect fill="none" height="703.0977" style="stroke:#000000;stroke-width:1.5;" width="1826.5" x="10" y="899.5625"/><line style="stroke:#181818;stroke-width:0.5;stroke-dasharray:5.0,5.0;" x1="43" x2="43" y1="81.4883" y2="1648.9707"/><line style="stroke:#181818;stroke-width:0.5;stroke-dasharray:5.0,5.0;" x1="535" x2="535" y1="81.4883" y2="1648.9707"/><line style="stroke:#181818;stroke-width:0.5;stroke-dasharray:5.0,5.0;" x1="772" x2="772" y1="81.4883" y2="1648.9707"/><line style="stroke:#181818;stroke-width:0.5;stroke-dasharray:5.0,5.0;" x1="1149.5" x2="1149.5" y1="81.4883" y2="1648.9707"/><line style="stroke:#181818;stroke-width:0.5;stroke-dasharray:5.0,5.0;" x1="1307.5" x2="1307.5" y1="81.4883" y2="1648.9707"/><line style="stroke:#181818;stroke-width:0.5;stroke-dasharray:5.0,5.0;" x1="1449.5" x2="1449.5" y1="81.4883" y2="1648.9707"/><line style="stroke:#181818;stroke-width:0.5;stroke-dasharray:5.0,5.0;" x1="1568.5" x2="1568.5" y1="81.4883" y2="1648.9707"/><line style="stroke:#181818;stroke-width:0.5;stroke-dasharray:5.0,5.0;" x1="1728.5" x2="1728.5" y1="81.4883" y2="1648.9707"/><text fill="#000000" font-family="sans-serif" font-size="14" lengthAdjust="spacing" textLength="41" x="20" y="78.5352">Agent</text><ellipse cx="43.5" cy="13.5" fill="#E3E3E3" rx="8" ry="8" style="stroke:#181818;stroke-width:0.5;"/><path d="M43.5,21.5 L43.5,48.5 M30.5,29.5 L56.5,29.5 M43.5,48.5 L30.5,63.5 M43.5,48.5 L56.5,63.5 " fill="none" style="stroke:#181818;stroke-width:0.5;"/><text fill="#000000" font-family="sans-serif" font-size="14" lengthAdjust="spacing" textLength="41" x="20" y="1661.5059">Agent</text><ellipse cx="43.5" cy="1672.959" fill="#E3E3E3" rx="8" ry="8" style="stroke:#181818;stroke-width:0.5;"/><path d="M43.5,1680.959 L43.5,1707.959 M30.5,1688.959 L56.5,1688.959 M43.5,1707.959 L30.5,1722.959 M43.5,1707.959 L56.5,1722.959 " fill="none" style="stroke:#181818;stroke-width:0.5;"/><rect fill="#E3E3E3" height="30.4883" rx="2.5" ry="2.5" style="stroke:#181818;stroke-width:0.5;" width="199" x="436" y="50"/><text fill="#000000" font-family="sans-serif" font-size="14" lengthAdjust="spacing" textLength="185" x="443" y="70.5352">:AnnouncementRequestsUI</text><rect fill="#E3E3E3" height="30.4883" rx="2.5" ry="2.5" style="stroke:#181818;stroke-width:0.5;" width="199" x="436" y="1647.9707"/><text fill="#000000" font-family="sans-serif" font-size="14" lengthAdjust="spacing" textLength="185" x="443" y="1668.5059">:AnnouncementRequestsUI</text><rect fill="#E3E3E3" height="30.4883" rx="2.5" ry="2.5" style="stroke:#181818;stroke-width:0.5;" width="255" x="645" y="50"/><text fill="#000000" font-family="sans-serif" font-size="14" lengthAdjust="spacing" textLength="241" x="652" y="70.5352">:AnnouncementRequestsController</text><rect fill="#E3E3E3" height="30.4883" rx="2.5" ry="2.5" style="stroke:#181818;stroke-width:0.5;" width="255" x="645" y="1647.9707"/><text fill="#000000" font-family="sans-serif" font-size="14" lengthAdjust="spacing" textLength="241" x="652" y="1668.5059">:AnnouncementRequestsController</text><rect fill="#E3E3E3" height="30.4883" rx="2.5" ry="2.5" style="stroke:#181818;stroke-width:0.5;" width="148" x="1075.5" y="50"/><text fill="#000000" font-family="sans-serif" font-size="14" lengthAdjust="spacing" textLength="134" x="1082.5" y="70.5352">:ApplicationSession</text><rect fill="#E3E3E3" height="30.4883" rx="2.5" ry="2.5" style="stroke:#181818;stroke-width:0.5;" width="148" x="1075.5" y="1647.9707"/><text fill="#000000" font-family="sans-serif" font-size="14" lengthAdjust="spacing" textLength="134" x="1082.5" y="1668.5059">:ApplicationSession</text><rect fill="#E3E3E3" height="46.9766" rx="2.5" ry="2.5" style="stroke:#181818;stroke-width:0.5;" width="148" x="1233.5" y="33.5117"/><text fill="#000000" font-family="sans-serif" font-size="14" lengthAdjust="spacing" textLength="78" x="1268.5" y="54.0469">appSession</text><text fill="#000000" font-family="sans-serif" font-size="14" lengthAdjust="spacing" textLength="134" x="1240.5" y="70.5352">:ApplicationSession</text><rect fill="#E3E3E3" height="46.9766" rx="2.5" ry="2.5" style="stroke:#181818;stroke-width:0.5;" width="148" x="1233.5" y="1647.9707"/><text fill="#000000" font-family="sans-serif" font-size="14" lengthAdjust="spacing" textLength="78" x="1268.5" y="1668.5059">appSession</text><text fill="#000000" font-family="sans-serif" font-size="14" lengthAdjust="spacing" textLength="134" x="1240.5" y="1684.9941">:ApplicationSession</text><rect fill="#E3E3E3" height="46.9766" rx="2.5" ry="2.5" style="stroke:#181818;stroke-width:0.5;" width="116" x="1391.5" y="33.5117"/><text fill="#000000" font-family="sans-serif" font-size="14" lengthAdjust="spacing" textLength="102" x="1398.5" y="54.0469">currentSession</text><text fill="#000000" font-family="sans-serif" font-size="14" lengthAdjust="spacing" textLength="87" x="1406" y="70.5352">:UserSession</text><rect fill="#E3E3E3" height="46.9766" rx="2.5" ry="2.5" style="stroke:#181818;stroke-width:0.5;" width="116" x="1391.5" y="1647.9707"/><text fill="#000000" font-family="sans-serif" font-size="14" lengthAdjust="spacing" textLength="102" x="1398.5" y="1668.5059">currentSession</text><text fill="#000000" font-family="sans-serif" font-size="14" lengthAdjust="spacing" textLength="87" x="1406" y="1684.9941">:UserSession</text><rect fill="#E3E3E3" height="46.9766" rx="2.5" ry="2.5" style="stroke:#181818;stroke-width:0.5;" width="103" x="1517.5" y="33.5117"/><text fill="#000000" font-family="sans-serif" font-size="14" lengthAdjust="spacing" textLength="82" x="1528" y="54.0469">repositories</text><text fill="#000000" font-family="sans-serif" font-size="14" lengthAdjust="spacing" textLength="89" x="1524.5" y="70.5352">:Repositories</text><rect fill="#E3E3E3" height="46.9766" rx="2.5" ry="2.5" style="stroke:#181818;stroke-width:0.5;" width="103" x="1517.5" y="1647.9707"/><text fill="#000000" font-family="sans-serif" font-size="14" lengthAdjust="spacing" textLength="82" x="1528" y="1668.5059">repositories</text><text fill="#000000" font-family="sans-serif" font-size="14" lengthAdjust="spacing" textLength="89" x="1524.5" y="1684.9941">:Repositories</text><rect fill="#E3E3E3" height="30.4883" rx="2.5" ry="2.5" style="stroke:#181818;stroke-width:0.5;" width="196" x="1630.5" y="50"/><text fill="#000000" font-family="sans-serif" font-size="14" lengthAdjust="spacing" textLength="182" x="1637.5" y="70.5352">:AnnouncementRepository</text><rect fill="#E3E3E3" height="30.4883" rx="2.5" ry="2.5" style="stroke:#181818;stroke-width:0.5;" width="196" x="1630.5" y="1647.9707"/><text fill="#000000" font-family="sans-serif" font-size="14" lengthAdjust="spacing" textLength="182" x="1637.5" y="1668.5059">:AnnouncementRepository</text><rect fill="#FFFFFF" height="1539.4824" style="stroke:#181818;stroke-width:1.0;" width="10" x="38.5" y="91.4883"/><rect fill="#FFFFFF" height="1518.1719" style="stroke:#181818;stroke-width:1.0;" width="10" x="530.5" y="112.7988"/><rect fill="#FFFFFF" height="1497.8613" style="stroke:#181818;stroke-width:1.0;" width="10" x="767.5" y="142.1094"/><rect fill="#FFFFFF" height="29.3105" style="stroke:#181818;stroke-width:1.0;" width="10" x="1144.5" y="213.7305"/><rect fill="#FFFFFF" height="29.3105" style="stroke:#181818;stroke-width:1.0;" width="10" x="1302.5" y="272.3516"/><rect fill="#FFFFFF" height="29.3105" style="stroke:#181818;stroke-width:1.0;" width="10" x="1444.5" y="330.9727"/><rect fill="#FFFFFF" height="29.3105" style="stroke:#181818;stroke-width:1.0;" width="10" x="1564" y="431.9043"/><rect fill="#FFFFFF" height="29.3105" style="stroke:#181818;stroke-width:1.0;" width="10" x="1564" y="490.5254"/><rect fill="#FFFFFF" height="29.3105" style="stroke:#181818;stroke-width:1.0;" width="10" x="1564" y="1055.4258"/><rect fill="#FFFFFF" height="29.3105" style="stroke:#181818;stroke-width:1.0;" width="10" x="1564" y="1405.7969"/><rect fill="#FFFFFF" height="29.3105" style="stroke:#181818;stroke-width:1.0;" width="10" x="1723.5" y="549.1465"/><rect fill="#FFFFFF" height="29.3105" style="stroke:#181818;stroke-width:1.0;" width="10" x="1723.5" y="767.3203"/><rect fill="#FFFFFF" height="29.3105" style="stroke:#181818;stroke-width:1.0;" width="10" x="1723.5" y="1156.3574"/><rect fill="#FFFFFF" height="58.6211" style="stroke:#181818;stroke-width:1.0;" width="10" x="1723.5" y="1506.7285"/><polygon fill="#181818" points="518.5,108.7988,528.5,112.7988,518.5,116.7988,522.5,112.7988" style="stroke:#181818;stroke-width:1.0;"/><line style="stroke:#181818;stroke-width:1.0;" x1="48.5" x2="524.5" y1="112.7988" y2="112.7988"/><text fill="#000000" font-family="sans-serif" font-size="13" font-weight="bold" lengthAdjust="spacing" textLength="9" x="55.5" y="108.0566">1</text><text fill="#000000" font-family="sans-serif" font-size="13" lengthAdjust="spacing" textLength="250" x="68.5" y="108.0566">asks to see the announcement requests</text><polygon fill="#181818" points="755.5,138.1094,765.5,142.1094,755.5,146.1094,759.5,142.1094" style="stroke:#181818;stroke-width:1.0;"/><line style="stroke:#181818;stroke-width:1.0;" x1="540.5" x2="761.5" y1="142.1094" y2="142.1094"/><text fill="#000000" font-family="sans-serif" font-size="13" font-weight="bold" lengthAdjust="spacing" textLength="9" x="547.5" y="137.3672">2</text><text fill="#000000" font-family="sans-serif" font-size="13" lengthAdjust="spacing" textLength="180" x="560.5" y="137.3672">getAnnouncementRequests()</text><line style="stroke:#181818;stroke-width:1.0;" x1="777.5" x2="819.5" y1="171.4199" y2="171.4199"/><line style="stroke:#181818;stroke-width:1.0;" x1="819.5" x2="819.5" y1="171.4199" y2="184.4199"/><line style="stroke:#181818;stroke-width:1.0;" x1="778.5" x2="819.5" y1="184.4199" y2="184.4199"/><polygon fill="#181818" points="788.5,180.4199,778.5,184.4199,788.5,188.4199,784.5,184.4199" style="stroke:#181818;stroke-width:1.0;"/><text fill="#000000" font-family="sans-serif" font-size="13" font-weight="bold" lengthAdjust="spacing" textLength="9" x="784.5" y="166.6777">3</text><text fill="#000000" font-family="sans-serif" font-size="13" lengthAdjust="spacing" textLength="168" x="797.5" y="166.6777">getEmployeeFromSession()</text><polygon fill="#181818" points="1132.5,209.7305,1142.5,213.7305,1132.5,217.7305,1136.5,213.7305" style="stroke:#181818;stroke-width:1.0;"/><line style="stroke:#181818;stroke-width:1.0;" x1="777.5" x2="1138.5" y1="213.7305" y2="213.7305"/><text fill="#000000" font-family="sans-serif" font-size="13" font-weight="bold" lengthAdjust="spacing" textLength="9" x="784.5" y="208.9883">4</text><text fill="#000000" font-family="sans-serif" font-size="13" lengthAdjust="spacing" textLength="81" x="797.5" y="208.9883">getInstance()</text><polygon fill="#181818" points="788.5,239.041,778.5,243.041,788.5,247.041,784.5,243.041" style="stroke:#181818;stroke-width:1.0;"/><line style="stroke:#181818;stroke-width:1.0;" x1="782.5" x2="1148.5" y1="243.041" y2="243.041"/><text fill="#000000" font-family="sans-serif" font-size="13" font-weight="bold" lengthAdjust="spacing" textLength="9" x="794.5" y="238.2988">5</text><text fill="#000000" font-family="sans-serif" font-size="13" lengthAdjust="spacing" textLength="71" x="807.5" y="238.2988">appSession</text><polygon fill="#181818" points="1290.5,268.3516,1300.5,272.3516,1290.5,276.3516,1294.5,272.3516" style="stroke:#181818;stroke-width:1.0;"/><line style="stroke:#181818;stroke-width:1.0;" x1="777.5" x2="1296.5" y1="272.3516" y2="272.3516"/><text fill="#000000" font-family="sans-serif" font-size="13" font-weight="bold" lengthAdjust="spacing" textLength="9" x="784.5" y="267.6094">6</text><text fill="#000000" font-family="sans-serif" font-size="13" lengthAdjust="spacing" textLength="123" x="797.5" y="267.6094">getCurrentSession()</text><polygon fill="#181818" points="788.5,297.6621,778.5,301.6621,788.5,305.6621,784.5,301.6621" style="stroke:#181818;stroke-width:1.0;"/><line style="stroke:#181818;stroke-width:1.0;stroke-dasharray:2.0,2.0;" x1="782.5" x2="1306.5" y1="301.6621" y2="301.6621"/><text fill="#000000" font-family="sans-serif" font-size="13" font-weight="bold" lengthAdjust="spacing" textLength="9" x="794.5" y="296.9199">7</text><text fill="#000000" font-family="sans-serif" font-size="13" lengthAdjust="spacing" textLength="93" x="807.5" y="296.9199">currentSession</text><polygon fill="#181818" points="1432.5,326.9727,1442.5,330.9727,1432.5,334.9727,1436.5,330.9727" style="stroke:#181818;stroke-width:1.0;"/><line style="stroke:#181818;stroke-width:1.0;" x1="777.5" x2="1438.5" y1="330.9727" y2="330.9727"/><text fill="#000000" font-family="sans-serif" font-size="13" font-weight="bold" lengthAdjust="spacing" textLength="9" x="784.5" y="326.2305">8</text><text fill="#000000" font-family="sans-serif" font-size="13" lengthAdjust="spacing" textLength="229" x="797.5" y="326.2305">agentName = getUserNameByEmail()</text><polygon fill="#181818" points="788.5,356.2832,778.5,360.2832,788.5,364.2832,784.5,360.2832" style="stroke:#181818;stroke-width:1.0;"/><line style="stroke:#181818;stroke-width:1.0;stroke-dasharray:2.0,2.0;" x1="782.5" x2="1448.5" y1="360.2832" y2="360.2832"/><text fill="#000000" font-family="sans-serif" font-size="13" font-weight="bold" lengthAdjust="spacing" textLength="9" x="794.5" y="355.541">9</text><text fill="#000000" font-family="sans-serif" font-size="13" lengthAdjust="spacing" textLength="71" x="807.5" y="355.541">agentName</text><line style="stroke:#181818;stroke-width:1.0;" x1="777.5" x2="819.5" y1="389.5938" y2="389.5938"/><line style="stroke:#181818;stroke-width:1.0;" x1="819.5" x2="819.5" y1="389.5938" y2="402.5938"/><line style="stroke:#181818;stroke-width:1.0;" x1="778.5" x2="819.5" y1="402.5938" y2="402.5938"/><polygon fill="#181818" points="788.5,398.5938,778.5,402.5938,788.5,406.5938,784.5,402.5938" style="stroke:#181818;stroke-width:1.0;"/><text fill="#000000" font-family="sans-serif" font-size="13" font-weight="bold" lengthAdjust="spacing" textLength="18" x="784.5" y="384.8516">10</text><text fill="#000000" font-family="sans-serif" font-size="13" lengthAdjust="spacing" textLength="331" x="806.5" y="384.8516">getAnnouncementRequestsBAgentName(agentName)</text><polygon fill="#181818" points="1552,427.9043,1562,431.9043,1552,435.9043,1556,431.9043" style="stroke:#181818;stroke-width:1.0;"/><line style="stroke:#181818;stroke-width:1.0;" x1="777.5" x2="1558" y1="431.9043" y2="431.9043"/><text fill="#000000" font-family="sans-serif" font-size="13" font-weight="bold" lengthAdjust="spacing" textLength="18" x="784.5" y="427.1621">11</text><text fill="#000000" font-family="sans-serif" font-size="13" lengthAdjust="spacing" textLength="81" x="806.5" y="427.1621">getInstance()</text><polygon fill="#181818" points="788.5,457.2148,778.5,461.2148,788.5,465.2148,784.5,461.2148" style="stroke:#181818;stroke-width:1.0;"/><line style="stroke:#181818;stroke-width:1.0;stroke-dasharray:2.0,2.0;" x1="782.5" x2="1568" y1="461.2148" y2="461.2148"/><text fill="#000000" font-family="sans-serif" font-size="13" font-weight="bold" lengthAdjust="spacing" textLength="18" x="794.5" y="456.4727">12</text><text fill="#000000" font-family="sans-serif" font-size="13" lengthAdjust="spacing" textLength="75" x="816.5" y="456.4727">repositories</text><polygon fill="#181818" points="1552,486.5254,1562,490.5254,1552,494.5254,1556,490.5254" style="stroke:#181818;stroke-width:1.0;"/><line style="stroke:#181818;stroke-width:1.0;" x1="777.5" x2="1558" y1="490.5254" y2="490.5254"/><text fill="#000000" font-family="sans-serif" font-size="13" font-weight="bold" lengthAdjust="spacing" textLength="18" x="784.5" y="485.7832">13</text><text fill="#000000" font-family="sans-serif" font-size="13" lengthAdjust="spacing" textLength="190" x="806.5" y="485.7832">getAnnouncementRepository()</text><polygon fill="#181818" points="788.5,515.8359,778.5,519.8359,788.5,523.8359,784.5,519.8359" style="stroke:#181818;stroke-width:1.0;"/><line style="stroke:#181818;stroke-width:1.0;" x1="782.5" x2="1568" y1="519.8359" y2="519.8359"/><text fill="#000000" font-family="sans-serif" font-size="13" font-weight="bold" lengthAdjust="spacing" textLength="18" x="794.5" y="515.0938">14</text><text fill="#000000" font-family="sans-serif" font-size="13" lengthAdjust="spacing" textLength="162" x="816.5" y="515.0938">AnnouncementRepository</text><polygon fill="#181818" points="1711.5,545.1465,1721.5,549.1465,1711.5,553.1465,1715.5,549.1465" style="stroke:#181818;stroke-width:1.0;"/><line style="stroke:#181818;stroke-width:1.0;" x1="777.5" x2="1717.5" y1="549.1465" y2="549.1465"/><text fill="#000000" font-family="sans-serif" font-size="13" font-weight="bold" lengthAdjust="spacing" textLength="18" x="784.5" y="544.4043">15</text><text fill="#000000" font-family="sans-serif" font-size="13" lengthAdjust="spacing" textLength="330" x="806.5" y="544.4043">getAnnoucementRequestsByAgentName(agentName)</text><polygon fill="#181818" points="788.5,574.457,778.5,578.457,788.5,582.457,784.5,578.457" style="stroke:#181818;stroke-width:1.0;"/><line style="stroke:#181818;stroke-width:1.0;stroke-dasharray:2.0,2.0;" x1="782.5" x2="1727.5" y1="578.457" y2="578.457"/><text fill="#000000" font-family="sans-serif" font-size="13" font-weight="bold" lengthAdjust="spacing" textLength="18" x="794.5" y="573.7148">16</text><text fill="#000000" font-family="sans-serif" font-size="13" lengthAdjust="spacing" textLength="168" x="816.5" y="573.7148">AnnouncementRequetsList</text><polygon fill="#181818" points="551.5,603.7676,541.5,607.7676,551.5,611.7676,547.5,607.7676" style="stroke:#181818;stroke-width:1.0;"/><line style="stroke:#181818;stroke-width:1.0;stroke-dasharray:2.0,2.0;" x1="545.5" x2="766.5" y1="607.7676" y2="607.7676"/><text fill="#000000" font-family="sans-serif" font-size="13" font-weight="bold" lengthAdjust="spacing" textLength="18" x="557.5" y="603.0254">17</text><text fill="#000000" font-family="sans-serif" font-size="13" lengthAdjust="spacing" textLength="168" x="579.5" y="603.0254">AnnouncementRequetsList</text><polygon fill="#181818" points="59.5,633.0781,49.5,637.0781,59.5,641.0781,55.5,637.0781" style="stroke:#181818;stroke-width:1.0;"/><line style="stroke:#181818;stroke-width:1.0;stroke-dasharray:2.0,2.0;" x1="53.5" x2="529.5" y1="637.0781" y2="637.0781"/><text fill="#000000" font-family="sans-serif" font-size="13" font-weight="bold" lengthAdjust="spacing" textLength="18" x="65.5" y="632.3359">18</text><text fill="#000000" font-family="sans-serif" font-size="13" lengthAdjust="spacing" textLength="212" x="87.5" y="632.3359">show the announcement requests</text><polygon fill="#181818" points="518.5,662.3887,528.5,666.3887,518.5,670.3887,522.5,666.3887" style="stroke:#181818;stroke-width:1.0;"/><line style="stroke:#181818;stroke-width:1.0;" x1="48.5" x2="524.5" y1="666.3887" y2="666.3887"/><text fill="#000000" font-family="sans-serif" font-size="13" font-weight="bold" lengthAdjust="spacing" textLength="18" x="55.5" y="661.6465">19</text><text fill="#000000" font-family="sans-serif" font-size="13" lengthAdjust="spacing" textLength="277" x="77.5" y="661.6465">select the announcement request to analyze</text><polygon fill="#181818" points="755.5,691.6992,765.5,695.6992,755.5,699.6992,759.5,695.6992" style="stroke:#181818;stroke-width:1.0;"/><line style="stroke:#181818;stroke-width:1.0;" x1="540.5" x2="761.5" y1="695.6992" y2="695.6992"/><text fill="#000000" font-family="sans-serif" font-size="13" font-weight="bold" lengthAdjust="spacing" textLength="18" x="547.5" y="690.957">20</text><text fill="#000000" font-family="sans-serif" font-size="13" lengthAdjust="spacing" textLength="123" x="569.5" y="690.957">getAnnouncement()</text><line style="stroke:#181818;stroke-width:1.0;" x1="777.5" x2="819.5" y1="725.0098" y2="725.0098"/><line style="stroke:#181818;stroke-width:1.0;" x1="819.5" x2="819.5" y1="725.0098" y2="738.0098"/><line style="stroke:#181818;stroke-width:1.0;" x1="778.5" x2="819.5" y1="738.0098" y2="738.0098"/><polygon fill="#181818" points="788.5,734.0098,778.5,738.0098,788.5,742.0098,784.5,738.0098" style="stroke:#181818;stroke-width:1.0;"/><text fill="#000000" font-family="sans-serif" font-size="13" font-weight="bold" lengthAdjust="spacing" textLength="18" x="784.5" y="720.2676">21</text><text fill="#000000" font-family="sans-serif" font-size="13" lengthAdjust="spacing" textLength="190" x="806.5" y="720.2676">getAnnouncementRepository()</text><polygon fill="#181818" points="1711.5,763.3203,1721.5,767.3203,1711.5,771.3203,1715.5,767.3203" style="stroke:#181818;stroke-width:1.0;"/><line style="stroke:#181818;stroke-width:1.0;" x1="777.5" x2="1717.5" y1="767.3203" y2="767.3203"/><text fill="#000000" font-family="sans-serif" font-size="13" font-weight="bold" lengthAdjust="spacing" textLength="18" x="784.5" y="762.5781">22</text><text fill="#000000" font-family="sans-serif" font-size="13" lengthAdjust="spacing" textLength="123" x="806.5" y="762.5781">getAnnouncement()</text><polygon fill="#181818" points="788.5,792.6309,778.5,796.6309,788.5,800.6309,784.5,796.6309" style="stroke:#181818;stroke-width:1.0;"/><line style="stroke:#181818;stroke-width:1.0;stroke-dasharray:2.0,2.0;" x1="782.5" x2="1727.5" y1="796.6309" y2="796.6309"/><text fill="#000000" font-family="sans-serif" font-size="13" font-weight="bold" lengthAdjust="spacing" textLength="18" x="794.5" y="791.8887">23</text><text fill="#000000" font-family="sans-serif" font-size="13" lengthAdjust="spacing" textLength="95" x="816.5" y="791.8887">Announcement</text><polygon fill="#181818" points="551.5,821.9414,541.5,825.9414,551.5,829.9414,547.5,825.9414" style="stroke:#181818;stroke-width:1.0;"/><line style="stroke:#181818;stroke-width:1.0;stroke-dasharray:2.0,2.0;" x1="545.5" x2="766.5" y1="825.9414" y2="825.9414"/><text fill="#000000" font-family="sans-serif" font-size="13" font-weight="bold" lengthAdjust="spacing" textLength="18" x="557.5" y="821.1992">24</text><text fill="#000000" font-family="sans-serif" font-size="13" lengthAdjust="spacing" textLength="95" x="579.5" y="821.1992">Announcement</text><polygon fill="#181818" points="59.5,851.252,49.5,855.252,59.5,859.252,55.5,855.252" style="stroke:#181818;stroke-width:1.0;"/><line style="stroke:#181818;stroke-width:1.0;stroke-dasharray:2.0,2.0;" x1="53.5" x2="529.5" y1="855.252" y2="855.252"/><text fill="#000000" font-family="sans-serif" font-size="13" font-weight="bold" lengthAdjust="spacing" textLength="18" x="65.5" y="850.5098">25</text><text fill="#000000" font-family="sans-serif" font-size="13" lengthAdjust="spacing" textLength="436" x="87.5" y="850.5098">present all the information about the announcement request selected</text><polygon fill="#181818" points="518.5,880.5625,528.5,884.5625,518.5,888.5625,522.5,884.5625" style="stroke:#181818;stroke-width:1.0;"/><line style="stroke:#181818;stroke-width:1.0;" x1="48.5" x2="524.5" y1="884.5625" y2="884.5625"/><text fill="#000000" font-family="sans-serif" font-size="13" font-weight="bold" lengthAdjust="spacing" textLength="18" x="55.5" y="879.8203">26</text><text fill="#000000" font-family="sans-serif" font-size="13" lengthAdjust="spacing" textLength="214" x="77.5" y="879.8203">select an option - accept or reject</text><path d="M10,899.5625 L72,899.5625 L72,906.873 L62,916.873 L10,916.873 L10,899.5625 " fill="#EEEEEE" style="stroke:#000000;stroke-width:1.5;"/><rect fill="none" height="703.0977" style="stroke:#000000;stroke-width:1.5;" width="1826.5" x="10" y="899.5625"/><text fill="#000000" font-family="sans-serif" font-size="13" font-weight="bold" lengthAdjust="spacing" textLength="17" x="25" y="913.1309">alt</text><text fill="#000000" font-family="sans-serif" font-size="11" font-weight="bold" lengthAdjust="spacing" textLength="45" x="87" y="912.1973">[Accept]</text><polygon fill="#181818" points="518.5,934.1836,528.5,938.1836,518.5,942.1836,522.5,938.1836" style="stroke:#181818;stroke-width:1.0;"/><line style="stroke:#181818;stroke-width:1.0;" x1="48.5" x2="524.5" y1="938.1836" y2="938.1836"/><text fill="#000000" font-family="sans-serif" font-size="13" font-weight="bold" lengthAdjust="spacing" textLength="18" x="55.5" y="933.4414">27</text><text fill="#000000" font-family="sans-serif" font-size="13" lengthAdjust="spacing" textLength="41" x="77.5" y="933.4414">accept</text><polygon fill="#181818" points="59.5,963.4941,49.5,967.4941,59.5,971.4941,55.5,967.4941" style="stroke:#181818;stroke-width:1.0;"/><line style="stroke:#181818;stroke-width:1.0;stroke-dasharray:2.0,2.0;" x1="53.5" x2="529.5" y1="967.4941" y2="967.4941"/><text fill="#000000" font-family="sans-serif" font-size="13" font-weight="bold" lengthAdjust="spacing" textLength="18" x="65.5" y="962.752">28</text><text fill="#000000" font-family="sans-serif" font-size="13" lengthAdjust="spacing" textLength="159" x="87.5" y="962.752">requests the commission</text><polygon fill="#181818" points="518.5,992.8047,528.5,996.8047,518.5,1000.8047,522.5,996.8047" style="stroke:#181818;stroke-width:1.0;"/><line style="stroke:#181818;stroke-width:1.0;" x1="48.5" x2="524.5" y1="996.8047" y2="996.8047"/><text fill="#000000" font-family="sans-serif" font-size="13" font-weight="bold" lengthAdjust="spacing" textLength="18" x="55.5" y="992.0625">29</text><text fill="#000000" font-family="sans-serif" font-size="13" lengthAdjust="spacing" textLength="124" x="77.5" y="992.0625">set the commission</text><polygon fill="#181818" points="755.5,1022.1152,765.5,1026.1152,755.5,1030.1152,759.5,1026.1152" style="stroke:#181818;stroke-width:1.0;"/><line style="stroke:#181818;stroke-width:1.0;" x1="540.5" x2="761.5" y1="1026.1152" y2="1026.1152"/><text fill="#000000" font-family="sans-serif" font-size="13" font-weight="bold" lengthAdjust="spacing" textLength="18" x="547.5" y="1021.373">30</text><text fill="#000000" font-family="sans-serif" font-size="13" lengthAdjust="spacing" textLength="71" x="569.5" y="1021.373">getAccept()</text><polygon fill="#181818" points="1552,1051.4258,1562,1055.4258,1552,1059.4258,1556,1055.4258" style="stroke:#181818;stroke-width:1.0;"/><line style="stroke:#181818;stroke-width:1.0;" x1="777.5" x2="1558" y1="1055.4258" y2="1055.4258"/><text fill="#000000" font-family="sans-serif" font-size="13" font-weight="bold" lengthAdjust="spacing" textLength="18" x="784.5" y="1050.6836">31</text><text fill="#000000" font-family="sans-serif" font-size="13" lengthAdjust="spacing" textLength="81" x="806.5" y="1050.6836">getInstance()</text><polygon fill="#181818" points="788.5,1080.7363,778.5,1084.7363,788.5,1088.7363,784.5,1084.7363" style="stroke:#181818;stroke-width:1.0;"/><line style="stroke:#181818;stroke-width:1.0;stroke-dasharray:2.0,2.0;" x1="782.5" x2="1568" y1="1084.7363" y2="1084.7363"/><text fill="#000000" font-family="sans-serif" font-size="13" font-weight="bold" lengthAdjust="spacing" textLength="18" x="794.5" y="1079.9941">32</text><text fill="#000000" font-family="sans-serif" font-size="13" lengthAdjust="spacing" textLength="75" x="816.5" y="1079.9941">repositories</text><line style="stroke:#181818;stroke-width:1.0;" x1="777.5" x2="819.5" y1="1114.0469" y2="1114.0469"/><line style="stroke:#181818;stroke-width:1.0;" x1="819.5" x2="819.5" y1="1114.0469" y2="1127.0469"/><line style="stroke:#181818;stroke-width:1.0;" x1="778.5" x2="819.5" y1="1127.0469" y2="1127.0469"/><polygon fill="#181818" points="788.5,1123.0469,778.5,1127.0469,788.5,1131.0469,784.5,1127.0469" style="stroke:#181818;stroke-width:1.0;"/><text fill="#000000" font-family="sans-serif" font-size="13" font-weight="bold" lengthAdjust="spacing" textLength="18" x="784.5" y="1109.3047">33</text><text fill="#000000" font-family="sans-serif" font-size="13" lengthAdjust="spacing" textLength="190" x="806.5" y="1109.3047">getAnnouncementRepository()</text><polygon fill="#181818" points="1711.5,1152.3574,1721.5,1156.3574,1711.5,1160.3574,1715.5,1156.3574" style="stroke:#181818;stroke-width:1.0;"/><line style="stroke:#181818;stroke-width:1.0;" x1="777.5" x2="1717.5" y1="1156.3574" y2="1156.3574"/><text fill="#000000" font-family="sans-serif" font-size="13" font-weight="bold" lengthAdjust="spacing" textLength="18" x="784.5" y="1151.6152">34</text><text fill="#000000" font-family="sans-serif" font-size="13" lengthAdjust="spacing" textLength="71" x="806.5" y="1151.6152">getAccept()</text><polygon fill="#181818" points="788.5,1181.668,778.5,1185.668,788.5,1189.668,784.5,1185.668" style="stroke:#181818;stroke-width:1.0;"/><line style="stroke:#181818;stroke-width:1.0;stroke-dasharray:2.0,2.0;" x1="782.5" x2="1727.5" y1="1185.668" y2="1185.668"/><text fill="#000000" font-family="sans-serif" font-size="13" font-weight="bold" lengthAdjust="spacing" textLength="18" x="794.5" y="1180.9258">35</text><text fill="#000000" font-family="sans-serif" font-size="13" lengthAdjust="spacing" textLength="43" x="816.5" y="1180.9258">Accept</text><polygon fill="#181818" points="551.5,1210.9785,541.5,1214.9785,551.5,1218.9785,547.5,1214.9785" style="stroke:#181818;stroke-width:1.0;"/><line style="stroke:#181818;stroke-width:1.0;stroke-dasharray:2.0,2.0;" x1="545.5" x2="766.5" y1="1214.9785" y2="1214.9785"/><text fill="#000000" font-family="sans-serif" font-size="13" font-weight="bold" lengthAdjust="spacing" textLength="18" x="557.5" y="1210.2363">36</text><text fill="#000000" font-family="sans-serif" font-size="13" lengthAdjust="spacing" textLength="41" x="579.5" y="1210.2363">accept</text><polygon fill="#181818" points="59.5,1240.2891,49.5,1244.2891,59.5,1248.2891,55.5,1244.2891" style="stroke:#181818;stroke-width:1.0;"/><line style="stroke:#181818;stroke-width:1.0;stroke-dasharray:2.0,2.0;" x1="53.5" x2="529.5" y1="1244.2891" y2="1244.2891"/><text fill="#000000" font-family="sans-serif" font-size="13" font-weight="bold" lengthAdjust="spacing" textLength="18" x="65.5" y="1239.5469">37</text><text fill="#000000" font-family="sans-serif" font-size="13" lengthAdjust="spacing" textLength="156" x="87.5" y="1239.5469">display operation sucess</text><line style="stroke:#000000;stroke-width:1.0;stroke-dasharray:2.0,2.0;" x1="10" x2="1836.5" y1="1253.2891" y2="1253.2891"/><text fill="#000000" font-family="sans-serif" font-size="11" font-weight="bold" lengthAdjust="spacing" textLength="39" x="15" y="1263.9238">[reject]</text><polygon fill="#181818" points="518.5,1284.5547,528.5,1288.5547,518.5,1292.5547,522.5,1288.5547" style="stroke:#181818;stroke-width:1.0;"/><line style="stroke:#181818;stroke-width:1.0;" x1="48.5" x2="524.5" y1="1288.5547" y2="1288.5547"/><text fill="#000000" font-family="sans-serif" font-size="13" font-weight="bold" lengthAdjust="spacing" textLength="18" x="55.5" y="1283.8125">38</text><text fill="#000000" font-family="sans-serif" font-size="13" lengthAdjust="spacing" textLength="35" x="77.5" y="1283.8125">reject</text><polygon fill="#181818" points="59.5,1313.8652,49.5,1317.8652,59.5,1321.8652,55.5,1317.8652" style="stroke:#181818;stroke-width:1.0;"/><line style="stroke:#181818;stroke-width:1.0;stroke-dasharray:2.0,2.0;" x1="53.5" x2="529.5" y1="1317.8652" y2="1317.8652"/><text fill="#000000" font-family="sans-serif" font-size="13" font-weight="bold" lengthAdjust="spacing" textLength="18" x="65.5" y="1313.123">39</text><text fill="#000000" font-family="sans-serif" font-size="13" lengthAdjust="spacing" textLength="174" x="87.5" y="1313.123">request the motive to reject</text><polygon fill="#181818" points="518.5,1343.1758,528.5,1347.1758,518.5,1351.1758,522.5,1347.1758" style="stroke:#181818;stroke-width:1.0;"/><line style="stroke:#181818;stroke-width:1.0;" x1="48.5" x2="524.5" y1="1347.1758" y2="1347.1758"/><text fill="#000000" font-family="sans-serif" font-size="13" font-weight="bold" lengthAdjust="spacing" textLength="18" x="55.5" y="1342.4336">40</text><text fill="#000000" font-family="sans-serif" font-size="13" lengthAdjust="spacing" textLength="154" x="77.5" y="1342.4336">type the motive to reject</text><polygon fill="#181818" points="755.5,1372.4863,765.5,1376.4863,755.5,1380.4863,759.5,1376.4863" style="stroke:#181818;stroke-width:1.0;"/><line style="stroke:#181818;stroke-width:1.0;" x1="540.5" x2="761.5" y1="1376.4863" y2="1376.4863"/><text fill="#000000" font-family="sans-serif" font-size="13" font-weight="bold" lengthAdjust="spacing" textLength="18" x="547.5" y="1371.7441">41</text><text fill="#000000" font-family="sans-serif" font-size="13" lengthAdjust="spacing" textLength="66" x="569.5" y="1371.7441">getReject()</text><polygon fill="#181818" points="1552,1401.7969,1562,1405.7969,1552,1409.7969,1556,1405.7969" style="stroke:#181818;stroke-width:1.0;"/><line style="stroke:#181818;stroke-width:1.0;" x1="777.5" x2="1558" y1="1405.7969" y2="1405.7969"/><text fill="#000000" font-family="sans-serif" font-size="13" font-weight="bold" lengthAdjust="spacing" textLength="18" x="784.5" y="1401.0547">42</text><text fill="#000000" font-family="sans-serif" font-size="13" lengthAdjust="spacing" textLength="81" x="806.5" y="1401.0547">getInstance()</text><polygon fill="#181818" points="788.5,1431.1074,778.5,1435.1074,788.5,1439.1074,784.5,1435.1074" style="stroke:#181818;stroke-width:1.0;"/><line style="stroke:#181818;stroke-width:1.0;stroke-dasharray:2.0,2.0;" x1="782.5" x2="1568" y1="1435.1074" y2="1435.1074"/><text fill="#000000" font-family="sans-serif" font-size="13" font-weight="bold" lengthAdjust="spacing" textLength="18" x="794.5" y="1430.3652">43</text><text fill="#000000" font-family="sans-serif" font-size="13" lengthAdjust="spacing" textLength="75" x="816.5" y="1430.3652">repositories</text><line style="stroke:#181818;stroke-width:1.0;" x1="777.5" x2="819.5" y1="1464.418" y2="1464.418"/><line style="stroke:#181818;stroke-width:1.0;" x1="819.5" x2="819.5" y1="1464.418" y2="1477.418"/><line style="stroke:#181818;stroke-width:1.0;" x1="778.5" x2="819.5" y1="1477.418" y2="1477.418"/><polygon fill="#181818" points="788.5,1473.418,778.5,1477.418,788.5,1481.418,784.5,1477.418" style="stroke:#181818;stroke-width:1.0;"/><text fill="#000000" font-family="sans-serif" font-size="13" font-weight="bold" lengthAdjust="spacing" textLength="18" x="784.5" y="1459.6758">44</text><text fill="#000000" font-family="sans-serif" font-size="13" lengthAdjust="spacing" textLength="190" x="806.5" y="1459.6758">getAnnouncementRepository()</text><polygon fill="#181818" points="1711.5,1502.7285,1721.5,1506.7285,1711.5,1510.7285,1715.5,1506.7285" style="stroke:#181818;stroke-width:1.0;"/><line style="stroke:#181818;stroke-width:1.0;" x1="777.5" x2="1717.5" y1="1506.7285" y2="1506.7285"/><text fill="#000000" font-family="sans-serif" font-size="13" font-weight="bold" lengthAdjust="spacing" textLength="18" x="784.5" y="1501.9863">45</text><text fill="#000000" font-family="sans-serif" font-size="13" lengthAdjust="spacing" textLength="66" x="806.5" y="1501.9863">getReject()</text><polygon fill="#181818" points="788.5,1532.0391,778.5,1536.0391,788.5,1540.0391,784.5,1536.0391" style="stroke:#181818;stroke-width:1.0;"/><line style="stroke:#181818;stroke-width:1.0;stroke-dasharray:2.0,2.0;" x1="782.5" x2="1722.5" y1="1536.0391" y2="1536.0391"/><text fill="#000000" font-family="sans-serif" font-size="13" font-weight="bold" lengthAdjust="spacing" textLength="18" x="794.5" y="1531.2969">46</text><text fill="#000000" font-family="sans-serif" font-size="13" lengthAdjust="spacing" textLength="38" x="816.5" y="1531.2969">Reject</text><polygon fill="#181818" points="551.5,1561.3496,541.5,1565.3496,551.5,1569.3496,547.5,1565.3496" style="stroke:#181818;stroke-width:1.0;"/><line style="stroke:#181818;stroke-width:1.0;stroke-dasharray:2.0,2.0;" x1="545.5" x2="766.5" y1="1565.3496" y2="1565.3496"/><text fill="#000000" font-family="sans-serif" font-size="13" font-weight="bold" lengthAdjust="spacing" textLength="18" x="557.5" y="1560.6074">47</text><text fill="#000000" font-family="sans-serif" font-size="13" lengthAdjust="spacing" textLength="35" x="579.5" y="1560.6074">reject</text><polygon fill="#181818" points="59.5,1590.6602,49.5,1594.6602,59.5,1598.6602,55.5,1594.6602" style="stroke:#181818;stroke-width:1.0;"/><line style="stroke:#181818;stroke-width:1.0;stroke-dasharray:2.0,2.0;" x1="53.5" x2="529.5" y1="1594.6602" y2="1594.6602"/><text fill="#000000" font-family="sans-serif" font-size="13" font-weight="bold" lengthAdjust="spacing" textLength="18" x="65.5" y="1589.918">48</text><text fill="#000000" font-family="sans-serif" font-size="13" lengthAdjust="spacing" textLength="156" x="87.5" y="1589.918">display operation sucess</text><polygon fill="#181818" points="54.5,1626.9707,44.5,1630.9707,54.5,1634.9707,50.5,1630.9707" style="stroke:#181818;stroke-width:1.0;"/><line style="stroke:#181818;stroke-width:1.0;stroke-dasharray:2.0,2.0;" x1="48.5" x2="534.5" y1="1630.9707" y2="1630.9707"/><text fill="#000000" font-family="sans-serif" font-size="13" font-weight="bold" lengthAdjust="spacing" textLength="18" x="60.5" y="1626.2285">49</text><text fill="#000000" font-family="sans-serif" font-size="13" lengthAdjust="spacing" textLength="156" x="82.5" y="1626.2285">display operation sucess</text><!--SRC=[dLVHJjim57tFLrYy31xu0QHD2gYhaD26sl4sQJBffJKuTcOxOzdNxyPf4jknqnHUeF6znyVt79yK_SP4HHKjIIc5B0vAba2CgY7Jmqf5YpUwXwrfE105XQ5Ypzq2VQ0x-Sx4dhnGhY7BQ6sagCjdK5dswS1sG5waDC_oRqOB8nMvoFSWp0MXckJh344CArX5XI4NDxaGiXO5b5YnWTyrQAEVxctjq_s2sZifZ9ASWx8zTpys3s5NLN5MKCEas8BM-CjM_ieV7_rAMbN7WfyYrJLfAcgbaCxO-AH1kHtRrNQRV_UR55HICnmD0uqj6-UZxTci7cUFVYnlEahk4ZRY3uwT_Q46sd5dvFYJhydr5nmgkS6kDqsC91fG_GCGwa2WvDraXyO13GNfdo4CWhNJHhWzc9WqbrTJ2AjF_xJhzt1MPSLb0_0LdNcS8iAC7KDBAv_jk1SQ7Lg0ivk_fHLwVDv-xFV4IGoQ-zra1pv0X4BFuCwpGCXZ91B0M1u34Tz7QJ8-I4-bCnaUfxretoXUwiyjizQBxQVRPbLInjFKZYPrbhid0q7YOAV9zJ1p2iUSSflts9V3BbSH5BGtcHNTEPAz2iFZjdCSjdl_GW3dE3x4b4NyKauvfKWTQGtJYUDDqD8CHslwcU3G3GRVH2UVv3_96gSetFCwTJ3SskW7fitSoSATWYFsIPP2zeAg7SWQY_L1li_aNImfDN1y0oQRsX2bWlBc7sIBij4DirDtmp7Kj2cOJsoZfI86TGjrp9Ph5vQc9OphLYdGxT0fvrO99bwaAksxcT1dMS_eq-a7kpbngI2oic3NEAG2AaFmIuk2LrmS-oWt9BUhyLTgjpIXVpFuov8iP5aoF-8zGYQiIhlARkZAV4PAdWocSrFpL3QvNb-MdVDH5Xx-fBddNErBjo24V0EdfTynNN7QeBr0TNRL6C1QE_SPy1jqxxM88u8LzrOC4OI6AIKoXZQDqb2cgM2-EBJOnYv7D3dXCCy2_SFi0yuAt1I7-f2x5hbiSlvpetJETHj_zd5hgNZHalVaENQS37Rw1uWTSH9YaSb74jc9hC3_B6OFkSx-0m00]--></g></svg>