<?xml version="1.0" encoding="us-ascii" standalone="no"?><svg xmlns="http://www.w3.org/2000/svg" xmlns:xlink="http://www.w3.org/1999/xlink" contentStyleType="text/css" height="764px" preserveAspectRatio="none" style="width:969px;height:764px;background:#FFFFFF;" version="1.1" viewBox="0 0 969 764" width="969px" zoomAndPan="magnify"><defs/><g><!--class AnnouncementRequestUI--><g id="elem_AnnouncementRequestUI"><rect codeLine="11" fill="#F1F1F1" height="48" id="AnnouncementRequestUI" rx="2.5" ry="2.5" style="stroke:#181818;stroke-width:0.5;" width="206" x="7" y="31.5"/><ellipse cx="22" cy="47.5" fill="#ADD1B2" rx="11" ry="11" style="stroke:#181818;stroke-width:1.0;"/><path d="M24.9731,53.1431 Q24.3921,53.4419 23.7529,53.5913 Q23.1138,53.7407 22.4082,53.7407 Q19.9014,53.7407 18.5815,52.0889 Q17.2617,50.437 17.2617,47.3159 Q17.2617,44.1865 18.5815,42.5347 Q19.9014,40.8828 22.4082,40.8828 Q23.1138,40.8828 23.7612,41.0322 Q24.4087,41.1816 24.9731,41.4805 L24.9731,44.2031 Q24.3423,43.6221 23.7488,43.3523 Q23.1553,43.0825 22.5244,43.0825 Q21.1797,43.0825 20.4949,44.1492 Q19.8101,45.2158 19.8101,47.3159 Q19.8101,49.4077 20.4949,50.4744 Q21.1797,51.541 22.5244,51.541 Q23.1553,51.541 23.7488,51.2712 Q24.3423,51.0015 24.9731,50.4204 Z " fill="#000000"/><text fill="#000000" font-family="sans-serif" font-size="14" lengthAdjust="spacing" textLength="174" x="36" y="52.791">AnnouncementRequestUI</text><line style="stroke:#181818;stroke-width:0.5;" x1="8" x2="212" y1="63.5" y2="63.5"/><line style="stroke:#181818;stroke-width:0.5;" x1="8" x2="212" y1="71.5" y2="71.5"/></g><!--class AnnouncementRequestController--><g id="elem_AnnouncementRequestController"><rect codeLine="14" fill="#F1F1F1" height="80.9766" id="AnnouncementRequestController" rx="2.5" ry="2.5" style="stroke:#181818;stroke-width:0.5;" width="270" x="248" y="15"/><ellipse cx="266.6" cy="31" fill="#ADD1B2" rx="11" ry="11" style="stroke:#181818;stroke-width:1.0;"/><path d="M269.5731,36.6431 Q268.9921,36.9419 268.3529,37.0913 Q267.7138,37.2407 267.0082,37.2407 Q264.5014,37.2407 263.1815,35.5889 Q261.8617,33.937 261.8617,30.8159 Q261.8617,27.6865 263.1815,26.0347 Q264.5014,24.3828 267.0082,24.3828 Q267.7138,24.3828 268.3612,24.5322 Q269.0087,24.6816 269.5731,24.9805 L269.5731,27.7031 Q268.9423,27.1221 268.3488,26.8523 Q267.7553,26.5825 267.1244,26.5825 Q265.7797,26.5825 265.0949,27.6492 Q264.4101,28.7158 264.4101,30.8159 Q264.4101,32.9077 265.0949,33.9744 Q265.7797,35.041 267.1244,35.041 Q267.7553,35.041 268.3488,34.7712 Q268.9423,34.5015 269.5731,33.9204 Z " fill="#000000"/><text fill="#000000" font-family="sans-serif" font-size="14" lengthAdjust="spacing" textLength="230" x="281.4" y="36.291">AnnouncementRequestController</text><line style="stroke:#181818;stroke-width:0.5;" x1="249" x2="517" y1="47" y2="47"/><line style="stroke:#181818;stroke-width:0.5;" x1="249" x2="517" y1="55" y2="55"/><text fill="#000000" font-family="sans-serif" font-size="14" lengthAdjust="spacing" textLength="258" x="254" y="72.5352">+AnnouncementRequestsController()</text><text fill="#000000" font-family="sans-serif" font-size="14" lengthAdjust="spacing" textLength="194" x="254" y="89.0234">-getEmployeeFromSession()</text></g><!--class ApplicationSession--><g id="elem_ApplicationSession"><rect codeLine="20" fill="#F1F1F1" height="80.9766" id="ApplicationSession" rx="2.5" ry="2.5" style="stroke:#181818;stroke-width:0.5;" width="162" x="35" y="197.5"/><ellipse cx="50" cy="213.5" fill="#ADD1B2" rx="11" ry="11" style="stroke:#181818;stroke-width:1.0;"/><path d="M52.9731,219.1431 Q52.3921,219.4419 51.7529,219.5913 Q51.1138,219.7407 50.4082,219.7407 Q47.9014,219.7407 46.5815,218.0889 Q45.2617,216.437 45.2617,213.3159 Q45.2617,210.1865 46.5815,208.5347 Q47.9014,206.8828 50.4082,206.8828 Q51.1138,206.8828 51.7612,207.0322 Q52.4087,207.1816 52.9731,207.4805 L52.9731,210.2031 Q52.3423,209.6221 51.7488,209.3523 Q51.1553,209.0825 50.5244,209.0825 Q49.1797,209.0825 48.4949,210.1492 Q47.8101,211.2158 47.8101,213.3159 Q47.8101,215.4077 48.4949,216.4744 Q49.1797,217.541 50.5244,217.541 Q51.1553,217.541 51.7488,217.2712 Q52.3423,217.0015 52.9731,216.4204 Z " fill="#000000"/><text fill="#000000" font-family="sans-serif" font-size="14" lengthAdjust="spacing" textLength="130" x="64" y="218.791">ApplicationSession</text><line style="stroke:#181818;stroke-width:0.5;" x1="36" x2="196" y1="229.5" y2="229.5"/><line style="stroke:#181818;stroke-width:0.5;" x1="36" x2="196" y1="237.5" y2="237.5"/><text fill="#000000" font-family="sans-serif" font-size="14" lengthAdjust="spacing" textLength="140" x="41" y="255.0352">+static getInstance()</text><text fill="#000000" font-family="sans-serif" font-size="14" lengthAdjust="spacing" textLength="148" x="41" y="271.5234">+getCurrentSession()</text></g><!--class UserSession--><g id="elem_UserSession"><rect codeLine="26" fill="#F1F1F1" height="64.4883" id="UserSession" rx="2.5" ry="2.5" style="stroke:#181818;stroke-width:0.5;" width="177" x="151.5" y="388.5"/><ellipse cx="194.4" cy="404.5" fill="#ADD1B2" rx="11" ry="11" style="stroke:#181818;stroke-width:1.0;"/><path d="M197.3731,410.1431 Q196.7921,410.4419 196.1529,410.5913 Q195.5138,410.7407 194.8082,410.7407 Q192.3014,410.7407 190.9815,409.0889 Q189.6617,407.437 189.6617,404.3159 Q189.6617,401.1865 190.9815,399.5347 Q192.3014,397.8828 194.8082,397.8828 Q195.5138,397.8828 196.1612,398.0322 Q196.8087,398.1816 197.3731,398.4805 L197.3731,401.2031 Q196.7423,400.6221 196.1488,400.3523 Q195.5553,400.0825 194.9244,400.0825 Q193.5797,400.0825 192.8949,401.1492 Q192.2101,402.2158 192.2101,404.3159 Q192.2101,406.4077 192.8949,407.4744 Q193.5797,408.541 194.9244,408.541 Q195.5553,408.541 196.1488,408.2712 Q196.7423,408.0015 197.3731,407.4204 Z " fill="#000000"/><text fill="#000000" font-family="sans-serif" font-size="14" lengthAdjust="spacing" textLength="83" x="214.6" y="409.791">UserSession</text><line style="stroke:#181818;stroke-width:0.5;" x1="152.5" x2="327.5" y1="420.5" y2="420.5"/><line style="stroke:#181818;stroke-width:0.5;" x1="152.5" x2="327.5" y1="428.5" y2="428.5"/><text fill="#000000" font-family="sans-serif" font-size="14" lengthAdjust="spacing" textLength="165" x="157.5" y="446.0352">+getUserNameByEmail()</text></g><!--class Repositories--><g id="elem_Repositories"><rect codeLine="32" fill="#F1F1F1" height="97.4648" id="Repositories" rx="2.5" ry="2.5" style="stroke:#181818;stroke-width:0.5;" width="233" x="629.5" y="7"/><ellipse cx="699.25" cy="23" fill="#ADD1B2" rx="11" ry="11" style="stroke:#181818;stroke-width:1.0;"/><path d="M702.2231,28.6431 Q701.6421,28.9419 701.0029,29.0913 Q700.3638,29.2407 699.6582,29.2407 Q697.1514,29.2407 695.8315,27.5889 Q694.5117,25.937 694.5117,22.8159 Q694.5117,19.6865 695.8315,18.0347 Q697.1514,16.3828 699.6582,16.3828 Q700.3638,16.3828 701.0112,16.5322 Q701.6587,16.6816 702.2231,16.9805 L702.2231,19.7031 Q701.5923,19.1221 700.9988,18.8523 Q700.4053,18.5825 699.7744,18.5825 Q698.4297,18.5825 697.7449,19.6492 Q697.0601,20.7158 697.0601,22.8159 Q697.0601,24.9077 697.7449,25.9744 Q698.4297,27.041 699.7744,27.041 Q700.4053,27.041 700.9988,26.7712 Q701.5923,26.5015 702.2231,25.9204 Z " fill="#000000"/><text fill="#000000" font-family="sans-serif" font-size="14" lengthAdjust="spacing" textLength="85" x="719.75" y="28.291">Repositories</text><line style="stroke:#181818;stroke-width:0.5;" x1="630.5" x2="861.5" y1="39" y2="39"/><line style="stroke:#181818;stroke-width:0.5;" x1="630.5" x2="861.5" y1="47" y2="47"/><text fill="#000000" font-family="sans-serif" font-size="14" lengthAdjust="spacing" textLength="103" x="635.5" y="64.5352">-Repositories()</text><text fill="#000000" font-family="sans-serif" font-size="14" lengthAdjust="spacing" textLength="197" x="635.5" y="81.0234">+getInstance() : Repositories</text><text fill="#000000" font-family="sans-serif" font-size="14" lengthAdjust="spacing" textLength="221" x="635.5" y="97.5117">+getAnnouncementRepository()</text></g><!--class AnnouncementRepository--><g id="elem_AnnouncementRepository"><rect codeLine="38" fill="#F1F1F1" height="113.9531" id="AnnouncementRepository" rx="2.5" ry="2.5" style="stroke:#181818;stroke-width:0.5;" width="222" x="386" y="181"/><ellipse cx="406.4" cy="197" fill="#ADD1B2" rx="11" ry="11" style="stroke:#181818;stroke-width:1.0;"/><path d="M409.3731,202.6431 Q408.7921,202.9419 408.1529,203.0913 Q407.5138,203.2407 406.8082,203.2407 Q404.3014,203.2407 402.9815,201.5889 Q401.6617,199.937 401.6617,196.8159 Q401.6617,193.6865 402.9815,192.0347 Q404.3014,190.3828 406.8082,190.3828 Q407.5138,190.3828 408.1612,190.5322 Q408.8087,190.6816 409.3731,190.9805 L409.3731,193.7031 Q408.7423,193.1221 408.1488,192.8523 Q407.5553,192.5825 406.9244,192.5825 Q405.5797,192.5825 404.8949,193.6492 Q404.2101,194.7158 404.2101,196.8159 Q404.2101,198.9077 404.8949,199.9744 Q405.5797,201.041 406.9244,201.041 Q407.5553,201.041 408.1488,200.7712 Q408.7423,200.5015 409.3731,199.9204 Z " fill="#000000"/><text fill="#000000" font-family="sans-serif" font-size="14" lengthAdjust="spacing" textLength="178" x="421.6" y="202.291">AnnouncementRepository</text><line style="stroke:#181818;stroke-width:0.5;" x1="387" x2="607" y1="213" y2="213"/><line style="stroke:#181818;stroke-width:0.5;" x1="387" x2="607" y1="221" y2="221"/><text fill="#000000" font-family="sans-serif" font-size="14" lengthAdjust="spacing" textLength="148" x="392" y="238.5352">+getAnnouncement()</text><text fill="#000000" font-family="sans-serif" font-size="14" lengthAdjust="spacing" textLength="210" x="392" y="255.0234">+getAnnouncementRequests()</text><text fill="#000000" font-family="sans-serif" font-size="14" lengthAdjust="spacing" textLength="89" x="392" y="271.5117">+getAccept()</text><text fill="#000000" font-family="sans-serif" font-size="14" lengthAdjust="spacing" textLength="84" x="392" y="288">+getReject()</text></g><!--class Announcement--><g id="elem_Announcement"><rect codeLine="46" fill="#F1F1F1" height="97.4648" id="Announcement" rx="2.5" ry="2.5" style="stroke:#181818;stroke-width:0.5;" width="137" x="428.5" y="372"/><ellipse cx="443.5" cy="388" fill="#ADD1B2" rx="11" ry="11" style="stroke:#181818;stroke-width:1.0;"/><path d="M446.4731,393.6431 Q445.8921,393.9419 445.2529,394.0913 Q444.6138,394.2407 443.9082,394.2407 Q441.4014,394.2407 440.0815,392.5889 Q438.7617,390.937 438.7617,387.8159 Q438.7617,384.6865 440.0815,383.0347 Q441.4014,381.3828 443.9082,381.3828 Q444.6138,381.3828 445.2612,381.5322 Q445.9087,381.6816 446.4731,381.9805 L446.4731,384.7031 Q445.8423,384.1221 445.2488,383.8523 Q444.6553,383.5825 444.0244,383.5825 Q442.6797,383.5825 441.9949,384.6492 Q441.3101,385.7158 441.3101,387.8159 Q441.3101,389.9077 441.9949,390.9744 Q442.6797,392.041 444.0244,392.041 Q444.6553,392.041 445.2488,391.7712 Q445.8423,391.5015 446.4731,390.9204 Z " fill="#000000"/><text fill="#000000" font-family="sans-serif" font-size="14" lengthAdjust="spacing" textLength="105" x="457.5" y="393.291">Announcement</text><line style="stroke:#181818;stroke-width:0.5;" x1="429.5" x2="564.5" y1="404" y2="404"/><text fill="#000000" font-family="sans-serif" font-size="14" lengthAdjust="spacing" textLength="49" x="434.5" y="421.5352">-status</text><text fill="#000000" font-family="sans-serif" font-size="14" lengthAdjust="spacing" textLength="38" x="434.5" y="438.0234">-date</text><text fill="#000000" font-family="sans-serif" font-size="14" lengthAdjust="spacing" textLength="90" x="434.5" y="454.5117">-commission</text><line style="stroke:#181818;stroke-width:0.5;" x1="429.5" x2="564.5" y1="461.4648" y2="461.4648"/></g><!--class Property--><g id="elem_Property"><rect codeLine="52" fill="#F1F1F1" height="113.9531" id="Property" rx="2.5" ry="2.5" style="stroke:#181818;stroke-width:0.5;" width="261" x="530.5" y="602"/><ellipse cx="627.75" cy="618" fill="#ADD1B2" rx="11" ry="11" style="stroke:#181818;stroke-width:1.0;"/><path d="M630.7231,623.6431 Q630.1421,623.9419 629.5029,624.0913 Q628.8638,624.2407 628.1582,624.2407 Q625.6514,624.2407 624.3315,622.5889 Q623.0117,620.937 623.0117,617.8159 Q623.0117,614.6865 624.3315,613.0347 Q625.6514,611.3828 628.1582,611.3828 Q628.8638,611.3828 629.5112,611.5322 Q630.1587,611.6816 630.7231,611.9805 L630.7231,614.7031 Q630.0923,614.1221 629.4988,613.8523 Q628.9053,613.5825 628.2744,613.5825 Q626.9297,613.5825 626.2449,614.6492 Q625.5601,615.7158 625.5601,617.8159 Q625.5601,619.9077 626.2449,620.9744 Q626.9297,622.041 628.2744,622.041 Q628.9053,622.041 629.4988,621.7712 Q630.0923,621.5015 630.7231,620.9204 Z " fill="#000000"/><text fill="#000000" font-family="sans-serif" font-size="14" lengthAdjust="spacing" textLength="58" x="648.25" y="623.291">Property</text><line style="stroke:#181818;stroke-width:0.5;" x1="531.5" x2="790.5" y1="634" y2="634"/><text fill="#000000" font-family="sans-serif" font-size="14" lengthAdjust="spacing" textLength="112" x="536.5" y="651.5352">-String Business</text><text fill="#000000" font-family="sans-serif" font-size="14" lengthAdjust="spacing" textLength="70" x="536.5" y="668.0234">-float size</text><text fill="#000000" font-family="sans-serif" font-size="14" lengthAdjust="spacing" textLength="249" x="536.5" y="684.5117">-float distance_from_the_city_center</text><text fill="#000000" font-family="sans-serif" font-size="14" lengthAdjust="spacing" textLength="77" x="536.5" y="701">-float price</text><line style="stroke:#181818;stroke-width:0.5;" x1="531.5" x2="790.5" y1="707.9531" y2="707.9531"/></g><!--class Agent--><g id="elem_Agent"><rect codeLine="61" fill="#F1F1F1" height="196.3945" id="Agent" rx="2.5" ry="2.5" style="stroke:#181818;stroke-width:0.5;" width="232" x="263" y="561"/><ellipse cx="354.25" cy="577" fill="#ADD1B2" rx="11" ry="11" style="stroke:#181818;stroke-width:1.0;"/><path d="M357.2231,582.6431 Q356.6421,582.9419 356.0029,583.0913 Q355.3638,583.2407 354.6582,583.2407 Q352.1514,583.2407 350.8315,581.5889 Q349.5117,579.937 349.5117,576.8159 Q349.5117,573.6865 350.8315,572.0347 Q352.1514,570.3828 354.6582,570.3828 Q355.3638,570.3828 356.0112,570.5322 Q356.6587,570.6816 357.2231,570.9805 L357.2231,573.7031 Q356.5923,573.1221 355.9988,572.8523 Q355.4053,572.5825 354.7744,572.5825 Q353.4297,572.5825 352.7449,573.6492 Q352.0601,574.7158 352.0601,576.8159 Q352.0601,578.9077 352.7449,579.9744 Q353.4297,581.041 354.7744,581.041 Q355.4053,581.041 355.9988,580.7712 Q356.5923,580.5015 357.2231,579.9204 Z " fill="#000000"/><text fill="#000000" font-family="sans-serif" font-size="14" lengthAdjust="spacing" textLength="41" x="374.75" y="582.291">Agent</text><line style="stroke:#181818;stroke-width:0.5;" x1="264" x2="494" y1="593" y2="593"/><text fill="#000000" font-family="sans-serif" font-size="14" lengthAdjust="spacing" textLength="112" x="269" y="610.5352">-string passport</text><text fill="#000000" font-family="sans-serif" font-size="14" lengthAdjust="spacing" textLength="107" x="269" y="627.0234">-int taxNumber</text><text fill="#000000" font-family="sans-serif" font-size="14" lengthAdjust="spacing" textLength="106" x="269" y="643.5117">-string address</text><text fill="#000000" font-family="sans-serif" font-size="14" lengthAdjust="spacing" textLength="129" x="269" y="660">-int phoneNumber</text><text fill="#000000" font-family="sans-serif" font-size="14" lengthAdjust="spacing" textLength="100" x="269" y="676.4883">-string agency</text><text fill="#000000" font-family="sans-serif" font-size="14" lengthAdjust="spacing" textLength="89" x="269" y="692.9766">-string email</text><line style="stroke:#181818;stroke-width:0.5;" x1="264" x2="494" y1="699.9297" y2="699.9297"/><text fill="#000000" font-family="sans-serif" font-size="14" lengthAdjust="spacing" textLength="220" x="269" y="717.4648">+ViewAnnouncementRequests()</text><text fill="#000000" font-family="sans-serif" font-size="14" lengthAdjust="spacing" textLength="67" x="269" y="733.9531">+Accept()</text><text fill="#000000" font-family="sans-serif" font-size="14" lengthAdjust="spacing" textLength="62" x="269" y="750.4414">+Reject()</text></g><!--link Repositories to Repositories--><g id="link_Repositories_Repositories"><path codeLine="76" d="M862.88,40.21 C883.3,42.25 897.5,47.34 897.5,55.5 C897.5,62.89 885.84,67.77 868.45,70.14 " fill="none" id="Repositories-to-Repositories" style="stroke:#181818;stroke-width:1.0;"/><polygon fill="#181818" points="863.88,70.79,873.2862,73.7095,868.8457,70.205,872.3502,65.7644,863.88,70.79" style="stroke:#181818;stroke-width:1.0;"/><text fill="#000000" font-family="sans-serif" font-size="13" lengthAdjust="spacing" textLength="53" x="903.5" y="60.5684">instance</text></g><!--link ApplicationSession to ApplicationSession--><g id="link_ApplicationSession_ApplicationSession"><path codeLine="77" d="M197.31,220.37 C217.2,221.68 232,227.55 232,238 C232,247.38 220.05,253.08 203.2,255.09 " fill="none" id="ApplicationSession-to-ApplicationSession" style="stroke:#181818;stroke-width:1.0;"/><polygon fill="#181818" points="198.31,255.63,207.6385,258.7891,203.289,255.1722,206.9059,250.8227,198.31,255.63" style="stroke:#181818;stroke-width:1.0;"/><text fill="#000000" font-family="sans-serif" font-size="13" lengthAdjust="spacing" textLength="53" x="238" y="243.0684">instance</text></g><!--link AnnouncementRequestController to Repositories--><g id="link_AnnouncementRequestController_Repositories"><path codeLine="78" d="M518.43,55.5 C552.8,55.5 589.54,55.5 623.25,55.5 " fill="none" id="AnnouncementRequestController-to-Repositories" style="stroke:#181818;stroke-width:1.0;stroke-dasharray:7.0,7.0;"/><polygon fill="#181818" points="628.07,55.5,619.07,51.5,623.07,55.5,619.07,59.5,628.07,55.5" style="stroke:#181818;stroke-width:1.0;"/><text fill="#000000" font-family="sans-serif" font-size="13" lengthAdjust="spacing" textLength="75" x="536.25" y="49.0684">repositories</text></g><!--link ApplicationSession to UserSession--><g id="link_ApplicationSession_UserSession"><path codeLine="81" d="M143.21,278.61 C164.66,309.84 194.33,353.02 215.15,383.32 " fill="none" id="ApplicationSession-to-UserSession" style="stroke:#181818;stroke-width:1.0;"/><polygon fill="#181818" points="218.41,387.07,216.6074,377.3875,215.5774,382.9498,210.0151,381.9197,218.41,387.07" style="stroke:#181818;stroke-width:1.0;"/><text fill="#000000" font-family="sans-serif" font-size="13" lengthAdjust="spacing" textLength="75" x="187" y="338.5684">userSession</text><text fill="#000000" font-family="sans-serif" font-size="13" lengthAdjust="spacing" textLength="8" x="205.372" y="377.7596">1</text></g><!--link AnnouncementRequestController to ApplicationSession--><g id="link_AnnouncementRequestController_ApplicationSession"><path codeLine="84" d="M324.08,96.33 C281.25,125.28 223.36,164.42 179.51,194.07 " fill="none" id="AnnouncementRequestController-to-ApplicationSession" style="stroke:#181818;stroke-width:1.0;stroke-dasharray:7.0,7.0;"/><polygon fill="#181818" points="175.77,197.27,185.4665,195.5444,179.9126,194.4702,180.9868,188.9163,175.77,197.27" style="stroke:#181818;stroke-width:1.0;"/></g><!--link AnnouncementRequestController to UserSession--><g id="link_AnnouncementRequestController_UserSession"><path codeLine="85" d="M368.61,96.42 C344.12,164.31 297,295 297,295 C297,295 273.63,346.06 256.81,382.78 " fill="none" id="AnnouncementRequestController-to-UserSession" style="stroke:#181818;stroke-width:1.0;stroke-dasharray:7.0,7.0;"/><polygon fill="#181818" points="254.38,387.08,261.7626,380.561,256.4608,382.5336,254.4883,377.2317,254.38,387.08" style="stroke:#181818;stroke-width:1.0;"/></g><!--link AnnouncementRequestUI to AnnouncementRequestController--><g id="link_AnnouncementRequestUI_AnnouncementRequestController"><path codeLine="87" d="M213.27,55.5 C220.89,55.5 231.23,55.5 241.91,55.5 " fill="none" id="AnnouncementRequestUI-to-AnnouncementRequestController" style="stroke:#181818;stroke-width:1.0;stroke-dasharray:7.0,7.0;"/><polygon fill="#181818" points="246.87,55.5,237.87,51.5,241.87,55.5,237.87,59.5,246.87,55.5" style="stroke:#181818;stroke-width:1.0;"/></g><!--link AnnouncementRequestController to Property--><g id="link_AnnouncementRequestController_Property"><path codeLine="89" d="M501.19,96.5 C557.18,115.45 612,134 612,134 C612,134 625,181 625,181 C625,181 646.6,467.22 656.34,596.23 " fill="none" id="AnnouncementRequestController-to-Property" style="stroke:#181818;stroke-width:1.0;stroke-dasharray:7.0,7.0;"/><polygon fill="#181818" points="656.76,600.88,660.0539,591.5983,656.3743,595.8949,652.0777,592.2153,656.76,600.88" style="stroke:#181818;stroke-width:1.0;"/></g><!--link AnnouncementRequestController to AnnouncementRepository--><g id="link_AnnouncementRequestController_AnnouncementRepository"><path codeLine="91" d="M408.02,96.11 C422.76,119.46 441.73,149.5 458.37,175.83 " fill="none" id="AnnouncementRequestController-to-AnnouncementRepository" style="stroke:#181818;stroke-width:1.0;stroke-dasharray:7.0,7.0;"/><polygon fill="#181818" points="461.44,179.7,460.0148,169.9548,458.7695,175.4729,453.2514,174.2276,461.44,179.7" style="stroke:#181818;stroke-width:1.0;"/><text fill="#000000" font-family="sans-serif" font-size="13" lengthAdjust="spacing" textLength="162" x="441" y="147.5684">AnnouncementRepository</text></g><!--link AnnouncementRepository to Announcement--><g id="link_AnnouncementRepository_Announcement"><path codeLine="93" d="M497,295.12 C497,317.64 497,343.47 497,365.75 " fill="none" id="AnnouncementRepository-to-Announcement" style="stroke:#181818;stroke-width:1.0;"/><polygon fill="#181818" points="497,370.63,501,361.63,497,365.63,493,361.63,497,370.63" style="stroke:#181818;stroke-width:1.0;"/><text fill="#000000" font-family="sans-serif" font-size="13" lengthAdjust="spacing" textLength="6" x="490.5781" y="361.2605">*</text></g><!--link Announcement to Property--><g id="link_Announcement_Property"><path codeLine="95" d="M530.19,469.36 C555.73,506.19 591.21,557.36 618.77,597.11 " fill="none" id="Announcement-to-Property" style="stroke:#181818;stroke-width:1.0;"/><polygon fill="#181818" points="622.1,600.9,620.2361,591.2291,619.2413,596.7978,613.6726,595.803,622.1,600.9" style="stroke:#181818;stroke-width:1.0;"/><text fill="#000000" font-family="sans-serif" font-size="13" lengthAdjust="spacing" textLength="53" x="571" y="520.0684">property</text><text fill="#000000" font-family="sans-serif" font-size="13" lengthAdjust="spacing" textLength="8" x="526.4773" y="490.1949">1</text><text fill="#000000" font-family="sans-serif" font-size="13" lengthAdjust="spacing" textLength="8" x="608.6034" y="591.2144">1</text></g><!--link Announcement to Agent--><g id="link_Announcement_Agent"><path codeLine="97" d="M428.28,469.48 C405.57,485.33 386,499 386,499 C386,499 384.88,524.55 383.53,555.16 " fill="none" id="Announcement-to-Agent" style="stroke:#181818;stroke-width:1.0;"/><polygon fill="#181818" points="383.27,559.93,387.6528,551.1101,383.4847,554.9346,379.6602,550.7665,383.27,559.93" style="stroke:#181818;stroke-width:1.0;"/><text fill="#000000" font-family="sans-serif" font-size="13" lengthAdjust="spacing" textLength="126" x="394.5" y="512.5684">publishedBy/seenBy</text><text fill="#000000" font-family="sans-serif" font-size="13" lengthAdjust="spacing" textLength="141" x="387" y="527.8789">acceptedBy/rejectedBy</text></g><!--SRC=[ZLHDRzim3BthLmYvP5kHRhlcCA0fMY2NOaZGdGO4YipOMcL9bMXqNh7_FieViPmOMNAIoKVowUany_2YZ1DUbBoqnih2sn8u-WhOa752leWSjbXhu1ua2fFh510AaTatPN9-43ga6QqCOEs0Ewlh-C7c4qdhqRAaIceHmXsYL_iAOIsjsQe_mBymDjTmG8wMUvKNo3CLwIXh66jg-9qnjZ8IIZ2uWTSA0ZwltzdV2_bxQz1RhS7pTyRfTpE52WFimyS6jk0vu4FfjAq17actBOH0L2YTp7DEAoaYnIxD-Y41AInZaxMXCuth6j_4s7tbFKqVUXvRFWVmfxse88QVH0ch-g4KIhSLNSa6d0qAhLSGkaikHi5qyi26BqUW0JBMfqFKASbfH4Vtf4C__AnnAtoQbX9SYj_0Bth_iU99Y_wgKUegT1-PG6YFqfQbQeKybd_tre77XkfYImuaKw-gG4uDiS7YeAr07iYEmrUcMiLs1tB13WlOIONrJX83y0FCUIMXUPMUQaw8_Zr2EyjHmj4-j455UHI_dwfottGQS2BBV4kfWxd26fW2qX1PZq8G3T9g-4F1soNHnugFv6PiPAl5jx7DbbnrHcBdIn3H4z6qvkAYtfuDywbHsUH8cZdxEaltX-ggP9lO_wRUJh6-eYXTMJRv5nLlTB7FDTnwxrvrZya59K6c4wSjZmMDgfzcex8nk16z5x-dkAHjc2BR0Dkz84YrroeKaAtgpm70hEgVHZI6R4A-SMCyidy0]--></g></svg>