<?xml version="1.0" encoding="us-ascii" standalone="no"?><svg xmlns="http://www.w3.org/2000/svg" xmlns:xlink="http://www.w3.org/1999/xlink" contentStyleType="text/css" height="909px" preserveAspectRatio="none" style="width:601px;height:909px;background:#FFFFFF;" version="1.1" viewBox="0 0 601 909" width="601px" zoomAndPan="magnify"><defs/><g><!--class NetworkMan--><g id="elem_NetworkMan"><rect codeLine="12" fill="#F1F1F1" height="35.6094" id="NetworkMan" rx="2.5" ry="2.5" style="stroke:#181818;stroke-width:0.5;" width="116" x="7" y="401.5"/><text fill="#000000" font-family="sans-serif" font-size="14" lengthAdjust="spacing" textLength="110" x="10" y="421.0332">Network Manager</text><line style="stroke:#181818;stroke-width:0.5;" x1="8" x2="122" y1="429.1094" y2="429.1094"/></g><!--class Agent--><g id="elem_Agent"><rect codeLine="13" fill="#F1F1F1" height="35.6094" id="Agent" rx="2.5" ry="2.5" style="stroke:#181818;stroke-width:0.5;" width="43" x="158.5" y="401.5"/><text fill="#000000" font-family="sans-serif" font-size="14" lengthAdjust="spacing" textLength="37" x="161.5" y="421.0332">Agent</text><line style="stroke:#181818;stroke-width:0.5;" x1="159.5" x2="200.5" y1="429.1094" y2="429.1094"/></g><!--class Employee--><g id="elem_Employee"><rect codeLine="16" fill="#F1F1F1" height="141.2656" id="Employee" rx="2.5" ry="2.5" style="stroke:#181818;stroke-width:0.5;" width="116" x="35" y="121"/><text fill="#000000" font-family="sans-serif" font-size="14" lengthAdjust="spacing" textLength="62" x="62" y="140.5332">Employee</text><line style="stroke:#181818;stroke-width:0.5;" x1="36" x2="150" y1="148.6094" y2="148.6094"/><text fill="#000000" font-family="sans-serif" font-size="14" lengthAdjust="spacing" textLength="35" x="41" y="167.1426">name</text><text fill="#000000" font-family="sans-serif" font-size="14" lengthAdjust="spacing" textLength="67" x="41" y="184.752">taxNumber</text><text fill="#000000" font-family="sans-serif" font-size="14" lengthAdjust="spacing" textLength="104" x="41" y="202.3613">passportNumber</text><text fill="#000000" font-family="sans-serif" font-size="14" lengthAdjust="spacing" textLength="51" x="41" y="219.9707">address</text><text fill="#000000" font-family="sans-serif" font-size="14" lengthAdjust="spacing" textLength="33" x="41" y="237.5801">email</text><text fill="#000000" font-family="sans-serif" font-size="14" lengthAdjust="spacing" textLength="89" x="41" y="255.1895">phoneNumber</text></g><!--class Announcement--><g id="elem_Announcement"><rect codeLine="25" fill="#F1F1F1" height="123.6563" id="Announcement" rx="2.5" ry="2.5" style="stroke:#181818;stroke-width:0.5;" width="111" x="309.5" y="357.5"/><text fill="#000000" font-family="sans-serif" font-size="14" lengthAdjust="spacing" textLength="95" x="317.5" y="377.0332">Announcement</text><line style="stroke:#181818;stroke-width:0.5;" x1="310.5" x2="419.5" y1="385.1094" y2="385.1094"/><text fill="#000000" font-family="sans-serif" font-size="14" lengthAdjust="spacing" textLength="31" x="315.5" y="403.6426">price</text><text fill="#000000" font-family="sans-serif" font-size="14" lengthAdjust="spacing" textLength="99" x="315.5" y="421.252">typeOfBusiness</text><text fill="#000000" font-family="sans-serif" font-size="14" lengthAdjust="spacing" textLength="38" x="315.5" y="438.8613">status</text><text fill="#000000" font-family="sans-serif" font-size="14" lengthAdjust="spacing" textLength="28" x="315.5" y="456.4707">date</text><text fill="#000000" font-family="sans-serif" font-size="14" lengthAdjust="spacing" textLength="73" x="315.5" y="474.0801">commission</text></g><!--class Branch--><g id="elem_Branch"><rect codeLine="33" fill="#F1F1F1" height="106.0469" id="Branch" rx="2.5" ry="2.5" style="stroke:#181818;stroke-width:0.5;" width="101" x="186.5" y="138.5"/><text fill="#000000" font-family="sans-serif" font-size="14" lengthAdjust="spacing" textLength="45" x="214.5" y="158.0332">Branch</text><line style="stroke:#181818;stroke-width:0.5;" x1="187.5" x2="286.5" y1="166.1094" y2="166.1094"/><text fill="#000000" font-family="sans-serif" font-size="14" lengthAdjust="spacing" textLength="11" x="192.5" y="184.6426">id</text><text fill="#000000" font-family="sans-serif" font-size="14" lengthAdjust="spacing" textLength="51" x="192.5" y="202.252">address</text><text fill="#000000" font-family="sans-serif" font-size="14" lengthAdjust="spacing" textLength="33" x="192.5" y="219.8613">email</text><text fill="#000000" font-family="sans-serif" font-size="14" lengthAdjust="spacing" textLength="89" x="192.5" y="237.4707">phoneNumber</text></g><!--class Property--><g id="elem_Property"><rect codeLine="40" fill="#F1F1F1" height="106.0469" id="Property" rx="2.5" ry="2.5" style="stroke:#181818;stroke-width:0.5;" width="131" x="370.5" y="577"/><text fill="#000000" font-family="sans-serif" font-size="14" lengthAdjust="spacing" textLength="54" x="409" y="596.5332">Property</text><line style="stroke:#181818;stroke-width:0.5;" x1="371.5" x2="500.5" y1="604.6094" y2="604.6094"/><text fill="#000000" font-family="sans-serif" font-size="14" lengthAdjust="spacing" textLength="49" x="376.5" y="623.1426">location</text><text fill="#000000" font-family="sans-serif" font-size="14" lengthAdjust="spacing" textLength="29" x="376.5" y="640.752">area</text><text fill="#000000" font-family="sans-serif" font-size="14" lengthAdjust="spacing" textLength="119" x="376.5" y="658.3613">cityCenterDistance</text><text fill="#000000" font-family="sans-serif" font-size="14" lengthAdjust="spacing" textLength="80" x="376.5" y="675.9707">photographs</text></g><!--class House--><g id="elem_House"><rect codeLine="47" fill="#F1F1F1" height="158.875" id="House" rx="2.5" ry="2.5" style="stroke:#181818;stroke-width:0.5;" width="170" x="146" y="744"/><text fill="#000000" font-family="sans-serif" font-size="14" lengthAdjust="spacing" textLength="40" x="211" y="763.5332">House</text><line style="stroke:#181818;stroke-width:0.5;" x1="147" x2="315" y1="771.6094" y2="771.6094"/><text fill="#000000" font-family="sans-serif" font-size="14" lengthAdjust="spacing" textLength="127" x="152" y="790.1426">numberOfBedrooms</text><text fill="#000000" font-family="sans-serif" font-size="14" lengthAdjust="spacing" textLength="131" x="152" y="807.752">numberOfBathrooms</text><text fill="#000000" font-family="sans-serif" font-size="14" lengthAdjust="spacing" textLength="158" x="152" y="825.3613">numberOfParkingSpaces</text><text fill="#000000" font-family="sans-serif" font-size="14" lengthAdjust="spacing" textLength="66" x="152" y="842.9707">equipment</text><text fill="#000000" font-family="sans-serif" font-size="14" lengthAdjust="spacing" textLength="86" x="152" y="860.5801">hasBasement</text><text fill="#000000" font-family="sans-serif" font-size="14" lengthAdjust="spacing" textLength="116" x="152" y="878.1895">hasInhabitableLoft</text><text fill="#000000" font-family="sans-serif" font-size="14" lengthAdjust="spacing" textLength="82" x="152" y="895.7988">sunExposure</text></g><!--class Apartment--><g id="elem_Apartment"><rect codeLine="57" fill="#F1F1F1" height="106.0469" id="Apartment" rx="2.5" ry="2.5" style="stroke:#181818;stroke-width:0.5;" width="170" x="351" y="770.5"/><text fill="#000000" font-family="sans-serif" font-size="14" lengthAdjust="spacing" textLength="65" x="403.5" y="790.0332">Apartment</text><line style="stroke:#181818;stroke-width:0.5;" x1="352" x2="520" y1="798.1094" y2="798.1094"/><text fill="#000000" font-family="sans-serif" font-size="14" lengthAdjust="spacing" textLength="127" x="357" y="816.6426">numberOfBedrooms</text><text fill="#000000" font-family="sans-serif" font-size="14" lengthAdjust="spacing" textLength="131" x="357" y="834.252">numberOfBathrooms</text><text fill="#000000" font-family="sans-serif" font-size="14" lengthAdjust="spacing" textLength="158" x="357" y="851.8613">numberOfParkingSpaces</text><text fill="#000000" font-family="sans-serif" font-size="14" lengthAdjust="spacing" textLength="66" x="357" y="869.4707">equipment</text></g><!--class Land--><g id="elem_Land"><rect codeLine="64" fill="#F1F1F1" height="35.6094" id="Land" rx="2.5" ry="2.5" style="stroke:#181818;stroke-width:0.5;" width="38" x="556" y="805.5"/><text fill="#000000" font-family="sans-serif" font-size="14" lengthAdjust="spacing" textLength="32" x="559" y="825.0332">Land</text><line style="stroke:#181818;stroke-width:0.5;" x1="557" x2="593" y1="833.1094" y2="833.1094"/></g><!--class Client--><g id="elem_Client"><rect codeLine="67" fill="#F1F1F1" height="158.875" id="Client" rx="2.5" ry="2.5" style="stroke:#181818;stroke-width:0.5;" width="101" x="455.5" y="340"/><text fill="#000000" font-family="sans-serif" font-size="14" lengthAdjust="spacing" textLength="36" x="488" y="359.5332">Client</text><line style="stroke:#181818;stroke-width:0.5;" x1="456.5" x2="555.5" y1="367.6094" y2="367.6094"/><text fill="#000000" font-family="sans-serif" font-size="14" lengthAdjust="spacing" textLength="35" x="461.5" y="386.1426">name</text><text fill="#000000" font-family="sans-serif" font-size="14" lengthAdjust="spacing" textLength="33" x="461.5" y="403.752">email</text><text fill="#000000" font-family="sans-serif" font-size="14" lengthAdjust="spacing" textLength="60" x="461.5" y="421.3613">password</text><text fill="#000000" font-family="sans-serif" font-size="14" lengthAdjust="spacing" textLength="66" x="461.5" y="438.9707">cCNumber</text><text fill="#000000" font-family="sans-serif" font-size="14" lengthAdjust="spacing" textLength="67" x="461.5" y="456.5801">taxNumber</text><text fill="#000000" font-family="sans-serif" font-size="14" lengthAdjust="spacing" textLength="89" x="461.5" y="474.1895">phoneNumber</text><text fill="#000000" font-family="sans-serif" font-size="14" lengthAdjust="spacing" textLength="51" x="461.5" y="491.7988">address</text></g><!--class Real Estate USA--><g id="elem_Real Estate USA"><rect codeLine="77" fill="#F1F1F1" height="35.6094" id="Real Estate USA" rx="2.5" ry="2.5" style="stroke:#181818;stroke-width:0.5;" width="110" x="110" y="7"/><text fill="#000000" font-family="sans-serif" font-size="14" lengthAdjust="spacing" textLength="104" x="113" y="26.5332">Real Estate USA</text><line style="stroke:#181818;stroke-width:0.5;" x1="111" x2="219" y1="34.6094" y2="34.6094"/></g><!--reverse link Real Estate USA to Employee--><g id="link_Real Estate USA_Employee"><path codeLine="79" d="M140.33,46.89 C132.8,54.41 125.16,63.43 120,73 C112.1,87.64 106.5,104.53 102.54,120.84 " fill="none" id="Real Estate USA-backto-Employee" style="stroke:#181818;stroke-width:1.0;"/><polygon fill="#181818" points="144.01,43.31,134.7685,46.7152,140.4248,46.7952,140.3448,52.4515,144.01,43.31" style="stroke:#181818;stroke-width:1.0;"/><polygon fill="#000000" points="127.2752,77.7234,120.5423,84.4404,125.7763,87.1151,127.2752,77.7234" style="stroke:#000000;stroke-width:1.0;"/><text fill="#000000" font-family="sans-serif" font-size="13" lengthAdjust="spacing" textLength="49" x="134" y="87.4951">works at</text></g><!--reverse link Real Estate USA to Branch--><g id="link_Real Estate USA_Branch"><path codeLine="80" d="M176.11,48.02 C179.98,55.85 184.28,64.78 188,73 C197.62,94.24 207.63,117.93 216.08,138.44 " fill="none" id="Real Estate USA-backto-Branch" style="stroke:#181818;stroke-width:1.0;"/><polygon fill="#181818" points="173.77,43.29,174.1921,53.1298,175.9947,47.7678,181.3566,49.5704,173.77,43.29" style="stroke:#181818;stroke-width:1.0;"/><polygon fill="#000000" points="203.0215,86.7489,202.0526,77.2878,196.6765,79.6643,203.0215,86.7489" style="stroke:#000000;stroke-width:1.0;"/><text fill="#000000" font-family="sans-serif" font-size="13" lengthAdjust="spacing" textLength="30" x="210" y="87.4951">owns</text><text fill="#000000" font-family="sans-serif" font-size="13" lengthAdjust="spacing" textLength="7" x="168.1863" y="63.9503">1</text><text fill="#000000" font-family="sans-serif" font-size="13" lengthAdjust="spacing" textLength="20" x="191.9251" y="127.7507">1..*</text></g><!--reverse link Employee to NetworkMan--><g id="link_Employee_NetworkMan"><path codeLine="81" d="M81.91,282.04 C76.42,326.32 70.31,375.63 67.15,401.12 " fill="none" id="Employee-backto-NetworkMan" style="stroke:#181818;stroke-width:1.0;"/><polygon fill="none" points="74.96,281.14,84.37,262.15,88.86,282.86,74.96,281.14" style="stroke:#181818;stroke-width:1.0;"/></g><!--reverse link Employee to Agent--><g id="link_Employee_Agent"><path codeLine="82" d="M127.01,280.84 C144.17,325.43 163.41,375.4 173.31,401.12 " fill="none" id="Employee-backto-Agent" style="stroke:#181818;stroke-width:1.0;"/><polygon fill="none" points="120.47,283.33,119.81,262.15,133.53,278.3,120.47,283.33" style="stroke:#181818;stroke-width:1.0;"/></g><!--link Branch to Announcement--><g id="link_Branch_Announcement"><path codeLine="83" d="M271.91,244.55 C281.65,259.66 292.02,276.31 301,292 C312.05,311.3 323.27,332.73 333.17,352.38 " fill="none" id="Branch-to-Announcement" style="stroke:#181818;stroke-width:1.0;"/><polygon fill="#181818" points="335.65,357.34,335.1776,347.5025,333.4025,352.8736,328.0314,351.0985,335.65,357.34" style="stroke:#181818;stroke-width:1.0;"/><polygon fill="#000000" points="318.4698,305.5232,316.5572,296.2069,311.4465,299.1104,318.4698,305.5232" style="stroke:#000000;stroke-width:1.0;"/><text fill="#000000" font-family="sans-serif" font-size="13" lengthAdjust="spacing" textLength="55" x="325" y="306.4951">publishes</text><text fill="#000000" font-family="sans-serif" font-size="13" lengthAdjust="spacing" textLength="7" x="268.9344" y="265.8867">1</text><text fill="#000000" font-family="sans-serif" font-size="13" lengthAdjust="spacing" textLength="5" x="326.9673" y="346.7631">*</text></g><!--link Announcement to Property--><g id="link_Announcement_Property"><path codeLine="84" d="M374.44,481.65 C378.63,502.72 384.39,526.23 392,547 C395.05,555.32 398.81,563.84 402.84,572.09 " fill="none" id="Announcement-to-Property" style="stroke:#181818;stroke-width:1.0;"/><polygon fill="#181818" points="405.11,576.64,404.6879,566.8002,402.8853,572.1622,397.5234,570.3596,405.11,576.64" style="stroke:#181818;stroke-width:1.0;"/><polygon fill="#000000" points="398.498,542.9461,398.592,533.436,392.9842,535.197,398.498,542.9461" style="stroke:#000000;stroke-width:1.0;"/><text fill="#000000" font-family="sans-serif" font-size="13" lengthAdjust="spacing" textLength="49" x="406" y="543.4951">contains</text><text fill="#000000" font-family="sans-serif" font-size="13" lengthAdjust="spacing" textLength="7" x="368.0897" y="502.8558">1</text><text fill="#000000" font-family="sans-serif" font-size="13" lengthAdjust="spacing" textLength="7" x="393.7038" y="566.2929">1</text></g><!--link Client to Property--><g id="link_Client_Property"><path codeLine="85" d="M479.64,499.03 C471.49,523.28 462.69,549.5 455.13,572.01 " fill="none" id="Client-to-Property" style="stroke:#181818;stroke-width:1.0;"/><polygon fill="#181818" points="453.54,576.75,460.207,569.5008,455.1383,572.0123,452.6267,566.9436,453.54,576.75" style="stroke:#181818;stroke-width:1.0;"/><polygon fill="#000000" points="471.4081,542.9156,477.0738,535.2768,471.5018,533.4055,471.4081,542.9156" style="stroke:#000000;stroke-width:1.0;"/><text fill="#000000" font-family="sans-serif" font-size="13" lengthAdjust="spacing" textLength="62" x="482" y="543.4951">owns/buys</text><text fill="#000000" font-family="sans-serif" font-size="13" lengthAdjust="spacing" textLength="7" x="469.9806" y="520.342">1</text><text fill="#000000" font-family="sans-serif" font-size="13" lengthAdjust="spacing" textLength="5" x="450.561" y="566.0351">*</text></g><!--reverse link Agent to Announcement--><g id="link_Agent_Announcement"><path codeLine="86" d="M206.71,419.5 C233.41,419.5 275.26,419.5 309.22,419.5 " fill="none" id="Agent-backto-Announcement" style="stroke:#181818;stroke-width:1.0;"/><polygon fill="#181818" points="201.58,419.5,210.58,423.5,206.58,419.5,210.58,415.5,201.58,419.5" style="stroke:#181818;stroke-width:1.0;"/><text fill="#000000" font-family="sans-serif" font-size="13" lengthAdjust="spacing" textLength="71" x="220" y="412.9951">managed by</text><text fill="#000000" font-family="sans-serif" font-size="13" lengthAdjust="spacing" textLength="7" x="209.5743" y="414.5634">1</text><text fill="#000000" font-family="sans-serif" font-size="13" lengthAdjust="spacing" textLength="5" x="296.3886" y="415.9668">*</text></g><!--reverse link Branch to Agent--><g id="link_Branch_Agent"><path codeLine="88" d="M222.57,249.73 C209.91,299.92 192.31,369.69 184.29,401.49 " fill="none" id="Branch-backto-Agent" style="stroke:#181818;stroke-width:1.0;"/><polygon fill="#181818" points="223.85,244.63,217.7652,252.3743,222.6239,249.4773,225.5209,254.3361,223.85,244.63" style="stroke:#181818;stroke-width:1.0;"/><polygon fill="#000000" points="217.2229,296.3276,212.161,304.3792,217.8603,305.8168,217.2229,296.3276" style="stroke:#000000;stroke-width:1.0;"/><text fill="#000000" font-family="sans-serif" font-size="13" lengthAdjust="spacing" textLength="67" x="225" y="306.4951">assigned to</text><text fill="#000000" font-family="sans-serif" font-size="13" lengthAdjust="spacing" textLength="7" x="214.7167" y="265.9769">1</text><text fill="#000000" font-family="sans-serif" font-size="13" lengthAdjust="spacing" textLength="5" x="179.8829" y="390.4922">*</text></g><!--reverse link Property to House--><g id="link_Property_House"><path codeLine="90" d="M365.22,697.12 C349.11,712.17 331.84,728.3 315.23,743.82 " fill="none" id="Property-backto-House" style="stroke:#181818;stroke-width:1.0;"/><polygon fill="none" points="360.86,691.61,380.25,683.08,370.42,701.84,360.86,691.61" style="stroke:#181818;stroke-width:1.0;"/></g><!--reverse link Property to Apartment--><g id="link_Property_Apartment"><path codeLine="91" d="M436,703.33 C436,725.64 436,749.77 436,770.44 " fill="none" id="Property-backto-Apartment" style="stroke:#181818;stroke-width:1.0;"/><polygon fill="none" points="429,703.08,436,683.08,443,703.08,429,703.08" style="stroke:#181818;stroke-width:1.0;"/></g><!--reverse link Property to Land--><g id="link_Property_Land"><path codeLine="92" d="M503.4,698.2 C516.09,712.65 528.62,728.31 539,744 C552.07,763.76 562.72,789.03 568.96,805.48 " fill="none" id="Property-backto-Land" style="stroke:#181818;stroke-width:1.0;"/><polygon fill="none" points="497.92,702.57,489.67,683.06,508.29,693.17,497.92,702.57" style="stroke:#181818;stroke-width:1.0;"/></g><!--SRC=[hLJBRjmm3BppAmXV0WJOjBak5W4sQO06IDEWYtu0BNDj8TQZ4et4tVRVA_cnwwGvzD2JRN8u6WvfnITjFGKoQ9nrgWdEC4he6E8nuqazKSqxwLl6m4h8rkqI41kgtBEsDUwfZGnmrl9UK1m6NJU2bSvLsbbO5AcMOjoA15rsmdVAsPt-oVWHeD4Lez91fKE6TyFIk2e233LOFB0yk_24NyWcNQ50YZZ5KcX2RMks0dFDhV6jwvaFOCam2BqyTARa03vblGioVL9L1OuHs91kmJVEyfJvFLDjhNMTLMmI_m5yq2hnzPw_xg-xg6skZaBIHQX869GpHiUOkpzIN0UogZc0hlxbmCVWF0Vf3z0wHOEF59X0QUblaWWEdtGwCKdAzUBgGBw9f_hFhekvyO4sgUGgE6VYAK3Il8uyKaXpgdTfyfoa_UYqpzr2G_6Q8i_lTxQXKWkLBT-xlK3ixEsBTx4BlB0hZLj6h_w3WYFjFTdgSFgyQVLuH9xkv6MAfvMeGDrCZYwcll1vdi2Hg_Z6rE9j7YBZzzss0FWhX9lLwhXKQyoh5v44D-z0YyiHNbnUN9mNq_3Nw9vjn2kOIN3pAs4MQ_mwCQxpM3imhbPNM2IwvJgkqNTbgsF3cNcPEPMavxnGQqn_dP0UT8mElg8-uRBM3sNN3xJrZDkitb5WXf-omhA7imbwFa8lJxqdctLj4ohT4LVBhWQVCcSza2rn6u1Pq6Z9iDTlOiTjUnFFwv8kWpy0]--></g></svg>