<?xml version="1.0" encoding="us-ascii" standalone="no"?><svg xmlns="http://www.w3.org/2000/svg" xmlns:xlink="http://www.w3.org/1999/xlink" contentStyleType="text/css" height="941px" preserveAspectRatio="none" style="width:601px;height:941px;background:#FFFFFF;" version="1.1" viewBox="0 0 601 941" width="601px" zoomAndPan="magnify"><defs/><g><!--class NetworkMan--><g id="elem_NetworkMan"><rect codeLine="12" fill="#F1F1F1" height="36.6211" id="NetworkMan" rx="2.5" ry="2.5" style="stroke:#181818;stroke-width:0.5;" width="116" x="7" y="415"/><text fill="#000000" font-family="sans-serif" font-size="14" lengthAdjust="spacing" textLength="110" x="10" y="435.1074">Network Manager</text><line style="stroke:#181818;stroke-width:0.5;" x1="8" x2="122" y1="443.6211" y2="443.6211"/></g><!--class Agent--><g id="elem_Agent"><rect codeLine="13" fill="#F1F1F1" height="36.6211" id="Agent" rx="2.5" ry="2.5" style="stroke:#181818;stroke-width:0.5;" width="43" x="158.5" y="415"/><text fill="#000000" font-family="sans-serif" font-size="14" lengthAdjust="spacing" textLength="37" x="161.5" y="435.1074">Agent</text><line style="stroke:#181818;stroke-width:0.5;" x1="159.5" x2="200.5" y1="443.6211" y2="443.6211"/></g><!--class Employee--><g id="elem_Employee"><rect codeLine="16" fill="#F1F1F1" height="148.3477" id="Employee" rx="2.5" ry="2.5" style="stroke:#181818;stroke-width:0.5;" width="116" x="35" y="123"/><text fill="#000000" font-family="sans-serif" font-size="14" lengthAdjust="spacing" textLength="62" x="62" y="143.1074">Employee</text><line style="stroke:#181818;stroke-width:0.5;" x1="36" x2="150" y1="151.6211" y2="151.6211"/><text fill="#000000" font-family="sans-serif" font-size="14" lengthAdjust="spacing" textLength="35" x="41" y="170.7285">name</text><text fill="#000000" font-family="sans-serif" font-size="14" lengthAdjust="spacing" textLength="67" x="41" y="189.3496">taxNumber</text><text fill="#000000" font-family="sans-serif" font-size="14" lengthAdjust="spacing" textLength="104" x="41" y="207.9707">passportNumber</text><text fill="#000000" font-family="sans-serif" font-size="14" lengthAdjust="spacing" textLength="51" x="41" y="226.5918">address</text><text fill="#000000" font-family="sans-serif" font-size="14" lengthAdjust="spacing" textLength="33" x="41" y="245.2129">email</text><text fill="#000000" font-family="sans-serif" font-size="14" lengthAdjust="spacing" textLength="89" x="41" y="263.834">phoneNumber</text></g><!--class Announcement--><g id="elem_Announcement"><rect codeLine="25" fill="#F1F1F1" height="129.7266" id="Announcement" rx="2.5" ry="2.5" style="stroke:#181818;stroke-width:0.5;" width="111" x="309.5" y="368.5"/><text fill="#000000" font-family="sans-serif" font-size="14" lengthAdjust="spacing" textLength="95" x="317.5" y="388.6074">Announcement</text><line style="stroke:#181818;stroke-width:0.5;" x1="310.5" x2="419.5" y1="397.1211" y2="397.1211"/><text fill="#000000" font-family="sans-serif" font-size="14" lengthAdjust="spacing" textLength="31" x="315.5" y="416.2285">price</text><text fill="#000000" font-family="sans-serif" font-size="14" lengthAdjust="spacing" textLength="99" x="315.5" y="434.8496">typeOfBusiness</text><text fill="#000000" font-family="sans-serif" font-size="14" lengthAdjust="spacing" textLength="38" x="315.5" y="453.4707">status</text><text fill="#000000" font-family="sans-serif" font-size="14" lengthAdjust="spacing" textLength="28" x="315.5" y="472.0918">date</text><text fill="#000000" font-family="sans-serif" font-size="14" lengthAdjust="spacing" textLength="73" x="315.5" y="490.7129">commission</text></g><!--class Branch--><g id="elem_Branch"><rect codeLine="33" fill="#F1F1F1" height="111.1055" id="Branch" rx="2.5" ry="2.5" style="stroke:#181818;stroke-width:0.5;" width="101" x="186.5" y="141.5"/><text fill="#000000" font-family="sans-serif" font-size="14" lengthAdjust="spacing" textLength="45" x="214.5" y="161.6074">Branch</text><line style="stroke:#181818;stroke-width:0.5;" x1="187.5" x2="286.5" y1="170.1211" y2="170.1211"/><text fill="#000000" font-family="sans-serif" font-size="14" lengthAdjust="spacing" textLength="11" x="192.5" y="189.2285">id</text><text fill="#000000" font-family="sans-serif" font-size="14" lengthAdjust="spacing" textLength="51" x="192.5" y="207.8496">address</text><text fill="#000000" font-family="sans-serif" font-size="14" lengthAdjust="spacing" textLength="33" x="192.5" y="226.4707">email</text><text fill="#000000" font-family="sans-serif" font-size="14" lengthAdjust="spacing" textLength="89" x="192.5" y="245.0918">phoneNumber</text></g><!--class Property--><g id="elem_Property"><rect codeLine="40" fill="#F1F1F1" height="111.1055" id="Property" rx="2.5" ry="2.5" style="stroke:#181818;stroke-width:0.5;" width="131" x="370.5" y="596"/><text fill="#000000" font-family="sans-serif" font-size="14" lengthAdjust="spacing" textLength="54" x="409" y="616.1074">Property</text><line style="stroke:#181818;stroke-width:0.5;" x1="371.5" x2="500.5" y1="624.6211" y2="624.6211"/><text fill="#000000" font-family="sans-serif" font-size="14" lengthAdjust="spacing" textLength="49" x="376.5" y="643.7285">location</text><text fill="#000000" font-family="sans-serif" font-size="14" lengthAdjust="spacing" textLength="29" x="376.5" y="662.3496">area</text><text fill="#000000" font-family="sans-serif" font-size="14" lengthAdjust="spacing" textLength="119" x="376.5" y="680.9707">cityCenterDistance</text><text fill="#000000" font-family="sans-serif" font-size="14" lengthAdjust="spacing" textLength="80" x="376.5" y="699.5918">photographs</text></g><!--class House--><g id="elem_House"><rect codeLine="47" fill="#F1F1F1" height="166.9688" id="House" rx="2.5" ry="2.5" style="stroke:#181818;stroke-width:0.5;" width="170" x="146" y="768"/><text fill="#000000" font-family="sans-serif" font-size="14" lengthAdjust="spacing" textLength="40" x="211" y="788.1074">House</text><line style="stroke:#181818;stroke-width:0.5;" x1="147" x2="315" y1="796.6211" y2="796.6211"/><text fill="#000000" font-family="sans-serif" font-size="14" lengthAdjust="spacing" textLength="127" x="152" y="815.7285">numberOfBedrooms</text><text fill="#000000" font-family="sans-serif" font-size="14" lengthAdjust="spacing" textLength="131" x="152" y="834.3496">numberOfBathrooms</text><text fill="#000000" font-family="sans-serif" font-size="14" lengthAdjust="spacing" textLength="158" x="152" y="852.9707">numberOfParkingSpaces</text><text fill="#000000" font-family="sans-serif" font-size="14" lengthAdjust="spacing" textLength="66" x="152" y="871.5918">equipment</text><text fill="#000000" font-family="sans-serif" font-size="14" lengthAdjust="spacing" textLength="86" x="152" y="890.2129">hasBasement</text><text fill="#000000" font-family="sans-serif" font-size="14" lengthAdjust="spacing" textLength="116" x="152" y="908.834">hasInhabitableLoft</text><text fill="#000000" font-family="sans-serif" font-size="14" lengthAdjust="spacing" textLength="82" x="152" y="927.4551">sunExposure</text></g><!--class Apartment--><g id="elem_Apartment"><rect codeLine="57" fill="#F1F1F1" height="111.1055" id="Apartment" rx="2.5" ry="2.5" style="stroke:#181818;stroke-width:0.5;" width="170" x="351" y="796"/><text fill="#000000" font-family="sans-serif" font-size="14" lengthAdjust="spacing" textLength="65" x="403.5" y="816.1074">Apartment</text><line style="stroke:#181818;stroke-width:0.5;" x1="352" x2="520" y1="824.6211" y2="824.6211"/><text fill="#000000" font-family="sans-serif" font-size="14" lengthAdjust="spacing" textLength="127" x="357" y="843.7285">numberOfBedrooms</text><text fill="#000000" font-family="sans-serif" font-size="14" lengthAdjust="spacing" textLength="131" x="357" y="862.3496">numberOfBathrooms</text><text fill="#000000" font-family="sans-serif" font-size="14" lengthAdjust="spacing" textLength="158" x="357" y="880.9707">numberOfParkingSpaces</text><text fill="#000000" font-family="sans-serif" font-size="14" lengthAdjust="spacing" textLength="66" x="357" y="899.5918">equipment</text></g><!--class Land--><g id="elem_Land"><rect codeLine="64" fill="#F1F1F1" height="36.6211" id="Land" rx="2.5" ry="2.5" style="stroke:#181818;stroke-width:0.5;" width="38" x="556" y="833"/><text fill="#000000" font-family="sans-serif" font-size="14" lengthAdjust="spacing" textLength="32" x="559" y="853.1074">Land</text><line style="stroke:#181818;stroke-width:0.5;" x1="557" x2="593" y1="861.6211" y2="861.6211"/></g><!--class Client--><g id="elem_Client"><rect codeLine="67" fill="#F1F1F1" height="166.9688" id="Client" rx="2.5" ry="2.5" style="stroke:#181818;stroke-width:0.5;" width="101" x="455.5" y="350"/><text fill="#000000" font-family="sans-serif" font-size="14" lengthAdjust="spacing" textLength="36" x="488" y="370.1074">Client</text><line style="stroke:#181818;stroke-width:0.5;" x1="456.5" x2="555.5" y1="378.6211" y2="378.6211"/><text fill="#000000" font-family="sans-serif" font-size="14" lengthAdjust="spacing" textLength="35" x="461.5" y="397.7285">name</text><text fill="#000000" font-family="sans-serif" font-size="14" lengthAdjust="spacing" textLength="33" x="461.5" y="416.3496">email</text><text fill="#000000" font-family="sans-serif" font-size="14" lengthAdjust="spacing" textLength="60" x="461.5" y="434.9707">password</text><text fill="#000000" font-family="sans-serif" font-size="14" lengthAdjust="spacing" textLength="66" x="461.5" y="453.5918">cCNumber</text><text fill="#000000" font-family="sans-serif" font-size="14" lengthAdjust="spacing" textLength="67" x="461.5" y="472.2129">taxNumber</text><text fill="#000000" font-family="sans-serif" font-size="14" lengthAdjust="spacing" textLength="89" x="461.5" y="490.834">phoneNumber</text><text fill="#000000" font-family="sans-serif" font-size="14" lengthAdjust="spacing" textLength="51" x="461.5" y="509.4551">address</text></g><!--class Real Estate USA--><g id="elem_Real Estate USA"><rect codeLine="77" fill="#F1F1F1" height="36.6211" id="Real Estate USA" rx="2.5" ry="2.5" style="stroke:#181818;stroke-width:0.5;" width="110" x="110" y="7"/><text fill="#000000" font-family="sans-serif" font-size="14" lengthAdjust="spacing" textLength="104" x="113" y="27.1074">Real Estate USA</text><line style="stroke:#181818;stroke-width:0.5;" x1="111" x2="219" y1="35.6211" y2="35.6211"/></g><!--reverse link Real Estate USA to Employee--><g id="link_Real Estate USA_Employee"><path codeLine="79" d="M140.29,47.62 C132.76,55.23 125.13,64.34 120,74 C112.07,88.94 106.46,106.11 102.5,122.75 " fill="none" id="Real Estate USA-backto-Employee" style="stroke:#181818;stroke-width:1.0;"/><polygon fill="#181818" points="143.97,44.01,134.7494,47.4713,140.4061,47.5169,140.3605,53.1736,143.97,44.01" style="stroke:#181818;stroke-width:1.0;"/><polygon fill="#000000" points="127.2468,79.1787,120.5568,85.9386,125.8078,88.5798,127.2468,79.1787" style="stroke:#000000;stroke-width:1.0;"/><text fill="#000000" font-family="sans-serif" font-size="13" lengthAdjust="spacing" textLength="49" x="134" y="89.0283">works at</text></g><!--reverse link Real Estate USA to Branch--><g id="link_Real Estate USA_Branch"><path codeLine="80" d="M176.35,49.13 C180.17,56.95 184.38,65.81 188,74 C197.65,95.81 207.58,120.15 215.97,141.31 " fill="none" id="Real Estate USA-backto-Branch" style="stroke:#181818;stroke-width:1.0;"/><polygon fill="#181818" points="174.03,44.41,174.4269,54.2509,176.2432,48.8935,181.6005,50.7097,174.03,44.41" style="stroke:#181818;stroke-width:1.0;"/><polygon fill="#000000" points="202.9744,88.2392,202.1028,78.7686,196.7026,81.0897,202.9744,88.2392" style="stroke:#000000;stroke-width:1.0;"/><text fill="#000000" font-family="sans-serif" font-size="13" lengthAdjust="spacing" textLength="30" x="210" y="89.0283">owns</text><text fill="#000000" font-family="sans-serif" font-size="13" lengthAdjust="spacing" textLength="7" x="168.4471" y="65.548">1</text><text fill="#000000" font-family="sans-serif" font-size="13" lengthAdjust="spacing" textLength="20" x="191.9943" y="130.1259">1..*</text></g><!--reverse link Employee to NetworkMan--><g id="link_Employee_NetworkMan"><path codeLine="81" d="M81.87,291.2 C76.38,337.16 70.28,388.27 67.13,414.62 " fill="none" id="Employee-backto-NetworkMan" style="stroke:#181818;stroke-width:1.0;"/><polygon fill="none" points="74.93,290.26,84.26,271.23,88.84,291.92,74.93,290.26" style="stroke:#181818;stroke-width:1.0;"/></g><!--reverse link Employee to Agent--><g id="link_Employee_Agent"><path codeLine="82" d="M127.23,290.27 C144.37,336.47 163.53,388.1 173.37,414.62 " fill="none" id="Employee-backto-Agent" style="stroke:#181818;stroke-width:1.0;"/><polygon fill="none" points="120.56,292.42,120.17,271.23,133.69,287.55,120.56,292.42" style="stroke:#181818;stroke-width:1.0;"/></g><!--link Branch to Announcement--><g id="link_Branch_Announcement"><path codeLine="83" d="M273.12,252.61 C282.86,268.04 293.15,284.99 302,301 C313.04,320.98 324.12,343.2 333.84,363.61 " fill="none" id="Branch-to-Announcement" style="stroke:#181818;stroke-width:1.0;"/><polygon fill="#181818" points="336.03,368.2,335.7841,358.3542,333.8859,363.6831,328.557,361.7848,336.03,368.2" style="stroke:#181818;stroke-width:1.0;"/><polygon fill="#000000" points="319.3996,315.0321,317.6371,305.6863,312.4803,308.5071,319.3996,315.0321" style="stroke:#000000;stroke-width:1.0;"/><text fill="#000000" font-family="sans-serif" font-size="13" lengthAdjust="spacing" textLength="55" x="326" y="316.0283">publishes</text><text fill="#000000" font-family="sans-serif" font-size="13" lengthAdjust="spacing" textLength="7" x="270.0956" y="274.463">1</text><text fill="#000000" font-family="sans-serif" font-size="13" lengthAdjust="spacing" textLength="5" x="327.588" y="357.1873">*</text></g><!--link Announcement to Property--><g id="link_Announcement_Property"><path codeLine="84" d="M374.49,498.68 C378.67,520.41 384.39,544.59 392,566 C394.94,574.28 398.56,582.77 402.45,591.02 " fill="none" id="Announcement-to-Property" style="stroke:#181818;stroke-width:1.0;"/><polygon fill="#181818" points="404.63,595.58,404.3587,585.7349,402.4742,591.0686,397.1405,589.1841,404.63,595.58" style="stroke:#181818;stroke-width:1.0;"/><polygon fill="#000000" points="398.449,561.4309,398.6405,551.9223,393.0149,553.6257,398.449,561.4309" style="stroke:#000000;stroke-width:1.0;"/><text fill="#000000" font-family="sans-serif" font-size="13" lengthAdjust="spacing" textLength="49" x="406" y="562.0283">contains</text><text fill="#000000" font-family="sans-serif" font-size="13" lengthAdjust="spacing" textLength="7" x="368.1077" y="520.3357">1</text><text fill="#000000" font-family="sans-serif" font-size="13" lengthAdjust="spacing" textLength="7" x="393.3802" y="584.7684">1</text></g><!--link Client to Property--><g id="link_Client_Property"><path codeLine="85" d="M479.24,517.08 C471.27,541.66 462.71,568.09 455.32,590.9 " fill="none" id="Client-to-Property" style="stroke:#181818;stroke-width:1.0;"/><polygon fill="#181818" points="453.76,595.7,460.3414,588.373,455.3025,590.9439,452.7317,585.905,453.76,595.7" style="stroke:#181818;stroke-width:1.0;"/><polygon fill="#000000" points="471.4587,561.402,477.0427,553.7033,471.4511,551.8915,471.4587,561.402" style="stroke:#000000;stroke-width:1.0;"/><text fill="#000000" font-family="sans-serif" font-size="13" lengthAdjust="spacing" textLength="62" x="482" y="562.0283">owns/buys</text><text fill="#000000" font-family="sans-serif" font-size="13" lengthAdjust="spacing" textLength="7" x="469.6395" y="539.0353">1</text><text fill="#000000" font-family="sans-serif" font-size="13" lengthAdjust="spacing" textLength="5" x="450.6198" y="584.9031">*</text></g><!--reverse link Agent to Announcement--><g id="link_Agent_Announcement"><path codeLine="86" d="M206.71,433.5 C233.41,433.5 275.26,433.5 309.22,433.5 " fill="none" id="Agent-backto-Announcement" style="stroke:#181818;stroke-width:1.0;"/><polygon fill="#181818" points="201.58,433.5,210.58,437.5,206.58,433.5,210.58,429.5,201.58,433.5" style="stroke:#181818;stroke-width:1.0;"/><text fill="#000000" font-family="sans-serif" font-size="13" lengthAdjust="spacing" textLength="71" x="220" y="426.5283">managed by</text><text fill="#000000" font-family="sans-serif" font-size="13" lengthAdjust="spacing" textLength="7" x="209.5743" y="427.9257">1</text><text fill="#000000" font-family="sans-serif" font-size="13" lengthAdjust="spacing" textLength="5" x="296.3886" y="429.4241">*</text></g><!--reverse link Branch to Agent--><g id="link_Branch_Agent"><path codeLine="88" d="M222.5,257.66 C209.83,309.76 192.26,382.05 184.27,414.95 " fill="none" id="Branch-backto-Agent" style="stroke:#181818;stroke-width:1.0;"/><polygon fill="#181818" points="223.71,252.68,217.6897,260.4746,222.5242,257.5374,225.4615,262.3719,223.71,252.68" style="stroke:#181818;stroke-width:1.0;"/><polygon fill="#000000" points="218.1809,305.787,213.1889,313.882,218.9004,315.2703,218.1809,305.787" style="stroke:#000000;stroke-width:1.0;"/><text fill="#000000" font-family="sans-serif" font-size="13" lengthAdjust="spacing" textLength="67" x="226" y="316.0283">assigned to</text><text fill="#000000" font-family="sans-serif" font-size="13" lengthAdjust="spacing" textLength="7" x="214.6637" y="274.5416">1</text><text fill="#000000" font-family="sans-serif" font-size="13" lengthAdjust="spacing" textLength="5" x="179.8121" y="403.7968">*</text></g><!--reverse link Property to House--><g id="link_Property_House"><path codeLine="90" d="M364.79,721.28 C349.11,736.42 332.35,752.61 316.18,768.23 " fill="none" id="Property-backto-House" style="stroke:#181818;stroke-width:1.0;"/><polygon fill="none" points="360.19,715.99,379.44,707.13,369.92,726.06,360.19,715.99" style="stroke:#181818;stroke-width:1.0;"/></g><!--reverse link Property to Apartment--><g id="link_Property_Apartment"><path codeLine="91" d="M436,727.33 C436,750.05 436,774.57 436,795.71 " fill="none" id="Property-backto-Apartment" style="stroke:#181818;stroke-width:1.0;"/><polygon fill="none" points="429,727.13,436,707.13,443,727.13,429,727.13" style="stroke:#181818;stroke-width:1.0;"/></g><!--reverse link Property to Land--><g id="link_Property_Land"><path codeLine="92" d="M504.56,722.35 C516.89,736.79 528.99,752.38 539,768 C552.41,788.92 563.05,815.68 569.19,832.95 " fill="none" id="Property-backto-Land" style="stroke:#181818;stroke-width:1.0;"/><polygon fill="none" points="499.15,726.8,491.17,707.17,509.65,717.54,499.15,726.8" style="stroke:#181818;stroke-width:1.0;"/></g><!--SRC=[hLJBRjmm3BppAmXV0WJOjBak5W4sQO06IDEWYtu0BNDj8TQZ4et4tVRVA_cnwwGvzD2JRN8u6WvfnITjFGKoQ9nrgWdEC4he6E8nuqazKSqxwLl6m4h8rkqI41kgtBEsDUwfZGnmrl9UK1m6NJU2bSvLsbbO5AcMOjoA15rsmdVAsPt-oVWHeD4Lez91fKE6TyFIk2e233LOFB0yk_24NyWcNQ50YZZ5KcX2RMks0dFDhV6jwvaFOCam2BqyTARa03vblGioVL9L1OuHs91kmJVEyfJvFLDjhNMTLMmI_m5yq2hnzPw_xg-xg6skZaBIHQX869GpHiUOkpzIN0UogZc0hlxbmCVWF0Vf3z0wHOEF59X0QUblaWWEdtGwCKdAzUBgGBw9f_hFhekvyO4sgUGgE6VYAK3Il8uyKaXpgdTfyfoa_UYqpzr2G_6Q8i_lTxQXKWkLBT-xlK3ixEsBTx4BlB0hZLj6h_w3WYFjFTdgSFgyQVLuH9xkv6MAfvMeGDrCZYwcll1vdi2Hg_Z6rE9j7YBZzzss0FWhX9lLwhXKQyoh5v44D-z0YyiHNbnUN9mNq_3Nw9vjn2kOIN3pAs4MQ_mwCQxpM3imhbPNM2IwvJgkqNTbgsF3cNcPEPMavxnGQqn_dP0UT8mElg8-uRBM3sNN3xJrZDkitb5WXf-omhA7imbwFa8lJxqdctLj4ohT4LVBhWQVCcSza2rn6u1Pq6Z9iDTlOiTjUnFFwv8kWpy0]--></g></svg>