<?xml version="1.0" encoding="us-ascii" standalone="no"?><svg xmlns="http://www.w3.org/2000/svg" xmlns:xlink="http://www.w3.org/1999/xlink" contentStyleType="text/css" height="578px" preserveAspectRatio="none" style="width:1342px;height:578px;background:#FFFFFF;" version="1.1" viewBox="0 0 1342 578" width="1342px" zoomAndPan="magnify"><defs/><g><!--class Owner--><g id="elem_Owner"><rect codeLine="18" fill="#F1F1F1" height="36.6211" id="Owner" rx="2.5" ry="2.5" style="stroke:#181818;stroke-width:0.5;" width="47" x="736" y="62.5"/><text fill="#000000" font-family="sans-serif" font-size="14" lengthAdjust="spacing" textLength="41" x="739" y="82.6074">Owner</text><line style="stroke:#181818;stroke-width:0.5;" x1="737" x2="782" y1="91.1211" y2="91.1211"/></g><!--class Agent--><g id="elem_Agent"><rect codeLine="20" fill="#F1F1F1" height="36.6211" id="Agent" rx="2.5" ry="2.5" style="stroke:#181818;stroke-width:0.5;" width="43" x="882" y="62.5"/><text fill="#000000" font-family="sans-serif" font-size="14" lengthAdjust="spacing" textLength="37" x="885" y="82.6074">Agent</text><line style="stroke:#181818;stroke-width:0.5;" x1="883" x2="924" y1="91.1211" y2="91.1211"/></g><!--class Employee--><g id="elem_Employee"><rect codeLine="23" fill="#F1F1F1" height="148.3477" id="Employee" rx="2.5" ry="2.5" style="stroke:#181818;stroke-width:0.5;" width="142" x="1002.5" y="7"/><text fill="#000000" font-family="sans-serif" font-size="14" lengthAdjust="spacing" textLength="62" x="1042.5" y="27.1074">Employee</text><line style="stroke:#181818;stroke-width:0.5;" x1="1003.5" x2="1143.5" y1="35.6211" y2="35.6211"/><text fill="#000000" font-family="sans-serif" font-size="14" lengthAdjust="spacing" textLength="76" x="1008.5" y="54.7285">String name</text><text fill="#000000" font-family="sans-serif" font-size="14" lengthAdjust="spacing" textLength="85" x="1008.5" y="73.3496">int cCNumber</text><text fill="#000000" font-family="sans-serif" font-size="14" lengthAdjust="spacing" textLength="86" x="1008.5" y="91.9707">int taxNumber</text><text fill="#000000" font-family="sans-serif" font-size="14" lengthAdjust="spacing" textLength="92" x="1008.5" y="110.5918">String address</text><text fill="#000000" font-family="sans-serif" font-size="14" lengthAdjust="spacing" textLength="74" x="1008.5" y="129.2129">String email</text><text fill="#000000" font-family="sans-serif" font-size="14" lengthAdjust="spacing" textLength="130" x="1008.5" y="147.834">String phoneNumber</text></g><!--class Listing--><g id="elem_Listing"><rect codeLine="31" fill="#F1F1F1" height="92.4844" id="Listing" rx="2.5" ry="2.5" style="stroke:#181818;stroke-width:0.5;" width="79" x="828" y="234"/><text fill="#000000" font-family="sans-serif" font-size="14" lengthAdjust="spacing" textLength="41" x="847" y="254.1074">Listing</text><line style="stroke:#181818;stroke-width:0.5;" x1="829" x2="906" y1="262.6211" y2="262.6211"/><text fill="#000000" font-family="sans-serif" font-size="14" lengthAdjust="spacing" textLength="66" x="834" y="281.7285">propertyID</text><text fill="#000000" font-family="sans-serif" font-size="14" lengthAdjust="spacing" textLength="31" x="834" y="300.3496">price</text><text fill="#000000" font-family="sans-serif" font-size="14" lengthAdjust="spacing" textLength="67" x="834" y="318.9707">sellOrRent</text></g><!--class Property--><g id="elem_Property"><rect codeLine="37" fill="#F1F1F1" height="111.1055" id="Property" rx="2.5" ry="2.5" style="stroke:#181818;stroke-width:0.5;" width="165" x="709" y="433"/><text fill="#000000" font-family="sans-serif" font-size="14" lengthAdjust="spacing" textLength="54" x="764.5" y="453.1074">Property</text><line style="stroke:#181818;stroke-width:0.5;" x1="710" x2="873" y1="461.6211" y2="461.6211"/><text fill="#000000" font-family="sans-serif" font-size="14" lengthAdjust="spacing" textLength="60" x="715" y="480.7285">float area</text><text fill="#000000" font-family="sans-serif" font-size="14" lengthAdjust="spacing" textLength="49" x="715" y="499.3496">City city</text><text fill="#000000" font-family="sans-serif" font-size="14" lengthAdjust="spacing" textLength="150" x="715" y="517.9707">float cityCenterDistance</text><text fill="#000000" font-family="sans-serif" font-size="14" lengthAdjust="spacing" textLength="153" x="715" y="536.5918">List&lt;Image&gt; photograph</text></g><!--class House--><g id="elem_House"><rect codeLine="43" fill="#F1F1F1" height="166.9688" id="House" rx="2.5" ry="2.5" style="stroke:#181818;stroke-width:0.5;" width="189" x="7" y="405"/><text fill="#000000" font-family="sans-serif" font-size="14" lengthAdjust="spacing" textLength="40" x="81.5" y="425.1074">House</text><line style="stroke:#181818;stroke-width:0.5;" x1="8" x2="195" y1="433.6211" y2="433.6211"/><text fill="#000000" font-family="sans-serif" font-size="14" lengthAdjust="spacing" textLength="146" x="13" y="452.7285">int numberOfBedrooms</text><text fill="#000000" font-family="sans-serif" font-size="14" lengthAdjust="spacing" textLength="150" x="13" y="471.3496">int numberOfBathrooms</text><text fill="#000000" font-family="sans-serif" font-size="14" lengthAdjust="spacing" textLength="177" x="13" y="489.9707">int numberOfParkingSpaces</text><text fill="#000000" font-family="sans-serif" font-size="14" lengthAdjust="spacing" textLength="145" x="13" y="508.5918">List&lt;String&gt; equipment</text><text fill="#000000" font-family="sans-serif" font-size="14" lengthAdjust="spacing" textLength="117" x="13" y="527.2129">bool hasBasement</text><text fill="#000000" font-family="sans-serif" font-size="14" lengthAdjust="spacing" textLength="147" x="13" y="545.834">bool hasInhabitableLoft</text><text fill="#000000" font-family="sans-serif" font-size="14" lengthAdjust="spacing" textLength="170" x="13" y="564.4551">SunExposure sunExposure</text></g><!--class Apartment--><g id="elem_Apartment"><rect codeLine="53" fill="#F1F1F1" height="111.1055" id="Apartment" rx="2.5" ry="2.5" style="stroke:#181818;stroke-width:0.5;" width="189" x="231" y="433"/><text fill="#000000" font-family="sans-serif" font-size="14" lengthAdjust="spacing" textLength="65" x="293" y="453.1074">Apartment</text><line style="stroke:#181818;stroke-width:0.5;" x1="232" x2="419" y1="461.6211" y2="461.6211"/><text fill="#000000" font-family="sans-serif" font-size="14" lengthAdjust="spacing" textLength="146" x="237" y="480.7285">int numberOfBedrooms</text><text fill="#000000" font-family="sans-serif" font-size="14" lengthAdjust="spacing" textLength="150" x="237" y="499.3496">int numberOfBathrooms</text><text fill="#000000" font-family="sans-serif" font-size="14" lengthAdjust="spacing" textLength="177" x="237" y="517.9707">int numberOfParkingSpaces</text><text fill="#000000" font-family="sans-serif" font-size="14" lengthAdjust="spacing" textLength="145" x="237" y="536.5918">List&lt;String&gt; equipment</text></g><!--class Land--><g id="elem_Land"><rect codeLine="59" fill="#F1F1F1" height="129.7266" id="Land" rx="2.5" ry="2.5" style="stroke:#181818;stroke-width:0.5;" width="219" x="455" y="423.5"/><text fill="#000000" font-family="sans-serif" font-size="14" lengthAdjust="spacing" textLength="32" x="548.5" y="443.6074">Land</text><line style="stroke:#181818;stroke-width:0.5;" x1="456" x2="673" y1="452.1211" y2="452.1211"/><text fill="#000000" font-family="sans-serif" font-size="14" lengthAdjust="spacing" textLength="68" x="461" y="471.2285">int listingID</text><text fill="#000000" font-family="sans-serif" font-size="14" lengthAdjust="spacing" textLength="70" x="461" y="489.8496">bool visible</text><text fill="#000000" font-family="sans-serif" font-size="14" lengthAdjust="spacing" textLength="62" x="461" y="508.4707">float price</text><text fill="#000000" font-family="sans-serif" font-size="14" lengthAdjust="spacing" textLength="104" x="461" y="527.0918">float commission</text><text fill="#000000" font-family="sans-serif" font-size="14" lengthAdjust="spacing" textLength="207" x="461" y="545.7129">TypeOfBusiness typeOfBusiness</text></g><!--class City--><g id="elem_City"><rect codeLine="67" fill="#F1F1F1" height="55.2422" id="City" rx="2.5" ry="2.5" style="stroke:#181818;stroke-width:0.5;" width="47" x="980" y="461"/><text fill="#000000" font-family="sans-serif" font-size="14" lengthAdjust="spacing" textLength="24" x="991.5" y="481.1074">City</text><line style="stroke:#181818;stroke-width:0.5;" x1="981" x2="1026" y1="489.6211" y2="489.6211"/><text fill="#000000" font-family="sans-serif" font-size="14" lengthAdjust="spacing" textLength="35" x="986" y="508.7285">name</text></g><!--class District--><g id="elem_District"><rect codeLine="70" fill="#F1F1F1" height="55.2422" id="District" rx="2.5" ry="2.5" style="stroke:#181818;stroke-width:0.5;" width="49" x="1133" y="461"/><text fill="#000000" font-family="sans-serif" font-size="14" lengthAdjust="spacing" textLength="43" x="1136" y="481.1074">District</text><line style="stroke:#181818;stroke-width:0.5;" x1="1134" x2="1181" y1="489.6211" y2="489.6211"/><text fill="#000000" font-family="sans-serif" font-size="14" lengthAdjust="spacing" textLength="35" x="1139" y="508.7285">name</text></g><!--class State--><g id="elem_State"><rect codeLine="73" fill="#F1F1F1" height="55.2422" id="State" rx="2.5" ry="2.5" style="stroke:#181818;stroke-width:0.5;" width="47" x="1288" y="461"/><text fill="#000000" font-family="sans-serif" font-size="14" lengthAdjust="spacing" textLength="33" x="1295" y="481.1074">State</text><line style="stroke:#181818;stroke-width:0.5;" x1="1289" x2="1334" y1="489.6211" y2="489.6211"/><text fill="#000000" font-family="sans-serif" font-size="14" lengthAdjust="spacing" textLength="35" x="1294" y="508.7285">name</text></g><!--link Listing to Property--><g id="link_Listing_Property"><path codeLine="79" d="M850.92,326.06 C839.34,357.51 823.83,399.65 811.56,432.99 " fill="none" id="Listing-Property" style="stroke:#181818;stroke-width:1.0;"/><polygon fill="#000000" points="842.7728,370.3377,848.6553,362.8646,843.1393,360.8342,842.7728,370.3377" style="stroke:#000000;stroke-width:1.0;"/><text fill="#000000" font-family="sans-serif" font-size="13" lengthAdjust="spacing" textLength="49" x="853.5" y="371.0283">contains</text><text fill="#000000" font-family="sans-serif" font-size="13" lengthAdjust="spacing" textLength="5" x="842.9984" y="348.428">*</text><text fill="#000000" font-family="sans-serif" font-size="13" lengthAdjust="spacing" textLength="5" x="808.8099" y="421.8289">*</text></g><!--link Owner to Listing--><g id="link_Owner_Listing"><path codeLine="80" d="M766.31,99.9 C775.82,124.15 794.2,168.5 814.5,204 C820.2,213.97 826.88,224.26 833.55,233.91 " fill="none" id="Owner-Listing" style="stroke:#181818;stroke-width:1.0;"/><polygon fill="#000000" points="821.7423,199.1145,820.3127,189.712,815.0591,192.348,821.7423,199.1145" style="stroke:#000000;stroke-width:1.0;"/><text fill="#000000" font-family="sans-serif" font-size="13" lengthAdjust="spacing" textLength="43" x="828.5" y="200.0283">creates</text><text fill="#000000" font-family="sans-serif" font-size="13" lengthAdjust="spacing" textLength="7" x="760.1582" y="121.0354">1</text><text fill="#000000" font-family="sans-serif" font-size="13" lengthAdjust="spacing" textLength="5" x="823.1964" y="222.9062">*</text></g><!--link Owner to Property--><g id="link_Owner_Property"><path codeLine="81" d="M759.12,99.5 C758.43,139.65 757.69,241.4 765.5,326 C768.8,361.77 775.19,401.63 780.81,432.79 " fill="none" id="Owner-Property" style="stroke:#181818;stroke-width:1.0;"/><polygon fill="#000000" points="770.8247,285.135,773.17,275.9181,767.3046,276.2998,770.8247,285.135" style="stroke:#000000;stroke-width:1.0;"/><text fill="#000000" font-family="sans-serif" font-size="13" lengthAdjust="spacing" textLength="30" x="779.5" y="285.5283">owns</text><text fill="#000000" font-family="sans-serif" font-size="13" lengthAdjust="spacing" textLength="7" x="751.0288" y="121.2163">1</text><text fill="#000000" font-family="sans-serif" font-size="13" lengthAdjust="spacing" textLength="5" x="774.12" y="421.6033">*</text></g><!--link House to Property--><g id="link_House_Property"><path codeLine="82" d="M170.73,404.86 C188.54,388.82 208.97,374.29 231,365.5 C322.43,329 583.49,326.79 674,365.5 C699.98,376.61 722.96,396.6 741.55,417.28 " fill="none" id="House-to-Property" style="stroke:#181818;stroke-width:1.0;"/><polygon fill="none" points="747.03,412.92,754.58,432.72,736.33,421.96,747.03,412.92" style="stroke:#181818;stroke-width:1.0;"/></g><!--link Apartment to Property--><g id="link_Apartment_Property"><path codeLine="83" d="M367.05,432.92 C389.83,407.18 420.44,379.3 455,365.5 C545.4,329.41 584.51,327.23 674,365.5 C699.98,376.61 722.96,396.6 741.55,417.28 " fill="none" id="Apartment-to-Property" style="stroke:#181818;stroke-width:1.0;"/><polygon fill="none" points="747.03,412.92,754.58,432.72,736.33,421.96,747.03,412.92" style="stroke:#181818;stroke-width:1.0;"/></g><!--link Land to Property--><g id="link_Land_Property"><path codeLine="84" d="M674.01,488.5 C678.91,488.5 683.82,488.5 688.72,488.5 " fill="none" id="Land-to-Property" style="stroke:#181818;stroke-width:1.0;"/><polygon fill="none" points="688.89,481.5,708.89,488.5,688.89,495.5,688.89,481.5" style="stroke:#181818;stroke-width:1.0;"/></g><!--link Property to City--><g id="link_Property_City"><path codeLine="85" d="M874.07,488.5 C911.97,488.5 954.08,488.5 979.67,488.5 " fill="none" id="Property-City" style="stroke:#181818;stroke-width:1.0;"/><polygon fill="#000000" points="901.5,476.1455,892.4549,473.2066,892.4549,479.0844,901.5,476.1455" style="stroke:#000000;stroke-width:1.0;"/><text fill="#000000" font-family="sans-serif" font-size="13" lengthAdjust="spacing" textLength="56" x="905.5" y="481.5283">located in</text><text fill="#000000" font-family="sans-serif" font-size="13" lengthAdjust="spacing" textLength="7" x="882.0046" y="484.7533">1</text><text fill="#000000" font-family="sans-serif" font-size="13" lengthAdjust="spacing" textLength="7" x="964.9834" y="483.1446">1</text></g><!--link City to District--><g id="link_City_District"><path codeLine="86" d="M1027.23,488.5 C1055.91,488.5 1103.95,488.5 1132.98,488.5 " fill="none" id="City-District" style="stroke:#181818;stroke-width:1.0;"/><polygon fill="#000000" points="1054.5,476.1455,1045.4549,473.2066,1045.4549,479.0844,1054.5,476.1455" style="stroke:#000000;stroke-width:1.0;"/><text fill="#000000" font-family="sans-serif" font-size="13" lengthAdjust="spacing" textLength="56" x="1058.5" y="481.5283">located in</text><text fill="#000000" font-family="sans-serif" font-size="13" lengthAdjust="spacing" textLength="5" x="1034.9351" y="483.0386">*</text><text fill="#000000" font-family="sans-serif" font-size="13" lengthAdjust="spacing" textLength="7" x="1118.0994" y="483.1446">1</text></g><!--link District to State--><g id="link_District_State"><path codeLine="87" d="M1182.24,488.5 C1211.32,488.5 1259.22,488.5 1287.83,488.5 " fill="none" id="District-State" style="stroke:#181818;stroke-width:1.0;"/><polygon fill="#000000" points="1209.5,476.1455,1200.4549,473.2066,1200.4549,479.0844,1209.5,476.1455" style="stroke:#000000;stroke-width:1.0;"/><text fill="#000000" font-family="sans-serif" font-size="13" lengthAdjust="spacing" textLength="56" x="1213.5" y="481.5283">located in</text><text fill="#000000" font-family="sans-serif" font-size="13" lengthAdjust="spacing" textLength="5" x="1189.9013" y="483.1446">*</text><text fill="#000000" font-family="sans-serif" font-size="13" lengthAdjust="spacing" textLength="7" x="1272.8488" y="483.0386">1</text></g><!--link Owner to Agent--><g id="link_Owner_Agent"><path codeLine="88" d="M783.28,81 C810.6,81 855.06,81 881.58,81 " fill="none" id="Owner-Agent" style="stroke:#181818;stroke-width:1.0;"/><polygon fill="#000000" points="810.5,68.6455,801.4549,65.7066,801.4549,71.5844,810.5,68.6455" style="stroke:#000000;stroke-width:1.0;"/><text fill="#000000" font-family="sans-serif" font-size="13" lengthAdjust="spacing" textLength="49" x="814.5" y="74.0283">chooses</text><text fill="#000000" font-family="sans-serif" font-size="13" lengthAdjust="spacing" textLength="7" x="790.9525" y="75.7319">1</text><text fill="#000000" font-family="sans-serif" font-size="13" lengthAdjust="spacing" textLength="7" x="867.1129" y="75.6298">1</text></g><!--link Agent to Employee--><g id="link_Agent_Employee"><path codeLine="89" d="M925.03,81 C944.51,81 974.31,81 1002.12,81 " fill="none" id="Agent-Employee" style="stroke:#181818;stroke-width:1.0;"/><polygon fill="#000000" points="952.25,68.6455,943.2049,65.7066,943.2049,71.5844,952.25,68.6455" style="stroke:#000000;stroke-width:1.0;"/><text fill="#000000" font-family="sans-serif" font-size="13" lengthAdjust="spacing" textLength="28" x="956.25" y="74.0283">is an</text><text fill="#000000" font-family="sans-serif" font-size="13" lengthAdjust="spacing" textLength="7" x="933.0083" y="75.4257">1</text><text fill="#000000" font-family="sans-serif" font-size="13" lengthAdjust="spacing" textLength="7" x="987.398" y="77.1488">1</text></g><!--link Agent to Listing--><g id="link_Agent_Listing"><path codeLine="90" d="M900.24,99.83 C894.76,129.85 883.51,191.38 875.74,233.89 " fill="none" id="Agent-Listing" style="stroke:#181818;stroke-width:1.0;"/><polygon fill="#000000" points="887.6011,199.564,892.1183,191.1947,886.3362,190.138,887.6011,199.564" style="stroke:#000000;stroke-width:1.0;"/><text fill="#000000" font-family="sans-serif" font-size="13" lengthAdjust="spacing" textLength="50" x="897.5" y="200.0283">validates</text><text fill="#000000" font-family="sans-serif" font-size="13" lengthAdjust="spacing" textLength="7" x="891.4233" y="121.2933">1</text><text fill="#000000" font-family="sans-serif" font-size="13" lengthAdjust="spacing" textLength="5" x="871.5831" y="222.8833">*</text></g><!--SRC=[nLJDRjim3BxhAOXU0Wm8i5sB8K3_W0NercBP2p0sOmkLH4-YssPTttsqh3XErvtdWsoI7_y_EJtOq6543vu3LsraJo2n9vCcIuVL0pQqaRqZY5G9XiRD0Qd5cfziQ627Bf4n2qSx0M68jca5QZjuMGvcvbGvJEb29DfjBxIkE6piBuAFnhIs9gXih3H9_lOaBTT9uueLhU6QFTe0NxacfyeS2UuToewZXnUp05ZMbAfekvnryMhC2Bfx2XGLyLhaYuQ2l9X9ll6TuptHYm5zDbgSDXNGKvPj4AYkllL-It5I23xFDCK5wpfIIdCLQSrkhkXQ3bHS3_blRHArZUcxo1r5sQ-lYsYhiOv4pjt5xrhwiVBx0eRHT-SO1J0IPl7AggNIOsOSn2kDGV5Qis8emOSIFg-zBdmrb2ZSHEpQASyNxXEL9Bd_a3kusrrI7PbzUiU2qlx3T8zH2T5ib69Kp3d_EA8LqC_UTdveDDksp0vQJ9UOw6_jEhIujO9RHxUyAyPD7swUEqvz94Z7RpDHuaBfA4Em_z3Kj7OCTKa_178Z2yhUStkFDbdjQxQ-8ntAEjbxczB0zq7vOz-HLjad6vI882VYiVk166FYpF93GGCZDBwyOze82ftezIcyXRCFPx1SvjU1aETQMH2zhmbMPhn_PvycL75Ka59Lw5tCCH8_vIWZ1vU_LvF97BTueiw3FT5CzoGdoESmWtDmN6a1jIv0C-Jxafl9YCCutg0EwXaoJ-SDRDPGFlDFHpjkcLFkE2jcWCDVw1ni0Wnl4VEnFQApTHdSyFm1]--></g></svg>